<svg xmlns="http://www.w3.org/2000/svg" width="768" height="768" viewBox="0 0 384 384">
<rect width="384" height="384" fill="#817379"/>
<polygon points="336.0,131.0 2.0,128.0 0.0,377.0 338.0,383.0 371.0,225.0" fill="#828386" />
<polygon points="337.0,133.0 1.0,129.0 0.0,378.0 338.0,383.0 371.0,225.0" fill="#828386" opacity="0.95" />
<polygon points="337.0,133.0 0.0,130.0 0.0,378.0 338.0,383.0 371.0,225.0" fill="#828386" opacity="0.95" />
<polygon points="0.0,0.0 0.0,79.0 71.0,89.0 23.0,117.0 142.0,125.0 157.0,108.0 135.0,70.0 116.0,82.0 87.0,42.0 37.0,38.0 49.0,0.0" fill="#595b5f" />
<polygon points="36.0,36.0 85.0,40.0 134.0,80.0 141.0,24.0 195.0,7.0 251.0,80.0 269.0,27.0 331.0,15.0 321.0,0.0 50.0,0.0" fill="#828386" />
<polygon points="344.0,91.0 341.0,123.0 322.0,127.0 372.0,227.0 363.0,342.0 339.0,383.0 383.0,383.0 383.0,126.0" fill="#595b5f" />
<polygon points="0.0,0.0 7.0,78.0 68.0,89.0 23.0,117.0 143.0,124.0 154.0,106.0 139.0,81.0 97.0,70.0 85.0,41.0 37.0,36.0 48.0,0.0" fill="#595b5f" opacity="0.95" />
<polygon points="38.0,36.0 85.0,40.0 133.0,79.0 141.0,24.0 195.0,7.0 251.0,80.0 269.0,27.0 330.0,14.0 320.0,0.0 50.0,0.0" fill="#828386" opacity="0.95" />
<polygon points="161.0,32.0 142.0,59.0 146.0,71.0 209.0,107.0 229.0,78.0 232.0,40.0 224.0,65.0 208.0,69.0 187.0,55.0 191.0,30.0" fill="#c00327" />
<polygon points="346.0,91.0 332.0,129.0 372.0,227.0 363.0,342.0 339.0,383.0 383.0,383.0 383.0,126.0" fill="#595b5f" opacity="0.95" />
<polygon points="323.0,0.0 332.0,16.0 317.0,18.0 345.0,38.0 348.0,82.0 368.0,79.0 372.0,50.0 383.0,39.0 383.0,0.0" fill="#595b5f" />
<polygon points="0.0,0.0 7.0,78.0 67.0,89.0 23.0,117.0 143.0,123.0 154.0,106.0 138.0,81.0 98.0,69.0 84.0,41.0 42.0,35.0 48.0,0.0" fill="#595b5f" opacity="0.95" />
<polygon points="267.0,54.0 281.0,89.0 332.0,102.0 345.0,60.0 325.0,72.0 302.0,55.0 341.0,49.0 337.0,38.0 295.0,41.0 276.0,60.0" fill="#c00327" />
<polygon points="44.0,35.0 87.0,41.0 131.0,79.0 141.0,24.0 196.0,7.0 231.0,33.0 232.0,77.0 251.0,80.0 269.0,27.0 330.0,14.0 320.0,0.0 50.0,0.0" fill="#828386" opacity="0.95" />
<polygon points="346.0,91.0 336.0,129.0 372.0,227.0 363.0,342.0 339.0,383.0 383.0,383.0 383.0,126.0" fill="#595b5f" opacity="0.95" />
<polygon points="159.0,33.0 142.0,59.0 146.0,71.0 209.0,107.0 234.0,50.0 208.0,69.0 187.0,55.0 192.0,32.0" fill="#c00327" opacity="0.95" />
<polygon points="231.0,78.0 221.0,101.0 209.0,109.0 221.0,125.0 255.0,125.0 260.0,108.0 250.0,102.0 264.0,98.0 258.0,79.0" fill="#595b5f" />
<polygon points="0.0,123.0 30.0,125.0 22.0,110.0 70.0,89.0 6.0,80.0 6.0,59.0 0.0,69.0 5.0,79.0" fill="#3e3b41" />
<polygon points="339.0,40.0 268.0,56.0 277.0,85.0 329.0,105.0 345.0,65.0 321.0,71.0 302.0,54.0" fill="#c00327" opacity="0.95" />
<polygon points="321.0,0.0 331.0,14.0 326.0,22.0 347.0,44.0 348.0,82.0 368.0,79.0 372.0,50.0 383.0,39.0 383.0,0.0" fill="#595b5f" opacity="0.95" />
<polygon points="141.0,69.0 143.0,88.0 157.0,107.0 178.0,103.0 201.0,110.0" fill="#6e020e" />
<polygon points="260.0,42.0 256.0,66.0 273.0,99.0 284.0,106.0 324.0,109.0 276.0,85.0" fill="#6e020e" />
<polygon points="383.0,40.0 372.0,54.0 371.0,77.0 352.0,85.0 345.0,78.0 340.0,91.0 350.0,92.0 377.0,116.0 366.0,122.0 383.0,125.0" fill="#3e3b41" />
<polygon points="161.0,32.0 155.0,52.0 142.0,59.0 146.0,71.0 190.0,104.0 209.0,107.0 225.0,87.0 234.0,52.0 221.0,68.0 208.0,69.0 187.0,55.0 181.0,35.0" fill="#c00327" opacity="0.95" />
<polygon points="339.0,40.0 294.0,43.0 269.0,58.0 277.0,85.0 329.0,105.0 344.0,70.0 317.0,70.0 302.0,54.0" fill="#c00327" opacity="0.95" />
<polygon points="0.0,123.0 31.0,124.0 20.0,112.0 66.0,88.0 6.0,78.0 9.0,65.0 1.0,67.0" fill="#3e3b41" opacity="0.95" />
<polygon points="322.0,0.0 331.0,14.0 327.0,22.0 347.0,44.0 347.0,80.0 352.0,84.0 368.0,79.0 372.0,50.0 383.0,39.0 383.0,0.0" fill="#595b5f" opacity="0.95" />
<polygon points="251.0,102.0 261.0,108.0 259.0,125.0 313.0,124.0 277.0,116.0 274.0,112.0 279.0,107.0 260.0,86.0 265.0,98.0" fill="#3e3b41" />
<polygon points="383.0,40.0 372.0,55.0 371.0,77.0 342.0,86.0 376.0,114.0 367.0,122.0 383.0,125.0" fill="#3e3b41" opacity="0.95" />
<polygon points="144.0,119.0 147.0,125.0 190.0,124.0 188.0,117.0 160.0,115.0 156.0,110.0 149.0,112.0" fill="#3e3b41" />
<polygon points="141.0,70.0 143.0,88.0 156.0,106.0 178.0,103.0 199.0,110.0" fill="#6e020e" opacity="0.95" />
<polygon points="158.0,112.0 199.0,118.0 201.0,115.0 178.0,104.0" fill="#350d19" />
<polygon points="259.0,43.0 256.0,66.0 273.0,99.0 284.0,106.0 324.0,109.0 276.0,85.0 267.0,48.0" fill="#6e020e" opacity="0.95" />
<polygon points="5.0,65.0 0.0,68.0 5.0,77.0 0.0,83.0 0.0,123.0 25.0,125.0 28.0,121.0 20.0,112.0 59.0,89.0 12.0,82.0" fill="#3e3b41" opacity="0.95" />
<polygon points="383.0,40.0 372.0,55.0 371.0,77.0 342.0,86.0 374.0,113.0 368.0,122.0 383.0,125.0" fill="#3e3b41" opacity="0.95" />
<polygon points="218.0,29.0 193.0,40.0 217.0,38.0 224.0,42.0 221.0,55.0 204.0,65.0 208.0,68.0 221.0,67.0 229.0,48.0" fill="#f14273" />
<polygon points="275.0,113.0 306.0,117.0 324.0,111.0 311.0,108.0 300.0,111.0 299.0,106.0 281.0,106.0" fill="#350d19" />
<polygon points="338.0,123.0 335.0,113.0 328.0,107.0 323.0,113.0 306.0,118.0 316.0,125.0 336.0,125.0" fill="#713d4a" />
<polygon points="253.0,101.0 260.0,107.0 257.0,119.0 260.0,125.0 312.0,124.0 300.0,118.0 276.0,115.0 278.0,106.0 268.0,99.0" fill="#3e3b41" opacity="0.95" />
<polygon points="212.0,356.0 216.0,362.0 216.0,373.0 213.0,377.0 209.0,379.0 205.0,375.0 205.0,358.0 207.0,356.0" fill="#828386" />
<polygon points="141.0,73.0 143.0,88.0 156.0,106.0 167.0,108.0 175.0,103.0 186.0,104.0 153.0,75.0" fill="#6e020e" opacity="0.95" />
<polygon points="169.0,357.0 175.0,357.0 178.0,360.0 178.0,366.0 181.0,374.0 177.0,379.0 170.0,378.0 167.0,375.0 167.0,359.0" fill="#828386" />
<polygon points="159.0,16.0 160.0,23.0 164.0,26.0 176.0,29.0 184.0,25.0 183.0,21.0 180.0,24.0 171.0,13.0" fill="#e4d285" />
<polygon points="219.0,46.0 215.0,43.0 200.0,44.0 196.0,46.0 194.0,50.0 197.0,53.0 196.0,55.0 203.0,59.0 212.0,58.0 216.0,55.0 216.0,51.0" fill="#fcd6cc" />
<polygon points="259.0,43.0 256.0,66.0 273.0,99.0 284.0,106.0 308.0,105.0 302.0,96.0 276.0,85.0 267.0,48.0" fill="#6e020e" opacity="0.95" />
<polygon points="291.0,43.0 283.0,38.0 277.0,37.0 270.0,47.0 266.0,45.0 269.0,52.0 275.0,58.0 279.0,58.0 281.0,56.0 281.0,49.0" fill="#b42b4d" />
<polygon points="325.0,23.0 317.0,20.0 310.0,28.0 306.0,37.0 308.0,38.0 310.0,36.0 319.0,35.0 325.0,30.0" fill="#ae6063" />
<polygon points="157.0,15.0 142.0,24.0 135.0,39.0 139.0,37.0 147.0,24.0 161.0,26.0" fill="#e39095" />
<polygon points="257.0,68.0 261.0,85.0 271.0,99.0 266.0,81.0" fill="#350d19" />
<polygon points="156.0,41.0 150.0,39.0 148.0,47.0 142.0,50.0 134.0,46.0 134.0,59.0 138.0,65.0 142.0,64.0 140.0,60.0 144.0,55.0 154.0,52.0" fill="#b42b4d" />
<polygon points="145.0,117.0 145.0,123.0 148.0,125.0 190.0,124.0 188.0,117.0 161.0,115.0 155.0,110.0 149.0,112.0" fill="#3e3b41" opacity="0.95" />
<polygon points="191.0,120.0 192.0,125.0 218.0,124.0 214.0,117.0 206.0,115.0 203.0,111.0 200.0,112.0 202.0,115.0 199.0,119.0" fill="#713d4a" />
<polygon points="159.0,111.0 161.0,114.0 200.0,117.0 199.0,113.0 178.0,104.0" fill="#350d19" opacity="0.95" />
<polygon points="220.0,30.0 208.0,36.0 224.0,42.0 221.0,55.0 205.0,64.0 208.0,68.0 221.0,67.0 229.0,48.0" fill="#f14273" opacity="0.95" />
<polygon points="279.0,27.0 278.0,33.0 282.0,36.0 300.0,36.0 298.0,30.0 295.0,34.0 285.0,25.0 281.0,25.0" fill="#e4d285" />
<polygon points="208.0,356.0 213.0,357.0 216.0,362.0 216.0,373.0 211.0,378.0 205.0,376.0 205.0,358.0" fill="#828386" opacity="0.95" />
<polygon points="338.0,123.0 335.0,113.0 327.0,108.0 324.0,112.0 309.0,117.0 317.0,125.0 335.0,125.0" fill="#713d4a" opacity="0.95" />
<polygon points="170.0,357.0 174.0,357.0 178.0,360.0 180.0,377.0 177.0,379.0 171.0,378.0 167.0,375.0 167.0,359.0" fill="#828386" opacity="0.95" />
<polygon points="276.0,111.0 278.0,115.0 296.0,117.0 318.0,113.0 316.0,109.0 300.0,111.0 295.0,107.0 283.0,106.0" fill="#350d19" opacity="0.95" />
<polygon points="287.0,24.0 293.0,30.0 297.0,26.0 301.0,30.0 306.0,30.0 310.0,24.0 307.0,21.0 300.0,22.0 296.0,20.0 292.0,20.0" fill="#c00327" />
<polygon points="218.0,45.0 215.0,43.0 201.0,44.0 195.0,47.0 194.0,50.0 197.0,55.0 203.0,59.0 212.0,58.0 216.0,55.0" fill="#fcd6cc" opacity="0.95" />
<polygon points="196.0,11.0 199.0,15.0 198.0,20.0 207.0,18.0 217.0,26.0 222.0,24.0 214.0,16.0 206.0,15.0 202.0,11.0" fill="#e39095" />
<polygon points="151.0,26.0 141.0,33.0 142.0,35.0 135.0,40.0 134.0,45.0 142.0,48.0 147.0,47.0 144.0,41.0 147.0,33.0 145.0,31.0" fill="#ae6063" />
<polygon points="216.0,28.0 210.0,23.0 205.0,27.0 200.0,27.0 193.0,34.0 195.0,36.0 202.0,36.0 209.0,28.0 214.0,30.0" fill="#b42b4d" />
<polygon points="282.0,38.0 277.0,39.0 268.0,48.0 269.0,52.0 275.0,58.0 280.0,57.0 281.0,49.0 289.0,45.0 289.0,43.0" fill="#b42b4d" opacity="0.95" />
<polygon points="344.0,58.0 344.0,52.0 334.0,45.0 305.0,52.0 317.0,49.0 327.0,52.0 334.0,47.0 341.0,54.0 341.0,59.0" fill="#f14273" />
<polygon points="273.0,26.0 261.0,37.0 268.0,44.0 270.0,43.0 272.0,44.0 274.0,42.0 273.0,39.0 274.0,37.0 271.0,34.0 274.0,28.0" fill="#ae6063" />
<polygon points="191.0,120.0 191.0,124.0 193.0,125.0 218.0,124.0 214.0,117.0 204.0,114.0 198.0,119.0" fill="#713d4a" opacity="0.95" />
<polygon points="159.0,16.0 160.0,23.0 162.0,25.0 176.0,29.0 179.0,27.0 178.0,21.0 172.0,14.0 166.0,13.0" fill="#e4d285" opacity="0.95" />
<polygon points="155.0,42.0 148.0,42.0 148.0,47.0 142.0,50.0 134.0,48.0 134.0,59.0 137.0,64.0 141.0,64.0 143.0,57.0 154.0,52.0" fill="#b42b4d" opacity="0.95" />
<polygon points="338.0,123.0 335.0,113.0 328.0,109.0 311.0,118.0 318.0,125.0 335.0,125.0" fill="#713d4a" opacity="0.95" />
<polygon points="306.0,55.0 307.0,61.0 311.0,55.0 322.0,56.0 324.0,62.0 319.0,68.0 323.0,65.0 325.0,67.0 329.0,61.0 328.0,52.0 316.0,51.0" fill="#e39095" />
<polygon points="223.0,42.0 217.0,39.0 198.0,41.0 189.0,47.0 189.0,51.0 194.0,54.0 193.0,48.0 199.0,43.0 215.0,42.0 220.0,46.0" fill="#e39095" />
<polygon points="325.0,23.0 319.0,20.0 316.0,21.0 315.0,25.0 310.0,28.0 308.0,35.0 316.0,36.0 325.0,31.0" fill="#ae6063" opacity="0.95" />
<polygon points="218.0,45.0 215.0,43.0 201.0,44.0 195.0,47.0 194.0,50.0 204.0,59.0 212.0,58.0 216.0,55.0" fill="#fcd6cc" opacity="0.95" />
<polygon points="276.0,111.0 279.0,115.0 306.0,117.0 317.0,113.0 311.0,108.0 300.0,111.0 294.0,107.0 283.0,106.0" fill="#350d19" opacity="0.95" />
<polygon points="165.0,110.0 171.0,115.0 185.0,115.0 192.0,118.0 200.0,116.0 199.0,113.0 178.0,104.0" fill="#350d19" opacity="0.95" />
<polygon points="309.0,62.0 311.0,64.0 317.0,66.0 323.0,62.0 322.0,61.0 323.0,58.0 320.0,56.0 311.0,56.0 310.0,57.0 311.0,60.0" fill="#fcd6cc" />
<polygon points="281.0,38.0 277.0,39.0 268.0,48.0 269.0,52.0 276.0,58.0 281.0,56.0 281.0,49.0 286.0,45.0 284.0,40.0" fill="#b42b4d" opacity="0.95" />
<polygon points="220.0,30.0 216.0,37.0 223.0,42.0 221.0,55.0 215.0,62.0 207.0,62.0 205.0,66.0 221.0,67.0 223.0,55.0 229.0,48.0" fill="#f14273" opacity="0.95" />
<polygon points="158.0,16.0 155.0,15.0 146.0,20.0 136.0,35.0 140.0,35.0 147.0,24.0 159.0,26.0" fill="#e39095" opacity="0.95" />
<polygon points="159.0,16.0 160.0,23.0 162.0,25.0 176.0,29.0 179.0,27.0 178.0,21.0 172.0,14.0 166.0,13.0" fill="#e4d285" opacity="0.95" />
<polygon points="154.0,48.0 150.0,46.0 142.0,50.0 135.0,50.0 134.0,59.0 137.0,61.0 152.0,54.0" fill="#b42b4d" opacity="0.95" />
<polygon points="198.0,12.0 198.0,19.0 207.0,18.0 216.0,25.0 220.0,25.0 216.0,18.0 201.0,11.0" fill="#e39095" opacity="0.95" />
<polygon points="333.0,30.0 332.0,34.0 340.0,40.0 344.0,50.0 345.0,47.0 342.0,39.0" fill="#b42b4d" />
<polygon points="279.0,27.0 278.0,33.0 280.0,35.0 289.0,37.0 294.0,36.0 294.0,33.0 292.0,30.0 287.0,26.0 282.0,25.0" fill="#e4d285" opacity="0.95" />
<polygon points="310.0,57.0 309.0,63.0 316.0,66.0 322.0,63.0 322.0,57.0 320.0,56.0" fill="#fcd6cc" opacity="0.95" />
<polygon points="217.0,121.0 214.0,117.0 204.0,114.0 199.0,118.0 192.0,120.0 191.0,123.0 194.0,125.0 214.0,125.0 217.0,123.0" fill="#713d4a" opacity="0.95" />
<polygon points="288.0,23.0 288.0,25.0 293.0,29.0 297.0,27.0 302.0,30.0 306.0,30.0 309.0,27.0 309.0,22.0 307.0,21.0 300.0,22.0 292.0,20.0" fill="#c00327" opacity="0.95" />
<polygon points="333.0,51.0 329.0,54.0 330.0,55.0 332.0,54.0 334.0,56.0 330.0,61.0 332.0,63.0 334.0,62.0 337.0,64.0 339.0,62.0 339.0,54.0 335.0,51.0" fill="#fcd6cc" />
<polygon points="135.0,62.0 134.0,63.0 140.0,80.0 141.0,79.0 140.0,70.0" fill="#713d4a" />
<polygon points="269.0,29.0 262.0,35.0 262.0,39.0 265.0,40.0 267.0,43.0 271.0,44.0 274.0,42.0 272.0,30.0" fill="#ae6063" opacity="0.95" />
<polygon points="260.0,73.0 258.0,74.0 259.0,80.0 264.0,91.0 268.0,95.0 270.0,94.0 269.0,88.0 263.0,75.0" fill="#350d19" opacity="0.95" />
<polygon points="279.0,27.0 278.0,33.0 280.0,35.0 289.0,37.0 294.0,35.0 292.0,30.0 287.0,26.0 282.0,25.0" fill="#e4d285" opacity="0.95" />
<polygon points="158.0,17.0 155.0,15.0 146.0,20.0 145.0,23.0 148.0,25.0 156.0,26.0 159.0,24.0" fill="#e39095" opacity="0.95" />
<polygon points="144.0,31.0 142.0,32.0 142.0,35.0 135.0,40.0 135.0,44.0 139.0,47.0 145.0,48.0 147.0,47.0 147.0,44.0 144.0,41.0 144.0,35.0 146.0,34.0" fill="#ae6063" opacity="0.95" />
<polygon points="215.0,26.0 212.0,24.0 207.0,27.0 203.0,26.0 197.0,31.0 197.0,35.0 201.0,36.0 206.0,33.0 208.0,29.0 213.0,29.0" fill="#b42b4d" opacity="0.95" />
<polygon points="325.0,24.0 322.0,22.0 317.0,27.0 311.0,28.0 308.0,34.0 311.0,36.0 320.0,34.0 321.0,29.0 325.0,26.0" fill="#ae6063" opacity="0.95" />
<polygon points="288.0,23.0 288.0,25.0 293.0,29.0 297.0,27.0 305.0,30.0 309.0,27.0 309.0,23.0 306.0,21.0 299.0,22.0 292.0,20.0" fill="#c00327" opacity="0.95" />
<polygon points="277.0,25.0 273.0,30.0 272.0,34.0 274.0,36.0 277.0,36.0 278.0,35.0 277.0,33.0 277.0,30.0 279.0,26.0" fill="#e39095" />
<polygon points="189.0,52.0 188.0,53.0 188.0,55.0 192.0,59.0 196.0,60.0 197.0,58.0 194.0,55.0 191.0,54.0" fill="#f14273" />
<polygon points="314.0,52.0 314.0,54.0 322.0,56.0 324.0,58.0 323.0,65.0 327.0,65.0 329.0,62.0 328.0,54.0 319.0,51.0" fill="#e39095" opacity="0.95" />
<polygon points="268.0,31.0 262.0,36.0 262.0,38.0 271.0,44.0 274.0,42.0 273.0,36.0" fill="#ae6063" opacity="0.95" />
<polygon points="335.0,69.0 329.0,65.0 325.0,68.0 323.0,66.0 320.0,69.0 321.0,70.0 324.0,70.0 326.0,68.0 329.0,71.0 332.0,71.0" fill="#f14273" />
<polygon points="180.0,14.0 180.0,17.0 185.0,14.0 189.0,18.0 189.0,24.0 192.0,21.0 190.0,18.0 190.0,15.0 192.0,13.0 191.0,12.0" fill="#ae6063" />
<polygon points="203.0,21.0 199.0,21.0 196.0,23.0 197.0,24.0 194.0,27.0 197.0,30.0 198.0,27.0 201.0,24.0 203.0,25.0 204.0,24.0" fill="#ae6063" />
<polygon points="188.0,18.0 185.0,15.0 181.0,17.0 180.0,19.0 182.0,21.0 183.0,20.0 184.0,21.0 187.0,21.0 188.0,20.0" fill="#e39095" />
<polygon points="311.0,58.0 310.0,63.0 313.0,65.0 317.0,66.0 322.0,63.0 322.0,58.0 319.0,56.0 314.0,56.0" fill="#fcd6cc" opacity="0.95" />
<polygon points="334.0,51.0 332.0,52.0 333.0,57.0 330.0,59.0 330.0,61.0 333.0,63.0 334.0,62.0 337.0,63.0 339.0,62.0 339.0,54.0" fill="#fcd6cc" opacity="0.95" />
<polygon points="333.0,46.0 331.0,45.0 330.0,46.0 322.0,47.0 320.0,48.0 320.0,51.0 327.0,52.0 331.0,50.0 333.0,48.0" fill="#f14273" opacity="0.95" />
<polygon points="156.0,30.0 155.0,31.0 153.0,30.0 151.0,32.0 152.0,34.0 151.0,35.0 154.0,39.0 156.0,37.0 156.0,35.0 157.0,34.0 156.0,32.0 157.0,31.0" fill="#6e020e" />
<polygon points="310.0,38.0 312.0,40.0 311.0,41.0 312.0,42.0 315.0,41.0 317.0,39.0 317.0,38.0 316.0,37.0 311.0,37.0" fill="#b42b4d" />
<polygon points="336.0,55.0 332.0,58.0 332.0,61.0 335.0,63.0 339.0,61.0 339.0,57.0" fill="#fcd6cc" opacity="0.95" />
<polygon points="210.0,29.0 209.0,29.0 207.0,31.0 207.0,33.0 208.0,34.0 209.0,34.0 211.0,32.0 211.0,30.0" fill="#c00327" />
<polygon points="327.0,66.0 327.0,69.0 330.0,71.0 334.0,70.0 334.0,68.0 333.0,68.0 331.0,66.0 329.0,65.0" fill="#f14273" opacity="0.95" />
<polygon points="326.0,46.0 323.0,48.0 323.0,50.0 327.0,52.0 330.0,50.0 330.0,48.0" fill="#f14273" opacity="0.95" />
<polygon points="189.0,55.0 189.0,57.0 190.0,57.0 192.0,59.0 194.0,60.0 196.0,59.0 196.0,57.0 194.0,55.0 192.0,54.0" fill="#f14273" opacity="0.95" />
<polygon points="154.0,30.0 153.0,31.0 152.0,31.0 152.0,36.0 153.0,36.0 154.0,37.0 155.0,36.0 156.0,36.0 156.0,31.0 155.0,31.0" fill="#6e020e" opacity="0.95" />
</svg>