<svg xmlns="http://www.w3.org/2000/svg" width="768" height="768" viewBox="0 0 384 384">
<rect width="384" height="384" fill="#865f4b"/>
<polygon points="0.0,0.0 0.0,188.0 102.0,254.0 0.0,260.0 0.0,383.0 180.0,383.0 131.0,305.0 184.0,246.0 123.0,159.0 228.0,99.0 263.0,322.0 208.0,383.0 383.0,383.0 383.0,0.0" fill="#855146" opacity="0.95" />
<polygon points="0.0,0.0 0.0,124.0 41.0,128.0 2.0,131.0 2.0,189.0 126.0,192.0 4.0,197.0 149.0,256.0 3.0,258.0 3.0,320.0 130.0,320.0 186.0,247.0 123.0,159.0 193.0,157.0 228.0,98.0 267.0,191.0 383.0,190.0 383.0,0.0 336.0,0.0 336.0,66.0 332.0,0.0 135.0,0.0 133.0,33.0 131.0,0.0" fill="#855146" />
<polygon points="0.0,0.0 0.0,187.0 69.0,253.0 0.0,261.0 0.0,383.0 180.0,383.0 127.0,323.0 182.0,246.0 123.0,160.0 228.0,99.0 262.0,321.0 208.0,383.0 383.0,383.0 383.0,0.0" fill="#855146" opacity="0.95" />
<polygon points="210.0,245.0 251.0,275.0 262.0,320.0 383.0,320.0 383.0,194.0 267.0,193.0 249.0,231.0" fill="#855146" />
<polygon points="208.0,382.0 383.0,383.0 383.0,325.0 255.0,324.0 239.0,367.0" fill="#855146" />
<polygon points="125.0,168.0 149.0,210.0 200.0,223.0 245.0,198.0 259.0,162.0 127.0,161.0" fill="#85e9bf" />
<polygon points="181.0,383.0 154.0,349.0 159.0,325.0 138.0,316.0 149.0,323.0 134.0,336.0 131.0,325.0 2.0,326.0 2.0,383.0" fill="#855146" />
<polygon points="125.0,164.0 138.0,199.0 182.0,223.0 228.0,213.0 258.0,171.0 256.0,161.0" fill="#85e9bf" opacity="0.95" />
<polygon points="231.0,102.0 202.0,137.0 199.0,157.0 258.0,156.0 255.0,134.0" fill="#4ccb01" />
<polygon points="247.0,291.0 157.0,328.0 155.0,349.0 182.0,383.0 242.0,362.0 251.0,325.0 194.0,361.0 171.0,336.0 247.0,320.0" fill="#3e291b" />
<polygon points="125.0,164.0 138.0,199.0 182.0,223.0 228.0,213.0 258.0,171.0 255.0,161.0" fill="#85e9bf" opacity="0.95" />
<polygon points="0.0,197.0 3.0,255.0 93.0,253.0 64.0,252.0 56.0,245.0 56.0,229.0 37.0,210.0 39.0,200.0" fill="#af8576" />
<polygon points="248.0,297.0 230.0,295.0 157.0,328.0 155.0,349.0 181.0,383.0 207.0,383.0 242.0,362.0 253.0,339.0 244.0,321.0 260.0,319.0" fill="#3e291b" opacity="0.95" />
<polygon points="247.0,299.0 230.0,295.0 157.0,328.0 155.0,349.0 181.0,383.0 207.0,383.0 242.0,362.0 253.0,339.0 246.0,320.0 259.0,318.0" fill="#3e291b" opacity="0.95" />
<polygon points="234.0,104.0 228.0,103.0 208.0,128.0 198.0,156.0 258.0,156.0 255.0,134.0" fill="#4ccb01" opacity="0.95" />
<polygon points="239.0,326.0 216.0,324.0 172.0,338.0 183.0,350.0 193.0,349.0 197.0,358.0 208.0,357.0 227.0,347.0" fill="#180d0b" />
<polygon points="221.0,257.0 195.0,247.0 158.0,259.0 139.0,281.0 142.0,293.0 177.0,290.0 162.0,273.0 184.0,257.0 213.0,266.0" fill="#adc431" />
<polygon points="40.0,201.0 0.0,202.0 0.0,253.0 63.0,254.0 62.0,247.0 54.0,243.0 56.0,229.0 37.0,210.0" fill="#af8576" opacity="0.95" />
<polygon points="241.0,268.0 231.0,256.0 226.0,276.0 166.0,296.0 141.0,313.0 191.0,303.0 212.0,287.0 223.0,293.0" fill="#607c08" />
<polygon points="244.0,272.0 223.0,294.0 208.0,289.0 191.0,304.0 142.0,316.0 172.0,322.0 230.0,294.0 240.0,299.0 248.0,286.0" fill="#415406" />
<polygon points="38.0,200.0 0.0,202.0 1.0,253.0 61.0,253.0 62.0,247.0 54.0,242.0 56.0,229.0 37.0,210.0" fill="#af8576" opacity="0.95" />
<polygon points="136.0,201.0 142.0,217.0 153.0,228.0 176.0,242.0 192.0,245.0 191.0,233.0 176.0,229.0" fill="#3e291b" />
<polygon points="234.0,104.0 228.0,103.0 208.0,128.0 198.0,147.0 199.0,156.0 258.0,155.0 255.0,134.0" fill="#4ccb01" opacity="0.95" />
<polygon points="243.0,321.0 231.0,344.0 208.0,358.0 193.0,359.0 171.0,338.0 177.0,332.0 222.0,324.0 236.0,313.0" fill="#3e291b" opacity="0.95" />
<polygon points="248.0,199.0 226.0,217.0 197.0,226.0 196.0,232.0 211.0,235.0 230.0,229.0 247.0,214.0" fill="#180d0b" />
<polygon points="240.0,315.0 228.0,318.0 227.0,325.0 172.0,338.0 198.0,358.0 212.0,355.0 237.0,335.0" fill="#180d0b" opacity="0.95" />
<polygon points="261.0,165.0 251.0,215.0 221.0,234.0 196.0,234.0 197.0,245.0 230.0,239.0 247.0,227.0 263.0,198.0 257.0,192.0 265.0,189.0" fill="#3e291b" />
<polygon points="263.0,169.0 251.0,216.0 221.0,234.0 193.0,236.0 136.0,207.0 176.0,242.0 221.0,242.0 258.0,211.0" fill="#3e291b" opacity="0.95" />
<polygon points="244.0,272.0 223.0,294.0 212.0,288.0 145.0,318.0 172.0,322.0 230.0,294.0 240.0,297.0" fill="#415406" opacity="0.95" />
<polygon points="220.0,255.0 195.0,247.0 157.0,260.0 140.0,279.0 143.0,295.0 173.0,291.0 160.0,276.0 178.0,261.0 199.0,255.0 219.0,266.0" fill="#adc431" opacity="0.95" />
<polygon points="244.0,321.0 231.0,344.0 208.0,358.0 194.0,359.0 171.0,338.0 177.0,332.0 220.0,324.0 236.0,313.0" fill="#3e291b" opacity="0.95" />
<polygon points="240.0,267.0 230.0,261.0 222.0,287.0 210.0,280.0 142.0,313.0 190.0,303.0 212.0,287.0 223.0,293.0" fill="#607c08" opacity="0.95" />
<polygon points="240.0,316.0 232.0,316.0 228.0,325.0 172.0,338.0 183.0,350.0 206.0,357.0 230.0,344.0" fill="#180d0b" opacity="0.95" />
<polygon points="202.0,278.0 194.0,276.0 177.0,291.0 145.0,297.0 138.0,282.0 140.0,307.0 184.0,293.0" fill="#8ba510" />
<polygon points="248.0,201.0 213.0,223.0 176.0,228.0 203.0,235.0 221.0,233.0 247.0,214.0" fill="#180d0b" opacity="0.95" />
<polygon points="221.0,257.0 195.0,247.0 161.0,258.0 145.0,270.0 142.0,293.0 161.0,294.0 163.0,271.0 199.0,255.0 219.0,266.0" fill="#adc431" opacity="0.95" />
<polygon points="240.0,267.0 233.0,262.0 221.0,281.0 190.0,287.0 142.0,312.0 190.0,303.0 210.0,287.0 223.0,293.0" fill="#607c08" opacity="0.95" />
<polygon points="136.0,205.0 153.0,228.0 186.0,246.0 230.0,239.0 248.0,223.0 194.0,237.0" fill="#3e291b" opacity="0.95" />
<polygon points="42.0,128.0 44.0,126.0 98.0,126.0 100.0,128.0 98.0,130.0 44.0,130.0" fill="#855146" />
<polygon points="221.0,295.0 212.0,288.0 199.0,300.0 165.0,308.0 149.0,319.0 172.0,322.0 212.0,305.0" fill="#415406" opacity="0.95" />
<polygon points="282.0,256.0 284.0,254.0 325.0,254.0 327.0,256.0 325.0,258.0 284.0,258.0" fill="#855146" />
<polygon points="248.0,203.0 243.0,202.0 218.0,221.0 182.0,230.0 203.0,235.0 226.0,231.0 247.0,214.0" fill="#180d0b" opacity="0.95" />
<polygon points="212.0,247.0 224.0,263.0 213.0,270.0 217.0,275.0 211.0,278.0 215.0,279.0 227.0,274.0 230.0,259.0 227.0,253.0" fill="#8ba510" />
<polygon points="204.0,261.0 192.0,256.0 176.0,268.0 170.0,266.0 168.0,277.0 178.0,281.0 171.0,273.0 176.0,268.0 180.0,275.0 193.0,263.0 185.0,274.0 197.0,276.0 201.0,270.0 195.0,267.0" fill="#c1d48a" />
<polygon points="194.0,103.0 196.0,105.0 196.0,125.0 198.0,127.0 196.0,129.0 192.0,129.0 190.0,127.0 192.0,125.0 192.0,105.0" fill="#855146" />
<polygon points="246.0,257.0 250.0,252.0 252.0,254.0 267.0,254.0 269.0,256.0 267.0,258.0 252.0,258.0 250.0,260.0" fill="#855146" />
<polygon points="174.0,225.0 176.0,228.0 185.0,232.0 190.0,233.0 193.0,230.0 191.0,226.0 182.0,226.0 175.0,224.0" fill="#180d0b" />
<polygon points="136.0,287.0 136.0,293.0 143.0,307.0 162.0,299.0 160.0,295.0 152.0,299.0 141.0,294.0 140.0,287.0" fill="#8ba510" opacity="0.95" />
<polygon points="219.0,249.0 217.0,252.0 221.0,255.0 223.0,262.0 217.0,270.0 220.0,274.0 229.0,268.0 229.0,255.0" fill="#8ba510" opacity="0.95" />
<polygon points="261.0,173.0 253.0,187.0 255.0,194.0 251.0,200.0 251.0,212.0 254.0,214.0 259.0,209.0 263.0,198.0 261.0,191.0 265.0,188.0 264.0,175.0" fill="#3e291b" opacity="0.95" />
<polygon points="241.0,272.0 237.0,275.0 237.0,282.0 229.0,290.0 230.0,293.0 239.0,297.0 243.0,295.0 246.0,287.0 244.0,283.0 244.0,274.0" fill="#415406" opacity="0.95" />
<polygon points="240.0,314.0 239.0,313.0 238.0,314.0 235.0,314.0 226.0,320.0 227.0,321.0 238.0,320.0 240.0,318.0" fill="#180d0b" />
<polygon points="139.0,297.0 140.0,303.0 144.0,307.0 161.0,300.0 158.0,296.0 152.0,299.0 142.0,295.0" fill="#8ba510" opacity="0.95" />
<polygon points="220.0,280.0 221.0,281.0 223.0,280.0 226.0,284.0 222.0,287.0 220.0,287.0 218.0,285.0 218.0,282.0" fill="#607c08" />
<polygon points="224.0,252.0 221.0,254.0 223.0,262.0 221.0,268.0 226.0,270.0 229.0,268.0 229.0,255.0" fill="#8ba510" opacity="0.95" />
<polygon points="138.0,305.0 135.0,308.0 134.0,308.0 133.0,309.0 137.0,313.0 140.0,310.0 140.0,308.0" fill="#adc431" />
<polygon points="76.0,209.0 73.0,206.0 72.0,207.0 69.0,207.0 68.0,208.0 68.0,210.0 71.0,212.0 74.0,212.0" fill="#af8576" />
<polygon points="219.0,282.0 219.0,285.0 220.0,286.0 222.0,286.0 225.0,284.0 223.0,281.0 221.0,282.0 220.0,281.0" fill="#415406" />
<polygon points="132.0,322.0 132.0,323.0 134.0,325.0 135.0,324.0 143.0,324.0 144.0,323.0 143.0,322.0 135.0,322.0 134.0,321.0" fill="#f7efe3" />
<polygon points="187.0,261.0 185.0,262.0 185.0,266.0 188.0,267.0 189.0,270.0 185.0,273.0 185.0,275.0 189.0,276.0 193.0,273.0 193.0,271.0 189.0,269.0 191.0,263.0" fill="#c1d48a" opacity="0.95" />
<polygon points="206.0,266.0 202.0,267.0 205.0,271.0 203.0,273.0 201.0,271.0 199.0,273.0 200.0,274.0 201.0,273.0 204.0,275.0 205.0,274.0 204.0,273.0 207.0,270.0" fill="#8ba510" />
<polygon points="57.0,212.0 55.0,214.0 55.0,215.0 56.0,216.0 54.0,218.0 55.0,219.0 56.0,219.0 57.0,218.0 58.0,219.0 59.0,218.0 59.0,214.0" fill="#af8576" />
<polygon points="75.0,207.0 73.0,206.0 72.0,207.0 70.0,207.0 68.0,208.0 68.0,210.0 71.0,212.0 73.0,212.0 75.0,211.0" fill="#af8576" opacity="0.95" />
<polygon points="138.0,307.0 135.0,309.0 135.0,311.0 136.0,311.0 137.0,312.0 140.0,311.0 140.0,308.0 139.0,308.0" fill="#adc431" opacity="0.95" />
<polygon points="222.0,281.0 219.0,283.0 219.0,285.0 220.0,285.0 221.0,286.0 224.0,285.0 224.0,282.0 223.0,282.0" fill="#415406" opacity="0.95" />
<polygon points="172.0,266.0 171.0,267.0 170.0,267.0 170.0,268.0 169.0,269.0 169.0,271.0 170.0,271.0 171.0,272.0 174.0,270.0 174.0,267.0 173.0,267.0" fill="#c1d48a" opacity="0.95" />
</svg>