<svg xmlns="http://www.w3.org/2000/svg" width="768" height="768" viewBox="0 0 384 384">
<rect width="384" height="384" fill="#946059"/>
<polygon points="0.0,13.0 1.0,372.0 231.0,383.0 383.0,346.0 383.0,50.0 353.0,16.0" fill="#a75449" />
<polygon points="0.0,13.0 0.0,371.0 242.0,383.0 375.0,346.0 383.0,50.0 353.0,17.0" fill="#a75449" opacity="0.95" />
<polygon points="0.0,13.0 0.0,371.0 356.0,362.0 383.0,320.0 383.0,50.0 352.0,17.0" fill="#a75449" opacity="0.95" />
<polygon points="131.0,87.0 270.0,89.0 272.0,274.0 293.0,278.0 292.0,308.0 112.0,305.0 114.0,277.0 130.0,273.0" fill="#a75449" />
<polygon points="132.0,88.0 269.0,89.0 272.0,274.0 295.0,281.0 292.0,307.0 112.0,305.0 114.0,277.0 130.0,273.0" fill="#a75449" opacity="0.95" />
<polygon points="133.0,88.0 269.0,90.0 272.0,273.0 295.0,281.0 291.0,307.0 112.0,304.0 114.0,278.0 130.0,273.0" fill="#a75449" opacity="0.95" />
<polygon points="135.0,121.0 133.0,274.0 116.0,290.0 291.0,291.0 267.0,267.0 262.0,125.0 263.0,263.0 206.0,263.0 204.0,124.0 198.0,263.0 139.0,263.0" fill="#eae4e3" />
<polygon points="113.0,304.0 279.0,307.0 291.0,294.0 114.0,293.0" fill="#062f38" />
<polygon points="133.0,122.0 132.0,274.0 116.0,290.0 292.0,290.0 269.0,275.0 265.0,247.0 260.0,265.0 206.0,263.0 201.0,124.0 198.0,263.0 139.0,263.0" fill="#eae4e3" opacity="0.95" />
<polygon points="141.0,236.0 141.0,264.0 179.0,263.0 178.0,235.0" fill="#2dadc0" />
<polygon points="223.0,236.0 224.0,264.0 261.0,263.0 259.0,235.0" fill="#2dadc0" />
<polygon points="260.0,199.0 223.0,199.0 222.0,223.0 259.0,224.0" fill="#2dadc0" />
<polygon points="262.0,91.0 134.0,91.0 133.0,111.0 142.0,104.0 196.0,104.0 202.0,111.0 207.0,104.0 258.0,103.0" fill="#806150" />
<polygon points="134.0,123.0 132.0,273.0 116.0,289.0 291.0,290.0 264.0,264.0 206.0,262.0 201.0,124.0 198.0,262.0 140.0,262.0" fill="#eae4e3" opacity="0.95" />
<polygon points="141.0,165.0 142.0,188.0 179.0,187.0 177.0,164.0" fill="#2dadc0" />
<polygon points="141.0,200.0 142.0,223.0 179.0,222.0 178.0,199.0" fill="#2dadc0" />
<polygon points="221.0,132.0 223.0,158.0 259.0,156.0 257.0,130.0 226.0,130.0" fill="#2dadc0" />
<polygon points="113.0,305.0 279.0,307.0 289.0,294.0 115.0,293.0" fill="#062f38" opacity="0.95" />
<polygon points="218.0,0.0 350.0,13.0 361.0,42.0 383.0,49.0 383.0,34.0 362.0,23.0 363.0,0.0" fill="#6a3a36" />
<polygon points="383.0,349.0 347.0,349.0 345.0,357.0 369.0,360.0 331.0,365.0 325.0,375.0 232.0,383.0 383.0,383.0" fill="#6a3a36" />
<polygon points="221.0,165.0 221.0,182.0 223.0,188.0 259.0,186.0 258.0,164.0" fill="#2dadc0" />
<polygon points="141.0,132.0 141.0,152.0 143.0,154.0 178.0,153.0 177.0,131.0" fill="#2dadc0" />
<polygon points="141.0,236.0 142.0,264.0 197.0,263.0 195.0,235.0" fill="#2dadc0" opacity="0.95" />
<polygon points="113.0,304.0 279.0,307.0 289.0,295.0 116.0,293.0" fill="#062f38" opacity="0.95" />
<polygon points="141.0,116.0 142.0,124.0 197.0,123.0 196.0,113.0 154.0,112.0" fill="#03404e" />
<polygon points="208.0,132.0 207.0,156.0 220.0,155.0 227.0,162.0 207.0,166.0 207.0,186.0 258.0,186.0 259.0,166.0 253.0,162.0 259.0,155.0 258.0,132.0" fill="#2dadc0" opacity="0.95" />
<polygon points="132.0,94.0 135.0,111.0 143.0,104.0 195.0,104.0 202.0,111.0 208.0,104.0 260.0,100.0 257.0,91.0" fill="#806150" opacity="0.95" />
<polygon points="206.0,115.0 207.0,124.0 259.0,123.0 259.0,116.0 249.0,113.0" fill="#03404e" />
<polygon points="383.0,349.0 349.0,349.0 345.0,356.0 360.0,361.0 332.0,365.0 324.0,375.0 243.0,383.0 383.0,383.0" fill="#6a3a36" opacity="0.95" />
<polygon points="266.0,0.0 350.0,13.0 362.0,43.0 383.0,49.0 383.0,34.0 362.0,23.0 363.0,0.0" fill="#6a3a36" opacity="0.95" />
<polygon points="383.0,326.0 375.0,348.0 345.0,353.0 353.0,365.0 244.0,383.0 383.0,383.0" fill="#6a3a36" opacity="0.95" />
<polygon points="0.0,12.0 20.0,11.0 26.0,7.0 59.0,7.0 70.0,1.0 81.0,0.0 0.0,0.0" fill="#6a3a36" />
<polygon points="206.0,106.0 207.0,113.0 259.0,113.0 258.0,105.0" fill="#062f38" />
<polygon points="366.0,0.0 363.0,5.0 364.0,21.0 376.0,25.0 382.0,33.0 383.0,0.0" fill="#062f38" />
<polygon points="132.0,95.0 136.0,111.0 144.0,104.0 194.0,104.0 202.0,111.0 209.0,104.0 260.0,100.0 256.0,91.0 137.0,91.0" fill="#806150" opacity="0.95" />
<polygon points="141.0,107.0 142.0,114.0 154.0,111.0 197.0,111.0 196.0,105.0 144.0,105.0" fill="#062f38" />
<polygon points="291.0,0.0 296.0,10.0 352.0,14.0 354.0,31.0 363.0,43.0 383.0,49.0 383.0,34.0 362.0,23.0 363.0,0.0" fill="#6a3a36" opacity="0.95" />
<polygon points="141.0,116.0 143.0,124.0 197.0,123.0 195.0,113.0 154.0,112.0" fill="#03404e" opacity="0.95" />
<polygon points="0.0,12.0 19.0,11.0 26.0,7.0 59.0,7.0 69.0,0.0 0.0,0.0" fill="#6a3a36" opacity="0.95" />
<polygon points="206.0,115.0 206.0,123.0 208.0,124.0 259.0,123.0 259.0,116.0 249.0,113.0" fill="#03404e" opacity="0.95" />
<polygon points="208.0,226.0 209.0,229.0 261.0,228.0 258.0,225.0 223.0,225.0 220.0,221.0 217.0,225.0" fill="#062f38" />
<polygon points="366.0,0.0 363.0,5.0 364.0,21.0 376.0,25.0 382.0,33.0 383.0,0.0" fill="#062f38" opacity="0.95" />
<polygon points="0.0,12.0 18.0,11.0 26.0,7.0 59.0,7.0 66.0,0.0 0.0,0.0" fill="#6a3a36" opacity="0.95" />
<polygon points="206.0,106.0 206.0,112.0 259.0,113.0 259.0,106.0 257.0,105.0" fill="#062f38" opacity="0.95" />
<polygon points="141.0,107.0 143.0,114.0 154.0,111.0 197.0,111.0 195.0,105.0" fill="#062f38" opacity="0.95" />
<polygon points="141.0,117.0 141.0,122.0 144.0,124.0 194.0,124.0 197.0,122.0 196.0,114.0 186.0,112.0 154.0,112.0" fill="#03404e" opacity="0.95" />
<polygon points="206.0,116.0 206.0,122.0 209.0,124.0 256.0,124.0 259.0,122.0 257.0,115.0 249.0,113.0 218.0,113.0" fill="#03404e" opacity="0.95" />
<polygon points="0.0,377.0 0.0,383.0 28.0,383.0 21.0,378.0 16.0,381.0 11.0,374.0 4.0,374.0" fill="#6a3a36" />
<polygon points="262.0,92.0 262.0,97.0 259.0,104.0 260.0,112.0 264.0,116.0 265.0,124.0 266.0,107.0" fill="#3f4d4d" />
<polygon points="141.0,157.0 142.0,158.0 173.0,158.0 175.0,156.0 174.0,155.0 142.0,155.0" fill="#03404e" />
<polygon points="291.0,295.0 290.0,296.0 290.0,298.0 283.0,305.0 284.0,307.0 291.0,307.0 292.0,306.0 292.0,296.0" fill="#242628" />
<polygon points="264.0,199.0 262.0,200.0 262.0,219.0 264.0,220.0 266.0,219.0 266.0,200.0" fill="#eae4e3" opacity="0.95" />
<polygon points="181.0,164.0 180.0,165.0 180.0,184.0 181.0,185.0 182.0,184.0 182.0,165.0" fill="#242628" />
<polygon points="220.0,204.0 219.0,205.0 219.0,219.0 220.0,220.0 221.0,219.0 221.0,205.0" fill="#242628" />
<polygon points="219.0,130.0 218.0,131.0 218.0,146.0 219.0,147.0 220.0,146.0 220.0,131.0" fill="#242628" />
<polygon points="262.0,100.0 260.0,101.0 260.0,112.0 264.0,114.0 266.0,113.0 266.0,107.0 265.0,106.0 265.0,102.0" fill="#3f4d4d" opacity="0.95" />
<polygon points="204.0,111.0 203.0,111.0 202.0,112.0 199.0,112.0 198.0,113.0 198.0,117.0 199.0,118.0 203.0,118.0 205.0,116.0 205.0,112.0" fill="#918b8a" />
<polygon points="268.0,88.0 265.0,89.0 264.0,88.0 263.0,89.0 266.0,92.0 264.0,94.0 266.0,102.0 268.0,100.0 267.0,98.0 267.0,92.0 269.0,89.0" fill="#242628" />
<polygon points="220.0,234.0 219.0,235.0 219.0,246.0 220.0,247.0 221.0,246.0 221.0,235.0" fill="#242628" />
<polygon points="138.0,111.0 137.0,111.0 133.0,115.0 133.0,116.0 134.0,117.0 138.0,117.0 140.0,115.0 140.0,114.0" fill="#918b8a" />
<polygon points="219.0,165.0 218.0,166.0 218.0,176.0 219.0,177.0 220.0,176.0 220.0,166.0" fill="#242628" />
<polygon points="237.0,89.0 238.0,90.0 243.0,90.0 244.0,89.0 246.0,90.0 254.0,90.0 255.0,89.0 254.0,88.0 246.0,88.0 245.0,89.0 243.0,88.0 238.0,88.0" fill="#242628" />
<polygon points="181.0,142.0 180.0,143.0 180.0,151.0 181.0,152.0 182.0,151.0 182.0,143.0" fill="#242628" />
<polygon points="263.0,105.0 260.0,107.0 260.0,112.0 263.0,114.0 266.0,112.0 266.0,107.0" fill="#3f4d4d" opacity="0.95" />
<polygon points="205.0,119.0 204.0,118.0 203.0,119.0 199.0,119.0 198.0,120.0 198.0,122.0 199.0,123.0 201.0,123.0 202.0,124.0 203.0,124.0 205.0,122.0" fill="#b5b1b0" />
<polygon points="185.0,156.0 185.0,157.0 186.0,158.0 195.0,158.0 196.0,157.0 195.0,156.0 189.0,156.0 188.0,155.0 186.0,155.0" fill="#03404e" />
<polygon points="292.0,301.0 290.0,300.0 287.0,301.0 284.0,304.0 284.0,306.0 286.0,307.0 290.0,307.0 292.0,306.0" fill="#242628" opacity="0.95" />
<polygon points="205.0,112.0 203.0,111.0 202.0,112.0 198.0,113.0 198.0,117.0 200.0,118.0 203.0,118.0 205.0,117.0" fill="#918b8a" opacity="0.95" />
<polygon points="142.0,189.0 141.0,190.0 141.0,192.0 142.0,193.0 144.0,193.0 146.0,191.0 146.0,190.0 145.0,189.0" fill="#03404e" />
<polygon points="133.0,119.0 133.0,120.0 134.0,121.0 135.0,120.0 136.0,121.0 139.0,121.0 140.0,120.0 138.0,118.0 134.0,118.0" fill="#b5b1b0" />
<polygon points="137.0,111.0 135.0,112.0 134.0,114.0 134.0,116.0 136.0,117.0 140.0,116.0 139.0,112.0" fill="#918b8a" opacity="0.95" />
<polygon points="198.0,120.0 198.0,122.0 202.0,124.0 205.0,123.0 205.0,120.0 203.0,119.0 200.0,119.0" fill="#b5b1b0" opacity="0.95" />
<polygon points="201.0,112.0 198.0,114.0 198.0,116.0 202.0,118.0 205.0,116.0 205.0,114.0" fill="#918b8a" opacity="0.95" />
</svg>