<svg xmlns="http://www.w3.org/2000/svg" width="768" height="768" viewBox="0 0 384 384">
<rect width="384" height="384" fill="#8f6d69"/>
<polygon points="158.0,218.0 101.0,152.0 2.0,267.0 0.0,289.0 152.0,291.0" fill="#b56a6c" />
<polygon points="229.0,218.0 233.0,291.0 383.0,289.0 383.0,269.0 285.0,154.0" fill="#b56a6c" />
<polygon points="0.0,129.0 3.0,264.0 100.0,151.0 121.0,173.0 126.0,157.0 263.0,157.0 267.0,173.0 285.0,153.0 383.0,263.0 381.0,127.0" fill="#6b8e97" />
<polygon points="0.0,41.0 2.0,125.0 349.0,124.0 185.0,100.0 181.0,78.0 108.0,67.0 105.0,39.0" fill="#313236" />
<polygon points="145.0,218.0 143.0,280.0 6.0,278.0 101.0,167.0" fill="#b56a6c" />
<polygon points="144.0,218.0 101.0,168.0 7.0,278.0 143.0,279.0" fill="#da9570" />
<polygon points="241.0,219.0 285.0,169.0 377.0,278.0 243.0,280.0" fill="#b56a6c" />
<polygon points="242.0,219.0 243.0,279.0 376.0,278.0 285.0,170.0" fill="#da9570" />
<polygon points="2.0,327.0 0.0,383.0 153.0,383.0 152.0,325.0" fill="#b56a6c" />
<polygon points="232.0,326.0 232.0,383.0 383.0,383.0 381.0,325.0" fill="#b56a6c" />
<polygon points="107.0,40.0 109.0,66.0 182.0,77.0 186.0,99.0 352.0,122.0 351.0,74.0 336.0,73.0 338.0,50.0 316.0,39.0" fill="#fe6254" />
<polygon points="125.0,160.0 125.0,178.0 160.0,218.0 228.0,218.0 264.0,177.0 263.0,159.0" fill="#9cddf7" />
<polygon points="158.0,218.0 101.0,153.0 0.0,268.0 0.0,289.0 151.0,291.0" fill="#b56a6c" opacity="0.95" />
<polygon points="0.0,129.0 4.0,262.0 100.0,152.0 122.0,173.0 127.0,157.0 268.0,170.0 285.0,154.0 383.0,261.0 380.0,127.0" fill="#6b8e97" opacity="0.95" />
<polygon points="107.0,17.0 108.0,35.0 292.0,34.0 292.0,0.0 133.0,0.0" fill="#fe6254" />
<polygon points="0.0,0.0 3.0,125.0 337.0,124.0 186.0,100.0 181.0,78.0 107.0,66.0 106.0,16.0 130.0,0.0" fill="#313236" opacity="0.95" />
<polygon points="107.0,17.0 109.0,66.0 181.0,77.0 187.0,99.0 352.0,121.0 351.0,74.0 332.0,69.0 337.0,49.0 290.0,37.0 292.0,0.0 132.0,0.0" fill="#fe6254" opacity="0.95" />
<polygon points="232.0,308.0 232.0,383.0 383.0,383.0 380.0,306.0" fill="#b56a6c" opacity="0.95" />
<polygon points="383.0,294.0 2.0,292.0 0.0,303.0 381.0,305.0" fill="#313236" />
<polygon points="0.0,129.0 5.0,261.0 101.0,152.0 121.0,172.0 285.0,154.0 383.0,260.0 379.0,127.0" fill="#6b8e97" opacity="0.95" />
<polygon points="145.0,218.0 142.0,280.0 8.0,278.0 101.0,168.0" fill="#b56a6c" opacity="0.95" />
<polygon points="144.0,218.0 101.0,169.0 9.0,278.0 142.0,279.0" fill="#da9570" opacity="0.95" />
<polygon points="0.0,308.0 6.0,322.0 0.0,327.0 0.0,383.0 153.0,383.0 151.0,306.0" fill="#b56a6c" opacity="0.95" />
<polygon points="242.0,219.0 244.0,279.0 375.0,278.0 285.0,171.0" fill="#da9570" opacity="0.95" />
<polygon points="0.0,0.0 4.0,125.0 327.0,123.0 187.0,100.0 180.0,78.0 108.0,66.0 106.0,17.0 130.0,0.0" fill="#313236" opacity="0.95" />
<polygon points="107.0,17.0 107.0,64.0 181.0,77.0 188.0,99.0 352.0,120.0 351.0,76.0 332.0,69.0 335.0,48.0 291.0,36.0 292.0,0.0 131.0,0.0" fill="#fe6254" opacity="0.95" />
<polygon points="0.0,32.0 105.0,35.0 106.0,17.0 131.0,0.0 0.0,0.0" fill="#313236" />
<polygon points="293.0,0.0 294.0,35.0 383.0,32.0 383.0,0.0" fill="#313236" />
<polygon points="144.0,218.0 101.0,169.0 10.0,277.0 141.0,279.0" fill="#da9570" opacity="0.95" />
<polygon points="125.0,160.0 125.0,178.0 161.0,218.0 227.0,218.0 264.0,177.0 262.0,159.0" fill="#9cddf7" opacity="0.95" />
<polygon points="242.0,219.0 245.0,279.0 374.0,277.0 285.0,172.0" fill="#da9570" opacity="0.95" />
<polygon points="212.0,331.0 170.0,332.0 170.0,383.0 213.0,383.0" fill="#313236" />
<polygon points="321.0,39.0 354.0,57.0 352.0,124.0 381.0,125.0 383.0,41.0" fill="#313236" />
<polygon points="383.0,294.0 3.0,292.0 0.0,303.0 380.0,305.0" fill="#313236" opacity="0.95" />
<polygon points="125.0,161.0 125.0,178.0 161.0,218.0 227.0,218.0 264.0,177.0 261.0,159.0" fill="#9cddf7" opacity="0.95" />
<polygon points="293.0,0.0 293.0,34.0 325.0,34.0 324.0,42.0 354.0,57.0 353.0,124.0 382.0,124.0 383.0,0.0" fill="#313236" opacity="0.95" />
<polygon points="154.0,326.0 154.0,383.0 169.0,383.0 171.0,329.0 212.0,329.0 214.0,383.0 231.0,383.0 230.0,325.0" fill="#5c655a" />
<polygon points="270.0,209.0 304.0,209.0 306.0,211.0 305.0,244.0 303.0,246.0 270.0,246.0 268.0,244.0 267.0,214.0" fill="#da9570" />
<polygon points="154.0,308.0 155.0,321.0 232.0,320.0 230.0,307.0" fill="#5c655a" />
<polygon points="87.0,211.0 115.0,210.0 118.0,213.0 117.0,244.0 115.0,246.0 87.0,246.0 85.0,244.0 84.0,214.0" fill="#da9570" />
<polygon points="154.0,308.0 154.0,383.0 169.0,383.0 172.0,329.0 213.0,330.0 214.0,383.0 231.0,383.0 231.0,308.0" fill="#5c655a" opacity="0.95" />
<polygon points="165.0,234.0 165.0,242.0 187.0,244.0 186.0,290.0 200.0,291.0 197.0,246.0 217.0,245.0 218.0,236.0" fill="#77474e" />
<polygon points="268.0,211.0 271.0,209.0 305.0,210.0 305.0,244.0 302.0,246.0 269.0,245.0" fill="#da9570" opacity="0.95" />
<polygon points="154.0,309.0 154.0,383.0 169.0,383.0 174.0,321.0 213.0,324.0 214.0,383.0 231.0,383.0 230.0,308.0" fill="#5c655a" opacity="0.95" />
<polygon points="87.0,211.0 114.0,210.0 118.0,213.0 116.0,245.0 88.0,246.0 85.0,244.0 85.0,213.0" fill="#da9570" opacity="0.95" />
<polygon points="227.0,232.0 219.0,237.0 219.0,268.0 230.0,277.0 232.0,237.0 231.0,233.0" fill="#274347" />
<polygon points="165.0,234.0 166.0,242.0 186.0,244.0 186.0,290.0 199.0,290.0 197.0,246.0 216.0,244.0 218.0,236.0" fill="#77474e" opacity="0.95" />
<polygon points="155.0,255.0 154.0,289.0 160.0,291.0 163.0,285.0 163.0,262.0" fill="#5c655a" />
<polygon points="338.0,51.0 332.0,57.0 332.0,66.0 335.0,71.0 344.0,74.0 352.0,69.0 353.0,58.0 345.0,51.0" fill="#f1ece9" />
<polygon points="88.0,220.0 90.0,230.0 88.0,243.0 114.0,243.0 114.0,235.0 111.0,233.0 114.0,221.0" fill="#7fb3cb" opacity="0.95" />
<polygon points="165.0,234.0 167.0,242.0 186.0,244.0 186.0,289.0 198.0,290.0 198.0,247.0 217.0,243.0 218.0,236.0" fill="#77474e" opacity="0.95" />
<polygon points="271.0,220.0 271.0,229.0 275.0,231.0 271.0,235.0 271.0,244.0 302.0,244.0 302.0,235.0 298.0,233.0 302.0,229.0 302.0,220.0" fill="#7fb3cb" opacity="0.95" />
<polygon points="227.0,232.0 219.0,236.0 219.0,268.0 229.0,276.0 231.0,275.0 232.0,237.0 231.0,233.0" fill="#274347" opacity="0.95" />
<polygon points="88.0,221.0 89.0,243.0 114.0,242.0 113.0,221.0 107.0,220.0 102.0,223.0 96.0,219.0" fill="#7fb3cb" opacity="0.95" />
<polygon points="89.0,219.0 88.0,229.0 91.0,232.0 88.0,235.0 88.0,243.0 98.0,244.0 99.0,235.0 95.0,232.0 99.0,229.0 99.0,220.0" fill="#7fb3cb" />
<polygon points="271.0,221.0 271.0,228.0 275.0,231.0 271.0,236.0 272.0,244.0 302.0,243.0 302.0,236.0 298.0,233.0 302.0,228.0 301.0,220.0" fill="#7fb3cb" opacity="0.95" />
<polygon points="271.0,220.0 271.0,229.0 272.0,230.0 289.0,230.0 290.0,229.0 290.0,220.0 289.0,219.0 272.0,219.0" fill="#7fb3cb" />
<polygon points="271.0,235.0 271.0,243.0 273.0,245.0 289.0,245.0 290.0,244.0 290.0,235.0 289.0,234.0 272.0,234.0" fill="#7fb3cb" />
<polygon points="220.0,270.0 219.0,271.0 219.0,288.0 222.0,290.0 223.0,289.0 230.0,290.0 231.0,289.0 231.0,279.0" fill="#5c655a" />
<polygon points="338.0,51.0 332.0,57.0 332.0,66.0 335.0,71.0 344.0,74.0 352.0,69.0 353.0,58.0 345.0,51.0" fill="#f1ece9" opacity="0.95" />
<polygon points="227.0,232.0 219.0,237.0 219.0,268.0 228.0,275.0 231.0,273.0 232.0,237.0" fill="#274347" opacity="0.95" />
<polygon points="105.0,220.0 104.0,229.0 108.0,232.0 104.0,235.0 104.0,243.0 113.0,244.0 114.0,235.0 110.0,232.0 114.0,229.0 114.0,221.0" fill="#7fb3cb" />
<polygon points="156.0,235.0 154.0,237.0 154.0,253.0 161.0,259.0 163.0,252.0 162.0,251.0 163.0,250.0 162.0,238.0 159.0,235.0" fill="#274347" />
<polygon points="156.0,257.0 154.0,258.0 154.0,289.0 160.0,291.0 162.0,290.0 163.0,261.0" fill="#5c655a" opacity="0.95" />
<polygon points="338.0,51.0 332.0,57.0 332.0,66.0 335.0,71.0 344.0,74.0 352.0,69.0 353.0,58.0 345.0,51.0" fill="#f1ece9" opacity="0.95" />
<polygon points="157.0,258.0 154.0,260.0 154.0,288.0 159.0,291.0 162.0,289.0 163.0,285.0 163.0,262.0" fill="#5c655a" opacity="0.95" />
<polygon points="219.0,273.0 219.0,288.0 222.0,290.0 231.0,289.0 231.0,279.0 221.0,272.0" fill="#5c655a" opacity="0.95" />
<polygon points="295.0,219.0 294.0,220.0 294.0,229.0 295.0,230.0 301.0,230.0 302.0,229.0 302.0,220.0 301.0,219.0" fill="#7fb3cb" />
<polygon points="157.0,235.0 154.0,237.0 154.0,253.0 160.0,258.0 162.0,257.0 163.0,245.0 162.0,238.0" fill="#274347" opacity="0.95" />
<polygon points="295.0,234.0 294.0,235.0 294.0,243.0 296.0,245.0 300.0,245.0 302.0,243.0 302.0,236.0 303.0,235.0 302.0,234.0" fill="#7fb3cb" />
<polygon points="157.0,235.0 154.0,237.0 154.0,253.0 159.0,257.0 162.0,255.0 163.0,245.0 162.0,238.0" fill="#274347" opacity="0.95" />
<polygon points="222.0,273.0 219.0,275.0 219.0,288.0 222.0,290.0 223.0,289.0 228.0,290.0 231.0,288.0 231.0,279.0" fill="#5c655a" opacity="0.95" />
<polygon points="217.0,282.0 216.0,283.0 216.0,285.0 217.0,286.0 215.0,289.0 216.0,291.0 218.0,290.0 218.0,287.0 217.0,286.0 218.0,285.0 218.0,283.0" fill="#77474e" />
</svg>