<svg xmlns="http://www.w3.org/2000/svg" width="768" height="768" viewBox="0 0 384 384">
<rect width="384" height="384" fill="#946a5c"/>
<polygon points="240.0,69.0 236.0,168.0 315.0,276.0 300.0,350.0 235.0,383.0 383.0,383.0 372.0,156.0 296.0,84.0" fill="#ac705e" />
<polygon points="146.0,76.0 51.0,110.0 14.0,152.0 3.0,383.0 147.0,383.0 92.0,348.0 67.0,282.0 94.0,228.0 131.0,219.0" fill="#ac705e" />
<polygon points="160.0,0.0 0.0,0.0 4.0,189.0 19.0,141.0 48.0,111.0 144.0,77.0 158.0,53.0" fill="#7d4c45" />
<polygon points="219.0,0.0 222.0,53.0 235.0,69.0 289.0,79.0 347.0,120.0 383.0,187.0 383.0,0.0" fill="#7d4c45" />
<polygon points="241.0,69.0 236.0,168.0 314.0,282.0 300.0,350.0 235.0,383.0 383.0,383.0 372.0,156.0 296.0,84.0" fill="#ac705e" opacity="0.95" />
<polygon points="145.0,78.0 51.0,110.0 14.0,152.0 3.0,383.0 147.0,383.0 92.0,348.0 67.0,282.0 94.0,228.0 131.0,219.0" fill="#ac705e" opacity="0.95" />
<polygon points="146.0,117.0 146.0,169.0 132.0,174.0 133.0,210.0 250.0,209.0 250.0,173.0 217.0,169.0 216.0,116.0" fill="#84d4e1" />
<polygon points="160.0,0.0 0.0,0.0 0.0,186.0 48.0,111.0 146.0,75.0" fill="#7d4c45" opacity="0.95" />
<polygon points="241.0,69.0 236.0,167.0 314.0,282.0 300.0,350.0 235.0,383.0 383.0,383.0 372.0,156.0 296.0,84.0" fill="#ac705e" opacity="0.95" />
<polygon points="144.0,79.0 51.0,110.0 14.0,152.0 0.0,383.0 147.0,383.0 92.0,348.0 67.0,282.0 91.0,231.0 131.0,218.0" fill="#ac705e" opacity="0.95" />
<polygon points="252.0,210.0 247.0,240.0 234.0,243.0 234.0,291.0 264.0,292.0 266.0,303.0 235.0,306.0 238.0,377.0 299.0,350.0 314.0,276.0 289.0,224.0" fill="#c68971" />
<polygon points="220.0,0.0 222.0,53.0 235.0,68.0 289.0,79.0 347.0,120.0 383.0,186.0 383.0,0.0" fill="#7d4c45" opacity="0.95" />
<polygon points="160.0,0.0 0.0,0.0 1.0,177.0 48.0,111.0 146.0,74.0" fill="#7d4c45" opacity="0.95" />
<polygon points="119.0,217.0 92.0,231.0 68.0,282.0 93.0,348.0 146.0,378.0 147.0,306.0 120.0,305.0 118.0,294.0 147.0,291.0 147.0,244.0 135.0,240.0 132.0,219.0" fill="#c68971" />
<polygon points="161.0,0.0 159.0,53.0 148.0,57.0 148.0,103.0 233.0,104.0 234.0,61.0 221.0,53.0 219.0,1.0 195.0,0.0 197.0,9.0 188.0,13.0 185.0,0.0" fill="#fb4b38" />
<polygon points="220.0,0.0 222.0,52.0 235.0,67.0 289.0,79.0 347.0,120.0 383.0,185.0 383.0,0.0" fill="#7d4c45" opacity="0.95" />
<polygon points="119.0,217.0 92.0,231.0 68.0,282.0 93.0,348.0 145.0,377.0 147.0,306.0 121.0,305.0 118.0,294.0 147.0,291.0 147.0,244.0" fill="#c68971" opacity="0.95" />
<polygon points="146.0,117.0 148.0,127.0 171.0,128.0 171.0,169.0 133.0,172.0 132.0,209.0 250.0,209.0 250.0,173.0 217.0,169.0 217.0,117.0" fill="#84d4e1" opacity="0.95" />
<polygon points="149.0,243.0 148.0,291.0 119.0,295.0 148.0,306.0 148.0,383.0 167.0,383.0 169.0,329.0 212.0,329.0 215.0,383.0 234.0,383.0 234.0,306.0 265.0,295.0 233.0,291.0 230.0,242.0 219.0,244.0 216.0,295.0 164.0,293.0 162.0,244.0" fill="#0e6c40" />
<polygon points="267.0,212.0 251.0,214.0 247.0,240.0 234.0,243.0 234.0,291.0 266.0,294.0 263.0,305.0 235.0,306.0 238.0,377.0 288.0,362.0 306.0,339.0 313.0,274.0 289.0,224.0" fill="#c68971" opacity="0.95" />
<polygon points="172.0,331.0 169.0,334.0 169.0,383.0 213.0,383.0 213.0,334.0 210.0,331.0" fill="#06162b" />
<polygon points="161.0,0.0 159.0,53.0 148.0,57.0 148.0,103.0 234.0,103.0 234.0,61.0 221.0,53.0 219.0,0.0 196.0,0.0 192.0,13.0 184.0,10.0 185.0,0.0" fill="#fb4b38" opacity="0.95" />
<polygon points="119.0,217.0 92.0,231.0 68.0,282.0 93.0,348.0 144.0,376.0 147.0,307.0 122.0,305.0 118.0,295.0 147.0,290.0 147.0,244.0" fill="#c68971" opacity="0.95" />
<polygon points="266.0,212.0 252.0,214.0 248.0,238.0 234.0,244.0 234.0,290.0 266.0,295.0 262.0,305.0 235.0,307.0 238.0,377.0 287.0,362.0 306.0,339.0 313.0,274.0 289.0,224.0" fill="#c68971" opacity="0.95" />
<polygon points="161.0,0.0 159.0,52.0 148.0,57.0 148.0,102.0 233.0,103.0 234.0,61.0 221.0,52.0 219.0,0.0 196.0,0.0 192.0,13.0 184.0,10.0 185.0,0.0" fill="#fb4b38" opacity="0.95" />
<polygon points="132.0,212.0 134.0,220.0 250.0,219.0 249.0,211.0" fill="#1485a3" />
<polygon points="146.0,118.0 149.0,127.0 196.0,128.0 198.0,168.0 134.0,172.0 133.0,209.0 250.0,208.0 250.0,173.0 217.0,168.0 216.0,117.0" fill="#84d4e1" opacity="0.95" />
<polygon points="219.0,116.0 218.0,169.0 234.0,170.0 235.0,118.0" fill="#0e6c40" />
<polygon points="136.0,232.0 137.0,240.0 246.0,239.0 245.0,231.0" fill="#095370" />
<polygon points="135.0,107.0 137.0,115.0 248.0,114.0 247.0,106.0" fill="#096962" />
<polygon points="148.0,244.0 148.0,291.0 119.0,295.0 148.0,306.0 148.0,383.0 167.0,383.0 170.0,329.0 213.0,330.0 215.0,383.0 234.0,383.0 234.0,306.0 265.0,295.0 233.0,291.0 230.0,242.0 219.0,243.0 218.0,294.0 165.0,293.0 162.0,243.0" fill="#0e6c40" opacity="0.95" />
<polygon points="165.0,242.0 163.0,245.0 163.0,291.0 182.0,292.0 183.0,243.0" fill="#c68971" />
<polygon points="178.0,128.0 177.0,169.0 195.0,170.0 196.0,129.0" fill="#06162b" />
<polygon points="136.0,222.0 138.0,229.0 246.0,228.0 245.0,221.0" fill="#06162b" />
<polygon points="200.0,242.0 199.0,282.0 217.0,283.0 218.0,243.0" fill="#c68971" />
<polygon points="171.0,332.0 169.0,383.0 213.0,383.0 213.0,334.0 209.0,331.0" fill="#06162b" opacity="0.95" />
<polygon points="177.0,126.0 196.0,127.0 198.0,129.0 198.0,169.0 196.0,171.0 177.0,171.0 175.0,169.0 175.0,128.0" fill="#84d4e1" />
<polygon points="152.0,128.0 151.0,168.0 153.0,170.0 169.0,170.0 170.0,129.0" fill="#06162b" />
<polygon points="151.0,126.0 168.0,126.0 171.0,129.0 171.0,169.0 169.0,171.0 151.0,171.0 149.0,169.0 149.0,128.0" fill="#84d4e1" />
<polygon points="150.0,243.0 148.0,291.0 119.0,296.0 148.0,307.0 148.0,383.0 167.0,383.0 171.0,329.0 212.0,330.0 215.0,383.0 234.0,383.0 234.0,307.0 265.0,296.0 233.0,290.0 230.0,242.0 219.0,244.0 217.0,294.0 166.0,293.0 162.0,244.0" fill="#0e6c40" opacity="0.95" />
<polygon points="151.0,130.0 152.0,169.0 196.0,168.0 195.0,129.0" fill="#06162b" opacity="0.95" />
<polygon points="171.0,332.0 169.0,383.0 213.0,383.0 213.0,334.0 209.0,331.0" fill="#06162b" opacity="0.95" />
<polygon points="186.0,242.0 185.0,290.0 187.0,292.0 194.0,292.0 197.0,290.0 197.0,243.0" fill="#06162b" />
<polygon points="133.0,212.0 135.0,220.0 250.0,219.0 248.0,211.0" fill="#1485a3" opacity="0.95" />
<polygon points="135.0,107.0 137.0,115.0 248.0,114.0 246.0,106.0" fill="#096962" opacity="0.95" />
<polygon points="178.0,126.0 198.0,129.0 198.0,169.0 195.0,171.0 178.0,171.0 175.0,169.0 175.0,128.0" fill="#84d4e1" opacity="0.95" />
<polygon points="136.0,232.0 138.0,240.0 246.0,239.0 244.0,231.0" fill="#095370" opacity="0.95" />
<polygon points="218.0,117.0 218.0,169.0 233.0,170.0 235.0,169.0 235.0,118.0" fill="#0e6c40" opacity="0.95" />
<polygon points="166.0,242.0 163.0,245.0 163.0,291.0 181.0,292.0 183.0,291.0 183.0,243.0" fill="#c68971" opacity="0.95" />
<polygon points="179.0,128.0 177.0,129.0 177.0,169.0 194.0,170.0 196.0,169.0 196.0,129.0" fill="#06162b" opacity="0.95" />
<polygon points="133.0,213.0 136.0,220.0 250.0,218.0 247.0,211.0" fill="#1485a3" opacity="0.95" />
<polygon points="153.0,128.0 151.0,129.0 151.0,169.0 168.0,170.0 170.0,169.0 170.0,129.0" fill="#06162b" opacity="0.95" />
<polygon points="201.0,242.0 199.0,243.0 199.0,282.0 216.0,283.0 218.0,282.0 218.0,243.0" fill="#c68971" opacity="0.95" />
<polygon points="135.0,108.0 138.0,115.0 248.0,113.0 245.0,106.0" fill="#096962" opacity="0.95" />
<polygon points="136.0,233.0 139.0,240.0 246.0,238.0 243.0,231.0" fill="#095370" opacity="0.95" />
<polygon points="221.0,116.0 218.0,118.0 218.0,168.0 232.0,170.0 235.0,168.0 235.0,119.0 231.0,116.0" fill="#0e6c40" opacity="0.95" />
<polygon points="199.0,286.0 199.0,291.0 200.0,292.0 215.0,292.0 217.0,290.0 217.0,286.0 216.0,285.0 200.0,285.0" fill="#095370" />
<polygon points="193.0,0.0 190.0,0.0 185.0,5.0 187.0,7.0 186.0,9.0 187.0,11.0 191.0,12.0 196.0,9.0 194.0,7.0 196.0,5.0 196.0,3.0" fill="#1485a3" />
<polygon points="199.0,286.0 199.0,291.0 201.0,292.0 215.0,292.0 217.0,291.0 217.0,286.0 215.0,285.0 201.0,285.0" fill="#095370" opacity="0.95" />
<polygon points="194.0,0.0 190.0,0.0 186.0,4.0 187.0,10.0 190.0,12.0 195.0,10.0 196.0,3.0" fill="#1485a3" opacity="0.95" />
<polygon points="199.0,287.0 199.0,290.0 202.0,292.0 214.0,292.0 217.0,290.0 217.0,287.0 214.0,285.0 202.0,285.0" fill="#095370" opacity="0.95" />
<polygon points="194.0,0.0 190.0,0.0 187.0,4.0 187.0,10.0 190.0,12.0 194.0,10.0 194.0,7.0 196.0,5.0 196.0,3.0" fill="#1485a3" opacity="0.95" />
<polygon points="217.0,293.0 216.0,292.0 214.0,294.0 213.0,293.0 204.0,293.0 203.0,294.0 204.0,295.0 213.0,295.0 215.0,293.0 216.0,294.0" fill="#096962" />
</svg>