<svg xmlns="http://www.w3.org/2000/svg" width="768" height="768" viewBox="0 0 384 384">
<rect width="384" height="384" fill="#956c65"/>
<polygon points="2.0,0.0 2.0,383.0 152.0,378.0 148.0,93.0 190.0,36.0 236.0,91.0 243.0,378.0 383.0,383.0 383.0,0.0" fill="#a07066" />
<polygon points="0.0,0.0 0.0,383.0 152.0,378.0 148.0,93.0 190.0,36.0 236.0,91.0 243.0,378.0 383.0,383.0 383.0,0.0" fill="#a07066" opacity="0.95" />
<polygon points="0.0,0.0 0.0,383.0 152.0,377.0 148.0,93.0 190.0,36.0 236.0,92.0 243.0,377.0 383.0,383.0 383.0,0.0" fill="#a07066" opacity="0.95" />
<polygon points="161.0,219.0 153.0,378.0 91.0,383.0 211.0,383.0 213.0,363.0 231.0,365.0 231.0,383.0 259.0,383.0 241.0,376.0 228.0,220.0" fill="#112b33" />
<polygon points="183.0,114.0 183.0,217.0 226.0,218.0 221.0,115.0" fill="#b4d8d6" />
<polygon points="184.0,114.0 183.0,217.0 225.0,218.0 221.0,115.0" fill="#b4d8d6" opacity="0.95" />
<polygon points="165.0,114.0 161.0,217.0 181.0,218.0 181.0,115.0" fill="#469997" />
<polygon points="160.0,220.0 158.0,272.0 185.0,265.0 186.0,293.0 157.0,285.0 153.0,378.0 91.0,383.0 211.0,383.0 214.0,363.0 231.0,365.0 231.0,383.0 255.0,383.0 241.0,376.0 228.0,220.0" fill="#112b33" opacity="0.95" />
<polygon points="161.0,220.0 159.0,263.0 186.0,267.0 186.0,292.0 157.0,295.0 153.0,377.0 92.0,383.0 211.0,383.0 215.0,363.0 246.0,383.0 228.0,221.0" fill="#112b33" opacity="0.95" />
<polygon points="150.0,91.0 151.0,99.0 235.0,98.0 234.0,90.0 219.0,88.0 221.0,71.0 197.0,52.0 199.0,41.0 194.0,37.0 186.0,41.0 190.0,52.0 166.0,70.0 167.0,88.0" fill="#fc0608" />
<polygon points="166.0,114.0 161.0,217.0 180.0,218.0 181.0,115.0" fill="#469997" opacity="0.95" />
<polygon points="185.0,114.0 182.0,137.0 196.0,136.0 198.0,148.0 182.0,151.0 183.0,216.0 224.0,218.0 221.0,116.0" fill="#b4d8d6" opacity="0.95" />
<polygon points="164.0,101.0 165.0,112.0 221.0,111.0 219.0,100.0" fill="#070919" />
<polygon points="164.0,266.0 163.0,292.0 183.0,293.0 184.0,267.0" fill="#e6d0c2" />
<polygon points="164.0,264.0 184.0,264.0 186.0,266.0 186.0,293.0 184.0,295.0 163.0,295.0 161.0,293.0 161.0,273.0" fill="#112b33" />
<polygon points="150.0,91.0 152.0,99.0 235.0,98.0 235.0,91.0 219.0,88.0 220.0,70.0 198.0,53.0 194.0,37.0 186.0,41.0 189.0,53.0 166.0,70.0 167.0,88.0" fill="#fc0608" opacity="0.95" />
<polygon points="167.0,114.0 161.0,216.0 179.0,218.0 182.0,216.0 181.0,116.0" fill="#469997" opacity="0.95" />
<polygon points="150.0,92.0 153.0,99.0 235.0,97.0 234.0,91.0 219.0,87.0 220.0,70.0 198.0,52.0 194.0,37.0 186.0,41.0 188.0,53.0 166.0,70.0 167.0,87.0" fill="#fc0608" opacity="0.95" />
<polygon points="163.0,267.0 163.0,292.0 184.0,292.0 184.0,267.0" fill="#e6d0c2" opacity="0.95" />
<polygon points="164.0,101.0 164.0,111.0 166.0,112.0 221.0,111.0 220.0,101.0 218.0,100.0" fill="#070919" opacity="0.95" />
<polygon points="213.0,365.0 212.0,366.0 213.0,383.0 230.0,383.0 229.0,366.0 228.0,365.0" fill="#e6d0c2" />
<polygon points="190.0,135.0 195.0,135.0 198.0,138.0 198.0,148.0 195.0,151.0 189.0,151.0 187.0,149.0 187.0,138.0" fill="#b4d8d6" />
<polygon points="164.0,102.0 164.0,110.0 167.0,112.0 217.0,112.0 220.0,110.0 220.0,102.0 217.0,100.0 167.0,100.0" fill="#070919" opacity="0.95" />
<polygon points="164.0,267.0 163.0,291.0 166.0,293.0 183.0,292.0 184.0,268.0 181.0,266.0" fill="#e6d0c2" opacity="0.95" />
<polygon points="212.0,366.0 213.0,383.0 230.0,383.0 229.0,366.0 227.0,365.0" fill="#e6d0c2" opacity="0.95" />
<polygon points="212.0,367.0 213.0,383.0 230.0,383.0 228.0,366.0 215.0,365.0" fill="#e6d0c2" opacity="0.95" />
<polygon points="191.0,135.0 194.0,135.0 198.0,138.0 198.0,148.0 194.0,151.0 190.0,151.0 187.0,149.0 187.0,138.0" fill="#b4d8d6" opacity="0.95" />
<polygon points="190.0,137.0 189.0,138.0 189.0,148.0 190.0,149.0 195.0,149.0 196.0,148.0 196.0,138.0 195.0,137.0" fill="#070919" />
<polygon points="264.0,383.0 292.0,383.0 287.0,380.0 279.0,380.0 278.0,381.0 273.0,380.0 271.0,382.0 265.0,382.0" fill="#112b33" />
<polygon points="191.0,137.0 189.0,138.0 189.0,148.0 194.0,149.0 196.0,148.0 196.0,138.0" fill="#070919" opacity="0.95" />
<polygon points="192.0,137.0 189.0,139.0 189.0,147.0 193.0,149.0 196.0,147.0 196.0,139.0" fill="#070919" opacity="0.95" />
<polygon points="270.0,382.0 270.0,383.0 290.0,383.0 290.0,382.0 286.0,380.0 279.0,380.0 278.0,381.0 274.0,380.0" fill="#112b33" opacity="0.95" />
<polygon points="293.0,383.0 302.0,383.0 302.0,382.0 301.0,381.0 295.0,381.0" fill="#070919" />
<polygon points="271.0,382.0 271.0,383.0 289.0,383.0 289.0,382.0 286.0,380.0 279.0,380.0 278.0,381.0 277.0,380.0 274.0,380.0" fill="#112b33" opacity="0.95" />
</svg>