<svg xmlns="http://www.w3.org/2000/svg" width="768" height="768" viewBox="0 0 384 384">
<rect width="384" height="384" fill="#99655d"/>
<polygon points="2.0,0.0 3.0,218.0 168.0,218.0 136.0,154.0 191.0,98.0 237.0,109.0 265.0,156.0 229.0,218.0 383.0,216.0 383.0,0.0" fill="#9a4d4b" />
<polygon points="0.0,0.0 0.0,216.0 169.0,217.0 138.0,145.0 207.0,98.0 265.0,156.0 228.0,217.0 383.0,217.0 383.0,0.0" fill="#9a4d4b" opacity="0.95" />
<polygon points="0.0,0.0 1.0,216.0 165.0,217.0 141.0,136.0 207.0,98.0 265.0,156.0 231.0,217.0 383.0,217.0 383.0,0.0" fill="#9a4d4b" opacity="0.95" />
<polygon points="82.0,381.0 304.0,383.0 243.0,378.0 226.0,216.0 170.0,217.0 153.0,377.0" fill="#133138" />
<polygon points="2.0,245.0 4.0,279.0 161.0,279.0 166.0,241.0" fill="#d18959" />
<polygon points="2.0,281.0 3.0,319.0 158.0,318.0 161.0,280.0" fill="#9a4d4b" />
<polygon points="383.0,241.0 232.0,239.0 234.0,278.0 383.0,279.0" fill="#d18959" />
<polygon points="234.0,281.0 239.0,319.0 383.0,319.0 381.0,280.0" fill="#9a4d4b" />
<polygon points="7.0,322.0 104.0,375.0 151.0,377.0 156.0,321.0" fill="#d2a594" />
<polygon points="244.0,377.0 294.0,374.0 374.0,322.0 240.0,321.0" fill="#d2a594" />
<polygon points="82.0,381.0 304.0,383.0 243.0,378.0 225.0,216.0 170.0,217.0 153.0,377.0" fill="#133138" opacity="0.95" />
<polygon points="148.0,197.0 174.0,216.0 208.0,220.0 240.0,206.0 257.0,183.0 196.0,162.0" fill="#64cdcd" />
<polygon points="2.0,324.0 0.0,356.0 24.0,378.0 109.0,378.0" fill="#c08b78" />
<polygon points="0.0,245.0 4.0,279.0 160.0,279.0 166.0,241.0" fill="#d18959" opacity="0.95" />
<polygon points="304.0,382.0 243.0,377.0 224.0,216.0 169.0,221.0 153.0,377.0 82.0,383.0" fill="#133138" opacity="0.95" />
<polygon points="0.0,282.0 4.0,319.0 158.0,318.0 160.0,280.0" fill="#9a4d4b" opacity="0.95" />
<polygon points="221.0,103.0 193.0,99.0 162.0,111.0 143.0,134.0 137.0,164.0 194.0,160.0 197.0,139.0" fill="#133138" />
<polygon points="383.0,241.0 233.0,239.0 234.0,278.0 383.0,279.0" fill="#d18959" opacity="0.95" />
<polygon points="235.0,281.0 240.0,319.0 383.0,319.0 380.0,280.0" fill="#9a4d4b" opacity="0.95" />
<polygon points="383.0,320.0 288.0,378.0 351.0,383.0 383.0,360.0" fill="#c08b78" />
<polygon points="8.0,322.0 104.0,375.0 151.0,377.0 155.0,321.0" fill="#d2a594" opacity="0.95" />
<polygon points="244.0,377.0 291.0,375.0 374.0,322.0 241.0,321.0" fill="#d2a594" opacity="0.95" />
<polygon points="6.0,224.0 166.0,232.0 168.0,221.0" fill="#d2a594" />
<polygon points="383.0,241.0 234.0,239.0 234.0,277.0 383.0,279.0" fill="#d18959" opacity="0.95" />
<polygon points="0.0,246.0 5.0,279.0 159.0,279.0 166.0,242.0 28.0,240.0" fill="#d18959" opacity="0.95" />
<polygon points="255.0,132.0 240.0,114.0 201.0,157.0 261.0,154.0" fill="#64cdcd" />
<polygon points="149.0,198.0 174.0,216.0 208.0,220.0 240.0,206.0 257.0,183.0 196.0,162.0" fill="#64cdcd" opacity="0.95" />
<polygon points="0.0,283.0 0.0,316.0 155.0,319.0 162.0,286.0 159.0,280.0" fill="#9a4d4b" opacity="0.95" />
<polygon points="235.0,282.0 241.0,319.0 383.0,319.0 379.0,280.0" fill="#9a4d4b" opacity="0.95" />
<polygon points="12.0,323.0 104.0,375.0 152.0,374.0 154.0,321.0" fill="#d2a594" opacity="0.95" />
<polygon points="244.0,376.0 291.0,375.0 371.0,323.0 242.0,321.0" fill="#d2a594" opacity="0.95" />
<polygon points="0.0,240.0 167.0,234.0 40.0,231.0 3.0,220.0" fill="#c08b78" />
<polygon points="220.0,102.0 186.0,100.0 162.0,111.0 143.0,134.0 137.0,164.0 195.0,159.0 197.0,139.0" fill="#133138" opacity="0.95" />
<polygon points="229.0,222.0 232.0,229.0 383.0,227.0 383.0,221.0" fill="#d2a594" />
<polygon points="0.0,324.0 0.0,356.0 34.0,383.0 105.0,378.0 39.0,337.0" fill="#c08b78" opacity="0.95" />
<polygon points="149.0,198.0 174.0,216.0 208.0,220.0 240.0,206.0 256.0,183.0 196.0,162.0" fill="#64cdcd" opacity="0.95" />
<polygon points="194.0,162.0 138.0,166.0 136.0,171.0 147.0,196.0" fill="#a8e2e4" />
<polygon points="383.0,228.0 236.0,228.0 230.0,237.0 383.0,240.0" fill="#c08b78" />
<polygon points="383.0,320.0 290.0,378.0 351.0,383.0 383.0,360.0" fill="#c08b78" opacity="0.95" />
<polygon points="225.0,103.0 199.0,138.0 203.0,153.0 239.0,114.0" fill="#a8e2e4" />
<polygon points="220.0,103.0 193.0,99.0 162.0,111.0 143.0,134.0 137.0,163.0 195.0,159.0 197.0,139.0" fill="#133138" opacity="0.95" />
<polygon points="0.0,327.0 0.0,356.0 34.0,383.0 102.0,377.0 37.0,336.0" fill="#c08b78" opacity="0.95" />
<polygon points="9.0,223.0 165.0,232.0 166.0,220.0" fill="#d2a594" opacity="0.95" />
<polygon points="255.0,132.0 240.0,115.0 202.0,157.0 261.0,154.0" fill="#64cdcd" opacity="0.95" />
<polygon points="0.0,226.0 3.0,243.0 167.0,236.0" fill="#c08b78" opacity="0.95" />
<polygon points="383.0,320.0 294.0,377.0 305.0,383.0 351.0,383.0 383.0,360.0" fill="#c08b78" opacity="0.95" />
<polygon points="264.0,157.0 241.0,158.0 231.0,162.0 227.0,167.0 233.0,172.0 258.0,181.0" fill="#dff0ed" />
<polygon points="229.0,222.0 232.0,229.0 383.0,227.0 383.0,221.0" fill="#d2a594" opacity="0.95" />
<polygon points="192.0,162.0 138.0,166.0 136.0,171.0 148.0,194.0" fill="#a8e2e4" opacity="0.95" />
<polygon points="383.0,228.0 236.0,228.0 230.0,237.0 383.0,240.0" fill="#c08b78" opacity="0.95" />
<polygon points="255.0,132.0 241.0,115.0 203.0,156.0 255.0,156.0 261.0,153.0" fill="#64cdcd" opacity="0.95" />
<polygon points="225.0,103.0 200.0,136.0 201.0,149.0 204.0,151.0 238.0,115.0 235.0,109.0" fill="#a8e2e4" opacity="0.95" />
<polygon points="189.0,164.0 139.0,166.0 136.0,171.0 148.0,194.0" fill="#a8e2e4" opacity="0.95" />
<polygon points="240.0,158.0 199.0,161.0 231.0,173.0 226.0,166.0" fill="#a8e2e4" />
<polygon points="211.0,364.0 213.0,362.0 229.0,362.0 231.0,364.0 231.0,378.0 229.0,380.0 213.0,380.0 211.0,378.0" fill="#133138" />
<polygon points="263.0,157.0 242.0,158.0 230.0,163.0 228.0,168.0 257.0,181.0 261.0,177.0" fill="#dff0ed" opacity="0.95" />
<polygon points="2.0,361.0 2.0,383.0 29.0,383.0 27.0,380.0 18.0,375.0 4.0,359.0" fill="#aa6b67" />
<polygon points="225.0,103.0 200.0,136.0 201.0,149.0 204.0,151.0 238.0,115.0 235.0,109.0" fill="#a8e2e4" opacity="0.95" />
<polygon points="383.0,364.0 379.0,361.0 371.0,372.0 364.0,374.0 361.0,378.0 357.0,378.0 352.0,383.0 383.0,383.0" fill="#aa6b67" />
<polygon points="211.0,364.0 214.0,362.0 230.0,363.0 231.0,378.0 228.0,380.0 212.0,379.0" fill="#133138" opacity="0.95" />
<polygon points="263.0,158.0 242.0,158.0 230.0,163.0 228.0,168.0 257.0,181.0 261.0,177.0" fill="#dff0ed" opacity="0.95" />
<polygon points="0.0,362.0 0.0,383.0 29.0,383.0 18.0,375.0 6.0,361.0" fill="#aa6b67" opacity="0.95" />
<polygon points="232.0,159.0 202.0,159.0 200.0,162.0 225.0,171.0" fill="#a8e2e4" opacity="0.95" />
<polygon points="211.0,365.0 215.0,362.0 229.0,363.0 231.0,365.0 231.0,377.0 227.0,380.0 213.0,379.0 211.0,377.0" fill="#133138" opacity="0.95" />
<polygon points="383.0,364.0 377.0,363.0 371.0,372.0 357.0,378.0 352.0,383.0 383.0,383.0" fill="#aa6b67" opacity="0.95" />
<polygon points="0.0,365.0 0.0,383.0 29.0,383.0 18.0,375.0 5.0,362.0" fill="#aa6b67" opacity="0.95" />
<polygon points="383.0,364.0 377.0,363.0 371.0,372.0 357.0,378.0 352.0,383.0 383.0,383.0" fill="#aa6b67" opacity="0.95" />
<polygon points="230.0,160.0 227.0,158.0 206.0,159.0 203.0,163.0 223.0,170.0 226.0,168.0" fill="#a8e2e4" opacity="0.95" />
<polygon points="198.0,142.0 196.0,147.0 196.0,153.0 197.0,156.0 199.0,157.0 201.0,155.0 201.0,150.0 200.0,149.0 200.0,145.0" fill="#dff0ed" />
<polygon points="198.0,146.0 196.0,147.0 196.0,153.0 197.0,155.0 199.0,156.0 201.0,155.0 201.0,150.0 200.0,149.0 200.0,147.0" fill="#dff0ed" opacity="0.95" />
</svg>