<svg xmlns="http://www.w3.org/2000/svg" width="768" height="768" viewBox="0 0 384 384">
<rect width="384" height="384" fill="#90615d"/>
<polygon points="383.0,207.0 260.0,154.0 116.0,154.0 2.0,197.0 0.0,244.0 112.0,236.0 140.0,211.0 381.0,233.0" fill="#acbcc7" />
<polygon points="113.0,20.0 115.0,104.0 119.0,61.0 150.0,63.0 152.0,107.0 339.0,111.0 334.0,59.0 284.0,0.0 135.0,0.0" fill="#fa1b2d" />
<polygon points="0.0,130.0 2.0,196.0 69.0,163.0 198.0,149.0 295.0,160.0 383.0,200.0 381.0,128.0" fill="#4c7d8c" />
<polygon points="383.0,206.0 260.0,154.0 116.0,154.0 1.0,198.0 0.0,244.0 112.0,236.0 141.0,211.0 383.0,232.0" fill="#acbcc7" opacity="0.95" />
<polygon points="113.0,20.0 115.0,104.0 120.0,61.0 149.0,63.0 152.0,107.0 339.0,111.0 334.0,58.0 285.0,0.0 134.0,0.0" fill="#fa1b2d" opacity="0.95" />
<polygon points="1.0,115.0 34.0,126.0 369.0,118.0" fill="#67550c" />
<polygon points="383.0,206.0 260.0,154.0 116.0,154.0 0.0,199.0 0.0,244.0 112.0,236.0 141.0,211.0 332.0,239.0 383.0,232.0" fill="#acbcc7" opacity="0.95" />
<polygon points="113.0,20.0 115.0,104.0 120.0,62.0 149.0,64.0 152.0,107.0 339.0,110.0 334.0,59.0 285.0,0.0 134.0,0.0" fill="#fa1b2d" opacity="0.95" />
<polygon points="0.0,130.0 3.0,196.0 69.0,163.0 198.0,149.0 295.0,160.0 383.0,200.0 380.0,128.0" fill="#4c7d8c" opacity="0.95" />
<polygon points="300.0,0.0 347.0,59.0 338.0,63.0 344.0,112.0 381.0,114.0 383.0,0.0" fill="#13100f" />
<polygon points="154.0,310.0 153.0,383.0 210.0,383.0 212.0,362.0 231.0,362.0 231.0,383.0 250.0,383.0 246.0,309.0" fill="#13100f" />
<polygon points="137.0,230.0 137.0,276.0 261.0,274.0 259.0,230.0 205.0,229.0 201.0,244.0 188.0,241.0 187.0,229.0" fill="#a03c30" />
<polygon points="2.0,0.0 0.0,108.0 104.0,108.0 31.0,106.0 27.0,71.0 69.0,24.0 127.0,0.0" fill="#13100f" />
<polygon points="0.0,249.0 0.0,270.0 7.0,274.0 3.0,281.0 115.0,279.0 131.0,272.0 131.0,245.0" fill="#b67906" />
<polygon points="0.0,130.0 4.0,196.0 69.0,163.0 198.0,149.0 295.0,160.0 383.0,200.0 379.0,128.0" fill="#4c7d8c" opacity="0.95" />
<polygon points="0.0,327.0 0.0,374.0 7.0,375.0 7.0,383.0 82.0,383.0 83.0,341.0 90.0,349.0 92.0,326.0 86.0,338.0 83.0,325.0" fill="#a03c30" />
<polygon points="364.0,308.0 229.0,296.0 17.0,305.0" fill="#3e2316" />
<polygon points="7.0,114.0 35.0,126.0 361.0,119.0" fill="#67550c" opacity="0.95" />
<polygon points="315.0,325.0 320.0,374.0 315.0,382.0 365.0,383.0 362.0,327.0" fill="#a03c30" />
<polygon points="382.0,236.0 265.0,246.0 265.0,280.0 342.0,279.0 352.0,269.0 327.0,264.0 346.0,259.0 354.0,243.0" fill="#b67906" />
<polygon points="0.0,302.0 361.0,303.0 364.0,293.0 3.0,292.0" fill="#13100f" />
<polygon points="0.0,249.0 3.0,281.0 113.0,279.0 131.0,272.0 130.0,245.0" fill="#b67906" opacity="0.95" />
<polygon points="301.0,0.0 346.0,57.0 339.0,62.0 344.0,112.0 382.0,113.0 383.0,0.0" fill="#13100f" opacity="0.95" />
<polygon points="154.0,310.0 153.0,383.0 210.0,383.0 213.0,362.0 233.0,364.0 231.0,383.0 250.0,383.0 245.0,310.0" fill="#13100f" opacity="0.95" />
<polygon points="137.0,230.0 137.0,276.0 261.0,274.0 258.0,230.0 205.0,229.0 200.0,244.0 188.0,241.0 186.0,229.0" fill="#a03c30" opacity="0.95" />
<polygon points="142.0,307.0 5.0,307.0 0.0,372.0 7.0,383.0 80.0,383.0 93.0,327.0 10.0,321.0 138.0,320.0" fill="#a03c30" opacity="0.95" />
<polygon points="147.0,306.0 5.0,307.0 0.0,318.0 139.0,320.0" fill="#a03c30" />
<polygon points="0.0,0.0 0.0,108.0 66.0,109.0 26.0,102.0 28.0,69.0 70.0,21.0 79.0,29.0 127.0,0.0" fill="#13100f" opacity="0.95" />
<polygon points="13.0,114.0 38.0,126.0 328.0,119.0" fill="#67550c" opacity="0.95" />
<polygon points="0.0,320.0 101.0,325.0 120.0,352.0 93.0,378.0 152.0,379.0 128.0,352.0 151.0,321.0" fill="#f6f3f2" />
<polygon points="107.0,31.0 39.0,66.0 27.0,101.0 82.0,102.0 61.0,64.0" fill="#45403d" />
<polygon points="141.0,308.0 5.0,307.0 0.0,372.0 7.0,383.0 79.0,383.0 80.0,322.0 137.0,320.0" fill="#a03c30" opacity="0.95" />
<polygon points="0.0,249.0 0.0,270.0 10.0,281.0 112.0,279.0 131.0,270.0 129.0,245.0" fill="#b67906" opacity="0.95" />
<polygon points="378.0,236.0 266.0,246.0 265.0,280.0 342.0,279.0 336.0,264.0 355.0,243.0" fill="#b67906" opacity="0.95" />
<polygon points="301.0,0.0 345.0,56.0 340.0,63.0 343.0,110.0 383.0,112.0 383.0,0.0" fill="#13100f" opacity="0.95" />
<polygon points="154.0,311.0 153.0,383.0 210.0,383.0 214.0,362.0 233.0,365.0 231.0,383.0 250.0,383.0 244.0,310.0" fill="#13100f" opacity="0.95" />
<polygon points="0.0,108.0 29.0,107.0 28.0,67.0 70.0,21.0 79.0,29.0 127.0,0.0 0.0,0.0" fill="#13100f" opacity="0.95" />
<polygon points="136.0,234.0 138.0,276.0 261.0,273.0 261.0,236.0 254.0,229.0 206.0,229.0 199.0,244.0 188.0,241.0 185.0,229.0" fill="#a03c30" opacity="0.95" />
<polygon points="251.0,378.0 307.0,377.0 281.0,351.0 303.0,324.0 363.0,322.0 252.0,321.0 258.0,311.0 244.0,306.0 274.0,351.0" fill="#f6f3f2" />
<polygon points="259.0,307.0 263.0,319.0 355.0,320.0 314.0,326.0 316.0,383.0 365.0,383.0 361.0,309.0" fill="#a03c30" opacity="0.95" />
<polygon points="359.0,239.0 267.0,246.0 265.0,279.0 342.0,279.0 337.0,264.0" fill="#b67906" opacity="0.95" />
<polygon points="106.0,34.0 81.0,46.0 62.0,64.0 64.0,76.0 86.0,101.0 105.0,100.0 106.0,81.0 95.0,75.0 91.0,61.0 107.0,43.0" fill="#7c6a65" />
<polygon points="380.0,238.0 353.0,245.0 358.0,247.0 351.0,256.0 338.0,264.0 353.0,269.0 343.0,282.0 383.0,280.0" fill="#67550c" />
<polygon points="216.0,12.0 239.0,15.0 245.0,20.0 245.0,50.0 242.0,53.0 214.0,48.0 215.0,24.0 212.0,16.0" fill="#fa1b2d" />
<polygon points="304.0,326.0 283.0,351.0 300.0,372.0 313.0,372.0 311.0,328.0" fill="#c78879" />
<polygon points="133.0,220.0 135.0,227.0 153.0,221.0 263.0,221.0 242.0,212.0 139.0,213.0" fill="#7c6a65" />
<polygon points="126.0,63.0 121.0,67.0 120.0,100.0 124.0,103.0 142.0,104.0 145.0,102.0 147.0,104.0 147.0,66.0" fill="#f6f3f2" />
<polygon points="84.0,322.0 102.0,326.0 120.0,350.0 93.0,378.0 152.0,379.0 129.0,352.0 152.0,322.0" fill="#f6f3f2" opacity="0.95" />
<polygon points="250.0,322.0 273.0,348.0 251.0,378.0 306.0,377.0 282.0,349.0 300.0,325.0 316.0,321.0" fill="#f6f3f2" opacity="0.95" />
<polygon points="84.0,42.0 30.0,75.0 28.0,102.0 82.0,101.0 61.0,64.0" fill="#45403d" opacity="0.95" />
<polygon points="217.0,13.0 215.0,15.0 219.0,19.0 216.0,22.0 216.0,45.0 242.0,49.0 240.0,21.0 242.0,19.0" fill="#f6f3f2" />
<polygon points="262.0,230.0 263.0,245.0 327.0,239.0" fill="#f6f3f2" />
<polygon points="259.0,308.0 264.0,319.0 318.0,322.0 317.0,383.0 365.0,383.0 366.0,361.0 383.0,360.0 383.0,345.0 373.0,342.0 368.0,355.0 358.0,321.0 383.0,318.0 379.0,310.0" fill="#a03c30" opacity="0.95" />
<polygon points="215.0,14.0 232.0,14.0 243.0,18.0 242.0,52.0 214.0,48.0" fill="#fa1b2d" opacity="0.95" />
<polygon points="107.0,23.0 66.0,41.0 28.0,74.0" fill="#3e2316" />
<polygon points="383.0,240.0 358.0,243.0 350.0,257.0 338.0,264.0 353.0,268.0 347.0,281.0 383.0,280.0" fill="#67550c" opacity="0.95" />
<polygon points="259.0,218.0 242.0,212.0 140.0,213.0 134.0,222.0" fill="#7c6a65" opacity="0.95" />
<polygon points="105.0,34.0 62.0,64.0 68.0,82.0 87.0,101.0 105.0,100.0 106.0,82.0 97.0,78.0 91.0,64.0 107.0,43.0" fill="#7c6a65" opacity="0.95" />
<polygon points="128.0,63.0 121.0,68.0 121.0,101.0 140.0,104.0 147.0,98.0 147.0,66.0" fill="#f6f3f2" opacity="0.95" />
<polygon points="383.0,241.0 358.0,243.0 343.0,262.0 354.0,269.0 352.0,281.0 383.0,280.0" fill="#67550c" opacity="0.95" />
<polygon points="109.0,327.0 111.0,325.0 140.0,326.0 142.0,328.0 124.0,346.0" fill="#f6f3f2" />
<polygon points="71.0,49.0 46.0,61.0 30.0,76.0 28.0,102.0 81.0,100.0 61.0,71.0" fill="#45403d" opacity="0.95" />
<polygon points="215.0,13.0 238.0,15.0 244.0,19.0 242.0,52.0 220.0,51.0 214.0,47.0" fill="#fa1b2d" opacity="0.95" />
<polygon points="149.0,330.0 130.0,351.0 139.0,362.0 146.0,358.0 150.0,353.0" fill="#c78879" />
<polygon points="95.0,327.0 91.0,349.0 86.0,352.0 85.0,372.0 88.0,374.0 99.0,371.0 100.0,347.0 104.0,343.0 107.0,350.0 116.0,351.0" fill="#c78879" />
<polygon points="304.0,326.0 286.0,345.0 284.0,352.0 299.0,371.0 312.0,372.0 314.0,368.0 311.0,328.0" fill="#c78879" opacity="0.95" />
<polygon points="135.0,232.0 132.0,228.0 128.0,233.0 112.0,237.0 92.0,235.0 59.0,243.0 132.0,243.0 134.0,247.0" fill="#f6f3f2" />
<polygon points="104.0,34.0 62.0,64.0 68.0,82.0 87.0,101.0 105.0,99.0 106.0,82.0 95.0,75.0 91.0,64.0 93.0,55.0 107.0,43.0" fill="#7c6a65" opacity="0.95" />
<polygon points="106.0,46.0 94.0,55.0 92.0,61.0 94.0,70.0 101.0,79.0 106.0,77.0" fill="#4c7d8c" />
<polygon points="383.0,119.0 380.0,115.0 372.0,115.0 368.0,120.0 306.0,124.0 381.0,126.0" fill="#3e2316" />
<polygon points="258.0,217.0 242.0,212.0 140.0,213.0 134.0,220.0 255.0,221.0" fill="#7c6a65" opacity="0.95" />
<polygon points="250.0,328.0 252.0,372.0 267.0,354.0 261.0,351.0 261.0,341.0 254.0,337.0 254.0,332.0" fill="#d9a592" />
<polygon points="106.0,23.0 66.0,41.0 28.0,73.0" fill="#3e2316" opacity="0.95" />
<polygon points="75.0,23.0 69.0,25.0 37.0,53.0 57.0,45.0 76.0,29.0" fill="#45403d" />
<polygon points="304.0,326.0 286.0,345.0 284.0,352.0 300.0,371.0 311.0,372.0 314.0,370.0 311.0,328.0" fill="#c78879" opacity="0.95" />
<polygon points="121.0,7.0 70.0,35.0 102.0,22.0" fill="#4c7d8c" />
<polygon points="289.0,0.0 334.0,55.0 318.0,30.0" fill="#3e2316" />
<polygon points="98.0,328.0 94.0,329.0 92.0,346.0 86.0,351.0 85.0,372.0 88.0,374.0 99.0,371.0 101.0,346.0 114.0,350.0" fill="#c78879" opacity="0.95" />
<polygon points="265.0,370.0 266.0,372.0 287.0,372.0 288.0,371.0 276.0,357.0" fill="#c78879" />
<polygon points="290.0,328.0 282.0,327.0 278.0,330.0 275.0,328.0 265.0,328.0 264.0,330.0 277.0,344.0" fill="#d9a592" />
<polygon points="0.0,119.0 2.0,125.0 28.0,125.0 34.0,121.0 30.0,119.0 13.0,119.0 8.0,117.0 2.0,117.0" fill="#3e2316" />
<polygon points="134.0,372.0 123.0,358.0 110.0,372.0 111.0,373.0 129.0,373.0 131.0,371.0 133.0,373.0" fill="#c78879" />
<polygon points="98.0,328.0 93.0,331.0 93.0,343.0 86.0,353.0 85.0,372.0 88.0,374.0 99.0,370.0 102.0,348.0 114.0,349.0" fill="#c78879" opacity="0.95" />
<polygon points="148.0,332.0 131.0,350.0 131.0,353.0 139.0,361.0 150.0,354.0 150.0,333.0" fill="#c78879" opacity="0.95" />
<polygon points="376.0,363.0 374.0,365.0 375.0,383.0 383.0,383.0 383.0,369.0" fill="#3e2316" />
<polygon points="105.0,46.0 94.0,55.0 92.0,61.0 98.0,77.0 102.0,79.0 106.0,77.0 107.0,47.0" fill="#4c7d8c" opacity="0.95" />
<polygon points="252.0,331.0 250.0,332.0 250.0,363.0 253.0,369.0 262.0,362.0 261.0,341.0 254.0,337.0 254.0,332.0" fill="#d9a592" opacity="0.95" />
<polygon points="383.0,120.0 379.0,118.0 350.0,122.0 326.0,121.0 324.0,124.0 380.0,126.0" fill="#3e2316" opacity="0.95" />
<polygon points="103.0,27.0 99.0,25.0 63.0,43.0 61.0,48.0 64.0,50.0" fill="#3e2316" opacity="0.95" />
<polygon points="75.0,24.0 69.0,25.0 41.0,51.0 57.0,45.0 75.0,29.0" fill="#45403d" opacity="0.95" />
<polygon points="0.0,285.0 1.0,288.0 9.0,291.0 35.0,291.0 41.0,286.0 35.0,282.0 5.0,282.0" fill="#7c6a65" opacity="0.95" />
<polygon points="213.0,367.0 214.0,375.0 220.0,376.0 222.0,374.0 225.0,376.0 230.0,374.0 230.0,370.0 227.0,367.0 228.0,366.0 227.0,365.0 217.0,365.0" fill="#d9a592" />
<polygon points="135.0,330.0 130.0,333.0 124.0,329.0 121.0,332.0 117.0,330.0 114.0,333.0 125.0,345.0 130.0,340.0 129.0,338.0 131.0,336.0 133.0,337.0 138.0,332.0" fill="#d9a592" />
<polygon points="110.0,14.0 71.0,32.0 71.0,35.0 104.0,21.0" fill="#4c7d8c" opacity="0.95" />
<polygon points="104.0,48.0 94.0,55.0 92.0,61.0 98.0,76.0 102.0,79.0 106.0,77.0 107.0,50.0" fill="#4c7d8c" opacity="0.95" />
<polygon points="253.0,338.0 250.0,340.0 250.0,363.0 254.0,366.0 262.0,362.0 262.0,352.0 260.0,349.0 261.0,341.0" fill="#d9a592" opacity="0.95" />
<polygon points="289.0,328.0 282.0,327.0 277.0,330.0 274.0,328.0 267.0,328.0 265.0,331.0 277.0,343.0 282.0,339.0" fill="#d9a592" opacity="0.95" />
<polygon points="0.0,119.0 0.0,123.0 3.0,125.0 27.0,125.0 32.0,122.0 30.0,119.0 26.0,120.0 21.0,118.0 13.0,119.0 3.0,117.0" fill="#3e2316" opacity="0.95" />
<polygon points="75.0,26.0 72.0,24.0 69.0,25.0 48.0,46.0 51.0,48.0 68.0,37.0 75.0,29.0" fill="#45403d" opacity="0.95" />
<polygon points="230.0,377.0 228.0,375.0 224.0,378.0 220.0,379.0 217.0,376.0 214.0,376.0 213.0,381.0 214.0,382.0 216.0,381.0 218.0,383.0 229.0,383.0" fill="#b67906" />
<polygon points="104.0,344.0 101.0,348.0 102.0,365.0 100.0,367.0 102.0,369.0 105.0,366.0 104.0,365.0 110.0,361.0 105.0,358.0 108.0,355.0 106.0,353.0" fill="#d9a592" />
<polygon points="137.0,331.0 130.0,332.0 125.0,329.0 120.0,332.0 117.0,330.0 115.0,334.0 125.0,344.0 129.0,341.0 129.0,336.0 136.0,334.0" fill="#d9a592" opacity="0.95" />
<polygon points="287.0,330.0 283.0,327.0 277.0,330.0 274.0,328.0 269.0,328.0 266.0,332.0 277.0,343.0 282.0,339.0" fill="#d9a592" opacity="0.95" />
<polygon points="43.0,286.0 49.0,291.0 57.0,291.0 60.0,289.0 60.0,286.0 54.0,283.0 48.0,283.0" fill="#7c6a65" opacity="0.95" />
<polygon points="40.0,74.0 42.0,76.0 42.0,79.0 40.0,81.0 38.0,79.0 38.0,76.0" fill="#45403d" />
<polygon points="230.0,376.0 226.0,376.0 226.0,378.0 223.0,380.0 215.0,376.0 213.0,377.0 213.0,380.0 217.0,383.0 226.0,383.0 226.0,381.0 230.0,379.0" fill="#b67906" opacity="0.95" />
<polygon points="127.0,274.0 126.0,273.0 124.0,274.0 121.0,274.0 119.0,276.0 119.0,277.0 120.0,278.0 121.0,277.0 126.0,276.0" fill="#67550c" />
<polygon points="338.0,116.0 338.0,118.0 341.0,120.0 348.0,121.0 351.0,119.0 351.0,117.0 348.0,115.0 341.0,114.0" fill="#67550c" opacity="0.95" />
<polygon points="293.0,382.0 293.0,383.0 304.0,383.0 304.0,382.0 303.0,381.0 296.0,381.0 295.0,382.0 294.0,381.0" fill="#45403d" />
<polygon points="333.0,262.0 336.0,264.0 336.0,266.0 333.0,268.0 330.0,266.0 330.0,264.0" fill="#b67906" opacity="0.95" />
<polygon points="294.0,382.0 294.0,383.0 304.0,383.0 304.0,382.0 303.0,382.0 302.0,381.0 296.0,381.0 295.0,382.0" fill="#45403d" opacity="0.95" />
<polygon points="370.0,235.0 367.0,237.0 367.0,239.0 370.0,241.0 373.0,239.0 373.0,237.0" fill="#b67906" opacity="0.95" />
</svg>