<svg xmlns="http://www.w3.org/2000/svg" width="768" height="768" viewBox="0 0 384 384">
<rect width="384" height="384" fill="#936f69"/>
<polygon points="0.0,226.0 2.0,268.0 135.0,269.0 130.0,371.0 193.0,270.0 245.0,295.0 249.0,366.0 371.0,357.0 357.0,325.0 265.0,325.0 263.0,270.0 354.0,268.0 380.0,224.0" fill="#c5877a" />
<polygon points="103.0,18.0 151.0,104.0 246.0,104.0 262.0,73.0 278.0,102.0 292.0,76.0 304.0,105.0 319.0,76.0 341.0,108.0 316.0,41.0 259.0,0.0 134.0,0.0" fill="#fe784d" />
<polygon points="136.0,106.0 2.0,124.0 0.0,188.0 135.0,129.0" fill="#596f72" />
<polygon points="0.0,226.0 24.0,306.0 135.0,269.0 137.0,366.0 193.0,270.0 250.0,366.0 371.0,358.0 264.0,324.0 265.0,269.0 378.0,225.0 138.0,242.0 137.0,129.0" fill="#c5877a" opacity="0.95" />
<polygon points="263.0,108.0 265.0,129.0 383.0,192.0 381.0,132.0" fill="#596f72" />
<polygon points="174.0,285.0 157.0,312.0 153.0,365.0 136.0,367.0 135.0,383.0 263.0,383.0 263.0,369.0 247.0,365.0 246.0,313.0 237.0,294.0 211.0,277.0" fill="#23383d" />
<polygon points="134.0,160.0 134.0,177.0 141.0,180.0 142.0,190.0 151.0,192.0 152.0,219.0 249.0,219.0 250.0,192.0 264.0,177.0 263.0,159.0" fill="#95defb" />
<polygon points="0.0,0.0 2.0,30.0 23.0,20.0 39.0,37.0 0.0,41.0 2.0,113.0 114.0,100.0 96.0,76.0 88.0,92.0 51.0,77.0 88.0,27.0 132.0,0.0" fill="#403031" />
<polygon points="0.0,226.0 24.0,306.0 135.0,270.0 138.0,366.0 193.0,270.0 251.0,366.0 371.0,357.0 266.0,325.0 264.0,269.0 383.0,230.0 139.0,242.0 136.0,130.0 26.0,208.0 73.0,223.0" fill="#c5877a" opacity="0.95" />
<polygon points="104.0,17.0 135.0,35.0 114.0,57.0 152.0,104.0 245.0,104.0 261.0,73.0 279.0,102.0 293.0,77.0 305.0,105.0 318.0,76.0 341.0,108.0 322.0,49.0 261.0,0.0 132.0,0.0" fill="#fe784d" opacity="0.95" />
<polygon points="261.0,0.0 299.0,22.0 330.0,59.0 352.0,52.0 358.0,64.0 340.0,78.0 342.0,109.0 383.0,115.0 383.0,0.0" fill="#403031" />
<polygon points="136.0,222.0 137.0,241.0 263.0,240.0 261.0,221.0" fill="#403031" />
<polygon points="136.0,106.0 1.0,125.0 0.0,188.0 137.0,128.0" fill="#596f72" opacity="0.95" />
<polygon points="139.0,130.0 88.0,152.0 90.0,172.0 68.0,183.0 63.0,203.0 59.0,191.0 23.0,209.0 45.0,208.0 39.0,219.0 149.0,217.0 150.0,194.0 133.0,177.0" fill="#c5877a" />
<polygon points="150.0,107.0 151.0,127.0 197.0,129.0 199.0,157.0 259.0,156.0 259.0,130.0 248.0,125.0 247.0,106.0" fill="#596f72" />
<polygon points="104.0,17.0 135.0,35.0 114.0,57.0 153.0,104.0 244.0,104.0 261.0,73.0 280.0,102.0 293.0,77.0 306.0,105.0 318.0,76.0 341.0,107.0 322.0,49.0 262.0,0.0 131.0,0.0" fill="#fe784d" opacity="0.95" />
<polygon points="134.0,160.0 134.0,177.0 151.0,192.0 153.0,219.0 248.0,219.0 250.0,192.0 264.0,177.0 262.0,159.0" fill="#95defb" opacity="0.95" />
<polygon points="174.0,285.0 157.0,312.0 153.0,365.0 135.0,368.0 135.0,383.0 263.0,383.0 263.0,368.0 247.0,365.0 246.0,313.0 237.0,294.0 211.0,277.0" fill="#23383d" opacity="0.95" />
<polygon points="267.0,276.0 268.0,320.0 383.0,317.0 381.0,273.0 343.0,296.0 373.0,287.0 356.0,312.0 320.0,295.0 358.0,275.0" fill="#8d6762" />
<polygon points="0.0,0.0 1.0,26.0 23.0,20.0 37.0,33.0 0.0,41.0 1.0,112.0 114.0,101.0 97.0,77.0 87.0,89.0 52.0,74.0 131.0,0.0" fill="#403031" opacity="0.95" />
<polygon points="263.0,108.0 263.0,128.0 383.0,192.0 382.0,133.0" fill="#596f72" opacity="0.95" />
<polygon points="140.0,129.0 141.0,157.0 197.0,156.0 195.0,128.0" fill="#23383d" />
<polygon points="86.0,155.0 2.0,191.0 0.0,212.0 86.0,174.0" fill="#625856" />
<polygon points="136.0,107.0 0.0,126.0 0.0,187.0 135.0,129.0" fill="#596f72" opacity="0.95" />
<polygon points="272.0,140.0 281.0,169.0 270.0,173.0 265.0,158.0 253.0,217.0 327.0,208.0 337.0,195.0 359.0,206.0 365.0,188.0 325.0,166.0 303.0,174.0 310.0,159.0" fill="#c5877a" />
<polygon points="1.0,326.0 2.0,361.0 94.0,358.0 111.0,366.0 84.0,371.0 127.0,370.0 114.0,366.0 126.0,360.0 111.0,330.0 122.0,325.0 17.0,325.0 7.0,351.0" fill="#c5877a" />
<polygon points="262.0,0.0 299.0,22.0 328.0,56.0 352.0,52.0 358.0,64.0 340.0,78.0 342.0,109.0 383.0,115.0 383.0,0.0" fill="#403031" opacity="0.95" />
<polygon points="101.0,18.0 71.0,45.0 52.0,79.0 64.0,71.0 88.0,80.0 97.0,75.0 117.0,95.0 133.0,73.0 113.0,62.0" fill="#8d6762" />
<polygon points="134.0,161.0 134.0,176.0 151.0,193.0 154.0,219.0 247.0,219.0 250.0,193.0 264.0,176.0 261.0,159.0" fill="#95defb" opacity="0.95" />
<polygon points="0.0,0.0 0.0,24.0 37.0,33.0 0.0,41.0 0.0,111.0 114.0,100.0 97.0,77.0 86.0,88.0 53.0,72.0 130.0,0.0" fill="#403031" opacity="0.95" />
<polygon points="174.0,285.0 157.0,312.0 153.0,364.0 135.0,369.0 135.0,383.0 263.0,383.0 263.0,369.0 247.0,364.0 246.0,313.0 237.0,294.0 211.0,277.0" fill="#23383d" opacity="0.95" />
<polygon points="150.0,108.0 153.0,127.0 195.0,128.0 201.0,157.0 256.0,157.0 264.0,128.0 383.0,192.0 380.0,132.0 268.0,107.0 259.0,129.0 245.0,106.0" fill="#596f72" opacity="0.95" />
<polygon points="263.0,105.0 383.0,133.0 383.0,116.0" fill="#9ea2a3" />
<polygon points="136.0,222.0 138.0,241.0 263.0,240.0 260.0,221.0" fill="#403031" opacity="0.95" />
<polygon points="150.0,107.0 152.0,127.0 196.0,128.0 200.0,157.0 259.0,156.0 259.0,129.0 248.0,125.0 246.0,106.0" fill="#596f72" opacity="0.95" />
<polygon points="130.0,275.0 78.0,276.0 60.0,297.0 93.0,301.0 90.0,286.0 119.0,283.0 110.0,306.0 24.0,307.0 6.0,295.0 2.0,318.0 125.0,319.0" fill="#8d6762" />
<polygon points="264.0,0.0 306.0,28.0 328.0,56.0 352.0,52.0 358.0,64.0 341.0,79.0 342.0,108.0 383.0,115.0 383.0,0.0" fill="#403031" opacity="0.95" />
<polygon points="260.0,129.0 270.0,172.0 275.0,138.0 311.0,159.0 303.0,173.0 368.0,190.0 357.0,209.0 337.0,196.0 258.0,220.0 383.0,218.0 383.0,193.0" fill="#8d6762" />
<polygon points="0.0,307.0 6.0,294.0 24.0,306.0 102.0,307.0 119.0,285.0 90.0,287.0 93.0,302.0 64.0,301.0 53.0,288.0 60.0,296.0 77.0,275.0 98.0,273.0 9.0,273.0 6.0,283.0 2.0,273.0" fill="#c5877a" />
<polygon points="134.0,103.0 0.0,114.0 0.0,124.0" fill="#9ea2a3" />
<polygon points="268.0,276.0 269.0,320.0 383.0,317.0 380.0,273.0 343.0,296.0 371.0,298.0 356.0,312.0 322.0,297.0 347.0,275.0" fill="#8d6762" opacity="0.95" />
<polygon points="273.0,140.0 281.0,169.0 259.0,180.0 251.0,216.0 327.0,208.0 337.0,195.0 358.0,207.0 364.0,191.0 326.0,167.0 303.0,174.0 309.0,158.0" fill="#c5877a" opacity="0.95" />
<polygon points="132.0,72.0 113.0,61.0 100.0,19.0 71.0,45.0 54.0,76.0 96.0,75.0 117.0,90.0" fill="#8d6762" opacity="0.95" />
<polygon points="86.0,155.0 0.0,192.0 0.0,211.0 88.0,173.0" fill="#625856" opacity="0.95" />
<polygon points="140.0,129.0 142.0,157.0 197.0,156.0 197.0,131.0 194.0,128.0" fill="#23383d" opacity="0.95" />
<polygon points="136.0,223.0 139.0,241.0 263.0,239.0 263.0,224.0 259.0,221.0" fill="#403031" opacity="0.95" />
<polygon points="0.0,351.0 33.0,364.0 126.0,360.0 114.0,332.0 90.0,345.0 76.0,325.0 39.0,338.0 38.0,326.0 20.0,325.0 14.0,347.0" fill="#c5877a" opacity="0.95" />
<polygon points="130.0,275.0 81.0,276.0 61.0,296.0 116.0,284.0 107.0,307.0 7.0,299.0 0.0,317.0 124.0,319.0" fill="#8d6762" opacity="0.95" />
<polygon points="251.0,194.0 254.0,217.0 327.0,208.0 337.0,195.0 354.0,208.0 358.0,188.0 326.0,167.0 305.0,175.0 309.0,158.0 276.0,140.0 281.0,169.0" fill="#c5877a" opacity="0.95" />
<polygon points="269.0,282.0 270.0,320.0 374.0,320.0 356.0,330.0 372.0,357.0 343.0,355.0 383.0,367.0 382.0,274.0 343.0,296.0 371.0,298.0 353.0,314.0 324.0,296.0 339.0,273.0" fill="#8d6762" opacity="0.95" />
<polygon points="86.0,156.0 0.0,192.0 0.0,211.0 87.0,173.0" fill="#625856" opacity="0.95" />
<polygon points="265.0,103.0 383.0,132.0 383.0,116.0" fill="#9ea2a3" opacity="0.95" />
<polygon points="0.0,320.0 0.0,325.0 134.0,323.0" fill="#f4dacd" />
<polygon points="383.0,325.0 337.0,331.0 366.0,336.0 369.0,360.0 347.0,349.0 348.0,363.0 325.0,354.0 310.0,367.0 274.0,358.0 265.0,369.0 378.0,370.0" fill="#8d6762" />
<polygon points="132.0,72.0 113.0,60.0 100.0,19.0 71.0,45.0 54.0,74.0 67.0,71.0 88.0,80.0 96.0,75.0 117.0,87.0" fill="#8d6762" opacity="0.95" />
<polygon points="133.0,74.0 121.0,86.0 121.0,97.0 123.0,100.0 132.0,100.0 137.0,105.0 148.0,104.0 149.0,86.0" fill="#23383d" />
<polygon points="140.0,130.0 140.0,155.0 143.0,157.0 197.0,155.0 197.0,131.0 193.0,128.0" fill="#23383d" opacity="0.95" />
<polygon points="133.0,102.0 0.0,114.0 0.0,124.0" fill="#9ea2a3" opacity="0.95" />
<polygon points="264.0,221.0 383.0,223.0 383.0,220.0" fill="#f4dacd" />
<polygon points="318.0,77.0 311.0,83.0 311.0,105.0 327.0,108.0 328.0,87.0" fill="#403031" />
<polygon points="265.0,322.0 383.0,324.0 383.0,321.0" fill="#f4dacd" />
<polygon points="2.0,33.0 3.0,37.0 36.0,36.0 33.0,28.0 22.0,21.0 10.0,23.0" fill="#fe784d" />
<polygon points="271.0,104.0 383.0,132.0 383.0,116.0" fill="#9ea2a3" opacity="0.95" />
<polygon points="0.0,268.0 0.0,272.0 133.0,270.0" fill="#f4dacd" />
<polygon points="338.0,52.0 332.0,58.0 332.0,67.0 337.0,74.0 348.0,75.0 356.0,67.0 355.0,57.0 346.0,51.0" fill="#e3edf5" />
<polygon points="0.0,371.0 0.0,375.0 134.0,373.0" fill="#f4dacd" />
<polygon points="156.0,304.0 171.0,286.0 193.0,275.0 216.0,277.0 243.0,295.0 227.0,278.0 196.0,271.0 172.0,280.0" fill="#e3edf5" />
<polygon points="102.0,106.0 0.0,114.0 0.0,124.0" fill="#9ea2a3" opacity="0.95" />
<polygon points="134.0,74.0 121.0,86.0 121.0,97.0 124.0,100.0 131.0,100.0 138.0,105.0 149.0,103.0 149.0,86.0" fill="#23383d" opacity="0.95" />
<polygon points="129.0,29.0 135.0,35.0 135.0,39.0 130.0,44.0 123.0,44.0 121.0,46.0 123.0,48.0 120.0,51.0 118.0,49.0 119.0,45.0 113.0,39.0 113.0,35.0 120.0,29.0" fill="#fe784d" />
<polygon points="0.0,34.0 4.0,37.0 36.0,36.0 33.0,28.0 22.0,21.0 9.0,24.0" fill="#fe784d" opacity="0.95" />
<polygon points="338.0,52.0 332.0,58.0 332.0,67.0 337.0,74.0 348.0,75.0 356.0,67.0 355.0,57.0 346.0,51.0" fill="#e3edf5" opacity="0.95" />
<polygon points="260.0,79.0 254.0,85.0 251.0,83.0 248.0,86.0 249.0,92.0 255.0,93.0 257.0,99.0 260.0,99.0 264.0,103.0 267.0,99.0 268.0,89.0 267.0,84.0" fill="#23383d" />
<polygon points="134.0,74.0 121.0,86.0 121.0,97.0 125.0,100.0 131.0,100.0 138.0,105.0 146.0,104.0 149.0,102.0 149.0,86.0" fill="#23383d" opacity="0.95" />
<polygon points="168.0,284.0 170.0,287.0 195.0,274.0 233.0,285.0 227.0,278.0 206.0,271.0 183.0,274.0" fill="#e3edf5" opacity="0.95" />
<polygon points="338.0,52.0 332.0,58.0 332.0,67.0 337.0,74.0 348.0,75.0 356.0,67.0 355.0,57.0 346.0,51.0" fill="#e3edf5" opacity="0.95" />
<polygon points="0.0,33.0 5.0,37.0 32.0,37.0 35.0,35.0 33.0,28.0 22.0,21.0 9.0,24.0" fill="#fe784d" opacity="0.95" />
<polygon points="243.0,44.0 247.0,44.0 251.0,48.0 251.0,50.0 246.0,55.0 244.0,53.0 242.0,53.0 240.0,51.0 240.0,47.0" fill="#fe784d" />
<polygon points="68.0,74.0 83.0,85.0 88.0,91.0 89.0,90.0 89.0,82.0 87.0,80.0 81.0,79.0 70.0,73.0" fill="#625856" />
<polygon points="155.0,306.0 153.0,309.0 152.0,315.0 152.0,332.0 153.0,333.0 155.0,315.0 157.0,309.0" fill="#f4dacd" />
<polygon points="244.0,298.0 242.0,301.0 246.0,308.0 247.0,315.0 249.0,316.0 251.0,314.0 250.0,308.0 246.0,299.0" fill="#f4dacd" />
<polygon points="240.0,47.0 244.0,44.0 247.0,44.0 250.0,46.0 251.0,50.0 249.0,53.0 244.0,54.0 240.0,51.0" fill="#fe784d" opacity="0.95" />
<polygon points="244.0,44.0 248.0,45.0 251.0,48.0 251.0,50.0 246.0,54.0 244.0,54.0 240.0,51.0 240.0,47.0" fill="#fe784d" opacity="0.95" />
<polygon points="74.0,77.0 74.0,79.0 87.0,88.0 89.0,87.0 89.0,81.0 81.0,79.0 76.0,76.0" fill="#625856" opacity="0.95" />
<polygon points="249.0,317.0 248.0,318.0 248.0,331.0 249.0,332.0 250.0,331.0 250.0,325.0 251.0,324.0 251.0,319.0" fill="#d8afa3" />
<polygon points="80.0,81.0 80.0,83.0 86.0,87.0 89.0,85.0 89.0,82.0 83.0,79.0" fill="#625856" opacity="0.95" />
<polygon points="247.0,307.0 246.0,308.0 246.0,311.0 247.0,311.0 248.0,312.0 249.0,311.0 250.0,311.0 250.0,308.0" fill="#f4dacd" opacity="0.95" />
</svg>