<svg xmlns="http://www.w3.org/2000/svg" width="768" height="768" viewBox="0 0 384 384">
<rect width="384" height="384" fill="#827b74"/>
<polygon points="0.0,271.0 0.0,383.0 383.0,383.0 368.0,308.0 187.0,370.0 130.0,301.0 174.0,286.0 168.0,246.0 120.0,253.0 117.0,280.0 95.0,256.0" fill="#c0a496" />
<polygon points="89.0,171.0 188.0,221.0 359.0,191.0 213.0,158.0" fill="#b3e7fe" />
<polygon points="189.0,139.0 366.0,178.0 383.0,154.0 383.0,130.0 204.0,108.0" fill="#1db3dc" />
<polygon points="0.0,271.0 0.0,383.0 383.0,383.0 367.0,309.0 186.0,369.0 131.0,302.0 174.0,286.0 169.0,247.0 119.0,254.0 117.0,280.0 96.0,257.0" fill="#c0a496" opacity="0.95" />
<polygon points="188.0,0.0 185.0,28.0 201.0,95.0 213.0,104.0 247.0,105.0 246.0,1.0" fill="#efc9b5" />
<polygon points="91.0,171.0 188.0,221.0 355.0,192.0 213.0,158.0" fill="#b3e7fe" opacity="0.95" />
<polygon points="0.0,271.0 0.0,383.0 383.0,383.0 365.0,309.0 186.0,369.0 133.0,303.0 174.0,286.0 169.0,247.0 121.0,254.0 117.0,280.0 96.0,257.0" fill="#c0a496" opacity="0.95" />
<polygon points="96.0,204.0 0.0,214.0 0.0,232.0 15.0,233.0 0.0,237.0 0.0,269.0 98.0,254.0" fill="#e1d6d0" />
<polygon points="366.0,198.0 189.0,231.0 128.0,201.0 180.0,231.0 189.0,367.0 200.0,316.0 336.0,296.0 202.0,287.0 201.0,238.0" fill="#19130f" />
<polygon points="189.0,139.0 366.0,178.0 383.0,156.0 383.0,130.0 205.0,108.0" fill="#1db3dc" opacity="0.95" />
<polygon points="92.0,171.0 188.0,221.0 351.0,192.0 213.0,158.0" fill="#b3e7fe" opacity="0.95" />
<polygon points="383.0,283.0 305.0,266.0 200.0,279.0 337.0,293.0 200.0,317.0 203.0,344.0 366.0,298.0 383.0,341.0" fill="#3a2d1e" />
<polygon points="6.0,43.0 0.0,111.0 18.0,126.0 20.0,106.0 107.0,104.0 115.0,122.0 132.0,104.0 167.0,158.0 127.0,68.0 125.0,86.0 50.0,87.0 45.0,30.0" fill="#19130f" />
<polygon points="96.0,203.0 0.0,214.0 0.0,269.0 98.0,254.0" fill="#e1d6d0" opacity="0.95" />
<polygon points="188.0,0.0 185.0,28.0 201.0,95.0 248.0,104.0 246.0,0.0" fill="#efc9b5" opacity="0.95" />
<polygon points="369.0,301.0 210.0,342.0 212.0,368.0" fill="#62504a" />
<polygon points="189.0,139.0 366.0,178.0 383.0,157.0 383.0,130.0 205.0,108.0" fill="#1db3dc" opacity="0.95" />
<polygon points="370.0,246.0 332.0,235.0 282.0,249.0 206.0,240.0 202.0,278.0 302.0,250.0" fill="#c0a496" />
<polygon points="365.0,197.0 189.0,231.0 148.0,213.0 180.0,231.0 189.0,366.0 198.0,312.0 335.0,297.0 202.0,287.0 200.0,239.0" fill="#19130f" opacity="0.95" />
<polygon points="371.0,210.0 250.0,231.0 331.0,233.0 369.0,244.0" fill="#e1d6d0" />
<polygon points="0.0,0.0 0.0,52.0 24.0,0.0 29.0,31.0 44.0,28.0 62.0,57.0 52.0,84.0 121.0,82.0 121.0,68.0 98.0,79.0 62.0,29.0 68.0,0.0" fill="#3a2d1e" />
<polygon points="96.0,204.0 0.0,214.0 0.0,269.0 98.0,254.0" fill="#e1d6d0" opacity="0.95" />
<polygon points="188.0,0.0 185.0,28.0 201.0,94.0 214.0,102.0 247.0,104.0 246.0,0.0" fill="#efc9b5" opacity="0.95" />
<polygon points="365.0,199.0 181.0,229.0 189.0,365.0 198.0,314.0 335.0,297.0 202.0,287.0 201.0,239.0" fill="#19130f" opacity="0.95" />
<polygon points="266.0,0.0 267.0,103.0 282.0,108.0 277.0,0.0" fill="#efc9b5" />
<polygon points="0.0,52.0 1.0,112.0 106.0,104.0 114.0,121.0 131.0,104.0 165.0,154.0 130.0,70.0 11.0,96.0 61.0,57.0 42.0,29.0" fill="#19130f" opacity="0.95" />
<polygon points="95.0,181.0 103.0,277.0 102.0,201.0 174.0,250.0 176.0,324.0 132.0,301.0 183.0,352.0 179.0,235.0" fill="#62504a" />
<polygon points="284.0,0.0 286.0,108.0 296.0,109.0 300.0,0.0" fill="#ae462a" />
<polygon points="383.0,283.0 305.0,266.0 201.0,279.0 337.0,293.0 201.0,321.0 203.0,343.0 367.0,298.0 383.0,341.0" fill="#3a2d1e" opacity="0.95" />
<polygon points="116.0,213.0 120.0,251.0 165.0,244.0" fill="#e1d6d0" />
<polygon points="353.0,77.0 352.0,111.0 383.0,114.0 383.0,76.0" fill="#19130f" />
<polygon points="383.0,37.0 351.0,39.0 353.0,71.0 383.0,70.0" fill="#19130f" />
<polygon points="0.0,213.0 30.0,209.0 17.0,208.0 12.0,193.0 26.0,192.0 40.0,209.0 71.0,204.0 83.0,189.0 68.0,178.0 62.0,186.0 36.0,175.0 2.0,178.0" fill="#85643a" />
<polygon points="351.0,0.0 351.0,32.0 383.0,32.0 383.0,0.0" fill="#19130f" />
<polygon points="370.0,246.0 332.0,235.0 282.0,249.0 206.0,240.0 202.0,278.0 302.0,250.0" fill="#c0a496" opacity="0.95" />
<polygon points="65.0,20.0 91.0,54.0 89.0,38.0 107.0,43.0 102.0,20.0 137.0,33.0 172.0,25.0 140.0,13.0 152.0,0.0 125.0,0.0 83.0,33.0 76.0,24.0 98.0,0.0" fill="#85643a" />
<polygon points="383.0,208.0 372.0,213.0 367.0,264.0 281.0,258.0 250.0,268.0 325.0,266.0 382.0,283.0" fill="#62504a" />
<polygon points="369.0,300.0 211.0,342.0 212.0,368.0" fill="#62504a" opacity="0.95" />
<polygon points="0.0,0.0 0.0,51.0 25.0,1.0 36.0,10.0 30.0,32.0 44.0,29.0 40.0,40.0 62.0,57.0 51.0,81.0 97.0,80.0 64.0,29.0 67.0,0.0" fill="#3a2d1e" opacity="0.95" />
<polygon points="342.0,0.0 331.0,8.0 340.0,67.0 331.0,75.0 298.0,74.0 299.0,108.0 319.0,105.0 302.0,84.0 332.0,86.0 328.0,105.0 346.0,111.0" fill="#e26541" />
<polygon points="383.0,283.0 305.0,266.0 202.0,280.0 337.0,293.0 203.0,323.0 203.0,341.0 365.0,299.0 383.0,341.0" fill="#3a2d1e" opacity="0.95" />
<polygon points="108.0,142.0 97.0,137.0 104.0,130.0 0.0,135.0 0.0,152.0 10.0,136.0 21.0,149.0 66.0,136.0 71.0,145.0" fill="#3a2d1e" />
<polygon points="206.0,106.0 383.0,121.0 380.0,115.0" fill="#b3e7fe" />
<polygon points="371.0,210.0 356.0,208.0 254.0,232.0 331.0,233.0 368.0,244.0" fill="#e1d6d0" opacity="0.95" />
<polygon points="351.0,0.0 351.0,32.0 356.0,35.0 352.0,70.0 369.0,73.0 352.0,78.0 352.0,111.0 383.0,114.0 383.0,76.0 374.0,74.0 383.0,70.0 383.0,0.0" fill="#19130f" opacity="0.95" />
<polygon points="0.0,213.0 13.0,211.0 12.0,193.0 53.0,207.0 71.0,203.0 82.0,188.0 35.0,175.0 2.0,178.0" fill="#85643a" opacity="0.95" />
<polygon points="95.0,199.0 174.0,250.0 177.0,322.0 133.0,302.0 184.0,350.0 179.0,235.0" fill="#62504a" opacity="0.95" />
<polygon points="65.0,7.0 91.0,53.0 104.0,20.0 168.0,25.0 139.0,13.0 151.0,0.0 94.0,15.0 97.0,0.0 82.0,15.0" fill="#85643a" opacity="0.95" />
<polygon points="182.0,0.0 185.0,83.0 198.0,114.0 212.0,102.0 200.0,95.0" fill="#e9ad90" />
<polygon points="298.0,208.0 259.0,208.0 191.0,222.0 190.0,228.0" fill="#044d6a" />
<polygon points="142.0,298.0 153.0,310.0 175.0,324.0 176.0,301.0 173.0,288.0" fill="#3a2d1e" />
<polygon points="0.0,0.0 0.0,51.0 25.0,1.0 35.0,9.0 31.0,28.0 44.0,29.0 62.0,57.0 52.0,82.0 97.0,80.0 64.0,28.0 67.0,0.0" fill="#3a2d1e" opacity="0.95" />
<polygon points="370.0,247.0 332.0,235.0 282.0,249.0 206.0,240.0 202.0,276.0 300.0,250.0" fill="#c0a496" opacity="0.95" />
<polygon points="351.0,0.0 351.0,31.0 356.0,35.0 352.0,69.0 358.0,73.0 352.0,79.0 352.0,110.0 383.0,114.0 383.0,0.0" fill="#19130f" opacity="0.95" />
<polygon points="266.0,0.0 267.0,103.0 280.0,108.0 277.0,0.0" fill="#efc9b5" opacity="0.95" />
<polygon points="369.0,302.0 211.0,342.0 207.0,360.0 214.0,367.0" fill="#62504a" opacity="0.95" />
<polygon points="116.0,214.0 119.0,250.0 163.0,245.0" fill="#e1d6d0" opacity="0.95" />
<polygon points="284.0,0.0 285.0,107.0 295.0,109.0 295.0,35.0 300.0,0.0" fill="#ae462a" opacity="0.95" />
<polygon points="371.0,211.0 356.0,208.0 269.0,230.0 331.0,233.0 367.0,244.0" fill="#e1d6d0" opacity="0.95" />
<polygon points="143.0,134.0 107.0,144.0 129.0,147.0 126.0,156.0 74.0,162.0 125.0,164.0 136.0,156.0 142.0,162.0" fill="#85643a" />
<polygon points="0.0,209.0 13.0,210.0 13.0,193.0 43.0,197.0 53.0,207.0 70.0,203.0 80.0,189.0 34.0,175.0 0.0,179.0" fill="#85643a" opacity="0.95" />
<polygon points="323.0,235.0 285.0,234.0 240.0,243.0 246.0,246.0 260.0,241.0 282.0,248.0" fill="#efc9b5" />
<polygon points="333.0,0.0 340.0,67.0 297.0,76.0 298.0,106.0 317.0,105.0 305.0,86.0 325.0,83.0 328.0,105.0 344.0,112.0 342.0,0.0" fill="#e26541" opacity="0.95" />
<polygon points="102.0,197.0 174.0,250.0 177.0,322.0 134.0,303.0 183.0,348.0 179.0,236.0" fill="#62504a" opacity="0.95" />
<polygon points="0.0,117.0 0.0,127.0 39.0,128.0 14.0,134.0 23.0,149.0 66.0,136.0 71.0,145.0 107.0,143.0 98.0,130.0 47.0,131.0 45.0,121.0" fill="#3a2d1e" opacity="0.95" />
<polygon points="383.0,208.0 372.0,213.0 371.0,258.0 363.0,265.0 281.0,258.0 256.0,267.0 325.0,266.0 382.0,283.0" fill="#62504a" opacity="0.95" />
<polygon points="286.0,257.0 360.0,264.0 370.0,258.0 304.0,253.0" fill="#85643a" />
<polygon points="266.0,0.0 267.0,103.0 279.0,108.0 283.0,90.0 277.0,0.0" fill="#efc9b5" opacity="0.95" />
<polygon points="87.0,170.0 0.0,172.0 0.0,178.0 36.0,174.0 58.0,180.0 59.0,174.0 75.0,179.0 85.0,176.0" fill="#3a2d1e" />
<polygon points="328.0,181.0 365.0,192.0 374.0,190.0 374.0,185.0 371.0,186.0 367.0,180.0 337.0,173.0" fill="#85643a" />
<polygon points="31.0,3.0 22.0,3.0 23.0,14.0 12.0,25.0 13.0,30.0 5.0,35.0 5.0,40.0 33.0,36.0 27.0,29.0 35.0,11.0" fill="#85643a" />
<polygon points="166.0,37.0 157.0,42.0 164.0,67.0 139.0,42.0 140.0,64.0 147.0,60.0 145.0,72.0 158.0,81.0 151.0,99.0 166.0,88.0 158.0,81.0 163.0,67.0 169.0,73.0" fill="#ce8c69" />
<polygon points="284.0,0.0 285.0,107.0 294.0,109.0 298.0,98.0 295.0,35.0 300.0,0.0" fill="#ae462a" opacity="0.95" />
<polygon points="322.0,119.0 383.0,129.0 383.0,122.0" fill="#0785b2" />
<polygon points="297.0,207.0 259.0,208.0 192.0,222.0 190.0,228.0" fill="#044d6a" opacity="0.95" />
<polygon points="383.0,208.0 372.0,214.0 366.0,264.0 281.0,258.0 265.0,265.0 328.0,266.0 382.0,283.0" fill="#62504a" opacity="0.95" />
<polygon points="333.0,0.0 340.0,66.0 329.0,75.0 298.0,76.0 298.0,105.0 315.0,105.0 308.0,87.0 325.0,83.0 329.0,105.0 343.0,112.0 342.0,0.0" fill="#e26541" opacity="0.95" />
<polygon points="164.0,68.0 159.0,81.0 167.0,88.0 148.0,103.0 152.0,110.0 155.0,106.0 158.0,109.0 157.0,118.0 161.0,120.0 169.0,116.0 166.0,105.0 172.0,83.0" fill="#85643a" />
<polygon points="116.0,216.0 120.0,250.0 133.0,251.0 162.0,244.0 122.0,215.0" fill="#e1d6d0" opacity="0.95" />
<polygon points="184.0,29.0 185.0,83.0 198.0,108.0 210.0,100.0 200.0,95.0" fill="#e9ad90" opacity="0.95" />
<polygon points="370.0,254.0 358.0,250.0 306.0,252.0 331.0,256.0" fill="#ce8c69" />
<polygon points="76.0,166.0 0.0,168.0 0.0,170.0" fill="#efc9b5" />
<polygon points="318.0,234.0 285.0,234.0 247.0,240.0 241.0,245.0 261.0,241.0 282.0,248.0 301.0,245.0" fill="#efc9b5" opacity="0.95" />
<polygon points="308.0,87.0 308.0,89.0 315.0,93.0 316.0,101.0 320.0,105.0 325.0,106.0 328.0,102.0 329.0,88.0" fill="#ae462a" />
<polygon points="160.0,0.0 155.0,8.0 160.0,15.0 165.0,14.0 168.0,17.0 167.0,20.0 170.0,23.0 171.0,0.0" fill="#e9ad90" />
<polygon points="265.0,212.0 259.0,208.0 196.0,221.0 190.0,227.0 262.0,216.0" fill="#044d6a" opacity="0.95" />
<polygon points="141.0,48.0 141.0,56.0 150.0,63.0 147.0,73.0 157.0,81.0 151.0,92.0 153.0,99.0 165.0,88.0 159.0,82.0 162.0,66.0 155.0,54.0" fill="#ce8c69" opacity="0.95" />
<polygon points="185.0,37.0 182.0,39.0 185.0,83.0 198.0,107.0 207.0,100.0 200.0,95.0 200.0,86.0 193.0,76.0" fill="#e9ad90" opacity="0.95" />
<polygon points="324.0,114.0 326.0,117.0 383.0,121.0 383.0,116.0" fill="#b3e7fe" opacity="0.95" />
<polygon points="362.0,193.0 332.0,198.0 328.0,202.0 358.0,197.0" fill="#044d6a" />
<polygon points="125.0,48.0 121.0,54.0 122.0,65.0 131.0,67.0 132.0,66.0 131.0,57.0" fill="#e9ad90" />
<polygon points="314.0,235.0 285.0,234.0 269.0,238.0 266.0,242.0 279.0,248.0 306.0,243.0" fill="#efc9b5" opacity="0.95" />
<polygon points="186.0,92.0 189.0,110.0 195.0,119.0 195.0,123.0 198.0,117.0 196.0,108.0" fill="#ce8c69" />
<polygon points="320.0,40.0 315.0,41.0 311.0,46.0 311.0,51.0 310.0,52.0 310.0,57.0 311.0,58.0 320.0,58.0 321.0,57.0 321.0,41.0" fill="#c0a496" />
<polygon points="298.0,28.0 296.0,35.0 296.0,65.0 298.0,72.0 300.0,70.0 300.0,36.0" fill="#e26541" />
<polygon points="327.0,200.0 325.0,199.0 305.0,203.0 298.0,206.0 303.0,208.0 326.0,203.0" fill="#0785b2" />
<polygon points="383.0,156.0 374.0,175.0 374.0,180.0 377.0,179.0 383.0,169.0" fill="#044d6a" />
<polygon points="328.0,119.0 330.0,122.0 348.0,122.0 355.0,126.0 383.0,129.0 383.0,122.0" fill="#0785b2" opacity="0.95" />
<polygon points="265.0,0.0 263.0,0.0 264.0,36.0 266.0,21.0" fill="#e9ad90" />
<polygon points="109.0,110.0 108.0,109.0 97.0,109.0 94.0,111.0 85.0,111.0 84.0,114.0 85.0,115.0 108.0,114.0" fill="#c0a496" />
<polygon points="159.0,0.0 158.0,5.0 155.0,7.0 155.0,9.0 161.0,15.0 171.0,15.0 171.0,0.0" fill="#e9ad90" opacity="0.95" />
<polygon points="144.0,52.0 141.0,56.0 150.0,63.0 149.0,73.0 158.0,81.0 152.0,90.0 155.0,94.0 163.0,87.0 159.0,82.0 162.0,66.0 155.0,55.0" fill="#ce8c69" opacity="0.95" />
<polygon points="311.0,88.0 311.0,90.0 315.0,93.0 316.0,101.0 323.0,106.0 327.0,105.0 329.0,88.0" fill="#ae462a" opacity="0.95" />
<polygon points="369.0,255.0 358.0,250.0 323.0,252.0 331.0,256.0" fill="#ce8c69" opacity="0.95" />
<polygon points="319.0,40.0 314.0,42.0 311.0,45.0 310.0,57.0 312.0,58.0 321.0,57.0 321.0,41.0" fill="#c0a496" opacity="0.95" />
<polygon points="276.0,234.0 270.0,233.0 259.0,236.0 249.0,235.0 240.0,237.0 248.0,239.0 255.0,236.0 271.0,237.0" fill="#c0a496" />
<polygon points="279.0,11.0 278.0,22.0 281.0,39.0 283.0,37.0 283.0,24.0 281.0,17.0 282.0,14.0" fill="#e9ad90" />
<polygon points="159.0,0.0 156.0,9.0 162.0,15.0 164.0,14.0 168.0,16.0 170.0,15.0 171.0,0.0" fill="#e9ad90" opacity="0.95" />
<polygon points="333.0,54.0 332.0,55.0 332.0,66.0 333.0,67.0 337.0,67.0 338.0,66.0 338.0,55.0 337.0,54.0" fill="#e1d6d0" />
<polygon points="316.0,87.0 313.0,89.0 316.0,101.0 324.0,106.0 328.0,102.0 328.0,89.0 325.0,87.0" fill="#ae462a" opacity="0.95" />
<polygon points="18.0,74.0 19.0,77.0 18.0,78.0 18.0,82.0 19.0,83.0 21.0,82.0 28.0,82.0 29.0,81.0 29.0,77.0 28.0,76.0 19.0,73.0" fill="#62504a" />
<polygon points="362.0,193.0 332.0,198.0 330.0,201.0 334.0,202.0 362.0,195.0" fill="#044d6a" opacity="0.95" />
<polygon points="352.0,122.0 352.0,124.0 355.0,126.0 383.0,129.0 383.0,122.0 359.0,120.0" fill="#0785b2" opacity="0.95" />
<polygon points="159.0,38.0 158.0,45.0 162.0,50.0 165.0,51.0 171.0,48.0 171.0,45.0 168.0,43.0 167.0,39.0 161.0,37.0" fill="#ce8c69" opacity="0.95" />
<polygon points="327.0,200.0 305.0,203.0 299.0,205.0 299.0,207.0 303.0,208.0 323.0,204.0 327.0,202.0" fill="#0785b2" opacity="0.95" />
<polygon points="383.0,158.0 381.0,159.0 374.0,177.0 376.0,178.0 383.0,170.0" fill="#044d6a" opacity="0.95" />
<polygon points="113.0,48.0 115.0,52.0 118.0,50.0 122.0,52.0 122.0,65.0 132.0,65.0 131.0,57.0 126.0,50.0 120.0,51.0 115.0,47.0" fill="#e9ad90" opacity="0.95" />
<polygon points="199.0,147.0 198.0,148.0 198.0,156.0 199.0,157.0 201.0,157.0 204.0,155.0 203.0,154.0 203.0,150.0 201.0,147.0" fill="#e26541" />
<polygon points="112.0,34.0 110.0,36.0 111.0,39.0 107.0,41.0 108.0,43.0 105.0,50.0 107.0,54.0 110.0,50.0 108.0,42.0 111.0,40.0 115.0,44.0 117.0,43.0" fill="#ce8c69" />
<polygon points="92.0,189.0 87.0,185.0 84.0,187.0 84.0,191.0 82.0,193.0 83.0,194.0 85.0,192.0 89.0,192.0 91.0,194.0 92.0,193.0 91.0,192.0" fill="#ce8c69" />
<polygon points="188.0,96.0 186.0,97.0 186.0,99.0 188.0,100.0 189.0,110.0 191.0,115.0 195.0,118.0 197.0,117.0 196.0,108.0 192.0,104.0 192.0,100.0" fill="#ce8c69" opacity="0.95" />
<polygon points="200.0,147.0 198.0,148.0 198.0,156.0 201.0,157.0 203.0,156.0 203.0,150.0 202.0,148.0" fill="#e26541" opacity="0.95" />
<polygon points="343.0,0.0 343.0,5.0 344.0,6.0 344.0,11.0 345.0,12.0 346.0,11.0 346.0,0.0" fill="#ae462a" />
<polygon points="360.0,116.0 363.0,120.0 370.0,117.0 376.0,121.0 383.0,119.0 380.0,115.0 371.0,118.0 365.0,114.0" fill="#b3e7fe" opacity="0.95" />
<polygon points="248.0,108.0 248.0,110.0 250.0,111.0 255.0,111.0 257.0,110.0 257.0,108.0 255.0,107.0 250.0,107.0" fill="#b3e7fe" opacity="0.95" />
<polygon points="383.0,159.0 381.0,160.0 379.0,163.0 379.0,167.0 382.0,169.0 383.0,168.0" fill="#044d6a" opacity="0.95" />
<polygon points="263.0,109.0 263.0,111.0 265.0,112.0 271.0,110.0 277.0,113.0 279.0,112.0 279.0,110.0 277.0,109.0 274.0,111.0 268.0,108.0" fill="#b3e7fe" opacity="0.95" />
<polygon points="288.0,111.0 288.0,113.0 289.0,113.0 290.0,114.0 292.0,114.0 293.0,113.0 294.0,113.0 294.0,111.0 293.0,111.0 292.0,110.0 290.0,110.0 289.0,111.0" fill="#b3e7fe" opacity="0.95" />
</svg>