<svg xmlns="http://www.w3.org/2000/svg" width="768" height="768" viewBox="0 0 384 384">
<rect width="384" height="384" fill="#9a695a"/>
<polygon points="145.0,100.0 103.0,117.0 142.0,229.0 186.0,250.0 170.0,381.0 211.0,383.0 197.0,249.0 240.0,231.0 275.0,116.0" fill="#03051e" />
<polygon points="258.0,0.0 334.0,84.0 319.0,94.0 357.0,115.0 336.0,134.0 383.0,218.0 383.0,12.0" fill="#562e2d" />
<polygon points="142.0,77.0 72.0,115.0 96.0,123.0 33.0,223.0 44.0,288.0 94.0,294.0 54.0,300.0 103.0,345.0 185.0,330.0 183.0,281.0 88.0,246.0 111.0,240.0 86.0,220.0 118.0,171.0 102.0,115.0" fill="#c88971" />
<polygon points="163.0,122.0 221.0,125.0 213.0,220.0 169.0,218.0" fill="#03051e" />
<polygon points="297.0,32.0 297.0,136.0 352.0,220.0 305.0,347.0 252.0,383.0 314.0,383.0 356.0,342.0 383.0,239.0 335.0,134.0 356.0,115.0" fill="#8c5244" />
<polygon points="270.0,136.0 250.0,244.0 199.0,275.0 221.0,361.0 263.0,338.0 245.0,321.0 273.0,315.0 256.0,296.0 282.0,290.0 312.0,222.0" fill="#c88971" />
<polygon points="164.0,123.0 170.0,217.0 213.0,218.0 219.0,125.0" fill="#bbf6f7" />
<polygon points="0.0,109.0 43.0,95.0 26.0,88.0 75.0,32.0 119.0,0.0 0.0,0.0" fill="#562e2d" />
<polygon points="140.0,77.0 80.0,114.0 34.0,222.0 44.0,288.0 105.0,345.0 185.0,330.0 185.0,283.0 87.0,222.0 119.0,163.0 102.0,115.0" fill="#c88971" opacity="0.95" />
<polygon points="273.0,69.0 271.0,135.0 316.0,220.0 247.0,343.0 300.0,345.0 322.0,300.0 297.0,296.0 327.0,290.0 344.0,220.0 296.0,136.0 314.0,115.0" fill="#a76855" />
<polygon points="271.0,137.0 250.0,244.0 199.0,275.0 199.0,330.0 221.0,360.0 264.0,336.0 309.0,235.0" fill="#c88971" opacity="0.95" />
<polygon points="300.0,39.0 298.0,137.0 343.0,248.0 305.0,347.0 252.0,383.0 314.0,383.0 356.0,342.0 383.0,239.0" fill="#8c5244" opacity="0.95" />
<polygon points="259.0,0.0 334.0,88.0 320.0,95.0 354.0,113.0 337.0,136.0 383.0,231.0 383.0,11.0" fill="#562e2d" opacity="0.95" />
<polygon points="149.0,124.0 163.0,214.0 149.0,224.0 113.0,134.0" fill="#03051e" />
<polygon points="274.0,71.0 314.0,222.0 266.0,347.0 214.0,383.0 306.0,341.0 343.0,237.0" fill="#a76855" opacity="0.95" />
<polygon points="90.0,64.0 0.0,266.0 46.0,344.0 168.0,383.0 169.0,350.0 95.0,348.0 31.0,270.0 37.0,193.0 113.0,94.0" fill="#a76855" opacity="0.95" />
<polygon points="140.0,77.0 82.0,113.0 34.0,222.0 44.0,288.0 106.0,345.0 185.0,329.0 185.0,285.0 126.0,271.0 87.0,221.0 119.0,163.0 102.0,115.0" fill="#c88971" opacity="0.95" />
<polygon points="62.0,350.0 110.0,383.0 168.0,383.0 168.0,349.0" fill="#a76855" />
<polygon points="114.0,133.0 146.0,223.0 162.0,217.0 148.0,125.0" fill="#bbf6f7" />
<polygon points="99.0,15.0 32.0,84.0 47.0,93.0 0.0,114.0 21.0,122.0 0.0,143.0 4.0,211.0 19.0,167.0 59.0,133.0 42.0,115.0 85.0,94.0" fill="#8c5244" />
<polygon points="150.0,21.0 159.0,58.0 139.0,65.0 148.0,87.0 185.0,61.0 192.0,31.0 198.0,61.0 219.0,62.0 204.0,67.0 243.0,97.0 238.0,17.0 192.0,6.0" fill="#faad75" />
<polygon points="243.0,123.0 266.0,134.0 237.0,225.0 221.0,218.0 234.0,125.0" fill="#03051e" />
<polygon points="0.0,108.0 44.0,94.0 29.0,86.0 75.0,32.0 119.0,0.0 0.0,0.0" fill="#562e2d" opacity="0.95" />
<polygon points="271.0,138.0 250.0,243.0 199.0,276.0 199.0,329.0 220.0,359.0 264.0,335.0 309.0,235.0 306.0,194.0" fill="#c88971" opacity="0.95" />
<polygon points="163.0,124.0 170.0,217.0 214.0,217.0 219.0,124.0" fill="#bbf6f7" opacity="0.95" />
<polygon points="305.0,46.0 298.0,136.0 344.0,247.0 305.0,346.0 252.0,383.0 314.0,383.0 356.0,342.0 383.0,238.0" fill="#8c5244" opacity="0.95" />
<polygon points="103.0,60.0 43.0,115.0 60.0,133.0 0.0,213.0 0.0,240.0 28.0,244.0 2.0,246.0 2.0,268.0 34.0,266.0 35.0,193.0 91.0,134.0 71.0,115.0 114.0,92.0 95.0,89.0" fill="#a76855" />
<polygon points="148.0,98.0 236.0,99.0 200.0,64.0 182.0,64.0" fill="#f90201" />
<polygon points="242.0,124.0 235.0,129.0 223.0,214.0 235.0,223.0 264.0,136.0" fill="#bbf6f7" />
<polygon points="275.0,72.0 309.0,246.0 265.0,346.0 215.0,360.0 214.0,383.0 306.0,341.0 343.0,237.0" fill="#a76855" opacity="0.95" />
<polygon points="91.0,64.0 0.0,214.0 0.0,266.0 47.0,344.0 168.0,383.0 168.0,350.0 97.0,348.0 33.0,270.0 38.0,194.0 111.0,95.0" fill="#a76855" opacity="0.95" />
<polygon points="259.0,0.0 335.0,85.0 321.0,95.0 350.0,113.0 337.0,136.0 376.0,192.0 383.0,231.0 383.0,11.0" fill="#562e2d" opacity="0.95" />
<polygon points="2.0,272.0 0.0,346.0 8.0,347.0 0.0,353.0 42.0,383.0 109.0,383.0 62.0,351.0 37.0,347.0 42.0,336.0" fill="#8c5244" />
<polygon points="0.0,108.0 38.0,96.0 30.0,85.0 119.0,0.0 0.0,0.0" fill="#562e2d" opacity="0.95" />
<polygon points="113.0,24.0 118.0,84.0 143.0,70.0 117.0,62.0 158.0,58.0 149.0,21.0 192.0,5.0 242.0,20.0 243.0,58.0 260.0,64.0 247.0,84.0 269.0,84.0 274.0,40.0 243.0,5.0 149.0,0.0" fill="#e4824a" />
<polygon points="112.0,166.0 114.0,190.0 89.0,193.0 112.0,217.0 89.0,219.0 93.0,233.0 117.0,243.0 109.0,247.0 124.0,265.0 163.0,268.0 179.0,284.0 180.0,241.0 142.0,233.0" fill="#e1ae99" />
<polygon points="145.0,100.0 103.0,117.0 149.0,124.0 142.0,229.0 186.0,250.0 170.0,381.0 212.0,383.0 197.0,248.0 241.0,225.0 218.0,192.0 214.0,219.0 169.0,218.0 161.0,124.0 220.0,124.0 219.0,188.0 234.0,125.0 275.0,115.0" fill="#03051e" opacity="0.95" />
<polygon points="166.0,123.0 170.0,216.0 211.0,218.0 219.0,125.0" fill="#bbf6f7" opacity="0.95" />
<polygon points="150.0,21.0 158.0,62.0 140.0,65.0 147.0,86.0 185.0,61.0 191.0,31.0 198.0,61.0 242.0,98.0 238.0,17.0 192.0,6.0" fill="#faad75" opacity="0.95" />
<polygon points="18.0,300.0 46.0,345.0 100.0,343.0 86.0,336.0 78.0,320.0 65.0,315.0 52.0,298.0" fill="#a76855" />
<polygon points="87.0,25.0 33.0,83.0 47.0,93.0 0.0,113.0 20.0,121.0 0.0,143.0 3.0,210.0 58.0,135.0 46.0,113.0 85.0,94.0" fill="#8c5244" opacity="0.95" />
<polygon points="383.0,273.0 374.0,276.0 367.0,309.0 372.0,323.0 359.0,328.0 354.0,347.0 344.0,349.0 331.0,372.0 315.0,383.0 383.0,383.0" fill="#562e2d" />
<polygon points="1.0,273.0 0.0,346.0 42.0,383.0 109.0,383.0 41.0,347.0" fill="#8c5244" opacity="0.95" />
<polygon points="111.0,30.0 106.0,61.0 128.0,83.0 157.0,59.0 151.0,19.0 215.0,7.0 245.0,26.0 247.0,85.0 271.0,76.0 266.0,24.0 232.0,0.0 148.0,0.0" fill="#e4824a" opacity="0.95" />
<polygon points="116.0,130.0 144.0,220.0 162.0,219.0 148.0,125.0" fill="#bbf6f7" opacity="0.95" />
<polygon points="150.0,21.0 159.0,61.0 143.0,66.0 147.0,86.0 185.0,60.0 191.0,33.0 198.0,60.0 242.0,97.0 238.0,17.0" fill="#faad75" opacity="0.95" />
<polygon points="83.0,29.0 35.0,81.0 47.0,93.0 0.0,113.0 15.0,121.0 0.0,143.0 4.0,206.0 56.0,135.0 54.0,113.0 84.0,95.0" fill="#8c5244" opacity="0.95" />
<polygon points="115.0,166.0 114.0,190.0 90.0,193.0 108.0,215.0 88.0,220.0 93.0,232.0 116.0,242.0 124.0,264.0 162.0,268.0 179.0,284.0 180.0,241.0 142.0,233.0" fill="#e1ae99" opacity="0.95" />
<polygon points="231.0,0.0 264.0,18.0 275.0,40.0 273.0,68.0 295.0,87.0 302.0,75.0 295.0,64.0 303.0,58.0 294.0,30.0 257.0,0.0" fill="#a85034" />
<polygon points="242.0,124.0 235.0,129.0 223.0,214.0 235.0,223.0 264.0,136.0" fill="#bbf6f7" opacity="0.95" />
<polygon points="148.0,0.0 122.0,0.0 98.0,18.0 87.0,32.0 83.0,60.0 103.0,59.0 112.0,24.0" fill="#a85034" />
<polygon points="113.0,24.0 118.0,84.0 157.0,59.0 149.0,21.0 192.0,5.0 242.0,20.0 248.0,85.0 271.0,73.0 267.0,26.0 234.0,0.0 145.0,0.0" fill="#e4824a" opacity="0.95" />
<polygon points="118.0,173.0 99.0,194.0 93.0,231.0 117.0,243.0 126.0,265.0 169.0,268.0 179.0,284.0 180.0,242.0 142.0,232.0" fill="#e1ae99" opacity="0.95" />
<polygon points="383.0,248.0 367.0,309.0 372.0,324.0 360.0,326.0 354.0,347.0 315.0,383.0 383.0,383.0" fill="#562e2d" opacity="0.95" />
<polygon points="383.0,248.0 356.0,346.0 315.0,383.0 383.0,383.0" fill="#562e2d" opacity="0.95" />
<polygon points="150.0,96.0 152.0,99.0 234.0,99.0 199.0,64.0 181.0,65.0" fill="#f90201" opacity="0.95" />
<polygon points="0.0,274.0 0.0,346.0 42.0,383.0 109.0,383.0 43.0,348.0 12.0,297.0 9.0,274.0" fill="#8c5244" opacity="0.95" />
<polygon points="213.0,383.0 251.0,383.0 261.0,375.0 252.0,370.0 273.0,370.0 291.0,350.0 229.0,351.0 222.0,362.0 214.0,360.0 214.0,367.0 224.0,372.0 215.0,374.0" fill="#a76855" />
<polygon points="105.0,114.0 113.0,130.0 216.0,122.0 223.0,135.0 236.0,123.0 265.0,132.0 274.0,118.0 245.0,101.0 145.0,100.0" fill="#03051e" opacity="0.95" />
<polygon points="140.0,124.0 115.0,136.0 144.0,220.0 152.0,222.0 161.0,210.0 148.0,126.0" fill="#bbf6f7" opacity="0.95" />
<polygon points="249.0,236.0 203.0,240.0 199.0,264.0 213.0,269.0 204.0,273.0 218.0,274.0 213.0,269.0 228.0,265.0 235.0,244.0" fill="#e1ae99" />
<polygon points="242.0,124.0 235.0,129.0 223.0,214.0 235.0,223.0 264.0,136.0" fill="#bbf6f7" opacity="0.95" />
<polygon points="164.0,188.0 163.0,218.0 142.0,229.0 186.0,250.0 186.0,330.0 167.0,336.0 170.0,381.0 212.0,383.0 217.0,337.0 198.0,330.0 197.0,249.0 240.0,227.0 222.0,219.0 220.0,196.0 211.0,220.0 171.0,219.0" fill="#03051e" opacity="0.95" />
<polygon points="233.0,0.0 264.0,19.0 275.0,40.0 274.0,69.0 297.0,85.0 302.0,55.0 291.0,26.0 258.0,0.0" fill="#a85034" opacity="0.95" />
<polygon points="151.0,95.0 154.0,99.0 233.0,98.0 199.0,64.0 181.0,65.0" fill="#f90201" opacity="0.95" />
<polygon points="9.0,273.0 13.0,290.0 20.0,294.0 50.0,293.0 43.0,288.0 41.0,275.0 37.0,272.0" fill="#a76855" />
<polygon points="147.0,0.0 122.0,0.0 98.0,18.0 87.0,32.0 83.0,60.0 104.0,58.0 112.0,24.0" fill="#a85034" opacity="0.95" />
<polygon points="243.0,94.0 246.0,101.0 278.0,117.0 287.0,115.0 279.0,110.0 268.0,90.0 246.0,91.0" fill="#c88971" />
<polygon points="235.0,0.0 264.0,19.0 275.0,40.0 274.0,69.0 297.0,85.0 302.0,55.0 294.0,30.0 258.0,0.0" fill="#a85034" opacity="0.95" />
<polygon points="0.0,357.0 0.0,370.0 3.0,373.0 0.0,375.0 0.0,383.0 41.0,383.0 38.0,378.0 24.0,373.0 27.0,370.0 6.0,352.0" fill="#562e2d" />
<polygon points="241.0,236.0 202.0,241.0 198.0,249.0 199.0,264.0 213.0,268.0 229.0,264.0 229.0,257.0 234.0,253.0 236.0,243.0 242.0,240.0" fill="#e1ae99" opacity="0.95" />
<polygon points="144.0,0.0 122.0,0.0 98.0,18.0 87.0,32.0 83.0,59.0 104.0,58.0 112.0,24.0" fill="#a85034" opacity="0.95" />
<polygon points="244.0,92.0 244.0,100.0 279.0,117.0 284.0,116.0 270.0,92.0" fill="#c88971" opacity="0.95" />
<polygon points="241.0,237.0 229.0,236.0 222.0,244.0 214.0,239.0 203.0,241.0 198.0,250.0 199.0,264.0 213.0,268.0 228.0,264.0" fill="#e1ae99" opacity="0.95" />
<polygon points="259.0,173.0 244.0,225.0 254.0,220.0 250.0,217.0 257.0,212.0 256.0,197.0 265.0,193.0 256.0,190.0 260.0,186.0" fill="#e1ae99" />
<polygon points="42.0,270.0 44.0,268.0 83.0,268.0 85.0,270.0 83.0,272.0 44.0,272.0" fill="#c88971" />
<polygon points="244.0,93.0 246.0,101.0 279.0,117.0 283.0,115.0 270.0,92.0 253.0,90.0" fill="#c88971" opacity="0.95" />
<polygon points="185.0,48.0 184.0,52.0 187.0,56.0 186.0,62.0 196.0,63.0 197.0,62.0 196.0,55.0 198.0,53.0 198.0,49.0" fill="#03051e" />
<polygon points="368.0,0.0 371.0,5.0 380.0,7.0 383.0,9.0 383.0,0.0" fill="#03051e" />
<polygon points="154.0,91.0 153.0,90.0 148.0,90.0 138.0,100.0 139.0,101.0 146.0,99.0" fill="#e1ae99" />
<polygon points="257.0,192.0 252.0,193.0 247.0,210.0 248.0,218.0 244.0,220.0 246.0,224.0 253.0,222.0 250.0,216.0 257.0,213.0 257.0,196.0 259.0,195.0" fill="#e1ae99" opacity="0.95" />
<polygon points="190.0,33.0 188.0,38.0 189.0,39.0 188.0,42.0 185.0,46.0 186.0,47.0 187.0,46.0 197.0,47.0 198.0,46.0 194.0,42.0 194.0,35.0 192.0,33.0" fill="#f90201" />
<polygon points="184.0,49.0 184.0,52.0 187.0,56.0 187.0,62.0 189.0,63.0 196.0,62.0 196.0,55.0 198.0,53.0 198.0,49.0 196.0,48.0" fill="#03051e" opacity="0.95" />
<polygon points="254.0,197.0 250.0,200.0 247.0,210.0 247.0,214.0 250.0,216.0 257.0,212.0 257.0,199.0" fill="#e1ae99" opacity="0.95" />
<polygon points="138.0,39.0 140.0,37.0 144.0,37.0 146.0,39.0 144.0,41.0 140.0,41.0" fill="#e4824a" />
<polygon points="191.0,33.0 189.0,34.0 189.0,39.0 187.0,43.0 187.0,45.0 189.0,46.0 195.0,45.0 194.0,35.0" fill="#f90201" opacity="0.95" />
<polygon points="191.0,38.0 188.0,40.0 188.0,44.0 191.0,46.0 194.0,44.0 194.0,40.0" fill="#f90201" opacity="0.95" />
</svg>