<svg xmlns="http://www.w3.org/2000/svg" width="768" height="768" viewBox="0 0 384 384">
<rect width="384" height="384" fill="#8e6f6b"/>
<polygon points="0.0,160.0 0.0,280.0 51.0,321.0 187.0,321.0 196.0,264.0 194.0,321.0 313.0,321.0 372.0,246.0 363.0,173.0 328.0,128.0 36.0,128.0" fill="#8e7d78" />
<polygon points="12.0,146.0 0.0,276.0 52.0,323.0 22.0,326.0 10.0,383.0 172.0,383.0 163.0,342.0 190.0,332.0 207.0,383.0 362.0,383.0 353.0,329.0 312.0,323.0 374.0,230.0 333.0,130.0" fill="#8e7d78" opacity="0.95" />
<polygon points="13.0,15.0 71.0,125.0 171.0,126.0 173.0,53.0 212.0,62.0 211.0,125.0 282.0,125.0 286.0,53.0 348.0,62.0 357.0,0.0 317.0,0.0 314.0,41.0 312.0,0.0" fill="#8a5c58" />
<polygon points="12.0,146.0 0.0,276.0 51.0,322.0 20.0,329.0 10.0,383.0 172.0,383.0 163.0,342.0 190.0,332.0 207.0,383.0 362.0,383.0 351.0,327.0 313.0,322.0 374.0,230.0 333.0,130.0" fill="#8e7d78" opacity="0.95" />
<polygon points="14.0,12.0 75.0,125.0 169.0,124.0 173.0,53.0 212.0,62.0 212.0,124.0 280.0,125.0 289.0,49.0 349.0,60.0 357.0,0.0" fill="#8a5c58" opacity="0.95" />
<polygon points="192.0,326.0 215.0,346.0 207.0,383.0 364.0,377.0 348.0,325.0" fill="#8e7d78" />
<polygon points="10.0,383.0 173.0,383.0 162.0,345.0 171.0,334.0 186.0,336.0 188.0,326.0 23.0,325.0 9.0,352.0" fill="#8e7d78" />
<polygon points="14.0,12.0 76.0,125.0 167.0,124.0 173.0,53.0 212.0,62.0 213.0,124.0 279.0,125.0 286.0,53.0 348.0,58.0 357.0,0.0" fill="#8a5c58" opacity="0.95" />
<polygon points="2.0,0.0 0.0,123.0 70.0,123.0 69.0,100.0 35.0,78.0 15.0,34.0 18.0,0.0" fill="#613e3e" />
<polygon points="383.0,128.0 335.0,132.0 364.0,173.0 375.0,230.0 358.0,279.0 319.0,320.0 383.0,320.0" fill="#706160" />
<polygon points="383.0,0.0 358.0,0.0 361.0,36.0 348.0,63.0 340.0,54.0 344.0,75.0 327.0,108.0 303.0,108.0 294.0,95.0 270.0,104.0 286.0,125.0 383.0,125.0" fill="#613e3e" />
<polygon points="383.0,0.0 358.0,0.0 364.0,24.0 329.0,106.0 274.0,101.0 283.0,123.0 383.0,125.0" fill="#613e3e" opacity="0.95" />
<polygon points="163.0,61.0 162.0,82.0 168.0,94.0 209.0,96.0 214.0,69.0 205.0,56.0 185.0,59.0 170.0,55.0" fill="#d3050d" />
<polygon points="0.0,0.0 0.0,123.0 72.0,122.0 69.0,100.0 35.0,78.0 16.0,36.0 18.0,0.0" fill="#613e3e" opacity="0.95" />
<polygon points="169.0,336.0 163.0,346.0 163.0,358.0 175.0,382.0 205.0,383.0 214.0,362.0 211.0,340.0 206.0,335.0" fill="#1c141c" />
<polygon points="383.0,128.0 336.0,131.0 364.0,173.0 375.0,230.0 354.0,285.0 316.0,316.0 356.0,322.0 363.0,383.0 383.0,383.0" fill="#706160" opacity="0.95" />
<polygon points="383.0,0.0 358.0,0.0 364.0,24.0 329.0,106.0 277.0,100.0 285.0,124.0 383.0,125.0" fill="#613e3e" opacity="0.95" />
<polygon points="0.0,0.0 0.0,123.0 70.0,122.0 69.0,100.0 35.0,78.0 16.0,36.0 18.0,0.0" fill="#613e3e" opacity="0.95" />
<polygon points="352.0,325.0 365.0,359.0 363.0,383.0 383.0,383.0 383.0,325.0" fill="#706160" />
<polygon points="383.0,128.0 337.0,131.0 364.0,173.0 375.0,230.0 354.0,285.0 317.0,316.0 356.0,323.0 363.0,383.0 383.0,383.0" fill="#706160" opacity="0.95" />
<polygon points="289.0,54.0 289.0,71.0 298.0,80.0 332.0,84.0 341.0,78.0 342.0,62.0 329.0,63.0 333.0,49.0 314.0,52.0 297.0,47.0" fill="#d3050d" />
<polygon points="4.0,280.0 0.0,287.0 2.0,321.0 47.0,317.0 26.0,306.0" fill="#706160" />
<polygon points="168.0,337.0 163.0,358.0 175.0,383.0 206.0,383.0 214.0,362.0 209.0,337.0" fill="#1c141c" opacity="0.95" />
<polygon points="163.0,61.0 161.0,75.0 167.0,93.0 209.0,96.0 214.0,69.0 200.0,67.0 205.0,56.0 170.0,55.0" fill="#d3050d" opacity="0.95" />
<polygon points="5.0,281.0 0.0,383.0 9.0,383.0 16.0,322.0 45.0,318.0" fill="#706160" opacity="0.95" />
<polygon points="20.0,325.0 0.0,327.0 2.0,383.0 9.0,383.0 8.0,352.0" fill="#706160" />
<polygon points="210.0,105.0 206.0,101.0 199.0,111.0 177.0,110.0 171.0,102.0 166.0,109.0 169.0,121.0 175.0,125.0 208.0,125.0 212.0,115.0" fill="#613e3e" />
<polygon points="286.0,56.0 285.0,74.0 293.0,93.0 307.0,97.0 334.0,94.0 340.0,80.0 332.0,85.0 298.0,81.0 288.0,71.0" fill="#85040c" />
<polygon points="168.0,337.0 163.0,358.0 175.0,383.0 206.0,383.0 214.0,349.0 204.0,353.0 199.0,346.0 208.0,337.0" fill="#1c141c" opacity="0.95" />
<polygon points="165.0,59.0 161.0,75.0 168.0,93.0 188.0,98.0 209.0,96.0 214.0,69.0 200.0,66.0 204.0,56.0 185.0,59.0 170.0,55.0" fill="#d3050d" opacity="0.95" />
<polygon points="290.0,52.0 301.0,58.0 297.0,65.0 288.0,63.0 294.0,78.0 326.0,84.0 341.0,78.0 342.0,64.0 329.0,63.0 335.0,50.0 297.0,47.0" fill="#d3050d" opacity="0.95" />
<polygon points="213.0,211.0 222.0,211.0 229.0,219.0 227.0,227.0 218.0,234.0 213.0,234.0 208.0,230.0 205.0,233.0 203.0,231.0 207.0,226.0 206.0,217.0" fill="#8e7d78" />
<polygon points="6.0,282.0 0.0,285.0 0.0,319.0 5.0,322.0 0.0,327.0 0.0,366.0 5.0,369.0 17.0,323.0 41.0,318.0" fill="#706160" opacity="0.95" />
<polygon points="21.0,129.0 2.0,129.0 0.0,131.0 0.0,142.0 5.0,162.0 11.0,146.0 25.0,133.0" fill="#706160" />
<polygon points="292.0,50.0 301.0,58.0 297.0,65.0 288.0,64.0 294.0,78.0 326.0,84.0 341.0,78.0 342.0,66.0 329.0,63.0 332.0,50.0" fill="#d3050d" opacity="0.95" />
<polygon points="168.0,96.0 174.0,103.0 180.0,105.0 197.0,105.0 206.0,100.0" fill="#85040c" />
<polygon points="285.0,72.0 292.0,92.0 307.0,97.0 330.0,97.0 339.0,85.0 337.0,82.0 332.0,85.0 302.0,82.0" fill="#85040c" opacity="0.95" />
<polygon points="213.0,211.0 222.0,211.0 229.0,219.0 227.0,227.0 218.0,234.0 214.0,234.0 206.0,229.0 206.0,217.0" fill="#8e7d78" opacity="0.95" />
<polygon points="210.0,105.0 206.0,102.0 196.0,112.0 180.0,111.0 173.0,103.0 166.0,109.0 169.0,121.0 176.0,125.0 207.0,125.0 211.0,122.0" fill="#613e3e" opacity="0.95" />
<polygon points="296.0,96.0 301.0,101.0 300.0,105.0 303.0,107.0 308.0,105.0 314.0,108.0 325.0,108.0 328.0,106.0 328.0,98.0" fill="#40101b" />
<polygon points="213.0,211.0 222.0,211.0 229.0,219.0 227.0,227.0 218.0,234.0 209.0,233.0 205.0,230.0 206.0,217.0" fill="#8e7d78" opacity="0.95" />
<polygon points="210.0,105.0 206.0,102.0 196.0,112.0 180.0,111.0 172.0,103.0 166.0,109.0 169.0,121.0 176.0,125.0 207.0,125.0 211.0,122.0" fill="#613e3e" opacity="0.95" />
<polygon points="316.0,0.0 313.0,0.0 314.0,40.0 317.0,22.0" fill="#613e3e" />
<polygon points="286.0,77.0 294.0,93.0 307.0,97.0 330.0,97.0 338.0,87.0 335.0,83.0 326.0,85.0 317.0,81.0 298.0,81.0 289.0,75.0" fill="#85040c" opacity="0.95" />
<polygon points="210.0,214.0 207.0,218.0 209.0,225.0 208.0,227.0 215.0,233.0 219.0,229.0 218.0,221.0 214.0,220.0" fill="#40101b" />
<polygon points="24.0,131.0 20.0,129.0 3.0,129.0 0.0,131.0 0.0,148.0 3.0,150.0 3.0,158.0 7.0,158.0 9.0,149.0 24.0,134.0" fill="#706160" opacity="0.95" />
<polygon points="206.0,341.0 209.0,344.0 209.0,348.0 205.0,353.0 203.0,353.0 200.0,350.0 198.0,346.0" fill="#1c141c" />
<polygon points="215.0,212.0 214.0,214.0 218.0,218.0 220.0,224.0 219.0,230.0 221.0,231.0 227.0,224.0 225.0,220.0 227.0,217.0 224.0,213.0" fill="#1c141c" />
<polygon points="176.0,106.0 177.0,109.0 185.0,111.0 196.0,111.0 202.0,107.0 200.0,105.0 197.0,106.0 177.0,105.0" fill="#40101b" />
<polygon points="171.0,61.0 176.0,65.0 176.0,69.0 174.0,71.0 170.0,71.0 166.0,67.0 167.0,64.0" fill="#d3050d" />
<polygon points="294.0,54.0 298.0,55.0 301.0,58.0 301.0,62.0 298.0,65.0 294.0,64.0 291.0,61.0 291.0,58.0" fill="#d3050d" />
<polygon points="299.0,97.0 300.0,105.0 302.0,106.0 307.0,104.0 315.0,108.0 321.0,104.0 328.0,104.0 325.0,98.0" fill="#40101b" opacity="0.95" />
<polygon points="204.0,60.0 205.0,60.0 209.0,65.0 209.0,67.0 207.0,69.0 202.0,69.0 200.0,67.0 200.0,64.0" fill="#d3050d" />
<polygon points="170.0,97.0 174.0,103.0 180.0,105.0 197.0,105.0 204.0,102.0 202.0,99.0 188.0,99.0 175.0,96.0" fill="#85040c" opacity="0.95" />
<polygon points="171.0,341.0 175.0,341.0 178.0,344.0 178.0,347.0 176.0,349.0 173.0,349.0 169.0,345.0 169.0,343.0" fill="#1c141c" />
<polygon points="206.0,341.0 209.0,343.0 209.0,348.0 208.0,351.0 204.0,353.0 200.0,350.0 199.0,345.0" fill="#1c141c" opacity="0.95" />
<polygon points="209.0,217.0 207.0,218.0 209.0,228.0 211.0,231.0 215.0,233.0 218.0,231.0 218.0,221.0" fill="#40101b" opacity="0.95" />
<polygon points="171.0,61.0 176.0,65.0 176.0,69.0 173.0,71.0 170.0,71.0 167.0,69.0 167.0,64.0" fill="#d3050d" opacity="0.95" />
<polygon points="176.0,106.0 176.0,108.0 185.0,111.0 196.0,111.0 201.0,109.0 201.0,106.0 199.0,105.0" fill="#40101b" opacity="0.95" />
<polygon points="301.0,99.0 302.0,104.0 308.0,104.0 314.0,108.0 327.0,102.0 324.0,98.0 304.0,97.0" fill="#40101b" opacity="0.95" />
<polygon points="188.0,38.0 190.0,40.0 190.0,45.0 188.0,47.0 186.0,45.0 186.0,40.0" fill="#8a5c58" />
<polygon points="210.0,217.0 207.0,219.0 207.0,222.0 210.0,230.0 215.0,233.0 218.0,231.0 218.0,222.0" fill="#40101b" opacity="0.95" />
<polygon points="169.0,343.0 172.0,341.0 175.0,341.0 178.0,343.0 178.0,347.0 175.0,349.0 173.0,349.0 170.0,347.0" fill="#1c141c" opacity="0.95" />
<polygon points="171.0,98.0 174.0,103.0 180.0,105.0 197.0,105.0 200.0,103.0 200.0,101.0 197.0,99.0 188.0,99.0 175.0,96.0" fill="#85040c" opacity="0.95" />
<polygon points="184.0,322.0 189.0,319.0 192.0,319.0 196.0,322.0 196.0,324.0 191.0,327.0 189.0,327.0 185.0,325.0" fill="#8e7d78" opacity="0.95" />
<polygon points="217.0,212.0 215.0,215.0 219.0,218.0 220.0,229.0 222.0,230.0 226.0,226.0 226.0,221.0 221.0,218.0 223.0,213.0" fill="#1c141c" opacity="0.95" />
<polygon points="191.0,318.0 196.0,322.0 196.0,324.0 190.0,328.0 186.0,326.0 184.0,324.0 184.0,322.0" fill="#8e7d78" opacity="0.95" />
<polygon points="187.0,346.0 189.0,344.0 191.0,344.0 193.0,346.0 191.0,348.0 189.0,348.0" fill="#1c141c" />
<polygon points="335.0,54.0 332.0,58.0 332.0,62.0 333.0,63.0 334.0,63.0 337.0,60.0 337.0,56.0" fill="#f6f4f5" />
<polygon points="190.0,323.0 189.0,324.0 189.0,336.0 190.0,337.0 191.0,336.0 191.0,324.0" fill="#40101b" />
<polygon points="171.0,63.0 168.0,66.0 168.0,67.0 170.0,69.0 173.0,69.0 174.0,68.0 174.0,66.0" fill="#f6f4f5" />
<polygon points="295.0,57.0 293.0,59.0 293.0,60.0 295.0,62.0 298.0,62.0 299.0,61.0 299.0,59.0 297.0,57.0" fill="#f6f4f5" />
<polygon points="315.0,1.0 318.0,3.0 318.0,5.0 315.0,7.0 312.0,5.0 312.0,3.0" fill="#8a5c58" opacity="0.95" />
<polygon points="335.0,55.0 333.0,56.0 332.0,58.0 332.0,62.0 334.0,63.0 336.0,62.0 337.0,60.0 337.0,56.0" fill="#f6f4f5" opacity="0.95" />
<polygon points="171.0,64.0 170.0,65.0 169.0,65.0 169.0,68.0 172.0,69.0 173.0,68.0 174.0,68.0 174.0,65.0" fill="#f6f4f5" opacity="0.95" />
<polygon points="296.0,57.0 293.0,59.0 293.0,61.0 294.0,61.0 295.0,62.0 297.0,62.0 298.0,61.0 299.0,61.0 299.0,59.0" fill="#f6f4f5" opacity="0.95" />
</svg>