<svg xmlns="http://www.w3.org/2000/svg" width="768" height="768" viewBox="0 0 384 384">
<rect width="384" height="384" fill="#8e6a5c"/>
<polygon points="134.0,116.0 132.0,216.0 260.0,214.0 255.0,115.0" fill="#9dd8e8" />
<polygon points="383.0,83.0 316.0,49.0 320.0,37.0 41.0,38.0 0.0,61.0 0.0,75.0 204.0,64.0" fill="#ae7a64" />
<polygon points="127.0,109.0 0.0,110.0 0.0,266.0 166.0,265.0 164.0,254.0 135.0,252.0 138.0,224.0 125.0,221.0" fill="#ae7a64" opacity="0.95" />
<polygon points="134.0,116.0 131.0,215.0 260.0,214.0 256.0,116.0" fill="#9dd8e8" opacity="0.95" />
<polygon points="0.0,129.0 0.0,172.0 132.0,171.0 131.0,129.0" fill="#ae7a64" />
<polygon points="0.0,177.0 0.0,218.0 131.0,217.0 130.0,177.0" fill="#ae7a64" />
<polygon points="126.0,109.0 0.0,110.0 0.0,266.0 166.0,264.0 163.0,254.0 135.0,251.0" fill="#ae7a64" opacity="0.95" />
<polygon points="0.0,291.0 168.0,305.0 170.0,383.0 214.0,383.0 219.0,303.0 383.0,306.0 216.0,292.0 217.0,252.0 264.0,251.0 254.0,217.0 141.0,217.0 136.0,252.0 167.0,255.0 171.0,292.0" fill="#332522" />
<polygon points="0.0,222.0 0.0,266.0 166.0,265.0 165.0,254.0 135.0,252.0 137.0,223.0" fill="#ae7a64" />
<polygon points="0.0,61.0 383.0,83.0 314.0,37.0 121.0,37.0 275.0,16.0 28.0,20.0 16.0,33.0 45.0,37.0" fill="#ae7a64" opacity="0.95" />
<polygon points="383.0,325.0 310.0,326.0 269.0,345.0 240.0,337.0 227.0,358.0 235.0,372.0 215.0,383.0 383.0,383.0" fill="#815749" />
<polygon points="0.0,0.0 0.0,16.0 383.0,15.0 383.0,0.0" fill="#332522" />
<polygon points="0.0,325.0 39.0,336.0 47.0,354.0 78.0,367.0 74.0,376.0 148.0,383.0 168.0,370.0 167.0,326.0" fill="#ae7a64" />
<polygon points="265.0,108.0 265.0,252.0 216.0,265.0 363.0,262.0 383.0,221.0 357.0,220.0 371.0,175.0 341.0,170.0 360.0,164.0 368.0,127.0 346.0,123.0 364.0,112.0" fill="#ae7a64" opacity="0.95" />
<polygon points="141.0,117.0 133.0,131.0 132.0,215.0 260.0,214.0 257.0,127.0 249.0,116.0" fill="#9dd8e8" opacity="0.95" />
<polygon points="265.0,108.0 265.0,251.0 216.0,264.0 363.0,262.0 383.0,227.0 359.0,219.0 369.0,176.0 351.0,169.0 364.0,113.0" fill="#ae7a64" opacity="0.95" />
<polygon points="138.0,127.0 196.0,127.0 198.0,171.0 195.0,174.0 141.0,175.0" fill="#9dd8e8" />
<polygon points="154.0,86.0 0.0,86.0 0.0,108.0 148.0,99.0" fill="#332522" />
<polygon points="0.0,291.0 169.0,306.0 170.0,383.0 214.0,383.0 219.0,303.0 383.0,306.0 215.0,291.0 216.0,253.0 264.0,251.0 254.0,217.0 140.0,218.0 136.0,252.0 167.0,255.0 168.0,292.0" fill="#332522" opacity="0.95" />
<polygon points="383.0,106.0 383.0,84.0 236.0,86.0 241.0,99.0" fill="#332522" />
<polygon points="0.0,17.0 0.0,34.0 44.0,17.0 188.0,15.0 383.0,33.0 383.0,16.0" fill="#815749" />
<polygon points="140.0,130.0 142.0,162.0 196.0,161.0 195.0,129.0" fill="#332522" />
<polygon points="169.0,290.0 162.0,280.0 127.0,280.0 126.0,271.0 0.0,272.0 0.0,289.0" fill="#c4a190" />
<polygon points="383.0,307.0 319.0,305.0 351.0,325.0 310.0,326.0 269.0,345.0 241.0,337.0 228.0,355.0 233.0,372.0 215.0,383.0 383.0,383.0" fill="#815749" opacity="0.95" />
<polygon points="0.0,329.0 0.0,383.0 128.0,383.0 56.0,375.0 76.0,368.0 47.0,355.0 39.0,337.0" fill="#815749" />
<polygon points="0.0,0.0 0.0,16.0 383.0,15.0 383.0,0.0" fill="#332522" opacity="0.95" />
<polygon points="0.0,291.0 168.0,306.0 170.0,383.0 214.0,383.0 219.0,303.0 383.0,306.0 216.0,291.0 217.0,253.0 264.0,250.0 254.0,217.0 141.0,218.0 137.0,251.0 175.0,271.0 164.0,292.0" fill="#332522" opacity="0.95" />
<polygon points="138.0,128.0 197.0,128.0 198.0,171.0 194.0,174.0 140.0,174.0" fill="#9dd8e8" opacity="0.95" />
<polygon points="383.0,307.0 326.0,306.0 347.0,324.0 298.0,329.0 269.0,345.0 242.0,337.0 228.0,356.0 233.0,372.0 215.0,383.0 383.0,383.0" fill="#815749" opacity="0.95" />
<polygon points="152.0,94.0 189.0,99.0 186.0,93.0 191.0,91.0 195.0,99.0 239.0,98.0 226.0,76.0 199.0,66.0 172.0,71.0" fill="#fe4d35" />
<polygon points="0.0,0.0 0.0,16.0 383.0,15.0 383.0,0.0" fill="#332522" opacity="0.95" />
<polygon points="57.0,14.0 303.0,21.0 294.0,33.0 332.0,33.0 315.0,47.0 383.0,71.0 383.0,16.0" fill="#815749" opacity="0.95" />
<polygon points="228.0,77.0 235.0,84.0 353.0,83.0 366.0,77.0" fill="#c4a190" />
<polygon points="383.0,106.0 383.0,84.0 236.0,86.0 242.0,99.0" fill="#332522" opacity="0.95" />
<polygon points="315.0,44.0 316.0,48.0 339.0,54.0 360.0,67.0 383.0,71.0 383.0,37.0 331.0,37.0" fill="#815749" />
<polygon points="167.0,290.0 161.0,280.0 130.0,280.0 124.0,271.0 0.0,272.0 0.0,289.0" fill="#c4a190" opacity="0.95" />
<polygon points="0.0,79.0 0.0,85.0 156.0,84.0 145.0,78.0" fill="#c4a190" />
<polygon points="216.0,289.0 279.0,290.0 293.0,276.0 372.0,272.0 244.0,271.0 268.0,280.0 217.0,280.0" fill="#c4a190" />
<polygon points="139.0,129.0 143.0,126.0 196.0,128.0 198.0,171.0 194.0,174.0 141.0,174.0" fill="#9dd8e8" opacity="0.95" />
<polygon points="0.0,329.0 0.0,383.0 122.0,383.0 68.0,376.0 75.0,366.0 46.0,354.0 40.0,338.0" fill="#815749" opacity="0.95" />
<polygon points="152.0,94.0 154.0,98.0 238.0,98.0 226.0,76.0 199.0,66.0 169.0,73.0" fill="#fe4d35" opacity="0.95" />
<polygon points="303.0,16.0 300.0,31.0 324.0,35.0 317.0,48.0 383.0,71.0 383.0,16.0" fill="#815749" opacity="0.95" />
<polygon points="0.0,329.0 0.0,383.0 109.0,383.0 71.0,376.0 72.0,365.0 48.0,355.0 39.0,338.0" fill="#815749" opacity="0.95" />
<polygon points="139.0,108.0 142.0,114.0 250.0,114.0 252.0,108.0" fill="#07576c" />
<polygon points="140.0,165.0 141.0,173.0 191.0,172.0 185.0,164.0" fill="#067da4" />
<polygon points="216.0,289.0 278.0,290.0 293.0,276.0 371.0,272.0 246.0,271.0 246.0,279.0 218.0,280.0" fill="#c4a190" opacity="0.95" />
<polygon points="229.0,76.0 236.0,84.0 352.0,83.0 365.0,78.0" fill="#c4a190" opacity="0.95" />
<polygon points="152.0,94.0 180.0,98.0 189.0,91.0 197.0,98.0 238.0,97.0 226.0,76.0 199.0,66.0 169.0,73.0" fill="#fe4d35" opacity="0.95" />
<polygon points="0.0,79.0 0.0,85.0 151.0,83.0 144.0,78.0" fill="#c4a190" opacity="0.95" />
<polygon points="166.0,287.0 160.0,280.0 130.0,280.0 123.0,271.0 94.0,271.0 87.0,280.0 0.0,280.0 0.0,289.0" fill="#c4a190" opacity="0.95" />
<polygon points="230.0,77.0 236.0,84.0 360.0,79.0 357.0,75.0" fill="#c4a190" opacity="0.95" />
<polygon points="140.0,165.0 140.0,172.0 142.0,173.0 190.0,172.0 189.0,168.0 184.0,164.0" fill="#067da4" opacity="0.95" />
<polygon points="140.0,166.0 140.0,171.0 143.0,173.0 186.0,173.0 189.0,171.0 189.0,168.0 184.0,164.0 143.0,164.0" fill="#067da4" opacity="0.95" />
<polygon points="0.0,322.0 0.0,324.0 40.0,324.0 41.0,323.0 40.0,322.0" fill="#decbc2" />
<polygon points="225.0,105.0 235.0,107.0 255.0,106.0 260.0,110.0 262.0,110.0 264.0,106.0 263.0,104.0 227.0,103.0" fill="#0a404e" />
<polygon points="84.0,77.0 98.0,79.0 117.0,77.0" fill="#decbc2" />
<polygon points="128.0,108.0 131.0,116.0 135.0,106.0 163.0,105.0 161.0,103.0 137.0,103.0 129.0,106.0" fill="#0a404e" />
<polygon points="173.0,106.0 182.0,107.0 185.0,110.0 197.0,110.0 200.0,107.0 215.0,106.0 199.0,105.0 196.0,102.0 193.0,104.0 185.0,104.0 181.0,102.0 178.0,105.0" fill="#0a404e" />
<polygon points="336.0,269.0 337.0,270.0 375.0,270.0 376.0,269.0 375.0,268.0 337.0,268.0" fill="#f7f4f0" />
<polygon points="196.0,111.0 198.0,114.0 237.0,113.0 235.0,110.0 211.0,110.0 208.0,108.0 201.0,108.0" fill="#07576c" opacity="0.95" />
<polygon points="145.0,77.0 147.0,79.0 152.0,80.0 156.0,83.0 162.0,77.0 161.0,76.0 146.0,76.0" fill="#decbc2" />
<polygon points="43.0,323.0 44.0,324.0 62.0,324.0 63.0,323.0 62.0,322.0 44.0,322.0" fill="#decbc2" />
<polygon points="181.0,104.0 181.0,106.0 186.0,110.0 198.0,109.0 198.0,105.0 194.0,103.0 193.0,104.0 185.0,104.0 184.0,103.0" fill="#0a404e" opacity="0.95" />
<polygon points="188.0,164.0 187.0,165.0 190.0,168.0 191.0,171.0 192.0,172.0 195.0,172.0 197.0,169.0 193.0,164.0" fill="#07576c" />
<polygon points="233.0,104.0 235.0,107.0 250.0,107.0 254.0,105.0 261.0,110.0 263.0,109.0 261.0,104.0 256.0,106.0 250.0,103.0" fill="#0a404e" opacity="0.95" />
<polygon points="198.0,106.0 194.0,103.0 193.0,104.0 187.0,104.0 184.0,106.0 184.0,108.0 187.0,110.0 195.0,110.0 198.0,108.0" fill="#0a404e" opacity="0.95" />
<polygon points="198.0,110.0 198.0,112.0 201.0,114.0 208.0,114.0 211.0,112.0 211.0,110.0 208.0,108.0 201.0,108.0" fill="#07576c" opacity="0.95" />
<polygon points="190.0,91.0 193.0,93.0 193.0,95.0 190.0,97.0 187.0,95.0 187.0,93.0" fill="#fe4d35" opacity="0.95" />
<polygon points="135.0,109.0 134.0,110.0 134.0,113.0 135.0,114.0 138.0,114.0 139.0,113.0 139.0,110.0 138.0,109.0" fill="#067da4" />
<polygon points="148.0,77.0 148.0,79.0 152.0,80.0 155.0,82.0 158.0,81.0 160.0,79.0 160.0,77.0 158.0,76.0 150.0,76.0" fill="#decbc2" opacity="0.95" />
<polygon points="253.0,108.0 252.0,109.0 252.0,113.0 253.0,114.0 255.0,114.0 256.0,113.0 256.0,109.0 255.0,108.0" fill="#067da4" />
<polygon points="189.0,165.0 191.0,171.0 193.0,172.0 196.0,171.0 196.0,168.0 194.0,165.0 192.0,164.0" fill="#07576c" opacity="0.95" />
<polygon points="155.0,76.0 152.0,78.0 152.0,80.0 156.0,82.0 159.0,80.0 159.0,78.0" fill="#decbc2" opacity="0.95" />
<polygon points="136.0,109.0 135.0,110.0 134.0,110.0 134.0,113.0 137.0,114.0 138.0,113.0 139.0,113.0 139.0,110.0" fill="#067da4" opacity="0.95" />
<polygon points="131.0,106.0 130.0,107.0 129.0,107.0 129.0,112.0 130.0,112.0 131.0,113.0 132.0,112.0 133.0,112.0 133.0,107.0 132.0,107.0" fill="#0a404e" opacity="0.95" />
<polygon points="254.0,108.0 253.0,109.0 252.0,109.0 252.0,113.0 253.0,113.0 254.0,114.0 255.0,113.0 256.0,113.0 256.0,109.0 255.0,109.0" fill="#067da4" opacity="0.95" />
</svg>