<svg xmlns="http://www.w3.org/2000/svg" width="768" height="768" viewBox="0 0 384 384">
<rect width="384" height="384" fill="#8e5e51"/>
<polygon points="220.0,20.0 249.0,64.0 250.0,322.0 209.0,364.0 311.0,361.0 368.0,321.0 371.0,85.0" fill="#ad6654" />
<polygon points="69.0,32.0 0.0,111.0 0.0,287.0 34.0,290.0 0.0,327.0 168.0,373.0 108.0,230.0 163.0,28.0" fill="#ad6654" />
<polygon points="70.0,32.0 0.0,111.0 0.0,282.0 34.0,290.0 9.0,321.0 169.0,372.0 126.0,231.0 162.0,27.0" fill="#ad6654" opacity="0.95" />
<polygon points="218.0,21.0 249.0,72.0 250.0,310.0 209.0,364.0 309.0,361.0 367.0,322.0 369.0,85.0" fill="#ad6654" opacity="0.95" />
<polygon points="229.0,23.0 250.0,310.0 209.0,364.0 308.0,361.0 366.0,321.0 383.0,249.0 368.0,85.0" fill="#ad6654" opacity="0.95" />
<polygon points="0.0,20.0 2.0,101.0 111.0,23.0 337.0,49.0 372.0,78.0 383.0,214.0 383.0,22.0" fill="#5c312a" />
<polygon points="10.0,78.0 0.0,282.0 34.0,290.0 18.0,329.0 169.0,372.0 130.0,323.0 130.0,76.0 161.0,29.0" fill="#ad6654" opacity="0.95" />
<polygon points="0.0,20.0 3.0,101.0 113.0,23.0 342.0,52.0 383.0,214.0 383.0,22.0" fill="#5c312a" opacity="0.95" />
<polygon points="185.0,143.0 159.0,159.0 150.0,195.0 167.0,223.0 199.0,232.0 223.0,216.0 233.0,182.0 215.0,150.0" fill="#040404" />
<polygon points="185.0,254.0 160.0,270.0 150.0,305.0 169.0,337.0 197.0,344.0 224.0,327.0 233.0,296.0 215.0,261.0" fill="#040404" />
<polygon points="183.0,34.0 154.0,57.0 150.0,85.0 170.0,115.0 198.0,122.0 226.0,101.0 232.0,68.0 214.0,40.0" fill="#040404" />
<polygon points="0.0,20.0 4.0,101.0 112.0,23.0 340.0,51.0 372.0,78.0 383.0,214.0 383.0,22.0" fill="#5c312a" opacity="0.95" />
<polygon points="187.0,150.0 211.0,156.0 227.0,180.0 221.0,206.0 196.0,221.0 169.0,213.0 155.0,187.0 163.0,164.0" fill="#040404" />
<polygon points="191.0,257.0 217.0,271.0 226.0,295.0 219.0,320.0 195.0,334.0 168.0,325.0 157.0,304.0 165.0,273.0" fill="#040404" />
<polygon points="185.0,152.0 164.0,165.0 157.0,191.0 170.0,212.0 198.0,219.0 222.0,202.0 225.0,178.0 207.0,155.0" fill="#07fdca" />
<polygon points="186.0,41.0 213.0,48.0 227.0,72.0 220.0,97.0 198.0,111.0 173.0,106.0 156.0,84.0 163.0,55.0" fill="#040404" />
<polygon points="187.0,42.0 162.0,58.0 157.0,83.0 173.0,105.0 198.0,110.0 218.0,98.0 226.0,73.0 213.0,49.0" fill="#fd0218" />
<polygon points="383.0,250.0 370.0,261.0 378.0,283.0 355.0,291.0 370.0,299.0 368.0,326.0 324.0,338.0 314.0,362.0 210.0,366.0 209.0,383.0 372.0,383.0 383.0,374.0" fill="#5c312a" />
<polygon points="0.0,328.0 0.0,379.0 174.0,383.0 173.0,374.0 156.0,372.0 157.0,362.0 151.0,374.0 141.0,365.0 76.0,361.0 77.0,352.0 53.0,338.0" fill="#5c312a" />
<polygon points="185.0,143.0 159.0,159.0 150.0,195.0 167.0,223.0 199.0,232.0 223.0,216.0 233.0,182.0 215.0,150.0" fill="#040404" opacity="0.95" />
<polygon points="185.0,254.0 160.0,270.0 150.0,305.0 169.0,337.0 197.0,344.0 224.0,327.0 233.0,296.0 215.0,261.0" fill="#040404" opacity="0.95" />
<polygon points="183.0,34.0 154.0,57.0 150.0,85.0 170.0,115.0 198.0,122.0 226.0,101.0 232.0,68.0 214.0,40.0" fill="#040404" opacity="0.95" />
<polygon points="0.0,328.0 0.0,379.0 174.0,383.0 156.0,362.0 150.0,369.0 78.0,361.0 53.0,338.0" fill="#5c312a" opacity="0.95" />
<polygon points="192.0,258.0 163.0,278.0 186.0,269.0 164.0,307.0 190.0,331.0 219.0,305.0 196.0,269.0 220.0,279.0" fill="#181917" />
<polygon points="383.0,250.0 370.0,261.0 377.0,284.0 355.0,291.0 369.0,324.0 324.0,338.0 311.0,362.0 211.0,366.0 209.0,383.0 372.0,383.0" fill="#5c312a" opacity="0.95" />
<polygon points="191.0,257.0 217.0,271.0 226.0,295.0 219.0,320.0 195.0,334.0 168.0,325.0 157.0,304.0 165.0,273.0" fill="#040404" opacity="0.95" />
<polygon points="185.0,152.0 164.0,165.0 157.0,191.0 170.0,212.0 198.0,219.0 222.0,202.0 225.0,178.0 207.0,155.0" fill="#07fdca" opacity="0.95" />
<polygon points="187.0,42.0 162.0,58.0 157.0,83.0 173.0,105.0 198.0,110.0 218.0,98.0 226.0,73.0 213.0,49.0" fill="#fd0218" opacity="0.95" />
<polygon points="140.0,53.0 145.0,76.0 169.0,38.0 211.0,36.0 233.0,60.0 234.0,98.0 246.0,99.0 242.0,52.0 211.0,25.0 169.0,26.0" fill="#eaefef" />
<polygon points="0.0,335.0 0.0,379.0 174.0,383.0 173.0,375.0 141.0,365.0 78.0,361.0 75.0,350.0 46.0,336.0 20.0,337.0 13.0,325.0" fill="#5c312a" opacity="0.95" />
<polygon points="383.0,258.0 370.0,261.0 376.0,283.0 355.0,291.0 369.0,310.0 351.0,337.0 324.0,338.0 309.0,362.0 236.0,365.0 209.0,383.0 372.0,383.0 383.0,374.0" fill="#5c312a" opacity="0.95" />
<polygon points="185.0,152.0 164.0,165.0 157.0,191.0 170.0,212.0 198.0,219.0 222.0,202.0 225.0,178.0 207.0,155.0" fill="#07fdca" opacity="0.95" />
<polygon points="187.0,42.0 162.0,58.0 157.0,83.0 173.0,105.0 198.0,110.0 218.0,98.0 226.0,73.0 213.0,49.0" fill="#fd0218" opacity="0.95" />
<polygon points="286.0,0.0 348.0,7.0 383.0,21.0 383.0,3.0 372.0,0.0" fill="#181917" />
<polygon points="175.0,143.0 198.0,141.0 219.0,150.0 234.0,172.0 234.0,207.0 246.0,208.0 246.0,172.0 228.0,144.0 197.0,134.0" fill="#eaefef" />
<polygon points="160.0,252.0 133.0,288.0 136.0,319.0 149.0,317.0 145.0,288.0 168.0,257.0" fill="#c0c5c7" />
<polygon points="192.0,258.0 168.0,271.0 183.0,268.0 186.0,278.0 164.0,297.0 168.0,316.0 191.0,331.0 219.0,305.0 213.0,287.0 196.0,277.0 199.0,267.0 216.0,271.0" fill="#181917" opacity="0.95" />
<polygon points="140.0,321.0 159.0,346.0 188.0,356.0 216.0,351.0 243.0,323.0 235.0,321.0 206.0,346.0 186.0,348.0" fill="#474d50" />
<polygon points="164.0,261.0 185.0,252.0 214.0,258.0 231.0,276.0 236.0,311.0 245.0,316.0 246.0,286.0 231.0,258.0 192.0,245.0" fill="#eaefef" />
<polygon points="192.0,258.0 183.0,263.0 186.0,277.0 164.0,297.0 168.0,316.0 191.0,330.0 208.0,323.0 219.0,305.0 213.0,287.0 196.0,277.0 200.0,263.0" fill="#181917" opacity="0.95" />
<polygon points="140.0,53.0 145.0,73.0 145.0,53.0 169.0,38.0 211.0,36.0 233.0,60.0 234.0,98.0 246.0,99.0 242.0,52.0 211.0,25.0 169.0,26.0" fill="#eaefef" opacity="0.95" />
<polygon points="0.0,19.0 16.0,14.0 23.0,6.0 62.0,6.0 69.0,1.0 88.0,0.0 0.0,2.0" fill="#181917" />
<polygon points="99.0,219.0 94.0,239.0 102.0,256.0 93.0,259.0 95.0,269.0 87.0,285.0 84.0,270.0 89.0,260.0 72.0,256.0 84.0,247.0 85.0,218.0" fill="#ad6654" />
<polygon points="161.0,140.0 153.0,146.0 140.0,176.0 133.0,175.0 136.0,209.0 140.0,202.0 148.0,202.0 143.0,177.0 168.0,145.0" fill="#c0c5c7" />
<polygon points="266.0,0.0 349.0,8.0 383.0,21.0 383.0,3.0" fill="#181917" opacity="0.95" />
<polygon points="226.0,113.0 199.0,126.0 182.0,125.0 166.0,117.0 164.0,129.0 216.0,132.0" fill="#474d50" />
<polygon points="227.0,221.0 199.0,236.0 185.0,236.0 166.0,228.0 165.0,240.0 199.0,239.0 212.0,244.0" fill="#474d50" />
<polygon points="93.0,217.0 88.0,218.0 88.0,245.0 77.0,251.0 90.0,260.0 88.0,284.0 97.0,253.0" fill="#d9a08d" />
<polygon points="184.0,138.0 225.0,156.0 236.0,181.0 234.0,207.0 246.0,208.0 247.0,176.0 236.0,152.0 223.0,141.0 197.0,134.0" fill="#eaefef" opacity="0.95" />
<polygon points="145.0,45.0 154.0,51.0 184.0,32.0 213.0,37.0 233.0,60.0 234.0,97.0 246.0,98.0 244.0,57.0 223.0,31.0 180.0,23.0" fill="#eaefef" opacity="0.95" />
<polygon points="32.0,289.0 2.0,286.0 0.0,308.0 3.0,309.0 0.0,317.0 6.0,320.0 9.0,314.0 6.0,309.0 17.0,305.0 17.0,297.0 32.0,293.0" fill="#5c312a" />
<polygon points="141.0,321.0 159.0,346.0 188.0,356.0 216.0,351.0 242.0,325.0 236.0,321.0 218.0,340.0 186.0,348.0" fill="#474d50" opacity="0.95" />
<polygon points="201.0,269.0 198.0,277.0 217.0,290.0 220.0,309.0 196.0,332.0 211.0,326.0 224.0,306.0 219.0,282.0" fill="#eaefef" />
<polygon points="165.0,255.0 153.0,257.0 152.0,265.0 133.0,288.0 136.0,319.0 148.0,316.0 145.0,288.0" fill="#c0c5c7" opacity="0.95" />
<polygon points="288.0,0.0 349.0,8.0 383.0,21.0 383.0,0.0" fill="#181917" opacity="0.95" />
<polygon points="215.0,255.0 213.0,258.0 231.0,276.0 241.0,319.0 247.0,309.0 245.0,283.0 232.0,259.0" fill="#eaefef" opacity="0.95" />
<polygon points="134.0,68.0 132.0,85.0 133.0,101.0 136.0,102.0 140.0,94.0 143.0,95.0 148.0,92.0 142.0,70.0 138.0,71.0" fill="#c0c5c7" />
<polygon points="183.0,269.0 165.0,280.0 159.0,305.0 170.0,325.0 186.0,331.0 167.0,317.0 162.0,305.0 167.0,288.0 185.0,277.0" fill="#eaefef" />
<polygon points="136.0,214.0 128.0,230.0 132.0,239.0 126.0,243.0 133.0,246.0 132.0,271.0 137.0,266.0 135.0,246.0 142.0,243.0" fill="#d9a08d" />
<polygon points="0.0,19.0 25.0,6.0 61.0,6.0 69.0,1.0 87.0,0.0 0.0,2.0" fill="#181917" opacity="0.95" />
<polygon points="93.0,216.0 100.0,228.0 94.0,234.0 100.0,256.0 92.0,260.0 75.0,258.0 72.0,254.0 88.0,240.0 87.0,218.0" fill="#ad6654" opacity="0.95" />
<polygon points="142.0,323.0 159.0,346.0 188.0,356.0 216.0,351.0 241.0,327.0 236.0,321.0 218.0,340.0 186.0,348.0" fill="#474d50" opacity="0.95" />
<polygon points="151.0,99.0 149.0,105.0 156.0,121.0 163.0,128.0 165.0,125.0 165.0,116.0" fill="#636c70" />
<polygon points="215.0,142.0 212.0,146.0 225.0,156.0 234.0,172.0 234.0,206.0 243.0,209.0 248.0,198.0 244.0,166.0 228.0,144.0" fill="#eaefef" opacity="0.95" />
<polygon points="160.0,253.0 133.0,288.0 133.0,313.0 137.0,319.0 148.0,314.0 145.0,288.0 165.0,259.0" fill="#c0c5c7" opacity="0.95" />
<polygon points="0.0,19.0 25.0,6.0 61.0,6.0 67.0,0.0 0.0,0.0" fill="#181917" opacity="0.95" />
<polygon points="151.0,209.0 149.0,216.0 152.0,224.0 164.0,239.0 166.0,236.0 163.0,230.0 165.0,226.0 157.0,219.0" fill="#636c70" />
<polygon points="93.0,217.0 89.0,218.0 88.0,245.0 77.0,251.0 90.0,259.0 96.0,254.0" fill="#d9a08d" opacity="0.95" />
<polygon points="199.0,246.0 209.0,253.0 218.0,254.0 224.0,258.0 230.0,257.0 214.0,246.0" fill="#c0c5c7" />
<polygon points="110.0,103.0 108.0,105.0 108.0,113.0 110.0,115.0 108.0,117.0 93.0,117.0 90.0,119.0 88.0,117.0 80.0,117.0 77.0,114.0 85.0,111.0 92.0,112.0 94.0,107.0 99.0,106.0 105.0,101.0" fill="#ad6654" />
<polygon points="199.0,356.0 198.0,357.0 199.0,358.0 199.0,383.0 206.0,383.0 206.0,357.0 205.0,356.0" fill="#181917" />
<polygon points="140.0,70.0 133.0,71.0 133.0,101.0 135.0,102.0 138.0,95.0 147.0,93.0 146.0,79.0" fill="#c0c5c7" opacity="0.95" />
<polygon points="147.0,163.0 141.0,176.0 133.0,178.0 133.0,202.0 136.0,205.0 147.0,201.0 147.0,186.0 143.0,182.0 149.0,166.0" fill="#c0c5c7" opacity="0.95" />
<polygon points="191.0,243.0 182.0,242.0 165.0,248.0 172.0,251.0 178.0,250.0" fill="#636c70" />
<polygon points="114.0,205.0 113.0,216.0 111.0,218.0 112.0,226.0 109.0,230.0 122.0,231.0 123.0,228.0 120.0,223.0 121.0,218.0 115.0,214.0" fill="#d9a08d" />
<polygon points="233.0,199.0 227.0,212.0 214.0,228.0 227.0,215.0 229.0,220.0 232.0,220.0" fill="#8e9295" />
<polygon points="140.0,177.0 133.0,179.0 133.0,202.0 136.0,204.0 147.0,200.0 146.0,186.0 143.0,179.0" fill="#c0c5c7" opacity="0.95" />
<polygon points="232.0,314.0 224.0,329.0 207.0,344.0 227.0,330.0 232.0,323.0" fill="#8e9295" />
<polygon points="137.0,245.0 136.0,255.0 138.0,257.0 136.0,259.0 136.0,264.0 140.0,268.0 142.0,268.0 145.0,264.0 145.0,259.0 143.0,257.0 145.0,254.0 144.0,248.0 142.0,245.0" fill="#ad6654" />
<polygon points="135.0,217.0 132.0,218.0 131.0,244.0 133.0,245.0 142.0,243.0 141.0,234.0 138.0,230.0 137.0,218.0" fill="#d9a08d" opacity="0.95" />
<polygon points="190.0,132.0 181.0,131.0 170.0,134.0 169.0,136.0 178.0,138.0" fill="#636c70" />
<polygon points="226.0,113.0 222.0,113.0 198.0,128.0 211.0,133.0 217.0,131.0 217.0,125.0 224.0,120.0" fill="#474d50" opacity="0.95" />
<polygon points="227.0,221.0 223.0,221.0 212.0,231.0 198.0,236.0 198.0,239.0 211.0,244.0 216.0,242.0 215.0,236.0 225.0,228.0" fill="#474d50" opacity="0.95" />
<polygon points="136.0,70.0 133.0,72.0 132.0,85.0 133.0,94.0 137.0,96.0 145.0,94.0 147.0,87.0 143.0,73.0" fill="#c0c5c7" opacity="0.95" />
<polygon points="165.0,230.0 166.0,241.0 170.0,243.0 186.0,238.0 184.0,235.0 168.0,229.0" fill="#474d50" opacity="0.95" />
<polygon points="150.0,103.0 150.0,109.0 156.0,121.0 162.0,126.0 165.0,125.0 164.0,115.0 154.0,103.0" fill="#636c70" opacity="0.95" />
<polygon points="109.0,103.0 105.0,102.0 99.0,107.0 94.0,108.0 93.0,112.0 104.0,113.0 107.0,116.0 108.0,115.0 106.0,113.0 107.0,105.0" fill="#d9a08d" />
<polygon points="152.0,211.0 149.0,214.0 152.0,224.0 163.0,237.0 165.0,236.0 164.0,225.0 157.0,219.0" fill="#636c70" opacity="0.95" />
<polygon points="165.0,119.0 165.0,130.0 169.0,132.0 183.0,127.0 181.0,124.0 167.0,118.0" fill="#474d50" opacity="0.95" />
<polygon points="135.0,221.0 131.0,224.0 131.0,243.0 134.0,245.0 142.0,242.0 141.0,234.0 138.0,230.0 138.0,223.0" fill="#d9a08d" opacity="0.95" />
<polygon points="162.0,139.0 164.0,142.0 170.0,143.0 176.0,140.0 167.0,136.0" fill="#8e9295" />
<polygon points="114.0,216.0 112.0,217.0 112.0,226.0 110.0,228.0 110.0,230.0 120.0,231.0 122.0,230.0 120.0,218.0" fill="#d9a08d" opacity="0.95" />
<polygon points="230.0,98.0 219.0,112.0 220.0,113.0 226.0,107.0 229.0,110.0 229.0,113.0 231.0,113.0 233.0,106.0 230.0,102.0" fill="#8e9295" />
<polygon points="229.0,223.0 226.0,228.0 215.0,237.0 217.0,240.0 226.0,231.0 230.0,225.0" fill="#636c70" />
<polygon points="226.0,224.0 221.0,223.0 212.0,231.0 201.0,235.0 200.0,238.0 208.0,243.0 214.0,243.0 215.0,236.0 225.0,228.0" fill="#474d50" opacity="0.95" />
<polygon points="95.0,243.0 92.0,241.0 89.0,242.0 85.0,248.0 78.0,250.0 77.0,253.0 90.0,259.0 94.0,257.0 96.0,254.0" fill="#d9a08d" opacity="0.95" />
<polygon points="243.0,240.0 241.0,242.0 243.0,245.0 242.0,254.0 244.0,257.0 247.0,257.0 248.0,254.0 245.0,249.0 247.0,244.0" fill="#d9a08d" />
<polygon points="153.0,104.0 150.0,106.0 151.0,112.0 156.0,121.0 162.0,126.0 165.0,124.0 164.0,115.0" fill="#636c70" opacity="0.95" />
<polygon points="152.0,212.0 149.0,214.0 150.0,219.0 157.0,232.0 161.0,235.0 164.0,233.0 164.0,226.0" fill="#636c70" opacity="0.95" />
<polygon points="188.0,243.0 182.0,242.0 167.0,247.0 167.0,249.0 172.0,251.0 178.0,250.0 188.0,245.0" fill="#636c70" opacity="0.95" />
<polygon points="161.0,251.0 163.0,254.0 166.0,255.0 170.0,255.0 175.0,252.0 174.0,251.0 172.0,252.0 168.0,251.0 165.0,249.0 163.0,249.0" fill="#8e9295" />
<polygon points="164.0,337.0 169.0,341.0 173.0,343.0 175.0,342.0 168.0,338.0 165.0,335.0" fill="#8e9295" />
<polygon points="163.0,138.0 163.0,141.0 167.0,143.0 170.0,143.0 174.0,141.0 174.0,139.0 167.0,136.0" fill="#8e9295" opacity="0.95" />
<polygon points="153.0,320.0 151.0,322.0 153.0,324.0 154.0,327.0 156.0,328.0 157.0,327.0 157.0,325.0" fill="#8e9295" />
<polygon points="230.0,208.0 228.0,209.0 227.0,214.0 228.0,214.0 229.0,215.0 229.0,217.0 231.0,218.0 233.0,217.0 233.0,210.0" fill="#8e9295" opacity="0.95" />
<polygon points="162.0,250.0 162.0,253.0 166.0,255.0 170.0,255.0 172.0,254.0 172.0,252.0 170.0,251.0 168.0,251.0 165.0,249.0" fill="#8e9295" opacity="0.95" />
</svg>