<svg xmlns="http://www.w3.org/2000/svg" width="768" height="768" viewBox="0 0 384 384">
<rect width="384" height="384" fill="#8f6968"/>
<polygon points="186.0,122.0 2.0,128.0 51.0,143.0 0.0,161.0 18.0,196.0 2.0,239.0 161.0,238.0 166.0,292.0 182.0,291.0 164.0,180.0 187.0,172.0" fill="#8d7a73" />
<polygon points="111.0,38.0 114.0,57.0 163.0,100.0 220.0,100.0 273.0,51.0 252.0,0.0 134.0,0.0" fill="#fb061c" />
<polygon points="383.0,113.0 199.0,120.0 219.0,214.0 197.0,280.0 223.0,283.0 220.0,238.0 356.0,234.0 357.0,273.0 326.0,286.0 383.0,286.0 353.0,244.0 383.0,247.0 383.0,153.0 337.0,140.0" fill="#8d7a73" />
<polygon points="18.0,327.0 35.0,353.0 78.0,381.0 165.0,383.0 165.0,327.0" fill="#8d7a73" />
<polygon points="218.0,383.0 286.0,383.0 315.0,364.0 348.0,327.0 218.0,326.0" fill="#8d7a73" />
<polygon points="166.0,242.0 2.0,240.0 0.0,277.0 95.0,289.0 118.0,280.0 117.0,289.0 145.0,291.0 166.0,280.0" fill="#bc9671" />
<polygon points="383.0,113.0 198.0,121.0 219.0,214.0 197.0,234.0 197.0,281.0 219.0,283.0 221.0,238.0 383.0,247.0 383.0,153.0 338.0,141.0" fill="#8d7a73" opacity="0.95" />
<polygon points="186.0,121.0 1.0,129.0 49.0,144.0 0.0,160.0 18.0,196.0 0.0,227.0 161.0,238.0 167.0,291.0 183.0,289.0 164.0,180.0 187.0,172.0" fill="#8d7a73" opacity="0.95" />
<polygon points="111.0,38.0 114.0,57.0 164.0,100.0 220.0,100.0 273.0,51.0 252.0,0.0 133.0,0.0" fill="#fb061c" opacity="0.95" />
<polygon points="358.0,237.0 220.0,239.0 217.0,279.0 228.0,281.0 231.0,270.0 236.0,291.0 326.0,285.0 356.0,273.0 347.0,241.0" fill="#bc9671" />
<polygon points="383.0,113.0 199.0,121.0 219.0,214.0 197.0,235.0 197.0,280.0 218.0,283.0 221.0,238.0 383.0,247.0 383.0,153.0 341.0,141.0" fill="#8d7a73" opacity="0.95" />
<polygon points="4.0,130.0 41.0,145.0 0.0,160.0 17.0,196.0 0.0,227.0 161.0,238.0 167.0,291.0 183.0,287.0 164.0,180.0 187.0,171.0 185.0,121.0" fill="#8d7a73" opacity="0.95" />
<polygon points="111.0,38.0 114.0,57.0 164.0,100.0 220.0,100.0 273.0,51.0 252.0,0.0 133.0,0.0" fill="#fb061c" opacity="0.95" />
<polygon points="166.0,242.0 6.0,240.0 0.0,277.0 43.0,287.0 158.0,286.0 166.0,280.0" fill="#bc9671" opacity="0.95" />
<polygon points="106.0,40.0 40.0,39.0 39.0,74.0 105.0,74.0" fill="#7f414d" />
<polygon points="19.0,327.0 35.0,353.0 79.0,381.0 165.0,383.0 164.0,327.0" fill="#8d7a73" opacity="0.95" />
<polygon points="383.0,326.0 351.0,326.0 330.0,353.0 287.0,383.0 379.0,383.0" fill="#6a5960" />
<polygon points="167.0,176.0 167.0,217.0 217.0,216.0 217.0,178.0 214.0,174.0" fill="#88ceb7" />
<polygon points="218.0,383.0 287.0,383.0 343.0,337.0 345.0,327.0 219.0,326.0" fill="#8d7a73" opacity="0.95" />
<polygon points="0.0,22.0 2.0,35.0 109.0,30.0 108.0,19.0 97.0,15.0 96.0,0.0 24.0,0.0 19.0,19.0" fill="#7f414d" />
<polygon points="357.0,236.0 221.0,239.0 217.0,279.0 232.0,280.0 236.0,291.0 325.0,285.0 356.0,273.0 348.0,241.0" fill="#bc9671" opacity="0.95" />
<polygon points="166.0,242.0 6.0,240.0 0.0,277.0 43.0,287.0 158.0,286.0 166.0,280.0" fill="#bc9671" opacity="0.95" />
<polygon points="0.0,306.0 114.0,308.0 166.0,298.0 2.0,289.0 23.0,295.0" fill="#503f53" />
<polygon points="383.0,288.0 228.0,293.0 218.0,302.0 383.0,308.0 383.0,298.0 369.0,295.0" fill="#503f53" />
<polygon points="0.0,22.0 3.0,35.0 43.0,36.0 31.0,101.0 63.0,84.0 101.0,101.0 120.0,85.0 98.0,78.0 109.0,28.0 96.0,0.0 24.0,0.0 21.0,18.0" fill="#7f414d" opacity="0.95" />
<polygon points="0.0,328.0 0.0,383.0 86.0,383.0 65.0,377.0 60.0,365.0 33.0,354.0 32.0,344.0 16.0,326.0" fill="#6a5960" />
<polygon points="349.0,39.0 279.0,39.0 262.0,72.0 268.0,89.0 281.0,90.0 286.0,79.0 269.0,73.0 330.0,72.0 333.0,51.0 348.0,72.0" fill="#7f414d" />
<polygon points="356.0,254.0 345.0,235.0 221.0,239.0 217.0,279.0 231.0,280.0 236.0,291.0 325.0,285.0 355.0,274.0" fill="#bc9671" opacity="0.95" />
<polygon points="167.0,176.0 166.0,216.0 217.0,216.0 215.0,175.0" fill="#88ceb7" opacity="0.95" />
<polygon points="0.0,43.0 0.0,73.0 2.0,75.0 37.0,74.0 36.0,40.0 3.0,40.0" fill="#261f42" />
<polygon points="383.0,326.0 346.0,329.0 330.0,353.0 288.0,383.0 378.0,383.0" fill="#6a5960" opacity="0.95" />
<polygon points="0.0,22.0 4.0,35.0 40.0,38.0 31.0,101.0 68.0,75.0 90.0,101.0 108.0,98.0 100.0,78.0 108.0,19.0 96.0,0.0 24.0,0.0 20.0,18.0" fill="#7f414d" opacity="0.95" />
<polygon points="350.0,0.0 350.0,32.0 383.0,33.0 383.0,0.0" fill="#261f42" />
<polygon points="170.0,220.0 188.0,232.0 187.0,383.0 196.0,383.0 196.0,227.0 214.0,221.0" fill="#261f42" />
<polygon points="198.0,284.0 198.0,351.0 202.0,360.0 212.0,363.0 217.0,383.0 218.0,294.0" fill="#6a5960" />
<polygon points="318.0,0.0 318.0,32.0 348.0,33.0 349.0,0.0" fill="#7f414d" />
<polygon points="383.0,37.0 350.0,39.0 350.0,67.0 352.0,71.0 383.0,71.0" fill="#261f42" />
<polygon points="200.0,15.0 213.0,14.0 222.0,22.0 223.0,47.0 215.0,55.0 201.0,55.0 193.0,46.0 192.0,22.0" fill="#fb061c" />
<polygon points="0.0,328.0 0.0,383.0 86.0,383.0 34.0,354.0 16.0,327.0" fill="#6a5960" opacity="0.95" />
<polygon points="278.0,0.0 283.0,37.0 263.0,71.0 268.0,89.0 282.0,89.0 286.0,73.0 331.0,71.0 334.0,51.0 349.0,71.0 349.0,0.0 318.0,0.0 319.0,38.0 289.0,37.0 291.0,0.0" fill="#7f414d" opacity="0.95" />
<polygon points="167.0,176.0 168.0,217.0 217.0,216.0 215.0,175.0" fill="#88ceb7" opacity="0.95" />
<polygon points="287.0,87.0 289.0,104.0 328.0,104.0 328.0,89.0 320.0,83.0 292.0,81.0" fill="#261f42" />
<polygon points="383.0,326.0 348.0,328.0 330.0,353.0 289.0,383.0 378.0,383.0" fill="#6a5960" opacity="0.95" />
<polygon points="185.0,285.0 180.0,293.0 164.0,294.0 163.0,304.0 169.0,310.0 166.0,383.0 170.0,367.0 182.0,360.0 186.0,346.0" fill="#6a5960" />
<polygon points="383.0,288.0 228.0,293.0 218.0,302.0 383.0,308.0 383.0,298.0 370.0,296.0" fill="#503f53" opacity="0.95" />
<polygon points="201.0,16.0 194.0,23.0 195.0,47.0 202.0,54.0 216.0,53.0 222.0,46.0 221.0,23.0 214.0,16.0" fill="#faf5e8" />
<polygon points="350.0,0.0 350.0,32.0 354.0,34.0 350.0,39.0 350.0,67.0 358.0,73.0 354.0,79.0 383.0,88.0 383.0,0.0" fill="#261f42" opacity="0.95" />
<polygon points="0.0,305.0 114.0,308.0 163.0,303.0 165.0,296.0 11.0,289.0 20.0,296.0" fill="#503f53" opacity="0.95" />
<polygon points="0.0,320.0 0.0,324.0 166.0,324.0" fill="#faf5e8" />
<polygon points="383.0,320.0 217.0,324.0 383.0,324.0" fill="#faf5e8" />
<polygon points="165.0,17.0 213.0,14.0 225.0,37.0 227.0,16.0 244.0,14.0 254.0,34.0 237.0,54.0 225.0,42.0 204.0,56.0 187.0,23.0 185.0,53.0 176.0,55.0" fill="#fb061c" opacity="0.95" />
<polygon points="110.0,111.0 40.0,111.0 13.0,115.0 108.0,118.0" fill="#bcac95" />
<polygon points="229.0,14.0 248.0,15.0 254.0,22.0 254.0,34.0 250.0,39.0 240.0,42.0 238.0,54.0 227.0,52.0 227.0,16.0" fill="#fb061c" />
<polygon points="272.0,56.0 220.0,101.0 163.0,101.0 113.0,63.0 161.0,105.0 224.0,105.0" fill="#750930" />
<polygon points="383.0,308.0 383.0,298.0 369.0,288.0 218.0,296.0 228.0,306.0" fill="#503f53" opacity="0.95" />
<polygon points="136.0,17.0 151.0,14.0 161.0,20.0 162.0,27.0 152.0,30.0 163.0,39.0 163.0,49.0 158.0,55.0 142.0,56.0 134.0,51.0 132.0,42.0 142.0,39.0 132.0,30.0" fill="#fb061c" />
<polygon points="28.0,85.0 33.0,102.0 44.0,91.0 63.0,84.0 80.0,84.0 91.0,102.0 109.0,97.0 110.0,86.0 100.0,79.0 45.0,79.0" fill="#7f414d" />
<polygon points="87.0,93.0 79.0,86.0 63.0,86.0 44.0,93.0 39.0,103.0 42.0,108.0 65.0,105.0 81.0,107.0 87.0,102.0" fill="#261f42" />
<polygon points="293.0,0.0 294.0,32.0 315.0,33.0 316.0,19.0 314.0,16.0 316.0,13.0 316.0,0.0" fill="#261f42" />
<polygon points="0.0,328.0 0.0,383.0 76.0,383.0 61.0,366.0 34.0,354.0 15.0,327.0" fill="#6a5960" opacity="0.95" />
<polygon points="278.0,0.0 283.0,36.0 264.0,70.0 267.0,87.0 282.0,89.0 287.0,73.0 320.0,72.0 334.0,85.0 329.0,55.0 338.0,52.0 349.0,70.0 349.0,0.0 318.0,0.0 316.0,38.0 292.0,37.0 291.0,0.0" fill="#7f414d" opacity="0.95" />
<polygon points="0.0,305.0 113.0,308.0 162.0,303.0 165.0,297.0 30.0,289.0" fill="#503f53" opacity="0.95" />
<polygon points="3.0,81.0 0.0,84.0 2.0,89.0 0.0,91.0 0.0,108.0 2.0,110.0 27.0,108.0 29.0,103.0 26.0,82.0" fill="#261f42" />
<polygon points="165.0,18.0 213.0,14.0 224.0,23.0 244.0,14.0 254.0,34.0 236.0,54.0 224.0,48.0 204.0,56.0 193.0,46.0 188.0,23.0 185.0,52.0 177.0,55.0" fill="#fb061c" opacity="0.95" />
<polygon points="199.0,286.0 198.0,351.0 201.0,359.0 214.0,366.0 217.0,293.0 209.0,286.0" fill="#6a5960" opacity="0.95" />
<polygon points="350.0,0.0 350.0,31.0 354.0,34.0 350.0,40.0 351.0,70.0 370.0,72.0 372.0,84.0 383.0,88.0 383.0,0.0" fill="#261f42" opacity="0.95" />
<polygon points="247.0,16.0 228.0,17.0 230.0,52.0 237.0,52.0 238.0,41.0 247.0,39.0 252.0,35.0 252.0,20.0" fill="#faf5e8" />
<polygon points="267.0,109.0 271.0,116.0 356.0,116.0 304.0,109.0" fill="#bcac95" />
<polygon points="167.0,15.0 190.0,15.0 193.0,21.0 185.0,24.0 185.0,53.0 183.0,55.0 173.0,53.0 172.0,24.0 165.0,21.0" fill="#fb061c" />
<polygon points="184.0,291.0 167.0,294.0 164.0,303.0 168.0,307.0 169.0,367.0 182.0,360.0 186.0,344.0" fill="#6a5960" opacity="0.95" />
<polygon points="278.0,0.0 278.0,30.0 280.0,33.0 291.0,33.0 291.0,0.0" fill="#7f414d" />
<polygon points="201.0,16.0 194.0,20.0 195.0,47.0 202.0,54.0 216.0,53.0 222.0,46.0 221.0,23.0 214.0,16.0" fill="#faf5e8" opacity="0.95" />
<polygon points="166.0,108.0 142.0,93.0 137.0,96.0 137.0,101.0 145.0,106.0 143.0,109.0 119.0,110.0 117.0,116.0 123.0,119.0 163.0,118.0 166.0,116.0" fill="#bcac95" />
<polygon points="137.0,18.0 134.0,31.0 150.0,42.0 150.0,48.0 135.0,42.0 135.0,50.0 143.0,55.0 157.0,54.0 161.0,38.0 145.0,23.0 160.0,27.0 160.0,21.0 153.0,16.0" fill="#faf5e8" />
<polygon points="166.0,109.0 142.0,93.0 139.0,110.0 26.0,116.0 163.0,118.0" fill="#bcac95" opacity="0.95" />
<polygon points="186.0,348.0 183.0,360.0 171.0,367.0 169.0,383.0 187.0,382.0" fill="#503f53" />
<polygon points="198.0,354.0 197.0,383.0 213.0,383.0 211.0,363.0 202.0,361.0" fill="#503f53" />
<polygon points="193.0,21.0 195.0,47.0 202.0,54.0 216.0,53.0 225.0,44.0 235.0,52.0 238.0,42.0 252.0,35.0 252.0,20.0 247.0,16.0 231.0,16.0 224.0,25.0 214.0,16.0" fill="#faf5e8" opacity="0.95" />
<polygon points="140.0,15.0 155.0,15.0 162.0,22.0 162.0,27.0 155.0,32.0 163.0,39.0 163.0,49.0 155.0,56.0 142.0,56.0 133.0,49.0 133.0,42.0 138.0,37.0 133.0,33.0 132.0,24.0" fill="#fb061c" opacity="0.95" />
<polygon points="247.0,92.0 240.0,92.0 236.0,99.0 233.0,98.0 225.0,106.0 219.0,107.0 219.0,116.0 244.0,116.0 246.0,109.0 243.0,105.0 247.0,102.0" fill="#bcac95" />
<polygon points="189.0,16.0 167.0,18.0 168.0,21.0 174.0,23.0 176.0,53.0 184.0,52.0 183.0,24.0 190.0,20.0" fill="#faf5e8" />
<polygon points="110.0,111.0 40.0,111.0 18.0,116.0 100.0,119.0 110.0,117.0" fill="#bcac95" opacity="0.95" />
<polygon points="247.0,16.0 228.0,17.0 229.0,51.0 231.0,52.0 238.0,51.0 239.0,40.0 247.0,39.0 252.0,35.0 252.0,20.0" fill="#faf5e8" opacity="0.95" />
<polygon points="139.0,17.0 134.0,22.0 134.0,31.0 142.0,40.0 134.0,43.0 134.0,48.0 140.0,54.0 154.0,55.0 162.0,44.0 161.0,38.0 151.0,29.0 161.0,26.0 160.0,21.0 153.0,16.0" fill="#faf5e8" opacity="0.95" />
<polygon points="247.0,92.0 239.0,93.0 237.0,98.0 218.0,108.0 219.0,116.0 244.0,116.0" fill="#bcac95" opacity="0.95" />
<polygon points="266.0,93.0 271.0,116.0 347.0,117.0 274.0,108.0 271.0,104.0 283.0,101.0 283.0,93.0" fill="#bcac95" opacity="0.95" />
<polygon points="166.0,108.0 142.0,93.0 137.0,96.0 137.0,101.0 144.0,105.0 142.0,109.0 120.0,110.0 117.0,116.0 123.0,119.0 163.0,118.0" fill="#bcac95" opacity="0.95" />
<polygon points="113.0,60.0 159.0,104.0 169.0,104.0 119.0,61.0" fill="#750930" opacity="0.95" />
<polygon points="270.0,60.0 265.0,60.0 217.0,104.0 225.0,104.0 242.0,90.0" fill="#750930" opacity="0.95" />
<polygon points="266.0,93.0 266.0,102.0 267.0,103.0 281.0,102.0 283.0,100.0 283.0,93.0 282.0,92.0 267.0,92.0" fill="#bcac95" />
<polygon points="187.0,359.0 185.0,358.0 180.0,363.0 171.0,367.0 169.0,383.0 186.0,383.0" fill="#503f53" opacity="0.95" />
<polygon points="373.0,86.0 370.0,90.0 372.0,98.0 367.0,102.0 360.0,103.0 373.0,103.0 375.0,105.0 374.0,110.0 377.0,107.0 383.0,107.0 383.0,89.0" fill="#503f53" />
<polygon points="131.0,310.0 134.0,314.0 137.0,313.0 150.0,314.0 151.0,313.0 145.0,311.0 140.0,311.0 136.0,308.0" fill="#bc9671" />
<polygon points="14.0,37.0 15.0,38.0 26.0,38.0 27.0,37.0 26.0,36.0 15.0,36.0" fill="#dcd5be" />
<polygon points="252.0,78.0 249.0,76.0 247.0,77.0 237.0,87.0 237.0,89.0 240.0,91.0 242.0,90.0 252.0,80.0" fill="#750930" opacity="0.95" />
<polygon points="269.0,62.0 266.0,60.0 264.0,61.0 255.0,70.0 255.0,72.0 258.0,74.0 260.0,73.0 269.0,64.0" fill="#750930" opacity="0.95" />
<polygon points="119.0,281.0 121.0,279.0 123.0,279.0 125.0,281.0 123.0,283.0 121.0,283.0" fill="#bc9671" />
<polygon points="132.0,310.0 132.0,312.0 135.0,314.0 137.0,313.0 139.0,314.0 141.0,313.0 141.0,311.0 136.0,308.0" fill="#bc9671" opacity="0.95" />
<polygon points="154.0,313.0 155.0,314.0 159.0,314.0 160.0,315.0 162.0,315.0 163.0,314.0 162.0,313.0 160.0,313.0 159.0,312.0 155.0,312.0" fill="#bc9671" />
</svg>