<svg xmlns="http://www.w3.org/2000/svg" width="768" height="768" viewBox="0 0 384 384">
<rect width="384" height="384" fill="#83675a"/>
<polygon points="141.0,0.0 38.0,131.0 37.0,255.0 167.0,334.0 120.0,199.0 190.0,35.0 261.0,197.0 202.0,301.0 269.0,341.0 341.0,250.0 345.0,71.0" fill="#9d745c" opacity="0.95" />
<polygon points="234.0,0.0 106.0,17.0 47.0,125.0 101.0,128.0 37.0,131.0 48.0,277.0 161.0,323.0 114.0,341.0 180.0,303.0 120.0,199.0 181.0,130.0 110.0,127.0 179.0,123.0 185.0,36.0 199.0,124.0 352.0,123.0 337.0,59.0" fill="#9d745c" />
<polygon points="349.0,128.0 201.0,130.0 202.0,161.0 259.0,166.0 260.0,206.0 199.0,251.0 220.0,335.0 314.0,318.0 297.0,294.0 342.0,247.0" fill="#9d745c" />
<polygon points="140.0,0.0 38.0,132.0 37.0,255.0 167.0,334.0 181.0,253.0 120.0,199.0 181.0,159.0 190.0,35.0 201.0,159.0 261.0,197.0 202.0,301.0 269.0,341.0 341.0,250.0 345.0,71.0" fill="#9d745c" opacity="0.95" />
<polygon points="235.0,0.0 347.0,73.0 343.0,247.0 298.0,301.0 367.0,319.0 383.0,77.0 335.0,13.0" fill="#7c534b" />
<polygon points="125.0,165.0 125.0,190.0 189.0,237.0 258.0,190.0 254.0,162.0" fill="#17eef6" />
<polygon points="140.0,0.0 61.0,11.0 48.0,34.0 67.0,37.0 9.0,88.0 17.0,318.0 84.0,318.0 36.0,255.0 37.0,134.0 1.0,129.0 45.0,126.0 73.0,37.0" fill="#7c534b" />
<polygon points="181.0,308.0 147.0,349.0 91.0,327.0 22.0,327.0 80.0,379.0 168.0,383.0" fill="#7c534b" />
<polygon points="198.0,285.0 212.0,383.0 286.0,383.0 354.0,334.0 302.0,327.0 269.0,342.0 225.0,339.0" fill="#7c534b" />
<polygon points="236.0,0.0 346.0,71.0 343.0,247.0 298.0,301.0 364.0,319.0 383.0,77.0 335.0,13.0" fill="#7c534b" opacity="0.95" />
<polygon points="140.0,0.0 61.0,11.0 9.0,88.0 0.0,279.0 19.0,318.0 82.0,318.0 36.0,255.0 31.0,128.0 76.0,37.0" fill="#7c534b" opacity="0.95" />
<polygon points="125.0,165.0 125.0,190.0 190.0,237.0 258.0,190.0 254.0,162.0" fill="#17eef6" opacity="0.95" />
<polygon points="189.0,37.0 160.0,87.0 191.0,107.0 220.0,88.0" fill="#fe0709" />
<polygon points="127.0,193.0 123.0,206.0 182.0,250.0 181.0,383.0 198.0,383.0 197.0,249.0 259.0,197.0 190.0,239.0" fill="#110d38" />
<polygon points="237.0,0.0 346.0,71.0 343.0,247.0 298.0,301.0 362.0,319.0 383.0,271.0 383.0,77.0 335.0,13.0" fill="#7c534b" opacity="0.95" />
<polygon points="79.0,0.0 0.0,0.0 0.0,122.0 13.0,78.0 53.0,42.0 0.0,37.0 45.0,35.0 50.0,19.0" fill="#5b3c46" />
<polygon points="139.0,0.0 61.0,11.0 9.0,88.0 0.0,280.0 20.0,318.0 82.0,317.0 36.0,255.0 34.0,129.0 76.0,38.0" fill="#7c534b" opacity="0.95" />
<polygon points="125.0,165.0 125.0,190.0 190.0,237.0 258.0,190.0 254.0,162.0" fill="#17eef6" opacity="0.95" />
<polygon points="383.0,327.0 356.0,327.0 356.0,335.0 333.0,356.0 323.0,356.0 287.0,383.0 383.0,383.0" fill="#5b3c46" />
<polygon points="181.0,315.0 147.0,349.0 91.0,327.0 25.0,329.0 81.0,379.0 168.0,383.0" fill="#7c534b" opacity="0.95" />
<polygon points="198.0,302.0 212.0,383.0 285.0,383.0 354.0,335.0 302.0,327.0 269.0,342.0 228.0,339.0" fill="#7c534b" opacity="0.95" />
<polygon points="0.0,326.0 0.0,383.0 97.0,382.0 90.0,374.0 80.0,380.0 78.0,371.0 45.0,356.0 40.0,341.0 19.0,326.0" fill="#5b3c46" />
<polygon points="306.0,0.0 338.0,14.0 352.0,33.0 377.0,34.0 347.0,42.0 383.0,76.0 383.0,0.0" fill="#5b3c46" />
<polygon points="79.0,0.0 0.0,0.0 0.0,122.0 13.0,78.0 52.0,43.0 45.0,37.0 50.0,19.0" fill="#5b3c46" opacity="0.95" />
<polygon points="127.0,194.0 123.0,206.0 182.0,250.0 181.0,383.0 198.0,383.0 197.0,249.0 259.0,197.0 190.0,239.0" fill="#110d38" opacity="0.95" />
<polygon points="383.0,327.0 355.0,328.0 348.0,344.0 287.0,383.0 383.0,383.0" fill="#5b3c46" opacity="0.95" />
<polygon points="189.0,39.0 160.0,87.0 191.0,106.0 219.0,86.0" fill="#fe0709" opacity="0.95" />
<polygon points="0.0,326.0 0.0,383.0 96.0,383.0 45.0,356.0 39.0,339.0 21.0,327.0" fill="#5b3c46" opacity="0.95" />
<polygon points="79.0,0.0 0.0,0.0 0.0,122.0 13.0,78.0 52.0,43.0 48.0,22.0" fill="#5b3c46" opacity="0.95" />
<polygon points="0.0,320.0 0.0,325.0 160.0,325.0" fill="#ece4db" />
<polygon points="169.0,95.0 160.0,108.0 183.0,122.0 183.0,160.0 196.0,161.0 197.0,122.0 220.0,109.0 221.0,102.0 211.0,95.0 190.0,108.0" fill="#110d38" />
<polygon points="127.0,194.0 123.0,206.0 182.0,250.0 181.0,383.0 198.0,383.0 197.0,249.0 259.0,197.0 190.0,239.0" fill="#110d38" opacity="0.95" />
<polygon points="306.0,0.0 345.0,20.0 354.0,34.0 348.0,41.0 351.0,50.0 383.0,76.0 383.0,0.0" fill="#5b3c46" opacity="0.95" />
<polygon points="246.0,322.0 248.0,326.0 383.0,326.0 383.0,320.0" fill="#ece4db" />
<polygon points="189.0,40.0 160.0,87.0 191.0,106.0 219.0,86.0" fill="#fe0709" opacity="0.95" />
<polygon points="383.0,327.0 356.0,328.0 355.0,336.0 333.0,356.0 323.0,356.0 287.0,383.0 383.0,383.0" fill="#5b3c46" opacity="0.95" />
<polygon points="168.0,96.0 160.0,108.0 183.0,122.0 183.0,160.0 195.0,161.0 197.0,121.0 220.0,109.0 221.0,102.0 209.0,96.0 190.0,108.0" fill="#110d38" opacity="0.95" />
<polygon points="0.0,320.0 0.0,325.0 160.0,325.0" fill="#ece4db" opacity="0.95" />
<polygon points="246.0,322.0 249.0,326.0 383.0,326.0 383.0,320.0" fill="#ece4db" opacity="0.95" />
<polygon points="168.0,96.0 160.0,108.0 183.0,122.0 183.0,159.0 194.0,161.0 197.0,122.0 220.0,109.0 221.0,102.0 209.0,96.0 190.0,108.0" fill="#110d38" opacity="0.95" />
<polygon points="115.0,323.0 119.0,320.0 157.0,320.0 161.0,325.0 157.0,328.0 119.0,328.0" fill="#9d745c" opacity="0.95" />
<polygon points="147.0,37.0 149.0,35.0 176.0,35.0 178.0,37.0 176.0,39.0 149.0,39.0" fill="#9d745c" />
<polygon points="199.0,135.0 198.0,136.0 198.0,160.0 199.0,161.0 200.0,160.0 200.0,136.0" fill="#ece4db" />
<polygon points="246.0,322.0 249.0,326.0 277.0,326.0 280.0,324.0 284.0,326.0 287.0,324.0 284.0,320.0 281.0,322.0 277.0,320.0 249.0,320.0" fill="#ece4db" opacity="0.95" />
<polygon points="107.0,37.0 109.0,35.0 114.0,35.0 116.0,37.0 114.0,39.0 109.0,39.0" fill="#9d745c" />
<polygon points="363.0,322.0 363.0,324.0 366.0,326.0 372.0,324.0 375.0,326.0 383.0,326.0 383.0,320.0 375.0,320.0 372.0,322.0 366.0,320.0" fill="#ece4db" opacity="0.95" />
<polygon points="79.0,322.0 79.0,324.0 82.0,326.0 83.0,325.0 92.0,326.0 95.0,324.0 95.0,322.0 92.0,320.0 88.0,321.0 82.0,320.0" fill="#ece4db" opacity="0.95" />
<polygon points="132.0,323.0 132.0,325.0 135.0,327.0 136.0,326.0 142.0,327.0 145.0,325.0 145.0,323.0 142.0,321.0 137.0,322.0 135.0,321.0" fill="#ece4db" opacity="0.95" />
<polygon points="325.0,126.0 326.0,127.0 331.0,127.0 332.0,126.0 334.0,127.0 337.0,126.0 338.0,127.0 339.0,126.0 338.0,125.0 337.0,126.0 335.0,125.0 333.0,126.0 326.0,125.0" fill="#ece4db" />
</svg>