<svg xmlns="http://www.w3.org/2000/svg" width="768" height="768" viewBox="0 0 384 384">
<rect width="384" height="384" fill="#8f6b67"/>
<polygon points="142.0,0.0 149.0,81.0 347.0,114.0 340.0,21.0 228.0,0.0 244.0,83.0 192.0,70.0 201.0,0.0" fill="#e90228" />
<polygon points="76.0,48.0 74.0,85.0 0.0,110.0 159.0,104.0 168.0,383.0 198.0,383.0 182.0,110.0 290.0,148.0 383.0,127.0 111.0,90.0" fill="#232e39" />
<polygon points="0.0,345.0 6.0,365.0 0.0,383.0 167.0,383.0 165.0,354.0 156.0,350.0 160.0,337.0 9.0,330.0" fill="#826759" />
<polygon points="142.0,0.0 149.0,81.0 347.0,114.0 341.0,22.0 229.0,0.0 244.0,83.0 192.0,70.0 200.0,0.0" fill="#e90228" opacity="0.95" />
<polygon points="77.0,48.0 74.0,85.0 0.0,110.0 159.0,104.0 168.0,383.0 198.0,383.0 182.0,111.0 290.0,148.0 383.0,127.0 112.0,90.0" fill="#232e39" opacity="0.95" />
<polygon points="0.0,186.0 45.0,196.0 0.0,202.0 0.0,228.0 34.0,236.0 26.0,241.0 165.0,235.0 155.0,209.0 131.0,204.0 159.0,191.0" fill="#ab8980" />
<polygon points="0.0,152.0 0.0,180.0 160.0,169.0 158.0,153.0" fill="#ab8980" />
<polygon points="373.0,345.0 341.0,328.0 238.0,333.0 235.0,383.0 335.0,383.0 353.0,373.0 360.0,356.0 368.0,359.0" fill="#826759" />
<polygon points="142.0,0.0 149.0,81.0 347.0,114.0 341.0,22.0 229.0,0.0 244.0,83.0 192.0,70.0 199.0,0.0" fill="#e90228" opacity="0.95" />
<polygon points="0.0,88.0 159.0,105.0 168.0,383.0 198.0,383.0 182.0,114.0 383.0,150.0 114.0,90.0 79.0,52.0 72.0,86.0" fill="#232e39" opacity="0.95" />
<polygon points="0.0,345.0 0.0,383.0 167.0,383.0 159.0,337.0 12.0,330.0" fill="#826759" opacity="0.95" />
<polygon points="202.0,0.0 193.0,17.0 194.0,70.0 245.0,81.0 245.0,32.0 237.0,11.0 226.0,0.0" fill="#fbf8f4" />
<polygon points="0.0,244.0 0.0,260.0 165.0,261.0 164.0,244.0" fill="#e1ac3d" />
<polygon points="235.0,158.0 239.0,172.0 351.0,178.0 237.0,190.0 253.0,203.0 236.0,211.0 237.0,237.0 376.0,233.0 358.0,229.0 376.0,222.0 359.0,210.0 383.0,202.0 366.0,187.0 383.0,171.0 264.0,173.0" fill="#ab8980" />
<polygon points="0.0,267.0 19.0,279.0 165.0,293.0 161.0,271.0" fill="#ab8980" />
<polygon points="0.0,273.0 0.0,286.0 35.0,292.0 0.0,306.0 0.0,318.0 101.0,319.0 102.0,308.0 164.0,299.0" fill="#826759" />
<polygon points="159.0,118.0 0.0,115.0 0.0,132.0 133.0,138.0 157.0,133.0" fill="#826759" />
<polygon points="200.0,230.0 201.0,380.0 206.0,359.0 219.0,358.0 222.0,235.0" fill="#9ebfb2" />
<polygon points="373.0,275.0 239.0,284.0 235.0,300.0 254.0,308.0 256.0,318.0 367.0,315.0 362.0,302.0 325.0,292.0" fill="#826759" />
<polygon points="198.0,112.0 197.0,215.0 216.0,222.0 216.0,118.0" fill="#9ebfb2" />
<polygon points="287.0,0.0 345.0,19.0 353.0,114.0 383.0,116.0 383.0,39.0 372.0,35.0 383.0,31.0 383.0,0.0" fill="#232e39" />
<polygon points="373.0,345.0 339.0,328.0 239.0,333.0 235.0,383.0 336.0,383.0" fill="#826759" opacity="0.95" />
<polygon points="160.0,175.0 107.0,173.0 0.0,185.0 159.0,190.0" fill="#d4b2a5" />
<polygon points="0.0,186.0 40.0,194.0 0.0,202.0 0.0,228.0 33.0,241.0 165.0,236.0 159.0,212.0 134.0,205.0 158.0,191.0" fill="#ab8980" opacity="0.95" />
<polygon points="0.0,343.0 6.0,365.0 0.0,383.0 167.0,383.0 158.0,337.0 13.0,330.0" fill="#826759" opacity="0.95" />
<polygon points="199.0,112.0 197.0,215.0 211.0,222.0 232.0,219.0 231.0,123.0" fill="#9ebfb2" opacity="0.95" />
<polygon points="383.0,171.0 239.0,189.0 251.0,204.0 236.0,211.0 237.0,236.0 359.0,234.0 376.0,223.0 359.0,210.0 383.0,202.0 369.0,189.0" fill="#ab8980" opacity="0.95" />
<polygon points="0.0,152.0 0.0,180.0 160.0,170.0 157.0,153.0" fill="#ab8980" opacity="0.95" />
<polygon points="0.0,77.0 72.0,85.0 77.0,47.0 117.0,88.0 132.0,69.0 99.0,76.0 69.0,17.0 132.0,50.0 133.0,9.0 42.0,0.0 73.0,75.0 43.0,35.0 58.0,71.0" fill="#584f4e" />
<polygon points="372.0,346.0 338.0,328.0 237.0,335.0 235.0,383.0 336.0,383.0" fill="#826759" opacity="0.95" />
<polygon points="0.0,319.0 0.0,328.0 166.0,331.0 165.0,322.0" fill="#f1ddd2" />
<polygon points="231.0,234.0 223.0,235.0 219.0,368.0 201.0,383.0 233.0,383.0" fill="#4ca588" />
<polygon points="235.0,141.0 236.0,153.0 308.0,158.0 303.0,168.0 383.0,168.0 383.0,151.0" fill="#584f4e" />
<polygon points="0.0,133.0 0.0,146.0 159.0,147.0 158.0,133.0 133.0,139.0" fill="#584f4e" />
<polygon points="201.0,0.0 193.0,17.0 194.0,70.0 246.0,80.0 245.0,32.0 237.0,11.0 227.0,0.0" fill="#fbf8f4" opacity="0.95" />
<polygon points="200.0,112.0 197.0,215.0 211.0,222.0 231.0,219.0 231.0,123.0" fill="#9ebfb2" opacity="0.95" />
<polygon points="0.0,202.0 0.0,228.0 25.0,230.0 36.0,241.0 165.0,235.0 159.0,213.0 137.0,205.0 157.0,191.0 47.0,189.0 40.0,198.0" fill="#ab8980" opacity="0.95" />
<polygon points="366.0,314.0 360.0,302.0 326.0,293.0 355.0,275.0 239.0,284.0 235.0,295.0 257.0,318.0" fill="#826759" opacity="0.95" />
<polygon points="235.0,189.0 350.0,178.0 236.0,172.0" fill="#d4b2a5" />
<polygon points="383.0,316.0 237.0,321.0 234.0,330.0 383.0,324.0" fill="#f1ddd2" />
<polygon points="383.0,239.0 237.0,244.0 235.0,261.0 255.0,258.0 261.0,249.0 267.0,256.0 383.0,248.0" fill="#e1ac3d" />
<polygon points="222.0,118.0 221.0,219.0 226.0,221.0 234.0,219.0 231.0,123.0" fill="#9ebfb2" />
<polygon points="0.0,0.0 0.0,76.0 58.0,70.0 61.0,53.0 37.0,39.0 68.0,33.0 37.0,17.0 31.0,43.0 5.0,42.0 3.0,22.0 19.0,5.0" fill="#232e39" />
<polygon points="0.0,244.0 0.0,260.0 165.0,261.0 163.0,244.0" fill="#e1ac3d" opacity="0.95" />
<polygon points="383.0,171.0 239.0,189.0 250.0,204.0 236.0,211.0 238.0,235.0 371.0,226.0 376.0,220.0 359.0,210.0 383.0,202.0 373.0,189.0" fill="#ab8980" opacity="0.95" />
<polygon points="0.0,267.0 19.0,279.0 165.0,293.0 161.0,271.0" fill="#ab8980" opacity="0.95" />
<polygon points="201.0,230.0 202.0,376.0 206.0,359.0 219.0,352.0 222.0,235.0" fill="#9ebfb2" opacity="0.95" />
<polygon points="290.0,0.0 345.0,19.0 353.0,114.0 383.0,116.0 383.0,39.0 373.0,36.0 383.0,31.0 383.0,0.0" fill="#232e39" opacity="0.95" />
<polygon points="201.0,0.0 193.0,17.0 194.0,70.0 245.0,80.0 245.0,32.0 237.0,11.0 227.0,0.0" fill="#fbf8f4" opacity="0.95" />
<polygon points="383.0,314.0 383.0,275.0 354.0,279.0 326.0,292.0 363.0,301.0 367.0,312.0" fill="#584f4e" />
<polygon points="160.0,175.0 107.0,173.0 0.0,185.0 158.0,190.0" fill="#d4b2a5" opacity="0.95" />
<polygon points="199.0,233.0 202.0,365.0 218.0,355.0 222.0,235.0" fill="#9ebfb2" opacity="0.95" />
<polygon points="292.0,0.0 345.0,19.0 353.0,113.0 383.0,116.0 383.0,39.0 375.0,36.0 383.0,31.0 383.0,0.0" fill="#232e39" opacity="0.95" />
<polygon points="383.0,326.0 342.0,330.0 374.0,345.0 367.0,351.0 368.0,360.0 359.0,358.0 347.0,383.0 383.0,383.0" fill="#584f4e" />
<polygon points="0.0,244.0 0.0,260.0 9.0,261.0 165.0,260.0 162.0,244.0" fill="#e1ac3d" opacity="0.95" />
<polygon points="185.0,113.0 184.0,225.0 189.0,227.0" fill="#9ebfb2" />
<polygon points="195.0,114.0 189.0,119.0 189.0,221.0 205.0,224.0 206.0,221.0 196.0,215.0" fill="#0b505b" />
<polygon points="233.0,226.0 223.0,235.0 219.0,368.0 201.0,383.0 233.0,383.0" fill="#4ca588" opacity="0.95" />
<polygon points="0.0,319.0 0.0,328.0 166.0,331.0 163.0,322.0" fill="#f1ddd2" opacity="0.95" />
<polygon points="383.0,235.0 243.0,238.0 233.0,243.0" fill="#d8a576" />
<polygon points="235.0,143.0 237.0,153.0 304.0,157.0 304.0,168.0 383.0,168.0 383.0,151.0" fill="#584f4e" opacity="0.95" />
<polygon points="184.0,91.0 339.0,120.0 351.0,114.0" fill="#fbf8f4" />
<polygon points="383.0,239.0 237.0,244.0 236.0,261.0 262.0,249.0 268.0,256.0 383.0,248.0" fill="#e1ac3d" opacity="0.95" />
<polygon points="0.0,133.0 0.0,146.0 159.0,147.0 157.0,134.0 125.0,139.0" fill="#584f4e" opacity="0.95" />
<polygon points="160.0,175.0 107.0,173.0 8.0,184.0 157.0,190.0" fill="#d4b2a5" opacity="0.95" />
<polygon points="260.0,25.0 341.0,38.0 339.0,69.0 331.0,69.0 326.0,42.0 318.0,46.0 324.0,58.0 318.0,69.0 282.0,55.0 265.0,58.0" fill="#e90228" opacity="0.95" />
<polygon points="34.0,9.0 84.0,54.0 70.0,16.0 93.0,20.0 97.0,50.0 125.0,47.0 118.0,34.0 133.0,23.0 128.0,0.0 110.0,0.0 104.0,15.0 97.0,0.0" fill="#584f4e" opacity="0.95" />
<polygon points="0.0,0.0 0.0,76.0 59.0,69.0 61.0,53.0 37.0,38.0 68.0,33.0 37.0,19.0 34.0,41.0 5.0,42.0 3.0,22.0 19.0,5.0" fill="#232e39" opacity="0.95" />
<polygon points="383.0,316.0 237.0,321.0 234.0,330.0 383.0,324.0" fill="#f1ddd2" opacity="0.95" />
<polygon points="159.0,115.0 157.0,103.0 146.0,112.0 98.0,104.0 105.0,89.0 81.0,110.0 0.0,111.0" fill="#584f4e" />
<polygon points="0.0,261.0 0.0,266.0 165.0,264.0" fill="#d8a576" />
<polygon points="235.0,188.0 343.0,178.0 237.0,172.0" fill="#d4b2a5" opacity="0.95" />
<polygon points="245.0,275.0 297.0,276.0 338.0,271.0 247.0,270.0" fill="#d8a576" />
<polygon points="0.0,319.0 0.0,328.0 166.0,330.0 163.0,322.0" fill="#f1ddd2" opacity="0.95" />
<polygon points="283.0,29.0 317.0,33.0 322.0,40.0 318.0,48.0 323.0,66.0 318.0,69.0 305.0,61.0 290.0,63.0 284.0,54.0" fill="#e90228" opacity="0.95" />
<polygon points="285.0,26.0 290.0,27.0 293.0,32.0 296.0,29.0 302.0,31.0 303.0,61.0 299.0,65.0 290.0,63.0 285.0,57.0 283.0,28.0" fill="#e90228" />
<polygon points="383.0,249.0 334.0,256.0 306.0,252.0 287.0,256.0 294.0,260.0 383.0,257.0" fill="#c67957" />
<polygon points="229.0,234.0 223.0,236.0 219.0,368.0 201.0,383.0 233.0,383.0" fill="#4ca588" opacity="0.95" />
<polygon points="98.0,57.0 103.0,71.0 132.0,64.0 128.0,59.0 132.0,56.0 130.0,52.0 108.0,51.0" fill="#d4b2a5" />
<polygon points="67.0,32.0 38.0,21.0 29.0,44.0 0.0,39.0 0.0,76.0 59.0,69.0 61.0,53.0 37.0,38.0" fill="#232e39" opacity="0.95" />
<polygon points="383.0,316.0 237.0,321.0 234.0,329.0 383.0,324.0" fill="#f1ddd2" opacity="0.95" />
<polygon points="383.0,239.0 237.0,244.0 233.0,253.0 237.0,261.0 263.0,252.0 334.0,255.0 383.0,248.0" fill="#e1ac3d" opacity="0.95" />
<polygon points="285.0,29.0 287.0,58.0 293.0,63.0 305.0,59.0 314.0,67.0 321.0,66.0 322.0,56.0 316.0,47.0 319.0,37.0" fill="#fbf8f4" opacity="0.95" />
<polygon points="383.0,326.0 342.0,330.0 374.0,345.0 369.0,359.0 357.0,360.0 347.0,383.0 383.0,383.0" fill="#584f4e" opacity="0.95" />
<polygon points="264.0,21.0 273.0,23.0 279.0,31.0 277.0,36.0 272.0,37.0 280.0,48.0 277.0,60.0 265.0,58.0 260.0,51.0 262.0,44.0 268.0,44.0 260.0,34.0 260.0,25.0" fill="#e90228" />
<polygon points="308.0,31.0 316.0,32.0 322.0,40.0 316.0,45.0 324.0,58.0 323.0,66.0 318.0,69.0 311.0,67.0 305.0,55.0 311.0,52.0 305.0,43.0 305.0,34.0" fill="#e90228" />
<polygon points="194.0,116.0 189.0,119.0 189.0,220.0 203.0,224.0 205.0,221.0 196.0,216.0" fill="#0b505b" opacity="0.95" />
<polygon points="185.0,115.0 184.0,225.0 188.0,227.0 188.0,119.0" fill="#9ebfb2" opacity="0.95" />
<polygon points="235.0,187.0 322.0,183.0 335.0,178.0 238.0,172.0" fill="#d4b2a5" opacity="0.95" />
<polygon points="286.0,28.0 286.0,56.0 291.0,62.0 300.0,63.0 301.0,34.0 296.0,32.0 294.0,58.0 291.0,30.0" fill="#fbf8f4" />
<polygon points="134.0,0.0 134.0,71.0 137.0,79.0 150.0,89.0 138.0,72.0 137.0,0.0" fill="#900e1e" />
<polygon points="192.0,117.0 189.0,119.0 189.0,219.0 194.0,221.0 197.0,219.0 196.0,119.0" fill="#0b505b" opacity="0.95" />
<polygon points="327.0,35.0 339.0,37.0 342.0,40.0 342.0,43.0 338.0,46.0 339.0,70.0 337.0,72.0 331.0,69.0 330.0,44.0 325.0,41.0" fill="#e90228" />
<polygon points="339.0,236.0 243.0,238.0 234.0,243.0" fill="#d8a576" opacity="0.95" />
<polygon points="245.0,275.0 319.0,275.0 331.0,271.0 248.0,270.0" fill="#d8a576" opacity="0.95" />
<polygon points="132.0,25.0 124.0,28.0 118.0,36.0 121.0,42.0 129.0,46.0 133.0,45.0" fill="#232e39" />
<polygon points="383.0,249.0 334.0,256.0 302.0,252.0 288.0,257.0 372.0,258.0 383.0,257.0" fill="#c67957" opacity="0.95" />
<polygon points="265.0,21.0 273.0,23.0 279.0,31.0 274.0,37.0 280.0,48.0 280.0,56.0 276.0,60.0 265.0,58.0 260.0,51.0 260.0,46.0 265.0,43.0 260.0,34.0 260.0,25.0" fill="#e90228" opacity="0.95" />
<polygon points="26.0,16.0 14.0,24.0 15.0,34.0 18.0,37.0 25.0,37.0 28.0,34.0 29.0,19.0" fill="#d4b2a5" />
<polygon points="383.0,268.0 342.0,269.0 337.0,273.0 379.0,273.0 383.0,272.0" fill="#c67957" />
<polygon points="292.0,259.0 264.0,256.0 236.0,263.0 250.0,265.0 258.0,261.0" fill="#d8a576" />
<polygon points="219.0,143.0 220.0,221.0 217.0,225.0 229.0,227.0 228.0,222.0 220.0,219.0" fill="#0b505b" />
<polygon points="160.0,210.0 159.0,198.0 132.0,204.0 140.0,207.0 155.0,208.0 158.0,211.0" fill="#d4b2a5" />
<polygon points="263.0,23.0 261.0,32.0 272.0,51.0 270.0,53.0 263.0,46.0 262.0,52.0 267.0,58.0 276.0,59.0 278.0,46.0 267.0,30.0 270.0,28.0 275.0,35.0 277.0,30.0 272.0,24.0" fill="#fbf8f4" />
<polygon points="99.0,56.0 101.0,69.0 104.0,71.0 132.0,65.0 129.0,60.0 132.0,56.0 130.0,52.0 108.0,51.0" fill="#d4b2a5" opacity="0.95" />
<polygon points="163.0,240.0 71.0,241.0 69.0,244.0 161.0,243.0" fill="#d8a576" opacity="0.95" />
<polygon points="264.0,23.0 261.0,32.0 267.0,44.0 262.0,47.0 262.0,52.0 266.0,57.0 275.0,59.0 279.0,55.0 278.0,46.0 273.0,39.0 277.0,30.0 273.0,25.0" fill="#fbf8f4" opacity="0.95" />
<polygon points="308.0,33.0 306.0,42.0 317.0,60.0 315.0,62.0 311.0,55.0 307.0,56.0 307.0,60.0 312.0,66.0 320.0,67.0 322.0,56.0 311.0,40.0 313.0,37.0 319.0,43.0 320.0,39.0 316.0,34.0" fill="#fbf8f4" />
<polygon points="236.0,230.0 232.0,223.0 229.0,228.0 196.0,225.0 197.0,227.0" fill="#4ca588" />
<polygon points="261.0,26.0 268.0,43.0 262.0,49.0 266.0,57.0 275.0,59.0 282.0,53.0 293.0,63.0 302.0,60.0 302.0,53.0 292.0,50.0 290.0,30.0 285.0,31.0 281.0,48.0 267.0,32.0 270.0,25.0" fill="#fbf8f4" opacity="0.95" />
<polygon points="245.0,273.0 248.0,277.0 297.0,276.0 300.0,274.0 297.0,270.0 249.0,270.0" fill="#d8a576" opacity="0.95" />
<polygon points="383.0,249.0 358.0,250.0 338.0,254.0 335.0,258.0 344.0,260.0 383.0,257.0" fill="#c67957" opacity="0.95" />
<polygon points="383.0,268.0 344.0,269.0 342.0,270.0 342.0,273.0 379.0,273.0 383.0,272.0" fill="#c67957" opacity="0.95" />
<polygon points="246.0,263.0 250.0,265.0 258.0,261.0 284.0,261.0 286.0,258.0 264.0,256.0 248.0,260.0" fill="#d8a576" opacity="0.95" />
<polygon points="131.0,263.0 99.0,263.0 97.0,266.0 122.0,267.0 129.0,266.0" fill="#d8a576" opacity="0.95" />
<polygon points="349.0,41.0 348.0,42.0 348.0,61.0 349.0,62.0 350.0,61.0 350.0,42.0" fill="#f1ddd2" />
<polygon points="210.0,230.0 211.0,231.0 215.0,230.0 217.0,232.0 232.0,234.0 237.0,233.0 223.0,230.0 216.0,231.0 214.0,229.0" fill="#0b505b" />
<polygon points="291.0,255.0 291.0,257.0 295.0,260.0 318.0,260.0 321.0,258.0 321.0,256.0 318.0,254.0 306.0,252.0 294.0,253.0" fill="#c67957" opacity="0.95" />
<polygon points="233.0,132.0 232.0,133.0 232.0,146.0 233.0,147.0 234.0,146.0 234.0,133.0" fill="#0b505b" />
<polygon points="339.0,16.0 338.0,17.0 344.0,23.0 347.0,29.0 348.0,28.0 344.0,20.0" fill="#f1ddd2" />
<polygon points="220.0,222.0 220.0,224.0 224.0,227.0 229.0,226.0 229.0,223.0 225.0,221.0" fill="#0b505b" opacity="0.95" />
<polygon points="261.0,250.0 260.0,251.0 260.0,255.0 261.0,256.0 263.0,256.0 265.0,254.0 265.0,253.0 263.0,250.0" fill="#c67957" />
<polygon points="350.0,82.0 349.0,83.0 349.0,92.0 350.0,93.0 351.0,92.0 351.0,83.0" fill="#f1ddd2" />
<polygon points="225.0,221.0 222.0,223.0 222.0,225.0 225.0,227.0 228.0,225.0 228.0,223.0" fill="#0b505b" opacity="0.95" />
<polygon points="136.0,63.0 135.0,64.0 134.0,64.0 134.0,71.0 135.0,71.0 136.0,72.0 137.0,71.0 138.0,71.0 138.0,64.0 137.0,64.0" fill="#900e1e" opacity="0.95" />
<polygon points="262.0,250.0 260.0,251.0 260.0,255.0 263.0,256.0 265.0,255.0 265.0,253.0 264.0,251.0" fill="#c67957" opacity="0.95" />
<polygon points="136.0,38.0 135.0,39.0 134.0,39.0 134.0,44.0 135.0,44.0 136.0,45.0 137.0,44.0 138.0,44.0 138.0,39.0 137.0,39.0" fill="#900e1e" opacity="0.95" />
</svg>