<svg xmlns="http://www.w3.org/2000/svg" width="768" height="768" viewBox="0 0 384 384">
<rect width="384" height="384" fill="#846160"/>
<polygon points="0.0,322.0 0.0,383.0 383.0,383.0 383.0,333.0 108.0,333.0 281.0,332.0 170.0,297.0 187.0,274.0 85.0,330.0" fill="#6a5858" />
<polygon points="268.0,127.0 135.0,132.0 171.0,246.0" fill="#378293" />
<polygon points="108.0,0.0 108.0,63.0 153.0,75.0 142.0,78.0 152.0,118.0 238.0,117.0 240.0,88.0 319.0,64.0 333.0,95.0 310.0,117.0 345.0,116.0 342.0,0.0" fill="#ea2c4c" />
<polygon points="0.0,322.0 0.0,383.0 383.0,383.0 383.0,333.0 278.0,339.0 248.0,299.0 177.0,298.0 148.0,274.0 85.0,330.0" fill="#6a5858" opacity="0.95" />
<polygon points="108.0,0.0 108.0,63.0 152.0,73.0 153.0,118.0 237.0,117.0 240.0,89.0 318.0,65.0 333.0,94.0 314.0,117.0 345.0,116.0 342.0,0.0" fill="#ea2c4c" opacity="0.95" />
<polygon points="0.0,330.0 0.0,383.0 383.0,383.0 383.0,333.0 278.0,339.0 248.0,299.0 177.0,298.0 148.0,274.0 103.0,324.0" fill="#6a5858" opacity="0.95" />
<polygon points="268.0,128.0 135.0,132.0 169.0,245.0" fill="#378293" opacity="0.95" />
<polygon points="4.0,7.0 19.0,18.0 0.0,51.0 38.0,57.0 1.0,63.0 20.0,69.0 0.0,73.0 0.0,126.0 118.0,126.0 10.0,118.0 108.0,118.0 73.0,62.0 122.0,71.0 94.0,47.0 96.0,0.0" fill="#814c41" />
<polygon points="108.0,0.0 108.0,62.0 147.0,67.0 154.0,118.0 236.0,117.0 248.0,84.0 318.0,65.0 333.0,95.0 317.0,116.0 345.0,115.0 342.0,0.0" fill="#ea2c4c" opacity="0.95" />
<polygon points="251.0,268.0 273.0,304.0 310.0,322.0 356.0,319.0 383.0,295.0 383.0,274.0 352.0,276.0 337.0,254.0 316.0,261.0 312.0,240.0" fill="#6a5858" />
<polygon points="266.0,128.0 136.0,133.0 170.0,245.0" fill="#378293" opacity="0.95" />
<polygon points="23.0,179.0 8.0,193.0 23.0,224.0 12.0,235.0 30.0,241.0 0.0,249.0 4.0,298.0 42.0,317.0 103.0,298.0 92.0,273.0 41.0,256.0 23.0,228.0 47.0,215.0" fill="#6a5858" />
<polygon points="96.0,0.0 3.0,8.0 19.0,18.0 0.0,51.0 38.0,57.0 4.0,61.0 0.0,126.0 109.0,117.0 53.0,100.0 78.0,90.0 74.0,61.0 108.0,71.0" fill="#814c41" opacity="0.95" />
<polygon points="275.0,141.0 187.0,251.0 194.0,268.0 230.0,265.0 243.0,199.0 281.0,164.0" fill="#378293" />
<polygon points="383.0,126.0 294.0,127.0 300.0,157.0 345.0,155.0 383.0,173.0" fill="#378293" />
<polygon points="251.0,269.0 272.0,303.0 311.0,322.0 355.0,319.0 383.0,295.0 383.0,274.0 349.0,278.0 337.0,255.0 271.0,251.0" fill="#6a5858" opacity="0.95" />
<polygon points="96.0,0.0 25.0,5.0 0.0,24.0 0.0,51.0 38.0,55.0 0.0,73.0 0.0,126.0 58.0,116.0 53.0,94.0 83.0,77.0 75.0,62.0 106.0,70.0" fill="#814c41" opacity="0.95" />
<polygon points="74.0,62.0 94.0,101.0 118.0,83.0 133.0,123.0 268.0,120.0 256.0,84.0 241.0,95.0 245.0,119.0 148.0,119.0 150.0,74.0" fill="#453639" />
<polygon points="118.0,130.0 0.0,130.0 0.0,156.0 40.0,143.0 102.0,154.0" fill="#378293" />
<polygon points="159.0,125.0 120.0,127.0 59.0,229.0 57.0,260.0 119.0,268.0 118.0,249.0 62.0,240.0 122.0,141.0 139.0,162.0 133.0,129.0" fill="#f5de2c" />
<polygon points="22.0,180.0 8.0,195.0 31.0,225.0 12.0,235.0 29.0,242.0 0.0,249.0 4.0,299.0 42.0,317.0 97.0,305.0 91.0,273.0 30.0,242.0 46.0,211.0" fill="#6a5858" opacity="0.95" />
<polygon points="283.0,92.0 264.0,97.0 275.0,125.0 176.0,247.0 184.0,253.0 272.0,142.0 287.0,143.0 268.0,104.0" fill="#edf1f0" />
<polygon points="353.0,76.0 352.0,112.0 383.0,113.0 383.0,76.0" fill="#453639" />
<polygon points="352.0,37.0 351.0,71.0 383.0,72.0 383.0,37.0" fill="#453639" />
<polygon points="251.0,269.0 272.0,303.0 312.0,322.0 354.0,319.0 383.0,295.0 383.0,274.0 360.0,270.0 353.0,287.0 342.0,266.0 316.0,266.0 300.0,234.0" fill="#6a5858" opacity="0.95" />
<polygon points="350.0,0.0 351.0,32.0 383.0,33.0 383.0,0.0" fill="#453639" />
<polygon points="277.0,144.0 187.0,251.0 193.0,267.0 230.0,265.0 237.0,211.0 281.0,164.0" fill="#378293" opacity="0.95" />
<polygon points="0.0,249.0 8.0,300.0 63.0,317.0 67.0,299.0 78.0,308.0 102.0,299.0 82.0,270.0 40.0,258.0 30.0,243.0" fill="#6a5858" opacity="0.95" />
<polygon points="350.0,0.0 351.0,32.0 355.0,34.0 351.0,38.0 351.0,71.0 355.0,73.0 352.0,112.0 383.0,113.0 383.0,0.0" fill="#453639" opacity="0.95" />
<polygon points="383.0,172.0 383.0,126.0 284.0,128.0 293.0,133.0 301.0,156.0 345.0,155.0" fill="#378293" opacity="0.95" />
<polygon points="346.0,180.0 339.0,181.0 331.0,205.0 334.0,229.0 344.0,223.0 354.0,226.0 374.0,204.0 357.0,185.0" fill="#378293" />
<polygon points="340.0,249.0 347.0,265.0 383.0,270.0 383.0,244.0 348.0,239.0" fill="#453639" />
<polygon points="142.0,161.0 134.0,165.0 158.0,243.0 165.0,246.0" fill="#edf1f0" />
<polygon points="281.0,127.0 168.0,254.0 135.0,165.0 158.0,285.0 182.0,281.0 181.0,254.0 286.0,143.0" fill="#edf1f0" opacity="0.95" />
<polygon points="245.0,296.0 234.0,268.0 228.0,279.0 197.0,276.0 190.0,269.0 184.0,285.0 169.0,295.0 205.0,299.0" fill="#3f626f" />
<polygon points="276.0,117.0 177.0,249.0 154.0,257.0 174.0,268.0 151.0,269.0 159.0,286.0 183.0,280.0 180.0,253.0 286.0,144.0" fill="#edf1f0" opacity="0.95" />
<polygon points="116.0,130.0 0.0,130.0 0.0,156.0 40.0,143.0 101.0,154.0" fill="#378293" opacity="0.95" />
<polygon points="134.0,126.0 120.0,127.0 62.0,223.0 57.0,260.0 119.0,268.0 119.0,250.0 63.0,239.0 121.0,143.0 142.0,160.0" fill="#f5de2c" opacity="0.95" />
<polygon points="274.0,187.0 258.0,205.0 293.0,217.0 299.0,228.0 298.0,221.0 304.0,216.0 294.0,192.0 283.0,185.0" fill="#ae917e" />
<polygon points="350.0,0.0 351.0,31.0 355.0,34.0 351.0,39.0 351.0,70.0 355.0,73.0 352.0,111.0 383.0,113.0 383.0,0.0" fill="#453639" opacity="0.95" />
<polygon points="54.0,93.0 69.0,112.0 106.0,101.0 100.0,88.0 114.0,82.0 132.0,122.0 165.0,123.0 149.0,118.0 143.0,72.0 99.0,75.0 78.0,62.0 80.0,90.0" fill="#453639" opacity="0.95" />
<polygon points="320.0,73.0 287.0,82.0 312.0,85.0 319.0,104.0 295.0,115.0 304.0,94.0 291.0,90.0 272.0,104.0 284.0,124.0 346.0,122.0 304.0,118.0 326.0,103.0" fill="#453639" />
<polygon points="114.0,191.0 101.0,196.0 90.0,214.0 82.0,211.0 82.0,221.0 65.0,238.0 69.0,242.0 115.0,246.0 101.0,232.0 108.0,208.0 104.0,201.0" fill="#6a5858" />
<polygon points="161.0,250.0 151.0,263.0 151.0,274.0 159.0,286.0 164.0,288.0 167.0,281.0 171.0,288.0 183.0,280.0 186.0,268.0 180.0,265.0 183.0,259.0 178.0,253.0" fill="#edf1f0" />
<polygon points="321.0,75.0 288.0,81.0 292.0,90.0 273.0,103.0 282.0,123.0 303.0,124.0 304.0,117.0 324.0,107.0 327.0,96.0" fill="#453639" opacity="0.95" />
<polygon points="132.0,126.0 62.0,223.0 57.0,260.0 119.0,267.0 117.0,249.0 64.0,237.0 122.0,143.0 142.0,160.0" fill="#f5de2c" opacity="0.95" />
<polygon points="173.0,293.0 183.0,298.0 244.0,297.0 234.0,273.0 223.0,279.0 191.0,272.0" fill="#3f626f" opacity="0.95" />
<polygon points="242.0,239.0 278.0,245.0 276.0,250.0 308.0,245.0 312.0,234.0 309.0,229.0 298.0,244.0 271.0,236.0 266.0,212.0 256.0,211.0" fill="#ae917e" />
<polygon points="279.0,186.0 260.0,202.0 248.0,238.0 284.0,252.0 310.0,238.0 294.0,245.0 267.0,233.0 266.0,206.0 304.0,219.0 294.0,192.0" fill="#ae917e" opacity="0.95" />
<polygon points="29.0,167.0 38.0,181.0 50.0,181.0 56.0,185.0 75.0,173.0 69.0,165.0 57.0,167.0 51.0,162.0 39.0,164.0 36.0,168.0" fill="#587f88" />
<polygon points="112.0,194.0 105.0,201.0 109.0,208.0 103.0,215.0 106.0,219.0 102.0,224.0 103.0,237.0 107.0,241.0 127.0,239.0 131.0,236.0 129.0,223.0 124.0,218.0 127.0,215.0 118.0,196.0" fill="#3f626f" />
<polygon points="124.0,284.0 72.0,317.0 30.0,317.0 0.0,302.0 0.0,308.0 33.0,323.0 70.0,323.0 104.0,307.0" fill="#f3617e" />
<polygon points="248.0,263.0 251.0,266.0 268.0,257.0 266.0,251.0 275.0,246.0 247.0,240.0" fill="#3f626f" />
<polygon points="284.0,164.0 320.0,245.0 320.0,232.0 296.0,191.0 290.0,165.0" fill="#f5de2c" />
<polygon points="34.0,162.0 0.0,178.0 0.0,207.0 8.0,213.0 0.0,239.0 11.0,235.0 16.0,222.0 4.0,194.0 22.0,179.0 14.0,175.0 26.0,177.0" fill="#3f626f" />
<polygon points="111.0,173.0 137.0,244.0 132.0,206.0" fill="#ea2c4c" />
<polygon points="140.0,162.0 135.0,168.0 158.0,243.0 165.0,246.0" fill="#edf1f0" opacity="0.95" />
<polygon points="369.0,186.0 362.0,190.0 375.0,204.0 359.0,227.0 344.0,224.0 339.0,230.0 357.0,227.0 367.0,231.0 368.0,238.0 383.0,241.0 383.0,195.0 373.0,195.0" fill="#587f88" />
<polygon points="275.0,187.0 254.0,213.0 248.0,237.0 287.0,248.0 288.0,242.0 267.0,233.0 263.0,209.0 304.0,216.0 294.0,192.0" fill="#ae917e" opacity="0.95" />
<polygon points="383.0,303.0 355.0,321.0 306.0,322.0 302.0,326.0 322.0,331.0 351.0,328.0 382.0,312.0" fill="#f3617e" />
<polygon points="115.0,194.0 105.0,201.0 108.0,209.0 102.0,224.0 103.0,237.0 109.0,241.0 130.0,237.0 125.0,209.0" fill="#3f626f" opacity="0.95" />
<polygon points="303.0,168.0 349.0,171.0 383.0,190.0 374.0,176.0 333.0,164.0" fill="#9c213f" />
<polygon points="174.0,293.0 177.0,297.0 205.0,299.0 244.0,296.0 234.0,274.0 223.0,279.0 192.0,272.0" fill="#3f626f" opacity="0.95" />
<polygon points="88.0,93.0 84.0,102.0 71.0,105.0 73.0,110.0 70.0,113.0 62.0,114.0 55.0,109.0 67.0,104.0 53.0,100.0 55.0,91.0 81.0,90.0" fill="#814c41" />
<polygon points="0.0,177.0 40.0,158.0 92.0,168.0 79.0,159.0 42.0,155.0 10.0,165.0" fill="#9c213f" />
<polygon points="0.0,171.0 42.0,154.0 79.0,158.0 92.0,167.0 96.0,162.0 45.0,150.0 18.0,156.0" fill="#ea2c4c" />
<polygon points="128.0,285.0 93.0,316.0 46.0,326.0 72.0,328.0 106.0,312.0" fill="#9c213f" />
<polygon points="81.0,167.0 73.0,163.0 74.0,175.0 54.0,188.0 49.0,183.0 48.0,196.0 44.0,198.0 56.0,198.0 78.0,182.0 82.0,183.0 86.0,176.0" fill="#3f626f" />
<polygon points="31.0,178.0 48.0,212.0 41.0,222.0 57.0,229.0 56.0,223.0 63.0,219.0 52.0,214.0" fill="#ae917e" />
<polygon points="304.0,182.0 308.0,189.0 319.0,172.0 329.0,178.0 329.0,188.0 320.0,192.0 326.0,207.0 339.0,177.0 361.0,187.0 357.0,180.0 315.0,170.0" fill="#587f88" />
<polygon points="313.0,87.0 301.0,88.0 306.0,98.0 297.0,113.0 307.0,110.0 316.0,103.0 318.0,94.0" fill="#ea2c4c" />
<polygon points="244.0,243.0 243.0,258.0 255.0,291.0 272.0,310.0 284.0,315.0 248.0,273.0" fill="#e4c1b0" />
<polygon points="29.0,167.0 34.0,178.0 43.0,173.0 46.0,180.0 57.0,184.0 75.0,173.0 66.0,164.0 47.0,162.0" fill="#587f88" opacity="0.95" />
<polygon points="120.0,288.0 72.0,317.0 30.0,317.0 0.0,302.0 0.0,309.0 33.0,323.0 70.0,323.0 104.0,307.0" fill="#f3617e" opacity="0.95" />
<polygon points="115.0,194.0 104.0,201.0 108.0,209.0 104.0,213.0 106.0,220.0 102.0,232.0 109.0,241.0 130.0,237.0 125.0,209.0" fill="#3f626f" opacity="0.95" />
<polygon points="233.0,262.0 225.0,269.0 194.0,269.0 191.0,266.0 190.0,268.0 197.0,275.0 228.0,278.0 232.0,273.0" fill="#587f88" />
<polygon points="369.0,186.0 364.0,192.0 372.0,197.0 378.0,209.0 363.0,223.0 368.0,238.0 383.0,241.0 383.0,195.0 373.0,194.0" fill="#587f88" opacity="0.95" />
<polygon points="11.0,171.0 0.0,178.0 0.0,207.0 8.0,213.0 0.0,225.0 0.0,239.0 11.0,236.0 15.0,222.0 11.0,206.0 3.0,201.0 18.0,184.0" fill="#3f626f" opacity="0.95" />
<polygon points="70.0,114.0 73.0,118.0 106.0,118.0 109.0,116.0 109.0,107.0 103.0,102.0 88.0,99.0 73.0,104.0" fill="#814c41" opacity="0.95" />
<polygon points="383.0,316.0 342.0,332.0 361.0,330.0" fill="#9c213f" />
<polygon points="383.0,304.0 355.0,321.0 303.0,326.0 322.0,331.0 351.0,328.0 378.0,315.0" fill="#f3617e" opacity="0.95" />
<polygon points="302.0,164.0 342.0,164.0 370.0,172.0 339.0,161.0" fill="#ea2c4c" />
<polygon points="284.0,173.0 259.0,195.0 255.0,202.0 256.0,207.0 275.0,184.0 286.0,178.0" fill="#9c213f" />
<polygon points="0.0,312.0 1.0,316.0 22.0,326.0 36.0,325.0" fill="#9c213f" />
<polygon points="0.0,248.0 21.0,244.0 24.0,241.0 15.0,238.0 6.0,238.0 0.0,240.0" fill="#e4c1b0" />
<polygon points="0.0,302.0 9.0,314.0 40.0,324.0 74.0,322.0 105.0,306.0 47.0,321.0" fill="#f3617e" opacity="0.95" />
<polygon points="88.0,163.0 34.0,156.0 0.0,176.0 39.0,157.0" fill="#9c213f" opacity="0.95" />
<polygon points="369.0,186.0 365.0,192.0 373.0,197.0 378.0,209.0 367.0,219.0 368.0,237.0 383.0,241.0 383.0,195.0 374.0,193.0" fill="#587f88" opacity="0.95" />
<polygon points="304.0,167.0 349.0,171.0 383.0,190.0 383.0,183.0 361.0,170.0 333.0,164.0" fill="#9c213f" opacity="0.95" />
<polygon points="275.0,174.0 256.0,189.0 242.0,217.0 254.0,195.0" fill="#9c213f" />
<polygon points="383.0,304.0 355.0,321.0 307.0,322.0 304.0,326.0 322.0,331.0 351.0,328.0 378.0,315.0" fill="#f3617e" opacity="0.95" />
<polygon points="54.0,229.0 45.0,230.0 40.0,234.0 38.0,242.0 45.0,255.0 48.0,248.0 45.0,241.0 48.0,237.0 56.0,237.0 53.0,233.0" fill="#edf1f0" />
<polygon points="123.0,190.0 122.0,200.0 136.0,234.0 134.0,212.0" fill="#ea2c4c" opacity="0.95" />
<polygon points="166.0,263.0 170.0,263.0 174.0,268.0 174.0,272.0 170.0,275.0 165.0,275.0 162.0,272.0 163.0,266.0" fill="#edf1f0" />
<polygon points="78.0,155.0 27.0,153.0 1.0,165.0 0.0,171.0 31.0,155.0" fill="#ea2c4c" opacity="0.95" />
<polygon points="304.0,207.0 302.0,210.0 306.0,221.0 320.0,244.0 320.0,232.0 309.0,208.0" fill="#f5de2c" opacity="0.95" />
<polygon points="292.0,136.0 288.0,142.0 290.0,147.0 287.0,150.0 292.0,161.0 296.0,158.0 295.0,151.0 297.0,149.0" fill="#587f88" />
<polygon points="114.0,91.0 122.0,117.0 120.0,120.0 123.0,124.0 130.0,121.0 124.0,115.0" fill="#edf1f0" />
<polygon points="43.0,176.0 49.0,181.0 60.0,183.0 74.0,174.0 75.0,169.0 66.0,164.0 57.0,166.0 48.0,162.0 45.0,164.0 46.0,174.0" fill="#587f88" opacity="0.95" />
<polygon points="311.0,86.0 302.0,88.0 306.0,98.0 299.0,109.0 301.0,112.0 313.0,106.0 317.0,101.0 318.0,94.0" fill="#ea2c4c" opacity="0.95" />
<polygon points="232.0,267.0 197.0,268.0 193.0,272.0 201.0,276.0 215.0,275.0 227.0,278.0 232.0,273.0" fill="#587f88" opacity="0.95" />
<polygon points="106.0,172.0 103.0,177.0 113.0,186.0 120.0,197.0 120.0,191.0 116.0,182.0 109.0,173.0" fill="#9c213f" />
<polygon points="283.0,317.0 299.0,325.0 306.0,321.0 304.0,315.0 301.0,320.0 296.0,315.0 292.0,317.0 287.0,314.0" fill="#ae917e" />
<polygon points="32.0,106.0 34.0,104.0 48.0,104.0 50.0,107.0 48.0,109.0 35.0,110.0" fill="#814c41" />
<polygon points="332.0,231.0 329.0,233.0 338.0,240.0 322.0,238.0 325.0,243.0 328.0,241.0 331.0,244.0 332.0,253.0 325.0,259.0 332.0,257.0 340.0,247.0 335.0,244.0 339.0,241.0" fill="#edf1f0" />
<polygon points="263.0,85.0 266.0,88.0 264.0,91.0 268.0,94.0 279.0,90.0 272.0,85.0 267.0,84.0" fill="#814c41" />
<polygon points="306.0,208.0 303.0,213.0 314.0,237.0 318.0,240.0 321.0,238.0 310.0,210.0" fill="#f5de2c" opacity="0.95" />
<polygon points="247.0,218.0 245.0,218.0 243.0,220.0 241.0,235.0 242.0,238.0 245.0,235.0 246.0,236.0 247.0,235.0 249.0,226.0 249.0,221.0" fill="#f3617e" />
<polygon points="19.0,103.0 27.0,103.0 28.0,102.0 30.0,104.0 30.0,114.0 28.0,116.0 25.0,114.0 23.0,109.0 20.0,109.0 17.0,105.0" fill="#814c41" />
<polygon points="259.0,332.0 264.0,336.0 273.0,334.0 280.0,337.0 292.0,335.0 288.0,333.0 265.0,333.0 262.0,328.0" fill="#ae917e" />
<polygon points="253.0,285.0 257.0,294.0 272.0,310.0 280.0,315.0 283.0,314.0 265.0,297.0 257.0,285.0" fill="#e4c1b0" opacity="0.95" />
<polygon points="0.0,248.0 23.0,243.0 23.0,241.0 15.0,238.0 6.0,238.0 0.0,240.0" fill="#e4c1b0" opacity="0.95" />
<polygon points="333.0,171.0 361.0,182.0 364.0,180.0 361.0,177.0 344.0,172.0 342.0,174.0 339.0,171.0" fill="#ae917e" />
<polygon points="130.0,238.0 122.0,242.0 123.0,243.0 122.0,245.0 128.0,249.0 131.0,248.0 130.0,245.0 132.0,243.0" fill="#ae917e" />
<polygon points="287.0,164.0 284.0,166.0 289.0,180.0 293.0,182.0 296.0,180.0 290.0,165.0" fill="#f5de2c" opacity="0.95" />
<polygon points="18.0,105.0 27.0,102.0 32.0,105.0 32.0,108.0 27.0,113.0 19.0,108.0" fill="#814c41" opacity="0.95" />
<polygon points="246.0,218.0 243.0,220.0 242.0,224.0 242.0,235.0 244.0,236.0 247.0,234.0 249.0,226.0 249.0,221.0" fill="#f3617e" opacity="0.95" />
<polygon points="0.0,248.0 16.0,245.0 19.0,243.0 19.0,241.0 15.0,238.0 6.0,238.0 0.0,240.0" fill="#e4c1b0" opacity="0.95" />
<polygon points="287.0,164.0 284.0,166.0 289.0,180.0 293.0,182.0 296.0,180.0 290.0,166.0" fill="#f5de2c" opacity="0.95" />
<polygon points="54.0,30.0 56.0,28.0 64.0,28.0 66.0,30.0 67.0,29.0 69.0,31.0 67.0,33.0 66.0,32.0 65.0,33.0 58.0,34.0 56.0,33.0" fill="#814c41" />
<polygon points="284.0,316.0 285.0,319.0 299.0,325.0 305.0,322.0 305.0,320.0 300.0,320.0 295.0,316.0 292.0,317.0 287.0,314.0" fill="#ae917e" opacity="0.95" />
<polygon points="131.0,230.0 130.0,231.0 132.0,233.0 132.0,241.0 134.0,244.0 135.0,243.0 135.0,236.0 133.0,233.0 133.0,231.0" fill="#f3617e" />
<polygon points="246.0,219.0 243.0,221.0 242.0,224.0 242.0,231.0 245.0,233.0 248.0,231.0 248.0,227.0 249.0,226.0 249.0,221.0" fill="#f3617e" opacity="0.95" />
<polygon points="120.0,262.0 123.0,264.0 125.0,264.0 127.0,262.0 124.0,260.0 122.0,260.0" fill="#e4c1b0" />
</svg>