<svg xmlns="http://www.w3.org/2000/svg" width="768" height="768" viewBox="0 0 384 384">
<rect width="384" height="384" fill="#8b7669"/>
<polygon points="0.0,0.0 8.0,383.0 349.0,383.0 367.0,74.0 229.0,0.0 282.0,304.0 176.0,378.0 108.0,286.0 156.0,0.0" fill="#94705f" />
<polygon points="0.0,0.0 8.0,383.0 349.0,375.0 383.0,96.0 288.0,60.0 336.0,43.0 230.0,0.0 282.0,304.0 176.0,378.0 108.0,287.0 155.0,0.0" fill="#94705f" opacity="0.95" />
<polygon points="0.0,0.0 9.0,383.0 349.0,375.0 383.0,96.0 288.0,60.0 336.0,43.0 230.0,0.0 238.0,261.0 282.0,304.0 176.0,378.0 108.0,287.0 155.0,0.0" fill="#94705f" opacity="0.95" />
<polygon points="244.0,104.0 140.0,109.0 138.0,198.0 180.0,218.0 238.0,206.0 251.0,176.0" fill="#66cdd8" />
<polygon points="245.0,105.0 139.0,110.0 138.0,198.0 180.0,218.0 238.0,206.0 251.0,176.0" fill="#66cdd8" opacity="0.95" />
<polygon points="159.0,0.0 140.0,106.0 236.0,99.0 195.0,63.0 182.0,30.0 224.0,0.0" fill="#fa9679" />
<polygon points="244.0,105.0 139.0,110.0 138.0,198.0 180.0,218.0 238.0,206.0 251.0,176.0" fill="#66cdd8" opacity="0.95" />
<polygon points="211.0,284.0 176.0,286.0 206.0,289.0 204.0,305.0 147.0,296.0 151.0,352.0 174.0,376.0 208.0,372.0 232.0,353.0 241.0,309.0" fill="#181f22" />
<polygon points="299.0,0.0 383.0,89.0 383.0,41.0 352.0,34.0 383.0,31.0 383.0,0.0" fill="#181f22" />
<polygon points="159.0,0.0 140.0,106.0 236.0,99.0 195.0,63.0 182.0,30.0 224.0,0.0" fill="#fa9679" opacity="0.95" />
<polygon points="247.0,202.0 188.0,230.0 141.0,206.0 146.0,265.0 156.0,257.0 175.0,272.0 177.0,244.0 200.0,230.0 212.0,243.0 201.0,266.0 227.0,273.0" fill="#181f22" />
<polygon points="230.0,5.0 195.0,26.0 194.0,38.0 205.0,55.0 242.0,86.0 239.0,23.0" fill="#e2bdb5" />
<polygon points="159.0,0.0 140.0,105.0 236.0,99.0 195.0,63.0 182.0,30.0 224.0,0.0" fill="#fa9679" opacity="0.95" />
<polygon points="113.0,284.0 115.0,304.0 147.0,305.0 150.0,349.0 170.0,374.0 205.0,373.0 229.0,358.0 241.0,314.0 230.0,297.0 190.0,305.0 174.0,293.0 144.0,297.0 144.0,280.0" fill="#181f22" opacity="0.95" />
<polygon points="383.0,258.0 364.0,329.0 371.0,346.0 362.0,348.0 352.0,370.0 357.0,383.0 383.0,383.0" fill="#4e4441" />
<polygon points="300.0,0.0 383.0,89.0 383.0,41.0 353.0,35.0 383.0,31.0 383.0,0.0" fill="#181f22" opacity="0.95" />
<polygon points="247.0,204.0 187.0,228.0 141.0,209.0 146.0,262.0 176.0,271.0 177.0,244.0 199.0,232.0 212.0,243.0 202.0,267.0 228.0,272.0" fill="#181f22" opacity="0.95" />
<polygon points="113.0,285.0 115.0,304.0 147.0,307.0 151.0,352.0 170.0,374.0 205.0,373.0 229.0,358.0 241.0,309.0 228.0,297.0 190.0,305.0 173.0,294.0 147.0,299.0 143.0,284.0" fill="#181f22" opacity="0.95" />
<polygon points="300.0,0.0 383.0,89.0 383.0,41.0 366.0,36.0 383.0,31.0 383.0,0.0" fill="#181f22" opacity="0.95" />
<polygon points="249.0,85.0 253.0,143.0 266.0,122.0 260.0,87.0" fill="#4e4441" />
<polygon points="247.0,206.0 187.0,225.0 142.0,209.0 145.0,259.0 175.0,271.0 177.0,244.0 198.0,232.0 212.0,244.0 202.0,267.0 227.0,272.0" fill="#181f22" opacity="0.95" />
<polygon points="230.0,6.0 193.0,31.0 205.0,55.0 241.0,83.0 245.0,66.0 237.0,41.0 238.0,18.0" fill="#e2bdb5" opacity="0.95" />
<polygon points="383.0,258.0 365.0,329.0 375.0,346.0 358.0,359.0 360.0,383.0 383.0,383.0" fill="#4e4441" opacity="0.95" />
<polygon points="225.0,0.0 183.0,30.0 200.0,68.0 238.0,93.0 231.0,103.0 243.0,102.0 239.0,83.0 193.0,38.0 193.0,27.0 221.0,14.0" fill="#f7ab99" />
<polygon points="354.0,72.0 349.0,61.0 337.0,54.0 301.0,60.0 347.0,74.0" fill="#e2bdb5" />
<polygon points="231.0,6.0 193.0,31.0 205.0,55.0 240.0,82.0 245.0,66.0 237.0,41.0 238.0,18.0" fill="#e2bdb5" opacity="0.95" />
<polygon points="383.0,258.0 365.0,330.0 376.0,345.0 358.0,359.0 360.0,383.0 383.0,383.0" fill="#4e4441" opacity="0.95" />
<polygon points="251.0,275.0 249.0,287.0 243.0,292.0 249.0,297.0 251.0,308.0 277.0,311.0 281.0,302.0 281.0,290.0 254.0,289.0" fill="#181f22" />
<polygon points="294.0,0.0 362.0,70.0 323.0,23.0" fill="#4e4441" />
<polygon points="253.0,274.0 255.0,288.0 266.0,290.0 270.0,288.0 274.0,290.0 279.0,289.0 277.0,274.0" fill="#4e4441" />
<polygon points="226.0,2.0 183.0,30.0 200.0,68.0 242.0,102.0 236.0,79.0 193.0,38.0 193.0,27.0 221.0,14.0" fill="#f7ab99" opacity="0.95" />
<polygon points="250.0,85.0 249.0,109.0 254.0,140.0 266.0,122.0 260.0,87.0" fill="#4e4441" opacity="0.95" />
<polygon points="364.0,75.0 339.0,51.0 289.0,58.0 346.0,76.0 300.0,60.0 337.0,53.0 350.0,61.0 353.0,76.0" fill="#b69f93" />
<polygon points="148.0,15.0 140.0,54.0 138.0,78.0 141.0,80.0" fill="#e2bdb5" />
<polygon points="115.0,270.0 114.0,273.0 117.0,276.0 115.0,281.0 117.0,283.0 133.0,285.0 140.0,284.0 140.0,275.0 137.0,270.0" fill="#4e4441" />
<polygon points="304.0,59.0 304.0,62.0 353.0,73.0 349.0,61.0 337.0,54.0" fill="#e2bdb5" opacity="0.95" />
<polygon points="178.0,294.0 178.0,300.0 184.0,303.0 200.0,304.0 211.0,301.0 211.0,295.0 208.0,293.0 191.0,295.0 182.0,291.0" fill="#94705f" />
<polygon points="187.0,22.0 196.0,63.0 243.0,101.0 239.0,83.0 193.0,38.0 195.0,25.0 223.0,10.0" fill="#f7ab99" opacity="0.95" />
<polygon points="197.0,282.0 228.0,280.0 229.0,276.0 213.0,274.0 203.0,269.0 204.0,273.0" fill="#dde0dd" />
<polygon points="326.0,13.0 333.0,22.0 341.0,24.0 346.0,28.0 350.0,28.0 355.0,24.0 355.0,21.0 348.0,15.0 332.0,11.0" fill="#4e4441" />
<polygon points="251.0,85.0 248.0,87.0 251.0,132.0 255.0,136.0 265.0,124.0 266.0,114.0 261.0,89.0" fill="#4e4441" opacity="0.95" />
<polygon points="157.0,259.0 149.0,268.0 148.0,278.0 150.0,280.0 155.0,281.0 158.0,280.0 158.0,260.0" fill="#49b69b" />
<polygon points="192.0,283.0 183.0,273.0 185.0,268.0 176.0,273.0 165.0,273.0 162.0,277.0 181.0,280.0 189.0,284.0" fill="#dde0dd" />
<polygon points="306.0,59.0 312.0,65.0 347.0,74.0 352.0,72.0 349.0,61.0 337.0,54.0" fill="#e2bdb5" opacity="0.95" />
<polygon points="178.0,294.0 178.0,300.0 184.0,303.0 200.0,304.0 211.0,301.0 211.0,295.0 208.0,293.0 191.0,295.0 183.0,291.0" fill="#94705f" opacity="0.95" />
<polygon points="139.0,80.0 136.0,98.0 136.0,116.0 140.0,93.0" fill="#dde0dd" />
<polygon points="339.0,235.0 341.0,233.0 353.0,233.0 356.0,234.0 358.0,236.0 358.0,238.0 356.0,240.0 346.0,240.0 341.0,238.0" fill="#94705f" />
<polygon points="306.0,275.0 313.0,270.0 314.0,271.0 323.0,271.0 325.0,273.0 323.0,275.0 317.0,277.0 308.0,277.0" fill="#94705f" />
<polygon points="241.0,267.0 238.0,270.0 234.0,267.0 233.0,268.0 233.0,283.0 234.0,284.0 237.0,284.0 241.0,279.0 241.0,272.0 242.0,271.0" fill="#49b69b" />
<polygon points="156.0,261.0 150.0,265.0 148.0,279.0 155.0,281.0 158.0,280.0 158.0,262.0" fill="#49b69b" opacity="0.95" />
<polygon points="178.0,294.0 178.0,300.0 184.0,303.0 200.0,304.0 211.0,301.0 211.0,295.0 208.0,293.0 191.0,295.0 183.0,291.0" fill="#94705f" opacity="0.95" />
<polygon points="201.0,277.0 201.0,280.0 203.0,281.0 229.0,279.0 229.0,276.0 225.0,274.0 213.0,274.0 208.0,271.0 204.0,272.0" fill="#dde0dd" opacity="0.95" />
<polygon points="232.0,294.0 231.0,295.0 231.0,301.0 235.0,305.0 240.0,305.0 242.0,303.0 243.0,296.0 241.0,294.0 239.0,296.0 235.0,296.0" fill="#07513a" />
<polygon points="242.0,279.0 237.0,285.0 233.0,285.0 232.0,286.0 232.0,292.0 235.0,295.0 239.0,295.0 242.0,292.0 242.0,286.0 243.0,285.0 243.0,280.0" fill="#118e67" />
<polygon points="238.0,27.0 238.0,41.0 242.0,54.0 242.0,44.0" fill="#dde0dd" />
<polygon points="201.0,277.0 204.0,281.0 223.0,281.0 228.0,278.0 225.0,274.0 213.0,274.0 208.0,271.0" fill="#dde0dd" opacity="0.95" />
<polygon points="149.0,280.0 148.0,281.0 148.0,286.0 151.0,289.0 156.0,290.0 158.0,288.0 158.0,283.0 157.0,282.0 150.0,281.0" fill="#118e67" />
<polygon points="186.0,280.0 185.0,274.0 181.0,271.0 176.0,273.0 166.0,273.0 163.0,275.0 163.0,278.0 165.0,279.0 175.0,279.0 182.0,281.0" fill="#dde0dd" opacity="0.95" />
<polygon points="189.0,239.0 187.0,240.0 190.0,243.0 188.0,245.0 185.0,243.0 180.0,244.0 182.0,247.0 180.0,249.0 181.0,258.0 184.0,261.0 185.0,255.0 183.0,253.0 191.0,244.0" fill="#b69f93" />
<polygon points="215.0,291.0 216.0,292.0 220.0,292.0 221.0,293.0 227.0,293.0 228.0,292.0 228.0,288.0 227.0,287.0 218.0,287.0" fill="#dde0dd" />
<polygon points="180.0,262.0 177.0,269.0 178.0,271.0 185.0,267.0" fill="#94705f" />
<polygon points="340.0,235.0 343.0,233.0 353.0,233.0 357.0,235.0 358.0,238.0 355.0,240.0 346.0,240.0 341.0,238.0" fill="#94705f" opacity="0.95" />
<polygon points="155.0,262.0 150.0,266.0 148.0,275.0 149.0,279.0 155.0,281.0 158.0,279.0 158.0,264.0" fill="#49b69b" opacity="0.95" />
<polygon points="148.0,288.0 147.0,289.0 147.0,293.0 154.0,298.0 156.0,298.0 158.0,296.0 158.0,292.0 157.0,291.0 153.0,291.0" fill="#07513a" />
<polygon points="243.0,283.0 241.0,282.0 232.0,286.0 233.0,294.0 238.0,295.0 242.0,292.0" fill="#118e67" opacity="0.95" />
<polygon points="310.0,54.0 294.0,55.0 290.0,57.0 289.0,60.0 300.0,65.0 302.0,64.0 302.0,60.0 310.0,56.0" fill="#b69f93" opacity="0.95" />
<polygon points="239.0,269.0 238.0,270.0 236.0,269.0 233.0,270.0 233.0,283.0 235.0,284.0 238.0,283.0 241.0,279.0 241.0,270.0" fill="#49b69b" opacity="0.95" />
<polygon points="185.0,279.0 185.0,275.0 180.0,271.0 176.0,273.0 166.0,273.0 163.0,275.0 163.0,277.0 166.0,279.0 175.0,279.0 182.0,281.0" fill="#dde0dd" opacity="0.95" />
<polygon points="190.0,251.0 194.0,255.0 198.0,251.0 197.0,250.0 191.0,250.0" fill="#b69f93" />
<polygon points="236.0,269.0 233.0,271.0 233.0,282.0 236.0,284.0 241.0,279.0 241.0,272.0" fill="#49b69b" opacity="0.95" />
<polygon points="231.0,296.0 231.0,301.0 234.0,304.0 239.0,305.0 242.0,303.0 243.0,296.0 241.0,295.0 239.0,296.0 234.0,295.0" fill="#07513a" opacity="0.95" />
<polygon points="148.0,282.0 148.0,287.0 151.0,289.0 155.0,290.0 158.0,288.0 158.0,283.0 154.0,281.0" fill="#118e67" opacity="0.95" />
<polygon points="198.0,243.0 197.0,244.0 198.0,246.0 204.0,252.0 205.0,252.0 207.0,250.0 206.0,248.0 204.0,246.0 203.0,247.0" fill="#b69f93" />
<polygon points="173.0,290.0 170.0,286.0 168.0,287.0 164.0,287.0 163.0,288.0 163.0,291.0 164.0,292.0 166.0,292.0 167.0,291.0 172.0,291.0" fill="#dde0dd" />
<polygon points="161.0,266.0 159.0,268.0 159.0,277.0 160.0,278.0 162.0,275.0 161.0,272.0 163.0,270.0 163.0,268.0" fill="#07513a" />
<polygon points="147.0,290.0 147.0,293.0 155.0,298.0 158.0,296.0 158.0,292.0 153.0,291.0 150.0,289.0" fill="#07513a" opacity="0.95" />
<polygon points="239.0,284.0 232.0,287.0 232.0,292.0 236.0,295.0 238.0,295.0 242.0,292.0 242.0,286.0" fill="#118e67" opacity="0.95" />
<polygon points="323.0,273.0 322.0,272.0 319.0,272.0 318.0,273.0 313.0,273.0 308.0,275.0 309.0,276.0 315.0,276.0 316.0,275.0 320.0,275.0" fill="#e2bdb5" />
<polygon points="352.0,66.0 354.0,75.0 356.0,76.0 364.0,75.0 364.0,73.0 359.0,71.0 356.0,66.0 354.0,65.0" fill="#b69f93" opacity="0.95" />
<polygon points="352.0,234.0 351.0,235.0 351.0,238.0 352.0,239.0 356.0,239.0 357.0,238.0 357.0,236.0 356.0,235.0 354.0,235.0 353.0,234.0" fill="#f7ab99" />
<polygon points="151.0,5.0 147.0,11.0 147.0,13.0 146.0,14.0 147.0,15.0 148.0,14.0 149.0,15.0 151.0,13.0 151.0,11.0 152.0,10.0 152.0,6.0" fill="#b69f93" />
<polygon points="289.0,58.0 289.0,60.0 291.0,62.0 296.0,64.0 299.0,63.0 301.0,59.0 301.0,57.0 298.0,55.0 294.0,55.0" fill="#b69f93" opacity="0.95" />
<polygon points="148.0,283.0 148.0,286.0 151.0,289.0 155.0,290.0 158.0,288.0 158.0,284.0 156.0,282.0 151.0,281.0" fill="#118e67" opacity="0.95" />
<polygon points="231.0,297.0 231.0,301.0 234.0,304.0 239.0,305.0 242.0,303.0 243.0,300.0 242.0,296.0 240.0,295.0 239.0,296.0 235.0,296.0 234.0,295.0" fill="#07513a" opacity="0.95" />
<polygon points="340.0,235.0 340.0,236.0 343.0,238.0 344.0,238.0 346.0,236.0 346.0,235.0 345.0,234.0 341.0,234.0" fill="#f7ab99" />
<polygon points="147.0,291.0 148.0,294.0 155.0,298.0 158.0,296.0 158.0,293.0 150.0,289.0" fill="#07513a" opacity="0.95" />
<polygon points="184.0,243.0 182.0,244.0 182.0,246.0 183.0,246.0 184.0,247.0 184.0,249.0 186.0,250.0 189.0,248.0 189.0,246.0" fill="#b69f93" opacity="0.95" />
<polygon points="351.0,235.0 351.0,238.0 353.0,239.0 355.0,239.0 357.0,238.0 357.0,236.0 353.0,234.0" fill="#f7ab99" opacity="0.95" />
<polygon points="147.0,18.0 145.0,19.0 145.0,23.0 144.0,24.0 144.0,28.0 146.0,29.0 148.0,28.0 148.0,23.0 149.0,22.0 149.0,19.0" fill="#e2bdb5" opacity="0.95" />
<polygon points="141.0,66.0 140.0,67.0 139.0,67.0 139.0,72.0 140.0,72.0 141.0,73.0 142.0,72.0 143.0,72.0 143.0,67.0 142.0,67.0" fill="#e2bdb5" opacity="0.95" />
<polygon points="358.0,70.0 355.0,72.0 355.0,74.0 358.0,76.0 361.0,74.0 361.0,72.0" fill="#b69f93" opacity="0.95" />
</svg>