<svg xmlns="http://www.w3.org/2000/svg" width="768" height="768" viewBox="0 0 384 384">
<rect width="384" height="384" fill="#8c7168"/>
<polygon points="0.0,0.0 2.0,218.0 133.0,217.0 167.0,72.0 70.0,70.0 123.0,47.0 101.0,15.0 135.0,47.0 295.0,16.0 272.0,46.0 326.0,70.0 225.0,73.0 262.0,217.0 383.0,218.0 383.0,0.0" fill="#793f36" />
<polygon points="0.0,0.0 1.0,217.0 133.0,217.0 167.0,72.0 67.0,61.0 198.0,22.0 329.0,62.0 226.0,72.0 262.0,217.0 383.0,218.0 383.0,0.0" fill="#793f36" opacity="0.95" />
<polygon points="0.0,0.0 0.0,216.0 132.0,217.0 167.0,73.0 67.0,62.0 198.0,22.0 329.0,62.0 225.0,75.0 262.0,216.0 383.0,218.0 383.0,0.0" fill="#793f36" opacity="0.95" />
<polygon points="158.0,84.0 133.0,145.0 139.0,204.0 249.0,208.0 261.0,147.0 238.0,86.0 226.0,87.0 215.0,115.0 177.0,116.0" fill="#8de1e3" />
<polygon points="0.0,326.0 0.0,383.0 178.0,383.0 163.0,378.0 173.0,367.0 131.0,342.0 159.0,326.0" fill="#b2958e" />
<polygon points="209.0,383.0 383.0,383.0 383.0,326.0 234.0,325.0 228.0,331.0 264.0,340.0 216.0,367.0 224.0,378.0" fill="#b2958e" />
<polygon points="155.0,319.0 131.0,305.0 98.0,308.0 120.0,294.0 147.0,294.0 144.0,265.0 0.0,268.0 0.0,319.0" fill="#b2958e" />
<polygon points="157.0,85.0 133.0,145.0 139.0,204.0 252.0,206.0 261.0,147.0 238.0,86.0 214.0,115.0 177.0,116.0" fill="#8de1e3" opacity="0.95" />
<polygon points="0.0,219.0 0.0,245.0 136.0,243.0 132.0,220.0" fill="#decdc7" />
<polygon points="336.0,273.0 252.0,280.0 219.0,323.0 216.0,284.0 172.0,284.0 170.0,319.0 154.0,313.0 166.0,331.0 132.0,342.0 179.0,369.0 167.0,380.0 219.0,380.0 210.0,368.0 262.0,342.0 226.0,329.0 331.0,309.0 314.0,292.0" fill="#120e0e" />
<polygon points="146.0,267.0 0.0,268.0 0.0,383.0 169.0,383.0 174.0,368.0 131.0,342.0 153.0,313.0 98.0,308.0 146.0,293.0" fill="#b2958e" opacity="0.95" />
<polygon points="260.0,244.0 383.0,244.0 383.0,220.0 263.0,220.0" fill="#decdc7" />
<polygon points="0.0,247.0 0.0,265.0 140.0,264.0 135.0,245.0" fill="#fac754" />
<polygon points="157.0,85.0 133.0,145.0 139.0,204.0 250.0,207.0 261.0,147.0 239.0,88.0 226.0,87.0 214.0,115.0 177.0,116.0" fill="#8de1e3" opacity="0.95" />
<polygon points="0.0,326.0 0.0,383.0 171.0,383.0 163.0,376.0 174.0,368.0 131.0,342.0 158.0,326.0" fill="#b2958e" opacity="0.95" />
<polygon points="214.0,368.0 224.0,375.0 215.0,383.0 383.0,383.0 383.0,326.0 234.0,325.0 263.0,342.0" fill="#b2958e" opacity="0.95" />
<polygon points="255.0,261.0 383.0,265.0 383.0,245.0 260.0,245.0" fill="#bb761c" />
<polygon points="163.0,262.0 162.0,282.0 229.0,281.0 224.0,256.0 205.0,242.0 181.0,243.0" fill="#8de1e3" />
<polygon points="146.0,267.0 3.0,266.0 0.0,319.0 152.0,320.0 152.0,311.0 131.0,305.0 98.0,308.0 120.0,294.0 148.0,293.0" fill="#b2958e" opacity="0.95" />
<polygon points="383.0,266.0 337.0,268.0 338.0,280.0 316.0,293.0 332.0,310.0 301.0,305.0 273.0,320.0 383.0,319.0" fill="#b2958e" />
<polygon points="336.0,273.0 253.0,280.0 220.0,322.0 217.0,285.0 173.0,284.0 164.0,331.0 132.0,342.0 178.0,368.0 166.0,379.0 212.0,383.0 262.0,342.0 235.0,321.0 329.0,310.0 315.0,292.0" fill="#120e0e" opacity="0.95" />
<polygon points="383.0,266.0 338.0,268.0 318.0,292.0 330.0,311.0 301.0,305.0 283.0,326.0 232.0,326.0 263.0,342.0 217.0,367.0 218.0,383.0 383.0,383.0" fill="#b2958e" opacity="0.95" />
<polygon points="0.0,219.0 0.0,245.0 136.0,243.0 131.0,220.0" fill="#decdc7" opacity="0.95" />
<polygon points="239.0,37.0 206.0,24.0 178.0,26.0 150.0,41.0 151.0,66.0 167.0,70.0 171.0,95.0 192.0,106.0 173.0,91.0 176.0,63.0 197.0,53.0 221.0,72.0 240.0,68.0" fill="#decdc7" />
<polygon points="189.0,58.0 175.0,70.0 173.0,88.0 186.0,102.0 205.0,102.0 218.0,89.0 218.0,73.0 207.0,60.0" fill="#fd1107" />
<polygon points="336.0,274.0 253.0,280.0 222.0,321.0 216.0,285.0 174.0,284.0 162.0,330.0 132.0,342.0 176.0,368.0 171.0,383.0 216.0,383.0 262.0,342.0 235.0,321.0 329.0,310.0 316.0,292.0" fill="#120e0e" opacity="0.95" />
<polygon points="0.0,247.0 0.0,265.0 139.0,264.0 134.0,245.0" fill="#fac754" opacity="0.95" />
<polygon points="259.0,238.0 261.0,244.0 383.0,244.0 383.0,220.0 264.0,220.0" fill="#decdc7" opacity="0.95" />
<polygon points="133.0,194.0 142.0,244.0 165.0,218.0 225.0,218.0 241.0,228.0 240.0,248.0 253.0,251.0 259.0,193.0 246.0,210.0 147.0,210.0" fill="#399d9f" />
<polygon points="252.0,278.0 307.0,279.0 329.0,269.0 301.0,263.0 383.0,265.0 383.0,245.0 261.0,245.0" fill="#bb761c" opacity="0.95" />
<polygon points="0.0,219.0 0.0,245.0 136.0,242.0 130.0,220.0" fill="#decdc7" opacity="0.95" />
<polygon points="152.0,229.0 153.0,234.0 241.0,233.0 239.0,227.0 228.0,220.0 163.0,220.0" fill="#120e0e" />
<polygon points="383.0,266.0 337.0,268.0 338.0,280.0 317.0,292.0 332.0,310.0 301.0,305.0 276.0,319.0 383.0,319.0" fill="#b2958e" opacity="0.95" />
<polygon points="150.0,41.0 151.0,66.0 171.0,74.0 178.0,60.0 196.0,53.0 222.0,72.0 243.0,66.0 243.0,41.0 215.0,26.0 182.0,25.0" fill="#decdc7" opacity="0.95" />
<polygon points="150.0,269.0 163.0,282.0 229.0,281.0 222.0,253.0 200.0,241.0 177.0,245.0 163.0,262.0 154.0,258.0" fill="#8de1e3" opacity="0.95" />
<polygon points="0.0,247.0 0.0,265.0 139.0,263.0 133.0,245.0" fill="#fac754" opacity="0.95" />
<polygon points="259.0,238.0 262.0,244.0 383.0,244.0 383.0,220.0 265.0,220.0" fill="#decdc7" opacity="0.95" />
<polygon points="252.0,277.0 307.0,279.0 323.0,273.0 326.0,263.0 383.0,265.0 383.0,245.0 261.0,245.0" fill="#bb761c" opacity="0.95" />
<polygon points="251.0,278.0 307.0,279.0 331.0,270.0 254.0,268.0" fill="#bb761c" />
<polygon points="150.0,41.0 155.0,68.0 170.0,72.0 196.0,53.0 222.0,72.0 243.0,66.0 243.0,41.0 215.0,26.0 182.0,25.0" fill="#decdc7" opacity="0.95" />
<polygon points="189.0,58.0 175.0,70.0 173.0,88.0 186.0,102.0 205.0,102.0 218.0,89.0 218.0,73.0 207.0,60.0" fill="#fd1107" opacity="0.95" />
<polygon points="150.0,269.0 164.0,282.0 229.0,280.0 222.0,253.0 200.0,241.0 177.0,245.0 161.0,265.0 154.0,263.0" fill="#8de1e3" opacity="0.95" />
<polygon points="0.0,325.0 154.0,322.0 0.0,321.0" fill="#e9f0f0" />
<polygon points="261.0,196.0 246.0,210.0 147.0,210.0 135.0,200.0 140.0,242.0 165.0,218.0 225.0,218.0 239.0,225.0 241.0,249.0 251.0,252.0" fill="#399d9f" opacity="0.95" />
<polygon points="152.0,229.0 154.0,234.0 241.0,233.0 239.0,227.0 228.0,220.0 163.0,220.0" fill="#120e0e" opacity="0.95" />
<polygon points="259.0,48.0 260.0,67.0 267.0,62.0 294.0,64.0 295.0,52.0 293.0,50.0" fill="#fd1107" />
<polygon points="189.0,58.0 175.0,70.0 173.0,88.0 186.0,102.0 205.0,102.0 218.0,89.0 218.0,73.0 207.0,60.0" fill="#fd1107" opacity="0.95" />
<polygon points="135.0,50.0 130.0,47.0 100.0,51.0 98.0,53.0 99.0,65.0 112.0,62.0 134.0,64.0" fill="#fd1107" />
<polygon points="259.0,205.0 147.0,210.0 137.0,204.0 134.0,219.0 143.0,243.0 165.0,218.0 229.0,219.0 242.0,230.0 241.0,248.0 250.0,251.0" fill="#399d9f" opacity="0.95" />
<polygon points="209.0,301.0 195.0,300.0 198.0,304.0 197.0,312.0 193.0,315.0 183.0,313.0 179.0,326.0 208.0,328.0 210.0,326.0" fill="#413231" />
<polygon points="99.0,306.0 102.0,310.0 119.0,304.0 152.0,307.0 147.0,296.0 118.0,296.0" fill="#120e0e" />
<polygon points="208.0,299.0 211.0,326.0 205.0,330.0 181.0,329.0 178.0,326.0 180.0,315.0 185.0,311.0 190.0,314.0 196.0,312.0 197.0,304.0 193.0,301.0 195.0,299.0" fill="#120e0e" />
<polygon points="199.0,122.0 201.0,124.0 199.0,190.0 196.0,192.0 194.0,190.0 196.0,124.0" fill="#8de1e3" />
<polygon points="277.0,323.0 383.0,324.0 383.0,321.0" fill="#e9f0f0" />
<polygon points="175.0,241.0 209.0,240.0 231.0,261.0 230.0,247.0 214.0,236.0 186.0,234.0" fill="#1e7074" />
<polygon points="152.0,229.0 155.0,234.0 240.0,232.0 239.0,227.0 228.0,220.0 163.0,220.0" fill="#120e0e" opacity="0.95" />
<polygon points="255.0,265.0 301.0,268.0 337.0,266.0" fill="#793f36" />
<polygon points="149.0,46.0 101.0,51.0 99.0,65.0 136.0,61.0 139.0,66.0 147.0,68.0" fill="#fd1107" opacity="0.95" />
<polygon points="233.0,252.0 233.0,293.0 236.0,298.0 242.0,291.0 243.0,282.0 240.0,265.0" fill="#8cc6c2" />
<polygon points="295.0,55.0 296.0,62.0 327.0,67.0 326.0,60.0" fill="#e9f0f0" />
<polygon points="223.0,97.0 201.0,108.0 183.0,106.0 171.0,97.0 170.0,107.0 176.0,114.0 190.0,111.0 214.0,114.0 221.0,107.0" fill="#122d30" />
<polygon points="230.0,265.0 230.0,290.0 219.0,299.0 221.0,316.0 231.0,310.0 232.0,268.0" fill="#16585e" />
<polygon points="199.0,123.0 197.0,124.0 196.0,191.0 198.0,190.0" fill="#e9f0f0" />
<polygon points="210.0,301.0 209.0,328.0 197.0,330.0 182.0,329.0 178.0,326.0 183.0,312.0 196.0,312.0 196.0,300.0" fill="#120e0e" opacity="0.95" />
<polygon points="296.0,17.0 302.0,25.0 300.0,34.0 294.0,39.0 280.0,38.0 280.0,22.0 290.0,15.0" fill="#793f36" opacity="0.95" />
<polygon points="252.0,265.0 237.0,306.0 221.0,319.0 240.0,307.0" fill="#decdc7" />
<polygon points="259.0,48.0 259.0,66.0 261.0,67.0 267.0,62.0 294.0,64.0 294.0,51.0" fill="#fd1107" opacity="0.95" />
<polygon points="93.0,21.0 101.0,15.0 111.0,18.0 115.0,25.0 115.0,37.0 112.0,39.0 97.0,37.0 92.0,30.0" fill="#793f36" opacity="0.95" />
<polygon points="151.0,240.0 142.0,246.0 144.0,259.0 147.0,264.0 151.0,263.0 156.0,253.0" fill="#1e7074" />
<polygon points="218.0,236.0 227.0,242.0 235.0,252.0 237.0,251.0 241.0,240.0 240.0,235.0" fill="#413231" />
<polygon points="97.0,56.0 92.0,55.0 70.0,60.0 68.0,64.0 70.0,68.0 95.0,62.0" fill="#e9f0f0" />
<polygon points="141.0,45.0 139.0,47.0 139.0,66.0 147.0,68.0 149.0,66.0 149.0,46.0 148.0,45.0" fill="#fd1107" />
<polygon points="209.0,301.0 199.0,301.0 197.0,312.0 193.0,315.0 183.0,313.0 179.0,326.0 197.0,329.0 209.0,327.0" fill="#413231" opacity="0.95" />
<polygon points="239.0,249.0 236.0,255.0 242.0,269.0 246.0,270.0 249.0,265.0 251.0,254.0 248.0,251.0" fill="#1e7074" />
<polygon points="149.0,47.0 142.0,45.0 136.0,49.0 102.0,51.0 99.0,63.0 135.0,61.0 146.0,67.0 149.0,65.0" fill="#fd1107" opacity="0.95" />
<polygon points="93.0,21.0 101.0,15.0 111.0,18.0 115.0,25.0 115.0,35.0 106.0,39.0 97.0,37.0 92.0,30.0" fill="#793f36" opacity="0.95" />
<polygon points="152.0,238.0 155.0,244.0 161.0,246.0 164.0,242.0 174.0,236.0 153.0,235.0" fill="#413231" />
<polygon points="159.0,287.0 157.0,305.0 159.0,309.0 166.0,314.0 168.0,312.0 168.0,300.0 162.0,294.0" fill="#16585e" />
<polygon points="290.0,15.0 296.0,17.0 301.0,22.0 302.0,30.0 296.0,38.0 285.0,39.0 280.0,35.0 279.0,25.0 285.0,17.0" fill="#793f36" opacity="0.95" />
<polygon points="210.0,302.0 209.0,328.0 197.0,330.0 182.0,329.0 178.0,326.0 183.0,312.0 192.0,314.0 196.0,312.0 198.0,300.0 206.0,299.0" fill="#120e0e" opacity="0.95" />
<polygon points="150.0,274.0 148.0,280.0 148.0,288.0 151.0,298.0 153.0,296.0 155.0,297.0 157.0,296.0 157.0,278.0 153.0,277.0" fill="#8cc6c2" />
<polygon points="234.0,255.0 232.0,256.0 233.0,293.0 236.0,297.0 242.0,291.0 242.0,276.0 239.0,262.0" fill="#8cc6c2" opacity="0.95" />
<polygon points="209.0,302.0 200.0,301.0 197.0,312.0 193.0,315.0 183.0,313.0 179.0,326.0 197.0,329.0 209.0,327.0" fill="#413231" opacity="0.95" />
<polygon points="259.0,49.0 259.0,62.0 262.0,64.0 282.0,62.0 291.0,65.0 294.0,63.0 294.0,52.0 291.0,50.0 264.0,47.0" fill="#fd1107" opacity="0.95" />
<polygon points="179.0,237.0 181.0,240.0 209.0,240.0 218.0,246.0 227.0,260.0 231.0,260.0 230.0,247.0 214.0,236.0 186.0,234.0" fill="#1e7074" opacity="0.95" />
<polygon points="203.0,236.0 226.0,257.0 234.0,255.0 243.0,269.0 248.0,268.0 249.0,252.0 234.0,254.0 216.0,237.0" fill="#1e7074" opacity="0.95" />
<polygon points="133.0,65.0 125.0,63.0 109.0,64.0 94.0,72.0 96.0,74.0 114.0,66.0" fill="#e9f0f0" />
<polygon points="249.0,46.0 248.0,47.0 248.0,66.0 249.0,67.0 253.0,67.0 254.0,66.0 254.0,47.0 253.0,46.0" fill="#8de1e3" />
<polygon points="295.0,56.0 295.0,61.0 322.0,67.0 327.0,66.0 327.0,61.0 303.0,55.0" fill="#e9f0f0" opacity="0.95" />
<polygon points="165.0,247.0 158.0,251.0 150.0,242.0 142.0,245.0 145.0,262.0 151.0,263.0 157.0,253.0 160.0,258.0 164.0,258.0 167.0,253.0" fill="#1e7074" opacity="0.95" />
<polygon points="157.0,254.0 152.0,262.0 150.0,269.0 150.0,273.0 153.0,276.0 157.0,274.0 157.0,264.0 158.0,263.0" fill="#8de1e3" />
<polygon points="97.0,56.0 92.0,55.0 69.0,61.0 69.0,66.0 73.0,67.0 97.0,61.0" fill="#e9f0f0" opacity="0.95" />
<polygon points="230.0,292.0 219.0,298.0 220.0,315.0 222.0,316.0 230.0,311.0 230.0,305.0 232.0,303.0 232.0,293.0" fill="#16585e" opacity="0.95" />
<polygon points="221.0,236.0 221.0,238.0 227.0,242.0 233.0,250.0 235.0,251.0 238.0,249.0 241.0,236.0" fill="#413231" opacity="0.95" />
<polygon points="240.0,249.0 237.0,252.0 237.0,257.0 242.0,269.0 245.0,270.0 248.0,268.0 251.0,253.0" fill="#1e7074" opacity="0.95" />
<polygon points="236.0,260.0 233.0,262.0 233.0,293.0 237.0,296.0 242.0,291.0 242.0,276.0 239.0,262.0" fill="#8cc6c2" opacity="0.95" />
<polygon points="264.0,65.0 265.0,67.0 288.0,67.0 299.0,74.0 301.0,73.0 296.0,68.0 285.0,64.0 271.0,63.0" fill="#e9f0f0" />
<polygon points="246.0,46.0 244.0,47.0 244.0,67.0 245.0,68.0 247.0,66.0 247.0,47.0" fill="#399d9f" />
<polygon points="223.0,98.0 219.0,98.0 212.0,104.0 200.0,108.0 200.0,110.0 213.0,114.0 216.0,113.0 222.0,105.0" fill="#122d30" opacity="0.95" />
<polygon points="228.0,285.0 226.0,286.0 219.0,286.0 218.0,287.0 218.0,293.0 220.0,295.0 225.0,295.0 227.0,293.0 229.0,288.0" fill="#e9f0f0" />
<polygon points="170.0,100.0 170.0,107.0 175.0,113.0 182.0,114.0 191.0,111.0 190.0,108.0 183.0,106.0 172.0,99.0" fill="#122d30" opacity="0.95" />
<polygon points="152.0,236.0 153.0,242.0 159.0,246.0 171.0,238.0 171.0,236.0 169.0,235.0" fill="#413231" opacity="0.95" />
<polygon points="172.0,246.0 166.0,248.0 163.0,245.0 160.0,248.0 161.0,249.0 159.0,260.0 161.0,262.0 163.0,261.0 168.0,251.0 173.0,247.0" fill="#1e7074" />
<polygon points="229.0,293.0 220.0,298.0 220.0,314.0 223.0,316.0 230.0,311.0 232.0,295.0" fill="#16585e" opacity="0.95" />
<polygon points="167.0,251.0 163.0,248.0 156.0,250.0 150.0,242.0 142.0,246.0 144.0,259.0 148.0,264.0 155.0,255.0 163.0,257.0" fill="#1e7074" opacity="0.95" />
<polygon points="160.0,292.0 158.0,293.0 157.0,305.0 162.0,312.0 166.0,313.0 168.0,312.0 167.0,298.0" fill="#16585e" opacity="0.95" />
<polygon points="135.0,221.0 136.0,239.0 138.0,249.0 141.0,254.0 142.0,252.0 138.0,237.0 137.0,223.0" fill="#8cc6c2" />
<polygon points="151.0,276.0 149.0,277.0 148.0,280.0 149.0,293.0 151.0,294.0 152.0,293.0 155.0,295.0 157.0,294.0 157.0,278.0" fill="#8cc6c2" opacity="0.95" />
<polygon points="299.0,265.0 301.0,268.0 327.0,267.0 325.0,264.0" fill="#793f36" opacity="0.95" />
<polygon points="223.0,237.0 223.0,239.0 235.0,250.0 239.0,247.0 241.0,240.0 240.0,236.0 226.0,235.0" fill="#413231" opacity="0.95" />
<polygon points="250.0,46.0 248.0,47.0 248.0,66.0 252.0,67.0 254.0,66.0 254.0,47.0" fill="#8de1e3" opacity="0.95" />
<polygon points="223.0,100.0 220.0,98.0 205.0,107.0 204.0,110.0 209.0,113.0 216.0,113.0 221.0,107.0" fill="#122d30" opacity="0.95" />
<polygon points="170.0,102.0 170.0,107.0 175.0,113.0 182.0,114.0 188.0,111.0 187.0,107.0 173.0,100.0" fill="#122d30" opacity="0.95" />
<polygon points="152.0,276.0 148.0,280.0 148.0,288.0 149.0,291.0 154.0,294.0 157.0,292.0 157.0,279.0" fill="#8cc6c2" opacity="0.95" />
<polygon points="161.0,294.0 158.0,296.0 157.0,305.0 159.0,309.0 165.0,313.0 168.0,311.0 167.0,298.0" fill="#16585e" opacity="0.95" />
<polygon points="178.0,237.0 177.0,236.0 169.0,240.0 165.0,243.0 165.0,245.0 168.0,246.0" fill="#16585e" />
<polygon points="153.0,242.0 159.0,246.0 168.0,240.0 169.0,237.0 166.0,235.0 156.0,235.0 153.0,237.0" fill="#413231" opacity="0.95" />
<polygon points="160.0,262.0 159.0,263.0 159.0,268.0 158.0,269.0 158.0,282.0 159.0,283.0 160.0,282.0 160.0,268.0 161.0,267.0 161.0,263.0" fill="#16585e" />
<polygon points="235.0,301.0 231.0,305.0 231.0,309.0 232.0,310.0 235.0,307.0 235.0,306.0 236.0,305.0 235.0,304.0 235.0,303.0 236.0,302.0" fill="#1e7074" />
</svg>