<svg xmlns="http://www.w3.org/2000/svg" width="768" height="768" viewBox="0 0 384 384">
<rect width="384" height="384" fill="#876361"/>
<polygon points="0.0,262.0 2.0,286.0 133.0,288.0 131.0,325.0 2.0,325.0 0.0,383.0 135.0,378.0 171.0,286.0 221.0,293.0 248.0,378.0 383.0,383.0 375.0,325.0 251.0,323.0 253.0,286.0 383.0,286.0 368.0,267.0" fill="#b38e7c" />
<polygon points="0.0,67.0 3.0,191.0 76.0,191.0 79.0,175.0 141.0,154.0 197.0,159.0 207.0,123.0 196.0,105.0 116.0,118.0 52.0,100.0 85.0,66.0" fill="#664e46" />
<polygon points="98.0,59.0 100.0,79.0 109.0,63.0 178.0,63.0 135.0,68.0 149.0,104.0 246.0,104.0 263.0,63.0 286.0,65.0 299.0,104.0 345.0,102.0 335.0,49.0 303.0,39.0 281.0,0.0 134.0,0.0" fill="#de3f42" />
<polygon points="380.0,70.0 344.0,67.0 350.0,104.0 297.0,108.0 307.0,130.0 200.0,107.0 218.0,127.0 199.0,130.0 199.0,161.0 306.0,191.0 383.0,191.0 383.0,129.0 356.0,127.0 383.0,120.0" fill="#595c56" />
<polygon points="0.0,196.0 1.0,285.0 133.0,288.0 130.0,325.0 1.0,326.0 0.0,383.0 134.0,377.0 189.0,262.0 249.0,377.0 383.0,383.0 374.0,325.0 251.0,323.0 254.0,286.0 368.0,267.0 72.0,258.0 68.0,195.0" fill="#b38e7c" opacity="0.95" />
<polygon points="95.0,205.0 127.0,191.0 151.0,220.0 233.0,220.0 254.0,192.0 291.0,204.0 274.0,174.0 125.0,171.0" fill="#77fefc" />
<polygon points="2.0,0.0 3.0,62.0 90.0,64.0 54.0,101.0 116.0,117.0 147.0,105.0 135.0,69.0 98.0,78.0 106.0,38.0 15.0,36.0 109.0,34.0 130.0,0.0" fill="#4e2d40" />
<polygon points="2.0,289.0 3.0,320.0 131.0,319.0 130.0,288.0" fill="#4e2d40" />
<polygon points="252.0,289.0 253.0,320.0 383.0,320.0 383.0,288.0" fill="#4e2d40" />
<polygon points="98.0,59.0 100.0,77.0 138.0,64.0 151.0,104.0 246.0,104.0 264.0,63.0 286.0,65.0 301.0,104.0 345.0,102.0 335.0,49.0 302.0,38.0 282.0,0.0 134.0,0.0" fill="#de3f42" opacity="0.95" />
<polygon points="0.0,67.0 4.0,191.0 74.0,191.0 141.0,154.0 197.0,159.0 195.0,105.0 130.0,118.0 86.0,106.0 96.0,119.0 74.0,123.0 52.0,93.0 85.0,67.0" fill="#664e46" opacity="0.95" />
<polygon points="305.0,195.0 319.0,216.0 294.0,244.0 383.0,246.0 379.0,194.0" fill="#b38e7c" />
<polygon points="0.0,196.0 2.0,254.0 70.0,254.0 95.0,243.0 81.0,240.0 79.0,230.0 70.0,227.0 73.0,202.0 67.0,194.0" fill="#b38e7c" />
<polygon points="98.0,59.0 101.0,77.0 138.0,64.0 152.0,104.0 245.0,104.0 262.0,63.0 289.0,66.0 302.0,104.0 345.0,101.0 335.0,49.0 301.0,38.0 282.0,0.0 134.0,0.0" fill="#de3f42" opacity="0.95" />
<polygon points="0.0,0.0 0.0,60.0 87.0,64.0 53.0,100.0 116.0,117.0 147.0,105.0 135.0,69.0 97.0,76.0 130.0,0.0" fill="#4e2d40" opacity="0.95" />
<polygon points="81.0,231.0 303.0,237.0 281.0,228.0 279.0,204.0 263.0,193.0 246.0,197.0 234.0,221.0 151.0,221.0 139.0,197.0 121.0,193.0 104.0,205.0 101.0,230.0" fill="#0b0625" />
<polygon points="9.0,195.0 0.0,284.0 129.0,286.0 133.0,322.0 4.0,325.0 0.0,383.0 133.0,377.0 137.0,335.0 190.0,261.0 76.0,258.0 94.0,242.0 65.0,195.0" fill="#b38e7c" opacity="0.95" />
<polygon points="0.0,67.0 5.0,191.0 73.0,191.0 141.0,154.0 197.0,157.0 193.0,105.0 130.0,118.0 87.0,106.0 71.0,130.0 52.0,93.0 83.0,67.0" fill="#664e46" opacity="0.95" />
<polygon points="169.0,288.0 146.0,319.0 152.0,352.0 135.0,355.0 135.0,375.0 151.0,378.0 171.0,366.0 167.0,357.0 217.0,357.0 213.0,367.0 247.0,376.0 248.0,355.0 231.0,352.0 238.0,321.0 218.0,291.0" fill="#595c56" />
<polygon points="282.0,0.0 299.0,33.0 334.0,47.0 341.0,63.0 383.0,62.0 383.0,38.0 312.0,36.0 383.0,34.0 383.0,0.0" fill="#4e2d40" />
<polygon points="383.0,77.0 344.0,68.0 354.0,99.0 297.0,108.0 302.0,129.0 244.0,129.0 250.0,109.0 201.0,107.0 216.0,127.0 199.0,130.0 199.0,162.0 307.0,191.0 383.0,191.0 383.0,129.0 357.0,127.0 383.0,120.0" fill="#595c56" opacity="0.95" />
<polygon points="192.0,261.0 246.0,333.0 251.0,377.0 383.0,383.0 371.0,325.0 251.0,322.0 255.0,286.0 383.0,286.0 372.0,269.0" fill="#b38e7c" opacity="0.95" />
<polygon points="96.0,203.0 132.0,192.0 152.0,220.0 232.0,220.0 254.0,192.0 290.0,205.0 273.0,174.0 124.0,172.0" fill="#77fefc" opacity="0.95" />
<polygon points="0.0,0.0 1.0,60.0 87.0,65.0 54.0,100.0 116.0,117.0 147.0,105.0 135.0,69.0 97.0,75.0 130.0,0.0" fill="#4e2d40" opacity="0.95" />
<polygon points="0.0,290.0 0.0,318.0 131.0,319.0 129.0,288.0" fill="#4e2d40" opacity="0.95" />
<polygon points="252.0,289.0 254.0,320.0 383.0,320.0 383.0,288.0" fill="#4e2d40" opacity="0.95" />
<polygon points="383.0,77.0 346.0,68.0 350.0,104.0 300.0,107.0 295.0,129.0 203.0,107.0 213.0,126.0 199.0,131.0 199.0,161.0 290.0,175.0 307.0,191.0 383.0,191.0 383.0,129.0 366.0,126.0 383.0,120.0" fill="#595c56" opacity="0.95" />
<polygon points="272.0,66.0 253.0,76.0 248.0,96.0 258.0,113.0 277.0,118.0 295.0,107.0 300.0,90.0 289.0,71.0" fill="#4e2d40" />
<polygon points="199.0,240.0 200.0,254.0 383.0,254.0 383.0,247.0 299.0,248.0 293.0,239.0" fill="#8d7468" />
<polygon points="97.0,201.0 132.0,192.0 153.0,220.0 231.0,220.0 254.0,192.0 290.0,204.0 272.0,174.0 126.0,171.0" fill="#77fefc" opacity="0.95" />
<polygon points="283.0,0.0 299.0,33.0 320.0,35.0 319.0,41.0 336.0,49.0 340.0,62.0 383.0,62.0 383.0,0.0" fill="#4e2d40" opacity="0.95" />
<polygon points="81.0,231.0 303.0,237.0 282.0,228.0 279.0,204.0 263.0,193.0 246.0,197.0 233.0,221.0 152.0,221.0 139.0,197.0 121.0,193.0 104.0,205.0 101.0,229.0" fill="#0b0625" opacity="0.95" />
<polygon points="169.0,288.0 146.0,319.0 152.0,352.0 135.0,355.0 135.0,375.0 152.0,377.0 170.0,357.0 213.0,357.0 233.0,377.0 248.0,375.0 248.0,355.0 231.0,352.0 238.0,321.0 218.0,291.0" fill="#595c56" opacity="0.95" />
<polygon points="80.0,381.0 303.0,383.0 230.0,375.0" fill="#0b0625" />
<polygon points="110.0,253.0 195.0,254.0 196.0,240.0 140.0,239.0" fill="#664e46" />
<polygon points="294.0,242.0 339.0,249.0 383.0,246.0 383.0,199.0 314.0,194.0 308.0,204.0 318.0,218.0 305.0,238.0" fill="#b38e7c" opacity="0.95" />
<polygon points="126.0,169.0 213.0,170.0 175.0,154.0 151.0,155.0" fill="#0b0625" />
<polygon points="81.0,232.0 303.0,236.0 282.0,227.0 279.0,204.0 263.0,193.0 246.0,197.0 232.0,221.0 153.0,221.0 139.0,197.0 121.0,193.0 104.0,205.0 100.0,229.0" fill="#0b0625" opacity="0.95" />
<polygon points="169.0,288.0 146.0,319.0 152.0,351.0 135.0,356.0 135.0,374.0 150.0,378.0 172.0,357.0 214.0,357.0 233.0,377.0 247.0,375.0 248.0,356.0 231.0,351.0 238.0,321.0 218.0,291.0" fill="#595c56" opacity="0.95" />
<polygon points="296.0,242.0 339.0,249.0 383.0,246.0 383.0,199.0 317.0,194.0 308.0,204.0 318.0,219.0" fill="#b38e7c" opacity="0.95" />
<polygon points="199.0,240.0 201.0,254.0 322.0,254.0 325.0,262.0 368.0,266.0 383.0,276.0 383.0,247.0" fill="#8d7468" opacity="0.95" />
<polygon points="89.0,182.0 73.0,205.0 72.0,228.0 97.0,227.0 100.0,223.0 100.0,212.0 92.0,206.0 102.0,193.0" fill="#e4bf9f" />
<polygon points="142.0,156.0 97.0,167.0 89.0,176.0 78.0,177.0 77.0,188.0 82.0,190.0 89.0,180.0 103.0,192.0" fill="#de3f42" />
<polygon points="255.0,201.0 268.0,203.0 275.0,214.0 272.0,225.0 263.0,231.0 253.0,230.0 244.0,219.0 246.0,208.0" fill="#0b0625" />
<polygon points="121.0,201.0 132.0,202.0 140.0,211.0 139.0,223.0 129.0,231.0 117.0,229.0 110.0,219.0 112.0,208.0" fill="#0b0625" />
<polygon points="80.0,381.0 303.0,383.0 229.0,375.0" fill="#0b0625" opacity="0.95" />
<polygon points="72.0,253.0 107.0,254.0 137.0,240.0 96.0,239.0 93.0,246.0" fill="#8d7468" />
<polygon points="253.0,203.0 246.0,211.0 248.0,224.0 254.0,229.0 268.0,227.0 273.0,220.0 271.0,208.0 262.0,202.0" fill="#e4bf9f" />
<polygon points="120.0,203.0 112.0,211.0 112.0,221.0 120.0,229.0 130.0,229.0 137.0,224.0 139.0,212.0 131.0,203.0" fill="#e4bf9f" />
<polygon points="288.0,192.0 293.0,206.0 284.0,211.0 285.0,226.0 311.0,228.0 312.0,213.0 309.0,206.0 301.0,201.0 296.0,192.0" fill="#e4bf9f" />
<polygon points="129.0,167.0 210.0,170.0 175.0,154.0 151.0,155.0" fill="#0b0625" opacity="0.95" />
<polygon points="114.0,251.0 116.0,254.0 194.0,254.0 196.0,240.0 141.0,239.0" fill="#664e46" opacity="0.95" />
<polygon points="292.0,259.0 363.0,265.0 383.0,276.0 383.0,258.0" fill="#8d7468" />
<polygon points="0.0,320.0 0.0,324.0 128.0,323.0" fill="#fdfaf4" />
<polygon points="252.0,322.0 383.0,324.0 383.0,321.0" fill="#f0dac6" />
<polygon points="199.0,241.0 202.0,254.0 341.0,251.0 345.0,263.0 383.0,276.0 383.0,247.0 361.0,258.0 355.0,248.0 299.0,248.0 287.0,239.0" fill="#8d7468" opacity="0.95" />
<polygon points="155.0,369.0 156.0,373.0 230.0,372.0 228.0,368.0" fill="#b38e7c" />
<polygon points="89.0,183.0 73.0,205.0 73.0,228.0 100.0,224.0 100.0,212.0 94.0,209.0 93.0,204.0 101.0,192.0" fill="#e4bf9f" opacity="0.95" />
<polygon points="255.0,201.0 268.0,203.0 275.0,214.0 272.0,225.0 263.0,231.0 250.0,228.0 244.0,219.0 246.0,208.0" fill="#0b0625" opacity="0.95" />
<polygon points="140.0,157.0 97.0,167.0 90.0,175.0 78.0,177.0 77.0,188.0 83.0,189.0 89.0,181.0 103.0,191.0" fill="#de3f42" opacity="0.95" />
<polygon points="118.0,250.0 121.0,254.0 193.0,254.0 196.0,252.0 196.0,241.0 141.0,239.0" fill="#664e46" opacity="0.95" />
<polygon points="128.0,82.0 119.0,82.0 114.0,87.0 113.0,94.0 120.0,102.0 127.0,102.0 134.0,96.0 134.0,89.0" fill="#664e46" />
<polygon points="274.0,81.0 267.0,83.0 263.0,88.0 263.0,95.0 265.0,99.0 270.0,102.0 278.0,102.0 284.0,95.0 283.0,87.0" fill="#664e46" />
<polygon points="66.0,118.0 74.0,108.0 100.0,118.0 97.0,121.0 83.0,120.0 75.0,123.0" fill="#664e46" />
<polygon points="288.0,193.0 293.0,206.0 284.0,211.0 285.0,227.0 312.0,227.0 309.0,206.0 301.0,201.0 297.0,193.0" fill="#e4bf9f" opacity="0.95" />
<polygon points="233.0,48.0 240.0,44.0 254.0,43.0 259.0,47.0 259.0,50.0 250.0,56.0 242.0,56.0 235.0,53.0" fill="#de3f42" />
<polygon points="253.0,203.0 246.0,211.0 248.0,224.0 254.0,229.0 268.0,227.0 273.0,220.0 271.0,208.0 262.0,202.0" fill="#e4bf9f" opacity="0.95" />
<polygon points="120.0,203.0 112.0,211.0 112.0,221.0 120.0,229.0 130.0,229.0 137.0,224.0 139.0,212.0 131.0,203.0" fill="#e4bf9f" opacity="0.95" />
<polygon points="81.0,253.0 106.0,254.0 135.0,240.0 98.0,239.0 93.0,246.0" fill="#8d7468" opacity="0.95" />
<polygon points="245.0,106.0 255.0,114.0 255.0,126.0 295.0,124.0 290.0,121.0 295.0,109.0 284.0,117.0 270.0,119.0 258.0,114.0 249.0,104.0" fill="#664e46" />
<polygon points="136.0,159.0 97.0,167.0 89.0,176.0 78.0,178.0 77.0,188.0 82.0,189.0 89.0,181.0 103.0,191.0" fill="#de3f42" opacity="0.95" />
<polygon points="89.0,183.0 73.0,205.0 71.0,226.0 74.0,228.0 95.0,227.0 100.0,223.0 100.0,213.0 93.0,208.0 93.0,204.0 101.0,192.0" fill="#e4bf9f" opacity="0.95" />
<polygon points="189.0,262.0 193.0,263.0 194.0,262.0 198.0,265.0 197.0,270.0 198.0,281.0 196.0,283.0 187.0,283.0 185.0,281.0 185.0,265.0" fill="#b38e7c" />
<polygon points="289.0,193.0 292.0,206.0 284.0,211.0 285.0,226.0 311.0,227.0 310.0,208.0 297.0,193.0" fill="#e4bf9f" opacity="0.95" />
<polygon points="182.0,65.0 184.0,63.0 217.0,63.0 219.0,65.0 217.0,67.0 184.0,67.0" fill="#de3f42" />
<polygon points="85.0,252.0 106.0,254.0 129.0,245.0 132.0,241.0 100.0,239.0" fill="#8d7468" opacity="0.95" />
<polygon points="233.0,48.0 239.0,44.0 241.0,38.0 252.0,37.0 256.0,40.0 259.0,50.0 250.0,56.0 242.0,56.0 235.0,53.0" fill="#de3f42" opacity="0.95" />
<polygon points="69.0,114.0 71.0,116.0 69.0,118.0 76.0,121.0 88.0,119.0 92.0,116.0 86.0,112.0 78.0,112.0 75.0,109.0" fill="#595c56" />
<polygon points="259.0,47.0 259.0,50.0 250.0,56.0 242.0,56.0 233.0,51.0 235.0,46.0 247.0,43.0 247.0,39.0 250.0,37.0 253.0,39.0 253.0,43.0" fill="#de3f42" opacity="0.95" />
<polygon points="335.0,53.0 331.0,59.0 330.0,64.0 340.0,71.0 341.0,69.0 338.0,56.0" fill="#fdfaf4" />
<polygon points="70.0,113.0 70.0,119.0 76.0,121.0 91.0,117.0 91.0,115.0 86.0,112.0 76.0,112.0 73.0,110.0" fill="#595c56" opacity="0.95" />
<polygon points="239.0,53.0 242.0,55.0 250.0,55.0 253.0,53.0 252.0,52.0 240.0,52.0" fill="#f67d7c" />
<polygon points="335.0,54.0 333.0,55.0 331.0,59.0 331.0,65.0 338.0,69.0 340.0,68.0 340.0,64.0 338.0,56.0" fill="#fdfaf4" opacity="0.95" />
<polygon points="300.0,192.0 299.0,194.0 302.0,200.0 305.0,203.0 306.0,202.0 305.0,196.0 303.0,193.0" fill="#fdfaf4" />
<polygon points="243.0,124.0 246.0,127.0 244.0,129.0 242.0,129.0 240.0,127.0" fill="#595c56" />
<polygon points="70.0,113.0 71.0,118.0 76.0,121.0 84.0,120.0 90.0,117.0 90.0,115.0 86.0,112.0 76.0,113.0 73.0,111.0" fill="#595c56" opacity="0.95" />
<polygon points="335.0,55.0 331.0,59.0 331.0,64.0 337.0,69.0 340.0,67.0 340.0,64.0 338.0,57.0" fill="#fdfaf4" opacity="0.95" />
<polygon points="95.0,208.0 97.0,210.0 99.0,210.0 100.0,211.0 101.0,210.0 101.0,208.0 100.0,207.0 96.0,207.0" fill="#f0dac6" />
<polygon points="71.0,195.0 69.0,197.0 69.0,198.0 71.0,200.0 72.0,200.0 73.0,199.0 73.0,196.0 72.0,195.0" fill="#8d7468" />
<polygon points="383.0,326.0 381.0,326.0 379.0,328.0 378.0,328.0 377.0,329.0 378.0,330.0 383.0,330.0" fill="#8d7468" />
<polygon points="302.0,193.0 300.0,194.0 300.0,196.0 301.0,198.0 303.0,199.0 305.0,198.0 305.0,196.0 304.0,194.0" fill="#fdfaf4" opacity="0.95" />
</svg>