<svg xmlns="http://www.w3.org/2000/svg" width="768" height="768" viewBox="0 0 384 384">
<rect width="384" height="384" fill="#806064"/>
<polygon points="134.0,141.0 135.0,191.0 381.0,190.0 381.0,139.0 373.0,130.0 143.0,130.0" fill="#2bbaa4" />
<polygon points="135.0,334.0 135.0,383.0 383.0,383.0 383.0,335.0 374.0,325.0 143.0,325.0" fill="#7f6475" />
<polygon points="0.0,0.0 3.0,62.0 121.0,62.0 121.0,0.0" fill="#701f45" />
<polygon points="134.0,141.0 136.0,191.0 383.0,189.0 383.0,140.0 373.0,130.0 143.0,130.0" fill="#2bbaa4" opacity="0.95" />
<polygon points="0.0,335.0 0.0,383.0 123.0,383.0 123.0,333.0 114.0,325.0 10.0,325.0" fill="#7f6475" />
<polygon points="135.0,334.0 135.0,383.0 383.0,383.0 383.0,333.0 374.0,325.0 143.0,325.0" fill="#7f6475" opacity="0.95" />
<polygon points="134.0,141.0 137.0,191.0 383.0,188.0 383.0,139.0 373.0,130.0 143.0,130.0" fill="#2bbaa4" opacity="0.95" />
<polygon points="0.0,0.0 6.0,111.0 30.0,112.0 38.0,90.0 85.0,90.0 98.0,113.0 122.0,108.0 121.0,0.0" fill="#701f45" opacity="0.95" />
<polygon points="135.0,334.0 135.0,383.0 383.0,383.0 383.0,332.0 374.0,325.0 143.0,325.0" fill="#7f6475" opacity="0.95" />
<polygon points="146.0,296.0 162.0,319.0 371.0,319.0 352.0,310.0 383.0,308.0 383.0,259.0 374.0,281.0 268.0,281.0 252.0,195.0 256.0,313.0 220.0,309.0 237.0,306.0 231.0,282.0 152.0,282.0" fill="#2e2038" />
<polygon points="125.0,67.0 120.0,279.0 8.0,281.0 3.0,258.0 2.0,303.0 26.0,319.0 121.0,305.0 132.0,383.0 131.0,107.0 163.0,112.0 140.0,106.0" fill="#2e2038" />
<polygon points="0.0,0.0 6.0,111.0 29.0,112.0 38.0,90.0 85.0,90.0 99.0,113.0 122.0,108.0 121.0,0.0" fill="#701f45" opacity="0.95" />
<polygon points="134.0,40.0 135.0,63.0 249.0,63.0 248.0,39.0" fill="#dd1c3f" />
<polygon points="10.0,197.0 12.0,219.0 115.0,218.0 114.0,195.0" fill="#7f6475" />
<polygon points="0.0,333.0 0.0,383.0 123.0,383.0 123.0,332.0 114.0,325.0 10.0,325.0" fill="#7f6475" opacity="0.95" />
<polygon points="263.0,0.0 269.0,109.0 285.0,109.0 295.0,88.0 348.0,86.0 351.0,72.0 371.0,74.0 369.0,88.0 347.0,90.0 352.0,106.0 379.0,109.0 383.0,69.0 348.0,64.0 379.0,62.0 381.0,34.0 271.0,38.0" fill="#dd1c3f" />
<polygon points="14.0,153.0 16.0,175.0 110.0,174.0 109.0,152.0" fill="#2e2038" />
<polygon points="383.0,237.0 264.0,237.0 263.0,256.0 383.0,257.0" fill="#fdb832" />
<polygon points="264.0,153.0 367.0,150.0 370.0,170.0 364.0,175.0 271.0,175.0 264.0,170.0" fill="#2bbaa4" />
<polygon points="0.0,69.0 0.0,100.0 9.0,113.0 29.0,113.0 38.0,90.0 52.0,99.0 61.0,90.0 73.0,99.0 88.0,91.0 97.0,113.0 122.0,108.0 122.0,67.0" fill="#701f45" />
<polygon points="263.0,0.0 268.0,108.0 286.0,108.0 295.0,88.0 345.0,86.0 353.0,108.0 379.0,109.0 383.0,35.0 272.0,38.0" fill="#dd1c3f" opacity="0.95" />
<polygon points="145.0,155.0 150.0,150.0 237.0,150.0 243.0,156.0 243.0,170.0 236.0,175.0 152.0,175.0 145.0,169.0" fill="#2bbaa4" />
<polygon points="124.0,0.0 120.0,279.0 9.0,281.0 4.0,260.0 0.0,302.0 27.0,319.0 122.0,307.0 132.0,383.0 131.0,110.0 147.0,111.0" fill="#2e2038" opacity="0.95" />
<polygon points="268.0,350.0 270.0,370.0 368.0,369.0 365.0,347.0 271.0,347.0" fill="#2e2038" />
<polygon points="0.0,332.0 0.0,383.0 123.0,383.0 122.0,332.0 114.0,325.0 10.0,325.0" fill="#7f6475" opacity="0.95" />
<polygon points="10.0,351.0 16.0,345.0 108.0,345.0 114.0,351.0 114.0,368.0 108.0,373.0 16.0,373.0 10.0,368.0" fill="#7f6475" />
<polygon points="266.0,349.0 270.0,345.0 366.0,345.0 371.0,350.0 371.0,369.0 366.0,373.0 271.0,373.0 265.0,367.0" fill="#7f6475" />
<polygon points="134.0,208.0 138.0,230.0 146.0,219.0 235.0,219.0 244.0,229.0 250.0,228.0 250.0,207.0 240.0,196.0 144.0,196.0" fill="#9bbfc3" />
<polygon points="145.0,350.0 150.0,345.0 238.0,345.0 243.0,349.0 243.0,369.0 239.0,373.0 151.0,373.0 145.0,368.0" fill="#7f6475" />
<polygon points="141.0,225.0 141.0,238.0 146.0,242.0 238.0,242.0 242.0,239.0 239.0,221.0 144.0,221.0" fill="#2e2038" />
<polygon points="147.0,351.0 150.0,370.0 241.0,368.0 241.0,351.0 237.0,347.0 151.0,347.0" fill="#2e2038" />
<polygon points="13.0,350.0 15.0,370.0 111.0,368.0 111.0,350.0 107.0,347.0 17.0,347.0" fill="#2e2038" />
<polygon points="146.0,296.0 163.0,319.0 366.0,319.0 358.0,309.0 383.0,308.0 383.0,259.0 373.0,281.0 269.0,281.0 253.0,195.0 256.0,313.0 227.0,311.0 230.0,282.0 153.0,282.0" fill="#2e2038" opacity="0.95" />
<polygon points="142.0,0.0 144.0,16.0 240.0,15.0 240.0,0.0" fill="#dd1c3f" />
<polygon points="0.0,181.0 2.0,191.0 123.0,189.0 123.0,180.0" fill="#fdb832" />
<polygon points="3.0,233.0 3.0,256.0 12.0,262.0 114.0,262.0 123.0,256.0 122.0,232.0 113.0,243.0 13.0,243.0" fill="#fcfd2f" />
<polygon points="263.0,0.0 268.0,108.0 286.0,108.0 288.0,94.0 307.0,86.0 345.0,86.0 356.0,109.0 383.0,105.0 383.0,35.0 272.0,38.0" fill="#dd1c3f" opacity="0.95" />
<polygon points="135.0,232.0 135.0,259.0 139.0,262.0 245.0,262.0 250.0,258.0 249.0,231.0 239.0,244.0 145.0,244.0 140.0,232.0" fill="#fa9c6c" />
<polygon points="114.0,14.0 114.0,34.0 111.0,38.0 49.0,36.0 51.0,15.0 88.0,15.0 91.0,18.0 96.0,10.0 108.0,10.0" fill="#701f45" />
<polygon points="222.0,112.0 250.0,113.0 234.0,125.0 327.0,125.0 304.0,116.0 307.0,106.0 342.0,114.0 351.0,100.0 294.0,90.0 289.0,113.0 267.0,113.0 251.0,67.0 250.0,102.0" fill="#2e2038" />
<polygon points="264.0,153.0 366.0,150.0 370.0,153.0 370.0,170.0 364.0,175.0 271.0,175.0 264.0,170.0" fill="#2bbaa4" opacity="0.95" />
<polygon points="383.0,237.0 265.0,237.0 263.0,256.0 383.0,257.0" fill="#fdb832" opacity="0.95" />
<polygon points="134.0,40.0 134.0,62.0 163.0,64.0 166.0,84.0 180.0,86.0 182.0,97.0 186.0,85.0 205.0,96.0 205.0,86.0 236.0,72.0 233.0,64.0 249.0,62.0 247.0,39.0" fill="#dd1c3f" opacity="0.95" />
<polygon points="145.0,155.0 150.0,150.0 237.0,150.0 243.0,156.0 243.0,170.0 236.0,175.0 152.0,175.0 145.0,169.0" fill="#2bbaa4" opacity="0.95" />
<polygon points="270.0,0.0 275.0,10.0 283.0,10.0 289.0,18.0 350.0,17.0 353.0,10.0 367.0,10.0 371.0,29.0 383.0,31.0 383.0,0.0" fill="#701f45" />
<polygon points="134.0,208.0 138.0,230.0 146.0,219.0 235.0,219.0 250.0,228.0 250.0,206.0 240.0,196.0 144.0,196.0" fill="#9bbfc3" opacity="0.95" />
<polygon points="151.0,69.0 164.0,72.0 167.0,85.0 219.0,85.0 222.0,73.0 236.0,72.0 235.0,68.0" fill="#dd1c3f" />
<polygon points="264.0,153.0 366.0,150.0 370.0,153.0 370.0,170.0 364.0,175.0 271.0,175.0 264.0,170.0" fill="#2bbaa4" opacity="0.95" />
<polygon points="134.0,41.0 134.0,61.0 164.0,64.0 166.0,83.0 178.0,86.0 182.0,97.0 188.0,85.0 205.0,96.0 231.0,64.0 249.0,61.0 246.0,39.0" fill="#dd1c3f" opacity="0.95" />
<polygon points="135.0,232.0 139.0,262.0 245.0,262.0 250.0,258.0 248.0,231.0 239.0,244.0 147.0,244.0" fill="#fa9c6c" opacity="0.95" />
<polygon points="265.0,263.0 269.0,267.0 364.0,267.0 373.0,260.0 266.0,259.0" fill="#701f45" />
<polygon points="383.0,237.0 266.0,237.0 263.0,255.0 383.0,257.0" fill="#fdb832" opacity="0.95" />
<polygon points="3.0,233.0 3.0,256.0 12.0,262.0 114.0,262.0 123.0,256.0 121.0,232.0 112.0,243.0 14.0,243.0" fill="#fcfd2f" opacity="0.95" />
<polygon points="142.0,0.0 145.0,16.0 240.0,15.0 240.0,0.0" fill="#dd1c3f" opacity="0.95" />
<polygon points="145.0,155.0 150.0,150.0 237.0,150.0 243.0,156.0 243.0,170.0 236.0,175.0 152.0,175.0 145.0,169.0" fill="#2bbaa4" opacity="0.95" />
<polygon points="133.0,125.0 134.0,137.0 142.0,129.0 373.0,129.0 382.0,138.0 383.0,166.0 383.0,126.0" fill="#fbfaf6" />
<polygon points="0.0,180.0 3.0,191.0 123.0,189.0 119.0,178.0" fill="#fdb832" opacity="0.95" />
<polygon points="10.0,13.0 108.0,10.0 114.0,14.0 113.0,35.0 55.0,38.0 51.0,20.0 38.0,18.0 32.0,37.0 14.0,38.0" fill="#701f45" opacity="0.95" />
<polygon points="134.0,208.0 137.0,229.0 146.0,219.0 235.0,219.0 250.0,227.0 250.0,207.0 240.0,196.0 144.0,196.0" fill="#9bbfc3" opacity="0.95" />
<polygon points="276.0,278.0 368.0,280.0 375.0,278.0 375.0,271.0 371.0,269.0 369.0,279.0 363.0,275.0 364.0,268.0 279.0,268.0" fill="#fdb832" />
<polygon points="8.0,263.0 9.0,279.0 17.0,265.0 24.0,269.0 23.0,279.0 56.0,279.0 60.0,265.0 70.0,268.0 72.0,279.0 103.0,279.0 107.0,265.0 119.0,278.0 118.0,262.0" fill="#fbfaf6" />
<polygon points="0.0,191.0 1.0,232.0 12.0,221.0 12.0,194.0 114.0,194.0 114.0,221.0 123.0,230.0 122.0,192.0" fill="#fbfaf6" />
<polygon points="51.0,17.0 71.0,15.0 76.0,9.0 85.0,9.0 90.0,16.0 98.0,10.0 108.0,10.0 114.0,14.0 113.0,36.0 54.0,38.0" fill="#701f45" opacity="0.95" />
<polygon points="133.0,320.0 134.0,332.0 148.0,323.0 370.0,323.0 383.0,333.0 383.0,320.0" fill="#fbfaf6" />
<polygon points="142.0,0.0 146.0,16.0 240.0,14.0 240.0,0.0" fill="#dd1c3f" opacity="0.95" />
<polygon points="0.0,238.0 0.0,254.0 12.0,262.0 114.0,262.0 123.0,256.0 120.0,235.0 112.0,243.0 15.0,243.0 6.0,234.0" fill="#fcfd2f" opacity="0.95" />
<polygon points="0.0,180.0 4.0,191.0 123.0,188.0 119.0,178.0" fill="#fdb832" opacity="0.95" />
<polygon points="250.0,233.0 244.0,232.0 239.0,244.0 146.0,244.0 138.0,238.0 135.0,259.0 245.0,262.0 250.0,258.0" fill="#fa9c6c" opacity="0.95" />
<polygon points="250.0,262.0 196.0,265.0 200.0,280.0 233.0,282.0 228.0,275.0 233.0,266.0 242.0,269.0 249.0,267.0" fill="#fbfaf6" />
<polygon points="133.0,203.0 144.0,195.0 240.0,195.0 248.0,202.0 251.0,193.0 134.0,192.0" fill="#fbfaf6" />
<polygon points="248.0,103.0 248.0,81.0 245.0,79.0 240.0,88.0 208.0,88.0 215.0,89.0 223.0,96.0 223.0,109.0 242.0,109.0" fill="#fdb832" />
<polygon points="270.0,0.0 270.0,6.0 289.0,17.0 296.0,9.0 308.0,15.0 336.0,15.0 343.0,9.0 348.0,16.0 367.0,10.0 371.0,29.0 383.0,31.0 383.0,0.0" fill="#701f45" opacity="0.95" />
<polygon points="248.0,267.0 244.0,268.0 244.0,276.0 233.0,283.0 240.0,306.0 250.0,302.0" fill="#9bbfc3" />
<polygon points="133.0,261.0 133.0,265.0 141.0,269.0 150.0,266.0 155.0,271.0 153.0,280.0 185.0,279.0 186.0,264.0 141.0,264.0" fill="#fbfaf6" />
<polygon points="135.0,266.0 134.0,303.0 144.0,306.0 145.0,295.0 150.0,283.0 139.0,276.0 139.0,268.0" fill="#9bbfc3" />
<polygon points="0.0,126.0 0.0,139.0 11.0,129.0 110.0,128.0 122.0,134.0 121.0,126.0" fill="#fbfaf6" />
<polygon points="223.0,18.0 222.0,28.0 219.0,31.0 221.0,35.0 239.0,36.0 240.0,20.0 238.0,18.0" fill="#fac79b" />
<polygon points="146.0,18.0 143.0,21.0 143.0,34.0 145.0,36.0 161.0,36.0 162.0,35.0 162.0,19.0 161.0,18.0" fill="#fac79b" />
<polygon points="141.0,106.0 142.0,107.0 149.0,101.0 161.0,101.0 167.0,92.0 164.0,88.0 150.0,89.0 142.0,86.0" fill="#ee7932" />
<polygon points="267.0,276.0 269.0,280.0 366.0,279.0 361.0,269.0 329.0,269.0 324.0,276.0 316.0,275.0 313.0,269.0 282.0,269.0 275.0,278.0" fill="#fdb832" opacity="0.95" />
<polygon points="353.0,17.0 351.0,19.0 351.0,33.0 353.0,35.0 366.0,35.0 368.0,32.0 368.0,19.0 364.0,17.0" fill="#fac79b" />
<polygon points="14.0,18.0 13.0,19.0 13.0,34.0 15.0,36.0 28.0,35.0 29.0,34.0 29.0,19.0 28.0,18.0" fill="#fac79b" />
<polygon points="284.0,17.0 272.0,18.0 271.0,19.0 271.0,34.0 272.0,35.0 285.0,35.0 286.0,34.0 286.0,19.0" fill="#fac79b" />
<polygon points="8.0,263.0 10.0,271.0 17.0,265.0 21.0,266.0 26.0,279.0 57.0,278.0 57.0,263.0" fill="#fbfaf6" opacity="0.95" />
<polygon points="247.0,80.0 242.0,80.0 242.0,86.0 239.0,88.0 216.0,88.0 224.0,98.0 223.0,108.0 241.0,109.0 248.0,103.0" fill="#fdb832" opacity="0.95" />
<polygon points="119.0,278.0 117.0,262.0 110.0,265.0 67.0,264.0 73.0,279.0 101.0,279.0 102.0,270.0 107.0,265.0 115.0,269.0 115.0,278.0" fill="#fbfaf6" opacity="0.95" />
<polygon points="247.0,267.0 244.0,268.0 243.0,277.0 233.0,283.0 241.0,306.0 250.0,303.0 250.0,275.0" fill="#9bbfc3" opacity="0.95" />
<polygon points="143.0,20.0 143.0,35.0 145.0,36.0 162.0,35.0 162.0,19.0 147.0,18.0" fill="#fac79b" opacity="0.95" />
<polygon points="136.0,267.0 134.0,268.0 134.0,303.0 143.0,306.0 150.0,283.0 140.0,277.0 139.0,268.0" fill="#9bbfc3" opacity="0.95" />
<polygon points="222.0,19.0 222.0,30.0 220.0,31.0 221.0,35.0 240.0,35.0 240.0,19.0" fill="#fac79b" opacity="0.95" />
<polygon points="0.0,307.0 0.0,317.0 2.0,319.0 16.0,319.0 17.0,318.0 18.0,312.0 15.0,309.0 6.0,309.0 2.0,305.0" fill="#964956" />
<polygon points="141.0,103.0 144.0,104.0 149.0,101.0 156.0,102.0 162.0,100.0 166.0,90.0 141.0,87.0" fill="#ee7932" opacity="0.95" />
<polygon points="351.0,18.0 351.0,33.0 354.0,35.0 367.0,34.0 368.0,19.0 364.0,17.0" fill="#fac79b" opacity="0.95" />
<polygon points="286.0,18.0 281.0,17.0 271.0,19.0 271.0,34.0 273.0,35.0 286.0,34.0" fill="#fac79b" opacity="0.95" />
<polygon points="98.0,18.0 95.0,21.0 97.0,24.0 97.0,29.0 101.0,32.0 106.0,32.0 108.0,28.0 109.0,20.0 107.0,18.0" fill="#fa9c6c" />
<polygon points="265.0,197.0 262.0,202.0 270.0,208.0 271.0,212.0 280.0,213.0 281.0,212.0 275.0,204.0 267.0,196.0" fill="#d67172" />
<polygon points="13.0,19.0 13.0,35.0 15.0,36.0 28.0,35.0 29.0,34.0 29.0,19.0 27.0,18.0" fill="#fac79b" opacity="0.95" />
<polygon points="383.0,104.0 381.0,108.0 373.0,115.0 375.0,121.0 374.0,123.0 376.0,125.0 383.0,125.0" fill="#fa9c6c" />
<polygon points="0.0,103.0 0.0,125.0 6.0,125.0 8.0,123.0 7.0,121.0 9.0,119.0 10.0,115.0 2.0,108.0" fill="#fa9c6c" />
<polygon points="135.0,0.0 133.0,3.0 133.0,7.0 137.0,13.0 135.0,18.0 140.0,26.0 142.0,24.0 143.0,17.0 141.0,10.0 141.0,0.0" fill="#ee7932" />
<polygon points="137.0,270.0 134.0,272.0 134.0,303.0 142.0,306.0 145.0,304.0 145.0,295.0 150.0,283.0 143.0,280.0" fill="#9bbfc3" opacity="0.95" />
<polygon points="246.0,270.0 243.0,272.0 243.0,277.0 233.0,283.0 239.0,297.0 239.0,304.0 242.0,306.0 250.0,302.0 250.0,275.0" fill="#9bbfc3" opacity="0.95" />
<polygon points="122.0,316.0 121.0,307.0 117.0,310.0 98.0,311.0 109.0,315.0 117.0,315.0 119.0,317.0" fill="#964956" />
<polygon points="141.0,102.0 144.0,104.0 149.0,101.0 159.0,101.0 166.0,91.0 163.0,89.0 144.0,87.0 141.0,89.0" fill="#ee7932" opacity="0.95" />
<polygon points="238.0,67.0 237.0,68.0 237.0,72.0 240.0,73.0 243.0,77.0 246.0,79.0 248.0,77.0 248.0,69.0 243.0,67.0" fill="#ee7932" />
<polygon points="371.0,217.0 371.0,222.0 374.0,224.0 383.0,224.0 383.0,216.0 382.0,217.0 381.0,216.0 372.0,216.0" fill="#d67172" />
<polygon points="0.0,309.0 1.0,318.0 3.0,319.0 17.0,318.0 18.0,315.0 17.0,310.0 6.0,309.0 3.0,307.0" fill="#964956" opacity="0.95" />
<polygon points="152.0,308.0 150.0,310.0 149.0,318.0 150.0,319.0 155.0,319.0 157.0,317.0 158.0,312.0 156.0,308.0" fill="#964956" />
<polygon points="383.0,106.0 374.0,114.0 375.0,124.0 377.0,125.0 383.0,125.0" fill="#fa9c6c" opacity="0.95" />
<polygon points="134.0,0.0 133.0,7.0 137.0,13.0 135.0,18.0 140.0,24.0 142.0,23.0 141.0,0.0" fill="#ee7932" opacity="0.95" />
<polygon points="16.0,114.0 12.0,114.0 11.0,115.0 10.0,119.0 8.0,121.0 9.0,125.0 15.0,125.0 17.0,123.0 16.0,121.0 17.0,115.0" fill="#d67172" />
<polygon points="95.0,20.0 95.0,23.0 97.0,24.0 97.0,29.0 101.0,32.0 107.0,31.0 108.0,19.0 99.0,18.0" fill="#fa9c6c" opacity="0.95" />
<polygon points="367.0,114.0 366.0,115.0 366.0,124.0 367.0,125.0 371.0,125.0 374.0,122.0 373.0,120.0 373.0,117.0 371.0,114.0" fill="#d67172" />
<polygon points="0.0,106.0 0.0,125.0 5.0,125.0 7.0,124.0 7.0,121.0 9.0,119.0 10.0,114.0 7.0,113.0" fill="#fa9c6c" opacity="0.95" />
<polygon points="139.0,68.0 139.0,69.0 141.0,71.0 141.0,74.0 142.0,75.0 145.0,72.0 149.0,72.0 151.0,70.0 148.0,67.0 140.0,67.0" fill="#ee7932" />
<polygon points="0.0,310.0 0.0,317.0 4.0,319.0 14.0,319.0 18.0,315.0 18.0,312.0 14.0,309.0 4.0,308.0" fill="#964956" opacity="0.95" />
<polygon points="262.0,200.0 262.0,203.0 267.0,205.0 270.0,208.0 271.0,212.0 280.0,212.0 280.0,210.0 269.0,198.0 266.0,197.0" fill="#d67172" opacity="0.95" />
<polygon points="99.0,18.0 96.0,20.0 97.0,29.0 101.0,32.0 104.0,32.0 108.0,28.0 108.0,20.0 105.0,18.0" fill="#fa9c6c" opacity="0.95" />
<polygon points="308.0,108.0 309.0,112.0 314.0,116.0 319.0,117.0 321.0,115.0 314.0,113.0 309.0,107.0" fill="#caa8a5" />
<polygon points="237.0,68.0 237.0,72.0 240.0,73.0 243.0,77.0 245.0,78.0 248.0,77.0 248.0,69.0 243.0,67.0" fill="#ee7932" opacity="0.95" />
<polygon points="246.0,0.0 241.0,0.0 241.0,14.0 242.0,15.0 243.0,14.0 243.0,7.0 244.0,6.0 244.0,2.0" fill="#ee7932" />
<polygon points="371.0,217.0 371.0,222.0 374.0,224.0 383.0,224.0 383.0,216.0 382.0,217.0 381.0,216.0 373.0,216.0" fill="#d67172" opacity="0.95" />
<polygon points="134.0,0.0 133.0,7.0 137.0,13.0 136.0,18.0 139.0,20.0 142.0,18.0 140.0,14.0 141.0,0.0" fill="#ee7932" opacity="0.95" />
<polygon points="216.0,288.0 216.0,290.0 217.0,291.0 222.0,291.0 223.0,290.0 223.0,288.0 222.0,287.0 217.0,287.0" fill="#9bbfc3" />
<polygon points="383.0,170.0 382.0,171.0 382.0,187.0 383.0,188.0" fill="#eee3cf" />
<polygon points="146.0,115.0 144.0,116.0 144.0,118.0 143.0,119.0 143.0,124.0 144.0,125.0 146.0,125.0 147.0,124.0 147.0,116.0" fill="#d67172" />
<polygon points="368.0,114.0 366.0,115.0 366.0,124.0 371.0,125.0 373.0,124.0 373.0,117.0 372.0,115.0" fill="#d67172" opacity="0.95" />
<polygon points="122.0,309.0 120.0,308.0 117.0,310.0 105.0,310.0 103.0,311.0 103.0,313.0 109.0,315.0 117.0,315.0 120.0,317.0 122.0,316.0" fill="#964956" opacity="0.95" />
<polygon points="263.0,200.0 263.0,202.0 270.0,208.0 272.0,212.0 276.0,213.0 279.0,211.0 279.0,209.0 269.0,198.0 267.0,197.0" fill="#d67172" opacity="0.95" />
<polygon points="118.0,113.0 114.0,115.0 115.0,117.0 115.0,122.0 117.0,124.0 120.0,121.0 118.0,117.0 119.0,116.0 118.0,115.0 119.0,114.0" fill="#964956" />
<polygon points="155.0,308.0 153.0,308.0 150.0,310.0 149.0,318.0 151.0,319.0 155.0,319.0 157.0,318.0 157.0,309.0" fill="#964956" opacity="0.95" />
<polygon points="146.0,307.0 145.0,308.0 145.0,314.0 144.0,315.0 144.0,318.0 145.0,319.0 147.0,319.0 148.0,318.0 148.0,316.0 149.0,315.0 149.0,310.0 150.0,309.0" fill="#d67172" />
<polygon points="0.0,232.0 0.0,242.0 2.0,240.0 2.0,234.0" fill="#eee3cf" />
<polygon points="153.0,308.0 150.0,310.0 150.0,317.0 154.0,319.0 157.0,317.0 157.0,310.0" fill="#964956" opacity="0.95" />
<polygon points="242.0,307.0 241.0,308.0 241.0,311.0 242.0,312.0 242.0,314.0 244.0,315.0 245.0,314.0 245.0,312.0" fill="#caa8a5" />
<polygon points="245.0,306.0 244.0,307.0 244.0,309.0 247.0,314.0 248.0,313.0 247.0,311.0 247.0,307.0" fill="#eee3cf" />
<polygon points="137.0,112.0 136.0,113.0 136.0,116.0 135.0,117.0 135.0,123.0 136.0,124.0 137.0,123.0 137.0,120.0 138.0,119.0 138.0,115.0 139.0,114.0" fill="#eee3cf" />
<polygon points="139.0,307.0 137.0,308.0 135.0,312.0 135.0,316.0 136.0,317.0 135.0,318.0 136.0,319.0 137.0,318.0 136.0,317.0 138.0,311.0 140.0,308.0" fill="#eee3cf" />
<polygon points="118.0,309.0 115.0,311.0 115.0,314.0 119.0,316.0 122.0,314.0 122.0,311.0" fill="#964956" opacity="0.95" />
<polygon points="0.0,232.0 0.0,242.0 1.0,241.0 2.0,241.0 2.0,233.0 1.0,233.0" fill="#eee3cf" opacity="0.95" />
</svg>