<svg xmlns="http://www.w3.org/2000/svg" width="768" height="768" viewBox="0 0 384 384">
<rect width="384" height="384" fill="#885e62"/>
<polygon points="0.0,0.0 2.0,40.0 383.0,111.0 382.0,89.0" fill="#fd222b" />
<polygon points="0.0,240.0 372.0,230.0 372.0,132.0 222.0,101.0 221.0,225.0 185.0,228.0 183.0,102.0 162.0,101.0 160.0,231.0" fill="#0186cb" />
<polygon points="371.0,233.0 163.0,243.0 162.0,293.0 370.0,255.0" fill="#fd222b" />
<polygon points="0.0,0.0 6.0,41.0 383.0,111.0 382.0,89.0" fill="#fd222b" opacity="0.95" />
<polygon points="0.0,240.0 371.0,230.0 372.0,131.0 221.0,102.0 221.0,224.0 186.0,228.0 183.0,102.0 163.0,101.0 160.0,229.0" fill="#0186cb" opacity="0.95" />
<polygon points="221.0,0.0 343.0,50.0 383.0,88.0 383.0,0.0" fill="#2e282c" />
<polygon points="185.0,101.0 184.0,226.0 214.0,227.0 217.0,102.0" fill="#5fbde5" />
<polygon points="0.0,0.0 6.0,41.0 383.0,111.0 382.0,89.0" fill="#fd222b" opacity="0.95" />
<polygon points="0.0,76.0 26.0,83.0 30.0,207.0 0.0,212.0 0.0,228.0 136.0,227.0 139.0,110.0 89.0,106.0 89.0,216.0 46.0,216.0 44.0,76.0" fill="#eee8e6" />
<polygon points="0.0,240.0 370.0,230.0 372.0,132.0 222.0,102.0 221.0,224.0 187.0,228.0 183.0,103.0 164.0,101.0 159.0,229.0" fill="#0186cb" opacity="0.95" />
<polygon points="0.0,245.0 2.0,265.0 158.0,264.0 157.0,243.0" fill="#fcf602" />
<polygon points="103.0,115.0 132.0,118.0 129.0,218.0 105.0,219.0 97.0,212.0 96.0,126.0" fill="#eee8e6" />
<polygon points="371.0,233.0 164.0,243.0 159.0,268.0 3.0,266.0 0.0,283.0 165.0,294.0 369.0,255.0" fill="#fd222b" opacity="0.95" />
<polygon points="371.0,258.0 172.0,294.0 161.0,314.0 369.0,272.0" fill="#5e6065" />
<polygon points="262.0,137.0 302.0,143.0 310.0,151.0 309.0,212.0 303.0,220.0 265.0,223.0 258.0,213.0 258.0,142.0" fill="#0186cb" />
<polygon points="0.0,268.0 2.0,285.0 158.0,284.0 157.0,266.0" fill="#fd222b" />
<polygon points="383.0,295.0 210.0,383.0 257.0,383.0 382.0,315.0" fill="#eee8e6" />
<polygon points="383.0,273.0 246.0,332.0 236.0,310.0 235.0,338.0 179.0,362.0 171.0,329.0 137.0,383.0 183.0,383.0" fill="#2e282c" />
<polygon points="0.0,66.0 2.0,75.0 84.0,79.0 98.0,106.0 155.0,110.0 154.0,72.0 96.0,64.0" fill="#5e6065" />
<polygon points="371.0,234.0 165.0,243.0 158.0,268.0 4.0,266.0 0.0,283.0 165.0,294.0 365.0,256.0" fill="#fd222b" opacity="0.95" />
<polygon points="0.0,76.0 26.0,83.0 30.0,207.0 0.0,212.0 0.0,228.0 137.0,226.0 139.0,110.0 89.0,105.0 89.0,216.0 46.0,216.0 44.0,76.0" fill="#eee8e6" opacity="0.95" />
<polygon points="0.0,327.0 2.0,356.0 30.0,356.0 43.0,334.0 53.0,334.0 58.0,357.0 108.0,356.0 109.0,379.0 123.0,380.0 153.0,360.0 153.0,326.0" fill="#fd222b" />
<polygon points="222.0,0.0 343.0,50.0 383.0,88.0 383.0,0.0" fill="#2e282c" opacity="0.95" />
<polygon points="186.0,101.0 184.0,226.0 214.0,227.0 217.0,102.0" fill="#5fbde5" opacity="0.95" />
<polygon points="161.0,245.0 157.0,286.0 2.0,287.0 0.0,302.0 160.0,308.0 167.0,296.0 161.0,293.0" fill="#2e282c" />
<polygon points="344.0,279.0 202.0,306.0 180.0,324.0 209.0,324.0 194.0,349.0 226.0,342.0 239.0,307.0 265.0,311.0 256.0,327.0" fill="#050405" />
<polygon points="47.0,83.0 45.0,206.0 72.0,208.0 66.0,180.0 78.0,175.0 78.0,154.0 69.0,153.0 69.0,122.0 87.0,114.0 87.0,93.0 80.0,86.0" fill="#2e282c" />
<polygon points="0.0,76.0 26.0,83.0 30.0,207.0 0.0,212.0 0.0,228.0 137.0,226.0 139.0,111.0 89.0,106.0 89.0,215.0 46.0,216.0 44.0,77.0" fill="#eee8e6" opacity="0.95" />
<polygon points="259.0,142.0 260.0,176.0 308.0,177.0 309.0,152.0 304.0,145.0 265.0,138.0" fill="#eee8e6" />
<polygon points="261.0,138.0 302.0,143.0 310.0,151.0 309.0,212.0 304.0,219.0 266.0,223.0 259.0,215.0" fill="#0186cb" opacity="0.95" />
<polygon points="259.0,178.0 260.0,212.0 265.0,218.0 297.0,216.0 307.0,212.0 307.0,180.0" fill="#2e282c" />
<polygon points="103.0,115.0 132.0,118.0 132.0,215.0 128.0,218.0 105.0,219.0 97.0,212.0 96.0,126.0" fill="#eee8e6" opacity="0.95" />
<polygon points="223.0,0.0 343.0,50.0 383.0,88.0 383.0,0.0" fill="#2e282c" opacity="0.95" />
<polygon points="0.0,245.0 3.0,265.0 158.0,264.0 156.0,243.0" fill="#fcf602" opacity="0.95" />
<polygon points="0.0,308.0 3.0,356.0 29.0,356.0 53.0,334.0 57.0,356.0 72.0,357.0 70.0,338.0 90.0,333.0 95.0,346.0 81.0,356.0 109.0,357.0 110.0,379.0 153.0,360.0 155.0,306.0" fill="#fd222b" opacity="0.95" />
<polygon points="383.0,342.0 316.0,383.0 383.0,383.0" fill="#eee8e6" />
<polygon points="371.0,258.0 172.0,294.0 161.0,314.0 369.0,272.0" fill="#5e6065" opacity="0.95" />
<polygon points="187.0,101.0 184.0,225.0 214.0,227.0 217.0,103.0" fill="#5fbde5" opacity="0.95" />
<polygon points="2.0,85.0 0.0,209.0 25.0,212.0 28.0,181.0 13.0,175.0 6.0,117.0 17.0,114.0 17.0,163.0 27.0,162.0 28.0,89.0" fill="#2e282c" />
<polygon points="41.0,0.0 246.0,44.0 211.0,9.0 218.0,0.0 184.0,0.0 216.0,36.0 101.0,0.0" fill="#fe957e" />
<polygon points="383.0,295.0 211.0,383.0 258.0,383.0 382.0,315.0" fill="#eee8e6" opacity="0.95" />
<polygon points="333.0,144.0 348.0,146.0 352.0,151.0 351.0,209.0 345.0,219.0 334.0,219.0 327.0,206.0 327.0,151.0" fill="#0186cb" />
<polygon points="0.0,66.0 3.0,75.0 84.0,79.0 99.0,106.0 155.0,108.0 150.0,71.0" fill="#5e6065" opacity="0.95" />
<polygon points="185.0,92.0 186.0,100.0 239.0,101.0 372.0,128.0 247.0,94.0" fill="#eee8e6" />
<polygon points="383.0,273.0 245.0,332.0 240.0,313.0 196.0,353.0 187.0,324.0 191.0,355.0 175.0,330.0 138.0,383.0 184.0,383.0" fill="#2e282c" opacity="0.95" />
<polygon points="0.0,308.0 4.0,356.0 29.0,356.0 53.0,334.0 68.0,357.0 70.0,338.0 90.0,333.0 84.0,355.0 109.0,357.0 112.0,379.0 153.0,360.0 154.0,306.0" fill="#fd222b" opacity="0.95" />
<polygon points="344.0,280.0 165.0,318.0 158.0,359.0 122.0,383.0 235.0,337.0 243.0,304.0 263.0,310.0 256.0,327.0" fill="#050405" opacity="0.95" />
<polygon points="263.0,137.0 302.0,143.0 310.0,151.0 309.0,212.0 301.0,220.0 267.0,223.0 258.0,213.0 258.0,142.0" fill="#0186cb" opacity="0.95" />
<polygon points="383.0,315.0 258.0,383.0 277.0,383.0" fill="#a4a0a0" />
<polygon points="0.0,245.0 4.0,265.0 158.0,263.0 155.0,243.0" fill="#fcf602" opacity="0.95" />
<polygon points="366.0,275.0 162.0,319.0 158.0,361.0 122.0,383.0 173.0,355.0 180.0,321.0 206.0,324.0 195.0,349.0 225.0,342.0 242.0,305.0 264.0,310.0 245.0,331.0" fill="#050405" opacity="0.95" />
<polygon points="374.0,109.0 374.0,249.0 379.0,250.0 383.0,249.0 383.0,113.0" fill="#8c0404" />
<polygon points="371.0,259.0 172.0,294.0 161.0,314.0 368.0,272.0" fill="#5e6065" opacity="0.95" />
<polygon points="48.0,83.0 46.0,206.0 71.0,208.0 66.0,180.0 78.0,176.0 78.0,154.0 69.0,152.0 69.0,122.0 87.0,114.0 87.0,93.0 80.0,86.0" fill="#2e282c" opacity="0.95" />
<polygon points="0.0,66.0 4.0,75.0 84.0,79.0 100.0,106.0 155.0,106.0 150.0,71.0" fill="#5e6065" opacity="0.95" />
<polygon points="55.0,338.0 41.0,338.0 19.0,383.0 41.0,383.0 54.0,352.0" fill="#5e6065" />
<polygon points="334.0,144.0 347.0,146.0 352.0,151.0 351.0,209.0 344.0,219.0 333.0,218.0 327.0,206.0 327.0,151.0" fill="#0186cb" opacity="0.95" />
<polygon points="44.0,0.0 243.0,44.0 212.0,10.0 219.0,0.0 185.0,0.0 215.0,37.0 103.0,0.0" fill="#fe957e" opacity="0.95" />
<polygon points="231.0,7.0 253.0,34.0 246.0,47.0 264.0,51.0 263.0,21.0 301.0,60.0 297.0,40.0 314.0,41.0 335.0,74.0 328.0,53.0 341.0,50.0" fill="#fa7062" />
<polygon points="383.0,335.0 301.0,383.0 315.0,383.0 381.0,342.0" fill="#a4a0a0" />
<polygon points="157.0,73.0 157.0,208.0 143.0,213.0 155.0,214.0 158.0,228.0" fill="#a4a0a0" />
<polygon points="383.0,315.0 259.0,383.0 278.0,383.0" fill="#a4a0a0" opacity="0.95" />
<polygon points="334.0,144.0 344.0,145.0 352.0,151.0 351.0,209.0 344.0,219.0 333.0,218.0 327.0,206.0 327.0,151.0" fill="#0186cb" opacity="0.95" />
<polygon points="178.0,315.0 159.0,323.0 157.0,344.0 165.0,344.0 158.0,361.0 122.0,383.0 156.0,370.0 173.0,355.0 169.0,330.0 177.0,326.0" fill="#050405" />
<polygon points="48.0,0.0 203.0,34.0 105.0,0.0" fill="#fe957e" opacity="0.95" />
<polygon points="375.0,109.0 374.0,249.0 379.0,250.0 383.0,249.0 383.0,113.0" fill="#8c0404" opacity="0.95" />
<polygon points="56.0,339.0 41.0,338.0 20.0,383.0 41.0,383.0" fill="#5e6065" opacity="0.95" />
<polygon points="161.0,75.0 162.0,92.0 183.0,92.0 183.0,85.0 177.0,78.0" fill="#8c0404" />
<polygon points="383.0,315.0 260.0,383.0 279.0,383.0" fill="#a4a0a0" opacity="0.95" />
<polygon points="85.0,116.0 74.0,118.0 70.0,122.0 71.0,154.0 81.0,151.0 79.0,131.0 87.0,126.0" fill="#5e6065" />
<polygon points="376.0,110.0 374.0,248.0 383.0,249.0 383.0,113.0" fill="#8c0404" opacity="0.95" />
<polygon points="109.0,359.0 99.0,359.0 88.0,383.0 102.0,383.0 110.0,366.0" fill="#5e6065" />
<polygon points="47.0,383.0 67.0,383.0 69.0,379.0 54.0,379.0 52.0,377.0 56.0,372.0 90.0,373.0 96.0,363.0 93.0,360.0 56.0,360.0" fill="#050405" />
<polygon points="140.0,106.0 141.0,120.0 151.0,128.0 152.0,175.0 148.0,181.0 154.0,182.0 155.0,115.0 150.0,108.0" fill="#050405" />
<polygon points="45.0,76.0 45.0,82.0 83.0,86.0 88.0,92.0 89.0,102.0 95.0,103.0 94.0,91.0 86.0,81.0" fill="#d1c1ba" />
<polygon points="383.0,335.0 302.0,383.0 316.0,383.0 383.0,341.0" fill="#a4a0a0" opacity="0.95" />
<polygon points="310.0,328.0 193.0,383.0 210.0,383.0" fill="#a4a0a0" opacity="0.95" />
<polygon points="0.0,364.0 0.0,369.0 2.0,371.0 23.0,371.0 27.0,362.0 22.0,359.0 9.0,359.0" fill="#050405" />
<polygon points="383.0,250.0 373.0,252.0 373.0,272.0 376.0,274.0 383.0,272.0" fill="#050405" />
<polygon points="143.0,122.0 142.0,125.0 146.0,130.0 147.0,170.0 142.0,180.0 143.0,183.0 150.0,176.0 150.0,131.0" fill="#a4a0a0" />
<polygon points="344.0,52.0 353.0,73.0 345.0,77.0 340.0,75.0 364.0,83.0 357.0,65.0" fill="#fe957e" />
<polygon points="47.0,383.0 68.0,383.0 66.0,379.0 55.0,378.0 55.0,373.0 90.0,372.0 95.0,362.0 57.0,360.0 52.0,365.0" fill="#050405" opacity="0.95" />
<polygon points="379.0,341.0 303.0,383.0 316.0,383.0" fill="#a4a0a0" opacity="0.95" />
<polygon points="236.0,9.0 253.0,34.0 254.0,42.0 249.0,47.0 264.0,51.0 257.0,27.0 262.0,18.0" fill="#fa7062" opacity="0.95" />
<polygon points="186.0,0.0 211.0,20.0 218.0,39.0 230.0,39.0 212.0,10.0 218.0,0.0" fill="#fe957e" opacity="0.95" />
<polygon points="161.0,76.0 161.0,91.0 173.0,93.0 183.0,92.0 183.0,85.0 180.0,80.0 172.0,76.0" fill="#8c0404" opacity="0.95" />
<polygon points="45.0,76.0 47.0,82.0 83.0,86.0 88.0,92.0 89.0,102.0 95.0,102.0 94.0,91.0 86.0,81.0" fill="#d1c1ba" opacity="0.95" />
<polygon points="266.0,53.0 284.0,59.0 308.0,63.0 293.0,55.0 286.0,56.0 267.0,47.0" fill="#fe957e" />
<polygon points="47.0,383.0 67.0,383.0 61.0,377.0 63.0,373.0 89.0,372.0 95.0,362.0 57.0,360.0 52.0,365.0 53.0,375.0" fill="#050405" opacity="0.95" />
<polygon points="76.0,337.0 72.0,340.0 71.0,346.0 74.0,350.0 80.0,351.0 84.0,347.0 84.0,341.0 80.0,337.0" fill="#a4a0a0" />
<polygon points="161.0,95.0 162.0,100.0 183.0,100.0 184.0,99.0 183.0,94.0 181.0,95.0 180.0,94.0 162.0,94.0" fill="#d1c1ba" />
<polygon points="243.0,10.0 240.0,14.0 254.0,37.0 250.0,47.0 261.0,52.0 265.0,47.0 257.0,27.0 261.0,18.0" fill="#fa7062" opacity="0.95" />
<polygon points="281.0,27.0 293.0,45.0 295.0,57.0 303.0,58.0 297.0,43.0 302.0,34.0" fill="#fa7062" opacity="0.95" />
<polygon points="115.0,185.0 115.0,190.0 116.0,191.0 127.0,191.0 131.0,189.0 131.0,185.0 130.0,184.0 116.0,184.0" fill="#5fbde5" />
<polygon points="161.0,77.0 162.0,91.0 180.0,93.0 183.0,91.0 183.0,85.0 177.0,78.0 167.0,75.0" fill="#8c0404" opacity="0.95" />
<polygon points="45.0,77.0 48.0,82.0 81.0,85.0 87.0,90.0 89.0,101.0 95.0,101.0 93.0,89.0 84.0,80.0 53.0,75.0" fill="#d1c1ba" opacity="0.95" />
<polygon points="349.0,60.0 353.0,73.0 348.0,78.0 364.0,82.0 357.0,65.0 353.0,60.0" fill="#fe957e" opacity="0.95" />
<polygon points="130.0,324.0 131.0,325.0 154.0,325.0 155.0,324.0 154.0,323.0 131.0,323.0" fill="#d1c1ba" />
<polygon points="156.0,185.0 155.0,184.0 151.0,184.0 150.0,183.0 149.0,184.0 143.0,184.0 142.0,185.0 142.0,189.0 143.0,190.0 155.0,190.0 156.0,189.0" fill="#5fbde5" />
<polygon points="75.0,323.0 76.0,324.0 98.0,324.0 99.0,323.0 98.0,322.0 76.0,322.0" fill="#d1c1ba" />
<polygon points="42.0,187.0 41.0,188.0 41.0,210.0 44.0,214.0 45.0,213.0 43.0,208.0 43.0,188.0" fill="#d1c1ba" />
<polygon points="161.0,95.0 161.0,99.0 163.0,100.0 182.0,100.0 184.0,99.0 184.0,95.0 182.0,94.0 181.0,95.0 180.0,94.0 163.0,94.0" fill="#d1c1ba" opacity="0.95" />
<polygon points="317.0,42.0 317.0,44.0 326.0,54.0 334.0,49.0 334.0,47.0 320.0,41.0" fill="#fa7062" opacity="0.95" />
<polygon points="115.0,185.0 115.0,190.0 117.0,191.0 127.0,191.0 131.0,189.0 131.0,185.0 129.0,184.0 117.0,184.0" fill="#5fbde5" opacity="0.95" />
<polygon points="265.0,49.0 265.0,52.0 288.0,60.0 292.0,59.0 290.0,56.0 276.0,53.0 267.0,48.0" fill="#fe957e" opacity="0.95" />
<polygon points="161.0,96.0 161.0,98.0 164.0,100.0 180.0,100.0 183.0,98.0 183.0,96.0 180.0,94.0 164.0,94.0" fill="#d1c1ba" opacity="0.95" />
<polygon points="75.0,196.0 74.0,197.0 74.0,207.0 76.0,209.0 80.0,209.0 81.0,208.0 81.0,204.0 80.0,203.0 78.0,203.0 76.0,201.0 76.0,197.0" fill="#fa7062" />
<polygon points="354.0,63.0 351.0,65.0 353.0,73.0 349.0,78.0 360.0,82.0 363.0,80.0 363.0,77.0 357.0,65.0" fill="#fe957e" opacity="0.95" />
<polygon points="289.0,29.0 286.0,31.0 286.0,33.0 291.0,42.0 294.0,44.0 301.0,37.0 301.0,35.0" fill="#fa7062" opacity="0.95" />
<polygon points="156.0,185.0 150.0,183.0 149.0,184.0 144.0,184.0 142.0,185.0 142.0,189.0 144.0,190.0 154.0,190.0 156.0,189.0" fill="#5fbde5" opacity="0.95" />
<polygon points="126.0,203.0 125.0,204.0 125.0,208.0 126.0,209.0 130.0,209.0 131.0,208.0 131.0,204.0 130.0,203.0" fill="#8c0404" />
<polygon points="115.0,186.0 115.0,189.0 118.0,191.0 127.0,191.0 131.0,188.0 131.0,186.0 128.0,184.0 118.0,184.0" fill="#5fbde5" opacity="0.95" />
<polygon points="319.0,44.0 322.0,50.0 326.0,53.0 333.0,49.0 332.0,46.0 322.0,42.0" fill="#fa7062" opacity="0.95" />
<polygon points="291.0,219.0 290.0,218.0 282.0,218.0 280.0,220.0 279.0,219.0 265.0,219.0 264.0,220.0 266.0,222.0 270.0,222.0 271.0,221.0 279.0,221.0 281.0,219.0 282.0,220.0 290.0,220.0" fill="#d1c1ba" />
<polygon points="156.0,186.0 150.0,183.0 143.0,185.0 142.0,188.0 145.0,190.0 153.0,190.0 156.0,188.0" fill="#5fbde5" opacity="0.95" />
<polygon points="74.0,203.0 74.0,207.0 77.0,209.0 81.0,208.0 81.0,204.0 77.0,202.0" fill="#fa7062" opacity="0.95" />
<polygon points="371.0,195.0 369.0,197.0 369.0,201.0 371.0,203.0 372.0,202.0 372.0,196.0" fill="#5fbde5" />
<polygon points="123.0,203.0 122.0,204.0 121.0,204.0 119.0,206.0 119.0,208.0 120.0,209.0 123.0,209.0 124.0,208.0 124.0,204.0" fill="#fa7062" />
<polygon points="125.0,204.0 125.0,208.0 127.0,209.0 129.0,209.0 131.0,208.0 131.0,204.0 129.0,203.0 127.0,203.0" fill="#8c0404" opacity="0.95" />
<polygon points="330.0,70.0 327.0,67.0 326.0,68.0 325.0,68.0 323.0,70.0 324.0,71.0 325.0,71.0 326.0,70.0 327.0,71.0 329.0,71.0" fill="#fe957e" />
<polygon points="128.0,203.0 125.0,205.0 125.0,207.0 128.0,209.0 131.0,207.0 131.0,205.0" fill="#8c0404" opacity="0.95" />
</svg>