<svg xmlns="http://www.w3.org/2000/svg" width="768" height="768" viewBox="0 0 384 384">
<rect width="384" height="384" fill="#8d5a54"/>
<polygon points="2.0,0.0 3.0,191.0 104.0,191.0 125.0,173.0 131.0,127.0 210.0,125.0 178.0,75.0 129.0,64.0 131.0,0.0" fill="#8a4e49" />
<polygon points="135.0,204.0 136.0,255.0 195.0,257.0 135.0,330.0 135.0,383.0 256.0,383.0 255.0,323.0 159.0,319.0 383.0,319.0 383.0,258.0 278.0,259.0 242.0,206.0 201.0,220.0 196.0,258.0 184.0,219.0" fill="#4e2e2b" />
<polygon points="135.0,0.0 135.0,62.0 168.0,63.0 212.0,127.0 240.0,99.0 244.0,76.0 232.0,63.0 353.0,62.0 290.0,0.0" fill="#c76c61" />
<polygon points="0.0,0.0 0.0,189.0 102.0,191.0 124.0,173.0 132.0,128.0 210.0,126.0 178.0,75.0 131.0,64.0 131.0,0.0" fill="#8a4e49" opacity="0.95" />
<polygon points="131.0,252.0 114.0,253.0 113.0,258.0 3.0,258.0 2.0,318.0 130.0,319.0" fill="#8a4e49" />
<polygon points="383.0,89.0 359.0,64.0 236.0,67.0 245.0,76.0 236.0,87.0 241.0,99.0 217.0,123.0 383.0,127.0" fill="#8a4e49" />
<polygon points="0.0,0.0 1.0,189.0 101.0,191.0 124.0,172.0 133.0,128.0 209.0,125.0 178.0,75.0 131.0,63.0 131.0,0.0" fill="#8a4e49" opacity="0.95" />
<polygon points="2.0,324.0 0.0,383.0 117.0,383.0 125.0,375.0 115.0,344.0 120.0,323.0" fill="#c76c61" />
<polygon points="2.0,195.0 3.0,255.0 97.0,255.0 132.0,248.0 132.0,226.0 125.0,225.0 126.0,206.0 117.0,196.0" fill="#c76c61" />
<polygon points="210.0,131.0 207.0,163.0 235.0,173.0 252.0,152.0 266.0,152.0 261.0,173.0 284.0,191.0 383.0,189.0 381.0,130.0" fill="#4e2e2b" />
<polygon points="135.0,204.0 135.0,254.0 193.0,257.0 135.0,329.0 135.0,383.0 256.0,383.0 257.0,319.0 383.0,319.0 383.0,258.0 278.0,259.0 241.0,206.0 201.0,220.0 198.0,258.0 185.0,220.0" fill="#4e2e2b" opacity="0.95" />
<polygon points="292.0,0.0 383.0,88.0 383.0,0.0" fill="#4e2e2b" />
<polygon points="135.0,0.0 135.0,62.0 169.0,64.0 213.0,127.0 239.0,101.0 234.0,63.0 351.0,62.0 291.0,0.0" fill="#c76c61" opacity="0.95" />
<polygon points="105.0,187.0 186.0,219.0 282.0,189.0 260.0,173.0 265.0,154.0 236.0,174.0 204.0,162.0 151.0,174.0 121.0,154.0 126.0,173.0" fill="#9cfefa" />
<polygon points="135.0,205.0 136.0,254.0 192.0,258.0 135.0,330.0 135.0,383.0 256.0,383.0 259.0,319.0 383.0,319.0 383.0,258.0 278.0,259.0 240.0,206.0 201.0,221.0 199.0,258.0 183.0,219.0" fill="#4e2e2b" opacity="0.95" />
<polygon points="131.0,252.0 118.0,258.0 4.0,258.0 0.0,317.0 127.0,320.0" fill="#8a4e49" opacity="0.95" />
<polygon points="220.0,122.0 383.0,127.0 383.0,89.0 357.0,66.0 237.0,67.0 241.0,99.0" fill="#8a4e49" opacity="0.95" />
<polygon points="0.0,196.0 4.0,255.0 97.0,255.0 132.0,248.0 125.0,204.0 117.0,196.0" fill="#c76c61" opacity="0.95" />
<polygon points="135.0,0.0 135.0,61.0 170.0,64.0 211.0,123.0 236.0,110.0 235.0,63.0 350.0,61.0 291.0,0.0" fill="#c76c61" opacity="0.95" />
<polygon points="211.0,134.0 206.0,162.0 235.0,172.0 264.0,152.0 262.0,173.0 286.0,191.0 383.0,189.0 380.0,130.0" fill="#4e2e2b" opacity="0.95" />
<polygon points="0.0,325.0 0.0,383.0 117.0,383.0 125.0,375.0 116.0,352.0 118.0,323.0" fill="#c76c61" opacity="0.95" />
<polygon points="135.0,154.0 152.0,173.0 189.0,162.0 201.0,131.0 136.0,130.0" fill="#4e2e2b" />
<polygon points="221.0,122.0 383.0,127.0 383.0,89.0 357.0,66.0 237.0,67.0 241.0,99.0" fill="#8a4e49" opacity="0.95" />
<polygon points="243.0,206.0 278.0,255.0 383.0,255.0 382.0,194.0 315.0,194.0 323.0,204.0 310.0,210.0 315.0,230.0 288.0,231.0 294.0,242.0 283.0,248.0 287.0,239.0 269.0,236.0" fill="#8a4e49" />
<polygon points="0.0,197.0 0.0,252.0 97.0,255.0 132.0,247.0 125.0,204.0 117.0,196.0" fill="#c76c61" opacity="0.95" />
<polygon points="293.0,0.0 383.0,88.0 383.0,0.0" fill="#4e2e2b" opacity="0.95" />
<polygon points="106.0,184.0 186.0,219.0 282.0,189.0 260.0,174.0 263.0,154.0 235.0,174.0 203.0,162.0 152.0,174.0 122.0,154.0 126.0,174.0" fill="#9cfefa" opacity="0.95" />
<polygon points="259.0,324.0 264.0,383.0 272.0,377.0 313.0,383.0 328.0,371.0 317.0,365.0 325.0,337.0 317.0,339.0 298.0,323.0" fill="#c76c61" />
<polygon points="211.0,134.0 208.0,163.0 235.0,172.0 263.0,152.0 262.0,172.0 287.0,191.0 383.0,189.0 379.0,130.0" fill="#4e2e2b" opacity="0.95" />
<polygon points="383.0,323.0 308.0,325.0 316.0,337.0 327.0,338.0 322.0,367.0 346.0,375.0 328.0,380.0 323.0,374.0 313.0,382.0 383.0,383.0" fill="#8a4e49" />
<polygon points="0.0,326.0 0.0,383.0 117.0,383.0 125.0,375.0 116.0,352.0 117.0,324.0" fill="#c76c61" opacity="0.95" />
<polygon points="293.0,0.0 383.0,88.0 383.0,0.0" fill="#4e2e2b" opacity="0.95" />
<polygon points="106.0,184.0 186.0,219.0 282.0,189.0 260.0,173.0 262.0,154.0 235.0,174.0 203.0,162.0 152.0,174.0 124.0,154.0 126.0,173.0" fill="#9cfefa" opacity="0.95" />
<polygon points="187.0,221.0 186.0,225.0 197.0,253.0 204.0,254.0 200.0,222.0" fill="#f2f7f3" />
<polygon points="209.0,132.0 203.0,131.0 192.0,157.0 193.0,161.0 205.0,160.0 210.0,137.0" fill="#f2f7f3" />
<polygon points="188.0,221.0 186.0,225.0 196.0,251.0 203.0,254.0 205.0,249.0 200.0,222.0" fill="#f2f7f3" opacity="0.95" />
<polygon points="206.0,131.0 200.0,135.0 192.0,157.0 194.0,161.0 205.0,160.0 210.0,133.0" fill="#f2f7f3" opacity="0.95" />
<polygon points="189.0,221.0 186.0,225.0 196.0,251.0 202.0,254.0 205.0,249.0 200.0,223.0" fill="#f2f7f3" opacity="0.95" />
<polygon points="206.0,131.0 200.0,135.0 192.0,157.0 195.0,161.0 205.0,159.0 210.0,137.0" fill="#f2f7f3" opacity="0.95" />
</svg>