<svg xmlns="http://www.w3.org/2000/svg" width="768" height="768" viewBox="0 0 384 384">
<rect width="384" height="384" fill="#8c6863"/>
<polygon points="134.0,0.0 134.0,62.0 153.0,99.0 296.0,104.0 335.0,124.0 383.0,126.0 383.0,66.0 330.0,66.0 267.0,0.0" fill="#cc7761" />
<polygon points="383.0,258.0 225.0,258.0 247.0,201.0 202.0,221.0 137.0,202.0 144.0,254.0 192.0,257.0 177.0,293.0 3.0,289.0 2.0,319.0 140.0,320.0 131.0,383.0 301.0,383.0 220.0,321.0 383.0,319.0" fill="#4a343d" />
<polygon points="0.0,196.0 2.0,255.0 143.0,254.0 131.0,194.0" fill="#b8958c" />
<polygon points="0.0,0.0 2.0,63.0 132.0,62.0 131.0,0.0" fill="#97514b" />
<polygon points="230.0,254.0 381.0,255.0 383.0,194.0 253.0,194.0" fill="#cc7761" />
<polygon points="0.0,325.0 0.0,383.0 130.0,383.0 137.0,323.0" fill="#b8958c" />
<polygon points="0.0,131.0 2.0,191.0 130.0,190.0 117.0,156.0 140.0,155.0 137.0,129.0" fill="#97514b" />
<polygon points="264.0,161.0 124.0,165.0 141.0,205.0 192.0,220.0 242.0,204.0" fill="#72f3fd" />
<polygon points="200.0,130.0 201.0,159.0 269.0,153.0 304.0,190.0 383.0,188.0 381.0,129.0" fill="#3c5960" />
<polygon points="251.0,324.0 302.0,383.0 383.0,383.0 383.0,323.0" fill="#b8958c" />
<polygon points="0.0,68.0 2.0,126.0 139.0,126.0 142.0,157.0 197.0,158.0 196.0,129.0 164.0,127.0 190.0,104.0 153.0,100.0 138.0,66.0" fill="#4a343d" />
<polygon points="134.0,0.0 134.0,62.0 152.0,98.0 295.0,104.0 335.0,124.0 383.0,126.0 383.0,66.0 331.0,65.0 267.0,0.0" fill="#cc7761" opacity="0.95" />
<polygon points="0.0,286.0 175.0,292.0 189.0,259.0 3.0,258.0" fill="#cc7761" />
<polygon points="383.0,258.0 230.0,258.0 247.0,204.0 139.0,205.0 144.0,254.0 190.0,257.0 178.0,292.0 4.0,289.0 0.0,318.0 137.0,320.0 131.0,383.0 300.0,383.0 247.0,321.0 383.0,319.0" fill="#4a343d" opacity="0.95" />
<polygon points="134.0,0.0 134.0,61.0 153.0,98.0 294.0,104.0 335.0,124.0 383.0,126.0 383.0,66.0 332.0,65.0 267.0,0.0" fill="#cc7761" opacity="0.95" />
<polygon points="0.0,196.0 3.0,255.0 143.0,254.0 130.0,194.0" fill="#b8958c" opacity="0.95" />
<polygon points="268.0,0.0 326.0,54.0 337.0,53.0 340.0,63.0 383.0,61.0 383.0,0.0" fill="#4a343d" />
<polygon points="231.0,252.0 381.0,255.0 383.0,194.0 254.0,194.0" fill="#cc7761" opacity="0.95" />
<polygon points="383.0,258.0 233.0,258.0 246.0,205.0 140.0,206.0 144.0,253.0 190.0,258.0 178.0,292.0 5.0,289.0 0.0,317.0 138.0,321.0 131.0,383.0 300.0,383.0 249.0,322.0 383.0,319.0" fill="#4a343d" opacity="0.95" />
<polygon points="0.0,0.0 3.0,63.0 132.0,62.0 131.0,0.0" fill="#97514b" opacity="0.95" />
<polygon points="0.0,325.0 0.0,383.0 130.0,383.0 136.0,323.0" fill="#b8958c" opacity="0.95" />
<polygon points="0.0,131.0 3.0,191.0 127.0,191.0 118.0,157.0 140.0,155.0 136.0,129.0" fill="#97514b" opacity="0.95" />
<polygon points="200.0,130.0 202.0,159.0 268.0,153.0 305.0,190.0 383.0,188.0 380.0,129.0" fill="#3c5960" opacity="0.95" />
<polygon points="264.0,161.0 124.0,165.0 141.0,205.0 192.0,220.0 242.0,204.0" fill="#72f3fd" opacity="0.95" />
<polygon points="0.0,68.0 3.0,126.0 136.0,126.0 141.0,156.0 197.0,158.0 197.0,130.0 165.0,127.0 188.0,103.0 152.0,99.0 137.0,66.0" fill="#4a343d" opacity="0.95" />
<polygon points="166.0,123.0 335.0,125.0 298.0,115.0 296.0,105.0 197.0,100.0" fill="#97514b" />
<polygon points="0.0,196.0 4.0,255.0 143.0,253.0 130.0,194.0" fill="#b8958c" opacity="0.95" />
<polygon points="232.0,250.0 381.0,255.0 383.0,194.0 254.0,194.0" fill="#cc7761" opacity="0.95" />
<polygon points="252.0,324.0 301.0,383.0 383.0,383.0 383.0,323.0" fill="#b8958c" opacity="0.95" />
<polygon points="0.0,0.0 4.0,63.0 132.0,61.0 131.0,0.0" fill="#97514b" opacity="0.95" />
<polygon points="0.0,286.0 175.0,292.0 188.0,259.0 4.0,258.0" fill="#cc7761" opacity="0.95" />
<polygon points="0.0,325.0 0.0,383.0 130.0,383.0 135.0,323.0" fill="#b8958c" opacity="0.95" />
<polygon points="0.0,131.0 4.0,191.0 126.0,191.0 120.0,158.0 140.0,154.0 135.0,129.0" fill="#97514b" opacity="0.95" />
<polygon points="200.0,131.0 203.0,159.0 267.0,153.0 305.0,190.0 383.0,188.0 379.0,129.0" fill="#3c5960" opacity="0.95" />
<polygon points="0.0,68.0 4.0,126.0 135.0,126.0 142.0,156.0 197.0,157.0 196.0,130.0 165.0,126.0 187.0,103.0 152.0,99.0 136.0,66.0" fill="#4a343d" opacity="0.95" />
<polygon points="263.0,162.0 124.0,165.0 141.0,205.0 192.0,220.0 242.0,204.0" fill="#72f3fd" opacity="0.95" />
<polygon points="253.0,325.0 301.0,383.0 383.0,383.0 383.0,323.0" fill="#b8958c" opacity="0.95" />
<polygon points="269.0,0.0 325.0,53.0 338.0,54.0 339.0,62.0 383.0,61.0 383.0,0.0" fill="#4a343d" opacity="0.95" />
<polygon points="0.0,286.0 175.0,292.0 188.0,260.0 5.0,258.0" fill="#cc7761" opacity="0.95" />
<polygon points="269.0,0.0 325.0,53.0 337.0,54.0 340.0,62.0 383.0,61.0 383.0,0.0" fill="#4a343d" opacity="0.95" />
<polygon points="167.0,121.0 171.0,126.0 329.0,125.0 297.0,114.0 295.0,105.0 197.0,100.0" fill="#97514b" opacity="0.95" />
<polygon points="167.0,121.0 171.0,126.0 325.0,124.0 299.0,115.0 294.0,105.0 197.0,100.0" fill="#97514b" opacity="0.95" />
<polygon points="255.0,189.0 256.0,191.0 303.0,190.0 268.0,159.0 265.0,161.0 262.0,176.0" fill="#4a343d" />
<polygon points="270.0,156.0 118.0,158.0 212.0,163.0" fill="#dfc5b5" />
<polygon points="333.0,54.0 331.0,56.0 331.0,62.0 333.0,64.0 336.0,64.0 337.0,63.0 337.0,55.0 336.0,54.0" fill="#f8f2e5" />
<polygon points="333.0,54.0 331.0,55.0 331.0,62.0 335.0,64.0 337.0,63.0 337.0,55.0" fill="#f8f2e5" opacity="0.95" />
<polygon points="334.0,54.0 331.0,56.0 331.0,62.0 334.0,64.0 337.0,62.0 337.0,56.0" fill="#f8f2e5" opacity="0.95" />
<polygon points="121.0,157.0 123.0,160.0 128.0,158.0 133.0,161.0 139.0,160.0 137.0,157.0 130.0,159.0 125.0,156.0" fill="#dfc5b5" opacity="0.95" />
<polygon points="259.0,156.0 259.0,158.0 261.0,159.0 263.0,159.0 264.0,158.0 265.0,159.0 267.0,158.0 267.0,156.0 265.0,155.0 264.0,156.0 263.0,155.0" fill="#dfc5b5" opacity="0.95" />
</svg>