<svg xmlns="http://www.w3.org/2000/svg" width="768" height="768" viewBox="0 0 384 384">
<rect width="384" height="384" fill="#8f6c6a"/>
<polygon points="138.0,130.0 126.0,180.0 163.0,220.0 196.0,230.0 253.0,191.0 257.0,166.0 244.0,129.0" fill="#7bb4bd" />
<polygon points="2.0,195.0 3.0,254.0 144.0,253.0 131.0,194.0" fill="#b2857a" />
<polygon points="2.0,0.0 3.0,62.0 136.0,61.0 131.0,0.0" fill="#804346" />
<polygon points="2.0,259.0 3.0,320.0 130.0,319.0 129.0,258.0" fill="#804346" />
<polygon points="253.0,0.0 249.0,62.0 383.0,60.0 383.0,0.0" fill="#804346" />
<polygon points="253.0,259.0 254.0,320.0 383.0,318.0 381.0,258.0" fill="#804346" />
<polygon points="2.0,67.0 3.0,126.0 138.0,126.0 150.0,98.0 136.0,66.0" fill="#415260" />
<polygon points="233.0,97.0 246.0,126.0 381.0,126.0 383.0,68.0 248.0,66.0" fill="#804346" />
<polygon points="247.0,199.0 241.0,254.0 383.0,252.0 381.0,194.0 252.0,194.0" fill="#b2857a" />
<polygon points="2.0,326.0 2.0,383.0 120.0,383.0 137.0,327.0" fill="#b2857a" />
<polygon points="0.0,132.0 3.0,190.0 128.0,189.0 124.0,168.0 136.0,130.0" fill="#b2857a" />
<polygon points="245.0,326.0 263.0,383.0 383.0,383.0 381.0,324.0" fill="#b2857a" />
<polygon points="247.0,131.0 259.0,171.0 256.0,190.0 383.0,188.0 381.0,130.0" fill="#415260" />
<polygon points="253.0,0.0 251.0,65.0 234.0,96.0 245.0,125.0 383.0,124.0 383.0,0.0" fill="#804346" opacity="0.95" />
<polygon points="3.0,130.0 0.0,252.0 132.0,255.0 133.0,322.0 4.0,325.0 0.0,383.0 120.0,383.0 135.0,322.0 185.0,265.0 141.0,256.0 136.0,131.0" fill="#b2857a" opacity="0.95" />
<polygon points="132.0,0.0 138.0,63.0 175.0,63.0 191.0,31.0 206.0,62.0 247.0,62.0 252.0,0.0" fill="#db714d" />
<polygon points="146.0,107.0 126.0,180.0 151.0,212.0 196.0,230.0 253.0,191.0 257.0,166.0 237.0,107.0" fill="#7bb4bd" opacity="0.95" />
<polygon points="253.0,0.0 251.0,64.0 234.0,96.0 246.0,125.0 383.0,124.0 383.0,0.0" fill="#804346" opacity="0.95" />
<polygon points="4.0,130.0 0.0,251.0 130.0,255.0 132.0,321.0 5.0,325.0 0.0,383.0 120.0,383.0 135.0,322.0 185.0,264.0 142.0,255.0 136.0,132.0" fill="#b2857a" opacity="0.95" />
<polygon points="0.0,0.0 4.0,62.0 135.0,61.0 131.0,0.0" fill="#804346" opacity="0.95" />
<polygon points="0.0,260.0 4.0,320.0 130.0,319.0 128.0,258.0" fill="#804346" opacity="0.95" />
<polygon points="0.0,68.0 4.0,126.0 137.0,126.0 150.0,98.0 135.0,66.0" fill="#415260" opacity="0.95" />
<polygon points="253.0,259.0 255.0,320.0 383.0,318.0 380.0,258.0" fill="#804346" opacity="0.95" />
<polygon points="248.0,131.0 258.0,190.0 383.0,188.0 380.0,130.0" fill="#415260" opacity="0.95" />
<polygon points="147.0,108.0 126.0,180.0 151.0,212.0 196.0,230.0 253.0,191.0 257.0,166.0 237.0,107.0" fill="#7bb4bd" opacity="0.95" />
<polygon points="198.0,265.0 248.0,321.0 251.0,255.0 380.0,254.0 383.0,196.0 253.0,194.0 242.0,256.0" fill="#b2857a" opacity="0.95" />
<polygon points="246.0,326.0 263.0,383.0 383.0,383.0 380.0,324.0" fill="#b2857a" opacity="0.95" />
<polygon points="184.0,279.0 148.0,318.0 126.0,383.0 160.0,383.0 185.0,330.0" fill="#415260" />
<polygon points="148.0,102.0 237.0,104.0 211.0,76.0 191.0,32.0 172.0,76.0" fill="#fd0605" />
<polygon points="251.0,195.0 241.0,255.0 198.0,265.0 249.0,323.0 263.0,383.0 383.0,383.0 379.0,324.0 250.0,322.0 253.0,255.0 379.0,254.0 383.0,196.0" fill="#b2857a" opacity="0.95" />
<polygon points="0.0,69.0 5.0,126.0 136.0,126.0 150.0,98.0 134.0,66.0" fill="#415260" opacity="0.95" />
<polygon points="199.0,277.0 198.0,330.0 208.0,354.0 216.0,357.0 225.0,383.0 256.0,383.0 232.0,313.0" fill="#415260" />
<polygon points="248.0,132.0 259.0,190.0 383.0,188.0 379.0,130.0" fill="#415260" opacity="0.95" />
<polygon points="132.0,0.0 137.0,62.0 177.0,62.0 191.0,33.0 205.0,61.0 247.0,62.0 252.0,0.0" fill="#db714d" opacity="0.95" />
<polygon points="140.0,124.0 243.0,122.0 236.0,106.0 148.0,106.0" fill="#7bb4bd" />
<polygon points="132.0,0.0 138.0,62.0 176.0,62.0 191.0,34.0 208.0,62.0 248.0,60.0 252.0,0.0" fill="#db714d" opacity="0.95" />
<polygon points="191.0,241.0 184.0,278.0 186.0,330.0 174.0,356.0 174.0,383.0 209.0,383.0 208.0,355.0 197.0,330.0 197.0,252.0" fill="#032850" />
<polygon points="185.0,280.0 148.0,318.0 127.0,383.0 160.0,383.0 185.0,330.0" fill="#415260" opacity="0.95" />
<polygon points="148.0,102.0 236.0,104.0 211.0,76.0 191.0,34.0 172.0,76.0" fill="#fd0605" opacity="0.95" />
<polygon points="198.0,280.0 198.0,330.0 216.0,357.0 222.0,377.0 216.0,383.0 256.0,383.0 232.0,313.0" fill="#415260" opacity="0.95" />
<polygon points="208.0,64.0 214.0,78.0 232.0,96.0 247.0,65.0" fill="#efece6" />
<polygon points="152.0,96.0 168.0,80.0 175.0,64.0 137.0,65.0" fill="#efece6" />
<polygon points="149.0,101.0 235.0,103.0 211.0,76.0 191.0,35.0 172.0,76.0" fill="#fd0605" opacity="0.95" />
<polygon points="191.0,243.0 186.0,330.0 175.0,355.0 174.0,383.0 209.0,383.0 208.0,355.0 197.0,330.0 197.0,252.0" fill="#032850" opacity="0.95" />
<polygon points="184.0,269.0 140.0,321.0 0.0,324.0 137.0,323.0 125.0,383.0 147.0,317.0" fill="#efece6" />
<polygon points="198.0,268.0 238.0,321.0 258.0,383.0 245.0,323.0 383.0,324.0 242.0,321.0" fill="#efece6" />
<polygon points="191.0,244.0 186.0,330.0 175.0,355.0 174.0,383.0 209.0,383.0 208.0,355.0 197.0,330.0 197.0,252.0" fill="#032850" opacity="0.95" />
<polygon points="208.0,65.0 219.0,84.0 230.0,94.0 234.0,94.0 245.0,65.0" fill="#efece6" opacity="0.95" />
<polygon points="150.0,94.0 154.0,94.0 164.0,85.0 175.0,65.0 139.0,65.0" fill="#efece6" opacity="0.95" />
<polygon points="139.0,66.0 145.0,85.0 152.0,94.0 164.0,85.0 174.0,70.0 171.0,64.0" fill="#efece6" opacity="0.95" />
<polygon points="210.0,65.0 209.0,69.0 219.0,84.0 229.0,93.0 234.0,93.0 245.0,66.0" fill="#efece6" opacity="0.95" />
<polygon points="184.0,270.0 162.0,289.0 139.0,326.0 143.0,326.0 157.0,301.0 184.0,276.0" fill="#efece6" opacity="0.95" />
<polygon points="198.0,270.0 198.0,275.0 213.0,287.0 224.0,300.0 228.0,300.0 216.0,283.0 204.0,271.0" fill="#efece6" opacity="0.95" />
</svg>