<svg xmlns="http://www.w3.org/2000/svg" width="768" height="768" viewBox="0 0 384 384">
<rect width="384" height="384" fill="#895d52"/>
<polygon points="0.0,28.0 2.0,320.0 158.0,313.0 127.0,65.0 157.0,102.0 192.0,32.0 268.0,99.0 235.0,319.0 383.0,320.0 318.0,25.0" fill="#9a5745" />
<polygon points="1.0,28.0 1.0,378.0 164.0,383.0 116.0,170.0 192.0,33.0 275.0,164.0 222.0,383.0 354.0,370.0 383.0,193.0 318.0,25.0" fill="#9a5745" opacity="0.95" />
<polygon points="0.0,30.0 1.0,378.0 164.0,383.0 116.0,170.0 192.0,33.0 275.0,164.0 222.0,383.0 354.0,370.0 383.0,193.0 318.0,25.0" fill="#9a5745" opacity="0.95" />
<polygon points="157.0,326.0 2.0,325.0 0.0,377.0 7.0,383.0 164.0,383.0 152.0,356.0" fill="#9a5745" />
<polygon points="222.0,383.0 336.0,383.0 369.0,345.0 366.0,326.0 232.0,325.0 236.0,360.0" fill="#9a5745" />
<polygon points="141.0,68.0 137.0,102.0 169.0,134.0 169.0,183.0 127.0,145.0 126.0,174.0 148.0,208.0 185.0,228.0 194.0,264.0 196.0,114.0 157.0,104.0" fill="#3dd3fb" />
<polygon points="261.0,0.0 305.0,15.0 356.0,65.0 368.0,123.0 380.0,128.0 370.0,187.0 383.0,190.0 383.0,25.0 358.0,0.0" fill="#63352b" />
<polygon points="256.0,68.0 240.0,70.0 229.0,104.0 197.0,113.0 197.0,264.0 203.0,228.0 239.0,207.0 261.0,173.0 261.0,144.0 216.0,183.0 216.0,137.0 259.0,92.0" fill="#97fdfc" />
<polygon points="142.0,68.0 138.0,103.0 169.0,134.0 169.0,183.0 126.0,145.0 126.0,174.0 148.0,208.0 185.0,228.0 193.0,252.0 196.0,114.0 157.0,104.0" fill="#3dd3fb" opacity="0.95" />
<polygon points="264.0,0.0 318.0,24.0 356.0,64.0 376.0,128.0 371.0,188.0 383.0,190.0 383.0,25.0 359.0,0.0" fill="#63352b" opacity="0.95" />
<polygon points="0.0,22.0 8.0,27.0 25.0,18.0 120.0,0.0 0.0,0.0" fill="#63352b" />
<polygon points="190.0,35.0 164.0,74.0 183.0,75.0 184.0,110.0 202.0,111.0 203.0,77.0 218.0,74.0" fill="#fd012d" />
<polygon points="255.0,68.0 240.0,70.0 229.0,104.0 197.0,113.0 198.0,264.0 203.0,227.0 239.0,207.0 261.0,173.0 262.0,144.0 216.0,183.0 216.0,137.0 259.0,92.0" fill="#97fdfc" opacity="0.95" />
<polygon points="266.0,164.0 252.0,195.0 204.0,228.0 205.0,260.0 209.0,249.0 258.0,206.0" fill="#291111" />
<polygon points="143.0,91.0 138.0,103.0 169.0,134.0 169.0,182.0 123.0,145.0 129.0,183.0 192.0,236.0 196.0,115.0 170.0,113.0" fill="#3dd3fb" opacity="0.95" />
<polygon points="125.0,175.0 126.0,193.0 139.0,218.0 182.0,259.0 183.0,229.0 151.0,212.0" fill="#291111" />
<polygon points="226.0,338.0 223.0,334.0 192.0,354.0 164.0,336.0 161.0,353.0 172.0,368.0 195.0,377.0 223.0,358.0" fill="#291111" />
<polygon points="267.0,0.0 318.0,24.0 354.0,64.0 375.0,128.0 371.0,188.0 383.0,190.0 383.0,25.0 359.0,0.0" fill="#63352b" opacity="0.95" />
<polygon points="258.0,95.0 218.0,136.0 219.0,184.0 223.0,183.0 224.0,152.0 258.0,119.0" fill="#291111" />
<polygon points="255.0,68.0 240.0,70.0 229.0,104.0 197.0,114.0 199.0,264.0 203.0,228.0 239.0,207.0 261.0,173.0 262.0,144.0 216.0,182.0 216.0,137.0 259.0,92.0" fill="#97fdfc" opacity="0.95" />
<polygon points="383.0,325.0 365.0,329.0 370.0,345.0 363.0,351.0 355.0,370.0 337.0,383.0 383.0,383.0" fill="#63352b" />
<polygon points="133.0,101.0 132.0,112.0 136.0,125.0 167.0,159.0 168.0,135.0" fill="#291111" />
<polygon points="268.0,153.0 259.0,206.0 210.0,249.0 197.0,277.0 262.0,212.0 274.0,189.0" fill="#63352b" />
<polygon points="231.0,327.0 224.0,358.0 195.0,378.0 163.0,360.0 158.0,328.0 153.0,356.0 165.0,383.0 221.0,383.0 235.0,360.0" fill="#63352b" />
<polygon points="261.0,81.0 259.0,119.0 223.0,157.0 225.0,184.0 235.0,173.0 235.0,154.0 267.0,124.0" fill="#63352b" />
<polygon points="189.0,38.0 166.0,74.0 184.0,77.0 184.0,110.0 201.0,111.0 203.0,77.0 217.0,72.0" fill="#fd012d" opacity="0.95" />
<polygon points="0.0,23.0 7.0,27.0 25.0,18.0 119.0,0.0 0.0,0.0" fill="#63352b" opacity="0.95" />
<polygon points="219.0,76.0 205.0,78.0 205.0,111.0 210.0,111.0 223.0,98.0" fill="#291111" />
<polygon points="125.0,185.0 143.0,223.0 183.0,255.0 183.0,228.0 155.0,215.0" fill="#291111" opacity="0.95" />
<polygon points="157.0,324.0 171.0,341.0 192.0,350.0 212.0,343.0 225.0,330.0 218.0,321.0 206.0,333.0 195.0,328.0 182.0,333.0 171.0,324.0 166.0,301.0" fill="#024bad" />
<polygon points="267.0,168.0 237.0,210.0 204.0,228.0 204.0,252.0 253.0,213.0 266.0,187.0" fill="#291111" opacity="0.95" />
<polygon points="226.0,338.0 193.0,354.0 165.0,337.0 161.0,353.0 172.0,368.0 195.0,377.0 223.0,358.0" fill="#291111" opacity="0.95" />
<polygon points="170.0,76.0 166.0,91.0 167.0,100.0 175.0,111.0 182.0,111.0 183.0,77.0" fill="#291111" />
<polygon points="199.0,278.0 200.0,301.0 214.0,303.0 220.0,307.0 232.0,306.0 231.0,301.0 221.0,299.0 220.0,275.0" fill="#11adf0" />
<polygon points="189.0,265.0 187.0,325.0 192.0,329.0 195.0,327.0 195.0,267.0" fill="#062b76" />
<polygon points="190.0,38.0 166.0,73.0 184.0,78.0 184.0,109.0 200.0,111.0 203.0,78.0 216.0,71.0" fill="#fd012d" opacity="0.95" />
<polygon points="383.0,325.0 366.0,328.0 370.0,345.0 363.0,351.0 355.0,370.0 337.0,383.0 383.0,383.0" fill="#63352b" opacity="0.95" />
<polygon points="223.0,268.0 221.0,296.0 223.0,300.0 230.0,301.0 232.0,299.0 230.0,269.0" fill="#3dd3fb" />
<polygon points="130.0,68.0 128.0,70.0 127.0,90.0 136.0,101.0 140.0,92.0 140.0,73.0 138.0,68.0" fill="#11adf0" />
<polygon points="174.0,286.0 174.0,294.0 170.0,299.0 170.0,312.0 174.0,320.0 185.0,320.0 182.0,299.0 179.0,291.0" fill="#9a5745" />
<polygon points="199.0,302.0 198.0,319.0 211.0,320.0 214.0,306.0 212.0,304.0" fill="#9a5745" />
<polygon points="162.0,307.0 158.0,326.0 181.0,346.0 193.0,350.0 208.0,345.0 224.0,331.0 218.0,322.0 206.0,333.0 182.0,333.0 171.0,324.0 167.0,305.0" fill="#024bad" opacity="0.95" />
<polygon points="185.0,231.0 184.0,263.0 191.0,264.0 190.0,238.0" fill="#11adf0" />
<polygon points="199.0,277.0 199.0,300.0 220.0,307.0 232.0,306.0 232.0,303.0 221.0,299.0 221.0,276.0" fill="#11adf0" opacity="0.95" />
<polygon points="193.0,33.0 195.0,42.0 222.0,75.0" fill="#f7eae4" />
<polygon points="158.0,323.0 171.0,341.0 192.0,350.0 224.0,331.0 218.0,322.0 206.0,333.0 182.0,333.0 171.0,324.0 165.0,306.0" fill="#024bad" opacity="0.95" />
<polygon points="190.0,266.0 187.0,277.0 188.0,326.0 192.0,329.0 195.0,327.0 195.0,267.0" fill="#062b76" opacity="0.95" />
<polygon points="148.0,278.0 148.0,280.0 152.0,282.0 184.0,280.0 183.0,277.0 163.0,275.0" fill="#f7eae4" />
<polygon points="200.0,277.0 198.0,299.0 220.0,307.0 227.0,306.0 228.0,303.0 220.0,296.0 221.0,277.0" fill="#11adf0" opacity="0.95" />
<polygon points="131.0,68.0 128.0,70.0 127.0,90.0 130.0,95.0 136.0,99.0 140.0,92.0 139.0,69.0" fill="#11adf0" opacity="0.95" />
<polygon points="224.0,268.0 222.0,269.0 221.0,296.0 222.0,299.0 229.0,301.0 232.0,299.0 230.0,269.0" fill="#3dd3fb" opacity="0.95" />
<polygon points="191.0,266.0 188.0,268.0 187.0,283.0 188.0,326.0 192.0,329.0 195.0,327.0 195.0,268.0" fill="#062b76" opacity="0.95" />
<polygon points="175.0,288.0 173.0,289.0 174.0,296.0 170.0,299.0 170.0,312.0 173.0,319.0 184.0,320.0 186.0,317.0 179.0,291.0" fill="#9a5745" opacity="0.95" />
<polygon points="198.0,303.0 198.0,319.0 212.0,319.0 212.0,311.0 214.0,305.0 201.0,302.0" fill="#9a5745" opacity="0.95" />
<polygon points="148.0,278.0 152.0,282.0 163.0,282.0 162.0,293.0 165.0,295.0 172.0,293.0 170.0,282.0 184.0,280.0 182.0,277.0 163.0,275.0" fill="#f7eae4" opacity="0.95" />
<polygon points="225.0,268.0 222.0,270.0 221.0,296.0 224.0,300.0 229.0,301.0 232.0,299.0 230.0,270.0" fill="#3dd3fb" opacity="0.95" />
<polygon points="131.0,68.0 128.0,70.0 127.0,90.0 135.0,99.0 140.0,92.0 140.0,76.0 138.0,69.0" fill="#11adf0" opacity="0.95" />
<polygon points="186.0,233.0 184.0,234.0 184.0,263.0 189.0,264.0 191.0,263.0 190.0,238.0 189.0,235.0" fill="#11adf0" opacity="0.95" />
<polygon points="177.0,291.0 170.0,299.0 170.0,312.0 174.0,319.0 182.0,320.0 185.0,318.0 184.0,307.0 180.0,293.0" fill="#9a5745" opacity="0.95" />
<polygon points="219.0,263.0 219.0,265.0 222.0,268.0 223.0,267.0 231.0,267.0 233.0,265.0 233.0,263.0 231.0,260.0 222.0,259.0" fill="#11adf0" />
<polygon points="163.0,285.0 162.0,286.0 162.0,293.0 165.0,295.0 169.0,295.0 172.0,292.0 172.0,287.0 170.0,285.0 168.0,286.0" fill="#f7eae4" />
<polygon points="161.0,310.0 154.0,320.0 156.0,324.0 162.0,315.0 162.0,311.0" fill="#1080c6" />
<polygon points="231.0,273.0 231.0,277.0 232.0,278.0 233.0,277.0 242.0,277.0 243.0,276.0 243.0,273.0 242.0,272.0 232.0,272.0" fill="#11adf0" />
<polygon points="162.0,275.0 159.0,277.0 159.0,279.0 164.0,283.0 162.0,293.0 168.0,295.0 172.0,292.0 172.0,287.0 164.0,283.0 166.0,277.0" fill="#f7eae4" opacity="0.95" />
<polygon points="176.0,322.0 176.0,323.0 177.0,324.0 185.0,324.0 186.0,323.0 186.0,322.0 185.0,321.0 177.0,321.0" fill="#f7eae4" />
<polygon points="233.0,267.0 233.0,270.0 234.0,271.0 239.0,271.0 240.0,270.0 235.0,266.0 234.0,266.0" fill="#c78970" />
<polygon points="170.0,315.0 169.0,317.0 173.0,325.0 175.0,323.0 171.0,318.0 171.0,316.0" fill="#1080c6" />
<polygon points="199.0,323.0 200.0,324.0 210.0,324.0 211.0,323.0 210.0,322.0 202.0,322.0 201.0,321.0" fill="#f7eae4" />
<polygon points="216.0,315.0 215.0,316.0 215.0,318.0 213.0,321.0 213.0,322.0 214.0,323.0 215.0,323.0 217.0,321.0 217.0,316.0" fill="#062b76" />
<polygon points="143.0,68.0 140.0,70.0 140.0,72.0 143.0,74.0 146.0,72.0 146.0,70.0" fill="#3dd3fb" opacity="0.95" />
<polygon points="159.0,314.0 157.0,315.0 156.0,317.0 156.0,319.0 158.0,320.0 160.0,319.0 161.0,317.0 161.0,315.0" fill="#1080c6" opacity="0.95" />
</svg>