<svg xmlns="http://www.w3.org/2000/svg" width="768" height="768" viewBox="0 0 384 384">
<rect width="384" height="384" fill="#8d6a62"/>
<polygon points="173.0,36.0 61.0,77.0 4.0,196.0 38.0,318.0 139.0,383.0 167.0,366.0 71.0,208.0 103.0,113.0" fill="#99918c" />
<polygon points="0.0,0.0 0.0,102.0 74.0,29.0 197.0,2.0 316.0,23.0 383.0,114.0 383.0,0.0" fill="#554d49" />
<polygon points="279.0,119.0 263.0,129.0 211.0,119.0 144.0,186.0 153.0,228.0 195.0,230.0 241.0,203.0 270.0,164.0" fill="#99918c" />
<polygon points="339.0,52.0 357.0,236.0 342.0,140.0 216.0,293.0 335.0,236.0 242.0,353.0 173.0,365.0 206.0,345.0 118.0,302.0 168.0,383.0 301.0,383.0 361.0,319.0 383.0,115.0" fill="#7b726b" />
<polygon points="171.0,36.0 61.0,77.0 4.0,196.0 38.0,318.0 138.0,383.0 167.0,366.0 71.0,208.0 103.0,113.0" fill="#99918c" opacity="0.95" />
<polygon points="234.0,8.0 79.0,28.0 0.0,105.0 0.0,310.0 69.0,383.0 138.0,383.0 7.0,264.0 16.0,136.0 74.0,66.0" fill="#7b726b" />
<polygon points="334.0,236.0 229.0,298.0 105.0,282.0 122.0,320.0 134.0,304.0 207.0,345.0 156.0,355.0 216.0,364.0 306.0,294.0" fill="#554d49" />
<polygon points="170.0,36.0 58.0,80.0 0.0,214.0 38.0,318.0 137.0,383.0 167.0,366.0 71.0,208.0 103.0,113.0" fill="#99918c" opacity="0.95" />
<polygon points="331.0,88.0 332.0,129.0 274.0,188.0 286.0,78.0 252.0,210.0 182.0,265.0 336.0,160.0" fill="#b8422e" />
<polygon points="279.0,120.0 230.0,129.0 211.0,119.0 144.0,186.0 153.0,228.0 191.0,231.0 234.0,209.0 267.0,170.0" fill="#99918c" opacity="0.95" />
<polygon points="0.0,0.0 0.0,102.0 74.0,29.0 197.0,2.0 316.0,23.0 383.0,113.0 383.0,0.0" fill="#554d49" opacity="0.95" />
<polygon points="383.0,243.0 350.0,292.0 365.0,301.0 362.0,319.0 302.0,383.0 383.0,383.0" fill="#554d49" />
<polygon points="234.0,8.0 78.0,29.0 0.0,105.0 0.0,310.0 69.0,383.0 137.0,382.0 7.0,264.0 16.0,136.0 74.0,66.0" fill="#7b726b" opacity="0.95" />
<polygon points="342.0,55.0 366.0,203.0 283.0,314.0 302.0,344.0 167.0,383.0 302.0,383.0 361.0,319.0 383.0,114.0" fill="#7b726b" opacity="0.95" />
<polygon points="334.0,236.0 229.0,298.0 105.0,282.0 126.0,315.0 207.0,345.0 156.0,355.0 216.0,364.0 306.0,294.0" fill="#554d49" opacity="0.95" />
<polygon points="222.0,92.0 201.0,93.0 165.0,124.0 141.0,185.0 218.0,113.0" fill="#554d49" />
<polygon points="279.0,121.0 230.0,129.0 211.0,119.0 144.0,186.0 153.0,228.0 191.0,231.0 234.0,209.0 267.0,170.0" fill="#99918c" opacity="0.95" />
<polygon points="0.0,0.0 0.0,102.0 74.0,29.0 195.0,1.0 316.0,23.0 383.0,112.0 383.0,0.0" fill="#554d49" opacity="0.95" />
<polygon points="338.0,96.0 275.0,188.0 281.0,84.0 249.0,213.0 113.0,253.0 170.0,281.0 337.0,157.0" fill="#b8422e" opacity="0.95" />
<polygon points="333.0,161.0 262.0,229.0 182.0,266.0 184.0,278.0 260.0,250.0 321.0,196.0" fill="#ae1a0a" />
<polygon points="217.0,24.0 157.0,54.0 103.0,115.0 92.0,178.0 108.0,221.0 106.0,171.0 143.0,219.0 117.0,114.0 175.0,56.0 215.0,58.0" fill="#cf6757" />
<polygon points="0.0,311.0 0.0,383.0 68.0,383.0 32.0,355.0" fill="#554d49" />
<polygon points="343.0,56.0 366.0,203.0 286.0,312.0 302.0,344.0 167.0,383.0 302.0,383.0 361.0,319.0 383.0,113.0" fill="#7b726b" opacity="0.95" />
<polygon points="333.0,239.0 229.0,298.0 105.0,282.0 126.0,315.0 207.0,345.0 156.0,355.0 211.0,365.0 306.0,294.0" fill="#554d49" opacity="0.95" />
<polygon points="345.0,101.0 350.0,191.0 332.0,261.0 356.0,236.0 365.0,203.0 364.0,145.0" fill="#99918c" />
<polygon points="304.0,339.0 259.0,368.0 210.0,381.0 200.0,375.0 245.0,355.0 265.0,326.0 286.0,316.0" fill="#7b726b" />
<polygon points="308.0,46.0 211.0,23.0 102.0,117.0 104.0,233.0 153.0,72.0 275.0,54.0 278.0,186.0 329.0,122.0" fill="#cf6757" opacity="0.95" />
<polygon points="229.0,9.0 124.0,14.0 42.0,54.0 0.0,104.0 0.0,213.0 16.0,136.0 61.0,76.0" fill="#7b726b" opacity="0.95" />
<polygon points="303.0,339.0 286.0,317.0 265.0,327.0 245.0,356.0 201.0,375.0 210.0,380.0 259.0,367.0" fill="#99918c" />
<polygon points="338.0,96.0 277.0,187.0 281.0,84.0 249.0,213.0 177.0,254.0 113.0,253.0 171.0,280.0 337.0,157.0" fill="#b8422e" opacity="0.95" />
<polygon points="383.0,243.0 350.0,292.0 365.0,301.0 362.0,319.0 303.0,383.0 383.0,383.0" fill="#554d49" opacity="0.95" />
<polygon points="317.0,202.0 243.0,263.0 188.0,282.0 211.0,286.0 254.0,269.0" fill="#5a0406" />
<polygon points="201.0,60.0 167.0,78.0 139.0,107.0 123.0,139.0 130.0,161.0 140.0,163.0 143.0,136.0 166.0,101.0 208.0,73.0" fill="#ae1a0a" />
<polygon points="307.0,44.0 211.0,23.0 145.0,64.0 94.0,155.0 109.0,239.0 105.0,172.0 142.0,218.0 110.0,135.0 153.0,72.0 237.0,36.0 278.0,77.0" fill="#cf6757" opacity="0.95" />
<polygon points="318.0,74.0 323.0,116.0 314.0,124.0 297.0,72.0 289.0,77.0 294.0,129.0 274.0,187.0 304.0,163.0 329.0,122.0" fill="#cf6757" />
<polygon points="224.0,82.0 209.0,73.0 169.0,99.0 144.0,136.0 141.0,161.0 178.0,109.0" fill="#5a0406" />
<polygon points="344.0,148.0 279.0,265.0 217.0,295.0 246.0,292.0 339.0,235.0" fill="#7b726b" opacity="0.95" />
<polygon points="229.0,53.0 185.0,52.0 127.0,101.0 111.0,138.0 128.0,175.0 138.0,166.0 122.0,139.0 146.0,97.0 181.0,67.0" fill="#b8422e" />
<polygon points="333.0,161.0 262.0,229.0 182.0,266.0 184.0,278.0 260.0,250.0 321.0,196.0" fill="#ae1a0a" opacity="0.95" />
<polygon points="100.0,123.0 79.0,199.0 99.0,255.0 108.0,244.0 98.0,234.0 107.0,221.0 91.0,178.0" fill="#b8422e" />
<polygon points="0.0,226.0 0.0,311.0 33.0,355.0 68.0,383.0 136.0,383.0 43.0,325.0 7.0,264.0" fill="#7b726b" opacity="0.95" />
<polygon points="346.0,102.0 350.0,191.0 332.0,260.0 356.0,236.0 365.0,203.0 364.0,145.0" fill="#99918c" opacity="0.95" />
<polygon points="132.0,306.0 127.0,318.0 131.0,338.0 148.0,354.0 156.0,349.0 206.0,348.0 171.0,319.0" fill="#7b726b" opacity="0.95" />
<polygon points="113.0,248.0 117.0,257.0 128.0,262.0 163.0,266.0 170.0,283.0 178.0,276.0 175.0,252.0 164.0,255.0 127.0,244.0 122.0,238.0" fill="#b8422e" />
<polygon points="333.0,162.0 262.0,229.0 182.0,266.0 184.0,278.0 260.0,250.0 321.0,196.0" fill="#ae1a0a" opacity="0.95" />
<polygon points="124.0,241.0 175.0,251.0 183.0,233.0 169.0,236.0 142.0,228.0 140.0,235.0 130.0,232.0" fill="#cf6757" />
<polygon points="302.0,337.0 286.0,317.0 264.0,328.0 245.0,356.0 203.0,370.0 202.0,378.0 259.0,367.0" fill="#99918c" opacity="0.95" />
<polygon points="315.0,205.0 243.0,263.0 189.0,283.0 221.0,284.0 254.0,269.0" fill="#5a0406" opacity="0.95" />
<polygon points="202.0,61.0 175.0,72.0 139.0,107.0 123.0,139.0 130.0,161.0 140.0,163.0 143.0,136.0 166.0,101.0 208.0,73.0" fill="#ae1a0a" opacity="0.95" />
<polygon points="314.0,61.0 308.0,75.0 304.0,65.0 298.0,71.0 310.0,123.0 322.0,116.0 315.0,76.0 321.0,73.0" fill="#eaa095" />
<polygon points="324.0,64.0 317.0,123.0 306.0,119.0 297.0,73.0 289.0,77.0 294.0,129.0 276.0,187.0 329.0,123.0 325.0,87.0 336.0,80.0" fill="#cf6757" opacity="0.95" />
<polygon points="228.0,222.0 184.0,236.0 144.0,228.0 124.0,241.0 174.0,251.0" fill="#cf6757" opacity="0.95" />
<polygon points="230.0,54.0 185.0,52.0 129.0,98.0 111.0,135.0 127.0,174.0 138.0,166.0 122.0,139.0 146.0,97.0 181.0,67.0" fill="#b8422e" opacity="0.95" />
<polygon points="223.0,81.0 209.0,74.0 169.0,99.0 144.0,136.0 141.0,157.0 178.0,109.0" fill="#5a0406" opacity="0.95" />
<polygon points="307.0,43.0 295.0,46.0 272.0,65.0 276.0,69.0 278.0,78.0 301.0,58.0" fill="#cf6757" />
<polygon points="99.0,127.0 80.0,199.0 100.0,253.0 108.0,242.0 100.0,233.0 106.0,219.0 91.0,178.0" fill="#b8422e" opacity="0.95" />
<polygon points="208.0,69.0 226.0,82.0 246.0,76.0 271.0,87.0 256.0,73.0 241.0,75.0 230.0,61.0" fill="#6f2c21" />
<polygon points="107.0,252.0 111.0,264.0 132.0,276.0 156.0,282.0 164.0,279.0 161.0,269.0 123.0,261.0 111.0,248.0" fill="#ae1a0a" />
<polygon points="238.0,38.0 255.0,41.0 277.0,56.0 285.0,49.0 253.0,29.0 242.0,25.0" fill="#cf6757" />
<polygon points="202.0,61.0 175.0,72.0 139.0,107.0 123.0,139.0 130.0,161.0 140.0,162.0 143.0,136.0 166.0,101.0 208.0,73.0" fill="#ae1a0a" opacity="0.95" />
<polygon points="236.0,42.0 236.0,51.0 254.0,55.0 268.0,66.0 276.0,57.0 255.0,42.0 238.0,39.0" fill="#b8422e" />
<polygon points="253.0,204.0 241.0,206.0 221.0,224.0 187.0,234.0 181.0,245.0 214.0,233.0 248.0,213.0" fill="#cf6757" />
<polygon points="313.0,208.0 301.0,210.0 252.0,257.0 202.0,284.0 221.0,284.0 260.0,265.0" fill="#5a0406" opacity="0.95" />
<polygon points="228.0,53.0 185.0,52.0 127.0,101.0 111.0,135.0 127.0,174.0 138.0,166.0 122.0,139.0 146.0,97.0 181.0,67.0" fill="#b8422e" opacity="0.95" />
<polygon points="221.0,81.0 209.0,74.0 169.0,99.0 152.0,120.0 141.0,152.0 178.0,109.0" fill="#5a0406" opacity="0.95" />
<polygon points="235.0,53.0 239.0,68.0 245.0,68.0 260.0,75.0 264.0,74.0 267.0,66.0 258.0,58.0 242.0,52.0" fill="#ae1a0a" />
<polygon points="106.0,172.0 103.0,185.0 107.0,204.0 108.0,196.0 116.0,192.0 126.0,210.0 118.0,178.0" fill="#eaa095" />
<polygon points="103.0,259.0 105.0,278.0 112.0,271.0 128.0,281.0 157.0,285.0 117.0,270.0" fill="#6f2c21" />
<polygon points="130.0,212.0 126.0,212.0 113.0,220.0 121.0,231.0 131.0,223.0 138.0,220.0" fill="#eaa095" />
<polygon points="130.0,283.0 158.0,292.0 187.0,292.0" fill="#f9efe7" />
<polygon points="245.0,20.0 244.0,25.0 267.0,35.0 286.0,49.0 290.0,46.0 257.0,23.0 259.0,19.0" fill="#eaa095" />
<polygon points="108.0,251.0 109.0,262.0 120.0,270.0 151.0,281.0 163.0,280.0 162.0,270.0 128.0,263.0" fill="#ae1a0a" opacity="0.95" />
<polygon points="313.0,61.0 309.0,74.0 302.0,68.0 298.0,71.0 305.0,106.0 314.0,107.0 306.0,112.0 311.0,123.0 322.0,116.0 315.0,85.0 320.0,70.0" fill="#eaa095" opacity="0.95" />
<polygon points="235.0,53.0 238.0,67.0 264.0,74.0 266.0,65.0 258.0,58.0 242.0,52.0" fill="#ae1a0a" opacity="0.95" />
<polygon points="209.0,68.0 212.0,75.0 226.0,82.0 245.0,75.0 266.0,82.0 253.0,72.0 241.0,75.0 229.0,61.0" fill="#6f2c21" opacity="0.95" />
<polygon points="258.0,23.0 292.0,45.0 295.0,43.0 278.0,33.0 276.0,27.0 288.0,30.0 298.0,41.0 302.0,39.0 284.0,26.0" fill="#f2cabf" />
<polygon points="231.0,18.0 289.0,47.0 261.0,27.0 259.0,19.0" fill="#eaa095" opacity="0.95" />
<polygon points="326.0,33.0 324.0,37.0 332.0,48.0 332.0,65.0 340.0,71.0 337.0,65.0 335.0,43.0" fill="#f9efe7" />
<polygon points="209.0,68.0 212.0,75.0 226.0,82.0 243.0,76.0 229.0,61.0" fill="#6f2c21" opacity="0.95" />
<polygon points="314.0,63.0 309.0,72.0 298.0,71.0 305.0,104.0 311.0,108.0 307.0,114.0 311.0,123.0 322.0,116.0 315.0,85.0 319.0,68.0" fill="#eaa095" opacity="0.95" />
<polygon points="105.0,173.0 103.0,180.0 105.0,195.0 122.0,194.0 118.0,178.0 109.0,172.0" fill="#eaa095" opacity="0.95" />
<polygon points="172.0,282.0 173.0,288.0 185.0,290.0 192.0,289.0 185.0,285.0 178.0,277.0" fill="#6f2c21" />
<polygon points="212.0,17.0 211.0,20.0 221.0,20.0 220.0,26.0 228.0,16.0 244.0,17.0 234.0,42.0 240.0,24.0 252.0,15.0" fill="#f9efe7" />
<polygon points="116.0,193.0 114.0,195.0 109.0,196.0 109.0,203.0 113.0,210.0 117.0,210.0 118.0,206.0 122.0,204.0 119.0,196.0" fill="#f2cabf" />
<polygon points="103.0,259.0 103.0,272.0 112.0,271.0 129.0,281.0 152.0,284.0 113.0,268.0" fill="#6f2c21" opacity="0.95" />
<polygon points="312.0,55.0 298.0,62.0 276.0,82.0" fill="#f9efe7" />
<polygon points="132.0,213.0 128.0,212.0 114.0,219.0 119.0,229.0 121.0,230.0 136.0,221.0" fill="#eaa095" opacity="0.95" />
<polygon points="275.0,29.0 294.0,41.0 296.0,40.0 288.0,31.0 280.0,28.0" fill="#f9efe7" />
<polygon points="79.0,193.0 74.0,197.0 72.0,217.0 76.0,221.0 77.0,199.0 80.0,195.0" fill="#f9efe7" />
<polygon points="138.0,223.0 136.0,222.0 122.0,231.0 104.0,251.0 126.0,230.0" fill="#f9efe7" />
<polygon points="106.0,173.0 103.0,180.0 104.0,193.0 109.0,195.0 120.0,192.0 121.0,186.0 118.0,178.0 109.0,172.0" fill="#eaa095" opacity="0.95" />
<polygon points="315.0,59.0 327.0,87.0 322.0,68.0" fill="#f2cabf" />
<polygon points="326.0,34.0 324.0,37.0 331.0,45.0 332.0,65.0 335.0,67.0 337.0,66.0 336.0,46.0 332.0,38.0" fill="#f9efe7" opacity="0.95" />
<polygon points="116.0,194.0 109.0,196.0 109.0,203.0 111.0,208.0 113.0,209.0 118.0,208.0 118.0,206.0 121.0,204.0 120.0,198.0" fill="#f2cabf" opacity="0.95" />
<polygon points="172.0,282.0 173.0,287.0 177.0,289.0 189.0,289.0 189.0,287.0 178.0,278.0 174.0,279.0" fill="#6f2c21" opacity="0.95" />
<polygon points="104.0,284.0 103.0,286.0 108.0,296.0 111.0,298.0 112.0,294.0 109.0,290.0 108.0,286.0 106.0,284.0" fill="#f9efe7" />
<polygon points="323.0,59.0 322.0,60.0 327.0,65.0 331.0,73.0 334.0,74.0 335.0,71.0 331.0,67.0 330.0,63.0 325.0,59.0" fill="#6f2c21" />
<polygon points="259.0,22.0 261.0,26.0 272.0,32.0 274.0,31.0 276.0,24.0 264.0,21.0" fill="#f2cabf" opacity="0.95" />
<polygon points="116.0,194.0 109.0,197.0 110.0,206.0 114.0,209.0 117.0,208.0 121.0,203.0 119.0,196.0" fill="#f2cabf" opacity="0.95" />
<polygon points="316.0,56.0 321.0,59.0 322.0,58.0 325.0,58.0 328.0,61.0 330.0,60.0 330.0,57.0 324.0,54.0 317.0,55.0" fill="#5a0406" />
<polygon points="338.0,78.0 337.0,79.0 337.0,84.0 338.0,85.0 338.0,87.0 339.0,88.0 341.0,88.0 342.0,87.0 342.0,80.0 340.0,78.0" fill="#f9efe7" />
<polygon points="245.0,75.0 262.0,82.0 265.0,80.0 264.0,77.0 253.0,72.0" fill="#6f2c21" opacity="0.95" />
<polygon points="309.0,62.0 307.0,63.0 305.0,67.0 305.0,73.0 306.0,74.0 308.0,74.0 310.0,72.0 310.0,70.0 311.0,69.0 310.0,68.0 310.0,63.0" fill="#f2cabf" />
<polygon points="173.0,280.0 172.0,284.0 175.0,288.0 182.0,289.0 185.0,287.0 185.0,285.0 180.0,279.0 176.0,278.0" fill="#6f2c21" opacity="0.95" />
<polygon points="167.0,284.0 164.0,280.0 158.0,283.0 159.0,285.0 161.0,285.0 162.0,286.0 163.0,285.0 166.0,285.0" fill="#5a0406" />
<polygon points="260.0,23.0 261.0,26.0 270.0,31.0 274.0,27.0 274.0,25.0 269.0,22.0 263.0,21.0" fill="#f2cabf" opacity="0.95" />
<polygon points="100.0,259.0 99.0,260.0 97.0,260.0 95.0,262.0 95.0,263.0 98.0,267.0 100.0,264.0 100.0,261.0 101.0,260.0" fill="#f2cabf" />
<polygon points="310.0,106.0 309.0,107.0 309.0,110.0 311.0,112.0 312.0,112.0 313.0,111.0 313.0,107.0 312.0,106.0" fill="#f2cabf" />
<polygon points="241.0,70.0 241.0,71.0 242.0,72.0 248.0,72.0 249.0,71.0 248.0,70.0 246.0,70.0 245.0,69.0 242.0,69.0" fill="#5a0406" />
<polygon points="320.0,55.0 320.0,57.0 322.0,58.0 325.0,58.0 328.0,60.0 330.0,59.0 330.0,57.0 324.0,54.0" fill="#5a0406" opacity="0.95" />
</svg>