<svg xmlns="http://www.w3.org/2000/svg" width="768" height="768" viewBox="0 0 384 384">
<rect width="384" height="384" fill="#8f6b58"/>
<polygon points="253.0,25.0 242.0,103.0 201.0,93.0 266.0,173.0 251.0,229.0 196.0,258.0 201.0,383.0 301.0,353.0 383.0,281.0 383.0,94.0" fill="#9f6a51" />
<polygon points="325.0,38.0 170.0,4.0 35.0,56.0 20.0,312.0 174.0,383.0 22.0,280.0 81.0,155.0 181.0,100.0 188.0,13.0 237.0,105.0 247.0,24.0 362.0,96.0" fill="#b7846a" />
<polygon points="248.0,25.0 266.0,191.0 196.0,257.0 202.0,383.0 371.0,296.0 343.0,333.0 371.0,321.0 368.0,383.0 383.0,93.0" fill="#9f6a51" opacity="0.95" />
<polygon points="83.0,154.0 102.0,174.0 68.0,192.0 84.0,207.0 54.0,239.0 65.0,279.0 23.0,281.0 104.0,360.0 174.0,382.0 185.0,256.0 137.0,225.0 121.0,154.0" fill="#9f6a51" />
<polygon points="249.0,25.0 231.0,67.0 266.0,191.0 196.0,258.0 202.0,381.0 360.0,308.0 368.0,383.0 383.0,92.0" fill="#9f6a51" opacity="0.95" />
<polygon points="325.0,38.0 170.0,4.0 35.0,56.0 20.0,312.0 172.0,383.0 23.0,278.0 181.0,100.0 188.0,13.0 237.0,105.0 248.0,24.0 362.0,93.0" fill="#b7846a" opacity="0.95" />
<polygon points="325.0,38.0 197.0,0.0 35.0,56.0 20.0,312.0 165.0,383.0 23.0,279.0 181.0,99.0 188.0,13.0 237.0,105.0 247.0,25.0 354.0,87.0" fill="#b7846a" opacity="0.95" />
<polygon points="86.0,153.0 102.0,174.0 68.0,192.0 84.0,207.0 54.0,239.0 65.0,279.0 24.0,283.0 107.0,362.0 172.0,381.0 184.0,254.0 137.0,225.0 121.0,154.0" fill="#9f6a51" opacity="0.95" />
<polygon points="96.0,151.0 101.0,176.0 68.0,192.0 82.0,219.0 54.0,239.0 65.0,279.0 24.0,283.0 104.0,360.0 171.0,383.0 184.0,255.0 137.0,225.0 121.0,154.0" fill="#9f6a51" opacity="0.95" />
<polygon points="238.0,0.0 326.0,36.0 383.0,92.0 383.0,45.0 340.0,20.0 329.0,0.0" fill="#1a1c2d" />
<polygon points="146.0,143.0 132.0,182.0 164.0,214.0 213.0,217.0 254.0,184.0 247.0,144.0 201.0,122.0 202.0,145.0 220.0,135.0 206.0,155.0 234.0,162.0 190.0,213.0 181.0,176.0 152.0,194.0 174.0,168.0 150.0,162.0 187.0,148.0 189.0,122.0" fill="#30c2be" />
<polygon points="138.0,0.0 58.0,0.0 28.0,37.0 0.0,53.0 0.0,92.0 55.0,37.0" fill="#1a1c2d" />
<polygon points="0.0,287.0 0.0,361.0 20.0,383.0 59.0,383.0 52.0,348.0 115.0,376.0 50.0,341.0" fill="#9f6a51" />
<polygon points="371.0,319.0 311.0,360.0 255.0,383.0 347.0,383.0" fill="#603a33" />
<polygon points="246.0,203.0 189.0,227.0 149.0,218.0 188.0,243.0 180.0,383.0 200.0,379.0 194.0,243.0 234.0,225.0" fill="#1a1c2d" />
<polygon points="146.0,143.0 132.0,182.0 164.0,214.0 213.0,217.0 254.0,184.0 247.0,144.0 201.0,122.0 206.0,155.0 231.0,163.0 191.0,209.0 153.0,162.0 187.0,148.0 189.0,122.0" fill="#30c2be" opacity="0.95" />
<polygon points="146.0,143.0 132.0,182.0 164.0,214.0 213.0,217.0 254.0,184.0 251.0,150.0 200.0,123.0 227.0,164.0 190.0,206.0 154.0,162.0 187.0,146.0 189.0,123.0" fill="#30c2be" opacity="0.95" />
<polygon points="51.0,350.0 60.0,383.0 130.0,383.0" fill="#603a33" />
<polygon points="383.0,288.0 327.0,346.0 260.0,379.0 370.0,317.0 348.0,379.0 367.0,383.0 383.0,366.0" fill="#9f6a51" />
<polygon points="241.0,0.0 326.0,36.0 383.0,91.0 383.0,45.0 340.0,20.0 330.0,0.0" fill="#1a1c2d" opacity="0.95" />
<polygon points="0.0,288.0 0.0,363.0 19.0,383.0 59.0,383.0 51.0,351.0 67.0,352.0 39.0,332.0" fill="#9f6a51" opacity="0.95" />
<polygon points="192.0,22.0 185.0,57.0 183.0,101.0 200.0,99.0" fill="#fc0730" />
<polygon points="136.0,0.0 57.0,0.0 41.0,25.0 0.0,53.0 0.0,91.0 55.0,37.0" fill="#1a1c2d" opacity="0.95" />
<polygon points="246.0,203.0 188.0,227.0 156.0,223.0 187.0,240.0 179.0,383.0 200.0,379.0 194.0,243.0 234.0,225.0" fill="#1a1c2d" opacity="0.95" />
<polygon points="370.0,321.0 311.0,360.0 257.0,383.0 347.0,383.0" fill="#603a33" opacity="0.95" />
<polygon points="57.0,0.0 43.0,0.0 18.0,17.0 0.0,34.0 0.0,52.0 28.0,36.0 42.0,23.0" fill="#3f3c49" />
<polygon points="340.0,0.0 383.0,35.0 383.0,0.0" fill="#1a1c2d" />
<polygon points="264.0,172.0 246.0,214.0 222.0,234.0 198.0,240.0 197.0,256.0 228.0,248.0 250.0,229.0 265.0,191.0" fill="#603a33" />
<polygon points="129.0,194.0 140.0,228.0 161.0,246.0 185.0,254.0 186.0,240.0 156.0,226.0" fill="#603a33" />
<polygon points="0.0,288.0 0.0,363.0 19.0,383.0 59.0,383.0 51.0,354.0 56.0,345.0" fill="#9f6a51" opacity="0.95" />
<polygon points="244.0,0.0 326.0,36.0 383.0,91.0 383.0,45.0 340.0,20.0 330.0,0.0" fill="#1a1c2d" opacity="0.95" />
<polygon points="383.0,282.0 301.0,354.0 209.0,383.0 246.0,383.0 305.0,359.0 354.0,323.0" fill="#b7846a" />
<polygon points="370.0,322.0 259.0,383.0 347.0,383.0" fill="#603a33" opacity="0.95" />
<polygon points="133.0,0.0 57.0,0.0 41.0,25.0 0.0,53.0 0.0,90.0 55.0,37.0" fill="#1a1c2d" opacity="0.95" />
<polygon points="245.0,204.0 201.0,224.0 160.0,225.0 187.0,240.0 179.0,383.0 200.0,379.0 194.0,243.0 234.0,225.0" fill="#1a1c2d" opacity="0.95" />
<polygon points="330.0,0.0 340.0,19.0 383.0,44.0 383.0,36.0 339.0,0.0" fill="#3f3c49" />
<polygon points="52.0,351.0 60.0,383.0 129.0,383.0" fill="#603a33" opacity="0.95" />
<polygon points="56.0,0.0 42.0,0.0 0.0,34.0 0.0,52.0 41.0,24.0" fill="#3f3c49" opacity="0.95" />
<polygon points="373.0,298.0 301.0,354.0 213.0,383.0 247.0,383.0 305.0,359.0" fill="#b7846a" opacity="0.95" />
<polygon points="265.0,178.0 246.0,214.0 222.0,234.0 197.0,241.0 195.0,255.0 214.0,254.0 245.0,235.0 260.0,210.0" fill="#603a33" opacity="0.95" />
<polygon points="192.0,27.0 189.0,28.0 185.0,57.0 184.0,101.0 200.0,99.0 198.0,56.0" fill="#fc0730" opacity="0.95" />
<polygon points="197.0,123.0 196.0,159.0 208.0,168.0 232.0,163.0 203.0,156.0 219.0,135.0 202.0,146.0" fill="#d0e2e2" />
<polygon points="175.0,168.0 161.0,186.0 180.0,173.0 191.0,212.0 199.0,175.0 195.0,172.0 192.0,193.0 188.0,170.0" fill="#d0e2e2" />
<polygon points="56.0,0.0 42.0,0.0 0.0,34.0 0.0,52.0 41.0,24.0" fill="#3f3c49" opacity="0.95" />
<polygon points="129.0,200.0 135.0,220.0 151.0,239.0 169.0,250.0 186.0,252.0 185.0,239.0 156.0,226.0" fill="#603a33" opacity="0.95" />
<polygon points="186.0,152.0 174.0,153.0 154.0,162.0 183.0,167.0 185.0,165.0 182.0,157.0" fill="#15364e" />
<polygon points="264.0,193.0 258.0,193.0 234.0,226.0 197.0,241.0 195.0,253.0 214.0,254.0 244.0,236.0 257.0,218.0" fill="#603a33" opacity="0.95" />
<polygon points="363.0,311.0 301.0,354.0 220.0,383.0 251.0,383.0 305.0,359.0" fill="#b7846a" opacity="0.95" />
<polygon points="331.0,0.0 340.0,19.0 383.0,44.0 383.0,36.0 339.0,0.0" fill="#3f3c49" opacity="0.95" />
<polygon points="191.0,32.0 188.0,34.0 183.0,98.0 197.0,100.0 200.0,98.0 195.0,35.0" fill="#fc0730" opacity="0.95" />
<polygon points="190.0,111.0 162.0,112.0 139.0,132.0 167.0,117.0" fill="#15364e" />
<polygon points="197.0,117.0 199.0,122.0 222.0,123.0 233.0,130.0 258.0,157.0 255.0,143.0 235.0,125.0" fill="#0f9499" />
<polygon points="154.0,130.0 131.0,151.0 131.0,176.0 134.0,157.0 145.0,143.0 157.0,134.0" fill="#0f9499" />
<polygon points="211.0,104.0 239.0,119.0 255.0,140.0 259.0,169.0 245.0,201.0 262.0,171.0 258.0,142.0 238.0,116.0" fill="#d0e2e2" />
<polygon points="197.0,110.0 229.0,119.0 233.0,117.0 213.0,107.0 199.0,108.0" fill="#15364e" />
<polygon points="190.0,114.0 156.0,123.0 139.0,134.0 132.0,147.0 158.0,125.0" fill="#136274" />
<polygon points="130.0,192.0 137.0,205.0 159.0,222.0 171.0,220.0 154.0,215.0" fill="#3f3c49" />
<polygon points="331.0,0.0 340.0,19.0 383.0,44.0 383.0,36.0 339.0,0.0" fill="#3f3c49" opacity="0.95" />
<polygon points="154.0,114.0 133.0,136.0 125.0,164.0 133.0,192.0 158.0,214.0 146.0,204.0 152.0,199.0 143.0,201.0 134.0,190.0 128.0,168.0 132.0,142.0" fill="#d0e2e2" />
<polygon points="197.0,146.0 197.0,157.0 207.0,167.0 230.0,163.0 228.0,160.0 205.0,156.0 212.0,141.0" fill="#d0e2e2" opacity="0.95" />
<polygon points="231.0,121.0 250.0,139.0 253.0,138.0 243.0,124.0 236.0,118.0" fill="#136274" />
<polygon points="59.0,201.0 47.0,214.0 42.0,213.0 37.0,209.0 40.0,204.0 47.0,204.0 55.0,197.0" fill="#b7846a" />
<polygon points="176.0,168.0 166.0,182.0 183.0,176.0 191.0,208.0 189.0,185.0 198.0,184.0 199.0,175.0 192.0,180.0 188.0,171.0" fill="#d0e2e2" opacity="0.95" />
<polygon points="227.0,186.0 236.0,193.0 236.0,196.0 230.0,202.0 220.0,194.0 220.0,190.0" fill="#30c2be" opacity="0.95" />
<polygon points="184.0,166.0 182.0,155.0 179.0,153.0 155.0,160.0 155.0,162.0 161.0,164.0 169.0,164.0 176.0,167.0" fill="#15364e" opacity="0.95" />
<polygon points="189.0,118.0 174.0,119.0 163.0,124.0 158.0,130.0 160.0,131.0 164.0,125.0 167.0,127.0" fill="#0f9499" />
<polygon points="197.0,147.0 197.0,155.0 207.0,167.0 214.0,168.0 226.0,164.0 222.0,159.0 207.0,157.0 205.0,155.0 207.0,145.0" fill="#d0e2e2" opacity="0.95" />
<polygon points="156.0,132.0 148.0,133.0 131.0,151.0 129.0,168.0 133.0,168.0 134.0,157.0 145.0,143.0 156.0,135.0" fill="#0f9499" opacity="0.95" />
<polygon points="203.0,167.0 199.0,173.0 201.0,175.0 210.0,178.0 211.0,176.0 205.0,167.0" fill="#15364e" />
<polygon points="171.0,114.0 160.0,113.0 150.0,120.0 143.0,129.0 147.0,129.0 171.0,116.0" fill="#15364e" opacity="0.95" />
<polygon points="196.0,113.0 198.0,115.0 214.0,117.0 225.0,122.0 229.0,121.0 217.0,115.0 203.0,112.0" fill="#136274" />
<polygon points="231.0,126.0 230.0,129.0 248.0,144.0 253.0,153.0 257.0,153.0 254.0,141.0 236.0,126.0" fill="#0f9499" opacity="0.95" />
<polygon points="226.0,186.0 229.0,187.0 236.0,193.0 236.0,196.0 230.0,201.0 220.0,194.0 220.0,191.0" fill="#30c2be" opacity="0.95" />
<polygon points="234.0,191.0 237.0,194.0 237.0,195.0 230.0,202.0 229.0,202.0 225.0,197.0 228.0,194.0 230.0,194.0 233.0,191.0" fill="#30c2be" />
<polygon points="59.0,200.0 46.0,214.0 37.0,210.0 40.0,204.0 46.0,204.0 55.0,197.0" fill="#b7846a" opacity="0.95" />
<polygon points="184.0,165.0 182.0,155.0 179.0,153.0 174.0,153.0 158.0,160.0 161.0,164.0 169.0,164.0 176.0,167.0" fill="#15364e" opacity="0.95" />
<polygon points="193.0,131.0 189.0,135.0 188.0,148.0 194.0,152.0 195.0,151.0 192.0,148.0 192.0,142.0 196.0,139.0 196.0,135.0" fill="#3f3c49" />
<polygon points="227.0,185.0 231.0,189.0 225.0,195.0 222.0,196.0 220.0,194.0 221.0,193.0 220.0,191.0 223.0,189.0 226.0,185.0" fill="#30c2be" />
<polygon points="202.0,109.0 204.0,112.0 217.0,114.0 229.0,119.0 232.0,118.0 230.0,114.0 213.0,107.0" fill="#15364e" opacity="0.95" />
<polygon points="171.0,138.0 170.0,139.0 174.0,145.0 175.0,150.0 176.0,151.0 182.0,151.0 183.0,149.0" fill="#d0e2e2" />
<polygon points="216.0,52.0 220.0,49.0 225.0,51.0 230.0,55.0 228.0,57.0 226.0,56.0 221.0,58.0" fill="#b7846a" />
<polygon points="0.0,367.0 0.0,374.0 3.0,376.0 8.0,383.0 14.0,383.0 6.0,375.0" fill="#a0999b" />
<polygon points="223.0,119.0 225.0,122.0 231.0,121.0 246.0,135.0 250.0,135.0 238.0,120.0" fill="#136274" opacity="0.95" />
<polygon points="158.0,186.0 161.0,188.0 161.0,192.0 158.0,195.0 155.0,196.0 152.0,194.0 152.0,189.0" fill="#30c2be" opacity="0.95" />
<polygon points="169.0,175.0 172.0,179.0 179.0,175.0 183.0,178.0 184.0,184.0 189.0,183.0 189.0,172.0 186.0,170.0 183.0,171.0 177.0,168.0" fill="#d0e2e2" opacity="0.95" />
<polygon points="193.0,176.0 191.0,176.0 190.0,177.0 190.0,188.0 192.0,192.0 193.0,191.0 193.0,179.0 194.0,178.0" fill="#30c2be" />
<polygon points="142.0,208.0 142.0,210.0 153.0,219.0 159.0,222.0 167.0,221.0 165.0,218.0 154.0,215.0 146.0,208.0" fill="#3f3c49" opacity="0.95" />
<polygon points="59.0,200.0 59.0,202.0 46.0,214.0 37.0,209.0 40.0,204.0 45.0,204.0 55.0,197.0" fill="#b7846a" opacity="0.95" />
<polygon points="256.0,191.0 247.0,201.0 248.0,203.0 249.0,202.0 251.0,203.0 255.0,198.0 254.0,197.0 257.0,192.0" fill="#3f3c49" />
<polygon points="167.0,115.0 162.0,112.0 150.0,120.0 149.0,123.0 152.0,125.0 166.0,118.0" fill="#15364e" opacity="0.95" />
<polygon points="157.0,186.0 161.0,189.0 161.0,192.0 156.0,196.0 152.0,193.0 152.0,190.0" fill="#30c2be" opacity="0.95" />
<polygon points="192.0,120.0 190.0,122.0 190.0,129.0 189.0,130.0 190.0,131.0 192.0,131.0 193.0,130.0 194.0,131.0 195.0,130.0 195.0,123.0" fill="#15364e" />
<polygon points="155.0,133.0 152.0,131.0 148.0,133.0 131.0,151.0 131.0,154.0 137.0,155.0 145.0,142.0 154.0,136.0" fill="#0f9499" opacity="0.95" />
<polygon points="197.0,117.0 198.0,121.0 200.0,122.0 209.0,121.0 219.0,124.0 222.0,123.0 222.0,121.0 214.0,118.0 203.0,116.0" fill="#0f9499" opacity="0.95" />
<polygon points="236.0,194.0 234.0,192.0 233.0,192.0 230.0,195.0 228.0,195.0 226.0,197.0 227.0,198.0 230.0,197.0 232.0,199.0 236.0,195.0" fill="#d0e2e2" />
<polygon points="186.0,118.0 183.0,117.0 174.0,119.0 165.0,123.0 165.0,126.0 167.0,127.0 184.0,121.0" fill="#0f9499" opacity="0.95" />
<polygon points="379.0,372.0 369.0,382.0 370.0,383.0 380.0,373.0" fill="#a0999b" />
<polygon points="180.0,221.0 184.0,223.0 186.0,225.0 188.0,225.0 190.0,222.0 189.0,221.0 185.0,221.0 184.0,220.0 181.0,220.0" fill="#6f6570" />
<polygon points="188.0,152.0 187.0,153.0 187.0,155.0 189.0,157.0 189.0,159.0 190.0,160.0 193.0,160.0 194.0,158.0 192.0,156.0 192.0,155.0 189.0,152.0" fill="#136274" />
<polygon points="233.0,121.0 233.0,123.0 240.0,128.0 243.0,126.0 243.0,124.0 236.0,119.0" fill="#136274" opacity="0.95" />
<polygon points="251.0,140.0 248.0,142.0 248.0,145.0 250.0,148.0 253.0,150.0 256.0,148.0 255.0,143.0" fill="#0f9499" opacity="0.95" />
<polygon points="144.0,134.0 142.0,133.0 137.0,135.0 135.0,139.0 135.0,141.0 137.0,142.0 139.0,141.0 144.0,136.0" fill="#136274" opacity="0.95" />
<polygon points="231.0,127.0 231.0,129.0 239.0,135.0 242.0,133.0 242.0,131.0 234.0,125.0" fill="#0f9499" opacity="0.95" />
<polygon points="157.0,125.0 155.0,124.0 153.0,125.0 152.0,127.0 149.0,128.0 149.0,130.0 151.0,131.0 153.0,130.0 154.0,128.0 157.0,127.0" fill="#136274" opacity="0.95" />
<polygon points="0.0,368.0 0.0,374.0 1.0,374.0 2.0,375.0 3.0,374.0 4.0,374.0 4.0,372.0 2.0,370.0 2.0,369.0 1.0,369.0" fill="#a0999b" opacity="0.95" />
</svg>