<svg xmlns="http://www.w3.org/2000/svg" width="768" height="768" viewBox="0 0 384 384">
<rect width="384" height="384" fill="#876c5c"/>
<polygon points="297.0,58.0 137.0,25.0 0.0,73.0 0.0,361.0 184.0,370.0 346.0,265.0 345.0,179.0 208.0,288.0 125.0,176.0 245.0,87.0 315.0,111.0" fill="#9d6d5a" />
<polygon points="298.0,59.0 157.0,24.0 0.0,73.0 0.0,361.0 124.0,383.0 290.0,321.0 353.0,186.0 208.0,288.0 124.0,164.0 245.0,88.0 315.0,111.0" fill="#9d6d5a" opacity="0.95" />
<polygon points="0.0,0.0 0.0,72.0 196.0,23.0 316.0,77.0 250.0,104.0 305.0,176.0 198.0,284.0 365.0,201.0 289.0,324.0 125.0,383.0 383.0,338.0 353.0,21.0" fill="#7e5543" />
<polygon points="298.0,59.0 157.0,24.0 0.0,73.0 0.0,361.0 139.0,383.0 289.0,321.0 371.0,226.0 353.0,186.0 208.0,288.0 124.0,164.0 195.0,159.0 245.0,88.0 315.0,111.0" fill="#9d6d5a" opacity="0.95" />
<polygon points="0.0,0.0 0.0,72.0 196.0,23.0 316.0,77.0 250.0,103.0 305.0,176.0 198.0,284.0 345.0,178.0 372.0,223.0 125.0,383.0 383.0,338.0 353.0,21.0" fill="#7e5543" opacity="0.95" />
<polygon points="247.0,89.0 202.0,129.0 197.0,162.0 127.0,163.0 136.0,191.0 178.0,227.0 188.0,264.0 204.0,254.0 206.0,226.0 261.0,174.0" fill="#2be3f0" />
<polygon points="0.0,0.0 0.0,72.0 196.0,23.0 316.0,77.0 250.0,104.0 305.0,176.0 198.0,284.0 345.0,178.0 372.0,223.0 126.0,383.0 383.0,338.0 353.0,21.0" fill="#7e5543" opacity="0.95" />
<polygon points="246.0,89.0 202.0,129.0 198.0,160.0 127.0,163.0 136.0,191.0 178.0,227.0 188.0,263.0 204.0,254.0 206.0,226.0 261.0,174.0" fill="#2be3f0" opacity="0.95" />
<polygon points="298.0,128.0 250.0,111.0 276.0,163.0 272.0,189.0 192.0,272.0 218.0,271.0 229.0,243.0 292.0,197.0 310.0,153.0" fill="#4d342b" />
<polygon points="245.0,89.0 202.0,129.0 196.0,161.0 127.0,164.0 136.0,191.0 178.0,227.0 188.0,263.0 204.0,254.0 206.0,226.0 263.0,168.0" fill="#2be3f0" opacity="0.95" />
<polygon points="298.0,128.0 250.0,111.0 276.0,163.0 272.0,189.0 192.0,272.0 218.0,271.0 229.0,243.0 292.0,197.0 310.0,153.0" fill="#4d342b" opacity="0.95" />
<polygon points="323.0,0.0 353.0,20.0 369.0,36.0 375.0,49.0 383.0,53.0 383.0,0.0" fill="#4d342b" />
<polygon points="298.0,128.0 250.0,112.0 274.0,183.0 212.0,241.0 202.0,274.0 296.0,191.0 310.0,153.0" fill="#4d342b" opacity="0.95" />
<polygon points="267.0,150.0 258.0,185.0 208.0,227.0 207.0,252.0 193.0,268.0 206.0,268.0 211.0,241.0 268.0,195.0 275.0,163.0" fill="#0d0708" />
<polygon points="383.0,339.0 377.0,338.0 374.0,346.0 353.0,367.0 341.0,374.0 335.0,383.0 383.0,383.0" fill="#4d342b" />
<polygon points="324.0,0.0 367.0,33.0 375.0,49.0 383.0,53.0 383.0,0.0" fill="#4d342b" opacity="0.95" />
<polygon points="269.0,152.0 252.0,194.0 208.0,227.0 206.0,244.0 264.0,201.0 275.0,172.0" fill="#0d0708" opacity="0.95" />
<polygon points="383.0,339.0 376.0,339.0 374.0,346.0 335.0,383.0 383.0,383.0" fill="#4d342b" opacity="0.95" />
<polygon points="0.0,362.0 0.0,383.0 45.0,383.0 39.0,378.0 20.0,373.0 7.0,363.0" fill="#7e5543" />
<polygon points="270.0,154.0 252.0,194.0 208.0,227.0 206.0,242.0 264.0,201.0 275.0,172.0" fill="#0d0708" opacity="0.95" />
<polygon points="324.0,0.0 353.0,20.0 369.0,36.0 375.0,49.0 383.0,53.0 383.0,0.0" fill="#4d342b" opacity="0.95" />
<polygon points="383.0,339.0 376.0,339.0 374.0,346.0 353.0,367.0 340.0,375.0 335.0,383.0 383.0,383.0" fill="#4d342b" opacity="0.95" />
<polygon points="0.0,362.0 0.0,383.0 44.0,383.0 39.0,378.0 23.0,374.0 8.0,364.0" fill="#7e5543" opacity="0.95" />
<polygon points="0.0,362.0 0.0,383.0 44.0,383.0 39.0,378.0 23.0,374.0 8.0,364.0" fill="#7e5543" opacity="0.95" />
<polygon points="211.0,253.0 206.0,253.0 204.0,258.0 194.0,266.0 194.0,268.0 203.0,269.0 207.0,267.0 211.0,260.0" fill="#0d0708" opacity="0.95" />
<polygon points="211.0,255.0 208.0,253.0 206.0,254.0 204.0,258.0 196.0,265.0 196.0,267.0 199.0,269.0 207.0,267.0 210.0,263.0" fill="#0d0708" opacity="0.95" />
<polygon points="139.0,197.0 138.0,198.0 147.0,207.0 148.0,206.0" fill="#b6cbc1" />
<polygon points="132.0,186.0 131.0,188.0 133.0,190.0 134.0,193.0 137.0,196.0 138.0,196.0 139.0,195.0 135.0,191.0" fill="#cfede6" />
</svg>