<svg xmlns="http://www.w3.org/2000/svg" width="768" height="768" viewBox="0 0 384 384">
<rect width="384" height="384" fill="#886b5e"/>
<polygon points="133.0,68.0 2.0,67.0 0.0,189.0 129.0,191.0 115.0,148.0 136.0,103.0" fill="#8a5a4b" />
<polygon points="0.0,0.0 2.0,63.0 6.0,54.0 33.0,62.0 192.0,62.0 192.0,0.0" fill="#8a5a4b" />
<polygon points="2.0,259.0 3.0,319.0 132.0,318.0 130.0,258.0" fill="#8a5a4b" />
<polygon points="0.0,324.0 0.0,383.0 132.0,383.0 131.0,322.0" fill="#a67e6b" />
<polygon points="0.0,0.0 0.0,52.0 35.0,63.0 0.0,69.0 0.0,189.0 129.0,190.0 115.0,148.0 133.0,68.0 113.0,64.0 192.0,62.0 192.0,0.0" fill="#8a5a4b" opacity="0.95" />
<polygon points="254.0,0.0 254.0,127.0 259.0,92.0 274.0,126.0 383.0,127.0 383.0,90.0 357.0,66.0 329.0,66.0 338.0,47.0 292.0,0.0" fill="#8a5a4b" />
<polygon points="140.0,223.0 166.0,255.0 253.0,255.0 255.0,319.0 383.0,319.0 383.0,258.0 292.0,258.0 255.0,197.0 212.0,228.0 150.0,213.0" fill="#543b34" />
<polygon points="0.0,196.0 2.0,255.0 89.0,255.0 110.0,246.0 115.0,203.0 109.0,195.0" fill="#c09d89" />
<polygon points="0.0,0.0 0.0,52.0 31.0,62.0 0.0,70.0 0.0,189.0 128.0,190.0 115.0,148.0 135.0,104.0 129.0,64.0 192.0,61.0 192.0,0.0" fill="#8a5a4b" opacity="0.95" />
<polygon points="264.0,196.0 313.0,255.0 365.0,255.0 382.0,240.0 370.0,198.0" fill="#a67e6b" />
<polygon points="293.0,0.0 383.0,89.0 383.0,0.0" fill="#543b34" />
<polygon points="135.0,269.0 148.0,308.0 136.0,320.0 249.0,321.0 285.0,383.0 383.0,383.0 383.0,322.0 255.0,322.0 248.0,280.0 217.0,309.0 181.0,273.0 163.0,293.0" fill="#a67e6b" />
<polygon points="0.0,260.0 4.0,319.0 132.0,318.0 129.0,258.0" fill="#8a5a4b" opacity="0.95" />
<polygon points="227.0,103.0 170.0,114.0 125.0,170.0 158.0,218.0 211.0,227.0 252.0,200.0 216.0,219.0 176.0,213.0 232.0,175.0 233.0,153.0 222.0,178.0 196.0,154.0" fill="#34b1db" />
<polygon points="0.0,324.0 0.0,383.0 132.0,383.0 130.0,322.0" fill="#a67e6b" opacity="0.95" />
<polygon points="195.0,0.0 197.0,65.0 135.0,68.0 154.0,89.0 193.0,76.0 221.0,84.0 236.0,107.0 251.0,69.0 252.0,0.0" fill="#c09d89" />
<polygon points="140.0,223.0 167.0,255.0 252.0,256.0 256.0,319.0 383.0,319.0 383.0,258.0 293.0,258.0 256.0,199.0 212.0,228.0" fill="#543b34" opacity="0.95" />
<polygon points="254.0,0.0 252.0,106.0 261.0,96.0 278.0,127.0 383.0,127.0 383.0,90.0 357.0,66.0 330.0,65.0 337.0,46.0 293.0,0.0" fill="#8a5a4b" opacity="0.95" />
<polygon points="0.0,196.0 3.0,255.0 89.0,255.0 109.0,247.0 115.0,205.0 108.0,195.0" fill="#c09d89" opacity="0.95" />
<polygon points="360.0,137.0 281.0,134.0 274.0,148.0 282.0,180.0 332.0,189.0 354.0,184.0 361.0,174.0 349.0,170.0" fill="#8a5a4b" />
<polygon points="0.0,324.0 0.0,383.0 132.0,383.0 129.0,322.0" fill="#a67e6b" opacity="0.95" />
<polygon points="136.0,322.0 136.0,365.0 147.0,355.0 169.0,383.0 192.0,383.0 192.0,322.0" fill="#543b34" />
<polygon points="254.0,0.0 252.0,91.0 294.0,130.0 275.0,144.0 283.0,179.0 358.0,181.0 358.0,137.0 334.0,130.0 383.0,127.0 383.0,90.0 332.0,65.0 337.0,46.0 293.0,0.0" fill="#8a5a4b" opacity="0.95" />
<polygon points="140.0,223.0 167.0,255.0 251.0,256.0 256.0,319.0 383.0,319.0 383.0,258.0 290.0,258.0 255.0,199.0 212.0,228.0" fill="#543b34" opacity="0.95" />
<polygon points="135.0,270.0 144.0,320.0 249.0,321.0 286.0,383.0 383.0,383.0 383.0,322.0 255.0,322.0 247.0,284.0 218.0,309.0 181.0,274.0 163.0,293.0" fill="#a67e6b" opacity="0.95" />
<polygon points="264.0,196.0 315.0,255.0 362.0,255.0 383.0,241.0 368.0,198.0" fill="#a67e6b" opacity="0.95" />
<polygon points="230.0,105.0 220.0,111.0 233.0,175.0 208.0,202.0 178.0,211.0 185.0,218.0 225.0,215.0 258.0,187.0 259.0,141.0" fill="#57d8e5" />
<polygon points="294.0,0.0 383.0,89.0 383.0,0.0" fill="#543b34" opacity="0.95" />
<polygon points="225.0,103.0 167.0,116.0 125.0,170.0 158.0,218.0 205.0,228.0 244.0,209.0 176.0,214.0 232.0,175.0 234.0,162.0 221.0,178.0 196.0,154.0" fill="#34b1db" opacity="0.95" />
<polygon points="0.0,196.0 4.0,255.0 89.0,255.0 110.0,244.0 115.0,205.0 107.0,195.0" fill="#c09d89" opacity="0.95" />
<polygon points="195.0,0.0 197.0,66.0 136.0,69.0 154.0,89.0 192.0,77.0 221.0,84.0 235.0,107.0 251.0,69.0 252.0,0.0" fill="#c09d89" opacity="0.95" />
<polygon points="224.0,87.0 183.0,80.0 146.0,96.0 122.0,126.0 116.0,161.0 140.0,160.0 143.0,136.0 163.0,110.0 191.0,98.0 223.0,101.0" fill="#fba802" />
<polygon points="218.0,104.0 167.0,116.0 126.0,171.0 168.0,223.0 239.0,214.0 177.0,214.0 232.0,175.0 196.0,154.0" fill="#34b1db" opacity="0.95" />
<polygon points="135.0,272.0 144.0,319.0 248.0,321.0 286.0,383.0 383.0,383.0 383.0,322.0 256.0,322.0 246.0,286.0 218.0,309.0 182.0,275.0 163.0,293.0" fill="#a67e6b" opacity="0.95" />
<polygon points="257.0,95.0 259.0,191.0 315.0,190.0 281.0,180.0 273.0,147.0 281.0,133.0 361.0,137.0 363.0,177.0 341.0,189.0 383.0,191.0 383.0,130.0 272.0,130.0" fill="#543b34" />
<polygon points="264.0,197.0 316.0,255.0 361.0,255.0 383.0,242.0 367.0,198.0" fill="#a67e6b" opacity="0.95" />
<polygon points="112.0,195.0 116.0,223.0 111.0,246.0 100.0,253.0 162.0,255.0 138.0,225.0 144.0,208.0 131.0,193.0" fill="#a67e6b" />
<polygon points="294.0,0.0 383.0,89.0 383.0,0.0" fill="#543b34" opacity="0.95" />
<polygon points="219.0,111.0 203.0,128.0 197.0,152.0 202.0,163.0 221.0,177.0 230.0,161.0 231.0,141.0" fill="#a4e9ea" />
<polygon points="195.0,0.0 197.0,66.0 137.0,71.0 154.0,89.0 192.0,77.0 221.0,84.0 234.0,106.0 252.0,61.0 252.0,0.0" fill="#c09d89" opacity="0.95" />
<polygon points="135.0,323.0 136.0,358.0 151.0,357.0 169.0,383.0 192.0,383.0 192.0,322.0" fill="#543b34" opacity="0.95" />
<polygon points="231.0,106.0 221.0,113.0 233.0,175.0 208.0,202.0 178.0,211.0 185.0,218.0 225.0,215.0 258.0,187.0 259.0,141.0" fill="#57d8e5" opacity="0.95" />
<polygon points="136.0,258.0 138.0,268.0 160.0,291.0 166.0,292.0 180.0,273.0 167.0,257.0" fill="#c09d89" />
<polygon points="224.0,87.0 183.0,80.0 146.0,96.0 122.0,126.0 116.0,161.0 140.0,160.0 143.0,136.0 163.0,110.0 191.0,98.0 222.0,100.0" fill="#fba802" opacity="0.95" />
<polygon points="136.0,323.0 136.0,356.0 151.0,357.0 169.0,383.0 192.0,383.0 192.0,323.0" fill="#543b34" opacity="0.95" />
<polygon points="231.0,106.0 221.0,113.0 233.0,175.0 214.0,198.0 179.0,211.0 185.0,218.0 225.0,215.0 258.0,187.0 259.0,141.0" fill="#57d8e5" opacity="0.95" />
<polygon points="218.0,112.0 203.0,128.0 197.0,152.0 202.0,163.0 221.0,176.0 230.0,161.0 231.0,141.0" fill="#a4e9ea" opacity="0.95" />
<polygon points="224.0,87.0 183.0,80.0 146.0,96.0 122.0,126.0 116.0,160.0 140.0,160.0 143.0,136.0 163.0,110.0 191.0,98.0 221.0,100.0" fill="#fba802" opacity="0.95" />
<polygon points="135.0,259.0 136.0,266.0 163.0,292.0 168.0,291.0 179.0,274.0 166.0,257.0" fill="#c09d89" opacity="0.95" />
<polygon points="218.0,112.0 203.0,128.0 197.0,152.0 202.0,163.0 221.0,176.0 230.0,161.0 231.0,141.0" fill="#a4e9ea" opacity="0.95" />
<polygon points="223.0,103.0 193.0,99.0 168.0,108.0 150.0,125.0 141.0,155.0 149.0,135.0 170.0,113.0 194.0,103.0" fill="#2a71ae" />
<polygon points="136.0,259.0 138.0,268.0 163.0,292.0 169.0,289.0 179.0,274.0 166.0,257.0" fill="#c09d89" opacity="0.95" />
<polygon points="137.0,285.0 136.0,316.0 141.0,317.0 147.0,308.0 145.0,300.0 140.0,296.0 142.0,291.0" fill="#c09d89" />
<polygon points="204.0,100.0 188.0,100.0 168.0,108.0 152.0,122.0 146.0,134.0 175.0,110.0" fill="#2a71ae" opacity="0.95" />
<polygon points="181.0,105.0 178.0,103.0 165.0,110.0 150.0,127.0 155.0,128.0 162.0,119.0" fill="#2a71ae" opacity="0.95" />
<polygon points="141.0,163.0 140.0,162.0 139.0,163.0 126.0,163.0 125.0,164.0 125.0,167.0 126.0,168.0 137.0,168.0 141.0,165.0" fill="#2a71ae" />
<polygon points="335.0,55.0 330.0,62.0 331.0,64.0 335.0,64.0 336.0,63.0 336.0,56.0" fill="#ebdcd1" />
<polygon points="125.0,164.0 125.0,167.0 127.0,168.0 137.0,168.0 140.0,166.0 140.0,164.0 138.0,163.0 127.0,163.0" fill="#2a71ae" opacity="0.95" />
<polygon points="334.0,58.0 332.0,59.0 331.0,61.0 331.0,63.0 333.0,64.0 336.0,63.0 336.0,59.0" fill="#ebdcd1" opacity="0.95" />
</svg>