<svg xmlns="http://www.w3.org/2000/svg" width="768" height="768" viewBox="0 0 384 384">
<rect width="384" height="384" fill="#936775"/>
<polygon points="131.0,130.0 131.0,184.0 161.0,219.0 207.0,226.0 247.0,196.0 254.0,181.0 251.0,129.0" fill="#89afab" />
<polygon points="0.0,191.0 0.0,256.0 130.0,254.0 128.0,192.0" fill="#bfb5b8" />
<polygon points="0.0,130.0 2.0,190.0 130.0,189.0 128.0,128.0" fill="#ba736f" />
<polygon points="254.0,0.0 257.0,128.0 383.0,125.0 381.0,64.0 338.0,70.0 319.0,62.0 319.0,0.0" fill="#844463" />
<polygon points="0.0,259.0 2.0,319.0 130.0,318.0 129.0,257.0" fill="#844463" />
<polygon points="383.0,191.0 256.0,192.0 255.0,254.0 383.0,255.0" fill="#bc8d93" />
<polygon points="255.0,129.0 255.0,191.0 383.0,189.0 381.0,128.0" fill="#524355" />
<polygon points="193.0,0.0 193.0,126.0 252.0,127.0 253.0,0.0" fill="#d1a8a7" />
<polygon points="0.0,322.0 0.0,383.0 130.0,383.0 129.0,320.0" fill="#bc8d93" />
<polygon points="255.0,258.0 256.0,319.0 383.0,319.0 383.0,257.0" fill="#53233c" />
<polygon points="255.0,322.0 255.0,383.0 383.0,383.0 383.0,320.0" fill="#d1a8a7" />
<polygon points="1.0,5.0 0.0,59.0 5.0,63.0 129.0,60.0 128.0,0.0 11.0,0.0" fill="#53233c" />
<polygon points="0.0,6.0 0.0,60.0 8.0,65.0 1.0,125.0 129.0,126.0 128.0,0.0" fill="#53233c" opacity="0.95" />
<polygon points="190.0,264.0 149.0,315.0 155.0,355.0 191.0,373.0 184.0,383.0 251.0,383.0 253.0,327.0 236.0,320.0" fill="#53233c" />
<polygon points="1.0,7.0 0.0,124.0 129.0,125.0 128.0,0.0" fill="#53233c" opacity="0.95" />
<polygon points="129.0,69.0 39.0,68.0 41.0,80.0 17.0,88.0 13.0,69.0 5.0,68.0 0.0,124.0 128.0,127.0" fill="#53233c" />
<polygon points="131.0,130.0 131.0,184.0 161.0,219.0 207.0,226.0 247.0,196.0 253.0,130.0" fill="#89afab" opacity="0.95" />
<polygon points="131.0,0.0 131.0,62.0 190.0,63.0 191.0,0.0" fill="#a74143" />
<polygon points="254.0,0.0 255.0,127.0 383.0,125.0 382.0,65.0 338.0,70.0 319.0,62.0 319.0,0.0" fill="#844463" opacity="0.95" />
<polygon points="0.0,191.0 0.0,256.0 130.0,254.0 127.0,192.0" fill="#bfb5b8" opacity="0.95" />
<polygon points="132.0,64.0 131.0,125.0 188.0,127.0 191.0,124.0 191.0,65.0" fill="#ba736f" />
<polygon points="0.0,130.0 3.0,190.0 130.0,189.0 127.0,128.0" fill="#ba736f" opacity="0.95" />
<polygon points="383.0,191.0 257.0,192.0 255.0,254.0 383.0,255.0" fill="#bc8d93" opacity="0.95" />
<polygon points="383.0,130.0 257.0,129.0 254.0,190.0 380.0,191.0" fill="#524355" opacity="0.95" />
<polygon points="0.0,322.0 0.0,383.0 130.0,383.0 128.0,320.0" fill="#bc8d93" opacity="0.95" />
<polygon points="193.0,0.0 194.0,126.0 250.0,127.0 253.0,0.0" fill="#d1a8a7" opacity="0.95" />
<polygon points="255.0,258.0 257.0,319.0 383.0,319.0 383.0,257.0" fill="#53233c" opacity="0.95" />
<polygon points="253.0,190.0 229.0,216.0 200.0,229.0 164.0,222.0 132.0,191.0 132.0,254.0 251.0,255.0" fill="#53233c" />
<polygon points="255.0,322.0 255.0,383.0 383.0,383.0 383.0,320.0" fill="#d1a8a7" opacity="0.95" />
<polygon points="131.0,131.0 131.0,184.0 161.0,219.0 207.0,226.0 247.0,196.0 252.0,130.0" fill="#89afab" opacity="0.95" />
<polygon points="320.0,0.0 320.0,62.0 328.0,63.0 339.0,53.0 348.0,63.0 381.0,63.0 383.0,0.0" fill="#53233c" />
<polygon points="254.0,0.0 256.0,127.0 383.0,125.0 383.0,66.0 338.0,70.0 319.0,61.0 319.0,0.0" fill="#844463" opacity="0.95" />
<polygon points="0.0,191.0 0.0,256.0 130.0,253.0 127.0,192.0" fill="#bfb5b8" opacity="0.95" />
<polygon points="188.0,269.0 149.0,315.0 155.0,355.0 193.0,374.0 193.0,383.0 251.0,383.0 253.0,326.0 236.0,320.0" fill="#53233c" opacity="0.95" />
<polygon points="383.0,191.0 258.0,192.0 255.0,253.0 383.0,255.0" fill="#bc8d93" opacity="0.95" />
<polygon points="0.0,259.0 1.0,318.0 128.0,319.0 131.0,383.0 192.0,377.0 161.0,363.0 146.0,322.0 130.0,319.0 130.0,258.0" fill="#844463" opacity="0.95" />
<polygon points="383.0,130.0 258.0,129.0 254.0,189.0 379.0,191.0" fill="#524355" opacity="0.95" />
<polygon points="0.0,322.0 0.0,383.0 130.0,383.0 127.0,320.0" fill="#bc8d93" opacity="0.95" />
<polygon points="193.0,0.0 194.0,125.0 249.0,127.0 253.0,0.0" fill="#d1a8a7" opacity="0.95" />
<polygon points="191.0,66.0 132.0,65.0 127.0,129.0 0.0,130.0 0.0,188.0 129.0,189.0 129.0,129.0 191.0,124.0" fill="#ba736f" opacity="0.95" />
<polygon points="192.0,256.0 197.0,277.0 226.0,300.0 236.0,318.0 252.0,319.0 253.0,257.0" fill="#bfb5b8" />
<polygon points="255.0,323.0 255.0,383.0 383.0,383.0 383.0,320.0" fill="#d1a8a7" opacity="0.95" />
<polygon points="189.0,256.0 131.0,257.0 132.0,319.0 146.0,319.0 155.0,301.0 184.0,278.0" fill="#ddc6ba" />
<polygon points="131.0,65.0 131.0,125.0 191.0,125.0 191.0,65.0" fill="#ba736f" opacity="0.95" />
<polygon points="131.0,0.0 131.0,62.0 191.0,62.0 191.0,0.0" fill="#a74143" opacity="0.95" />
<polygon points="0.0,259.0 0.0,317.0 127.0,319.0 131.0,383.0 190.0,376.0 161.0,363.0 146.0,323.0 130.0,318.0 129.0,258.0" fill="#844463" opacity="0.95" />
<polygon points="131.0,0.0 131.0,61.0 190.0,62.0 191.0,0.0" fill="#a74143" opacity="0.95" />
<polygon points="131.0,322.0 132.0,383.0 167.0,383.0 193.0,377.0 161.0,363.0 150.0,347.0 146.0,322.0" fill="#844463" />
<polygon points="191.0,257.0 197.0,277.0 226.0,300.0 236.0,318.0 253.0,318.0 253.0,257.0" fill="#bfb5b8" opacity="0.95" />
<polygon points="190.0,257.0 131.0,257.0 131.0,318.0 147.0,318.0 155.0,301.0 184.0,278.0" fill="#ddc6ba" opacity="0.95" />
<polygon points="192.0,257.0 197.0,277.0 226.0,300.0 235.0,316.0 252.0,318.0 253.0,258.0" fill="#bfb5b8" opacity="0.95" />
<polygon points="189.0,257.0 131.0,258.0 132.0,318.0 146.0,318.0 155.0,301.0 184.0,278.0" fill="#ddc6ba" opacity="0.95" />
<polygon points="0.0,68.0 11.0,66.0 14.0,69.0 11.0,81.0 18.0,86.0 25.0,80.0 41.0,79.0 34.0,71.0 49.0,66.0 11.0,66.0 2.0,63.0" fill="#844463" />
<polygon points="12.0,65.0 12.0,82.0 16.0,86.0 27.0,79.0 37.0,81.0 41.0,79.0 34.0,73.0 40.0,67.0 38.0,64.0" fill="#844463" opacity="0.95" />
<polygon points="335.0,55.0 332.0,58.0 331.0,63.0 334.0,67.0 341.0,68.0 345.0,64.0 345.0,59.0 340.0,55.0" fill="#ddc6ba" />
<polygon points="14.0,66.0 12.0,82.0 15.0,85.0 28.0,78.0 37.0,81.0 40.0,79.0 34.0,73.0 36.0,65.0" fill="#844463" opacity="0.95" />
<polygon points="336.0,55.0 332.0,58.0 331.0,63.0 334.0,67.0 340.0,68.0 345.0,64.0 345.0,59.0 340.0,55.0" fill="#ddc6ba" opacity="0.95" />
<polygon points="336.0,55.0 332.0,58.0 331.0,63.0 334.0,67.0 340.0,68.0 345.0,64.0 345.0,59.0 340.0,55.0" fill="#ddc6ba" opacity="0.95" />
</svg>