<svg xmlns="http://www.w3.org/2000/svg" width="768" height="768" viewBox="0 0 384 384">
<rect width="384" height="384" fill="#9c585c"/>
<polygon points="0.0,0.0 2.0,126.0 131.0,127.0 189.0,93.0 251.0,127.0 383.0,125.0 383.0,0.0" fill="#a54f53" />
<polygon points="0.0,0.0 0.0,317.0 162.0,318.0 184.0,259.0 112.0,192.0 189.0,93.0 256.0,128.0 306.0,254.0 198.0,259.0 223.0,318.0 383.0,317.0 383.0,0.0" fill="#a54f53" opacity="0.95" />
<polygon points="0.0,0.0 0.0,383.0 139.0,383.0 184.0,260.0 114.0,193.0 189.0,93.0 305.0,253.0 198.0,260.0 244.0,383.0 383.0,383.0 383.0,0.0" fill="#a54f53" opacity="0.95" />
<polygon points="175.0,96.0 136.0,122.0 125.0,171.0 151.0,213.0 206.0,225.0 247.0,197.0 257.0,145.0 227.0,104.0" fill="#87f2e3" />
<polygon points="0.0,197.0 3.0,254.0 152.0,256.0 3.0,258.0 3.0,319.0 162.0,318.0 155.0,287.0 183.0,281.0 184.0,259.0 162.0,258.0 113.0,194.0" fill="#a54f53" />
<polygon points="0.0,383.0 139.0,383.0 159.0,326.0 2.0,325.0" fill="#a54f53" />
<polygon points="253.0,131.0 252.0,190.0 306.0,255.0 383.0,254.0 383.0,194.0 268.0,192.0 381.0,190.0 380.0,130.0" fill="#a54f53" />
<polygon points="226.0,326.0 244.0,383.0 383.0,383.0 381.0,325.0" fill="#a54f53" />
<polygon points="0.0,132.0 2.0,190.0 130.0,190.0 123.0,168.0 128.0,130.0" fill="#a54f53" />
<polygon points="383.0,317.0 383.0,258.0 198.0,259.0 199.0,281.0 234.0,287.0 230.0,299.0 217.0,301.0 224.0,319.0" fill="#a54f53" />
<polygon points="175.0,96.0 136.0,122.0 125.0,171.0 151.0,213.0 206.0,225.0 247.0,197.0 257.0,145.0 227.0,104.0" fill="#87f2e3" opacity="0.95" />
<polygon points="115.0,195.0 166.0,255.0 303.0,253.0 258.0,194.0 197.0,228.0 156.0,218.0 132.0,193.0" fill="#641e2a" />
<polygon points="138.0,134.0 171.0,106.0 203.0,103.0 232.0,122.0 248.0,156.0 233.0,172.0 212.0,165.0 153.0,173.0 150.0,134.0 145.0,168.0" fill="#87f2e3" />
<polygon points="0.0,383.0 139.0,383.0 158.0,326.0 3.0,325.0" fill="#a54f53" opacity="0.95" />
<polygon points="175.0,96.0 136.0,122.0 125.0,171.0 151.0,213.0 206.0,225.0 247.0,197.0 257.0,145.0 227.0,104.0" fill="#87f2e3" opacity="0.95" />
<polygon points="187.0,249.0 185.0,280.0 157.0,285.0 169.0,302.0 141.0,383.0 161.0,382.0 176.0,339.0 175.0,382.0 208.0,383.0 201.0,311.0 224.0,383.0 243.0,383.0 216.0,302.0 232.0,285.0 199.0,282.0" fill="#22292d" />
<polygon points="117.0,195.0 166.0,255.0 302.0,253.0 257.0,194.0 197.0,228.0" fill="#641e2a" opacity="0.95" />
<polygon points="138.0,134.0 171.0,106.0 203.0,103.0 232.0,122.0 248.0,156.0 233.0,172.0 212.0,165.0 154.0,173.0 138.0,163.0" fill="#87f2e3" opacity="0.95" />
<polygon points="117.0,196.0 166.0,255.0 301.0,252.0 257.0,194.0 197.0,228.0" fill="#641e2a" opacity="0.95" />
<polygon points="235.0,129.0 205.0,105.0 170.0,108.0 148.0,129.0 151.0,169.0 197.0,169.0 195.0,130.0 157.0,127.0 172.0,116.0 203.0,113.0" fill="#22292d" />
<polygon points="138.0,134.0 171.0,106.0 203.0,103.0 232.0,122.0 248.0,156.0 233.0,172.0 212.0,165.0 193.0,173.0 154.0,173.0 138.0,163.0" fill="#87f2e3" opacity="0.95" />
<polygon points="187.0,249.0 185.0,280.0 157.0,285.0 168.0,305.0 141.0,383.0 161.0,383.0 174.0,348.0 175.0,383.0 208.0,383.0 209.0,341.0 224.0,383.0 243.0,383.0 216.0,302.0 232.0,285.0 198.0,281.0" fill="#22292d" opacity="0.95" />
<polygon points="188.0,249.0 141.0,383.0 161.0,383.0 173.0,353.0 175.0,383.0 208.0,383.0 210.0,347.0 224.0,383.0 243.0,383.0 217.0,284.0 197.0,279.0" fill="#22292d" opacity="0.95" />
<polygon points="236.0,135.0 221.0,135.0 212.0,142.0 209.0,157.0 217.0,168.0 232.0,171.0 244.0,162.0 246.0,147.0" fill="#22292d" />
<polygon points="232.0,124.0 205.0,105.0 166.0,110.0 149.0,127.0 151.0,169.0 197.0,169.0 197.0,133.0 160.0,128.0 168.0,118.0 197.0,112.0 231.0,130.0" fill="#22292d" opacity="0.95" />
<polygon points="0.0,325.0 160.0,322.0 0.0,320.0" fill="#fcf8f5" />
<polygon points="232.0,124.0 205.0,105.0 170.0,108.0 139.0,134.0 139.0,161.0 155.0,172.0 194.0,171.0 195.0,131.0 160.0,124.0 188.0,112.0" fill="#22292d" opacity="0.95" />
<polygon points="160.0,126.0 195.0,127.0 198.0,132.0 218.0,133.0 226.0,128.0 215.0,119.0 201.0,114.0 176.0,116.0" fill="#87f2e3" />
<polygon points="236.0,135.0 221.0,135.0 212.0,142.0 209.0,157.0 217.0,168.0 232.0,171.0 244.0,162.0 246.0,147.0" fill="#22292d" opacity="0.95" />
<polygon points="201.0,133.0 198.0,135.0 198.0,163.0 210.0,164.0 207.0,155.0 208.0,147.0 218.0,135.0" fill="#f2d9ca" />
<polygon points="236.0,135.0 221.0,135.0 212.0,142.0 209.0,157.0 217.0,168.0 232.0,171.0 244.0,162.0 246.0,147.0" fill="#22292d" opacity="0.95" />
<polygon points="227.0,142.0 233.0,144.0 237.0,149.0 237.0,155.0 231.0,161.0 225.0,161.0 219.0,155.0 220.0,147.0" fill="#22292d" />
<polygon points="162.0,124.0 164.0,127.0 194.0,127.0 199.0,132.0 218.0,133.0 224.0,128.0 215.0,119.0 201.0,114.0 176.0,116.0" fill="#87f2e3" opacity="0.95" />
<polygon points="225.0,144.0 220.0,150.0 220.0,155.0 225.0,160.0 230.0,160.0 235.0,156.0 236.0,150.0 231.0,144.0" fill="#29b292" />
<polygon points="163.0,123.0 166.0,127.0 193.0,127.0 200.0,132.0 218.0,132.0 224.0,128.0 215.0,119.0 201.0,114.0 184.0,114.0" fill="#87f2e3" opacity="0.95" />
<polygon points="201.0,133.0 198.0,135.0 198.0,163.0 208.0,164.0 210.0,163.0 207.0,155.0 208.0,147.0 216.0,135.0" fill="#f2d9ca" opacity="0.95" />
<polygon points="201.0,133.0 198.0,135.0 198.0,162.0 206.0,164.0 209.0,162.0 207.0,155.0 208.0,147.0 214.0,136.0 210.0,133.0" fill="#f2d9ca" opacity="0.95" />
<polygon points="226.0,144.0 221.0,148.0 220.0,155.0 222.0,158.0 230.0,160.0 234.0,158.0 236.0,150.0 232.0,145.0" fill="#29b292" opacity="0.95" />
<polygon points="219.0,286.0 217.0,288.0 217.0,293.0 219.0,295.0 224.0,295.0 226.0,293.0 226.0,288.0 224.0,286.0" fill="#f2d9ca" />
<polygon points="226.0,144.0 221.0,148.0 220.0,155.0 224.0,159.0 230.0,160.0 235.0,156.0 236.0,150.0 232.0,145.0" fill="#29b292" opacity="0.95" />
<polygon points="165.0,286.0 163.0,288.0 163.0,293.0 166.0,295.0 168.0,295.0 171.0,293.0 171.0,288.0 169.0,286.0" fill="#fcf8f5" />
<polygon points="220.0,286.0 217.0,288.0 217.0,293.0 220.0,295.0 223.0,295.0 226.0,293.0 226.0,288.0 223.0,286.0" fill="#f2d9ca" opacity="0.95" />
<polygon points="166.0,286.0 163.0,288.0 163.0,293.0 166.0,295.0 168.0,295.0 171.0,293.0 171.0,288.0 168.0,286.0" fill="#fcf8f5" opacity="0.95" />
<polygon points="220.0,286.0 217.0,288.0 217.0,293.0 220.0,295.0 223.0,295.0 226.0,293.0 226.0,288.0 223.0,286.0" fill="#f2d9ca" opacity="0.95" />
<polygon points="166.0,286.0 163.0,288.0 163.0,293.0 166.0,295.0 168.0,295.0 171.0,293.0 171.0,288.0 168.0,286.0" fill="#fcf8f5" opacity="0.95" />
<polygon points="221.0,133.0 222.0,134.0 223.0,133.0 229.0,133.0 230.0,132.0 229.0,131.0 222.0,131.0 221.0,132.0" fill="#f2d9ca" />
</svg>