<svg xmlns="http://www.w3.org/2000/svg" width="768" height="768" viewBox="0 0 384 384">
<rect width="384" height="384" fill="#a8595b"/>
<polygon points="0.0,0.0 2.0,319.0 160.0,317.0 185.0,273.0 123.0,230.0 120.0,105.0 180.0,74.0 268.0,89.0 266.0,231.0 209.0,273.0 237.0,317.0 383.0,319.0 383.0,0.0" fill="#c25558" />
<polygon points="0.0,0.0 1.0,318.0 160.0,317.0 185.0,273.0 123.0,230.0 122.0,87.0 261.0,78.0 266.0,231.0 218.0,292.0 383.0,319.0 383.0,0.0" fill="#c25558" opacity="0.95" />
<polygon points="0.0,0.0 0.0,383.0 137.0,383.0 185.0,274.0 123.0,230.0 121.0,94.0 268.0,89.0 266.0,231.0 209.0,274.0 258.0,383.0 383.0,383.0 383.0,0.0" fill="#c25558" opacity="0.95" />
<polygon points="130.0,78.0 124.0,229.0 186.0,273.0 138.0,383.0 176.0,341.0 178.0,383.0 213.0,383.0 215.0,322.0 234.0,382.0 257.0,383.0 208.0,273.0 265.0,230.0 266.0,86.0" fill="#1a2126" />
<polygon points="148.0,91.0 216.0,86.0 251.0,100.0 265.0,164.0 233.0,216.0 181.0,226.0 137.0,197.0 124.0,150.0" fill="#1a2126" />
<polygon points="188.0,90.0 143.0,112.0 125.0,159.0 153.0,212.0 200.0,226.0 249.0,200.0 264.0,153.0 242.0,109.0" fill="#84a9a2" />
<polygon points="190.0,93.0 237.0,109.0 260.0,147.0 249.0,195.0 202.0,222.0 153.0,207.0 129.0,164.0 142.0,119.0" fill="#84a9a2" />
<polygon points="180.0,96.0 140.0,124.0 132.0,171.0 163.0,212.0 210.0,219.0 250.0,190.0 258.0,145.0 228.0,104.0" fill="#8deee1" />
<polygon points="0.0,383.0 137.0,383.0 156.0,327.0 2.0,326.0" fill="#c25558" />
<polygon points="133.0,77.0 124.0,229.0 186.0,273.0 138.0,383.0 175.0,347.0 178.0,383.0 213.0,383.0 216.0,329.0 234.0,383.0 257.0,383.0 208.0,273.0 265.0,230.0 266.0,86.0" fill="#1a2126" opacity="0.95" />
<polygon points="240.0,327.0 258.0,383.0 383.0,383.0 383.0,326.0" fill="#c25558" />
<polygon points="151.0,90.0 216.0,86.0 251.0,100.0 265.0,164.0 233.0,216.0 181.0,226.0 133.0,191.0 124.0,150.0" fill="#1a2126" opacity="0.95" />
<polygon points="0.0,383.0 137.0,383.0 156.0,327.0 3.0,326.0" fill="#c25558" opacity="0.95" />
<polygon points="241.0,327.0 258.0,383.0 383.0,383.0 383.0,326.0" fill="#c25558" opacity="0.95" />
<polygon points="189.0,102.0 238.0,126.0 197.0,113.0 166.0,125.0 200.0,131.0 200.0,169.0 167.0,173.0 175.0,185.0 207.0,189.0 239.0,162.0 220.0,194.0 196.0,202.0 136.0,159.0 139.0,133.0" fill="#8deee1" />
<polygon points="121.0,170.0 126.0,233.0 186.0,274.0 138.0,383.0 174.0,352.0 178.0,383.0 213.0,383.0 217.0,334.0 234.0,383.0 257.0,383.0 208.0,274.0 263.0,234.0 268.0,176.0 187.0,227.0" fill="#1a2126" opacity="0.95" />
<polygon points="186.0,104.0 140.0,134.0 138.0,161.0 170.0,193.0 201.0,200.0 237.0,163.0 206.0,191.0 179.0,189.0 163.0,173.0 197.0,170.0 197.0,130.0 163.0,126.0 186.0,112.0 236.0,126.0" fill="#1a2126" />
<polygon points="180.0,96.0 138.0,130.0 189.0,102.0 237.0,127.0 171.0,120.0 199.0,129.0 200.0,169.0 167.0,177.0 204.0,190.0 236.0,160.0 233.0,180.0 179.0,199.0 134.0,142.0 132.0,171.0 163.0,212.0 210.0,219.0 258.0,145.0 228.0,104.0" fill="#8deee1" opacity="0.95" />
<polygon points="180.0,96.0 141.0,128.0 189.0,102.0 237.0,127.0 171.0,120.0 200.0,131.0 200.0,169.0 167.0,177.0 204.0,190.0 234.0,160.0 233.0,180.0 192.0,202.0 132.0,171.0 163.0,212.0 210.0,219.0 250.0,190.0 258.0,145.0 228.0,104.0" fill="#8deee1" opacity="0.95" />
<polygon points="186.0,104.0 140.0,134.0 138.0,161.0 170.0,193.0 201.0,200.0 237.0,163.0 206.0,191.0 176.0,187.0 164.0,173.0 197.0,170.0 197.0,130.0 165.0,124.0 186.0,112.0 235.0,124.0" fill="#1a2126" opacity="0.95" />
<polygon points="215.0,326.0 214.0,383.0 234.0,383.0" fill="#c25558" />
<polygon points="0.0,326.0 158.0,322.0 0.0,320.0" fill="#fcf0e8" />
<polygon points="186.0,104.0 140.0,134.0 138.0,161.0 170.0,193.0 201.0,200.0 237.0,164.0 206.0,191.0 176.0,187.0 165.0,174.0 197.0,169.0 197.0,131.0 166.0,123.0 202.0,112.0 235.0,124.0" fill="#1a2126" opacity="0.95" />
<polygon points="123.0,87.0 123.0,146.0 145.0,93.0 191.0,85.0 243.0,92.0 269.0,143.0 267.0,90.0 256.0,77.0 133.0,77.0" fill="#1a2126" opacity="0.95" />
<polygon points="134.0,118.0 164.0,95.0 204.0,89.0 235.0,101.0 256.0,121.0 244.0,94.0 213.0,87.0 151.0,91.0" fill="#c25558" />
<polygon points="177.0,242.0 179.0,240.0 216.0,240.0 218.0,242.0 218.0,250.0 212.0,254.0 183.0,254.0 177.0,250.0" fill="#1a2126" />
<polygon points="178.0,242.0 178.0,250.0 184.0,253.0 211.0,253.0 217.0,250.0 216.0,241.0" fill="#c25558" />
<polygon points="150.0,207.0 169.0,221.0 190.0,226.0 212.0,224.0 239.0,210.0 189.0,222.0" fill="#84a9a2" opacity="0.95" />
<polygon points="170.0,96.0 156.0,101.0 143.0,114.0 147.0,114.0 153.0,107.0 170.0,98.0" fill="#84a9a2" opacity="0.95" />
<polygon points="215.0,95.0 215.0,97.0 226.0,102.0 228.0,101.0 228.0,99.0 217.0,94.0" fill="#84a9a2" opacity="0.95" />
<polygon points="262.0,152.0 261.0,153.0 260.0,153.0 260.0,160.0 261.0,160.0 262.0,161.0 263.0,160.0 264.0,160.0 264.0,153.0 263.0,153.0" fill="#84a9a2" opacity="0.95" />
<polygon points="191.0,91.0 189.0,90.0 185.0,92.0 181.0,91.0 179.0,92.0 179.0,94.0 181.0,95.0 185.0,93.0 189.0,94.0 191.0,93.0" fill="#84a9a2" opacity="0.95" />
<polygon points="127.0,153.0 126.0,154.0 125.0,154.0 125.0,159.0 126.0,159.0 127.0,160.0 128.0,159.0 129.0,159.0 129.0,154.0 128.0,154.0" fill="#84a9a2" opacity="0.95" />
<polygon points="130.0,173.0 128.0,174.0 128.0,176.0 130.0,177.0 130.0,182.0 132.0,183.0 134.0,182.0 134.0,180.0 132.0,179.0 132.0,174.0" fill="#84a9a2" opacity="0.95" />
<polygon points="0.0,320.0 0.0,326.0 1.0,325.0 4.0,325.0 5.0,324.0 6.0,324.0 6.0,322.0 5.0,322.0 4.0,321.0 1.0,321.0" fill="#fcf0e8" opacity="0.95" />
<polygon points="135.0,190.0 135.0,192.0 139.0,194.0 139.0,198.0 141.0,199.0 143.0,198.0 143.0,196.0 139.0,194.0 139.0,190.0 137.0,189.0" fill="#84a9a2" opacity="0.95" />
</svg>