<svg xmlns="http://www.w3.org/2000/svg" width="768" height="768" viewBox="0 0 384 384">
<rect width="384" height="384" fill="#82605c"/>
<polygon points="0.0,0.0 0.0,212.0 64.0,212.0 224.0,12.0 363.0,76.0 309.0,192.0 211.0,242.0 121.0,196.0 98.0,289.0 0.0,296.0 360.0,325.0 0.0,326.0 0.0,383.0 383.0,346.0 364.0,27.0" fill="#6f4944" />
<polygon points="0.0,0.0 0.0,212.0 65.0,211.0 224.0,12.0 363.0,76.0 309.0,192.0 211.0,242.0 121.0,196.0 99.0,288.0 0.0,296.0 360.0,325.0 0.0,326.0 0.0,383.0 372.0,358.0 362.0,25.0" fill="#6f4944" opacity="0.95" />
<polygon points="0.0,0.0 0.0,212.0 65.0,211.0 224.0,12.0 363.0,76.0 309.0,192.0 211.0,242.0 121.0,196.0 97.0,289.0 0.0,296.0 0.0,383.0 383.0,346.0 364.0,27.0" fill="#6f4944" opacity="0.95" />
<polygon points="244.0,108.0 225.0,102.0 179.0,164.0 127.0,164.0 139.0,201.0 181.0,225.0 240.0,207.0 263.0,166.0" fill="#73f3f6" />
<polygon points="187.0,41.0 185.0,99.0 238.0,76.0 262.0,82.0 334.0,142.0 342.0,132.0 342.0,78.0 291.0,17.0 238.0,9.0" fill="#ef4b5d" />
<polygon points="187.0,41.0 184.0,98.0 238.0,76.0 331.0,140.0 342.0,132.0 342.0,78.0 291.0,17.0 238.0,9.0" fill="#ef4b5d" opacity="0.95" />
<polygon points="244.0,108.0 224.0,103.0 178.0,164.0 126.0,165.0 139.0,201.0 181.0,225.0 240.0,207.0 263.0,166.0" fill="#73f3f6" opacity="0.95" />
<polygon points="0.0,263.0 0.0,287.0 98.0,286.0 97.0,263.0" fill="#f8f3ec" />
<polygon points="182.0,51.0 91.0,178.0 100.0,191.0 182.0,80.0" fill="#fd8941" />
<polygon points="187.0,41.0 185.0,98.0 238.0,76.0 331.0,140.0 342.0,132.0 342.0,79.0 291.0,17.0 238.0,9.0" fill="#ef4b5d" opacity="0.95" />
<polygon points="98.0,190.0 88.0,181.0 64.0,214.0 0.0,214.0 0.0,231.0 13.0,226.0 27.0,231.0 23.0,239.0 0.0,238.0 0.0,254.0 97.0,254.0" fill="#f8f3ec" />
<polygon points="244.0,108.0 224.0,103.0 178.0,164.0 127.0,165.0 139.0,201.0 181.0,225.0 240.0,207.0 263.0,166.0" fill="#73f3f6" opacity="0.95" />
<polygon points="269.0,97.0 258.0,115.0 268.0,137.0 269.0,156.0 304.0,185.0 309.0,179.0 309.0,129.0" fill="#38667a" />
<polygon points="360.0,69.0 337.0,140.0 310.0,126.0 304.0,186.0 266.0,156.0 218.0,222.0 141.0,207.0 211.0,241.0 274.0,187.0 309.0,191.0 345.0,145.0" fill="#2d1c1d" />
<polygon points="225.0,97.0 185.0,101.0 179.0,85.0 100.0,194.0 101.0,228.0 119.0,196.0 139.0,202.0 124.0,164.0 148.0,162.0 184.0,120.0 207.0,124.0" fill="#2d1c1d" />
<polygon points="207.0,125.0 194.0,120.0 178.0,124.0 162.0,140.0 150.0,161.0 180.0,162.0" fill="#6f4944" />
<polygon points="98.0,190.0 86.0,184.0 63.0,214.0 0.0,214.0 0.0,254.0 97.0,253.0" fill="#f8f3ec" opacity="0.95" />
<polygon points="98.0,190.0 86.0,184.0 63.0,214.0 0.0,214.0 0.0,231.0 14.0,226.0 27.0,231.0 23.0,239.0 0.0,238.0 0.0,254.0 98.0,253.0" fill="#f8f3ec" opacity="0.95" />
<polygon points="0.0,263.0 0.0,287.0 98.0,286.0 96.0,263.0" fill="#f8f3ec" opacity="0.95" />
<polygon points="183.0,54.0 91.0,178.0 98.0,189.0 182.0,80.0" fill="#fd8941" opacity="0.95" />
<polygon points="269.0,98.0 258.0,115.0 268.0,137.0 269.0,157.0 304.0,184.0 309.0,179.0 309.0,128.0" fill="#38667a" opacity="0.95" />
<polygon points="335.0,0.0 334.0,3.0 375.0,37.0 376.0,49.0 382.0,53.0 383.0,0.0" fill="#2d1c1d" />
<polygon points="347.0,132.0 333.0,142.0 310.0,127.0 304.0,185.0 265.0,158.0 253.0,194.0 218.0,222.0 147.0,215.0 184.0,239.0 227.0,236.0 274.0,187.0 309.0,191.0" fill="#2d1c1d" opacity="0.95" />
<polygon points="181.0,59.0 91.0,178.0 97.0,188.0 182.0,80.0" fill="#fd8941" opacity="0.95" />
<polygon points="223.0,100.0 186.0,101.0 179.0,85.0 126.0,161.0 149.0,161.0 173.0,127.0 187.0,119.0 209.0,122.0" fill="#2d1c1d" opacity="0.95" />
<polygon points="0.0,263.0 0.0,287.0 98.0,285.0 98.0,265.0 95.0,263.0" fill="#f8f3ec" opacity="0.95" />
<polygon points="383.0,347.0 348.0,378.0 346.0,383.0 383.0,383.0" fill="#2d1c1d" />
<polygon points="270.0,98.0 258.0,115.0 268.0,137.0 270.0,157.0 303.0,184.0 309.0,179.0 309.0,129.0" fill="#38667a" opacity="0.95" />
<polygon points="312.0,184.0 268.0,158.0 230.0,216.0 199.0,227.0 154.0,221.0 184.0,239.0 216.0,240.0 274.0,187.0" fill="#2d1c1d" opacity="0.95" />
<polygon points="206.0,124.0 194.0,120.0 178.0,124.0 156.0,148.0 151.0,161.0 180.0,162.0" fill="#6f4944" opacity="0.95" />
<polygon points="261.0,83.0 248.0,84.0 248.0,111.0 252.0,117.0 271.0,92.0" fill="#2d1c1d" />
<polygon points="222.0,102.0 187.0,101.0 178.0,87.0 127.0,160.0 148.0,161.0 178.0,123.0 207.0,123.0" fill="#2d1c1d" opacity="0.95" />
<polygon points="0.0,256.0 0.0,261.0 98.0,260.0 97.0,256.0 76.0,255.0" fill="#feae08" />
<polygon points="335.0,0.0 375.0,37.0 376.0,50.0 382.0,53.0 383.0,0.0" fill="#2d1c1d" opacity="0.95" />
<polygon points="205.0,124.0 194.0,120.0 178.0,124.0 162.0,140.0 151.0,160.0 180.0,162.0" fill="#6f4944" opacity="0.95" />
<polygon points="240.0,79.0 233.0,78.0 203.0,99.0 220.0,99.0 226.0,96.0" fill="#992231" />
<polygon points="241.0,80.0 226.0,100.0 228.0,102.0 238.0,103.0 246.0,109.0 247.0,84.0" fill="#a5ece6" />
<polygon points="335.0,54.0 331.0,60.0 332.0,68.0 338.0,73.0 348.0,72.0 352.0,66.0 351.0,57.0 343.0,52.0" fill="#f8f3ec" />
<polygon points="0.0,256.0 0.0,261.0 98.0,260.0 96.0,256.0 76.0,255.0" fill="#feae08" opacity="0.95" />
<polygon points="269.0,96.0 295.0,118.0 309.0,126.0 272.0,93.0" fill="#33505f" />
<polygon points="335.0,54.0 331.0,60.0 332.0,68.0 338.0,73.0 348.0,72.0 352.0,66.0 351.0,57.0 343.0,52.0" fill="#f8f3ec" opacity="0.95" />
<polygon points="257.0,113.0 253.0,119.0 261.0,133.0 267.0,156.0 268.0,141.0 258.0,122.0" fill="#33505f" />
<polygon points="241.0,81.0 227.0,98.0 227.0,101.0 238.0,103.0 245.0,108.0 247.0,107.0 247.0,84.0" fill="#a5ece6" opacity="0.95" />
<polygon points="239.0,78.0 233.0,78.0 208.0,94.0 205.0,99.0 220.0,99.0 226.0,96.0" fill="#992231" opacity="0.95" />
<polygon points="335.0,54.0 331.0,60.0 332.0,68.0 338.0,73.0 348.0,72.0 352.0,66.0 351.0,57.0 343.0,52.0" fill="#f8f3ec" opacity="0.95" />
<polygon points="270.0,95.0 295.0,118.0 307.0,124.0 278.0,97.0" fill="#33505f" opacity="0.95" />
<polygon points="0.0,233.0 14.0,226.0 21.0,226.0 27.0,231.0 27.0,235.0 22.0,239.0 13.0,239.0 10.0,237.0 4.0,238.0 0.0,235.0" fill="#f8f3ec" opacity="0.95" />
<polygon points="242.0,81.0 236.0,86.0 227.0,100.0 238.0,103.0 244.0,107.0 247.0,105.0 247.0,84.0" fill="#a5ece6" opacity="0.95" />
<polygon points="239.0,79.0 233.0,78.0 208.0,94.0 206.0,98.0 211.0,100.0 226.0,96.0" fill="#992231" opacity="0.95" />
<polygon points="264.0,134.0 262.0,135.0 262.0,139.0 264.0,145.0 265.0,154.0 267.0,155.0 269.0,154.0 269.0,147.0 267.0,137.0" fill="#33505f" opacity="0.95" />
<polygon points="30.0,257.0 30.0,259.0 33.0,261.0 42.0,261.0 45.0,259.0 45.0,257.0 42.0,255.0 33.0,255.0" fill="#feae08" opacity="0.95" />
<polygon points="66.0,257.0 66.0,259.0 69.0,261.0 76.0,261.0 79.0,259.0 79.0,257.0 76.0,255.0 69.0,255.0" fill="#feae08" opacity="0.95" />
</svg>