<svg xmlns="http://www.w3.org/2000/svg" width="768" height="768" viewBox="0 0 384 384">
<rect width="384" height="384" fill="#896760"/>
<polygon points="133.0,159.0 133.0,219.0 251.0,218.0 250.0,158.0" fill="#6fecfe" />
<polygon points="0.0,267.0 0.0,330.0 302.0,329.0 32.0,334.0 4.0,360.0 297.0,374.0 184.0,344.0 383.0,322.0 24.0,312.0" fill="#874e49" />
<polygon points="0.0,66.0 0.0,100.0 87.0,96.0 33.0,88.0 81.0,47.0 239.0,23.0 342.0,88.0 290.0,94.0 383.0,99.0 258.0,0.0 91.0,7.0" fill="#874e49" />
<polygon points="316.0,99.0 280.0,89.0 312.0,74.0 207.0,26.0 124.0,50.0 257.0,56.0 119.0,59.0 109.0,35.0 38.0,86.0" fill="#c57a6e" />
<polygon points="312.0,99.0 283.0,91.0 311.0,74.0 283.0,46.0 195.0,28.0 61.0,84.0" fill="#c57a6e" opacity="0.95" />
<polygon points="17.0,142.0 116.0,151.0 118.0,125.0 209.0,123.0 261.0,125.0 265.0,150.0 351.0,148.0 295.0,105.0 90.0,104.0" fill="#487aa1" />
<polygon points="8.0,282.0 11.0,292.0 375.0,291.0 339.0,281.0" fill="#674f5a" />
<polygon points="0.0,267.0 0.0,330.0 161.0,317.0 0.0,350.0 144.0,362.0 110.0,377.0 295.0,374.0 185.0,345.0 336.0,361.0 383.0,322.0 24.0,312.0" fill="#874e49" opacity="0.95" />
<polygon points="0.0,66.0 0.0,100.0 87.0,96.0 35.0,86.0 109.0,34.0 236.0,23.0 316.0,74.0 296.0,94.0 383.0,99.0 258.0,0.0 91.0,7.0" fill="#874e49" opacity="0.95" />
<polygon points="133.0,159.0 132.0,218.0 251.0,218.0 251.0,159.0" fill="#6fecfe" opacity="0.95" />
<polygon points="59.0,270.0 261.0,279.0 157.0,268.0 262.0,247.0 122.0,244.0 196.0,257.0" fill="#dc745d" />
<polygon points="298.0,58.0 243.0,32.0 165.0,31.0 128.0,46.0 151.0,63.0 99.0,51.0 64.0,85.0 289.0,100.0" fill="#c57a6e" opacity="0.95" />
<polygon points="0.0,348.0 0.0,383.0 383.0,383.0 383.0,349.0 300.0,361.0 300.0,375.0 142.0,383.0 94.0,374.0 94.0,361.0 4.0,361.0" fill="#482b2d" />
<polygon points="0.0,66.0 0.0,100.0 62.0,100.0 36.0,86.0 109.0,34.0 239.0,23.0 296.0,50.0 312.0,96.0 383.0,99.0 322.0,22.0 259.0,0.0 118.0,0.0" fill="#874e49" opacity="0.95" />
<polygon points="0.0,267.0 0.0,328.0 163.0,329.0 1.0,357.0 116.0,345.0 141.0,366.0 96.0,371.0 294.0,374.0 187.0,345.0 335.0,361.0 383.0,322.0 24.0,312.0" fill="#874e49" opacity="0.95" />
<polygon points="133.0,160.0 135.0,219.0 251.0,217.0 247.0,157.0" fill="#6fecfe" opacity="0.95" />
<polygon points="20.0,244.0 22.0,266.0 118.0,265.0 116.0,243.0" fill="#fbe50c" />
<polygon points="0.0,166.0 24.0,177.0 0.0,188.0 39.0,191.0 0.0,206.0 0.0,228.0 16.0,230.0 0.0,236.0 0.0,266.0 20.0,265.0 20.0,241.0 67.0,242.0 61.0,226.0 117.0,228.0 117.0,194.0 99.0,191.0 117.0,188.0 116.0,169.0 32.0,179.0 30.0,167.0" fill="#c57a6e" />
<polygon points="268.0,3.0 333.0,22.0 326.0,31.0 373.0,60.0 370.0,69.0 383.0,70.0 381.0,0.0" fill="#482b2d" />
<polygon points="17.0,142.0 115.0,151.0 118.0,125.0 209.0,123.0 261.0,125.0 266.0,150.0 351.0,148.0 295.0,105.0 196.0,118.0 90.0,104.0" fill="#487aa1" opacity="0.95" />
<polygon points="383.0,282.0 343.0,303.0 26.0,292.0 21.0,304.0 383.0,307.0" fill="#482b2d" />
<polygon points="0.0,167.0 0.0,188.0 38.0,190.0 0.0,206.0 0.0,266.0 20.0,265.0 11.0,256.0 22.0,241.0 117.0,228.0 117.0,170.0 36.0,179.0" fill="#c57a6e" opacity="0.95" />
<polygon points="271.0,179.0 278.0,191.0 264.0,202.0 284.0,205.0 266.0,228.0 312.0,230.0 316.0,243.0 383.0,242.0 369.0,231.0 381.0,228.0 377.0,219.0 335.0,209.0 349.0,201.0 344.0,189.0 364.0,188.0 351.0,178.0" fill="#c57a6e" />
<polygon points="8.0,282.0 11.0,292.0 375.0,291.0 339.0,281.0" fill="#674f5a" opacity="0.95" />
<polygon points="383.0,114.0 324.0,107.0 325.0,124.0 363.0,139.0 364.0,151.0 265.0,153.0 264.0,187.0 286.0,163.0 309.0,163.0 313.0,177.0 383.0,176.0" fill="#874e49" />
<polygon points="69.0,232.0 70.0,241.0 314.0,241.0 313.0,232.0 266.0,231.0 263.0,240.0 260.0,231.0" fill="#406185" />
<polygon points="0.0,62.0 25.0,41.0 17.0,34.0 55.0,29.0 41.0,22.0 114.0,3.0 0.0,0.0" fill="#482b2d" />
<polygon points="121.0,143.0 122.0,192.0 135.0,154.0 248.0,154.0 254.0,190.0 254.0,148.0 262.0,176.0 260.0,142.0" fill="#6a9599" />
<polygon points="383.0,349.0 300.0,361.0 297.0,375.0 143.0,382.0 93.0,361.0 0.0,357.0 0.0,383.0 383.0,383.0" fill="#482b2d" opacity="0.95" />
<polygon points="17.0,143.0 114.0,151.0 120.0,125.0 209.0,123.0 260.0,125.0 267.0,150.0 351.0,148.0 295.0,105.0 196.0,118.0 90.0,104.0" fill="#487aa1" opacity="0.95" />
<polygon points="59.0,270.0 260.0,279.0 193.0,266.0 262.0,247.0 123.0,244.0 153.0,255.0 122.0,257.0 119.0,270.0" fill="#dc745d" opacity="0.95" />
<polygon points="0.0,167.0 0.0,188.0 36.0,191.0 0.0,206.0 0.0,266.0 20.0,264.0 23.0,241.0 117.0,227.0 116.0,170.0 37.0,179.0 29.0,169.0 9.0,179.0" fill="#c57a6e" opacity="0.95" />
<polygon points="8.0,283.0 11.0,292.0 374.0,290.0" fill="#674f5a" opacity="0.95" />
<polygon points="264.0,154.0 266.0,188.0 287.0,163.0 361.0,178.0 370.0,192.0 337.0,210.0 383.0,228.0 383.0,114.0 323.0,108.0 361.0,153.0" fill="#874e49" opacity="0.95" />
<polygon points="0.0,114.0 7.0,170.0 31.0,164.0 34.0,177.0 67.0,177.0 71.0,162.0 93.0,163.0 96.0,173.0 117.0,167.0 115.0,153.0 16.0,153.0 12.0,140.0 54.0,112.0" fill="#874e49" />
<polygon points="274.0,181.0 269.0,202.0 282.0,207.0 265.0,227.0 312.0,230.0 317.0,243.0 383.0,242.0 377.0,219.0 335.0,209.0 348.0,201.0 343.0,190.0 362.0,188.0 351.0,179.0" fill="#c57a6e" opacity="0.95" />
<polygon points="383.0,323.0 357.0,325.0 375.0,348.0 295.0,375.0 140.0,382.0 0.0,358.0 0.0,383.0 383.0,383.0" fill="#482b2d" opacity="0.95" />
<polygon points="383.0,246.0 365.0,246.0 364.0,258.0 266.0,257.0 265.0,266.0 383.0,268.0" fill="#874e49" />
<polygon points="20.0,244.0 23.0,266.0 118.0,265.0 115.0,243.0" fill="#fbe50c" opacity="0.95" />
<polygon points="274.0,2.0 311.0,11.0 339.0,42.0 372.0,61.0 369.0,68.0 383.0,70.0 383.0,0.0" fill="#482b2d" opacity="0.95" />
<polygon points="161.0,329.0 154.0,322.0 132.0,319.0 24.0,328.0 94.0,333.0" fill="#c57a6e" />
<polygon points="69.0,232.0 71.0,241.0 314.0,241.0 312.0,232.0 292.0,231.0" fill="#406185" opacity="0.95" />
<polygon points="59.0,271.0 63.0,279.0 259.0,279.0 258.0,270.0 204.0,265.0 214.0,254.0 262.0,247.0 123.0,244.0 117.0,270.0" fill="#dc745d" opacity="0.95" />
<polygon points="265.0,244.0 266.0,254.0 363.0,254.0 361.0,245.0" fill="#fbe50c" />
<polygon points="274.0,182.0 280.0,216.0 266.0,227.0 311.0,230.0 318.0,243.0 383.0,240.0 377.0,219.0 337.0,214.0 342.0,192.0 357.0,187.0 350.0,179.0" fill="#c57a6e" opacity="0.95" />
<polygon points="276.0,0.0 280.0,7.0 310.0,11.0 360.0,56.0 383.0,62.0 383.0,0.0" fill="#482b2d" opacity="0.95" />
<polygon points="0.0,62.0 24.0,42.0 17.0,34.0 54.0,30.0 49.0,23.0 70.0,10.0 113.0,2.0 0.0,0.0" fill="#482b2d" opacity="0.95" />
<polygon points="69.0,233.0 72.0,241.0 314.0,240.0 292.0,231.0" fill="#406185" opacity="0.95" />
<polygon points="20.0,245.0 24.0,266.0 118.0,264.0 114.0,243.0" fill="#fbe50c" opacity="0.95" />
<polygon points="265.0,270.0 266.0,280.0 323.0,279.0 322.0,269.0" fill="#fbe50c" />
<polygon points="144.0,105.0 153.0,106.0 153.0,114.0 222.0,114.0 221.0,109.0 225.0,105.0" fill="#406185" />
<polygon points="259.0,207.0 248.0,221.0 201.0,221.0 200.0,228.0 260.0,229.0" fill="#101012" />
<polygon points="0.0,62.0 15.0,55.0 17.0,34.0 46.0,34.0 66.0,12.0 101.0,7.0 105.0,0.0 0.0,0.0" fill="#482b2d" opacity="0.95" />
<polygon points="8.0,270.0 9.0,279.0 58.0,278.0 57.0,269.0" fill="#f8bc6c" />
<polygon points="120.0,132.0 123.0,138.0 154.0,138.0 183.0,129.0 122.0,127.0" fill="#dc745d" />
<polygon points="121.0,143.0 121.0,153.0 130.0,156.0 143.0,149.0 193.0,154.0 197.0,145.0 261.0,152.0 259.0,142.0" fill="#6a9599" opacity="0.95" />
<polygon points="265.0,244.0 267.0,254.0 363.0,254.0 362.0,246.0" fill="#fbe50c" opacity="0.95" />
<polygon points="324.0,271.0 325.0,280.0 373.0,281.0 375.0,279.0 374.0,270.0" fill="#e7a336" />
<polygon points="121.0,225.0 125.0,229.0 185.0,228.0 183.0,221.0 143.0,221.0 133.0,224.0 130.0,206.0 125.0,211.0" fill="#101012" />
<polygon points="219.0,129.0 220.0,135.0 227.0,138.0 259.0,138.0 261.0,136.0 260.0,128.0" fill="#dc745d" />
<polygon points="154.0,113.0 220.0,114.0 223.0,105.0 156.0,104.0" fill="#406185" opacity="0.95" />
<polygon points="121.0,144.0 124.0,151.0 187.0,144.0 261.0,149.0 258.0,142.0 232.0,139.0" fill="#6a9599" opacity="0.95" />
<polygon points="265.0,245.0 268.0,254.0 363.0,253.0 361.0,246.0 351.0,244.0" fill="#fbe50c" opacity="0.95" />
<polygon points="261.0,219.0 257.0,211.0 248.0,221.0 202.0,221.0 200.0,228.0 259.0,229.0" fill="#101012" opacity="0.95" />
<polygon points="265.0,270.0 265.0,279.0 267.0,280.0 323.0,279.0 323.0,270.0 321.0,269.0" fill="#fbe50c" opacity="0.95" />
<polygon points="121.0,137.0 154.0,138.0 170.0,134.0 177.0,129.0 123.0,127.0" fill="#dc745d" opacity="0.95" />
<polygon points="155.0,106.0 158.0,114.0 221.0,112.0 218.0,104.0" fill="#406185" opacity="0.95" />
<polygon points="324.0,271.0 324.0,279.0 375.0,280.0 375.0,271.0 373.0,270.0" fill="#e7a336" opacity="0.95" />
<polygon points="121.0,225.0 125.0,229.0 184.0,228.0 182.0,221.0 144.0,221.0 134.0,224.0 129.0,207.0 125.0,210.0" fill="#101012" opacity="0.95" />
<polygon points="69.0,168.0 69.0,175.0 70.0,176.0 91.0,176.0 93.0,174.0 93.0,168.0 91.0,166.0 71.0,166.0" fill="#406185" />
<polygon points="8.0,270.0 8.0,278.0 10.0,279.0 58.0,278.0 58.0,270.0 56.0,269.0" fill="#f8bc6c" opacity="0.95" />
<polygon points="119.0,176.0 117.0,178.0 119.0,231.0" fill="#ede1d7" />
<polygon points="219.0,129.0 220.0,135.0 227.0,138.0 258.0,138.0 261.0,136.0 261.0,129.0 259.0,128.0" fill="#dc745d" opacity="0.95" />
<polygon points="287.0,169.0 287.0,174.0 289.0,176.0 309.0,176.0 311.0,174.0 311.0,170.0 309.0,167.0 289.0,167.0" fill="#406185" />
<polygon points="261.0,219.0 256.0,213.0 248.0,221.0 203.0,221.0 200.0,227.0 258.0,229.0 261.0,227.0" fill="#101012" opacity="0.95" />
<polygon points="265.0,271.0 265.0,278.0 268.0,280.0 320.0,280.0 323.0,278.0 323.0,271.0 320.0,269.0 268.0,269.0" fill="#fbe50c" opacity="0.95" />
<polygon points="121.0,136.0 124.0,138.0 154.0,138.0 170.0,134.0 173.0,130.0 170.0,128.0 124.0,127.0 121.0,129.0" fill="#dc745d" opacity="0.95" />
<polygon points="117.0,56.0 133.0,59.0 146.0,59.0 154.0,56.0 137.0,53.0" fill="#dc745d" />
<polygon points="84.0,105.0 65.0,105.0 59.0,108.0 58.0,113.0 72.0,114.0 76.0,108.0 78.0,110.0 77.0,112.0 81.0,114.0 81.0,108.0" fill="#406185" />
<polygon points="122.0,222.0 125.0,229.0 135.0,226.0 140.0,229.0 184.0,227.0 181.0,221.0 144.0,221.0 135.0,226.0 128.0,209.0" fill="#101012" opacity="0.95" />
<polygon points="219.0,130.0 220.0,135.0 227.0,138.0 258.0,138.0 261.0,136.0 261.0,130.0 258.0,128.0 222.0,128.0" fill="#dc745d" opacity="0.95" />
<polygon points="8.0,271.0 8.0,277.0 11.0,279.0 55.0,279.0 58.0,277.0 58.0,271.0 55.0,269.0 11.0,269.0" fill="#f8bc6c" opacity="0.95" />
<polygon points="324.0,272.0 324.0,278.0 327.0,280.0 372.0,281.0 375.0,279.0 375.0,272.0 372.0,270.0 327.0,270.0" fill="#e7a336" opacity="0.95" />
<polygon points="69.0,167.0 69.0,175.0 71.0,176.0 91.0,176.0 93.0,175.0 93.0,167.0 91.0,166.0 71.0,166.0" fill="#406185" opacity="0.95" />
<polygon points="125.0,159.0 127.0,161.0 127.0,171.0 125.0,173.0 123.0,171.0 123.0,161.0" fill="#6a9599" />
<polygon points="310.0,106.0 310.0,113.0 311.0,114.0 321.0,114.0 322.0,113.0 321.0,112.0 322.0,110.0 321.0,107.0 317.0,107.0 313.0,105.0" fill="#674f5a" />
<polygon points="197.0,144.0 199.0,145.0 202.0,149.0 199.0,152.0 196.0,151.0 193.0,148.0" fill="#6a9599" />
<polygon points="356.0,141.0 355.0,142.0 356.0,143.0 356.0,150.0 357.0,151.0 361.0,151.0 363.0,149.0 363.0,142.0 362.0,141.0" fill="#674f5a" />
<polygon points="254.0,163.0 252.0,164.0 252.0,183.0 254.0,184.0 256.0,183.0 256.0,164.0" fill="#6a9599" opacity="0.95" />
<polygon points="186.0,144.0 187.0,144.0 191.0,149.0 189.0,151.0 188.0,150.0 187.0,151.0 185.0,150.0 184.0,151.0 182.0,149.0" fill="#6a9599" />
<polygon points="310.0,106.0 310.0,113.0 312.0,114.0 319.0,114.0 321.0,113.0 322.0,108.0 313.0,105.0" fill="#674f5a" opacity="0.95" />
<polygon points="126.0,152.0 128.0,154.0 128.0,156.0 126.0,158.0 124.0,156.0 124.0,154.0" fill="#6a9599" />
<polygon points="119.0,138.0 118.0,139.0 119.0,140.0 118.0,142.0 119.0,143.0 118.0,145.0 118.0,161.0 119.0,162.0 120.0,161.0 120.0,145.0 119.0,143.0 121.0,140.0" fill="#ede1d7" />
<polygon points="187.0,144.0 190.0,146.0 190.0,149.0 186.0,151.0 183.0,149.0 183.0,147.0" fill="#6a9599" opacity="0.95" />
<polygon points="358.0,141.0 356.0,142.0 356.0,150.0 360.0,151.0 363.0,149.0 363.0,142.0 361.0,141.0" fill="#674f5a" opacity="0.95" />
<polygon points="64.0,103.0 56.0,103.0 55.0,104.0 54.0,108.0 57.0,111.0 55.0,113.0 56.0,114.0 58.0,112.0 57.0,111.0 58.0,108.0 60.0,106.0 64.0,105.0 65.0,104.0" fill="#674f5a" />
<polygon points="197.0,145.0 194.0,148.0 196.0,150.0 198.0,150.0 200.0,148.0 200.0,147.0" fill="#ede1d7" />
<polygon points="310.0,107.0 310.0,112.0 313.0,114.0 318.0,114.0 321.0,112.0 321.0,109.0 313.0,105.0" fill="#674f5a" opacity="0.95" />
<polygon points="359.0,141.0 356.0,143.0 356.0,149.0 360.0,151.0 363.0,149.0 363.0,143.0" fill="#674f5a" opacity="0.95" />
<polygon points="186.0,145.0 184.0,147.0 184.0,148.0 186.0,150.0 187.0,150.0 189.0,148.0 189.0,147.0 187.0,145.0" fill="#ede1d7" />
<polygon points="108.0,110.0 111.0,112.0 111.0,114.0 108.0,116.0 105.0,114.0 105.0,112.0" fill="#487aa1" opacity="0.95" />
</svg>