<svg xmlns="http://www.w3.org/2000/svg" width="768" height="768" viewBox="0 0 384 384">
<rect width="384" height="384" fill="#896057"/>
<polygon points="383.0,162.0 267.0,171.0 251.0,236.0 204.0,269.0 241.0,289.0 254.0,320.0 383.0,320.0" fill="#995743" />
<polygon points="167.0,89.0 98.0,96.0 63.0,158.0 0.0,143.0 0.0,213.0 99.0,223.0 105.0,320.0 149.0,320.0 198.0,269.0 151.0,229.0 135.0,170.0" fill="#995743" />
<polygon points="0.0,326.0 0.0,383.0 154.0,383.0 149.0,326.0" fill="#995743" />
<polygon points="0.0,215.0 0.0,287.0 76.0,287.0 97.0,277.0 99.0,228.0 93.0,218.0" fill="#f6ecea" />
<polygon points="383.0,162.0 266.0,172.0 251.0,236.0 204.0,269.0 233.0,281.0 255.0,320.0 383.0,320.0" fill="#995743" opacity="0.95" />
<polygon points="0.0,143.0 0.0,213.0 92.0,216.0 104.0,326.0 0.0,326.0 0.0,383.0 154.0,383.0 145.0,322.0 200.0,267.0 286.0,383.0 369.0,348.0 383.0,162.0 266.0,172.0 202.0,264.0 141.0,204.0 169.0,90.0 98.0,96.0 59.0,159.0" fill="#995743" opacity="0.95" />
<polygon points="50.0,24.0 0.0,51.0 0.0,114.0 27.0,128.0 0.0,129.0 37.0,148.0 69.0,141.0 87.0,90.0 106.0,82.0" fill="#3b3438" />
<polygon points="196.0,8.0 4.0,11.0 0.0,28.0 51.0,23.0 95.0,63.0 174.0,63.0" fill="#995743" />
<polygon points="201.0,101.0 200.0,173.0 191.0,164.0 136.0,165.0 148.0,197.0 191.0,220.0 240.0,206.0 261.0,167.0 246.0,122.0" fill="#7de2df" />
<polygon points="196.0,7.0 187.0,82.0 341.0,118.0 340.0,84.0 311.0,108.0 326.0,72.0 296.0,102.0 346.0,44.0 238.0,12.0 249.0,37.0 220.0,49.0 202.0,28.0 229.0,10.0" fill="#f75e5e" />
<polygon points="167.0,89.0 98.0,96.0 59.0,159.0 0.0,143.0 0.0,213.0 99.0,223.0 106.0,320.0 150.0,319.0 198.0,269.0 151.0,229.0 135.0,170.0" fill="#995743" opacity="0.95" />
<polygon points="178.0,283.0 156.0,314.0 164.0,354.0 197.0,371.0 234.0,362.0 195.0,375.0 166.0,360.0 173.0,383.0 241.0,383.0 242.0,301.0 212.0,278.0" fill="#3b3438" />
<polygon points="0.0,326.0 0.0,383.0 154.0,383.0 148.0,326.0" fill="#995743" opacity="0.95" />
<polygon points="255.0,327.0 268.0,370.0 286.0,381.0 327.0,382.0 349.0,374.0 370.0,346.0 370.0,326.0" fill="#995743" />
<polygon points="383.0,69.0 364.0,58.0 332.0,125.0 217.0,102.0 262.0,149.0 319.0,157.0 375.0,113.0" fill="#3b3438" />
<polygon points="0.0,215.0 0.0,287.0 76.0,287.0 97.0,277.0 99.0,228.0 93.0,218.0" fill="#f6ecea" opacity="0.95" />
<polygon points="0.0,0.0 206.0,1.0 383.0,68.0 372.0,41.0 272.0,0.0" fill="#613e3b" />
<polygon points="178.0,283.0 156.0,314.0 173.0,383.0 241.0,383.0 248.0,329.0 242.0,301.0 212.0,278.0" fill="#3b3438" opacity="0.95" />
<polygon points="201.0,101.0 205.0,168.0 137.0,165.0 148.0,197.0 191.0,220.0 240.0,206.0 261.0,167.0 246.0,122.0" fill="#7de2df" opacity="0.95" />
<polygon points="50.0,24.0 0.0,50.0 0.0,115.0 17.0,125.0 0.0,129.0 37.0,148.0 69.0,141.0 87.0,90.0 104.0,84.0 85.0,49.0" fill="#3b3438" opacity="0.95" />
<polygon points="195.0,9.0 4.0,11.0 0.0,27.0 51.0,23.0 95.0,62.0 173.0,63.0" fill="#995743" opacity="0.95" />
<polygon points="197.0,6.0 187.0,82.0 341.0,118.0 340.0,85.0 327.0,113.0 272.0,92.0 347.0,45.0 244.0,14.0 208.0,71.0 223.0,8.0" fill="#f75e5e" opacity="0.95" />
<polygon points="0.0,215.0 0.0,287.0 76.0,287.0 97.0,277.0 99.0,228.0 93.0,218.0" fill="#f6ecea" opacity="0.95" />
<polygon points="383.0,102.0 328.0,156.0 263.0,149.0 244.0,222.0 204.0,259.0 250.0,236.0 267.0,170.0 383.0,161.0" fill="#613e3b" />
<polygon points="100.0,277.0 83.0,288.0 0.0,288.0 0.0,316.0 84.0,312.0 97.0,298.0" fill="#3b3438" />
<polygon points="174.0,79.0 187.0,100.0 150.0,123.0 137.0,162.0 192.0,163.0 201.0,171.0 203.0,163.0 193.0,161.0 199.0,100.0" fill="#3b3438" />
<polygon points="178.0,283.0 156.0,314.0 173.0,383.0 241.0,383.0 248.0,329.0 242.0,301.0 212.0,278.0" fill="#3b3438" opacity="0.95" />
<polygon points="50.0,24.0 0.0,49.0 0.0,115.0 14.0,124.0 5.0,132.0 37.0,148.0 69.0,141.0 87.0,90.0 103.0,83.0 85.0,49.0" fill="#3b3438" opacity="0.95" />
<polygon points="209.0,102.0 199.0,104.0 201.0,172.0 137.0,166.0 148.0,197.0 185.0,219.0 236.0,209.0 260.0,173.0 250.0,127.0" fill="#7de2df" opacity="0.95" />
<polygon points="383.0,69.0 364.0,58.0 332.0,125.0 222.0,105.0 260.0,147.0 324.0,156.0 383.0,102.0" fill="#3b3438" opacity="0.95" />
<polygon points="197.0,6.0 187.0,82.0 341.0,118.0 340.0,86.0 326.0,113.0 267.0,88.0 344.0,44.0 246.0,14.0 207.0,71.0 221.0,8.0" fill="#f75e5e" opacity="0.95" />
<polygon points="0.0,0.0 204.0,0.0 383.0,68.0 372.0,41.0 272.0,0.0" fill="#613e3b" opacity="0.95" />
<polygon points="186.0,99.0 174.0,73.0 98.0,72.0 107.0,82.0 88.0,90.0 69.0,142.0 37.0,149.0 2.0,130.0 0.0,142.0 59.0,158.0 82.0,142.0 104.0,92.0 163.0,87.0" fill="#613e3b" />
<polygon points="205.0,22.0 204.0,33.0 215.0,46.0 232.0,48.0 247.0,39.0 247.0,25.0 235.0,13.0 217.0,13.0" fill="#f6ecea" />
<polygon points="383.0,103.0 337.0,152.0 310.0,158.0 263.0,149.0 262.0,171.0 326.0,174.0 383.0,161.0" fill="#613e3b" opacity="0.95" />
<polygon points="254.0,327.0 246.0,345.0 242.0,383.0 287.0,383.0 267.0,370.0" fill="#613e3b" />
<polygon points="383.0,326.0 372.0,327.0 371.0,346.0 353.0,374.0 318.0,383.0 383.0,383.0" fill="#613e3b" />
<polygon points="102.0,241.0 101.0,286.0 89.0,310.0 0.0,320.0 101.0,319.0 109.0,293.0" fill="#613e3b" />
<polygon points="383.0,321.0 252.0,321.0 203.0,270.0 201.0,225.0 200.0,270.0 163.0,289.0 150.0,321.0 0.0,324.0 153.0,327.0 196.0,275.0 230.0,285.0 251.0,325.0" fill="#f6ecea" />
<polygon points="10.0,257.0 14.0,254.0 83.0,254.0 88.0,263.0 81.0,276.0 16.0,276.0 10.0,268.0" fill="#f6ecea" opacity="0.95" />
<polygon points="11.0,256.0 83.0,254.0 88.0,269.0 82.0,276.0 70.0,276.0 65.0,269.0 14.0,269.0" fill="#f6ecea" opacity="0.95" />
<polygon points="185.0,98.0 173.0,73.0 101.0,73.0 69.0,142.0 37.0,149.0 1.0,130.0 0.0,142.0 59.0,158.0 82.0,142.0 104.0,92.0" fill="#613e3b" opacity="0.95" />
<polygon points="383.0,104.0 337.0,152.0 310.0,158.0 265.0,149.0 262.0,169.0 326.0,174.0 383.0,161.0" fill="#613e3b" opacity="0.95" />
<polygon points="205.0,22.0 207.0,39.0 218.0,47.0 236.0,47.0 247.0,39.0 247.0,25.0 235.0,13.0 217.0,13.0" fill="#f6ecea" opacity="0.95" />
<polygon points="35.0,26.0 25.0,22.0 15.0,22.0 0.0,29.0 0.0,49.0 11.0,39.0 33.0,37.0" fill="#f75e5e" />
<polygon points="360.0,47.0 348.0,45.0 355.0,57.0 348.0,73.0 328.0,65.0 331.0,84.0 319.0,93.0 318.0,111.0 338.0,80.0 351.0,91.0 364.0,55.0" fill="#da4049" />
<polygon points="206.0,48.0 213.0,48.0 220.0,56.0 220.0,63.0 213.0,71.0 206.0,71.0 199.0,65.0 197.0,60.0 199.0,53.0" fill="#f75e5e" />
<polygon points="237.0,14.0 221.0,12.0 205.0,22.0 204.0,33.0 212.0,46.0 199.0,56.0 204.0,68.0 218.0,64.0 218.0,48.0 236.0,47.0 247.0,39.0 247.0,25.0" fill="#f6ecea" opacity="0.95" />
<polygon points="342.0,50.0 333.0,55.0 331.0,62.0 332.0,66.0 338.0,72.0 345.0,73.0 351.0,69.0 353.0,57.0 349.0,52.0" fill="#f6ecea" />
<polygon points="298.0,78.0 300.0,86.0 294.0,102.0 289.0,104.0 280.0,98.0 284.0,90.0 286.0,92.0 291.0,81.0" fill="#f75e5e" />
<polygon points="35.0,26.0 25.0,22.0 15.0,22.0 0.0,28.0 0.0,48.0 11.0,39.0 35.0,36.0" fill="#f75e5e" opacity="0.95" />
<polygon points="361.0,48.0 350.0,46.0 355.0,64.0 348.0,73.0 328.0,67.0 330.0,84.0 321.0,89.0 315.0,108.0 334.0,84.0 352.0,88.0" fill="#da4049" opacity="0.95" />
<polygon points="75.0,228.0 71.0,233.0 71.0,239.0 75.0,243.0 82.0,243.0 86.0,240.0 87.0,233.0 81.0,227.0" fill="#7de2df" />
<polygon points="178.0,72.0 189.0,93.0 196.0,96.0 207.0,92.0 191.0,86.0" fill="#da4049" />
<polygon points="321.0,69.0 313.0,70.0 314.0,80.0 306.0,85.0 301.0,100.0 303.0,106.0 311.0,87.0 314.0,89.0 321.0,78.0" fill="#da4049" />
<polygon points="281.0,76.0 284.0,79.0 284.0,82.0 278.0,98.0 275.0,100.0 272.0,97.0 272.0,92.0 276.0,80.0" fill="#f75e5e" />
<polygon points="35.0,27.0 25.0,22.0 15.0,22.0 0.0,28.0 0.0,47.0 11.0,39.0 34.0,36.0" fill="#f75e5e" opacity="0.95" />
<polygon points="363.0,50.0 350.0,47.0 355.0,65.0 346.0,74.0 314.0,69.0 310.0,86.0 325.0,74.0 330.0,84.0 323.0,91.0 336.0,82.0 351.0,89.0" fill="#da4049" opacity="0.95" />
<polygon points="300.0,63.0 310.0,68.0 305.0,78.0 303.0,76.0 301.0,77.0 297.0,72.0 297.0,67.0" fill="#f75e5e" />
<polygon points="200.0,316.0 196.0,319.0 195.0,322.0 196.0,326.0 199.0,329.0 205.0,329.0 208.0,327.0 209.0,321.0 205.0,316.0" fill="#e4c9c4" />
<polygon points="81.0,227.0 74.0,229.0 71.0,233.0 71.0,239.0 75.0,243.0 81.0,243.0 87.0,238.0 86.0,231.0" fill="#7de2df" opacity="0.95" />
<polygon points="297.0,84.0 292.0,90.0 289.0,99.0 290.0,103.0 293.0,101.0 298.0,87.0" fill="#a0303d" />
<polygon points="312.0,88.0 310.0,89.0 305.0,104.0 306.0,107.0 309.0,105.0 314.0,90.0" fill="#a0303d" />
<polygon points="298.0,79.0 293.0,80.0 285.0,96.0 287.0,101.0 293.0,86.0 296.0,83.0 299.0,83.0" fill="#da4049" />
<polygon points="328.0,92.0 326.0,92.0 323.0,97.0 320.0,108.0 321.0,111.0 324.0,109.0 323.0,108.0 328.0,100.0" fill="#a0303d" />
<polygon points="302.0,64.0 300.0,64.0 298.0,67.0 298.0,72.0 301.0,76.0 304.0,75.0 306.0,71.0 306.0,67.0" fill="#da4049" />
<polygon points="81.0,227.0 74.0,229.0 71.0,233.0 71.0,239.0 75.0,243.0 81.0,243.0 87.0,238.0 86.0,231.0" fill="#7de2df" opacity="0.95" />
<polygon points="197.0,97.0 201.0,99.0 207.0,99.0 217.0,96.0 219.0,98.0 221.0,97.0 205.0,93.0" fill="#a0303d" />
<polygon points="318.0,68.0 313.0,70.0 314.0,80.0 306.0,85.0 301.0,100.0 303.0,104.0 309.0,89.0 316.0,87.0 316.0,82.0 321.0,78.0 322.0,70.0" fill="#da4049" opacity="0.95" />
<polygon points="200.0,316.0 196.0,319.0 196.0,326.0 200.0,329.0 205.0,329.0 208.0,327.0 209.0,321.0 206.0,317.0" fill="#e4c9c4" opacity="0.95" />
<polygon points="187.0,86.0 187.0,92.0 195.0,96.0 204.0,93.0 204.0,91.0 190.0,85.0" fill="#da4049" opacity="0.95" />
<polygon points="285.0,61.0 283.0,63.0 283.0,67.0 286.0,70.0 288.0,70.0 290.0,68.0 290.0,63.0 287.0,61.0" fill="#da4049" />
<polygon points="279.0,84.0 274.0,94.0 275.0,98.0 277.0,97.0 280.0,89.0 280.0,85.0" fill="#a0303d" />
<polygon points="200.0,316.0 196.0,319.0 196.0,326.0 200.0,329.0 205.0,329.0 208.0,327.0 209.0,321.0 206.0,317.0" fill="#e4c9c4" opacity="0.95" />
<polygon points="327.0,92.0 325.0,93.0 321.0,106.0 323.0,107.0 326.0,105.0 328.0,100.0 329.0,93.0" fill="#a0303d" opacity="0.95" />
<polygon points="295.0,87.0 293.0,88.0 289.0,101.0 291.0,102.0 293.0,101.0 297.0,88.0" fill="#a0303d" opacity="0.95" />
<polygon points="199.0,96.0 199.0,98.0 201.0,99.0 207.0,99.0 213.0,97.0 213.0,95.0 205.0,93.0" fill="#a0303d" opacity="0.95" />
<polygon points="311.0,90.0 309.0,91.0 307.0,97.0 307.0,99.0 309.0,100.0 311.0,99.0 311.0,97.0 313.0,94.0 313.0,91.0" fill="#a0303d" opacity="0.95" />
<polygon points="205.0,93.0 202.0,95.0 202.0,97.0 205.0,99.0 208.0,97.0 208.0,95.0" fill="#a0303d" opacity="0.95" />
</svg>