<svg xmlns="http://www.w3.org/2000/svg" width="768" height="768" viewBox="0 0 384 384">
<rect width="384" height="384" fill="#91594d"/>
<polygon points="0.0,0.0 0.0,383.0 188.0,383.0 187.0,240.0 132.0,226.0 115.0,119.0 183.0,35.0 269.0,110.0 255.0,218.0 196.0,259.0 197.0,383.0 383.0,383.0 383.0,0.0" fill="#9d5646" />
<polygon points="0.0,0.0 0.0,383.0 188.0,383.0 190.0,244.0 197.0,383.0 383.0,383.0 383.0,0.0" fill="#9d5646" opacity="0.95" />
<polygon points="0.0,0.0 0.0,383.0 188.0,383.0 187.0,242.0 132.0,226.0 116.0,129.0 183.0,35.0 269.0,110.0 255.0,218.0 196.0,259.0 197.0,383.0 383.0,383.0 383.0,0.0" fill="#9d5646" opacity="0.95" />
<polygon points="167.0,38.0 233.0,45.0 266.0,95.0 257.0,211.0 230.0,243.0 156.0,244.0 127.0,216.0 117.0,101.0" fill="#9d5646" opacity="0.95" />
<polygon points="190.0,45.0 141.0,66.0 150.0,74.0 135.0,136.0 170.0,141.0 192.0,165.0 211.0,142.0 248.0,135.0 236.0,75.0 244.0,66.0" fill="#9d5646" />
<polygon points="190.0,45.0 142.0,65.0 150.0,74.0 136.0,138.0 162.0,137.0 192.0,163.0 211.0,142.0 248.0,135.0 243.0,65.0" fill="#9d5646" opacity="0.95" />
<polygon points="126.0,161.0 161.0,218.0 190.0,202.0 223.0,217.0 257.0,174.0 251.0,155.0 209.0,194.0 230.0,150.0 190.0,194.0 146.0,149.0 175.0,191.0 165.0,198.0" fill="#6ffdfb" />
<polygon points="190.0,45.0 143.0,64.0 136.0,138.0 162.0,137.0 192.0,162.0 221.0,137.0 248.0,135.0 243.0,65.0" fill="#9d5646" opacity="0.95" />
<polygon points="127.0,198.0 146.0,238.0 169.0,244.0 191.0,232.0 190.0,260.0 202.0,240.0 240.0,236.0 256.0,208.0 249.0,195.0 218.0,220.0 190.0,205.0 163.0,220.0" fill="#073663" />
<polygon points="126.0,161.0 161.0,218.0 190.0,205.0 223.0,217.0 257.0,174.0 250.0,156.0 214.0,197.0 237.0,150.0 189.0,190.0 148.0,149.0 166.0,198.0" fill="#6ffdfb" opacity="0.95" />
<polygon points="140.0,142.0 190.0,190.0 213.0,159.0 239.0,147.0 209.0,191.0 216.0,197.0 244.0,160.0 234.0,138.0 209.0,145.0 192.0,167.0 163.0,139.0" fill="#073663" />
<polygon points="251.0,67.0 240.0,76.0 250.0,104.0 250.0,131.0 263.0,137.0 267.0,106.0" fill="#073663" />
<polygon points="127.0,198.0 135.0,228.0 163.0,244.0 191.0,233.0 231.0,241.0 256.0,208.0 249.0,197.0 218.0,220.0 190.0,207.0 163.0,220.0" fill="#073663" opacity="0.95" />
<polygon points="126.0,161.0 161.0,218.0 190.0,206.0 223.0,217.0 257.0,174.0 250.0,156.0 214.0,197.0 235.0,151.0 189.0,188.0 150.0,149.0 167.0,198.0" fill="#6ffdfb" opacity="0.95" />
<polygon points="135.0,67.0 119.0,99.0 117.0,127.0 121.0,137.0 134.0,130.0 136.0,96.0 146.0,75.0" fill="#073663" />
<polygon points="141.0,141.0 190.0,188.0 238.0,148.0 215.0,196.0 244.0,160.0 234.0,138.0 192.0,165.0 163.0,139.0" fill="#073663" opacity="0.95" />
<polygon points="127.0,198.0 135.0,228.0 163.0,244.0 191.0,234.0 231.0,241.0 256.0,208.0 249.0,197.0 218.0,220.0 190.0,208.0 163.0,220.0" fill="#073663" opacity="0.95" />
<polygon points="195.0,256.0 190.0,261.0 190.0,383.0 195.0,383.0" fill="#081e45" />
<polygon points="141.0,141.0 190.0,187.0 236.0,149.0 215.0,196.0 244.0,160.0 234.0,138.0 192.0,164.0 163.0,139.0" fill="#073663" opacity="0.95" />
<polygon points="135.0,67.0 124.0,83.0 117.0,109.0 122.0,137.0 134.0,131.0 136.0,96.0 146.0,75.0" fill="#073663" opacity="0.95" />
<polygon points="251.0,67.0 240.0,76.0 250.0,104.0 250.0,131.0 262.0,137.0 268.0,124.0 267.0,106.0" fill="#073663" opacity="0.95" />
<polygon points="161.0,45.0 209.0,42.0 250.0,63.0 232.0,46.0 210.0,38.0 179.0,37.0" fill="#c2e1f2" />
<polygon points="193.0,259.0 190.0,261.0 190.0,383.0 195.0,383.0" fill="#081e45" opacity="0.95" />
<polygon points="140.0,143.0 130.0,149.0 139.0,161.0 145.0,155.0 142.0,149.0 143.0,147.0" fill="#081e45" />
<polygon points="162.0,43.0 204.0,41.0 239.0,53.0 226.0,43.0 204.0,37.0 179.0,37.0" fill="#c2e1f2" opacity="0.95" />
<polygon points="134.0,136.0 123.0,140.0 128.0,147.0 137.0,143.0" fill="#fbf54a" />
<polygon points="161.0,43.0 148.0,49.0 136.0,61.0 140.0,61.0 157.0,49.0" fill="#c8cdd8" />
<polygon points="183.0,44.0 159.0,49.0 138.0,64.0 164.0,49.0" fill="#081e45" />
<polygon points="211.0,46.0 247.0,64.0 235.0,54.0 223.0,48.0" fill="#081e45" />
<polygon points="250.0,136.0 246.0,142.0 253.0,147.0 255.0,147.0 259.0,140.0" fill="#fbf54a" />
<polygon points="246.0,144.0 244.0,147.0 245.0,148.0 244.0,157.0 246.0,159.0 254.0,149.0" fill="#081e45" />
<polygon points="139.0,143.0 130.0,148.0 130.0,150.0 139.0,160.0 145.0,155.0 142.0,146.0" fill="#081e45" opacity="0.95" />
<polygon points="193.0,235.0 192.0,236.0 192.0,250.0 193.0,251.0 196.0,245.0 196.0,239.0" fill="#9d5646" />
<polygon points="133.0,136.0 124.0,139.0 125.0,143.0 129.0,147.0 137.0,143.0 135.0,137.0" fill="#fbf54a" opacity="0.95" />
<polygon points="160.0,44.0 158.0,43.0 148.0,49.0 141.0,55.0 141.0,57.0 143.0,58.0 159.0,48.0" fill="#c8cdd8" opacity="0.95" />
<polygon points="251.0,136.0 248.0,138.0 246.0,143.0 254.0,147.0 257.0,145.0 258.0,139.0" fill="#fbf54a" opacity="0.95" />
<polygon points="138.0,144.0 132.0,147.0 131.0,151.0 139.0,160.0 145.0,155.0 145.0,153.0 142.0,149.0 142.0,146.0" fill="#081e45" opacity="0.95" />
<polygon points="132.0,136.0 125.0,140.0 125.0,143.0 130.0,147.0 137.0,143.0 136.0,139.0" fill="#fbf54a" opacity="0.95" />
<polygon points="190.0,234.0 188.0,237.0 188.0,243.0 190.0,245.0 189.0,246.0 189.0,253.0 190.0,254.0 191.0,253.0 191.0,246.0 190.0,245.0 191.0,244.0 191.0,235.0" fill="#38607e" />
<polygon points="248.0,133.0 260.0,140.0 262.0,139.0 249.0,132.0" fill="#eceee5" />
<polygon points="248.0,145.0 245.0,146.0 245.0,155.0 247.0,156.0 249.0,155.0 253.0,150.0 253.0,148.0" fill="#081e45" opacity="0.95" />
<polygon points="251.0,136.0 248.0,138.0 247.0,143.0 254.0,147.0 257.0,145.0 258.0,140.0" fill="#fbf54a" opacity="0.95" />
<polygon points="253.0,190.0 251.0,192.0 251.0,194.0 253.0,196.0 254.0,198.0 253.0,199.0 255.0,201.0 256.0,200.0 256.0,196.0" fill="#081e45" />
</svg>