<svg xmlns="http://www.w3.org/2000/svg" width="768" height="768" viewBox="0 0 384 384">
<rect width="384" height="384" fill="#98675f"/>
<polygon points="0.0,0.0 0.0,383.0 167.0,383.0 183.0,247.0 137.0,226.0 129.0,143.0 177.0,102.0 253.0,134.0 248.0,222.0 200.0,258.0 216.0,383.0 383.0,383.0 383.0,0.0" fill="#a36359" />
<polygon points="0.0,0.0 0.0,383.0 167.0,383.0 183.0,246.0 137.0,226.0 129.0,143.0 177.0,102.0 253.0,134.0 248.0,222.0 200.0,257.0 216.0,383.0 383.0,383.0 383.0,0.0" fill="#a36359" opacity="0.95" />
<polygon points="0.0,0.0 0.0,383.0 167.0,383.0 183.0,247.0 137.0,226.0 129.0,143.0 177.0,102.0 253.0,134.0 248.0,222.0 200.0,258.0 216.0,383.0 383.0,383.0 383.0,0.0" fill="#a36359" opacity="0.95" />
<polygon points="147.0,112.0 130.0,153.0 145.0,208.0 208.0,218.0 248.0,198.0 252.0,139.0 238.0,113.0 198.0,103.0" fill="#7dced3" />
<polygon points="142.0,116.0 130.0,166.0 145.0,208.0 208.0,218.0 248.0,198.0 252.0,139.0 238.0,113.0 185.0,103.0" fill="#7dced3" opacity="0.95" />
<polygon points="147.0,112.0 130.0,153.0 145.0,208.0 208.0,218.0 248.0,198.0 252.0,139.0 238.0,113.0 198.0,103.0" fill="#7dced3" opacity="0.95" />
<polygon points="137.0,201.0 144.0,233.0 184.0,246.0 184.0,281.0 168.0,298.0 174.0,383.0 213.0,383.0 216.0,300.0 199.0,281.0 199.0,246.0 238.0,234.0 247.0,203.0 180.0,220.0" fill="#131e2d" />
<polygon points="138.0,204.0 144.0,233.0 184.0,245.0 184.0,282.0 168.0,298.0 174.0,383.0 213.0,383.0 216.0,300.0 199.0,282.0 199.0,246.0 238.0,234.0 247.0,205.0 180.0,220.0" fill="#131e2d" opacity="0.95" />
<polygon points="151.0,127.0 197.0,129.0 195.0,187.0 149.0,185.0" fill="#7dced3" opacity="0.95" />
<polygon points="151.0,126.0 159.0,130.0 167.0,126.0 172.0,142.0 174.0,129.0 183.0,129.0 181.0,188.0 174.0,185.0 173.0,175.0 166.0,189.0 160.0,183.0 155.0,188.0 149.0,186.0" fill="#7dced3" />
<polygon points="139.0,205.0 144.0,233.0 184.0,246.0 184.0,281.0 168.0,298.0 174.0,383.0 213.0,383.0 216.0,300.0 199.0,281.0 199.0,246.0 238.0,234.0 247.0,207.0 180.0,220.0" fill="#131e2d" opacity="0.95" />
<polygon points="151.0,128.0 150.0,173.0 160.0,173.0 165.0,187.0 186.0,182.0 195.0,186.0 196.0,130.0" fill="#131e2d" opacity="0.95" />
<polygon points="150.0,127.0 166.0,126.0 172.0,136.0 180.0,126.0 185.0,139.0 189.0,127.0 197.0,129.0 195.0,187.0 185.0,178.0 178.0,188.0 172.0,177.0 165.0,189.0 149.0,186.0" fill="#7dced3" opacity="0.95" />
<polygon points="191.0,126.0 197.0,129.0 197.0,185.0 194.0,188.0 188.0,185.0 187.0,130.0" fill="#7dced3" />
<polygon points="229.0,126.0 235.0,129.0 235.0,186.0 232.0,189.0 227.0,186.0 227.0,128.0" fill="#7dced3" />
<polygon points="218.0,126.0 223.0,128.0 223.0,186.0 220.0,189.0 216.0,186.0 216.0,128.0" fill="#7dced3" />
<polygon points="163.0,128.0 162.0,185.0 167.0,187.0 169.0,185.0 169.0,129.0" fill="#131e2d" />
<polygon points="220.0,126.0 235.0,129.0 235.0,186.0 231.0,189.0 216.0,186.0 216.0,129.0" fill="#7dced3" opacity="0.95" />
<polygon points="190.0,128.0 189.0,185.0 194.0,187.0 196.0,185.0 196.0,129.0" fill="#131e2d" />
<polygon points="181.0,128.0 176.0,129.0 176.0,185.0 179.0,187.0 182.0,185.0" fill="#131e2d" />
<polygon points="152.0,127.0 150.0,129.0 151.0,186.0 154.0,187.0 156.0,185.0 156.0,129.0" fill="#131e2d" />
<polygon points="219.0,127.0 217.0,129.0 217.0,186.0 221.0,187.0 222.0,129.0" fill="#131e2d" />
<polygon points="230.0,127.0 229.0,186.0 232.0,187.0 233.0,128.0" fill="#131e2d" />
<polygon points="160.0,131.0 157.0,132.0 157.0,180.0 159.0,182.0 161.0,180.0" fill="#75bac3" />
<polygon points="172.0,143.0 170.0,145.0 170.0,174.0 171.0,175.0 174.0,173.0 174.0,148.0" fill="#75bac3" />
<polygon points="159.0,131.0 157.0,132.0 157.0,181.0 159.0,182.0 161.0,181.0 161.0,132.0" fill="#75bac3" opacity="0.95" />
<polygon points="169.0,356.0 168.0,357.0 168.0,369.0 167.0,370.0 168.0,372.0 168.0,383.0 173.0,383.0 173.0,357.0" fill="#e97c6d" />
<polygon points="115.0,187.0 119.0,193.0 122.0,191.0 127.0,197.0 124.0,200.0 119.0,200.0 116.0,196.0 117.0,200.0 114.0,203.0 111.0,199.0 113.0,197.0 113.0,189.0" fill="#a36359" />
<polygon points="170.0,356.0 168.0,357.0 168.0,383.0 173.0,383.0 173.0,357.0" fill="#e97c6d" opacity="0.95" />
<polygon points="117.0,189.0 126.0,194.0 126.0,197.0 121.0,200.0 121.0,208.0 118.0,210.0 115.0,208.0 112.0,201.0 114.0,191.0" fill="#a36359" opacity="0.95" />
<polygon points="172.0,147.0 170.0,148.0 170.0,173.0 172.0,174.0 174.0,173.0 174.0,148.0" fill="#75bac3" opacity="0.95" />
<polygon points="118.0,188.0 126.0,195.0 126.0,198.0 117.0,206.0 113.0,203.0 112.0,196.0 114.0,194.0 114.0,191.0" fill="#a36359" opacity="0.95" />
<polygon points="257.0,184.0 259.0,186.0 259.0,189.0 258.0,190.0 258.0,192.0 256.0,194.0 255.0,194.0 252.0,190.0 254.0,188.0 253.0,187.0 256.0,184.0" fill="#a36359" />
<polygon points="119.0,204.0 122.0,207.0 122.0,208.0 123.0,209.0 120.0,212.0 116.0,207.0" fill="#a36359" />
<polygon points="121.0,193.0 119.0,195.0 119.0,196.0 122.0,199.0 123.0,198.0 124.0,199.0 126.0,197.0 123.0,193.0" fill="#e97c6d" />
<polygon points="125.0,194.0 122.0,193.0 119.0,195.0 119.0,197.0 121.0,198.0 123.0,198.0 125.0,197.0" fill="#e97c6d" opacity="0.95" />
</svg>