<svg xmlns="http://www.w3.org/2000/svg" width="768" height="768" viewBox="0 0 384 384">
<rect width="384" height="384" fill="#926a62"/>
<polygon points="0.0,0.0 0.0,383.0 383.0,383.0 383.0,0.0" fill="#8f564e" />
<polygon points="0.0,0.0 0.0,383.0 383.0,383.0 383.0,0.0" fill="#8f564e" opacity="0.95" />
<polygon points="180.0,36.0 285.0,60.0 346.0,153.0 335.0,258.0 220.0,368.0 164.0,368.0 87.0,308.0 36.0,221.0 81.0,73.0" fill="#8f564e" />
<polygon points="0.0,0.0 0.0,383.0 383.0,383.0 383.0,0.0" fill="#8f564e" opacity="0.95" />
<polygon points="180.0,36.0 285.0,60.0 346.0,153.0 335.0,258.0 220.0,368.0 159.0,364.0 37.0,228.0 79.0,76.0" fill="#8f564e" opacity="0.95" />
<polygon points="115.0,52.0 41.0,143.0 57.0,278.0 153.0,327.0 125.0,156.0 206.0,103.0 260.0,161.0 232.0,327.0 282.0,316.0 340.0,245.0 329.0,110.0 237.0,41.0" fill="#c17565" />
<polygon points="180.0,36.0 285.0,60.0 346.0,153.0 335.0,258.0 220.0,368.0 159.0,364.0 37.0,228.0 40.0,142.0 79.0,76.0" fill="#8f564e" opacity="0.95" />
<polygon points="115.0,52.0 40.0,147.0 57.0,278.0 152.0,328.0 125.0,156.0 206.0,103.0 260.0,161.0 233.0,328.0 340.0,245.0 329.0,110.0 237.0,41.0" fill="#c17565" opacity="0.95" />
<polygon points="168.0,112.0 130.0,161.0 151.0,267.0 177.0,272.0 173.0,211.0 182.0,271.0 198.0,272.0 209.0,211.0 204.0,271.0 229.0,272.0 251.0,149.0 216.0,112.0" fill="#75d6db" />
<polygon points="111.0,54.0 40.0,147.0 57.0,278.0 152.0,327.0 125.0,156.0 206.0,103.0 260.0,161.0 234.0,328.0 288.0,312.0 343.0,229.0 316.0,90.0 221.0,37.0" fill="#c17565" opacity="0.95" />
<polygon points="168.0,112.0 130.0,161.0 151.0,267.0 228.0,272.0 251.0,149.0 216.0,112.0" fill="#75d6db" opacity="0.95" />
<polygon points="168.0,112.0 130.0,161.0 151.0,267.0 227.0,272.0 251.0,149.0 216.0,112.0" fill="#75d6db" opacity="0.95" />
<polygon points="152.0,282.0 153.0,358.0 165.0,367.0 217.0,367.0 238.0,353.0 231.0,345.0 238.0,338.0 231.0,327.0 238.0,320.0 230.0,311.0 238.0,302.0 231.0,281.0" fill="#0e262a" />
<polygon points="232.0,282.0 177.0,282.0 174.0,295.0 152.0,283.0 148.0,353.0 165.0,367.0 217.0,367.0 237.0,355.0" fill="#0e262a" opacity="0.95" />
<polygon points="152.0,284.0 153.0,358.0 165.0,367.0 217.0,367.0 238.0,353.0 231.0,283.0 180.0,282.0 173.0,295.0" fill="#0e262a" opacity="0.95" />
<polygon points="167.0,108.0 125.0,166.0 147.0,269.0 130.0,154.0 198.0,106.0 255.0,159.0 231.0,276.0 255.0,146.0 216.0,107.0" fill="#0e262a" />
<polygon points="173.0,212.0 178.0,272.0 155.0,279.0 228.0,280.0 203.0,272.0 208.0,212.0 201.0,224.0 201.0,272.0 181.0,272.0" fill="#f3faf9" />
<polygon points="160.0,286.0 162.0,284.0 173.0,284.0 177.0,287.0 177.0,293.0 175.0,295.0 164.0,295.0 160.0,292.0" fill="#0e262a" />
<polygon points="228.0,275.0 157.0,274.0 155.0,280.0 166.0,283.0 162.0,292.0 173.0,293.0 175.0,287.0 171.0,283.0 175.0,280.0 226.0,280.0" fill="#f3faf9" opacity="0.95" />
<polygon points="228.0,276.0 202.0,272.0 158.0,274.0 155.0,279.0 164.0,284.0 163.0,292.0 172.0,293.0 175.0,288.0 171.0,283.0 175.0,280.0 225.0,280.0" fill="#f3faf9" opacity="0.95" />
<polygon points="162.0,287.0 162.0,292.0 163.0,293.0 174.0,293.0 175.0,292.0 175.0,287.0 174.0,286.0 163.0,286.0" fill="#f3faf9" />
<polygon points="148.0,246.0 146.0,247.0 146.0,262.0 148.0,263.0 150.0,262.0 150.0,247.0" fill="#0e262a" opacity="0.95" />
<polygon points="214.0,108.0 214.0,110.0 221.0,112.0 231.0,120.0 235.0,120.0 228.0,113.0 216.0,107.0" fill="#0e262a" opacity="0.95" />
<polygon points="174.0,213.0 177.0,215.0 177.0,217.0 174.0,219.0 171.0,217.0 171.0,215.0" fill="#75d6db" opacity="0.95" />
<polygon points="202.0,227.0 205.0,229.0 205.0,231.0 202.0,233.0 199.0,231.0 199.0,229.0" fill="#75d6db" opacity="0.95" />
<polygon points="257.0,164.0 256.0,165.0 255.0,165.0 255.0,170.0 256.0,170.0 257.0,171.0 258.0,170.0 259.0,170.0 259.0,165.0 258.0,165.0" fill="#0e262a" opacity="0.95" />
<polygon points="236.0,237.0 235.0,238.0 234.0,238.0 234.0,242.0 235.0,242.0 236.0,243.0 237.0,242.0 238.0,242.0 238.0,238.0 237.0,238.0" fill="#0e262a" opacity="0.95" />
</svg>