<svg xmlns="http://www.w3.org/2000/svg" width="768" height="768" viewBox="0 0 384 384">
<rect width="384" height="384" fill="#8e6865"/>
<polygon points="272.0,4.0 0.0,13.0 0.0,65.0 69.0,8.0 154.0,99.0 79.0,172.0 0.0,99.0 0.0,174.0 58.0,173.0 31.0,136.0 73.0,184.0 0.0,239.0 0.0,375.0 119.0,383.0 219.0,272.0 139.0,248.0 119.0,178.0 243.0,65.0 319.0,137.0 364.0,100.0" fill="#be6d62" />
<polygon points="267.0,0.0 0.0,13.0 0.0,65.0 69.0,8.0 154.0,99.0 0.0,239.0 0.0,375.0 120.0,383.0 218.0,274.0 139.0,248.0 119.0,178.0 243.0,65.0 319.0,136.0 363.0,101.0" fill="#be6d62" opacity="0.95" />
<polygon points="195.0,115.0 126.0,167.0 190.0,232.0 256.0,178.0" fill="#66ddec" />
<polygon points="383.0,176.0 228.0,268.0 245.0,282.0 295.0,283.0 358.0,323.0 383.0,275.0" fill="#be6d62" />
<polygon points="267.0,0.0 0.0,13.0 0.0,65.0 69.0,8.0 154.0,99.0 0.0,239.0 0.0,375.0 120.0,383.0 219.0,272.0 139.0,248.0 119.0,178.0 243.0,65.0 319.0,136.0 363.0,101.0" fill="#be6d62" opacity="0.95" />
<polygon points="67.0,11.0 0.0,66.0 7.0,84.0 0.0,96.0 76.0,170.0 152.0,104.0" fill="#45444c" opacity="0.95" />
<polygon points="67.0,11.0 0.0,79.0 147.0,98.0 74.0,159.0 0.0,85.0 77.0,170.0 152.0,104.0" fill="#45444c" />
<polygon points="140.0,334.0 178.0,383.0 304.0,383.0 299.0,374.0 316.0,369.0 224.0,268.0 310.0,358.0 296.0,373.0 203.0,280.0" fill="#45444c" />
<polygon points="235.0,277.0 316.0,363.0 305.0,383.0 383.0,383.0 383.0,276.0 356.0,325.0 295.0,284.0" fill="#7f4f4d" />
<polygon points="375.0,96.0 194.0,243.0 122.0,171.0 123.0,196.0 196.0,267.0 357.0,135.0" fill="#45444c" />
<polygon points="383.0,90.0 357.0,136.0 197.0,267.0 231.0,274.0 293.0,219.0 383.0,175.0" fill="#7f4f4d" />
<polygon points="67.0,11.0 0.0,66.0 0.0,96.0 76.0,170.0 152.0,104.0" fill="#45444c" opacity="0.95" />
<polygon points="383.0,176.0 228.0,268.0 245.0,282.0 295.0,283.0 358.0,323.0 383.0,282.0" fill="#be6d62" opacity="0.95" />
<polygon points="140.0,337.0 178.0,383.0 304.0,383.0 202.0,280.0" fill="#45444c" opacity="0.95" />
<polygon points="195.0,116.0 126.0,167.0 191.0,232.0 255.0,180.0" fill="#66ddec" opacity="0.95" />
<polygon points="0.0,80.0 19.0,102.0 37.0,106.0 29.0,108.0 74.0,158.0 146.0,98.0 128.0,102.0 72.0,82.0 21.0,95.0" fill="#7a7979" />
<polygon points="247.0,64.0 192.0,111.0 223.0,93.0 241.0,95.0 257.0,131.0 247.0,153.0 258.0,178.0 314.0,132.0" fill="#45444c" />
<polygon points="140.0,339.0 178.0,383.0 304.0,383.0 202.0,280.0" fill="#45444c" opacity="0.95" />
<polygon points="383.0,176.0 228.0,268.0 245.0,282.0 295.0,283.0 358.0,323.0 383.0,283.0" fill="#be6d62" opacity="0.95" />
<polygon points="195.0,116.0 126.0,167.0 191.0,232.0 255.0,180.0" fill="#66ddec" opacity="0.95" />
<polygon points="288.0,12.0 287.0,27.0 311.0,17.0 374.0,79.0 364.0,95.0 377.0,84.0 383.0,89.0 383.0,0.0 301.0,0.0" fill="#45444c" />
<polygon points="383.0,90.0 357.0,136.0 199.0,267.0 225.0,268.0 383.0,175.0" fill="#7f4f4d" opacity="0.95" />
<polygon points="244.0,284.0 316.0,363.0 305.0,383.0 383.0,383.0 383.0,283.0 356.0,325.0 299.0,286.0" fill="#7f4f4d" opacity="0.95" />
<polygon points="6.0,88.0 27.0,94.0 72.0,81.0 145.0,100.0 74.0,159.0 34.0,119.0 33.0,103.0" fill="#45444c" opacity="0.95" />
<polygon points="0.0,80.0 37.0,106.0 35.0,119.0 74.0,158.0 144.0,100.0 72.0,82.0 21.0,95.0" fill="#7a7979" opacity="0.95" />
<polygon points="223.0,94.0 197.0,113.0 256.0,173.0 246.0,153.0 256.0,131.0 248.0,126.0 240.0,95.0" fill="#7a7979" />
<polygon points="383.0,90.0 357.0,136.0 200.0,266.0 224.0,267.0 383.0,175.0" fill="#7f4f4d" opacity="0.95" />
<polygon points="245.0,285.0 316.0,363.0 305.0,383.0 383.0,383.0 383.0,286.0 356.0,325.0 288.0,282.0" fill="#7f4f4d" opacity="0.95" />
<polygon points="122.0,196.0 123.0,222.0 136.0,244.0 170.0,267.0 190.0,270.0" fill="#7f4f4d" />
<polygon points="66.0,177.0 62.0,174.0 36.0,192.0 8.0,168.0 0.0,175.0 0.0,229.0 12.0,225.0" fill="#7a7979" />
<polygon points="12.0,91.0 37.0,106.0 39.0,124.0 74.0,158.0 139.0,104.0 72.0,82.0 26.0,96.0" fill="#7a7979" opacity="0.95" />
<polygon points="120.0,383.0 177.0,382.0 139.0,343.0 135.0,365.0" fill="#7f4f4d" />
<polygon points="0.0,99.0 0.0,173.0 10.0,166.0 39.0,190.0 58.0,173.0 40.0,151.0 49.0,146.0" fill="#be6d62" opacity="0.95" />
<polygon points="227.0,278.0 219.0,289.0 247.0,323.0 256.0,319.0 254.0,324.0 278.0,354.0 298.0,370.0 309.0,359.0 266.0,315.0 261.0,318.0 260.0,309.0" fill="#bdb8b7" />
<polygon points="223.0,94.0 198.0,114.0 251.0,167.0 247.0,149.0 256.0,130.0 248.0,126.0 240.0,95.0" fill="#7a7979" opacity="0.95" />
<polygon points="297.0,28.0 325.0,59.0 335.0,51.0 334.0,61.0 361.0,88.0 371.0,78.0 343.0,50.0 338.0,53.0 334.0,41.0 310.0,18.0" fill="#bdb8b7" />
<polygon points="0.0,99.0 0.0,173.0 10.0,166.0 39.0,190.0 58.0,171.0 38.0,148.0 43.0,140.0" fill="#be6d62" opacity="0.95" />
<polygon points="261.0,183.0 257.0,178.0 192.0,233.0 159.0,203.0 193.0,241.0" fill="#0dc7da" />
<polygon points="121.0,201.0 125.0,228.0 139.0,247.0 170.0,267.0 191.0,269.0" fill="#7f4f4d" opacity="0.95" />
<polygon points="66.0,177.0 59.0,176.0 37.0,192.0 10.0,167.0 0.0,174.0 0.0,229.0 12.0,225.0" fill="#7a7979" opacity="0.95" />
<polygon points="220.0,288.0 292.0,369.0 308.0,361.0 268.0,317.0 257.0,317.0 260.0,309.0 229.0,281.0" fill="#bdb8b7" opacity="0.95" />
<polygon points="230.0,92.0 198.0,114.0 245.0,160.0 256.0,131.0 248.0,126.0 241.0,97.0" fill="#7a7979" opacity="0.95" />
<polygon points="220.0,288.0 292.0,369.0 308.0,361.0 229.0,281.0" fill="#bdb8b7" opacity="0.95" />
<polygon points="298.0,27.0 325.0,56.0 333.0,56.0 360.0,87.0 369.0,83.0 370.0,77.0 312.0,20.0" fill="#bdb8b7" opacity="0.95" />
<polygon points="121.0,381.0 177.0,383.0 140.0,345.0 135.0,365.0" fill="#7f4f4d" opacity="0.95" />
<polygon points="66.0,177.0 59.0,176.0 37.0,192.0 10.0,167.0 0.0,174.0 0.0,229.0 12.0,225.0" fill="#7a7979" opacity="0.95" />
<polygon points="298.0,27.0 360.0,87.0 369.0,83.0 370.0,77.0 312.0,20.0" fill="#bdb8b7" opacity="0.95" />
<polygon points="129.0,177.0 135.0,188.0 186.0,238.0 164.0,210.0" fill="#145271" />
<polygon points="261.0,183.0 255.0,181.0 187.0,235.0 192.0,240.0" fill="#0dc7da" opacity="0.95" />
<polygon points="194.0,114.0 190.0,113.0 135.0,159.0 146.0,154.0" fill="#0dc7da" />
<polygon points="314.0,136.0 277.0,161.0 260.0,178.0 264.0,178.0" fill="#7a7979" />
<polygon points="260.0,182.0 255.0,181.0 189.0,237.0 198.0,237.0" fill="#0dc7da" opacity="0.95" />
<polygon points="329.0,60.0 360.0,92.0 372.0,84.0 372.0,80.0 361.0,89.0 332.0,58.0" fill="#e1ddda" />
<polygon points="135.0,186.0 173.0,227.0 177.0,227.0 150.0,196.0 139.0,186.0" fill="#145271" opacity="0.95" />
<polygon points="219.0,290.0 219.0,293.0 245.0,319.0 246.0,318.0 236.0,306.0" fill="#e1ddda" />
<polygon points="297.0,29.0 296.0,30.0 323.0,57.0 324.0,56.0 323.0,54.0" fill="#e1ddda" />
<polygon points="252.0,323.0 251.0,325.0 275.0,349.0 276.0,348.0" fill="#e1ddda" />
<polygon points="151.0,206.0 150.0,207.0 169.0,226.0 170.0,225.0" fill="#e1ddda" />
<polygon points="193.0,114.0 189.0,114.0 177.0,124.0 176.0,127.0 180.0,127.0 192.0,117.0" fill="#0dc7da" opacity="0.95" />
</svg>