<svg xmlns="http://www.w3.org/2000/svg" width="768" height="768" viewBox="0 0 384 384">
<rect width="384" height="384" fill="#916b5a"/>
<polygon points="383.0,126.0 100.0,129.0 96.0,213.0 79.0,177.0 36.0,200.0 55.0,156.0 20.0,183.0 32.0,128.0 3.0,127.0 3.0,314.0 143.0,320.0 177.0,282.0 156.0,256.0 240.0,321.0 383.0,320.0" fill="#8a6456" />
<polygon points="104.0,18.0 124.0,63.0 163.0,91.0 343.0,119.0 347.0,61.0 277.0,0.0 132.0,0.0" fill="#da6936" />
<polygon points="2.0,0.0 3.0,124.0 383.0,125.0 383.0,0.0 278.0,0.0 345.0,55.0 341.0,122.0 151.0,86.0 104.0,26.0 131.0,0.0" fill="#46393c" />
<polygon points="383.0,126.0 100.0,129.0 75.0,158.0 113.0,178.0 42.0,204.0 51.0,157.0 19.0,182.0 30.0,128.0 0.0,129.0 3.0,383.0 16.0,320.0 144.0,319.0 156.0,256.0 242.0,321.0 383.0,320.0" fill="#8a6456" opacity="0.95" />
<polygon points="383.0,126.0 100.0,129.0 75.0,157.0 113.0,178.0 42.0,204.0 50.0,159.0 20.0,182.0 30.0,129.0 1.0,129.0 0.0,335.0 141.0,320.0 157.0,257.0 242.0,320.0 383.0,320.0" fill="#8a6456" opacity="0.95" />
<polygon points="118.0,159.0 263.0,158.0 269.0,192.0 239.0,234.0 197.0,241.0 147.0,210.0" fill="#8a6456" />
<polygon points="121.0,160.0 137.0,198.0 186.0,229.0 236.0,209.0 264.0,161.0" fill="#91d6e9" />
<polygon points="104.0,17.0 124.0,63.0 163.0,91.0 343.0,119.0 347.0,61.0 278.0,0.0 132.0,0.0" fill="#da6936" opacity="0.95" />
<polygon points="0.0,0.0 4.0,124.0 383.0,125.0 383.0,0.0 279.0,0.0 345.0,55.0 340.0,122.0 151.0,86.0 104.0,26.0 130.0,0.0" fill="#46393c" opacity="0.95" />
<polygon points="176.0,381.0 151.0,354.0 143.0,325.0 20.0,328.0 9.0,338.0 10.0,383.0" fill="#a88679" />
<polygon points="191.0,270.0 145.0,317.0 147.0,343.0 187.0,383.0 220.0,383.0 237.0,363.0 246.0,326.0" fill="#46393c" />
<polygon points="253.0,326.0 301.0,383.0 383.0,383.0 383.0,327.0" fill="#a88679" />
<polygon points="0.0,0.0 5.0,124.0 383.0,125.0 383.0,0.0 280.0,0.0 349.0,63.0 340.0,122.0 151.0,86.0 104.0,26.0 130.0,0.0" fill="#46393c" opacity="0.95" />
<polygon points="118.0,159.0 262.0,158.0 269.0,192.0 239.0,234.0 197.0,241.0 147.0,210.0" fill="#8a6456" opacity="0.95" />
<polygon points="104.0,18.0 124.0,63.0 163.0,91.0 343.0,119.0 347.0,61.0 330.0,66.0 336.0,45.0 279.0,0.0 132.0,0.0" fill="#da6936" opacity="0.95" />
<polygon points="122.0,160.0 137.0,198.0 186.0,229.0 236.0,209.0 263.0,166.0 261.0,159.0" fill="#91d6e9" opacity="0.95" />
<polygon points="118.0,159.0 260.0,158.0 269.0,192.0 239.0,234.0 197.0,241.0 147.0,210.0" fill="#8a6456" opacity="0.95" />
<polygon points="176.0,381.0 151.0,354.0 142.0,325.0 20.0,328.0 10.0,336.0 10.0,383.0" fill="#a88679" opacity="0.95" />
<polygon points="191.0,271.0 145.0,317.0 147.0,343.0 186.0,383.0 220.0,383.0 237.0,363.0 246.0,328.0" fill="#46393c" opacity="0.95" />
<polygon points="254.0,326.0 300.0,383.0 383.0,383.0 383.0,327.0" fill="#a88679" opacity="0.95" />
<polygon points="122.0,161.0 137.0,198.0 186.0,229.0 236.0,209.0 263.0,166.0 260.0,159.0" fill="#91d6e9" opacity="0.95" />
<polygon points="176.0,381.0 151.0,354.0 141.0,325.0 20.0,328.0 10.0,336.0 10.0,383.0" fill="#a88679" opacity="0.95" />
<polygon points="17.0,135.0 20.0,182.0 44.0,155.0 58.0,161.0 36.0,199.0 79.0,176.0 102.0,207.0 111.0,171.0 73.0,158.0 93.0,127.0" fill="#a88679" />
<polygon points="191.0,271.0 145.0,317.0 147.0,343.0 186.0,383.0 220.0,383.0 237.0,363.0 246.0,328.0" fill="#46393c" opacity="0.95" />
<polygon points="221.0,382.0 300.0,383.0 251.0,325.0 246.0,327.0 236.0,367.0" fill="#8a6456" />
<polygon points="254.0,327.0 300.0,383.0 383.0,383.0 383.0,327.0" fill="#a88679" opacity="0.95" />
<polygon points="266.0,173.0 235.0,211.0 211.0,226.0 185.0,230.0 163.0,222.0 197.0,240.0 227.0,239.0 262.0,209.0" fill="#46393c" />
<polygon points="16.0,141.0 21.0,179.0 58.0,159.0 40.0,200.0 78.0,176.0 94.0,198.0 112.0,178.0 74.0,159.0 90.0,127.0" fill="#a88679" opacity="0.95" />
<polygon points="221.0,382.0 299.0,383.0 250.0,325.0 236.0,367.0" fill="#8a6456" opacity="0.95" />
<polygon points="266.0,173.0 224.0,219.0 198.0,230.0 173.0,229.0 202.0,241.0 239.0,233.0 264.0,205.0" fill="#46393c" opacity="0.95" />
<polygon points="221.0,382.0 299.0,383.0 250.0,326.0 236.0,367.0" fill="#8a6456" opacity="0.95" />
<polygon points="20.0,141.0 30.0,175.0 43.0,156.0 58.0,159.0 40.0,200.0 78.0,176.0 94.0,196.0 112.0,178.0 74.0,159.0 90.0,131.0 37.0,127.0" fill="#a88679" opacity="0.95" />
<polygon points="267.0,177.0 224.0,219.0 180.0,233.0 202.0,241.0 239.0,233.0 262.0,209.0" fill="#46393c" opacity="0.95" />
<polygon points="0.0,321.0 0.0,325.0 144.0,323.0" fill="#f6f1ef" />
<polygon points="35.0,215.0 30.0,223.0 40.0,242.0 48.0,245.0 54.0,238.0 56.0,228.0 47.0,225.0 41.0,216.0" fill="#a88679" />
<polygon points="25.0,207.0 31.0,216.0 41.0,215.0 48.0,224.0 57.0,228.0 55.0,238.0 48.0,246.0 39.0,242.0 32.0,226.0 26.0,222.0 28.0,218.0 22.0,211.0" fill="#8a6456" />
<polygon points="334.0,50.0 344.0,73.0 342.0,75.0 327.0,63.0" fill="#da6936" />
<polygon points="334.0,52.0 337.0,54.0 341.0,68.0 338.0,70.0 328.0,64.0 329.0,58.0" fill="#da6936" opacity="0.95" />
<polygon points="334.0,52.0 333.0,57.0 330.0,62.0 340.0,71.0 341.0,69.0 336.0,54.0" fill="#f6f1ef" />
<polygon points="335.0,56.0 332.0,58.0 331.0,63.0 338.0,69.0 340.0,68.0 337.0,57.0" fill="#f6f1ef" opacity="0.95" />
<polygon points="334.0,58.0 331.0,60.0 331.0,63.0 336.0,67.0 339.0,65.0 339.0,63.0 338.0,62.0 338.0,60.0" fill="#f6f1ef" opacity="0.95" />
</svg>