<svg xmlns="http://www.w3.org/2000/svg" width="768" height="768" viewBox="0 0 384 384">
<rect width="384" height="384" fill="#906657"/>
<polygon points="2.0,0.0 2.0,383.0 186.0,383.0 185.0,271.0 124.0,192.0 183.0,157.0 184.0,63.0 201.0,157.0 258.0,161.0 197.0,383.0 383.0,383.0 383.0,0.0" fill="#906250" />
<polygon points="0.0,0.0 0.0,383.0 186.0,383.0 185.0,270.0 125.0,173.0 183.0,157.0 186.0,63.0 201.0,157.0 258.0,161.0 197.0,383.0 383.0,383.0 383.0,0.0" fill="#906250" opacity="0.95" />
<polygon points="0.0,0.0 0.0,383.0 186.0,383.0 125.0,161.0 183.0,157.0 187.0,63.0 201.0,156.0 258.0,161.0 197.0,383.0 383.0,383.0 383.0,0.0" fill="#906250" opacity="0.95" />
<polygon points="126.0,162.0 138.0,197.0 155.0,212.0 185.0,222.0 229.0,211.0 256.0,175.0 255.0,161.0" fill="#84ebf6" />
<polygon points="126.0,162.0 138.0,197.0 155.0,212.0 185.0,222.0 229.0,211.0 256.0,175.0 254.0,161.0" fill="#84ebf6" opacity="0.95" />
<polygon points="126.0,163.0 138.0,197.0 155.0,212.0 185.0,222.0 229.0,211.0 256.0,175.0 253.0,161.0" fill="#84ebf6" opacity="0.95" />
<polygon points="132.0,192.0 146.0,222.0 187.0,241.0 196.0,383.0 195.0,243.0 237.0,222.0 252.0,193.0 222.0,221.0 182.0,228.0" fill="#0f0c1f" />
<polygon points="251.0,204.0 233.0,227.0 198.0,241.0 198.0,276.0 246.0,239.0 253.0,224.0" fill="#624337" />
<polygon points="136.0,211.0 139.0,226.0 153.0,249.0 184.0,269.0 185.0,242.0 159.0,233.0" fill="#624337" />
<polygon points="249.0,197.0 200.0,228.0 133.0,200.0 151.0,226.0 187.0,241.0 187.0,383.0 196.0,383.0 195.0,243.0 237.0,222.0" fill="#0f0c1f" opacity="0.95" />
<polygon points="253.0,207.0 227.0,231.0 198.0,241.0 197.0,274.0 237.0,251.0 252.0,227.0" fill="#624337" opacity="0.95" />
<polygon points="189.0,64.0 184.0,68.0 184.0,105.0 198.0,106.0 199.0,68.0 195.0,64.0" fill="#fa0221" />
<polygon points="246.0,202.0 200.0,228.0 135.0,205.0 187.0,242.0 187.0,383.0 196.0,383.0 195.0,243.0 237.0,222.0" fill="#0f0c1f" opacity="0.95" />
<polygon points="187.0,107.0 188.0,158.0 195.0,159.0 196.0,110.0 198.0,108.0" fill="#0f0c1f" />
<polygon points="137.0,218.0 153.0,249.0 185.0,267.0 185.0,241.0 165.0,236.0" fill="#624337" opacity="0.95" />
<polygon points="252.0,210.0 227.0,231.0 197.0,243.0 198.0,274.0 239.0,248.0 252.0,227.0" fill="#624337" opacity="0.95" />
<polygon points="139.0,220.0 153.0,249.0 184.0,266.0 185.0,242.0 165.0,236.0" fill="#624337" opacity="0.95" />
<polygon points="141.0,204.0 160.0,219.0 186.0,227.0 214.0,223.0 241.0,205.0 216.0,219.0 186.0,224.0" fill="#04a4a6" />
<polygon points="189.0,64.0 184.0,68.0 184.0,105.0 197.0,106.0 199.0,105.0 199.0,68.0 194.0,64.0" fill="#fa0221" opacity="0.95" />
<polygon points="189.0,107.0 187.0,108.0 188.0,158.0 194.0,159.0 196.0,158.0 196.0,108.0" fill="#0f0c1f" opacity="0.95" />
<polygon points="189.0,64.0 184.0,68.0 184.0,104.0 187.0,106.0 196.0,106.0 199.0,104.0 199.0,68.0 194.0,64.0" fill="#fa0221" opacity="0.95" />
<polygon points="190.0,107.0 187.0,109.0 188.0,157.0 193.0,159.0 196.0,157.0 196.0,109.0" fill="#0f0c1f" opacity="0.95" />
<polygon points="185.0,129.0 184.0,130.0 184.0,159.0 185.0,160.0 186.0,159.0 186.0,130.0" fill="#fcfcfb" />
<polygon points="200.0,108.0 198.0,110.0 198.0,125.0 199.0,126.0 200.0,125.0 201.0,113.0 202.0,112.0" fill="#9e7b70" />
<polygon points="162.0,218.0 162.0,220.0 179.0,226.0 183.0,225.0 181.0,222.0 173.0,221.0 164.0,217.0" fill="#04a4a6" opacity="0.95" />
<polygon points="216.0,220.0 214.0,219.0 200.0,224.0 195.0,223.0 193.0,226.0 208.0,225.0 216.0,222.0" fill="#04a4a6" opacity="0.95" />
</svg>