<svg xmlns="http://www.w3.org/2000/svg" width="768" height="768" viewBox="0 0 384 384">
<rect width="384" height="384" fill="#8f5e55"/>
<polygon points="0.0,0.0 0.0,383.0 383.0,383.0 383.0,0.0" fill="#8b5248" opacity="0.95" />
<polygon points="0.0,0.0 2.0,126.0 170.0,128.0 0.0,132.0 2.0,320.0 130.0,320.0 134.0,252.0 136.0,320.0 383.0,320.0 383.0,0.0" fill="#8b5248" />
<polygon points="0.0,0.0 0.0,383.0 383.0,383.0 383.0,0.0" fill="#8b5248" opacity="0.95" />
<polygon points="0.0,325.0 0.0,383.0 383.0,383.0 383.0,324.0" fill="#8b5248" />
<polygon points="175.0,134.0 232.0,146.0 258.0,192.0 242.0,233.0 202.0,256.0 173.0,257.0 132.0,225.0 132.0,164.0" fill="#8b5248" />
<polygon points="141.0,158.0 137.0,196.0 170.0,223.0 217.0,222.0 247.0,193.0 244.0,162.0 215.0,138.0 173.0,136.0" fill="#76ecef" />
<polygon points="168.0,136.0 219.0,138.0 248.0,167.0 249.0,223.0 210.0,256.0 172.0,257.0 132.0,227.0 132.0,162.0" fill="#8b5248" opacity="0.95" />
<polygon points="181.0,127.0 232.0,146.0 250.0,174.0 249.0,223.0 213.0,257.0 171.0,257.0 132.0,228.0 132.0,161.0" fill="#8b5248" opacity="0.95" />
<polygon points="141.0,158.0 137.0,196.0 170.0,223.0 217.0,222.0 247.0,193.0 244.0,162.0 215.0,138.0 196.0,136.0 199.0,147.0 188.0,152.0 185.0,136.0 173.0,136.0" fill="#76ecef" opacity="0.95" />
<polygon points="141.0,158.0 137.0,196.0 170.0,223.0 217.0,222.0 247.0,193.0 244.0,162.0 215.0,138.0 199.0,136.0 189.0,152.0 173.0,136.0" fill="#76ecef" opacity="0.95" />
<polygon points="209.0,232.0 201.0,227.0 194.0,227.0 191.0,230.0 180.0,230.0 177.0,233.0 177.0,249.0 183.0,253.0 205.0,252.0 209.0,246.0" fill="#5b5d5f" />
<polygon points="249.0,192.0 241.0,207.0 219.0,223.0 230.0,242.0 242.0,231.0 242.0,215.0" fill="#0f1618" />
<polygon points="157.0,221.0 155.0,243.0 173.0,254.0 182.0,255.0 176.0,249.0 176.0,233.0 180.0,229.0 190.0,228.0" fill="#2a3033" />
<polygon points="219.0,225.0 213.0,224.0 203.0,228.0 210.0,232.0 208.0,252.0 222.0,248.0 229.0,243.0 226.0,240.0 224.0,229.0" fill="#2a3033" />
<polygon points="209.0,232.0 200.0,227.0 179.0,231.0 177.0,233.0 177.0,249.0 183.0,253.0 206.0,251.0 209.0,246.0" fill="#5b5d5f" opacity="0.95" />
<polygon points="222.0,128.0 224.0,126.0 285.0,126.0 287.0,128.0 285.0,130.0 224.0,130.0" fill="#8b5248" />
<polygon points="144.0,211.0 144.0,234.0 153.0,241.0 155.0,239.0 156.0,221.0" fill="#0f1618" />
<polygon points="259.0,192.0 261.0,190.0 319.0,190.0 321.0,192.0 319.0,194.0 261.0,194.0" fill="#8b5248" />
<polygon points="157.0,149.0 169.0,149.0 171.0,151.0 170.0,162.0 168.0,164.0 158.0,164.0 156.0,162.0 155.0,151.0" fill="#76ecef" />
<polygon points="156.0,222.0 155.0,243.0 174.0,254.0 179.0,254.0 176.0,249.0 176.0,233.0 181.0,227.0" fill="#2a3033" opacity="0.95" />
<polygon points="243.0,205.0 220.0,222.0 230.0,242.0 242.0,231.0 242.0,215.0 245.0,208.0" fill="#0f1618" opacity="0.95" />
<polygon points="209.0,232.0 199.0,227.0 179.0,231.0 177.0,233.0 177.0,249.0 183.0,253.0 206.0,251.0 209.0,246.0" fill="#5b5d5f" opacity="0.95" />
<polygon points="214.0,149.0 226.0,149.0 228.0,151.0 228.0,156.0 226.0,158.0 226.0,162.0 224.0,164.0 215.0,164.0 213.0,162.0 212.0,151.0" fill="#76ecef" />
<polygon points="185.0,138.0 197.0,138.0 199.0,140.0 198.0,143.0 199.0,147.0 195.0,152.0 187.0,152.0 185.0,150.0 183.0,145.0 183.0,140.0" fill="#76ecef" />
<polygon points="309.0,256.0 311.0,254.0 348.0,254.0 350.0,256.0 348.0,258.0 311.0,258.0" fill="#8b5248" />
<polygon points="160.0,222.0 156.0,226.0 155.0,243.0 174.0,254.0 177.0,252.0 176.0,233.0 179.0,228.0" fill="#2a3033" opacity="0.95" />
<polygon points="219.0,225.0 213.0,224.0 206.0,227.0 210.0,232.0 209.0,251.0 211.0,252.0 228.0,244.0 224.0,229.0" fill="#2a3033" opacity="0.95" />
<polygon points="240.0,209.0 221.0,222.0 227.0,240.0 230.0,242.0 242.0,231.0 243.0,211.0" fill="#0f1618" opacity="0.95" />
<polygon points="155.0,151.0 158.0,149.0 170.0,150.0 171.0,151.0 170.0,162.0 167.0,164.0 157.0,163.0 155.0,158.0" fill="#76ecef" opacity="0.95" />
<polygon points="212.0,151.0 215.0,149.0 227.0,150.0 228.0,156.0 226.0,158.0 226.0,162.0 223.0,164.0 214.0,163.0 212.0,157.0" fill="#76ecef" opacity="0.95" />
<polygon points="214.0,224.0 207.0,227.0 210.0,232.0 209.0,249.0 212.0,251.0 227.0,244.0 224.0,229.0" fill="#2a3033" opacity="0.95" />
<polygon points="146.0,214.0 144.0,215.0 144.0,234.0 149.0,239.0 153.0,240.0 155.0,239.0 155.0,220.0" fill="#0f1618" opacity="0.95" />
<polygon points="214.0,150.0 224.0,149.0 228.0,152.0 228.0,156.0 224.0,163.0 217.0,164.0 213.0,161.0 212.0,152.0" fill="#76ecef" opacity="0.95" />
<polygon points="155.0,152.0 159.0,149.0 168.0,150.0 170.0,152.0 170.0,161.0 166.0,164.0 158.0,163.0 155.0,158.0" fill="#76ecef" opacity="0.95" />
<polygon points="147.0,214.0 144.0,216.0 144.0,234.0 149.0,239.0 152.0,240.0 155.0,238.0 155.0,220.0" fill="#0f1618" opacity="0.95" />
<polygon points="157.0,155.0 160.0,158.0 160.0,161.0 161.0,162.0 167.0,162.0 168.0,161.0 168.0,155.0 167.0,154.0 159.0,153.0" fill="#0f1618" />
<polygon points="214.0,155.0 214.0,157.0 216.0,159.0 217.0,162.0 223.0,162.0 225.0,158.0 224.0,156.0 218.0,154.0 215.0,154.0" fill="#0f1618" />
<polygon points="133.0,199.0 132.0,200.0 132.0,210.0 133.0,211.0 133.0,216.0 135.0,217.0 137.0,215.0 137.0,208.0 136.0,207.0 135.0,201.0" fill="#909796" />
<polygon points="185.0,143.0 185.0,145.0 189.0,150.0 194.0,150.0 196.0,147.0 196.0,144.0 195.0,143.0 189.0,143.0 188.0,144.0 186.0,142.0" fill="#0f1618" />
<polygon points="141.0,210.0 140.0,211.0 141.0,220.0 139.0,228.0 142.0,232.0 144.0,228.0 143.0,226.0 144.0,223.0 143.0,213.0" fill="#2a3033" />
<polygon points="244.0,214.0 243.0,215.0 243.0,228.0 244.0,229.0 248.0,223.0 248.0,222.0 245.0,219.0 245.0,215.0" fill="#2a3033" />
<polygon points="139.0,214.0 135.0,218.0 135.0,222.0 138.0,226.0 139.0,225.0 139.0,221.0 140.0,220.0 140.0,215.0" fill="#5b5d5f" />
<polygon points="158.0,154.0 158.0,156.0 160.0,158.0 160.0,161.0 162.0,162.0 168.0,161.0 168.0,155.0 163.0,153.0" fill="#0f1618" opacity="0.95" />
<polygon points="250.0,201.0 248.0,204.0 248.0,207.0 247.0,208.0 247.0,212.0 249.0,215.0 250.0,214.0 250.0,210.0 251.0,209.0 251.0,202.0" fill="#909796" />
<polygon points="247.0,214.0 246.0,215.0 246.0,219.0 247.0,220.0 248.0,220.0 250.0,217.0" fill="#5b5d5f" />
<polygon points="134.0,203.0 132.0,204.0 132.0,210.0 133.0,211.0 133.0,215.0 135.0,216.0 137.0,215.0 137.0,208.0 136.0,207.0 136.0,204.0" fill="#909796" opacity="0.95" />
<polygon points="138.0,216.0 135.0,218.0 135.0,222.0 137.0,223.0 139.0,222.0 140.0,220.0 140.0,217.0" fill="#5b5d5f" opacity="0.95" />
<polygon points="246.0,220.0 243.0,221.0 243.0,225.0 245.0,226.0 247.0,225.0 248.0,223.0 248.0,221.0" fill="#2a3033" opacity="0.95" />
</svg>