<svg xmlns="http://www.w3.org/2000/svg" width="768" height="768" viewBox="0 0 384 384">
<rect width="384" height="384" fill="#8b6b61"/>
<polygon points="0.0,0.0 0.0,383.0 309.0,374.0 354.0,323.0 320.0,322.0 347.0,277.0 323.0,283.0 315.0,151.0 381.0,89.0 293.0,0.0" fill="#9c6b5d" />
<polygon points="0.0,0.0 0.0,383.0 309.0,374.0 354.0,323.0 320.0,322.0 347.0,279.0 307.0,215.0 316.0,151.0 380.0,88.0 294.0,0.0" fill="#9c6b5d" opacity="0.95" />
<polygon points="0.0,0.0 0.0,383.0 309.0,374.0 354.0,323.0 320.0,322.0 347.0,279.0 307.0,214.0 316.0,151.0 378.0,86.0 294.0,0.0" fill="#9c6b5d" opacity="0.95" />
<polygon points="181.0,128.0 237.0,140.0 265.0,186.0 261.0,234.0 234.0,261.0 176.0,265.0 134.0,230.0 132.0,161.0" fill="#9c6b5d" />
<polygon points="136.0,157.0 134.0,191.0 175.0,219.0 224.0,214.0 254.0,180.0 244.0,148.0 211.0,130.0 165.0,134.0" fill="#1ee6f0" />
<polygon points="383.0,91.0 335.0,109.0 350.0,126.0 316.0,151.0 327.0,202.0 307.0,214.0 348.0,277.0 321.0,322.0 336.0,306.0 355.0,323.0 291.0,383.0 383.0,383.0" fill="#7e5148" />
<polygon points="181.0,128.0 237.0,140.0 265.0,186.0 261.0,234.0 234.0,261.0 176.0,265.0 134.0,230.0 132.0,161.0" fill="#9c6b5d" opacity="0.95" />
<polygon points="296.0,0.0 383.0,88.0 383.0,0.0" fill="#3c2828" />
<polygon points="181.0,128.0 237.0,140.0 265.0,186.0 261.0,234.0 234.0,261.0 176.0,265.0 134.0,230.0 132.0,161.0" fill="#9c6b5d" opacity="0.95" />
<polygon points="136.0,157.0 134.0,191.0 175.0,219.0 224.0,214.0 254.0,180.0 244.0,148.0 211.0,130.0 165.0,134.0" fill="#1ee6f0" opacity="0.95" />
<polygon points="383.0,91.0 336.0,106.0 350.0,126.0 317.0,151.0 327.0,202.0 308.0,215.0 348.0,277.0 321.0,322.0 337.0,306.0 355.0,323.0 291.0,383.0 383.0,383.0" fill="#7e5148" opacity="0.95" />
<polygon points="136.0,157.0 134.0,191.0 175.0,219.0 224.0,214.0 254.0,180.0 244.0,148.0 211.0,130.0 165.0,134.0" fill="#1ee6f0" opacity="0.95" />
<polygon points="383.0,91.0 338.0,105.0 350.0,126.0 318.0,151.0 327.0,202.0 308.0,214.0 348.0,277.0 322.0,323.0 336.0,306.0 355.0,323.0 292.0,383.0 383.0,383.0" fill="#7e5148" opacity="0.95" />
<polygon points="296.0,0.0 383.0,87.0 383.0,0.0" fill="#3c2828" opacity="0.95" />
<polygon points="296.0,0.0 383.0,87.0 383.0,0.0" fill="#3c2828" opacity="0.95" />
<polygon points="264.0,186.0 251.0,231.0 214.0,254.0 165.0,250.0 130.0,213.0 152.0,253.0 218.0,265.0 256.0,242.0" fill="#7e5148" />
<polygon points="259.0,200.0 241.0,227.0 207.0,241.0 155.0,233.0 131.0,206.0 153.0,243.0 207.0,254.0 250.0,231.0" fill="#3c2828" />
<polygon points="257.0,188.0 237.0,218.0 208.0,230.0 169.0,231.0 135.0,209.0 155.0,232.0 207.0,240.0 251.0,216.0" fill="#120e14" />
<polygon points="264.0,186.0 253.0,228.0 223.0,251.0 185.0,255.0 136.0,232.0 176.0,264.0 234.0,260.0 260.0,234.0" fill="#7e5148" opacity="0.95" />
<polygon points="257.0,213.0 207.0,241.0 177.0,240.0 137.0,224.0 165.0,249.0 207.0,254.0 239.0,242.0" fill="#3c2828" opacity="0.95" />
<polygon points="257.0,188.0 237.0,218.0 208.0,230.0 169.0,231.0 136.0,213.0 160.0,234.0 207.0,240.0 251.0,216.0" fill="#120e14" opacity="0.95" />
<polygon points="265.0,205.0 239.0,243.0 214.0,254.0 140.0,240.0 176.0,264.0 218.0,265.0 256.0,242.0" fill="#7e5148" opacity="0.95" />
<polygon points="255.0,219.0 207.0,241.0 177.0,240.0 144.0,226.0 141.0,231.0 165.0,249.0 207.0,254.0 239.0,242.0" fill="#3c2828" opacity="0.95" />
<polygon points="150.0,212.0 156.0,221.0 166.0,225.0 191.0,227.0 203.0,222.0 172.0,220.0" fill="#037da9" />
<polygon points="257.0,192.0 237.0,218.0 208.0,230.0 174.0,232.0 138.0,217.0 160.0,234.0 207.0,240.0 241.0,226.0" fill="#120e14" opacity="0.95" />
<polygon points="190.0,136.0 195.0,138.0 198.0,142.0 197.0,148.0 193.0,151.0 188.0,150.0 184.0,145.0 185.0,140.0" fill="#1ee6f0" />
<polygon points="237.0,209.0 221.0,216.0 214.0,226.0 231.0,220.0 236.0,214.0" fill="#04446a" />
<polygon points="202.0,165.0 206.0,168.0 211.0,175.0 206.0,179.0 203.0,179.0 197.0,171.0 197.0,169.0" fill="#1ee6f0" />
<polygon points="177.0,171.0 181.0,170.0 187.0,177.0 188.0,181.0 185.0,184.0 181.0,184.0 174.0,176.0 174.0,174.0" fill="#1ee6f0" />
<polygon points="218.0,219.0 215.0,218.0 207.0,220.0 204.0,223.0 191.0,228.0 208.0,228.0 213.0,226.0" fill="#036491" />
<polygon points="152.0,214.0 156.0,221.0 166.0,225.0 191.0,227.0 200.0,224.0 198.0,221.0 178.0,221.0" fill="#037da9" opacity="0.95" />
<polygon points="190.0,136.0 195.0,138.0 198.0,142.0 197.0,148.0 193.0,151.0 187.0,149.0 184.0,145.0 185.0,140.0" fill="#1ee6f0" opacity="0.95" />
<polygon points="174.0,174.0 180.0,170.0 185.0,174.0 188.0,181.0 186.0,183.0 182.0,184.0 176.0,179.0" fill="#1ee6f0" opacity="0.95" />
<polygon points="202.0,165.0 210.0,173.0 209.0,177.0 206.0,179.0 202.0,178.0 197.0,171.0 197.0,169.0" fill="#1ee6f0" opacity="0.95" />
<polygon points="247.0,198.0 237.0,208.0 238.0,211.0 234.0,217.0 235.0,218.0 246.0,208.0 248.0,203.0" fill="#0a283f" />
<polygon points="190.0,136.0 195.0,138.0 198.0,142.0 197.0,148.0 193.0,151.0 187.0,149.0 184.0,145.0 185.0,140.0" fill="#1ee6f0" opacity="0.95" />
<polygon points="141.0,203.0 140.0,204.0 141.0,210.0 148.0,217.0 152.0,219.0 153.0,218.0 151.0,216.0 149.0,210.0" fill="#036491" />
<polygon points="154.0,216.0 156.0,221.0 166.0,225.0 180.0,227.0 192.0,225.0 189.0,221.0 172.0,220.0 157.0,214.0" fill="#037da9" opacity="0.95" />
<polygon points="236.0,211.0 233.0,210.0 220.0,217.0 218.0,224.0 221.0,225.0 231.0,220.0 236.0,214.0" fill="#04446a" opacity="0.95" />
<polygon points="268.0,380.0 268.0,383.0 283.0,383.0 284.0,382.0 279.0,378.0 274.0,376.0 271.0,377.0" fill="#7e5148" />
<polygon points="190.0,140.0 188.0,143.0 188.0,146.0 190.0,148.0 193.0,148.0 195.0,146.0 195.0,141.0 194.0,140.0" fill="#3c2828" />
<polygon points="217.0,219.0 215.0,218.0 207.0,220.0 197.0,226.0 197.0,228.0 204.0,229.0 211.0,227.0 217.0,222.0" fill="#036491" opacity="0.95" />
<polygon points="236.0,212.0 233.0,210.0 220.0,217.0 218.0,223.0 221.0,225.0 231.0,220.0" fill="#04446a" opacity="0.95" />
<polygon points="134.0,195.0 133.0,196.0 133.0,199.0 136.0,205.0 138.0,207.0 139.0,206.0 139.0,201.0" fill="#04446a" />
<polygon points="327.0,152.0 331.0,155.0 329.0,157.0 329.0,159.0 327.0,161.0 326.0,161.0 322.0,157.0" fill="#7e5148" />
<polygon points="203.0,167.0 200.0,168.0 198.0,170.0 201.0,175.0 203.0,171.0 205.0,169.0" fill="#120e14" />
<polygon points="181.0,172.0 178.0,172.0 176.0,174.0 176.0,176.0 179.0,180.0 180.0,179.0 180.0,177.0 183.0,174.0" fill="#120e14" />
<polygon points="248.0,201.0 246.0,200.0 244.0,201.0 238.0,207.0 238.0,212.0 240.0,213.0 246.0,208.0" fill="#0a283f" opacity="0.95" />
<polygon points="268.0,380.0 268.0,383.0 283.0,383.0 282.0,380.0 274.0,376.0 269.0,378.0" fill="#7e5148" opacity="0.95" />
<polygon points="328.0,279.0 324.0,283.0 326.0,286.0 327.0,286.0 331.0,282.0" fill="#7e5148" />
<polygon points="216.0,221.0 213.0,219.0 208.0,220.0 201.0,224.0 200.0,227.0 203.0,229.0 211.0,227.0 216.0,223.0" fill="#036491" opacity="0.95" />
<polygon points="193.0,140.0 189.0,141.0 188.0,143.0 188.0,146.0 191.0,148.0 195.0,146.0 195.0,141.0" fill="#3c2828" opacity="0.95" />
<polygon points="141.0,207.0 141.0,210.0 146.0,215.0 148.0,216.0 150.0,215.0 149.0,210.0 147.0,208.0 143.0,206.0" fill="#036491" opacity="0.95" />
<polygon points="244.0,202.0 238.0,207.0 238.0,210.0 241.0,212.0 243.0,211.0 247.0,206.0 247.0,204.0" fill="#0a283f" opacity="0.95" />
<polygon points="333.0,278.0 334.0,281.0 329.0,284.0 328.0,286.0 326.0,287.0 323.0,285.0 323.0,283.0 325.0,282.0 326.0,279.0 330.0,277.0" fill="#9c6b5d" opacity="0.95" />
<polygon points="131.0,188.0 130.0,189.0 130.0,194.0 132.0,196.0 133.0,195.0 133.0,192.0 132.0,191.0 132.0,189.0" fill="#0a283f" />
<polygon points="192.0,140.0 188.0,143.0 188.0,146.0 191.0,148.0 195.0,146.0 195.0,142.0" fill="#3c2828" opacity="0.95" />
<polygon points="326.0,154.0 324.0,156.0 325.0,157.0 324.0,158.0 326.0,160.0 327.0,160.0 328.0,159.0 328.0,156.0" fill="#9c6b5d" />
<polygon points="182.0,173.0 179.0,172.0 176.0,174.0 176.0,176.0 179.0,177.0 182.0,175.0" fill="#120e14" opacity="0.95" />
<polygon points="145.0,207.0 142.0,209.0 142.0,211.0 146.0,214.0 149.0,212.0 149.0,210.0" fill="#036491" opacity="0.95" />
<polygon points="202.0,167.0 199.0,169.0 199.0,172.0 200.0,172.0 201.0,173.0 202.0,172.0 203.0,172.0 203.0,171.0 204.0,170.0 204.0,168.0 203.0,168.0" fill="#120e14" opacity="0.95" />
</svg>