<svg xmlns="http://www.w3.org/2000/svg" width="768" height="768" viewBox="0 0 384 384">
<rect width="384" height="384" fill="#905f5f"/>
<polygon points="0.0,0.0 3.0,126.0 126.0,127.0 163.0,91.0 129.0,64.0 131.0,0.0" fill="#4e3432" />
<polygon points="262.0,89.0 244.0,91.0 136.0,183.0 194.0,238.0 312.0,146.0 308.0,130.0" fill="#1ffef6" />
<polygon points="143.0,319.0 383.0,320.0 383.0,258.0 223.0,258.0 197.0,266.0" fill="#4e3432" />
<polygon points="131.0,0.0 0.0,0.0 0.0,242.0 162.0,92.0 131.0,64.0" fill="#4e3432" opacity="0.95" />
<polygon points="134.0,0.0 134.0,62.0 190.0,65.0 131.0,126.0 199.0,126.0 251.0,83.0 312.0,127.0 383.0,126.0 383.0,92.0 330.0,66.0 338.0,49.0 287.0,0.0" fill="#ee6568" />
<polygon points="126.0,132.0 2.0,253.0 163.0,254.0 124.0,203.0" fill="#ee6568" />
<polygon points="2.0,244.0 122.0,131.0 2.0,130.0" fill="#4e3432" />
<polygon points="2.0,259.0 3.0,320.0 130.0,319.0 129.0,258.0" fill="#c1505f" />
<polygon points="0.0,327.0 0.0,383.0 131.0,383.0 130.0,324.0" fill="#c1505f" />
<polygon points="0.0,260.0 0.0,383.0 131.0,383.0 130.0,259.0" fill="#c1505f" opacity="0.95" />
<polygon points="131.0,0.0 0.0,0.0 1.0,241.0 162.0,92.0 131.0,63.0" fill="#4e3432" opacity="0.95" />
<polygon points="136.0,326.0 136.0,383.0 256.0,383.0 255.0,325.0" fill="#4e3432" />
<polygon points="261.0,325.0 261.0,383.0 383.0,383.0 383.0,324.0" fill="#c1505f" />
<polygon points="259.0,88.0 137.0,182.0 195.0,238.0 312.0,146.0 308.0,130.0" fill="#1ffef6" opacity="0.95" />
<polygon points="136.0,383.0 256.0,383.0 255.0,320.0 383.0,320.0 383.0,258.0 223.0,258.0 190.0,272.0 136.0,326.0" fill="#4e3432" opacity="0.95" />
<polygon points="0.0,261.0 0.0,383.0 131.0,383.0 129.0,259.0" fill="#c1505f" opacity="0.95" />
<polygon points="134.0,0.0 134.0,62.0 188.0,67.0 132.0,125.0 198.0,126.0 260.0,83.0 313.0,126.0 383.0,126.0 383.0,91.0 330.0,66.0 337.0,48.0 288.0,0.0" fill="#ee6568" opacity="0.95" />
<polygon points="290.0,0.0 383.0,88.0 383.0,0.0" fill="#1f1215" />
<polygon points="259.0,88.0 137.0,182.0 195.0,238.0 312.0,146.0" fill="#1ffef6" opacity="0.95" />
<polygon points="126.0,132.0 0.0,252.0 162.0,253.0 124.0,203.0" fill="#ee6568" opacity="0.95" />
<polygon points="136.0,383.0 256.0,383.0 258.0,320.0 383.0,320.0 383.0,258.0 223.0,258.0 190.0,272.0 136.0,327.0" fill="#4e3432" opacity="0.95" />
<polygon points="317.0,131.0 328.0,153.0 296.0,190.0 383.0,190.0 381.0,130.0" fill="#4e3432" />
<polygon points="134.0,0.0 134.0,61.0 187.0,66.0 134.0,125.0 198.0,126.0 260.0,83.0 313.0,126.0 383.0,126.0 383.0,91.0 332.0,67.0 337.0,48.0 288.0,0.0" fill="#ee6568" opacity="0.95" />
<polygon points="334.0,195.0 292.0,194.0 229.0,253.0 322.0,252.0 322.0,210.0 332.0,209.0" fill="#ee6568" />
<polygon points="261.0,325.0 261.0,383.0 383.0,383.0 383.0,324.0" fill="#c1505f" opacity="0.95" />
<polygon points="126.0,134.0 0.0,251.0 160.0,253.0 124.0,203.0" fill="#ee6568" opacity="0.95" />
<polygon points="268.0,88.0 233.0,97.0 268.0,91.0 313.0,147.0 195.0,240.0 134.0,181.0 137.0,223.0 167.0,254.0 200.0,253.0 327.0,153.0" fill="#1f1215" />
<polygon points="323.0,210.0 328.0,237.0 323.0,254.0 383.0,254.0 383.0,194.0 343.0,194.0 334.0,199.0 331.0,211.0" fill="#c1505f" />
<polygon points="166.0,256.0 133.0,259.0 133.0,312.0 136.0,320.0 186.0,275.0" fill="#fa9d8f" />
<polygon points="261.0,326.0 261.0,383.0 383.0,383.0 383.0,324.0" fill="#c1505f" opacity="0.95" />
<polygon points="291.0,0.0 383.0,88.0 383.0,0.0" fill="#1f1215" opacity="0.95" />
<polygon points="318.0,131.0 328.0,153.0 297.0,189.0 383.0,190.0 382.0,131.0" fill="#4e3432" opacity="0.95" />
<polygon points="290.0,195.0 263.0,194.0 184.0,271.0 201.0,264.0 207.0,254.0 227.0,254.0" fill="#9a3039" />
<polygon points="291.0,0.0 383.0,88.0 383.0,0.0" fill="#1f1215" opacity="0.95" />
<polygon points="333.0,195.0 291.0,195.0 231.0,253.0 322.0,252.0 325.0,225.0 320.0,213.0 331.0,206.0" fill="#ee6568" opacity="0.95" />
<polygon points="128.0,131.0 126.0,172.0 130.0,184.0 157.0,160.0" fill="#fa9d8f" />
<polygon points="323.0,210.0 328.0,237.0 324.0,253.0 383.0,254.0 383.0,194.0 344.0,194.0 334.0,199.0 332.0,209.0" fill="#c1505f" opacity="0.95" />
<polygon points="130.0,189.0 135.0,187.0 192.0,241.0 182.0,244.0 167.0,236.0 132.0,202.0" fill="#1f1215" />
<polygon points="166.0,257.0 133.0,259.0 133.0,312.0 138.0,320.0 185.0,276.0" fill="#fa9d8f" opacity="0.95" />
<polygon points="333.0,196.0 291.0,195.0 232.0,252.0 322.0,252.0 325.0,225.0 320.0,213.0 332.0,204.0" fill="#ee6568" opacity="0.95" />
<polygon points="132.0,188.0 134.0,203.0 166.0,234.0 182.0,243.0 191.0,241.0" fill="#444343" />
<polygon points="327.0,147.0 311.0,130.0 306.0,155.0 188.0,244.0 142.0,213.0 138.0,224.0 166.0,253.0 196.0,255.0 263.0,191.0 294.0,189.0" fill="#1f1215" opacity="0.95" />
<polygon points="138.0,66.0 163.0,90.0 187.0,67.0 185.0,65.0" fill="#fa9d8f" />
<polygon points="288.0,195.0 262.0,195.0 185.0,272.0 208.0,254.0 228.0,253.0" fill="#9a3039" opacity="0.95" />
<polygon points="323.0,210.0 328.0,237.0 325.0,253.0 383.0,254.0 383.0,194.0 344.0,194.0 334.0,199.0 331.0,208.0" fill="#c1505f" opacity="0.95" />
<polygon points="327.0,147.0 314.0,134.0 306.0,155.0 188.0,244.0 143.0,214.0 138.0,224.0 166.0,253.0 196.0,255.0 264.0,191.0 294.0,189.0" fill="#1f1215" opacity="0.95" />
<polygon points="168.0,258.0 133.0,259.0 134.0,312.0 138.0,312.0 179.0,271.0" fill="#fa9d8f" opacity="0.95" />
<polygon points="286.0,196.0 262.0,195.0 185.0,270.0 191.0,271.0 208.0,254.0 228.0,253.0" fill="#9a3039" opacity="0.95" />
<polygon points="333.0,56.0 331.0,63.0 338.0,71.0 357.0,77.0 365.0,75.0 339.0,50.0" fill="#fa9d8f" />
<polygon points="131.0,190.0 134.0,203.0 176.0,241.0 189.0,242.0 138.0,191.0" fill="#444343" opacity="0.95" />
<polygon points="129.0,133.0 127.0,134.0 126.0,172.0 128.0,181.0 131.0,182.0 156.0,162.0 156.0,159.0" fill="#fa9d8f" opacity="0.95" />
<polygon points="140.0,66.0 163.0,89.0 186.0,68.0 184.0,65.0" fill="#fa9d8f" opacity="0.95" />
<polygon points="130.0,134.0 127.0,136.0 126.0,172.0 131.0,182.0 156.0,159.0" fill="#fa9d8f" opacity="0.95" />
<polygon points="131.0,191.0 134.0,203.0 166.0,234.0 182.0,243.0 189.0,241.0 138.0,191.0" fill="#444343" opacity="0.95" />
<polygon points="168.0,257.0 181.0,269.0 194.0,257.0 193.0,256.0 169.0,256.0" fill="#b47c76" />
<polygon points="277.0,107.0 293.0,121.0 290.0,124.0 274.0,110.0" fill="#1ffef6" />
<polygon points="333.0,56.0 331.0,63.0 338.0,71.0 351.0,76.0 364.0,76.0 339.0,51.0" fill="#fa9d8f" opacity="0.95" />
<polygon points="139.0,321.0 132.0,323.0 133.0,375.0 134.0,325.0 139.0,323.0" fill="#e3b8b2" />
<polygon points="259.0,353.0 257.0,355.0 257.0,382.0 258.0,383.0 260.0,381.0 260.0,354.0" fill="#e3b8b2" />
<polygon points="219.0,259.0 209.0,258.0 200.0,268.0 196.0,270.0 197.0,271.0 203.0,267.0 213.0,265.0" fill="#1f1215" />
<polygon points="231.0,100.0 230.0,99.0 207.0,118.0 209.0,119.0" fill="#1f1215" />
<polygon points="170.0,257.0 170.0,259.0 181.0,268.0 184.0,267.0 192.0,259.0 192.0,257.0 190.0,256.0 172.0,256.0" fill="#b47c76" opacity="0.95" />
<polygon points="171.0,258.0 171.0,260.0 181.0,268.0 184.0,267.0 191.0,260.0 191.0,258.0 188.0,256.0 174.0,256.0" fill="#b47c76" opacity="0.95" />
<polygon points="258.0,323.0 257.0,324.0 258.0,325.0 258.0,344.0 259.0,345.0 258.0,346.0 259.0,347.0 260.0,346.0 259.0,345.0 260.0,344.0 260.0,324.0" fill="#e3b8b2" />
<polygon points="218.0,259.0 210.0,258.0 207.0,260.0 205.0,265.0 207.0,266.0 212.0,265.0 217.0,262.0" fill="#1f1215" opacity="0.95" />
</svg>