<svg xmlns="http://www.w3.org/2000/svg" width="768" height="768" viewBox="0 0 384 384">
<rect width="384" height="384" fill="#896562"/>
<polygon points="262.0,81.0 133.0,187.0 184.0,241.0 312.0,137.0" fill="#55c9d4" />
<polygon points="106.0,25.0 184.0,110.0 246.0,64.0 320.0,131.0 360.0,102.0 279.0,0.0 135.0,0.0" fill="#fd5c53" />
<polygon points="383.0,141.0 213.0,253.0 383.0,254.0" fill="#8b5e4d" />
<polygon points="185.0,259.0 251.0,320.0 383.0,320.0 383.0,258.0" fill="#5a433e" />
<polygon points="2.0,244.0 123.0,131.0 3.0,130.0" fill="#5a433e" />
<polygon points="125.0,130.0 2.0,247.0 3.0,254.0 160.0,253.0 127.0,215.0" fill="#de8378" />
<polygon points="192.0,269.0 250.0,325.0 193.0,381.0 134.0,326.0" fill="#f7f6f6" />
<polygon points="295.0,108.0 246.0,65.0 191.0,111.0 138.0,66.0 0.0,68.0 3.0,126.0 197.0,127.0 255.0,79.0" fill="#5a433e" />
<polygon points="0.0,242.0 120.0,127.0 189.0,134.0 264.0,77.0 245.0,66.0 184.0,111.0 105.0,31.0 129.0,0.0 0.0,0.0" fill="#5a433e" opacity="0.95" />
<polygon points="193.0,265.0 130.0,322.0 191.0,383.0 251.0,327.0 264.0,336.0" fill="#f7f6f6" />
<polygon points="261.0,81.0 133.0,187.0 186.0,241.0 312.0,137.0" fill="#55c9d4" opacity="0.95" />
<polygon points="0.0,0.0 2.0,62.0 126.0,61.0 105.0,24.0 130.0,0.0" fill="#5a433e" />
<polygon points="2.0,259.0 3.0,320.0 126.0,319.0 66.0,258.0" fill="#c36778" />
<polygon points="106.0,26.0 184.0,110.0 246.0,64.0 320.0,131.0 359.0,103.0 280.0,0.0 134.0,0.0" fill="#fd5c53" opacity="0.95" />
<polygon points="2.0,383.0 72.0,383.0 130.0,325.0 3.0,324.0" fill="#c36778" />
<polygon points="204.0,281.0 149.0,334.0 192.0,380.0 248.0,326.0" fill="#1f1e1f" />
<polygon points="0.0,240.0 121.0,127.0 200.0,126.0 262.0,75.0 245.0,66.0 184.0,111.0 105.0,31.0 129.0,0.0 0.0,0.0" fill="#5a433e" opacity="0.95" />
<polygon points="383.0,141.0 214.0,253.0 383.0,254.0" fill="#8b5e4d" opacity="0.95" />
<polygon points="261.0,81.0 134.0,186.0 187.0,241.0 312.0,137.0" fill="#55c9d4" opacity="0.95" />
<polygon points="124.0,132.0 0.0,252.0 74.0,255.0 131.0,318.0 186.0,264.0 158.0,257.0 127.0,215.0" fill="#de8378" opacity="0.95" />
<polygon points="72.0,259.0 131.0,319.0 186.0,266.0 180.0,258.0" fill="#de8378" />
<polygon points="106.0,26.0 184.0,110.0 246.0,64.0 320.0,131.0 359.0,103.0 280.0,0.0 134.0,0.0" fill="#fd5c53" opacity="0.95" />
<polygon points="0.0,260.0 0.0,318.0 6.0,321.0 0.0,326.0 0.0,383.0 73.0,383.0 129.0,327.0 67.0,259.0" fill="#c36778" opacity="0.95" />
<polygon points="255.0,324.0 310.0,383.0 369.0,325.0" fill="#c2e0e3" />
<polygon points="349.0,74.0 360.0,103.0 193.0,242.0 130.0,194.0 250.0,319.0 373.0,322.0 312.0,383.0 383.0,383.0 383.0,258.0 209.0,254.0 383.0,140.0 383.0,89.0" fill="#5a433e" opacity="0.95" />
<polygon points="74.0,383.0 189.0,383.0 131.0,327.0" fill="#5a433e" />
<polygon points="383.0,89.0 349.0,73.0 361.0,102.0 325.0,132.0 298.0,112.0 312.0,139.0 191.0,243.0 130.0,199.0 185.0,254.0 210.0,254.0 383.0,140.0" fill="#5a433e" />
<polygon points="293.0,0.0 354.0,59.0 372.0,85.0 383.0,85.0 383.0,0.0" fill="#1f1e1f" />
<polygon points="383.0,141.0 215.0,252.0 383.0,254.0" fill="#8b5e4d" opacity="0.95" />
<polygon points="123.0,133.0 0.0,251.0 73.0,255.0 131.0,318.0 186.0,264.0 159.0,257.0 127.0,215.0" fill="#de8378" opacity="0.95" />
<polygon points="1.0,260.0 0.0,317.0 6.0,323.0 0.0,327.0 0.0,383.0 73.0,383.0 128.0,328.0 67.0,259.0" fill="#c36778" opacity="0.95" />
<polygon points="383.0,89.0 345.0,76.0 360.0,103.0 191.0,243.0 141.0,205.0 200.0,272.0 75.0,383.0 188.0,383.0 143.0,336.0 206.0,277.0 252.0,320.0 369.0,321.0 310.0,383.0 383.0,383.0 383.0,258.0 211.0,255.0 383.0,140.0" fill="#5a433e" opacity="0.95" />
<polygon points="204.0,282.0 150.0,333.0 192.0,379.0 247.0,327.0" fill="#1f1e1f" opacity="0.95" />
<polygon points="130.0,182.0 134.0,184.0 188.0,136.0 185.0,132.0 131.0,130.0" fill="#8b5e4d" />
<polygon points="255.0,324.0 310.0,381.0 368.0,326.0" fill="#c2e0e3" opacity="0.95" />
<polygon points="294.0,0.0 354.0,59.0 372.0,85.0 383.0,85.0 383.0,0.0" fill="#1f1e1f" opacity="0.95" />
<polygon points="205.0,283.0 190.0,290.0 150.0,337.0 192.0,379.0 247.0,327.0" fill="#1f1e1f" opacity="0.95" />
<polygon points="294.0,0.0 354.0,59.0 372.0,85.0 383.0,85.0 383.0,0.0" fill="#1f1e1f" opacity="0.95" />
<polygon points="256.0,325.0 310.0,381.0 367.0,327.0 364.0,323.0" fill="#c2e0e3" opacity="0.95" />
<polygon points="130.0,182.0 144.0,176.0 187.0,134.0 178.0,130.0 130.0,131.0" fill="#8b5e4d" opacity="0.95" />
<polygon points="131.0,201.0 130.0,216.0 165.0,254.0 182.0,254.0 183.0,251.0" fill="#8b5e4d" />
<polygon points="281.0,0.0 334.0,54.0 340.0,50.0 292.0,0.0" fill="#737071" />
<polygon points="130.0,181.0 139.0,180.0 182.0,142.0 186.0,134.0 178.0,130.0 131.0,131.0" fill="#8b5e4d" opacity="0.95" />
<polygon points="130.0,202.0 130.0,216.0 164.0,253.0 182.0,253.0 134.0,202.0" fill="#8b5e4d" opacity="0.95" />
<polygon points="340.0,51.0 333.0,56.0 330.0,63.0 343.0,76.0 350.0,71.0 354.0,65.0 354.0,61.0 344.0,51.0" fill="#f7f6f6" />
<polygon points="282.0,0.0 332.0,52.0 339.0,51.0 293.0,0.0" fill="#737071" opacity="0.95" />
<polygon points="130.0,204.0 130.0,216.0 164.0,253.0 182.0,252.0 135.0,203.0" fill="#8b5e4d" opacity="0.95" />
<polygon points="138.0,194.0 143.0,202.0 181.0,240.0 182.0,237.0" fill="#f7f6f6" />
<polygon points="245.0,204.0 236.0,205.0 210.0,228.0 213.0,230.0 224.0,223.0" fill="#1f1e1f" />
<polygon points="282.0,0.0 332.0,52.0 338.0,51.0 336.0,45.0 293.0,0.0" fill="#737071" opacity="0.95" />
<polygon points="350.0,72.0 367.0,89.0 379.0,90.0 383.0,88.0 383.0,86.0 372.0,86.0 354.0,67.0" fill="#737071" />
<polygon points="341.0,51.0 333.0,56.0 330.0,63.0 343.0,76.0 350.0,71.0 354.0,65.0 354.0,61.0 345.0,52.0" fill="#f7f6f6" opacity="0.95" />
<polygon points="68.0,256.0 68.0,259.0 110.0,301.0" fill="#f7f6f6" />
<polygon points="341.0,51.0 333.0,56.0 330.0,63.0 343.0,76.0 350.0,71.0 354.0,65.0 354.0,61.0 345.0,52.0" fill="#f7f6f6" opacity="0.95" />
<polygon points="241.0,206.0 235.0,206.0 215.0,223.0 212.0,228.0 214.0,229.0 238.0,212.0" fill="#1f1e1f" opacity="0.95" />
<polygon points="352.0,69.0 351.0,74.0 364.0,87.0 370.0,90.0 375.0,89.0 375.0,87.0 372.0,86.0 356.0,69.0" fill="#737071" opacity="0.95" />
<polygon points="244.0,46.0 247.0,47.0 249.0,49.0 249.0,51.0 247.0,53.0 244.0,53.0 241.0,50.0 241.0,49.0" fill="#fd5c53" />
<polygon points="351.0,71.0 351.0,74.0 364.0,87.0 368.0,89.0 371.0,87.0 371.0,85.0 354.0,69.0" fill="#737071" opacity="0.95" />
<polygon points="329.0,64.0 328.0,65.0 328.0,67.0 340.0,79.0 341.0,79.0 342.0,78.0 339.0,75.0 339.0,74.0" fill="#1f1e1f" />
<polygon points="241.0,207.0 238.0,205.0 235.0,206.0 223.0,216.0 219.0,222.0 222.0,224.0 238.0,212.0" fill="#1f1e1f" opacity="0.95" />
<polygon points="242.0,48.0 245.0,46.0 249.0,49.0 249.0,51.0 245.0,53.0 242.0,51.0" fill="#fd5c53" opacity="0.95" />
<polygon points="193.0,265.0 192.0,266.0 191.0,266.0 191.0,268.0 194.0,270.0 195.0,269.0 196.0,269.0 196.0,267.0" fill="#f7f6f6" opacity="0.95" />
</svg>