<svg xmlns="http://www.w3.org/2000/svg" width="768" height="768" viewBox="0 0 384 384">
<rect width="384" height="384" fill="#8e6260"/>
<polygon points="135.0,259.0 135.0,383.0 349.0,383.0 348.0,258.0" fill="#62514a" />
<polygon points="135.0,67.0 136.0,126.0 348.0,125.0 347.0,66.0" fill="#a55a56" />
<polygon points="0.0,0.0 2.0,35.0 346.0,34.0 346.0,0.0" fill="#a55a56" />
<polygon points="135.0,259.0 135.0,383.0 349.0,383.0 349.0,259.0" fill="#62514a" opacity="0.95" />
<polygon points="132.0,159.0 133.0,221.0 250.0,220.0 249.0,158.0" fill="#9fe5fe" />
<polygon points="0.0,70.0 2.0,126.0 131.0,125.0 129.0,67.0" fill="#62514a" />
<polygon points="2.0,131.0 3.0,190.0 130.0,190.0 129.0,130.0" fill="#a55a56" />
<polygon points="135.0,260.0 135.0,383.0 349.0,383.0 348.0,259.0" fill="#62514a" opacity="0.95" />
<polygon points="2.0,326.0 2.0,383.0 132.0,383.0 130.0,325.0" fill="#a55a56" />
<polygon points="383.0,252.0 360.0,193.0 383.0,190.0 383.0,66.0 352.0,67.0 350.0,135.0 135.0,130.0 136.0,154.0 249.0,154.0 252.0,192.0 356.0,190.0 352.0,253.0" fill="#62514a" />
<polygon points="135.0,67.0 137.0,126.0 348.0,125.0 346.0,66.0" fill="#a55a56" opacity="0.95" />
<polygon points="134.0,39.0 135.0,63.0 348.0,62.0 347.0,38.0" fill="#ef626c" />
<polygon points="2.0,195.0 3.0,254.0 284.0,239.0 109.0,237.0 105.0,228.0 129.0,222.0 129.0,194.0" fill="#a46b69" />
<polygon points="0.0,0.0 3.0,35.0 346.0,34.0 346.0,0.0" fill="#a55a56" opacity="0.95" />
<polygon points="128.0,250.0 75.0,258.0 79.0,270.0 62.0,276.0 0.0,260.0 0.0,383.0 132.0,383.0" fill="#a55a56" opacity="0.95" />
<polygon points="2.0,259.0 3.0,320.0 131.0,319.0 130.0,258.0 73.0,258.0 89.0,265.0 62.0,276.0 18.0,272.0" fill="#a55a56" />
<polygon points="132.0,159.0 132.0,220.0 250.0,220.0 250.0,159.0" fill="#9fe5fe" opacity="0.95" />
<polygon points="349.0,196.0 254.0,194.0 253.0,222.0 280.0,228.0 279.0,244.0 136.0,244.0 135.0,253.0 348.0,254.0" fill="#a55a56" />
<polygon points="130.0,260.0 92.0,258.0 62.0,276.0 1.0,261.0 0.0,383.0 132.0,383.0" fill="#a55a56" opacity="0.95" />
<polygon points="0.0,70.0 3.0,126.0 131.0,125.0 128.0,67.0" fill="#62514a" opacity="0.95" />
<polygon points="2.0,39.0 3.0,63.0 131.0,62.0 130.0,38.0" fill="#723d3a" />
<polygon points="383.0,252.0 362.0,194.0 383.0,190.0 383.0,66.0 352.0,67.0 351.0,131.0 135.0,130.0 137.0,154.0 250.0,155.0 253.0,191.0 353.0,189.0 352.0,253.0" fill="#62514a" opacity="0.95" />
<polygon points="0.0,196.0 18.0,271.0 135.0,242.0 284.0,239.0 109.0,237.0 128.0,194.0" fill="#a46b69" opacity="0.95" />
<polygon points="132.0,160.0 133.0,220.0 250.0,219.0 249.0,159.0" fill="#9fe5fe" opacity="0.95" />
<polygon points="0.0,70.0 4.0,126.0 131.0,124.0 128.0,67.0" fill="#62514a" opacity="0.95" />
<polygon points="134.0,39.0 136.0,63.0 348.0,62.0 346.0,38.0" fill="#ef626c" opacity="0.95" />
<polygon points="383.0,252.0 365.0,195.0 383.0,190.0 383.0,66.0 352.0,68.0 350.0,132.0 135.0,131.0 138.0,154.0 249.0,155.0 254.0,191.0 352.0,188.0 352.0,252.0" fill="#62514a" opacity="0.95" />
<polygon points="354.0,258.0 353.0,319.0 383.0,320.0 383.0,258.0" fill="#723d3a" />
<polygon points="134.0,40.0 137.0,63.0 348.0,61.0 345.0,38.0" fill="#ef626c" opacity="0.95" />
<polygon points="0.0,197.0 0.0,251.0 18.0,271.0 54.0,275.0 79.0,266.0 72.0,254.0 177.0,242.0 107.0,236.0 129.0,222.0 127.0,194.0" fill="#a46b69" opacity="0.95" />
<polygon points="0.0,40.0 0.0,61.0 131.0,62.0 129.0,38.0" fill="#723d3a" opacity="0.95" />
<polygon points="350.0,0.0 350.0,34.0 383.0,35.0 383.0,0.0" fill="#164665" />
<polygon points="112.0,233.0 273.0,233.0 207.0,232.0 261.0,228.0 144.0,222.0 134.0,228.0 178.0,232.0" fill="#1e1d22" />
<polygon points="0.0,41.0 0.0,60.0 5.0,63.0 131.0,61.0 128.0,38.0" fill="#723d3a" opacity="0.95" />
<polygon points="352.0,39.0 353.0,63.0 383.0,63.0 383.0,38.0" fill="#1e1d22" />
<polygon points="356.0,258.0 353.0,319.0 383.0,320.0 383.0,258.0" fill="#723d3a" opacity="0.95" />
<polygon points="350.0,0.0 350.0,34.0 383.0,35.0 383.0,0.0" fill="#164665" opacity="0.95" />
<polygon points="9.0,263.0 18.0,271.0 38.0,270.0 57.0,275.0 65.0,267.0 73.0,271.0 88.0,265.0 42.0,259.0 12.0,259.0" fill="#a46b69" />
<polygon points="357.0,258.0 354.0,260.0 357.0,273.0 353.0,291.0 353.0,318.0 383.0,320.0 383.0,258.0" fill="#723d3a" opacity="0.95" />
<polygon points="352.0,39.0 352.0,62.0 383.0,63.0 383.0,38.0" fill="#1e1d22" opacity="0.95" />
<polygon points="126.0,225.0 246.0,227.0 231.0,222.0" fill="#1e1d22" opacity="0.95" />
<polygon points="350.0,0.0 350.0,33.0 353.0,35.0 383.0,35.0 383.0,0.0" fill="#164665" opacity="0.95" />
<polygon points="352.0,40.0 353.0,62.0 383.0,63.0 383.0,38.0 355.0,38.0" fill="#1e1d22" opacity="0.95" />
<polygon points="369.0,194.0 368.0,195.0 371.0,198.0 373.0,197.0 375.0,199.0 378.0,211.0 376.0,215.0 383.0,225.0 383.0,194.0" fill="#723d3a" />
<polygon points="141.0,224.0 144.0,228.0 179.0,229.0 183.0,226.0 180.0,222.0 144.0,222.0" fill="#1e1d22" opacity="0.95" />
<polygon points="204.0,230.0 202.0,232.0 196.0,232.0 193.0,229.0 189.0,232.0 183.0,232.0 181.0,230.0 185.0,226.0 191.0,226.0 192.0,227.0 194.0,225.0 199.0,225.0" fill="#1e1d22" />
<polygon points="233.0,239.0 236.0,243.0 275.0,244.0 282.0,241.0 279.0,237.0 236.0,237.0" fill="#a46b69" opacity="0.95" />
<polygon points="203.0,224.0 203.0,227.0 206.0,229.0 231.0,228.0 234.0,226.0 234.0,224.0 231.0,222.0 206.0,222.0" fill="#1e1d22" opacity="0.95" />
<polygon points="372.0,194.0 370.0,197.0 376.0,202.0 378.0,211.0 377.0,218.0 380.0,220.0 380.0,223.0 383.0,224.0 383.0,194.0" fill="#723d3a" opacity="0.95" />
<polygon points="44.0,257.0 48.0,254.0 63.0,254.0 67.0,257.0 67.0,259.0 63.0,262.0 57.0,263.0 48.0,262.0 44.0,259.0" fill="#a46b69" opacity="0.95" />
<polygon points="377.0,194.0 374.0,196.0 378.0,211.0 377.0,218.0 383.0,224.0 383.0,194.0" fill="#723d3a" opacity="0.95" />
<polygon points="257.0,233.0 257.0,235.0 259.0,236.0 270.0,236.0 272.0,235.0 272.0,233.0 270.0,232.0 259.0,232.0" fill="#1e1d22" opacity="0.95" />
<polygon points="203.0,239.0 203.0,241.0 206.0,243.0 207.0,242.0 221.0,243.0 224.0,241.0 224.0,239.0 221.0,237.0 208.0,238.0 206.0,237.0" fill="#a46b69" opacity="0.95" />
<polygon points="131.0,227.0 129.0,224.0 127.0,225.0 125.0,225.0 124.0,226.0 122.0,226.0 121.0,227.0 122.0,228.0 130.0,228.0" fill="#1e1d22" />
</svg>