<svg xmlns="http://www.w3.org/2000/svg" width="768" height="768" viewBox="0 0 384 384">
<rect width="384" height="384" fill="#8e6e64"/>
<polygon points="0.0,73.0 1.0,135.0 124.0,166.0 261.0,150.0 265.0,203.0 383.0,256.0 383.0,191.0 283.0,118.0 344.0,125.0 19.0,39.0 83.0,63.0" fill="#7e5d56" />
<polygon points="0.0,24.0 362.0,122.0 306.0,69.0 338.0,47.0 213.0,0.0 131.0,0.0 69.0,40.0" fill="#b06852" />
<polygon points="132.0,159.0 133.0,220.0 255.0,219.0 254.0,158.0" fill="#89dffe" />
<polygon points="0.0,73.0 1.0,135.0 123.0,163.0 260.0,150.0 263.0,201.0 383.0,256.0 383.0,191.0 297.0,113.0 70.0,52.0" fill="#7e5d56" opacity="0.95" />
<polygon points="0.0,331.0 0.0,383.0 153.0,383.0 152.0,331.0" fill="#b2887e" />
<polygon points="0.0,135.0 0.0,242.0 197.0,247.0 300.0,230.0 267.0,202.0 262.0,229.0 201.0,229.0 198.0,244.0 189.0,229.0 127.0,229.0 117.0,159.0" fill="#b2887e" />
<polygon points="0.0,292.0 0.0,305.0 153.0,305.0 155.0,383.0 247.0,383.0 249.0,305.0 383.0,305.0 383.0,292.0" fill="#242729" />
<polygon points="0.0,24.0 360.0,123.0 306.0,69.0 339.0,48.0 213.0,0.0 130.0,0.0 69.0,40.0" fill="#b06852" opacity="0.95" />
<polygon points="0.0,73.0 1.0,135.0 122.0,162.0 259.0,150.0 264.0,201.0 383.0,256.0 383.0,191.0 281.0,109.0 86.0,56.0" fill="#7e5d56" opacity="0.95" />
<polygon points="327.0,239.0 228.0,241.0 307.0,259.0 139.0,244.0 166.0,274.0 0.0,291.0 251.0,290.0" fill="#bb806c" />
<polygon points="218.0,0.0 358.0,56.0 373.0,80.0 345.0,95.0 361.0,125.0 284.0,118.0 383.0,190.0 383.0,0.0" fill="#543c38" />
<polygon points="248.0,332.0 248.0,383.0 371.0,383.0 370.0,371.0 339.0,331.0" fill="#b2887e" />
<polygon points="0.0,24.0 359.0,123.0 307.0,68.0 337.0,47.0 214.0,0.0 130.0,0.0 69.0,40.0" fill="#b06852" opacity="0.95" />
<polygon points="132.0,159.0 134.0,220.0 255.0,219.0 253.0,158.0" fill="#89dffe" opacity="0.95" />
<polygon points="0.0,331.0 0.0,383.0 153.0,383.0 151.0,331.0" fill="#b2887e" opacity="0.95" />
<polygon points="0.0,135.0 0.0,242.0 196.0,247.0 300.0,230.0 268.0,203.0 263.0,228.0 202.0,229.0 197.0,244.0 188.0,229.0 128.0,229.0 117.0,159.0" fill="#b2887e" opacity="0.95" />
<polygon points="0.0,292.0 0.0,305.0 154.0,306.0 155.0,383.0 247.0,383.0 250.0,305.0 383.0,305.0 383.0,292.0" fill="#242729" opacity="0.95" />
<polygon points="0.0,135.0 0.0,242.0 190.0,242.0 187.0,229.0 125.0,226.0 117.0,159.0" fill="#b2887e" opacity="0.95" />
<polygon points="132.0,160.0 135.0,220.0 255.0,218.0 252.0,158.0" fill="#89dffe" opacity="0.95" />
<polygon points="327.0,238.0 240.0,240.0 307.0,259.0 139.0,244.0 165.0,274.0 0.0,291.0 250.0,290.0" fill="#bb806c" opacity="0.95" />
<polygon points="0.0,331.0 0.0,383.0 153.0,383.0 150.0,331.0" fill="#b2887e" opacity="0.95" />
<polygon points="219.0,0.0 358.0,56.0 373.0,78.0 345.0,93.0 360.0,125.0 285.0,120.0 383.0,190.0 383.0,0.0" fill="#543c38" opacity="0.95" />
<polygon points="0.0,292.0 0.0,305.0 153.0,306.0 155.0,383.0 247.0,383.0 251.0,305.0 383.0,305.0 383.0,292.0" fill="#242729" opacity="0.95" />
<polygon points="0.0,306.0 0.0,320.0 153.0,319.0 152.0,306.0" fill="#b2887e" />
<polygon points="248.0,332.0 248.0,383.0 371.0,383.0 371.0,373.0 353.0,344.0 338.0,331.0" fill="#b2887e" opacity="0.95" />
<polygon points="0.0,37.0 0.0,72.0 82.0,63.0" fill="#543c38" />
<polygon points="327.0,239.0 264.0,238.0 307.0,259.0 139.0,244.0 165.0,274.0 0.0,291.0 250.0,290.0" fill="#bb806c" opacity="0.95" />
<polygon points="7.0,0.0 15.0,7.0 81.0,23.0 126.0,1.0" fill="#543c38" />
<polygon points="219.0,0.0 358.0,56.0 373.0,78.0 345.0,93.0 358.0,126.0 286.0,120.0 383.0,190.0 383.0,0.0" fill="#543c38" opacity="0.95" />
<polygon points="0.0,321.0 0.0,330.0 153.0,329.0 152.0,321.0" fill="#f1ebe9" />
<polygon points="248.0,333.0 248.0,383.0 371.0,383.0 371.0,373.0 353.0,344.0 337.0,331.0" fill="#b2887e" opacity="0.95" />
<polygon points="0.0,23.0 69.0,39.0 122.0,6.0 81.0,24.0 0.0,0.0" fill="#7e5d56" />
<polygon points="0.0,254.0 103.0,254.0 121.0,245.0 0.0,243.0" fill="#fdecb6" />
<polygon points="248.0,322.0 249.0,330.0 383.0,329.0 383.0,321.0" fill="#f1ebe9" />
<polygon points="171.0,269.0 132.0,256.0 98.0,268.0 0.0,268.0 0.0,279.0 98.0,279.0 123.0,264.0 141.0,275.0" fill="#d9a792" />
<polygon points="136.0,155.0 255.0,156.0 257.0,219.0 133.0,221.0 130.0,184.0 127.0,228.0 189.0,228.0 198.0,242.0 201.0,228.0 262.0,227.0 260.0,152.0" fill="#242729" />
<polygon points="361.0,270.0 352.0,265.0 343.0,278.0 338.0,267.0 345.0,264.0 336.0,257.0 336.0,239.0 329.0,238.0 318.0,263.0 252.0,290.0 355.0,290.0" fill="#b06852" />
<polygon points="344.0,334.0 371.0,371.0 372.0,383.0 383.0,383.0 383.0,331.0" fill="#7e5d56" />
<polygon points="307.0,307.0 327.0,317.0 383.0,319.0 383.0,306.0" fill="#7e5d56" />
<polygon points="0.0,37.0 0.0,72.0 82.0,63.0" fill="#543c38" opacity="0.95" />
<polygon points="0.0,255.0 0.0,261.0 106.0,261.0 103.0,255.0" fill="#faa705" />
<polygon points="7.0,0.0 15.0,7.0 81.0,23.0 126.0,1.0" fill="#543c38" opacity="0.95" />
<polygon points="0.0,321.0 0.0,330.0 153.0,329.0 151.0,321.0" fill="#f1ebe9" opacity="0.95" />
<polygon points="0.0,0.0 0.0,23.0 63.0,39.0 98.0,21.0 60.0,21.0" fill="#7e5d56" opacity="0.95" />
<polygon points="0.0,254.0 103.0,254.0 117.0,245.0 0.0,243.0" fill="#fdecb6" opacity="0.95" />
<polygon points="170.0,268.0 132.0,256.0 98.0,268.0 0.0,268.0 0.0,279.0 98.0,279.0 124.0,263.0 141.0,275.0" fill="#d9a792" opacity="0.95" />
<polygon points="361.0,270.0 355.0,265.0 352.0,274.0 339.0,274.0 344.0,262.0 330.0,238.0 317.0,264.0 256.0,290.0 354.0,290.0" fill="#b06852" opacity="0.95" />
<polygon points="248.0,322.0 250.0,330.0 383.0,329.0 383.0,321.0" fill="#f1ebe9" opacity="0.95" />
<polygon points="262.0,154.0 197.0,153.0 257.0,158.0 256.0,220.0 134.0,221.0 129.0,185.0 126.0,227.0 188.0,228.0 195.0,242.0 202.0,228.0 262.0,227.0" fill="#242729" opacity="0.95" />
<polygon points="360.0,265.0 362.0,277.0 357.0,289.0 383.0,290.0 383.0,267.0" fill="#7e5d56" />
<polygon points="7.0,0.0 15.0,7.0 81.0,23.0 126.0,1.0" fill="#543c38" opacity="0.95" />
<polygon points="0.0,37.0 0.0,72.0 53.0,68.0 73.0,61.0" fill="#543c38" opacity="0.95" />
<polygon points="0.0,0.0 0.0,23.0 63.0,39.0 90.0,26.0" fill="#7e5d56" opacity="0.95" />
<polygon points="0.0,321.0 0.0,330.0 153.0,328.0 150.0,321.0" fill="#f1ebe9" opacity="0.95" />
<polygon points="0.0,267.0 98.0,267.0 103.0,264.0 0.0,263.0" fill="#e2c0b2" />
<polygon points="344.0,334.0 371.0,371.0 372.0,383.0 383.0,383.0 383.0,331.0" fill="#7e5d56" opacity="0.95" />
<polygon points="361.0,270.0 339.0,274.0 342.0,262.0 331.0,238.0 317.0,264.0 261.0,289.0 353.0,290.0" fill="#b06852" opacity="0.95" />
<polygon points="120.0,265.0 0.0,268.0 0.0,279.0 98.0,279.0" fill="#d9a792" opacity="0.95" />
<polygon points="0.0,254.0 103.0,254.0 114.0,246.0 0.0,243.0" fill="#fdecb6" opacity="0.95" />
<polygon points="248.0,323.0 251.0,330.0 383.0,329.0 383.0,321.0" fill="#f1ebe9" opacity="0.95" />
<polygon points="0.0,255.0 0.0,261.0 105.0,261.0 102.0,255.0" fill="#faa705" opacity="0.95" />
<polygon points="126.0,221.0 129.0,228.0 187.0,228.0 195.0,242.0 203.0,228.0 262.0,226.0 259.0,219.0" fill="#242729" opacity="0.95" />
<polygon points="334.0,54.0 331.0,59.0 332.0,66.0 342.0,74.0 350.0,74.0 351.0,53.0 348.0,51.0 340.0,51.0" fill="#f1ebe9" />
<polygon points="0.0,255.0 0.0,261.0 105.0,260.0 102.0,255.0" fill="#faa705" opacity="0.95" />
<polygon points="346.0,262.0 348.0,264.0 383.0,266.0 383.0,257.0 363.0,257.0" fill="#543c38" />
<polygon points="129.0,250.0 125.0,245.0 106.0,253.0 105.0,256.0 109.0,262.0 112.0,262.0 128.0,253.0" fill="#b46a0b" />
<polygon points="340.0,234.0 337.0,237.0 338.0,257.0 341.0,259.0 346.0,259.0 347.0,238.0 350.0,235.0" fill="#fbc42b" />
<polygon points="0.0,263.0 0.0,267.0 100.0,266.0 98.0,263.0" fill="#e2c0b2" opacity="0.95" />
<polygon points="355.0,234.0 351.0,235.0 348.0,238.0 348.0,258.0 349.0,259.0 354.0,259.0 358.0,256.0 357.0,236.0" fill="#faa705" />
<polygon points="334.0,54.0 331.0,59.0 332.0,66.0 342.0,74.0 351.0,73.0 351.0,53.0 348.0,51.0 340.0,51.0" fill="#f1ebe9" opacity="0.95" />
<polygon points="333.0,69.0 330.0,75.0 330.0,83.0 328.0,86.0 333.0,90.0 340.0,76.0" fill="#bb806c" />
<polygon points="340.0,234.0 337.0,237.0 338.0,257.0 341.0,259.0 347.0,258.0 348.0,235.0" fill="#fbc42b" opacity="0.95" />
<polygon points="126.0,260.0 131.0,269.0 141.0,275.0 162.0,274.0 169.0,270.0 166.0,266.0 142.0,263.0 132.0,256.0" fill="#d9a792" opacity="0.95" />
<polygon points="354.0,234.0 348.0,238.0 348.0,258.0 350.0,259.0 358.0,257.0 357.0,236.0" fill="#faa705" opacity="0.95" />
<polygon points="142.0,153.0 142.0,155.0 149.0,157.0 191.0,155.0 189.0,152.0" fill="#242729" opacity="0.95" />
<polygon points="129.0,250.0 121.0,246.0 106.0,253.0 105.0,256.0 107.0,261.0 111.0,262.0 125.0,255.0" fill="#b46a0b" opacity="0.95" />
<polygon points="334.0,54.0 331.0,59.0 332.0,66.0 342.0,74.0 350.0,73.0 351.0,53.0 348.0,51.0 340.0,51.0" fill="#f1ebe9" opacity="0.95" />
<polygon points="129.0,250.0 121.0,246.0 106.0,253.0 105.0,256.0 111.0,262.0 125.0,255.0" fill="#b46a0b" opacity="0.95" />
<polygon points="341.0,234.0 337.0,237.0 338.0,257.0 344.0,259.0 347.0,257.0 347.0,236.0" fill="#fbc42b" opacity="0.95" />
<polygon points="354.0,234.0 348.0,238.0 348.0,257.0 351.0,259.0 354.0,259.0 358.0,256.0 357.0,236.0" fill="#faa705" opacity="0.95" />
<polygon points="353.0,53.0 352.0,54.0 352.0,73.0 353.0,74.0 356.0,69.0 356.0,65.0 357.0,64.0 357.0,57.0" fill="#e2c0b2" />
<polygon points="303.0,244.0 302.0,243.0 295.0,243.0 292.0,247.0 285.0,247.0 284.0,248.0 285.0,249.0 302.0,249.0 303.0,248.0" fill="#fbc42b" />
<polygon points="335.0,71.0 331.0,72.0 329.0,88.0 331.0,89.0 335.0,88.0 338.0,78.0 340.0,77.0 340.0,74.0" fill="#bb806c" opacity="0.95" />
<polygon points="340.0,266.0 339.0,267.0 339.0,271.0 343.0,277.0 345.0,275.0 346.0,271.0 343.0,266.0" fill="#bb806c" />
<polygon points="192.0,250.0 193.0,251.0 216.0,251.0 217.0,250.0 216.0,249.0 208.0,249.0 207.0,248.0 193.0,249.0" fill="#242729" />
<polygon points="345.0,265.0 344.0,266.0 347.0,271.0 347.0,273.0 348.0,274.0 351.0,274.0 352.0,273.0 352.0,268.0 348.0,265.0" fill="#b46a0b" />
<polygon points="335.0,71.0 332.0,72.0 330.0,75.0 329.0,87.0 332.0,89.0 335.0,87.0 339.0,77.0 339.0,74.0" fill="#bb806c" opacity="0.95" />
<polygon points="309.0,63.0 311.0,65.0 319.0,65.0 320.0,64.0 319.0,63.0 317.0,63.0 314.0,60.0 313.0,61.0 311.0,61.0" fill="#f1ebe9" />
<polygon points="168.0,249.0 169.0,251.0 183.0,251.0 184.0,250.0 183.0,249.0 174.0,249.0 173.0,248.0 169.0,248.0" fill="#242729" />
<polygon points="329.0,71.0 327.0,72.0 326.0,80.0 325.0,81.0 326.0,83.0 325.0,84.0 327.0,86.0 329.0,83.0 329.0,75.0 330.0,74.0" fill="#d9a792" />
<polygon points="326.0,69.0 324.0,69.0 322.0,71.0 322.0,76.0 323.0,77.0 324.0,77.0 326.0,74.0 326.0,72.0 327.0,71.0" fill="#e2c0b2" />
<polygon points="204.0,245.0 205.0,246.0 213.0,246.0 214.0,245.0 217.0,245.0 218.0,244.0 217.0,243.0 210.0,243.0 209.0,244.0 205.0,244.0" fill="#bb806c" />
<polygon points="293.0,246.0 293.0,248.0 295.0,249.0 301.0,249.0 303.0,248.0 303.0,244.0 301.0,243.0 296.0,243.0 294.0,244.0" fill="#fbc42b" opacity="0.95" />
<polygon points="354.0,55.0 352.0,56.0 352.0,69.0 354.0,70.0 356.0,69.0 356.0,65.0 357.0,64.0 357.0,57.0" fill="#e2c0b2" opacity="0.95" />
<polygon points="316.0,255.0 313.0,254.0 312.0,255.0 308.0,255.0 302.0,257.0 303.0,258.0 307.0,258.0 312.0,256.0 313.0,257.0" fill="#b06852" />
<polygon points="341.0,266.0 339.0,267.0 339.0,271.0 340.0,274.0 343.0,275.0 346.0,273.0 346.0,271.0 344.0,267.0" fill="#bb806c" opacity="0.95" />
<polygon points="347.0,265.0 345.0,266.0 345.0,268.0 347.0,271.0 347.0,273.0 350.0,274.0 352.0,273.0 352.0,268.0 350.0,266.0" fill="#b46a0b" opacity="0.95" />
<polygon points="294.0,245.0 294.0,247.0 297.0,249.0 300.0,249.0 303.0,247.0 303.0,245.0 300.0,243.0 297.0,243.0" fill="#fbc42b" opacity="0.95" />
<polygon points="258.0,152.0 255.0,154.0 255.0,156.0 259.0,159.0 262.0,157.0 262.0,154.0" fill="#242729" opacity="0.95" />
<polygon points="342.0,267.0 339.0,269.0 339.0,271.0 340.0,273.0 343.0,275.0 346.0,273.0 346.0,271.0 345.0,269.0" fill="#bb806c" opacity="0.95" />
<polygon points="349.0,266.0 346.0,268.0 346.0,270.0 349.0,272.0 352.0,270.0 352.0,268.0" fill="#b46a0b" opacity="0.95" />
</svg>