<svg xmlns="http://www.w3.org/2000/svg" width="768" height="768" viewBox="0 0 384 384">
<rect width="384" height="384" fill="#995a61"/>
<polygon points="0.0,0.0 0.0,76.0 383.0,75.0 383.0,52.0 336.0,0.0" fill="#be2c37" />
<polygon points="383.0,324.0 0.0,330.0 0.0,383.0 383.0,383.0" fill="#800f1a" />
<polygon points="0.0,0.0 0.0,76.0 383.0,75.0 383.0,52.0 337.0,0.0" fill="#be2c37" opacity="0.95" />
<polygon points="383.0,324.0 0.0,330.0 0.0,383.0 383.0,383.0" fill="#800f1a" opacity="0.95" />
<polygon points="0.0,0.0 0.0,76.0 383.0,75.0 383.0,52.0 337.0,0.0" fill="#be2c37" opacity="0.95" />
<polygon points="383.0,324.0 0.0,330.0 0.0,383.0 383.0,383.0" fill="#800f1a" opacity="0.95" />
<polygon points="0.0,87.0 11.0,103.0 322.0,111.0 273.0,89.0" fill="#4c0307" />
<polygon points="383.0,76.0 0.0,83.0 355.0,113.0 377.0,220.0 352.0,309.0 0.0,319.0 382.0,312.0" fill="#800f1a" />
<polygon points="96.0,235.0 0.0,236.0 0.0,280.0 97.0,279.0 102.0,274.0" fill="#dfe8e8" />
<polygon points="0.0,303.0 370.0,292.0 0.0,293.0" fill="#050305" />
<polygon points="0.0,176.0 1.0,220.0 46.0,222.0 59.0,216.0 55.0,176.0" fill="#dfe8e8" />
<polygon points="375.0,289.0 353.0,302.0 0.0,314.0 347.0,309.0" fill="#4c0307" />
<polygon points="266.0,237.0 266.0,276.0 269.0,279.0 306.0,282.0 324.0,275.0 322.0,236.0" fill="#dfe8e8" />
<polygon points="0.0,87.0 11.0,103.0 316.0,111.0 273.0,89.0" fill="#4c0307" opacity="0.95" />
<polygon points="325.0,126.0 319.0,186.0 328.0,192.0 319.0,206.0 332.0,209.0 324.0,217.0 327.0,227.0 366.0,229.0 372.0,221.0 369.0,134.0 363.0,126.0" fill="#9abdd1" />
<polygon points="383.0,76.0 181.0,84.0 371.0,124.0 362.0,305.0 0.0,319.0 382.0,312.0" fill="#800f1a" opacity="0.95" />
<polygon points="198.0,236.0 197.0,276.0 200.0,279.0 239.0,282.0 254.0,276.0 255.0,240.0 252.0,236.0" fill="#dfe8e8" />
<polygon points="126.0,179.0 107.0,175.0 72.0,176.0 71.0,217.0 82.0,222.0 122.0,220.0 127.0,215.0" fill="#dfe8e8" />
<polygon points="383.0,317.0 0.0,329.0 354.0,329.0" fill="#be2c37" />
<polygon points="124.0,127.0 133.0,164.0 159.0,161.0 162.0,128.0 171.0,137.0 174.0,163.0 211.0,161.0 215.0,169.0 215.0,126.0" fill="#dfe8e8" />
<polygon points="99.0,239.0 95.0,235.0 0.0,236.0 0.0,280.0 97.0,279.0 102.0,274.0" fill="#dfe8e8" opacity="0.95" />
<polygon points="0.0,87.0 0.0,101.0 311.0,110.0 273.0,89.0" fill="#4c0307" opacity="0.95" />
<polygon points="383.0,314.0 0.0,324.0 352.0,324.0" fill="#fbaba8" />
<polygon points="0.0,303.0 368.0,293.0 0.0,293.0" fill="#050305" opacity="0.95" />
<polygon points="184.0,175.0 183.0,217.0 194.0,222.0 212.0,219.0 215.0,224.0 215.0,176.0" fill="#dfe8e8" />
<polygon points="0.0,102.0 0.0,111.0 257.0,111.0" fill="#050305" />
<polygon points="383.0,76.0 271.0,85.0 373.0,128.0 368.0,301.0 52.0,317.0 382.0,312.0" fill="#800f1a" opacity="0.95" />
<polygon points="232.0,173.0 231.0,224.0 276.0,230.0 266.0,237.0 266.0,276.0 321.0,278.0 317.0,231.0 327.0,221.0 265.0,211.0 321.0,204.0 318.0,176.0" fill="#dfe8e8" opacity="0.95" />
<polygon points="99.0,239.0 95.0,235.0 0.0,236.0 0.0,280.0 97.0,279.0 102.0,274.0" fill="#dfe8e8" opacity="0.95" />
<polygon points="368.0,298.0 0.0,304.0 0.0,314.0 347.0,309.0" fill="#4c0307" opacity="0.95" />
<polygon points="326.0,126.0 320.0,187.0 328.0,189.0 322.0,206.0 331.0,212.0 325.0,219.0 332.0,229.0 365.0,229.0 372.0,222.0 369.0,133.0 357.0,125.0" fill="#9abdd1" opacity="0.95" />
<polygon points="0.0,303.0 366.0,294.0 0.0,293.0" fill="#050305" opacity="0.95" />
<polygon points="383.0,317.0 0.0,329.0 354.0,329.0" fill="#be2c37" opacity="0.95" />
<polygon points="337.0,0.0 358.0,22.0 358.0,29.0 373.0,48.0 383.0,51.0 383.0,0.0" fill="#800f1a" />
<polygon points="100.0,278.0 91.0,282.0 0.0,282.0 0.0,291.0 101.0,292.0" fill="#36374a" />
<polygon points="358.0,303.0 0.0,304.0 0.0,314.0" fill="#4c0307" opacity="0.95" />
<polygon points="327.0,126.0 320.0,177.0 328.0,189.0 322.0,204.0 330.0,211.0 326.0,219.0 333.0,229.0 365.0,229.0 372.0,221.0 369.0,134.0 363.0,126.0" fill="#9abdd1" opacity="0.95" />
<polygon points="229.0,233.0 256.0,238.0 257.0,287.0 264.0,236.0 323.0,235.0 328.0,285.0 334.0,233.0" fill="#050305" />
<polygon points="192.0,277.0 192.0,291.0 253.0,290.0 252.0,280.0 219.0,284.0" fill="#36374a" />
<polygon points="0.0,102.0 0.0,111.0 194.0,110.0" fill="#050305" opacity="0.95" />
<polygon points="342.0,237.0 341.0,257.0 348.0,261.0 363.0,260.0 365.0,258.0 365.0,238.0 363.0,236.0" fill="#fe2c07" />
<polygon points="338.0,0.0 357.0,20.0 358.0,29.0 373.0,48.0 383.0,51.0 383.0,0.0" fill="#800f1a" opacity="0.95" />
<polygon points="260.0,290.0 321.0,291.0 322.0,280.0 289.0,284.0 271.0,281.0 264.0,275.0" fill="#36374a" />
<polygon points="218.0,130.0 216.0,233.0 223.0,234.0 221.0,190.0 229.0,174.0 220.0,181.0" fill="#050305" />
<polygon points="102.0,288.0 99.0,279.0 91.0,282.0 0.0,282.0 0.0,291.0 100.0,292.0" fill="#36374a" opacity="0.95" />
<polygon points="67.0,181.0 66.0,233.0 89.0,228.0 129.0,230.0 126.0,218.0 115.0,223.0 74.0,221.0 70.0,217.0 70.0,180.0" fill="#9abdd1" />
<polygon points="102.0,288.0 98.0,280.0 0.0,282.0 0.0,291.0 99.0,292.0" fill="#36374a" opacity="0.95" />
<polygon points="285.0,250.0 284.0,267.0 290.0,268.0 295.0,275.0 297.0,273.0 297.0,270.0 303.0,267.0 303.0,251.0" fill="#050305" />
<polygon points="338.0,0.0 358.0,22.0 358.0,29.0 373.0,48.0 383.0,51.0 383.0,0.0" fill="#800f1a" opacity="0.95" />
<polygon points="22.0,114.0 41.0,117.0 101.0,116.0 97.0,113.0" fill="#9abdd1" />
<polygon points="151.0,290.0 155.0,292.0 183.0,291.0 181.0,281.0 166.0,283.0 155.0,278.0" fill="#36374a" />
<polygon points="328.0,287.0 329.0,291.0 365.0,291.0 367.0,283.0 349.0,283.0 334.0,277.0" fill="#36374a" />
<polygon points="60.0,225.0 58.0,218.0 46.0,223.0 11.0,223.0 0.0,220.0 0.0,229.0 26.0,228.0 59.0,232.0" fill="#9abdd1" />
<polygon points="110.0,288.0 112.0,292.0 141.0,292.0 143.0,290.0 140.0,281.0 124.0,283.0 113.0,278.0" fill="#36374a" />
<polygon points="197.0,233.0 180.0,234.0 186.0,242.0 187.0,288.0 191.0,278.0 191.0,241.0" fill="#050305" />
<polygon points="313.0,130.0 310.0,168.0 276.0,169.0 274.0,172.0 316.0,171.0 317.0,144.0" fill="#050305" />
<polygon points="229.0,127.0 229.0,133.0 235.0,140.0 238.0,137.0 254.0,139.0 252.0,143.0 247.0,144.0 249.0,148.0 261.0,140.0 261.0,128.0 258.0,126.0" fill="#9abdd1" />
<polygon points="212.0,171.0 209.0,164.0 193.0,167.0 177.0,165.0 171.0,174.0 185.0,172.0 211.0,173.0" fill="#7091ad" />
<polygon points="138.0,229.0 139.0,231.0 168.0,230.0 164.0,222.0 144.0,222.0" fill="#7091ad" />
<polygon points="341.0,238.0 341.0,257.0 348.0,261.0 360.0,261.0 365.0,258.0 364.0,237.0 344.0,236.0" fill="#fe2c07" opacity="0.95" />
<polygon points="192.0,280.0 194.0,291.0 253.0,290.0 251.0,280.0 232.0,284.0 210.0,283.0 197.0,278.0" fill="#36374a" opacity="0.95" />
<polygon points="366.0,284.0 335.0,278.0 326.0,288.0 319.0,280.0 289.0,284.0 267.0,279.0 262.0,289.0 363.0,291.0" fill="#36374a" opacity="0.95" />
<polygon points="213.0,223.0 211.0,220.0 202.0,223.0 184.0,221.0 180.0,229.0 205.0,228.0" fill="#7091ad" />
<polygon points="273.0,164.0 279.0,166.0 305.0,165.0 309.0,162.0 309.0,159.0 286.0,161.0 275.0,155.0" fill="#50647a" />
<polygon points="66.0,221.0 68.0,231.0 129.0,228.0 126.0,219.0 115.0,223.0 82.0,223.0 69.0,217.0" fill="#9abdd1" opacity="0.95" />
<polygon points="341.0,238.0 341.0,257.0 348.0,261.0 360.0,261.0 365.0,258.0 364.0,237.0 344.0,236.0" fill="#fe2c07" opacity="0.95" />
<polygon points="47.0,173.0 48.0,175.0 53.0,173.0 77.0,174.0 67.0,167.0 52.0,166.0" fill="#7091ad" />
<polygon points="60.0,225.0 57.0,219.0 46.0,223.0 11.0,223.0 0.0,220.0 0.0,229.0 26.0,228.0 58.0,232.0" fill="#9abdd1" opacity="0.95" />
<polygon points="373.0,318.0 310.0,320.0 308.0,323.0 352.0,324.0 371.0,321.0" fill="#fbaba8" opacity="0.95" />
<polygon points="87.0,174.0 90.0,175.0 92.0,173.0 112.0,173.0 116.0,175.0 117.0,173.0 110.0,167.0 94.0,166.0" fill="#7091ad" />
<polygon points="181.0,129.0 180.0,131.0 182.0,133.0 180.0,135.0 179.0,145.0 195.0,146.0 196.0,130.0 189.0,129.0 188.0,139.0 185.0,141.0 183.0,139.0 184.0,130.0" fill="#1a1e2a" />
<polygon points="229.0,129.0 229.0,134.0 234.0,139.0 253.0,138.0 254.0,141.0 247.0,144.0 249.0,148.0 261.0,140.0 261.0,128.0 258.0,126.0 232.0,126.0" fill="#9abdd1" opacity="0.95" />
<polygon points="226.0,120.0 235.0,123.0 253.0,123.0 256.0,121.0 262.0,125.0 269.0,122.0 261.0,119.0" fill="#1a1e2a" />
<polygon points="129.0,174.0 132.0,175.0 137.0,173.0 149.0,173.0 151.0,175.0 156.0,175.0 157.0,173.0 150.0,167.0 135.0,166.0" fill="#7091ad" />
<polygon points="111.0,130.0 99.0,130.0 100.0,146.0 103.0,145.0 103.0,141.0 105.0,139.0 106.0,140.0 113.0,137.0 114.0,135.0" fill="#1a1e2a" />
<polygon points="211.0,166.0 208.0,164.0 193.0,167.0 177.0,166.0 173.0,173.0 211.0,172.0" fill="#7091ad" opacity="0.95" />
<polygon points="6.0,173.0 7.0,175.0 16.0,172.0 31.0,173.0 33.0,175.0 36.0,174.0 29.0,167.0 14.0,166.0 11.0,167.0" fill="#7091ad" />
<polygon points="67.0,129.0 57.0,130.0 57.0,141.0 59.0,146.0 61.0,145.0 60.0,138.0 62.0,136.0 69.0,136.0 71.0,133.0" fill="#1a1e2a" />
<polygon points="276.0,120.0 282.0,123.0 300.0,123.0 302.0,121.0 310.0,124.0 314.0,122.0 305.0,119.0" fill="#1a1e2a" />
<polygon points="229.0,186.0 223.0,192.0 225.0,200.0 223.0,214.0 228.0,220.0 229.0,213.0 227.0,207.0 229.0,198.0 227.0,191.0" fill="#50647a" />
<polygon points="318.0,137.0 317.0,138.0 318.0,144.0 317.0,167.0 318.0,168.0 322.0,163.0 322.0,142.0" fill="#1a1e2a" />
<polygon points="212.0,221.0 202.0,223.0 185.0,221.0 181.0,228.0 205.0,228.0 212.0,225.0" fill="#7091ad" opacity="0.95" />
<polygon points="139.0,228.0 141.0,231.0 165.0,230.0 167.0,229.0 167.0,226.0 163.0,222.0 145.0,222.0" fill="#7091ad" opacity="0.95" />
<polygon points="196.0,130.0 188.0,130.0 188.0,139.0 185.0,141.0 180.0,141.0 179.0,145.0 196.0,145.0" fill="#1a1e2a" opacity="0.95" />
<polygon points="74.0,138.0 71.0,135.0 67.0,138.0 63.0,138.0 62.0,139.0 62.0,145.0 65.0,146.0 72.0,143.0 74.0,141.0" fill="#9eacb3" />
<polygon points="333.0,252.0 332.0,253.0 332.0,276.0 333.0,277.0 335.0,275.0 335.0,254.0" fill="#1a1e2a" />
<polygon points="274.0,158.0 274.0,164.0 279.0,166.0 305.0,165.0 309.0,162.0 307.0,159.0 301.0,161.0 286.0,161.0 277.0,157.0" fill="#50647a" opacity="0.95" />
<polygon points="112.0,131.0 104.0,129.0 99.0,130.0 99.0,145.0 103.0,145.0 104.0,139.0 110.0,139.0 113.0,137.0" fill="#1a1e2a" opacity="0.95" />
<polygon points="28.0,130.0 25.0,129.0 17.0,131.0 19.0,134.0 17.0,137.0 18.0,146.0 22.0,145.0 22.0,139.0 19.0,136.0 21.0,134.0 24.0,136.0 28.0,136.0" fill="#1a1e2a" />
<polygon points="31.0,135.0 27.0,138.0 24.0,137.0 23.0,138.0 24.0,139.0 24.0,146.0 25.0,147.0 28.0,146.0 33.0,142.0 33.0,137.0" fill="#9eacb3" />
<polygon points="115.0,139.0 114.0,138.0 111.0,140.0 106.0,141.0 104.0,143.0 104.0,146.0 105.0,147.0 114.0,143.0" fill="#9eacb3" />
<polygon points="142.0,132.0 141.0,133.0 141.0,137.0 142.0,138.0 144.0,138.0 146.0,140.0 148.0,137.0 148.0,133.0 147.0,132.0" fill="#50647a" />
<polygon points="264.0,240.0 263.0,241.0 263.0,254.0 264.0,255.0 265.0,254.0 265.0,241.0" fill="#50647a" />
<polygon points="74.0,138.0 70.0,136.0 67.0,138.0 62.0,139.0 62.0,145.0 65.0,146.0 72.0,143.0 74.0,141.0" fill="#9eacb3" opacity="0.95" />
<polygon points="22.0,236.0 23.0,237.0 38.0,237.0 39.0,236.0 38.0,235.0 23.0,235.0" fill="#9eacb3" />
<polygon points="359.0,121.0 362.0,124.0 366.0,125.0 370.0,130.0 371.0,129.0 370.0,125.0 366.0,121.0 363.0,120.0 360.0,120.0" fill="#50647a" />
<polygon points="373.0,238.0 372.0,239.0 372.0,246.0 374.0,249.0 375.0,248.0 375.0,239.0 374.0,238.0" fill="#50647a" />
<polygon points="33.0,137.0 30.0,136.0 24.0,139.0 24.0,145.0 27.0,146.0 31.0,144.0 33.0,142.0" fill="#9eacb3" opacity="0.95" />
<polygon points="157.0,84.0 157.0,86.0 159.0,87.0 173.0,87.0 175.0,86.0 175.0,84.0 173.0,83.0 159.0,83.0" fill="#800f1a" opacity="0.95" />
<polygon points="274.0,159.0 274.0,163.0 279.0,166.0 285.0,166.0 288.0,164.0 287.0,161.0 282.0,160.0 277.0,157.0" fill="#50647a" opacity="0.95" />
<polygon points="143.0,132.0 141.0,133.0 141.0,137.0 145.0,139.0 148.0,137.0 148.0,133.0 146.0,132.0" fill="#50647a" opacity="0.95" />
<polygon points="115.0,140.0 113.0,139.0 105.0,142.0 104.0,145.0 108.0,146.0 114.0,143.0" fill="#9eacb3" opacity="0.95" />
<polygon points="74.0,138.0 71.0,136.0 65.0,138.0 62.0,140.0 62.0,144.0 65.0,146.0 68.0,145.0 74.0,141.0" fill="#9eacb3" opacity="0.95" />
<polygon points="30.0,136.0 24.0,140.0 24.0,144.0 27.0,146.0 33.0,142.0 33.0,138.0" fill="#9eacb3" opacity="0.95" />
<polygon points="225.0,191.0 223.0,192.0 223.0,197.0 225.0,200.0 225.0,204.0 227.0,205.0 229.0,204.0 229.0,198.0 227.0,196.0 227.0,192.0" fill="#50647a" opacity="0.95" />
<polygon points="96.0,139.0 94.0,141.0 94.0,142.0 95.0,143.0 95.0,144.0 96.0,145.0 97.0,145.0 98.0,144.0 98.0,140.0 97.0,139.0" fill="#9eacb3" />
<polygon points="383.0,317.0 378.0,320.0 378.0,322.0 381.0,324.0 382.0,323.0 383.0,323.0" fill="#be2c37" opacity="0.95" />
</svg>