<svg xmlns="http://www.w3.org/2000/svg" width="768" height="768" viewBox="0 0 384 384">
<rect width="384" height="384" fill="#926653"/>
<polygon points="91.0,0.0 0.0,103.0 0.0,155.0 231.0,109.0 268.0,199.0 199.0,280.0 246.0,339.0 383.0,383.0 383.0,99.0 293.0,0.0" fill="#945842" />
<polygon points="137.0,119.0 0.0,160.0 0.0,383.0 154.0,383.0 185.0,260.0 129.0,216.0" fill="#b7816a" />
<polygon points="90.0,0.0 0.0,102.0 0.0,155.0 231.0,109.0 268.0,199.0 199.0,280.0 383.0,383.0 383.0,99.0 293.0,0.0" fill="#945842" opacity="0.95" />
<polygon points="90.0,0.0 0.0,102.0 0.0,155.0 231.0,109.0 268.0,199.0 199.0,280.0 383.0,383.0 383.0,98.0 293.0,0.0" fill="#945842" opacity="0.95" />
<polygon points="139.0,120.0 0.0,160.0 0.0,383.0 154.0,383.0 185.0,260.0 127.0,210.0" fill="#b7816a" opacity="0.95" />
<polygon points="138.0,120.0 0.0,160.0 0.0,383.0 154.0,383.0 185.0,260.0 129.0,216.0" fill="#b7816a" opacity="0.95" />
<polygon points="242.0,118.0 198.0,101.0 197.0,156.0 126.0,158.0 133.0,193.0 178.0,219.0 237.0,208.0 264.0,166.0" fill="#81f8f1" />
<polygon points="266.0,191.0 224.0,236.0 126.0,196.0 142.0,236.0 186.0,257.0 155.0,383.0 257.0,383.0 198.0,258.0 245.0,238.0" fill="#48251c" />
<polygon points="90.0,0.0 0.0,0.0 2.0,100.0" fill="#48251c" />
<polygon points="294.0,0.0 383.0,98.0 383.0,0.0" fill="#48251c" />
<polygon points="245.0,324.0 259.0,383.0 365.0,383.0 261.0,323.0" fill="#b7816a" />
<polygon points="242.0,118.0 197.0,102.0 197.0,156.0 125.0,159.0 133.0,193.0 178.0,219.0 237.0,208.0 264.0,166.0" fill="#81f8f1" opacity="0.95" />
<polygon points="127.0,197.0 142.0,236.0 186.0,257.0 155.0,383.0 256.0,383.0 198.0,258.0 264.0,208.0 212.0,236.0" fill="#48251c" opacity="0.95" />
<polygon points="196.0,101.0 169.0,105.0 147.0,118.0 131.0,138.0 126.0,156.0 194.0,156.0" fill="#6f191d" />
<polygon points="242.0,118.0 198.0,102.0 197.0,155.0 126.0,159.0 133.0,193.0 178.0,219.0 237.0,208.0 264.0,166.0" fill="#81f8f1" opacity="0.95" />
<polygon points="89.0,0.0 0.0,0.0 1.0,97.0 22.0,82.0" fill="#48251c" opacity="0.95" />
<polygon points="294.0,0.0 383.0,98.0 383.0,0.0" fill="#48251c" opacity="0.95" />
<polygon points="128.0,200.0 142.0,236.0 186.0,258.0 155.0,383.0 256.0,383.0 198.0,258.0 263.0,212.0 212.0,236.0" fill="#48251c" opacity="0.95" />
<polygon points="89.0,0.0 0.0,0.0 0.0,96.0 22.0,82.0" fill="#48251c" opacity="0.95" />
<polygon points="246.0,323.0 258.0,383.0 364.0,383.0 267.0,326.0" fill="#b7816a" opacity="0.95" />
<polygon points="294.0,0.0 383.0,97.0 383.0,0.0" fill="#48251c" opacity="0.95" />
<polygon points="196.0,101.0 169.0,105.0 147.0,118.0 131.0,138.0 126.0,156.0 195.0,155.0" fill="#6f191d" opacity="0.95" />
<polygon points="246.0,323.0 258.0,383.0 363.0,383.0 267.0,326.0" fill="#b7816a" opacity="0.95" />
<polygon points="264.0,180.0 233.0,212.0 209.0,220.0 205.0,229.0 184.0,231.0 224.0,235.0 240.0,230.0 261.0,206.0" fill="#150f13" />
<polygon points="196.0,102.0 178.0,102.0 147.0,118.0 131.0,138.0 126.0,155.0 194.0,155.0" fill="#6f191d" opacity="0.95" />
<polygon points="265.0,183.0 239.0,208.0 209.0,221.0 201.0,232.0 224.0,235.0 244.0,227.0 261.0,206.0" fill="#150f13" opacity="0.95" />
<polygon points="265.0,185.0 260.0,184.0 233.0,212.0 211.0,220.0 203.0,232.0 224.0,235.0 244.0,227.0 261.0,206.0" fill="#150f13" opacity="0.95" />
<polygon points="150.0,212.0 153.0,219.0 163.0,224.0 181.0,228.0 192.0,226.0 188.0,221.0" fill="#0d6484" />
<polygon points="150.0,213.0 150.0,217.0 169.0,226.0 192.0,226.0 188.0,221.0" fill="#0d6484" opacity="0.95" />
<polygon points="131.0,192.0 130.0,194.0 134.0,202.0 148.0,216.0 149.0,210.0" fill="#214d61" />
<polygon points="150.0,214.0 153.0,219.0 169.0,226.0 181.0,228.0 192.0,226.0 188.0,221.0 163.0,217.0 153.0,212.0" fill="#0d6484" opacity="0.95" />
<polygon points="208.0,223.0 206.0,220.0 205.0,221.0 192.0,221.0 191.0,222.0 193.0,224.0 193.0,226.0 191.0,228.0 192.0,229.0 202.0,229.0 205.0,228.0 208.0,225.0" fill="#214d61" />
<polygon points="193.0,222.0 193.0,228.0 195.0,229.0 202.0,229.0 208.0,225.0 208.0,223.0 205.0,221.0 195.0,221.0" fill="#214d61" opacity="0.95" />
<polygon points="134.0,200.0 134.0,202.0 145.0,214.0 147.0,215.0 149.0,214.0 149.0,210.0 138.0,200.0 136.0,199.0" fill="#214d61" opacity="0.95" />
<polygon points="193.0,223.0 193.0,227.0 196.0,229.0 202.0,229.0 208.0,225.0 208.0,223.0 205.0,221.0 196.0,221.0" fill="#214d61" opacity="0.95" />
<polygon points="144.0,206.0 141.0,208.0 141.0,210.0 146.0,214.0 149.0,212.0 149.0,210.0" fill="#214d61" opacity="0.95" />
</svg>