<svg xmlns="http://www.w3.org/2000/svg" width="768" height="768" viewBox="0 0 384 384">
<rect width="384" height="384" fill="#886b64"/>
<polygon points="0.0,8.0 0.0,121.0 148.0,95.0 222.0,6.0 381.0,66.0 219.0,289.0 355.0,165.0 383.0,182.0 370.0,0.0" fill="#623129" />
<polygon points="312.0,137.0 281.0,110.0 257.0,121.0 227.0,102.0 165.0,112.0 113.0,189.0 202.0,228.0 243.0,206.0 266.0,159.0" fill="#1ff2f9" />
<polygon points="148.0,97.0 71.0,88.0 0.0,122.0 0.0,239.0 8.0,222.0 38.0,214.0 83.0,219.0 92.0,165.0" fill="#a46758" />
<polygon points="373.0,161.0 229.0,291.0 316.0,252.0 333.0,293.0 190.0,383.0 291.0,311.0 305.0,336.0 251.0,383.0 347.0,383.0 383.0,317.0" fill="#a46758" />
<polygon points="109.0,248.0 96.0,288.0 53.0,302.0 43.0,351.0 92.0,383.0 163.0,383.0 150.0,335.0 203.0,295.0" fill="#c58d7d" />
<polygon points="0.0,8.0 0.0,121.0 148.0,95.0 222.0,6.0 381.0,66.0 219.0,289.0 352.0,167.0 383.0,181.0 370.0,0.0" fill="#623129" opacity="0.95" />
<polygon points="153.0,101.0 226.0,94.0 237.0,75.0 268.0,72.0 317.0,136.0 342.0,87.0 311.0,44.0 241.0,31.0 192.0,50.0" fill="#fd5755" />
<polygon points="311.0,136.0 281.0,110.0 166.0,112.0 113.0,189.0 202.0,228.0 243.0,207.0 266.0,159.0" fill="#1ff2f9" opacity="0.95" />
<polygon points="0.0,7.0 0.0,121.0 71.0,87.0 148.0,95.0 222.0,6.0 383.0,67.0 370.0,0.0" fill="#623129" opacity="0.95" />
<polygon points="145.0,99.0 71.0,88.0 0.0,122.0 0.0,237.0 38.0,214.0 84.0,218.0 92.0,165.0" fill="#a46758" opacity="0.95" />
<polygon points="374.0,162.0 230.0,290.0 316.0,252.0 333.0,293.0 191.0,383.0 291.0,311.0 305.0,336.0 251.0,383.0 347.0,383.0 383.0,318.0" fill="#a46758" opacity="0.95" />
<polygon points="110.0,248.0 96.0,288.0 53.0,302.0 44.0,351.0 92.0,383.0 163.0,383.0 150.0,335.0 203.0,295.0" fill="#c58d7d" opacity="0.95" />
<polygon points="311.0,137.0 281.0,110.0 167.0,112.0 113.0,189.0 202.0,228.0 243.0,206.0 266.0,159.0" fill="#1ff2f9" opacity="0.95" />
<polygon points="0.0,241.0 0.0,265.0 44.0,298.0 90.0,283.0 107.0,262.0 104.0,241.0 64.0,215.0 16.0,225.0 41.0,244.0 36.0,250.0 7.0,232.0" fill="#e2e4df" />
<polygon points="227.0,290.0 154.0,334.0 183.0,360.0 250.0,315.0" fill="#4f4d51" />
<polygon points="143.0,99.0 71.0,88.0 0.0,122.0 0.0,237.0 38.0,214.0 82.0,217.0 92.0,165.0" fill="#a46758" opacity="0.95" />
<polygon points="0.0,298.0 0.0,383.0 91.0,383.0 42.0,351.0 53.0,317.0 38.0,326.0" fill="#a46758" />
<polygon points="154.0,100.0 225.0,94.0 237.0,75.0 268.0,72.0 317.0,136.0 342.0,87.0 311.0,44.0 241.0,31.0 192.0,50.0" fill="#fd5755" opacity="0.95" />
<polygon points="111.0,249.0 96.0,288.0 53.0,302.0 44.0,350.0 92.0,383.0 163.0,383.0 150.0,335.0 203.0,295.0" fill="#c58d7d" opacity="0.95" />
<polygon points="372.0,161.0 230.0,290.0 314.0,252.0 337.0,268.0 328.0,298.0 275.0,313.0 305.0,336.0 253.0,383.0 347.0,383.0 383.0,319.0" fill="#a46758" opacity="0.95" />
<polygon points="378.0,75.0 274.0,202.0 274.0,224.0 375.0,98.0" fill="#2d2b30" />
<polygon points="83.0,203.0 217.0,274.0 238.0,271.0" fill="#120d15" />
<polygon points="302.0,320.0 291.0,312.0 263.0,326.0 253.0,349.0 209.0,383.0 250.0,383.0 275.0,369.0 304.0,336.0" fill="#c58d7d" />
<polygon points="335.0,273.0 303.0,276.0 183.0,364.0 154.0,341.0 152.0,352.0 182.0,379.0" fill="#120d15" />
<polygon points="154.0,100.0 220.0,95.0 241.0,73.0 268.0,72.0 318.0,135.0 342.0,87.0 311.0,44.0 241.0,31.0 192.0,50.0" fill="#fd5755" opacity="0.95" />
<polygon points="0.0,239.0 0.0,265.0 45.0,298.0 90.0,283.0 107.0,262.0 104.0,241.0 69.0,216.0 18.0,223.0 40.0,243.0 35.0,250.0 7.0,233.0" fill="#e2e4df" opacity="0.95" />
<polygon points="228.0,291.0 155.0,335.0 186.0,358.0 249.0,316.0" fill="#4f4d51" opacity="0.95" />
<polygon points="102.0,235.0 109.0,247.0 165.0,268.0 206.0,300.0 219.0,291.0 202.0,268.0 163.0,248.0" fill="#a46758" />
<polygon points="0.0,298.0 0.0,383.0 91.0,383.0 42.0,351.0 54.0,320.0 39.0,326.0" fill="#a46758" opacity="0.95" />
<polygon points="0.0,239.0 0.0,265.0 41.0,295.0 80.0,288.0 107.0,262.0 104.0,241.0 69.0,216.0 18.0,223.0 40.0,244.0 35.0,250.0 7.0,233.0" fill="#e2e4df" opacity="0.95" />
<polygon points="383.0,318.0 348.0,383.0 383.0,383.0" fill="#623129" />
<polygon points="378.0,81.0 272.0,205.0 272.0,222.0 375.0,98.0" fill="#2d2b30" opacity="0.95" />
<polygon points="228.0,291.0 155.0,335.0 186.0,358.0 249.0,316.0" fill="#4f4d51" opacity="0.95" />
<polygon points="229.0,85.0 229.0,96.0 244.0,108.0 259.0,108.0 261.0,100.0 268.0,103.0 266.0,108.0 272.0,107.0 284.0,96.0 283.0,82.0 267.0,73.0 245.0,73.0" fill="#e2e4df" />
<polygon points="160.0,124.0 148.0,133.0 135.0,128.0 101.0,164.0 100.0,177.0 110.0,194.0 112.0,184.0 144.0,148.0 140.0,137.0" fill="#fd5755" />
<polygon points="0.0,298.0 0.0,383.0 91.0,383.0 42.0,351.0 52.0,322.0 39.0,326.0" fill="#a46758" opacity="0.95" />
<polygon points="335.0,273.0 279.0,293.0 182.0,364.0 155.0,342.0 152.0,352.0 182.0,379.0" fill="#120d15" opacity="0.95" />
<polygon points="302.0,320.0 291.0,312.0 263.0,326.0 253.0,349.0 210.0,383.0 250.0,383.0 275.0,369.0 304.0,336.0" fill="#c58d7d" opacity="0.95" />
<polygon points="372.0,100.0 269.0,234.0 365.0,120.0" fill="#120d15" />
<polygon points="383.0,72.0 366.0,120.0 234.0,279.0 209.0,274.0 217.0,288.0 370.0,159.0 383.0,180.0" fill="#623129" opacity="0.95" />
<polygon points="376.0,81.0 274.0,202.0 275.0,218.0 376.0,96.0" fill="#2d2b30" opacity="0.95" />
<polygon points="334.0,285.0 264.0,314.0 182.0,380.0 153.0,358.0 189.0,383.0 261.0,320.0" fill="#623129" />
<polygon points="245.0,209.0 189.0,233.0 213.0,235.0 241.0,221.0" fill="#120d15" />
<polygon points="302.0,320.0 291.0,312.0 263.0,326.0 253.0,349.0 210.0,383.0 252.0,383.0 275.0,369.0 304.0,336.0" fill="#c58d7d" opacity="0.95" />
<polygon points="136.0,129.0 99.0,168.0 101.0,180.0 109.0,191.0 144.0,148.0 142.0,133.0" fill="#fd5755" opacity="0.95" />
<polygon points="282.0,268.0 277.0,266.0 236.0,300.0 243.0,297.0 247.0,302.0 279.0,282.0" fill="#c58d7d" />
<polygon points="383.0,319.0 348.0,383.0 383.0,383.0" fill="#623129" opacity="0.95" />
<polygon points="332.0,268.0 328.0,265.0 324.0,267.0 311.0,256.0 294.0,266.0 310.0,282.0" fill="#e2e4df" />
<polygon points="0.0,267.0 0.0,286.0 34.0,312.0 34.0,301.0 13.0,282.0 14.0,277.0" fill="#4f4d51" />
<polygon points="108.0,267.0 81.0,289.0 51.0,293.0 35.0,314.0 0.0,291.0 41.0,320.0 52.0,299.0 89.0,291.0" fill="#120d15" />
<polygon points="329.0,58.0 341.0,77.0 347.0,74.0 363.0,76.0 356.0,61.0 336.0,53.0" fill="#e2e4df" />
<polygon points="263.0,217.0 235.0,256.0 235.0,265.0 242.0,253.0 247.0,259.0 262.0,240.0" fill="#2d2b30" />
<polygon points="136.0,129.0 99.0,168.0 101.0,180.0 109.0,190.0 144.0,148.0 141.0,133.0" fill="#fd5755" opacity="0.95" />
<polygon points="213.0,19.0 147.0,99.0 157.0,121.0 151.0,100.0" fill="#daafa2" />
<polygon points="343.0,110.0 322.0,134.0 291.0,154.0 300.0,165.0" fill="#daafa2" />
<polygon points="383.0,320.0 348.0,383.0 383.0,383.0" fill="#623129" opacity="0.95" />
<polygon points="252.0,321.0 182.0,364.0 156.0,343.0 152.0,352.0 182.0,379.0 245.0,337.0" fill="#120d15" opacity="0.95" />
<polygon points="265.0,83.0 268.0,87.0 268.0,93.0 255.0,100.0 251.0,106.0 246.0,105.0 244.0,102.0 249.0,94.0 246.0,86.0 253.0,81.0" fill="#e2e4df" />
<polygon points="228.0,96.0 178.0,102.0 170.0,108.0 224.0,100.0" fill="#120d15" />
<polygon points="84.0,219.0 102.0,234.0 136.0,237.0 133.0,229.0 127.0,232.0 117.0,228.0 114.0,220.0 101.0,222.0 89.0,216.0" fill="#623129" />
<polygon points="245.0,210.0 190.0,234.0 213.0,235.0 241.0,221.0" fill="#120d15" opacity="0.95" />
<polygon points="281.0,267.0 267.0,272.0 240.0,296.0 249.0,300.0 282.0,279.0" fill="#c58d7d" opacity="0.95" />
<polygon points="291.0,278.0 283.0,289.0 276.0,289.0 281.0,282.0 249.0,303.0 257.0,308.0 288.0,288.0" fill="#2d2b30" />
<polygon points="279.0,184.0 256.0,212.0 248.0,206.0 247.0,228.0 237.0,236.0 250.0,228.0" fill="#daafa2" />
<polygon points="131.0,126.0 94.0,164.0 99.0,185.0 98.0,165.0" fill="#daafa2" />
<polygon points="330.0,57.0 340.0,75.0 362.0,75.0 357.0,62.0 336.0,53.0" fill="#e2e4df" opacity="0.95" />
<polygon points="335.0,274.0 311.0,285.0 303.0,280.0 257.0,311.0 261.0,315.0 294.0,297.0 308.0,299.0 332.0,284.0" fill="#120d15" opacity="0.95" />
<polygon points="0.0,267.0 0.0,286.0 28.0,308.0 35.0,310.0 34.0,301.0 13.0,282.0 13.0,276.0" fill="#4f4d51" opacity="0.95" />
<polygon points="14.0,281.0 37.0,304.0 44.0,300.0 17.0,280.0" fill="#2d2b30" />
<polygon points="262.0,220.0 239.0,250.0 239.0,253.0 246.0,258.0 263.0,238.0 264.0,221.0" fill="#2d2b30" opacity="0.95" />
<polygon points="281.0,268.0 277.0,266.0 267.0,272.0 241.0,296.0 249.0,300.0 282.0,279.0" fill="#c58d7d" opacity="0.95" />
<polygon points="267.0,183.0 262.0,184.0 253.0,200.0 252.0,211.0 256.0,211.0 271.0,193.0 263.0,197.0 260.0,195.0 268.0,185.0" fill="#c58d7d" />
<polygon points="233.0,236.0 214.0,236.0 201.0,239.0 204.0,243.0 201.0,246.0 208.0,248.0 221.0,239.0" fill="#daafa2" />
<polygon points="276.0,77.0 274.0,82.0 268.0,85.0 268.0,93.0 262.0,97.0 269.0,107.0 278.0,104.0 284.0,94.0 284.0,84.0" fill="#e2e4df" opacity="0.95" />
<polygon points="264.0,180.0 271.0,183.0 282.0,175.0 288.0,177.0 290.0,174.0 285.0,170.0 280.0,173.0 266.0,170.0" fill="#daafa2" />
<polygon points="85.0,217.0 85.0,221.0 102.0,233.0 134.0,237.0 134.0,231.0 118.0,228.0 114.0,220.0 101.0,222.0" fill="#623129" opacity="0.95" />
<polygon points="0.0,267.0 0.0,286.0 28.0,308.0 34.0,309.0 34.0,301.0 13.0,282.0 13.0,276.0" fill="#4f4d51" opacity="0.95" />
<polygon points="236.0,77.0 229.0,85.0 231.0,99.0 244.0,108.0 258.0,107.0 256.0,100.0 250.0,106.0 245.0,104.0 246.0,83.0 258.0,80.0 259.0,73.0 247.0,73.0 246.0,83.0 243.0,76.0" fill="#e2e4df" opacity="0.95" />
<polygon points="260.0,223.0 240.0,249.0 247.0,258.0 263.0,238.0 263.0,225.0" fill="#2d2b30" opacity="0.95" />
<polygon points="152.0,336.0 152.0,340.0 179.0,363.0 201.0,350.0 181.0,361.0" fill="#2d2b30" />
<polygon points="321.0,137.0 317.0,137.0 303.0,148.0 292.0,153.0 292.0,156.0 298.0,162.0 303.0,162.0" fill="#daafa2" opacity="0.95" />
<polygon points="249.0,90.0 251.0,92.0 252.0,91.0 254.0,93.0 259.0,94.0 266.0,88.0 261.0,82.0 253.0,82.0 251.0,84.0 252.0,87.0" fill="#787d7c" />
<polygon points="90.0,176.0 86.0,182.0 85.0,191.0 83.0,193.0 84.0,196.0 90.0,190.0 97.0,190.0" fill="#fd5755" />
<polygon points="243.0,241.0 236.0,242.0 231.0,245.0 232.0,249.0 235.0,253.0 244.0,242.0" fill="#fd5755" />
<polygon points="318.0,141.0 313.0,140.0 294.0,152.0 292.0,156.0 298.0,162.0 303.0,162.0" fill="#daafa2" opacity="0.95" />
<polygon points="264.0,180.0 271.0,183.0 283.0,175.0 290.0,175.0 290.0,173.0 286.0,171.0 274.0,173.0 267.0,170.0 264.0,173.0" fill="#daafa2" opacity="0.95" />
<polygon points="156.0,133.0 155.0,132.0 149.0,135.0 142.0,136.0 141.0,137.0 143.0,142.0 145.0,144.0 146.0,143.0 147.0,144.0" fill="#27a8c6" />
<polygon points="222.0,237.0 214.0,236.0 208.0,238.0 202.0,247.0 208.0,248.0 222.0,239.0" fill="#daafa2" opacity="0.95" />
<polygon points="16.0,282.0 16.0,284.0 35.0,302.0 38.0,303.0 42.0,301.0 42.0,298.0 20.0,282.0" fill="#2d2b30" opacity="0.95" />
<polygon points="233.0,106.0 238.0,111.0 246.0,114.0 248.0,111.0 247.0,109.0 244.0,109.0 235.0,105.0" fill="#091385" />
<polygon points="346.0,93.0 343.0,94.0 343.0,101.0 342.0,102.0 342.0,105.0 343.0,106.0 350.0,97.0 350.0,96.0" fill="#27a8c6" />
<polygon points="252.0,83.0 251.0,91.0 255.0,93.0 260.0,93.0 265.0,90.0 265.0,86.0 263.0,83.0 261.0,82.0 258.0,84.0 255.0,82.0" fill="#787d7c" opacity="0.95" />
<polygon points="89.0,179.0 86.0,182.0 85.0,191.0 87.0,192.0 95.0,189.0 92.0,181.0" fill="#fd5755" opacity="0.95" />
<polygon points="144.0,209.0 144.0,211.0 157.0,218.0 163.0,218.0 161.0,215.0 146.0,208.0" fill="#091385" opacity="0.95" />
<polygon points="242.0,242.0 240.0,241.0 232.0,244.0 233.0,251.0 235.0,252.0 237.0,251.0 241.0,246.0" fill="#fd5755" opacity="0.95" />
<polygon points="315.0,254.0 322.0,260.0 324.0,260.0 325.0,259.0 316.0,253.0" fill="#787d7c" />
<polygon points="153.0,135.0 150.0,134.0 143.0,136.0 142.0,137.0 143.0,142.0 145.0,143.0 149.0,142.0 153.0,137.0" fill="#27a8c6" opacity="0.95" />
<polygon points="235.0,107.0 235.0,109.0 245.0,114.0 247.0,113.0 247.0,110.0 241.0,107.0 237.0,106.0" fill="#091385" opacity="0.95" />
<polygon points="287.0,285.0 285.0,284.0 277.0,289.0 279.0,290.0" fill="#4f4d51" />
<polygon points="265.0,86.0 262.0,84.0 257.0,87.0 254.0,86.0 251.0,88.0 251.0,90.0 255.0,93.0 258.0,92.0 260.0,93.0 265.0,89.0" fill="#787d7c" opacity="0.95" />
<polygon points="315.0,266.0 313.0,264.0 310.0,264.0 305.0,267.0 306.0,268.0 307.0,267.0 309.0,269.0 310.0,268.0 313.0,268.0" fill="#4f4d51" />
<polygon points="346.0,93.0 343.0,94.0 343.0,101.0 345.0,102.0 347.0,101.0 349.0,98.0 349.0,95.0" fill="#27a8c6" opacity="0.95" />
<polygon points="246.0,116.0 250.0,120.0 257.0,120.0 258.0,119.0 257.0,118.0 250.0,118.0 247.0,115.0" fill="#27a8c6" />
<polygon points="145.0,135.0 142.0,137.0 142.0,139.0 144.0,142.0 147.0,143.0 151.0,140.0 151.0,137.0 148.0,135.0" fill="#27a8c6" opacity="0.95" />
<polygon points="10.0,222.0 7.0,224.0 7.0,227.0 8.0,228.0 11.0,225.0 11.0,223.0" fill="#4f4d51" />
<polygon points="346.0,93.0 343.0,95.0 343.0,98.0 346.0,100.0 349.0,98.0 349.0,95.0" fill="#27a8c6" opacity="0.95" />
<polygon points="296.0,278.0 295.0,278.0 294.0,279.0 292.0,279.0 291.0,280.0 291.0,281.0 293.0,283.0 294.0,283.0 296.0,281.0 296.0,280.0 297.0,279.0" fill="#4f4d51" />
</svg>