<svg xmlns="http://www.w3.org/2000/svg" width="768" height="768" viewBox="0 0 384 384">
<rect width="384" height="384" fill="#955952"/>
<polygon points="296.0,0.0 135.0,0.0 135.0,66.0 0.0,69.0 2.0,383.0 104.0,383.0 119.0,324.0 223.0,319.0 96.0,192.0 122.0,127.0 217.0,127.0 269.0,181.0 282.0,135.0 246.0,128.0 305.0,106.0 275.0,65.0 350.0,62.0" fill="#ad5850" />
<polygon points="383.0,0.0 297.0,0.0 354.0,64.0 282.0,67.0 307.0,106.0 265.0,126.0 253.0,216.0 134.0,221.0 227.0,321.0 119.0,325.0 105.0,383.0 301.0,383.0 249.0,320.0 383.0,320.0 383.0,258.0 325.0,258.0 271.0,193.0 383.0,191.0" fill="#8a433d" />
<polygon points="296.0,0.0 135.0,0.0 134.0,65.0 0.0,70.0 0.0,383.0 103.0,383.0 112.0,320.0 222.0,319.0 98.0,189.0 128.0,127.0 213.0,127.0 270.0,180.0 280.0,65.0 349.0,62.0" fill="#ad5850" opacity="0.95" />
<polygon points="296.0,0.0 135.0,0.0 133.0,65.0 0.0,70.0 0.0,383.0 103.0,383.0 113.0,321.0 221.0,318.0 103.0,189.0 134.0,127.0 213.0,127.0 270.0,180.0 288.0,66.0 349.0,61.0" fill="#ad5850" opacity="0.95" />
<polygon points="383.0,0.0 297.0,0.0 352.0,64.0 290.0,67.0 253.0,216.0 135.0,221.0 224.0,321.0 119.0,326.0 104.0,383.0 300.0,383.0 250.0,321.0 383.0,320.0 383.0,258.0 325.0,257.0 273.0,196.0 383.0,191.0" fill="#8a433d" opacity="0.95" />
<polygon points="250.0,324.0 302.0,383.0 383.0,383.0 383.0,322.0" fill="#ad5850" />
<polygon points="383.0,0.0 297.0,0.0 351.0,63.0 293.0,68.0 255.0,214.0 135.0,223.0 223.0,320.0 120.0,326.0 104.0,383.0 300.0,383.0 252.0,321.0 383.0,320.0 383.0,258.0 326.0,257.0 273.0,196.0 383.0,191.0" fill="#8a433d" opacity="0.95" />
<polygon points="274.0,195.0 327.0,254.0 383.0,254.0 383.0,195.0" fill="#ad5850" />
<polygon points="258.0,185.0 221.0,138.0 197.0,132.0 137.0,155.0 120.0,190.0" fill="#5efbfe" />
<polygon points="259.0,201.0 249.0,183.0 130.0,186.0 120.0,195.0 136.0,219.0 245.0,219.0" fill="#14eefa" />
<polygon points="11.0,4.0 46.0,12.0 40.0,29.0 58.0,38.0 38.0,36.0 10.0,60.0 4.0,54.0 5.0,64.0 132.0,62.0 131.0,0.0" fill="#8a433d" />
<polygon points="251.0,323.0 301.0,383.0 383.0,383.0 383.0,322.0" fill="#ad5850" opacity="0.95" />
<polygon points="275.0,195.0 326.0,253.0 383.0,254.0 383.0,195.0" fill="#ad5850" opacity="0.95" />
<polygon points="257.0,182.0 221.0,138.0 197.0,132.0 137.0,155.0 121.0,187.0" fill="#5efbfe" opacity="0.95" />
<polygon points="252.0,324.0 301.0,383.0 383.0,383.0 383.0,322.0" fill="#ad5850" opacity="0.95" />
<polygon points="11.0,4.0 47.0,13.0 40.0,30.0 58.0,38.0 37.0,37.0 4.0,63.0 132.0,62.0 131.0,0.0" fill="#8a433d" opacity="0.95" />
<polygon points="259.0,192.0 249.0,183.0 130.0,186.0 121.0,201.0 136.0,219.0 245.0,219.0 255.0,212.0" fill="#14eefa" opacity="0.95" />
<polygon points="276.0,196.0 326.0,253.0 383.0,254.0 383.0,195.0" fill="#ad5850" opacity="0.95" />
<polygon points="256.0,179.0 221.0,138.0 197.0,132.0 137.0,155.0 121.0,185.0" fill="#5efbfe" opacity="0.95" />
<polygon points="12.0,3.0 45.0,13.0 41.0,28.0 58.0,38.0 37.0,37.0 5.0,63.0 132.0,61.0 131.0,0.0" fill="#8a433d" opacity="0.95" />
<polygon points="259.0,192.0 249.0,183.0 130.0,186.0 121.0,201.0 136.0,219.0 245.0,219.0 255.0,212.0" fill="#14eefa" opacity="0.95" />
<polygon points="2.0,0.0 2.0,46.0 9.0,59.0 14.0,49.0 27.0,49.0 37.0,35.0 50.0,42.0 57.0,38.0 53.0,31.0 39.0,31.0 46.0,13.0 37.0,16.0 29.0,7.0 14.0,9.0 11.0,0.0" fill="#ad5850" />
<polygon points="135.0,153.0 156.0,145.0 163.0,138.0 166.0,140.0 171.0,131.0 136.0,130.0" fill="#8a433d" />
<polygon points="135.0,152.0 158.0,144.0 167.0,138.0 170.0,131.0 135.0,131.0" fill="#8a433d" opacity="0.95" />
<polygon points="135.0,151.0 138.0,153.0 157.0,144.0 167.0,136.0 168.0,132.0 165.0,130.0 136.0,131.0" fill="#8a433d" opacity="0.95" />
<polygon points="129.0,158.0 120.0,162.0 116.0,167.0 115.0,177.0 118.0,181.0 120.0,180.0 125.0,166.0 130.0,160.0" fill="#8a433d" />
</svg>