<svg xmlns="http://www.w3.org/2000/svg" width="768" height="768" viewBox="0 0 384 384">
<rect width="384" height="384" fill="#7b7870"/>
<polygon points="216.0,0.0 191.0,259.0 276.0,221.0 270.0,179.0 327.0,186.0 206.0,165.0 208.0,129.0 325.0,130.0 213.0,110.0 208.0,82.0 311.0,78.0 207.0,66.0 207.0,35.0 296.0,34.0" fill="#dddcdb" />
<polygon points="183.0,88.0 0.0,88.0 0.0,110.0 182.0,110.0" fill="#1c2022" />
<polygon points="0.0,227.0 155.0,226.0 118.0,183.0 187.0,165.0 0.0,164.0 85.0,184.0 64.0,222.0" fill="#dddcdb" />
<polygon points="0.0,243.0 0.0,262.0 186.0,261.0 173.0,242.0" fill="#f2ef08" />
<polygon points="339.0,134.0 210.0,134.0 209.0,156.0 339.0,157.0" fill="#03bbdf" />
<polygon points="0.0,17.0 181.0,17.0 183.0,1.0 0.0,0.0" fill="#1c2022" />
<polygon points="0.0,136.0 0.0,160.0 33.0,152.0 185.0,158.0 183.0,136.0" fill="#1c2022" />
<polygon points="327.0,85.0 220.0,87.0 219.0,106.0 326.0,108.0" fill="#1c2022" />
<polygon points="200.0,383.0 221.0,378.0 222.0,358.0 289.0,349.0 322.0,324.0 248.0,323.0 300.0,311.0 212.0,310.0" fill="#b4b5b5" />
<polygon points="0.0,67.0 0.0,83.0 184.0,81.0 100.0,75.0 182.0,65.0" fill="#dddcdb" />
<polygon points="186.0,289.0 0.0,288.0 0.0,303.0 145.0,302.0 182.0,310.0" fill="#1c2022" />
<polygon points="216.0,0.0 192.0,259.0 278.0,180.0 326.0,187.0 244.0,167.0 328.0,166.0 206.0,160.0 209.0,130.0 325.0,130.0 213.0,111.0 209.0,82.0 309.0,67.0 206.0,64.0 285.0,36.0" fill="#dddcdb" opacity="0.95" />
<polygon points="0.0,23.0 65.0,32.0 0.0,37.0 186.0,37.0 184.0,22.0" fill="#dddcdb" />
<polygon points="186.0,333.0 0.0,333.0 0.0,348.0 135.0,347.0 182.0,359.0" fill="#1c2022" />
<polygon points="331.0,283.0 222.0,284.0 222.0,303.0 331.0,306.0" fill="#1c2022" />
<polygon points="344.0,313.0 326.0,315.0 329.0,342.0 315.0,334.0 286.0,351.0 232.0,356.0 227.0,377.0 332.0,378.0 335.0,365.0 356.0,383.0" fill="#8b8f92" />
<polygon points="197.0,238.0 198.0,258.0 313.0,264.0 313.0,277.0 244.0,269.0 244.0,280.0 342.0,279.0 334.0,239.0 220.0,239.0 211.0,255.0 209.0,235.0" fill="#eec025" />
<polygon points="216.0,0.0 202.0,355.0 196.0,236.0 327.0,176.0 206.0,159.0 307.0,129.0 213.0,111.0 270.0,80.0 205.0,62.0 266.0,36.0" fill="#dddcdb" opacity="0.95" />
<polygon points="338.0,0.0 343.0,204.0 352.0,230.0 349.0,8.0" fill="#dddcdb" />
<polygon points="0.0,115.0 21.0,123.0 0.0,131.0 187.0,132.0 186.0,115.0 177.0,128.0" fill="#dddcdb" />
<polygon points="183.0,88.0 0.0,88.0 0.0,110.0 181.0,110.0" fill="#1c2022" opacity="0.95" />
<polygon points="218.0,0.0 219.0,15.0 325.0,16.0 325.0,0.0" fill="#1c2022" />
<polygon points="0.0,41.0 0.0,62.0 79.0,62.0 81.0,57.0 79.0,41.0" fill="#1c2022" />
<polygon points="339.0,134.0 211.0,134.0 209.0,156.0 338.0,157.0" fill="#03bbdf" opacity="0.95" />
<polygon points="338.0,164.0 329.0,164.0 326.0,191.0 313.0,183.0 284.0,183.0 278.0,220.0 265.0,225.0 341.0,224.0 351.0,233.0 349.0,209.0 340.0,207.0" fill="#b4b5b5" />
<polygon points="0.0,227.0 154.0,226.0 99.0,215.0 159.0,213.0 119.0,183.0 187.0,165.0 0.0,164.0 85.0,184.0 69.0,219.0" fill="#dddcdb" opacity="0.95" />
<polygon points="196.0,226.0 194.0,182.0 129.0,185.0 157.0,190.0 158.0,197.0 146.0,204.0 160.0,207.0 161.0,226.0" fill="#03bbdf" />
<polygon points="326.0,0.0 328.0,37.0 285.0,40.0 292.0,53.0 268.0,59.0 327.0,61.0 329.0,109.0 338.0,111.0 337.0,6.0" fill="#f80325" />
<polygon points="123.0,41.0 157.0,50.0 152.0,58.0 132.0,62.0 184.0,62.0 185.0,109.0 196.0,109.0 193.0,39.0" fill="#f80325" />
<polygon points="200.0,383.0 221.0,378.0 223.0,358.0 289.0,349.0 322.0,324.0 229.0,325.0 221.0,317.0 247.0,314.0 213.0,310.0" fill="#b4b5b5" opacity="0.95" />
<polygon points="344.0,312.0 307.0,313.0 326.0,316.0 333.0,340.0 232.0,356.0 228.0,377.0 331.0,378.0 296.0,371.0 325.0,362.0 356.0,383.0" fill="#8b8f92" opacity="0.95" />
<polygon points="197.0,241.0 199.0,258.0 314.0,265.0 312.0,277.0 245.0,280.0 340.0,280.0 357.0,257.0 354.0,234.0 340.0,260.0 333.0,239.0 221.0,240.0 216.0,254.0 209.0,235.0" fill="#eec025" opacity="0.95" />
<polygon points="3.0,159.0 157.0,158.0 130.0,153.0 33.0,153.0" fill="#30383c" />
<polygon points="208.0,60.0 250.0,61.0 254.0,59.0 252.0,55.0 258.0,46.0 252.0,40.0 209.0,39.0" fill="#f99c9f" />
<polygon points="338.0,165.0 329.0,163.0 325.0,189.0 311.0,183.0 280.0,186.0 274.0,225.0 340.0,224.0 351.0,232.0 348.0,208.0 340.0,207.0" fill="#b4b5b5" opacity="0.95" />
<polygon points="200.0,383.0 220.0,377.0 224.0,357.0 286.0,350.0 321.0,325.0 229.0,325.0 214.0,310.0" fill="#b4b5b5" opacity="0.95" />
<polygon points="53.0,378.0 100.0,379.0 101.0,360.0 63.0,358.0 56.0,364.0 60.0,376.0" fill="#8b8f92" />
<polygon points="0.0,332.0 145.0,325.0 102.0,329.0 89.0,310.0 65.0,309.0 71.0,320.0 58.0,330.0" fill="#b4b5b5" />
<polygon points="240.0,265.0 198.0,261.0 200.0,356.0 208.0,348.0 207.0,279.0 230.0,280.0 223.0,272.0 231.0,267.0 240.0,271.0" fill="#dddcdb" />
<polygon points="344.0,313.0 286.0,351.0 230.0,357.0 245.0,371.0 228.0,376.0 297.0,378.0 287.0,364.0 325.0,362.0 356.0,383.0" fill="#8b8f92" opacity="0.95" />
<polygon points="196.0,226.0 195.0,183.0 129.0,185.0 157.0,190.0 157.0,199.0 148.0,204.0 160.0,207.0 161.0,225.0" fill="#03bbdf" opacity="0.95" />
<polygon points="0.0,243.0 0.0,262.0 184.0,261.0 171.0,242.0 157.0,243.0 152.0,256.0 126.0,256.0 119.0,242.0 38.0,242.0 34.0,256.0 8.0,256.0" fill="#f2ef08" opacity="0.95" />
<polygon points="59.0,285.0 134.0,284.0 123.0,280.0 101.0,284.0 99.0,265.0 64.0,265.0 62.0,272.0 71.0,275.0 62.0,277.0" fill="#b4b5b5" />
<polygon points="326.0,0.0 328.0,37.0 288.0,39.0 292.0,53.0 269.0,60.0 327.0,62.0 329.0,109.0 338.0,110.0 337.0,6.0" fill="#f80325" opacity="0.95" />
<polygon points="82.0,42.0 82.0,59.0 84.0,61.0 112.0,61.0 125.0,57.0 116.0,51.0 109.0,41.0 85.0,40.0" fill="#f99c9f" />
<polygon points="343.0,262.0 346.0,337.0 355.0,346.0 356.0,322.0 349.0,278.0 353.0,261.0" fill="#b4b5b5" />
<polygon points="339.0,135.0 290.0,134.0 293.0,147.0 286.0,152.0 257.0,150.0 257.0,134.0 212.0,134.0 209.0,155.0 337.0,157.0" fill="#03bbdf" opacity="0.95" />
<polygon points="124.0,41.0 154.0,46.0 157.0,54.0 145.0,62.0 184.0,63.0 185.0,109.0 196.0,109.0 194.0,40.0" fill="#f80325" opacity="0.95" />
<polygon points="194.0,183.0 153.0,185.0 158.0,192.0 154.0,203.0 161.0,208.0 163.0,225.0 196.0,225.0" fill="#03bbdf" opacity="0.95" />
<polygon points="208.0,40.0 210.0,61.0 253.0,59.0 255.0,46.0 251.0,40.0" fill="#f99c9f" opacity="0.95" />
<polygon points="0.0,349.0 160.0,353.0 113.0,347.0" fill="#30383c" />
<polygon points="0.0,243.0 0.0,262.0 127.0,259.0 118.0,242.0 41.0,242.0 36.0,255.0 16.0,259.0" fill="#f2ef08" opacity="0.95" />
<polygon points="4.0,157.0 155.0,158.0 130.0,153.0" fill="#30383c" opacity="0.95" />
<polygon points="254.0,143.0 258.0,139.0 289.0,139.0 293.0,142.0 293.0,147.0 288.0,152.0 259.0,152.0 255.0,148.0" fill="#03bbdf" />
<polygon points="356.0,236.0 343.0,236.0 339.0,260.0 332.0,240.0 295.0,240.0 289.0,255.0 261.0,255.0 255.0,240.0 222.0,240.0 218.0,258.0 311.0,264.0 316.0,279.0 339.0,280.0 336.0,269.0 357.0,257.0" fill="#eec025" opacity="0.95" />
<polygon points="326.0,0.0 328.0,36.0 290.0,39.0 292.0,52.0 271.0,59.0 326.0,62.0 329.0,108.0 337.0,110.0 337.0,6.0" fill="#f80325" opacity="0.95" />
<polygon points="338.0,165.0 329.0,164.0 323.0,203.0 293.0,197.0 317.0,186.0 283.0,184.0 276.0,224.0 322.0,226.0 284.0,214.0 328.0,211.0 349.0,232.0" fill="#b4b5b5" opacity="0.95" />
<polygon points="344.0,234.0 343.0,258.0 354.0,259.0 357.0,257.0 356.0,235.0" fill="#eec025" />
<polygon points="152.0,41.0 157.0,50.0 153.0,61.0 185.0,65.0 185.0,108.0 194.0,109.0 195.0,41.0" fill="#f80325" opacity="0.95" />
<polygon points="208.0,41.0 208.0,59.0 211.0,61.0 253.0,59.0 255.0,47.0 250.0,40.0" fill="#f99c9f" opacity="0.95" />
<polygon points="82.0,42.0 82.0,59.0 85.0,61.0 112.0,61.0 122.0,57.0 108.0,41.0 85.0,40.0" fill="#f99c9f" opacity="0.95" />
<polygon points="121.0,251.0 123.0,249.0 155.0,249.0 157.0,252.0 153.0,256.0 125.0,256.0" fill="#f2ef08" />
<polygon points="232.0,283.0 303.0,284.0 305.0,282.0 243.0,281.0" fill="#8b8f92" />
<polygon points="342.0,282.0 332.0,284.0 334.0,308.0 343.0,307.0 343.0,283.0" fill="#4e585b" />
<polygon points="343.0,262.0 346.0,337.0 354.0,344.0 356.0,322.0 349.0,278.0 352.0,261.0" fill="#b4b5b5" opacity="0.95" />
<polygon points="257.0,251.0 259.0,249.0 264.0,248.0 289.0,248.0 293.0,252.0 290.0,255.0 260.0,255.0" fill="#eec025" />
<polygon points="4.0,253.0 6.0,250.0 37.0,250.0 39.0,252.0 35.0,256.0 8.0,256.0" fill="#f2ef08" />
<polygon points="254.0,143.0 258.0,139.0 289.0,139.0 293.0,142.0 293.0,147.0 288.0,152.0 259.0,152.0 256.0,150.0" fill="#03bbdf" opacity="0.95" />
<polygon points="253.0,40.0 256.0,44.0 261.0,44.0 266.0,47.0 287.0,46.0 279.0,39.0" fill="#ee405d" />
<polygon points="257.0,250.0 262.0,244.0 288.0,244.0 291.0,246.0 293.0,252.0 289.0,255.0 261.0,255.0" fill="#eec025" opacity="0.95" />
<polygon points="211.0,282.0 210.0,283.0 211.0,306.0 212.0,307.0 219.0,307.0 220.0,306.0 220.0,284.0 218.0,282.0" fill="#03bbdf" />
<polygon points="30.0,155.0 33.0,159.0 133.0,157.0 130.0,153.0" fill="#30383c" opacity="0.95" />
<polygon points="82.0,42.0 82.0,59.0 85.0,61.0 112.0,61.0 121.0,57.0 120.0,53.0 108.0,41.0 85.0,40.0" fill="#f99c9f" opacity="0.95" />
<polygon points="188.0,330.0 187.0,331.0 187.0,354.0 188.0,355.0 195.0,355.0 196.0,354.0 196.0,331.0 195.0,330.0" fill="#03bbdf" />
<polygon points="57.0,363.0 64.0,367.0 59.0,372.0 62.0,379.0 100.0,378.0 98.0,358.0 83.0,359.0 86.0,363.0 83.0,373.0 74.0,371.0 75.0,358.0 64.0,358.0" fill="#8b8f92" opacity="0.95" />
<polygon points="313.0,364.0 315.0,362.0 325.0,362.0 333.0,369.0 328.0,373.0 315.0,373.0 313.0,371.0" fill="#8b8f92" />
<polygon points="188.0,285.0 187.0,286.0 187.0,308.0 188.0,309.0 189.0,308.0 195.0,308.0 196.0,307.0 196.0,286.0 195.0,285.0" fill="#4e585b" />
<polygon points="174.0,244.0 174.0,250.0 182.0,255.0 188.0,262.0 196.0,261.0 191.0,261.0 189.0,259.0 188.0,240.0 186.0,242.0 176.0,242.0" fill="#eec025" />
<polygon points="76.0,361.0 84.0,361.0 86.0,363.0 86.0,371.0 84.0,373.0 76.0,373.0 74.0,371.0 74.0,363.0" fill="#8b8f92" />
<polygon points="146.0,258.0 149.0,262.0 181.0,262.0 184.0,260.0 173.0,250.0 173.0,244.0 170.0,242.0 158.0,243.0 156.0,253.0" fill="#f2ef08" opacity="0.95" />
<polygon points="296.0,364.0 298.0,362.0 308.0,362.0 310.0,364.0 310.0,371.0 311.0,372.0 309.0,374.0 307.0,373.0 298.0,373.0 296.0,371.0" fill="#8b8f92" />
<polygon points="334.0,283.0 332.0,284.0 333.0,307.0 341.0,308.0 343.0,307.0 343.0,284.0" fill="#4e585b" opacity="0.95" />
<polygon points="254.0,40.0 255.0,43.0 267.0,47.0 284.0,46.0 282.0,41.0 278.0,39.0" fill="#ee405d" opacity="0.95" />
<polygon points="60.0,362.0 64.0,369.0 59.0,375.0 63.0,379.0 100.0,377.0 101.0,362.0 97.0,358.0 85.0,360.0 88.0,369.0 83.0,373.0 73.0,370.0 75.0,360.0 72.0,358.0" fill="#8b8f92" opacity="0.95" />
<polygon points="383.0,67.0 378.0,65.0 376.0,67.0 360.0,66.0 353.0,67.0 352.0,71.0 359.0,73.0 366.0,70.0 370.0,73.0 376.0,70.0 383.0,72.0" fill="#4e585b" />
<polygon points="206.0,234.0 197.0,242.0 197.0,256.0 204.0,259.0 210.0,257.0 209.0,236.0" fill="#eec025" opacity="0.95" />
<polygon points="189.0,285.0 187.0,286.0 187.0,307.0 194.0,308.0 196.0,307.0 196.0,286.0" fill="#4e585b" opacity="0.95" />
<polygon points="175.0,243.0 174.0,250.0 182.0,255.0 185.0,259.0 189.0,259.0 189.0,242.0 187.0,241.0" fill="#eec025" opacity="0.95" />
<polygon points="253.0,55.0 256.0,61.0 264.0,61.0 270.0,56.0 269.0,55.0 258.0,55.0 255.0,52.0" fill="#ee405d" />
<polygon points="112.0,40.0 111.0,42.0 116.0,50.0 118.0,50.0 122.0,45.0 123.0,42.0 121.0,40.0" fill="#ee405d" />
<polygon points="65.0,109.0 66.0,110.0 96.0,110.0 97.0,109.0 89.0,107.0" fill="#30383c" />
<polygon points="184.0,0.0 184.0,10.0 186.0,12.0 189.0,12.0 191.0,10.0 193.0,10.0 194.0,9.0 194.0,6.0 192.0,4.0 192.0,1.0 191.0,0.0" fill="#ee405d" />
<polygon points="149.0,200.0 148.0,199.0 138.0,200.0 133.0,202.0 131.0,204.0 132.0,205.0 144.0,205.0" fill="#78c5df" />
<polygon points="357.0,310.0 357.0,315.0 363.0,314.0 367.0,320.0 370.0,313.0 376.0,319.0 378.0,314.0 383.0,313.0 383.0,310.0 369.0,311.0 367.0,306.0 365.0,311.0" fill="#4e585b" />
<polygon points="335.0,283.0 332.0,285.0 333.0,306.0 336.0,308.0 340.0,308.0 343.0,306.0 343.0,285.0 340.0,283.0" fill="#4e585b" opacity="0.95" />
<polygon points="175.0,243.0 174.0,250.0 186.0,258.0 188.0,257.0 189.0,244.0 186.0,242.0" fill="#eec025" opacity="0.95" />
<polygon points="358.0,360.0 361.0,364.0 365.0,361.0 369.0,365.0 367.0,373.0 371.0,372.0 373.0,361.0 379.0,366.0 383.0,362.0 379.0,354.0 377.0,359.0 368.0,360.0 363.0,354.0 364.0,357.0" fill="#4e585b" />
<polygon points="259.0,41.0 260.0,44.0 267.0,47.0 279.0,47.0 282.0,45.0 282.0,42.0 278.0,39.0 262.0,39.0" fill="#ee405d" opacity="0.95" />
<polygon points="334.0,369.0 335.0,370.0 335.0,375.0 334.0,376.0 335.0,378.0 337.0,379.0 346.0,379.0 347.0,378.0 347.0,374.0 343.0,370.0 340.0,371.0 337.0,368.0" fill="#4e585b" />
<polygon points="383.0,267.0 379.0,265.0 373.0,267.0 370.0,264.0 367.0,267.0 361.0,265.0 356.0,267.0 355.0,270.0 363.0,271.0 368.0,268.0 370.0,270.0 383.0,270.0" fill="#4e585b" />
<polygon points="122.0,349.0 124.0,352.0 146.0,354.0 154.0,353.0 152.0,350.0" fill="#30383c" opacity="0.95" />
<polygon points="184.0,0.0 184.0,10.0 188.0,12.0 194.0,9.0 194.0,5.0 192.0,4.0 192.0,0.0" fill="#ee405d" opacity="0.95" />
<polygon points="83.0,184.0 82.0,185.0 82.0,199.0 83.0,200.0 84.0,199.0 84.0,185.0" fill="#f80325" />
<polygon points="194.0,12.0 193.0,11.0 191.0,11.0 189.0,13.0 185.0,13.0 184.0,12.0 183.0,13.0 183.0,15.0 187.0,18.0 193.0,18.0 194.0,17.0" fill="#f80325" />
<polygon points="287.0,50.0 286.0,49.0 285.0,50.0 276.0,50.0 275.0,51.0 276.0,52.0 278.0,52.0 280.0,54.0 285.0,54.0" fill="#691616" />
<polygon points="254.0,55.0 255.0,60.0 257.0,61.0 264.0,61.0 268.0,58.0 268.0,56.0 266.0,55.0 258.0,55.0 257.0,54.0" fill="#ee405d" opacity="0.95" />
<polygon points="184.0,0.0 184.0,10.0 187.0,12.0 192.0,10.0 194.0,8.0 194.0,6.0 192.0,4.0 192.0,0.0" fill="#ee405d" opacity="0.95" />
<polygon points="129.0,184.0 128.0,183.0 124.0,183.0 123.0,184.0 121.0,184.0 120.0,185.0 120.0,188.0 121.0,189.0 123.0,188.0 127.0,188.0" fill="#78c5df" />
<polygon points="120.0,40.0 114.0,40.0 112.0,41.0 113.0,46.0 115.0,49.0 117.0,50.0 119.0,49.0 122.0,45.0 122.0,41.0" fill="#ee405d" opacity="0.95" />
<polygon points="147.0,200.0 145.0,199.0 138.0,200.0 133.0,202.0 133.0,204.0 135.0,205.0 143.0,205.0 147.0,202.0" fill="#78c5df" opacity="0.95" />
<polygon points="92.0,366.0 91.0,367.0 91.0,369.0 92.0,370.0 95.0,370.0 96.0,369.0 96.0,367.0 95.0,366.0" fill="#1d7899" />
<polygon points="194.0,12.0 192.0,11.0 189.0,13.0 186.0,13.0 184.0,14.0 184.0,16.0 187.0,18.0 192.0,18.0 194.0,17.0" fill="#f80325" opacity="0.95" />
<polygon points="67.0,203.0 68.0,204.0 76.0,204.0 77.0,203.0 76.0,202.0 68.0,202.0" fill="#30383c" />
<polygon points="6.0,121.0 5.0,122.0 6.0,123.0 6.0,124.0 7.0,125.0 9.0,125.0 10.0,124.0 10.0,122.0 9.0,121.0" fill="#30383c" />
<polygon points="128.0,184.0 124.0,183.0 120.0,185.0 120.0,188.0 122.0,189.0 123.0,188.0 126.0,188.0 128.0,187.0" fill="#78c5df" opacity="0.95" />
<polygon points="336.0,382.0 336.0,383.0 346.0,383.0 346.0,382.0 345.0,381.0 344.0,382.0 340.0,382.0 338.0,380.0" fill="#1d7899" />
<polygon points="190.0,12.0 187.0,14.0 187.0,16.0 191.0,18.0 194.0,16.0 194.0,14.0" fill="#f80325" opacity="0.95" />
<polygon points="279.0,51.0 279.0,53.0 280.0,53.0 281.0,54.0 284.0,54.0 285.0,53.0 286.0,53.0 286.0,51.0 285.0,51.0 284.0,50.0 281.0,50.0 280.0,51.0" fill="#691616" opacity="0.95" />
<polygon points="14.0,154.0 11.0,156.0 11.0,158.0 15.0,160.0 18.0,158.0 18.0,156.0" fill="#30383c" opacity="0.95" />
<polygon points="12.0,349.0 10.0,348.0 7.0,348.0 4.0,350.0 0.0,349.0 0.0,353.0 4.0,351.0 10.0,352.0 12.0,351.0" fill="#30383c" opacity="0.95" />
</svg>