<svg xmlns="http://www.w3.org/2000/svg" width="768" height="768" viewBox="0 0 384 384">
<rect width="384" height="384" fill="#8c7263"/>
<polygon points="0.0,12.0 0.0,383.0 234.0,383.0 257.0,237.0 177.0,253.0 122.0,165.0 267.0,74.0 305.0,115.0 324.0,69.0 239.0,20.0" fill="#9a7561" />
<polygon points="0.0,12.0 0.0,383.0 234.0,383.0 256.0,238.0 177.0,253.0 123.0,164.0 267.0,74.0 305.0,114.0 322.0,70.0 239.0,20.0" fill="#9a7561" opacity="0.95" />
<polygon points="278.0,87.0 324.0,163.0 174.0,249.0 258.0,237.0 235.0,383.0 383.0,383.0 383.0,114.0 311.0,123.0" fill="#785744" />
<polygon points="0.0,12.0 0.0,383.0 234.0,383.0 256.0,238.0 177.0,253.0 123.0,165.0 267.0,74.0 305.0,114.0 321.0,71.0 238.0,20.0" fill="#9a7561" opacity="0.95" />
<polygon points="286.0,95.0 324.0,163.0 174.0,249.0 257.0,238.0 236.0,383.0 383.0,383.0 383.0,114.0 311.0,123.0" fill="#785744" opacity="0.95" />
<polygon points="78.0,1.0 239.0,19.0 321.0,68.0 366.0,0.0" fill="#785744" />
<polygon points="267.0,75.0 124.0,165.0 171.0,245.0 242.0,184.0 127.0,167.0 221.0,110.0 147.0,164.0 225.0,167.0" fill="#8cbdcf" />
<polygon points="292.0,101.0 324.0,163.0 189.0,250.0 257.0,238.0 236.0,383.0 383.0,383.0 383.0,114.0 340.0,128.0" fill="#785744" opacity="0.95" />
<polygon points="273.0,86.0 235.0,169.0 201.0,173.0 245.0,192.0 178.0,244.0 313.0,154.0" fill="#4c96b0" />
<polygon points="78.0,0.0 239.0,19.0 321.0,68.0 365.0,2.0" fill="#785744" opacity="0.95" />
<polygon points="127.0,170.0 172.0,245.0 244.0,192.0 239.0,182.0 192.0,171.0" fill="#8cbdcf" opacity="0.95" />
<polygon points="78.0,0.0 238.0,19.0 321.0,68.0 365.0,2.0" fill="#785744" opacity="0.95" />
<polygon points="274.0,95.0 290.0,139.0 247.0,168.0 254.0,131.0" fill="#4c96b0" />
<polygon points="267.0,77.0 158.0,159.0 183.0,170.0 128.0,172.0 170.0,243.0 244.0,192.0 187.0,167.0 227.0,164.0" fill="#8cbdcf" opacity="0.95" />
<polygon points="274.0,97.0 255.0,131.0 247.0,167.0 289.0,139.0" fill="#8cbdcf" />
<polygon points="268.0,77.0 130.0,162.0 213.0,114.0 152.0,163.0 226.0,166.0" fill="#8cbdcf" opacity="0.95" />
<polygon points="314.0,137.0 305.0,131.0 314.0,157.0 180.0,247.0 318.0,168.0" fill="#30231d" />
<polygon points="383.0,0.0 367.0,0.0 340.0,41.0 339.0,48.0 361.0,65.0 383.0,43.0" fill="#20232a" />
<polygon points="330.0,65.0 308.0,100.0 310.0,120.0 328.0,118.0 343.0,91.0 344.0,76.0" fill="#dba590" />
<polygon points="383.0,44.0 364.0,62.0 373.0,77.0 361.0,94.0 354.0,86.0 336.0,108.0 335.0,120.0 326.0,123.0 358.0,127.0 383.0,113.0" fill="#30231d" />
<polygon points="321.0,147.0 180.0,247.0 314.0,171.0" fill="#30231d" opacity="0.95" />
<polygon points="276.0,89.0 290.0,139.0 248.0,167.0 250.0,133.0 233.0,172.0 211.0,174.0 244.0,194.0 178.0,241.0 312.0,155.0" fill="#4c96b0" opacity="0.95" />
<polygon points="222.0,112.0 131.0,165.0 167.0,153.0" fill="#e8e6e7" />
<polygon points="274.0,98.0 255.0,131.0 248.0,166.0 289.0,139.0" fill="#8cbdcf" opacity="0.95" />
<polygon points="321.0,147.0 182.0,246.0 314.0,171.0" fill="#30231d" opacity="0.95" />
<polygon points="383.0,0.0 367.0,0.0 340.0,41.0 340.0,49.0 361.0,64.0 383.0,43.0" fill="#20232a" opacity="0.95" />
<polygon points="338.0,50.0 329.0,63.0 352.0,82.0 363.0,68.0" fill="#e8e6e7" />
<polygon points="283.0,102.0 290.0,139.0 249.0,167.0 245.0,145.0 219.0,176.0 245.0,187.0 238.0,205.0 312.0,155.0" fill="#4c96b0" opacity="0.95" />
<polygon points="329.0,65.0 308.0,100.0 310.0,120.0 328.0,118.0 343.0,91.0 344.0,76.0" fill="#dba590" opacity="0.95" />
<polygon points="383.0,44.0 364.0,62.0 373.0,77.0 361.0,93.0 351.0,90.0 336.0,108.0 332.0,124.0 358.0,127.0 383.0,113.0" fill="#30231d" opacity="0.95" />
<polygon points="383.0,0.0 367.0,0.0 340.0,41.0 340.0,49.0 360.0,63.0 383.0,43.0" fill="#20232a" opacity="0.95" />
<polygon points="273.0,98.0 255.0,131.0 249.0,166.0 289.0,139.0 289.0,128.0" fill="#8cbdcf" opacity="0.95" />
<polygon points="329.0,65.0 308.0,100.0 310.0,120.0 328.0,118.0 343.0,91.0 344.0,76.0" fill="#dba590" opacity="0.95" />
<polygon points="383.0,44.0 364.0,62.0 373.0,77.0 361.0,93.0 351.0,90.0 335.0,110.0 334.0,125.0 358.0,127.0 383.0,113.0" fill="#30231d" opacity="0.95" />
<polygon points="0.0,11.0 8.0,12.0 25.0,6.0 46.0,8.0 64.0,4.0 68.0,0.0 0.0,0.0" fill="#785744" />
<polygon points="215.0,116.0 133.0,165.0 167.0,153.0" fill="#e8e6e7" opacity="0.95" />
<polygon points="333.0,86.0 335.0,88.0 329.0,103.0 321.0,112.0 317.0,112.0 314.0,105.0 317.0,96.0 327.0,87.0" fill="#dba590" />
<polygon points="339.0,50.0 329.0,64.0 352.0,81.0 360.0,74.0 362.0,67.0" fill="#e8e6e7" opacity="0.95" />
<polygon points="0.0,11.0 8.0,12.0 25.0,6.0 46.0,8.0 68.0,0.0 0.0,0.0" fill="#785744" opacity="0.95" />
<polygon points="203.0,125.0 180.0,134.0 137.0,164.0 167.0,153.0" fill="#e8e6e7" opacity="0.95" />
<polygon points="339.0,50.0 334.0,54.0 330.0,64.0 352.0,81.0 360.0,74.0 362.0,67.0" fill="#e8e6e7" opacity="0.95" />
<polygon points="333.0,87.0 334.0,92.0 329.0,103.0 322.0,111.0 316.0,111.0 314.0,102.0 317.0,96.0 324.0,89.0 330.0,86.0" fill="#dba590" opacity="0.95" />
<polygon points="369.0,72.0 358.0,86.0 362.0,92.0 372.0,79.0 371.0,74.0" fill="#785744" />
<polygon points="0.0,11.0 8.0,12.0 25.0,6.0 46.0,8.0 68.0,0.0 0.0,0.0" fill="#785744" opacity="0.95" />
<polygon points="259.0,104.0 238.0,142.0 238.0,150.0 261.0,107.0" fill="#30231d" opacity="0.95" />
<polygon points="330.0,86.0 334.0,89.0 333.0,95.0 326.0,107.0 319.0,112.0 315.0,109.0 314.0,102.0 317.0,96.0" fill="#dba590" opacity="0.95" />
<polygon points="347.0,78.0 345.0,79.0 344.0,91.0 335.0,105.0 336.0,106.0 352.0,83.0" fill="#9a7561" />
<polygon points="210.0,221.0 207.0,219.0 197.0,223.0 179.0,239.0 182.0,241.0 208.0,225.0" fill="#4c96b0" opacity="0.95" />
<polygon points="367.0,71.0 355.0,84.0 356.0,87.0 368.0,72.0" fill="#9a7561" />
<polygon points="333.0,87.0 327.0,88.0 318.0,96.0 315.0,102.0 317.0,110.0 319.0,108.0 317.0,103.0 320.0,96.0 325.0,91.0 330.0,94.0 332.0,93.0" fill="#9a7561" />
<polygon points="179.0,166.0 180.0,167.0 188.0,166.0 190.0,168.0 197.0,169.0 209.0,168.0 200.0,166.0 189.0,167.0 187.0,165.0" fill="#20232a" />
<polygon points="234.0,160.0 232.0,163.0 226.0,168.0 227.0,170.0 228.0,169.0 229.0,170.0 232.0,167.0 235.0,161.0" fill="#20232a" />
<polygon points="327.0,98.0 326.0,98.0 323.0,101.0 323.0,103.0 324.0,104.0 326.0,104.0 328.0,102.0 328.0,101.0 329.0,100.0" fill="#30231d" />
<polygon points="167.0,165.0 168.0,166.0 175.0,166.0 176.0,165.0 175.0,164.0 168.0,164.0" fill="#20232a" />
<polygon points="347.0,79.0 345.0,80.0 345.0,88.0 347.0,89.0 349.0,88.0 349.0,86.0 351.0,84.0 351.0,82.0" fill="#9a7561" opacity="0.95" />
<polygon points="330.0,87.0 327.0,89.0 327.0,91.0 331.0,93.0 333.0,92.0 333.0,88.0" fill="#9a7561" opacity="0.95" />
<polygon points="274.0,89.0 270.0,92.0 270.0,94.0 273.0,96.0 274.0,95.0 275.0,96.0 278.0,94.0 278.0,92.0" fill="#4c96b0" opacity="0.95" />
<polygon points="326.0,99.0 323.0,101.0 323.0,103.0 324.0,103.0 325.0,104.0 328.0,102.0 328.0,100.0 327.0,100.0" fill="#30231d" opacity="0.95" />
<polygon points="348.0,80.0 345.0,82.0 345.0,84.0 348.0,86.0 351.0,84.0 351.0,82.0" fill="#9a7561" opacity="0.95" />
</svg>