<svg xmlns="http://www.w3.org/2000/svg" width="768" height="768" viewBox="0 0 384 384">
<rect width="384" height="384" fill="#90716f"/>
<polygon points="0.0,0.0 2.0,320.0 124.0,319.0 12.0,249.0 89.0,182.0 246.0,317.0 354.0,284.0 383.0,132.0 201.0,249.0 121.0,169.0 184.0,116.0 124.0,48.0 181.0,0.0" fill="#855d55" />
<polygon points="190.0,112.0 123.0,169.0 193.0,241.0 261.0,184.0" fill="#67d6e6" />
<polygon points="0.0,0.0 0.0,383.0 167.0,383.0 135.0,324.0 69.0,383.0 10.0,324.0 122.0,319.0 13.0,250.0 90.0,182.0 246.0,317.0 354.0,284.0 383.0,132.0 201.0,249.0 122.0,170.0 183.0,117.0 125.0,49.0 180.0,0.0" fill="#855d55" opacity="0.95" />
<polygon points="248.0,63.0 194.0,110.0 264.0,182.0 316.0,138.0" fill="#59aeac" />
<polygon points="190.0,0.0 125.0,47.0 184.0,114.0 245.0,64.0" fill="#fe528f" />
<polygon points="90.0,183.0 13.0,248.0 59.0,295.0 134.0,229.0" fill="#e8ddd1" />
<polygon points="0.0,0.0 0.0,383.0 167.0,383.0 134.0,324.0 69.0,383.0 13.0,325.0 121.0,318.0 13.0,250.0 90.0,182.0 246.0,317.0 354.0,284.0 383.0,132.0 201.0,249.0 122.0,170.0 183.0,116.0 125.0,49.0 180.0,0.0" fill="#855d55" opacity="0.95" />
<polygon points="195.0,273.0 138.0,323.0 191.0,380.0 249.0,327.0" fill="#31272c" />
<polygon points="290.0,24.0 249.0,61.0 318.0,137.0 362.0,101.0" fill="#f09081" />
<polygon points="139.0,226.0 84.0,275.0 126.0,320.0 137.0,322.0 187.0,279.0" fill="#f09081" />
<polygon points="191.0,112.0 124.0,171.0 192.0,241.0 260.0,183.0" fill="#67d6e6" opacity="0.95" />
<polygon points="292.0,0.0 383.0,83.0 383.0,0.0" fill="#31272c" />
<polygon points="15.0,326.0 68.0,383.0 129.0,326.0" fill="#b47094" />
<polygon points="192.0,0.0 246.0,62.0 290.0,23.0 269.0,0.0" fill="#fab474" />
<polygon points="251.0,326.0 303.0,383.0 309.0,383.0 369.0,326.0" fill="#b4b9ca" />
<polygon points="248.0,64.0 195.0,112.0 263.0,182.0 315.0,137.0" fill="#59aeac" opacity="0.95" />
<polygon points="191.0,112.0 124.0,171.0 192.0,241.0 260.0,183.0" fill="#67d6e6" opacity="0.95" />
<polygon points="168.0,372.0 134.0,321.0 71.0,383.0 167.0,383.0" fill="#855d55" />
<polygon points="90.0,184.0 14.0,247.0 59.0,294.0 133.0,230.0" fill="#e8ddd1" opacity="0.95" />
<polygon points="190.0,0.0 181.0,0.0 126.0,46.0 185.0,114.0 244.0,65.0" fill="#fe528f" opacity="0.95" />
<polygon points="195.0,274.0 139.0,322.0 192.0,380.0 248.0,328.0" fill="#31272c" opacity="0.95" />
<polygon points="291.0,25.0 250.0,62.0 319.0,136.0 361.0,100.0" fill="#f09081" opacity="0.95" />
<polygon points="139.0,328.0 165.0,363.0 168.0,383.0 302.0,383.0 250.0,327.0 192.0,381.0" fill="#593d39" />
<polygon points="248.0,64.0 195.0,112.0 264.0,181.0 315.0,137.0" fill="#59aeac" opacity="0.95" />
<polygon points="2.0,326.0 0.0,383.0 67.0,383.0 13.0,325.0" fill="#855d55" />
<polygon points="139.0,227.0 85.0,273.0 122.0,316.0 133.0,321.0 186.0,280.0" fill="#f09081" opacity="0.95" />
<polygon points="383.0,325.0 371.0,325.0 310.0,383.0 383.0,383.0" fill="#593d39" />
<polygon points="90.0,184.0 14.0,247.0 59.0,294.0 133.0,230.0" fill="#e8ddd1" opacity="0.95" />
<polygon points="190.0,0.0 181.0,0.0 126.0,46.0 185.0,114.0 244.0,65.0" fill="#fe528f" opacity="0.95" />
<polygon points="383.0,241.0 363.0,259.0 355.0,284.0 337.0,297.0 266.0,317.0 383.0,320.0" fill="#593d39" />
<polygon points="383.0,102.0 200.0,247.0 356.0,134.0 383.0,131.0" fill="#593d39" />
<polygon points="195.0,274.0 139.0,322.0 192.0,380.0 248.0,328.0" fill="#31272c" opacity="0.95" />
<polygon points="292.0,0.0 383.0,83.0 383.0,0.0" fill="#31272c" opacity="0.95" />
<polygon points="291.0,25.0 250.0,62.0 319.0,136.0 361.0,100.0" fill="#f09081" opacity="0.95" />
<polygon points="383.0,84.0 195.0,241.0 383.0,97.0" fill="#150d0d" />
<polygon points="16.0,326.0 69.0,383.0 127.0,328.0" fill="#b47094" opacity="0.95" />
<polygon points="381.0,240.0 340.0,295.0 267.0,316.0 374.0,322.0 311.0,383.0 383.0,383.0" fill="#593d39" opacity="0.95" />
<polygon points="253.0,326.0 302.0,383.0 310.0,383.0 367.0,328.0" fill="#b4b9ca" opacity="0.95" />
<polygon points="192.0,0.0 246.0,61.0 289.0,24.0 270.0,0.0" fill="#fab474" opacity="0.95" />
<polygon points="139.0,227.0 85.0,273.0 122.0,316.0 133.0,321.0 186.0,280.0" fill="#f09081" opacity="0.95" />
<polygon points="270.0,0.0 327.0,60.0 340.0,49.0 291.0,0.0" fill="#a7164b" />
<polygon points="292.0,0.0 383.0,83.0 383.0,0.0" fill="#31272c" opacity="0.95" />
<polygon points="301.0,382.0 250.0,328.0 192.0,381.0 160.0,353.0 168.0,383.0" fill="#593d39" opacity="0.95" />
<polygon points="383.0,241.0 353.0,286.0 288.0,316.0 371.0,323.0 311.0,383.0 383.0,383.0" fill="#593d39" opacity="0.95" />
<polygon points="192.0,0.0 246.0,61.0 289.0,24.0 270.0,0.0" fill="#fab474" opacity="0.95" />
<polygon points="17.0,327.0 68.0,383.0 126.0,329.0 123.0,325.0" fill="#b47094" opacity="0.95" />
<polygon points="254.0,327.0 302.0,383.0 310.0,383.0 366.0,329.0 363.0,325.0" fill="#b4b9ca" opacity="0.95" />
<polygon points="383.0,102.0 204.0,246.0 356.0,134.0 383.0,131.0" fill="#593d39" opacity="0.95" />
<polygon points="301.0,382.0 250.0,328.0 192.0,381.0 162.0,357.0 168.0,383.0" fill="#593d39" opacity="0.95" />
<polygon points="383.0,84.0 196.0,242.0 383.0,97.0" fill="#150d0d" opacity="0.95" />
<polygon points="383.0,102.0 209.0,242.0 356.0,134.0 383.0,131.0" fill="#593d39" opacity="0.95" />
<polygon points="271.0,0.0 325.0,58.0 339.0,50.0 291.0,0.0" fill="#a7164b" opacity="0.95" />
<polygon points="340.0,50.0 336.0,54.0 354.0,72.0 364.0,93.0 375.0,82.0" fill="#e8ddd1" />
<polygon points="271.0,0.0 326.0,58.0 339.0,50.0 291.0,0.0" fill="#a7164b" opacity="0.95" />
<polygon points="329.0,60.0 331.0,64.0 361.0,95.0 361.0,87.0 351.0,70.0 336.0,55.0" fill="#f6f1f0" />
<polygon points="339.0,51.0 337.0,55.0 354.0,72.0 362.0,90.0 367.0,90.0 374.0,80.0 348.0,55.0" fill="#e8ddd1" opacity="0.95" />
<polygon points="332.0,57.0 331.0,64.0 357.0,91.0 361.0,91.0 353.0,72.0 339.0,57.0" fill="#f6f1f0" opacity="0.95" />
<polygon points="377.0,83.0 364.0,94.0 366.0,99.0 380.0,87.0" fill="#855d55" />
<polygon points="339.0,51.0 337.0,55.0 354.0,72.0 362.0,89.0 367.0,90.0 374.0,80.0 348.0,55.0" fill="#e8ddd1" opacity="0.95" />
<polygon points="383.0,86.0 353.0,112.0 356.0,114.0 383.0,97.0" fill="#150d0d" opacity="0.95" />
<polygon points="332.0,57.0 330.0,59.0 331.0,64.0 355.0,88.0 359.0,88.0 359.0,82.0 351.0,70.0 339.0,57.0" fill="#f6f1f0" opacity="0.95" />
<polygon points="84.0,277.0 83.0,276.0 63.0,294.0 64.0,295.0 67.0,294.0" fill="#150d0d" />
<polygon points="379.0,85.0 377.0,84.0 374.0,85.0 365.0,93.0 365.0,96.0 367.0,97.0 379.0,88.0" fill="#855d55" opacity="0.95" />
<polygon points="379.0,86.0 376.0,84.0 368.0,90.0 368.0,92.0 371.0,94.0 379.0,88.0" fill="#855d55" opacity="0.95" />
</svg>