<svg xmlns="http://www.w3.org/2000/svg" width="768" height="768" viewBox="0 0 384 384">
<rect width="384" height="384" fill="#937466"/>
<polygon points="0.0,0.0 0.0,147.0 141.0,288.0 51.0,383.0 383.0,383.0 383.0,264.0 136.0,373.0 383.0,250.0 383.0,122.0 270.0,0.0" fill="#9d6b58" />
<polygon points="0.0,0.0 0.0,147.0 140.0,285.0 51.0,383.0 383.0,383.0 383.0,264.0 137.0,374.0 383.0,250.0 383.0,121.0 289.0,0.0" fill="#9d6b58" opacity="0.95" />
<polygon points="257.0,71.0 346.0,159.0 176.0,255.0 114.0,172.0" fill="#9d6b58" />
<polygon points="0.0,0.0 0.0,147.0 140.0,285.0 51.0,383.0 383.0,383.0 383.0,264.0 141.0,371.0 383.0,250.0 383.0,121.0 289.0,0.0" fill="#9d6b58" opacity="0.95" />
<polygon points="257.0,73.0 117.0,171.0 174.0,248.0 315.0,147.0" fill="#6dc4c9" />
<polygon points="0.0,148.0 0.0,383.0 50.0,383.0 132.0,329.0 136.0,265.0 94.0,211.0" fill="#b88e7e" />
<polygon points="257.0,72.0 346.0,159.0 176.0,255.0 115.0,171.0" fill="#9d6b58" opacity="0.95" />
<polygon points="256.0,73.0 117.0,171.0 174.0,247.0 315.0,147.0" fill="#6dc4c9" opacity="0.95" />
<polygon points="257.0,72.0 346.0,159.0 176.0,255.0 115.0,171.0" fill="#9d6b58" opacity="0.95" />
<polygon points="0.0,148.0 0.0,383.0 50.0,383.0 109.0,355.0 141.0,317.0 136.0,265.0 94.0,211.0" fill="#b88e7e" opacity="0.95" />
<polygon points="0.0,148.0 0.0,383.0 50.0,383.0 132.0,329.0 136.0,265.0 94.0,211.0" fill="#b88e7e" opacity="0.95" />
<polygon points="256.0,73.0 121.0,168.0 174.0,247.0 315.0,147.0" fill="#6dc4c9" opacity="0.95" />
<polygon points="298.0,0.0 383.0,97.0 383.0,0.0" fill="#211615" />
<polygon points="298.0,0.0 383.0,95.0 383.0,0.0" fill="#211615" opacity="0.95" />
<polygon points="298.0,0.0 383.0,95.0 383.0,0.0" fill="#211615" opacity="0.95" />
<polygon points="273.0,83.0 334.0,160.0 185.0,253.0 343.0,163.0" fill="#5b3930" />
<polygon points="321.0,152.0 178.0,250.0 318.0,165.0" fill="#050303" />
<polygon points="334.0,56.0 333.0,66.0 383.0,116.0 383.0,98.0 343.0,54.0" fill="#d7cec8" />
<polygon points="330.0,149.0 316.0,136.0 318.0,166.0 182.0,250.0 328.0,165.0" fill="#211615" />
<polygon points="278.0,0.0 330.0,56.0 336.0,51.0 288.0,0.0" fill="#9d6b58" />
<polygon points="274.0,84.0 334.0,160.0 214.0,238.0 345.0,159.0" fill="#5b3930" opacity="0.95" />
<polygon points="321.0,152.0 201.0,235.0 318.0,165.0" fill="#050303" opacity="0.95" />
<polygon points="333.0,57.0 333.0,66.0 383.0,115.0 383.0,97.0 344.0,55.0" fill="#d7cec8" opacity="0.95" />
<polygon points="333.0,57.0 333.0,66.0 383.0,115.0 383.0,97.0 344.0,55.0" fill="#d7cec8" opacity="0.95" />
<polygon points="282.0,92.0 334.0,160.0 261.0,211.0 345.0,159.0" fill="#5b3930" opacity="0.95" />
<polygon points="330.0,65.0 331.0,70.0 383.0,121.0 383.0,117.0" fill="#413939" />
<polygon points="322.0,155.0 220.0,222.0 312.0,169.0" fill="#050303" opacity="0.95" />
<polygon points="271.0,0.0 325.0,52.0 275.0,0.0" fill="#413939" />
<polygon points="330.0,149.0 316.0,139.0 318.0,166.0 231.0,221.0 328.0,165.0" fill="#211615" opacity="0.95" />
<polygon points="206.0,351.0 166.0,367.0 187.0,363.0" fill="#5b3930" opacity="0.95" />
<polygon points="157.0,361.0 156.0,360.0 137.0,373.0 138.0,374.0 155.0,365.0" fill="#5b3930" />
<polygon points="383.0,254.0 381.0,252.0 373.0,257.0 369.0,257.0 368.0,258.0 370.0,260.0 369.0,263.0 370.0,264.0 379.0,260.0 383.0,257.0" fill="#211615" />
<polygon points="319.0,138.0 316.0,142.0 317.0,147.0 323.0,155.0 323.0,160.0 320.0,164.0 323.0,168.0 333.0,160.0 333.0,154.0" fill="#211615" opacity="0.95" />
<polygon points="190.0,341.0 188.0,340.0 178.0,346.0 179.0,347.0 183.0,347.0 188.0,344.0" fill="#211615" />
<polygon points="348.0,269.0 351.0,270.0 354.0,268.0 356.0,272.0 365.0,266.0 364.0,265.0 359.0,267.0 357.0,265.0 354.0,265.0 349.0,267.0" fill="#211615" />
<polygon points="383.0,257.0 378.0,254.0 370.0,258.0 370.0,262.0 373.0,263.0" fill="#211615" opacity="0.95" />
<polygon points="368.0,260.0 364.0,256.0 357.0,259.0 356.0,262.0 363.0,265.0 367.0,263.0" fill="#050303" opacity="0.95" />
<polygon points="292.0,0.0 298.0,6.0 299.0,5.0 299.0,4.0 298.0,3.0 297.0,0.0" fill="#413939" />
<polygon points="247.0,330.0 245.0,329.0 241.0,331.0 241.0,333.0 243.0,334.0 247.0,332.0" fill="#5b3930" opacity="0.95" />
<polygon points="187.0,357.0 184.0,359.0 184.0,361.0 187.0,363.0 190.0,361.0 190.0,359.0" fill="#5b3930" opacity="0.95" />
</svg>