<svg xmlns="http://www.w3.org/2000/svg" width="768" height="768" viewBox="0 0 384 384">
<rect width="384" height="384" fill="#8f6e5c"/>
<polygon points="0.0,0.0 0.0,224.0 83.0,190.0 121.0,262.0 21.0,316.0 1.0,280.0 0.0,383.0 243.0,383.0 266.0,262.0 170.0,256.0 123.0,168.0 211.0,128.0 283.0,179.0 74.0,0.0" fill="#936b57" />
<polygon points="75.0,0.0 354.0,60.0 327.0,139.0 225.0,116.0 237.0,78.0 162.0,106.0 292.0,205.0 169.0,254.0 267.0,262.0 244.0,383.0 383.0,383.0 383.0,0.0" fill="#784734" />
<polygon points="0.0,0.0 0.0,224.0 82.0,190.0 121.0,262.0 21.0,316.0 0.0,281.0 0.0,383.0 243.0,383.0 265.0,261.0 169.0,255.0 124.0,167.0 211.0,129.0 283.0,179.0 74.0,0.0" fill="#936b57" opacity="0.95" />
<polygon points="75.0,0.0 353.0,60.0 326.0,139.0 235.0,79.0 163.0,111.0 284.0,177.0 182.0,250.0 267.0,262.0 244.0,383.0 383.0,383.0 383.0,0.0" fill="#784734" opacity="0.95" />
<polygon points="82.0,191.0 0.0,226.0 12.0,301.0 118.0,258.0" fill="#e3e29b" />
<polygon points="211.0,129.0 194.0,151.0 187.0,143.0 124.0,168.0 163.0,241.0 270.0,194.0" fill="#72d0ee" />
<polygon points="0.0,0.0 0.0,224.0 81.0,191.0 121.0,262.0 21.0,316.0 0.0,281.0 0.0,383.0 243.0,383.0 265.0,262.0 169.0,255.0 124.0,171.0 211.0,129.0 288.0,208.0 233.0,94.0 167.0,115.0 74.0,0.0" fill="#936b57" opacity="0.95" />
<polygon points="75.0,0.0 122.0,42.0 197.0,11.0 242.0,60.0 352.0,60.0 334.0,132.0 241.0,97.0 291.0,206.0 203.0,246.0 267.0,262.0 244.0,383.0 383.0,383.0 383.0,0.0" fill="#784734" opacity="0.95" />
<polygon points="198.0,13.0 189.0,30.0 123.0,44.0 161.0,100.0 164.0,91.0 242.0,64.0" fill="#f584b2" />
<polygon points="211.0,130.0 194.0,149.0 125.0,167.0 162.0,237.0 269.0,195.0" fill="#72d0ee" opacity="0.95" />
<polygon points="84.0,193.0 0.0,226.0 10.0,298.0 117.0,259.0" fill="#e3e29b" opacity="0.95" />
<polygon points="256.0,32.0 232.0,102.0 244.0,93.0 329.0,119.0 340.0,90.0 321.0,81.0 327.0,60.0 264.0,42.0 256.0,58.0" fill="#e1946e" />
<polygon points="211.0,130.0 193.0,148.0 125.0,168.0 162.0,236.0 268.0,194.0" fill="#72d0ee" opacity="0.95" />
<polygon points="83.0,193.0 0.0,226.0 11.0,297.0 117.0,258.0" fill="#e3e29b" opacity="0.95" />
<polygon points="197.0,13.0 188.0,29.0 123.0,44.0 160.0,98.0 241.0,65.0" fill="#f584b2" opacity="0.95" />
<polygon points="253.0,38.0 233.0,100.0 244.0,93.0 331.0,118.0 339.0,89.0 322.0,82.0 327.0,60.0 259.0,48.0" fill="#e1946e" opacity="0.95" />
<polygon points="197.0,13.0 187.0,28.0 123.0,46.0 159.0,96.0 241.0,64.0" fill="#f584b2" opacity="0.95" />
<polygon points="260.0,224.0 246.0,208.0 166.0,247.0 250.0,232.0" fill="#0e080f" />
<polygon points="248.0,55.0 236.0,95.0 331.0,117.0 339.0,90.0 322.0,81.0 326.0,60.0 266.0,43.0" fill="#e1946e" opacity="0.95" />
<polygon points="118.0,261.0 16.0,298.0 15.0,307.0 116.0,271.0" fill="#796f25" />
<polygon points="237.0,103.0 328.0,131.0 331.0,124.0 246.0,95.0" fill="#784734" />
<polygon points="242.0,67.0 164.0,92.0 163.0,100.0 238.0,75.0" fill="#a80238" />
<polygon points="335.0,53.0 322.0,81.0 339.0,88.0 352.0,61.0" fill="#ebc5b6" />
<polygon points="252.0,203.0 166.0,235.0 165.0,242.0" fill="#0287b4" />
<polygon points="260.0,224.0 246.0,208.0 166.0,247.0 250.0,232.0" fill="#0e080f" opacity="0.95" />
<polygon points="360.0,110.0 342.0,90.0 325.0,135.0 236.0,105.0 322.0,138.0" fill="#43251c" />
<polygon points="118.0,262.0 16.0,298.0 15.0,307.0 116.0,271.0" fill="#796f25" opacity="0.95" />
<polygon points="260.0,224.0 246.0,208.0 166.0,247.0 250.0,232.0" fill="#0e080f" opacity="0.95" />
<polygon points="237.0,81.0 166.0,104.0 163.0,111.0 218.0,115.0 224.0,95.0" fill="#784734" opacity="0.95" />
<polygon points="242.0,67.0 165.0,92.0 163.0,100.0 238.0,75.0" fill="#a80238" opacity="0.95" />
<polygon points="118.0,263.0 19.0,297.0 15.0,306.0 104.0,276.0" fill="#796f25" opacity="0.95" />
<polygon points="83.0,201.0 87.0,205.0 90.0,218.0 86.0,224.0 77.0,229.0 74.0,225.0 74.0,205.0" fill="#e3e29b" />
<polygon points="245.0,206.0 169.0,234.0 165.0,242.0" fill="#0287b4" opacity="0.95" />
<polygon points="336.0,54.0 325.0,69.0 323.0,82.0 338.0,88.0 352.0,60.0" fill="#ebc5b6" opacity="0.95" />
<polygon points="267.0,226.0 249.0,206.0 261.0,224.0 258.0,230.0 200.0,242.0 256.0,238.0 267.0,232.0" fill="#43251c" />
<polygon points="83.0,202.0 75.0,205.0 75.0,225.0 77.0,228.0 86.0,223.0 89.0,218.0 86.0,205.0" fill="#d8d461" />
<polygon points="241.0,69.0 168.0,91.0 163.0,98.0 233.0,77.0" fill="#a80238" opacity="0.95" />
<polygon points="336.0,54.0 325.0,69.0 323.0,81.0 338.0,88.0 351.0,60.0" fill="#ebc5b6" opacity="0.95" />
<polygon points="358.0,102.0 341.0,92.0 330.0,131.0 315.0,135.0 324.0,138.0 332.0,134.0 344.0,115.0 360.0,110.0" fill="#43251c" opacity="0.95" />
<polygon points="234.0,89.0 225.0,95.0 221.0,106.0 222.0,112.0 227.0,116.0 230.0,115.0 233.0,106.0 231.0,100.0" fill="#936b57" />
<polygon points="83.0,201.0 87.0,205.0 90.0,218.0 86.0,224.0 78.0,228.0 74.0,225.0 74.0,205.0" fill="#e3e29b" opacity="0.95" />
<polygon points="218.0,218.0 169.0,234.0 165.0,241.0 176.0,240.0" fill="#0287b4" opacity="0.95" />
<polygon points="344.0,91.0 340.0,93.0 333.0,114.0 331.0,129.0 334.0,131.0 344.0,115.0 360.0,110.0 358.0,102.0" fill="#43251c" opacity="0.95" />
<polygon points="83.0,202.0 75.0,205.0 75.0,225.0 78.0,227.0 86.0,223.0 89.0,218.0 86.0,205.0" fill="#d8d461" opacity="0.95" />
<polygon points="240.0,107.0 243.0,105.0 273.0,115.0 276.0,119.0 273.0,121.0 247.0,113.0" fill="#784734" opacity="0.95" />
<polygon points="83.0,201.0 87.0,204.0 90.0,218.0 86.0,224.0 78.0,228.0 74.0,225.0 74.0,205.0" fill="#e3e29b" opacity="0.95" />
<polygon points="267.0,226.0 260.0,217.0 258.0,220.0 261.0,227.0 258.0,230.0 231.0,235.0 229.0,238.0 260.0,237.0 267.0,232.0" fill="#43251c" opacity="0.95" />
<polygon points="83.0,203.0 78.0,203.0 75.0,205.0 75.0,225.0 78.0,227.0 86.0,223.0 89.0,218.0 86.0,205.0" fill="#d8d461" opacity="0.95" />
<polygon points="232.0,90.0 225.0,95.0 221.0,106.0 222.0,112.0 227.0,116.0 230.0,115.0 233.0,106.0 231.0,100.0 234.0,91.0" fill="#936b57" opacity="0.95" />
<polygon points="116.0,274.0 103.0,277.0 81.0,288.0 102.0,282.0" fill="#0e080f" opacity="0.95" />
<polygon points="120.0,278.0 85.0,291.0 115.0,282.0" fill="#784734" />
<polygon points="313.0,132.0 317.0,129.0 324.0,131.0 329.0,129.0 333.0,132.0 333.0,134.0 326.0,139.0 322.0,139.0 315.0,136.0" fill="#784734" opacity="0.95" />
<polygon points="267.0,226.0 264.0,224.0 258.0,230.0 244.0,234.0 243.0,237.0 246.0,239.0 260.0,237.0 267.0,232.0" fill="#43251c" opacity="0.95" />
<polygon points="56.0,7.0 58.0,5.0 62.0,7.0 64.0,6.0 66.0,8.0 65.0,9.0 66.0,11.0 63.0,13.0" fill="#936b57" />
<polygon points="194.0,140.0 192.0,141.0 193.0,144.0 191.0,146.0 193.0,148.0 196.0,144.0 196.0,142.0" fill="#784734" />
<polygon points="268.0,286.0 270.0,288.0 269.0,289.0 269.0,290.0 267.0,292.0 266.0,292.0 264.0,290.0" fill="#784734" />
<polygon points="63.0,6.0 66.0,8.0 66.0,11.0 63.0,13.0 60.0,11.0 60.0,8.0" fill="#936b57" opacity="0.95" />
</svg>