<svg xmlns="http://www.w3.org/2000/svg" width="768" height="768" viewBox="0 0 384 384">
<rect width="384" height="384" fill="#8d6e65"/>
<polygon points="0.0,0.0 0.0,240.0 92.0,183.0 143.0,249.0 48.0,319.0 0.0,271.0 0.0,383.0 350.0,372.0 383.0,142.0 176.0,261.0 124.0,200.0 180.0,135.0 136.0,60.0 231.0,0.0" fill="#895c4a" />
<polygon points="0.0,0.0 0.0,240.0 91.0,183.0 143.0,249.0 48.0,319.0 0.0,271.0 0.0,383.0 351.0,371.0 383.0,142.0 177.0,261.0 124.0,200.0 179.0,136.0 136.0,60.0 230.0,0.0" fill="#895c4a" opacity="0.95" />
<polygon points="0.0,0.0 0.0,240.0 91.0,183.0 143.0,249.0 48.0,319.0 0.0,271.0 0.0,383.0 350.0,371.0 383.0,142.0 177.0,261.0 124.0,200.0 179.0,135.0 136.0,60.0 229.0,0.0" fill="#895c4a" opacity="0.95" />
<polygon points="195.0,132.0 122.0,180.0 179.0,242.0 246.0,197.0" fill="#7ec6df" />
<polygon points="267.0,84.0 195.0,131.0 247.0,197.0 322.0,145.0" fill="#69bfc1" />
<polygon points="202.0,15.0 140.0,53.0 142.0,67.0 190.0,120.0 258.0,76.0" fill="#e96f7e" />
<polygon points="92.0,184.0 70.0,209.0 26.0,226.0 23.0,239.0 0.0,241.0 0.0,260.0 41.0,304.0 139.0,240.0" fill="#e8e7e5" />
<polygon points="208.0,21.0 270.0,76.0 294.0,66.0 271.0,87.0 327.0,141.0 383.0,105.0 371.0,80.0 363.0,99.0 332.0,71.0 339.0,50.0 312.0,18.0 304.0,34.0 282.0,5.0 232.0,0.0" fill="#e58d7f" />
<polygon points="196.0,133.0 123.0,174.0 178.0,241.0 245.0,198.0" fill="#7ec6df" opacity="0.95" />
<polygon points="266.0,84.0 196.0,130.0 246.0,195.0 321.0,146.0" fill="#69bfc1" opacity="0.95" />
<polygon points="91.0,184.0 23.0,239.0 0.0,241.0 0.0,260.0 42.0,304.0 138.0,241.0" fill="#e8e7e5" opacity="0.95" />
<polygon points="201.0,15.0 140.0,53.0 143.0,68.0 190.0,119.0 257.0,77.0" fill="#e96f7e" opacity="0.95" />
<polygon points="196.0,133.0 123.0,174.0 178.0,241.0 245.0,198.0" fill="#7ec6df" opacity="0.95" />
<polygon points="383.0,124.0 186.0,254.0 125.0,200.0 187.0,260.0 382.0,142.0" fill="#5c3d32" />
<polygon points="266.0,84.0 196.0,130.0 246.0,195.0 321.0,146.0" fill="#69bfc1" opacity="0.95" />
<polygon points="209.0,20.0 328.0,141.0 383.0,105.0 373.0,82.0 363.0,99.0 332.0,71.0 338.0,49.0 316.0,22.0 304.0,34.0 272.0,0.0 231.0,0.0" fill="#e58d7f" opacity="0.95" />
<polygon points="91.0,184.0 23.0,239.0 0.0,241.0 0.0,260.0 42.0,304.0 138.0,241.0" fill="#e8e7e5" opacity="0.95" />
<polygon points="201.0,15.0 140.0,53.0 143.0,68.0 190.0,119.0 257.0,77.0" fill="#e96f7e" opacity="0.95" />
<polygon points="209.0,20.0 328.0,141.0 383.0,105.0 378.0,87.0 363.0,99.0 332.0,71.0 338.0,49.0 318.0,24.0 298.0,31.0 272.0,0.0 230.0,0.0" fill="#e58d7f" opacity="0.95" />
<polygon points="304.0,0.0 340.0,36.0 366.0,20.0 342.0,47.0 352.0,57.0 349.0,49.0 355.0,47.0 383.0,76.0 383.0,0.0" fill="#333a4d" />
<polygon points="383.0,109.0 250.0,200.0 263.0,201.0 383.0,123.0" fill="#281b19" />
<polygon points="383.0,110.0 168.0,242.0 192.0,250.0" fill="#281b19" opacity="0.95" />
<polygon points="383.0,124.0 186.0,254.0 125.0,200.0 187.0,260.0" fill="#5c3d32" opacity="0.95" />
<polygon points="383.0,252.0 370.0,257.0 378.0,291.0 362.0,326.0 368.0,343.0 357.0,355.0 345.0,352.0 356.0,364.0 334.0,383.0 383.0,383.0" fill="#5c3d32" />
<polygon points="139.0,246.0 44.0,313.0 117.0,271.0" fill="#281b19" />
<polygon points="305.0,0.0 337.0,34.0 350.0,33.0 344.0,51.0 355.0,47.0 383.0,75.0 383.0,0.0" fill="#333a4d" opacity="0.95" />
<polygon points="383.0,124.0 186.0,254.0 125.0,200.0 187.0,260.0 382.0,142.0" fill="#5c3d32" opacity="0.95" />
<polygon points="247.0,202.0 179.0,248.0 167.0,240.0 175.0,250.0 189.0,252.0 239.0,219.0" fill="#281b19" />
<polygon points="305.0,0.0 337.0,34.0 347.0,36.0 344.0,51.0 355.0,47.0 383.0,75.0 383.0,0.0" fill="#333a4d" opacity="0.95" />
<polygon points="143.0,71.0 139.0,77.0 142.0,90.0 181.0,134.0 190.0,134.0 194.0,122.0 171.0,108.0 174.0,104.0 167.0,103.0 169.0,98.0" fill="#5c3d32" />
<polygon points="383.0,252.0 374.0,256.0 377.0,292.0 362.0,326.0 366.0,348.0 346.0,350.0 356.0,364.0 334.0,383.0 383.0,383.0" fill="#5c3d32" opacity="0.95" />
<polygon points="260.0,81.0 252.0,81.0 193.0,120.0 198.0,123.0" fill="#572211" />
<polygon points="142.0,249.0 50.0,315.0 0.0,270.0 48.0,318.0" fill="#5c3d32" />
<polygon points="139.0,250.0 45.0,313.0 107.0,278.0" fill="#281b19" opacity="0.95" />
<polygon points="141.0,73.0 139.0,84.0 179.0,132.0 192.0,132.0 192.0,123.0 168.0,104.0 169.0,98.0 146.0,73.0" fill="#5c3d32" opacity="0.95" />
<polygon points="136.0,245.0 46.0,304.0 32.0,297.0 42.0,310.0" fill="#94908c" />
<polygon points="383.0,252.0 374.0,257.0 377.0,292.0 362.0,326.0 368.0,344.0 359.0,354.0 346.0,351.0 356.0,364.0 334.0,383.0 383.0,383.0" fill="#5c3d32" opacity="0.95" />
<polygon points="352.0,47.0 350.0,50.0 358.0,62.0 383.0,89.0 383.0,77.0" fill="#281b19" />
<polygon points="300.0,0.0 340.0,49.0 345.0,39.0 367.0,22.0 340.0,37.0" fill="#281b19" />
<polygon points="356.0,71.0 350.0,75.0 349.0,83.0 359.0,90.0 366.0,86.0 368.0,80.0 364.0,73.0" fill="#e8e7e5" />
<polygon points="142.0,73.0 139.0,84.0 179.0,132.0 189.0,131.0 192.0,124.0 169.0,106.0 169.0,98.0" fill="#5c3d32" opacity="0.95" />
<polygon points="259.0,81.0 252.0,81.0 194.0,121.0 201.0,121.0" fill="#572211" opacity="0.95" />
<polygon points="339.0,52.0 332.0,56.0 331.0,64.0 335.0,69.0 342.0,71.0 349.0,66.0 350.0,61.0 344.0,53.0" fill="#e8e7e5" />
<polygon points="291.0,0.0 285.0,6.0 284.0,11.0 289.0,17.0 292.0,16.0 295.0,19.0 299.0,19.0 303.0,15.0 303.0,8.0 296.0,0.0" fill="#e8e7e5" />
<polygon points="257.0,82.0 194.0,121.0 201.0,121.0" fill="#572211" opacity="0.95" />
<polygon points="222.0,29.0 220.0,32.0 226.0,33.0 270.0,79.0 239.0,43.0" fill="#895c4a" />
<polygon points="351.0,48.0 351.0,52.0 358.0,62.0 383.0,88.0 383.0,76.0 355.0,48.0" fill="#281b19" opacity="0.95" />
<polygon points="278.0,92.0 277.0,94.0 312.0,128.0 313.0,127.0 289.0,101.0" fill="#895c4a" />
<polygon points="0.0,261.0 0.0,264.0 20.0,287.0 20.0,281.0 2.0,261.0" fill="#c3bcb8" />
<polygon points="356.0,71.0 350.0,75.0 349.0,83.0 359.0,90.0 366.0,86.0 367.0,77.0 364.0,73.0" fill="#e8e7e5" opacity="0.95" />
<polygon points="339.0,52.0 332.0,56.0 331.0,64.0 335.0,69.0 342.0,71.0 349.0,66.0 350.0,61.0 344.0,53.0" fill="#e8e7e5" opacity="0.95" />
<polygon points="352.0,49.0 351.0,52.0 358.0,62.0 383.0,88.0 383.0,76.0 356.0,49.0" fill="#281b19" opacity="0.95" />
<polygon points="308.0,9.0 331.0,33.0 337.0,46.0 341.0,46.0 349.0,33.0 337.0,35.0 312.0,9.0" fill="#281b19" opacity="0.95" />
<polygon points="311.0,17.0 306.0,18.0 307.0,24.0 304.0,27.0 293.0,26.0 301.0,32.0 309.0,33.0 312.0,30.0" fill="#e96f7e" />
<polygon points="22.0,227.0 20.0,226.0 17.0,228.0 14.0,227.0 10.0,234.0 14.0,238.0 17.0,237.0 24.0,232.0" fill="#333a4d" />
<polygon points="70.0,196.0 66.0,199.0 64.0,198.0 60.0,203.0 62.0,208.0 70.0,204.0 73.0,201.0" fill="#333a4d" />
<polygon points="290.0,0.0 284.0,8.0 285.0,13.0 288.0,15.0 291.0,13.0 296.0,19.0 301.0,18.0 303.0,15.0 303.0,8.0 297.0,0.0" fill="#e8e7e5" opacity="0.95" />
<polygon points="217.0,219.0 188.0,237.0 193.0,236.0" fill="#24656b" />
<polygon points="339.0,52.0 332.0,56.0 331.0,64.0 338.0,70.0 342.0,71.0 349.0,66.0 350.0,61.0 344.0,53.0" fill="#e8e7e5" opacity="0.95" />
<polygon points="372.0,88.0 370.0,86.0 363.0,94.0 360.0,94.0 359.0,95.0 363.0,98.0 370.0,98.0 372.0,96.0 372.0,93.0 373.0,92.0 372.0,91.0" fill="#e96f7e" />
<polygon points="306.0,24.0 305.0,18.0 301.0,22.0 296.0,23.0 289.0,19.0 287.0,20.0 291.0,24.0 304.0,26.0" fill="#895c4a" />
<polygon points="260.0,87.0 258.0,85.0 249.0,91.0 251.0,93.0" fill="#895c4a" />
<polygon points="311.0,20.0 307.0,20.0 307.0,24.0 305.0,26.0 297.0,27.0 297.0,29.0 304.0,33.0 311.0,32.0" fill="#e96f7e" opacity="0.95" />
<polygon points="23.0,228.0 20.0,226.0 17.0,228.0 16.0,227.0 13.0,228.0 13.0,230.0 11.0,231.0 11.0,235.0 15.0,238.0 24.0,232.0" fill="#333a4d" opacity="0.95" />
<polygon points="72.0,198.0 69.0,197.0 66.0,199.0 65.0,198.0 63.0,199.0 60.0,205.0 64.0,207.0 72.0,202.0" fill="#333a4d" opacity="0.95" />
<polygon points="73.0,204.0 72.0,203.0 67.0,207.0 64.0,208.0 62.0,211.0 63.0,212.0 70.0,208.0" fill="#c3bcb8" />
<polygon points="278.0,2.0 279.0,3.0 284.0,3.0 285.0,4.0 286.0,4.0 290.0,0.0 279.0,0.0 279.0,1.0" fill="#c3bcb8" />
<polygon points="23.0,228.0 20.0,226.0 17.0,228.0 16.0,227.0 14.0,228.0 11.0,232.0 11.0,235.0 15.0,238.0 24.0,232.0" fill="#333a4d" opacity="0.95" />
<polygon points="372.0,88.0 370.0,87.0 368.0,88.0 366.0,92.0 361.0,95.0 361.0,97.0 363.0,98.0 371.0,97.0 372.0,96.0" fill="#e96f7e" opacity="0.95" />
<polygon points="41.0,214.0 40.0,213.0 39.0,214.0 36.0,214.0 31.0,219.0 31.0,220.0 32.0,221.0 34.0,220.0" fill="#94908c" />
<polygon points="72.0,199.0 69.0,197.0 63.0,200.0 60.0,203.0 60.0,205.0 64.0,207.0 70.0,204.0 72.0,202.0" fill="#333a4d" opacity="0.95" />
<polygon points="353.0,59.0 352.0,60.0 353.0,62.0 360.0,69.0 362.0,70.0 363.0,69.0" fill="#895c4a" />
<polygon points="139.0,57.0 138.0,58.0 138.0,62.0 139.0,63.0 141.0,63.0 142.0,62.0 142.0,59.0 140.0,57.0" fill="#e58d7f" />
<polygon points="312.0,25.0 309.0,23.0 301.0,29.0 301.0,31.0 304.0,33.0 310.0,32.0 312.0,30.0" fill="#e96f7e" opacity="0.95" />
<polygon points="176.0,108.0 175.0,109.0 183.0,118.0 184.0,117.0 182.0,115.0 182.0,114.0" fill="#572211" />
<polygon points="369.0,89.0 363.0,94.0 363.0,96.0 366.0,98.0 369.0,98.0 372.0,96.0 372.0,91.0" fill="#e96f7e" opacity="0.95" />
<polygon points="353.0,65.0 352.0,66.0 352.0,67.0 351.0,68.0 351.0,70.0 350.0,71.0 351.0,72.0 355.0,69.0 355.0,67.0" fill="#e96f7e" />
<polygon points="350.0,88.0 355.0,93.0 357.0,94.0 359.0,93.0 357.0,91.0 354.0,90.0 351.0,87.0" fill="#895c4a" />
<polygon points="279.0,0.0 279.0,2.0 281.0,3.0 284.0,3.0 285.0,4.0 289.0,1.0 289.0,0.0" fill="#c3bcb8" opacity="0.95" />
<polygon points="9.0,273.0 9.0,275.0 15.0,279.0 16.0,283.0 18.0,284.0 20.0,283.0 20.0,281.0 15.0,278.0 15.0,275.0 11.0,272.0" fill="#c3bcb8" opacity="0.95" />
<polygon points="306.0,21.0 304.0,20.0 299.0,23.0 299.0,25.0 301.0,26.0 305.0,25.0 306.0,24.0" fill="#895c4a" opacity="0.95" />
<polygon points="279.0,0.0 280.0,2.0 282.0,3.0 284.0,3.0 285.0,4.0 289.0,1.0 289.0,0.0" fill="#c3bcb8" opacity="0.95" />
<polygon points="38.0,306.0 38.0,308.0 41.0,310.0 45.0,308.0 45.0,306.0 43.0,305.0 42.0,306.0 40.0,305.0" fill="#94908c" opacity="0.95" />
</svg>