<svg xmlns="http://www.w3.org/2000/svg" width="768" height="768" viewBox="0 0 384 384">
<rect width="384" height="384" fill="#8f6258"/>
<polygon points="0.0,0.0 0.0,318.0 134.0,321.0 2.0,324.0 0.0,383.0 383.0,383.0 383.0,0.0" fill="#93584d" />
<polygon points="0.0,0.0 0.0,383.0 383.0,383.0 383.0,0.0" fill="#93584d" opacity="0.95" />
<polygon points="0.0,0.0 0.0,383.0 383.0,383.0 383.0,0.0" fill="#93584d" opacity="0.95" />
<polygon points="134.0,129.0 184.0,99.0 236.0,114.0 268.0,203.0 338.0,315.0 363.0,322.0 251.0,323.0 246.0,359.0 128.0,191.0" fill="#93584d" />
<polygon points="260.0,177.0 219.0,228.0 146.0,217.0 246.0,358.0 251.0,318.0 341.0,311.0" fill="#69352f" />
<polygon points="134.0,128.0 184.0,99.0 236.0,114.0 345.0,322.0 252.0,323.0 244.0,356.0 129.0,193.0" fill="#93584d" opacity="0.95" />
<polygon points="134.0,129.0 184.0,99.0 236.0,114.0 343.0,321.0 253.0,323.0 244.0,355.0 127.0,192.0" fill="#93584d" opacity="0.95" />
<polygon points="261.0,180.0 219.0,228.0 150.0,222.0 246.0,356.0 252.0,319.0 340.0,312.0" fill="#69352f" opacity="0.95" />
<polygon points="204.0,116.0 198.0,161.0 235.0,194.0 149.0,146.0 132.0,157.0 143.0,203.0 179.0,226.0 226.0,218.0 253.0,181.0 254.0,158.0" fill="#76e9e4" />
<polygon points="261.0,180.0 219.0,228.0 152.0,224.0 246.0,355.0 253.0,318.0 340.0,312.0" fill="#69352f" opacity="0.95" />
<polygon points="204.0,116.0 198.0,161.0 236.0,193.0 150.0,147.0 132.0,157.0 143.0,203.0 179.0,226.0 226.0,218.0 253.0,181.0 254.0,158.0" fill="#76e9e4" opacity="0.95" />
<polygon points="204.0,116.0 198.0,161.0 235.0,193.0 150.0,147.0 131.0,162.0 143.0,203.0 179.0,226.0 226.0,218.0 253.0,181.0 236.0,135.0" fill="#76e9e4" opacity="0.95" />
<polygon points="184.0,116.0 168.0,122.0 153.0,136.0 188.0,158.0 189.0,118.0" fill="#76e9e4" />
<polygon points="188.0,106.0 171.0,108.0 154.0,118.0 140.0,134.0 133.0,154.0 140.0,157.0 149.0,137.0 169.0,120.0 188.0,114.0" fill="#409aa1" />
<polygon points="184.0,116.0 162.0,126.0 154.0,137.0 187.0,157.0 189.0,118.0" fill="#76e9e4" opacity="0.95" />
<polygon points="245.0,125.0 212.0,102.0 168.0,104.0 136.0,130.0 127.0,177.0 139.0,133.0 170.0,107.0 207.0,104.0" fill="#6b5c59" />
<polygon points="197.0,106.0 198.0,114.0 221.0,121.0 241.0,140.0 248.0,140.0 228.0,115.0 209.0,106.0" fill="#409aa1" />
<polygon points="204.0,168.0 196.0,161.0 195.0,132.0 190.0,134.0 188.0,159.0 150.0,138.0 191.0,171.0" fill="#090810" />
<polygon points="255.0,144.0 254.0,183.0 235.0,213.0 204.0,228.0 167.0,226.0 198.0,232.0 236.0,217.0 257.0,184.0" fill="#090810" />
<polygon points="184.0,116.0 168.0,122.0 154.0,136.0 186.0,156.0 189.0,154.0 189.0,118.0" fill="#76e9e4" opacity="0.95" />
<polygon points="130.0,178.0 131.0,193.0 142.0,211.0 165.0,226.0 141.0,202.0" fill="#24242a" />
<polygon points="188.0,106.0 171.0,108.0 154.0,118.0 140.0,134.0 133.0,154.0 142.0,156.0 149.0,136.0 169.0,120.0 188.0,114.0" fill="#409aa1" opacity="0.95" />
<polygon points="199.0,167.0 196.0,134.0 190.0,134.0 187.0,158.0 153.0,140.0 190.0,170.0" fill="#090810" opacity="0.95" />
<polygon points="197.0,106.0 197.0,113.0 221.0,121.0 240.0,139.0 247.0,140.0 240.0,126.0 228.0,115.0 209.0,106.0" fill="#409aa1" opacity="0.95" />
<polygon points="189.0,108.0 174.0,107.0 154.0,118.0 140.0,134.0 133.0,154.0 141.0,156.0 149.0,137.0 169.0,120.0 188.0,114.0" fill="#409aa1" opacity="0.95" />
<polygon points="200.0,171.0 233.0,193.0 236.0,191.0" fill="#256a70" />
<polygon points="194.0,106.0 190.0,108.0 190.0,131.0 191.0,132.0 194.0,132.0 196.0,130.0 196.0,108.0" fill="#24242a" />
<polygon points="206.0,172.0 237.0,189.0 208.0,170.0" fill="#24242a" />
<polygon points="197.0,107.0 198.0,113.0 221.0,121.0 241.0,139.0 246.0,138.0 240.0,126.0 225.0,113.0 205.0,105.0" fill="#409aa1" opacity="0.95" />
<polygon points="153.0,145.0 155.0,149.0 185.0,167.0 184.0,163.0 167.0,152.0 164.0,153.0 155.0,144.0" fill="#409aa1" />
<polygon points="238.0,213.0 196.0,231.0 219.0,227.0" fill="#090810" opacity="0.95" />
<polygon points="186.0,101.0 168.0,104.0 152.0,113.0 134.0,136.0 156.0,115.0" fill="#6b5c59" opacity="0.95" />
<polygon points="201.0,101.0 241.0,122.0 228.0,109.0" fill="#6b5c59" opacity="0.95" />
<polygon points="128.0,181.0 142.0,211.0 158.0,221.0 137.0,197.0 132.0,181.0" fill="#24242a" opacity="0.95" />
<polygon points="243.0,141.0 242.0,142.0 249.0,155.0 252.0,156.0 253.0,153.0 249.0,142.0" fill="#62c4c3" />
<polygon points="251.0,301.0 254.0,304.0 254.0,315.0 251.0,318.0 249.0,316.0 249.0,303.0" fill="#69352f" />
<polygon points="251.0,270.0 254.0,273.0 252.0,276.0 254.0,278.0 254.0,293.0 251.0,296.0 249.0,294.0 249.0,277.0 250.0,276.0 249.0,272.0" fill="#69352f" />
<polygon points="246.0,127.0 244.0,130.0 250.0,142.0 253.0,143.0 254.0,141.0 252.0,136.0" fill="#24242a" />
<polygon points="191.0,173.0 194.0,177.0 199.0,180.0 202.0,180.0 205.0,177.0 204.0,174.0 200.0,174.0 196.0,171.0" fill="#409aa1" />
<polygon points="194.0,106.0 190.0,108.0 190.0,131.0 192.0,132.0 196.0,131.0 196.0,107.0" fill="#24242a" opacity="0.95" />
<polygon points="193.0,133.0 190.0,135.0 190.0,158.0 187.0,161.0 188.0,168.0 192.0,171.0 196.0,170.0 199.0,166.0 196.0,161.0 196.0,135.0" fill="#090810" opacity="0.95" />
<polygon points="193.0,106.0 190.0,108.0 190.0,130.0 193.0,132.0 196.0,130.0 196.0,108.0" fill="#24242a" opacity="0.95" />
<polygon points="166.0,154.0 167.0,157.0 183.0,167.0 185.0,166.0 185.0,164.0 168.0,153.0" fill="#409aa1" opacity="0.95" />
<polygon points="134.0,140.0 131.0,141.0 127.0,154.0 126.0,173.0 128.0,174.0 130.0,173.0 129.0,158.0 135.0,143.0" fill="#6b5c59" opacity="0.95" />
<polygon points="246.0,142.0 244.0,143.0 244.0,146.0 249.0,155.0 251.0,156.0 253.0,155.0 251.0,146.0 249.0,143.0" fill="#62c4c3" opacity="0.95" />
<polygon points="192.0,173.0 192.0,175.0 199.0,180.0 201.0,180.0 205.0,177.0 205.0,175.0 200.0,174.0 197.0,172.0" fill="#409aa1" opacity="0.95" />
<polygon points="170.0,226.0 170.0,228.0 175.0,230.0 188.0,231.0 186.0,228.0 183.0,229.0 172.0,225.0" fill="#090810" opacity="0.95" />
<polygon points="131.0,319.0 134.0,321.0 134.0,323.0 131.0,325.0 128.0,323.0 128.0,321.0" fill="#93584d" opacity="0.95" />
<polygon points="363.0,322.0 365.0,320.0 366.0,321.0 367.0,321.0 368.0,320.0 370.0,322.0 368.0,324.0 367.0,323.0 366.0,323.0 365.0,324.0" fill="#93584d" />
<polygon points="150.0,141.0 149.0,142.0 148.0,142.0 147.0,143.0 147.0,144.0 151.0,147.0 152.0,146.0 152.0,145.0 151.0,144.0 152.0,143.0" fill="#62c4c3" />
<polygon points="249.0,133.0 247.0,134.0 247.0,136.0 248.0,138.0 250.0,139.0 252.0,138.0 252.0,136.0 251.0,134.0" fill="#24242a" opacity="0.95" />
<polygon points="247.0,142.0 244.0,144.0 244.0,146.0 247.0,148.0 250.0,146.0 250.0,144.0" fill="#62c4c3" opacity="0.95" />
</svg>