<svg xmlns="http://www.w3.org/2000/svg" width="768" height="768" viewBox="0 0 384 384">
<rect width="384" height="384" fill="#8c685a"/>
<polygon points="35.0,76.0 0.0,171.0 43.0,308.0 148.0,320.0 191.0,256.0 124.0,73.0 273.0,70.0 205.0,254.0 250.0,319.0 367.0,293.0 383.0,129.0 318.0,33.0 154.0,0.0" fill="#a26b59" />
<polygon points="115.0,13.0 17.0,113.0 19.0,277.0 121.0,383.0 273.0,383.0 371.0,286.0 383.0,127.0 282.0,13.0" fill="#a26b59" opacity="0.95" />
<polygon points="35.0,76.0 6.0,204.0 43.0,308.0 147.0,320.0 192.0,254.0 130.0,64.0 151.0,105.0 273.0,70.0 206.0,252.0 250.0,319.0 367.0,293.0 383.0,129.0 318.0,33.0 153.0,0.0" fill="#a26b59" opacity="0.95" />
<polygon points="153.0,0.0 0.0,0.0 4.0,166.0 22.0,99.0 53.0,54.0" fill="#795045" />
<polygon points="47.0,327.0 122.0,383.0 270.0,383.0 346.0,330.0 251.0,326.0 241.0,359.0 186.0,368.0 148.0,352.0 147.0,326.0" fill="#a26b59" />
<polygon points="125.0,70.0 139.0,171.0 196.0,170.0 198.0,110.0 201.0,171.0 259.0,170.0 271.0,69.0 251.0,70.0 246.0,106.0 151.0,106.0 145.0,70.0" fill="#3b6561" />
<polygon points="137.0,173.0 155.0,209.0 184.0,212.0 243.0,208.0 260.0,175.0" fill="#84f0ee" />
<polygon points="131.0,64.0 152.0,105.0 244.0,105.0 248.0,67.0 273.0,71.0 260.0,180.0 206.0,252.0 256.0,322.0 233.0,363.0 146.0,348.0 192.0,252.0 135.0,173.0" fill="#a26b59" opacity="0.95" />
<polygon points="245.0,0.0 304.0,23.0 340.0,51.0 383.0,128.0 383.0,0.0" fill="#795045" />
<polygon points="146.0,70.0 151.0,105.0 247.0,104.0 249.0,69.0" fill="#a26b59" />
<polygon points="0.0,328.0 0.0,383.0 121.0,383.0 70.0,355.0 44.0,326.0" fill="#795045" />
<polygon points="125.0,70.0 138.0,170.0 259.0,170.0 272.0,70.0 251.0,70.0 245.0,106.0 151.0,106.0 145.0,70.0" fill="#3b6561" opacity="0.95" />
<polygon points="152.0,0.0 0.0,0.0 0.0,162.0 53.0,54.0" fill="#795045" opacity="0.95" />
<polygon points="383.0,326.0 348.0,326.0 314.0,362.0 271.0,383.0 383.0,383.0" fill="#795045" />
<polygon points="147.0,335.0 153.0,356.0 188.0,367.0 226.0,364.0 251.0,346.0 247.0,323.0 217.0,310.0 202.0,310.0 200.0,328.0 197.0,309.0 163.0,315.0" fill="#021a22" />
<polygon points="47.0,327.0 122.0,383.0 271.0,383.0 345.0,331.0 252.0,326.0 241.0,359.0 186.0,368.0 148.0,352.0 146.0,326.0" fill="#a26b59" opacity="0.95" />
<polygon points="152.0,0.0 0.0,0.0 0.0,150.0 56.0,51.0" fill="#795045" opacity="0.95" />
<polygon points="137.0,173.0 153.0,207.0 184.0,212.0 242.0,208.0 260.0,175.0" fill="#84f0ee" opacity="0.95" />
<polygon points="158.0,211.0 191.0,246.0 207.0,245.0 239.0,211.0" fill="#015961" />
<polygon points="126.0,71.0 139.0,170.0 260.0,168.0 270.0,70.0 251.0,71.0 246.0,105.0 199.0,108.0 150.0,105.0 145.0,71.0" fill="#3b6561" opacity="0.95" />
<polygon points="246.0,0.0 304.0,23.0 340.0,51.0 383.0,128.0 383.0,0.0" fill="#795045" opacity="0.95" />
<polygon points="0.0,328.0 0.0,383.0 121.0,383.0 70.0,355.0 43.0,326.0" fill="#795045" opacity="0.95" />
<polygon points="147.0,335.0 153.0,356.0 188.0,367.0 226.0,364.0 251.0,346.0 247.0,323.0 217.0,310.0 163.0,315.0" fill="#021a22" opacity="0.95" />
<polygon points="4.0,172.0 0.0,318.0 79.0,319.0 43.0,309.0 20.0,281.0 8.0,248.0" fill="#795045" />
<polygon points="248.0,320.0 232.0,285.0 205.0,258.0 200.0,278.0 187.0,266.0 151.0,316.0 152.0,322.0 197.0,308.0 200.0,298.0 205.0,309.0" fill="#3b6561" />
<polygon points="0.0,234.0 0.0,383.0 120.0,383.0 42.0,323.0 57.0,316.0 32.0,300.0" fill="#795045" opacity="0.95" />
<polygon points="138.0,174.0 153.0,207.0 184.0,212.0 241.0,208.0 259.0,178.0 256.0,172.0" fill="#84f0ee" opacity="0.95" />
<polygon points="147.0,335.0 153.0,356.0 188.0,367.0 226.0,364.0 251.0,346.0 247.0,323.0 217.0,310.0 163.0,315.0" fill="#021a22" opacity="0.95" />
<polygon points="247.0,315.0 232.0,285.0 206.0,259.0 198.0,268.0 186.0,267.0 151.0,319.0 199.0,306.0" fill="#3b6561" opacity="0.95" />
<polygon points="247.0,315.0 232.0,285.0 207.0,260.0 187.0,267.0 152.0,311.0 155.0,319.0 198.0,306.0" fill="#3b6561" opacity="0.95" />
<polygon points="160.0,211.0 191.0,245.0 208.0,244.0 237.0,213.0 235.0,210.0 215.0,213.0" fill="#015961" opacity="0.95" />
<polygon points="0.0,325.0 150.0,322.0 0.0,321.0" fill="#e6ebe9" />
<polygon points="236.0,212.0 164.0,211.0 161.0,215.0 189.0,244.0 206.0,245.0" fill="#015961" opacity="0.95" />
<polygon points="249.0,322.0 383.0,324.0 383.0,321.0" fill="#e6ebe9" />
<polygon points="187.0,261.0 165.0,285.0 157.0,299.0 158.0,302.0 179.0,279.0" fill="#e6ebe9" />
<polygon points="184.0,268.0 180.0,268.0 171.0,277.0 159.0,297.0 163.0,297.0 173.0,287.0" fill="#e6ebe9" opacity="0.95" />
<polygon points="175.0,65.0 183.0,61.0 196.0,62.0 200.0,64.0 201.0,67.0 198.0,69.0 178.0,69.0 175.0,67.0" fill="#a26b59" opacity="0.95" />
<polygon points="199.0,280.0 201.0,282.0 201.0,296.0 199.0,298.0 197.0,296.0 197.0,282.0" fill="#3b6561" />
<polygon points="180.0,272.0 176.0,272.0 161.0,291.0 162.0,294.0 166.0,294.0 173.0,287.0 181.0,275.0" fill="#e6ebe9" opacity="0.95" />
<polygon points="191.0,247.0 194.0,250.0 199.0,246.0 202.0,249.0 200.0,254.0 201.0,255.0 206.0,247.0 204.0,245.0 199.0,246.0 193.0,245.0" fill="#38bebd" />
<polygon points="179.0,64.0 183.0,61.0 187.0,62.0 188.0,61.0 192.0,64.0 192.0,66.0 188.0,69.0 187.0,68.0 183.0,69.0 179.0,66.0" fill="#a26b59" opacity="0.95" />
<polygon points="228.0,224.0 220.0,232.0 221.0,233.0 229.0,225.0" fill="#e6ebe9" />
<polygon points="194.0,257.0 189.0,262.0 188.0,264.0 189.0,265.0 191.0,265.0 192.0,264.0 194.0,264.0 195.0,265.0 196.0,264.0 195.0,263.0 195.0,258.0" fill="#015961" />
<polygon points="128.0,66.0 128.0,67.0 129.0,68.0 135.0,68.0 136.0,67.0 136.0,66.0 135.0,65.0 129.0,65.0" fill="#c0a698" />
<polygon points="199.0,247.0 198.0,248.0 197.0,248.0 195.0,250.0 195.0,251.0 196.0,252.0 198.0,252.0 199.0,253.0 201.0,251.0 201.0,249.0" fill="#84f0ee" />
<polygon points="195.0,260.0 193.0,259.0 191.0,260.0 189.0,262.0 189.0,264.0 191.0,265.0 195.0,263.0" fill="#015961" opacity="0.95" />
</svg>