<svg xmlns="http://www.w3.org/2000/svg" width="768" height="768" viewBox="0 0 384 384">
<rect width="384" height="384" fill="#886762"/>
<polygon points="0.0,127.0 13.0,320.0 130.0,320.0 180.0,228.0 216.0,267.0 252.0,258.0 246.0,166.0 137.0,129.0" fill="#a88c81" />
<polygon points="350.0,81.0 315.0,129.0 138.0,129.0 256.0,177.0 253.0,258.0 207.0,264.0 250.0,281.0 242.0,311.0 217.0,294.0 229.0,324.0 376.0,319.0" fill="#82655b" />
<polygon points="0.0,127.0 0.0,296.0 24.0,321.0 0.0,325.0 0.0,383.0 162.0,383.0 133.0,287.0 180.0,228.0 217.0,267.0 252.0,259.0 252.0,173.0 136.0,129.0" fill="#a88c81" opacity="0.95" />
<polygon points="0.0,127.0 0.0,296.0 24.0,320.0 0.0,325.0 0.0,383.0 162.0,383.0 133.0,287.0 182.0,229.0 217.0,267.0 251.0,258.0 252.0,173.0 136.0,129.0" fill="#a88c81" opacity="0.95" />
<polygon points="350.0,82.0 314.0,129.0 140.0,129.0 256.0,177.0 253.0,259.0 209.0,265.0 251.0,284.0 227.0,322.0 327.0,322.0 309.0,366.0 219.0,371.0 383.0,383.0" fill="#82655b" opacity="0.95" />
<polygon points="0.0,325.0 0.0,383.0 163.0,383.0 160.0,377.0 169.0,371.0 148.0,354.0 132.0,325.0" fill="#a88c81" />
<polygon points="349.0,83.0 315.0,129.0 144.0,130.0 256.0,177.0 253.0,258.0 209.0,267.0 251.0,284.0 227.0,322.0 321.0,323.0 311.0,365.0 224.0,372.0 383.0,383.0" fill="#82655b" opacity="0.95" />
<polygon points="0.0,41.0 0.0,95.0 28.0,105.0 1.0,126.0 225.0,125.0 56.0,105.0 127.0,85.0 54.0,80.0 54.0,44.0" fill="#4d3e3d" />
<polygon points="194.0,283.0 157.0,316.0 174.0,358.0 169.0,376.0 225.0,383.0 207.0,372.0 234.0,351.0 218.0,334.0 211.0,284.0" fill="#2a2830" />
<polygon points="54.0,100.0 321.0,124.0 269.0,101.0 152.0,108.0 120.0,58.0 128.0,95.0" fill="#2a2830" />
<polygon points="383.0,342.0 372.0,325.0 310.0,330.0 321.0,350.0 309.0,366.0 215.0,370.0 383.0,383.0" fill="#82655b" />
<polygon points="18.0,33.0 118.0,33.0 133.0,7.0 149.0,0.0 25.0,0.0 23.0,20.0 29.0,28.0" fill="#82655b" />
<polygon points="46.0,40.0 56.0,45.0 58.0,53.0 52.0,78.0 125.0,83.0 116.0,39.0" fill="#82655b" />
<polygon points="228.0,363.0 309.0,365.0 320.0,350.0 309.0,330.0 318.0,326.0 251.0,325.0 241.0,350.0" fill="#a88c81" />
<polygon points="317.0,0.0 319.0,30.0 359.0,36.0 333.0,41.0 364.0,126.0 346.0,131.0 382.0,210.0 383.0,85.0 358.0,49.0 378.0,36.0 357.0,28.0 357.0,0.0" fill="#4d3e3d" />
<polygon points="25.0,0.0 23.0,33.0 55.0,36.0 52.0,78.0 125.0,84.0 117.0,40.0 55.0,35.0 117.0,33.0 149.0,0.0" fill="#82655b" opacity="0.95" />
<polygon points="0.0,41.0 0.0,95.0 23.0,103.0 1.0,126.0 166.0,122.0 56.0,105.0 128.0,87.0 54.0,80.0 54.0,44.0" fill="#4d3e3d" opacity="0.95" />
<polygon points="25.0,0.0 27.0,32.0 56.0,37.0 52.0,78.0 124.0,83.0 113.0,35.0 149.0,0.0" fill="#82655b" opacity="0.95" />
<polygon points="229.0,0.0 236.0,32.0 258.0,34.0 255.0,25.0 275.0,16.0 294.0,36.0 358.0,36.0 319.0,31.0 316.0,0.0" fill="#82655b" />
<polygon points="205.0,281.0 169.0,298.0 157.0,316.0 174.0,358.0 169.0,376.0 181.0,383.0 224.0,383.0 208.0,371.0 234.0,357.0 218.0,334.0" fill="#2a2830" opacity="0.95" />
<polygon points="55.0,100.0 318.0,124.0 274.0,107.0 153.0,108.0 121.0,60.0 129.0,94.0" fill="#2a2830" opacity="0.95" />
<polygon points="164.0,40.0 169.0,67.0 180.0,71.0 190.0,97.0 202.0,98.0 230.0,74.0 228.0,50.0 206.0,67.0 170.0,33.0" fill="#ed2846" />
<polygon points="229.0,364.0 309.0,365.0 319.0,351.0 312.0,326.0 252.0,325.0" fill="#a88c81" opacity="0.95" />
<polygon points="0.0,0.0 0.0,95.0 21.0,103.0 0.0,125.0 118.0,121.0 54.0,102.0 128.0,87.0 52.0,79.0 55.0,45.0 17.0,38.0 24.0,0.0" fill="#4d3e3d" opacity="0.95" />
<polygon points="358.0,0.0 358.0,28.0 379.0,36.0 359.0,43.0 379.0,84.0 383.0,81.0 383.0,0.0" fill="#2a2830" />
<polygon points="317.0,0.0 318.0,29.0 345.0,35.0 334.0,43.0 362.0,124.0 348.0,134.0 380.0,205.0 383.0,85.0 358.0,49.0 375.0,35.0 358.0,29.0 357.0,0.0" fill="#4d3e3d" opacity="0.95" />
<polygon points="205.0,281.0 171.0,297.0 157.0,316.0 174.0,358.0 169.0,376.0 179.0,383.0 224.0,383.0 210.0,371.0 234.0,357.0 218.0,334.0" fill="#2a2830" opacity="0.95" />
<polygon points="317.0,0.0 318.0,29.0 338.0,36.0 361.0,125.0 348.0,134.0 382.0,204.0 383.0,85.0 358.0,49.0 370.0,35.0 358.0,29.0 357.0,0.0" fill="#4d3e3d" opacity="0.95" />
<polygon points="231.0,363.0 294.0,368.0 311.0,364.0 319.0,349.0 307.0,325.0 253.0,325.0" fill="#a88c81" opacity="0.95" />
<polygon points="229.0,0.0 236.0,32.0 256.0,34.0 257.0,23.0 276.0,18.0 295.0,35.0 344.0,37.0 317.0,29.0 316.0,0.0" fill="#82655b" opacity="0.95" />
<polygon points="119.0,53.0 152.0,107.0 198.0,109.0 216.0,96.0 191.0,107.0 172.0,81.0 160.0,105.0 150.0,100.0 138.0,57.0 159.0,54.0 154.0,31.0 144.0,28.0" fill="#491b29" />
<polygon points="165.0,39.0 169.0,67.0 180.0,71.0 188.0,96.0 202.0,98.0 230.0,74.0 229.0,51.0 206.0,67.0 172.0,37.0" fill="#ed2846" opacity="0.95" />
<polygon points="283.0,22.0 265.0,35.0 265.0,61.0 272.0,65.0 285.0,56.0 297.0,60.0 290.0,47.0 291.0,32.0 283.0,27.0" fill="#f3edeb" />
<polygon points="208.0,372.0 226.0,383.0 306.0,383.0 271.0,376.0" fill="#4d3e3d" />
<polygon points="0.0,0.0 0.0,31.0 2.0,33.0 13.0,33.0 27.0,29.0 28.0,27.0 22.0,20.0 24.0,0.0" fill="#4d3e3d" />
<polygon points="245.0,275.0 239.0,281.0 229.0,281.0 218.0,289.0 223.0,303.0 232.0,311.0 242.0,310.0 250.0,294.0 250.0,284.0" fill="#a88c81" />
<polygon points="163.0,40.0 158.0,41.0 158.0,56.0 148.0,59.0 141.0,53.0 139.0,57.0 149.0,74.0 150.0,98.0 155.0,104.0 169.0,93.0 172.0,80.0 181.0,80.0 179.0,71.0 168.0,67.0" fill="#970a27" />
<polygon points="285.0,60.0 272.0,78.0 291.0,76.0 284.0,99.0 292.0,104.0 291.0,87.0 307.0,82.0 317.0,110.0 336.0,69.0 306.0,64.0 313.0,73.0 299.0,84.0" fill="#491b29" />
<polygon points="358.0,0.0 359.0,29.0 376.0,35.0 359.0,42.0 359.0,49.0 380.0,83.0 383.0,0.0" fill="#2a2830" opacity="0.95" />
<polygon points="382.0,249.0 377.0,257.0 370.0,300.0 370.0,315.0 377.0,319.0 383.0,318.0" fill="#4d3e3d" />
<polygon points="56.0,100.0 132.0,118.0 200.0,115.0 171.0,103.0 151.0,107.0 138.0,73.0 123.0,62.0 128.0,94.0" fill="#2a2830" opacity="0.95" />
<polygon points="165.0,39.0 169.0,67.0 180.0,71.0 189.0,96.0 202.0,98.0 230.0,74.0 229.0,51.0 206.0,67.0 172.0,37.0" fill="#ed2846" opacity="0.95" />
<polygon points="202.0,265.0 202.0,277.0 216.0,295.0 219.0,334.0 233.0,348.0 241.0,346.0 246.0,333.0 226.0,322.0 215.0,294.0 219.0,280.0" fill="#4d3e3d" />
<polygon points="317.0,123.0 274.0,107.0 209.0,114.0 227.0,125.0" fill="#2a2830" opacity="0.95" />
<polygon points="168.0,294.0 152.0,306.0 141.0,332.0 153.0,355.0 161.0,349.0 151.0,319.0" fill="#970a27" />
<polygon points="281.0,23.0 265.0,34.0 266.0,61.0 271.0,63.0 294.0,55.0 291.0,32.0" fill="#f3edeb" opacity="0.95" />
<polygon points="358.0,0.0 359.0,29.0 371.0,35.0 359.0,43.0 359.0,49.0 380.0,82.0 383.0,0.0" fill="#2a2830" opacity="0.95" />
<polygon points="202.0,2.0 196.0,7.0 214.0,19.0 201.0,26.0 219.0,32.0 224.0,44.0 214.0,54.0 191.0,51.0 210.0,61.0 232.0,35.0 226.0,21.0" fill="#f7a69a" />
<polygon points="160.0,40.0 159.0,55.0 139.0,57.0 156.0,104.0 169.0,93.0 169.0,82.0 181.0,79.0 179.0,71.0 169.0,69.0 166.0,44.0" fill="#970a27" opacity="0.95" />
<polygon points="165.0,258.0 152.0,263.0 143.0,272.0 149.0,286.0 156.0,285.0 164.0,278.0 167.0,281.0 174.0,279.0 175.0,276.0 171.0,274.0 176.0,269.0 169.0,267.0" fill="#e1c1b1" />
<polygon points="160.0,5.0 156.0,8.0 158.0,15.0 154.0,19.0 145.0,17.0 139.0,28.0 145.0,27.0 148.0,32.0 154.0,30.0 162.0,40.0 172.0,30.0 166.0,19.0 171.0,13.0" fill="#b4503a" />
<polygon points="177.0,283.0 163.0,289.0 160.0,286.0 140.0,302.0 144.0,310.0 139.0,319.0 140.0,331.0 151.0,306.0" fill="#ed2846" />
<polygon points="235.0,67.0 234.0,80.0 251.0,83.0 258.0,81.0 256.0,73.0 251.0,66.0 248.0,67.0 239.0,64.0" fill="#a88c81" />
<polygon points="171.0,12.0 178.0,26.0 193.0,20.0 208.0,21.0 203.0,12.0 188.0,8.0 188.0,0.0 183.0,0.0 187.0,7.0 185.0,10.0" fill="#ed2846" />
<polygon points="245.0,277.0 230.0,281.0 218.0,289.0 223.0,303.0 233.0,311.0 243.0,309.0 250.0,294.0 250.0,284.0" fill="#a88c81" opacity="0.95" />
<polygon points="228.0,78.0 216.0,82.0 200.0,100.0 185.0,93.0 181.0,97.0 191.0,106.0 200.0,105.0 218.0,93.0" fill="#970a27" />
<polygon points="143.0,30.0 131.0,50.0 119.0,56.0 139.0,73.0 147.0,98.0 149.0,74.0 138.0,57.0 142.0,52.0 150.0,58.0 160.0,49.0 155.0,32.0" fill="#491b29" opacity="0.95" />
<polygon points="280.0,24.0 270.0,28.0 265.0,35.0 266.0,60.0 271.0,63.0 294.0,55.0 291.0,32.0" fill="#f3edeb" opacity="0.95" />
<polygon points="190.0,37.0 191.0,42.0 199.0,48.0 213.0,46.0 217.0,42.0 215.0,39.0 209.0,38.0 198.0,28.0" fill="#f3edeb" />
<polygon points="159.0,6.0 158.0,15.0 145.0,17.0 139.0,28.0 155.0,31.0 162.0,40.0 171.0,28.0 167.0,23.0 168.0,12.0" fill="#b4503a" opacity="0.95" />
<polygon points="162.0,41.0 158.0,55.0 139.0,57.0 150.0,74.0 151.0,100.0 156.0,104.0 169.0,93.0 169.0,83.0 181.0,78.0 168.0,67.0" fill="#970a27" opacity="0.95" />
<polygon points="179.0,292.0 167.0,297.0 152.0,319.0 162.0,349.0 154.0,357.0 167.0,368.0 173.0,358.0 160.0,337.0 156.0,316.0" fill="#491b29" />
<polygon points="155.0,287.0 149.0,287.0 141.0,275.0 133.0,292.0 144.0,293.0" fill="#f7a69a" />
<polygon points="303.0,88.0 308.0,102.0 299.0,108.0 293.0,106.0 295.0,113.0 308.0,117.0 321.0,116.0 323.0,112.0 315.0,109.0 308.0,91.0" fill="#f3edeb" />
<polygon points="154.0,289.0 144.0,294.0 133.0,295.0 134.0,324.0 139.0,312.0 139.0,300.0" fill="#ef7d72" />
<polygon points="173.0,287.0 159.0,287.0 141.0,300.0 139.0,329.0 143.0,329.0 151.0,306.0" fill="#ed2846" opacity="0.95" />
<polygon points="175.0,268.0 166.0,265.0 162.0,259.0 152.0,263.0 143.0,274.0 147.0,284.0 152.0,286.0 165.0,278.0 174.0,279.0 171.0,273.0" fill="#e1c1b1" opacity="0.95" />
<polygon points="183.0,39.0 191.0,49.0 202.0,53.0 214.0,53.0 223.0,44.0 219.0,33.0 204.0,27.0 205.0,33.0 217.0,40.0 215.0,46.0 199.0,49.0 187.0,36.0" fill="#e1c1b1" />
<polygon points="172.0,12.0 178.0,24.0 208.0,20.0 203.0,12.0 189.0,8.0 190.0,3.0 200.0,0.0 183.0,0.0 185.0,7.0" fill="#ed2846" opacity="0.95" />
<polygon points="159.0,301.0 149.0,311.0 142.0,332.0 153.0,354.0 161.0,351.0 151.0,327.0" fill="#970a27" opacity="0.95" />
<polygon points="196.0,5.0 213.0,16.0 213.0,23.0 203.0,26.0 225.0,36.0 230.0,33.0 228.0,24.0 217.0,12.0" fill="#f7a69a" opacity="0.95" />
<polygon points="162.0,9.0 156.0,17.0 147.0,16.0 142.0,22.0 148.0,31.0 154.0,32.0 161.0,40.0 171.0,31.0 167.0,23.0 168.0,13.0" fill="#b4503a" opacity="0.95" />
<polygon points="329.0,43.0 324.0,37.0 314.0,51.0 309.0,40.0 303.0,39.0 302.0,51.0 292.0,48.0 299.0,59.0 304.0,60.0 303.0,55.0 309.0,53.0 313.0,60.0 321.0,56.0 316.0,52.0" fill="#491b29" />
<polygon points="152.0,33.0 136.0,37.0 129.0,51.0 119.0,53.0 139.0,73.0 146.0,93.0 150.0,75.0 163.0,77.0 157.0,69.0 147.0,73.0 138.0,61.0 142.0,54.0 150.0,58.0 160.0,52.0" fill="#491b29" opacity="0.95" />
<polygon points="308.0,64.0 314.0,73.0 301.0,84.0 316.0,86.0 318.0,107.0 325.0,102.0 320.0,95.0 325.0,81.0 332.0,79.0 336.0,87.0 337.0,71.0 326.0,73.0" fill="#491b29" opacity="0.95" />
<polygon points="182.0,245.0 176.0,252.0 170.0,252.0 168.0,254.0 168.0,264.0 174.0,264.0 177.0,267.0 179.0,266.0 183.0,250.0" fill="#970a27" />
<polygon points="198.0,269.0 187.0,271.0 186.0,280.0 172.0,292.0 182.0,291.0 193.0,276.0 198.0,278.0 201.0,276.0" fill="#970a27" />
<polygon points="172.0,12.0 174.0,20.0 179.0,24.0 208.0,19.0 203.0,12.0 191.0,9.0" fill="#ed2846" opacity="0.95" />
<polygon points="285.0,82.0 274.0,98.0 269.0,92.0 272.0,103.0 278.0,102.0 293.0,114.0 291.0,107.0 277.0,100.0 288.0,84.0" fill="#e1c1b1" />
<polygon points="191.0,36.0 191.0,43.0 200.0,48.0 216.0,44.0 215.0,39.0 208.0,37.0 198.0,28.0" fill="#f3edeb" opacity="0.95" />
<polygon points="170.0,82.0 170.0,93.0 164.0,102.0 171.0,102.0 185.0,109.0 190.0,108.0 181.0,99.0 184.0,92.0 182.0,83.0" fill="#491b29" opacity="0.95" />
<polygon points="222.0,52.0 210.0,62.0 203.0,61.0 193.0,53.0 188.0,54.0 201.0,65.0 214.0,63.0" fill="#ef7d72" />
<polygon points="227.0,79.0 216.0,82.0 200.0,100.0 185.0,94.0 182.0,99.0 191.0,106.0 200.0,105.0 218.0,93.0" fill="#970a27" opacity="0.95" />
<polygon points="174.0,268.0 167.0,266.0 162.0,259.0 152.0,263.0 143.0,274.0 147.0,284.0 152.0,286.0 162.0,279.0 163.0,271.0 171.0,273.0" fill="#e1c1b1" opacity="0.95" />
<polygon points="323.0,114.0 317.0,111.0 310.0,101.0 299.0,108.0 294.0,108.0 298.0,115.0 319.0,117.0" fill="#f3edeb" opacity="0.95" />
<polygon points="155.0,68.0 160.0,69.0 164.0,72.0 164.0,79.0 162.0,81.0 158.0,80.0 152.0,74.0 152.0,71.0" fill="#970a27" />
<polygon points="228.0,35.0 227.0,44.0 224.0,48.0 228.0,49.0 232.0,54.0 232.0,66.0 234.0,60.0 233.0,40.0" fill="#ef7d72" />
<polygon points="170.0,290.0 167.0,288.0 157.0,289.0 142.0,300.0 140.0,306.0 146.0,311.0" fill="#ed2846" opacity="0.95" />
<polygon points="184.0,25.0 180.0,26.0 176.0,32.0 175.0,41.0 177.0,43.0 182.0,43.0 183.0,37.0 187.0,35.0 183.0,32.0 186.0,28.0" fill="#f7a69a" />
<polygon points="223.0,38.0 206.0,28.0 205.0,33.0 217.0,40.0 215.0,46.0 200.0,50.0 189.0,37.0 184.0,41.0 202.0,53.0 213.0,53.0 223.0,44.0" fill="#e1c1b1" opacity="0.95" />
<polygon points="214.0,15.0 213.0,23.0 209.0,26.0 209.0,29.0 225.0,36.0 229.0,34.0 230.0,29.0 226.0,21.0 222.0,17.0" fill="#f7a69a" opacity="0.95" />
<polygon points="191.0,37.0 191.0,42.0 201.0,48.0 216.0,44.0 215.0,39.0 208.0,37.0 200.0,29.0" fill="#f3edeb" opacity="0.95" />
<polygon points="192.0,234.0 185.0,234.0 184.0,233.0 181.0,234.0 182.0,236.0 182.0,242.0 181.0,243.0 185.0,247.0 191.0,242.0 191.0,239.0 193.0,235.0" fill="#491b29" />
<polygon points="169.0,16.0 167.0,19.0 175.0,35.0 175.0,32.0 178.0,28.0 174.0,24.0 172.0,18.0 173.0,17.0" fill="#ef7d72" />
<polygon points="335.0,53.0 333.0,58.0 329.0,61.0 338.0,70.0 339.0,66.0 337.0,56.0" fill="#f3edeb" />
<polygon points="320.0,115.0 310.0,103.0 294.0,109.0 298.0,115.0 303.0,114.0 308.0,117.0" fill="#f3edeb" opacity="0.95" />
<polygon points="145.0,293.0 136.0,293.0 133.0,295.0 132.0,316.0 135.0,319.0 138.0,315.0 138.0,302.0 140.0,299.0 147.0,297.0" fill="#ef7d72" opacity="0.95" />
<polygon points="173.0,81.0 170.0,83.0 170.0,93.0 165.0,100.0 183.0,108.0 186.0,106.0 181.0,99.0 183.0,91.0 179.0,87.0 179.0,83.0" fill="#491b29" opacity="0.95" />
<polygon points="141.0,277.0 138.0,279.0 134.0,287.0 134.0,291.0 144.0,293.0 150.0,290.0 150.0,287.0 146.0,284.0 144.0,278.0" fill="#f7a69a" opacity="0.95" />
<polygon points="263.0,22.0 262.0,23.0 264.0,25.0 260.0,28.0 263.0,36.0 266.0,32.0 265.0,31.0 270.0,27.0" fill="#e1c1b1" />
<polygon points="199.0,246.0 196.0,250.0 198.0,253.0 200.0,262.0 203.0,259.0 202.0,257.0 203.0,255.0 201.0,248.0" fill="#ed2846" />
<polygon points="141.0,277.0 138.0,279.0 134.0,290.0 144.0,293.0 149.0,290.0 149.0,287.0" fill="#f7a69a" opacity="0.95" />
<polygon points="195.0,234.0 192.0,239.0 192.0,242.0 195.0,247.0 197.0,244.0 197.0,238.0 198.0,237.0" fill="#ef7d72" />
<polygon points="118.0,323.0 119.0,324.0 131.0,324.0 132.0,322.0 131.0,321.0 120.0,321.0" fill="#e1c1b1" />
<polygon points="233.0,37.0 234.0,38.0 258.0,38.0 259.0,37.0 258.0,36.0 234.0,36.0" fill="#e1c1b1" />
<polygon points="196.0,21.0 194.0,21.0 191.0,25.0 189.0,24.0 186.0,26.0 187.0,27.0 186.0,32.0 188.0,34.0 191.0,33.0 191.0,28.0 194.0,25.0 199.0,24.0" fill="#ef7d72" />
<polygon points="140.0,293.0 136.0,293.0 133.0,295.0 132.0,315.0 135.0,317.0 138.0,315.0 138.0,302.0 143.0,297.0 143.0,295.0" fill="#ef7d72" opacity="0.95" />
<polygon points="274.0,105.0 283.0,111.0 286.0,110.0 285.0,108.0 278.0,103.0 276.0,105.0 275.0,104.0" fill="#f7a69a" />
<polygon points="230.0,36.0 228.0,37.0 227.0,44.0 225.0,46.0 225.0,48.0 232.0,52.0 234.0,51.0 232.0,37.0" fill="#ef7d72" opacity="0.95" />
<polygon points="198.0,54.0 198.0,56.0 205.0,61.0 211.0,60.0 215.0,57.0 215.0,55.0 213.0,54.0 202.0,54.0 201.0,53.0" fill="#f7a69a" opacity="0.95" />
<polygon points="210.0,31.0 207.0,35.0 217.0,40.0 215.0,46.0 207.0,49.0 208.0,52.0 213.0,53.0 223.0,38.0 220.0,34.0" fill="#e1c1b1" opacity="0.95" />
<polygon points="202.0,9.0 201.0,10.0 209.0,17.0 210.0,22.0 209.0,23.0 211.0,24.0 212.0,23.0 211.0,20.0 212.0,16.0 208.0,12.0" fill="#ef7d72" />
<polygon points="262.0,48.0 259.0,59.0 263.0,62.0 264.0,61.0 263.0,58.0 264.0,57.0 263.0,56.0 264.0,52.0 262.0,50.0 263.0,49.0" fill="#f7a69a" />
<polygon points="143.0,4.0 141.0,2.0 138.0,3.0 134.0,7.0 135.0,8.0 137.0,8.0 138.0,7.0 141.0,7.0 143.0,5.0" fill="#b4503a" />
<polygon points="258.0,73.0 257.0,74.0 258.0,75.0 258.0,78.0 260.0,80.0 263.0,76.0 261.0,74.0 259.0,74.0" fill="#b4503a" />
<polygon points="141.0,308.0 139.0,310.0 140.0,311.0 140.0,312.0 139.0,313.0 139.0,314.0 140.0,315.0 141.0,315.0 142.0,314.0 142.0,312.0 143.0,311.0 143.0,310.0" fill="#b4503a" />
<polygon points="143.0,3.0 140.0,2.0 137.0,4.0 137.0,6.0 140.0,7.0 143.0,5.0" fill="#b4503a" opacity="0.95" />
</svg>