<svg xmlns="http://www.w3.org/2000/svg" width="768" height="768" viewBox="0 0 384 384">
<rect width="384" height="384" fill="#966754"/>
<polygon points="132.0,0.0 0.0,104.0 0.0,267.0 170.0,383.0 46.0,233.0 46.0,131.0 118.0,65.0 264.0,65.0 335.0,194.0 219.0,317.0 242.0,383.0 344.0,324.0 383.0,129.0 269.0,11.0" fill="#a86047" />
<polygon points="264.0,66.0 118.0,66.0 47.0,131.0 47.0,233.0 136.0,333.0 183.0,282.0 107.0,187.0 152.0,78.0 226.0,74.0 275.0,129.0 267.0,210.0 201.0,253.0 219.0,333.0 320.0,230.0 320.0,130.0" fill="#c98363" />
<polygon points="132.0,0.0 0.0,104.0 0.0,267.0 170.0,383.0 46.0,233.0 46.0,131.0 264.0,65.0 334.0,196.0 220.0,316.0 242.0,383.0 342.0,325.0 383.0,129.0 269.0,11.0" fill="#a86047" opacity="0.95" />
<polygon points="132.0,0.0 0.0,104.0 0.0,267.0 170.0,383.0 46.0,233.0 46.0,131.0 119.0,65.0 264.0,65.0 334.0,196.0 220.0,316.0 242.0,383.0 341.0,325.0 383.0,129.0 269.0,11.0" fill="#a86047" opacity="0.95" />
<polygon points="207.0,84.0 208.0,112.0 146.0,132.0 139.0,163.0 128.0,135.0 156.0,96.0 124.0,141.0 135.0,192.0 178.0,220.0 229.0,212.0 261.0,172.0 252.0,116.0" fill="#65f7f4" />
<polygon points="246.0,0.0 352.0,65.0 383.0,127.0 383.0,0.0" fill="#793d30" />
<polygon points="264.0,66.0 119.0,66.0 47.0,131.0 47.0,233.0 129.0,280.0 137.0,333.0 183.0,282.0 107.0,187.0 152.0,78.0 226.0,74.0 275.0,129.0 267.0,210.0 201.0,253.0 217.0,313.0 320.0,230.0 320.0,130.0" fill="#c98363" opacity="0.95" />
<polygon points="383.0,231.0 353.0,285.0 315.0,316.0 345.0,324.0 243.0,383.0 383.0,383.0" fill="#793d30" />
<polygon points="0.0,271.0 0.0,383.0 132.0,383.0 127.0,364.0 19.0,326.0 56.0,316.0" fill="#793d30" />
<polygon points="183.0,69.0 146.0,93.0 206.0,80.0 264.0,144.0 230.0,213.0 155.0,215.0 185.0,235.0 169.0,379.0 210.0,383.0 200.0,237.0 260.0,204.0 277.0,146.0 246.0,87.0" fill="#070a27" />
<polygon points="0.0,99.0 22.0,65.0 42.0,59.0 75.0,29.0 127.0,16.0 131.0,0.0 0.0,0.0" fill="#793d30" />
<polygon points="264.0,66.0 119.0,66.0 47.0,131.0 47.0,233.0 137.0,332.0 183.0,281.0 107.0,187.0 152.0,78.0 226.0,74.0 275.0,129.0 267.0,210.0 201.0,254.0 218.0,312.0 320.0,230.0 320.0,130.0" fill="#c98363" opacity="0.95" />
<polygon points="211.0,85.0 207.0,112.0 145.0,133.0 142.0,160.0 124.0,160.0 135.0,192.0 174.0,219.0 229.0,212.0 261.0,172.0 252.0,116.0" fill="#65f7f4" opacity="0.95" />
<polygon points="211.0,85.0 206.0,112.0 146.0,133.0 142.0,160.0 124.0,162.0 135.0,192.0 174.0,219.0 229.0,212.0 261.0,172.0 252.0,116.0" fill="#65f7f4" opacity="0.95" />
<polygon points="246.0,0.0 352.0,65.0 383.0,127.0 383.0,0.0" fill="#793d30" opacity="0.95" />
<polygon points="383.0,233.0 353.0,285.0 316.0,315.0 344.0,325.0 243.0,383.0 383.0,383.0" fill="#793d30" opacity="0.95" />
<polygon points="0.0,270.0 0.0,383.0 132.0,383.0 127.0,364.0 21.0,326.0 55.0,315.0" fill="#793d30" opacity="0.95" />
<polygon points="183.0,69.0 145.0,92.0 206.0,80.0 264.0,144.0 236.0,209.0 158.0,216.0 184.0,241.0 169.0,379.0 211.0,383.0 200.0,237.0 260.0,204.0 277.0,146.0 246.0,87.0" fill="#070a27" opacity="0.95" />
<polygon points="0.0,99.0 22.0,65.0 75.0,29.0 128.0,15.0 131.0,0.0 0.0,0.0" fill="#793d30" opacity="0.95" />
<polygon points="383.0,234.0 353.0,285.0 318.0,314.0 343.0,325.0 243.0,383.0 383.0,383.0" fill="#793d30" opacity="0.95" />
<polygon points="0.0,270.0 0.0,383.0 132.0,383.0 127.0,364.0 24.0,327.0 53.0,314.0" fill="#793d30" opacity="0.95" />
<polygon points="183.0,69.0 145.0,92.0 206.0,80.0 264.0,144.0 236.0,209.0 159.0,218.0 184.0,241.0 169.0,379.0 211.0,383.0 200.0,237.0 260.0,204.0 277.0,146.0 246.0,87.0" fill="#070a27" opacity="0.95" />
<polygon points="127.0,101.0 110.0,135.0 110.0,170.0 120.0,197.0 140.0,218.0 119.0,165.0 131.0,113.0" fill="#566d9c" />
<polygon points="207.0,90.0 200.0,85.0 173.0,88.0 156.0,97.0 142.0,113.0 154.0,118.0 176.0,102.0 206.0,99.0" fill="#fdca04" />
<polygon points="207.0,101.0 174.0,104.0 161.0,112.0 146.0,130.0 156.0,135.0 180.0,114.0 206.0,112.0" fill="#412e39" />
<polygon points="141.0,113.0 128.0,140.0 128.0,159.0 133.0,163.0 142.0,158.0 143.0,134.0 152.0,120.0" fill="#f9f82c" />
<polygon points="274.0,185.0 246.0,226.0 201.0,250.0 248.0,232.0 266.0,210.0" fill="#a86047" />
<polygon points="128.0,101.0 112.0,127.0 109.0,160.0 120.0,197.0 138.0,216.0 119.0,165.0" fill="#566d9c" opacity="0.95" />
<polygon points="108.0,164.0 112.0,201.0 126.0,224.0 153.0,244.0 182.0,251.0 127.0,218.0" fill="#a86047" />
<polygon points="160.0,136.0 166.0,137.0 170.0,142.0 170.0,162.0 168.0,164.0 155.0,164.0 153.0,162.0 153.0,143.0" fill="#65f7f4" />
<polygon points="207.0,90.0 200.0,85.0 173.0,88.0 156.0,97.0 142.0,113.0 154.0,117.0 176.0,102.0 205.0,99.0" fill="#fdca04" opacity="0.95" />
<polygon points="207.0,101.0 187.0,100.0 161.0,112.0 147.0,131.0 155.0,134.0 183.0,113.0 205.0,112.0" fill="#412e39" opacity="0.95" />
<polygon points="127.0,102.0 112.0,127.0 109.0,160.0 116.0,189.0 136.0,215.0 139.0,205.0 119.0,165.0 131.0,113.0" fill="#566d9c" opacity="0.95" />
<polygon points="159.0,138.0 155.0,141.0 154.0,144.0 154.0,160.0 156.0,162.0 167.0,162.0 168.0,141.0 165.0,138.0" fill="#412e39" />
<polygon points="141.0,114.0 128.0,140.0 128.0,159.0 133.0,163.0 142.0,158.0 143.0,134.0 152.0,120.0" fill="#f9f82c" opacity="0.95" />
<polygon points="201.0,81.0 179.0,80.0 149.0,94.0 141.0,87.0 136.0,92.0 141.0,105.0 167.0,87.0" fill="#1a234c" />
<polygon points="271.0,195.0 241.0,230.0 201.0,250.0 248.0,232.0" fill="#a86047" opacity="0.95" />
<polygon points="207.0,90.0 200.0,85.0 173.0,88.0 156.0,97.0 142.0,113.0 154.0,117.0 176.0,102.0 206.0,98.0" fill="#fdca04" opacity="0.95" />
<polygon points="159.0,135.0 167.0,138.0 170.0,142.0 170.0,162.0 167.0,164.0 156.0,164.0 153.0,162.0 153.0,143.0" fill="#65f7f4" opacity="0.95" />
<polygon points="206.0,101.0 179.0,102.0 151.0,122.0 147.0,130.0 157.0,136.0 155.0,161.0 168.0,160.0 168.0,141.0 157.0,135.0 180.0,114.0 206.0,111.0" fill="#412e39" opacity="0.95" />
<polygon points="130.0,213.0 150.0,231.0 170.0,239.0 182.0,239.0 155.0,229.0" fill="#412e39" />
<polygon points="146.0,210.0 152.0,221.0 151.0,226.0 183.0,235.0 162.0,227.0 155.0,214.0" fill="#1a234c" />
<polygon points="141.0,114.0 128.0,140.0 128.0,159.0 133.0,163.0 142.0,158.0 143.0,134.0 150.0,122.0" fill="#f9f82c" opacity="0.95" />
<polygon points="108.0,180.0 116.0,210.0 135.0,233.0 183.0,250.0 139.0,230.0 120.0,210.0" fill="#a86047" opacity="0.95" />
<polygon points="160.0,135.0 167.0,138.0 170.0,142.0 170.0,161.0 166.0,164.0 157.0,164.0 153.0,161.0 153.0,143.0" fill="#65f7f4" opacity="0.95" />
<polygon points="269.0,201.0 263.0,201.0 241.0,230.0 201.0,249.0 244.0,235.0" fill="#a86047" opacity="0.95" />
<polygon points="159.0,138.0 155.0,141.0 154.0,144.0 154.0,160.0 157.0,162.0 166.0,162.0 168.0,161.0 168.0,141.0 164.0,138.0" fill="#412e39" opacity="0.95" />
<polygon points="123.0,170.0 128.0,188.0 145.0,208.0 146.0,206.0 131.0,189.0" fill="#070a27" />
<polygon points="176.0,82.0 148.0,94.0 140.0,88.0 137.0,93.0 143.0,102.0" fill="#1a234c" opacity="0.95" />
<polygon points="136.0,93.0 133.0,93.0 128.0,99.0 132.0,104.0 131.0,110.0 134.0,111.0 140.0,103.0 139.0,102.0 140.0,98.0" fill="#364975" />
<polygon points="141.0,206.0 139.0,208.0 142.0,215.0 141.0,219.0 146.0,223.0 150.0,224.0 151.0,221.0 149.0,219.0 149.0,215.0" fill="#364975" />
<polygon points="146.0,226.0 150.0,231.0 164.0,237.0 182.0,239.0 180.0,236.0" fill="#412e39" opacity="0.95" />
<polygon points="150.0,213.0 151.0,226.0 170.0,232.0 170.0,230.0 160.0,225.0 154.0,213.0" fill="#1a234c" opacity="0.95" />
<polygon points="217.0,332.0 219.0,333.0 240.0,326.0 242.0,323.0 222.0,321.0 219.0,319.0 217.0,320.0" fill="#c98363" opacity="0.95" />
<polygon points="144.0,317.0 146.0,315.0 161.0,315.0 163.0,317.0 159.0,320.0 151.0,320.0 150.0,319.0 146.0,319.0" fill="#c98363" />
<polygon points="140.0,209.0 142.0,220.0 148.0,224.0 151.0,223.0 148.0,213.0 142.0,208.0" fill="#364975" opacity="0.95" />
<polygon points="217.0,322.0 217.0,330.0 220.0,332.0 237.0,326.0 236.0,323.0 231.0,321.0 220.0,320.0" fill="#c98363" opacity="0.95" />
<polygon points="135.0,93.0 129.0,97.0 129.0,101.0 131.0,102.0 132.0,108.0 134.0,109.0 139.0,105.0 140.0,100.0 139.0,96.0" fill="#364975" opacity="0.95" />
<polygon points="121.0,146.0 120.0,147.0 120.0,161.0 121.0,162.0 122.0,161.0 122.0,147.0" fill="#070a27" />
<polygon points="215.0,235.0 214.0,234.0 213.0,235.0 204.0,236.0 201.0,238.0 203.0,240.0 212.0,237.0" fill="#412e39" />
<polygon points="145.0,317.0 146.0,318.0 150.0,318.0 151.0,319.0 159.0,319.0 162.0,317.0 161.0,316.0 146.0,316.0" fill="#a86047" />
<polygon points="140.0,88.0 137.0,90.0 137.0,93.0 141.0,99.0 145.0,101.0 149.0,98.0 149.0,96.0" fill="#1a234c" opacity="0.95" />
<polygon points="134.0,93.0 129.0,97.0 129.0,100.0 131.0,102.0 132.0,106.0 135.0,108.0 139.0,105.0 140.0,98.0 137.0,94.0" fill="#364975" opacity="0.95" />
<polygon points="145.0,237.0 146.0,240.0 161.0,247.0 164.0,246.0 170.0,250.0 173.0,248.0 172.0,245.0 167.0,245.0 148.0,235.0" fill="#a86047" opacity="0.95" />
<polygon points="153.0,215.0 150.0,217.0 150.0,219.0 152.0,221.0 152.0,226.0 157.0,228.0 160.0,226.0 158.0,219.0" fill="#1a234c" opacity="0.95" />
<polygon points="144.0,210.0 141.0,212.0 141.0,214.0 142.0,215.0 142.0,220.0 146.0,222.0 149.0,220.0 149.0,215.0" fill="#364975" opacity="0.95" />
<polygon points="126.0,127.0 123.0,133.0 124.0,135.0 122.0,137.0 123.0,139.0 121.0,141.0 122.0,143.0 123.0,142.0 122.0,140.0 124.0,138.0 123.0,136.0 127.0,128.0" fill="#070a27" />
</svg>