<svg xmlns="http://www.w3.org/2000/svg" width="768" height="768" viewBox="0 0 384 384">
<rect width="384" height="384" fill="#936858"/>
<polygon points="172.0,63.0 70.0,82.0 0.0,124.0 0.0,383.0 152.0,383.0" fill="#a06d58" />
<polygon points="212.0,53.0 214.0,383.0 383.0,383.0 383.0,149.0 298.0,79.0" fill="#a06d58" />
<polygon points="172.0,65.0 72.0,82.0 0.0,124.0 0.0,383.0 152.0,383.0" fill="#a06d58" opacity="0.95" />
<polygon points="211.0,54.0 214.0,383.0 383.0,383.0 383.0,149.0 298.0,79.0" fill="#a06d58" opacity="0.95" />
<polygon points="0.0,0.0 2.0,124.0 70.0,81.0 174.0,69.0 194.0,11.0 211.0,75.0 215.0,52.0 296.0,77.0 383.0,148.0 383.0,0.0" fill="#81513f" />
<polygon points="171.0,66.0 72.0,82.0 0.0,124.0 0.0,383.0 152.0,383.0" fill="#a06d58" opacity="0.95" />
<polygon points="211.0,54.0 214.0,383.0 383.0,383.0 383.0,149.0 298.0,79.0" fill="#a06d58" opacity="0.95" />
<polygon points="0.0,0.0 2.0,124.0 177.0,62.0 193.0,11.0 205.0,57.0 298.0,78.0 383.0,148.0 383.0,0.0" fill="#81513f" opacity="0.95" />
<polygon points="0.0,0.0 2.0,124.0 176.0,62.0 193.0,11.0 205.0,55.0 298.0,78.0 383.0,148.0 383.0,0.0" fill="#81513f" opacity="0.95" />
<polygon points="190.0,236.0 182.0,280.0 167.0,297.0 158.0,281.0 154.0,383.0 212.0,383.0 216.0,275.0 202.0,287.0" fill="#020e1a" />
<polygon points="174.0,108.0 161.0,115.0 164.0,233.0 182.0,228.0 182.0,112.0" fill="#025677" />
<polygon points="193.0,12.0 183.0,110.0 217.0,111.0" fill="#fc0556" />
<polygon points="189.0,236.0 182.0,280.0 166.0,297.0 158.0,282.0 154.0,383.0 212.0,383.0 216.0,276.0 201.0,285.0" fill="#020e1a" opacity="0.95" />
<polygon points="195.0,112.0 183.0,114.0 183.0,227.0 189.0,231.0 198.0,230.0" fill="#23f2e8" />
<polygon points="189.0,251.0 182.0,280.0 167.0,294.0 157.0,292.0 154.0,383.0 212.0,383.0 216.0,280.0 201.0,284.0" fill="#020e1a" opacity="0.95" />
<polygon points="209.0,110.0 207.0,229.0 214.0,233.0 218.0,216.0 217.0,115.0" fill="#23f2e8" />
<polygon points="190.0,12.0 165.0,110.0 183.0,106.0" fill="#68030a" />
<polygon points="174.0,108.0 161.0,115.0 161.0,223.0 165.0,231.0 182.0,227.0 182.0,112.0" fill="#025677" opacity="0.95" />
<polygon points="194.0,13.0 183.0,110.0 189.0,113.0 217.0,109.0" fill="#fc0556" opacity="0.95" />
<polygon points="185.0,113.0 183.0,227.0 195.0,231.0 196.0,114.0" fill="#23f2e8" opacity="0.95" />
<polygon points="183.0,231.0 193.0,238.0 194.0,265.0 205.0,287.0 217.0,266.0 216.0,236.0 209.0,231.0 189.0,234.0" fill="#fbe6cf" />
<polygon points="174.0,108.0 161.0,115.0 161.0,223.0 165.0,230.0 182.0,226.0 182.0,112.0" fill="#025677" opacity="0.95" />
<polygon points="193.0,113.0 183.0,116.0 183.0,227.0 189.0,231.0 197.0,229.0" fill="#23f2e8" opacity="0.95" />
<polygon points="195.0,23.0 184.0,77.0 183.0,110.0 189.0,113.0 217.0,107.0" fill="#fc0556" opacity="0.95" />
<polygon points="210.0,111.0 208.0,229.0 214.0,232.0 218.0,216.0 217.0,115.0" fill="#23f2e8" opacity="0.95" />
<polygon points="206.0,110.0 197.0,112.0 198.0,170.0 202.0,177.0 206.0,168.0" fill="#d1fbfa" />
<polygon points="206.0,170.0 202.0,178.0 197.0,172.0 198.0,228.0 201.0,230.0 207.0,227.0" fill="#98faf5" />
<polygon points="192.0,234.0 194.0,265.0 205.0,285.0 217.0,266.0 216.0,236.0 209.0,231.0" fill="#fbe6cf" opacity="0.95" />
<polygon points="189.0,19.0 167.0,109.0 183.0,106.0" fill="#68030a" opacity="0.95" />
<polygon points="211.0,111.0 208.0,229.0 213.0,232.0 218.0,216.0 217.0,115.0" fill="#23f2e8" opacity="0.95" />
<polygon points="178.0,232.0 167.0,234.0 167.0,273.0 169.0,275.0 173.0,272.0 178.0,243.0 182.0,234.0" fill="#020e1a" />
<polygon points="199.0,231.0 192.0,235.0 194.0,265.0 205.0,284.0 217.0,266.0 216.0,236.0 209.0,231.0" fill="#fbe6cf" opacity="0.95" />
<polygon points="184.0,234.0 180.0,240.0 174.0,274.0 179.0,278.0 183.0,276.0 185.0,265.0 186.0,236.0" fill="#f39d27" />
<polygon points="186.0,39.0 165.0,104.0 168.0,108.0 183.0,106.0 189.0,43.0" fill="#68030a" opacity="0.95" />
<polygon points="198.0,112.0 198.0,170.0 202.0,174.0 206.0,168.0 207.0,111.0" fill="#d1fbfa" opacity="0.95" />
<polygon points="205.0,176.0 197.0,177.0 198.0,228.0 201.0,230.0 207.0,227.0 207.0,177.0" fill="#98faf5" opacity="0.95" />
<polygon points="178.0,232.0 167.0,234.0 167.0,273.0 169.0,274.0 173.0,272.0 180.0,238.0" fill="#020e1a" opacity="0.95" />
<polygon points="184.0,235.0 181.0,236.0 174.0,274.0 179.0,278.0 183.0,276.0 186.0,236.0" fill="#f39d27" opacity="0.95" />
<polygon points="204.0,177.0 198.0,179.0 198.0,228.0 201.0,230.0 207.0,227.0 207.0,179.0" fill="#98faf5" opacity="0.95" />
<polygon points="203.0,111.0 198.0,113.0 198.0,170.0 201.0,172.0 206.0,168.0 206.0,113.0" fill="#d1fbfa" opacity="0.95" />
<polygon points="177.0,232.0 167.0,235.0 167.0,272.0 170.0,274.0 173.0,272.0 180.0,234.0" fill="#020e1a" opacity="0.95" />
<polygon points="183.0,238.0 180.0,240.0 174.0,274.0 179.0,278.0 183.0,276.0 186.0,240.0" fill="#f39d27" opacity="0.95" />
<polygon points="164.0,251.0 163.0,252.0 163.0,264.0 161.0,274.0 162.0,278.0 165.0,274.0 165.0,252.0" fill="#f9d81f" />
<polygon points="166.0,274.0 163.0,279.0 163.0,284.0 165.0,286.0 167.0,284.0 167.0,275.0" fill="#fbe6cf" />
<polygon points="176.0,277.0 173.0,284.0 174.0,286.0 176.0,285.0 180.0,280.0" fill="#b8a6b6" />
<polygon points="173.0,275.0 172.0,275.0 170.0,278.0 170.0,285.0 171.0,286.0 172.0,285.0 172.0,283.0 174.0,279.0 174.0,276.0" fill="#d1fbfa" />
<polygon points="165.0,278.0 164.0,279.0 163.0,279.0 163.0,284.0 164.0,284.0 165.0,285.0 166.0,284.0 167.0,284.0 167.0,279.0 166.0,279.0" fill="#fbe6cf" opacity="0.95" />
<polygon points="177.0,278.0 176.0,279.0 175.0,279.0 175.0,280.0 174.0,281.0 174.0,283.0 175.0,283.0 176.0,284.0 179.0,282.0 179.0,279.0 178.0,279.0" fill="#b8a6b6" opacity="0.95" />
</svg>