<svg xmlns="http://www.w3.org/2000/svg" width="768" height="768" viewBox="0 0 384 384">
<rect width="384" height="384" fill="#936b5d"/>
<polygon points="169.0,101.0 77.0,122.0 0.0,192.0 0.0,383.0 169.0,379.0" fill="#a97967" />
<polygon points="226.0,97.0 225.0,383.0 383.0,383.0 383.0,230.0 306.0,131.0" fill="#a97967" />
<polygon points="196.0,0.0 208.0,105.0 233.0,97.0 306.0,130.0 383.0,229.0 383.0,0.0" fill="#825444" />
<polygon points="0.0,0.0 0.0,191.0 77.0,121.0 140.0,98.0 174.0,104.0 184.0,0.0" fill="#825444" />
<polygon points="170.0,103.0 76.0,123.0 0.0,192.0 0.0,383.0 169.0,380.0" fill="#a97967" opacity="0.95" />
<polygon points="225.0,98.0 222.0,380.0 383.0,383.0 383.0,230.0 306.0,131.0" fill="#a97967" opacity="0.95" />
<polygon points="167.0,103.0 76.0,123.0 0.0,192.0 0.0,383.0 169.0,379.0" fill="#a97967" opacity="0.95" />
<polygon points="225.0,98.0 222.0,379.0 383.0,383.0 383.0,229.0 306.0,131.0" fill="#a97967" opacity="0.95" />
<polygon points="0.0,0.0 0.0,191.0 76.0,122.0 173.0,100.0 184.0,0.0" fill="#825444" opacity="0.95" />
<polygon points="197.0,0.0 208.0,105.0 233.0,97.0 306.0,130.0 383.0,229.0 383.0,0.0" fill="#825444" opacity="0.95" />
<polygon points="0.0,0.0 0.0,191.0 76.0,122.0 173.0,98.0 184.0,0.0" fill="#825444" opacity="0.95" />
<polygon points="197.0,0.0 208.0,104.0 233.0,97.0 306.0,130.0 383.0,228.0 383.0,0.0" fill="#825444" opacity="0.95" />
<polygon points="162.0,234.0 172.0,383.0 198.0,383.0 192.0,237.0 197.0,229.0" fill="#04060d" />
<polygon points="163.0,233.0 172.0,383.0 198.0,383.0 195.0,229.0" fill="#04060d" opacity="0.95" />
<polygon points="208.0,113.0 209.0,227.0 217.0,230.0 218.0,117.0" fill="#26f1e4" />
<polygon points="163.0,234.0 172.0,383.0 210.0,383.0 217.0,250.0 208.0,248.0 202.0,372.0 193.0,230.0" fill="#04060d" opacity="0.95" />
<polygon points="209.0,229.0 204.0,383.0 210.0,383.0 216.0,332.0 217.0,250.0" fill="#04060d" />
<polygon points="174.0,114.0 162.0,118.0 163.0,232.0 170.0,228.0 165.0,220.0 169.0,195.0 184.0,193.0 177.0,182.0" fill="#027d91" />
<polygon points="186.0,0.0 183.0,8.0 189.0,18.0 186.0,104.0 198.0,105.0 191.0,0.0" fill="#fc04a0" />
<polygon points="182.0,8.0 178.0,13.0 174.0,47.0 176.0,105.0 184.0,101.0 188.0,12.0" fill="#b50437" />
<polygon points="196.0,232.0 199.0,383.0 203.0,383.0 206.0,278.0 200.0,274.0" fill="#ac9e96" />
<polygon points="185.0,106.0 183.0,134.0 187.0,139.0 193.0,188.0 196.0,112.0 192.0,107.0" fill="#825444" />
<polygon points="209.0,113.0 209.0,227.0 216.0,229.0 218.0,117.0" fill="#26f1e4" opacity="0.95" />
<polygon points="201.0,112.0 202.0,227.0 202.0,215.0 207.0,210.0 206.0,114.0" fill="#94f4ee" />
<polygon points="196.0,17.0 200.0,104.0 205.0,105.0 205.0,44.0" fill="#fbc2fd" />
<polygon points="199.0,185.0 198.0,191.0 184.0,204.0 182.0,209.0 186.0,227.0 200.0,226.0 201.0,193.0" fill="#26f1e4" />
<polygon points="210.0,242.0 204.0,383.0 210.0,383.0 216.0,332.0 217.0,250.0" fill="#04060d" opacity="0.95" />
<polygon points="172.0,193.0 167.0,205.0 167.0,224.0 171.0,228.0 183.0,227.0 181.0,209.0 193.0,195.0" fill="#00b4bd" />
<polygon points="173.0,114.0 162.0,118.0 164.0,231.0 169.0,229.0 167.0,199.0 173.0,192.0 183.0,193.0 177.0,182.0" fill="#027d91" opacity="0.95" />
<polygon points="186.0,0.0 189.0,18.0 185.0,103.0 197.0,105.0 191.0,0.0" fill="#fc04a0" opacity="0.95" />
<polygon points="183.0,9.0 178.0,13.0 173.0,88.0 177.0,105.0 184.0,102.0 188.0,11.0" fill="#b50437" opacity="0.95" />
<polygon points="177.0,113.0 178.0,182.0 182.0,189.0 181.0,114.0" fill="#0d5965" />
<polygon points="210.0,113.0 208.0,193.0 196.0,193.0 182.0,215.0 186.0,226.0 197.0,227.0 205.0,208.0 209.0,227.0 215.0,229.0 218.0,117.0" fill="#26f1e4" opacity="0.95" />
<polygon points="200.0,278.0 199.0,383.0 203.0,383.0 206.0,279.0" fill="#ac9e96" opacity="0.95" />
<polygon points="172.0,114.0 162.0,118.0 161.0,204.0 164.0,206.0 171.0,193.0 181.0,191.0 176.0,170.0 176.0,117.0" fill="#027d91" opacity="0.95" />
<polygon points="186.0,106.0 183.0,108.0 183.0,135.0 187.0,139.0 192.0,181.0 195.0,179.0 196.0,111.0" fill="#825444" opacity="0.95" />
<polygon points="202.0,113.0 200.0,162.0 204.0,212.0 207.0,210.0 206.0,114.0" fill="#94f4ee" opacity="0.95" />
<polygon points="183.0,9.0 178.0,13.0 173.0,65.0 174.0,100.0 178.0,105.0 184.0,101.0 188.0,12.0" fill="#b50437" opacity="0.95" />
<polygon points="197.0,22.0 200.0,104.0 204.0,105.0 205.0,44.0" fill="#fbc2fd" opacity="0.95" />
<polygon points="191.0,24.0 185.0,53.0 184.0,98.0 186.0,103.0 196.0,105.0 199.0,103.0 194.0,26.0" fill="#fc04a0" opacity="0.95" />
<polygon points="185.0,138.0 184.0,182.0 186.0,190.0 191.0,188.0 188.0,174.0" fill="#a97967" />
<polygon points="199.0,192.0 183.0,206.0 182.0,215.0 184.0,224.0 187.0,227.0 200.0,226.0 201.0,193.0" fill="#26f1e4" opacity="0.95" />
<polygon points="173.0,193.0 168.0,199.0 166.0,220.0 170.0,227.0 176.0,228.0 183.0,226.0 181.0,209.0 190.0,196.0" fill="#00b4bd" opacity="0.95" />
<polygon points="201.0,278.0 198.0,286.0 199.0,363.0 202.0,365.0 205.0,363.0 206.0,281.0" fill="#ac9e96" opacity="0.95" />
<polygon points="218.0,334.0 214.0,361.0 216.0,367.0 211.0,383.0 224.0,383.0 215.0,368.0 222.0,357.0" fill="#ac9e96" />
<polygon points="186.0,106.0 183.0,108.0 183.0,134.0 187.0,139.0 189.0,174.0 192.0,176.0 195.0,174.0 196.0,112.0 192.0,107.0" fill="#825444" opacity="0.95" />
<polygon points="203.0,113.0 200.0,115.0 201.0,192.0 204.0,194.0 207.0,192.0 206.0,115.0" fill="#94f4ee" opacity="0.95" />
<polygon points="201.0,232.0 201.0,274.0 203.0,278.0 204.0,256.0 203.0,233.0" fill="#e4ece9" />
<polygon points="178.0,113.0 176.0,114.0 178.0,182.0 181.0,185.0 183.0,184.0 181.0,114.0" fill="#0d5965" opacity="0.95" />
<polygon points="198.0,26.0 195.0,30.0 200.0,86.0 203.0,88.0 206.0,86.0 203.0,33.0" fill="#fbc2fd" opacity="0.95" />
<polygon points="173.0,193.0 168.0,199.0 166.0,220.0 170.0,227.0 176.0,228.0 183.0,225.0 181.0,209.0 188.0,197.0" fill="#00b4bd" opacity="0.95" />
<polygon points="197.0,10.0 194.0,12.0 194.0,14.0 199.0,19.0 203.0,31.0 204.0,25.0 202.0,11.0" fill="#fc77e9" />
<polygon points="184.0,105.0 183.0,104.0 179.0,106.0 169.0,107.0 166.0,109.0 166.0,112.0 167.0,113.0 179.0,112.0" fill="#04060d" />
<polygon points="218.0,233.0 214.0,233.0 212.0,236.0 212.0,242.0 215.0,248.0 218.0,246.0 218.0,242.0 219.0,241.0 219.0,234.0" fill="#222228" />
<polygon points="196.0,232.0 194.0,233.0 196.0,258.0 198.0,259.0 200.0,258.0 199.0,233.0" fill="#ac9e96" opacity="0.95" />
<polygon points="186.0,160.0 184.0,161.0 184.0,182.0 185.0,188.0 189.0,189.0 191.0,188.0 191.0,184.0 188.0,174.0 188.0,161.0" fill="#a97967" opacity="0.95" />
<polygon points="206.0,212.0 204.0,214.0 204.0,226.0 206.0,228.0 207.0,227.0 207.0,213.0" fill="#e4ece9" />
<polygon points="218.0,341.0 216.0,342.0 214.0,363.0 216.0,364.0 219.0,363.0 220.0,359.0 222.0,358.0 221.0,343.0" fill="#ac9e96" opacity="0.95" />
<polygon points="205.0,232.0 204.0,233.0 204.0,242.0 205.0,243.0 205.0,247.0 206.0,248.0 207.0,247.0 207.0,233.0" fill="#a97967" />
<polygon points="192.0,0.0 193.0,1.0 193.0,7.0 194.0,8.0 197.0,8.0 199.0,9.0 200.0,7.0 195.0,0.0" fill="#fbc2fd" />
<polygon points="182.0,106.0 180.0,105.0 169.0,107.0 166.0,109.0 166.0,112.0 168.0,113.0 169.0,112.0 179.0,112.0 181.0,111.0" fill="#04060d" opacity="0.95" />
<polygon points="197.0,10.0 194.0,12.0 194.0,15.0 199.0,19.0 199.0,22.0 201.0,23.0 203.0,22.0 202.0,11.0" fill="#fc77e9" opacity="0.95" />
<polygon points="207.0,108.0 207.0,111.0 208.0,112.0 213.0,112.0 214.0,113.0 216.0,113.0 217.0,112.0 217.0,109.0 216.0,108.0 213.0,108.0 212.0,107.0 208.0,107.0" fill="#04060d" />
<polygon points="213.0,373.0 212.0,383.0 224.0,383.0 221.0,380.0 221.0,377.0 219.0,376.0 218.0,373.0 216.0,372.0" fill="#ac9e96" opacity="0.95" />
<polygon points="217.0,233.0 213.0,234.0 212.0,236.0 212.0,242.0 214.0,247.0 216.0,248.0 218.0,247.0 218.0,242.0 219.0,241.0 219.0,234.0" fill="#222228" opacity="0.95" />
<polygon points="198.0,150.0 197.0,151.0 197.0,160.0 198.0,161.0 199.0,160.0 199.0,151.0" fill="#e4ece9" />
<polygon points="213.0,374.0 212.0,376.0 212.0,383.0 224.0,383.0 218.0,373.0 216.0,372.0" fill="#ac9e96" opacity="0.95" />
<polygon points="197.0,171.0 196.0,172.0 196.0,179.0 197.0,180.0 198.0,179.0 198.0,172.0" fill="#e4ece9" />
<polygon points="216.0,233.0 212.0,236.0 212.0,242.0 215.0,244.0 219.0,241.0 219.0,235.0" fill="#222228" opacity="0.95" />
<polygon points="197.0,10.0 194.0,12.0 194.0,14.0 200.0,19.0 203.0,17.0 203.0,15.0 201.0,11.0" fill="#fc77e9" opacity="0.95" />
<polygon points="187.0,0.0 184.0,5.0 184.0,8.0 189.0,11.0 192.0,9.0 192.0,3.0 190.0,0.0" fill="#fc04a0" opacity="0.95" />
<polygon points="218.0,350.0 215.0,352.0 215.0,358.0 218.0,360.0 221.0,358.0 221.0,352.0" fill="#ac9e96" opacity="0.95" />
<polygon points="164.0,223.0 161.0,225.0 161.0,229.0 165.0,231.0 168.0,229.0 168.0,226.0" fill="#027d91" opacity="0.95" />
<polygon points="207.0,108.0 207.0,111.0 209.0,112.0 213.0,112.0 214.0,113.0 217.0,112.0 217.0,109.0 215.0,108.0 213.0,108.0 212.0,107.0" fill="#04060d" opacity="0.95" />
<polygon points="171.0,108.0 171.0,110.0 174.0,112.0 178.0,112.0 181.0,110.0 181.0,108.0 178.0,106.0 174.0,106.0" fill="#04060d" opacity="0.95" />
<polygon points="188.0,182.0 185.0,184.0 185.0,187.0 188.0,189.0 191.0,187.0 191.0,184.0" fill="#a97967" opacity="0.95" />
<polygon points="195.0,2.0 194.0,3.0 193.0,3.0 193.0,7.0 196.0,8.0 197.0,7.0 198.0,7.0 198.0,4.0" fill="#fbc2fd" opacity="0.95" />
<polygon points="203.0,99.0 200.0,101.0 200.0,103.0 203.0,105.0 206.0,103.0 206.0,101.0" fill="#fbc2fd" opacity="0.95" />
</svg>