<svg xmlns="http://www.w3.org/2000/svg" width="768" height="768" viewBox="0 0 384 384">
<rect width="384" height="384" fill="#8f6d69"/>
<polygon points="383.0,83.0 231.0,230.0 172.0,252.0 136.0,225.0 135.0,251.0 194.0,268.0 247.0,321.0 383.0,320.0" fill="#896562" />
<polygon points="2.0,39.0 3.0,126.0 131.0,125.0 131.0,68.0 102.0,40.0" fill="#60424c" />
<polygon points="383.0,84.0 212.0,242.0 172.0,252.0 135.0,229.0 135.0,251.0 194.0,268.0 255.0,322.0 209.0,383.0 383.0,383.0" fill="#896562" opacity="0.95" />
<polygon points="2.0,223.0 69.0,205.0 122.0,131.0 3.0,130.0" fill="#896562" />
<polygon points="134.0,0.0 134.0,66.0 165.0,92.0 203.0,94.0 253.0,67.0 319.0,134.0 357.0,97.0 326.0,65.0 330.0,39.0 332.0,54.0 317.0,57.0 259.0,0.0" fill="#fc655d" />
<polygon points="248.0,69.0 195.0,145.0 276.0,178.0 314.0,134.0" fill="#5eb3a0" />
<polygon points="2.0,326.0 2.0,383.0 131.0,383.0 130.0,325.0" fill="#896562" />
<polygon points="274.0,179.0 194.0,145.0 134.0,163.0 134.0,194.0 168.0,231.0 208.0,225.0" fill="#85c9e7" />
<polygon points="208.0,383.0 383.0,383.0 383.0,325.0 252.0,325.0 251.0,347.0" fill="#896562" />
<polygon points="132.0,232.0 67.0,206.0 2.0,226.0 0.0,265.0 26.0,286.0 69.0,289.0 121.0,259.0" fill="#f1d9a4" />
<polygon points="383.0,84.0 212.0,242.0 172.0,252.0 135.0,232.0 137.0,252.0 194.0,268.0 254.0,322.0 209.0,383.0 383.0,383.0" fill="#896562" opacity="0.95" />
<polygon points="190.0,272.0 143.0,320.0 151.0,323.0 136.0,327.0 195.0,383.0 247.0,326.0" fill="#293536" />
<polygon points="134.0,0.0 134.0,66.0 165.0,92.0 210.0,92.0 252.0,67.0 320.0,134.0 356.0,99.0 329.0,58.0 260.0,0.0" fill="#fc655d" opacity="0.95" />
<polygon points="2.0,0.0 3.0,34.0 99.0,34.0 131.0,60.0 131.0,0.0" fill="#896562" />
<polygon points="124.0,130.0 71.0,206.0 130.0,230.0 132.0,136.0" fill="#cca69e" />
<polygon points="0.0,222.0 70.0,204.0 120.0,131.0 0.0,132.0" fill="#896562" opacity="0.95" />
<polygon points="134.0,0.0 134.0,66.0 165.0,92.0 210.0,92.0 252.0,67.0 320.0,134.0 356.0,99.0 260.0,0.0" fill="#fc655d" opacity="0.95" />
<polygon points="249.0,69.0 196.0,147.0 276.0,177.0 314.0,134.0" fill="#5eb3a0" opacity="0.95" />
<polygon points="0.0,40.0 4.0,126.0 129.0,126.0 134.0,104.0 179.0,125.0 215.0,113.0 160.0,110.0 98.0,38.0" fill="#60424c" opacity="0.95" />
<polygon points="292.0,0.0 342.0,49.0 374.0,72.0 383.0,53.0 383.0,0.0" fill="#15132d" />
<polygon points="273.0,178.0 193.0,145.0 135.0,162.0 134.0,194.0 166.0,230.0 189.0,230.0" fill="#85c9e7" opacity="0.95" />
<polygon points="191.0,272.0 137.0,329.0 195.0,383.0 246.0,326.0" fill="#293536" opacity="0.95" />
<polygon points="132.0,232.0 67.0,206.0 1.0,227.0 0.0,266.0 32.0,288.0 73.0,288.0 132.0,249.0" fill="#f1d9a4" opacity="0.95" />
<polygon points="131.0,273.0 49.0,325.0 21.0,325.0 34.0,313.0 3.0,302.0 17.0,323.0 0.0,327.0 0.0,383.0 170.0,383.0 131.0,355.0" fill="#896562" opacity="0.95" />
<polygon points="249.0,69.0 196.0,146.0 276.0,177.0 314.0,134.0" fill="#5eb3a0" opacity="0.95" />
<polygon points="0.0,41.0 5.0,126.0 128.0,126.0 135.0,105.0 179.0,125.0 214.0,115.0 160.0,110.0 98.0,38.0" fill="#60424c" opacity="0.95" />
<polygon points="134.0,163.0 135.0,196.0 169.0,231.0 208.0,225.0 271.0,181.0 193.0,146.0" fill="#85c9e7" opacity="0.95" />
<polygon points="188.0,270.0 135.0,253.0 135.0,320.0 139.0,322.0" fill="#cca69e" />
<polygon points="170.0,382.0 131.0,354.0 128.0,273.0 47.0,325.0 0.0,305.0 15.0,320.0 0.0,328.0 0.0,383.0" fill="#896562" opacity="0.95" />
<polygon points="191.0,272.0 137.0,329.0 194.0,383.0 246.0,327.0 243.0,317.0" fill="#293536" opacity="0.95" />
<polygon points="132.0,233.0 67.0,206.0 1.0,227.0 0.0,266.0 26.0,286.0 69.0,289.0 112.0,267.0 132.0,248.0" fill="#f1d9a4" opacity="0.95" />
<polygon points="125.0,130.0 71.0,206.0 129.0,230.0 132.0,136.0" fill="#cca69e" opacity="0.95" />
<polygon points="293.0,0.0 338.0,46.0 374.0,72.0 383.0,56.0 383.0,0.0" fill="#15132d" opacity="0.95" />
<polygon points="366.0,93.0 209.0,226.0 166.0,232.0 135.0,208.0 165.0,241.0 200.0,239.0 278.0,184.0" fill="#332123" />
<polygon points="125.0,130.0 71.0,206.0 128.0,230.0 132.0,136.0" fill="#cca69e" opacity="0.95" />
<polygon points="383.0,62.0 349.0,116.0 228.0,224.0 170.0,244.0 136.0,210.0 140.0,230.0 186.0,251.0 231.0,229.0 365.0,108.0" fill="#60424c" />
<polygon points="293.0,0.0 371.0,73.0 383.0,58.0 383.0,0.0" fill="#15132d" opacity="0.95" />
<polygon points="188.0,270.0 135.0,254.0 135.0,320.0 140.0,321.0" fill="#cca69e" opacity="0.95" />
<polygon points="135.0,73.0 135.0,84.0 149.0,100.0 178.0,116.0 218.0,108.0 236.0,83.0 203.0,98.0 175.0,100.0 154.0,92.0" fill="#332123" />
<polygon points="131.0,252.0 67.0,291.0 27.0,288.0 3.0,269.0 2.0,277.0 30.0,300.0 63.0,302.0 98.0,286.0" fill="#332123" />
<polygon points="131.0,260.0 71.0,301.0 36.0,303.0 3.0,279.0 2.0,298.0 39.0,313.0 25.0,320.0 93.0,298.0 130.0,271.0" fill="#60424c" />
<polygon points="135.0,87.0 135.0,104.0 171.0,124.0 209.0,121.0 217.0,111.0 170.0,115.0" fill="#60424c" />
<polygon points="383.0,64.0 349.0,116.0 219.0,230.0 170.0,244.0 135.0,223.0 172.0,251.0 225.0,233.0 365.0,108.0" fill="#60424c" opacity="0.95" />
<polygon points="185.0,269.0 136.0,254.0 135.0,317.0 140.0,318.0 186.0,273.0" fill="#cca69e" opacity="0.95" />
<polygon points="295.0,166.0 204.0,228.0 171.0,233.0 143.0,218.0 170.0,243.0 200.0,239.0" fill="#332123" opacity="0.95" />
<polygon points="135.0,76.0 135.0,85.0 153.0,104.0 178.0,116.0 217.0,108.0 232.0,89.0 175.0,100.0" fill="#332123" opacity="0.95" />
<polygon points="383.0,64.0 310.0,158.0 186.0,244.0 138.0,213.0 140.0,230.0 186.0,251.0 231.0,229.0 365.0,108.0" fill="#60424c" opacity="0.95" />
<polygon points="357.0,63.0 346.0,79.0 354.0,88.0 363.0,88.0 371.0,75.0" fill="#9ac1ba" />
<polygon points="339.0,49.0 330.0,63.0 341.0,74.0 347.0,75.0 355.0,62.0" fill="#f2eae6" />
<polygon points="131.0,254.0 67.0,291.0 27.0,288.0 4.0,271.0 0.0,277.0 30.0,300.0 63.0,302.0 98.0,286.0" fill="#332123" opacity="0.95" />
<polygon points="135.0,332.0 135.0,337.0 181.0,383.0 189.0,383.0" fill="#332123" />
<polygon points="131.0,261.0 71.0,301.0 36.0,303.0 4.0,280.0 0.0,298.0 36.0,313.0 68.0,310.0 130.0,271.0" fill="#60424c" opacity="0.95" />
<polygon points="273.0,186.0 201.0,229.0 148.0,226.0 170.0,243.0 191.0,242.0" fill="#332123" opacity="0.95" />
<polygon points="135.0,79.0 153.0,104.0 178.0,116.0 217.0,108.0 229.0,93.0 226.0,88.0 175.0,100.0" fill="#332123" opacity="0.95" />
<polygon points="135.0,340.0 136.0,354.0 147.0,359.0 171.0,383.0 180.0,383.0 138.0,340.0" fill="#60424c" />
<polygon points="0.0,275.0 40.0,303.0 77.0,298.0 110.0,276.0 46.0,292.0" fill="#332123" opacity="0.95" />
<polygon points="324.0,36.0 316.0,49.0 328.0,57.0 333.0,51.0 334.0,46.0" fill="#eb3d46" />
<polygon points="149.0,86.0 175.0,99.0 203.0,97.0 220.0,90.0 175.0,96.0" fill="#eb3d46" />
<polygon points="357.0,64.0 347.0,76.0 347.0,82.0 355.0,88.0 362.0,88.0 365.0,86.0 370.0,74.0" fill="#9ac1ba" opacity="0.95" />
<polygon points="340.0,49.0 334.0,55.0 330.0,63.0 341.0,74.0 346.0,75.0 349.0,73.0 354.0,61.0" fill="#f2eae6" opacity="0.95" />
<polygon points="357.0,64.0 347.0,76.0 347.0,82.0 355.0,88.0 362.0,88.0 365.0,86.0 370.0,74.0" fill="#9ac1ba" opacity="0.95" />
<polygon points="340.0,49.0 334.0,55.0 330.0,63.0 341.0,74.0 346.0,75.0 349.0,73.0 354.0,61.0" fill="#f2eae6" opacity="0.95" />
<polygon points="324.0,37.0 318.0,44.0 317.0,50.0 328.0,56.0 333.0,51.0 334.0,46.0" fill="#eb3d46" opacity="0.95" />
<polygon points="317.0,134.0 315.0,135.0 314.0,140.0 296.0,158.0 297.0,159.0 317.0,140.0" fill="#9ac1ba" />
<polygon points="324.0,37.0 318.0,44.0 317.0,50.0 328.0,56.0 333.0,51.0 334.0,46.0" fill="#eb3d46" opacity="0.95" />
<polygon points="154.0,89.0 154.0,91.0 163.0,96.0 170.0,98.0 172.0,97.0 172.0,95.0 156.0,88.0" fill="#eb3d46" opacity="0.95" />
<polygon points="149.0,218.0 156.0,225.0 161.0,228.0 162.0,227.0 161.0,225.0 154.0,221.0 150.0,217.0" fill="#4f818e" />
<polygon points="372.0,76.0 366.0,86.0 367.0,87.0 373.0,78.0" fill="#4f818e" />
<polygon points="197.0,323.0 199.0,321.0 201.0,321.0 203.0,323.0 201.0,325.0 199.0,325.0" fill="#293536" />
<polygon points="286.0,9.0 281.0,14.0 280.0,16.0 282.0,18.0 287.0,10.0" fill="#cca69e" />
<polygon points="149.0,310.0 148.0,311.0 146.0,311.0 142.0,315.0 142.0,317.0 141.0,318.0 142.0,319.0 150.0,311.0" fill="#ccbdba" />
</svg>