<svg xmlns="http://www.w3.org/2000/svg" width="768" height="768" viewBox="0 0 384 384">
<rect width="384" height="384" fill="#806558"/>
<polygon points="371.0,179.0 24.0,322.0 0.0,296.0 0.0,383.0 150.0,383.0" fill="#8b5c49" />
<polygon points="289.0,76.0 93.0,22.0 0.0,32.0 37.0,55.0 0.0,60.0 0.0,241.0 252.0,114.0 172.0,82.0" fill="#8b5c49" />
<polygon points="383.0,137.0 100.0,282.0 372.0,179.0 151.0,383.0 383.0,383.0" fill="#653d2f" />
<polygon points="378.0,130.0 358.0,107.0 313.0,138.0 289.0,97.0 127.0,178.0 139.0,237.0" fill="#4ecee7" />
<polygon points="0.0,0.0 0.0,31.0 93.0,21.0 286.0,73.0 174.0,82.0 256.0,112.0 347.0,47.0 383.0,98.0 383.0,0.0" fill="#653d2f" />
<polygon points="123.0,180.0 0.0,242.0 20.0,312.0 145.0,248.0" fill="#f0f0ef" />
<polygon points="371.0,179.0 24.0,322.0 0.0,296.0 0.0,383.0 150.0,383.0" fill="#8b5c49" opacity="0.95" />
<polygon points="288.0,75.0 0.0,32.0 36.0,54.0 0.0,60.0 0.0,241.0 252.0,114.0 172.0,82.0" fill="#8b5c49" opacity="0.95" />
<polygon points="383.0,138.0 162.0,250.0 372.0,181.0 151.0,383.0 383.0,383.0" fill="#653d2f" opacity="0.95" />
<polygon points="370.0,179.0 24.0,322.0 0.0,296.0 0.0,383.0 150.0,383.0" fill="#8b5c49" opacity="0.95" />
<polygon points="285.0,75.0 93.0,23.0 0.0,32.0 36.0,54.0 0.0,60.0 0.0,241.0 250.0,115.0 173.0,82.0" fill="#8b5c49" opacity="0.95" />
<polygon points="378.0,130.0 312.0,135.0 287.0,98.0 127.0,178.0 139.0,237.0" fill="#4ecee7" opacity="0.95" />
<polygon points="0.0,0.0 0.0,31.0 92.0,21.0 286.0,73.0 174.0,82.0 219.0,106.0 347.0,47.0 383.0,96.0 383.0,0.0" fill="#653d2f" opacity="0.95" />
<polygon points="125.0,184.0 0.0,242.0 19.0,311.0 143.0,247.0" fill="#f0f0ef" opacity="0.95" />
<polygon points="383.0,138.0 190.0,236.0 371.0,181.0 320.0,211.0 352.0,239.0 151.0,383.0 383.0,383.0" fill="#653d2f" opacity="0.95" />
<polygon points="378.0,130.0 363.0,110.0 313.0,135.0 287.0,98.0 128.0,178.0 140.0,239.0" fill="#4ecee7" opacity="0.95" />
<polygon points="0.0,0.0 0.0,31.0 92.0,21.0 282.0,72.0 175.0,82.0 258.0,111.0 347.0,47.0 383.0,96.0 383.0,0.0" fill="#653d2f" opacity="0.95" />
<polygon points="125.0,184.0 0.0,242.0 0.0,281.0 19.0,310.0 142.0,247.0" fill="#f0f0ef" opacity="0.95" />
<polygon points="342.0,72.0 292.0,96.0 313.0,131.0 362.0,104.0" fill="#fb6c61" />
<polygon points="334.0,55.0 336.0,69.0 344.0,72.0 383.0,134.0 383.0,100.0 350.0,49.0" fill="#f0f0ef" />
<polygon points="341.0,72.0 293.0,95.0 314.0,131.0 318.0,123.0 361.0,104.0" fill="#fb6c61" opacity="0.95" />
<polygon points="334.0,55.0 336.0,69.0 344.0,72.0 383.0,132.0 383.0,98.0 351.0,50.0" fill="#f0f0ef" opacity="0.95" />
<polygon points="343.0,73.0 293.0,96.0 311.0,127.0 343.0,105.0 350.0,110.0 359.0,105.0" fill="#fb6c61" opacity="0.95" />
<polygon points="334.0,55.0 336.0,69.0 383.0,132.0 383.0,98.0 351.0,50.0" fill="#f0f0ef" opacity="0.95" />
<polygon points="62.0,227.0 70.0,238.0 60.0,243.0 53.0,233.0" fill="#f0f0ef" />
<polygon points="83.0,208.0 110.0,250.0 107.0,253.0 95.0,250.0 101.0,248.0 89.0,224.0 83.0,231.0 76.0,229.0 77.0,219.0 78.0,225.0 87.0,220.0" fill="#f0f0ef" />
<polygon points="0.0,50.0 0.0,59.0 12.0,62.0 21.0,58.0 34.0,58.0 36.0,56.0 33.0,52.0" fill="#653d2f" />
<polygon points="16.0,253.0 22.0,260.0 23.0,264.0 15.0,270.0 7.0,259.0 11.0,255.0" fill="#f0f0ef" />
<polygon points="216.0,152.0 231.0,176.0 229.0,179.0 214.0,154.0" fill="#4ecee7" />
<polygon points="15.0,253.0 20.0,257.0 23.0,264.0 19.0,268.0 11.0,271.0 3.0,265.0 2.0,262.0" fill="#f0f0ef" opacity="0.95" />
<polygon points="266.0,160.0 273.0,167.0 271.0,169.0 263.0,172.0 258.0,165.0" fill="#4ecee7" />
<polygon points="201.0,172.0 199.0,176.0 190.0,180.0 175.0,179.0 176.0,173.0 188.0,170.0 194.0,165.0" fill="#4ecee7" opacity="0.95" />
<polygon points="278.0,122.0 281.0,125.0 283.0,129.0 282.0,130.0 284.0,132.0 281.0,135.0 276.0,137.0 270.0,128.0" fill="#4ecee7" />
<polygon points="154.0,186.0 159.0,191.0 160.0,196.0 149.0,201.0 142.0,195.0 142.0,193.0" fill="#4ecee7" opacity="0.95" />
<polygon points="278.0,123.0 281.0,125.0 283.0,133.0 272.0,138.0 266.0,133.0 266.0,130.0" fill="#4ecee7" opacity="0.95" />
<polygon points="0.0,281.0 0.0,291.0 15.0,309.0 14.0,304.0" fill="#1c1514" />
<polygon points="0.0,50.0 0.0,59.0 12.0,62.0 22.0,58.0 35.0,57.0 35.0,54.0 32.0,52.0" fill="#653d2f" opacity="0.95" />
<polygon points="227.0,179.0 230.0,182.0 231.0,181.0 235.0,187.0 231.0,190.0 229.0,188.0 224.0,191.0 219.0,185.0 223.0,182.0 225.0,183.0" fill="#4ecee7" />
<polygon points="332.0,233.0 337.0,227.0 339.0,231.0 343.0,229.0 347.0,232.0 360.0,233.0 363.0,236.0 359.0,239.0 342.0,238.0 340.0,240.0 338.0,238.0 336.0,240.0 332.0,237.0 334.0,235.0" fill="#653d2f" />
<polygon points="334.0,237.0 350.0,239.0 361.0,236.0 344.0,231.0 339.0,232.0 337.0,228.0 338.0,232.0" fill="#8b5c49" />
<polygon points="332.0,229.0 342.0,227.0 347.0,232.0 358.0,234.0 359.0,237.0 350.0,240.0 340.0,240.0 334.0,237.0" fill="#653d2f" opacity="0.95" />
<polygon points="346.0,93.0 353.0,100.0 353.0,102.0 349.0,105.0 346.0,104.0 343.0,99.0 343.0,95.0" fill="#fb6c61" opacity="0.95" />
<polygon points="345.0,97.0 347.0,99.0 349.0,97.0 351.0,99.0 350.0,100.0 352.0,102.0 347.0,106.0 345.0,104.0 346.0,102.0 343.0,99.0" fill="#fb6c61" />
<polygon points="306.0,122.0 305.0,123.0 313.0,136.0 314.0,135.0" fill="#1c1514" />
<polygon points="356.0,226.0 360.0,227.0 362.0,225.0 365.0,228.0 369.0,229.0 372.0,227.0 368.0,222.0 367.0,223.0 364.0,222.0 358.0,224.0" fill="#8b5c49" />
<polygon points="331.0,64.0 330.0,65.0 331.0,71.0 333.0,74.0 335.0,74.0 337.0,72.0 335.0,70.0 333.0,65.0" fill="#1c1514" />
<polygon points="319.0,259.0 317.0,257.0 313.0,258.0 311.0,260.0 307.0,260.0 305.0,262.0 307.0,264.0 309.0,263.0 310.0,264.0 311.0,263.0 315.0,264.0 319.0,261.0" fill="#8b5c49" />
<polygon points="336.0,234.0 336.0,236.0 339.0,238.0 342.0,237.0 350.0,239.0 358.0,237.0 358.0,235.0 354.0,233.0 352.0,234.0 344.0,231.0 340.0,231.0" fill="#8b5c49" opacity="0.95" />
<polygon points="19.0,259.0 12.0,263.0 13.0,264.0 17.0,261.0 20.0,263.0 15.0,267.0 16.0,268.0 21.0,264.0 20.0,263.0 21.0,261.0" fill="#1c1514" />
<polygon points="0.0,283.0 0.0,291.0 4.0,293.0 6.0,292.0 6.0,290.0 4.0,288.0 3.0,285.0" fill="#1c1514" opacity="0.95" />
<polygon points="333.0,68.0 331.0,69.0 331.0,71.0 332.0,73.0 334.0,74.0 336.0,73.0 336.0,71.0 335.0,69.0" fill="#1c1514" opacity="0.95" />
<polygon points="0.0,283.0 0.0,291.0 1.0,291.0 4.0,289.0 4.0,287.0 3.0,286.0 3.0,285.0" fill="#1c1514" opacity="0.95" />
</svg>