<svg xmlns="http://www.w3.org/2000/svg" width="768" height="768" viewBox="0 0 384 384">
<rect width="384" height="384" fill="#85675d"/>
<polygon points="0.0,0.0 0.0,320.0 123.0,322.0 0.0,325.0 0.0,383.0 290.0,383.0 310.0,193.0 6.0,302.0 211.0,12.0" fill="#805a4c" />
<polygon points="0.0,0.0 0.0,383.0 290.0,383.0 310.0,193.0 6.0,302.0 202.0,17.0" fill="#805a4c" opacity="0.95" />
<polygon points="317.0,137.0 261.0,86.0 171.0,115.0 70.0,242.0 190.0,226.0" fill="#83afc7" />
<polygon points="0.0,0.0 0.0,383.0 290.0,383.0 310.0,193.0 6.0,302.0 200.0,18.0" fill="#805a4c" opacity="0.95" />
<polygon points="171.0,0.0 347.0,48.0 368.0,111.0 113.0,264.0 310.0,192.0 291.0,383.0 383.0,383.0 383.0,0.0" fill="#4d2d26" />
<polygon points="317.0,137.0 260.0,86.0 171.0,115.0 71.0,242.0 190.0,226.0" fill="#83afc7" opacity="0.95" />
<polygon points="153.0,89.0 183.0,60.0 229.0,86.0 263.0,79.0 321.0,134.0 347.0,100.0 320.0,44.0 218.0,14.0" fill="#eb816e" />
<polygon points="175.0,0.0 347.0,48.0 368.0,111.0 159.0,254.0 312.0,193.0 291.0,383.0 383.0,383.0 383.0,0.0" fill="#4d2d26" opacity="0.95" />
<polygon points="317.0,137.0 260.0,86.0 171.0,115.0 72.0,241.0 190.0,226.0" fill="#83afc7" opacity="0.95" />
<polygon points="175.0,0.0 357.0,61.0 356.0,136.0 197.0,240.0 312.0,193.0 291.0,383.0 383.0,383.0 383.0,0.0" fill="#4d2d26" opacity="0.95" />
<polygon points="166.0,99.0 150.0,100.0 8.0,287.0 105.0,264.0 49.0,261.0" fill="#fae0aa" />
<polygon points="153.0,89.0 183.0,60.0 229.0,86.0 263.0,80.0 322.0,134.0 347.0,100.0 320.0,44.0 218.0,14.0" fill="#eb816e" opacity="0.95" />
<polygon points="154.0,88.0 183.0,60.0 229.0,86.0 262.0,80.0 322.0,134.0 347.0,100.0 320.0,44.0 218.0,14.0" fill="#eb816e" opacity="0.95" />
<polygon points="166.0,99.0 13.0,286.0 103.0,266.0 51.0,259.0" fill="#fae0aa" opacity="0.95" />
<polygon points="367.0,104.0 254.0,201.0 112.0,260.0 251.0,210.0 342.0,149.0" fill="#120d0e" />
<polygon points="159.0,94.0 192.0,99.0 226.0,86.0 207.0,79.0 183.0,61.0" fill="#fa2811" />
<polygon points="166.0,99.0 150.0,100.0 14.0,286.0 102.0,267.0 52.0,257.0" fill="#fae0aa" opacity="0.95" />
<polygon points="311.0,152.0 209.0,219.0 115.0,247.0 204.0,227.0" fill="#244251" />
<polygon points="52.0,261.0 107.0,262.0 114.0,246.0 64.0,244.0" fill="#defa03" />
<polygon points="323.0,138.0 232.0,214.0 112.0,258.0 237.0,218.0 306.0,170.0" fill="#120d0e" opacity="0.95" />
<polygon points="160.0,95.0 199.0,98.0 222.0,90.0 224.0,85.0 207.0,79.0 183.0,61.0" fill="#fa2811" opacity="0.95" />
<polygon points="345.0,50.0 332.0,55.0 348.0,78.0 353.0,104.0 346.0,122.0 328.0,138.0 332.0,143.0 355.0,123.0 364.0,102.0 361.0,73.0" fill="#83afc7" />
<polygon points="108.0,265.0 70.0,285.0 6.0,292.0 70.0,291.0 96.0,279.0" fill="#244251" />
<polygon points="294.0,169.0 209.0,219.0 117.0,249.0 204.0,227.0" fill="#244251" opacity="0.95" />
<polygon points="53.0,261.0 106.0,262.0 114.0,246.0 65.0,244.0" fill="#defa03" opacity="0.95" />
<polygon points="160.0,94.0 192.0,99.0 216.0,93.0 224.0,86.0 183.0,61.0" fill="#fa2811" opacity="0.95" />
<polygon points="324.0,142.0 254.0,201.0 144.0,253.0 251.0,210.0" fill="#120d0e" opacity="0.95" />
<polygon points="0.0,321.0 0.0,324.0 121.0,323.0" fill="#faf3eb" />
<polygon points="112.0,264.0 96.0,280.0 70.0,292.0 7.0,298.0 80.0,294.0 100.0,283.0" fill="#120d0e" />
<polygon points="233.0,210.0 119.0,250.0 167.0,242.0" fill="#244251" opacity="0.95" />
<polygon points="54.0,260.0 105.0,262.0 109.0,259.0 113.0,247.0 65.0,244.0" fill="#defa03" opacity="0.95" />
<polygon points="344.0,50.0 333.0,56.0 348.0,78.0 353.0,104.0 346.0,122.0 329.0,137.0 332.0,142.0 355.0,123.0 364.0,102.0 361.0,73.0" fill="#83afc7" opacity="0.95" />
<polygon points="230.0,91.0 225.0,88.0 199.0,99.0 171.0,101.0 184.0,106.0 197.0,105.0" fill="#4d2d26" />
<polygon points="109.0,271.0 70.0,292.0 8.0,300.0 80.0,294.0" fill="#120d0e" opacity="0.95" />
<polygon points="99.0,274.0 60.0,287.0 6.0,292.0 61.0,293.0 84.0,286.0" fill="#244251" opacity="0.95" />
<polygon points="113.0,270.0 80.0,295.0 7.0,302.0 73.0,299.0 101.0,286.0" fill="#4d2d26" />
<polygon points="154.0,92.0 118.0,141.0 140.0,117.0 149.0,100.0 157.0,96.0" fill="#debf80" />
<polygon points="344.0,50.0 334.0,57.0 348.0,78.0 353.0,104.0 346.0,122.0 329.0,138.0 332.0,142.0 355.0,123.0 364.0,102.0 361.0,73.0" fill="#83afc7" opacity="0.95" />
<polygon points="226.0,99.0 207.0,108.0 170.0,111.0 152.0,130.0 171.0,114.0 208.0,111.0" fill="#547e99" />
<polygon points="89.0,281.0 53.0,288.0 15.0,288.0 7.0,293.0 61.0,293.0" fill="#244251" opacity="0.95" />
<polygon points="366.0,113.0 362.0,113.0 331.0,152.0 338.0,152.0 355.0,136.0" fill="#120d0e" opacity="0.95" />
<polygon points="346.0,77.0 348.0,111.0 333.0,134.0 351.0,110.0 352.0,96.0" fill="#547e99" />
<polygon points="229.0,91.0 225.0,89.0 211.0,96.0 177.0,100.0 175.0,103.0 184.0,106.0 202.0,104.0" fill="#4d2d26" opacity="0.95" />
<polygon points="169.0,109.0 158.0,118.0 141.0,144.0" fill="#244251" />
<polygon points="361.0,122.0 357.0,122.0 332.0,149.0 333.0,152.0 338.0,152.0 355.0,136.0 362.0,125.0" fill="#120d0e" opacity="0.95" />
<polygon points="346.0,109.0 341.0,119.0 328.0,133.0 329.0,134.0 341.0,123.0 346.0,114.0" fill="#244251" />
<polygon points="166.0,107.0 167.0,108.0 183.0,108.0 184.0,107.0 181.0,105.0 177.0,105.0 171.0,102.0" fill="#120d0e" />
<polygon points="222.0,98.0 201.0,106.0 190.0,107.0 205.0,106.0" fill="#120d0e" />
<polygon points="217.0,96.0 214.0,94.0 199.0,99.0 184.0,100.0 181.0,104.0 184.0,106.0 202.0,104.0 216.0,99.0" fill="#4d2d26" opacity="0.95" />
<polygon points="97.0,283.0 94.0,281.0 78.0,289.0 77.0,292.0 80.0,294.0 96.0,286.0" fill="#120d0e" opacity="0.95" />
<polygon points="146.0,105.0 144.0,104.0 141.0,106.0 134.0,116.0 134.0,119.0 136.0,120.0 140.0,117.0 145.0,110.0" fill="#debf80" opacity="0.95" />
<polygon points="326.0,135.0 324.0,137.0 324.0,141.0 330.0,148.0 332.0,148.0 336.0,143.0 335.0,142.0 333.0,144.0 331.0,144.0 326.0,139.0 327.0,136.0" fill="#244251" />
<polygon points="44.0,240.0 44.0,242.0 40.0,244.0 42.0,247.0 40.0,249.0 38.0,247.0 36.0,249.0 38.0,251.0 33.0,253.0 35.0,255.0 34.0,259.0 42.0,250.0" fill="#faf3eb" />
<polygon points="53.0,228.0 48.0,233.0 51.0,235.0 52.0,234.0 51.0,233.0 55.0,230.0" fill="#faf3eb" />
<polygon points="231.0,88.0 233.0,90.0 232.0,91.0 233.0,92.0 234.0,91.0 237.0,91.0 238.0,90.0 237.0,88.0 234.0,88.0 233.0,87.0" fill="#4d2d26" />
<polygon points="156.0,93.0 154.0,92.0 151.0,93.0 149.0,95.0 149.0,97.0 151.0,98.0 152.0,97.0 156.0,96.0" fill="#debf80" opacity="0.95" />
<polygon points="217.0,105.0 215.0,104.0 212.0,106.0 210.0,106.0 206.0,108.0 206.0,110.0 208.0,111.0 217.0,107.0" fill="#547e99" opacity="0.95" />
<polygon points="225.0,89.0 222.0,91.0 222.0,93.0 225.0,95.0 228.0,93.0 228.0,91.0" fill="#4d2d26" opacity="0.95" />
<polygon points="327.0,144.0 327.0,146.0 331.0,148.0 333.0,147.0 333.0,145.0 330.0,143.0" fill="#244251" opacity="0.95" />
<polygon points="350.0,95.0 349.0,96.0 348.0,96.0 348.0,102.0 349.0,102.0 350.0,103.0 351.0,102.0 352.0,102.0 352.0,96.0 351.0,96.0" fill="#547e99" opacity="0.95" />
<polygon points="172.0,112.0 170.0,111.0 166.0,113.0 166.0,115.0 168.0,116.0 172.0,114.0" fill="#547e99" opacity="0.95" />
</svg>