<svg xmlns="http://www.w3.org/2000/svg" width="768" height="768" viewBox="0 0 384 384">
<rect width="384" height="384" fill="#926f61"/>
<polygon points="0.0,102.0 0.0,383.0 383.0,383.0 383.0,304.0 325.0,279.0 322.0,235.0 167.0,278.0 120.0,216.0 158.0,148.0" fill="#a57562" />
<polygon points="0.0,0.0 0.0,101.0 155.0,147.0 275.0,89.0 321.0,213.0 179.0,271.0 126.0,193.0 165.0,276.0 318.0,233.0 383.0,303.0 383.0,0.0" fill="#945c49" />
<polygon points="0.0,102.0 0.0,383.0 383.0,383.0 383.0,304.0 344.0,297.0 322.0,236.0 167.0,278.0 120.0,216.0 155.0,148.0" fill="#a57562" opacity="0.95" />
<polygon points="276.0,91.0 124.0,167.0 169.0,234.0 321.0,157.0" fill="#65dcf5" />
<polygon points="0.0,0.0 0.0,101.0 155.0,147.0 275.0,89.0 321.0,213.0 186.0,269.0 121.0,214.0 165.0,276.0 318.0,233.0 383.0,303.0 383.0,0.0" fill="#945c49" opacity="0.95" />
<polygon points="0.0,102.0 0.0,383.0 383.0,383.0 383.0,304.0 344.0,297.0 320.0,235.0 167.0,278.0 120.0,216.0 151.0,149.0" fill="#a57562" opacity="0.95" />
<polygon points="0.0,0.0 0.0,101.0 155.0,147.0 275.0,89.0 322.0,150.0 321.0,213.0 165.0,276.0 318.0,233.0 383.0,303.0 383.0,0.0" fill="#945c49" opacity="0.95" />
<polygon points="277.0,92.0 125.0,166.0 168.0,233.0 321.0,157.0" fill="#65dcf5" opacity="0.95" />
<polygon points="277.0,92.0 125.0,167.0 168.0,233.0 321.0,156.0" fill="#65dcf5" opacity="0.95" />
<polygon points="312.0,182.0 169.0,246.0 133.0,207.0 171.0,255.0" fill="#150c0d" />
<polygon points="321.0,160.0 171.0,235.0 124.0,178.0 169.0,245.0" fill="#056d7d" />
<polygon points="320.0,190.0 311.0,173.0 300.0,199.0 171.0,256.0 127.0,206.0 175.0,264.0" fill="#39221b" />
<polygon points="312.0,182.0 169.0,246.0 133.0,207.0 171.0,255.0" fill="#150c0d" opacity="0.95" />
<polygon points="327.0,194.0 315.0,171.0 312.0,207.0 175.0,265.0 136.0,227.0 132.0,193.0 125.0,213.0 173.0,271.0 314.0,216.0" fill="#653f31" />
<polygon points="321.0,160.0 171.0,235.0 124.0,178.0 169.0,245.0" fill="#056d7d" opacity="0.95" />
<polygon points="312.0,182.0 169.0,246.0 133.0,207.0 171.0,255.0" fill="#150c0d" opacity="0.95" />
<polygon points="320.0,190.0 313.0,174.0 305.0,196.0 171.0,256.0 135.0,197.0 128.0,209.0 175.0,264.0" fill="#39221b" opacity="0.95" />
<polygon points="321.0,182.0 312.0,207.0 175.0,265.0 126.0,218.0 173.0,271.0 314.0,216.0" fill="#653f31" opacity="0.95" />
<polygon points="319.0,186.0 183.0,253.0 150.0,245.0 185.0,261.0 312.0,206.0" fill="#39221b" opacity="0.95" />
<polygon points="327.0,194.0 164.0,267.0 314.0,216.0" fill="#653f31" opacity="0.95" />
<polygon points="129.0,233.0 128.0,236.0 136.0,248.0 152.0,264.0 156.0,264.0 157.0,261.0 145.0,251.0 135.0,235.0" fill="#945c49" opacity="0.95" />
<polygon points="139.0,236.0 138.0,239.0 143.0,243.0 143.0,246.0 151.0,255.0 155.0,255.0 156.0,252.0 144.0,240.0 144.0,237.0 141.0,235.0" fill="#653f31" opacity="0.95" />
<polygon points="140.0,223.0 137.0,225.0 137.0,227.0 142.0,234.0 145.0,236.0 148.0,234.0 148.0,232.0 143.0,225.0" fill="#39221b" opacity="0.95" />
<polygon points="132.0,196.0 128.0,199.0 128.0,202.0 131.0,204.0 135.0,201.0 135.0,198.0" fill="#39221b" opacity="0.95" />
</svg>