<svg xmlns="http://www.w3.org/2000/svg" width="768" height="768" viewBox="0 0 384 384">
<rect width="384" height="384" fill="#8f6156"/>
<polygon points="23.0,114.0 0.0,383.0 171.0,383.0 150.0,290.0 179.0,262.0 43.0,322.0 15.0,277.0 173.0,182.0 210.0,120.0" fill="#b37465" />
<polygon points="0.0,0.0 0.0,130.0 86.0,99.0 192.0,131.0 247.0,69.0 269.0,89.0 315.0,59.0 383.0,118.0 383.0,63.0 294.0,0.0" fill="#935346" />
<polygon points="383.0,132.0 212.0,261.0 262.0,269.0 218.0,363.0 178.0,371.0 152.0,330.0 172.0,383.0 338.0,383.0 373.0,350.0" fill="#935346" />
<polygon points="21.0,115.0 0.0,383.0 171.0,383.0 150.0,290.0 180.0,263.0 43.0,322.0 15.0,277.0 173.0,182.0 203.0,128.0" fill="#b37465" opacity="0.95" />
<polygon points="0.0,0.0 0.0,130.0 86.0,99.0 192.0,131.0 246.0,70.0 270.0,86.0 315.0,59.0 383.0,117.0 383.0,63.0 294.0,0.0" fill="#935346" opacity="0.95" />
<polygon points="383.0,134.0 213.0,260.0 262.0,269.0 218.0,363.0 178.0,371.0 152.0,330.0 172.0,383.0 338.0,383.0 372.0,352.0" fill="#935346" opacity="0.95" />
<polygon points="23.0,114.0 0.0,383.0 171.0,383.0 150.0,290.0 179.0,263.0 43.0,322.0 15.0,277.0 173.0,182.0 201.0,130.0" fill="#b37465" opacity="0.95" />
<polygon points="0.0,0.0 0.0,130.0 86.0,99.0 191.0,131.0 246.0,70.0 270.0,86.0 315.0,59.0 383.0,117.0 383.0,63.0 294.0,0.0" fill="#935346" opacity="0.95" />
<polygon points="340.0,65.0 351.0,104.0 300.0,128.0 287.0,71.0 214.0,204.0 247.0,70.0 154.0,199.0 196.0,227.0 279.0,145.0 358.0,119.0" fill="#9de7e2" />
<polygon points="383.0,135.0 213.0,260.0 262.0,269.0 218.0,363.0 178.0,371.0 152.0,330.0 172.0,383.0 338.0,383.0 373.0,350.0" fill="#935346" opacity="0.95" />
<polygon points="167.0,217.0 151.0,197.0 17.0,278.0 45.0,287.0" fill="#f1f2ef" />
<polygon points="295.0,0.0 383.0,62.0 383.0,0.0" fill="#542f2b" />
<polygon points="362.0,82.0 300.0,128.0 286.0,72.0 216.0,202.0 246.0,71.0 154.0,199.0 196.0,227.0 240.0,205.0 279.0,145.0 358.0,119.0" fill="#9de7e2" opacity="0.95" />
<polygon points="184.0,248.0 23.0,300.0 165.0,220.0 17.0,295.0 45.0,315.0" fill="#542f2b" />
<polygon points="363.0,84.0 300.0,128.0 286.0,72.0 220.0,195.0 246.0,71.0 154.0,199.0 196.0,227.0 240.0,205.0 279.0,145.0 351.0,126.0" fill="#9de7e2" opacity="0.95" />
<polygon points="365.0,122.0 277.0,156.0 249.0,204.0 202.0,234.0 206.0,264.0 208.0,238.0 241.0,232.0 280.0,180.0 351.0,148.0" fill="#1c1011" />
<polygon points="166.0,216.0 151.0,197.0 18.0,280.0 45.0,287.0" fill="#f1f2ef" opacity="0.95" />
<polygon points="367.0,106.0 351.0,149.0 280.0,181.0 241.0,233.0 208.0,239.0 210.0,259.0 299.0,182.0 363.0,154.0 383.0,131.0" fill="#542f2b" />
<polygon points="189.0,235.0 169.0,220.0 175.0,231.0 49.0,298.0 22.0,297.0 43.0,311.0 178.0,245.0 185.0,266.0" fill="#1c1011" />
<polygon points="295.0,0.0 383.0,62.0 383.0,0.0" fill="#542f2b" opacity="0.95" />
<polygon points="166.0,216.0 149.0,198.0 18.0,279.0 45.0,287.0" fill="#f1f2ef" opacity="0.95" />
<polygon points="229.0,281.0 216.0,321.0 190.0,336.0 165.0,322.0 161.0,284.0 154.0,286.0 176.0,361.0 197.0,365.0 222.0,344.0" fill="#1c1011" />
<polygon points="182.0,220.0 28.0,305.0 46.0,310.0 173.0,246.0 189.0,259.0" fill="#1c1011" opacity="0.95" />
<polygon points="295.0,0.0 383.0,62.0 383.0,0.0" fill="#542f2b" opacity="0.95" />
<polygon points="197.0,266.0 165.0,298.0 173.0,323.0 172.0,315.0 194.0,300.0 216.0,307.0 218.0,291.0 197.0,274.0" fill="#1c1011" />
<polygon points="365.0,123.0 277.0,156.0 249.0,204.0 208.0,225.0 206.0,264.0 207.0,239.0 241.0,232.0 280.0,180.0 351.0,148.0" fill="#1c1011" opacity="0.95" />
<polygon points="255.0,258.0 228.0,264.0 219.0,272.0 233.0,284.0 234.0,305.0 244.0,305.0 257.0,288.0 261.0,269.0" fill="#b37465" />
<polygon points="184.0,254.0 45.0,316.0 15.0,300.0 47.0,320.0" fill="#935346" />
<polygon points="383.0,337.0 375.0,339.0 374.0,350.0 339.0,383.0 383.0,383.0" fill="#542f2b" />
<polygon points="195.0,272.0 170.0,289.0 165.0,313.0 154.0,297.0 168.0,352.0 188.0,366.0 222.0,344.0 232.0,297.0 207.0,331.0 174.0,333.0 165.0,316.0 218.0,302.0" fill="#1c1011" opacity="0.95" />
<polygon points="373.0,106.0 355.0,146.0 280.0,181.0 241.0,233.0 207.0,240.0 210.0,258.0 299.0,182.0 383.0,133.0" fill="#542f2b" opacity="0.95" />
<polygon points="292.0,124.0 318.0,125.0 345.0,110.0 329.0,104.0 309.0,104.0 297.0,112.0" fill="#935346" />
<polygon points="365.0,126.0 277.0,156.0 249.0,204.0 213.0,219.0 202.0,238.0 241.0,232.0 280.0,180.0 345.0,152.0" fill="#1c1011" opacity="0.95" />
<polygon points="168.0,222.0 46.0,288.0 18.0,282.0 17.0,294.0 43.0,300.0" fill="#542f2b" opacity="0.95" />
<polygon points="282.0,109.0 285.0,114.0 307.0,95.0 345.0,96.0 331.0,84.0 306.0,81.0 288.0,92.0" fill="#1c1011" />
<polygon points="195.0,273.0 157.0,317.0 169.0,354.0 188.0,366.0 227.0,333.0 225.0,307.0 197.0,335.0 165.0,322.0 194.0,300.0 218.0,302.0" fill="#1c1011" opacity="0.95" />
<polygon points="196.0,234.0 189.0,268.0 161.0,288.0 172.0,326.0 164.0,297.0 198.0,261.0 220.0,291.0 212.0,319.0 224.0,301.0" fill="#959998" />
<polygon points="236.0,321.0 227.0,315.0 223.0,344.0 197.0,366.0 176.0,362.0 163.0,332.0 161.0,353.0 178.0,370.0 207.0,369.0 229.0,350.0" fill="#542f2b" />
<polygon points="383.0,118.0 368.0,106.0 355.0,146.0 280.0,181.0 241.0,233.0 207.0,241.0 209.0,256.0 249.0,238.0 299.0,182.0 363.0,154.0" fill="#542f2b" opacity="0.95" />
<polygon points="255.0,258.0 228.0,264.0 220.0,271.0 233.0,284.0 234.0,305.0 245.0,304.0 257.0,288.0 261.0,269.0" fill="#b37465" opacity="0.95" />
<polygon points="361.0,121.0 333.0,137.0 282.0,146.0 261.0,172.0 283.0,151.0 337.0,141.0" fill="#394244" />
<polygon points="184.0,254.0 48.0,315.0 20.0,309.0 50.0,319.0" fill="#935346" opacity="0.95" />
<polygon points="292.0,124.0 318.0,125.0 335.0,118.0 344.0,109.0 329.0,104.0 309.0,104.0 297.0,112.0" fill="#935346" opacity="0.95" />
<polygon points="255.0,258.0 228.0,264.0 220.0,271.0 232.0,282.0 232.0,302.0 237.0,305.0 245.0,304.0 257.0,288.0 261.0,269.0" fill="#b37465" opacity="0.95" />
<polygon points="299.0,77.0 302.0,81.0 314.0,77.0 326.0,78.0 352.0,97.0 354.0,93.0 330.0,73.0 311.0,72.0" fill="#666562" />
<polygon points="297.0,71.0 331.0,72.0 354.0,87.0 344.0,74.0 329.0,66.0 308.0,66.0" fill="#22b3af" />
<polygon points="193.0,234.0 187.0,272.0 198.0,268.0 201.0,276.0 217.0,286.0 222.0,302.0 222.0,282.0 198.0,259.0 197.0,235.0" fill="#959998" opacity="0.95" />
<polygon points="256.0,152.0 213.0,200.0 214.0,203.0" fill="#f1f2ef" />
<polygon points="352.0,130.0 333.0,137.0 297.0,140.0 275.0,154.0 305.0,144.0 334.0,142.0" fill="#394244" opacity="0.95" />
<polygon points="252.0,197.0 235.0,209.0 214.0,213.0 205.0,226.0 216.0,216.0 240.0,210.0" fill="#394244" />
<polygon points="300.0,76.0 302.0,80.0 326.0,78.0 353.0,94.0 353.0,90.0 330.0,73.0 311.0,72.0" fill="#666562" opacity="0.95" />
<polygon points="205.0,318.0 194.0,318.0 186.0,322.0 184.0,325.0 196.0,325.0" fill="#b37465" />
<polygon points="299.0,66.0 303.0,67.0 308.0,65.0 325.0,65.0 327.0,62.0 311.0,61.0 300.0,64.0" fill="#9de7e2" />
<polygon points="233.0,151.0 234.0,153.0 237.0,154.0 245.0,153.0 252.0,154.0 254.0,152.0 253.0,150.0 235.0,147.0" fill="#116e76" />
<polygon points="298.0,70.0 300.0,73.0 308.0,70.0 327.0,71.0 351.0,83.0 344.0,74.0 329.0,66.0 308.0,66.0" fill="#22b3af" opacity="0.95" />
<polygon points="201.0,265.0 199.0,267.0 200.0,275.0 212.0,281.0 218.0,288.0 222.0,288.0 220.0,278.0 205.0,265.0" fill="#959998" opacity="0.95" />
<polygon points="301.0,76.0 304.0,80.0 318.0,75.0 344.0,89.0 347.0,87.0 342.0,80.0 326.0,72.0" fill="#666562" opacity="0.95" />
<polygon points="313.0,140.0 310.0,138.0 297.0,140.0 282.0,146.0 281.0,149.0 284.0,151.0 310.0,144.0" fill="#394244" opacity="0.95" />
<polygon points="178.0,205.0 177.0,206.0 178.0,211.0 170.0,217.0 171.0,218.0 174.0,218.0 182.0,214.0" fill="#116e76" />
<polygon points="175.0,281.0 173.0,280.0 169.0,284.0 162.0,286.0 160.0,299.0 164.0,299.0 170.0,286.0 174.0,284.0" fill="#959998" opacity="0.95" />
<polygon points="231.0,156.0 232.0,158.0 242.0,158.0 243.0,157.0 248.0,157.0 249.0,158.0 250.0,157.0 248.0,154.0 237.0,155.0 233.0,153.0" fill="#394244" />
<polygon points="234.0,149.0 234.0,152.0 237.0,154.0 253.0,153.0 253.0,151.0 249.0,149.0 243.0,148.0" fill="#116e76" opacity="0.95" />
<polygon points="259.0,145.0 256.0,144.0 255.0,145.0 251.0,145.0 245.0,147.0 246.0,148.0 253.0,149.0 255.0,151.0 258.0,148.0" fill="#22b3af" />
<polygon points="204.0,318.0 202.0,317.0 194.0,318.0 187.0,322.0 187.0,324.0 190.0,326.0 196.0,325.0 204.0,320.0" fill="#b37465" opacity="0.95" />
<polygon points="337.0,66.0 336.0,67.0 344.0,72.0 355.0,85.0 356.0,84.0 353.0,79.0 345.0,71.0" fill="#f1f2ef" />
<polygon points="301.0,66.0 303.0,67.0 310.0,64.0 324.0,65.0 326.0,62.0 311.0,61.0 308.0,63.0 303.0,63.0" fill="#9de7e2" opacity="0.95" />
<polygon points="300.0,80.0 299.0,79.0 297.0,79.0 290.0,87.0 291.0,88.0 293.0,86.0 297.0,84.0 300.0,81.0" fill="#116e76" />
<polygon points="209.0,320.0 207.0,322.0 209.0,324.0 209.0,325.0 206.0,328.0 207.0,329.0 213.0,323.0" fill="#666562" />
<polygon points="325.0,68.0 326.0,71.0 331.0,72.0 339.0,77.0 342.0,75.0 340.0,71.0 328.0,66.0" fill="#22b3af" opacity="0.95" />
<polygon points="256.0,142.0 254.0,141.0 249.0,143.0 248.0,142.0 244.0,144.0 245.0,145.0 248.0,145.0" fill="#f1f2ef" />
<polygon points="208.0,325.0 207.0,324.0 204.0,327.0 198.0,330.0 199.0,331.0 203.0,330.0" fill="#959998" />
<polygon points="166.0,285.0 161.0,288.0 160.0,294.0 163.0,296.0 166.0,294.0 169.0,289.0 169.0,287.0" fill="#959998" opacity="0.95" />
<polygon points="202.0,319.0 199.0,317.0 194.0,318.0 189.0,321.0 188.0,324.0 191.0,326.0 196.0,325.0 202.0,321.0" fill="#b37465" opacity="0.95" />
<polygon points="194.0,234.0 191.0,236.0 191.0,239.0 192.0,240.0 192.0,245.0 195.0,247.0 198.0,245.0 198.0,242.0 197.0,241.0 197.0,236.0" fill="#959998" opacity="0.95" />
<polygon points="265.0,109.0 264.0,110.0 265.0,111.0 265.0,120.0 266.0,121.0 267.0,120.0 268.0,116.0 267.0,115.0 267.0,111.0" fill="#22b3af" />
<polygon points="234.0,150.0 234.0,152.0 237.0,154.0 243.0,154.0 246.0,152.0 246.0,150.0 243.0,148.0 237.0,148.0" fill="#116e76" opacity="0.95" />
<polygon points="220.0,213.0 217.0,212.0 211.0,215.0 210.0,218.0 212.0,219.0 220.0,215.0" fill="#394244" opacity="0.95" />
<polygon points="258.0,145.0 256.0,144.0 255.0,145.0 251.0,145.0 249.0,146.0 249.0,148.0 255.0,150.0 258.0,148.0" fill="#22b3af" opacity="0.95" />
<polygon points="195.0,252.0 192.0,254.0 192.0,258.0 195.0,260.0 198.0,258.0 198.0,254.0" fill="#959998" opacity="0.95" />
<polygon points="185.0,331.0 185.0,332.0 186.0,333.0 193.0,333.0 194.0,332.0 193.0,331.0 187.0,331.0 186.0,330.0" fill="#666562" />
<polygon points="276.0,83.0 275.0,83.0 273.0,85.0 273.0,86.0 272.0,87.0 272.0,88.0 273.0,89.0 274.0,89.0 276.0,87.0 276.0,86.0 277.0,85.0 277.0,84.0" fill="#f1f2ef" />
<polygon points="340.0,137.0 337.0,135.0 331.0,138.0 327.0,137.0 324.0,139.0 324.0,141.0 327.0,143.0 330.0,141.0 334.0,142.0 339.0,140.0" fill="#394244" opacity="0.95" />
<polygon points="177.0,329.0 182.0,332.0 183.0,332.0 184.0,331.0 184.0,330.0 183.0,329.0 181.0,329.0 180.0,328.0 178.0,328.0" fill="#959998" />
<polygon points="181.0,212.0 179.0,211.0 175.0,214.0 172.0,215.0 172.0,217.0 174.0,218.0 178.0,215.0 181.0,214.0" fill="#116e76" opacity="0.95" />
<polygon points="232.0,155.0 232.0,157.0 233.0,157.0 234.0,158.0 236.0,158.0 237.0,157.0 238.0,157.0 238.0,155.0 237.0,155.0 236.0,154.0 234.0,154.0 233.0,155.0" fill="#394244" opacity="0.95" />
</svg>