<svg xmlns="http://www.w3.org/2000/svg" width="768" height="768" viewBox="0 0 384 384">
<rect width="384" height="384" fill="#8d6b62"/>
<polygon points="0.0,0.0 0.0,383.0 153.0,383.0 129.0,175.0 185.0,54.0 256.0,190.0 195.0,383.0 383.0,383.0 383.0,0.0" fill="#8f6359" opacity="0.95" />
<polygon points="0.0,0.0 0.0,383.0 153.0,383.0 129.0,175.0 185.0,54.0 256.0,190.0 195.0,383.0 383.0,383.0 383.0,0.0" fill="#8f6359" opacity="0.95" />
<polygon points="0.0,0.0 3.0,62.0 198.0,54.0 220.0,126.0 383.0,126.0 383.0,66.0 213.0,64.0 383.0,62.0 383.0,0.0" fill="#8f6359" />
<polygon points="2.0,259.0 3.0,320.0 152.0,319.0 144.0,258.0" fill="#8f6359" />
<polygon points="0.0,68.0 3.0,126.0 164.0,126.0 171.0,115.0 171.0,66.0" fill="#8f6359" />
<polygon points="237.0,259.0 232.0,320.0 383.0,320.0 383.0,258.0" fill="#8f6359" />
<polygon points="194.0,383.0 383.0,383.0 383.0,324.0 231.0,324.0" fill="#8f6359" />
<polygon points="1.0,325.0 0.0,383.0 153.0,383.0 151.0,324.0" fill="#8f6359" />
<polygon points="0.0,132.0 3.0,190.0 129.0,190.0 130.0,172.0 140.0,161.0 165.0,157.0 164.0,130.0" fill="#8f6359" />
<polygon points="219.0,131.0 219.0,157.0 243.0,161.0 253.0,173.0 254.0,190.0 383.0,190.0 383.0,130.0" fill="#8f6359" />
<polygon points="210.0,112.0 184.0,113.0 179.0,159.0 144.0,160.0 130.0,177.0 139.0,201.0 188.0,231.0 225.0,216.0 253.0,186.0 244.0,163.0 218.0,157.0" fill="#69e0fa" />
<polygon points="151.0,291.0 154.0,383.0 193.0,383.0 225.0,337.0 232.0,303.0 161.0,305.0" fill="#393235" />
<polygon points="152.0,259.0 153.0,294.0 159.0,303.0 223.0,304.0 233.0,298.0 234.0,261.0 230.0,255.0 156.0,255.0" fill="#089a94" />
<polygon points="136.0,201.0 150.0,283.0 158.0,253.0 236.0,259.0 246.0,201.0 193.0,233.0" fill="#393235" />
<polygon points="209.0,112.0 184.0,113.0 180.0,158.0 144.0,160.0 130.0,177.0 139.0,201.0 188.0,231.0 225.0,216.0 253.0,186.0 244.0,163.0 218.0,157.0" fill="#69e0fa" opacity="0.95" />
<polygon points="151.0,301.0 154.0,383.0 194.0,383.0 225.0,337.0 232.0,304.0" fill="#393235" opacity="0.95" />
<polygon points="208.0,112.0 184.0,114.0 179.0,158.0 144.0,160.0 130.0,177.0 139.0,201.0 188.0,231.0 225.0,216.0 253.0,186.0 244.0,163.0 218.0,156.0" fill="#69e0fa" opacity="0.95" />
<polygon points="152.0,302.0 154.0,383.0 194.0,383.0 225.0,337.0 231.0,306.0" fill="#393235" opacity="0.95" />
<polygon points="152.0,259.0 153.0,294.0 159.0,303.0 223.0,304.0 233.0,298.0 234.0,261.0 229.0,255.0 157.0,255.0" fill="#089a94" opacity="0.95" />
<polygon points="137.0,204.0 146.0,261.0 158.0,253.0 236.0,256.0 246.0,204.0 193.0,233.0" fill="#393235" opacity="0.95" />
<polygon points="175.0,60.0 186.0,64.0 185.0,105.0 210.0,106.0 211.0,63.0 197.0,55.0 186.0,55.0" fill="#fc0b1f" />
<polygon points="152.0,259.0 153.0,294.0 159.0,303.0 223.0,304.0 233.0,298.0 234.0,261.0 229.0,255.0 157.0,255.0" fill="#089a94" opacity="0.95" />
<polygon points="138.0,207.0 149.0,260.0 158.0,253.0 237.0,254.0 242.0,205.0 193.0,233.0" fill="#393235" opacity="0.95" />
<polygon points="182.0,112.0 174.0,112.0 166.0,125.0 168.0,158.0 180.0,157.0" fill="#0da2c1" />
<polygon points="174.0,63.0 173.0,105.0 182.0,106.0 184.0,104.0 185.0,64.0" fill="#a71b1c" />
<polygon points="178.0,58.0 177.0,61.0 185.0,64.0 185.0,105.0 210.0,105.0 210.0,62.0 197.0,55.0" fill="#fc0b1f" opacity="0.95" />
<polygon points="0.0,320.0 0.0,324.0 152.0,322.0" fill="#f8f3ef" />
<polygon points="162.0,264.0 186.0,265.0 183.0,272.0 185.0,293.0 161.0,292.0 164.0,285.0 161.0,281.0" fill="#089a94" opacity="0.95" />
<polygon points="180.0,57.0 179.0,60.0 185.0,64.0 185.0,104.0 209.0,105.0 210.0,62.0 197.0,55.0" fill="#fc0b1f" opacity="0.95" />
<polygon points="175.0,63.0 173.0,64.0 173.0,105.0 182.0,106.0 184.0,105.0 184.0,64.0" fill="#a71b1c" opacity="0.95" />
<polygon points="181.0,112.0 173.0,113.0 166.0,125.0 166.0,146.0 169.0,158.0 180.0,157.0 180.0,124.0 183.0,120.0" fill="#0da2c1" opacity="0.95" />
<polygon points="163.0,264.0 182.0,263.0 186.0,266.0 184.0,272.0 186.0,291.0 184.0,293.0 165.0,294.0 161.0,291.0 163.0,285.0 161.0,266.0" fill="#089a94" opacity="0.95" />
<polygon points="161.0,287.0 163.0,285.0 184.0,285.0 186.0,287.0 186.0,292.0 184.0,294.0 163.0,294.0 161.0,292.0" fill="#089a94" />
<polygon points="161.0,265.0 163.0,263.0 183.0,263.0 185.0,265.0 186.0,269.0 183.0,272.0 163.0,272.0 161.0,270.0" fill="#089a94" />
<polygon points="161.0,276.0 163.0,274.0 183.0,274.0 185.0,276.0 185.0,281.0 183.0,283.0 163.0,283.0 161.0,281.0" fill="#089a94" />
<polygon points="198.0,123.0 201.0,125.0 201.0,158.0 199.0,160.0 197.0,158.0 196.0,149.0 196.0,125.0" fill="#69e0fa" />
<polygon points="169.0,108.0 170.0,112.0 189.0,110.0 215.0,111.0 214.0,107.0 173.0,106.0" fill="#393235" />
<polygon points="176.0,63.0 173.0,65.0 173.0,104.0 181.0,106.0 184.0,104.0 184.0,65.0" fill="#a71b1c" opacity="0.95" />
<polygon points="180.0,112.0 173.0,113.0 166.0,125.0 167.0,156.0 170.0,158.0 180.0,156.0 180.0,124.0 183.0,120.0 183.0,114.0" fill="#0da2c1" opacity="0.95" />
<polygon points="162.0,277.0 162.0,280.0 163.0,281.0 183.0,281.0 184.0,280.0 184.0,276.0 183.0,275.0 164.0,275.0" fill="#f8e6a1" />
<polygon points="162.0,266.0 162.0,270.0 166.0,272.0 162.0,276.0 162.0,280.0 184.0,280.0 184.0,276.0 180.0,274.0 184.0,270.0 184.0,266.0" fill="#f8e6a1" opacity="0.95" />
<polygon points="162.0,266.0 162.0,270.0 163.0,271.0 182.0,271.0 184.0,269.0 184.0,266.0 183.0,265.0 163.0,265.0" fill="#f8e6a1" />
<polygon points="198.0,124.0 197.0,125.0 197.0,149.0 199.0,159.0 200.0,158.0 200.0,125.0" fill="#f8f3ef" />
<polygon points="163.0,288.0 163.0,292.0 164.0,293.0 183.0,293.0 184.0,292.0 184.0,288.0 183.0,287.0 164.0,287.0" fill="#fbd86c" />
<polygon points="162.0,267.0 166.0,272.0 162.0,277.0 163.0,280.0 181.0,281.0 184.0,279.0 180.0,274.0 184.0,269.0 183.0,266.0 165.0,265.0" fill="#f8e6a1" opacity="0.95" />
<polygon points="163.0,288.0 163.0,292.0 165.0,293.0 182.0,293.0 184.0,292.0 184.0,288.0 182.0,287.0 165.0,287.0" fill="#fbd86c" opacity="0.95" />
<polygon points="169.0,108.0 169.0,111.0 171.0,112.0 190.0,110.0 190.0,108.0 183.0,106.0 182.0,107.0 173.0,106.0" fill="#393235" opacity="0.95" />
<polygon points="163.0,289.0 163.0,291.0 166.0,293.0 181.0,293.0 184.0,291.0 184.0,289.0 181.0,287.0 166.0,287.0" fill="#fbd86c" opacity="0.95" />
<polygon points="89.0,192.0 90.0,193.0 98.0,193.0 99.0,192.0 101.0,193.0 105.0,192.0 106.0,193.0 107.0,192.0 106.0,191.0 105.0,192.0 104.0,191.0 100.0,192.0 98.0,191.0 90.0,191.0" fill="#e6bda6" />
<polygon points="31.0,192.0 32.0,193.0 33.0,192.0 34.0,193.0 40.0,193.0 41.0,192.0 42.0,193.0 43.0,192.0 42.0,191.0 41.0,192.0 40.0,191.0 34.0,191.0 33.0,192.0 32.0,191.0" fill="#e6bda6" />
<polygon points="207.0,108.0 207.0,110.0 209.0,111.0 211.0,111.0 212.0,112.0 215.0,111.0 215.0,108.0 213.0,107.0 209.0,107.0" fill="#393235" opacity="0.95" />
<polygon points="173.0,106.0 170.0,108.0 170.0,110.0 173.0,112.0 176.0,110.0 176.0,108.0" fill="#393235" opacity="0.95" />
</svg>