<svg xmlns="http://www.w3.org/2000/svg" width="768" height="768" viewBox="0 0 384 384">
<rect width="384" height="384" fill="#935c56"/>
<polygon points="0.0,0.0 0.0,383.0 383.0,383.0 383.0,0.0" fill="#9c554c" />
<polygon points="0.0,0.0 0.0,383.0 383.0,383.0 383.0,0.0" fill="#9c554c" opacity="0.95" />
<polygon points="0.0,0.0 0.0,383.0 383.0,383.0 383.0,0.0" fill="#9c554c" opacity="0.95" />
<polygon points="185.0,132.0 225.0,141.0 251.0,178.0 250.0,224.0 194.0,258.0 156.0,245.0 131.0,221.0 137.0,162.0" fill="#9c554c" />
<polygon points="201.0,134.0 158.0,142.0 133.0,176.0 149.0,211.0 191.0,231.0 229.0,214.0 250.0,190.0 238.0,154.0" fill="#14d2fb" />
<polygon points="185.0,132.0 225.0,141.0 251.0,178.0 250.0,224.0 194.0,258.0 156.0,245.0 131.0,221.0 137.0,162.0" fill="#9c554c" opacity="0.95" />
<polygon points="185.0,132.0 225.0,141.0 251.0,178.0 250.0,224.0 194.0,258.0 156.0,245.0 131.0,221.0 137.0,162.0" fill="#9c554c" opacity="0.95" />
<polygon points="201.0,134.0 205.0,159.0 170.0,149.0 187.0,138.0 175.0,135.0 133.0,176.0 149.0,211.0 191.0,231.0 250.0,190.0 238.0,154.0" fill="#14d2fb" opacity="0.95" />
<polygon points="132.0,196.0 135.0,226.0 188.0,257.0 228.0,242.0 250.0,221.0 249.0,195.0 193.0,232.0" fill="#1f1965" />
<polygon points="201.0,134.0 205.0,159.0 170.0,149.0 186.0,138.0 175.0,135.0 133.0,176.0 149.0,211.0 191.0,231.0 250.0,190.0 238.0,154.0" fill="#14d2fb" opacity="0.95" />
<polygon points="132.0,199.0 135.0,226.0 188.0,257.0 228.0,242.0 250.0,221.0 248.0,198.0 193.0,232.0" fill="#1f1965" opacity="0.95" />
<polygon points="132.0,202.0 133.0,223.0 145.0,236.0 188.0,257.0 228.0,242.0 250.0,221.0 247.0,200.0 189.0,232.0" fill="#1f1965" opacity="0.95" />
<polygon points="166.0,144.0 169.0,141.0 179.0,143.0 189.0,136.0 195.0,136.0 207.0,150.0 207.0,157.0 202.0,161.0 193.0,149.0 176.0,151.0" fill="#14d2fb" />
<polygon points="197.0,139.0 193.0,137.0 189.0,137.0 179.0,144.0 180.0,145.0 187.0,145.0 190.0,148.0 193.0,148.0 197.0,143.0" fill="#1f1965" />
<polygon points="198.0,144.0 195.0,148.0 199.0,156.0 202.0,159.0 204.0,159.0 206.0,156.0 206.0,151.0 202.0,146.0" fill="#dfdcdc" />
<polygon points="182.0,142.0 182.0,144.0 192.0,148.0 196.0,145.0 197.0,139.0 190.0,137.0" fill="#1f1965" opacity="0.95" />
<polygon points="168.0,144.0 171.0,148.0 174.0,149.0 184.0,149.0 185.0,148.0 184.0,147.0 181.0,147.0 175.0,143.0 169.0,143.0" fill="#dfdcdc" />
<polygon points="198.0,145.0 196.0,146.0 196.0,150.0 199.0,156.0 203.0,159.0 206.0,156.0 206.0,151.0 202.0,146.0" fill="#dfdcdc" opacity="0.95" />
<polygon points="193.0,137.0 191.0,137.0 185.0,141.0 185.0,143.0 192.0,148.0 197.0,143.0 197.0,140.0" fill="#1f1965" opacity="0.95" />
<polygon points="199.0,145.0 196.0,147.0 196.0,150.0 199.0,156.0 203.0,158.0 206.0,156.0 206.0,151.0 202.0,146.0" fill="#dfdcdc" opacity="0.95" />
<polygon points="169.0,144.0 169.0,146.0 174.0,149.0 178.0,149.0 180.0,148.0 180.0,146.0 175.0,143.0 171.0,143.0" fill="#dfdcdc" opacity="0.95" />
<polygon points="174.0,143.0 171.0,145.0 171.0,147.0 175.0,149.0 178.0,147.0 178.0,145.0" fill="#dfdcdc" opacity="0.95" />
</svg>