<svg xmlns="http://www.w3.org/2000/svg" width="768" height="768" viewBox="0 0 384 384">
<rect width="384" height="384" fill="#896058"/>
<polygon points="383.0,107.0 71.0,366.0 19.0,357.0 29.0,300.0 0.0,268.0 0.0,383.0 383.0,383.0" fill="#7a4f3b" />
<polygon points="0.0,224.0 95.0,164.0 128.0,184.0 121.0,147.0 185.0,88.0 166.0,37.0 203.0,1.0 246.0,35.0 278.0,0.0 0.0,0.0" fill="#7a4f3b" />
<polygon points="383.0,107.0 71.0,366.0 19.0,357.0 28.0,299.0 0.0,268.0 0.0,383.0 383.0,383.0" fill="#7a4f3b" opacity="0.95" />
<polygon points="383.0,108.0 71.0,366.0 19.0,357.0 28.0,299.0 0.0,268.0 0.0,383.0 383.0,383.0" fill="#7a4f3b" opacity="0.95" />
<polygon points="275.0,178.0 209.0,130.0 124.0,170.0 186.0,231.0 222.0,218.0" fill="#68e4f1" />
<polygon points="0.0,223.0 95.0,164.0 128.0,181.0 121.0,147.0 185.0,89.0 166.0,37.0 203.0,1.0 246.0,34.0 278.0,0.0 0.0,0.0" fill="#7a4f3b" opacity="0.95" />
<polygon points="281.0,0.0 244.0,43.0 323.0,135.0 360.0,100.0" fill="#fe4152" />
<polygon points="217.0,235.0 154.0,234.0 83.0,286.0 32.0,300.0 37.0,330.0 72.0,341.0 124.0,325.0 192.0,277.0" fill="#dc2c6c" />
<polygon points="0.0,223.0 92.0,165.0 128.0,179.0 117.0,155.0 184.0,89.0 165.0,40.0 199.0,3.0 246.0,34.0 278.0,0.0 0.0,0.0" fill="#7a4f3b" opacity="0.95" />
<polygon points="87.0,177.0 45.0,221.0 0.0,236.0 11.0,244.0 0.0,266.0 29.0,298.0 68.0,292.0 132.0,248.0 72.0,211.0" fill="#f0dcab" />
<polygon points="209.0,130.0 126.0,170.0 187.0,231.0 274.0,179.0" fill="#68e4f1" opacity="0.95" />
<polygon points="383.0,0.0 325.0,28.0 362.0,101.0 323.0,136.0 297.0,113.0 302.0,152.0 210.0,227.0 263.0,211.0 376.0,110.0" fill="#211f22" />
<polygon points="280.0,0.0 244.0,43.0 323.0,134.0 360.0,100.0" fill="#fe4152" opacity="0.95" />
<polygon points="217.0,235.0 151.0,236.0 83.0,286.0 33.0,301.0 38.0,332.0 72.0,341.0 124.0,325.0 197.0,273.0" fill="#dc2c6c" opacity="0.95" />
<polygon points="209.0,130.0 127.0,171.0 187.0,231.0 274.0,179.0" fill="#68e4f1" opacity="0.95" />
<polygon points="200.0,4.0 166.0,43.0 170.0,65.0 188.0,89.0 237.0,64.0 209.0,29.0" fill="#dc2c6c" />
<polygon points="90.0,185.0 31.0,230.0 0.0,237.0 9.0,243.0 0.0,267.0 28.0,297.0 68.0,292.0 130.0,250.0 72.0,211.0" fill="#f0dcab" opacity="0.95" />
<polygon points="280.0,0.0 244.0,43.0 323.0,134.0 359.0,99.0" fill="#fe4152" opacity="0.95" />
<polygon points="217.0,236.0 151.0,236.0 83.0,286.0 35.0,302.0 37.0,330.0 72.0,341.0 124.0,325.0 192.0,277.0" fill="#dc2c6c" opacity="0.95" />
<polygon points="173.0,294.0 72.0,342.0 43.0,337.0 30.0,301.0 17.0,351.0 34.0,368.0 71.0,365.0" fill="#a84a50" />
<polygon points="92.0,188.0 73.0,210.0 133.0,247.0 142.0,237.0" fill="#dab57a" />
<polygon points="383.0,0.0 326.0,27.0 361.0,102.0 322.0,136.0 299.0,117.0 309.0,142.0 219.0,232.0 376.0,110.0" fill="#211f22" opacity="0.95" />
<polygon points="208.0,128.0 275.0,177.0 290.0,163.0 233.0,117.0 221.0,118.0" fill="#1dc5d2" />
<polygon points="129.0,248.0 69.0,203.0 11.0,238.0 0.0,267.0 28.0,297.0 46.0,299.0 91.0,280.0" fill="#f0dcab" opacity="0.95" />
<polygon points="231.0,79.0 207.0,86.0 173.0,107.0 188.0,133.0 226.0,101.0 234.0,85.0" fill="#553131" />
<polygon points="200.0,6.0 166.0,43.0 170.0,65.0 189.0,89.0 236.0,64.0" fill="#dc2c6c" opacity="0.95" />
<polygon points="383.0,0.0 327.0,27.0 366.0,83.0 361.0,102.0 310.0,129.0 220.0,232.0 383.0,101.0" fill="#211f22" opacity="0.95" />
<polygon points="255.0,78.0 238.0,100.0 250.0,104.0 301.0,151.0 306.0,138.0" fill="#06768d" />
<polygon points="222.0,116.0 239.0,119.0 291.0,163.0 300.0,152.0 247.0,103.0 237.0,102.0" fill="#069db3" />
<polygon points="107.0,167.0 94.0,186.0 96.0,193.0 144.0,237.0 154.0,226.0 117.0,191.0" fill="#c28d6b" />
<polygon points="200.0,8.0 166.0,43.0 170.0,65.0 189.0,89.0 236.0,64.0" fill="#dc2c6c" opacity="0.95" />
<polygon points="176.0,110.0 165.0,114.0 142.0,139.0 143.0,149.0 164.0,146.0 186.0,133.0 184.0,121.0" fill="#211f22" />
<polygon points="16.0,348.0 34.0,368.0 71.0,365.0 162.0,304.0 61.0,342.0 37.0,332.0 30.0,302.0" fill="#a84a50" opacity="0.95" />
<polygon points="232.0,80.0 212.0,84.0 174.0,106.0 187.0,131.0 226.0,101.0" fill="#553131" opacity="0.95" />
<polygon points="109.0,169.0 109.0,177.0 118.0,191.0 155.0,225.0 161.0,214.0 134.0,187.0" fill="#8f7a8b" />
<polygon points="209.0,127.0 268.0,173.0 277.0,176.0 289.0,165.0 233.0,117.0 221.0,118.0" fill="#1dc5d2" opacity="0.95" />
<polygon points="74.0,206.0 73.0,211.0 127.0,246.0 142.0,239.0 92.0,189.0" fill="#dab57a" opacity="0.95" />
<polygon points="249.0,71.0 205.0,81.0 236.0,77.0 232.0,97.0 177.0,142.0 147.0,155.0 133.0,145.0 127.0,160.0 149.0,161.0 202.0,130.0 243.0,93.0" fill="#f6d60e" />
<polygon points="259.0,70.0 256.0,78.0 308.0,140.0 306.0,128.0" fill="#104858" />
<polygon points="253.0,81.0 240.0,100.0 303.0,148.0 306.0,138.0" fill="#06768d" opacity="0.95" />
<polygon points="383.0,100.0 263.0,212.0 225.0,234.0 203.0,228.0 218.0,235.0 215.0,248.0 320.0,171.0" fill="#553131" />
<polygon points="16.0,348.0 31.0,367.0 67.0,366.0 147.0,316.0 61.0,342.0 36.0,330.0 30.0,302.0" fill="#a84a50" opacity="0.95" />
<polygon points="232.0,80.0 199.0,90.0 175.0,106.0 187.0,131.0 226.0,101.0" fill="#553131" opacity="0.95" />
<polygon points="51.0,211.0 40.0,203.0 19.0,217.0 9.0,231.0 28.0,228.0" fill="#211f22" />
<polygon points="210.0,126.0 268.0,173.0 277.0,176.0 289.0,165.0 233.0,117.0" fill="#1dc5d2" opacity="0.95" />
<polygon points="81.0,185.0 73.0,183.0 34.0,205.0 40.0,202.0 53.0,213.0 68.0,202.0" fill="#553131" />
<polygon points="74.0,206.0 76.0,213.0 127.0,246.0 142.0,239.0 92.0,190.0" fill="#dab57a" opacity="0.95" />
<polygon points="103.0,174.0 94.0,186.0 96.0,193.0 141.0,235.0 146.0,235.0 153.0,225.0" fill="#c28d6b" opacity="0.95" />
<polygon points="225.0,113.0 239.0,119.0 289.0,161.0 298.0,155.0 299.0,150.0 250.0,105.0 238.0,102.0" fill="#069db3" opacity="0.95" />
<polygon points="176.0,110.0 150.0,128.0 142.0,139.0 143.0,149.0 164.0,146.0 186.0,133.0" fill="#211f22" opacity="0.95" />
<polygon points="253.0,82.0 241.0,99.0 303.0,148.0 306.0,138.0" fill="#06768d" opacity="0.95" />
<polygon points="104.0,168.0 48.0,190.0 0.0,231.0 67.0,182.0 87.0,176.0 92.0,186.0" fill="#e2eeda" />
<polygon points="301.0,15.0 301.0,25.0 323.0,52.0 333.0,53.0 335.0,49.0" fill="#8f7a8b" />
<polygon points="295.0,7.0 297.0,18.0 303.0,15.0 337.0,49.0 330.0,60.0 356.0,82.0 334.0,43.0" fill="#e2eeda" />
<polygon points="226.0,112.0 291.0,161.0 299.0,150.0 250.0,105.0 238.0,102.0" fill="#069db3" opacity="0.95" />
<polygon points="317.0,10.0 321.0,15.0 329.0,17.0 336.0,14.0 353.0,0.0 317.0,0.0" fill="#7a4f3b" />
<polygon points="108.0,171.0 118.0,191.0 154.0,224.0 161.0,218.0 161.0,214.0 135.0,188.0" fill="#8f7a8b" opacity="0.95" />
<polygon points="249.0,71.0 208.0,79.0 236.0,77.0 232.0,97.0 177.0,142.0 147.0,155.0 132.0,148.0 127.0,160.0 149.0,161.0 202.0,130.0 243.0,93.0" fill="#f6d60e" opacity="0.95" />
<polygon points="103.0,175.0 94.0,186.0 96.0,193.0 141.0,235.0 146.0,235.0 153.0,225.0" fill="#c28d6b" opacity="0.95" />
<polygon points="176.0,110.0 150.0,128.0 142.0,139.0 143.0,149.0 164.0,146.0 186.0,133.0" fill="#211f22" opacity="0.95" />
<polygon points="301.0,0.0 323.0,26.0 338.0,21.0 364.0,1.0 354.0,0.0 326.0,18.0 317.0,12.0 316.0,0.0" fill="#553131" />
<polygon points="207.0,14.0 209.0,26.0 233.0,56.0 236.0,55.0 233.0,40.0 230.0,43.0" fill="#f0dcab" />
<polygon points="258.0,72.0 260.0,85.0 299.0,130.0 310.0,137.0 262.0,72.0" fill="#104858" opacity="0.95" />
<polygon points="51.0,211.0 40.0,204.0 19.0,217.0 10.0,230.0 15.0,232.0 28.0,228.0" fill="#211f22" opacity="0.95" />
<polygon points="110.0,173.0 109.0,177.0 118.0,191.0 154.0,224.0 161.0,218.0 161.0,214.0 135.0,188.0" fill="#8f7a8b" opacity="0.95" />
<polygon points="80.0,184.0 76.0,182.0 62.0,188.0 57.0,194.0 44.0,198.0 41.0,203.0 54.0,212.0 80.0,190.0" fill="#553131" opacity="0.95" />
<polygon points="204.0,6.0 219.0,30.0 218.0,23.0 221.0,21.0 236.0,34.0 234.0,40.0 237.0,43.0 244.0,40.0 245.0,37.0 214.0,9.0" fill="#e2eeda" />
<polygon points="186.0,91.0 170.0,100.0 130.0,139.0 135.0,139.0 160.0,112.0" fill="#9dc99d" />
<polygon points="300.0,17.0 302.0,26.0 323.0,52.0 334.0,52.0 335.0,49.0 304.0,17.0" fill="#8f7a8b" opacity="0.95" />
<polygon points="258.0,73.0 256.0,78.0 299.0,130.0 307.0,134.0 263.0,74.0" fill="#104858" opacity="0.95" />
<polygon points="270.0,209.0 225.0,234.0 209.0,229.0 218.0,234.0 216.0,247.0 230.0,242.0" fill="#553131" opacity="0.95" />
<polygon points="80.0,184.0 76.0,182.0 62.0,188.0 57.0,194.0 44.0,198.0 42.0,203.0 54.0,212.0 80.0,190.0" fill="#553131" opacity="0.95" />
<polygon points="317.0,10.0 321.0,15.0 329.0,17.0 336.0,14.0 353.0,0.0 317.0,0.0" fill="#7a4f3b" opacity="0.95" />
<polygon points="345.0,55.0 358.0,77.0 356.0,83.0 346.0,80.0 355.0,89.0 366.0,93.0 362.0,78.0" fill="#57baa0" />
<polygon points="336.0,52.0 331.0,59.0 333.0,65.0 349.0,80.0 357.0,81.0 355.0,73.0 342.0,53.0" fill="#e2eeda" opacity="0.95" />
<polygon points="270.0,80.0 272.0,86.0 294.0,112.0 295.0,108.0" fill="#211f22" />
<polygon points="50.0,211.0 40.0,204.0 19.0,217.0 10.0,230.0 15.0,232.0 28.0,228.0 48.0,216.0" fill="#211f22" opacity="0.95" />
<polygon points="133.0,139.0 122.0,148.0 118.0,156.0 118.0,164.0 120.0,166.0 127.0,162.0 125.0,156.0" fill="#57baa0" />
<polygon points="301.0,0.0 324.0,26.0 338.0,21.0 364.0,1.0 354.0,0.0 326.0,18.0 317.0,12.0 316.0,0.0" fill="#553131" opacity="0.95" />
<polygon points="104.0,168.0 97.0,166.0 67.0,181.0 87.0,176.0 93.0,184.0" fill="#e2eeda" opacity="0.95" />
<polygon points="224.0,27.0 221.0,29.0 230.0,42.0 234.0,34.0 227.0,27.0" fill="#8f7a8b" />
<polygon points="245.0,68.0 221.0,73.0 224.0,77.0 234.0,76.0 239.0,80.0 237.0,90.0 222.0,107.0 225.0,111.0 247.0,87.0 250.0,73.0" fill="#f6d60e" opacity="0.95" />
<polygon points="302.0,19.0 302.0,26.0 320.0,48.0 326.0,53.0 334.0,52.0 335.0,49.0 306.0,19.0" fill="#8f7a8b" opacity="0.95" />
<polygon points="317.0,10.0 321.0,15.0 329.0,17.0 336.0,14.0 353.0,0.0 317.0,0.0" fill="#7a4f3b" opacity="0.95" />
<polygon points="336.0,52.0 331.0,59.0 333.0,65.0 349.0,80.0 356.0,81.0 357.0,77.0 342.0,53.0" fill="#e2eeda" opacity="0.95" />
<polygon points="209.0,22.0 209.0,26.0 219.0,41.0 232.0,55.0 236.0,55.0 234.0,44.0 227.0,40.0 213.0,22.0" fill="#f0dcab" opacity="0.95" />
<polygon points="138.0,185.0 137.0,189.0 153.0,206.0 154.0,205.0 156.0,206.0 157.0,204.0" fill="#104858" />
<polygon points="204.0,6.0 214.0,23.0 221.0,21.0 228.0,27.0 232.0,27.0 214.0,9.0" fill="#e2eeda" opacity="0.95" />
<polygon points="244.0,53.0 244.0,57.0 248.0,62.0 243.0,66.0 251.0,71.0 257.0,66.0 249.0,61.0 252.0,58.0 250.0,54.0" fill="#57baa0" />
<polygon points="169.0,149.0 166.0,147.0 147.0,155.0 138.0,155.0 131.0,150.0 127.0,154.0 127.0,160.0 143.0,163.0 165.0,154.0" fill="#f6d60e" opacity="0.95" />
<polygon points="215.0,31.0 214.0,34.0 231.0,54.0 235.0,54.0 235.0,47.0 222.0,33.0 217.0,30.0" fill="#f0dcab" opacity="0.95" />
<polygon points="104.0,168.0 97.0,166.0 82.0,172.0 81.0,175.0 89.0,177.0 94.0,182.0 100.0,177.0" fill="#e2eeda" opacity="0.95" />
<polygon points="350.0,83.0 355.0,89.0 364.0,93.0 367.0,92.0 362.0,78.0 358.0,78.0 358.0,81.0 355.0,83.0" fill="#57baa0" opacity="0.95" />
<polygon points="129.0,142.0 122.0,148.0 118.0,156.0 118.0,164.0 120.0,165.0 126.0,162.0 125.0,156.0 131.0,145.0" fill="#57baa0" opacity="0.95" />
<polygon points="232.0,77.0 231.0,78.0 235.0,82.0 235.0,85.0 228.0,97.0 229.0,99.0 234.0,93.0 238.0,84.0 237.0,80.0" fill="#7a4f3b" />
<polygon points="122.0,166.0 124.0,168.0 131.0,168.0 135.0,166.0 128.0,163.0 124.0,164.0" fill="#1dc5d2" />
<polygon points="288.0,1.0 288.0,4.0 290.0,8.0 293.0,8.0 295.0,6.0 297.0,6.0 300.0,8.0 301.0,7.0 293.0,0.0 289.0,0.0" fill="#57baa0" />
<polygon points="174.0,104.0 173.0,103.0 168.0,106.0 155.0,118.0 156.0,119.0" fill="#dab57a" />
<polygon points="222.0,28.0 222.0,31.0 225.0,36.0 229.0,39.0 232.0,38.0 233.0,32.0 226.0,27.0" fill="#8f7a8b" opacity="0.95" />
<polygon points="360.0,80.0 355.0,83.0 353.0,87.0 364.0,93.0 367.0,91.0 364.0,82.0" fill="#57baa0" opacity="0.95" />
<polygon points="203.0,85.0 201.0,83.0 193.0,90.0 188.0,91.0 186.0,93.0 189.0,94.0" fill="#dab57a" />
<polygon points="244.0,46.0 242.0,48.0 242.0,51.0 243.0,52.0 248.0,53.0 249.0,52.0" fill="#06768d" />
<polygon points="246.0,54.0 244.0,57.0 248.0,62.0 244.0,67.0 250.0,70.0 256.0,67.0 256.0,65.0 249.0,62.0 251.0,56.0" fill="#57baa0" opacity="0.95" />
<polygon points="205.0,8.0 205.0,11.0 212.0,16.0 212.0,19.0 216.0,22.0 221.0,19.0 221.0,16.0 214.0,9.0 209.0,6.0" fill="#e2eeda" opacity="0.95" />
<polygon points="256.0,68.0 251.0,72.0 251.0,76.0 252.0,77.0 256.0,74.0 256.0,72.0 257.0,71.0 257.0,69.0" fill="#1dc5d2" />
<polygon points="225.0,27.0 222.0,29.0 222.0,31.0 225.0,36.0 229.0,39.0 233.0,36.0 233.0,32.0" fill="#8f7a8b" opacity="0.95" />
<polygon points="125.0,146.0 122.0,148.0 118.0,156.0 118.0,162.0 121.0,164.0 125.0,162.0 125.0,156.0 128.0,148.0" fill="#57baa0" opacity="0.95" />
<polygon points="143.0,131.0 136.0,140.0 137.0,141.0 143.0,134.0 144.0,132.0" fill="#c28d6b" />
<polygon points="288.0,0.0 288.0,4.0 289.0,5.0 289.0,7.0 292.0,8.0 296.0,6.0 296.0,3.0 294.0,0.0" fill="#57baa0" opacity="0.95" />
<polygon points="238.0,32.0 236.0,33.0 236.0,36.0 234.0,38.0 234.0,40.0 237.0,42.0 244.0,40.0 244.0,36.0" fill="#e2eeda" opacity="0.95" />
<polygon points="239.0,57.0 237.0,59.0 239.0,61.0 241.0,61.0 243.0,63.0 244.0,62.0 244.0,61.0 240.0,57.0" fill="#c28d6b" />
<polygon points="220.0,22.0 219.0,23.0 219.0,25.0 221.0,28.0 222.0,27.0 223.0,27.0 224.0,26.0 224.0,25.0" fill="#06768d" />
<polygon points="123.0,165.0 123.0,167.0 125.0,168.0 131.0,168.0 133.0,167.0 133.0,165.0 128.0,163.0" fill="#1dc5d2" opacity="0.95" />
<polygon points="254.0,70.0 251.0,72.0 251.0,75.0 252.0,75.0 253.0,76.0 256.0,74.0 256.0,71.0 255.0,71.0" fill="#1dc5d2" opacity="0.95" />
<polygon points="152.0,200.0 151.0,201.0 150.0,201.0 150.0,203.0 153.0,205.0 154.0,204.0 155.0,204.0 155.0,202.0" fill="#104858" opacity="0.95" />
<polygon points="244.0,47.0 243.0,48.0 242.0,48.0 242.0,51.0 245.0,52.0 246.0,51.0 247.0,51.0 247.0,49.0" fill="#06768d" opacity="0.95" />
</svg>