<svg xmlns="http://www.w3.org/2000/svg" width="768" height="768" viewBox="0 0 384 384">
<rect width="384" height="384" fill="#896356"/>
<polygon points="0.0,0.0 0.0,383.0 383.0,383.0 383.0,0.0" fill="#805646" />
<polygon points="0.0,0.0 0.0,383.0 383.0,383.0 383.0,0.0" fill="#805646" opacity="0.95" />
<polygon points="0.0,0.0 0.0,383.0 383.0,383.0 383.0,0.0" fill="#805646" opacity="0.95" />
<polygon points="334.0,42.0 362.0,125.0 171.0,315.0 131.0,321.0 42.0,261.0 171.0,33.0 240.0,28.0 237.0,91.0" fill="#805646" />
<polygon points="334.0,42.0 362.0,125.0 171.0,315.0 132.0,321.0 42.0,261.0 171.0,33.0 240.0,28.0 239.0,90.0" fill="#805646" opacity="0.95" />
<polygon points="334.0,42.0 362.0,125.0 171.0,315.0 132.0,321.0 42.0,261.0 171.0,33.0 223.0,16.0 259.0,90.0 289.0,44.0" fill="#805646" opacity="0.95" />
<polygon points="219.0,109.0 172.0,123.0 57.0,256.0 126.0,303.0 154.0,298.0 207.0,238.0 156.0,217.0 152.0,190.0" fill="#805646" />
<polygon points="245.0,35.0 219.0,15.0 197.0,18.0 153.0,51.0 143.0,82.0 178.0,94.0 209.0,90.0" fill="#de7f77" />
<polygon points="215.0,111.0 172.0,123.0 57.0,256.0 126.0,303.0 154.0,298.0 205.0,238.0 156.0,217.0 152.0,190.0" fill="#805646" opacity="0.95" />
<polygon points="354.0,69.0 340.0,120.0 301.0,130.0 223.0,224.0 176.0,229.0 223.0,239.0 140.0,322.0 179.0,307.0 359.0,128.0" fill="#3a2722" />
<polygon points="274.0,117.0 257.0,108.0 240.0,112.0 175.0,187.0 176.0,198.0 187.0,205.0 211.0,201.0 271.0,131.0" fill="#02c8cb" />
<polygon points="214.0,113.0 172.0,123.0 57.0,256.0 126.0,303.0 154.0,298.0 204.0,239.0 156.0,217.0 152.0,190.0" fill="#805646" opacity="0.95" />
<polygon points="294.0,106.0 233.0,94.0 156.0,203.0 165.0,210.0 160.0,196.0 258.0,107.0 276.0,125.0 217.0,196.0 224.0,211.0 296.0,124.0" fill="#a7e8ec" />
<polygon points="326.0,52.0 297.0,52.0 275.0,94.0 296.0,107.0 329.0,100.0 336.0,78.0" fill="#f86265" />
<polygon points="233.0,37.0 202.0,82.0 183.0,86.0 164.0,75.0 166.0,55.0 197.0,29.0 214.0,24.0" fill="#de7f77" />
<polygon points="232.0,37.0 214.0,25.0 197.0,30.0 167.0,55.0 165.0,75.0 183.0,85.0 202.0,81.0" fill="#f86265" />
<polygon points="247.0,43.0 215.0,100.0 167.0,105.0 55.0,255.0 172.0,122.0 235.0,91.0" fill="#3a2722" />
<polygon points="245.0,35.0 219.0,15.0 197.0,18.0 153.0,51.0 143.0,82.0 178.0,94.0 209.0,90.0" fill="#de7f77" opacity="0.95" />
<polygon points="166.0,94.0 45.0,230.0 46.0,243.0 147.0,128.0" fill="#fbbea5" />
<polygon points="356.0,71.0 340.0,120.0 300.0,132.0 223.0,224.0 179.0,230.0 223.0,239.0 146.0,321.0 359.0,128.0" fill="#3a2722" opacity="0.95" />
<polygon points="274.0,117.0 257.0,108.0 240.0,112.0 175.0,187.0 176.0,198.0 187.0,205.0 211.0,201.0 271.0,131.0" fill="#02c8cb" opacity="0.95" />
<polygon points="294.0,106.0 233.0,94.0 158.0,181.0 156.0,203.0 258.0,107.0 276.0,125.0 217.0,196.0 228.0,207.0 298.0,121.0" fill="#a7e8ec" opacity="0.95" />
<polygon points="357.0,73.0 346.0,114.0 300.0,132.0 200.0,232.0 223.0,239.0 153.0,320.0 359.0,128.0" fill="#3a2722" opacity="0.95" />
<polygon points="243.0,32.0 219.0,15.0 197.0,18.0 153.0,51.0 149.0,75.0 169.0,92.0 209.0,90.0 243.0,46.0" fill="#de7f77" opacity="0.95" />
<polygon points="222.0,237.0 213.0,233.0 160.0,296.0 121.0,309.0 39.0,253.0 132.0,318.0" fill="#fbbea5" />
<polygon points="233.0,37.0 202.0,82.0 183.0,86.0 164.0,75.0 166.0,55.0 197.0,29.0 214.0,24.0" fill="#de7f77" opacity="0.95" />
<polygon points="326.0,52.0 296.0,53.0 276.0,95.0 296.0,106.0 329.0,100.0 336.0,78.0" fill="#f86265" opacity="0.95" />
<polygon points="296.0,109.0 236.0,92.0 154.0,199.0 258.0,107.0 276.0,125.0 217.0,196.0 229.0,205.0" fill="#a7e8ec" opacity="0.95" />
<polygon points="330.0,41.0 289.0,45.0 263.0,90.0 275.0,93.0 297.0,51.0 321.0,49.0 336.0,92.0 297.0,109.0 344.0,104.0 351.0,73.0" fill="#de7f77" />
<polygon points="274.0,117.0 257.0,108.0 240.0,112.0 175.0,187.0 176.0,198.0 187.0,205.0 211.0,201.0 271.0,131.0" fill="#02c8cb" opacity="0.95" />
<polygon points="249.0,44.0 215.0,100.0 167.0,107.0 53.0,253.0 172.0,122.0 223.0,104.0" fill="#3a2722" opacity="0.95" />
<polygon points="232.0,37.0 214.0,25.0 197.0,30.0 167.0,55.0 165.0,75.0 183.0,85.0 202.0,81.0" fill="#f86265" opacity="0.95" />
<polygon points="167.0,95.0 44.0,238.0 92.0,193.0" fill="#fbbea5" opacity="0.95" />
<polygon points="299.0,121.0 230.0,206.0 201.0,221.0 205.0,229.0 233.0,214.0 297.0,135.0" fill="#025f6b" />
<polygon points="233.0,37.0 202.0,82.0 183.0,86.0 164.0,75.0 166.0,55.0 197.0,29.0 214.0,24.0" fill="#de7f77" opacity="0.95" />
<polygon points="326.0,52.0 296.0,53.0 276.0,94.0 296.0,106.0 329.0,100.0 336.0,78.0" fill="#f86265" opacity="0.95" />
<polygon points="249.0,45.0 215.0,100.0 167.0,107.0 52.0,252.0 172.0,122.0 223.0,104.0" fill="#3a2722" opacity="0.95" />
<polygon points="167.0,95.0 44.0,238.0 92.0,193.0" fill="#fbbea5" opacity="0.95" />
<polygon points="232.0,37.0 214.0,25.0 197.0,30.0 167.0,55.0 165.0,75.0 183.0,85.0 202.0,81.0" fill="#f86265" opacity="0.95" />
<polygon points="161.0,196.0 168.0,212.0 183.0,218.0 210.0,218.0 223.0,209.0 214.0,199.0 202.0,206.0 187.0,206.0 173.0,194.0" fill="#7ceaea" />
<polygon points="40.0,239.0 48.0,259.0 122.0,307.0 50.0,254.0" fill="#fde5d8" />
<polygon points="221.0,235.0 142.0,305.0 119.0,308.0 45.0,262.0 132.0,318.0 164.0,300.0" fill="#fbbea5" opacity="0.95" />
<polygon points="330.0,41.0 289.0,45.0 264.0,91.0 275.0,93.0 296.0,52.0 321.0,49.0 336.0,92.0 298.0,111.0 344.0,104.0 351.0,73.0" fill="#de7f77" opacity="0.95" />
<polygon points="221.0,85.0 197.0,95.0 168.0,94.0 182.0,106.0 196.0,106.0 215.0,98.0" fill="#c60b21" />
<polygon points="300.0,125.0 222.0,214.0 203.0,221.0 205.0,228.0 233.0,214.0" fill="#025f6b" opacity="0.95" />
<polygon points="347.0,104.0 331.0,112.0 305.0,119.0 313.0,127.0 327.0,125.0 343.0,116.0" fill="#c60b21" />
<polygon points="330.0,41.0 289.0,45.0 264.0,90.0 275.0,92.0 296.0,52.0 321.0,49.0 336.0,92.0 298.0,111.0 344.0,104.0 351.0,73.0" fill="#de7f77" opacity="0.95" />
<polygon points="299.0,127.0 230.0,206.0 204.0,222.0 206.0,228.0 233.0,214.0" fill="#025f6b" opacity="0.95" />
<polygon points="161.0,196.0 168.0,212.0 179.0,217.0 205.0,219.0 222.0,212.0 223.0,205.0 214.0,200.0 202.0,206.0 187.0,206.0 172.0,194.0" fill="#7ceaea" opacity="0.95" />
<polygon points="166.0,220.0 169.0,224.0 186.0,229.0 202.0,229.0 204.0,226.0 199.0,220.0 188.0,220.0 172.0,215.0" fill="#068e97" />
<polygon points="40.0,239.0 48.0,259.0 122.0,306.0 50.0,254.0" fill="#fde5d8" opacity="0.95" />
<polygon points="221.0,235.0 212.0,234.0 161.0,295.0 142.0,305.0 126.0,304.0 119.0,313.0 132.0,318.0 151.0,311.0" fill="#fbbea5" opacity="0.95" />
<polygon points="166.0,105.0 120.0,164.0 149.0,131.0" fill="#671720" />
<polygon points="241.0,51.0 221.0,83.0 222.0,90.0" fill="#671720" />
<polygon points="221.0,86.0 197.0,95.0 171.0,93.0 169.0,96.0 183.0,106.0 196.0,106.0 215.0,98.0" fill="#c60b21" opacity="0.95" />
<polygon points="161.0,197.0 169.0,213.0 183.0,218.0 205.0,219.0 222.0,212.0 223.0,205.0 214.0,200.0 202.0,206.0 187.0,206.0 172.0,195.0" fill="#7ceaea" opacity="0.95" />
<polygon points="152.0,200.0 152.0,211.0 155.0,215.0 164.0,221.0 167.0,218.0 168.0,214.0" fill="#02c8cb" />
<polygon points="347.0,106.0 306.0,120.0 314.0,127.0 327.0,125.0 342.0,117.0" fill="#c60b21" opacity="0.95" />
<polygon points="46.0,255.0 122.0,305.0 58.0,258.0" fill="#fde5d8" opacity="0.95" />
<polygon points="166.0,220.0 167.0,223.0 181.0,228.0 203.0,228.0 203.0,224.0 198.0,220.0 188.0,220.0 172.0,215.0" fill="#068e97" opacity="0.95" />
<polygon points="154.0,86.0 149.0,91.0 149.0,93.0 156.0,99.0 161.0,94.0 165.0,92.0" fill="#c60b21" />
<polygon points="220.0,89.0 216.0,87.0 197.0,95.0 175.0,94.0 172.0,98.0 183.0,106.0 196.0,106.0 215.0,98.0" fill="#c60b21" opacity="0.95" />
<polygon points="347.0,107.0 344.0,105.0 331.0,112.0 312.0,116.0 307.0,121.0 314.0,127.0 327.0,125.0 342.0,117.0" fill="#c60b21" opacity="0.95" />
<polygon points="166.0,220.0 169.0,224.0 186.0,229.0 203.0,227.0 203.0,224.0 198.0,220.0 188.0,220.0 172.0,215.0" fill="#068e97" opacity="0.95" />
<polygon points="166.0,301.0 163.0,301.0 148.0,314.0 135.0,318.0 141.0,319.0 151.0,316.0" fill="#de7f77" />
<polygon points="301.0,117.0 300.0,118.0 301.0,119.0 301.0,129.0 302.0,130.0 312.0,129.0 313.0,128.0 302.0,117.0" fill="#671720" />
<polygon points="151.0,202.0 151.0,208.0 154.0,214.0 163.0,220.0 166.0,219.0 168.0,213.0 161.0,209.0 155.0,202.0" fill="#02c8cb" opacity="0.95" />
<polygon points="150.0,82.0 148.0,82.0 144.0,85.0 146.0,89.0 148.0,91.0 154.0,85.0" fill="#f86265" />
<polygon points="152.0,204.0 151.0,208.0 154.0,214.0 163.0,220.0 166.0,219.0 168.0,214.0 156.0,204.0" fill="#02c8cb" opacity="0.95" />
<polygon points="154.0,87.0 149.0,91.0 149.0,93.0 153.0,97.0 156.0,98.0 162.0,94.0 163.0,91.0" fill="#c60b21" opacity="0.95" />
<polygon points="168.0,102.0 171.0,105.0 174.0,106.0 177.0,106.0 178.0,107.0 181.0,106.0 176.0,101.0 173.0,100.0 171.0,98.0" fill="#671720" />
<polygon points="234.0,68.0 230.0,68.0 230.0,71.0 225.0,76.0 222.0,84.0 226.0,84.0" fill="#671720" opacity="0.95" />
<polygon points="154.0,87.0 149.0,91.0 149.0,93.0 153.0,97.0 156.0,98.0 162.0,93.0 162.0,91.0 160.0,89.0" fill="#c60b21" opacity="0.95" />
<polygon points="301.0,120.0 301.0,129.0 307.0,130.0 311.0,128.0 311.0,126.0 305.0,120.0 303.0,119.0" fill="#671720" opacity="0.95" />
<polygon points="166.0,286.0 159.0,294.0 160.0,295.0 167.0,287.0" fill="#fde5d8" />
<polygon points="150.0,82.0 148.0,82.0 145.0,84.0 145.0,87.0 146.0,89.0 148.0,90.0 153.0,86.0 153.0,84.0" fill="#f86265" opacity="0.95" />
<polygon points="169.0,101.0 169.0,103.0 174.0,106.0 178.0,105.0 178.0,103.0 172.0,99.0" fill="#671720" opacity="0.95" />
<polygon points="304.0,121.0 301.0,123.0 301.0,128.0 304.0,130.0 307.0,130.0 310.0,128.0 310.0,126.0 308.0,123.0" fill="#671720" opacity="0.95" />
<polygon points="150.0,82.0 148.0,82.0 145.0,84.0 145.0,87.0 148.0,89.0 151.0,88.0 153.0,86.0 153.0,84.0" fill="#f86265" opacity="0.95" />
<polygon points="172.0,99.0 169.0,101.0 169.0,103.0 174.0,106.0 177.0,104.0 177.0,102.0" fill="#671720" opacity="0.95" />
</svg>