<svg xmlns="http://www.w3.org/2000/svg" width="768" height="768" viewBox="0 0 384 384">
<rect width="384" height="384" fill="#8e6f63"/>
<polygon points="10.0,64.0 0.0,383.0 173.0,383.0 184.0,257.0 131.0,180.0 187.0,146.0 187.0,53.0 200.0,153.0 251.0,180.0 197.0,252.0 212.0,383.0 383.0,383.0 364.0,51.0 176.0,19.0" fill="#94705f" />
<polygon points="10.0,64.0 0.0,383.0 172.0,383.0 184.0,257.0 131.0,180.0 187.0,146.0 187.0,53.0 251.0,180.0 197.0,253.0 213.0,383.0 383.0,383.0 364.0,51.0 176.0,19.0" fill="#94705f" opacity="0.95" />
<polygon points="10.0,64.0 0.0,383.0 172.0,383.0 184.0,257.0 131.0,180.0 187.0,144.0 187.0,53.0 251.0,180.0 197.0,254.0 213.0,383.0 383.0,383.0 364.0,51.0 176.0,19.0" fill="#94705f" opacity="0.95" />
<polygon points="0.0,0.0 0.0,79.0 73.0,29.0 176.0,18.0 304.0,27.0 383.0,73.0 383.0,0.0" fill="#6e4c3f" />
<polygon points="0.0,0.0 0.0,79.0 73.0,29.0 176.0,18.0 304.0,27.0 383.0,73.0 383.0,0.0" fill="#6e4c3f" opacity="0.95" />
<polygon points="250.0,180.0 226.0,161.0 201.0,157.0 204.0,178.0 183.0,182.0 178.0,158.0 139.0,170.0 132.0,190.0 211.0,219.0 243.0,205.0" fill="#3ed5e7" />
<polygon points="0.0,0.0 0.0,79.0 73.0,29.0 176.0,18.0 304.0,27.0 383.0,73.0 383.0,0.0" fill="#6e4c3f" opacity="0.95" />
<polygon points="250.0,180.0 202.0,157.0 203.0,179.0 183.0,182.0 178.0,158.0 139.0,170.0 132.0,190.0 211.0,219.0 243.0,205.0" fill="#3ed5e7" opacity="0.95" />
<polygon points="170.0,60.0 166.0,70.0 184.0,82.0 186.0,107.0 204.0,106.0 215.0,99.0 216.0,66.0 209.0,58.0 183.0,55.0" fill="#fd0643" />
<polygon points="134.0,220.0 152.0,234.0 186.0,240.0 232.0,229.0 247.0,213.0 242.0,207.0 219.0,219.0 186.0,222.0 139.0,207.0" fill="#050611" />
<polygon points="191.0,251.0 186.0,309.0 169.0,309.0 180.0,337.0 171.0,357.0 177.0,383.0 196.0,383.0 200.0,344.0 214.0,374.0 213.0,346.0 196.0,335.0" fill="#050611" />
<polygon points="250.0,180.0 203.0,157.0 203.0,178.0 183.0,182.0 178.0,158.0 139.0,170.0 132.0,190.0 211.0,219.0 243.0,205.0" fill="#3ed5e7" opacity="0.95" />
<polygon points="168.0,62.0 166.0,70.0 185.0,84.0 185.0,106.0 200.0,107.0 215.0,99.0 216.0,66.0 209.0,58.0 183.0,55.0" fill="#fd0643" opacity="0.95" />
<polygon points="247.0,213.0 242.0,207.0 219.0,219.0 186.0,222.0 139.0,208.0 134.0,220.0 152.0,234.0 186.0,240.0 232.0,229.0" fill="#050611" opacity="0.95" />
<polygon points="191.0,251.0 186.0,309.0 169.0,309.0 179.0,334.0 171.0,357.0 176.0,383.0 196.0,383.0 201.0,344.0 214.0,374.0 213.0,346.0 196.0,335.0" fill="#050611" opacity="0.95" />
<polygon points="167.0,72.0 167.0,96.0 172.0,102.0 183.0,107.0 184.0,84.0" fill="#b6041d" />
<polygon points="168.0,62.0 166.0,70.0 185.0,84.0 186.0,106.0 200.0,107.0 215.0,99.0 216.0,66.0 209.0,58.0 183.0,55.0" fill="#fd0643" opacity="0.95" />
<polygon points="247.0,213.0 242.0,207.0 219.0,219.0 186.0,222.0 140.0,208.0 134.0,220.0 152.0,234.0 186.0,240.0 232.0,229.0" fill="#050611" opacity="0.95" />
<polygon points="133.0,196.0 144.0,209.0 154.0,214.0 184.0,219.0" fill="#1573a3" />
<polygon points="191.0,251.0 186.0,309.0 169.0,309.0 170.0,327.0 179.0,334.0 171.0,357.0 176.0,383.0 196.0,383.0 199.0,345.0 214.0,358.0 212.0,344.0 196.0,335.0" fill="#050611" opacity="0.95" />
<polygon points="135.0,226.0 155.0,242.0 195.0,252.0 192.0,244.0 200.0,239.0 174.0,241.0" fill="#0f1f45" />
<polygon points="185.0,283.0 174.0,287.0 168.0,293.0 168.0,309.0 172.0,305.0 181.0,312.0 184.0,311.0 186.0,306.0" fill="#352332" />
<polygon points="201.0,284.0 200.0,297.0 195.0,303.0 196.0,313.0 204.0,315.0 205.0,330.0 197.0,335.0 208.0,339.0 215.0,330.0 209.0,324.0 209.0,308.0 217.0,298.0 210.0,287.0" fill="#352332" />
<polygon points="168.0,74.0 166.0,75.0 167.0,96.0 172.0,102.0 182.0,106.0 184.0,105.0 184.0,84.0" fill="#b6041d" opacity="0.95" />
<polygon points="190.0,108.0 189.0,148.0 194.0,149.0 192.0,140.0 194.0,109.0" fill="#352332" />
<polygon points="140.0,231.0 155.0,242.0 193.0,249.0 190.0,240.0 174.0,241.0" fill="#0f1f45" opacity="0.95" />
<polygon points="202.0,284.0 196.0,313.0 204.0,315.0 205.0,330.0 201.0,336.0 206.0,338.0 213.0,332.0 209.0,324.0 209.0,308.0 216.0,294.0" fill="#352332" opacity="0.95" />
<polygon points="184.0,283.0 174.0,287.0 167.0,296.0 167.0,305.0 171.0,305.0 182.0,312.0 186.0,306.0 186.0,284.0" fill="#352332" opacity="0.95" />
<polygon points="137.0,200.0 140.0,206.0 154.0,214.0 183.0,219.0" fill="#1573a3" opacity="0.95" />
<polygon points="169.0,74.0 166.0,76.0 167.0,96.0 172.0,102.0 181.0,106.0 184.0,104.0 184.0,84.0" fill="#b6041d" opacity="0.95" />
<polygon points="196.0,161.0 191.0,168.0 186.0,165.0 178.0,168.0 179.0,174.0 183.0,170.0 185.0,172.0 186.0,181.0 191.0,181.0 194.0,178.0" fill="#0f9bc6" />
<polygon points="215.0,302.0 210.0,308.0 210.0,324.0 213.0,329.0 216.0,326.0 216.0,303.0" fill="#050611" />
<polygon points="200.0,345.0 197.0,348.0 197.0,362.0 202.0,361.0 205.0,364.0 205.0,378.0 201.0,381.0 198.0,378.0 197.0,383.0 210.0,383.0 212.0,379.0 209.0,376.0 207.0,351.0 204.0,345.0" fill="#352332" />
<polygon points="171.0,211.0 183.0,216.0 186.0,220.0 200.0,219.0 195.0,214.0 173.0,210.0" fill="#0f9bc6" />
<polygon points="183.0,283.0 174.0,287.0 167.0,296.0 167.0,304.0 180.0,311.0 184.0,310.0 186.0,306.0 186.0,285.0" fill="#352332" opacity="0.95" />
<polygon points="187.0,153.0 185.0,155.0 184.0,162.0 189.0,167.0 191.0,167.0 196.0,159.0 196.0,155.0 195.0,154.0 190.0,155.0" fill="#1573a3" />
<polygon points="201.0,345.0 197.0,348.0 197.0,361.0 205.0,364.0 205.0,378.0 197.0,383.0 211.0,383.0 205.0,346.0" fill="#352332" opacity="0.95" />
<polygon points="203.0,284.0 200.0,286.0 200.0,297.0 196.0,301.0 196.0,311.0 206.0,316.0 209.0,314.0 209.0,308.0 216.0,294.0 210.0,287.0" fill="#352332" opacity="0.95" />
<polygon points="150.0,237.0 155.0,242.0 186.0,250.0 192.0,248.0 192.0,242.0 189.0,240.0 174.0,241.0 153.0,235.0" fill="#0f1f45" opacity="0.95" />
<polygon points="141.0,204.0 144.0,209.0 172.0,219.0 177.0,217.0 169.0,211.0 144.0,202.0" fill="#1573a3" opacity="0.95" />
<polygon points="247.0,221.0 241.0,227.0 234.0,231.0 236.0,233.0 235.0,236.0 236.0,237.0 247.0,227.0 248.0,225.0" fill="#194773" />
<polygon points="208.0,245.0 205.0,242.0 206.0,241.0 205.0,239.0 202.0,239.0 193.0,244.0 193.0,246.0 195.0,248.0 203.0,247.0" fill="#194773" />
<polygon points="225.0,237.0 221.0,236.0 214.0,238.0 210.0,241.0 210.0,243.0 214.0,244.0 221.0,242.0 225.0,239.0" fill="#6ca0b6" />
<polygon points="178.0,168.0 178.0,171.0 185.0,173.0 185.0,180.0 190.0,181.0 194.0,178.0 196.0,167.0 190.0,168.0 183.0,165.0" fill="#0f9bc6" opacity="0.95" />
<polygon points="238.0,238.0 237.0,237.0 220.0,246.0 225.0,246.0" fill="#6e4c3f" />
<polygon points="214.0,304.0 210.0,308.0 210.0,324.0 211.0,328.0 213.0,329.0 216.0,326.0 216.0,305.0" fill="#050611" opacity="0.95" />
<polygon points="187.0,153.0 185.0,154.0 184.0,163.0 190.0,167.0 194.0,163.0 196.0,159.0 196.0,155.0 194.0,154.0 190.0,155.0" fill="#1573a3" opacity="0.95" />
<polygon points="192.0,108.0 189.0,109.0 189.0,134.0 191.0,135.0 193.0,134.0 193.0,113.0 194.0,112.0 194.0,109.0" fill="#352332" opacity="0.95" />
<polygon points="180.0,213.0 180.0,215.0 183.0,216.0 187.0,220.0 198.0,219.0 198.0,217.0 194.0,214.0 183.0,212.0" fill="#0f9bc6" opacity="0.95" />
<polygon points="185.0,165.0 182.0,167.0 185.0,172.0 185.0,179.0 190.0,181.0 194.0,178.0 196.0,169.0 193.0,167.0 190.0,168.0" fill="#0f9bc6" opacity="0.95" />
<polygon points="188.0,154.0 185.0,156.0 184.0,162.0 190.0,166.0 194.0,163.0 196.0,157.0" fill="#1573a3" opacity="0.95" />
<polygon points="205.0,240.0 202.0,239.0 193.0,243.0 193.0,246.0 196.0,248.0 203.0,247.0 206.0,245.0" fill="#194773" opacity="0.95" />
<polygon points="235.0,234.0 234.0,233.0 230.0,233.0 229.0,234.0 227.0,234.0 226.0,235.0 226.0,239.0 228.0,240.0 232.0,238.0 235.0,235.0" fill="#1573a3" />
<polygon points="225.0,237.0 221.0,236.0 214.0,238.0 210.0,241.0 210.0,243.0 214.0,244.0 225.0,240.0" fill="#6ca0b6" opacity="0.95" />
<polygon points="213.0,306.0 210.0,308.0 210.0,324.0 213.0,326.0 216.0,324.0 216.0,308.0" fill="#050611" opacity="0.95" />
<polygon points="247.0,225.0 245.0,224.0 235.0,230.0 236.0,234.0 238.0,235.0 240.0,234.0 247.0,227.0" fill="#194773" opacity="0.95" />
<polygon points="3.0,92.0 1.0,94.0 0.0,93.0 0.0,99.0 1.0,100.0 5.0,97.0 5.0,95.0" fill="#6e4c3f" />
<polygon points="201.0,317.0 199.0,319.0 199.0,328.0 200.0,329.0 201.0,329.0 203.0,326.0 203.0,324.0 202.0,323.0 202.0,318.0" fill="#94705f" />
<polygon points="247.0,217.0 244.0,220.0 244.0,221.0 237.0,227.0 238.0,228.0 248.0,219.0" fill="#0f1f45" />
<polygon points="224.0,238.0 221.0,236.0 212.0,239.0 211.0,242.0 214.0,244.0 223.0,241.0" fill="#6ca0b6" opacity="0.95" />
<polygon points="206.0,243.0 202.0,239.0 194.0,243.0 193.0,246.0 196.0,248.0 203.0,247.0 206.0,245.0" fill="#194773" opacity="0.95" />
<polygon points="203.0,373.0 202.0,374.0 200.0,374.0 199.0,375.0 199.0,378.0 201.0,380.0 204.0,378.0 204.0,374.0" fill="#6e4c3f" />
<polygon points="234.0,234.0 230.0,233.0 226.0,235.0 226.0,239.0 228.0,240.0 234.0,237.0" fill="#1573a3" opacity="0.95" />
<polygon points="184.0,215.0 184.0,217.0 188.0,220.0 194.0,220.0 197.0,218.0 196.0,215.0 190.0,213.0 187.0,213.0" fill="#0f9bc6" opacity="0.95" />
<polygon points="214.0,248.0 213.0,247.0 210.0,247.0 209.0,248.0 205.0,248.0 204.0,249.0 205.0,250.0 211.0,250.0" fill="#6e4c3f" />
<polygon points="198.0,109.0 197.0,110.0 197.0,115.0 198.0,116.0 197.0,118.0 198.0,119.0 199.0,118.0 198.0,116.0 199.0,115.0 199.0,110.0" fill="#d8ecee" />
<polygon points="202.0,366.0 201.0,366.0 200.0,367.0 200.0,372.0 201.0,373.0 203.0,371.0 203.0,367.0" fill="#94705f" />
<polygon points="197.0,291.0 196.0,292.0 196.0,294.0 197.0,295.0 197.0,297.0 198.0,298.0 199.0,297.0 199.0,292.0 198.0,291.0" fill="#6e4c3f" />
<polygon points="188.0,152.0 190.0,154.0 193.0,154.0 196.0,152.0 195.0,151.0 192.0,151.0 191.0,152.0 190.0,151.0 189.0,151.0" fill="#194773" />
<polygon points="2.0,93.0 1.0,94.0 0.0,93.0 0.0,99.0 1.0,100.0 5.0,97.0 5.0,95.0" fill="#6e4c3f" opacity="0.95" />
<polygon points="239.0,228.0 236.0,230.0 236.0,232.0 239.0,234.0 242.0,232.0 242.0,230.0" fill="#194773" opacity="0.95" />
<polygon points="230.0,233.0 227.0,235.0 227.0,237.0 230.0,239.0 233.0,237.0 233.0,235.0" fill="#1573a3" opacity="0.95" />
<polygon points="201.0,374.0 200.0,375.0 199.0,375.0 199.0,378.0 202.0,379.0 203.0,378.0 204.0,378.0 204.0,375.0" fill="#6e4c3f" opacity="0.95" />
</svg>