<svg xmlns="http://www.w3.org/2000/svg" width="768" height="768" viewBox="0 0 384 384">
<rect width="384" height="384" fill="#917064"/>
<polygon points="0.0,207.0 0.0,306.0 13.0,304.0 0.0,311.0 0.0,383.0 163.0,383.0 134.0,296.0 146.0,213.0" fill="#d5a7a3" />
<polygon points="0.0,86.0 190.0,98.0 248.0,78.0 255.0,50.0 383.0,29.0 300.0,0.0 7.0,3.0 0.0,40.0 78.0,46.0" fill="#9e5d47" />
<polygon points="0.0,207.0 0.0,383.0 162.0,383.0 131.0,259.0 146.0,213.0" fill="#d5a7a3" opacity="0.95" />
<polygon points="215.0,116.0 133.0,187.0 171.0,233.0 267.0,174.0 234.0,151.0" fill="#aadae3" />
<polygon points="208.0,118.0 0.0,113.0 0.0,153.0 120.0,146.0 166.0,156.0" fill="#9e5d47" />
<polygon points="0.0,86.0 189.0,98.0 248.0,78.0 256.0,50.0 383.0,29.0 298.0,0.0 7.0,3.0 0.0,40.0 63.0,56.0" fill="#9e5d47" opacity="0.95" />
<polygon points="0.0,207.0 0.0,383.0 162.0,383.0 134.0,290.0 145.0,213.0" fill="#d5a7a3" opacity="0.95" />
<polygon points="164.0,157.0 120.0,147.0 3.0,154.0 0.0,206.0 135.0,209.0 129.0,188.0" fill="#b98473" />
<polygon points="370.0,344.0 364.0,309.0 287.0,316.0 177.0,378.0 144.0,335.0 164.0,383.0 332.0,383.0" fill="#b98473" />
<polygon points="0.0,86.0 189.0,98.0 248.0,78.0 256.0,50.0 383.0,29.0 297.0,0.0 7.0,3.0 0.0,40.0 63.0,56.0" fill="#9e5d47" opacity="0.95" />
<polygon points="256.0,72.0 220.0,111.0 244.0,147.0 274.0,168.0 312.0,135.0" fill="#02d4d2" />
<polygon points="372.0,212.0 211.0,265.0 300.0,233.0 338.0,261.0 327.0,294.0 270.0,320.0 364.0,308.0 371.0,344.0 333.0,383.0 383.0,383.0" fill="#9e5d47" />
<polygon points="383.0,38.0 340.0,41.0 379.0,89.0 339.0,165.0 221.0,254.0 164.0,259.0 142.0,230.0 147.0,258.0 197.0,271.0 383.0,215.0 363.0,191.0 383.0,190.0" fill="#623122" />
<polygon points="207.0,117.0 0.0,113.0 0.0,153.0 167.0,155.0" fill="#9e5d47" opacity="0.95" />
<polygon points="215.0,117.0 134.0,186.0 172.0,233.0 266.0,175.0 234.0,151.0" fill="#aadae3" opacity="0.95" />
<polygon points="245.0,81.0 141.0,102.0 148.0,87.0 3.0,86.0 0.0,112.0 108.0,104.0 210.0,118.0" fill="#623122" />
<polygon points="320.0,265.0 302.0,245.0 184.0,286.0 205.0,302.0 163.0,328.0" fill="#404a50" />
<polygon points="335.0,271.0 310.0,287.0 297.0,269.0 179.0,344.0 148.0,325.0 150.0,341.0 193.0,366.0" fill="#161110" />
<polygon points="163.0,156.0 120.0,147.0 7.0,153.0 0.0,206.0 136.0,208.0 129.0,188.0" fill="#b98473" opacity="0.95" />
<polygon points="207.0,117.0 0.0,113.0 0.0,153.0 167.0,155.0" fill="#9e5d47" opacity="0.95" />
<polygon points="214.0,117.0 134.0,186.0 172.0,233.0 265.0,175.0 234.0,151.0" fill="#aadae3" opacity="0.95" />
<polygon points="256.0,73.0 221.0,115.0 244.0,147.0 273.0,168.0 311.0,134.0" fill="#02d4d2" opacity="0.95" />
<polygon points="368.0,316.0 279.0,318.0 183.0,378.0 153.0,365.0 163.0,383.0 228.0,372.0 332.0,383.0 343.0,355.0 370.0,345.0" fill="#b98473" opacity="0.95" />
<polygon points="161.0,157.0 120.0,147.0 7.0,153.0 0.0,206.0 135.0,208.0 129.0,188.0" fill="#b98473" opacity="0.95" />
<polygon points="383.0,38.0 342.0,41.0 379.0,89.0 339.0,165.0 221.0,254.0 164.0,259.0 144.0,237.0 147.0,258.0 197.0,271.0 383.0,215.0 363.0,193.0 383.0,191.0" fill="#623122" opacity="0.95" />
<polygon points="372.0,212.0 261.0,245.0 298.0,232.0 340.0,263.0 327.0,294.0 282.0,315.0 367.0,311.0 371.0,345.0 333.0,383.0 383.0,383.0" fill="#9e5d47" opacity="0.95" />
<polygon points="243.0,82.0 141.0,102.0 147.0,87.0 3.0,86.0 0.0,112.0 108.0,104.0 210.0,117.0" fill="#623122" opacity="0.95" />
<polygon points="373.0,125.0 357.0,123.0 300.0,185.0 296.0,162.0 264.0,208.0 210.0,250.0 231.0,248.0" fill="#161110" />
<polygon points="335.0,272.0 310.0,286.0 293.0,272.0 184.0,342.0 150.0,341.0 193.0,366.0" fill="#161110" opacity="0.95" />
<polygon points="377.0,84.0 281.0,172.0 296.0,161.0 302.0,179.0 367.0,108.0" fill="#025666" />
<polygon points="319.0,264.0 299.0,246.0 184.0,286.0 204.0,303.0 164.0,330.0" fill="#404a50" opacity="0.95" />
<polygon points="334.0,38.0 287.0,48.0 258.0,70.0 278.0,58.0 333.0,116.0 323.0,129.0 357.0,96.0 335.0,70.0 308.0,63.0 340.0,49.0" fill="#fc3138" />
<polygon points="383.0,38.0 343.0,42.0 379.0,89.0 339.0,165.0 221.0,254.0 164.0,259.0 146.0,239.0 147.0,258.0 197.0,271.0 383.0,215.0" fill="#623122" opacity="0.95" />
<polygon points="256.0,73.0 221.0,115.0 244.0,147.0 273.0,168.0 311.0,134.0" fill="#02d4d2" opacity="0.95" />
<polygon points="368.0,316.0 279.0,318.0 183.0,378.0 153.0,365.0 163.0,383.0 228.0,372.0 332.0,383.0 337.0,362.0 370.0,344.0" fill="#b98473" opacity="0.95" />
<polygon points="0.0,77.0 60.0,58.0 63.0,54.0 58.0,47.0 77.0,46.0 0.0,41.0" fill="#623122" />
<polygon points="242.0,83.0 141.0,102.0 146.0,87.0 3.0,86.0 0.0,112.0 210.0,117.0" fill="#623122" opacity="0.95" />
<polygon points="281.0,176.0 178.0,241.0 162.0,232.0 161.0,244.0 139.0,226.0 162.0,257.0 184.0,254.0 235.0,224.0" fill="#161110" />
<polygon points="373.0,125.0 303.0,182.0 294.0,167.0 221.0,243.0 273.0,181.0 178.0,241.0 139.0,226.0 164.0,258.0 221.0,253.0" fill="#161110" opacity="0.95" />
<polygon points="297.0,227.0 340.0,265.0 327.0,294.0 287.0,313.0 369.0,316.0 371.0,344.0 342.0,358.0 333.0,383.0 383.0,383.0 383.0,216.0" fill="#9e5d47" opacity="0.95" />
<polygon points="294.0,155.0 183.0,234.0 245.0,201.0" fill="#0697a1" />
<polygon points="320.0,266.0 299.0,246.0 187.0,286.0 203.0,303.0 164.0,329.0" fill="#404a50" opacity="0.95" />
<polygon points="343.0,48.0 328.0,61.0 361.0,95.0 374.0,79.0" fill="#f1ebef" />
<polygon points="150.0,326.0 161.0,341.0 177.0,343.0 233.0,310.0 222.0,304.0 169.0,334.0 162.0,328.0 198.0,302.0 171.0,289.0 154.0,302.0" fill="#637279" />
<polygon points="332.0,276.0 310.0,286.0 291.0,273.0 189.0,339.0 189.0,357.0 150.0,341.0 193.0,366.0" fill="#161110" opacity="0.95" />
<polygon points="277.0,54.0 332.0,115.0 357.0,96.0 337.0,72.0 309.0,64.0 340.0,49.0 335.0,39.0" fill="#fc3138" opacity="0.95" />
<polygon points="295.0,4.0 361.0,15.0 383.0,28.0 383.0,0.0 301.0,0.0" fill="#623122" />
<polygon points="298.0,174.0 229.0,239.0 211.0,239.0 265.0,187.0 156.0,251.0 231.0,248.0 301.0,188.0" fill="#161110" opacity="0.95" />
<polygon points="0.0,77.0 60.0,58.0 58.0,48.0 62.0,44.0 0.0,41.0" fill="#623122" opacity="0.95" />
<polygon points="138.0,235.0 132.0,256.0 135.0,296.0 148.0,310.0 159.0,291.0 144.0,272.0" fill="#b98473" />
<polygon points="293.0,168.0 221.0,234.0 232.0,236.0 280.0,189.0" fill="#404a50" />
<polygon points="277.0,54.0 332.0,115.0 357.0,96.0 337.0,72.0 310.0,63.0 340.0,49.0 335.0,39.0" fill="#fc3138" opacity="0.95" />
<polygon points="278.0,81.0 279.0,90.0 314.0,128.0 317.0,128.0 323.0,121.0 322.0,116.0 293.0,87.0" fill="#f1ebef" />
<polygon points="377.0,84.0 325.0,136.0 309.0,141.0 290.0,160.0 299.0,165.0 301.0,177.0 344.0,138.0" fill="#025666" opacity="0.95" />
<polygon points="150.0,326.0 177.0,343.0 229.0,310.0 169.0,334.0 163.0,327.0 197.0,303.0 171.0,290.0 154.0,302.0" fill="#637279" opacity="0.95" />
<polygon points="140.0,241.0 145.0,272.0 160.0,290.0 194.0,272.0 156.0,268.0 144.0,255.0" fill="#9e5d47" />
<polygon points="285.0,164.0 183.0,234.0 235.0,208.0" fill="#0697a1" opacity="0.95" />
<polygon points="273.0,62.0 260.0,73.0 281.0,95.0 276.0,82.0 289.0,83.0 323.0,116.0 317.0,129.0 303.0,120.0 315.0,133.0 331.0,115.0 285.0,67.0" fill="#d5a7a3" />
<polygon points="0.0,77.0 54.0,61.0 62.0,54.0 54.0,42.0 0.0,41.0" fill="#623122" opacity="0.95" />
<polygon points="219.0,111.0 215.0,115.0 235.0,151.0 267.0,173.0 272.0,171.0 243.0,147.0" fill="#78d3d9" />
<polygon points="376.0,85.0 325.0,136.0 309.0,141.0 292.0,158.0 301.0,177.0 344.0,138.0 373.0,99.0" fill="#025666" opacity="0.95" />
<polygon points="221.0,316.0 165.0,332.0 197.0,303.0 176.0,289.0 154.0,302.0 150.0,326.0 161.0,341.0 177.0,343.0" fill="#637279" opacity="0.95" />
<polygon points="343.0,48.0 331.0,57.0 329.0,62.0 361.0,93.0 372.0,83.0 373.0,78.0" fill="#f1ebef" opacity="0.95" />
<polygon points="281.0,169.0 183.0,234.0 223.0,216.0" fill="#0697a1" opacity="0.95" />
<polygon points="137.0,246.0 132.0,256.0 136.0,298.0 148.0,308.0 158.0,289.0 144.0,272.0" fill="#b98473" opacity="0.95" />
<polygon points="373.0,125.0 356.0,124.0 307.0,180.0 321.0,177.0 340.0,163.0" fill="#161110" opacity="0.95" />
<polygon points="343.0,48.0 331.0,57.0 329.0,62.0 361.0,93.0 372.0,83.0 373.0,78.0" fill="#f1ebef" opacity="0.95" />
<polygon points="261.0,72.0 274.0,86.0 279.0,80.0 293.0,86.0 324.0,121.0 331.0,118.0 280.0,63.0 275.0,61.0" fill="#d5a7a3" opacity="0.95" />
<polygon points="277.0,82.0 285.0,98.0 312.0,127.0 318.0,127.0 323.0,121.0 322.0,116.0 293.0,87.0 282.0,81.0" fill="#f1ebef" opacity="0.95" />
<polygon points="267.0,252.0 209.0,271.0 222.0,270.0" fill="#161110" />
<polygon points="359.0,95.0 316.0,136.0 317.0,140.0 343.0,117.0 358.0,100.0" fill="#bf1318" />
<polygon points="306.0,246.0 305.0,248.0 323.0,267.0 329.0,262.0 311.0,244.0" fill="#161110" />
<polygon points="149.0,214.0 143.0,220.0 162.0,243.0 163.0,241.0 157.0,232.0 160.0,227.0" fill="#404a50" />
<polygon points="271.0,194.0 267.0,194.0 224.0,234.0 231.0,236.0 239.0,231.0 270.0,200.0" fill="#404a50" opacity="0.95" />
<polygon points="136.0,252.0 132.0,256.0 136.0,298.0 148.0,307.0 158.0,290.0 144.0,272.0" fill="#b98473" opacity="0.95" />
<polygon points="238.0,380.0 232.0,375.0 225.0,374.0 216.0,375.0 199.0,383.0 237.0,383.0" fill="#d5a7a3" />
<polygon points="261.0,72.0 272.0,84.0 278.0,80.0 289.0,83.0 325.0,120.0 331.0,118.0 280.0,63.0 275.0,61.0" fill="#d5a7a3" opacity="0.95" />
<polygon points="279.0,82.0 279.0,90.0 313.0,127.0 317.0,127.0 323.0,121.0 322.0,116.0 293.0,87.0 285.0,82.0" fill="#f1ebef" opacity="0.95" />
<polygon points="187.0,276.0 175.0,280.0 157.0,296.0 162.0,295.0" fill="#f1ebef" />
<polygon points="325.0,271.0 319.0,267.0 306.0,275.0 305.0,279.0 309.0,283.0 313.0,282.0 326.0,273.0" fill="#f1ebef" />
<polygon points="228.0,133.0 231.0,146.0 241.0,157.0 266.0,172.0 272.0,171.0 249.0,153.0 232.0,133.0" fill="#78d3d9" opacity="0.95" />
<polygon points="270.0,197.0 265.0,196.0 226.0,233.0 231.0,236.0 239.0,231.0 263.0,208.0" fill="#404a50" opacity="0.95" />
<polygon points="159.0,224.0 161.0,229.0 172.0,241.0 183.0,237.0 181.0,232.0 171.0,235.0 160.0,223.0" fill="#025666" />
<polygon points="229.0,136.0 231.0,146.0 241.0,157.0 266.0,172.0 271.0,170.0 249.0,153.0 234.0,135.0" fill="#78d3d9" opacity="0.95" />
<polygon points="211.0,242.0 217.0,243.0 228.0,237.0 218.0,235.0 214.0,237.0" fill="#637279" />
<polygon points="237.0,379.0 229.0,374.0 215.0,376.0 201.0,383.0 237.0,383.0" fill="#d5a7a3" opacity="0.95" />
<polygon points="325.0,271.0 320.0,267.0 306.0,275.0 306.0,280.0 310.0,283.0 324.0,275.0" fill="#f1ebef" opacity="0.95" />
<polygon points="149.0,216.0 144.0,220.0 144.0,222.0 155.0,234.0 160.0,229.0 160.0,227.0 152.0,217.0" fill="#404a50" opacity="0.95" />
<polygon points="135.0,195.0 134.0,197.0 144.0,210.0 148.0,212.0 156.0,221.0 157.0,220.0 153.0,214.0" fill="#025666" />
<polygon points="347.0,110.0 343.0,110.0 316.0,136.0 316.0,138.0 321.0,138.0 343.0,117.0" fill="#bf1318" opacity="0.95" />
<polygon points="309.0,62.0 311.0,64.0 320.0,68.0 322.0,67.0 322.0,64.0 317.0,58.0 315.0,58.0" fill="#d5a7a3" />
<polygon points="325.0,271.0 320.0,267.0 306.0,276.0 306.0,280.0 310.0,283.0 324.0,275.0" fill="#f1ebef" opacity="0.95" />
<polygon points="330.0,263.0 328.0,264.0 324.0,268.0 324.0,269.0 327.0,272.0 330.0,272.0 334.0,269.0 334.0,267.0" fill="#404a50" />
<polygon points="237.0,380.0 231.0,375.0 225.0,374.0 215.0,376.0 203.0,383.0 237.0,383.0" fill="#d5a7a3" opacity="0.95" />
<polygon points="185.0,348.0 183.0,350.0 183.0,351.0 188.0,357.0 193.0,353.0 189.0,349.0" fill="#637279" />
<polygon points="322.0,61.0 321.0,62.0 323.0,64.0 323.0,68.0 322.0,69.0 326.0,72.0 329.0,73.0 331.0,70.0" fill="#b98473" />
<polygon points="183.0,235.0 182.0,233.0 178.0,232.0 171.0,235.0 170.0,239.0 175.0,241.0 182.0,238.0" fill="#025666" opacity="0.95" />
<polygon points="225.0,237.0 221.0,235.0 218.0,235.0 212.0,239.0 212.0,242.0 217.0,243.0 225.0,239.0" fill="#637279" opacity="0.95" />
<polygon points="297.0,254.0 299.0,254.0 302.0,257.0 301.0,258.0 301.0,260.0 302.0,261.0 299.0,264.0 298.0,264.0 294.0,260.0 296.0,258.0 295.0,256.0" fill="#404a50" />
<polygon points="183.0,235.0 178.0,232.0 171.0,235.0 170.0,239.0 175.0,241.0 182.0,238.0" fill="#025666" opacity="0.95" />
<polygon points="224.0,237.0 221.0,235.0 218.0,235.0 214.0,237.0 212.0,239.0 212.0,241.0 217.0,243.0 223.0,240.0" fill="#637279" opacity="0.95" />
<polygon points="183.0,349.0 183.0,351.0 186.0,355.0 189.0,356.0 192.0,354.0 192.0,352.0 190.0,350.0 186.0,348.0" fill="#637279" opacity="0.95" />
<polygon points="219.0,310.0 220.0,311.0 221.0,310.0 223.0,312.0 220.0,315.0 217.0,312.0" fill="#637279" />
<polygon points="188.0,349.0 185.0,351.0 185.0,354.0 189.0,356.0 192.0,354.0 192.0,352.0" fill="#637279" opacity="0.95" />
</svg>