<svg xmlns="http://www.w3.org/2000/svg" width="768" height="768" viewBox="0 0 384 384">
<rect width="384" height="384" fill="#8e6b61"/>
<polygon points="383.0,148.0 196.0,244.0 176.0,233.0 175.0,335.0 211.0,339.0 211.0,382.0 383.0,383.0" fill="#75402f" />
<polygon points="4.0,118.0 91.0,126.0 139.0,153.0 187.0,117.0 144.0,66.0 235.0,0.0 0.0,0.0" fill="#75402f" />
<polygon points="2.0,187.0 0.0,383.0 92.0,383.0 96.0,231.0 71.0,206.0" fill="#b79996" />
<polygon points="2.0,114.0 4.0,188.0 99.0,236.0 91.0,381.0 172.0,383.0 187.0,270.0 120.0,169.0 136.0,154.0" fill="#a06f62" />
<polygon points="253.0,71.0 126.0,164.0 177.0,174.0 209.0,214.0 197.0,234.0 322.0,145.0" fill="#5adaeb" />
<polygon points="383.0,148.0 196.0,244.0 177.0,234.0 178.0,332.0 211.0,339.0 215.0,383.0 383.0,383.0" fill="#75402f" opacity="0.95" />
<polygon points="145.0,66.0 190.0,114.0 254.0,70.0 317.0,135.0 380.0,89.0 359.0,94.0 280.0,0.0 236.0,0.0" fill="#fd7e78" />
<polygon points="383.0,148.0 181.0,240.0 178.0,328.0 211.0,339.0 214.0,383.0 383.0,383.0" fill="#75402f" opacity="0.95" />
<polygon points="0.0,111.0 89.0,126.0 138.0,153.0 186.0,118.0 144.0,66.0 234.0,0.0 0.0,0.0" fill="#75402f" opacity="0.95" />
<polygon points="3.0,189.0 0.0,383.0 91.0,383.0 96.0,231.0 71.0,206.0" fill="#b79996" opacity="0.95" />
<polygon points="1.0,122.0 0.0,185.0 99.0,236.0 92.0,383.0 173.0,383.0 187.0,270.0 120.0,169.0 132.0,153.0 89.0,127.0" fill="#a06f62" opacity="0.95" />
<polygon points="0.0,112.0 89.0,126.0 138.0,153.0 186.0,118.0 144.0,66.0 233.0,0.0 0.0,0.0" fill="#75402f" opacity="0.95" />
<polygon points="253.0,72.0 127.0,163.0 177.0,174.0 209.0,214.0 198.0,233.0 321.0,146.0" fill="#5adaeb" opacity="0.95" />
<polygon points="4.0,189.0 0.0,383.0 91.0,383.0 96.0,231.0 71.0,206.0" fill="#b79996" opacity="0.95" />
<polygon points="145.0,66.0 191.0,114.0 253.0,70.0 317.0,134.0 379.0,90.0 359.0,94.0 281.0,0.0 235.0,0.0" fill="#fd7e78" opacity="0.95" />
<polygon points="0.0,123.0 0.0,184.0 75.0,207.0 99.0,236.0 92.0,383.0 169.0,383.0 187.0,270.0 120.0,169.0 132.0,153.0 89.0,127.0" fill="#a06f62" opacity="0.95" />
<polygon points="253.0,72.0 129.0,161.0 177.0,174.0 209.0,214.0 203.0,230.0 321.0,145.0" fill="#5adaeb" opacity="0.95" />
<polygon points="145.0,66.0 191.0,114.0 253.0,70.0 317.0,134.0 365.0,100.0 281.0,0.0 234.0,0.0" fill="#fd7e78" opacity="0.95" />
<polygon points="327.0,35.0 370.0,71.0 380.0,110.0 194.0,243.0 383.0,147.0 383.0,82.0" fill="#1a0f0e" />
<polygon points="293.0,0.0 322.0,30.0 353.0,47.0 383.0,79.0 383.0,7.0 378.0,0.0" fill="#75402f" />
<polygon points="126.0,167.0 126.0,174.0 193.0,238.0 208.0,214.0 186.0,184.0 158.0,166.0" fill="#a5e1f2" />
<polygon points="383.0,81.0 369.0,72.0 376.0,114.0 194.0,241.0 383.0,147.0" fill="#1a0f0e" opacity="0.95" />
<polygon points="185.0,331.0 168.0,349.0 170.0,375.0 176.0,383.0 207.0,383.0 212.0,373.0 205.0,370.0 213.0,367.0 213.0,345.0 204.0,333.0" fill="#3a3033" />
<polygon points="126.0,168.0 193.0,238.0 208.0,214.0 185.0,183.0 158.0,166.0" fill="#a5e1f2" opacity="0.95" />
<polygon points="294.0,0.0 321.0,29.0 340.0,36.0 383.0,78.0 383.0,7.0 378.0,0.0" fill="#75402f" opacity="0.95" />
<polygon points="383.0,81.0 376.0,114.0 197.0,238.0 383.0,147.0" fill="#1a0f0e" opacity="0.95" />
<polygon points="292.0,0.0 288.0,7.0 333.0,45.0 337.0,53.0 328.0,60.0 363.0,93.0 373.0,80.0" fill="#e4e9ec" />
<polygon points="294.0,0.0 321.0,29.0 340.0,36.0 383.0,78.0 383.0,7.0 377.0,0.0" fill="#75402f" opacity="0.95" />
<polygon points="126.0,168.0 126.0,174.0 193.0,238.0 208.0,214.0 185.0,184.0 158.0,166.0" fill="#a5e1f2" opacity="0.95" />
<polygon points="179.0,334.0 167.0,352.0 177.0,358.0 176.0,383.0 208.0,383.0 210.0,339.0 195.0,330.0" fill="#3a3033" opacity="0.95" />
<polygon points="179.0,334.0 167.0,352.0 177.0,357.0 170.0,366.0 179.0,368.0 170.0,375.0 176.0,383.0 208.0,383.0 211.0,375.0 200.0,369.0 213.0,367.0 210.0,339.0 195.0,330.0" fill="#3a3033" opacity="0.95" />
<polygon points="376.0,105.0 369.0,99.0 317.0,137.0 321.0,141.0" fill="#124552" />
<polygon points="334.0,47.0 336.0,54.0 329.0,61.0 359.0,92.0 364.0,92.0 371.0,85.0 372.0,79.0 338.0,47.0" fill="#e4e9ec" opacity="0.95" />
<polygon points="379.0,109.0 368.0,109.0 321.0,142.0" fill="#259db5" />
<polygon points="338.0,51.0 329.0,61.0 359.0,92.0 364.0,92.0 371.0,85.0 372.0,79.0 345.0,53.0" fill="#e4e9ec" opacity="0.95" />
<polygon points="130.0,177.0 188.0,240.0 179.0,227.0" fill="#259db5" />
<polygon points="292.0,0.0 289.0,8.0 317.0,34.0 324.0,36.0 321.0,30.0" fill="#e4e9ec" opacity="0.95" />
<polygon points="357.0,122.0 345.0,126.0 325.0,141.0 329.0,141.0" fill="#5adaeb" />
<polygon points="369.0,105.0 328.0,128.0 318.0,138.0" fill="#124552" opacity="0.95" />
<polygon points="291.0,3.0 289.0,8.0 316.0,33.0 320.0,33.0 321.0,30.0 295.0,3.0" fill="#e4e9ec" opacity="0.95" />
<polygon points="193.0,344.0 195.0,346.0 195.0,361.0 193.0,363.0 190.0,358.0 188.0,359.0 186.0,357.0 186.0,354.0 184.0,351.0 187.0,347.0 189.0,348.0" fill="#3a3033" />
<polygon points="192.0,345.0 195.0,347.0 195.0,361.0 192.0,363.0 186.0,359.0 185.0,349.0" fill="#3a3033" opacity="0.95" />
<polygon points="330.0,36.0 347.0,54.0 355.0,56.0 362.0,68.0 367.0,68.0 356.0,56.0 354.0,49.0 341.0,39.0" fill="#1a0f0e" opacity="0.95" />
<polygon points="191.0,345.0 195.0,348.0 195.0,359.0 190.0,362.0 186.0,359.0 185.0,349.0" fill="#3a3033" opacity="0.95" />
<polygon points="176.0,351.0 179.0,354.0 179.0,356.0 177.0,358.0 177.0,361.0 175.0,363.0 171.0,363.0 168.0,359.0 171.0,356.0 175.0,354.0 174.0,353.0" fill="#3a3033" />
<polygon points="193.0,345.0 189.0,349.0 188.0,348.0 186.0,349.0 187.0,350.0 186.0,351.0 187.0,357.0 188.0,358.0 190.0,356.0 192.0,358.0 193.0,362.0 194.0,361.0 194.0,346.0" fill="#124552" />
<polygon points="172.0,370.0 176.0,366.0 179.0,369.0 181.0,367.0 183.0,368.0 184.0,367.0 186.0,369.0 186.0,371.0 184.0,373.0 179.0,371.0 174.0,372.0" fill="#3a3033" />
<polygon points="332.0,38.0 332.0,40.0 347.0,54.0 352.0,55.0 355.0,53.0 355.0,50.0 341.0,39.0 335.0,36.0" fill="#1a0f0e" opacity="0.95" />
<polygon points="373.0,110.0 370.0,108.0 355.0,117.0 355.0,119.0 357.0,120.0 371.0,114.0" fill="#259db5" opacity="0.95" />
<polygon points="366.0,102.0 365.0,101.0 351.0,112.0 352.0,113.0 357.0,109.0 360.0,108.0" fill="#3a3033" />
<polygon points="344.0,129.0 342.0,128.0 331.0,135.0 331.0,137.0 333.0,138.0 344.0,131.0" fill="#5adaeb" opacity="0.95" />
<polygon points="170.0,359.0 170.0,361.0 171.0,362.0 175.0,362.0 176.0,361.0 176.0,359.0 175.0,358.0 171.0,358.0" fill="#75402f" />
<polygon points="379.0,0.0 379.0,3.0 381.0,5.0 382.0,5.0 383.0,6.0 383.0,0.0" fill="#3a3033" />
<polygon points="324.0,38.0 323.0,39.0 328.0,44.0 329.0,44.0 331.0,46.0 332.0,45.0" fill="#b79996" />
<polygon points="379.0,88.0 376.0,86.0 370.0,90.0 369.0,93.0 372.0,95.0 379.0,90.0" fill="#fd7e78" opacity="0.95" />
<polygon points="373.0,110.0 370.0,108.0 364.0,112.0 364.0,114.0 367.0,116.0 371.0,114.0 373.0,112.0" fill="#259db5" opacity="0.95" />
</svg>