<svg xmlns="http://www.w3.org/2000/svg" width="768" height="768" viewBox="0 0 384 384">
<rect width="384" height="384" fill="#8d6c60"/>
<polygon points="345.0,152.0 271.0,175.0 224.0,109.0 200.0,107.0 184.0,136.0 190.0,260.0 255.0,190.0" fill="#98cfdc" />
<polygon points="6.0,169.0 18.0,208.0 177.0,271.0 103.0,203.0" fill="#c79468" />
<polygon points="0.0,48.0 0.0,140.0 13.0,143.0 1.0,132.0 15.0,71.0 16.0,126.0 125.0,98.0 183.0,120.0 67.0,36.0" fill="#432b2e" />
<polygon points="163.0,120.0 117.0,104.0 4.0,136.0 89.0,115.0 57.0,157.0 124.0,191.0 143.0,179.0" fill="#a68977" />
<polygon points="240.0,0.0 349.0,49.0 369.0,136.0 383.0,145.0 383.0,17.0 363.0,0.0" fill="#432b2e" />
<polygon points="174.0,292.0 159.0,301.0 155.0,383.0 197.0,383.0 212.0,370.0 210.0,309.0" fill="#111" />
<polygon points="156.0,308.0 0.0,309.0 132.0,321.0 0.0,328.0 82.0,337.0 0.0,353.0 127.0,358.0 0.0,361.0 46.0,373.0 0.0,383.0 153.0,383.0" fill="#a68977" />
<polygon points="0.0,162.0 0.0,266.0 120.0,265.0 168.0,279.0 162.0,294.0 184.0,278.0 94.0,229.0 18.0,209.0" fill="#e8c3a5" />
<polygon points="207.0,103.0 229.0,113.0 271.0,174.0 337.0,151.0 383.0,150.0 358.0,133.0" fill="#388aa2" />
<polygon points="238.0,323.0 254.0,345.0 240.0,348.0 248.0,378.0 383.0,375.0 366.0,369.0 383.0,366.0 383.0,335.0 250.0,333.0 373.0,332.0 362.0,315.0" fill="#a68977" />
<polygon points="240.0,9.0 258.0,75.0 208.0,93.0 252.0,84.0 336.0,107.0 331.0,47.0" fill="#e75236" />
<polygon points="240.0,322.0 248.0,378.0 383.0,373.0 377.0,328.0 362.0,315.0 246.0,312.0" fill="#a68977" opacity="0.95" />
<polygon points="80.0,33.0 96.0,53.0 148.0,72.0 140.0,6.0" fill="#e75236" />
<polygon points="207.0,104.0 184.0,136.0 192.0,261.0 228.0,211.0 276.0,178.0 228.0,113.0" fill="#98cfdc" opacity="0.95" />
<polygon points="156.0,308.0 0.0,309.0 131.0,320.0 0.0,328.0 0.0,353.0 53.0,354.0 0.0,361.0 0.0,383.0 153.0,383.0" fill="#a68977" opacity="0.95" />
<polygon points="158.0,98.0 67.0,36.0 0.0,48.0 0.0,132.0 16.0,71.0 17.0,126.0" fill="#432b2e" opacity="0.95" />
<polygon points="383.0,268.0 275.0,268.0 209.0,287.0 223.0,297.0 294.0,286.0 383.0,287.0" fill="#a68977" />
<polygon points="206.0,3.0 195.0,4.0 187.0,16.0 193.0,109.0 208.0,88.0 235.0,71.0 226.0,15.0" fill="#fc9a98" />
<polygon points="0.0,141.0 0.0,161.0 120.0,209.0 167.0,252.0 119.0,193.0" fill="#6b3b30" />
<polygon points="0.0,162.0 0.0,261.0 180.0,279.0 90.0,228.0 15.0,207.0" fill="#e8c3a5" opacity="0.95" />
<polygon points="241.0,323.0 248.0,378.0 370.0,376.0 383.0,366.0 383.0,345.0 357.0,314.0 250.0,312.0" fill="#a68977" opacity="0.95" />
<polygon points="156.0,308.0 0.0,309.0 131.0,319.0 0.0,328.0 0.0,353.0 19.0,356.0 0.0,361.0 0.0,383.0 153.0,383.0" fill="#a68977" opacity="0.95" />
<polygon points="383.0,218.0 266.0,236.0 196.0,279.0 253.0,250.0 380.0,237.0" fill="#c79468" />
<polygon points="207.0,104.0 184.0,136.0 193.0,259.0 228.0,211.0 274.0,179.0 228.0,113.0" fill="#98cfdc" opacity="0.95" />
<polygon points="213.0,101.0 271.0,174.0 337.0,151.0 383.0,150.0 358.0,133.0" fill="#388aa2" opacity="0.95" />
<polygon points="163.0,120.0 117.0,104.0 5.0,136.0 88.0,115.0 58.0,158.0 124.0,190.0 143.0,179.0" fill="#a68977" opacity="0.95" />
<polygon points="383.0,189.0 334.0,178.0 280.0,190.0 234.0,217.0 201.0,260.0 257.0,213.0" fill="#c79468" />
<polygon points="134.0,0.0 123.0,7.0 143.0,8.0 150.0,70.0 135.0,72.0 175.0,104.0 178.0,20.0 160.0,0.0" fill="#b32a11" />
<polygon points="241.0,0.0 346.0,45.0 369.0,136.0 383.0,145.0 383.0,17.0 364.0,0.0" fill="#432b2e" opacity="0.95" />
<polygon points="244.0,13.0 258.0,75.0 236.0,83.0 338.0,106.0 331.0,46.0" fill="#e75236" opacity="0.95" />
<polygon points="216.0,102.0 271.0,174.0 383.0,147.0" fill="#388aa2" opacity="0.95" />
<polygon points="183.0,103.0 179.0,20.0 175.0,105.0 75.0,39.0 133.0,0.0 0.0,24.0 0.0,47.0 67.0,35.0" fill="#6b3b30" />
<polygon points="0.0,48.0 0.0,108.0 11.0,75.0 22.0,76.0 18.0,126.0 157.0,99.0 66.0,36.0" fill="#432b2e" opacity="0.95" />
<polygon points="0.0,162.0 0.0,261.0 177.0,278.0 90.0,228.0 15.0,207.0" fill="#e8c3a5" opacity="0.95" />
<polygon points="179.0,283.0 227.0,308.0 383.0,302.0 383.0,289.0 288.0,288.0 224.0,300.0" fill="#111" />
<polygon points="90.0,117.0 9.0,138.0 55.0,156.0 87.0,127.0" fill="#e8c3a5" />
<polygon points="163.0,296.0 153.0,341.0 155.0,383.0 201.0,383.0 210.0,377.0 214.0,355.0 209.0,306.0 179.0,292.0" fill="#111" opacity="0.95" />
<polygon points="0.0,141.0 0.0,161.0 166.0,239.0 108.0,186.0" fill="#6b3b30" opacity="0.95" />
<polygon points="170.0,128.0 161.0,163.0 161.0,227.0 172.0,241.0 175.0,139.0" fill="#388aa2" />
<polygon points="15.0,72.0 3.0,136.0 101.0,105.0 160.0,113.0 144.0,179.0 119.0,192.0 158.0,225.0 167.0,112.0 125.0,99.0 16.0,127.0" fill="#6f6260" />
<polygon points="250.0,17.0 258.0,74.0 245.0,82.0 337.0,106.0 330.0,47.0" fill="#e75236" opacity="0.95" />
<polygon points="241.0,0.0 349.0,49.0 369.0,136.0 383.0,145.0 383.0,17.0 364.0,0.0" fill="#432b2e" opacity="0.95" />
<polygon points="6.0,169.0 15.0,206.0 174.0,267.0 103.0,203.0 41.0,201.0 31.0,186.0 61.0,183.0" fill="#c79468" opacity="0.95" />
<polygon points="0.0,23.0 34.0,10.0 99.0,12.0 125.0,0.0 0.0,0.0" fill="#432b2e" />
<polygon points="80.0,33.0 96.0,53.0 148.0,72.0 141.0,7.0 123.0,9.0" fill="#e75236" opacity="0.95" />
<polygon points="87.0,109.0 88.0,127.0 59.0,158.0 118.0,190.0 142.0,180.0 154.0,129.0 163.0,124.0 159.0,113.0 142.0,104.0" fill="#a68977" opacity="0.95" />
<polygon points="206.0,3.0 195.0,4.0 187.0,16.0 196.0,106.0 208.0,88.0 234.0,73.0 226.0,15.0" fill="#fc9a98" opacity="0.95" />
<polygon points="168.0,284.0 146.0,296.0 0.0,289.0 0.0,299.0 130.0,302.0 149.0,299.0" fill="#111" />
<polygon points="0.0,141.0 0.0,161.0 165.0,239.0 108.0,186.0" fill="#6b3b30" opacity="0.95" />
<polygon points="158.0,285.0 148.0,293.0 160.0,297.0 155.0,383.0 202.0,383.0 214.0,355.0 209.0,306.0 179.0,292.0 165.0,296.0" fill="#111" opacity="0.95" />
<polygon points="383.0,218.0 276.0,233.0 215.0,264.0 277.0,245.0 380.0,237.0" fill="#c79468" opacity="0.95" />
<polygon points="0.0,282.0 0.0,287.0 143.0,294.0 150.0,287.0" fill="#e8c3a5" />
<polygon points="222.0,0.0 185.0,9.0 188.0,50.0 195.0,3.0 216.0,5.0 230.0,23.0 236.0,71.0 205.0,99.0 257.0,75.0 251.0,24.0" fill="#f87771" />
<polygon points="378.0,197.0 255.0,223.0 205.0,265.0 250.0,233.0 374.0,207.0" fill="#6b3b30" />
<polygon points="383.0,189.0 334.0,178.0 280.0,190.0 234.0,217.0 202.0,261.0 257.0,213.0" fill="#c79468" opacity="0.95" />
<polygon points="133.0,0.0 130.0,5.0 143.0,8.0 149.0,72.0 140.0,76.0 174.0,104.0 177.0,18.0 161.0,0.0" fill="#b32a11" opacity="0.95" />
<polygon points="174.0,123.0 172.0,243.0 190.0,274.0 183.0,241.0 182.0,127.0" fill="#08324a" />
<polygon points="6.0,169.0 15.0,206.0 172.0,264.0 103.0,203.0 41.0,201.0 30.0,188.0 58.0,182.0" fill="#c79468" opacity="0.95" />
<polygon points="208.0,96.0 243.0,98.0 282.0,110.0 294.0,101.0 252.0,85.0 226.0,86.0" fill="#a55e33" />
<polygon points="80.0,33.0 96.0,53.0 148.0,71.0 140.0,7.0 123.0,9.0" fill="#e75236" opacity="0.95" />
<polygon points="364.0,156.0 301.0,167.0 230.0,211.0 285.0,179.0" fill="#432b2e" />
<polygon points="111.0,10.0 15.0,17.0 0.0,24.0 0.0,47.0 65.0,35.0 73.0,40.0 78.0,29.0" fill="#6b3b30" opacity="0.95" />
<polygon points="383.0,195.0 374.0,208.0 250.0,234.0 202.0,270.0 276.0,232.0 383.0,217.0" fill="#a55e33" />
<polygon points="196.0,13.0 206.0,25.0 212.0,58.0 212.0,74.0 202.0,85.0 196.0,77.0 191.0,25.0" fill="#fc9a98" />
<polygon points="30.0,188.0 55.0,190.0 108.0,214.0 41.0,201.0 30.0,194.0" fill="#c79468" />
<polygon points="213.0,313.0 247.0,383.0 383.0,383.0 243.0,377.0 239.0,348.0 253.0,345.0 231.0,329.0 246.0,317.0 223.0,325.0" fill="#6f6260" />
<polygon points="383.0,289.0 288.0,288.0 223.0,303.0 228.0,308.0 383.0,302.0" fill="#111" opacity="0.95" />
<polygon points="383.0,218.0 295.0,228.0 219.0,260.0 380.0,237.0" fill="#c79468" opacity="0.95" />
<polygon points="89.0,117.0 10.0,138.0 55.0,156.0 87.0,127.0" fill="#e8c3a5" opacity="0.95" />
<polygon points="359.0,199.0 310.0,203.0 263.0,220.0" fill="#432b2e" />
<polygon points="383.0,237.0 277.0,246.0 215.0,267.0 294.0,248.0 383.0,251.0" fill="#e8c3a5" />
<polygon points="0.0,47.0 71.0,37.0 101.0,15.0 34.0,11.0 0.0,24.0" fill="#6b3b30" opacity="0.95" />
<polygon points="196.0,14.0 192.0,25.0 197.0,77.0 202.0,84.0 211.0,74.0 211.0,58.0 205.0,25.0" fill="#e8c3a5" />
<polygon points="133.0,0.0 143.0,8.0 149.0,72.0 144.0,78.0 174.0,104.0 177.0,18.0 161.0,0.0" fill="#b32a11" opacity="0.95" />
<polygon points="339.0,53.0 335.0,62.0 342.0,123.0 346.0,132.0 352.0,132.0 358.0,125.0 346.0,58.0" fill="#e8c3a5" />
<polygon points="171.0,128.0 161.0,163.0 161.0,227.0 172.0,239.0 175.0,139.0" fill="#388aa2" opacity="0.95" />
<polygon points="383.0,190.0 359.0,178.0 280.0,190.0 234.0,217.0 202.0,259.0 257.0,213.0" fill="#c79468" opacity="0.95" />
<polygon points="373.0,168.0 365.0,154.0 362.0,162.0 285.0,180.0 248.0,204.0 302.0,180.0" fill="#6b3b30" />
<polygon points="383.0,289.0 277.0,289.0 224.0,304.0 383.0,302.0" fill="#111" opacity="0.95" />
<polygon points="166.0,284.0 145.0,296.0 0.0,289.0 0.0,299.0 146.0,300.0" fill="#111" opacity="0.95" />
<polygon points="0.0,23.0 34.0,10.0 99.0,12.0 124.0,0.0 0.0,0.0" fill="#432b2e" opacity="0.95" />
<polygon points="125.0,99.0 154.0,107.0 164.0,120.0 144.0,179.0 121.0,192.0 157.0,224.0 160.0,147.0 173.0,120.0 151.0,100.0" fill="#6f6260" opacity="0.95" />
<polygon points="231.0,0.0 288.0,30.0 342.0,44.0" fill="#6b3b30" />
<polygon points="195.0,0.0 216.0,5.0 230.0,23.0 235.0,73.0 217.0,85.0 257.0,75.0 246.0,17.0 223.0,0.0" fill="#f87771" opacity="0.95" />
<polygon points="89.0,118.0 13.0,139.0 55.0,156.0 75.0,140.0" fill="#e8c3a5" opacity="0.95" />
<polygon points="214.0,320.0 245.0,383.0 383.0,383.0 383.0,367.0 248.0,379.0 248.0,343.0 231.0,334.0 245.0,317.0" fill="#6f6260" opacity="0.95" />
<polygon points="174.0,124.0 173.0,244.0 182.0,256.0 182.0,135.0" fill="#08324a" opacity="0.95" />
<polygon points="0.0,289.0 0.0,299.0 142.0,299.0 86.0,289.0" fill="#111" opacity="0.95" />
<polygon points="378.0,197.0 255.0,223.0 218.0,250.0 270.0,226.0 374.0,207.0" fill="#6b3b30" opacity="0.95" />
<polygon points="210.0,94.0 282.0,110.0 293.0,103.0 284.0,94.0 252.0,85.0 226.0,86.0" fill="#a55e33" opacity="0.95" />
<polygon points="203.0,0.0 189.0,11.0 206.0,25.0 212.0,58.0 204.0,84.0 191.0,78.0 197.0,105.0 234.0,73.0 226.0,15.0" fill="#fc9a98" opacity="0.95" />
<polygon points="155.0,102.0 164.0,124.0 155.0,129.0 144.0,179.0 123.0,195.0 156.0,222.0 160.0,147.0 173.0,120.0" fill="#6f6260" opacity="0.95" />
<polygon points="383.0,188.0 375.0,169.0 317.0,178.0 359.0,177.0" fill="#a55e33" />
<polygon points="31.0,188.0 31.0,194.0 41.0,200.0 107.0,214.0 79.0,200.0 52.0,197.0 48.0,189.0" fill="#a55e33" />
<polygon points="196.0,14.0 206.0,25.0 212.0,58.0 212.0,74.0 202.0,85.0 196.0,77.0 191.0,25.0" fill="#fc9a98" opacity="0.95" />
<polygon points="171.0,130.0 165.0,139.0 161.0,163.0 161.0,227.0 171.0,238.0 175.0,233.0 175.0,139.0" fill="#388aa2" opacity="0.95" />
<polygon points="383.0,195.0 374.0,208.0 270.0,227.0 220.0,254.0 295.0,227.0 383.0,217.0" fill="#a55e33" opacity="0.95" />
<polygon points="204.0,0.0 219.0,7.0 230.0,23.0 235.0,62.0 230.0,79.0 255.0,76.0 250.0,22.0 224.0,0.0" fill="#f87771" opacity="0.95" />
<polygon points="291.0,113.0 324.0,124.0 342.0,125.0 340.0,116.0 337.0,123.0 334.0,117.0 311.0,107.0 299.0,107.0" fill="#fc9a98" />
<polygon points="177.0,126.0 173.0,244.0 181.0,252.0 182.0,135.0" fill="#08324a" opacity="0.95" />
<polygon points="133.0,380.0 30.0,383.0 133.0,383.0" fill="#6f6260" />
<polygon points="214.0,92.0 282.0,110.0 293.0,102.0 284.0,94.0 252.0,85.0 231.0,85.0" fill="#a55e33" opacity="0.95" />
<polygon points="383.0,195.0 374.0,208.0 270.0,227.0 230.0,247.0 310.0,224.0 383.0,217.0" fill="#a55e33" opacity="0.95" />
<polygon points="287.0,109.0 311.0,106.0 334.0,116.0 337.0,122.0 340.0,115.0 339.0,106.0 312.0,101.0 292.0,104.0" fill="#f87771" />
<polygon points="252.0,15.0 292.0,35.0 331.0,44.0" fill="#b32a11" />
<polygon points="364.0,0.0 370.0,8.0 383.0,16.0 383.0,0.0" fill="#111" />
<polygon points="383.0,376.0 250.0,379.0 247.0,383.0 383.0,383.0" fill="#6f6260" opacity="0.95" />
<polygon points="18.0,72.0 11.0,77.0 4.0,125.0 6.0,130.0 14.0,127.0 21.0,78.0" fill="#6f6260" opacity="0.95" />
<polygon points="76.0,32.0 89.0,52.0 132.0,70.0 78.0,38.0 116.0,10.0" fill="#a55e33" />
<polygon points="31.0,187.0 32.0,196.0 103.0,213.0 84.0,202.0 60.0,200.0 45.0,188.0" fill="#a55e33" opacity="0.95" />
<polygon points="293.0,112.0 312.0,121.0 341.0,125.0 334.0,117.0 311.0,107.0 299.0,107.0" fill="#fc9a98" opacity="0.95" />
<polygon points="186.0,47.0 185.0,84.0 188.0,106.0 190.0,98.0" fill="#e75236" />
<polygon points="215.0,319.0 217.0,333.0 236.0,344.0 231.0,352.0 238.0,369.0 246.0,370.0 240.0,350.0 246.0,342.0 236.0,334.0 244.0,317.0 236.0,314.0 233.0,326.0" fill="#6f6260" opacity="0.95" />
<polygon points="17.0,72.0 12.0,75.0 4.0,125.0 7.0,129.0 14.0,126.0 21.0,78.0" fill="#6f6260" opacity="0.95" />
<polygon points="185.0,228.0 184.0,241.0 186.0,262.0 192.0,266.0 193.0,263.0 189.0,260.0" fill="#388aa2" />
<polygon points="294.0,111.0 295.0,115.0 329.0,125.0 335.0,123.0 334.0,117.0 311.0,107.0 299.0,107.0" fill="#fc9a98" opacity="0.95" />
<polygon points="288.0,107.0 291.0,111.0 299.0,106.0 311.0,106.0 335.0,117.0 340.0,115.0 340.0,108.0 312.0,101.0" fill="#f87771" opacity="0.95" />
<polygon points="190.0,81.0 190.0,110.0 194.0,100.0" fill="#f87771" />
<polygon points="309.0,103.0 310.0,106.0 335.0,117.0 340.0,115.0 340.0,109.0 312.0,101.0" fill="#f87771" opacity="0.95" />
<polygon points="284.0,93.0 294.0,99.0 298.0,97.0 297.0,95.0 294.0,94.0 290.0,94.0 285.0,92.0" fill="#b32a11" />
<polygon points="185.0,101.0 184.0,102.0 184.0,113.0 185.0,114.0 187.0,112.0 187.0,106.0 186.0,105.0 186.0,102.0" fill="#b32a11" />
<polygon points="189.0,61.0 188.0,62.0 188.0,75.0 189.0,76.0 190.0,75.0 190.0,62.0" fill="#f87771" />
<polygon points="335.0,65.0 334.0,67.0 335.0,68.0 336.0,80.0 337.0,81.0 338.0,80.0 338.0,74.0" fill="#fc9a98" />
<polygon points="186.0,264.0 184.0,265.0 184.0,267.0 186.0,273.0 189.0,274.0 191.0,273.0 192.0,268.0 189.0,265.0" fill="#08324a" opacity="0.95" />
<polygon points="188.0,265.0 185.0,267.0 185.0,270.0 189.0,273.0 192.0,271.0 192.0,268.0" fill="#08324a" opacity="0.95" />
<polygon points="184.0,124.0 183.0,125.0 183.0,127.0 182.0,128.0 182.0,134.0 183.0,135.0 184.0,134.0 184.0,127.0 185.0,126.0 185.0,125.0" fill="#388aa2" />
<polygon points="293.0,104.0 290.0,105.0 288.0,107.0 288.0,109.0 291.0,111.0 296.0,108.0 296.0,106.0" fill="#f87771" opacity="0.95" />
<polygon points="291.0,95.0 291.0,97.0 295.0,99.0 297.0,98.0 297.0,96.0 294.0,94.0" fill="#b32a11" opacity="0.95" />
</svg>