<svg xmlns="http://www.w3.org/2000/svg" width="768" height="768" viewBox="0 0 384 384">
<rect width="384" height="384" fill="#8f6f61"/>
<polygon points="250.0,74.0 120.0,171.0 183.0,246.0 315.0,147.0" fill="#64b5c6" />
<polygon points="0.0,119.0 0.0,272.0 144.0,285.0 140.0,233.0 115.0,174.0 146.0,149.0 147.0,120.0" fill="#b08465" />
<polygon points="8.0,0.0 0.0,110.0 163.0,116.0 167.0,0.0 28.0,0.0 22.0,37.0 23.0,0.0" fill="#7a4c3d" />
<polygon points="0.0,322.0 0.0,383.0 154.0,383.0 150.0,324.0" fill="#b08465" />
<polygon points="383.0,119.0 312.0,117.0 356.0,169.0 203.0,261.0 198.0,284.0 223.0,268.0 383.0,279.0" fill="#b08465" />
<polygon points="250.0,74.0 120.0,171.0 183.0,245.0 315.0,147.0" fill="#64b5c6" opacity="0.95" />
<polygon points="8.0,0.0 0.0,110.0 97.0,105.0 161.0,114.0 167.0,0.0" fill="#7a4c3d" opacity="0.95" />
<polygon points="0.0,119.0 0.0,272.0 143.0,283.0 140.0,233.0 115.0,174.0 145.0,150.0 146.0,120.0" fill="#b08465" opacity="0.95" />
<polygon points="250.0,74.0 120.0,171.0 183.0,245.0 315.0,147.0" fill="#64b5c6" opacity="0.95" />
<polygon points="0.0,119.0 0.0,272.0 141.0,283.0 141.0,237.0 115.0,174.0 144.0,150.0 145.0,121.0" fill="#b08465" opacity="0.95" />
<polygon points="220.0,0.0 236.0,17.0 253.0,65.0 282.0,97.0 340.0,110.0 358.0,95.0 329.0,64.0 334.0,42.0 287.0,0.0" fill="#d36462" />
<polygon points="383.0,290.0 0.0,299.0 151.0,303.0 155.0,383.0 199.0,383.0 201.0,304.0" fill="#1e2227" />
<polygon points="227.0,362.0 229.0,383.0 383.0,383.0 383.0,344.0 273.0,334.0 233.0,350.0" fill="#b08465" />
<polygon points="383.0,119.0 313.0,118.0 354.0,172.0 198.0,276.0 383.0,279.0" fill="#b08465" opacity="0.95" />
<polygon points="9.0,0.0 0.0,110.0 160.0,113.0 167.0,0.0 28.0,0.0 21.0,36.0 21.0,5.0" fill="#7a4c3d" opacity="0.95" />
<polygon points="0.0,322.0 0.0,383.0 154.0,383.0 150.0,324.0" fill="#b08465" opacity="0.95" />
<polygon points="383.0,311.0 307.0,303.0 220.0,311.0 202.0,325.0 200.0,383.0 228.0,383.0 229.0,353.0 273.0,333.0 383.0,343.0" fill="#7a4c3d" />
<polygon points="383.0,119.0 318.0,119.0 356.0,169.0 199.0,271.0 383.0,279.0" fill="#b08465" opacity="0.95" />
<polygon points="0.0,300.0 0.0,321.0 154.0,322.0 153.0,306.0" fill="#7a4c3d" />
<polygon points="202.0,0.0 212.0,99.0 258.0,70.0 244.0,50.0 235.0,17.0 219.0,0.0" fill="#ec7c80" />
<polygon points="354.0,158.0 300.0,116.0 338.0,160.0 202.0,253.0 196.0,273.0" fill="#7a4c3d" />
<polygon points="220.0,0.0 254.0,67.0 282.0,97.0 339.0,110.0 357.0,96.0 329.0,64.0 334.0,42.0 287.0,0.0" fill="#d36462" opacity="0.95" />
<polygon points="327.0,147.0 183.0,247.0 184.0,280.0 199.0,250.0 323.0,163.0" fill="#1e2227" />
<polygon points="383.0,290.0 0.0,299.0 151.0,303.0 155.0,383.0 199.0,383.0 200.0,305.0" fill="#1e2227" opacity="0.95" />
<polygon points="343.0,0.0 353.0,57.0 371.0,79.0 349.0,110.0 383.0,112.0 383.0,0.0" fill="#1e2227" />
<polygon points="227.0,362.0 229.0,383.0 383.0,383.0 383.0,344.0 273.0,334.0 233.0,350.0" fill="#b08465" opacity="0.95" />
<polygon points="383.0,311.0 307.0,303.0 220.0,311.0 202.0,325.0 200.0,383.0 228.0,383.0 229.0,352.0 273.0,333.0 383.0,343.0" fill="#7a4c3d" opacity="0.95" />
<polygon points="201.0,281.0 215.0,294.0 383.0,289.0 379.0,279.0 256.0,278.0 225.0,269.0 207.0,271.0" fill="#c4aa97" />
<polygon points="383.0,290.0 0.0,299.0 151.0,303.0 155.0,383.0 199.0,383.0 201.0,305.0" fill="#1e2227" opacity="0.95" />
<polygon points="220.0,0.0 236.0,17.0 253.0,65.0 282.0,97.0 339.0,110.0 357.0,96.0 329.0,64.0 334.0,42.0 287.0,0.0" fill="#d36462" opacity="0.95" />
<polygon points="0.0,273.0 0.0,288.0 157.0,296.0 174.0,285.0 161.0,292.0 90.0,277.0" fill="#c4aa97" />
<polygon points="168.0,0.0 169.0,91.0 161.0,111.0 177.0,126.0 183.0,120.0 183.0,0.0" fill="#4e2c2c" />
<polygon points="125.0,190.0 142.0,237.0 144.0,282.0 162.0,290.0 178.0,284.0 181.0,263.0 174.0,269.0 163.0,230.0" fill="#7a4c3d" />
<polygon points="202.0,0.0 211.0,99.0 254.0,68.0 235.0,17.0 219.0,0.0" fill="#ec7c80" opacity="0.95" />
<polygon points="0.0,300.0 0.0,321.0 154.0,323.0 153.0,306.0" fill="#7a4c3d" opacity="0.95" />
<polygon points="383.0,311.0 307.0,303.0 220.0,311.0 202.0,325.0 200.0,383.0 228.0,383.0 229.0,352.0 273.0,333.0 383.0,343.0" fill="#7a4c3d" opacity="0.95" />
<polygon points="201.0,0.0 195.0,0.0 198.0,109.0 210.0,100.0" fill="#f79fa6" />
<polygon points="327.0,147.0 183.0,247.0 185.0,280.0 199.0,250.0 323.0,163.0" fill="#1e2227" opacity="0.95" />
<polygon points="190.0,0.0 183.0,4.0 185.0,118.0 193.0,112.0" fill="#e91b53" />
<polygon points="343.0,0.0 353.0,57.0 371.0,79.0 351.0,110.0 383.0,112.0 383.0,0.0" fill="#1e2227" opacity="0.95" />
<polygon points="202.0,0.0 211.0,99.0 253.0,66.0 235.0,17.0 219.0,0.0" fill="#ec7c80" opacity="0.95" />
<polygon points="0.0,273.0 0.0,288.0 162.0,294.0 98.0,278.0" fill="#c4aa97" opacity="0.95" />
<polygon points="0.0,112.0 0.0,118.0 114.0,114.0 168.0,123.0 139.0,111.0 98.0,107.0" fill="#c4aa97" />
<polygon points="201.0,281.0 215.0,294.0 383.0,289.0 379.0,279.0 256.0,278.0 225.0,269.0 207.0,271.0" fill="#c4aa97" opacity="0.95" />
<polygon points="317.0,133.0 328.0,159.0 199.0,251.0 192.0,284.0 202.0,252.0 337.0,160.0" fill="#4e2c2c" />
<polygon points="200.0,324.0 241.0,305.0 383.0,310.0 383.0,300.0 201.0,305.0" fill="#4e2c2c" />
<polygon points="327.0,147.0 183.0,247.0 185.0,280.0 199.0,250.0 323.0,163.0" fill="#1e2227" opacity="0.95" />
<polygon points="299.0,0.0 342.0,45.0 329.0,14.0 328.0,0.0" fill="#4e2c2c" />
<polygon points="343.0,0.0 353.0,57.0 371.0,79.0 352.0,109.0 383.0,112.0 383.0,0.0" fill="#1e2227" opacity="0.95" />
<polygon points="185.0,293.0 383.0,289.0 383.0,280.0 256.0,278.0 223.0,269.0 205.0,272.0" fill="#c4aa97" opacity="0.95" />
<polygon points="168.0,0.0 169.0,91.0 162.0,113.0 177.0,125.0 183.0,120.0 183.0,0.0" fill="#4e2c2c" opacity="0.95" />
<polygon points="0.0,273.0 0.0,288.0 160.0,294.0 98.0,278.0" fill="#c4aa97" opacity="0.95" />
<polygon points="336.0,54.0 331.0,59.0 334.0,67.0 358.0,92.0 362.0,92.0 367.0,86.0 366.0,77.0 342.0,54.0" fill="#c4aa97" />
<polygon points="195.0,0.0 196.0,97.0 200.0,107.0 209.0,99.0 201.0,0.0" fill="#f79fa6" opacity="0.95" />
<polygon points="190.0,0.0 184.0,0.0 186.0,117.0 193.0,112.0" fill="#e91b53" opacity="0.95" />
<polygon points="168.0,0.0 169.0,91.0 162.0,113.0 177.0,125.0 183.0,120.0 183.0,0.0" fill="#4e2c2c" opacity="0.95" />
<polygon points="336.0,152.0 204.0,249.0 325.0,170.0" fill="#4e2c2c" opacity="0.95" />
<polygon points="292.0,111.0 296.0,115.0 340.0,119.0 383.0,118.0 382.0,115.0" fill="#c4aa97" />
<polygon points="0.0,112.0 0.0,118.0 114.0,114.0 167.0,123.0 139.0,111.0 98.0,107.0" fill="#c4aa97" opacity="0.95" />
<polygon points="190.0,0.0 184.0,0.0 187.0,116.0 193.0,112.0" fill="#e91b53" opacity="0.95" />
<polygon points="195.0,0.0 196.0,97.0 200.0,107.0 209.0,99.0 201.0,0.0" fill="#f79fa6" opacity="0.95" />
<polygon points="252.0,72.0 317.0,146.0 317.0,140.0" fill="#5b92a0" />
<polygon points="118.0,173.0 117.0,177.0 181.0,248.0" fill="#5b92a0" />
<polygon points="336.0,152.0 231.0,230.0 325.0,170.0" fill="#4e2c2c" opacity="0.95" />
<polygon points="164.0,233.0 163.0,237.0 176.0,270.0 177.0,262.0 182.0,259.0 176.0,245.0" fill="#4e2c2c" />
<polygon points="299.0,0.0 338.0,43.0 351.0,48.0 350.0,32.0 343.0,40.0 335.0,29.0 328.0,0.0" fill="#4e2c2c" opacity="0.95" />
<polygon points="6.0,0.0 0.0,0.0 0.0,27.0 3.0,20.0" fill="#1e2227" />
<polygon points="254.0,71.0 253.0,72.0 252.0,72.0 252.0,74.0 255.0,76.0 256.0,75.0 257.0,75.0 257.0,73.0" fill="#5b92a0" opacity="0.95" />
</svg>