<svg xmlns="http://www.w3.org/2000/svg" width="768" height="768" viewBox="0 0 384 384">
<rect width="384" height="384" fill="#8d6d5f"/>
<polygon points="0.0,0.0 0.0,383.0 153.0,383.0 156.0,307.0 227.0,269.0 158.0,223.0 139.0,88.0 156.0,0.0" fill="#a27f6e" />
<polygon points="223.0,0.0 223.0,226.0 163.0,228.0 228.0,269.0 196.0,383.0 383.0,383.0 383.0,121.0 350.0,122.0 273.0,44.0 274.0,9.0 330.0,58.0 282.0,0.0" fill="#795644" />
<polygon points="0.0,0.0 0.0,383.0 153.0,383.0 156.0,307.0 226.0,271.0 159.0,224.0 139.0,89.0 156.0,0.0" fill="#a27f6e" opacity="0.95" />
<polygon points="0.0,0.0 0.0,383.0 153.0,383.0 156.0,307.0 226.0,271.0 159.0,224.0 140.0,88.0 156.0,0.0" fill="#a27f6e" opacity="0.95" />
<polygon points="223.0,0.0 223.0,226.0 165.0,229.0 227.0,268.0 197.0,383.0 383.0,383.0 383.0,121.0 278.0,50.0 269.0,8.0 330.0,55.0 282.0,0.0" fill="#795644" opacity="0.95" />
<polygon points="223.0,0.0 223.0,226.0 166.0,231.0 227.0,268.0 197.0,383.0 231.0,364.0 383.0,383.0 383.0,121.0 350.0,122.0 273.0,44.0 269.0,8.0 330.0,55.0 282.0,0.0" fill="#795644" opacity="0.95" />
<polygon points="216.0,106.0 183.0,107.0 184.0,229.0 217.0,222.0" fill="#a4d9d8" />
<polygon points="218.0,277.0 181.0,288.0 158.0,306.0 154.0,383.0 191.0,383.0 214.0,362.0" fill="#033238" />
<polygon points="299.0,0.0 383.0,88.0 383.0,0.0" fill="#201613" />
<polygon points="183.0,0.0 183.0,104.0 216.0,105.0 218.0,0.0" fill="#fd6e94" />
<polygon points="161.0,106.0 160.0,222.0 181.0,228.0 182.0,107.0" fill="#033238" />
<polygon points="157.0,0.0 159.0,103.0 181.0,105.0 182.0,0.0" fill="#d67641" />
<polygon points="219.0,279.0 181.0,288.0 158.0,306.0 154.0,383.0 192.0,383.0 214.0,362.0" fill="#033238" opacity="0.95" />
<polygon points="215.0,106.0 183.0,107.0 185.0,229.0 217.0,222.0" fill="#a4d9d8" opacity="0.95" />
<polygon points="299.0,0.0 383.0,88.0 383.0,0.0" fill="#201613" opacity="0.95" />
<polygon points="183.0,0.0 183.0,104.0 215.0,105.0 218.0,0.0" fill="#fd6e94" opacity="0.95" />
<polygon points="267.0,10.0 274.0,44.0 346.0,118.0 371.0,126.0 375.0,115.0 332.0,72.0 324.0,77.0 279.0,21.0 324.0,59.0" fill="#a27f6e" />
<polygon points="218.0,279.0 181.0,288.0 158.0,306.0 154.0,383.0 192.0,383.0 214.0,362.0" fill="#033238" opacity="0.95" />
<polygon points="214.0,106.0 183.0,108.0 186.0,229.0 217.0,222.0" fill="#a4d9d8" opacity="0.95" />
<polygon points="162.0,106.0 160.0,222.0 180.0,228.0 182.0,107.0" fill="#033238" opacity="0.95" />
<polygon points="299.0,0.0 383.0,88.0 383.0,0.0" fill="#201613" opacity="0.95" />
<polygon points="157.0,0.0 159.0,103.0 180.0,105.0 182.0,0.0" fill="#d67641" opacity="0.95" />
<polygon points="183.0,0.0 183.0,103.0 214.0,105.0 218.0,84.0 218.0,0.0" fill="#fd6e94" opacity="0.95" />
<polygon points="163.0,106.0 160.0,222.0 179.0,228.0 182.0,108.0" fill="#033238" opacity="0.95" />
<polygon points="157.0,0.0 159.0,102.0 179.0,105.0 182.0,103.0 182.0,0.0" fill="#d67641" opacity="0.95" />
<polygon points="267.0,10.0 265.0,27.0 279.0,50.0 346.0,118.0 373.0,125.0 374.0,113.0 334.0,74.0 318.0,72.0 277.0,23.0 285.0,20.0" fill="#a27f6e" opacity="0.95" />
<polygon points="339.0,52.0 337.0,63.0 351.0,73.0 383.0,108.0 383.0,93.0" fill="#c9c0b7" />
<polygon points="279.0,22.0 283.0,35.0 327.0,76.0 330.0,72.0" fill="#c9c0b7" />
<polygon points="267.0,10.0 265.0,27.0 283.0,54.0 346.0,118.0 372.0,125.0 374.0,114.0 334.0,74.0 325.0,77.0 282.0,35.0 282.0,17.0" fill="#a27f6e" opacity="0.95" />
<polygon points="245.0,373.0 229.0,366.0 207.0,383.0 243.0,383.0" fill="#a27f6e" />
<polygon points="283.0,0.0 303.0,25.0 321.0,39.0 331.0,57.0 337.0,52.0 288.0,0.0" fill="#6c6c6b" />
<polygon points="221.0,280.0 220.0,350.0 208.0,373.0 218.0,363.0 224.0,345.0" fill="#201613" />
<polygon points="335.0,54.0 332.0,63.0 383.0,115.0 383.0,109.0 365.0,88.0 336.0,63.0" fill="#e5e6e1" />
<polygon points="337.0,54.0 337.0,63.0 361.0,83.0 383.0,108.0 383.0,93.0 345.0,55.0" fill="#c9c0b7" opacity="0.95" />
<polygon points="278.0,23.0 283.0,35.0 323.0,75.0 328.0,75.0 328.0,68.0 289.0,29.0" fill="#c9c0b7" opacity="0.95" />
<polygon points="329.0,60.0 331.0,70.0 383.0,119.0 336.0,71.0" fill="#293438" />
<polygon points="338.0,55.0 337.0,63.0 361.0,83.0 383.0,108.0 383.0,93.0 345.0,55.0" fill="#c9c0b7" opacity="0.95" />
<polygon points="157.0,79.0 140.0,87.0 156.0,97.0 157.0,109.0 159.0,105.0" fill="#795644" />
<polygon points="245.0,373.0 229.0,367.0 208.0,383.0 244.0,383.0" fill="#a27f6e" opacity="0.95" />
<polygon points="222.0,0.0 219.0,0.0 220.0,42.0" fill="#201613" />
<polygon points="280.0,25.0 283.0,35.0 323.0,75.0 328.0,75.0 328.0,68.0 289.0,29.0" fill="#c9c0b7" opacity="0.95" />
<polygon points="156.0,11.0 153.0,14.0 155.0,25.0 144.0,37.0 146.0,43.0 149.0,42.0 155.0,46.0 156.0,57.0" fill="#795644" />
<polygon points="221.0,214.0 219.0,214.0 217.0,224.0 192.0,231.0 209.0,231.0 221.0,227.0" fill="#201613" />
<polygon points="245.0,373.0 229.0,367.0 208.0,383.0 244.0,383.0" fill="#a27f6e" opacity="0.95" />
<polygon points="332.0,61.0 336.0,69.0 366.0,99.0 373.0,101.0 362.0,85.0 338.0,66.0 336.0,61.0" fill="#e5e6e1" opacity="0.95" />
<polygon points="222.0,284.0 220.0,285.0 220.0,345.0 222.0,346.0 224.0,345.0 225.0,312.0 224.0,285.0" fill="#201613" opacity="0.95" />
<polygon points="290.0,7.0 290.0,11.0 314.0,36.0 318.0,36.0 318.0,32.0 294.0,7.0" fill="#6c6c6b" opacity="0.95" />
<polygon points="289.0,0.0 328.0,40.0 329.0,39.0 291.0,0.0" fill="#e5e6e1" />
<polygon points="291.0,8.0 290.0,11.0 313.0,35.0 317.0,35.0 318.0,32.0 295.0,8.0" fill="#6c6c6b" opacity="0.95" />
<polygon points="158.0,81.0 154.0,80.0 147.0,84.0 146.0,83.0 142.0,85.0 140.0,89.0 156.0,96.0 158.0,95.0" fill="#795644" opacity="0.95" />
<polygon points="155.0,12.0 153.0,13.0 155.0,26.0 144.0,36.0 145.0,42.0 155.0,45.0 157.0,44.0 157.0,27.0 155.0,26.0 157.0,13.0" fill="#795644" opacity="0.95" />
<polygon points="141.0,86.0 143.0,90.0 155.0,96.0 158.0,94.0 158.0,83.0 154.0,80.0" fill="#795644" opacity="0.95" />
<polygon points="154.0,27.0 145.0,37.0 145.0,40.0 152.0,44.0 157.0,42.0 157.0,29.0" fill="#795644" opacity="0.95" />
<polygon points="222.0,223.0 220.0,222.0 207.0,228.0 207.0,230.0 209.0,231.0 215.0,230.0 221.0,227.0" fill="#201613" opacity="0.95" />
<polygon points="321.0,39.0 322.0,44.0 331.0,51.0 333.0,50.0 333.0,47.0 325.0,39.0 323.0,38.0" fill="#6c6c6b" opacity="0.95" />
<polygon points="316.0,21.0 315.0,22.0 326.0,33.0 327.0,32.0" fill="#293438" />
<polygon points="355.0,86.0 355.0,88.0 361.0,94.0 363.0,95.0 366.0,93.0 366.0,90.0 362.0,85.0 360.0,84.0 359.0,85.0 358.0,84.0" fill="#e5e6e1" opacity="0.95" />
<polygon points="220.0,111.0 219.0,112.0 219.0,119.0 220.0,120.0 221.0,119.0 221.0,112.0" fill="#201613" />
<polygon points="156.0,124.0 155.0,125.0 154.0,124.0 153.0,125.0 153.0,129.0 154.0,130.0 158.0,126.0" fill="#795644" />
<polygon points="174.0,229.0 175.0,230.0 177.0,230.0 178.0,231.0 182.0,231.0 183.0,230.0 182.0,229.0 177.0,229.0 176.0,228.0 175.0,228.0" fill="#293438" />
<polygon points="378.0,108.0 378.0,110.0 381.0,113.0 382.0,113.0 383.0,114.0 383.0,109.0 380.0,107.0 379.0,108.0" fill="#e5e6e1" opacity="0.95" />
</svg>