<svg xmlns="http://www.w3.org/2000/svg" width="768" height="768" viewBox="0 0 384 384">
<rect width="384" height="384" fill="#8d6553"/>
<polygon points="253.0,0.0 253.0,190.0 383.0,191.0 383.0,0.0" fill="#754638" />
<polygon points="0.0,0.0 2.0,127.0 131.0,126.0 131.0,0.0" fill="#754638" />
<polygon points="132.0,0.0 132.0,126.0 177.0,128.0 192.0,120.0 251.0,127.0 252.0,0.0" fill="#a46b52" />
<polygon points="253.0,0.0 254.0,190.0 383.0,191.0 383.0,0.0" fill="#754638" opacity="0.95" />
<polygon points="0.0,191.0 0.0,258.0 133.0,257.0 130.0,192.0" fill="#cb9f82" />
<polygon points="0.0,325.0 0.0,383.0 132.0,383.0 130.0,323.0" fill="#a46b52" />
<polygon points="0.0,0.0 1.0,126.0 131.0,126.0 131.0,0.0" fill="#754638" opacity="0.95" />
<polygon points="253.0,0.0 255.0,189.0 383.0,191.0 383.0,0.0" fill="#754638" opacity="0.95" />
<polygon points="190.0,122.0 142.0,148.0 127.0,180.0 151.0,212.0 194.0,229.0 238.0,207.0 257.0,170.0 238.0,145.0" fill="#63f1f9" />
<polygon points="251.0,324.0 251.0,383.0 383.0,383.0 383.0,323.0" fill="#a46b52" />
<polygon points="134.0,324.0 134.0,383.0 250.0,383.0 249.0,323.0" fill="#754638" />
<polygon points="252.0,0.0 132.0,0.0 132.0,127.0 3.0,129.0 0.0,189.0 127.0,191.0 133.0,127.0 252.0,126.0" fill="#a46b52" opacity="0.95" />
<polygon points="0.0,131.0 2.0,191.0 130.0,190.0 125.0,177.0 132.0,157.0 130.0,129.0" fill="#a46b52" />
<polygon points="247.0,200.0 248.0,212.0 284.0,257.0 383.0,256.0 383.0,194.0 252.0,192.0" fill="#a46b52" />
<polygon points="156.0,247.0 218.0,308.0 224.0,259.0 248.0,249.0 253.0,320.0 383.0,320.0 383.0,258.0 281.0,258.0 249.0,214.0 213.0,253.0" fill="#754638" />
<polygon points="0.0,0.0 0.0,125.0 131.0,125.0 131.0,0.0" fill="#754638" opacity="0.95" />
<polygon points="132.0,0.0 133.0,126.0 251.0,126.0 252.0,0.0" fill="#a46b52" opacity="0.95" />
<polygon points="131.0,259.0 29.0,259.0 34.0,266.0 24.0,281.0 7.0,266.0 22.0,260.0 5.0,259.0 1.0,318.0 130.0,320.0" fill="#754638" />
<polygon points="145.0,237.0 156.0,256.0 132.0,262.0 135.0,320.0 251.0,319.0 248.0,250.0 225.0,260.0 218.0,309.0" fill="#a46b52" />
<polygon points="0.0,191.0 0.0,258.0 124.0,257.0 132.0,251.0 130.0,192.0" fill="#cb9f82" opacity="0.95" />
<polygon points="190.0,122.0 142.0,148.0 127.0,180.0 151.0,212.0 194.0,229.0 238.0,207.0 257.0,170.0 238.0,145.0" fill="#63f1f9" opacity="0.95" />
<polygon points="0.0,325.0 0.0,383.0 132.0,383.0 130.0,323.0" fill="#a46b52" opacity="0.95" />
<polygon points="132.0,261.0 134.0,319.0 251.0,323.0 251.0,383.0 383.0,383.0 383.0,323.0 252.0,322.0 249.0,252.0 226.0,260.0 216.0,306.0 154.0,244.0" fill="#a46b52" opacity="0.95" />
<polygon points="159.0,250.0 216.0,305.0 224.0,259.0 251.0,252.0 254.0,320.0 383.0,320.0 383.0,258.0 284.0,258.0 251.0,216.0 213.0,253.0" fill="#754638" opacity="0.95" />
<polygon points="0.0,191.0 0.0,258.0 122.0,257.0 132.0,250.0 130.0,192.0" fill="#cb9f82" opacity="0.95" />
<polygon points="190.0,122.0 142.0,148.0 127.0,180.0 151.0,212.0 194.0,229.0 238.0,207.0 257.0,170.0 238.0,145.0" fill="#63f1f9" opacity="0.95" />
<polygon points="246.0,202.0 197.0,230.0 142.0,206.0 141.0,225.0 171.0,253.0 203.0,255.0 240.0,233.0" fill="#08082c" />
<polygon points="247.0,209.0 244.0,203.0 197.0,230.0 144.0,208.0 140.0,218.0 158.0,246.0 195.0,256.0 231.0,242.0" fill="#08082c" opacity="0.95" />
<polygon points="209.0,128.0 251.0,153.0 250.0,128.0" fill="#c57239" />
<polygon points="247.0,209.0 243.0,204.0 197.0,230.0 144.0,208.0 140.0,218.0 158.0,246.0 195.0,256.0 231.0,242.0" fill="#08082c" opacity="0.95" />
<polygon points="135.0,199.0 133.0,255.0 136.0,259.0 154.0,257.0 140.0,226.0 140.0,205.0" fill="#c57239" />
<polygon points="175.0,128.0 136.0,127.0 132.0,131.0 132.0,152.0 134.0,154.0 150.0,141.0" fill="#c57239" />
<polygon points="174.0,127.0 133.0,129.0 132.0,152.0" fill="#c57239" opacity="0.95" />
<polygon points="210.0,127.0 251.0,151.0 250.0,128.0" fill="#c57239" opacity="0.95" />
<polygon points="136.0,201.0 133.0,205.0 133.0,255.0 136.0,258.0 150.0,258.0 154.0,254.0 141.0,229.0 139.0,203.0" fill="#c57239" opacity="0.95" />
<polygon points="213.0,128.0 248.0,151.0 251.0,149.0 250.0,128.0 227.0,126.0" fill="#c57239" opacity="0.95" />
<polygon points="172.0,128.0 169.0,126.0 135.0,128.0 132.0,131.0 132.0,150.0 137.0,151.0" fill="#c57239" opacity="0.95" />
<polygon points="190.0,135.0 194.0,136.0 198.0,140.0 198.0,146.0 194.0,150.0 189.0,150.0 184.0,146.0 185.0,139.0" fill="#63f1f9" />
<polygon points="136.0,203.0 133.0,205.0 133.0,255.0 137.0,258.0 150.0,258.0 153.0,252.0 141.0,229.0 139.0,205.0" fill="#c57239" opacity="0.95" />
<polygon points="155.0,279.0 153.0,280.0 147.0,276.0 139.0,283.0 141.0,290.0 145.0,292.0 149.0,290.0 150.0,287.0 156.0,281.0" fill="#c57239" />
<polygon points="190.0,135.0 194.0,136.0 198.0,140.0 198.0,146.0 193.0,150.0 189.0,150.0 184.0,146.0 185.0,139.0" fill="#63f1f9" opacity="0.95" />
<polygon points="189.0,137.0 185.0,141.0 185.0,145.0 189.0,149.0 193.0,149.0 197.0,145.0 197.0,141.0 195.0,138.0 193.0,137.0" fill="#1a1940" />
<polygon points="190.0,135.0 194.0,136.0 198.0,140.0 198.0,146.0 193.0,150.0 189.0,150.0 184.0,146.0 185.0,139.0" fill="#63f1f9" opacity="0.95" />
<polygon points="189.0,137.0 185.0,141.0 185.0,145.0 186.0,147.0 193.0,149.0 197.0,145.0 197.0,141.0 195.0,138.0" fill="#1a1940" opacity="0.95" />
<polygon points="190.0,137.0 185.0,141.0 185.0,145.0 188.0,148.0 192.0,149.0 197.0,145.0 197.0,141.0 195.0,138.0" fill="#1a1940" opacity="0.95" />
</svg>