<svg xmlns="http://www.w3.org/2000/svg" width="768" height="768" viewBox="0 0 384 384">
<rect width="384" height="384" fill="#875f53"/>
<polygon points="0.0,0.0 0.0,383.0 383.0,383.0 383.0,0.0 243.0,0.0 229.0,156.0 269.0,191.0 208.0,378.0 144.0,319.0 155.0,2.0" fill="#805241" />
<polygon points="0.0,0.0 0.0,383.0 383.0,383.0 383.0,0.0 243.0,0.0 269.0,191.0 208.0,378.0 145.0,326.0 154.0,0.0" fill="#805241" opacity="0.95" />
<polygon points="0.0,0.0 0.0,383.0 383.0,383.0 383.0,0.0 243.0,0.0 231.0,155.0 269.0,191.0 208.0,378.0 145.0,326.0 154.0,0.0" fill="#805241" opacity="0.95" />
<polygon points="126.0,160.0 137.0,198.0 187.0,229.0 231.0,213.0 257.0,173.0 256.0,159.0" fill="#6fecf9" />
<polygon points="206.0,0.0 178.0,0.0 179.0,130.0 189.0,146.0 207.0,111.0" fill="#fd1562" />
<polygon points="126.0,160.0 137.0,198.0 187.0,229.0 231.0,213.0 257.0,173.0 255.0,159.0" fill="#6fecf9" opacity="0.95" />
<polygon points="187.0,248.0 186.0,280.0 160.0,300.0 167.0,283.0 153.0,290.0 146.0,325.0 165.0,353.0 199.0,360.0 227.0,345.0 238.0,312.0 223.0,282.0 225.0,301.0 196.0,280.0 197.0,250.0" fill="#194041" />
<polygon points="126.0,161.0 137.0,198.0 187.0,229.0 231.0,213.0 257.0,173.0 254.0,159.0" fill="#6fecf9" opacity="0.95" />
<polygon points="226.0,0.0 207.0,0.0 209.0,107.0 226.0,88.0" fill="#fca871" />
<polygon points="260.0,165.0 203.0,229.0 135.0,200.0 174.0,245.0 206.0,241.0 238.0,305.0 210.0,358.0 152.0,343.0 208.0,377.0 249.0,344.0 221.0,257.0 264.0,205.0" fill="#59392f" />
<polygon points="158.0,0.0 157.0,87.0 176.0,99.0 177.0,0.0" fill="#fca871" />
<polygon points="206.0,0.0 178.0,0.0 179.0,130.0 189.0,144.0 207.0,111.0" fill="#fd1562" opacity="0.95" />
<polygon points="242.0,0.0 227.0,0.0 227.0,88.0 208.0,118.0 231.0,87.0 243.0,97.0 208.0,158.0 230.0,154.0 255.0,110.0 242.0,78.0" fill="#59392f" />
<polygon points="188.0,250.0 186.0,280.0 160.0,298.0 166.0,282.0 153.0,290.0 146.0,325.0 165.0,353.0 199.0,360.0 227.0,345.0 238.0,312.0 228.0,287.0 225.0,300.0 196.0,280.0 197.0,251.0" fill="#194041" opacity="0.95" />
<polygon points="206.0,0.0 178.0,0.0 179.0,130.0 189.0,144.0 207.0,111.0" fill="#fd1562" opacity="0.95" />
<polygon points="231.0,89.0 192.0,150.0 201.0,158.0 241.0,97.0" fill="#e8edeb" />
<polygon points="150.0,90.0 143.0,98.0 179.0,155.0 188.0,152.0" fill="#e8edeb" />
<polygon points="189.0,250.0 186.0,280.0 163.0,295.0 153.0,290.0 146.0,325.0 165.0,353.0 199.0,360.0 227.0,345.0 238.0,312.0 233.0,298.0 196.0,279.0 197.0,253.0" fill="#194041" opacity="0.95" />
<polygon points="226.0,0.0 207.0,0.0 210.0,105.0 226.0,88.0" fill="#fca871" opacity="0.95" />
<polygon points="158.0,0.0 158.0,88.0 175.0,98.0 177.0,0.0" fill="#fca871" opacity="0.95" />
<polygon points="242.0,0.0 227.0,0.0 227.0,87.0 243.0,97.0 208.0,158.0 230.0,154.0 255.0,110.0 242.0,78.0" fill="#59392f" opacity="0.95" />
<polygon points="261.0,168.0 235.0,211.0 196.0,231.0 208.0,247.0 205.0,272.0 224.0,280.0 225.0,245.0 264.0,205.0" fill="#59392f" opacity="0.95" />
<polygon points="143.0,95.0 177.0,152.0 201.0,157.0 241.0,97.0 228.0,93.0 191.0,150.0 154.0,92.0" fill="#e8edeb" opacity="0.95" />
<polygon points="226.0,0.0 207.0,0.0 207.0,89.0 211.0,103.0 226.0,88.0" fill="#fca871" opacity="0.95" />
<polygon points="183.0,236.0 178.0,273.0 158.0,296.0 184.0,280.0 186.0,244.0 199.0,249.0 198.0,279.0 226.0,299.0 204.0,273.0 204.0,241.0" fill="#e8edeb" />
<polygon points="158.0,0.0 159.0,89.0 174.0,97.0 177.0,95.0 177.0,0.0" fill="#fca871" opacity="0.95" />
<polygon points="242.0,0.0 227.0,0.0 227.0,86.0 242.0,98.0 209.0,158.0 230.0,154.0 255.0,110.0 242.0,78.0" fill="#59392f" opacity="0.95" />
<polygon points="261.0,169.0 235.0,211.0 197.0,231.0 208.0,247.0 205.0,272.0 223.0,278.0 225.0,245.0 264.0,205.0 268.0,182.0" fill="#59392f" opacity="0.95" />
<polygon points="143.0,96.0 177.0,152.0 201.0,156.0 240.0,99.0 228.0,93.0 191.0,149.0 154.0,92.0" fill="#e8edeb" opacity="0.95" />
<polygon points="236.0,290.0 239.0,320.0 228.0,345.0 199.0,361.0 160.0,350.0 171.0,367.0 205.0,377.0 241.0,356.0 251.0,319.0" fill="#59392f" opacity="0.95" />
<polygon points="245.0,301.0 235.0,297.0 237.0,329.0 219.0,353.0 199.0,361.0 161.0,357.0 194.0,377.0 234.0,363.0 250.0,341.0" fill="#59392f" opacity="0.95" />
<polygon points="183.0,236.0 178.0,274.0 161.0,292.0 184.0,280.0 187.0,247.0 199.0,250.0 198.0,279.0 227.0,298.0 204.0,273.0 204.0,241.0" fill="#e8edeb" opacity="0.95" />
<polygon points="138.0,205.0 173.0,242.0 187.0,233.0" fill="#59392f" opacity="0.95" />
<polygon points="164.0,102.0 163.0,104.0 177.0,124.0 178.0,110.0" fill="#59392f" />
<polygon points="155.0,91.0 161.0,100.0 178.0,106.0 178.0,102.0 158.0,89.0" fill="#b75725" />
<polygon points="183.0,236.0 177.0,245.0 178.0,254.0 183.0,255.0 188.0,248.0 196.0,250.0 198.0,279.0 215.0,285.0 204.0,273.0 204.0,241.0 195.0,234.0" fill="#e8edeb" opacity="0.95" />
<polygon points="207.0,118.0 191.0,149.0 209.0,120.0" fill="#ac0530" />
<polygon points="182.0,156.0 183.0,158.0 198.0,158.0 199.0,157.0 197.0,154.0 190.0,152.0 186.0,153.0" fill="#c5cacb" />
<polygon points="156.0,90.0 160.0,99.0 175.0,106.0 178.0,105.0 176.0,100.0 162.0,91.0" fill="#b75725" opacity="0.95" />
<polygon points="157.0,92.0 161.0,99.0 175.0,106.0 178.0,104.0 176.0,100.0 160.0,90.0" fill="#b75725" opacity="0.95" />
<polygon points="183.0,269.0 179.0,269.0 176.0,275.0 168.0,279.0 170.0,285.0 173.0,286.0 184.0,279.0" fill="#e8edeb" opacity="0.95" />
<polygon points="182.0,155.0 182.0,157.0 184.0,158.0 196.0,158.0 198.0,157.0 198.0,155.0 190.0,152.0" fill="#c5cacb" opacity="0.95" />
<polygon points="189.0,152.0 186.0,154.0 186.0,156.0 190.0,158.0 193.0,156.0 193.0,154.0" fill="#c5cacb" opacity="0.95" />
</svg>