<svg xmlns="http://www.w3.org/2000/svg" width="768" height="768" viewBox="0 0 384 384">
<rect width="384" height="384" fill="#945652"/>
<polygon points="347.0,64.0 242.0,0.0 148.0,10.0 81.0,125.0 136.0,129.0 73.0,130.0 0.0,195.0 0.0,318.0 144.0,320.0 181.0,280.0 137.0,191.0 201.0,99.0 294.0,106.0 347.0,180.0" fill="#bd4b45" />
<polygon points="347.0,64.0 243.0,0.0 110.0,39.0 85.0,128.0 0.0,195.0 0.0,383.0 150.0,383.0 158.0,128.0 265.0,95.0 346.0,175.0" fill="#bd4b45" opacity="0.95" />
<polygon points="347.0,64.0 243.0,0.0 111.0,39.0 84.0,127.0 0.0,195.0 0.0,383.0 150.0,383.0 157.0,129.0 265.0,95.0 345.0,166.0" fill="#bd4b45" opacity="0.95" />
<polygon points="157.0,326.0 157.0,383.0 344.0,383.0 347.0,350.0 337.0,325.0" fill="#562d28" />
<polygon points="0.0,327.0 0.0,383.0 150.0,383.0 141.0,325.0" fill="#bd4b45" />
<polygon points="166.0,0.0 124.0,0.0 16.0,66.0 0.0,58.0 3.0,190.0 70.0,132.0 13.0,128.0 79.0,126.0 106.0,37.0" fill="#7b3931" />
<polygon points="353.0,193.0 332.0,256.0 304.0,279.0 343.0,320.0 383.0,320.0 383.0,204.0" fill="#bd4b45" />
<polygon points="241.0,94.0 165.0,127.0 204.0,128.0 190.0,157.0 157.0,174.0 146.0,158.0 141.0,196.0 166.0,226.0 199.0,235.0 210.0,210.0 244.0,204.0 266.0,133.0 245.0,124.0" fill="#71d7e6" />
<polygon points="166.0,0.0 123.0,0.0 0.0,62.0 0.0,188.0 55.0,159.0 109.0,37.0" fill="#7b3931" opacity="0.95" />
<polygon points="276.0,138.0 245.0,207.0 270.0,243.0 298.0,220.0 314.0,162.0" fill="#bd4b45" />
<polygon points="0.0,30.0 71.0,34.0 123.0,0.0 0.0,0.0" fill="#562d28" />
<polygon points="347.0,350.0 319.0,296.0 308.0,325.0 179.0,325.0 165.0,297.0 154.0,312.0 156.0,383.0 344.0,383.0" fill="#562d28" opacity="0.95" />
<polygon points="165.0,0.0 123.0,0.0 0.0,65.0 1.0,188.0 55.0,159.0 109.0,38.0" fill="#7b3931" opacity="0.95" />
<polygon points="167.0,303.0 185.0,320.0 302.0,320.0 320.0,309.0 302.0,280.0 240.0,296.0 207.0,293.0 183.0,280.0" fill="#2c2120" />
<polygon points="353.0,193.0 332.0,256.0 305.0,280.0 354.0,321.0 355.0,383.0 383.0,383.0 383.0,204.0" fill="#bd4b45" opacity="0.95" />
<polygon points="209.0,213.0 202.0,238.0 217.0,260.0 248.0,262.0 263.0,257.0 268.0,243.0 244.0,209.0" fill="#2c2120" />
<polygon points="242.0,95.0 167.0,125.0 204.0,128.0 191.0,156.0 158.0,173.0 145.0,160.0 141.0,196.0 165.0,225.0 199.0,234.0 209.0,211.0 244.0,204.0 264.0,132.0 245.0,124.0" fill="#71d7e6" opacity="0.95" />
<polygon points="155.0,309.0 156.0,383.0 344.0,383.0 346.0,345.0 322.0,300.0 309.0,325.0 178.0,325.0 166.0,299.0" fill="#562d28" opacity="0.95" />
<polygon points="289.0,0.0 330.0,34.0 346.0,35.0 349.0,27.0 359.0,37.0 351.0,40.0 352.0,54.0 383.0,86.0 383.0,0.0" fill="#562d28" />
<polygon points="279.0,139.0 246.0,205.0 270.0,242.0 298.0,220.0 314.0,162.0" fill="#bd4b45" opacity="0.95" />
<polygon points="354.0,129.0 351.0,131.0 351.0,189.0 383.0,190.0 383.0,130.0" fill="#7b3931" />
<polygon points="354.0,193.0 351.0,221.0 305.0,280.0 353.0,321.0 355.0,383.0 383.0,383.0 383.0,204.0" fill="#bd4b45" opacity="0.95" />
<polygon points="350.0,325.0 355.0,383.0 383.0,383.0 383.0,325.0" fill="#bd4b45" />
<polygon points="243.0,0.0 323.0,35.0 351.0,63.0 351.0,125.0 383.0,126.0 383.0,87.0 348.0,55.0 347.0,38.0 328.0,38.0 288.0,0.0" fill="#7b3931" />
<polygon points="241.0,95.0 169.0,123.0 203.0,129.0 191.0,156.0 158.0,173.0 144.0,164.0 141.0,194.0 165.0,225.0 196.0,233.0 210.0,211.0 244.0,204.0 263.0,133.0 245.0,124.0" fill="#71d7e6" opacity="0.95" />
<polygon points="253.0,108.0 251.0,127.0 314.0,153.0 308.0,125.0 270.0,108.0" fill="#0396d4" />
<polygon points="203.0,128.0 165.0,130.0 149.0,156.0 155.0,170.0 191.0,155.0" fill="#2c2120" />
<polygon points="4.0,59.0 15.0,65.0 44.0,45.0 41.0,35.0 70.0,34.0 122.0,0.0 0.0,0.0" fill="#562d28" opacity="0.95" />
<polygon points="244.0,0.0 351.0,62.0 351.0,189.0 383.0,203.0 383.0,87.0 348.0,55.0 348.0,39.0 328.0,37.0 289.0,0.0" fill="#7b3931" opacity="0.95" />
<polygon points="319.0,310.0 301.0,280.0 240.0,296.0 184.0,281.0 167.0,303.0 186.0,320.0 301.0,320.0" fill="#2c2120" opacity="0.95" />
<polygon points="290.0,0.0 329.0,33.0 354.0,35.0 352.0,54.0 383.0,86.0 383.0,0.0" fill="#562d28" opacity="0.95" />
<polygon points="244.0,0.0 351.0,62.0 351.0,188.0 383.0,203.0 383.0,87.0 347.0,39.0 289.0,0.0" fill="#7b3931" opacity="0.95" />
<polygon points="210.0,212.0 202.0,238.0 216.0,259.0 248.0,262.0 263.0,257.0 268.0,243.0 245.0,210.0" fill="#2c2120" opacity="0.95" />
<polygon points="145.0,214.0 160.0,251.0 195.0,278.0 206.0,263.0 168.0,229.0 163.0,250.0" fill="#2c2120" />
<polygon points="319.0,310.0 300.0,280.0 240.0,296.0 184.0,281.0 167.0,303.0 186.0,320.0 301.0,320.0" fill="#2c2120" opacity="0.95" />
<polygon points="0.0,54.0 15.0,65.0 42.0,47.0 45.0,35.0 69.0,34.0 122.0,0.0 0.0,0.0 6.0,35.0" fill="#562d28" opacity="0.95" />
<polygon points="290.0,0.0 329.0,33.0 353.0,34.0 352.0,54.0 383.0,86.0 383.0,0.0" fill="#562d28" opacity="0.95" />
<polygon points="326.0,137.0 322.0,142.0 333.0,180.0 321.0,234.0 330.0,240.0 342.0,223.0 346.0,187.0" fill="#678082" />
<polygon points="4.0,59.0 16.0,65.0 46.0,42.0 43.0,39.0 3.0,39.0" fill="#562d28" />
<polygon points="210.0,212.0 202.0,238.0 216.0,259.0 248.0,262.0 263.0,257.0 268.0,243.0 245.0,210.0" fill="#2c2120" opacity="0.95" />
<polygon points="253.0,108.0 251.0,127.0 314.0,153.0 308.0,125.0 270.0,108.0" fill="#0396d4" opacity="0.95" />
<polygon points="314.0,124.0 322.0,188.0 310.0,233.0 323.0,239.0 332.0,178.0 324.0,134.0" fill="#749ba0" />
<polygon points="202.0,128.0 164.0,131.0 150.0,154.0 155.0,170.0 192.0,154.0" fill="#2c2120" opacity="0.95" />
<polygon points="335.0,239.0 322.0,242.0 283.0,282.0 302.0,279.0 310.0,273.0" fill="#556664" />
<polygon points="326.0,139.0 333.0,180.0 321.0,236.0 306.0,235.0 282.0,279.0 342.0,223.0 345.0,181.0" fill="#678082" opacity="0.95" />
<polygon points="253.0,108.0 251.0,127.0 314.0,152.0 308.0,125.0 270.0,108.0" fill="#0396d4" opacity="0.95" />
<polygon points="166.0,230.0 162.0,253.0 178.0,269.0 196.0,277.0 205.0,262.0 197.0,257.0 190.0,242.0" fill="#2c2120" opacity="0.95" />
<polygon points="305.0,235.0 292.0,236.0 292.0,247.0 271.0,269.0 256.0,262.0 252.0,274.0 214.0,286.0 230.0,289.0 269.0,270.0 278.0,278.0 304.0,247.0" fill="#749ba0" />
<polygon points="322.0,239.0 303.0,231.0 306.0,245.0 280.0,273.0 281.0,282.0 303.0,264.0" fill="#678082" />
<polygon points="144.0,325.0 142.0,332.0 151.0,383.0 156.0,383.0 153.0,355.0 156.0,326.0" fill="#7b3931" />
<polygon points="316.0,156.0 315.0,187.0 304.0,228.0 308.0,232.0 321.0,188.0 320.0,160.0" fill="#7ab8c2" />
<polygon points="256.0,267.0 252.0,263.0 237.0,263.0 221.0,274.0 205.0,277.0 199.0,273.0 196.0,280.0 207.0,285.0 229.0,282.0 252.0,273.0" fill="#7ab8c2" />
<polygon points="314.0,167.0 300.0,218.0 279.0,240.0 303.0,228.0" fill="#7b3931" />
<polygon points="326.0,139.0 333.0,180.0 321.0,234.0 306.0,236.0 283.0,278.0 342.0,223.0 345.0,181.0" fill="#678082" opacity="0.95" />
<polygon points="200.0,273.0 205.0,276.0 230.0,270.0 235.0,265.0 214.0,260.0 207.0,264.0" fill="#71d7e6" />
<polygon points="314.0,124.0 322.0,188.0 311.0,234.0 318.0,237.0 330.0,198.0 331.0,167.0 324.0,134.0" fill="#749ba0" opacity="0.95" />
<polygon points="340.0,325.0 348.0,350.0 345.0,383.0 354.0,383.0 350.0,334.0 347.0,325.0" fill="#7b3931" />
<polygon points="273.0,135.0 264.0,136.0 263.0,153.0 253.0,185.0" fill="#7ab8c2" />
<polygon points="180.0,276.0 207.0,292.0 223.0,295.0 251.0,292.0 204.0,286.0" fill="#1c3944" />
<polygon points="291.0,238.0 276.0,242.0 274.0,251.0 271.0,254.0 267.0,252.0 262.0,261.0 271.0,268.0 289.0,250.0 293.0,243.0" fill="#7ab8c2" />
<polygon points="333.0,241.0 322.0,242.0 283.0,280.0 274.0,278.0 256.0,289.0 305.0,277.0" fill="#556664" opacity="0.95" />
<polygon points="319.0,167.0 304.0,228.0 308.0,232.0 319.0,204.0" fill="#7ab8c2" opacity="0.95" />
<polygon points="304.0,235.0 293.0,236.0 292.0,247.0 272.0,268.0 258.0,262.0 252.0,274.0 218.0,287.0 230.0,289.0 269.0,270.0 279.0,275.0 304.0,247.0" fill="#749ba0" opacity="0.95" />
<polygon points="275.0,276.0 269.0,271.0 256.0,281.0 232.0,289.0 246.0,290.0 264.0,284.0" fill="#678082" />
<polygon points="256.0,267.0 252.0,263.0 238.0,263.0 221.0,274.0 206.0,277.0 199.0,274.0 197.0,281.0 207.0,285.0 229.0,282.0 252.0,273.0" fill="#7ab8c2" opacity="0.95" />
<polygon points="321.0,145.0 317.0,153.0 322.0,168.0 321.0,197.0 311.0,231.0 315.0,236.0 320.0,234.0 331.0,190.0 330.0,162.0" fill="#749ba0" opacity="0.95" />
<polygon points="184.0,278.0 207.0,292.0 234.0,294.0" fill="#1c3944" opacity="0.95" />
<polygon points="305.0,237.0 295.0,235.0 290.0,250.0 272.0,267.0 259.0,262.0 252.0,274.0 222.0,287.0 251.0,282.0 269.0,270.0 278.0,274.0 302.0,250.0" fill="#749ba0" opacity="0.95" />
<polygon points="148.0,232.0 158.0,254.0 178.0,272.0 160.0,253.0" fill="#71d7e6" />
<polygon points="332.0,243.0 322.0,242.0 314.0,254.0 284.0,280.0 289.0,282.0 305.0,277.0 324.0,258.0" fill="#556664" opacity="0.95" />
<polygon points="293.0,239.0 288.0,238.0 275.0,243.0 276.0,248.0 273.0,252.0 266.0,253.0 263.0,262.0 272.0,267.0 289.0,250.0" fill="#7ab8c2" opacity="0.95" />
<polygon points="256.0,267.0 252.0,263.0 239.0,263.0 221.0,274.0 200.0,275.0 197.0,281.0 207.0,285.0 229.0,282.0 252.0,273.0" fill="#7ab8c2" opacity="0.95" />
<polygon points="201.0,274.0 206.0,276.0 221.0,273.0 233.0,268.0 234.0,265.0 214.0,260.0 201.0,270.0" fill="#71d7e6" opacity="0.95" />
<polygon points="265.0,97.0 243.0,95.0 247.0,106.0 247.0,124.0 251.0,111.0 248.0,101.0 251.0,98.0 265.0,100.0" fill="#7ab8c2" />
<polygon points="280.0,282.0 276.0,278.0 273.0,278.0 264.0,285.0 250.0,290.0 264.0,290.0 267.0,287.0 274.0,286.0" fill="#556664" />
<polygon points="292.0,239.0 277.0,242.0 276.0,248.0 265.0,255.0 263.0,262.0 269.0,267.0 289.0,250.0 293.0,243.0" fill="#7ab8c2" opacity="0.95" />
<polygon points="201.0,273.0 205.0,276.0 221.0,273.0 233.0,268.0 234.0,265.0 214.0,260.0 201.0,270.0" fill="#71d7e6" opacity="0.95" />
<polygon points="274.0,275.0 269.0,271.0 260.0,279.0 233.0,290.0 255.0,287.0 269.0,281.0" fill="#678082" opacity="0.95" />
<polygon points="295.0,281.0 294.0,280.0 289.0,283.0 279.0,284.0 273.0,288.0 275.0,290.0 279.0,290.0" fill="#1c3944" />
<polygon points="275.0,275.0 269.0,271.0 260.0,279.0 244.0,285.0 243.0,288.0 246.0,290.0 263.0,284.0" fill="#678082" opacity="0.95" />
<polygon points="267.0,99.0 270.0,101.0 277.0,102.0 281.0,104.0 283.0,103.0 270.0,98.0" fill="#fbf3ed" />
<polygon points="286.0,105.0 288.0,107.0 296.0,111.0 297.0,110.0 287.0,104.0" fill="#749ba0" />
<polygon points="316.0,125.0 313.0,127.0 315.0,135.0 320.0,138.0 323.0,136.0 323.0,133.0 321.0,129.0" fill="#749ba0" opacity="0.95" />
<polygon points="288.0,284.0 286.0,283.0 285.0,284.0 279.0,284.0 275.0,286.0 274.0,289.0 279.0,290.0 288.0,286.0" fill="#1c3944" opacity="0.95" />
<polygon points="274.0,245.0 271.0,245.0 270.0,246.0 270.0,248.0 269.0,249.0 269.0,251.0 270.0,252.0 271.0,252.0 275.0,248.0 275.0,246.0" fill="#71d7e6" />
<polygon points="280.0,281.0 274.0,278.0 268.0,282.0 267.0,285.0 270.0,287.0 278.0,284.0" fill="#556664" opacity="0.95" />
<polygon points="204.0,288.0 204.0,290.0 207.0,292.0 209.0,291.0 216.0,294.0 220.0,292.0 220.0,290.0 217.0,288.0 215.0,289.0 208.0,286.0" fill="#1c3944" opacity="0.95" />
<polygon points="279.0,284.0 276.0,286.0 276.0,288.0 279.0,290.0 282.0,288.0 282.0,286.0" fill="#1c3944" opacity="0.95" />
<polygon points="273.0,245.0 270.0,246.0 270.0,248.0 269.0,249.0 269.0,251.0 271.0,252.0 273.0,251.0 273.0,250.0 275.0,248.0 275.0,246.0" fill="#71d7e6" opacity="0.95" />
</svg>