<svg xmlns="http://www.w3.org/2000/svg" width="768" height="768" viewBox="0 0 384 384">
<rect width="384" height="384" fill="#866152"/>
<polygon points="0.0,0.0 0.0,383.0 383.0,383.0 383.0,0.0" fill="#714c3b" />
<polygon points="0.0,0.0 0.0,383.0 383.0,383.0 383.0,0.0" fill="#714c3b" opacity="0.95" />
<polygon points="0.0,0.0 0.0,383.0 383.0,383.0 383.0,0.0" fill="#714c3b" opacity="0.95" />
<polygon points="351.0,63.0 321.0,142.0 229.0,215.0 165.0,233.0 124.0,169.0 161.0,132.0 143.0,66.0 178.0,27.0 257.0,14.0" fill="#714c3b" />
<polygon points="322.0,139.0 257.0,105.0 153.0,111.0 163.0,132.0 126.0,173.0 163.0,231.0 192.0,231.0" fill="#81a1b4" />
<polygon points="351.0,63.0 321.0,142.0 229.0,215.0 165.0,233.0 124.0,169.0 161.0,132.0 143.0,66.0 178.0,27.0 257.0,14.0" fill="#714c3b" opacity="0.95" />
<polygon points="351.0,63.0 321.0,142.0 229.0,215.0 165.0,233.0 124.0,169.0 161.0,132.0 143.0,66.0 178.0,27.0 257.0,14.0" fill="#714c3b" opacity="0.95" />
<polygon points="145.0,64.0 153.0,108.0 243.0,101.0 323.0,137.0 346.0,100.0 329.0,100.0 345.0,60.0 315.0,95.0 333.0,55.0 299.0,86.0 316.0,46.0 255.0,15.0 194.0,20.0" fill="#ed8a74" />
<polygon points="321.0,138.0 257.0,105.0 153.0,110.0 162.0,133.0 126.0,173.0 162.0,230.0 192.0,231.0" fill="#81a1b4" opacity="0.95" />
<polygon points="145.0,64.0 154.0,108.0 243.0,101.0 323.0,136.0 346.0,100.0 345.0,60.0 255.0,15.0 194.0,20.0" fill="#ed8a74" opacity="0.95" />
<polygon points="321.0,138.0 257.0,105.0 154.0,110.0 162.0,133.0 126.0,173.0 162.0,230.0 192.0,231.0" fill="#81a1b4" opacity="0.95" />
<polygon points="144.0,121.0 46.0,248.0 98.0,353.0 223.0,238.0 99.0,370.0 56.0,321.0 32.0,245.0" fill="#714c3b" />
<polygon points="145.0,64.0 155.0,108.0 243.0,101.0 323.0,136.0 346.0,100.0 345.0,60.0 255.0,15.0 194.0,20.0" fill="#ed8a74" opacity="0.95" />
<polygon points="143.0,122.0 34.0,244.0 55.0,317.0 99.0,369.0 221.0,240.0 99.0,354.0 68.0,318.0 45.0,247.0" fill="#ecb5a5" />
<polygon points="144.0,121.0 47.0,246.0 72.0,322.0 100.0,351.0 222.0,240.0 99.0,370.0 56.0,321.0 33.0,244.0" fill="#714c3b" opacity="0.95" />
<polygon points="143.0,122.0 34.0,244.0 55.0,317.0 99.0,369.0 221.0,240.0 100.0,353.0 68.0,318.0 45.0,247.0" fill="#ecb5a5" opacity="0.95" />
<polygon points="144.0,121.0 47.0,246.0 72.0,322.0 100.0,351.0 222.0,240.0 99.0,370.0 56.0,321.0 33.0,244.0" fill="#714c3b" opacity="0.95" />
<polygon points="143.0,122.0 34.0,244.0 55.0,317.0 99.0,369.0 221.0,240.0 100.0,353.0 68.0,318.0 45.0,247.0" fill="#ecb5a5" opacity="0.95" />
<polygon points="186.0,39.0 181.0,45.0 179.0,43.0 176.0,45.0 173.0,43.0 176.0,39.0 180.0,40.0 183.0,37.0" fill="#ed8a74" />
<polygon points="231.0,38.0 235.0,33.0 238.0,36.0 241.0,33.0 245.0,37.0 243.0,39.0 239.0,39.0 238.0,38.0 234.0,41.0" fill="#ed8a74" />
<polygon points="249.0,38.0 253.0,34.0 255.0,34.0 260.0,39.0 258.0,41.0 254.0,40.0 252.0,42.0 249.0,39.0" fill="#ed8a74" />
<polygon points="214.0,38.0 218.0,33.0 221.0,35.0 223.0,34.0 225.0,36.0 223.0,39.0 220.0,39.0 218.0,41.0 217.0,41.0" fill="#ed8a74" />
<polygon points="179.0,66.0 175.0,70.0 173.0,69.0 169.0,69.0 167.0,67.0 170.0,64.0 171.0,64.0 173.0,66.0 176.0,63.0" fill="#ed8a74" />
<polygon points="204.0,61.0 208.0,65.0 206.0,67.0 203.0,67.0 201.0,69.0 200.0,69.0 197.0,66.0 199.0,64.0 201.0,64.0" fill="#ed8a74" />
<polygon points="197.0,37.0 197.0,38.0 193.0,42.0 192.0,42.0 190.0,40.0 188.0,40.0 186.0,38.0 188.0,36.0 191.0,37.0 194.0,34.0" fill="#ed8a74" />
</svg>