<svg xmlns="http://www.w3.org/2000/svg" width="768" height="768" viewBox="0 0 384 384">
<rect width="384" height="384" fill="#8c5e4f"/>
<polygon points="0.0,0.0 2.0,319.0 383.0,319.0 383.0,0.0" fill="#925141" />
<polygon points="0.0,0.0 1.0,318.0 383.0,319.0 383.0,0.0" fill="#925141" opacity="0.95" />
<polygon points="0.0,0.0 0.0,383.0 383.0,383.0 383.0,0.0" fill="#925141" opacity="0.95" />
<polygon points="0.0,328.0 0.0,383.0 383.0,383.0 383.0,326.0" fill="#925141" />
<polygon points="0.0,328.0 0.0,383.0 383.0,383.0 383.0,326.0" fill="#925141" opacity="0.95" />
<polygon points="167.0,126.0 215.0,119.0 242.0,140.0 254.0,165.0 247.0,231.0 179.0,243.0 135.0,227.0 147.0,205.0 139.0,164.0" fill="#925141" />
<polygon points="172.0,125.0 144.0,155.0 145.0,197.0 190.0,220.0 242.0,204.0 253.0,169.0 239.0,138.0 213.0,120.0" fill="#3ff1ed" />
<polygon points="167.0,126.0 215.0,119.0 242.0,140.0 254.0,165.0 247.0,231.0 179.0,243.0 135.0,227.0 147.0,206.0 139.0,164.0" fill="#925141" opacity="0.95" />
<polygon points="172.0,125.0 144.0,155.0 145.0,197.0 190.0,220.0 242.0,204.0 253.0,169.0 239.0,138.0 213.0,120.0" fill="#3ff1ed" opacity="0.95" />
<polygon points="167.0,126.0 215.0,119.0 242.0,140.0 254.0,165.0 247.0,231.0 179.0,243.0 135.0,227.0 146.0,206.0 139.0,164.0" fill="#925141" opacity="0.95" />
<polygon points="172.0,125.0 144.0,155.0 145.0,197.0 190.0,220.0 242.0,204.0 253.0,169.0 239.0,138.0 213.0,120.0" fill="#3ff1ed" opacity="0.95" />
<polygon points="135.0,219.0 149.0,234.0 185.0,242.0 227.0,238.0 252.0,223.0 243.0,210.0 219.0,230.0 187.0,234.0 148.0,208.0" fill="#201b28" />
<polygon points="135.0,219.0 149.0,234.0 185.0,242.0 227.0,238.0 252.0,223.0 244.0,210.0 219.0,230.0 187.0,234.0 147.0,208.0" fill="#201b28" opacity="0.95" />
<polygon points="341.0,49.0 349.0,51.0 356.0,61.0 355.0,68.0 346.0,76.0 334.0,74.0 329.0,67.0 332.0,55.0" fill="#925141" />
<polygon points="339.0,51.0 333.0,56.0 331.0,64.0 336.0,73.0 344.0,75.0 353.0,69.0 354.0,59.0 350.0,53.0" fill="#fcfcfc" />
<polygon points="135.0,219.0 149.0,234.0 185.0,242.0 227.0,238.0 252.0,223.0 244.0,211.0 219.0,230.0 187.0,234.0 147.0,208.0" fill="#201b28" opacity="0.95" />
<polygon points="149.0,205.0 162.0,221.0 174.0,221.0 185.0,227.0 204.0,227.0 216.0,220.0 187.0,221.0 163.0,214.0" fill="#007aa6" />
<polygon points="243.0,207.0 204.0,228.0 167.0,224.0 183.0,230.0 216.0,228.0 232.0,221.0" fill="#015c89" />
<polygon points="341.0,49.0 349.0,51.0 356.0,61.0 355.0,68.0 346.0,76.0 337.0,75.0 330.0,70.0 332.0,55.0" fill="#925141" opacity="0.95" />
<polygon points="339.0,51.0 333.0,56.0 331.0,64.0 336.0,73.0 344.0,75.0 353.0,69.0 354.0,59.0 350.0,53.0" fill="#fcfcfc" opacity="0.95" />
<polygon points="153.0,210.0 162.0,221.0 174.0,221.0 185.0,227.0 204.0,227.0 214.0,222.0 212.0,219.0 187.0,221.0" fill="#007aa6" opacity="0.95" />
<polygon points="339.0,51.0 333.0,56.0 331.0,64.0 336.0,73.0 344.0,75.0 353.0,69.0 354.0,59.0 350.0,53.0" fill="#fcfcfc" opacity="0.95" />
<polygon points="240.0,210.0 238.0,209.0 218.0,219.0 211.0,227.0 216.0,228.0 227.0,224.0 239.0,214.0" fill="#015c89" opacity="0.95" />
<polygon points="155.0,213.0 164.0,222.0 172.0,219.0 185.0,227.0 204.0,227.0 212.0,223.0 209.0,219.0 175.0,220.0 158.0,211.0" fill="#007aa6" opacity="0.95" />
<polygon points="238.0,213.0 235.0,211.0 220.0,218.0 212.0,226.0 215.0,228.0 223.0,226.0 232.0,221.0" fill="#015c89" opacity="0.95" />
<polygon points="215.0,230.0 211.0,229.0 205.0,231.0 187.0,231.0 186.0,232.0 187.0,233.0 205.0,233.0" fill="#064468" />
<polygon points="154.0,207.0 163.0,213.0 165.0,212.0 155.0,206.0" fill="#06a4be" />
<polygon points="168.0,223.0 168.0,225.0 172.0,227.0 175.0,227.0 178.0,229.0 181.0,228.0 181.0,226.0 174.0,222.0" fill="#015c89" opacity="0.95" />
</svg>