<svg xmlns="http://www.w3.org/2000/svg" width="768" height="768" viewBox="0 0 384 384">
<rect width="384" height="384" fill="#8f5956"/>
<polygon points="0.0,132.0 2.0,190.0 126.0,192.0 2.0,194.0 3.0,254.0 383.0,247.0 368.0,195.0 256.0,194.0 183.0,232.0 131.0,205.0 129.0,130.0" fill="#974c4b" />
<polygon points="144.0,319.0 383.0,320.0 383.0,258.0 193.0,258.0" fill="#6a4240" />
<polygon points="0.0,383.0 132.0,383.0 132.0,252.0 376.0,250.0 383.0,202.0 257.0,194.0 183.0,232.0 131.0,202.0 129.0,131.0 3.0,130.0" fill="#974c4b" opacity="0.95" />
<polygon points="0.0,0.0 2.0,62.0 127.0,64.0 2.0,66.0 2.0,126.0 132.0,126.0 160.0,98.0 129.0,64.0 131.0,0.0" fill="#6a4240" />
<polygon points="2.0,259.0 2.0,320.0 131.0,319.0 130.0,258.0" fill="#974c4b" />
<polygon points="0.0,327.0 0.0,383.0 132.0,383.0 130.0,325.0" fill="#974c4b" />
<polygon points="0.0,383.0 132.0,383.0 132.0,252.0 376.0,250.0 383.0,202.0 258.0,194.0 183.0,232.0 131.0,202.0 128.0,131.0 4.0,130.0" fill="#974c4b" opacity="0.95" />
<polygon points="253.0,131.0 259.0,150.0 254.0,190.0 383.0,190.0 383.0,130.0" fill="#6a4240" />
<polygon points="383.0,249.0 192.0,259.0 135.0,331.0 135.0,383.0 236.0,383.0 280.0,320.0 383.0,332.0" fill="#6a4240" opacity="0.95" />
<polygon points="0.0,0.0 1.0,125.0 131.0,126.0 159.0,99.0 129.0,65.0 131.0,0.0" fill="#6a4240" opacity="0.95" />
<polygon points="134.0,0.0 135.0,62.0 249.0,61.0 191.0,0.0" fill="#f26052" />
<polygon points="135.0,383.0 237.0,383.0 258.0,337.0 282.0,326.0 140.0,325.0" fill="#6a4240" />
<polygon points="134.0,0.0 134.0,61.0 162.0,95.0 222.0,98.0 251.0,59.0 313.0,125.0 383.0,126.0 278.0,0.0" fill="#f26052" opacity="0.95" />
<polygon points="238.0,380.0 383.0,383.0 383.0,333.0 349.0,325.0 287.0,326.0 259.0,337.0" fill="#974c4b" />
<polygon points="196.0,0.0 255.0,62.0 328.0,62.0 332.0,55.0 278.0,0.0" fill="#f26052" />
<polygon points="257.0,67.0 314.0,126.0 383.0,126.0 329.0,66.0" fill="#f26052" />
<polygon points="135.0,383.0 236.0,383.0 279.0,320.0 363.0,320.0 383.0,332.0 383.0,258.0 192.0,259.0 135.0,331.0" fill="#6a4240" opacity="0.95" />
<polygon points="134.0,0.0 134.0,60.0 164.0,96.0 222.0,98.0 250.0,58.0 315.0,126.0 383.0,124.0 278.0,0.0" fill="#f26052" opacity="0.95" />
<polygon points="231.0,105.0 193.0,161.0 127.0,163.0 154.0,215.0 203.0,226.0 245.0,201.0 257.0,152.0" fill="#43e6f0" opacity="0.95" />
<polygon points="0.0,0.0 0.0,124.0 130.0,126.0 131.0,158.0 188.0,154.0 201.0,130.0 134.0,126.0 159.0,96.0 129.0,65.0 131.0,0.0" fill="#6a4240" opacity="0.95" />
<polygon points="252.0,68.0 228.0,101.0 256.0,128.0 254.0,189.0 375.0,190.0 383.0,201.0 383.0,130.0 311.0,130.0" fill="#6a4240" opacity="0.95" />
<polygon points="279.0,0.0 332.0,53.0 349.0,53.0 353.0,68.0 383.0,94.0 383.0,66.0 365.0,64.0 383.0,62.0 383.0,0.0" fill="#6a4240" />
<polygon points="168.0,190.0 250.0,191.0 257.0,163.0 187.0,162.0" fill="#43e6f0" />
<polygon points="230.0,104.0 192.0,158.0 257.0,157.0 246.0,121.0" fill="#43e6f0" />
<polygon points="137.0,67.0 163.0,96.0 201.0,91.0 222.0,98.0 248.0,68.0" fill="#f26052" />
<polygon points="231.0,105.0 185.0,165.0 127.0,164.0 154.0,215.0 203.0,226.0 245.0,201.0 257.0,152.0" fill="#43e6f0" opacity="0.95" />
<polygon points="238.0,380.0 383.0,383.0 383.0,333.0 349.0,325.0 266.0,333.0 248.0,351.0 249.0,367.0" fill="#974c4b" opacity="0.95" />
<polygon points="152.0,213.0 177.0,225.0 203.0,226.0 227.0,217.0 248.0,196.0 165.0,195.0" fill="#43e6f0" />
<polygon points="186.0,258.0 134.0,259.0 135.0,321.0 141.0,318.0" fill="#f26052" />
<polygon points="223.0,102.0 204.0,95.0 171.0,97.0 155.0,105.0 137.0,125.0 207.0,126.0" fill="#974c4b" />
<polygon points="239.0,379.0 383.0,383.0 383.0,333.0 292.0,325.0 257.0,341.0" fill="#974c4b" opacity="0.95" />
<polygon points="127.0,166.0 136.0,191.0 162.0,191.0 182.0,163.0 128.0,162.0" fill="#43e6f0" />
<polygon points="186.0,259.0 134.0,259.0 134.0,320.0 141.0,318.0" fill="#f26052" opacity="0.95" />
<polygon points="223.0,102.0 204.0,95.0 171.0,97.0 149.0,110.0 138.0,125.0 206.0,126.0" fill="#974c4b" opacity="0.95" />
<polygon points="0.0,320.0 0.0,325.0 134.0,323.0" fill="#f1f0ea" />
<polygon points="184.0,259.0 134.0,260.0 135.0,320.0 141.0,318.0 185.0,263.0" fill="#f26052" opacity="0.95" />
<polygon points="345.0,52.0 337.0,52.0 331.0,58.0 329.0,64.0 333.0,72.0 336.0,74.0 346.0,63.0" fill="#f1f0ea" />
<polygon points="138.0,196.0 149.0,209.0 159.0,196.0 142.0,194.0" fill="#43e6f0" />
<polygon points="348.0,54.0 347.0,63.0 338.0,73.0 339.0,75.0 347.0,74.0 352.0,68.0 352.0,59.0" fill="#bbebee" />
<polygon points="337.0,52.0 331.0,58.0 330.0,65.0 335.0,73.0 346.0,64.0 346.0,53.0" fill="#f1f0ea" opacity="0.95" />
<polygon points="171.0,191.0 170.0,194.0 160.0,199.0 155.0,195.0 156.0,192.0 166.0,188.0" fill="#43e6f0" opacity="0.95" />
<polygon points="343.0,52.0 337.0,52.0 331.0,58.0 330.0,65.0 332.0,70.0 336.0,73.0 346.0,63.0 346.0,54.0" fill="#f1f0ea" opacity="0.95" />
<polygon points="182.0,165.0 166.0,188.0 167.0,189.0 182.0,168.0" fill="#bbebee" />
<polygon points="224.0,99.0 224.0,105.0 207.0,129.0 227.0,103.0" fill="#f1f0ea" />
<polygon points="192.0,152.0 191.0,151.0 185.0,159.0 169.0,160.0 185.0,162.0 189.0,159.0 188.0,158.0" fill="#f1f0ea" />
<polygon points="349.0,56.0 347.0,57.0 347.0,64.0 339.0,72.0 339.0,74.0 341.0,75.0 347.0,74.0 352.0,68.0 352.0,59.0" fill="#bbebee" opacity="0.95" />
<polygon points="160.0,191.0 164.0,194.0 164.0,196.0 160.0,199.0 156.0,196.0 156.0,194.0" fill="#43e6f0" opacity="0.95" />
<polygon points="167.0,187.0 171.0,190.0 171.0,192.0 167.0,195.0 163.0,192.0 163.0,190.0" fill="#43e6f0" opacity="0.95" />
<polygon points="352.0,65.0 349.0,63.0 345.0,65.0 340.0,71.0 340.0,73.0 343.0,75.0 347.0,74.0 351.0,70.0" fill="#bbebee" opacity="0.95" />
<polygon points="142.0,318.0 139.0,322.0 136.0,323.0 137.0,325.0 133.0,329.0 134.0,330.0 138.0,325.0 142.0,322.0 141.0,321.0 143.0,319.0" fill="#f1f0ea" />
</svg>