<svg xmlns="http://www.w3.org/2000/svg" width="768" height="768" viewBox="0 0 384 384">
<rect width="384" height="384" fill="#974f4e"/>
<polygon points="379.0,91.0 291.0,0.0 134.0,0.0 134.0,45.0 0.0,196.0 0.0,318.0 154.0,319.0 186.0,275.0 131.0,150.0 168.0,108.0 232.0,109.0 260.0,73.0 347.0,161.0 348.0,103.0" fill="#b44642" />
<polygon points="292.0,0.0 134.0,0.0 134.0,46.0 0.0,196.0 0.0,383.0 153.0,383.0 185.0,274.0 131.0,145.0 260.0,73.0 348.0,158.0 379.0,91.0" fill="#b44642" opacity="0.95" />
<polygon points="131.0,0.0 0.0,0.0 3.0,191.0 24.0,186.0 120.0,59.0" fill="#783932" />
<polygon points="347.0,326.0 155.0,325.0 154.0,383.0 348.0,383.0" fill="#783932" />
<polygon points="292.0,0.0 134.0,0.0 134.0,48.0 0.0,196.0 0.0,383.0 153.0,383.0 185.0,274.0 131.0,142.0 259.0,73.0 348.0,156.0 377.0,89.0" fill="#b44642" opacity="0.95" />
<polygon points="348.0,291.0 258.0,195.0 206.0,233.0 145.0,207.0 155.0,244.0 187.0,275.0 156.0,320.0 347.0,320.0" fill="#783932" />
<polygon points="292.0,0.0 380.0,91.0 353.0,103.0 351.0,162.0 260.0,74.0 233.0,110.0 347.0,241.0 383.0,197.0 383.0,0.0" fill="#783932" />
<polygon points="0.0,327.0 0.0,383.0 153.0,383.0 152.0,325.0" fill="#b44642" />
<polygon points="341.0,275.0 258.0,197.0 206.0,233.0 145.0,210.0 186.0,274.0 156.0,312.0 154.0,383.0 348.0,383.0" fill="#783932" opacity="0.95" />
<polygon points="131.0,0.0 0.0,0.0 0.0,189.0 24.0,186.0 118.0,62.0" fill="#783932" opacity="0.95" />
<polygon points="341.0,275.0 258.0,198.0 206.0,233.0 146.0,211.0 186.0,274.0 156.0,312.0 154.0,383.0 348.0,383.0" fill="#783932" opacity="0.95" />
<polygon points="173.0,107.0 140.0,140.0 140.0,188.0 181.0,218.0 230.0,213.0 260.0,183.0 204.0,166.0 196.0,104.0" fill="#5fc5ea" />
<polygon points="131.0,0.0 0.0,0.0 0.0,189.0 24.0,186.0 120.0,59.0" fill="#783932" opacity="0.95" />
<polygon points="293.0,0.0 380.0,91.0 353.0,103.0 351.0,160.0 260.0,74.0 233.0,111.0 346.0,241.0 383.0,196.0 383.0,0.0" fill="#783932" opacity="0.95" />
<polygon points="198.0,102.0 200.0,161.0 260.0,181.0 262.0,156.0 253.0,131.0 232.0,111.0" fill="#a2e1e7" />
<polygon points="293.0,0.0 378.0,89.0 353.0,103.0 351.0,158.0 259.0,74.0 234.0,111.0 345.0,240.0 383.0,191.0 383.0,0.0" fill="#783932" opacity="0.95" />
<polygon points="173.0,107.0 140.0,140.0 140.0,188.0 185.0,219.0 235.0,210.0 259.0,183.0 204.0,166.0 196.0,104.0" fill="#5fc5ea" opacity="0.95" />
<polygon points="265.0,165.0 262.0,201.0 295.0,245.0 330.0,257.0 351.0,289.0 348.0,318.0 383.0,320.0 383.0,279.0 360.0,257.0 383.0,227.0 383.0,198.0 350.0,246.0" fill="#b44642" />
<polygon points="264.0,168.0 264.0,204.0 351.0,284.0 349.0,383.0 383.0,383.0 383.0,279.0 360.0,258.0 383.0,198.0 348.0,243.0" fill="#b44642" opacity="0.95" />
<polygon points="349.0,325.0 349.0,383.0 383.0,383.0 383.0,325.0" fill="#b44642" />
<polygon points="173.0,107.0 140.0,140.0 140.0,188.0 185.0,219.0 235.0,210.0 259.0,183.0 204.0,166.0 196.0,105.0" fill="#5fc5ea" opacity="0.95" />
<polygon points="197.0,103.0 200.0,161.0 261.0,180.0 262.0,156.0 251.0,128.0 224.0,107.0" fill="#a2e1e7" opacity="0.95" />
<polygon points="264.0,168.0 261.0,199.0 294.0,244.0 351.0,282.0 349.0,383.0 383.0,383.0 383.0,279.0 359.0,257.0 383.0,227.0 383.0,198.0 346.0,242.0" fill="#b44642" opacity="0.95" />
<polygon points="198.0,103.0 200.0,161.0 260.0,180.0 261.0,151.0 249.0,126.0 224.0,107.0" fill="#a2e1e7" opacity="0.95" />
<polygon points="140.0,192.0 157.0,217.0 193.0,232.0 235.0,221.0 257.0,192.0 208.0,221.0 174.0,217.0" fill="#077aaa" />
<polygon points="115.0,127.0 115.0,132.0 60.0,186.0 57.0,178.0 92.0,147.0 102.0,134.0 100.0,129.0" fill="#b44642" />
<polygon points="0.0,320.0 0.0,324.0 153.0,322.0" fill="#fbf3f0" />
<polygon points="144.0,199.0 165.0,223.0 193.0,232.0 228.0,225.0 253.0,201.0 217.0,219.0 190.0,221.0" fill="#077aaa" opacity="0.95" />
<polygon points="147.0,204.0 165.0,223.0 193.0,232.0 226.0,226.0 250.0,206.0 190.0,221.0" fill="#077aaa" opacity="0.95" />
<polygon points="115.0,129.0 63.0,184.0 57.0,183.0 60.0,174.0 92.0,147.0 102.0,128.0" fill="#b44642" opacity="0.95" />
<polygon points="346.0,322.0 347.0,323.0 383.0,323.0 383.0,321.0 347.0,321.0" fill="#fbf3f0" />
<polygon points="296.0,322.0 297.0,323.0 307.0,323.0 308.0,322.0 307.0,321.0 297.0,321.0" fill="#e7c2bc" />
</svg>