<svg xmlns="http://www.w3.org/2000/svg" width="768" height="768" viewBox="0 0 384 384">
<rect width="384" height="384" fill="#90554f"/>
<polygon points="383.0,94.0 276.0,0.0 135.0,0.0 135.0,61.0 180.0,66.0 0.0,236.0 0.0,383.0 131.0,383.0 128.0,320.0 221.0,318.0 139.0,226.0 132.0,155.0 383.0,126.0" fill="#b54e45" opacity="0.95" />
<polygon points="136.0,124.0 383.0,126.0 383.0,94.0 350.0,66.0 179.0,66.0 162.0,76.0" fill="#b54e45" />
<polygon points="383.0,258.0 174.0,258.0 303.0,254.0 256.0,195.0 199.0,233.0 147.0,217.0 226.0,321.0 136.0,324.0 135.0,383.0 300.0,383.0 229.0,322.0 383.0,319.0" fill="#74423b" />
<polygon points="135.0,0.0 136.0,62.0 328.0,62.0 334.0,55.0 276.0,0.0" fill="#b54e45" />
<polygon points="130.0,130.0 64.0,188.0 89.0,194.0 33.0,198.0 21.0,229.0 4.0,223.0 2.0,253.0 21.0,256.0 2.0,259.0 2.0,320.0 221.0,318.0 151.0,256.0 136.0,206.0 129.0,256.0" fill="#b54e45" />
<polygon points="0.0,68.0 2.0,126.0 134.0,125.0 134.0,66.0" fill="#74423b" />
<polygon points="0.0,0.0 3.0,62.0 131.0,61.0 131.0,0.0" fill="#74423b" />
<polygon points="383.0,94.0 276.0,0.0 135.0,0.0 135.0,60.0 179.0,67.0 0.0,237.0 0.0,383.0 131.0,383.0 131.0,320.0 220.0,317.0 139.0,226.0 133.0,154.0 383.0,126.0" fill="#b54e45" opacity="0.95" />
<polygon points="131.0,0.0 0.0,0.0 0.0,188.0 61.0,190.0 116.0,127.0 134.0,125.0" fill="#74423b" opacity="0.95" />
<polygon points="0.0,327.0 0.0,383.0 131.0,383.0 130.0,324.0" fill="#b54e45" />
<polygon points="242.0,131.0 239.0,151.0 256.0,172.0 258.0,190.0 383.0,190.0 383.0,130.0" fill="#74423b" />
<polygon points="259.0,195.0 307.0,254.0 383.0,254.0 383.0,194.0" fill="#b56359" />
<polygon points="252.0,325.0 301.0,383.0 383.0,383.0 383.0,323.0" fill="#b56359" />
<polygon points="131.0,0.0 0.0,0.0 1.0,188.0 60.0,190.0 117.0,127.0 134.0,124.0" fill="#74423b" opacity="0.95" />
<polygon points="2.0,189.0 62.0,190.0 118.0,131.0 3.0,130.0" fill="#74423b" />
<polygon points="383.0,258.0 304.0,258.0 256.0,196.0 199.0,233.0 146.0,218.0 223.0,321.0 135.0,325.0 135.0,383.0 299.0,383.0 249.0,322.0 383.0,319.0" fill="#74423b" opacity="0.95" />
<polygon points="252.0,179.0 239.0,159.0 209.0,147.0 162.0,151.0 135.0,169.0 145.0,153.0 128.0,174.0 148.0,211.0 188.0,229.0 232.0,214.0" fill="#33e5fb" />
<polygon points="277.0,0.0 346.0,62.0 383.0,62.0 383.0,0.0" fill="#74423b" />
<polygon points="383.0,258.0 305.0,258.0 256.0,196.0 199.0,233.0 146.0,218.0 222.0,320.0 136.0,325.0 135.0,383.0 299.0,383.0 250.0,323.0 383.0,319.0" fill="#74423b" opacity="0.95" />
<polygon points="252.0,179.0 220.0,142.0 147.0,158.0 132.0,189.0 155.0,216.0 197.0,229.0 238.0,209.0" fill="#33e5fb" opacity="0.95" />
<polygon points="260.0,195.0 307.0,254.0 383.0,254.0 383.0,194.0" fill="#b56359" opacity="0.95" />
<polygon points="253.0,325.0 300.0,383.0 383.0,383.0 383.0,323.0" fill="#b56359" opacity="0.95" />
<polygon points="260.0,196.0 308.0,254.0 383.0,254.0 383.0,194.0" fill="#b56359" opacity="0.95" />
<polygon points="252.0,179.0 239.0,159.0 209.0,147.0 147.0,158.0 132.0,189.0 155.0,216.0 197.0,229.0 238.0,209.0" fill="#33e5fb" opacity="0.95" />
<polygon points="254.0,326.0 300.0,383.0 383.0,383.0 383.0,323.0" fill="#b56359" opacity="0.95" />
<polygon points="135.0,155.0 185.0,133.0 232.0,146.0 242.0,133.0 137.0,130.0" fill="#b54e45" />
<polygon points="176.0,66.0 136.0,67.0 136.0,122.0 154.0,89.0 164.0,83.0 161.0,76.0 173.0,74.0" fill="#b56359" />
<polygon points="0.0,230.0 5.0,221.0 8.0,229.0 21.0,228.0 32.0,212.0 26.0,207.0 33.0,197.0 48.0,200.0 56.0,195.0 2.0,194.0" fill="#b56359" />
<polygon points="217.0,141.0 188.0,134.0 146.0,152.0 184.0,141.0" fill="#7ae4f5" />
<polygon points="176.0,67.0 136.0,67.0 135.0,121.0 141.0,118.0 162.0,77.0 174.0,73.0" fill="#b56359" opacity="0.95" />
<polygon points="217.0,140.0 188.0,134.0 148.0,152.0 167.0,145.0 175.0,153.0 205.0,149.0 204.0,143.0" fill="#7ae4f5" opacity="0.95" />
<polygon points="69.0,256.0 71.0,254.0 125.0,254.0 127.0,256.0 125.0,258.0 71.0,258.0" fill="#b54e45" />
<polygon points="0.0,218.0 8.0,226.0 20.0,228.0 22.0,218.0 30.0,212.0 27.0,206.0 32.0,198.0 48.0,200.0 54.0,195.0 3.0,194.0" fill="#b56359" opacity="0.95" />
<polygon points="206.0,147.0 189.0,145.0 167.0,150.0 181.0,153.0 199.0,151.0" fill="#7ae4f5" />
<polygon points="170.0,140.0 175.0,153.0 197.0,151.0 202.0,143.0 215.0,142.0 212.0,138.0 194.0,134.0" fill="#7ae4f5" opacity="0.95" />
<polygon points="29.0,256.0 31.0,254.0 61.0,254.0 63.0,256.0 61.0,258.0 31.0,258.0" fill="#b54e45" />
<polygon points="216.0,144.0 238.0,154.0 254.0,171.0 236.0,150.0 222.0,142.0" fill="#33e5fb" />
<polygon points="340.0,57.0 339.0,58.0 339.0,61.0 340.0,62.0 343.0,62.0 344.0,61.0" fill="#b54e45" />
</svg>