<svg xmlns="http://www.w3.org/2000/svg" width="768" height="768" viewBox="0 0 384 384">
<rect width="384" height="384" fill="#8c6859"/>
<polygon points="0.0,92.0 0.0,383.0 383.0,383.0 383.0,100.0 286.0,0.0 95.0,0.0" fill="#95624f" opacity="0.95" />
<polygon points="0.0,93.0 2.0,319.0 163.0,293.0 61.0,258.0 78.0,134.0 7.0,128.0 195.0,32.0 357.0,128.0 303.0,134.0 321.0,247.0 237.0,319.0 383.0,319.0 383.0,100.0 285.0,0.0 95.0,0.0" fill="#95624f" />
<polygon points="220.0,38.0 75.0,130.0 60.0,251.0 107.0,300.0 183.0,280.0 133.0,168.0 187.0,53.0 261.0,128.0 201.0,283.0 268.0,299.0 320.0,247.0 306.0,130.0" fill="#bb8169" />
<polygon points="197.0,32.0 308.0,128.0 323.0,241.0 190.0,375.0 147.0,306.0 61.0,258.0 71.0,128.0" fill="#95624f" opacity="0.95" />
<polygon points="0.0,92.0 1.0,318.0 145.0,318.0 60.0,256.0 66.0,127.0 197.0,32.0 311.0,127.0 323.0,199.0 237.0,318.0 383.0,319.0 383.0,100.0 286.0,0.0 95.0,0.0" fill="#95624f" opacity="0.95" />
<polygon points="0.0,327.0 0.0,383.0 383.0,383.0 383.0,325.0 239.0,325.0 227.0,359.0 192.0,375.0 153.0,356.0 143.0,325.0" fill="#95624f" />
<polygon points="220.0,38.0 78.0,130.0 61.0,256.0 107.0,300.0 183.0,280.0 133.0,168.0 187.0,53.0 252.0,163.0 201.0,283.0 264.0,300.0 320.0,247.0 303.0,130.0" fill="#bb8169" opacity="0.95" />
<polygon points="220.0,38.0 66.0,158.0 61.0,256.0 107.0,300.0 183.0,280.0 133.0,168.0 187.0,53.0 252.0,163.0 201.0,283.0 264.0,300.0 320.0,247.0 305.0,139.0" fill="#bb8169" opacity="0.95" />
<polygon points="0.0,327.0 0.0,383.0 383.0,383.0 383.0,325.0 240.0,326.0 227.0,359.0 192.0,375.0 161.0,364.0 142.0,326.0" fill="#95624f" opacity="0.95" />
<polygon points="147.0,208.0 143.0,242.0 185.0,269.0 148.0,311.0 149.0,347.0 208.0,370.0 237.0,325.0 198.0,269.0 237.0,247.0 242.0,214.0 230.0,242.0 182.0,252.0 147.0,239.0" fill="#402d2c" />
<polygon points="250.0,160.0 225.0,182.0 189.0,189.0 154.0,182.0 137.0,162.0 136.0,183.0 161.0,211.0 207.0,219.0 239.0,206.0" fill="#3ddfe2" />
<polygon points="244.0,232.0 198.0,252.0 140.0,233.0 185.0,269.0 146.0,316.0 164.0,365.0 199.0,373.0 230.0,354.0 235.0,313.0 198.0,269.0" fill="#402d2c" opacity="0.95" />
<polygon points="141.0,167.0 165.0,185.0 202.0,187.0 230.0,178.0 247.0,158.0 236.0,160.0 242.0,142.0 225.0,122.0 228.0,146.0 183.0,154.0 160.0,136.0 162.0,121.0 147.0,135.0 160.0,169.0" fill="#0cb2c1" />
<polygon points="142.0,220.0 152.0,241.0 182.0,251.0 225.0,244.0 241.0,228.0 236.0,212.0 202.0,229.0 170.0,225.0 150.0,211.0" fill="#1d1419" />
<polygon points="241.0,236.0 198.0,252.0 145.0,242.0 185.0,270.0 146.0,316.0 164.0,365.0 199.0,373.0 230.0,354.0 235.0,313.0 198.0,270.0" fill="#402d2c" opacity="0.95" />
<polygon points="302.0,0.0 383.0,97.0 383.0,75.0 349.0,40.0 383.0,64.0 318.0,0.0" fill="#1d1419" />
<polygon points="76.0,0.0 60.0,0.0 31.0,30.0 33.0,35.0 0.0,69.0 2.0,89.0" fill="#1d1419" />
<polygon points="250.0,161.0 208.0,187.0 165.0,186.0 138.0,165.0 136.0,183.0 161.0,211.0 202.0,220.0 239.0,206.0" fill="#3ddfe2" opacity="0.95" />
<polygon points="181.0,60.0 173.0,73.0 184.0,83.0 183.0,93.0 194.0,99.0 208.0,96.0 217.0,81.0 215.0,67.0 199.0,56.0" fill="#f90b06" />
<polygon points="319.0,0.0 355.0,37.0 336.0,4.0 383.0,37.0 383.0,0.0" fill="#402d2c" />
<polygon points="0.0,29.0 2.0,31.0 42.0,0.0 0.0,0.0" fill="#402d2c" />
<polygon points="143.0,170.0 174.0,187.0 220.0,183.0 243.0,165.0 236.0,160.0 242.0,142.0 230.0,127.0 229.0,145.0 183.0,154.0 160.0,136.0 159.0,123.0 147.0,135.0 159.0,169.0" fill="#0cb2c1" opacity="0.95" />
<polygon points="50.0,0.0 43.0,0.0 0.0,34.0 2.0,55.0" fill="#95624f" />
<polygon points="336.0,5.0 357.0,37.0 383.0,59.0 383.0,38.0" fill="#95624f" />
<polygon points="162.0,126.0 161.0,136.0 173.0,148.0 173.0,138.0 185.0,129.0 204.0,132.0 211.0,148.0 229.0,144.0 226.0,126.0 212.0,116.0 181.0,114.0" fill="#3ddfe2" />
<polygon points="142.0,220.0 148.0,238.0 182.0,251.0 222.0,245.0 241.0,228.0 236.0,213.0 202.0,229.0 179.0,228.0 150.0,212.0" fill="#1d1419" opacity="0.95" />
<polygon points="251.0,168.0 247.0,162.0 220.0,184.0 189.0,189.0 156.0,183.0 138.0,166.0 143.0,198.0 161.0,211.0 202.0,220.0 239.0,206.0" fill="#3ddfe2" opacity="0.95" />
<polygon points="302.0,0.0 383.0,96.0 383.0,64.0 376.0,68.0 319.0,0.0" fill="#1d1419" opacity="0.95" />
<polygon points="147.0,135.0 157.0,167.0 144.0,172.0 165.0,185.0 220.0,183.0 243.0,165.0 232.0,129.0 227.0,146.0 202.0,154.0 175.0,151.0 158.0,124.0" fill="#0cb2c1" opacity="0.95" />
<polygon points="75.0,0.0 59.0,0.0 31.0,30.0 28.0,41.0 0.0,68.0 1.0,86.0" fill="#1d1419" opacity="0.95" />
<polygon points="173.0,141.0 175.0,148.0 184.0,153.0 200.0,153.0 210.0,145.0 209.0,138.0 197.0,130.0 185.0,130.0 179.0,133.0" fill="#e2f6f6" />
<polygon points="181.0,60.0 173.0,73.0 184.0,83.0 184.0,94.0 194.0,99.0 208.0,96.0 217.0,81.0 215.0,67.0 199.0,56.0" fill="#f90b06" opacity="0.95" />
<polygon points="142.0,220.0 152.0,241.0 182.0,251.0 222.0,245.0 241.0,228.0 236.0,213.0 202.0,229.0 179.0,228.0 150.0,212.0" fill="#1d1419" opacity="0.95" />
<polygon points="302.0,0.0 383.0,96.0 383.0,74.0 351.0,43.0 350.0,33.0 319.0,0.0" fill="#1d1419" opacity="0.95" />
<polygon points="162.0,126.0 161.0,136.0 170.0,144.0 185.0,129.0 207.0,134.0 213.0,148.0 229.0,144.0 226.0,126.0 212.0,116.0 181.0,114.0" fill="#3ddfe2" opacity="0.95" />
<polygon points="0.0,28.0 6.0,29.0 42.0,0.0 0.0,0.0" fill="#402d2c" opacity="0.95" />
<polygon points="75.0,0.0 59.0,0.0 31.0,30.0 28.0,41.0 0.0,68.0 0.0,84.0 7.0,84.0" fill="#1d1419" opacity="0.95" />
<polygon points="320.0,0.0 339.0,21.0 343.0,21.0 335.0,9.0 339.0,5.0 383.0,37.0 383.0,0.0" fill="#402d2c" opacity="0.95" />
<polygon points="177.0,113.0 203.0,112.0 214.0,104.0 209.0,97.0 201.0,101.0 189.0,101.0 180.0,97.0 175.0,103.0" fill="#1d1419" />
<polygon points="209.0,18.0 165.0,18.0 184.0,16.0 180.0,8.0 190.0,3.0 198.0,4.0 204.0,9.0 197.0,16.0" fill="#95624f" />
<polygon points="145.0,137.0 137.0,158.0 142.0,165.0 158.0,170.0 147.0,151.0" fill="#07859b" />
<polygon points="336.0,7.0 357.0,37.0 383.0,59.0 383.0,38.0 348.0,11.0" fill="#95624f" opacity="0.95" />
<polygon points="173.0,141.0 175.0,148.0 184.0,153.0 200.0,153.0 210.0,145.0 207.0,135.0 197.0,130.0 185.0,130.0" fill="#e2f6f6" opacity="0.95" />
<polygon points="143.0,201.0 162.0,217.0 191.0,224.0 215.0,221.0 235.0,210.0 186.0,221.0" fill="#0cb2c1" />
<polygon points="203.0,57.0 196.0,69.0 185.0,58.0 173.0,71.0 185.0,85.0 184.0,94.0 194.0,99.0 208.0,96.0 217.0,81.0 215.0,67.0" fill="#f90b06" opacity="0.95" />
<polygon points="320.0,0.0 333.0,16.0 338.0,15.0 337.0,9.0 341.0,6.0 383.0,37.0 383.0,0.0" fill="#402d2c" opacity="0.95" />
<polygon points="162.0,126.0 161.0,136.0 169.0,142.0 185.0,129.0 197.0,129.0 210.0,138.0 214.0,148.0 229.0,143.0 226.0,126.0 212.0,116.0 181.0,114.0" fill="#3ddfe2" opacity="0.95" />
<polygon points="94.0,0.0 77.0,0.0 57.0,24.0 63.0,22.0 70.0,15.0 81.0,12.0" fill="#402d2c" />
<polygon points="59.0,0.0 51.0,0.0 12.0,45.0 22.0,38.0 26.0,42.0 32.0,35.0 30.0,30.0" fill="#402d2c" />
<polygon points="173.0,141.0 175.0,148.0 184.0,153.0 190.0,151.0 200.0,153.0 210.0,145.0 209.0,138.0 197.0,130.0 185.0,130.0" fill="#e2f6f6" opacity="0.95" />
<polygon points="160.0,218.0 185.0,228.0 206.0,227.0 220.0,221.0 191.0,225.0" fill="#07859b" />
<polygon points="190.0,136.0 193.0,136.0 198.0,140.0 198.0,144.0 194.0,148.0 188.0,148.0 185.0,145.0 185.0,140.0" fill="#e2f6f6" />
<polygon points="174.0,76.0 173.0,84.0 176.0,91.0 182.0,97.0 190.0,100.0 190.0,98.0 182.0,93.0 184.0,90.0 183.0,83.0" fill="#900d08" />
<polygon points="144.0,141.0 139.0,148.0 137.0,158.0 142.0,165.0 156.0,170.0 158.0,167.0 149.0,156.0" fill="#07859b" opacity="0.95" />
<polygon points="244.0,144.0 237.0,158.0 238.0,161.0 248.0,155.0 248.0,152.0" fill="#07859b" />
<polygon points="187.0,63.0 189.0,61.0 191.0,62.0 196.0,61.0 201.0,66.0 199.0,68.0 195.0,69.0 190.0,67.0" fill="#f90b06" />
<polygon points="332.0,54.0 331.0,55.0 332.0,64.0 340.0,73.0 345.0,74.0 346.0,73.0 338.0,65.0 337.0,55.0" fill="#e2f6f6" />
<polygon points="185.0,140.0 188.0,137.0 193.0,136.0 198.0,140.0 198.0,144.0 194.0,148.0 189.0,148.0 185.0,145.0" fill="#e2f6f6" opacity="0.95" />
<polygon points="143.0,144.0 139.0,148.0 137.0,158.0 142.0,165.0 153.0,169.0 156.0,165.0 149.0,156.0 147.0,146.0" fill="#07859b" opacity="0.95" />
<polygon points="190.0,136.0 193.0,136.0 198.0,140.0 198.0,144.0 192.0,149.0 188.0,148.0 185.0,145.0 185.0,140.0" fill="#e2f6f6" opacity="0.95" />
<polygon points="148.0,205.0 154.0,213.0 173.0,221.0 179.0,221.0 152.0,205.0" fill="#0cb2c1" opacity="0.95" />
<polygon points="175.0,78.0 173.0,79.0 173.0,84.0 176.0,91.0 180.0,94.0 184.0,90.0 184.0,85.0 182.0,82.0" fill="#900d08" opacity="0.95" />
<polygon points="188.0,63.0 191.0,61.0 193.0,62.0 197.0,60.0 200.0,62.0 200.0,67.0 195.0,69.0 190.0,67.0 188.0,65.0" fill="#f90b06" opacity="0.95" />
<polygon points="183.0,9.0 187.0,13.0 187.0,10.0 189.0,8.0 195.0,8.0 197.0,10.0 197.0,13.0 202.0,10.0 199.0,6.0 189.0,5.0" fill="#d0ab97" />
<polygon points="233.0,128.0 234.0,129.0 257.0,129.0 258.0,128.0 259.0,129.0 260.0,128.0 259.0,127.0 258.0,128.0 257.0,127.0 234.0,127.0" fill="#d0ab97" />
<polygon points="176.0,79.0 173.0,81.0 173.0,84.0 176.0,91.0 180.0,94.0 184.0,90.0 184.0,85.0 182.0,82.0" fill="#900d08" opacity="0.95" />
<polygon points="244.0,146.0 242.0,147.0 238.0,155.0 237.0,160.0 239.0,161.0 248.0,155.0 246.0,147.0" fill="#07859b" opacity="0.95" />
<polygon points="189.0,64.0 193.0,67.0 198.0,67.0 199.0,66.0 199.0,65.0 196.0,63.0 190.0,63.0" fill="#e2f6f6" />
<polygon points="333.0,54.0 331.0,55.0 332.0,64.0 338.0,70.0 340.0,69.0 340.0,67.0 337.0,62.0 337.0,55.0" fill="#e2f6f6" opacity="0.95" />
<polygon points="229.0,213.0 227.0,212.0 212.0,219.0 211.0,218.0 209.0,221.0 211.0,222.0 229.0,215.0" fill="#0cb2c1" opacity="0.95" />
<polygon points="178.0,224.0 178.0,226.0 185.0,228.0 193.0,226.0 202.0,227.0 200.0,224.0 196.0,226.0" fill="#07859b" opacity="0.95" />
<polygon points="244.0,148.0 241.0,150.0 238.0,155.0 238.0,157.0 241.0,159.0 248.0,155.0 247.0,150.0" fill="#07859b" opacity="0.95" />
<polygon points="334.0,54.0 331.0,56.0 331.0,60.0 334.0,62.0 337.0,60.0 337.0,56.0" fill="#e2f6f6" opacity="0.95" />
<polygon points="161.0,43.0 160.0,42.0 152.0,46.0 153.0,47.0 154.0,46.0 155.0,47.0 159.0,45.0" fill="#bb8169" />
<polygon points="194.0,6.0 194.0,8.0 195.0,8.0 197.0,10.0 197.0,11.0 199.0,12.0 201.0,11.0 201.0,8.0 196.0,5.0" fill="#d0ab97" opacity="0.95" />
</svg>