<svg xmlns="http://www.w3.org/2000/svg" width="768" height="768" viewBox="0 0 384 384">
<rect width="384" height="384" fill="#8e5d4d"/>
<polygon points="0.0,0.0 0.0,383.0 383.0,383.0 383.0,0.0" fill="#8d513f" />
<polygon points="0.0,0.0 0.0,383.0 383.0,383.0 383.0,0.0" fill="#8d513f" opacity="0.95" />
<polygon points="0.0,0.0 0.0,383.0 383.0,383.0 383.0,0.0" fill="#8d513f" opacity="0.95" />
<polygon points="65.0,128.0 334.0,128.0 211.0,131.0 253.0,193.0 205.0,258.0 160.0,247.0 133.0,211.0 135.0,168.0 171.0,130.0" fill="#8d513f" />
<polygon points="170.0,126.0 216.0,127.0 250.0,178.0 244.0,224.0 208.0,258.0 173.0,257.0 133.0,211.0 135.0,168.0" fill="#8d513f" opacity="0.95" />
<polygon points="166.0,136.0 178.0,182.0 216.0,205.0 201.0,219.0 249.0,198.0 244.0,165.0 225.0,140.0 201.0,130.0" fill="#95f2f3" />
<polygon points="169.0,126.0 217.0,127.0 250.0,178.0 246.0,220.0 210.0,258.0 170.0,257.0 133.0,211.0 135.0,168.0" fill="#8d513f" opacity="0.95" />
<polygon points="133.0,202.0 150.0,238.0 188.0,254.0 229.0,241.0 249.0,206.0 186.0,221.0" fill="#1c1c4f" />
<polygon points="163.0,137.0 142.0,157.0 132.0,197.0 156.0,214.0 195.0,219.0 215.0,205.0 177.0,182.0" fill="#72e4f1" />
<polygon points="166.0,136.0 178.0,182.0 215.0,204.0 200.0,218.0 228.0,213.0 249.0,198.0 244.0,165.0 225.0,140.0 201.0,130.0" fill="#95f2f3" opacity="0.95" />
<polygon points="162.0,138.0 142.0,157.0 132.0,197.0 156.0,214.0 193.0,219.0 214.0,204.0 177.0,182.0" fill="#72e4f1" opacity="0.95" />
<polygon points="166.0,136.0 178.0,182.0 214.0,204.0 205.0,217.0 249.0,198.0 244.0,165.0 225.0,140.0 201.0,130.0" fill="#95f2f3" opacity="0.95" />
<polygon points="134.0,210.0 156.0,243.0 193.0,254.0 229.0,241.0 249.0,204.0 200.0,221.0 165.0,218.0 136.0,203.0" fill="#1c1c4f" opacity="0.95" />
<polygon points="162.0,138.0 142.0,157.0 132.0,197.0 156.0,214.0 193.0,219.0 211.0,204.0 177.0,182.0" fill="#72e4f1" opacity="0.95" />
<polygon points="134.0,206.0 150.0,238.0 188.0,254.0 225.0,244.0 248.0,210.0 245.0,204.0 186.0,221.0" fill="#1c1c4f" opacity="0.95" />
<polygon points="332.0,55.0 340.0,50.0 350.0,52.0 357.0,64.0 353.0,73.0 363.0,75.0 368.0,80.0 359.0,84.0 339.0,82.0 327.0,64.0" fill="#8d513f" />
<polygon points="336.0,53.0 330.0,64.0 333.0,71.0 341.0,76.0 350.0,74.0 354.0,69.0 353.0,57.0 347.0,52.0" fill="#d0eaf4" />
<polygon points="332.0,55.0 340.0,50.0 350.0,52.0 357.0,63.0 354.0,73.0 367.0,80.0 359.0,84.0 337.0,81.0 327.0,65.0" fill="#8d513f" opacity="0.95" />
<polygon points="332.0,55.0 340.0,50.0 350.0,52.0 357.0,63.0 355.0,72.0 367.0,80.0 359.0,84.0 338.0,81.0 327.0,65.0" fill="#8d513f" opacity="0.95" />
<polygon points="339.0,52.0 333.0,56.0 331.0,66.0 336.0,74.0 344.0,76.0 353.0,71.0 354.0,60.0 349.0,53.0" fill="#d0eaf4" opacity="0.95" />
<polygon points="339.0,52.0 333.0,56.0 331.0,66.0 336.0,74.0 344.0,76.0 353.0,71.0 354.0,60.0 349.0,53.0" fill="#d0eaf4" opacity="0.95" />
<polygon points="340.0,79.0 342.0,81.0 347.0,82.0 357.0,82.0 362.0,81.0 364.0,78.0 360.0,76.0 351.0,75.0 342.0,77.0" fill="#242021" />
<polygon points="341.0,78.0 341.0,80.0 347.0,82.0 357.0,82.0 363.0,80.0 362.0,77.0 354.0,75.0" fill="#242021" opacity="0.95" />
<polygon points="344.0,78.0 344.0,80.0 347.0,82.0 357.0,82.0 360.0,80.0 359.0,77.0 354.0,75.0 347.0,76.0" fill="#242021" opacity="0.95" />
</svg>