<svg xmlns="http://www.w3.org/2000/svg" width="768" height="768" viewBox="0 0 384 384">
<rect width="384" height="384" fill="#84655d"/>
<polygon points="262.0,27.0 206.0,0.0 132.0,16.0 6.0,125.0 173.0,125.0 242.0,108.0 249.0,126.0" fill="#946052" />
<polygon points="142.0,143.0 49.0,186.0 0.0,237.0 0.0,279.0 37.0,318.0 155.0,318.0 156.0,261.0 129.0,181.0" fill="#b48475" />
<polygon points="259.0,23.0 179.0,0.0 84.0,46.0 7.0,123.0 0.0,230.0 161.0,125.0 250.0,124.0" fill="#946052" opacity="0.95" />
<polygon points="233.0,130.0 256.0,169.0 243.0,306.0 261.0,319.0 353.0,315.0 383.0,273.0 383.0,191.0 363.0,174.0 319.0,187.0 275.0,176.0 249.0,130.0" fill="#946052" />
<polygon points="0.0,123.0 85.0,44.0 180.0,0.0 0.0,0.0" fill="#69413b" />
<polygon points="140.0,150.0 132.0,190.0 163.0,215.0 220.0,215.0 254.0,184.0 248.0,153.0 215.0,131.0 174.0,130.0" fill="#3edbed" />
<polygon points="0.0,231.0 47.0,186.0 166.0,131.0 10.0,131.0 0.0,139.0" fill="#946052" />
<polygon points="142.0,145.0 44.0,189.0 0.0,237.0 0.0,278.0 36.0,317.0 155.0,318.0 155.0,261.0 129.0,181.0" fill="#b48475" opacity="0.95" />
<polygon points="207.0,0.0 263.0,36.0 295.0,27.0 303.0,65.0 322.0,35.0 352.0,59.0 324.0,148.0 253.0,129.0 264.0,167.0 382.0,191.0 383.0,20.0" fill="#69413b" />
<polygon points="139.0,52.0 154.0,35.0 221.0,35.0 239.0,57.0 238.0,93.0 210.0,115.0 159.0,111.0 137.0,90.0" fill="#946052" />
<polygon points="134.0,149.0 42.0,191.0 0.0,237.0 14.0,299.0 106.0,363.0 155.0,337.0" fill="#b48475" opacity="0.95" />
<polygon points="232.0,131.0 256.0,169.0 244.0,308.0 354.0,314.0 383.0,273.0 383.0,191.0 363.0,174.0 319.0,187.0 275.0,176.0 249.0,131.0" fill="#946052" opacity="0.95" />
<polygon points="0.0,124.0 95.0,36.0 178.0,0.0 0.0,0.0" fill="#69413b" opacity="0.95" />
<polygon points="137.0,59.0 146.0,81.0 185.0,92.0 219.0,85.0 238.0,67.0 229.0,45.0 199.0,34.0 156.0,39.0" fill="#f4a090" />
<polygon points="235.0,130.0 256.0,169.0 243.0,306.0 264.0,321.0 263.0,360.0 307.0,359.0 383.0,273.0 383.0,191.0 362.0,174.0 275.0,176.0" fill="#946052" opacity="0.95" />
<polygon points="140.0,150.0 132.0,190.0 163.0,215.0 220.0,215.0 254.0,184.0 248.0,153.0 215.0,131.0 174.0,130.0" fill="#3edbed" opacity="0.95" />
<polygon points="259.0,23.0 177.0,0.0 84.0,46.0 0.0,139.0 0.0,228.0 184.0,120.0 137.0,90.0 153.0,35.0 224.0,36.0 238.0,93.0 193.0,120.0 249.0,124.0" fill="#946052" opacity="0.95" />
<polygon points="209.0,0.0 296.0,28.0 303.0,65.0 323.0,35.0 351.0,57.0 324.0,148.0 253.0,129.0 264.0,167.0 382.0,191.0 383.0,20.0" fill="#69413b" opacity="0.95" />
<polygon points="139.0,52.0 154.0,35.0 221.0,35.0 239.0,57.0 238.0,93.0 210.0,115.0 159.0,111.0 137.0,90.0" fill="#946052" opacity="0.95" />
<polygon points="225.0,383.0 383.0,383.0 383.0,326.0 355.0,326.0 292.0,364.0 262.0,361.0 252.0,328.0 243.0,326.0 237.0,370.0" fill="#69413b" />
<polygon points="0.0,122.0 92.0,36.0 176.0,0.0 0.0,0.0" fill="#69413b" opacity="0.95" />
<polygon points="0.0,326.0 0.0,339.0 67.0,383.0 152.0,381.0 155.0,339.0 141.0,359.0 106.0,364.0 39.0,326.0" fill="#946052" />
<polygon points="155.0,338.0 153.0,325.0 42.0,327.0 106.0,363.0 141.0,358.0" fill="#b48475" />
<polygon points="140.0,150.0 132.0,190.0 163.0,215.0 220.0,215.0 254.0,184.0 248.0,153.0 215.0,131.0 174.0,130.0" fill="#3edbed" opacity="0.95" />
<polygon points="213.0,0.0 296.0,28.0 304.0,65.0 323.0,35.0 351.0,57.0 324.0,148.0 253.0,129.0 264.0,167.0 382.0,191.0 383.0,20.0" fill="#69413b" opacity="0.95" />
<polygon points="192.0,304.0 181.0,337.0 161.0,343.0 164.0,368.0 175.0,383.0 192.0,383.0 201.0,370.0 224.0,383.0 235.0,373.0 239.0,339.0 217.0,339.0 210.0,310.0" fill="#231b21" />
<polygon points="137.0,59.0 144.0,79.0 185.0,92.0 219.0,85.0 238.0,67.0 229.0,45.0 199.0,34.0 156.0,39.0" fill="#f4a090" opacity="0.95" />
<polygon points="226.0,382.0 383.0,383.0 383.0,326.0 356.0,326.0 292.0,364.0 261.0,360.0 244.0,326.0" fill="#69413b" opacity="0.95" />
<polygon points="256.0,109.0 258.0,132.0 266.0,140.0 296.0,139.0 314.0,151.0 326.0,143.0 329.0,122.0 306.0,122.0 288.0,93.0 269.0,112.0" fill="#231b21" />
<polygon points="137.0,59.0 144.0,79.0 185.0,92.0 219.0,85.0 238.0,67.0 229.0,45.0 199.0,34.0 156.0,39.0" fill="#f4a090" opacity="0.95" />
<polygon points="155.0,338.0 150.0,324.0 44.0,327.0 106.0,363.0 141.0,358.0" fill="#b48475" opacity="0.95" />
<polygon points="383.0,278.0 354.0,315.0 360.0,323.0 307.0,360.0 263.0,361.0 243.0,327.0 227.0,383.0 383.0,383.0" fill="#69413b" opacity="0.95" />
<polygon points="0.0,343.0 0.0,383.0 66.0,383.0 38.0,372.0 5.0,340.0" fill="#69413b" />
<polygon points="330.0,49.0 300.0,94.0 305.0,119.0 327.0,117.0 342.0,71.0 311.0,95.0" fill="#a63e36" />
<polygon points="251.0,208.0 230.0,226.0 197.0,236.0 170.0,233.0 139.0,217.0 169.0,244.0 212.0,246.0 237.0,237.0" fill="#231b21" />
<polygon points="192.0,306.0 181.0,338.0 161.0,343.0 164.0,368.0 174.0,383.0 192.0,383.0 202.0,370.0 225.0,383.0 236.0,370.0 238.0,340.0 216.0,338.0 210.0,309.0" fill="#231b21" opacity="0.95" />
<polygon points="253.0,193.0 224.0,215.0 170.0,231.0 203.0,234.0 221.0,229.0 245.0,212.0" fill="#026a91" />
<polygon points="192.0,294.0 186.0,291.0 176.0,306.0 164.0,309.0 158.0,330.0 159.0,343.0 180.0,337.0" fill="#233c40" />
<polygon points="203.0,287.0 213.0,299.0 215.0,336.0 236.0,338.0 243.0,289.0 232.0,306.0 219.0,309.0 214.0,289.0" fill="#233c40" />
<polygon points="276.0,65.0 258.0,72.0 249.0,96.0 251.0,104.0 264.0,106.0" fill="#a63e36" />
<polygon points="217.0,255.0 214.0,259.0 217.0,283.0 232.0,286.0 240.0,280.0 238.0,258.0 231.0,255.0" fill="#6ca09f" />
<polygon points="256.0,109.0 258.0,132.0 271.0,142.0 296.0,139.0 314.0,151.0 326.0,143.0 328.0,123.0 304.0,121.0 287.0,93.0 270.0,111.0" fill="#231b21" opacity="0.95" />
<polygon points="192.0,307.0 181.0,337.0 161.0,343.0 164.0,368.0 174.0,383.0 192.0,383.0 202.0,370.0 226.0,383.0 236.0,370.0 238.0,341.0 216.0,338.0 210.0,310.0" fill="#231b21" opacity="0.95" />
<polygon points="132.0,193.0 141.0,214.0 163.0,229.0 196.0,221.0 160.0,215.0" fill="#0896bc" />
<polygon points="163.0,256.0 160.0,259.0 161.0,283.0 163.0,285.0 177.0,285.0 184.0,280.0 183.0,257.0 180.0,255.0" fill="#6ca09f" />
<polygon points="178.0,170.0 188.0,161.0 197.0,161.0 205.0,166.0 208.0,173.0 201.0,182.0 191.0,184.0 179.0,177.0" fill="#3edbed" />
<polygon points="251.0,211.0 197.0,236.0 140.0,220.0 169.0,244.0 212.0,246.0 237.0,237.0" fill="#231b21" opacity="0.95" />
<polygon points="243.0,322.0 383.0,324.0 383.0,321.0" fill="#fbf8f7" />
<polygon points="326.0,55.0 300.0,93.0 299.0,112.0 307.0,119.0 327.0,118.0 334.0,87.0 317.0,85.0" fill="#a63e36" opacity="0.95" />
<polygon points="137.0,75.0 141.0,88.0 151.0,97.0 169.0,104.0 180.0,103.0 180.0,91.0 160.0,89.0" fill="#df6b57" />
<polygon points="255.0,111.0 259.0,134.0 271.0,142.0 296.0,139.0 314.0,151.0 326.0,143.0 327.0,126.0 305.0,121.0 287.0,94.0 270.0,111.0" fill="#231b21" opacity="0.95" />
<polygon points="218.0,88.0 182.0,93.0 179.0,96.0 180.0,105.0 193.0,106.0 211.0,102.0 216.0,98.0" fill="#a63e36" />
<polygon points="241.0,300.0 231.0,306.0 213.0,306.0 211.0,316.0 216.0,337.0 238.0,336.0" fill="#233c40" opacity="0.95" />
<polygon points="239.0,78.0 237.0,72.0 222.0,98.0 201.0,106.0 172.0,106.0 144.0,94.0 170.0,109.0 206.0,110.0 229.0,101.0" fill="#231b21" />
<polygon points="250.0,214.0 197.0,236.0 143.0,225.0 169.0,244.0 222.0,245.0 241.0,233.0" fill="#231b21" opacity="0.95" />
<polygon points="244.0,111.0 239.0,109.0 221.0,121.0 176.0,125.0 216.0,126.0 217.0,131.0 236.0,140.0 228.0,128.0 244.0,125.0" fill="#b48475" />
<polygon points="294.0,37.0 274.0,90.0 295.0,54.0" fill="#a63e36" />
<polygon points="193.0,295.0 185.0,293.0 177.0,305.0 164.0,309.0 158.0,341.0 180.0,338.0 188.0,300.0" fill="#233c40" opacity="0.95" />
<polygon points="252.0,197.0 224.0,215.0 184.0,224.0 173.0,232.0 203.0,234.0 221.0,229.0 245.0,212.0" fill="#026a91" opacity="0.95" />
<polygon points="162.0,254.0 156.0,262.0 158.0,324.0 163.0,309.0 176.0,305.0 185.0,291.0 184.0,281.0 177.0,295.0 164.0,296.0 160.0,292.0" fill="#43686a" />
<polygon points="318.0,70.0 300.0,94.0 299.0,111.0 320.0,121.0 327.0,117.0 334.0,89.0 318.0,83.0" fill="#a63e36" opacity="0.95" />
<polygon points="175.0,61.0 176.0,58.0 183.0,53.0 193.0,53.0 200.0,58.0 200.0,64.0 194.0,69.0 182.0,69.0 176.0,65.0" fill="#f4a090" />
<polygon points="294.0,44.0 280.0,68.0 258.0,72.0 251.0,104.0 264.0,107.0 274.0,72.0 290.0,63.0" fill="#a63e36" opacity="0.95" />
<polygon points="164.0,256.0 160.0,259.0 161.0,284.0 176.0,285.0 184.0,280.0 183.0,257.0 180.0,255.0" fill="#6ca09f" opacity="0.95" />
<polygon points="240.0,302.0 211.0,310.0 216.0,337.0 238.0,336.0 241.0,323.0" fill="#233c40" opacity="0.95" />
<polygon points="250.0,202.0 175.0,231.0 203.0,234.0 221.0,229.0 238.0,219.0" fill="#026a91" opacity="0.95" />
<polygon points="178.0,170.0 188.0,161.0 197.0,161.0 205.0,166.0 207.0,176.0 201.0,182.0 191.0,184.0 179.0,177.0" fill="#3edbed" opacity="0.95" />
<polygon points="133.0,198.0 141.0,214.0 163.0,229.0 185.0,223.0 160.0,215.0" fill="#0896bc" opacity="0.95" />
<polygon points="216.0,256.0 216.0,271.0 209.0,271.0 207.0,275.0 215.0,275.0 220.0,285.0 231.0,286.0 239.0,282.0 238.0,258.0" fill="#6ca09f" opacity="0.95" />
<polygon points="269.0,36.0 271.0,39.0 275.0,37.0 286.0,42.0 290.0,40.0 294.0,29.0 279.0,24.0" fill="#f4a090" />
<polygon points="218.0,88.0 179.0,95.0 181.0,105.0 193.0,106.0 215.0,100.0" fill="#a63e36" opacity="0.95" />
<polygon points="189.0,294.0 183.0,294.0 177.0,305.0 162.0,312.0 159.0,341.0 180.0,337.0 189.0,308.0" fill="#233c40" opacity="0.95" />
<polygon points="314.0,52.0 304.0,73.0 302.0,91.0 318.0,68.0 312.0,65.0" fill="#df6b57" />
<polygon points="138.0,78.0 141.0,88.0 151.0,97.0 169.0,104.0 180.0,103.0 180.0,92.0 160.0,89.0" fill="#df6b57" opacity="0.95" />
<polygon points="178.0,170.0 188.0,161.0 197.0,161.0 205.0,166.0 207.0,176.0 201.0,182.0 191.0,184.0 179.0,177.0" fill="#3edbed" opacity="0.95" />
<polygon points="216.0,256.0 214.0,263.0 217.0,283.0 230.0,286.0 240.0,280.0 238.0,258.0 231.0,255.0" fill="#6ca09f" opacity="0.95" />
<polygon points="269.0,38.0 261.0,52.0 258.0,71.0 263.0,67.0 270.0,68.0 277.0,62.0 264.0,54.0" fill="#df6b57" />
<polygon points="164.0,256.0 160.0,259.0 161.0,283.0 164.0,285.0 176.0,285.0 184.0,280.0 183.0,257.0 180.0,255.0" fill="#6ca09f" opacity="0.95" />
<polygon points="271.0,68.0 258.0,72.0 249.0,96.0 249.0,102.0 261.0,108.0 274.0,74.0" fill="#a63e36" opacity="0.95" />
<polygon points="206.0,275.0 204.0,286.0 215.0,289.0 217.0,305.0 232.0,305.0 240.0,293.0 241.0,283.0 235.0,285.0 235.0,294.0 220.0,295.0 216.0,291.0 215.0,275.0 210.0,278.0" fill="#43686a" />
<polygon points="175.0,61.0 176.0,58.0 183.0,53.0 193.0,53.0 200.0,58.0 200.0,64.0 193.0,69.0 182.0,69.0 176.0,65.0" fill="#f4a090" opacity="0.95" />
<polygon points="136.0,204.0 146.0,219.0 163.0,229.0 175.0,228.0 182.0,223.0 139.0,202.0" fill="#0896bc" opacity="0.95" />
<polygon points="339.0,71.0 323.0,72.0 321.0,75.0 325.0,77.0 318.0,82.0 312.0,95.0 321.0,85.0 331.0,86.0" fill="#df6b57" />
<polygon points="279.0,66.0 267.0,96.0 266.0,108.0 269.0,106.0" fill="#df6b57" />
<polygon points="158.0,271.0 158.0,318.0 165.0,307.0 177.0,304.0 180.0,294.0 185.0,291.0 183.0,282.0 179.0,294.0 163.0,295.0" fill="#43686a" opacity="0.95" />
<polygon points="244.0,111.0 240.0,109.0 224.0,120.0 200.0,122.0 198.0,125.0 217.0,126.0 220.0,132.0 227.0,135.0 231.0,127.0 243.0,125.0" fill="#b48475" opacity="0.95" />
<polygon points="138.0,80.0 141.0,88.0 151.0,97.0 169.0,104.0 180.0,103.0 177.0,92.0 160.0,89.0 141.0,78.0" fill="#df6b57" opacity="0.95" />
<polygon points="339.0,85.0 335.0,89.0 330.0,102.0 328.0,115.0 340.0,90.0" fill="#df6b57" />
<polygon points="175.0,61.0 176.0,58.0 183.0,53.0 193.0,53.0 200.0,58.0 200.0,64.0 193.0,69.0 182.0,69.0 176.0,65.0" fill="#f4a090" opacity="0.95" />
<polygon points="268.0,48.0 265.0,54.0 267.0,56.0 277.0,59.0 280.0,53.0" fill="#f4a090" />
<polygon points="217.0,90.0 213.0,88.0 201.0,92.0 183.0,93.0 180.0,95.0 181.0,104.0 193.0,106.0 211.0,102.0 216.0,98.0" fill="#a63e36" opacity="0.95" />
<polygon points="328.0,39.0 324.0,39.0 321.0,42.0 315.0,54.0 316.0,58.0 319.0,58.0 323.0,55.0 328.0,44.0" fill="#f4a090" />
<polygon points="270.0,34.0 272.0,38.0 275.0,37.0 287.0,41.0 291.0,38.0 293.0,29.0 279.0,24.0" fill="#f4a090" opacity="0.95" />
<polygon points="343.0,58.0 335.0,54.0 329.0,64.0 332.0,66.0 334.0,65.0 337.0,66.0" fill="#e1d2cd" />
<polygon points="273.0,38.0 270.0,44.0 275.0,47.0 282.0,48.0 284.0,43.0 280.0,40.0" fill="#fbf8f7" />
<polygon points="238.0,294.0 216.0,295.0 217.0,305.0 233.0,304.0 236.0,301.0" fill="#43686a" opacity="0.95" />
<polygon points="186.0,256.0 187.0,286.0 189.0,284.0 188.0,280.0 191.0,272.0 191.0,267.0" fill="#233c40" />
<polygon points="161.0,289.0 163.0,292.0 171.0,292.0 172.0,293.0 180.0,291.0 180.0,287.0 179.0,286.0 163.0,286.0" fill="#fbf8f7" />
<polygon points="201.0,179.0 199.0,176.0 193.0,174.0 192.0,175.0 188.0,175.0 185.0,178.0 188.0,182.0 198.0,182.0" fill="#b48475" />
<polygon points="227.0,185.0 218.0,194.0 212.0,197.0 210.0,195.0 218.0,190.0 225.0,183.0" fill="#3edbed" />
<polygon points="174.0,148.0 176.0,150.0 168.0,155.0 159.0,166.0 157.0,164.0 159.0,160.0 168.0,151.0" fill="#3edbed" />
<polygon points="260.0,55.0 259.0,67.0 270.0,68.0 276.0,64.0 276.0,60.0 263.0,54.0" fill="#df6b57" opacity="0.95" />
<polygon points="156.0,311.0 159.0,313.0 165.0,307.0 177.0,304.0 180.0,297.0 177.0,295.0 165.0,296.0 159.0,292.0 157.0,293.0" fill="#43686a" opacity="0.95" />
<polygon points="219.0,287.0 219.0,291.0 220.0,292.0 235.0,292.0 236.0,291.0 236.0,288.0 235.0,287.0 228.0,287.0 227.0,286.0 220.0,286.0" fill="#fbf8f7" />
<polygon points="244.0,111.0 241.0,109.0 238.0,110.0 230.0,117.0 220.0,121.0 219.0,124.0 222.0,126.0 242.0,125.0" fill="#b48475" opacity="0.95" />
<polygon points="337.0,73.0 325.0,74.0 324.0,79.0 318.0,83.0 318.0,85.0 327.0,87.0 332.0,85.0" fill="#df6b57" opacity="0.95" />
<polygon points="200.0,177.0 193.0,174.0 185.0,177.0 185.0,179.0 188.0,182.0 198.0,182.0 200.0,181.0" fill="#b48475" opacity="0.95" />
<polygon points="216.0,296.0 217.0,304.0 220.0,306.0 223.0,304.0 231.0,305.0 237.0,299.0 237.0,296.0 234.0,294.0 219.0,294.0" fill="#43686a" opacity="0.95" />
<polygon points="272.0,39.0 271.0,45.0 278.0,48.0 283.0,47.0 284.0,42.0 274.0,38.0" fill="#fbf8f7" opacity="0.95" />
<polygon points="216.0,277.0 214.0,276.0 211.0,278.0 205.0,278.0 204.0,285.0 210.0,285.0 215.0,288.0 217.0,287.0" fill="#43686a" opacity="0.95" />
<polygon points="203.0,166.0 202.0,167.0 203.0,168.0 201.0,173.0 201.0,175.0 203.0,179.0 206.0,175.0 206.0,170.0" fill="#233c40" />
<polygon points="162.0,287.0 162.0,291.0 164.0,292.0 171.0,292.0 172.0,293.0 180.0,291.0 180.0,287.0 178.0,286.0 164.0,286.0" fill="#fbf8f7" opacity="0.95" />
<polygon points="212.0,262.0 208.0,266.0 207.0,269.0 208.0,270.0 210.0,270.0 213.0,273.0 214.0,273.0 215.0,272.0 215.0,269.0 214.0,268.0 214.0,264.0" fill="#026a91" />
<polygon points="343.0,57.0 336.0,54.0 334.0,55.0 334.0,57.0 330.0,61.0 330.0,65.0 332.0,66.0 338.0,65.0 343.0,59.0" fill="#e1d2cd" opacity="0.95" />
<polygon points="205.0,297.0 204.0,298.0 204.0,302.0 205.0,303.0 210.0,303.0 211.0,304.0 212.0,303.0 212.0,301.0 208.0,297.0" fill="#6ca09f" />
<polygon points="219.0,287.0 219.0,291.0 221.0,292.0 234.0,292.0 236.0,291.0 236.0,288.0 234.0,287.0 228.0,287.0 227.0,286.0 221.0,286.0" fill="#fbf8f7" opacity="0.95" />
<polygon points="175.0,150.0 174.0,149.0 168.0,152.0 160.0,160.0 158.0,164.0 159.0,165.0 161.0,161.0 168.0,154.0" fill="#0896bc" />
<polygon points="162.0,288.0 163.0,291.0 172.0,293.0 180.0,290.0 180.0,288.0 177.0,286.0 165.0,286.0" fill="#fbf8f7" opacity="0.95" />
<polygon points="204.0,288.0 204.0,290.0 210.0,293.0 211.0,295.0 213.0,296.0 215.0,295.0 215.0,291.0 212.0,287.0 208.0,286.0" fill="#233c40" opacity="0.95" />
<polygon points="215.0,254.0 209.0,261.0 208.0,263.0 209.0,264.0 213.0,260.0 214.0,257.0 216.0,255.0" fill="#43686a" />
<polygon points="205.0,279.0 204.0,282.0 205.0,285.0 207.0,286.0 210.0,285.0 213.0,287.0 216.0,285.0 215.0,278.0 208.0,277.0" fill="#43686a" opacity="0.95" />
<polygon points="188.0,262.0 186.0,263.0 186.0,274.0 188.0,275.0 190.0,274.0 191.0,272.0 190.0,263.0" fill="#233c40" opacity="0.95" />
<polygon points="212.0,263.0 208.0,266.0 208.0,269.0 212.0,271.0 214.0,270.0 214.0,264.0" fill="#026a91" opacity="0.95" />
<polygon points="271.0,41.0 271.0,44.0 278.0,48.0 280.0,48.0 284.0,45.0 284.0,43.0 282.0,41.0 277.0,39.0 274.0,39.0" fill="#fbf8f7" opacity="0.95" />
<polygon points="222.0,189.0 221.0,188.0 210.0,196.0 209.0,195.0 208.0,196.0 209.0,197.0 211.0,195.0 212.0,196.0 218.0,193.0" fill="#0896bc" />
<polygon points="338.0,55.0 335.0,56.0 330.0,61.0 330.0,64.0 333.0,66.0 334.0,65.0 336.0,66.0 338.0,65.0 342.0,60.0 342.0,58.0" fill="#e1d2cd" opacity="0.95" />
<polygon points="208.0,271.0 207.0,272.0 207.0,275.0 209.0,277.0 210.0,277.0 211.0,276.0 211.0,272.0 210.0,271.0" fill="#6ca09f" />
<polygon points="204.0,293.0 204.0,295.0 205.0,296.0 209.0,296.0 210.0,297.0 211.0,296.0 209.0,293.0 207.0,293.0 206.0,292.0 205.0,292.0" fill="#43686a" />
<polygon points="204.0,298.0 204.0,302.0 206.0,303.0 209.0,303.0 211.0,302.0 211.0,300.0 209.0,298.0 207.0,297.0" fill="#6ca09f" opacity="0.95" />
<polygon points="219.0,288.0 219.0,290.0 222.0,292.0 227.0,292.0 230.0,290.0 230.0,288.0 227.0,286.0 222.0,286.0" fill="#fbf8f7" opacity="0.95" />
<polygon points="211.0,264.0 208.0,266.0 208.0,268.0 211.0,270.0 214.0,268.0 214.0,266.0" fill="#026a91" opacity="0.95" />
<polygon points="207.0,297.0 204.0,299.0 204.0,301.0 207.0,303.0 210.0,301.0 210.0,299.0" fill="#6ca09f" opacity="0.95" />
</svg>