<svg xmlns="http://www.w3.org/2000/svg" width="768" height="768" viewBox="0 0 384 384">
<rect width="384" height="384" fill="#87665e"/>
<polygon points="311.0,26.0 70.0,22.0 10.0,114.0 0.0,308.0 84.0,318.0 17.0,295.0 68.0,159.0 186.0,141.0 150.0,90.0 42.0,89.0" fill="#876153" />
<polygon points="343.0,68.0 324.0,105.0 231.0,90.0 198.0,123.0 326.0,192.0 308.0,196.0 340.0,236.0 328.0,258.0 366.0,295.0 302.0,319.0 383.0,310.0 383.0,177.0 342.0,128.0 370.0,120.0" fill="#876153" />
<polygon points="310.0,24.0 70.0,22.0 10.0,114.0 0.0,309.0 78.0,318.0 17.0,295.0 68.0,159.0 186.0,141.0 150.0,91.0 41.0,90.0" fill="#876153" opacity="0.95" />
<polygon points="186.0,145.0 111.0,141.0 68.0,160.0 53.0,183.0 79.0,191.0 38.0,225.0 33.0,249.0 55.0,255.0 30.0,279.0 121.0,294.0 183.0,282.0 183.0,257.0 135.0,255.0 126.0,165.0 184.0,164.0" fill="#b7917e" />
<polygon points="199.0,137.0 200.0,165.0 255.0,165.0 239.0,255.0 201.0,257.0 200.0,281.0 222.0,294.0 339.0,282.0 309.0,255.0 339.0,247.0 320.0,205.0 279.0,191.0 308.0,177.0" fill="#b7917e" />
<polygon points="146.0,0.0 0.0,0.0 3.0,151.0 32.0,69.0 85.0,39.0 66.0,24.0" fill="#583c36" />
<polygon points="311.0,26.0 70.0,22.0 10.0,114.0 0.0,309.0 72.0,317.0 17.0,295.0 68.0,159.0 186.0,141.0 149.0,91.0 42.0,90.0" fill="#876153" opacity="0.95" />
<polygon points="227.0,0.0 334.0,37.0 371.0,116.0 355.0,132.0 383.0,176.0 383.0,0.0" fill="#583c36" />
<polygon points="343.0,68.0 321.0,106.0 232.0,90.0 198.0,123.0 312.0,180.0 366.0,295.0 305.0,319.0 383.0,310.0 383.0,174.0" fill="#876153" opacity="0.95" />
<polygon points="18.0,288.0 155.0,306.0 183.0,370.0 217.0,359.0 230.0,306.0 364.0,296.0 223.0,298.0 198.0,250.0 235.0,221.0 143.0,220.0 186.0,247.0 161.0,297.0" fill="#19191f" />
<polygon points="128.0,166.0 131.0,190.0 144.0,206.0 185.0,221.0 236.0,208.0 254.0,177.0 253.0,165.0 210.0,165.0 195.0,176.0 171.0,165.0" fill="#5deffd" />
<polygon points="148.0,59.0 150.0,79.0 182.0,97.0 210.0,94.0 235.0,72.0 231.0,53.0 209.0,38.0 171.0,39.0" fill="#ed3344" />
<polygon points="186.0,145.0 111.0,141.0 68.0,160.0 54.0,184.0 78.0,193.0 38.0,225.0 30.0,279.0 122.0,294.0 183.0,282.0 184.0,258.0 138.0,255.0 126.0,165.0 184.0,164.0" fill="#b7917e" opacity="0.95" />
<polygon points="343.0,68.0 321.0,106.0 233.0,90.0 198.0,131.0 312.0,180.0 366.0,295.0 311.0,319.0 383.0,310.0 383.0,171.0" fill="#876153" opacity="0.95" />
<polygon points="198.0,138.0 203.0,166.0 255.0,165.0 238.0,255.0 200.0,258.0 200.0,281.0 223.0,294.0 339.0,282.0 321.0,257.0 338.0,238.0 296.0,193.0 307.0,177.0" fill="#b7917e" opacity="0.95" />
<polygon points="199.0,383.0 315.0,383.0 353.0,340.0 244.0,326.0 281.0,332.0 286.0,344.0 238.0,362.0 228.0,343.0 219.0,370.0" fill="#876153" />
<polygon points="19.0,341.0 30.0,364.0 60.0,383.0 175.0,383.0 160.0,369.0 156.0,341.0 147.0,358.0 114.0,356.0 99.0,343.0 102.0,333.0 139.0,327.0 52.0,329.0" fill="#876153" />
<polygon points="186.0,146.0 111.0,141.0 68.0,160.0 54.0,184.0 74.0,194.0 38.0,225.0 30.0,279.0 122.0,294.0 183.0,282.0 183.0,258.0 138.0,254.0 126.0,166.0 183.0,164.0" fill="#b7917e" opacity="0.95" />
<polygon points="145.0,0.0 0.0,0.0 1.0,147.0 32.0,69.0 79.0,41.0 66.0,24.0" fill="#583c36" opacity="0.95" />
<polygon points="18.0,288.0 154.0,306.0 183.0,370.0 217.0,359.0 231.0,306.0 364.0,296.0 224.0,298.0 198.0,250.0 229.0,227.0 147.0,221.0 186.0,247.0 163.0,296.0" fill="#19191f" opacity="0.95" />
<polygon points="236.0,0.0 334.0,37.0 371.0,116.0 357.0,133.0 383.0,173.0 383.0,0.0" fill="#583c36" opacity="0.95" />
<polygon points="259.0,52.0 259.0,69.0 275.0,82.0 323.0,83.0 339.0,71.0 330.0,65.0 330.0,54.0 338.0,50.0 332.0,40.0 271.0,40.0" fill="#ed3344" />
<polygon points="199.0,138.0 201.0,165.0 255.0,166.0 238.0,254.0 201.0,258.0 200.0,281.0 223.0,294.0 339.0,282.0 324.0,257.0 338.0,238.0 297.0,192.0 307.0,178.0 256.0,146.0" fill="#b7917e" opacity="0.95" />
<polygon points="128.0,166.0 131.0,190.0 144.0,206.0 185.0,221.0 236.0,208.0 254.0,177.0 252.0,165.0 211.0,165.0 195.0,176.0 170.0,165.0" fill="#5deffd" opacity="0.95" />
<polygon points="148.0,59.0 147.0,76.0 182.0,97.0 210.0,94.0 235.0,72.0 231.0,53.0 209.0,38.0 171.0,39.0" fill="#ed3344" opacity="0.95" />
<polygon points="146.0,81.0 43.0,90.0 41.0,100.0 149.0,90.0" fill="#19191f" />
<polygon points="322.0,328.0 349.0,334.0 354.0,345.0 343.0,363.0 316.0,383.0 383.0,383.0 383.0,327.0" fill="#583c36" />
<polygon points="18.0,288.0 152.0,306.0 183.0,370.0 217.0,359.0 233.0,306.0 364.0,296.0 224.0,298.0 198.0,281.0 216.0,234.0 148.0,222.0 186.0,247.0 163.0,296.0" fill="#19191f" opacity="0.95" />
<polygon points="241.0,0.0 335.0,38.0 371.0,116.0 360.0,134.0 383.0,169.0 383.0,0.0" fill="#583c36" opacity="0.95" />
<polygon points="157.0,45.0 97.0,67.0 78.0,83.0 145.0,80.0 146.0,60.0" fill="#b7917e" />
<polygon points="19.0,341.0 31.0,365.0 59.0,383.0 174.0,383.0 156.0,344.0 146.0,358.0 105.0,351.0 97.0,336.0 120.0,327.0 52.0,329.0" fill="#876153" opacity="0.95" />
<polygon points="140.0,0.0 0.0,0.0 0.0,141.0 14.0,133.0 10.0,110.0 32.0,69.0 72.0,42.0 66.0,24.0" fill="#583c36" opacity="0.95" />
<polygon points="353.0,340.0 271.0,327.0 287.0,337.0 280.0,350.0 238.0,362.0 228.0,345.0 219.0,370.0 200.0,383.0 315.0,383.0" fill="#876153" opacity="0.95" />
<polygon points="128.0,167.0 131.0,190.0 144.0,206.0 185.0,221.0 236.0,208.0 254.0,177.0 251.0,165.0 211.0,165.0 195.0,176.0 170.0,165.0" fill="#5deffd" opacity="0.95" />
<polygon points="0.0,329.0 0.0,383.0 59.0,383.0 38.0,373.0 18.0,347.0 23.0,334.0 51.0,327.0" fill="#583c36" />
<polygon points="53.0,305.0 105.0,320.0 152.0,320.0 155.0,310.0" fill="#b7917e" />
<polygon points="229.0,337.0 238.0,361.0 261.0,358.0 280.0,348.0 284.0,340.0 281.0,333.0 232.0,328.0" fill="#b7917e" />
<polygon points="148.0,59.0 150.0,79.0 182.0,97.0 210.0,94.0 235.0,72.0 231.0,53.0 209.0,38.0 171.0,39.0" fill="#ed3344" opacity="0.95" />
<polygon points="131.0,194.0 144.0,218.0 179.0,234.0 218.0,230.0 251.0,198.0 223.0,216.0 185.0,222.0 151.0,212.0" fill="#093b66" />
<polygon points="259.0,52.0 259.0,70.0 275.0,82.0 323.0,83.0 338.0,74.0 330.0,66.0 330.0,54.0 337.0,51.0 331.0,40.0 271.0,40.0" fill="#ed3344" opacity="0.95" />
<polygon points="155.0,331.0 140.0,329.0 105.0,333.0 100.0,337.0 100.0,343.0 113.0,353.0 147.0,357.0 155.0,341.0" fill="#b7917e" />
<polygon points="333.0,328.0 349.0,334.0 354.0,345.0 343.0,363.0 316.0,383.0 383.0,383.0 383.0,327.0" fill="#583c36" opacity="0.95" />
<polygon points="159.0,99.0 187.0,117.0 187.0,173.0 197.0,174.0 197.0,117.0 222.0,100.0 202.0,108.0 190.0,101.0 184.0,109.0" fill="#19191f" />
<polygon points="150.0,86.0 145.0,81.0 44.0,90.0 41.0,100.0" fill="#19191f" opacity="0.95" />
<polygon points="259.0,52.0 259.0,69.0 275.0,82.0 323.0,83.0 338.0,74.0 330.0,65.0 330.0,55.0 337.0,50.0 331.0,40.0 271.0,40.0" fill="#ed3344" opacity="0.95" />
<polygon points="0.0,320.0 0.0,325.0 153.0,323.0" fill="#fcfbfa" />
<polygon points="133.0,200.0 148.0,221.0 179.0,234.0 218.0,230.0 249.0,203.0 185.0,222.0" fill="#093b66" opacity="0.95" />
<polygon points="259.0,73.0 266.0,88.0 276.0,93.0 323.0,93.0 337.0,79.0 323.0,84.0 282.0,84.0" fill="#7b0819" />
<polygon points="0.0,329.0 0.0,383.0 58.0,383.0 38.0,373.0 19.0,352.0 19.0,338.0 40.0,328.0" fill="#583c36" opacity="0.95" />
<polygon points="235.0,77.0 199.0,98.0 168.0,94.0 147.0,80.0 160.0,99.0 185.0,108.0 190.0,100.0 199.0,107.0 219.0,100.0" fill="#7b0819" />
<polygon points="233.0,89.0 262.0,89.0 267.0,96.0 284.0,100.0 320.0,99.0 328.0,94.0 276.0,94.0 259.0,80.0 235.0,81.0" fill="#19191f" />
<polygon points="135.0,204.0 148.0,221.0 179.0,234.0 218.0,230.0 247.0,207.0 185.0,222.0" fill="#093b66" opacity="0.95" />
<polygon points="150.0,86.0 145.0,81.0 97.0,89.0 79.0,85.0 44.0,90.0 41.0,100.0" fill="#19191f" opacity="0.95" />
<polygon points="161.0,100.0 166.0,109.0 187.0,116.0 187.0,173.0 195.0,174.0 197.0,116.0 220.0,102.0 200.0,108.0 191.0,101.0 184.0,109.0" fill="#19191f" opacity="0.95" />
<polygon points="168.0,104.0 166.0,109.0 187.0,117.0 187.0,172.0 194.0,174.0 197.0,117.0 217.0,105.0" fill="#19191f" opacity="0.95" />
<polygon points="259.0,75.0 266.0,88.0 276.0,93.0 323.0,93.0 335.0,84.0 333.0,80.0 323.0,84.0 282.0,84.0" fill="#7b0819" opacity="0.95" />
<polygon points="260.0,78.0 267.0,89.0 276.0,93.0 323.0,93.0 334.0,86.0 331.0,81.0 282.0,84.0 263.0,76.0" fill="#7b0819" opacity="0.95" />
<polygon points="231.0,84.0 195.0,101.0 200.0,107.0 209.0,105.0 225.0,96.0" fill="#7b0819" opacity="0.95" />
<polygon points="151.0,85.0 151.0,89.0 160.0,99.0 178.0,107.0 186.0,107.0 189.0,99.0 168.0,94.0" fill="#7b0819" opacity="0.95" />
<polygon points="231.0,86.0 228.0,84.0 210.0,95.0 198.0,98.0 198.0,105.0 202.0,107.0 219.0,100.0" fill="#7b0819" opacity="0.95" />
<polygon points="151.0,87.0 153.0,92.0 167.0,103.0 183.0,107.0 188.0,102.0 187.0,99.0 168.0,94.0 154.0,85.0" fill="#7b0819" opacity="0.95" />
<polygon points="333.0,53.0 331.0,55.0 331.0,63.0 334.0,67.0 336.0,67.0 337.0,66.0 337.0,54.0 336.0,53.0" fill="#fcfbfa" />
<polygon points="333.0,53.0 331.0,54.0 331.0,63.0 332.0,66.0 335.0,67.0 337.0,66.0 337.0,54.0" fill="#fcfbfa" opacity="0.95" />
<polygon points="236.0,322.0 236.0,324.0 238.0,325.0 250.0,325.0 252.0,324.0 252.0,322.0 250.0,321.0 238.0,321.0" fill="#fcfbfa" opacity="0.95" />
<polygon points="334.0,53.0 331.0,55.0 331.0,63.0 334.0,65.0 337.0,63.0 337.0,55.0" fill="#fcfbfa" opacity="0.95" />
<polygon points="140.0,322.0 140.0,324.0 142.0,325.0 147.0,325.0 149.0,324.0 149.0,322.0 147.0,321.0 142.0,321.0" fill="#fcfbfa" opacity="0.95" />
</svg>