<svg xmlns="http://www.w3.org/2000/svg" width="768" height="768" viewBox="0 0 384 384">
<rect width="384" height="384" fill="#8c6152"/>
<polygon points="0.0,0.0 0.0,383.0 383.0,383.0 383.0,0.0" fill="#834d41" />
<polygon points="0.0,0.0 0.0,383.0 383.0,383.0 383.0,0.0" fill="#834d41" opacity="0.95" />
<polygon points="0.0,0.0 0.0,383.0 383.0,383.0 383.0,0.0" fill="#834d41" opacity="0.95" />
<polygon points="349.0,66.0 309.0,143.0 283.0,144.0 224.0,219.0 173.0,229.0 135.0,199.0 124.0,168.0 183.0,157.0 275.0,26.0" fill="#834d41" />
<polygon points="319.0,125.0 252.0,78.0 189.0,169.0 126.0,172.0 152.0,217.0 201.0,228.0" fill="#4fd8cf" />
<polygon points="89.0,182.0 185.0,274.0 136.0,331.0 118.0,271.0 84.0,263.0 56.0,280.0 31.0,251.0" fill="#834d41" />
<polygon points="349.0,66.0 307.0,146.0 282.0,145.0 224.0,219.0 173.0,229.0 135.0,199.0 124.0,168.0 183.0,157.0 274.0,27.0" fill="#834d41" opacity="0.95" />
<polygon points="275.0,27.0 244.0,71.0 321.0,125.0 352.0,73.0 296.0,29.0" fill="#df8972" />
<polygon points="89.0,183.0 32.0,251.0 47.0,242.0 113.0,245.0 136.0,330.0 184.0,274.0" fill="#df8972" />
<polygon points="319.0,125.0 253.0,79.0 189.0,169.0 126.0,172.0 152.0,217.0 201.0,228.0" fill="#4fd8cf" opacity="0.95" />
<polygon points="349.0,66.0 309.0,143.0 282.0,145.0 224.0,219.0 173.0,229.0 135.0,199.0 124.0,168.0 183.0,157.0 274.0,27.0" fill="#834d41" opacity="0.95" />
<polygon points="319.0,125.0 253.0,79.0 189.0,169.0 126.0,172.0 152.0,217.0 201.0,228.0" fill="#4fd8cf" opacity="0.95" />
<polygon points="89.0,182.0 185.0,274.0 136.0,330.0 118.0,271.0 84.0,263.0 56.0,280.0 31.0,251.0" fill="#834d41" opacity="0.95" />
<polygon points="278.0,26.0 245.0,72.0 321.0,124.0 352.0,73.0 296.0,29.0" fill="#df8972" opacity="0.95" />
<polygon points="89.0,183.0 32.0,251.0 47.0,242.0 114.0,246.0 136.0,329.0 184.0,274.0" fill="#df8972" opacity="0.95" />
<polygon points="90.0,182.0 185.0,274.0 136.0,330.0 118.0,271.0 84.0,263.0 56.0,280.0 31.0,251.0" fill="#834d41" opacity="0.95" />
<polygon points="278.0,26.0 245.0,71.0 320.0,124.0 352.0,73.0 296.0,29.0" fill="#df8972" opacity="0.95" />
<polygon points="90.0,183.0 32.0,250.0 47.0,242.0 114.0,246.0 136.0,329.0 184.0,274.0" fill="#df8972" opacity="0.95" />
<polygon points="250.0,76.0 242.0,73.0 192.0,150.0 161.0,180.0 201.0,157.0" fill="#9ae7e3" />
<polygon points="36.0,253.0 56.0,279.0 83.0,262.0 102.0,262.0 119.0,269.0 113.0,246.0 47.0,243.0" fill="#f4c74a" />
<polygon points="36.0,253.0 57.0,279.0 83.0,262.0 119.0,268.0 112.0,246.0 47.0,243.0" fill="#f4c74a" opacity="0.95" />
<polygon points="250.0,76.0 240.0,76.0 192.0,150.0 159.0,179.0 201.0,157.0" fill="#9ae7e3" opacity="0.95" />
<polygon points="247.0,74.0 160.0,179.0 201.0,157.0" fill="#9ae7e3" opacity="0.95" />
<polygon points="277.0,113.0 278.0,120.0 239.0,180.0 222.0,197.0" fill="#4fd8cf" />
<polygon points="36.0,253.0 57.0,279.0 83.0,262.0 119.0,266.0 112.0,246.0 47.0,243.0" fill="#f4c74a" opacity="0.95" />
<polygon points="268.0,127.0 222.0,194.0 238.0,180.0" fill="#9ae7e3" />
<polygon points="277.0,116.0 276.0,117.0 275.0,116.0 274.0,117.0 274.0,119.0 272.0,121.0 273.0,123.0 271.0,125.0 272.0,126.0 278.0,118.0" fill="#9ae7e3" />
</svg>