<svg xmlns="http://www.w3.org/2000/svg" width="768" height="768" viewBox="0 0 384 384">
<rect width="384" height="384" fill="#8c6c66"/>
<polygon points="383.0,132.0 61.0,304.0 0.0,279.0 0.0,383.0 383.0,383.0" fill="#835248" />
<polygon points="0.0,213.0 195.0,122.0 211.0,16.0 286.0,27.0 287.0,0.0 0.0,0.0" fill="#835248" />
<polygon points="383.0,132.0 61.0,304.0 0.0,279.0 0.0,383.0 383.0,383.0" fill="#835248" opacity="0.95" />
<polygon points="383.0,132.0 61.0,304.0 0.0,279.0 0.0,383.0 383.0,383.0" fill="#835248" opacity="0.95" />
<polygon points="317.0,150.0 211.0,116.0 124.0,168.0 138.0,202.0 186.0,231.0" fill="#52bec9" />
<polygon points="0.0,213.0 195.0,122.0 211.0,16.0 284.0,26.0 287.0,0.0 0.0,0.0" fill="#835248" opacity="0.95" />
<polygon points="179.0,230.0 135.0,200.0 122.0,158.0 0.0,214.0 0.0,277.0 71.0,290.0" fill="#e6b4ac" />
<polygon points="0.0,213.0 193.0,123.0 211.0,16.0 283.0,26.0 287.0,0.0 0.0,0.0" fill="#835248" opacity="0.95" />
<polygon points="315.0,149.0 211.0,116.0 124.0,168.0 138.0,202.0 186.0,231.0" fill="#52bec9" opacity="0.95" />
<polygon points="211.0,19.0 204.0,83.0 234.0,98.0 262.0,91.0 314.0,129.0 332.0,57.0 306.0,62.0" fill="#c59182" />
<polygon points="176.0,229.0 135.0,200.0 120.0,159.0 0.0,214.0 0.0,277.0 71.0,290.0" fill="#e6b4ac" opacity="0.95" />
<polygon points="312.0,151.0 211.0,116.0 124.0,168.0 138.0,202.0 186.0,231.0" fill="#52bec9" opacity="0.95" />
<polygon points="175.0,229.0 135.0,200.0 120.0,159.0 0.0,214.0 0.0,277.0 71.0,290.0" fill="#e6b4ac" opacity="0.95" />
<polygon points="209.0,21.0 198.0,54.0 207.0,87.0 261.0,91.0 315.0,128.0 329.0,59.0" fill="#c59182" opacity="0.95" />
<polygon points="288.0,0.0 290.0,29.0 380.0,57.0 383.0,35.0 310.0,0.0" fill="#22273a" />
<polygon points="212.0,18.0 306.0,61.0 331.0,55.0 325.0,78.0 339.0,61.0 353.0,86.0 349.0,60.0 363.0,84.0 350.0,53.0 230.0,6.0" fill="#e6b4ac" />
<polygon points="208.0,23.0 198.0,67.0 209.0,88.0 261.0,91.0 316.0,125.0 334.0,78.0 327.0,60.0" fill="#c59182" opacity="0.95" />
<polygon points="213.0,225.0 72.0,292.0 18.0,287.0 59.0,300.0" fill="#2b1a1b" />
<polygon points="311.0,0.0 343.0,19.0 383.0,34.0 383.0,3.0 379.0,0.0" fill="#384967" />
<polygon points="383.0,120.0 254.0,202.0 377.0,135.0" fill="#503330" />
<polygon points="213.0,16.0 301.0,59.0 327.0,57.0 327.0,72.0 360.0,67.0 233.0,7.0" fill="#e6b4ac" opacity="0.95" />
<polygon points="288.0,0.0 290.0,29.0 383.0,52.0 383.0,35.0 310.0,0.0" fill="#22273a" opacity="0.95" />
<polygon points="227.0,107.0 309.0,136.0 318.0,133.0 243.0,102.0" fill="#085865" />
<polygon points="237.0,96.0 307.0,125.0 262.0,92.0 242.0,90.0" fill="#868679" />
<polygon points="213.0,16.0 310.0,62.0 351.0,58.0 230.0,6.0" fill="#e6b4ac" opacity="0.95" />
<polygon points="235.0,101.0 212.0,92.0 195.0,106.0 196.0,119.0" fill="#503330" />
<polygon points="288.0,0.0 290.0,29.0 383.0,52.0 383.0,35.0 310.0,0.0" fill="#22273a" opacity="0.95" />
<polygon points="309.0,36.0 353.0,53.0 363.0,69.0 362.0,95.0 383.0,102.0 375.0,55.0" fill="#2b1a1b" />
<polygon points="311.0,0.0 343.0,19.0 383.0,34.0 380.0,0.0" fill="#384967" opacity="0.95" />
<polygon points="219.0,112.0 304.0,142.0 325.0,134.0 309.0,137.0" fill="#0e7c84" />
<polygon points="368.0,116.0 349.0,116.0 319.0,147.0 338.0,139.0" fill="#52bec9" />
<polygon points="201.0,230.0 158.0,242.0 87.0,287.0" fill="#2b1a1b" opacity="0.95" />
<polygon points="383.0,120.0 264.0,197.0 382.0,132.0" fill="#503330" opacity="0.95" />
<polygon points="213.0,115.0 309.0,148.0 335.0,128.0 310.0,144.0" fill="#249fa6" />
<polygon points="228.0,106.0 317.0,134.0 243.0,102.0" fill="#085865" opacity="0.95" />
<polygon points="311.0,0.0 343.0,19.0 383.0,34.0 383.0,0.0" fill="#384967" opacity="0.95" />
<polygon points="237.0,96.0 304.0,124.0 261.0,92.0 242.0,90.0" fill="#868679" opacity="0.95" />
<polygon points="337.0,91.0 333.0,95.0 336.0,99.0 330.0,100.0 331.0,106.0 325.0,109.0 327.0,113.0 318.0,120.0 318.0,131.0 330.0,129.0 349.0,113.0 343.0,108.0 345.0,100.0" fill="#e6b4ac" />
<polygon points="194.0,233.0 158.0,242.0 97.0,281.0" fill="#2b1a1b" opacity="0.95" />
<polygon points="383.0,120.0 272.0,192.0 382.0,132.0" fill="#503330" opacity="0.95" />
<polygon points="234.0,100.0 212.0,92.0 195.0,106.0 196.0,119.0 208.0,116.0" fill="#503330" opacity="0.95" />
<polygon points="341.0,81.0 337.0,90.0 346.0,100.0 344.0,107.0 350.0,111.0 358.0,102.0 362.0,89.0 357.0,86.0 346.0,89.0" fill="#c59182" />
<polygon points="337.0,45.0 358.0,58.0 364.0,74.0 363.0,96.0 383.0,102.0 375.0,80.0 376.0,56.0" fill="#2b1a1b" opacity="0.95" />
<polygon points="221.0,110.0 304.0,142.0 324.0,135.0 309.0,137.0" fill="#0e7c84" opacity="0.95" />
<polygon points="230.0,106.0 276.0,126.0 316.0,134.0 243.0,102.0" fill="#085865" opacity="0.95" />
<polygon points="237.0,96.0 300.0,121.0 261.0,92.0 242.0,90.0" fill="#868679" opacity="0.95" />
<polygon points="337.0,92.0 321.0,115.0 322.0,120.0 316.0,127.0 319.0,131.0 333.0,127.0 348.0,114.0 343.0,108.0 345.0,100.0" fill="#e6b4ac" opacity="0.95" />
<polygon points="214.0,114.0 304.0,147.0 320.0,144.0" fill="#249fa6" opacity="0.95" />
<polygon points="366.0,115.0 353.0,114.0 346.0,118.0 320.0,147.0 366.0,120.0" fill="#52bec9" opacity="0.95" />
<polygon points="352.0,49.0 363.0,69.0 363.0,95.0 383.0,102.0 375.0,80.0 377.0,58.0" fill="#2b1a1b" opacity="0.95" />
<polygon points="383.0,51.0 377.0,68.0 377.0,82.0 383.0,95.0" fill="#384967" />
<polygon points="233.0,100.0 212.0,92.0 195.0,106.0 196.0,118.0 199.0,120.0" fill="#503330" opacity="0.95" />
<polygon points="223.0,111.0 304.0,142.0 318.0,140.0" fill="#0e7c84" opacity="0.95" />
<polygon points="21.0,288.0 42.0,302.0 75.0,294.0 73.0,291.0 56.0,293.0" fill="#2b1a1b" opacity="0.95" />
<polygon points="334.0,146.0 302.0,160.0 270.0,186.0" fill="#2b1a1b" opacity="0.95" />
<polygon points="366.0,116.0 349.0,116.0 324.0,143.0 327.0,145.0 363.0,122.0" fill="#52bec9" opacity="0.95" />
<polygon points="21.0,292.0 42.0,306.0 58.0,304.0 77.0,295.0 42.0,303.0" fill="#503330" />
<polygon points="341.0,81.0 337.0,90.0 346.0,100.0 345.0,108.0 350.0,110.0 358.0,102.0 362.0,90.0 357.0,87.0 347.0,88.0" fill="#c59182" opacity="0.95" />
<polygon points="341.0,82.0 337.0,90.0 346.0,100.0 345.0,108.0 350.0,110.0 358.0,102.0 362.0,90.0 348.0,88.0" fill="#c59182" opacity="0.95" />
<polygon points="25.0,290.0 32.0,298.0 42.0,302.0 55.0,301.0 65.0,297.0 62.0,293.0 28.0,288.0" fill="#2b1a1b" opacity="0.95" />
<polygon points="383.0,112.0 340.0,141.0 343.0,143.0 382.0,120.0" fill="#2b1a1b" opacity="0.95" />
<polygon points="349.0,114.0 364.0,113.0 370.0,118.0 376.0,114.0 374.0,112.0 362.0,110.0 356.0,107.0" fill="#249fa6" />
<polygon points="356.0,106.0 379.0,113.0 383.0,110.0 370.0,108.0 359.0,103.0" fill="#0e7c84" />
<polygon points="341.0,96.0 332.0,103.0 337.0,109.0 337.0,116.0 326.0,124.0 329.0,128.0 348.0,114.0 342.0,107.0 345.0,100.0" fill="#e6b4ac" opacity="0.95" />
<polygon points="383.0,53.0 381.0,54.0 377.0,68.0 377.0,82.0 380.0,91.0 383.0,93.0" fill="#384967" opacity="0.95" />
<polygon points="359.0,102.0 370.0,107.0 383.0,109.0 383.0,106.0 377.0,106.0 362.0,100.0" fill="#085865" />
<polygon points="383.0,56.0 380.0,58.0 377.0,68.0 377.0,82.0 380.0,91.0 383.0,93.0" fill="#384967" opacity="0.95" />
<polygon points="353.0,110.0 355.0,113.0 362.0,112.0 371.0,117.0 375.0,115.0 373.0,112.0 364.0,111.0 358.0,108.0" fill="#249fa6" opacity="0.95" />
<polygon points="347.0,75.0 345.0,78.0 345.0,82.0 346.0,83.0 350.0,81.0 349.0,79.0 349.0,77.0" fill="#22273a" />
<polygon points="324.0,78.0 326.0,80.0 325.0,81.0 325.0,83.0 323.0,85.0 321.0,83.0 321.0,81.0" fill="#c59182" />
<polygon points="354.0,66.0 353.0,68.0 354.0,69.0 354.0,71.0 356.0,75.0 357.0,74.0 357.0,71.0" fill="#503330" />
<polygon points="360.0,101.0 360.0,103.0 370.0,107.0 372.0,106.0 372.0,104.0 362.0,100.0" fill="#085865" opacity="0.95" />
<polygon points="357.0,105.0 357.0,107.0 359.0,108.0 365.0,109.0 366.0,110.0 368.0,109.0 368.0,107.0 361.0,104.0" fill="#0e7c84" opacity="0.95" />
</svg>