<svg xmlns="http://www.w3.org/2000/svg" width="768" height="768" viewBox="0 0 384 384">
<rect width="384" height="384" fill="#8a6f66"/>
<polygon points="156.0,283.0 174.0,167.0 183.0,217.0 254.0,219.0 266.0,165.0 275.0,216.0 303.0,187.0 291.0,139.0 153.0,140.0" fill="#92aab3" />
<polygon points="0.0,352.0 0.0,383.0 155.0,383.0 150.0,352.0" fill="#ceb1aa" />
<polygon points="350.0,56.0 335.0,10.0 329.0,46.0 303.0,51.0 282.0,21.0 209.0,8.0 51.0,73.0 178.0,60.0 216.0,11.0 255.0,60.0" fill="#b17259" />
<polygon points="22.0,73.0 209.0,7.0 282.0,20.0 303.0,50.0 317.0,32.0 328.0,46.0 335.0,9.0 350.0,44.0 350.0,12.0 110.0,0.0" fill="#855240" />
<polygon points="301.0,197.0 280.0,290.0 161.0,292.0 186.0,328.0 175.0,344.0 201.0,346.0 198.0,383.0 218.0,340.0 225.0,371.0 229.0,344.0 256.0,345.0 300.0,310.0" fill="#090c0c" />
<polygon points="156.0,283.0 174.0,167.0 182.0,214.0 253.0,219.0 265.0,165.0 275.0,216.0 303.0,187.0 292.0,140.0 153.0,139.0" fill="#92aab3" opacity="0.95" />
<polygon points="284.0,351.0 281.0,383.0 383.0,383.0 383.0,351.0" fill="#ceb1aa" />
<polygon points="0.0,237.0 0.0,261.0 139.0,261.0 137.0,238.0 57.0,237.0 53.0,232.0" fill="#c7886c" />
<polygon points="164.0,286.0 190.0,280.0 256.0,284.0 252.0,233.0 213.0,239.0 188.0,227.0 178.0,274.0" fill="#4d6673" />
<polygon points="0.0,326.0 0.0,331.0 15.0,331.0 12.0,351.0 150.0,350.0 148.0,329.0" fill="#c7886c" />
<polygon points="0.0,205.0 0.0,218.0 139.0,215.0 138.0,203.0" fill="#b17259" />
<polygon points="383.0,326.0 289.0,327.0 285.0,347.0 383.0,350.0" fill="#c7886c" />
<polygon points="154.0,279.0 176.0,166.0 183.0,214.0 260.0,215.0 266.0,166.0 275.0,216.0 303.0,187.0 293.0,141.0 154.0,139.0" fill="#92aab3" opacity="0.95" />
<polygon points="0.0,352.0 0.0,383.0 155.0,383.0 149.0,352.0" fill="#ceb1aa" opacity="0.95" />
<polygon points="331.0,48.0 209.0,8.0 59.0,72.0 178.0,60.0 188.0,23.0 216.0,11.0 255.0,60.0 329.0,70.0" fill="#b17259" opacity="0.95" />
<polygon points="154.0,131.0 157.0,138.0 291.0,137.0 287.0,124.0 157.0,124.0" fill="#dad7da" />
<polygon points="289.0,307.0 259.0,332.0 255.0,350.0 228.0,346.0 227.0,383.0 232.0,378.0 235.0,383.0 279.0,383.0" fill="#282324" />
<polygon points="142.0,200.0 140.0,296.0 158.0,328.0 150.0,333.0 156.0,383.0 197.0,383.0 200.0,346.0 171.0,348.0 185.0,328.0 171.0,325.0 147.0,272.0" fill="#282324" />
<polygon points="35.0,72.0 209.0,7.0 282.0,20.0 304.0,49.0 317.0,32.0 329.0,43.0 332.0,16.0 110.0,0.0 59.0,25.0" fill="#855240" opacity="0.95" />
<polygon points="306.0,241.0 308.0,263.0 383.0,262.0 383.0,238.0 335.0,233.0 331.0,239.0" fill="#c7886c" />
<polygon points="144.0,310.0 134.0,303.0 12.0,309.0 3.0,317.0 128.0,319.0" fill="#b17259" />
<polygon points="0.0,237.0 0.0,261.0 139.0,261.0 136.0,238.0" fill="#c7886c" opacity="0.95" />
<polygon points="303.0,200.0 289.0,211.0 281.0,289.0 162.0,292.0 186.0,328.0 176.0,344.0 201.0,346.0 198.0,383.0 216.0,349.0 225.0,365.0 230.0,344.0 256.0,345.0 300.0,310.0" fill="#090c0c" opacity="0.95" />
<polygon points="3.0,76.0 38.0,68.0 59.0,24.0 109.0,0.0 30.0,0.0 28.0,47.0 5.0,35.0 22.0,2.0 6.0,0.0 13.0,68.0" fill="#4d2f28" />
<polygon points="13.0,327.0 16.0,351.0 150.0,350.0 148.0,329.0" fill="#c7886c" opacity="0.95" />
<polygon points="8.0,109.0 97.0,97.0 183.0,100.0 184.0,85.0 68.0,85.0 73.0,93.0 30.0,95.0" fill="#4d2f28" />
<polygon points="202.0,76.0 187.0,55.0 192.0,78.0 11.0,80.0 187.0,84.0" fill="#ceb1aa" />
<polygon points="0.0,352.0 0.0,383.0 155.0,383.0 149.0,352.0" fill="#ceb1aa" opacity="0.95" />
<polygon points="284.0,351.0 281.0,383.0 383.0,383.0 383.0,351.0" fill="#ceb1aa" opacity="0.95" />
<polygon points="166.0,286.0 190.0,280.0 257.0,283.0 252.0,233.0 213.0,239.0 186.0,228.0 178.0,275.0" fill="#4d6673" opacity="0.95" />
<polygon points="0.0,163.0 87.0,160.0 103.0,153.0 138.0,150.0 0.0,151.0" fill="#b17259" />
<polygon points="219.0,12.0 193.0,20.0 183.0,44.0 189.0,55.0 198.0,53.0 204.0,77.0 230.0,76.0 236.0,57.0 210.0,50.0 235.0,48.0 245.0,56.0 238.0,49.0 246.0,45.0 242.0,30.0" fill="#dad7da" />
<polygon points="0.0,221.0 0.0,229.0 138.0,228.0 134.0,221.0" fill="#dad7da" />
<polygon points="0.0,199.0 137.0,199.0 140.0,192.0 0.0,190.0" fill="#4d2f28" />
<polygon points="38.0,71.0 209.0,7.0 282.0,20.0 304.0,48.0 335.0,19.0 349.0,38.0 350.0,12.0 108.0,0.0 51.0,33.0" fill="#855240" opacity="0.95" />
<polygon points="0.0,278.0 2.0,287.0 140.0,287.0 139.0,280.0" fill="#ceb1aa" />
<polygon points="0.0,135.0 0.0,145.0 137.0,142.0 133.0,137.0" fill="#4d2f28" />
<polygon points="0.0,289.0 0.0,299.0 140.0,298.0 139.0,291.0" fill="#4d2f28" />
<polygon points="302.0,202.0 289.0,211.0 281.0,289.0 162.0,294.0 184.0,328.0 178.0,343.0 200.0,347.0 198.0,383.0 216.0,352.0 228.0,361.0 230.0,344.0 255.0,345.0 300.0,309.0" fill="#090c0c" opacity="0.95" />
<polygon points="0.0,237.0 0.0,261.0 139.0,260.0 135.0,238.0" fill="#c7886c" opacity="0.95" />
<polygon points="200.0,13.0 113.0,34.0 64.0,70.0 178.0,60.0 186.0,26.0" fill="#b17259" opacity="0.95" />
<polygon points="288.0,314.0 259.0,332.0 257.0,349.0 229.0,346.0 225.0,380.0 279.0,383.0" fill="#282324" opacity="0.95" />
<polygon points="0.0,205.0 0.0,218.0 139.0,216.0 137.0,203.0" fill="#b17259" opacity="0.95" />
<polygon points="243.0,87.0 243.0,94.0 255.0,101.0 348.0,96.0 352.0,102.0 351.0,89.0" fill="#4d2f28" />
<polygon points="383.0,326.0 290.0,327.0 285.0,348.0 383.0,350.0" fill="#c7886c" opacity="0.95" />
<polygon points="168.0,284.0 257.0,283.0 252.0,234.0 213.0,239.0 187.0,228.0 178.0,274.0" fill="#4d6673" opacity="0.95" />
<polygon points="284.0,352.0 281.0,383.0 383.0,383.0 383.0,351.0" fill="#ceb1aa" opacity="0.95" />
<polygon points="305.0,211.0 307.0,219.0 383.0,219.0 383.0,206.0 308.0,206.0" fill="#b17259" />
<polygon points="143.0,205.0 140.0,296.0 156.0,327.0 156.0,383.0 197.0,383.0 200.0,346.0 174.0,347.0 185.0,328.0 172.0,325.0 147.0,273.0" fill="#282324" opacity="0.95" />
<polygon points="14.0,328.0 17.0,351.0 150.0,349.0 148.0,330.0 142.0,327.0" fill="#c7886c" opacity="0.95" />
<polygon points="383.0,304.0 305.0,306.0 299.0,313.0 291.0,312.0 289.0,317.0 383.0,316.0" fill="#b17259" />
<polygon points="0.0,267.0 0.0,272.0 139.0,271.0 124.0,263.0 121.0,268.0 86.0,262.0" fill="#ceb1aa" />
<polygon points="349.0,78.0 335.0,42.0 330.0,71.0 318.0,55.0 303.0,71.0 250.0,56.0 240.0,71.0" fill="#c7886c" />
<polygon points="187.0,101.0 204.0,122.0 212.0,110.0 219.0,108.0 230.0,123.0 250.0,102.0 226.0,93.0 203.0,94.0" fill="#3f464d" />
<polygon points="154.0,131.0 157.0,138.0 173.0,139.0 291.0,138.0 286.0,124.0 158.0,124.0" fill="#dad7da" opacity="0.95" />
<polygon points="304.0,152.0 304.0,161.0 310.0,163.0 383.0,164.0 383.0,152.0 377.0,151.0" fill="#b17259" />
<polygon points="233.0,59.0 232.0,76.0 242.0,84.0 351.0,85.0 344.0,78.0 315.0,73.0 242.0,76.0 240.0,60.0" fill="#ceb1aa" />
<polygon points="302.0,138.0 304.0,147.0 383.0,147.0 383.0,137.0" fill="#4d2f28" />
<polygon points="218.0,12.0 193.0,20.0 183.0,44.0 204.0,76.0 229.0,76.0 234.0,61.0 198.0,51.0 238.0,54.0 246.0,45.0 240.0,27.0" fill="#dad7da" opacity="0.95" />
<polygon points="180.0,98.0 82.0,99.0 47.0,109.0 169.0,103.0" fill="#855240" />
<polygon points="0.0,320.0 0.0,324.0 147.0,324.0" fill="#dad7da" />
<polygon points="352.0,0.0 352.0,78.0 360.0,63.0 369.0,86.0 352.0,91.0 352.0,110.0 383.0,112.0 383.0,52.0 374.0,81.0 368.0,44.0 383.0,38.0 355.0,34.0 362.0,25.0 383.0,29.0 371.0,27.0 368.0,0.0" fill="#282324" />
<polygon points="109.0,0.0 31.0,0.0 31.0,45.0 3.0,38.0 12.0,46.0 9.0,75.0 38.0,68.0 59.0,24.0" fill="#4d2f28" opacity="0.95" />
<polygon points="287.0,314.0 259.0,332.0 257.0,349.0 229.0,346.0 226.0,380.0 279.0,383.0" fill="#282324" opacity="0.95" />
<polygon points="9.0,109.0 187.0,93.0 183.0,85.0 76.0,85.0 69.0,94.0 20.0,98.0" fill="#4d2f28" opacity="0.95" />
<polygon points="0.0,317.0 26.0,306.0 140.0,301.0 0.0,300.0" fill="#855240" />
<polygon points="218.0,12.0 193.0,20.0 184.0,40.0 205.0,76.0 230.0,75.0 234.0,61.0 227.0,53.0 246.0,44.0 240.0,27.0" fill="#dad7da" opacity="0.95" />
<polygon points="306.0,223.0 307.0,231.0 383.0,230.0 383.0,222.0" fill="#dad7da" />
<polygon points="143.0,236.0 140.0,296.0 155.0,326.0 156.0,383.0 197.0,383.0 202.0,355.0 194.0,345.0 174.0,346.0 183.0,328.0 163.0,310.0" fill="#282324" opacity="0.95" />
<polygon points="154.0,131.0 157.0,138.0 291.0,137.0 285.0,124.0 159.0,124.0" fill="#dad7da" opacity="0.95" />
<polygon points="167.0,106.0 174.0,122.0 203.0,122.0 186.0,101.0 170.0,103.0" fill="#282324" />
<polygon points="0.0,221.0 0.0,229.0 138.0,228.0 134.0,221.0" fill="#dad7da" opacity="0.95" />
<polygon points="167.0,107.0 146.0,111.0 141.0,136.0 151.0,136.0 157.0,122.0 172.0,121.0" fill="#3f464d" />
<polygon points="279.0,217.0 188.0,221.0 213.0,229.0 255.0,222.0 261.0,238.0 273.0,238.0 262.0,229.0 274.0,227.0" fill="#090c0c" />
<polygon points="107.0,0.0 33.0,5.0 32.0,43.0 1.0,40.0 12.0,46.0 13.0,71.0 38.0,68.0 59.0,24.0" fill="#4d2f28" opacity="0.95" />
<polygon points="138.0,145.0 0.0,146.0 0.0,150.0" fill="#855240" />
<polygon points="0.0,204.0 138.0,201.0 0.0,200.0" fill="#855240" />
<polygon points="194.0,87.0 195.0,93.0 210.0,88.0 232.0,90.0 241.0,94.0 243.0,91.0 236.0,80.0 219.0,77.0 200.0,79.0" fill="#282324" />
<polygon points="352.0,0.0 353.0,31.0 371.0,33.0 353.0,37.0 353.0,71.0 363.0,67.0 369.0,88.0 352.0,91.0 352.0,110.0 383.0,112.0 383.0,52.0 370.0,78.0 376.0,30.0 368.0,0.0" fill="#282324" opacity="0.95" />
<polygon points="272.0,286.0 259.0,265.0 256.0,285.0 190.0,281.0 177.0,286.0" fill="#3f464d" />
<polygon points="147.0,208.0 145.0,229.0 149.0,273.0 152.0,269.0 153.0,214.0" fill="#090c0c" />
<polygon points="188.0,100.0 204.0,120.0 212.0,110.0 221.0,109.0 216.0,114.0 218.0,123.0 226.0,118.0 234.0,122.0 249.0,103.0 226.0,93.0" fill="#3f464d" opacity="0.95" />
<polygon points="23.0,0.0 6.0,35.0 28.0,46.0 32.0,38.0 26.0,40.0 16.0,33.0 26.0,18.0 32.0,25.0 30.0,1.0" fill="#855240" />
<polygon points="383.0,299.0 303.0,300.0 302.0,305.0 383.0,303.0" fill="#855240" />
<polygon points="176.0,98.0 82.0,99.0 49.0,109.0 169.0,103.0" fill="#855240" opacity="0.95" />
<polygon points="184.0,224.0 213.0,238.0 251.0,231.0 258.0,248.0 254.0,225.0 211.0,233.0" fill="#3f464d" />
<polygon points="273.0,106.0 267.0,121.0 287.0,122.0 292.0,135.0 299.0,136.0 301.0,134.0 295.0,115.0 281.0,112.0" fill="#3f464d" />
<polygon points="369.0,0.0 369.0,14.0 371.0,25.0 373.0,28.0 383.0,28.0 383.0,0.0" fill="#090c0c" />
<polygon points="284.0,225.0 277.0,234.0 273.0,252.0 275.0,262.0 279.0,255.0 282.0,257.0 282.0,270.0 287.0,248.0" fill="#4d6673" />
<polygon points="168.0,108.0 146.0,111.0 140.0,135.0 151.0,136.0 156.0,123.0 171.0,122.0" fill="#3f464d" opacity="0.95" />
<polygon points="183.0,220.0 169.0,220.0 169.0,224.0 178.0,229.0 171.0,237.0 173.0,243.0 166.0,248.0 166.0,255.0 172.0,261.0 180.0,243.0" fill="#090c0c" />
<polygon points="188.0,100.0 204.0,119.0 212.0,110.0 221.0,109.0 224.0,114.0 216.0,118.0 219.0,123.0 226.0,118.0 234.0,121.0 249.0,103.0 226.0,93.0" fill="#3f464d" opacity="0.95" />
<polygon points="383.0,41.0 372.0,41.0 369.0,44.0 368.0,58.0 371.0,78.0 373.0,80.0 375.0,79.0 379.0,54.0 383.0,51.0" fill="#090c0c" />
<polygon points="260.0,240.0 259.0,245.0 264.0,253.0 266.0,271.0 271.0,273.0 272.0,245.0 263.0,243.0" fill="#090c0c" />
<polygon points="360.0,64.0 357.0,80.0 352.0,87.0 361.0,92.0 367.0,89.0 368.0,86.0 364.0,81.0" fill="#3f464d" />
<polygon points="270.0,109.0 268.0,122.0 286.0,122.0 290.0,125.0 293.0,136.0 300.0,135.0 295.0,115.0" fill="#3f464d" opacity="0.95" />
<polygon points="279.0,256.0 274.0,265.0 274.0,273.0 277.0,281.0 281.0,284.0 281.0,257.0" fill="#92aab3" />
<polygon points="369.0,0.0 369.0,14.0 371.0,25.0 374.0,28.0 383.0,28.0 383.0,0.0" fill="#090c0c" opacity="0.95" />
<polygon points="283.0,226.0 277.0,234.0 273.0,255.0 276.0,257.0 285.0,254.0 287.0,248.0 286.0,228.0" fill="#4d6673" opacity="0.95" />
<polygon points="283.0,226.0 277.0,234.0 273.0,255.0 276.0,257.0 284.0,254.0 287.0,248.0 286.0,228.0" fill="#4d6673" opacity="0.95" />
<polygon points="279.0,258.0 274.0,265.0 274.0,273.0 277.0,281.0 280.0,283.0 282.0,282.0 282.0,276.0 280.0,275.0 281.0,259.0" fill="#92aab3" opacity="0.95" />
<polygon points="274.0,275.0 272.0,278.0 272.0,281.0 271.0,282.0 274.0,286.0 279.0,286.0 280.0,285.0 276.0,281.0 275.0,276.0" fill="#4d6673" />
<polygon points="159.0,223.0 162.0,226.0 160.0,228.0 158.0,228.0 156.0,226.0" fill="#92aab3" />
<polygon points="278.0,261.0 274.0,265.0 274.0,273.0 276.0,275.0 276.0,279.0 279.0,281.0 282.0,279.0 282.0,277.0 280.0,275.0 281.0,263.0" fill="#92aab3" opacity="0.95" />
<polygon points="274.0,279.0 272.0,280.0 272.0,285.0 274.0,286.0 276.0,286.0 278.0,285.0 278.0,283.0 276.0,281.0 276.0,280.0" fill="#4d6673" opacity="0.95" />
</svg>