<svg xmlns="http://www.w3.org/2000/svg" width="768" height="768" viewBox="0 0 384 384">
<rect width="384" height="384" fill="#8b665f"/>
<polygon points="306.0,148.0 212.0,116.0 125.0,175.0 182.0,240.0" fill="#8ec5ca" />
<polygon points="0.0,180.0 0.0,281.0 133.0,275.0 77.0,207.0" fill="#e1b4a4" />
<polygon points="0.0,331.0 0.0,383.0 153.0,383.0 157.0,332.0" fill="#704238" />
<polygon points="383.0,383.0 383.0,327.0 198.0,333.0 209.0,354.0 210.0,383.0" fill="#704238" />
<polygon points="0.0,133.0 113.0,173.0 173.0,264.0 284.0,242.0 308.0,273.0 11.0,286.0 369.0,271.0 360.0,178.0 192.0,262.0 93.0,136.0 137.0,130.0" fill="#9d6959" />
<polygon points="0.0,146.0 0.0,179.0 77.0,206.0 134.0,274.0 37.0,283.0 307.0,274.0 284.0,243.0 173.0,265.0 113.0,174.0" fill="#bc907f" />
<polygon points="305.0,148.0 212.0,116.0 125.0,175.0 182.0,240.0" fill="#8ec5ca" opacity="0.95" />
<polygon points="383.0,280.0 0.0,290.0 0.0,304.0 383.0,303.0" fill="#261b1e" />
<polygon points="0.0,88.0 0.0,110.0 304.0,126.0 312.0,152.0 184.0,253.0 355.0,138.0 329.0,126.0 383.0,124.0" fill="#261b1e" />
<polygon points="0.0,180.0 0.0,281.0 132.0,275.0 77.0,207.0" fill="#e1b4a4" opacity="0.95" />
<polygon points="304.0,149.0 212.0,116.0 125.0,175.0 182.0,240.0" fill="#8ec5ca" opacity="0.95" />
<polygon points="383.0,132.0 198.0,253.0 135.0,201.0 194.0,261.0 360.0,177.0 361.0,278.0 0.0,289.0 373.0,284.0" fill="#704238" />
<polygon points="0.0,331.0 0.0,383.0 153.0,383.0 156.0,332.0" fill="#704238" opacity="0.95" />
<polygon points="0.0,133.0 113.0,173.0 176.0,265.0 284.0,242.0 307.0,275.0 274.0,284.0 369.0,271.0 359.0,178.0 192.0,262.0 135.0,204.0 135.0,145.0" fill="#9d6959" opacity="0.95" />
<polygon points="0.0,88.0 0.0,110.0 304.0,126.0 312.0,152.0 184.0,253.0 383.0,124.0" fill="#261b1e" opacity="0.95" />
<polygon points="0.0,19.0 2.0,39.0 110.0,39.0 146.0,63.0 148.0,18.0" fill="#9d6959" />
<polygon points="383.0,327.0 201.0,332.0 205.0,352.0 198.0,359.0 210.0,363.0 210.0,383.0 383.0,383.0" fill="#704238" opacity="0.95" />
<polygon points="0.0,146.0 0.0,179.0 77.0,206.0 131.0,268.0 100.0,283.0 306.0,275.0 284.0,243.0 173.0,265.0 113.0,174.0" fill="#bc907f" opacity="0.95" />
<polygon points="0.0,180.0 0.0,281.0 132.0,275.0 77.0,207.0" fill="#e1b4a4" opacity="0.95" />
<polygon points="247.0,0.0 350.0,16.0 344.0,78.0 383.0,66.0 383.0,0.0" fill="#261b1e" />
<polygon points="0.0,331.0 0.0,383.0 153.0,383.0 155.0,332.0" fill="#704238" opacity="0.95" />
<polygon points="383.0,280.0 0.0,290.0 0.0,304.0 383.0,303.0" fill="#261b1e" opacity="0.95" />
<polygon points="0.0,18.0 119.0,15.0 151.0,20.0 155.0,0.0 0.0,0.0" fill="#704238" />
<polygon points="0.0,133.0 113.0,173.0 176.0,265.0 284.0,242.0 298.0,283.0 369.0,271.0 359.0,178.0 192.0,262.0 135.0,204.0 135.0,145.0" fill="#9d6959" opacity="0.95" />
<polygon points="383.0,327.0 202.0,332.0 198.0,359.0 210.0,363.0 210.0,383.0 383.0,383.0" fill="#704238" opacity="0.95" />
<polygon points="0.0,146.0 0.0,179.0 95.0,220.0 130.0,283.0 306.0,274.0 284.0,243.0 173.0,265.0 113.0,174.0" fill="#bc907f" opacity="0.95" />
<polygon points="156.0,53.0 163.0,82.0 317.0,116.0 336.0,107.0 337.0,92.0 320.0,111.0 255.0,93.0 257.0,76.0 225.0,60.0" fill="#f49083" />
<polygon points="383.0,132.0 204.0,250.0 165.0,245.0 204.0,259.0 348.0,174.0 361.0,278.0 53.0,290.0 373.0,284.0" fill="#704238" opacity="0.95" />
<polygon points="38.0,73.0 91.0,70.0 141.0,82.0 144.0,68.0 135.0,52.0 113.0,41.0 52.0,38.0 68.0,58.0" fill="#bc907f" />
<polygon points="383.0,280.0 0.0,290.0 0.0,304.0 383.0,303.0" fill="#261b1e" opacity="0.95" />
<polygon points="155.0,3.0 316.0,30.0 327.0,59.0 341.0,53.0 348.0,29.0 352.0,38.0 349.0,18.0 223.0,0.0" fill="#d83740" />
<polygon points="0.0,75.0 4.0,71.0 53.0,67.0 64.0,52.0 55.0,51.0 53.0,43.0 0.0,41.0" fill="#261b1e" />
<polygon points="158.0,9.0 164.0,27.0 216.0,29.0 172.0,36.0 279.0,48.0 276.0,59.0 321.0,63.0 280.0,49.0 293.0,37.0 273.0,26.0" fill="#f49083" />
<polygon points="158.0,314.0 145.0,307.0 84.0,308.0 0.0,319.0 157.0,320.0" fill="#9d6959" />
<polygon points="0.0,19.0 1.0,38.0 110.0,39.0 146.0,63.0 147.0,18.0" fill="#9d6959" opacity="0.95" />
<polygon points="0.0,83.0 136.0,78.0 65.0,71.0 5.0,76.0" fill="#e1b4a4" />
<polygon points="156.0,53.0 154.0,71.0 163.0,82.0 256.0,95.0 252.0,71.0 214.0,57.0" fill="#f49083" opacity="0.95" />
<polygon points="255.0,72.0 259.0,78.0 255.0,92.0 314.0,107.0 306.0,102.0 293.0,71.0 266.0,62.0" fill="#f06d67" />
<polygon points="222.0,146.0 240.0,170.0 240.0,174.0 224.0,186.0 200.0,162.0" fill="#8ec5ca" />
<polygon points="213.0,105.0 154.0,99.0 141.0,86.0 0.0,88.0 0.0,110.0 192.0,114.0" fill="#261b1e" opacity="0.95" />
<polygon points="251.0,0.0 350.0,16.0 349.0,73.0 383.0,66.0 383.0,0.0" fill="#261b1e" opacity="0.95" />
<polygon points="194.0,322.0 0.0,320.0 0.0,325.0" fill="#f5e5db" />
<polygon points="155.0,8.0 276.0,26.0 294.0,37.0 280.0,48.0 330.0,68.0 319.0,32.0" fill="#f06d67" />
<polygon points="198.0,319.0 317.0,317.0 238.0,308.0 207.0,311.0" fill="#9d6959" />
<polygon points="343.0,84.0 339.0,114.0 383.0,112.0 383.0,86.0 351.0,86.0 345.0,82.0" fill="#261b1e" />
<polygon points="285.0,66.0 301.0,78.0 308.0,103.0 319.0,108.0 330.0,106.0 336.0,75.0" fill="#d83740" />
<polygon points="0.0,112.0 0.0,117.0 139.0,116.0 136.0,111.0" fill="#8ec5ca" />
<polygon points="52.0,39.0 69.0,53.0 58.0,71.0 143.0,80.0 140.0,56.0 124.0,45.0" fill="#bc907f" opacity="0.95" />
<polygon points="0.0,19.0 1.0,38.0 103.0,38.0 148.0,54.0 147.0,18.0" fill="#9d6959" opacity="0.95" />
<polygon points="156.0,0.0 319.0,31.0 326.0,58.0 353.0,30.0 350.0,19.0" fill="#d83740" opacity="0.95" />
<polygon points="383.0,132.0 204.0,250.0 166.0,249.0 204.0,259.0 348.0,174.0 375.0,231.0 369.0,273.0 344.0,284.0 383.0,279.0" fill="#704238" opacity="0.95" />
<polygon points="151.0,51.0 145.0,78.0 153.0,87.0 272.0,103.0 163.0,83.0" fill="#e1b4a4" />
<polygon points="159.0,327.0 160.0,344.0 163.0,350.0 187.0,353.0 195.0,350.0 194.0,326.0 164.0,325.0" fill="#163342" />
<polygon points="156.0,53.0 154.0,71.0 163.0,82.0 247.0,95.0 258.0,83.0 253.0,72.0 222.0,59.0 168.0,49.0" fill="#f49083" opacity="0.95" />
<polygon points="162.0,12.0 164.0,27.0 172.0,20.0 213.0,28.0 175.0,34.0 270.0,47.0 293.0,39.0 269.0,25.0" fill="#f49083" opacity="0.95" />
<polygon points="55.0,40.0 69.0,53.0 62.0,71.0 143.0,77.0 141.0,58.0 124.0,45.0" fill="#bc907f" opacity="0.95" />
<polygon points="156.0,0.0 319.0,31.0 326.0,58.0 353.0,27.0 232.0,0.0" fill="#d83740" opacity="0.95" />
<polygon points="158.0,314.0 151.0,308.0 118.0,307.0 4.0,318.0 156.0,320.0" fill="#9d6959" opacity="0.95" />
<polygon points="383.0,319.0 199.0,328.0 383.0,324.0" fill="#e1b4a4" />
<polygon points="209.0,116.0 184.0,122.0 126.0,162.0" fill="#309ba6" />
<polygon points="255.0,72.0 259.0,78.0 255.0,92.0 307.0,105.0 300.0,78.0 293.0,71.0 267.0,62.0" fill="#f06d67" opacity="0.95" />
<polygon points="172.0,42.0 225.0,50.0 232.0,47.0 230.0,41.0 175.0,35.0" fill="#e1b4a4" />
<polygon points="0.0,83.0 122.0,82.0 132.0,77.0 65.0,71.0 5.0,76.0" fill="#e1b4a4" opacity="0.95" />
<polygon points="162.0,13.0 162.0,26.0 205.0,24.0 207.0,38.0 270.0,46.0 293.0,39.0 264.0,24.0" fill="#f49083" opacity="0.95" />
<polygon points="220.0,147.0 225.0,149.0 240.0,170.0 236.0,178.0 223.0,186.0 201.0,163.0 204.0,157.0" fill="#8ec5ca" opacity="0.95" />
<polygon points="0.0,112.0 0.0,117.0 139.0,116.0 136.0,111.0" fill="#8ec5ca" opacity="0.95" />
<polygon points="171.0,8.0 276.0,26.0 294.0,37.0 282.0,48.0 329.0,65.0 319.0,32.0" fill="#f06d67" opacity="0.95" />
<polygon points="290.0,67.0 301.0,78.0 307.0,102.0 319.0,108.0 329.0,107.0 336.0,76.0" fill="#d83740" opacity="0.95" />
<polygon points="199.0,315.0 201.0,320.0 308.0,318.0 290.0,311.0 218.0,309.0" fill="#9d6959" opacity="0.95" />
<polygon points="0.0,320.0 0.0,325.0 156.0,325.0" fill="#f5e5db" opacity="0.95" />
<polygon points="159.0,327.0 161.0,349.0 187.0,353.0 195.0,351.0 195.0,327.0 185.0,325.0" fill="#163342" opacity="0.95" />
<polygon points="220.0,147.0 240.0,170.0 236.0,178.0 223.0,186.0 201.0,163.0 204.0,157.0" fill="#8ec5ca" opacity="0.95" />
<polygon points="187.0,119.0 213.0,114.0 310.0,134.0 212.0,112.0" fill="#146a7d" />
<polygon points="257.0,73.0 256.0,92.0 299.0,105.0 306.0,103.0 300.0,78.0 293.0,71.0 268.0,62.0" fill="#f06d67" opacity="0.95" />
<polygon points="383.0,67.0 368.0,74.0 353.0,74.0 345.0,81.0 351.0,85.0 383.0,85.0" fill="#163342" />
<polygon points="147.0,83.0 159.0,89.0 268.0,103.0 163.0,83.0 151.0,63.0" fill="#e1b4a4" opacity="0.95" />
<polygon points="218.0,118.0 246.0,135.0 260.0,131.0 272.0,144.0 312.0,148.0 303.0,134.0" fill="#309ba6" opacity="0.95" />
<polygon points="129.0,77.0 65.0,71.0 5.0,76.0 0.0,82.0 122.0,82.0" fill="#e1b4a4" opacity="0.95" />
<polygon points="234.0,50.0 256.0,54.0 260.0,52.0 262.0,44.0 237.0,40.0" fill="#57575b" />
<polygon points="295.0,68.0 307.0,102.0 319.0,108.0 329.0,107.0 336.0,76.0" fill="#d83740" opacity="0.95" />
<polygon points="232.0,161.0 216.0,171.0 217.0,176.0 222.0,182.0 239.0,171.0" fill="#57575b" />
<polygon points="159.0,310.0 160.0,315.0 169.0,316.0 196.0,314.0 196.0,307.0 194.0,305.0 161.0,305.0" fill="#163342" />
<polygon points="17.0,113.0 25.0,118.0 139.0,115.0 136.0,111.0" fill="#8ec5ca" opacity="0.95" />
<polygon points="159.0,328.0 162.0,349.0 187.0,353.0 195.0,350.0 194.0,327.0 164.0,325.0" fill="#163342" opacity="0.95" />
<polygon points="224.0,121.0 246.0,135.0 259.0,132.0 272.0,144.0 312.0,147.0 302.0,134.0" fill="#309ba6" opacity="0.95" />
<polygon points="0.0,130.0 83.0,128.0 0.0,127.0" fill="#f5e5db" />
<polygon points="206.0,116.0 184.0,122.0 134.0,159.0" fill="#309ba6" opacity="0.95" />
<polygon points="271.0,22.0 294.0,37.0 287.0,49.0 313.0,56.0 320.0,51.0 321.0,33.0" fill="#f06d67" opacity="0.95" />
<polygon points="233.0,63.0 237.0,66.0 240.0,65.0 255.0,68.0 257.0,66.0 258.0,59.0 236.0,55.0" fill="#57575b" />
<polygon points="220.0,148.0 203.0,159.0 207.0,165.0 224.0,153.0" fill="#57575b" />
<polygon points="174.0,50.0 222.0,58.0 230.0,66.0 232.0,61.0 228.0,55.0" fill="#f06d67" />
<polygon points="236.0,41.0 235.0,50.0 239.0,54.0 235.0,56.0 234.0,64.0 256.0,67.0 258.0,59.0 254.0,55.0 260.0,52.0 261.0,44.0" fill="#57575b" opacity="0.95" />
<polygon points="280.0,57.0 282.0,60.0 315.0,66.0 321.0,63.0 315.0,57.0 288.0,50.0" fill="#f49083" opacity="0.95" />
<polygon points="383.0,67.0 368.0,74.0 354.0,74.0 348.0,77.0 346.0,82.0 351.0,85.0 383.0,85.0" fill="#163342" opacity="0.95" />
<polygon points="237.0,41.0 235.0,49.0 239.0,55.0 234.0,59.0 234.0,64.0 256.0,67.0 255.0,55.0 261.0,50.0 261.0,45.0 257.0,42.0" fill="#57575b" opacity="0.95" />
<polygon points="383.0,113.0 375.0,115.0 346.0,115.0 339.0,117.0 341.0,119.0 383.0,118.0" fill="#146a7d" />
<polygon points="272.0,105.0 317.0,116.0 328.0,116.0 335.0,109.0 333.0,105.0 325.0,112.0 277.0,100.0" fill="#f49083" opacity="0.95" />
<polygon points="331.0,128.0 332.0,130.0 347.0,131.0 368.0,130.0 365.0,127.0 332.0,127.0" fill="#57575b" />
<polygon points="159.0,310.0 159.0,314.0 169.0,316.0 196.0,314.0 196.0,307.0 193.0,305.0 162.0,305.0" fill="#163342" opacity="0.95" />
<polygon points="231.0,162.0 216.0,171.0 219.0,179.0 223.0,181.0 238.0,172.0 236.0,166.0" fill="#57575b" opacity="0.95" />
<polygon points="239.0,115.0 255.0,122.0 304.0,129.0" fill="#163342" opacity="0.95" />
<polygon points="149.0,213.0 151.0,219.0 167.0,239.0 155.0,217.0" fill="#309ba6" />
<polygon points="198.0,323.0 200.0,326.0 263.0,324.0 261.0,321.0" fill="#f5e5db" opacity="0.95" />
<polygon points="334.0,55.0 331.0,59.0 332.0,66.0 339.0,69.0 343.0,66.0 341.0,62.0 342.0,61.0 338.0,55.0" fill="#f5e5db" />
<polygon points="282.0,56.0 287.0,61.0 317.0,66.0 321.0,63.0 315.0,57.0 288.0,50.0" fill="#f49083" opacity="0.95" />
<polygon points="383.0,67.0 368.0,74.0 354.0,74.0 348.0,77.0 346.0,82.0 351.0,85.0 383.0,85.0" fill="#163342" opacity="0.95" />
<polygon points="147.0,89.0 152.0,96.0 200.0,100.0 198.0,97.0" fill="#7d1020" opacity="0.95" />
<polygon points="245.0,121.0 261.0,128.0 301.0,133.0 273.0,124.0" fill="#146a7d" opacity="0.95" />
<polygon points="273.0,104.0 280.0,109.0 317.0,116.0 322.0,114.0 319.0,110.0 277.0,100.0" fill="#f49083" opacity="0.95" />
<polygon points="131.0,185.0 130.0,186.0 140.0,202.0 143.0,198.0 142.0,194.0 134.0,186.0" fill="#309ba6" />
<polygon points="231.0,162.0 216.0,171.0 217.0,176.0 223.0,181.0 238.0,171.0 236.0,166.0" fill="#57575b" opacity="0.95" />
<polygon points="159.0,310.0 159.0,313.0 162.0,315.0 191.0,315.0 196.0,312.0 196.0,307.0 193.0,305.0 163.0,305.0" fill="#163342" opacity="0.95" />
<polygon points="222.0,150.0 219.0,149.0 204.0,158.0 205.0,163.0 208.0,164.0 223.0,154.0" fill="#57575b" opacity="0.95" />
<polygon points="163.0,115.0 152.0,113.0 145.0,115.0 141.0,114.0 140.0,116.0 141.0,117.0 162.0,117.0" fill="#309ba6" />
<polygon points="227.0,158.0 224.0,154.0 215.0,161.0 216.0,162.0 220.0,162.0 221.0,163.0" fill="#bc907f" />
<polygon points="157.0,36.0 160.0,41.0 166.0,41.0 169.0,39.0 168.0,36.0 164.0,37.0 161.0,32.0" fill="#f5e5db" />
<polygon points="160.0,321.0 162.0,324.0 169.0,322.0 179.0,324.0 193.0,323.0 193.0,321.0 185.0,319.0" fill="#f5e5db" opacity="0.95" />
<polygon points="335.0,55.0 331.0,59.0 332.0,66.0 339.0,69.0 343.0,66.0 343.0,63.0 341.0,62.0 339.0,56.0" fill="#f5e5db" opacity="0.95" />
<polygon points="383.0,113.0 371.0,117.0 368.0,115.0 346.0,115.0 344.0,118.0 368.0,119.0 373.0,116.0 383.0,118.0" fill="#146a7d" opacity="0.95" />
<polygon points="164.0,115.0 164.0,117.0 165.0,118.0 178.0,118.0 179.0,117.0 178.0,115.0 174.0,115.0 173.0,114.0 165.0,114.0" fill="#146a7d" />
<polygon points="163.0,369.0 164.0,370.0 184.0,370.0 185.0,369.0 184.0,368.0 164.0,368.0" fill="#f5e5db" />
<polygon points="335.0,55.0 331.0,59.0 332.0,66.0 339.0,69.0 343.0,66.0 343.0,64.0 340.0,58.0" fill="#f5e5db" opacity="0.95" />
<polygon points="239.0,174.0 238.0,173.0 234.0,177.0 223.0,184.0 224.0,185.0" fill="#309ba6" />
<polygon points="217.0,55.0 217.0,57.0 222.0,58.0 229.0,63.0 232.0,61.0 232.0,57.0 228.0,55.0 220.0,54.0" fill="#f06d67" opacity="0.95" />
<polygon points="132.0,188.0 132.0,190.0 136.0,195.0 137.0,198.0 140.0,200.0 142.0,199.0 142.0,194.0 136.0,188.0 134.0,187.0" fill="#309ba6" opacity="0.95" />
<polygon points="183.0,51.0 183.0,53.0 185.0,54.0 198.0,54.0 201.0,56.0 207.0,55.0 207.0,53.0 205.0,52.0 200.0,53.0 197.0,51.0" fill="#f06d67" opacity="0.95" />
<polygon points="226.0,0.0 228.0,2.0 235.0,2.0 236.0,3.0 242.0,3.0 243.0,4.0 247.0,3.0 247.0,0.0" fill="#7d1020" opacity="0.95" />
<polygon points="0.0,282.0 0.0,284.0 10.0,284.0 11.0,283.0 10.0,282.0" fill="#bc907f" />
<polygon points="162.0,237.0 168.0,243.0 170.0,244.0 172.0,243.0 170.0,241.0 167.0,240.0 163.0,236.0" fill="#146a7d" />
<polygon points="14.0,38.0 12.0,36.0 9.0,36.0 8.0,37.0 5.0,37.0 3.0,39.0 4.0,40.0 7.0,40.0 8.0,39.0 13.0,39.0" fill="#bc907f" />
<polygon points="171.0,21.0 170.0,22.0 170.0,25.0 168.0,27.0 169.0,28.0 171.0,26.0 174.0,28.0 175.0,27.0 174.0,26.0 177.0,23.0 176.0,22.0 173.0,22.0" fill="#bc907f" />
<polygon points="337.0,109.0 336.0,111.0 330.0,117.0 331.0,118.0 336.0,115.0 337.0,111.0 338.0,110.0" fill="#d83740" />
<polygon points="164.0,115.0 164.0,117.0 166.0,118.0 173.0,118.0 175.0,117.0 175.0,115.0 173.0,114.0 166.0,114.0" fill="#146a7d" opacity="0.95" />
<polygon points="326.0,59.0 323.0,60.0 321.0,64.0 321.0,66.0 324.0,68.0 327.0,67.0 329.0,65.0 329.0,61.0" fill="#f06d67" opacity="0.95" />
<polygon points="264.0,61.0 263.0,61.0 261.0,64.0 261.0,66.0 260.0,67.0 261.0,69.0 265.0,62.0" fill="#d83740" />
<polygon points="233.0,0.0 233.0,1.0 236.0,3.0 242.0,3.0 245.0,1.0 245.0,0.0" fill="#7d1020" opacity="0.95" />
<polygon points="209.0,100.0 209.0,102.0 211.0,103.0 213.0,102.0 216.0,104.0 226.0,104.0 226.0,102.0 224.0,101.0 221.0,102.0 218.0,100.0" fill="#7d1020" opacity="0.95" />
<polygon points="321.0,14.0 321.0,16.0 323.0,17.0 327.0,16.0 330.0,18.0 338.0,18.0 338.0,16.0 336.0,15.0 333.0,16.0 330.0,14.0" fill="#7d1020" opacity="0.95" />
<polygon points="153.0,90.0 150.0,92.0 150.0,94.0 153.0,96.0 156.0,94.0 156.0,92.0" fill="#7d1020" opacity="0.95" />
<polygon points="311.0,137.0 218.0,116.0 307.0,149.0 176.0,243.0" fill="#309ba6" />
</svg>