<svg xmlns="http://www.w3.org/2000/svg" width="768" height="768" viewBox="0 0 384 384">
<rect width="384" height="384" fill="#896c61"/>
<polygon points="0.0,191.0 38.0,383.0 308.0,237.0 178.0,271.0 96.0,178.0" fill="#c3a4a0" />
<polygon points="278.0,91.0 324.0,177.0 175.0,261.0 102.0,178.0 159.0,38.0 0.0,80.0 141.0,79.0 0.0,116.0 0.0,190.0 95.0,176.0 178.0,270.0 309.0,236.0 55.0,383.0 383.0,228.0" fill="#a57062" />
<polygon points="0.0,79.0 215.0,10.0 72.0,0.0 0.0,11.0" fill="#725147" />
<polygon points="0.0,191.0 38.0,383.0 308.0,238.0 178.0,271.0 96.0,178.0" fill="#c3a4a0" opacity="0.95" />
<polygon points="0.0,191.0 38.0,383.0 306.0,240.0 178.0,271.0 96.0,178.0" fill="#c3a4a0" opacity="0.95" />
<polygon points="383.0,242.0 110.0,383.0 382.0,275.0" fill="#1b0f0a" />
<polygon points="235.0,2.0 267.0,56.0 360.0,137.0 343.0,171.0 383.0,220.0 372.0,99.0 287.0,0.0" fill="#b34d24" />
<polygon points="265.0,79.0 104.0,175.0 134.0,207.0 116.0,173.0 231.0,112.0 223.0,163.0 155.0,231.0 193.0,232.0 310.0,151.0" fill="#25989e" />
<polygon points="229.0,111.0 113.0,177.0 146.0,221.0 132.0,196.0 161.0,227.0 222.0,163.0" fill="#82bac4" />
<polygon points="383.0,297.0 283.0,319.0 161.0,383.0 305.0,324.0 264.0,383.0 350.0,383.0" fill="#725147" />
<polygon points="138.0,56.0 167.0,81.0 145.0,144.0 264.0,77.0 336.0,141.0 329.0,188.0 378.0,215.0 342.0,171.0 359.0,137.0 233.0,4.0 157.0,41.0 186.0,82.0" fill="#cc795b" />
<polygon points="0.0,79.0 209.0,11.0 164.0,0.0 0.0,11.0" fill="#725147" opacity="0.95" />
<polygon points="301.0,0.0 350.0,54.0 383.0,102.0 383.0,0.0" fill="#43322b" />
<polygon points="156.0,39.0 0.0,80.0 19.0,99.0 141.0,77.0 0.0,116.0 0.0,190.0 78.0,187.0 146.0,148.0 165.0,78.0 136.0,57.0" fill="#a57062" opacity="0.95" />
<polygon points="230.0,112.0 115.0,181.0 166.0,223.0 221.0,164.0" fill="#82bac4" opacity="0.95" />
<polygon points="237.0,0.0 272.0,62.0 360.0,137.0 343.0,171.0 383.0,220.0 383.0,115.0 288.0,0.0" fill="#b34d24" opacity="0.95" />
<polygon points="383.0,242.0 110.0,383.0 382.0,275.0" fill="#1b0f0a" opacity="0.95" />
<polygon points="308.0,151.0 263.0,78.0 105.0,176.0 131.0,202.0 116.0,173.0 230.0,111.0 223.0,163.0 163.0,226.0 180.0,237.0" fill="#25989e" opacity="0.95" />
<polygon points="157.0,42.0 0.0,80.0 18.0,99.0 141.0,77.0 0.0,116.0 0.0,190.0 78.0,187.0 139.0,152.0 165.0,111.0 136.0,59.0" fill="#a57062" opacity="0.95" />
<polygon points="0.0,79.0 136.0,44.0 206.0,11.0 164.0,0.0 0.0,11.0" fill="#725147" opacity="0.95" />
<polygon points="281.0,95.0 324.0,177.0 176.0,261.0 101.0,182.0 173.0,269.0 309.0,238.0 55.0,383.0 383.0,228.0" fill="#a57062" opacity="0.95" />
<polygon points="383.0,297.0 283.0,319.0 161.0,383.0 305.0,324.0 264.0,383.0 349.0,383.0" fill="#725147" opacity="0.95" />
<polygon points="138.0,56.0 166.0,78.0 147.0,142.0 264.0,77.0 336.0,141.0 330.0,189.0 371.0,205.0 342.0,171.0 359.0,137.0 234.0,5.0 158.0,40.0 188.0,81.0" fill="#cc795b" opacity="0.95" />
<polygon points="229.0,112.0 115.0,181.0 164.0,224.0 221.0,164.0" fill="#82bac4" opacity="0.95" />
<polygon points="265.0,79.0 127.0,160.0 231.0,113.0 223.0,163.0 166.0,228.0 305.0,146.0" fill="#25989e" opacity="0.95" />
<polygon points="140.0,79.0 124.0,74.0 0.0,100.0 0.0,115.0 100.0,101.0" fill="#725147" />
<polygon points="302.0,0.0 383.0,101.0 383.0,0.0" fill="#43322b" opacity="0.95" />
<polygon points="237.0,0.0 267.0,56.0 360.0,137.0 343.0,171.0 383.0,220.0 383.0,115.0 288.0,0.0" fill="#b34d24" opacity="0.95" />
<polygon points="311.0,156.0 199.0,232.0 164.0,239.0 169.0,253.0 310.0,174.0" fill="#1b0f0a" />
<polygon points="383.0,242.0 110.0,383.0 382.0,275.0" fill="#1b0f0a" opacity="0.95" />
<polygon points="383.0,275.0 146.0,383.0 283.0,318.0 383.0,296.0" fill="#43322b" />
<polygon points="310.0,327.0 264.0,340.0 187.0,383.0 263.0,383.0 285.0,367.0 277.0,360.0 302.0,347.0 288.0,339.0" fill="#a57062" />
<polygon points="383.0,297.0 283.0,319.0 161.0,383.0 305.0,324.0 264.0,383.0 349.0,383.0" fill="#725147" opacity="0.95" />
<polygon points="383.0,227.0 326.0,176.0 175.0,261.0 99.0,187.0 173.0,269.0 306.0,235.0 230.0,294.0" fill="#a57062" opacity="0.95" />
<polygon points="158.0,40.0 193.0,71.0 164.0,72.0 148.0,141.0 264.0,77.0 336.0,141.0 330.0,189.0 368.0,202.0 342.0,171.0 359.0,137.0 234.0,5.0 201.0,41.0" fill="#cc795b" opacity="0.95" />
<polygon points="302.0,0.0 383.0,100.0 383.0,0.0" fill="#43322b" opacity="0.95" />
<polygon points="312.0,253.0 61.0,383.0 91.0,383.0" fill="#725147" />
<polygon points="323.0,151.0 307.0,185.0 171.0,258.0 310.0,190.0" fill="#725147" />
<polygon points="139.0,77.0 0.0,100.0 0.0,115.0 119.0,96.0" fill="#725147" opacity="0.95" />
<polygon points="312.0,158.0 199.0,232.0 166.0,239.0 169.0,254.0 310.0,174.0" fill="#1b0f0a" opacity="0.95" />
<polygon points="309.0,326.0 188.0,383.0 263.0,383.0 284.0,368.0 277.0,360.0 298.0,349.0 288.0,339.0" fill="#a57062" opacity="0.95" />
<polygon points="0.0,332.0 0.0,362.0 10.0,383.0 29.0,383.0 11.0,337.0" fill="#68290d" />
<polygon points="163.0,45.0 153.0,59.0 178.0,79.0 185.0,81.0 192.0,71.0 185.0,50.0 174.0,44.0" fill="#b34d24" />
<polygon points="383.0,275.0 146.0,383.0 283.0,318.0 383.0,296.0" fill="#43322b" opacity="0.95" />
<polygon points="383.0,323.0 375.0,331.0 374.0,344.0 357.0,360.0 347.0,376.0 351.0,383.0 383.0,383.0" fill="#43322b" />
<polygon points="309.0,327.0 269.0,338.0 188.0,383.0 263.0,383.0 298.0,349.0 288.0,339.0" fill="#a57062" opacity="0.95" />
<polygon points="312.0,158.0 199.0,232.0 166.0,239.0 170.0,253.0 310.0,174.0" fill="#1b0f0a" opacity="0.95" />
<polygon points="0.0,288.0 0.0,331.0 12.0,337.0 33.0,383.0" fill="#b34d24" />
<polygon points="383.0,275.0 146.0,383.0 283.0,318.0 383.0,296.0" fill="#43322b" opacity="0.95" />
<polygon points="0.0,231.0 0.0,265.0 17.0,292.0 11.0,251.0" fill="#d7e3dc" />
<polygon points="0.0,10.0 16.0,10.0 24.0,5.0 60.0,5.0 71.0,0.0 0.0,0.0" fill="#43322b" />
<polygon points="0.0,332.0 0.0,363.0 10.0,383.0 29.0,383.0 11.0,337.0" fill="#68290d" opacity="0.95" />
<polygon points="383.0,324.0 376.0,330.0 373.0,345.0 359.0,357.0 348.0,375.0 350.0,383.0 383.0,383.0" fill="#43322b" opacity="0.95" />
<polygon points="163.0,45.0 154.0,60.0 183.0,81.0 189.0,78.0 192.0,67.0 185.0,50.0 174.0,44.0" fill="#b34d24" opacity="0.95" />
<polygon points="165.0,1.0 175.0,7.0 185.0,5.0 191.0,11.0 197.0,5.0 204.0,9.0 218.0,8.0 235.0,0.0" fill="#43322b" />
<polygon points="0.0,332.0 0.0,365.0 10.0,383.0 29.0,383.0 11.0,337.0" fill="#68290d" opacity="0.95" />
<polygon points="163.0,45.0 154.0,60.0 183.0,81.0 189.0,78.0 192.0,67.0 185.0,50.0 174.0,44.0" fill="#b34d24" opacity="0.95" />
<polygon points="0.0,288.0 0.0,331.0 10.0,334.0 24.0,363.0 23.0,348.0" fill="#b34d24" opacity="0.95" />
<polygon points="40.0,347.0 45.0,354.0 49.0,378.0 46.0,382.0 40.0,373.0 37.0,352.0" fill="#c3a4a0" />
<polygon points="0.0,232.0 0.0,265.0 16.0,286.0 18.0,281.0 11.0,251.0" fill="#d7e3dc" opacity="0.95" />
<polygon points="285.0,97.0 313.0,133.0 327.0,161.0 332.0,162.0 336.0,152.0 333.0,138.0 291.0,98.0" fill="#a57062" opacity="0.95" />
<polygon points="376.0,232.0 354.0,233.0 322.0,249.0" fill="#b34d24" />
<polygon points="205.0,36.0 204.0,26.0 196.0,19.0 190.0,22.0 193.0,25.0 191.0,28.0 184.0,30.0 178.0,27.0 172.0,31.0 176.0,35.0 187.0,33.0 199.0,40.0 203.0,40.0" fill="#a57062" />
<polygon points="40.0,348.0 38.0,352.0 39.0,365.0 46.0,381.0 48.0,378.0 44.0,354.0" fill="#d7e3dc" />
<polygon points="0.0,290.0 0.0,331.0 7.0,332.0 19.0,349.0 22.0,345.0" fill="#b34d24" opacity="0.95" />
<polygon points="0.0,232.0 0.0,265.0 14.0,282.0 17.0,277.0 11.0,251.0" fill="#d7e3dc" opacity="0.95" />
<polygon points="346.0,58.0 343.0,55.0 335.0,54.0 331.0,57.0 330.0,61.0 331.0,64.0 335.0,67.0 343.0,63.0 346.0,60.0" fill="#d7e3dc" />
<polygon points="311.0,180.0 301.0,182.0 277.0,198.0 285.0,196.0" fill="#68290d" />
<polygon points="301.0,8.0 303.0,13.0 314.0,21.0 320.0,33.0 322.0,32.0 322.0,29.0 304.0,7.0" fill="#c3a4a0" />
<polygon points="41.0,350.0 45.0,354.0 48.0,366.0 49.0,378.0 46.0,380.0 42.0,377.0 38.0,365.0 38.0,352.0" fill="#c3a4a0" opacity="0.95" />
<polygon points="263.0,86.0 271.0,94.0 269.0,96.0 261.0,88.0" fill="#25989e" />
<polygon points="330.0,59.0 331.0,64.0 334.0,66.0 346.0,61.0 346.0,58.0 340.0,54.0 335.0,54.0" fill="#d7e3dc" opacity="0.95" />
<polygon points="266.0,84.0 265.0,85.0 273.0,93.0 273.0,94.0 277.0,97.0 278.0,95.0 269.0,85.0" fill="#82bac4" />
<polygon points="154.0,241.0 153.0,242.0 157.0,247.0 167.0,255.0 168.0,252.0 167.0,251.0 166.0,252.0 163.0,248.0 165.0,243.0 162.0,240.0 158.0,244.0" fill="#68290d" />
<polygon points="41.0,351.0 39.0,352.0 39.0,365.0 41.0,373.0 46.0,379.0 48.0,378.0 47.0,366.0 44.0,354.0" fill="#d7e3dc" opacity="0.95" />
<polygon points="107.0,183.0 106.0,184.0 108.0,188.0 118.0,200.0 119.0,199.0 117.0,195.0" fill="#68290d" />
<polygon points="233.0,196.0 235.0,198.0 230.0,203.0 228.0,201.0" fill="#25989e" />
<polygon points="138.0,56.0 138.0,60.0 151.0,65.0 154.0,63.0 154.0,54.0 151.0,52.0 144.0,52.0" fill="#cc795b" opacity="0.95" />
<polygon points="330.0,59.0 331.0,64.0 334.0,66.0 346.0,60.0 346.0,58.0 340.0,54.0 335.0,54.0" fill="#d7e3dc" opacity="0.95" />
<polygon points="42.0,354.0 46.0,357.0 48.0,366.0 48.0,375.0 44.0,378.0 39.0,375.0 40.0,370.0 38.0,365.0 38.0,357.0" fill="#c3a4a0" opacity="0.95" />
<polygon points="120.0,168.0 117.0,166.0 105.0,174.0 106.0,178.0 109.0,180.0 120.0,170.0" fill="#25989e" opacity="0.95" />
<polygon points="368.0,83.0 367.0,86.0 372.0,91.0 377.0,99.0 378.0,97.0" fill="#cc795b" />
<polygon points="192.0,25.0 189.0,23.0 181.0,27.0 184.0,29.0 185.0,28.0 189.0,28.0 191.0,27.0" fill="#c3a4a0" />
<polygon points="177.0,231.0 179.0,229.0 182.0,229.0 184.0,231.0 182.0,233.0 179.0,233.0" fill="#25989e" />
<polygon points="29.0,320.0 31.0,322.0 33.0,326.0 33.0,328.0 31.0,330.0 27.0,325.0 27.0,322.0" fill="#c3a4a0" />
<polygon points="42.0,355.0 39.0,357.0 39.0,365.0 41.0,373.0 44.0,375.0 47.0,373.0 47.0,366.0 45.0,357.0" fill="#d7e3dc" opacity="0.95" />
<polygon points="347.0,63.0 345.0,62.0 343.0,64.0 341.0,64.0 338.0,66.0 340.0,68.0 342.0,68.0 344.0,67.0 347.0,64.0" fill="#c3a4a0" />
<polygon points="29.0,321.0 28.0,322.0 28.0,325.0 31.0,329.0 32.0,328.0 32.0,326.0" fill="#d7e3dc" />
<polygon points="159.0,243.0 157.0,244.0 157.0,247.0 161.0,250.0 163.0,249.0 163.0,247.0 162.0,246.0 162.0,244.0" fill="#68290d" opacity="0.95" />
<polygon points="308.0,181.0 306.0,180.0 300.0,183.0 299.0,186.0 301.0,187.0 307.0,184.0" fill="#68290d" opacity="0.95" />
<polygon points="351.0,67.0 350.0,68.0 351.0,71.0 352.0,72.0 353.0,71.0 354.0,71.0 355.0,72.0 356.0,71.0 353.0,68.0 352.0,68.0" fill="#cc795b" />
</svg>