<svg xmlns="http://www.w3.org/2000/svg" width="768" height="768" viewBox="0 0 384 384">
<rect width="384" height="384" fill="#8e6d5d"/>
<polygon points="0.0,106.0 0.0,383.0 168.0,383.0 189.0,285.0 262.0,331.0 233.0,383.0 383.0,383.0 370.0,154.0 239.0,248.0 129.0,203.0 179.0,105.0 383.0,131.0 346.0,78.0 115.0,68.0 134.0,0.0 69.0,52.0 173.0,100.0" fill="#9f674f" />
<polygon points="0.0,109.0 0.0,383.0 168.0,383.0 189.0,285.0 234.0,383.0 383.0,383.0 370.0,155.0 234.0,249.0 129.0,203.0 190.0,97.0 383.0,131.0 346.0,78.0 115.0,68.0 134.0,0.0 69.0,52.0 173.0,100.0" fill="#9f674f" opacity="0.95" />
<polygon points="100.0,54.0 358.0,121.0 328.0,57.0 265.0,0.0 165.0,0.0 143.0,25.0 154.0,45.0" fill="#cc8055" />
<polygon points="222.0,114.0 182.0,114.0 146.0,139.0 135.0,182.0 154.0,209.0 197.0,221.0 248.0,192.0 255.0,150.0" fill="#4adaf4" />
<polygon points="0.0,109.0 0.0,383.0 168.0,383.0 139.0,320.0 189.0,285.0 253.0,311.0 234.0,383.0 383.0,383.0 369.0,156.0 239.0,248.0 134.0,214.0 141.0,131.0 238.0,103.0 100.0,59.0 163.0,0.0 69.0,52.0 173.0,100.0" fill="#9f674f" opacity="0.95" />
<polygon points="101.0,53.0 357.0,121.0 328.0,57.0 265.0,0.0 164.0,0.0 144.0,23.0 156.0,44.0" fill="#cc8055" opacity="0.95" />
<polygon points="231.0,107.0 265.0,151.0 261.0,220.0 302.0,177.0 369.0,140.0" fill="#5d473e" />
<polygon points="0.0,85.0 2.0,103.0 175.0,97.0 65.0,72.0" fill="#5d473e" />
<polygon points="153.0,307.0 146.0,336.0 165.0,373.0 217.0,375.0 253.0,349.0 241.0,374.0 254.0,364.0 261.0,331.0 249.0,330.0 226.0,292.0 184.0,287.0" fill="#5d473e" />
<polygon points="300.0,0.0 365.0,78.0 383.0,90.0 383.0,0.0" fill="#1c1f24" />
<polygon points="101.0,54.0 356.0,120.0 328.0,57.0 265.0,0.0 164.0,0.0 144.0,23.0 155.0,44.0" fill="#cc8055" opacity="0.95" />
<polygon points="222.0,114.0 182.0,114.0 146.0,139.0 135.0,182.0 154.0,209.0 197.0,221.0 248.0,192.0 255.0,150.0" fill="#4adaf4" opacity="0.95" />
<polygon points="222.0,114.0 182.0,114.0 146.0,139.0 135.0,182.0 154.0,209.0 197.0,221.0 248.0,192.0 255.0,150.0" fill="#4adaf4" opacity="0.95" />
<polygon points="232.0,107.0 265.0,151.0 262.0,217.0 299.0,179.0 368.0,141.0" fill="#5d473e" opacity="0.95" />
<polygon points="147.0,320.0 148.0,344.0 171.0,375.0 217.0,375.0 260.0,349.0 260.0,329.0 250.0,331.0 240.0,304.0 213.0,287.0 178.0,289.0" fill="#5d473e" opacity="0.95" />
<polygon points="147.0,320.0 148.0,344.0 175.0,376.0 223.0,373.0 261.0,344.0 240.0,304.0 213.0,287.0 178.0,289.0" fill="#5d473e" opacity="0.95" />
<polygon points="0.0,84.0 0.0,102.0 18.0,108.0 174.0,98.0 65.0,72.0" fill="#5d473e" opacity="0.95" />
<polygon points="301.0,0.0 365.0,78.0 383.0,90.0 383.0,0.0" fill="#1c1f24" opacity="0.95" />
<polygon points="40.0,40.0 56.0,66.0 46.0,79.0 62.0,70.0 129.0,82.0 76.0,62.0 68.0,48.0 104.0,32.0 133.0,0.0 80.0,0.0" fill="#7b482e" />
<polygon points="233.0,108.0 265.0,151.0 262.0,217.0 302.0,177.0 368.0,141.0" fill="#5d473e" opacity="0.95" />
<polygon points="79.0,0.0 54.0,0.0 31.0,40.0 0.0,49.0 2.0,82.0 54.0,68.0 39.0,40.0" fill="#502e23" />
<polygon points="0.0,84.0 0.0,102.0 18.0,108.0 174.0,98.0 65.0,72.0" fill="#5d473e" opacity="0.95" />
<polygon points="301.0,0.0 365.0,78.0 383.0,90.0 383.0,0.0" fill="#1c1f24" opacity="0.95" />
<polygon points="277.0,0.0 328.0,52.0 336.0,44.0 297.0,0.0" fill="#8d7d7b" />
<polygon points="133.0,0.0 69.0,7.0 40.0,40.0 55.0,65.0 46.0,74.0 106.0,76.0 68.0,48.0 105.0,31.0" fill="#7b482e" opacity="0.95" />
<polygon points="0.0,44.0 14.0,46.0 31.0,39.0 53.0,0.0 0.0,0.0 6.0,11.0 25.0,15.0 20.0,30.0 2.0,37.0" fill="#7b482e" />
<polygon points="264.0,182.0 249.0,204.0 251.0,223.0 229.0,235.0 169.0,229.0 133.0,202.0 162.0,232.0 228.0,241.0 257.0,228.0" fill="#502e23" />
<polygon points="259.0,187.0 225.0,218.0 202.0,228.0 176.0,229.0 221.0,235.0 245.0,228.0 251.0,220.0 244.0,207.0" fill="#0c0b13" />
<polygon points="133.0,0.0 80.0,0.0 43.0,35.0 40.0,51.0 58.0,72.0 94.0,74.0 68.0,48.0 105.0,31.0" fill="#7b482e" opacity="0.95" />
<polygon points="367.0,132.0 370.0,140.0 353.0,150.0 372.0,155.0 376.0,172.0 368.0,187.0 373.0,206.0 383.0,217.0 383.0,132.0" fill="#7b482e" />
<polygon points="79.0,0.0 53.0,0.0 31.0,40.0 0.0,49.0 12.0,60.0 0.0,66.0 1.0,80.0 54.0,68.0 39.0,40.0" fill="#502e23" opacity="0.95" />
<polygon points="277.0,0.0 326.0,50.0 331.0,49.0 333.0,40.0 298.0,0.0" fill="#8d7d7b" opacity="0.95" />
<polygon points="0.0,44.0 14.0,46.0 31.0,39.0 52.0,0.0 0.0,0.0 0.0,7.0 25.0,15.0 20.0,30.0 1.0,38.0" fill="#7b482e" opacity="0.95" />
<polygon points="134.0,148.0 132.0,187.0 156.0,216.0 200.0,225.0 232.0,211.0 197.0,222.0 157.0,212.0 136.0,188.0" fill="#84d9ec" />
<polygon points="265.0,218.0 252.0,234.0 238.0,240.0 180.0,240.0 239.0,247.0 259.0,236.0" fill="#7b482e" />
<polygon points="2.0,9.0 0.0,11.0 0.0,34.0 2.0,36.0 13.0,35.0 19.0,30.0 24.0,15.0 11.0,14.0" fill="#9f674f" />
<polygon points="250.0,216.0 242.0,206.0 202.0,228.0 177.0,229.0 204.0,235.0 229.0,234.0 245.0,228.0" fill="#0c0b13" opacity="0.95" />
<polygon points="79.0,0.0 53.0,0.0 31.0,40.0 0.0,49.0 11.0,60.0 0.0,66.0 0.0,79.0 53.0,69.0 39.0,40.0" fill="#502e23" opacity="0.95" />
<polygon points="266.0,0.0 316.0,47.0 328.0,54.0 276.0,0.0" fill="#9f674f" />
<polygon points="261.0,196.0 249.0,204.0 251.0,223.0 221.0,236.0 169.0,229.0 133.0,202.0 165.0,233.0 228.0,241.0 257.0,228.0" fill="#502e23" opacity="0.95" />
<polygon points="255.0,351.0 241.0,368.0 239.0,364.0 217.0,376.0 168.0,376.0 181.0,383.0 223.0,383.0 241.0,373.0" fill="#502e23" />
<polygon points="352.0,64.0 353.0,78.0 365.0,92.0 364.0,96.0 383.0,111.0 383.0,100.0 378.0,95.0 378.0,90.0 362.0,78.0" fill="#8d7d7b" />
<polygon points="225.0,109.0 249.0,130.0 259.0,156.0 255.0,182.0 237.0,208.0 261.0,176.0 263.0,155.0 249.0,125.0" fill="#84d9ec" />
<polygon points="277.0,0.0 326.0,50.0 331.0,49.0 333.0,40.0 298.0,0.0" fill="#8d7d7b" opacity="0.95" />
<polygon points="371.0,132.0 368.0,143.0 358.0,151.0 370.0,154.0 376.0,165.0 368.0,185.0 374.0,207.0 383.0,217.0 383.0,132.0" fill="#7b482e" opacity="0.95" />
<polygon points="223.0,108.0 191.0,104.0 173.0,109.0 152.0,122.0 135.0,144.0 172.0,113.0 192.0,107.0" fill="#8fb9ce" />
<polygon points="0.0,44.0 14.0,46.0 31.0,39.0 52.0,0.0 0.0,0.0 0.0,7.0 25.0,16.0 20.0,30.0 0.0,39.0" fill="#7b482e" opacity="0.95" />
<polygon points="158.0,296.0 144.0,310.0 139.0,325.0 142.0,349.0 155.0,362.0 160.0,361.0 147.0,344.0 145.0,321.0" fill="#8d7d7b" />
<polygon points="250.0,216.0 242.0,206.0 202.0,228.0 188.0,227.0 185.0,231.0 229.0,234.0 245.0,228.0" fill="#0c0b13" opacity="0.95" />
<polygon points="334.0,45.0 331.0,50.0 339.0,56.0 343.0,75.0 363.0,93.0 352.0,78.0 349.0,61.0" fill="#af9e9b" />
<polygon points="372.0,132.0 359.0,151.0 369.0,155.0 376.0,165.0 368.0,185.0 374.0,207.0 383.0,216.0 383.0,132.0" fill="#7b482e" opacity="0.95" />
<polygon points="334.0,73.0 341.0,84.0 342.0,104.0 357.0,118.0 343.0,127.0 383.0,131.0 383.0,124.0 361.0,108.0 358.0,92.0 348.0,80.0" fill="#9f674f" opacity="0.95" />
<polygon points="134.0,203.0 149.0,225.0 178.0,238.0 206.0,239.0 164.0,227.0 139.0,202.0" fill="#502e23" opacity="0.95" />
<polygon points="3.0,10.0 0.0,12.0 0.0,34.0 3.0,36.0 13.0,35.0 19.0,30.0 24.0,15.0 11.0,14.0" fill="#9f674f" opacity="0.95" />
<polygon points="254.0,353.0 234.0,372.0 176.0,380.0 224.0,383.0 243.0,371.0" fill="#502e23" opacity="0.95" />
<polygon points="230.0,115.0 209.0,108.0 180.0,111.0 156.0,124.0 139.0,145.0 161.0,123.0 184.0,112.0 210.0,109.0" fill="#207992" />
<polygon points="236.0,296.0 235.0,298.0 244.0,309.0 252.0,329.0 254.0,326.0 252.0,311.0" fill="#8d7d7b" />
<polygon points="352.0,68.0 353.0,78.0 365.0,92.0 365.0,97.0 383.0,110.0 383.0,99.0 378.0,95.0 377.0,89.0 362.0,78.0 356.0,68.0" fill="#8d7d7b" opacity="0.95" />
<polygon points="151.0,302.0 141.0,316.0 139.0,339.0 144.0,353.0 156.0,362.0 158.0,359.0 145.0,338.0" fill="#8d7d7b" opacity="0.95" />
<polygon points="4.0,11.0 0.0,13.0 0.0,34.0 4.0,36.0 13.0,35.0 19.0,30.0 24.0,16.0" fill="#9f674f" opacity="0.95" />
<polygon points="181.0,327.0 184.0,330.0 179.0,342.0 175.0,346.0 172.0,346.0 169.0,343.0 169.0,339.0 173.0,332.0 178.0,327.0" fill="#5d473e" />
<polygon points="260.0,197.0 249.0,204.0 251.0,223.0 237.0,233.0 220.0,236.0 220.0,240.0 238.0,239.0 257.0,228.0" fill="#502e23" opacity="0.95" />
<polygon points="332.0,52.0 330.0,54.0 330.0,61.0 332.0,65.0 342.0,73.0 343.0,71.0 339.0,65.0 338.0,56.0 335.0,52.0" fill="#dcc8c0" />
<polygon points="140.0,200.0 156.0,216.0 172.0,223.0 185.0,224.0 162.0,215.0" fill="#84d9ec" opacity="0.95" />
<polygon points="353.0,69.0 353.0,78.0 365.0,92.0 365.0,97.0 383.0,110.0 383.0,99.0 378.0,95.0 377.0,89.0 362.0,78.0 357.0,69.0" fill="#8d7d7b" opacity="0.95" />
<polygon points="332.0,47.0 332.0,50.0 339.0,56.0 344.0,75.0 352.0,77.0 349.0,61.0 337.0,47.0" fill="#af9e9b" opacity="0.95" />
<polygon points="238.0,373.0 230.0,370.0 208.0,378.0 183.0,378.0 180.0,383.0 225.0,383.0" fill="#502e23" opacity="0.95" />
<polygon points="181.0,328.0 178.0,328.0 172.0,335.0 170.0,339.0 171.0,340.0 170.0,343.0 172.0,345.0 175.0,345.0 178.0,342.0 183.0,330.0" fill="#8d7d7b" />
<polygon points="152.0,217.0 155.0,220.0 159.0,220.0 164.0,226.0 173.0,229.0 176.0,228.0 173.0,224.0 154.0,216.0" fill="#1c1f24" />
<polygon points="193.0,105.0 173.0,109.0 157.0,120.0" fill="#8fb9ce" opacity="0.95" />
<polygon points="266.0,0.0 267.0,3.0 290.0,22.0 294.0,22.0 294.0,19.0 276.0,0.0" fill="#9f674f" opacity="0.95" />
<polygon points="258.0,143.0 256.0,144.0 259.0,156.0 259.0,167.0 256.0,172.0 256.0,178.0 258.0,179.0 261.0,176.0 263.0,167.0 262.0,150.0" fill="#84d9ec" opacity="0.95" />
<polygon points="342.0,53.0 339.0,55.0 340.0,65.0 344.0,74.0 349.0,77.0 352.0,75.0 351.0,66.0 345.0,55.0" fill="#af9e9b" opacity="0.95" />
<polygon points="333.0,52.0 330.0,54.0 330.0,61.0 332.0,65.0 339.0,71.0 341.0,70.0 341.0,68.0 339.0,65.0 338.0,56.0 336.0,53.0" fill="#dcc8c0" opacity="0.95" />
<polygon points="333.0,52.0 330.0,54.0 330.0,61.0 332.0,65.0 336.0,68.0 339.0,66.0 339.0,60.0 337.0,54.0" fill="#dcc8c0" opacity="0.95" />
<polygon points="4.0,62.0 6.0,64.0 8.0,64.0 14.0,60.0 13.0,59.0 8.0,59.0 6.0,58.0" fill="#0c0b13" />
<polygon points="266.0,0.0 271.0,6.0 282.0,14.0 285.0,12.0 285.0,10.0 276.0,0.0" fill="#9f674f" opacity="0.95" />
<polygon points="213.0,219.0 210.0,218.0 206.0,220.0 196.0,222.0 196.0,224.0 198.0,225.0 205.0,224.0 213.0,221.0" fill="#84d9ec" opacity="0.95" />
<polygon points="163.0,223.0 163.0,225.0 169.0,228.0 173.0,229.0 175.0,228.0 175.0,225.0 167.0,222.0" fill="#1c1f24" opacity="0.95" />
<polygon points="7.0,58.0 5.0,59.0 5.0,63.0 7.0,64.0 11.0,62.0 11.0,60.0" fill="#0c0b13" opacity="0.95" />
<polygon points="136.0,149.0 133.0,150.0 133.0,153.0 134.0,153.0 135.0,154.0 138.0,152.0 138.0,150.0 137.0,150.0" fill="#84d9ec" opacity="0.95" />
<polygon points="208.0,105.0 208.0,107.0 210.0,108.0 211.0,107.0 215.0,109.0 217.0,108.0 217.0,106.0 215.0,105.0 214.0,106.0 210.0,104.0" fill="#8fb9ce" opacity="0.95" />
<polygon points="132.0,173.0 131.0,174.0 130.0,174.0 130.0,178.0 131.0,178.0 132.0,179.0 133.0,178.0 134.0,178.0 134.0,174.0 133.0,174.0" fill="#84d9ec" opacity="0.95" />
</svg>