<svg xmlns="http://www.w3.org/2000/svg" width="768" height="768" viewBox="0 0 384 384">
<rect width="384" height="384" fill="#947679"/>
<polygon points="154.0,130.0 156.0,254.0 368.0,253.0 367.0,129.0" fill="#57958f" />
<polygon points="155.0,258.0 155.0,383.0 349.0,383.0 347.0,257.0" fill="#2c695e" />
<polygon points="152.0,130.0 2.0,129.0 0.0,252.0 149.0,256.0" fill="#cb998b" />
<polygon points="0.0,259.0 0.0,383.0 153.0,383.0 151.0,257.0" fill="#db7788" />
<polygon points="154.0,0.0 155.0,105.0 306.0,105.0 310.0,115.0 292.0,118.0 295.0,126.0 348.0,125.0 348.0,0.0" fill="#e95a65" />
<polygon points="154.0,130.0 155.0,253.0 368.0,253.0 368.0,130.0" fill="#57958f" opacity="0.95" />
<polygon points="155.0,258.0 155.0,383.0 348.0,383.0 348.0,258.0" fill="#2c695e" opacity="0.95" />
<polygon points="152.0,130.0 1.0,130.0 0.0,252.0 152.0,254.0" fill="#cb998b" opacity="0.95" />
<polygon points="154.0,131.0 156.0,253.0 368.0,252.0 367.0,130.0" fill="#57958f" opacity="0.95" />
<polygon points="0.0,259.0 0.0,383.0 153.0,383.0 152.0,258.0" fill="#db7788" opacity="0.95" />
<polygon points="0.0,0.0 0.0,47.0 43.0,44.0 24.0,115.0 60.0,116.0 18.0,126.0 265.0,121.0 151.0,118.0 150.0,0.0 27.0,0.0 32.0,20.0" fill="#835268" />
<polygon points="155.0,259.0 155.0,383.0 348.0,383.0 347.0,258.0" fill="#2c695e" opacity="0.95" />
<polygon points="152.0,131.0 0.0,131.0 0.0,252.0 150.0,255.0" fill="#cb998b" opacity="0.95" />
<polygon points="154.0,0.0 154.0,104.0 306.0,105.0 311.0,115.0 291.0,119.0 295.0,126.0 348.0,125.0 348.0,0.0" fill="#e95a65" opacity="0.95" />
<polygon points="0.0,259.0 0.0,383.0 153.0,383.0 151.0,258.0" fill="#db7788" opacity="0.95" />
<polygon points="0.0,10.0 1.0,40.0 43.0,44.0 25.0,111.0 265.0,121.0 151.0,111.0 150.0,0.0" fill="#835268" opacity="0.95" />
<polygon points="371.0,0.0 371.0,383.0 383.0,383.0 383.0,0.0" fill="#40364c" />
<polygon points="154.0,0.0 157.0,12.0 183.0,13.0 154.0,20.0 155.0,104.0 305.0,105.0 311.0,114.0 295.0,126.0 348.0,124.0 348.0,0.0" fill="#e95a65" opacity="0.95" />
<polygon points="0.0,12.0 4.0,35.0 35.0,27.0 27.0,103.0 61.0,126.0 265.0,121.0 151.0,114.0 150.0,0.0" fill="#835268" opacity="0.95" />
<polygon points="247.0,322.0 323.0,320.0 325.0,350.0 250.0,352.0 247.0,347.0" fill="#2c695e" />
<polygon points="351.0,0.0 351.0,125.0 367.0,126.0 368.0,0.0" fill="#835268" />
<polygon points="352.0,257.0 351.0,383.0 368.0,383.0 368.0,258.0" fill="#db7788" />
<polygon points="371.0,0.0 371.0,383.0 383.0,383.0 383.0,0.0" fill="#40364c" opacity="0.95" />
<polygon points="371.0,0.0 371.0,383.0 383.0,383.0 383.0,0.0" fill="#40364c" opacity="0.95" />
<polygon points="5.0,41.0 4.0,123.0 57.0,122.0 7.0,115.0 40.0,88.0 30.0,76.0 42.0,44.0 23.0,51.0" fill="#40364c" />
<polygon points="247.0,322.0 322.0,320.0 325.0,322.0 325.0,350.0 251.0,352.0 247.0,347.0" fill="#2c695e" opacity="0.95" />
<polygon points="353.0,257.0 351.0,383.0 368.0,383.0 368.0,258.0" fill="#db7788" opacity="0.95" />
<polygon points="351.0,0.0 351.0,125.0 366.0,126.0 368.0,0.0" fill="#835268" opacity="0.95" />
<polygon points="248.0,193.0 324.0,191.0 326.0,202.0 254.0,201.0 250.0,204.0" fill="#57958f" />
<polygon points="313.0,13.0 311.0,20.0 246.0,18.0 248.0,9.0 300.0,8.0" fill="#e95a65" />
<polygon points="247.0,323.0 251.0,320.0 321.0,320.0 325.0,323.0 325.0,349.0 321.0,352.0 252.0,352.0 247.0,347.0" fill="#2c695e" opacity="0.95" />
<polygon points="249.0,194.0 250.0,202.0 325.0,201.0 324.0,192.0" fill="#dbd3cc" />
<polygon points="245.0,270.0 289.0,268.0 295.0,276.0 299.0,268.0 321.0,268.0 323.0,278.0 247.0,279.0" fill="#2c695e" />
<polygon points="354.0,257.0 351.0,383.0 368.0,383.0 368.0,259.0" fill="#db7788" opacity="0.95" />
<polygon points="36.0,143.0 88.0,140.0 91.0,148.0 39.0,150.0" fill="#cb998b" />
<polygon points="351.0,0.0 351.0,124.0 365.0,126.0 368.0,0.0" fill="#835268" opacity="0.95" />
<polygon points="37.0,271.0 99.0,269.0 104.0,278.0 72.0,280.0 69.0,274.0 66.0,280.0 39.0,280.0" fill="#db7788" />
<polygon points="36.0,12.0 87.0,9.0 91.0,12.0 87.0,16.0 96.0,10.0 100.0,18.0 41.0,21.0" fill="#835268" />
<polygon points="244.0,142.0 274.0,144.0 278.0,140.0 282.0,145.0 284.0,140.0 311.0,140.0 314.0,149.0 246.0,151.0" fill="#57958f" />
<polygon points="245.0,270.0 320.0,268.0 323.0,278.0 248.0,279.0" fill="#2c695e" opacity="0.95" />
<polygon points="8.0,143.0 93.0,140.0 97.0,148.0 21.0,152.0" fill="#cb998b" opacity="0.95" />
<polygon points="249.0,322.0 250.0,330.0 320.0,329.0 322.0,331.0 324.0,327.0 322.0,321.0" fill="#dbd3cc" />
<polygon points="6.0,41.0 4.0,108.0 18.0,108.0 28.0,92.0 39.0,90.0 30.0,79.0 39.0,48.0 30.0,43.0 21.0,50.0 16.0,42.0" fill="#40364c" opacity="0.95" />
<polygon points="263.0,235.0 265.0,233.0 304.0,233.0 309.0,236.0 309.0,243.0 306.0,246.0 265.0,245.0 263.0,243.0" fill="#57958f" />
<polygon points="312.0,11.0 309.0,20.0 246.0,18.0 249.0,9.0" fill="#e95a65" opacity="0.95" />
<polygon points="188.0,275.0 191.0,268.0 228.0,268.0 231.0,277.0 232.0,270.0 238.0,268.0 241.0,278.0 198.0,280.0" fill="#2c695e" />
<polygon points="248.0,194.0 322.0,191.0 326.0,200.0 308.0,203.0 311.0,220.0 307.0,223.0 270.0,223.0 266.0,220.0 268.0,203.0 252.0,202.0" fill="#57958f" opacity="0.95" />
<polygon points="248.0,193.0 323.0,191.0 326.0,201.0 298.0,203.0 310.0,207.0 308.0,223.0 269.0,223.0 269.0,204.0 287.0,218.0 292.0,203.0 283.0,211.0 277.0,202.0 249.0,202.0" fill="#57958f" opacity="0.95" />
<polygon points="281.0,76.0 285.0,72.0 293.0,78.0 298.0,72.0 323.0,73.0 326.0,79.0 323.0,84.0 285.0,85.0" fill="#e95a65" />
<polygon points="8.0,143.0 93.0,140.0 97.0,146.0 20.0,152.0" fill="#cb998b" opacity="0.95" />
<polygon points="82.0,107.0 84.0,105.0 111.0,105.0 113.0,107.0 122.0,105.0 125.0,114.0 122.0,117.0 84.0,117.0 82.0,115.0" fill="#835268" />
<polygon points="37.0,271.0 94.0,269.0 102.0,278.0 44.0,280.0 37.0,277.0" fill="#db7788" opacity="0.95" />
<polygon points="41.0,143.0 48.0,150.0 90.0,148.0 86.0,145.0 88.0,141.0" fill="#f0c7c0" />
<polygon points="188.0,16.0 198.0,9.0 211.0,9.0 215.0,13.0 225.0,9.0 229.0,16.0 232.0,9.0 238.0,9.0 242.0,18.0 195.0,21.0" fill="#e95a65" />
<polygon points="263.0,367.0 265.0,365.0 295.0,365.0 298.0,367.0 308.0,365.0 311.0,374.0 308.0,377.0 299.0,375.0 296.0,377.0 266.0,377.0 263.0,373.0" fill="#2c695e" />
<polygon points="7.0,41.0 1.0,50.0 1.0,93.0 5.0,107.0 18.0,108.0 28.0,92.0 39.0,90.0 30.0,79.0 38.0,49.0 31.0,43.0 22.0,50.0" fill="#40364c" opacity="0.95" />
<polygon points="249.0,194.0 251.0,201.0 325.0,200.0 323.0,192.0" fill="#dbd3cc" opacity="0.95" />
<polygon points="264.0,220.0 269.0,217.0 266.0,207.0 271.0,203.0 277.0,208.0 274.0,218.0 288.0,218.0 293.0,204.0 301.0,208.0 307.0,204.0 311.0,209.0 308.0,217.0 312.0,220.0 308.0,223.0" fill="#57958f" />
<polygon points="189.0,13.0 198.0,9.0 237.0,9.0 240.0,18.0 195.0,21.0" fill="#e95a65" opacity="0.95" />
<polygon points="83.0,107.0 84.0,116.0 108.0,115.0 108.0,111.0 105.0,106.0" fill="#f0c7c0" />
<polygon points="7.0,369.0 10.0,366.0 15.0,372.0 17.0,367.0 47.0,367.0 49.0,373.0 10.0,375.0" fill="#db7788" />
<polygon points="251.0,331.0 252.0,345.0 264.0,346.0 268.0,331.0 274.0,336.0 271.0,346.0 276.0,345.0 278.0,332.0 284.0,341.0 288.0,333.0 302.0,332.0 306.0,345.0 321.0,344.0 319.0,330.0" fill="#57958f" />
<polygon points="312.0,114.0 318.0,111.0 317.0,108.0 320.0,105.0 338.0,105.0 340.0,107.0 340.0,115.0 337.0,118.0 319.0,118.0" fill="#e95a65" />
<polygon points="7.0,27.0 10.0,24.0 15.0,27.0 19.0,24.0 25.0,27.0 31.0,24.0 35.0,27.0 35.0,35.0 32.0,38.0 19.0,38.0 17.0,36.0 8.0,38.0 6.0,36.0" fill="#835268" />
<polygon points="249.0,322.0 249.0,328.0 267.0,331.0 268.0,350.0 271.0,329.0 324.0,327.0 321.0,321.0" fill="#dbd3cc" opacity="0.95" />
<polygon points="249.0,194.0 252.0,200.0 325.0,199.0 322.0,192.0" fill="#dbd3cc" opacity="0.95" />
<polygon points="16.0,239.0 21.0,235.0 53.0,235.0 56.0,242.0 51.0,245.0 21.0,245.0" fill="#cb998b" opacity="0.95" />
<polygon points="82.0,107.0 85.0,105.0 111.0,105.0 114.0,107.0 121.0,105.0 124.0,107.0 124.0,115.0 121.0,117.0 86.0,118.0 82.0,115.0" fill="#835268" opacity="0.95" />
<polygon points="17.0,239.0 20.0,235.0 26.0,237.0 32.0,235.0 39.0,238.0 42.0,235.0 48.0,235.0 52.0,243.0 50.0,245.0 29.0,245.0 27.0,243.0 20.0,245.0" fill="#cb998b" />
<polygon points="264.0,236.0 265.0,244.0 290.0,244.0 291.0,243.0 289.0,241.0 291.0,236.0 290.0,235.0 265.0,235.0" fill="#dbd3cc" />
<polygon points="249.0,323.0 252.0,329.0 324.0,327.0 321.0,321.0" fill="#dbd3cc" opacity="0.95" />
<polygon points="158.0,17.0 161.0,9.0 166.0,11.0 168.0,9.0 174.0,11.0 176.0,9.0 181.0,10.0 184.0,16.0 181.0,21.0 179.0,19.0 160.0,20.0" fill="#e95a65" />
<polygon points="249.0,347.0 324.0,350.0 322.0,345.0 305.0,347.0 304.0,334.0 299.0,335.0 304.0,337.0 300.0,347.0 270.0,347.0 273.0,341.0 268.0,333.0 265.0,347.0" fill="#dbd3cc" />
<polygon points="265.0,368.0 266.0,376.0 296.0,376.0 298.0,374.0 296.0,367.0 292.0,373.0 289.0,370.0 290.0,367.0 267.0,366.0" fill="#dbd3cc" />
<polygon points="9.0,142.0 10.0,148.0 12.0,146.0 15.0,149.0 33.0,149.0 32.0,142.0" fill="#f0c7c0" />
<polygon points="264.0,114.0 268.0,116.0 285.0,116.0 288.0,114.0 292.0,116.0 293.0,114.0 290.0,110.0 293.0,107.0 297.0,108.0 295.0,106.0 265.0,106.0" fill="#f0c7c0" />
<polygon points="106.0,367.0 108.0,365.0 114.0,365.0 116.0,367.0 119.0,365.0 124.0,365.0 126.0,367.0 127.0,375.0 125.0,377.0 108.0,377.0 106.0,375.0" fill="#db7788" />
<polygon points="8.0,142.0 10.0,140.0 21.0,142.0 29.0,140.0 34.0,143.0 34.0,149.0 32.0,151.0 30.0,149.0 28.0,151.0 21.0,149.0 11.0,150.0 8.0,147.0" fill="#cb998b" />
<polygon points="18.0,239.0 20.0,244.0 26.0,241.0 29.0,244.0 51.0,243.0 48.0,236.0 42.0,236.0 39.0,239.0 32.0,236.0 26.0,239.0 20.0,236.0" fill="#f0c7c0" />
<polygon points="105.0,236.0 107.0,234.0 112.0,234.0 114.0,236.0 116.0,234.0 122.0,234.0 125.0,237.0 125.0,244.0 123.0,246.0 117.0,246.0 115.0,244.0 112.0,246.0 108.0,246.0 105.0,243.0" fill="#cb998b" />
<polygon points="4.0,116.0 7.0,125.0 58.0,121.0 54.0,117.0" fill="#40364c" opacity="0.95" />
<polygon points="319.0,235.0 320.0,244.0 327.0,244.0 329.0,242.0 331.0,244.0 339.0,243.0 339.0,236.0 336.0,234.0 333.0,234.0 329.0,237.0 326.0,234.0" fill="#dbd3cc" />
<polygon points="7.0,35.0 8.0,37.0 16.0,35.0 20.0,37.0 23.0,35.0 26.0,37.0 28.0,35.0 33.0,36.0 29.0,32.0 29.0,26.0 26.0,29.0 22.0,26.0 16.0,28.0 11.0,26.0" fill="#e69565" />
<polygon points="264.0,114.0 268.0,116.0 285.0,116.0 288.0,114.0 290.0,107.0 266.0,106.0 264.0,107.0" fill="#f0c7c0" opacity="0.95" />
<polygon points="83.0,107.0 83.0,115.0 85.0,116.0 104.0,116.0 107.0,114.0 106.0,107.0 104.0,106.0" fill="#f0c7c0" opacity="0.95" />
<polygon points="107.0,143.0 108.0,151.0 113.0,150.0 120.0,151.0 121.0,150.0 119.0,142.0 116.0,142.0 113.0,144.0 109.0,141.0" fill="#f0c7c0" />
<polygon points="106.0,236.0 106.0,243.0 108.0,245.0 112.0,245.0 114.0,243.0 117.0,245.0 124.0,244.0 118.0,239.0 120.0,237.0 118.0,235.0 114.0,237.0 112.0,235.0" fill="#f0c7c0" />
<polygon points="4.0,7.0 7.0,8.0 9.0,6.0 17.0,8.0 20.0,6.0 19.0,5.0 21.0,3.0 23.0,4.0 26.0,0.0 4.0,0.0" fill="#40364c" />
<polygon points="296.0,11.0 297.0,19.0 299.0,17.0 302.0,19.0 305.0,19.0 307.0,17.0 310.0,19.0 311.0,18.0 311.0,12.0 308.0,10.0 305.0,10.0 303.0,12.0 300.0,10.0" fill="#f0c7c0" />
<polygon points="4.0,7.0 6.0,8.0 9.0,6.0 17.0,8.0 21.0,3.0 26.0,0.0 4.0,0.0" fill="#40364c" opacity="0.95" />
<polygon points="74.0,12.0 75.0,19.0 77.0,17.0 80.0,19.0 83.0,15.0 85.0,19.0 89.0,18.0 84.0,16.0 88.0,11.0 85.0,11.0 82.0,15.0 76.0,11.0" fill="#e69565" />
<polygon points="4.0,118.0 4.0,123.0 7.0,125.0 15.0,125.0 22.0,121.0 22.0,118.0 19.0,116.0 7.0,116.0" fill="#40364c" opacity="0.95" />
<polygon points="55.0,11.0 53.0,13.0 55.0,16.0 54.0,18.0 56.0,20.0 59.0,16.0" fill="#e69565" />
<polygon points="228.0,236.0 227.0,237.0 228.0,238.0 228.0,241.0 229.0,242.0 230.0,241.0 233.0,244.0 234.0,244.0 235.0,243.0 234.0,242.0 234.0,237.0 233.0,236.0 231.0,237.0 230.0,236.0" fill="#9eb5ae" />
<polygon points="46.0,11.0 45.0,12.0 45.0,14.0 47.0,15.0 50.0,19.0 51.0,18.0 51.0,15.0 49.0,14.0" fill="#e69565" />
<polygon points="187.0,239.0 185.0,237.0 183.0,239.0 182.0,238.0 180.0,240.0 182.0,242.0 183.0,241.0 184.0,242.0" fill="#9eb5ae" />
<polygon points="63.0,11.0 62.0,12.0 62.0,15.0 61.0,16.0 63.0,19.0 64.0,18.0 64.0,15.0 65.0,14.0" fill="#e69565" />
<polygon points="95.0,11.0 94.0,12.0 95.0,15.0 92.0,18.0 93.0,19.0 96.0,17.0 98.0,19.0 99.0,18.0 96.0,15.0 97.0,12.0" fill="#e69565" />
</svg>