<svg xmlns="http://www.w3.org/2000/svg" width="768" height="768" viewBox="0 0 384 384">
<rect width="384" height="384" fill="#8c654e"/>
<polygon points="0.0,0.0 2.0,190.0 129.0,191.0 138.0,79.0 192.0,150.0 244.0,78.0 255.0,191.0 194.0,231.0 135.0,197.0 134.0,253.0 251.0,255.0 253.0,320.0 383.0,320.0 383.0,257.0 305.0,257.0 256.0,193.0 383.0,191.0 383.0,0.0" fill="#894b3c" />
<polygon points="0.0,0.0 1.0,189.0 127.0,191.0 137.0,81.0 191.0,149.0 243.0,81.0 255.0,192.0 194.0,231.0 134.0,201.0 134.0,253.0 251.0,256.0 254.0,320.0 383.0,320.0 383.0,257.0 306.0,257.0 258.0,195.0 383.0,191.0 383.0,0.0" fill="#894b3c" opacity="0.95" />
<polygon points="244.0,80.0 192.0,152.0 137.0,82.0 124.0,173.0 162.0,219.0 198.0,229.0 252.0,192.0 261.0,156.0" fill="#8ac99a" />
<polygon points="0.0,195.0 2.0,255.0 132.0,254.0 131.0,193.0" fill="#b58371" />
<polygon points="0.0,325.0 0.0,383.0 175.0,383.0 131.0,323.0" fill="#b58371" />
<polygon points="0.0,260.0 2.0,320.0 131.0,319.0 130.0,257.0" fill="#894b3c" />
<polygon points="0.0,0.0 0.0,188.0 125.0,191.0 137.0,83.0 192.0,149.0 243.0,81.0 256.0,191.0 194.0,231.0 137.0,201.0 134.0,252.0 250.0,256.0 255.0,320.0 383.0,320.0 383.0,257.0 306.0,257.0 259.0,196.0 383.0,191.0 383.0,0.0" fill="#894b3c" opacity="0.95" />
<polygon points="257.0,193.0 306.0,255.0 383.0,255.0 383.0,193.0" fill="#b58371" />
<polygon points="250.0,324.0 300.0,383.0 383.0,383.0 383.0,323.0" fill="#b58371" />
<polygon points="218.0,256.0 188.0,258.0 154.0,345.0 162.0,352.0 208.0,357.0 235.0,339.0 241.0,303.0" fill="#004600" />
<polygon points="137.0,83.0 123.0,154.0 135.0,196.0 185.0,229.0 231.0,213.0 261.0,166.0 246.0,84.0 191.0,151.0" fill="#8ac99a" opacity="0.95" />
<polygon points="0.0,195.0 3.0,255.0 132.0,254.0 130.0,193.0" fill="#b58371" opacity="0.95" />
<polygon points="0.0,259.0 3.0,320.0 131.0,319.0 129.0,257.0" fill="#894b3c" opacity="0.95" />
<polygon points="0.0,325.0 0.0,383.0 174.0,383.0 132.0,334.0 132.0,323.0" fill="#b58371" opacity="0.95" />
<polygon points="245.0,84.0 192.0,150.0 136.0,86.0 124.0,173.0 162.0,219.0 198.0,229.0 252.0,192.0 261.0,156.0" fill="#8ac99a" opacity="0.95" />
<polygon points="259.0,193.0 305.0,254.0 383.0,255.0 383.0,193.0" fill="#b58371" opacity="0.95" />
<polygon points="299.0,383.0 248.0,323.0 223.0,353.0 197.0,360.0 161.0,353.0 134.0,324.0 176.0,383.0" fill="#894b3c" />
<polygon points="0.0,325.0 0.0,383.0 174.0,383.0 129.0,323.0" fill="#b58371" opacity="0.95" />
<polygon points="253.0,324.0 299.0,383.0 383.0,383.0 383.0,323.0" fill="#b58371" opacity="0.95" />
<polygon points="0.0,259.0 4.0,320.0 131.0,318.0 128.0,257.0" fill="#894b3c" opacity="0.95" />
<polygon points="219.0,257.0 188.0,258.0 157.0,326.0 162.0,352.0 208.0,357.0 235.0,339.0 242.0,308.0" fill="#004600" opacity="0.95" />
<polygon points="0.0,195.0 4.0,255.0 130.0,254.0 137.0,303.0 162.0,258.0 132.0,255.0 129.0,193.0" fill="#b58371" opacity="0.95" />
<polygon points="186.0,256.0 167.0,256.0 141.0,300.0 140.0,322.0 152.0,343.0" fill="#82be02" />
<polygon points="216.0,256.0 188.0,259.0 157.0,326.0 162.0,352.0 208.0,357.0 235.0,339.0 241.0,303.0" fill="#004600" opacity="0.95" />
<polygon points="134.0,324.0 175.0,383.0 298.0,383.0 247.0,323.0 223.0,353.0 197.0,360.0 161.0,353.0" fill="#894b3c" opacity="0.95" />
<polygon points="298.0,383.0 246.0,323.0 211.0,358.0 177.0,359.0 150.0,349.0 175.0,383.0" fill="#894b3c" opacity="0.95" />
<polygon points="185.0,256.0 166.0,257.0 143.0,295.0 140.0,322.0 151.0,341.0 172.0,295.0 162.0,288.0 172.0,274.0 180.0,282.0" fill="#82be02" opacity="0.95" />
<polygon points="184.0,256.0 165.0,258.0 141.0,300.0 140.0,322.0 151.0,341.0 171.0,296.0 163.0,286.0 170.0,275.0 183.0,275.0" fill="#82be02" opacity="0.95" />
<polygon points="231.0,37.0 242.0,41.0 252.0,49.0 252.0,62.0 256.0,65.0 254.0,69.0 240.0,63.0 233.0,51.0 229.0,39.0" fill="#894b3c" />
<polygon points="232.0,39.0 234.0,50.0 238.0,57.0 244.0,63.0 252.0,66.0 249.0,50.0 238.0,40.0" fill="#3e7d1c" />
<polygon points="175.0,274.0 177.0,277.0 173.0,290.0 171.0,292.0 163.0,292.0 161.0,290.0 167.0,278.0 171.0,274.0" fill="#82be02" />
<polygon points="232.0,40.0 238.0,57.0 245.0,63.0 251.0,63.0 249.0,50.0 246.0,46.0 235.0,39.0" fill="#3e7d1c" opacity="0.95" />
<polygon points="174.0,276.0 170.0,277.0 167.0,282.0 168.0,284.0 163.0,288.0 162.0,290.0 163.0,291.0 172.0,290.0 175.0,280.0" fill="#f3eae1" />
<polygon points="234.0,41.0 233.0,46.0 238.0,57.0 243.0,62.0 250.0,63.0 249.0,50.0 241.0,42.0 237.0,40.0" fill="#3e7d1c" opacity="0.95" />
<polygon points="175.0,277.0 173.0,276.0 170.0,277.0 168.0,284.0 163.0,288.0 163.0,290.0 165.0,291.0 172.0,290.0" fill="#f3eae1" opacity="0.95" />
<polygon points="171.0,279.0 168.0,281.0 168.0,284.0 164.0,287.0 164.0,289.0 167.0,291.0 171.0,290.0 172.0,286.0 174.0,284.0 174.0,281.0" fill="#f3eae1" opacity="0.95" />
</svg>