<svg xmlns="http://www.w3.org/2000/svg" width="768" height="768" viewBox="0 0 384 384">
<rect width="384" height="384" fill="#8d5e4a"/>
<polygon points="0.0,0.0 0.0,383.0 383.0,383.0 383.0,0.0" fill="#895140" opacity="0.95" />
<polygon points="0.0,0.0 0.0,383.0 383.0,383.0 383.0,0.0" fill="#895140" opacity="0.95" />
<polygon points="0.0,0.0 2.0,126.0 157.0,128.0 0.0,132.0 3.0,190.0 71.0,192.0 3.0,194.0 3.0,254.0 135.0,254.0 3.0,258.0 3.0,320.0 135.0,324.0 2.0,324.0 0.0,383.0 383.0,383.0 383.0,258.0 293.0,256.0 383.0,254.0 383.0,194.0 338.0,192.0 383.0,190.0 383.0,130.0 259.0,128.0 383.0,126.0 383.0,0.0" fill="#895140" />
<polygon points="226.0,103.0 259.0,128.0 258.0,193.0 243.0,228.0 194.0,259.0 132.0,230.0 124.0,163.0 192.0,161.0 196.0,106.0" fill="#895140" />
<polygon points="258.0,160.0 126.0,163.0 137.0,199.0 153.0,212.0 202.0,221.0 246.0,197.0" fill="#63e6cf" />
<polygon points="226.0,103.0 256.0,127.0 246.0,224.0 192.0,254.0 133.0,231.0 124.0,163.0 194.0,160.0 196.0,106.0" fill="#895140" opacity="0.95" />
<polygon points="226.0,103.0 257.0,128.0 246.0,224.0 196.0,258.0 134.0,232.0 124.0,165.0 193.0,160.0 196.0,106.0" fill="#895140" opacity="0.95" />
<polygon points="258.0,160.0 127.0,163.0 125.0,171.0 137.0,199.0 153.0,212.0 202.0,221.0 246.0,197.0" fill="#63e6cf" opacity="0.95" />
<polygon points="199.0,106.0 201.0,157.0 258.0,157.0 255.0,134.0 238.0,111.0 227.0,105.0" fill="#4ad95c" />
<polygon points="258.0,161.0 128.0,163.0 125.0,171.0 137.0,199.0 153.0,212.0 202.0,221.0 246.0,197.0" fill="#63e6cf" opacity="0.95" />
<polygon points="127.0,208.0 144.0,236.0 191.0,252.0 233.0,237.0 255.0,195.0 232.0,228.0 193.0,240.0 172.0,229.0 193.0,223.0 160.0,217.0 132.0,193.0" fill="#3d2823" />
<polygon points="199.0,106.0 200.0,156.0 258.0,157.0 255.0,134.0 238.0,111.0 227.0,105.0" fill="#4ad95c" opacity="0.95" />
<polygon points="192.0,324.0 194.0,318.0 378.0,322.0" fill="#895140" />
<polygon points="199.0,107.0 201.0,156.0 258.0,156.0 255.0,134.0 238.0,111.0 227.0,105.0" fill="#4ad95c" opacity="0.95" />
<polygon points="251.0,194.0 222.0,217.0 173.0,229.0 189.0,238.0 194.0,233.0 224.0,232.0 242.0,216.0" fill="#1a1312" />
<polygon points="127.0,208.0 144.0,236.0 190.0,252.0 233.0,237.0 255.0,195.0 232.0,228.0 192.0,240.0 131.0,193.0" fill="#3d2823" opacity="0.95" />
<polygon points="127.0,196.0 138.0,231.0 188.0,252.0 230.0,239.0 249.0,217.0 191.0,240.0" fill="#3d2823" opacity="0.95" />
<polygon points="248.0,201.0 215.0,220.0 176.0,226.0 174.0,231.0 189.0,238.0 224.0,232.0 239.0,220.0" fill="#1a1312" opacity="0.95" />
<polygon points="264.0,192.0 266.0,190.0 321.0,190.0 323.0,192.0 321.0,194.0 266.0,194.0" fill="#895140" />
<polygon points="247.0,204.0 215.0,220.0 174.0,230.0 189.0,238.0 224.0,232.0 239.0,220.0" fill="#1a1312" opacity="0.95" />
<polygon points="77.0,192.0 79.0,190.0 113.0,190.0 115.0,192.0 113.0,194.0 79.0,194.0" fill="#895140" />
<polygon points="160.0,128.0 162.0,126.0 191.0,126.0 193.0,128.0 191.0,130.0 162.0,130.0" fill="#895140" />
<polygon points="195.0,145.0 193.0,149.0 193.0,152.0 194.0,153.0 194.0,156.0 196.0,157.0 197.0,156.0 196.0,155.0 196.0,146.0" fill="#3d2823" />
</svg>