<svg xmlns="http://www.w3.org/2000/svg" width="768" height="768" viewBox="0 0 384 384">
<rect width="384" height="384" fill="#866861"/>
<polygon points="0.0,0.0 0.0,130.0 144.0,149.0 213.0,107.0 195.0,11.0 348.0,35.0 315.0,176.0 179.0,252.0 129.0,186.0 192.0,257.0 173.0,383.0 383.0,383.0 383.0,0.0" fill="#714837" />
<polygon points="0.0,0.0 0.0,130.0 136.0,148.0 211.0,109.0 175.0,93.0 195.0,11.0 351.0,37.0 320.0,171.0 175.0,253.0 172.0,381.0 383.0,383.0 383.0,0.0" fill="#714837" opacity="0.95" />
<polygon points="0.0,131.0 0.0,193.0 87.0,176.0 118.0,273.0 0.0,320.0 0.0,383.0 172.0,383.0 190.0,258.0 130.0,195.0 139.0,149.0" fill="#987267" />
<polygon points="87.0,177.0 0.0,194.0 0.0,313.0 113.0,271.0" fill="#d1d1d0" />
<polygon points="0.0,0.0 0.0,130.0 136.0,148.0 210.0,109.0 175.0,93.0 195.0,11.0 349.0,36.0 320.0,171.0 181.0,251.0 172.0,381.0 383.0,383.0 383.0,0.0" fill="#714837" opacity="0.95" />
<polygon points="268.0,78.0 213.0,109.0 224.0,161.0 160.0,226.0 170.0,244.0 313.0,155.0" fill="#36bfdf" />
<polygon points="212.0,110.0 125.0,165.0 159.0,225.0 222.0,164.0" fill="#95d7ee" />
<polygon points="0.0,131.0 0.0,193.0 88.0,177.0 117.0,270.0 0.0,320.0 0.0,383.0 172.0,383.0 190.0,258.0 130.0,195.0 139.0,151.0" fill="#987267" opacity="0.95" />
<polygon points="88.0,178.0 0.0,194.0 0.0,313.0 113.0,271.0" fill="#d1d1d0" opacity="0.95" />
<polygon points="0.0,131.0 0.0,193.0 88.0,177.0 117.0,270.0 0.0,320.0 0.0,383.0 172.0,383.0 190.0,258.0 130.0,195.0 138.0,150.0" fill="#987267" opacity="0.95" />
<polygon points="269.0,79.0 214.0,108.0 224.0,161.0 162.0,223.0 170.0,244.0 313.0,155.0" fill="#36bfdf" opacity="0.95" />
<polygon points="296.0,28.0 267.0,76.0 288.0,107.0 316.0,106.0 291.0,108.0 296.0,118.0 333.0,123.0 352.0,40.0" fill="#ed2e42" />
<polygon points="211.0,110.0 125.0,165.0 159.0,223.0 186.0,208.0 222.0,164.0" fill="#95d7ee" opacity="0.95" />
<polygon points="88.0,178.0 0.0,194.0 0.0,313.0 113.0,271.0 94.0,195.0 66.0,198.0" fill="#d1d1d0" opacity="0.95" />
<polygon points="269.0,79.0 214.0,109.0 224.0,161.0 161.0,225.0 170.0,244.0 313.0,155.0" fill="#36bfdf" opacity="0.95" />
<polygon points="211.0,111.0 125.0,165.0 159.0,223.0 183.0,210.0 222.0,164.0" fill="#95d7ee" opacity="0.95" />
<polygon points="319.0,162.0 168.0,247.0 310.0,178.0" fill="#291a18" />
<polygon points="296.0,28.0 268.0,77.0 288.0,105.0 333.0,109.0 293.0,108.0 295.0,117.0 332.0,123.0 352.0,40.0" fill="#ed2e42" opacity="0.95" />
<polygon points="294.0,28.0 262.0,23.0 260.0,43.0 245.0,64.0 249.0,71.0 225.0,64.0 218.0,84.0 239.0,92.0 266.0,76.0" fill="#e4575c" />
<polygon points="193.0,14.0 188.0,34.0 213.0,51.0 228.0,51.0 239.0,43.0 243.0,34.0 241.0,18.0 205.0,12.0" fill="#eba4a5" />
<polygon points="297.0,28.0 268.0,76.0 287.0,104.0 331.0,110.0 295.0,109.0 295.0,117.0 332.0,123.0 352.0,40.0" fill="#ed2e42" opacity="0.95" />
<polygon points="178.0,87.0 181.0,98.0 213.0,104.0 233.0,95.0 217.0,84.0 217.0,68.0 199.0,64.0 185.0,69.0" fill="#ed2e42" />
<polygon points="293.0,136.0 302.0,149.0 270.0,171.0 261.0,157.0" fill="#36bfdf" />
<polygon points="319.0,162.0 170.0,249.0 310.0,178.0" fill="#291a18" opacity="0.95" />
<polygon points="261.0,22.0 245.0,19.0 240.0,43.0 228.0,52.0 210.0,51.0 190.0,35.0 184.0,54.0 241.0,66.0 259.0,43.0" fill="#e77b7f" />
<polygon points="293.0,28.0 262.0,23.0 249.0,71.0 226.0,64.0 218.0,84.0 239.0,92.0 266.0,76.0" fill="#e4575c" opacity="0.95" />
<polygon points="115.0,272.0 0.0,319.0 108.0,282.0" fill="#291a18" />
<polygon points="311.0,52.0 321.0,50.0 337.0,53.0 340.0,56.0 337.0,71.0 329.0,74.0 311.0,70.0 308.0,67.0" fill="#ed2e42" />
<polygon points="319.0,162.0 176.0,249.0 315.0,175.0" fill="#291a18" opacity="0.95" />
<polygon points="193.0,14.0 189.0,33.0 201.0,45.0 213.0,51.0 228.0,51.0 239.0,43.0 242.0,19.0 205.0,12.0" fill="#eba4a5" opacity="0.95" />
<polygon points="181.0,76.0 181.0,98.0 219.0,104.0 231.0,97.0 217.0,84.0 216.0,68.0 196.0,64.0" fill="#ed2e42" opacity="0.95" />
<polygon points="293.0,28.0 262.0,23.0 250.0,69.0 226.0,66.0 218.0,84.0 241.0,91.0 264.0,77.0" fill="#e4575c" opacity="0.95" />
<polygon points="293.0,138.0 279.0,150.0 277.0,148.0 263.0,157.0 270.0,168.0 300.0,148.0" fill="#291a18" />
<polygon points="309.0,62.0 312.0,69.0 320.0,70.0 322.0,65.0 327.0,72.0 335.0,71.0 338.0,55.0 314.0,51.0" fill="#d1d1d0" />
<polygon points="294.0,137.0 302.0,147.0 301.0,151.0 275.0,168.0 268.0,169.0 261.0,157.0" fill="#36bfdf" opacity="0.95" />
<polygon points="260.0,22.0 244.0,20.0 243.0,37.0 228.0,52.0 210.0,51.0 191.0,35.0 184.0,53.0 241.0,66.0 259.0,43.0" fill="#e77b7f" opacity="0.95" />
<polygon points="193.0,14.0 189.0,32.0 201.0,45.0 213.0,51.0 228.0,51.0 239.0,43.0 243.0,34.0 241.0,19.0 205.0,12.0" fill="#eba4a5" opacity="0.95" />
<polygon points="183.0,72.0 178.0,87.0 180.0,97.0 213.0,104.0 229.0,98.0 217.0,84.0 217.0,69.0 196.0,64.0" fill="#ed2e42" opacity="0.95" />
<polygon points="311.0,52.0 321.0,50.0 338.0,54.0 340.0,62.0 337.0,71.0 329.0,74.0 310.0,69.0 308.0,61.0" fill="#ed2e42" opacity="0.95" />
<polygon points="355.0,44.0 339.0,118.0 331.0,126.0 341.0,123.0 357.0,55.0" fill="#291a18" />
<polygon points="294.0,137.0 302.0,149.0 275.0,168.0 268.0,169.0 261.0,157.0" fill="#36bfdf" opacity="0.95" />
<polygon points="310.0,54.0 315.0,50.0 338.0,54.0 340.0,62.0 337.0,71.0 329.0,74.0 310.0,69.0 308.0,67.0" fill="#ed2e42" opacity="0.95" />
<polygon points="260.0,23.0 244.0,20.0 243.0,37.0 228.0,52.0 210.0,51.0 192.0,37.0 185.0,51.0 241.0,66.0 259.0,43.0" fill="#e77b7f" opacity="0.95" />
<polygon points="86.0,185.0 88.0,195.0 78.0,199.0 75.0,196.0 73.0,200.0 52.0,207.0 48.0,203.0 50.0,199.0 56.0,200.0 70.0,191.0 74.0,192.0 78.0,185.0" fill="#d1d1d0" />
<polygon points="86.0,186.0 88.0,195.0 52.0,207.0 48.0,203.0 53.0,198.0 67.0,195.0 81.0,184.0" fill="#d1d1d0" opacity="0.95" />
<polygon points="102.0,256.0 102.0,260.0 98.0,264.0 86.0,268.0 83.0,268.0 81.0,266.0 82.0,261.0 87.0,257.0 98.0,254.0" fill="#d1d1d0" />
<polygon points="297.0,143.0 291.0,139.0 263.0,159.0 272.0,167.0 299.0,149.0" fill="#291a18" opacity="0.95" />
<polygon points="295.0,140.0 289.0,140.0 280.0,149.0 264.0,156.0 267.0,165.0 272.0,167.0 285.0,156.0 296.0,152.0 299.0,146.0" fill="#291a18" opacity="0.95" />
<polygon points="355.0,45.0 342.0,112.0 357.0,55.0" fill="#291a18" opacity="0.95" />
<polygon points="101.0,208.0 99.0,212.0 107.0,237.0 108.0,216.0 106.0,211.0" fill="#714837" />
<polygon points="102.0,256.0 100.0,263.0 86.0,268.0 82.0,266.0 83.0,259.0 98.0,254.0" fill="#d1d1d0" opacity="0.95" />
<polygon points="188.0,54.0 184.0,58.0 180.0,70.0 180.0,76.0 186.0,67.0 194.0,63.0 194.0,57.0" fill="#e4575c" />
<polygon points="129.0,184.0 136.0,203.0 152.0,226.0 156.0,226.0 135.0,187.0" fill="#714837" opacity="0.95" />
<polygon points="316.0,112.0 318.0,110.0 317.0,107.0 319.0,105.0 325.0,107.0 326.0,106.0 330.0,107.0 333.0,110.0 330.0,114.0 327.0,115.0 318.0,114.0" fill="#ed2e42" />
<polygon points="102.0,257.0 102.0,260.0 93.0,266.0 86.0,268.0 82.0,265.0 82.0,261.0 87.0,257.0 98.0,254.0" fill="#d1d1d0" opacity="0.95" />
<polygon points="192.0,221.0 190.0,225.0 188.0,226.0 187.0,225.0 178.0,232.0 175.0,230.0 175.0,227.0 177.0,225.0 180.0,226.0 186.0,220.0 190.0,219.0" fill="#36bfdf" />
<polygon points="101.0,256.0 98.0,255.0 88.0,258.0 83.0,263.0 86.0,266.0 89.0,263.0 90.0,264.0 92.0,262.0 94.0,263.0 96.0,261.0 97.0,262.0 100.0,261.0" fill="#ece121" />
<polygon points="101.0,208.0 99.0,209.0 104.0,229.0 106.0,230.0 108.0,229.0 108.0,216.0 106.0,211.0" fill="#714837" opacity="0.95" />
<polygon points="194.0,56.0 189.0,54.0 185.0,56.0 182.0,67.0 185.0,68.0 193.0,64.0" fill="#e4575c" opacity="0.95" />
<polygon points="195.0,219.0 195.0,221.0 188.0,226.0 185.0,227.0 182.0,225.0 183.0,222.0 192.0,217.0" fill="#36bfdf" opacity="0.95" />
<polygon points="338.0,55.0 335.0,54.0 332.0,58.0 326.0,59.0 332.0,64.0 332.0,67.0 325.0,69.0 325.0,71.0 328.0,72.0 331.0,68.0 337.0,67.0" fill="#d1d1d0" opacity="0.95" />
<polygon points="189.0,54.0 184.0,58.0 183.0,65.0 186.0,67.0 191.0,65.0 194.0,60.0 194.0,57.0" fill="#e4575c" opacity="0.95" />
<polygon points="201.0,210.0 203.0,212.0 203.0,213.0 204.0,214.0 204.0,215.0 202.0,217.0 199.0,214.0 199.0,212.0" fill="#36bfdf" />
<polygon points="203.0,65.0 204.0,66.0 211.0,66.0 212.0,65.0 211.0,64.0 211.0,62.0 209.0,60.0 206.0,60.0 205.0,61.0 205.0,63.0" fill="#e4575c" />
<polygon points="175.0,227.0 179.0,225.0 182.0,227.0 182.0,229.0 178.0,231.0 175.0,229.0" fill="#36bfdf" opacity="0.95" />
<polygon points="103.0,209.0 100.0,211.0 100.0,215.0 102.0,222.0 105.0,224.0 108.0,222.0 108.0,216.0 106.0,211.0" fill="#714837" opacity="0.95" />
<polygon points="298.0,121.0 298.0,122.0 300.0,124.0 302.0,124.0 303.0,123.0 310.0,123.0 311.0,122.0 310.0,121.0 305.0,121.0 304.0,120.0 299.0,120.0" fill="#291a18" />
<polygon points="101.0,256.0 98.0,255.0 92.0,258.0 91.0,257.0 89.0,258.0 89.0,260.0 91.0,261.0 96.0,259.0 99.0,261.0 101.0,260.0" fill="#ece121" opacity="0.95" />
<polygon points="133.0,187.0 130.0,189.0 130.0,192.0 133.0,198.0 136.0,200.0 139.0,198.0 139.0,196.0 137.0,194.0 136.0,189.0" fill="#714837" opacity="0.95" />
<polygon points="205.0,61.0 205.0,65.0 207.0,66.0 209.0,66.0 211.0,65.0 211.0,62.0 208.0,60.0" fill="#e4575c" opacity="0.95" />
<polygon points="208.0,60.0 205.0,62.0 205.0,64.0 208.0,66.0 211.0,64.0 211.0,62.0" fill="#e4575c" opacity="0.95" />
</svg>