<svg xmlns="http://www.w3.org/2000/svg" width="768" height="768" viewBox="0 0 384 384">
<rect width="384" height="384" fill="#986458"/>
<polygon points="0.0,0.0 0.0,125.0 129.0,131.0 3.0,154.0 2.0,190.0 128.0,189.0 133.0,254.0 254.0,256.0 255.0,319.0 383.0,319.0 383.0,255.0 251.0,233.0 257.0,191.0 383.0,191.0 383.0,0.0" fill="#994d41" />
<polygon points="246.0,91.0 253.0,183.0 240.0,238.0 146.0,242.0 133.0,95.0 172.0,117.0 211.0,117.0" fill="#994d41" />
<polygon points="0.0,0.0 0.0,125.0 106.0,131.0 1.0,188.0 132.0,189.0 137.0,92.0 248.0,93.0 235.0,243.0 134.0,197.0 129.0,255.0 0.0,257.0 1.0,319.0 128.0,319.0 134.0,254.0 253.0,255.0 254.0,319.0 133.0,323.0 133.0,383.0 383.0,319.0 383.0,255.0 252.0,240.0 258.0,191.0 383.0,191.0 383.0,0.0" fill="#994d41" opacity="0.95" />
<polygon points="0.0,323.0 0.0,383.0 132.0,383.0 134.0,321.0 246.0,319.0 254.0,383.0 383.0,383.0 383.0,320.0 255.0,320.0 252.0,255.0 133.0,255.0 129.0,320.0" fill="#ad6c5d" />
<polygon points="0.0,257.0 2.0,320.0 131.0,316.0 130.0,255.0" fill="#994d41" />
<polygon points="136.0,93.0 141.0,205.0 186.0,229.0 237.0,210.0 252.0,181.0 240.0,137.0 248.0,95.0 212.0,118.0 171.0,118.0" fill="#59fbee" />
<polygon points="255.0,194.0 256.0,254.0 383.0,254.0 383.0,192.0" fill="#ad6c5d" />
<polygon points="0.0,0.0 0.0,125.0 104.0,132.0 0.0,187.0 131.0,189.0 137.0,92.0 247.0,93.0 235.0,243.0 135.0,200.0 128.0,255.0 0.0,257.0 0.0,318.0 250.0,254.0 254.0,317.0 134.0,323.0 133.0,383.0 383.0,319.0 383.0,255.0 252.0,240.0 257.0,191.0 383.0,191.0 383.0,0.0" fill="#994d41" opacity="0.95" />
<polygon points="253.0,322.0 134.0,322.0 133.0,383.0 253.0,383.0" fill="#994d41" />
<polygon points="0.0,193.0 3.0,255.0 37.0,254.0 42.0,246.0 49.0,254.0 131.0,253.0 128.0,190.0" fill="#ad6c5d" />
<polygon points="0.0,192.0 3.0,255.0 132.0,256.0 130.0,319.0 3.0,321.0 0.0,383.0 132.0,383.0 133.0,322.0 246.0,319.0 254.0,383.0 383.0,383.0 383.0,320.0 254.0,319.0 253.0,255.0 132.0,254.0 128.0,190.0" fill="#ad6c5d" opacity="0.95" />
<polygon points="135.0,94.0 141.0,205.0 186.0,229.0 237.0,210.0 252.0,181.0 240.0,137.0 248.0,95.0 211.0,118.0 172.0,118.0" fill="#59fbee" opacity="0.95" />
<polygon points="0.0,192.0 6.0,255.0 132.0,257.0 129.0,319.0 0.0,323.0 0.0,383.0 132.0,383.0 134.0,322.0 246.0,319.0 254.0,383.0 383.0,383.0 383.0,320.0 253.0,317.0 257.0,253.0 383.0,254.0 383.0,192.0 258.0,192.0 251.0,256.0 133.0,254.0 128.0,190.0" fill="#ad6c5d" opacity="0.95" />
<polygon points="255.0,194.0 255.0,254.0 383.0,254.0 383.0,192.0" fill="#ad6c5d" opacity="0.95" />
<polygon points="247.0,94.0 211.0,118.0 172.0,118.0 135.0,96.0 132.0,182.0 150.0,214.0 198.0,229.0 242.0,205.0" fill="#59fbee" opacity="0.95" />
<polygon points="0.0,130.0 0.0,151.0 26.0,167.0 107.0,131.0 112.0,147.0 127.0,152.0 127.0,130.0" fill="#ad6c5d" />
<polygon points="0.0,130.0 0.0,151.0 26.0,167.0 106.0,132.0 113.0,148.0 127.0,149.0 126.0,130.0" fill="#ad6c5d" opacity="0.95" />
<polygon points="0.0,151.0 12.0,162.0 31.0,167.0 53.0,150.0 73.0,150.0 103.0,132.0 4.0,128.0" fill="#ad6c5d" opacity="0.95" />
<polygon points="220.0,243.0 214.0,233.0 196.0,230.0 169.0,233.0 163.0,242.0" fill="#50201e" />
<polygon points="235.0,212.0 215.0,225.0 216.0,236.0 223.0,243.0 233.0,243.0 240.0,236.0 241.0,225.0" fill="#014f9d" />
<polygon points="148.0,213.0 142.0,223.0 142.0,235.0 150.0,243.0 159.0,243.0 166.0,237.0 168.0,225.0" fill="#014f9d" />
<polygon points="235.0,213.0 215.0,224.0 216.0,236.0 223.0,243.0 230.0,244.0 240.0,236.0 241.0,225.0" fill="#014f9d" opacity="0.95" />
<polygon points="148.0,214.0 142.0,223.0 142.0,235.0 150.0,243.0 159.0,243.0 166.0,237.0 168.0,225.0" fill="#014f9d" opacity="0.95" />
<polygon points="218.0,240.0 213.0,233.0 195.0,230.0 170.0,233.0 165.0,242.0 197.0,241.0 216.0,244.0" fill="#50201e" opacity="0.95" />
<polygon points="234.0,213.0 215.0,225.0 217.0,238.0 226.0,244.0 236.0,241.0 241.0,233.0 239.0,218.0" fill="#014f9d" opacity="0.95" />
<polygon points="148.0,214.0 142.0,223.0 142.0,235.0 150.0,243.0 159.0,243.0 166.0,237.0 168.0,225.0" fill="#014f9d" opacity="0.95" />
<polygon points="217.0,239.0 212.0,233.0 195.0,230.0 171.0,233.0 166.0,241.0 214.0,243.0" fill="#50201e" opacity="0.95" />
<polygon points="164.0,147.0 168.0,147.0 172.0,151.0 172.0,154.0 168.0,159.0 164.0,159.0 160.0,155.0 160.0,151.0" fill="#59fbee" />
<polygon points="181.0,170.0 183.0,170.0 186.0,173.0 186.0,180.0 183.0,184.0 181.0,184.0 177.0,179.0 177.0,175.0" fill="#59fbee" />
<polygon points="215.0,147.0 219.0,147.0 223.0,151.0 223.0,154.0 220.0,158.0 214.0,158.0 211.0,155.0 211.0,151.0" fill="#59fbee" />
<polygon points="199.0,170.0 201.0,170.0 205.0,175.0 205.0,179.0 201.0,184.0 199.0,184.0 196.0,180.0 196.0,174.0" fill="#59fbee" />
<polygon points="109.0,130.0 126.0,129.0 129.0,131.0 128.0,152.0 123.0,155.0 120.0,151.0 116.0,151.0 111.0,147.0 112.0,135.0 108.0,133.0" fill="#994d41" opacity="0.95" />
<polygon points="335.0,53.0 339.0,57.0 341.0,61.0 339.0,63.0 331.0,63.0 329.0,61.0" fill="#994d41" />
<polygon points="182.0,170.0 186.0,173.0 186.0,180.0 182.0,184.0 177.0,179.0 178.0,173.0" fill="#59fbee" opacity="0.95" />
<polygon points="114.0,129.0 125.0,129.0 129.0,132.0 128.0,152.0 124.0,155.0 114.0,150.0 110.0,145.0 112.0,141.0 110.0,132.0" fill="#994d41" opacity="0.95" />
<polygon points="165.0,147.0 170.0,148.0 172.0,151.0 171.0,156.0 167.0,159.0 163.0,158.0 160.0,155.0 160.0,151.0" fill="#59fbee" opacity="0.95" />
<polygon points="211.0,151.0 214.0,148.0 219.0,147.0 222.0,149.0 223.0,154.0 221.0,157.0 215.0,158.0 211.0,155.0" fill="#59fbee" opacity="0.95" />
<polygon points="164.0,148.0 161.0,152.0 162.0,156.0 163.0,157.0 168.0,157.0 171.0,154.0 171.0,152.0 168.0,148.0" fill="#0c2b5f" />
<polygon points="215.0,148.0 213.0,150.0 212.0,154.0 215.0,157.0 219.0,157.0 221.0,155.0 222.0,152.0 219.0,148.0" fill="#0c2b5f" />
<polygon points="169.0,227.0 169.0,231.0 170.0,232.0 183.0,231.0 184.0,230.0 172.0,226.0" fill="#994d41" />
<polygon points="181.0,171.0 179.0,173.0 179.0,181.0 180.0,182.0 183.0,182.0 185.0,179.0 185.0,174.0 183.0,171.0" fill="#50201e" />
<polygon points="200.0,171.0 197.0,175.0 197.0,178.0 198.0,179.0 198.0,181.0 200.0,183.0 201.0,183.0 203.0,181.0 203.0,173.0 201.0,171.0" fill="#50201e" />
<polygon points="335.0,54.0 331.0,61.0 332.0,62.0 339.0,62.0 340.0,61.0" fill="#ebc3ae" />
<polygon points="115.0,130.0 112.0,132.0 113.0,141.0 111.0,145.0 113.0,148.0 117.0,148.0 123.0,152.0 127.0,149.0 127.0,141.0 121.0,136.0 120.0,131.0" fill="#ad6c5d" opacity="0.95" />
<polygon points="42.0,247.0 39.0,253.0 40.0,254.0 46.0,254.0 47.0,253.0 46.0,251.0 44.0,249.0 44.0,248.0" fill="#ebc3ae" />
<polygon points="165.0,148.0 162.0,150.0 162.0,156.0 167.0,157.0 171.0,154.0 171.0,152.0 169.0,149.0" fill="#0c2b5f" opacity="0.95" />
<polygon points="216.0,148.0 213.0,150.0 212.0,154.0 213.0,156.0 218.0,157.0 221.0,155.0 221.0,150.0 218.0,148.0" fill="#0c2b5f" opacity="0.95" />
<polygon points="182.0,171.0 179.0,173.0 179.0,181.0 181.0,182.0 184.0,181.0 185.0,179.0 185.0,174.0 184.0,172.0" fill="#50201e" opacity="0.95" />
<polygon points="200.0,172.0 198.0,173.0 197.0,178.0 198.0,179.0 198.0,181.0 201.0,182.0 203.0,181.0 203.0,173.0" fill="#50201e" opacity="0.95" />
<polygon points="165.0,148.0 162.0,150.0 162.0,155.0 165.0,157.0 167.0,157.0 171.0,154.0 171.0,152.0 169.0,149.0" fill="#0c2b5f" opacity="0.95" />
<polygon points="216.0,148.0 213.0,150.0 212.0,154.0 214.0,156.0 218.0,157.0 221.0,155.0 221.0,150.0 218.0,148.0" fill="#0c2b5f" opacity="0.95" />
<polygon points="182.0,172.0 179.0,174.0 179.0,179.0 182.0,181.0 185.0,179.0 185.0,174.0" fill="#50201e" opacity="0.95" />
<polygon points="200.0,173.0 197.0,175.0 197.0,178.0 200.0,180.0 203.0,178.0 203.0,175.0" fill="#50201e" opacity="0.95" />
<polygon points="332.0,59.0 332.0,61.0 334.0,62.0 337.0,62.0 339.0,61.0 339.0,59.0 335.0,56.0 333.0,57.0" fill="#ebc3ae" opacity="0.95" />
<polygon points="40.0,250.0 40.0,253.0 42.0,254.0 44.0,254.0 46.0,253.0 46.0,251.0 43.0,249.0" fill="#ebc3ae" opacity="0.95" />
</svg>