<svg xmlns="http://www.w3.org/2000/svg" width="768" height="768" viewBox="0 0 384 384">
<rect width="384" height="384" fill="#87706c"/>
<polygon points="0.0,0.0 0.0,109.0 144.0,109.0 153.0,87.0 106.0,46.0 229.0,12.0 357.0,42.0 337.0,108.0 383.0,109.0 383.0,0.0" fill="#452017" />
<polygon points="0.0,184.0 0.0,320.0 72.0,320.0 95.0,274.0 134.0,253.0 119.0,242.0 116.0,206.0 67.0,185.0" fill="#bca797" />
<polygon points="0.0,0.0 0.0,109.0 143.0,109.0 153.0,86.0 106.0,46.0 229.0,12.0 351.0,36.0 338.0,108.0 383.0,109.0 383.0,0.0" fill="#452017" opacity="0.95" />
<polygon points="2.0,183.0 0.0,383.0 64.0,383.0 59.0,322.0 103.0,266.0 134.0,251.0 113.0,208.0 67.0,185.0" fill="#bca797" opacity="0.95" />
<polygon points="87.0,368.0 105.0,383.0 286.0,383.0 335.0,328.0 251.0,325.0 251.0,342.0 178.0,374.0 152.0,352.0 159.0,325.0 93.0,325.0" fill="#7e695c" />
<polygon points="239.0,15.0 261.0,78.0 359.0,46.0" fill="#fd7573" />
<polygon points="0.0,151.0 99.0,159.0 139.0,125.0 135.0,118.0 0.0,118.0" fill="#7e695c" />
<polygon points="309.0,200.0 291.0,250.0 312.0,249.0 359.0,274.0 383.0,320.0 383.0,201.0" fill="#bca797" />
<polygon points="0.0,0.0 0.0,109.0 142.0,109.0 152.0,87.0 106.0,66.0 112.0,39.0 229.0,12.0 353.0,36.0 338.0,107.0 383.0,109.0 383.0,0.0" fill="#452017" opacity="0.95" />
<polygon points="2.0,183.0 0.0,383.0 64.0,383.0 61.0,323.0 103.0,266.0 134.0,251.0 113.0,208.0 66.0,186.0" fill="#bca797" opacity="0.95" />
<polygon points="290.0,242.0 361.0,48.0 235.0,94.0 107.0,48.0 169.0,85.0 145.0,133.0 172.0,85.0 343.0,77.0" fill="#f71d1c" />
<polygon points="0.0,325.0 0.0,383.0 64.0,383.0 56.0,368.0 62.0,325.0" fill="#bca797" />
<polygon points="195.0,27.0 189.0,75.0 221.0,86.0 261.0,79.0 249.0,57.0 242.0,17.0 216.0,15.0" fill="#fda09f" />
<polygon points="200.0,23.0 108.0,47.0 178.0,77.0 190.0,68.0" fill="#fd7573" />
<polygon points="253.0,186.0 226.0,175.0 214.0,120.0 173.0,160.0 205.0,194.0 161.0,179.0 194.0,221.0 115.0,193.0 199.0,229.0" fill="#31d7fb" />
<polygon points="383.0,159.0 322.0,160.0 299.0,216.0 311.0,197.0 383.0,200.0" fill="#a58f80" />
<polygon points="116.0,181.0 187.0,220.0 189.0,198.0 156.0,177.0 204.0,194.0 201.0,178.0 163.0,159.0" fill="#91e7fd" />
<polygon points="342.0,294.0 326.0,325.0 253.0,325.0 179.0,374.0 155.0,322.0 188.0,304.0 145.0,292.0 143.0,324.0 89.0,328.0 88.0,371.0 285.0,383.0 331.0,342.0" fill="#7e695c" opacity="0.95" />
<polygon points="313.0,198.0 292.0,248.0 362.0,276.0 382.0,322.0 330.0,383.0 383.0,383.0 383.0,201.0" fill="#bca797" opacity="0.95" />
<polygon points="0.0,152.0 0.0,183.0 62.0,188.0 73.0,176.0 94.0,175.0 100.0,168.0 97.0,158.0" fill="#a58f80" />
<polygon points="243.0,15.0 262.0,77.0 358.0,47.0" fill="#fd7573" opacity="0.95" />
<polygon points="362.0,51.0 234.0,94.0 106.0,55.0 218.0,105.0 337.0,84.0 309.0,183.0" fill="#f71d1c" opacity="0.95" />
<polygon points="342.0,294.0 323.0,325.0 256.0,325.0 179.0,374.0 157.0,323.0 215.0,279.0 145.0,292.0 140.0,324.0 89.0,328.0 88.0,371.0 285.0,383.0" fill="#7e695c" opacity="0.95" />
<polygon points="329.0,260.0 312.0,256.0 305.0,265.0 305.0,255.0 292.0,263.0 278.0,307.0 294.0,315.0 320.0,307.0 336.0,279.0" fill="#171616" />
<polygon points="0.0,151.0 98.0,158.0 117.0,149.0 118.0,138.0 138.0,124.0 134.0,118.0 0.0,118.0" fill="#7e695c" opacity="0.95" />
<polygon points="202.0,311.0 211.0,320.0 321.0,320.0 330.0,298.0 310.0,313.0 290.0,315.0 277.0,307.0 280.0,284.0 257.0,276.0" fill="#4a3f39" />
<polygon points="195.0,27.0 189.0,75.0 221.0,86.0 259.0,80.0 244.0,18.0 216.0,15.0" fill="#fda09f" opacity="0.95" />
<polygon points="313.0,198.0 292.0,248.0 359.0,274.0 383.0,322.0 330.0,383.0 383.0,383.0 383.0,201.0" fill="#bca797" opacity="0.95" />
<polygon points="136.0,267.0 121.0,264.0 110.0,273.0 109.0,266.0 93.0,279.0 90.0,299.0 106.0,318.0 135.0,307.0 144.0,286.0 144.0,274.0" fill="#171616" />
<polygon points="223.0,111.0 237.0,153.0 258.0,166.0 279.0,143.0 311.0,127.0 295.0,121.0 258.0,129.0 235.0,107.0" fill="#0477bd" />
<polygon points="378.0,329.0 337.0,325.0 332.0,342.0 295.0,368.0 286.0,382.0 328.0,383.0 355.0,346.0" fill="#a58f80" />
<polygon points="201.0,312.0 187.0,310.0 181.0,318.0 179.0,309.0 162.0,324.0 157.0,344.0 171.0,365.0 190.0,362.0 207.0,347.0 212.0,325.0" fill="#171616" />
<polygon points="331.0,258.0 343.0,294.0 337.0,319.0 377.0,316.0 376.0,299.0 365.0,281.0" fill="#a58f80" />
<polygon points="383.0,325.0 378.0,325.0 375.0,335.0 356.0,346.0 329.0,383.0 383.0,383.0" fill="#bca797" />
<polygon points="275.0,188.0 226.0,175.0 214.0,123.0 174.0,156.0 205.0,183.0 171.0,183.0 193.0,220.0 115.0,194.0 199.0,229.0" fill="#31d7fb" opacity="0.95" />
<polygon points="245.0,17.0 262.0,77.0 358.0,47.0" fill="#fd7573" opacity="0.95" />
<polygon points="383.0,159.0 321.0,161.0 305.0,199.0 383.0,200.0" fill="#a58f80" opacity="0.95" />
<polygon points="362.0,51.0 233.0,94.0 106.0,55.0 240.0,105.0 332.0,85.0" fill="#f71d1c" opacity="0.95" />
<polygon points="198.0,22.0 108.0,47.0 170.0,68.0 175.0,76.0 186.0,74.0" fill="#fd7573" opacity="0.95" />
<polygon points="333.0,119.0 336.0,123.0 326.0,136.0 321.0,160.0 383.0,158.0 383.0,118.0 374.0,118.0 379.0,122.0 367.0,127.0 352.0,123.0 362.0,118.0" fill="#7e695c" />
<polygon points="116.0,181.0 187.0,220.0 190.0,200.0 170.0,183.0 204.0,193.0 201.0,178.0 161.0,160.0" fill="#91e7fd" opacity="0.95" />
<polygon points="0.0,117.0 140.0,117.0 143.0,112.0 3.0,110.0" fill="#bca797" />
<polygon points="0.0,183.0 62.0,187.0 73.0,176.0 96.0,174.0 100.0,160.0 0.0,152.0" fill="#a58f80" opacity="0.95" />
<polygon points="195.0,27.0 190.0,75.0 221.0,86.0 259.0,79.0 243.0,18.0 216.0,15.0" fill="#fda09f" opacity="0.95" />
<polygon points="67.0,326.0 57.0,362.0 65.0,383.0 104.0,383.0 91.0,377.0 86.0,368.0 93.0,354.0 87.0,339.0 89.0,327.0" fill="#a58f80" />
<polygon points="337.0,261.0 341.0,323.0 287.0,383.0 328.0,383.0 377.0,332.0 349.0,324.0 378.0,310.0 362.0,277.0" fill="#a58f80" opacity="0.95" />
<polygon points="220.0,107.0 214.0,117.0 220.0,162.0 229.0,177.0 253.0,184.0 258.0,167.0 236.0,153.0" fill="#05a2e4" />
<polygon points="194.0,25.0 108.0,47.0 185.0,73.0" fill="#fd7573" opacity="0.95" />
<polygon points="325.0,307.0 287.0,314.0 280.0,284.0 257.0,276.0 203.0,310.0 217.0,322.0 209.0,345.0 174.0,370.0 252.0,340.0 244.0,320.0 321.0,320.0" fill="#4a3f39" opacity="0.95" />
<polygon points="0.0,151.0 96.0,158.0 116.0,149.0 118.0,138.0 138.0,124.0 133.0,118.0 126.0,124.0 113.0,118.0 0.0,118.0" fill="#7e695c" opacity="0.95" />
<polygon points="274.0,189.0 226.0,175.0 213.0,126.0 174.0,157.0 205.0,183.0 185.0,191.0 191.0,220.0 115.0,193.0 199.0,229.0" fill="#31d7fb" opacity="0.95" />
<polygon points="122.0,264.0 93.0,279.0 90.0,299.0 105.0,317.0 135.0,307.0 144.0,286.0 143.0,273.0" fill="#171616" opacity="0.95" />
<polygon points="116.0,181.0 187.0,220.0 184.0,191.0 204.0,192.0 201.0,178.0 159.0,161.0" fill="#91e7fd" opacity="0.95" />
<polygon points="383.0,159.0 323.0,160.0 306.0,196.0 334.0,202.0 383.0,200.0" fill="#a58f80" opacity="0.95" />
<polygon points="331.0,88.0 311.0,83.0 307.0,93.0 287.0,93.0 271.0,109.0 303.0,122.0 295.0,110.0 323.0,109.0" fill="#452017" />
<polygon points="339.0,262.0 341.0,323.0 287.0,383.0 328.0,383.0 377.0,332.0 368.0,323.0 378.0,315.0 375.0,297.0" fill="#a58f80" opacity="0.95" />
<polygon points="223.0,111.0 237.0,153.0 277.0,172.0 284.0,155.0 277.0,145.0 310.0,128.0 295.0,121.0 258.0,129.0 236.0,108.0" fill="#0477bd" opacity="0.95" />
<polygon points="237.0,107.0 245.0,122.0 253.0,127.0 271.0,128.0 294.0,120.0 254.0,104.0" fill="#0a447c" />
<polygon points="206.0,315.0 189.0,310.0 162.0,324.0 157.0,344.0 171.0,365.0 202.0,354.0 198.0,348.0 208.0,345.0 212.0,331.0" fill="#171616" opacity="0.95" />
<polygon points="329.0,260.0 312.0,256.0 307.0,263.0 302.0,256.0 289.0,267.0 278.0,307.0 300.0,315.0 323.0,305.0 319.0,297.0 336.0,279.0" fill="#171616" opacity="0.95" />
<polygon points="255.0,334.0 248.0,326.0 214.0,325.0 203.0,354.0 179.0,367.0 157.0,347.0 153.0,352.0 161.0,366.0 180.0,373.0" fill="#4a3f39" />
<polygon points="189.0,305.0 161.0,289.0 144.0,292.0 142.0,296.0 146.0,303.0 139.0,319.0 164.0,320.0 176.0,309.0" fill="#7e695c" />
<polygon points="334.0,119.0 321.0,158.0 383.0,158.0 383.0,118.0 367.0,127.0 353.0,125.0 351.0,118.0" fill="#7e695c" opacity="0.95" />
<polygon points="280.0,286.0 257.0,276.0 204.0,309.0 216.0,322.0 206.0,354.0 252.0,340.0 250.0,320.0 291.0,319.0 277.0,307.0" fill="#4a3f39" opacity="0.95" />
<polygon points="219.0,108.0 228.0,176.0 260.0,190.0 297.0,184.0 304.0,153.0 294.0,152.0 281.0,178.0 236.0,153.0" fill="#05a2e4" opacity="0.95" />
<polygon points="207.0,131.0 164.0,132.0 181.0,114.0 163.0,111.0 130.0,157.0 159.0,160.0 196.0,146.0" fill="#7e695c" opacity="0.95" />
<polygon points="223.0,111.0 237.0,153.0 277.0,172.0 279.0,144.0 309.0,128.0 295.0,121.0 258.0,129.0 236.0,108.0" fill="#0477bd" opacity="0.95" />
<polygon points="136.0,267.0 122.0,264.0 93.0,279.0 90.0,299.0 105.0,317.0 133.0,309.0 129.0,302.0 141.0,295.0 143.0,273.0" fill="#171616" opacity="0.95" />
<polygon points="334.0,265.0 313.0,256.0 299.0,268.0 289.0,267.0 278.0,307.0 294.0,315.0 311.0,311.0 310.0,303.0 334.0,285.0" fill="#171616" opacity="0.95" />
<polygon points="216.0,113.0 228.0,176.0 261.0,189.0 298.0,182.0 311.0,135.0 283.0,174.0 262.0,172.0 236.0,153.0" fill="#05a2e4" opacity="0.95" />
<polygon points="312.0,133.0 301.0,140.0 287.0,162.0 281.0,190.0 298.0,182.0 306.0,155.0 297.0,149.0 309.0,147.0" fill="#05a2e4" />
<polygon points="161.0,108.0 197.0,110.0 209.0,102.0 188.0,101.0 183.0,97.0 183.0,90.0 172.0,86.0" fill="#452017" />
<polygon points="260.0,207.0 250.0,211.0 254.0,216.0 246.0,225.0 241.0,256.0 256.0,249.0 263.0,216.0 256.0,214.0" fill="#0477bd" />
<polygon points="0.0,111.0 0.0,117.0 142.0,115.0 140.0,111.0" fill="#bca797" opacity="0.95" />
<polygon points="206.0,315.0 190.0,310.0 178.0,321.0 162.0,324.0 157.0,344.0 171.0,365.0 187.0,363.0 189.0,353.0 209.0,342.0 212.0,325.0" fill="#171616" opacity="0.95" />
<polygon points="235.0,218.0 214.0,235.0 211.0,257.0 215.0,262.0 231.0,256.0 232.0,247.0 225.0,245.0 227.0,238.0 234.0,234.0" fill="#0477bd" />
<polygon points="264.0,267.0 198.0,305.0 173.0,294.0 200.0,309.0" fill="#f1efee" />
<polygon points="269.0,323.0 383.0,324.0 383.0,321.0" fill="#f1efee" />
<polygon points="71.0,181.0 72.0,191.0 81.0,198.0 93.0,202.0 107.0,200.0 84.0,184.0" fill="#f71d1c" />
<polygon points="330.0,88.0 312.0,84.0 305.0,94.0 287.0,93.0 272.0,110.0 301.0,121.0 299.0,110.0 323.0,109.0" fill="#452017" opacity="0.95" />
<polygon points="238.0,107.0 245.0,122.0 253.0,127.0 271.0,128.0 293.0,121.0 254.0,104.0" fill="#0a447c" opacity="0.95" />
<polygon points="247.0,205.0 211.0,217.0 209.0,224.0 233.0,218.0 244.0,212.0" fill="#05a2e4" />
<polygon points="279.0,174.0 264.0,169.0 257.0,189.0 260.0,190.0 274.0,186.0 277.0,183.0" fill="#05a2e4" />
<polygon points="283.0,148.0 277.0,150.0 265.0,161.0 263.0,167.0 265.0,169.0 277.0,172.0 280.0,171.0 285.0,150.0" fill="#0477bd" />
<polygon points="168.0,90.0 157.0,90.0 140.0,131.0 147.0,130.0" fill="#f71d1c" opacity="0.95" />
<polygon points="330.0,89.0 313.0,84.0 305.0,94.0 290.0,92.0 273.0,110.0 298.0,120.0 303.0,108.0 323.0,109.0" fill="#452017" opacity="0.95" />
<polygon points="145.0,299.0 141.0,297.0 131.0,312.0 111.0,319.0 137.0,320.0" fill="#4a3f39" />
<polygon points="336.0,95.0 321.0,125.0 308.0,183.0 330.0,129.0" fill="#f71d1c" opacity="0.95" />
<polygon points="143.0,140.0 129.0,144.0 120.0,140.0 119.0,148.0 127.0,156.0 114.0,161.0 103.0,157.0 101.0,167.0 114.0,176.0 109.0,170.0 127.0,163.0 130.0,151.0" fill="#f71d1c" />
<polygon points="285.0,192.0 278.0,196.0 275.0,206.0 280.0,208.0 275.0,211.0 271.0,228.0 281.0,224.0" fill="#0477bd" />
<polygon points="287.0,141.0 261.0,161.0 249.0,210.0 264.0,161.0" fill="#f1efee" />
<polygon points="238.0,108.0 245.0,122.0 253.0,127.0 271.0,128.0 291.0,121.0 254.0,104.0" fill="#0a447c" opacity="0.95" />
<polygon points="258.0,208.0 250.0,211.0 252.0,217.0 246.0,225.0 242.0,255.0 256.0,249.0 256.0,235.0 262.0,219.0" fill="#0477bd" opacity="0.95" />
<polygon points="273.0,196.0 211.0,217.0 209.0,224.0 266.0,204.0" fill="#05a2e4" opacity="0.95" />
<polygon points="201.0,111.0 167.0,124.0 141.0,165.0 168.0,126.0" fill="#f1efee" />
<polygon points="85.0,180.0 93.0,184.0 99.0,190.0 111.0,193.0 114.0,190.0 113.0,182.0 91.0,179.0" fill="#f71d1c" />
<polygon points="162.0,108.0 197.0,110.0 207.0,106.0 208.0,102.0 188.0,101.0 184.0,98.0 184.0,91.0 173.0,86.0" fill="#452017" opacity="0.95" />
<polygon points="233.0,224.0 214.0,235.0 212.0,259.0 216.0,262.0 231.0,256.0 232.0,247.0 226.0,244.0 226.0,240.0 234.0,234.0" fill="#0477bd" opacity="0.95" />
<polygon points="225.0,281.0 219.0,279.0 205.0,290.0 205.0,296.0 208.0,297.0 225.0,286.0" fill="#4a3f39" />
<polygon points="196.0,117.0 185.0,122.0 182.0,128.0 189.0,133.0 196.0,131.0" fill="#4a3f39" />
<polygon points="213.0,322.0 214.0,324.0 267.0,323.0 266.0,321.0" fill="#d4cfd0" />
<polygon points="71.0,182.0 72.0,191.0 81.0,198.0 93.0,202.0 106.0,201.0 85.0,185.0" fill="#f71d1c" opacity="0.95" />
<polygon points="93.0,177.0 94.0,179.0 113.0,181.0 115.0,179.0 101.0,169.0" fill="#fda09f" />
<polygon points="212.0,113.0 185.0,122.0 183.0,129.0 192.0,133.0 200.0,126.0 209.0,128.0" fill="#4a3f39" opacity="0.95" />
<polygon points="142.0,76.0 145.0,82.0 156.0,88.0 164.0,89.0 166.0,86.0 162.0,82.0" fill="#fda09f" />
<polygon points="195.0,232.0 191.0,234.0 197.0,280.0 199.0,277.0 197.0,257.0 200.0,254.0 197.0,251.0 198.0,235.0" fill="#d4cfd0" />
<polygon points="247.0,272.0 238.0,269.0 226.0,274.0 232.0,281.0 234.0,281.0" fill="#4a3f39" />
<polygon points="163.0,107.0 197.0,110.0 208.0,103.0 188.0,101.0 184.0,98.0 183.0,90.0 173.0,87.0" fill="#452017" opacity="0.95" />
<polygon points="114.0,184.0 96.0,180.0 89.0,189.0 74.0,182.0 71.0,189.0 85.0,200.0 101.0,202.0 104.0,200.0 102.0,194.0 113.0,191.0" fill="#f71d1c" opacity="0.95" />
<polygon points="210.0,112.0 203.0,115.0 201.0,120.0 201.0,126.0 207.0,130.0 213.0,118.0 213.0,115.0" fill="#4a3f39" />
<polygon points="273.0,196.0 271.0,195.0 255.0,201.0 251.0,207.0 256.0,208.0 267.0,204.0 272.0,200.0" fill="#05a2e4" />
<polygon points="328.0,287.0 330.0,289.0 327.0,295.0 320.0,302.0 311.0,307.0 309.0,304.0 317.0,299.0" fill="#171616" />
<polygon points="275.0,188.0 271.0,187.0 260.0,191.0 259.0,190.0 256.0,192.0 255.0,198.0 260.0,199.0 268.0,196.0 274.0,192.0" fill="#31d7fb" />
<polygon points="232.0,224.0 214.0,235.0 215.0,250.0 212.0,259.0 216.0,262.0 227.0,260.0 231.0,256.0 231.0,248.0 226.0,244.0 226.0,240.0 234.0,234.0 235.0,226.0" fill="#0477bd" opacity="0.95" />
<polygon points="300.0,113.0 305.0,121.0 311.0,125.0 316.0,124.0 319.0,120.0 316.0,117.0 301.0,112.0" fill="#9a1412" />
<polygon points="221.0,92.0 222.0,93.0 235.0,93.0 237.0,88.0 236.0,87.0 222.0,87.0 221.0,88.0" fill="#fd7573" />
<polygon points="199.0,150.0 206.0,158.0 206.0,163.0 204.0,165.0 201.0,164.0 199.0,165.0 196.0,162.0 196.0,156.0 197.0,155.0 197.0,152.0" fill="#31d7fb" />
<polygon points="140.0,136.0 136.0,134.0 125.0,138.0 119.0,138.0 129.0,143.0 135.0,141.0" fill="#fd7573" />
<polygon points="247.0,207.0 242.0,205.0 210.0,218.0 209.0,222.0 213.0,224.0 232.0,218.0" fill="#05a2e4" opacity="0.95" />
<polygon points="191.0,236.0 168.0,236.0 171.0,242.0 168.0,251.0 176.0,254.0 173.0,244.0 180.0,240.0 189.0,244.0" fill="#0a447c" opacity="0.95" />
<polygon points="180.0,236.0 180.0,238.0 183.0,242.0 186.0,242.0 189.0,245.0 192.0,244.0 190.0,235.0 184.0,234.0" fill="#0a447c" />
<polygon points="269.0,233.0 266.0,237.0 266.0,242.0 268.0,244.0 270.0,242.0 273.0,245.0 275.0,243.0 278.0,245.0 282.0,234.0 281.0,233.0 277.0,239.0 275.0,237.0 275.0,232.0" fill="#fd7573" />
<polygon points="142.0,77.0 143.0,81.0 157.0,88.0 165.0,88.0 165.0,84.0 146.0,76.0" fill="#fda09f" opacity="0.95" />
<polygon points="169.0,244.0 168.0,245.0 168.0,251.0 175.0,256.0 177.0,253.0 176.0,252.0 177.0,249.0" fill="#0a447c" />
<polygon points="141.0,171.0 143.0,169.0 153.0,173.0 157.0,176.0 154.0,178.0 143.0,174.0" fill="#91e7fd" />
<polygon points="93.0,176.0 95.0,179.0 108.0,181.0 114.0,180.0 114.0,177.0 101.0,170.0" fill="#fda09f" opacity="0.95" />
<polygon points="195.0,232.0 192.0,234.0 193.0,259.0 195.0,260.0 197.0,259.0 197.0,233.0" fill="#d4cfd0" opacity="0.95" />
<polygon points="156.0,116.0 147.0,131.0 148.0,133.0 150.0,133.0 153.0,129.0 157.0,117.0" fill="#9a1412" />
<polygon points="118.0,158.0 118.0,156.0 115.0,153.0 109.0,155.0 105.0,154.0 102.0,155.0 110.0,160.0 114.0,160.0" fill="#fd7573" />
<polygon points="209.0,232.0 203.0,235.0 203.0,242.0 204.0,243.0 210.0,238.0 210.0,233.0" fill="#452017" />
<polygon points="140.0,253.0 136.0,252.0 133.0,255.0 128.0,257.0 126.0,260.0 130.0,262.0 137.0,257.0" fill="#f1efee" />
<polygon points="200.0,152.0 206.0,158.0 206.0,163.0 203.0,165.0 201.0,164.0 200.0,165.0 196.0,162.0 196.0,156.0" fill="#31d7fb" opacity="0.95" />
<polygon points="143.0,78.0 145.0,82.0 162.0,88.0 165.0,86.0 164.0,83.0 146.0,76.0" fill="#fda09f" opacity="0.95" />
<polygon points="191.0,237.0 185.0,234.0 178.0,238.0 171.0,237.0 168.0,251.0 175.0,254.0 174.0,244.0 179.0,240.0 188.0,243.0" fill="#0a447c" opacity="0.95" />
<polygon points="302.0,114.0 305.0,122.0 311.0,125.0 314.0,125.0 318.0,122.0 318.0,118.0 304.0,113.0" fill="#9a1412" opacity="0.95" />
<polygon points="321.0,84.0 321.0,78.0 320.0,77.0 315.0,78.0 310.0,81.0 312.0,83.0 315.0,83.0 318.0,85.0" fill="#9a1412" />
<polygon points="208.0,241.0 203.0,245.0 202.0,249.0 204.0,252.0 202.0,256.0 205.0,260.0 207.0,259.0 207.0,255.0 204.0,252.0 208.0,248.0 209.0,244.0" fill="#9a1412" />
<polygon points="279.0,267.0 276.0,271.0 277.0,272.0 276.0,273.0 276.0,275.0 279.0,278.0 283.0,274.0 283.0,272.0" fill="#d4cfd0" />
<polygon points="167.0,234.0 166.0,235.0 170.0,239.0 169.0,240.0 171.0,242.0 176.0,244.0 177.0,243.0 177.0,238.0 175.0,236.0 172.0,236.0" fill="#0a447c" />
<polygon points="153.0,237.0 152.0,238.0 152.0,242.0 158.0,247.0 157.0,248.0 160.0,250.0 161.0,249.0 159.0,247.0 161.0,245.0 161.0,243.0 155.0,237.0" fill="#0a447c" />
<polygon points="312.0,146.0 307.0,158.0 308.0,161.0 305.0,165.0 306.0,168.0 312.0,152.0" fill="#f1efee" />
<polygon points="312.0,135.0 309.0,134.0 305.0,136.0 298.0,144.0 298.0,146.0 303.0,146.0 306.0,148.0 309.0,147.0" fill="#05a2e4" opacity="0.95" />
<polygon points="200.0,153.0 203.0,154.0 206.0,158.0 206.0,162.0 201.0,166.0 196.0,162.0 196.0,156.0" fill="#31d7fb" opacity="0.95" />
<polygon points="201.0,154.0 199.0,157.0 199.0,162.0 202.0,164.0 204.0,164.0 205.0,163.0 205.0,158.0 204.0,156.0 202.0,154.0" fill="#91e7fd" />
<polygon points="240.0,223.0 238.0,224.0 238.0,230.0 236.0,237.0 237.0,239.0 241.0,227.0 241.0,224.0" fill="#0a447c" />
<polygon points="149.0,323.0 150.0,324.0 160.0,324.0 162.0,322.0 161.0,321.0 150.0,321.0 149.0,322.0" fill="#d4cfd0" />
<polygon points="294.0,88.0 292.0,86.0 289.0,86.0 285.0,89.0 285.0,92.0 286.0,93.0 290.0,91.0 293.0,91.0 294.0,90.0" fill="#9a1412" />
<polygon points="280.0,228.0 276.0,230.0 277.0,232.0 276.0,237.0 277.0,238.0 281.0,231.0" fill="#9a1412" />
<polygon points="96.0,175.0 97.0,178.0 102.0,180.0 110.0,181.0 113.0,179.0 112.0,176.0 103.0,171.0 99.0,172.0" fill="#fda09f" opacity="0.95" />
<polygon points="142.0,172.0 154.0,177.0 156.0,176.0 158.0,178.0 159.0,177.0 146.0,171.0" fill="#31d7fb" />
<polygon points="262.0,101.0 265.0,105.0 269.0,108.0 272.0,106.0 274.0,106.0 276.0,104.0 275.0,103.0 269.0,103.0 268.0,104.0 264.0,100.0" fill="#9a1412" />
<polygon points="304.0,116.0 305.0,121.0 311.0,125.0 314.0,125.0 318.0,122.0 318.0,119.0 313.0,116.0 307.0,114.0" fill="#9a1412" opacity="0.95" />
<polygon points="304.0,135.0 303.0,134.0 293.0,139.0 294.0,140.0" fill="#d4cfd0" />
<polygon points="116.0,152.0 118.0,154.0 120.0,158.0 122.0,158.0 125.0,156.0 123.0,154.0 121.0,154.0 118.0,151.0" fill="#fda09f" />
<polygon points="321.0,78.0 319.0,77.0 311.0,80.0 311.0,82.0 319.0,85.0 321.0,84.0" fill="#9a1412" opacity="0.95" />
<polygon points="138.0,254.0 136.0,253.0 128.0,257.0 127.0,261.0 129.0,262.0 137.0,257.0" fill="#f1efee" opacity="0.95" />
<polygon points="202.0,155.0 199.0,157.0 199.0,162.0 203.0,164.0 205.0,163.0 205.0,158.0 204.0,156.0" fill="#91e7fd" opacity="0.95" />
<polygon points="280.0,182.0 279.0,183.0 280.0,184.0 276.0,188.0 277.0,193.0 275.0,195.0 276.0,198.0 277.0,194.0 280.0,191.0 279.0,190.0 280.0,187.0 279.0,185.0 281.0,183.0" fill="#f1efee" />
<polygon points="279.0,268.0 277.0,269.0 277.0,272.0 276.0,273.0 276.0,275.0 278.0,276.0 282.0,274.0 282.0,271.0 281.0,269.0" fill="#d4cfd0" opacity="0.95" />
<polygon points="202.0,156.0 199.0,158.0 199.0,162.0 202.0,164.0 205.0,162.0 205.0,158.0" fill="#91e7fd" opacity="0.95" />
</svg>