<svg xmlns="http://www.w3.org/2000/svg" width="768" height="768" viewBox="0 0 384 384">
<rect width="384" height="384" fill="#8c6b60"/>
<polygon points="383.0,167.0 287.0,185.0 184.0,250.0 113.0,193.0 189.0,275.0 201.0,383.0 383.0,383.0" fill="#663b28" />
<polygon points="0.0,0.0 0.0,132.0 123.0,165.0 209.0,98.0 165.0,73.0 218.0,9.0 371.0,59.0 383.0,100.0 383.0,0.0" fill="#663b28" />
<polygon points="89.0,185.0 1.0,240.0 0.0,263.0 96.0,359.0 187.0,275.0" fill="#e6e9ea" />
<polygon points="309.0,151.0 196.0,112.0 104.0,180.0 182.0,248.0" fill="#9bcde6" />
<polygon points="383.0,167.0 287.0,185.0 184.0,250.0 116.0,197.0 188.0,274.0 201.0,383.0 383.0,383.0" fill="#663b28" opacity="0.95" />
<polygon points="166.0,73.0 326.0,132.0 360.0,82.0 197.0,24.0" fill="#fd7162" />
<polygon points="0.0,265.0 0.0,383.0 200.0,383.0 186.0,281.0 95.0,360.0" fill="#895d4b" />
<polygon points="0.0,0.0 0.0,132.0 122.0,165.0 209.0,98.0 166.0,72.0 219.0,9.0 371.0,59.0 383.0,100.0 383.0,0.0" fill="#663b28" opacity="0.95" />
<polygon points="89.0,186.0 1.0,240.0 0.0,264.0 96.0,358.0 186.0,274.0" fill="#e6e9ea" opacity="0.95" />
<polygon points="383.0,167.0 287.0,185.0 184.0,250.0 117.0,198.0 188.0,274.0 201.0,383.0 383.0,383.0" fill="#663b28" opacity="0.95" />
<polygon points="308.0,150.0 196.0,112.0 105.0,181.0 182.0,247.0" fill="#9bcde6" opacity="0.95" />
<polygon points="0.0,0.0 0.0,132.0 122.0,165.0 209.0,98.0 167.0,70.0 219.0,9.0 371.0,59.0 383.0,100.0 383.0,0.0" fill="#663b28" opacity="0.95" />
<polygon points="89.0,186.0 1.0,240.0 0.0,264.0 96.0,358.0 185.0,274.0" fill="#e6e9ea" opacity="0.95" />
<polygon points="0.0,133.0 0.0,239.0 89.0,184.0 130.0,219.0 103.0,180.0 118.0,166.0" fill="#895d4b" />
<polygon points="307.0,150.0 196.0,112.0 105.0,181.0 182.0,247.0" fill="#9bcde6" opacity="0.95" />
<polygon points="0.0,266.0 0.0,383.0 200.0,383.0 186.0,283.0 95.0,359.0" fill="#895d4b" opacity="0.95" />
<polygon points="167.0,72.0 326.0,132.0 360.0,82.0 197.0,24.0" fill="#fd7162" opacity="0.95" />
<polygon points="203.0,25.0 356.0,78.0 371.0,63.0 220.0,10.0" fill="#e6e9ea" />
<polygon points="0.0,266.0 0.0,383.0 200.0,383.0 185.0,284.0 95.0,359.0" fill="#895d4b" opacity="0.95" />
<polygon points="168.0,70.0 326.0,132.0 359.0,84.0 197.0,24.0" fill="#fd7162" opacity="0.95" />
<polygon points="383.0,101.0 364.0,97.0 350.0,134.0 327.0,134.0 185.0,247.0 287.0,184.0 382.0,167.0" fill="#1b0e0b" />
<polygon points="0.0,133.0 0.0,239.0 89.0,184.0 122.0,209.0 104.0,181.0 118.0,167.0" fill="#895d4b" opacity="0.95" />
<polygon points="383.0,101.0 363.0,98.0 351.0,133.0 326.0,135.0 193.0,242.0 297.0,180.0 382.0,167.0" fill="#1b0e0b" opacity="0.95" />
<polygon points="0.0,133.0 0.0,239.0 89.0,184.0 115.0,201.0 104.0,181.0 112.0,169.0 80.0,163.0 41.0,136.0" fill="#895d4b" opacity="0.95" />
<polygon points="197.0,111.0 315.0,146.0 206.0,103.0" fill="#32aac7" />
<polygon points="383.0,101.0 364.0,99.0 350.0,134.0 326.0,135.0 203.0,234.0 297.0,180.0 382.0,167.0" fill="#1b0e0b" opacity="0.95" />
<polygon points="204.0,24.0 290.0,56.0 299.0,42.0 332.0,56.0 316.0,65.0 356.0,78.0 371.0,63.0 220.0,10.0" fill="#e6e9ea" opacity="0.95" />
<polygon points="116.0,225.0 140.0,248.0 121.0,265.0 111.0,256.0 117.0,256.0 113.0,249.0 98.0,241.0" fill="#e6e9ea" />
<polygon points="206.0,102.0 317.0,144.0 321.0,139.0 213.0,97.0" fill="#00779d" />
<polygon points="205.0,23.0 287.0,55.0 299.0,42.0 332.0,56.0 318.0,66.0 352.0,77.0 370.0,65.0 224.0,11.0" fill="#e6e9ea" opacity="0.95" />
<polygon points="204.0,45.0 224.0,53.0 214.0,67.0 195.0,59.0" fill="#fd7162" />
<polygon points="198.0,110.0 315.0,146.0 207.0,104.0" fill="#32aac7" opacity="0.95" />
<polygon points="116.0,226.0 139.0,247.0 135.0,254.0 120.0,264.0 99.0,243.0 100.0,238.0" fill="#e6e9ea" opacity="0.95" />
<polygon points="367.0,74.0 333.0,134.0 337.0,135.0 358.0,109.0" fill="#c6c2c1" />
<polygon points="291.0,49.0 299.0,42.0 333.0,57.0 328.0,63.0 304.0,55.0 301.0,59.0" fill="#e6e9ea" />
<polygon points="116.0,226.0 139.0,247.0 135.0,254.0 121.0,264.0 99.0,243.0 99.0,239.0" fill="#e6e9ea" opacity="0.95" />
<polygon points="214.0,94.0 235.0,108.0 325.0,135.0" fill="#035276" opacity="0.95" />
<polygon points="199.0,109.0 315.0,146.0 207.0,104.0" fill="#32aac7" opacity="0.95" />
<polygon points="205.0,45.0 223.0,52.0 213.0,67.0 196.0,59.0" fill="#fd7162" opacity="0.95" />
<polygon points="367.0,78.0 340.0,115.0 334.0,134.0 358.0,110.0" fill="#c6c2c1" opacity="0.95" />
<polygon points="203.0,47.0 208.0,46.0 223.0,53.0 215.0,66.0 210.0,66.0 196.0,59.0" fill="#fd7162" opacity="0.95" />
<polygon points="356.0,113.0 351.0,116.0 347.0,125.0 339.0,134.0 342.0,137.0 351.0,132.0 357.0,115.0" fill="#8c8d8b" />
<polygon points="364.0,84.0 359.0,85.0 343.0,110.0 334.0,134.0 340.0,132.0 358.0,109.0" fill="#c6c2c1" opacity="0.95" />
<polygon points="356.0,115.0 351.0,116.0 340.0,136.0 343.0,137.0 351.0,132.0" fill="#8c8d8b" opacity="0.95" />
<polygon points="25.0,264.0 24.0,265.0 36.0,277.0 37.0,276.0 35.0,274.0 35.0,273.0 26.0,264.0" fill="#8c8d8b" />
<polygon points="110.0,242.0 109.0,244.0 111.0,246.0 112.0,245.0 119.0,252.0 121.0,246.0 120.0,245.0 118.0,247.0 114.0,243.0 115.0,242.0 114.0,241.0" fill="#8c8d8b" />
<polygon points="217.0,55.0 216.0,54.0 214.0,56.0 210.0,55.0 208.0,57.0 206.0,56.0 204.0,58.0 205.0,59.0 210.0,58.0 212.0,60.0" fill="#8c8d8b" />
<polygon points="353.0,121.0 351.0,120.0 348.0,122.0 347.0,125.0 342.0,130.0 343.0,133.0 345.0,134.0 352.0,130.0 354.0,124.0" fill="#8c8d8b" opacity="0.95" />
<polygon points="304.0,50.0 307.0,54.0 310.0,53.0 312.0,55.0 314.0,54.0 315.0,55.0 318.0,52.0 317.0,51.0 315.0,52.0 313.0,50.0 312.0,51.0 310.0,49.0 308.0,51.0 305.0,49.0" fill="#8c8d8b" />
<polygon points="98.0,321.0 97.0,322.0 97.0,324.0 98.0,325.0 99.0,325.0 103.0,329.0 104.0,328.0 104.0,327.0" fill="#8c8d8b" />
<polygon points="336.0,122.0 329.0,132.0 330.0,133.0 334.0,129.0 335.0,125.0 337.0,123.0" fill="#8c8d8b" />
<polygon points="124.0,245.0 123.0,246.0 126.0,249.0 125.0,250.0 127.0,252.0 128.0,252.0 129.0,251.0 128.0,250.0 128.0,248.0 129.0,247.0 128.0,246.0 126.0,247.0" fill="#8c8d8b" />
</svg>