<svg xmlns="http://www.w3.org/2000/svg" width="768" height="768" viewBox="0 0 384 384">
<rect width="384" height="384" fill="#8e6b60"/>
<polygon points="0.0,150.0 0.0,383.0 149.0,377.0 121.0,378.0 261.0,276.0 253.0,257.0 186.0,264.0 102.0,167.0" fill="#ad8377" />
<polygon points="0.0,53.0 151.0,93.0 294.0,0.0 0.0,0.0" fill="#844932" />
<polygon points="0.0,152.0 0.0,383.0 149.0,377.0 130.0,371.0 260.0,277.0 252.0,257.0 186.0,264.0 91.0,162.0" fill="#ad8377" opacity="0.95" />
<polygon points="0.0,53.0 150.0,93.0 293.0,0.0 0.0,0.0" fill="#844932" opacity="0.95" />
<polygon points="0.0,56.0 0.0,149.0 102.0,166.0 194.0,268.0 258.0,257.0 250.0,293.0 346.0,243.0 307.0,217.0 197.0,259.0 106.0,138.0 161.0,89.0" fill="#976757" />
<polygon points="0.0,152.0 0.0,383.0 134.0,383.0 154.0,347.0 260.0,277.0 252.0,257.0 186.0,264.0 91.0,162.0" fill="#ad8377" opacity="0.95" />
<polygon points="0.0,53.0 150.0,92.0 292.0,0.0 0.0,0.0" fill="#844932" opacity="0.95" />
<polygon points="383.0,89.0 341.0,50.0 376.0,86.0 312.0,133.0 230.0,58.0 237.0,105.0 173.0,133.0 215.0,189.0 190.0,205.0 140.0,163.0 186.0,220.0 109.0,143.0 189.0,229.0" fill="#6cc7d6" />
<polygon points="337.0,310.0 289.0,315.0 180.0,383.0 229.0,363.0 231.0,383.0 332.0,383.0" fill="#976757" />
<polygon points="383.0,110.0 192.0,233.0 383.0,146.0" fill="#0f0a0a" />
<polygon points="114.0,161.0 200.0,259.0 307.0,216.0 347.0,242.0 383.0,228.0 383.0,164.0 200.0,246.0" fill="#844932" />
<polygon points="383.0,263.0 277.0,319.0 323.0,303.0 338.0,310.0 333.0,383.0 383.0,383.0" fill="#844932" />
<polygon points="0.0,56.0 0.0,149.0 103.0,167.0 196.0,269.0 258.0,257.0 257.0,289.0 383.0,242.0 307.0,217.0 200.0,260.0 113.0,165.0 142.0,86.0" fill="#976757" opacity="0.95" />
<polygon points="383.0,88.0 312.0,132.0 229.0,59.0 233.0,116.0 178.0,138.0 215.0,189.0 140.0,162.0 185.0,219.0 110.0,146.0 187.0,228.0" fill="#6cc7d6" opacity="0.95" />
<polygon points="315.0,288.0 296.0,280.0 156.0,366.0 174.0,373.0" fill="#0f0a0a" />
<polygon points="383.0,93.0 258.0,164.0 260.0,178.0 191.0,230.0 383.0,109.0" fill="#087788" />
<polygon points="0.0,56.0 0.0,149.0 103.0,167.0 194.0,268.0 258.0,257.0 259.0,288.0 346.0,243.0 307.0,217.0 190.0,255.0 107.0,142.0 150.0,95.0" fill="#976757" opacity="0.95" />
<polygon points="352.0,92.0 297.0,26.0 336.0,45.0 291.0,3.0 157.0,94.0 253.0,29.0 325.0,94.0 316.0,113.0" fill="#fe8490" />
<polygon points="336.0,309.0 289.0,315.0 181.0,383.0 229.0,363.0 231.0,383.0 331.0,383.0" fill="#976757" opacity="0.95" />
<polygon points="383.0,263.0 284.0,313.0 337.0,307.0 332.0,383.0 383.0,383.0" fill="#844932" opacity="0.95" />
<polygon points="383.0,110.0 195.0,236.0 383.0,146.0" fill="#0f0a0a" opacity="0.95" />
<polygon points="383.0,147.0 203.0,240.0 138.0,190.0 208.0,244.0 383.0,163.0" fill="#351a0e" />
<polygon points="114.0,163.0 200.0,259.0 307.0,216.0 347.0,242.0 383.0,228.0 383.0,164.0 200.0,246.0" fill="#844932" opacity="0.95" />
<polygon points="383.0,88.0 313.0,132.0 232.0,58.0 282.0,135.0 216.0,120.0 181.0,148.0 237.0,171.0 191.0,205.0 144.0,160.0 191.0,211.0 149.0,197.0 186.0,227.0" fill="#6cc7d6" opacity="0.95" />
<polygon points="336.0,309.0 289.0,315.0 181.0,383.0 229.0,363.0 231.0,383.0 331.0,383.0" fill="#976757" opacity="0.95" />
<polygon points="383.0,93.0 260.0,166.0 191.0,230.0 383.0,109.0" fill="#087788" opacity="0.95" />
<polygon points="294.0,5.0 383.0,85.0 380.0,52.0 375.0,47.0 375.0,55.0 323.0,10.0 337.0,0.0" fill="#0f0a0a" />
<polygon points="351.0,91.0 288.0,5.0 158.0,94.0 255.0,29.0 330.0,100.0" fill="#fe8490" opacity="0.95" />
<polygon points="383.0,263.0 293.0,308.0 337.0,308.0 332.0,383.0 383.0,383.0" fill="#844932" opacity="0.95" />
<polygon points="314.0,287.0 294.0,281.0 159.0,365.0 178.0,371.0" fill="#0f0a0a" opacity="0.95" />
<polygon points="383.0,110.0 195.0,236.0 383.0,146.0" fill="#0f0a0a" opacity="0.95" />
<polygon points="383.0,228.0 383.0,164.0 201.0,246.0 131.0,189.0 200.0,259.0 307.0,216.0 347.0,242.0" fill="#844932" opacity="0.95" />
<polygon points="325.0,9.0 370.0,49.0 383.0,43.0 383.0,36.0 340.0,0.0" fill="#79957f" />
<polygon points="383.0,93.0 262.0,165.0 191.0,229.0 383.0,109.0" fill="#087788" opacity="0.95" />
<polygon points="351.0,94.0 288.0,5.0 161.0,90.0 257.0,29.0 322.0,91.0 302.0,112.0" fill="#fe8490" opacity="0.95" />
<polygon points="311.0,288.0 296.0,280.0 159.0,364.0 174.0,373.0" fill="#0f0a0a" opacity="0.95" />
<polygon points="115.0,137.0 137.0,177.0 186.0,219.0 190.0,211.0 139.0,166.0 143.0,159.0 157.0,160.0 152.0,149.0 138.0,152.0 129.0,130.0" fill="#ddecef" />
<polygon points="383.0,147.0 207.0,239.0 157.0,211.0 208.0,244.0 383.0,163.0" fill="#351a0e" opacity="0.95" />
<polygon points="294.0,5.0 383.0,85.0 383.0,61.0 324.0,11.0 336.0,0.0 299.0,0.0" fill="#0f0a0a" opacity="0.95" />
<polygon points="328.0,60.0 360.0,92.0 371.0,85.0 338.0,54.0" fill="#ddecef" />
<polygon points="303.0,278.0 292.0,271.0 270.0,291.0 203.0,321.0 224.0,313.0 215.0,325.0" fill="#1e282b" />
<polygon points="354.0,249.0 346.0,244.0 298.0,269.0 306.0,277.0" fill="#f9b070" />
<polygon points="383.0,147.0 205.0,240.0 162.0,217.0 208.0,244.0 383.0,163.0" fill="#351a0e" opacity="0.95" />
<polygon points="143.0,114.0 128.0,126.0 140.0,142.0 145.0,144.0 160.0,134.0 162.0,130.0 149.0,117.0 145.0,118.0" fill="#351a0e" />
<polygon points="342.0,0.0 383.0,33.0 383.0,4.0 375.0,6.0 367.0,5.0 361.0,0.0" fill="#0f0a0a" />
<polygon points="225.0,315.0 197.0,326.0 155.0,354.0" fill="#4f423e" />
<polygon points="168.0,94.0 150.0,98.0 113.0,127.0 113.0,133.0" fill="#f9b070" />
<polygon points="281.0,315.0 175.0,379.0 161.0,380.0 165.0,368.0 144.0,383.0 179.0,383.0" fill="#4f423e" />
<polygon points="115.0,138.0 137.0,177.0 187.0,217.0 190.0,211.0 139.0,166.0 157.0,160.0 152.0,149.0 137.0,151.0 129.0,131.0" fill="#ddecef" opacity="0.95" />
<polygon points="299.0,272.0 220.0,313.0 234.0,315.0" fill="#1e282b" opacity="0.95" />
<polygon points="294.0,5.0 383.0,85.0 383.0,61.0 367.0,48.0 359.0,50.0 320.0,16.0 335.0,0.0" fill="#0f0a0a" opacity="0.95" />
<polygon points="383.0,229.0 349.0,243.0 355.0,249.0 382.0,243.0" fill="#976757" />
<polygon points="239.0,46.0 293.0,98.0 309.0,91.0 294.0,84.0 292.0,72.0 287.0,80.0 280.0,76.0 286.0,66.0 272.0,62.0 258.0,41.0" fill="#fa5776" opacity="0.95" />
<polygon points="179.0,151.0 170.0,164.0 177.0,172.0 182.0,173.0 194.0,164.0" fill="#1e282b" />
<polygon points="234.0,52.0 215.0,63.0 206.0,75.0 220.0,85.0 218.0,92.0 232.0,105.0 235.0,102.0 224.0,78.0 236.0,65.0 226.0,62.0 238.0,56.0" fill="#ddecef" />
<polygon points="356.0,252.0 311.0,274.0 307.0,282.0 355.0,258.0" fill="#e5a126" />
<polygon points="160.0,104.0 149.0,115.0 167.0,131.0 165.0,134.0 176.0,146.0 174.0,131.0 185.0,140.0 190.0,135.0 180.0,123.0 176.0,127.0 167.0,121.0 172.0,115.0" fill="#ddecef" />
<polygon points="290.0,70.0 274.0,81.0 281.0,89.0 298.0,79.0" fill="#fa5776" />
<polygon points="116.0,138.0 137.0,177.0 187.0,217.0 190.0,211.0 139.0,166.0 157.0,160.0 152.0,149.0 137.0,151.0 129.0,131.0" fill="#ddecef" opacity="0.95" />
<polygon points="266.0,48.0 250.0,59.0 258.0,67.0 275.0,56.0" fill="#fa5776" />
<polygon points="253.0,37.0 238.0,47.0 247.0,55.0 263.0,46.0" fill="#fa5776" />
<polygon points="310.0,89.0 301.0,81.0 285.0,92.0 296.0,99.0" fill="#fa5776" />
<polygon points="136.0,121.0 142.0,120.0 154.0,131.0 153.0,135.0 149.0,139.0 140.0,137.0 131.0,128.0" fill="#351a0e" />
<polygon points="233.0,371.0 230.0,366.0 226.0,366.0 198.0,383.0 230.0,383.0" fill="#ad8377" />
<polygon points="244.0,161.0 243.0,166.0 227.0,179.0 221.0,179.0 209.0,166.0 215.0,160.0 225.0,171.0 242.0,159.0" fill="#6cc7d6" />
<polygon points="298.0,273.0 223.0,312.0 234.0,315.0" fill="#1e282b" opacity="0.95" />
<polygon points="315.0,93.0 295.0,105.0 303.0,113.0 307.0,112.0 322.0,102.0" fill="#fe8490" />
<polygon points="279.0,59.0 262.0,70.0 270.0,77.0 284.0,70.0 287.0,67.0" fill="#fa5776" />
<polygon points="164.0,135.0 160.0,136.0 152.0,143.0 153.0,149.0 160.0,155.0 166.0,154.0 174.0,147.0" fill="#1e282b" />
<polygon points="220.0,127.0 225.0,120.0 236.0,132.0 251.0,121.0 254.0,125.0 236.0,139.0 230.0,138.0" fill="#6cc7d6" />
<polygon points="355.0,95.0 337.0,104.0 333.0,102.0 328.0,109.0 304.0,121.0 312.0,127.0" fill="#faabac" />
<polygon points="353.0,248.0 346.0,244.0 299.0,271.0 305.0,277.0" fill="#f9b070" opacity="0.95" />
<polygon points="236.0,145.0 241.0,138.0 252.0,150.0 268.0,138.0 270.0,140.0 260.0,152.0 248.0,157.0" fill="#6cc7d6" />
<polygon points="254.0,109.0 257.0,107.0 266.0,116.0 278.0,109.0 280.0,113.0 271.0,120.0 281.0,132.0 294.0,122.0 296.0,126.0 281.0,138.0 268.0,138.0 261.0,131.0 268.0,123.0" fill="#6cc7d6" />
<polygon points="298.0,22.0 299.0,28.0 310.0,34.0 327.0,56.0 336.0,52.0 336.0,48.0 326.0,39.0" fill="#fa5776" />
<polygon points="193.0,146.0 197.0,141.0 210.0,152.0 223.0,142.0 225.0,144.0 225.0,147.0 214.0,157.0 205.0,160.0 197.0,153.0" fill="#6cc7d6" />
<polygon points="239.0,46.0 296.0,99.0 307.0,92.0 294.0,85.0 296.0,76.0 280.0,75.0 286.0,66.0 273.0,64.0 272.0,54.0 256.0,54.0 259.0,42.0" fill="#fa5776" opacity="0.95" />
<polygon points="233.0,52.0 207.0,74.0 232.0,104.0 234.0,99.0 224.0,78.0 233.0,67.0 227.0,62.0 236.0,56.0" fill="#ddecef" opacity="0.95" />
<polygon points="270.0,322.0 175.0,379.0 159.0,374.0 144.0,383.0 180.0,383.0" fill="#4f423e" opacity="0.95" />
<polygon points="161.0,97.0 155.0,95.0 113.0,127.0 113.0,133.0" fill="#f9b070" opacity="0.95" />
<polygon points="177.0,94.0 173.0,94.0 162.0,101.0 174.0,115.0 172.0,120.0 177.0,118.0 174.0,114.0 182.0,106.0 182.0,99.0" fill="#1e282b" />
<polygon points="217.0,93.0 211.0,97.0 209.0,101.0 219.0,114.0 231.0,105.0 227.0,101.0 223.0,103.0 221.0,101.0 223.0,99.0" fill="#6cc7d6" />
<polygon points="353.0,248.0 346.0,244.0 299.0,271.0 307.0,276.0" fill="#f9b070" opacity="0.95" />
<polygon points="202.0,73.0 188.0,83.0 201.0,97.0 201.0,101.0 206.0,98.0 208.0,91.0 214.0,94.0 219.0,86.0 216.0,87.0 211.0,82.0 203.0,90.0 201.0,82.0 206.0,78.0" fill="#d62135" />
<polygon points="150.0,113.0 173.0,143.0 177.0,143.0 180.0,136.0 185.0,139.0 189.0,136.0 182.0,125.0 174.0,126.0 168.0,122.0 171.0,114.0 163.0,106.0" fill="#ddecef" opacity="0.95" />
<polygon points="142.0,121.0 133.0,127.0 133.0,129.0 141.0,136.0 145.0,135.0 150.0,131.0 149.0,127.0" fill="#e5a126" />
<polygon points="221.0,125.0 226.0,122.0 238.0,131.0 240.0,128.0 235.0,123.0 240.0,118.0 252.0,123.0 257.0,130.0 240.0,140.0 232.0,139.0" fill="#6cc7d6" opacity="0.95" />
<polygon points="383.0,259.0 364.0,264.0 355.0,260.0 318.0,281.0 314.0,292.0" fill="#351a0e" opacity="0.95" />
<polygon points="336.0,11.0 340.0,8.0 350.0,11.0 354.0,15.0 349.0,21.0 358.0,17.0 363.0,23.0 350.0,30.0 348.0,28.0 358.0,22.0 346.0,25.0 337.0,16.0 340.0,13.0" fill="#79957f" />
<polygon points="357.0,254.0 352.0,252.0 311.0,274.0 307.0,282.0" fill="#e5a126" opacity="0.95" />
<polygon points="350.0,24.0 352.0,33.0 371.0,48.0 383.0,43.0 383.0,36.0 374.0,38.0 367.0,23.0 360.0,26.0 354.0,22.0" fill="#79957f" opacity="0.95" />
<polygon points="231.0,367.0 226.0,366.0 198.0,383.0 230.0,383.0" fill="#ad8377" opacity="0.95" />
<polygon points="345.0,101.0 334.0,102.0 304.0,121.0 311.0,127.0" fill="#faabac" opacity="0.95" />
<polygon points="180.0,151.0 171.0,162.0 171.0,165.0 179.0,173.0 187.0,170.0 193.0,165.0 193.0,163.0" fill="#1e282b" opacity="0.95" />
<polygon points="334.0,68.0 332.0,70.0 357.0,95.0 358.0,92.0" fill="#1e282b" />
<polygon points="214.0,321.0 197.0,326.0 155.0,354.0" fill="#4f423e" opacity="0.95" />
<polygon points="159.0,97.0 155.0,95.0 112.0,131.0 118.0,132.0 158.0,101.0" fill="#f9b070" opacity="0.95" />
<polygon points="223.0,58.0 214.0,64.0 207.0,77.0 219.0,86.0 219.0,93.0 231.0,103.0 234.0,99.0 225.0,80.0 225.0,73.0 231.0,66.0" fill="#ddecef" opacity="0.95" />
<polygon points="163.0,135.0 156.0,139.0 152.0,145.0 153.0,149.0 162.0,156.0 173.0,148.0 171.0,142.0" fill="#1e282b" opacity="0.95" />
<polygon points="383.0,229.0 349.0,243.0 356.0,249.0 382.0,243.0" fill="#976757" opacity="0.95" />
<polygon points="266.0,88.0 263.0,86.0 259.0,91.0 251.0,93.0 248.0,99.0 256.0,100.0 262.0,97.0 266.0,93.0" fill="#087788" />
<polygon points="319.0,97.0 313.0,94.0 296.0,104.0 296.0,106.0 305.0,113.0 321.0,103.0" fill="#fe8490" opacity="0.95" />
<polygon points="150.0,113.0 166.0,131.0 168.0,138.0 177.0,134.0 185.0,139.0 189.0,136.0 182.0,126.0 176.0,127.0 168.0,122.0 171.0,114.0 163.0,106.0" fill="#ddecef" opacity="0.95" />
<polygon points="298.0,23.0 299.0,28.0 311.0,35.0 326.0,55.0 336.0,52.0 336.0,47.0 305.0,24.0" fill="#fa5776" opacity="0.95" />
<polygon points="200.0,74.0 189.0,84.0 204.0,100.0 206.0,94.0 215.0,93.0 217.0,87.0 212.0,84.0 202.0,87.0 201.0,82.0 205.0,77.0" fill="#d62135" opacity="0.95" />
<polygon points="383.0,243.0 356.0,251.0 361.0,256.0 382.0,246.0" fill="#844932" />
<polygon points="357.0,254.0 352.0,252.0 306.0,280.0 312.0,282.0" fill="#e5a126" opacity="0.95" />
<polygon points="173.0,94.0 164.0,99.0 162.0,103.0 171.0,112.0 175.0,113.0 181.0,109.0 182.0,99.0 180.0,96.0" fill="#1e282b" opacity="0.95" />
<polygon points="230.0,368.0 226.0,366.0 199.0,383.0 230.0,383.0" fill="#ad8377" opacity="0.95" />
<polygon points="352.0,31.0 370.0,48.0 383.0,43.0 383.0,36.0 374.0,38.0 369.0,31.0 370.0,26.0 366.0,23.0" fill="#79957f" opacity="0.95" />
<polygon points="200.0,74.0 189.0,84.0 203.0,98.0 215.0,86.0 212.0,84.0 203.0,86.0 201.0,82.0 205.0,77.0" fill="#d62135" opacity="0.95" />
<polygon points="298.0,24.0 302.0,31.0 315.0,38.0 326.0,55.0 336.0,52.0 336.0,48.0 305.0,24.0" fill="#fa5776" opacity="0.95" />
<polygon points="339.0,105.0 335.0,103.0 322.0,112.0 306.0,118.0 305.0,122.0 311.0,127.0 336.0,110.0" fill="#faabac" opacity="0.95" />
<polygon points="340.0,0.0 326.0,8.0 330.0,15.0 336.0,16.0 337.0,10.0 340.0,8.0 349.0,10.0" fill="#79957f" opacity="0.95" />
<polygon points="375.0,32.0 373.0,34.0 369.0,32.0 362.0,36.0 360.0,34.0 370.0,28.0" fill="#79957f" />
<polygon points="138.0,118.0 138.0,120.0 147.0,124.0 154.0,131.0 153.0,136.0 155.0,137.0 162.0,132.0 150.0,118.0 141.0,116.0" fill="#351a0e" opacity="0.95" />
<polygon points="256.0,108.0 255.0,110.0 258.0,114.0 265.0,121.0 268.0,121.0 269.0,119.0 257.0,108.0" fill="#087788" />
<polygon points="266.0,88.0 264.0,87.0 259.0,91.0 250.0,94.0 249.0,99.0 256.0,100.0 262.0,97.0 266.0,93.0" fill="#087788" opacity="0.95" />
<polygon points="198.0,368.0 195.0,366.0 165.0,383.0 158.0,375.0 145.0,383.0 180.0,383.0" fill="#4f423e" opacity="0.95" />
<polygon points="184.0,85.0 179.0,89.0 178.0,92.0 189.0,103.0 192.0,102.0 185.0,95.0 184.0,96.0 182.0,94.0 184.0,92.0 183.0,90.0 187.0,86.0" fill="#d62135" />
<polygon points="194.0,173.0 193.0,172.0 180.0,183.0 182.0,184.0 189.0,179.0" fill="#087788" />
<polygon points="145.0,127.0 147.0,129.0 147.0,131.0 145.0,133.0 143.0,133.0 142.0,134.0 139.0,131.0 139.0,130.0 142.0,127.0" fill="#e5a126" />
<polygon points="248.0,60.0 247.0,61.0 255.0,69.0 257.0,67.0 250.0,60.0" fill="#faabac" />
<polygon points="184.0,99.0 182.0,107.0 183.0,108.0 188.0,106.0 190.0,108.0 190.0,110.0 193.0,111.0 194.0,108.0" fill="#351a0e" />
<polygon points="259.0,71.0 258.0,72.0 267.0,81.0 268.0,80.0 267.0,79.0 268.0,77.0 262.0,71.0" fill="#faabac" />
<polygon points="236.0,49.0 235.0,50.0 237.0,52.0 237.0,53.0 244.0,59.0 245.0,58.0 245.0,55.0 240.0,50.0" fill="#faabac" />
<polygon points="341.0,0.0 337.0,0.0 334.0,4.0 329.0,6.0 326.0,11.0 330.0,15.0 334.0,17.0 336.0,16.0 337.0,11.0 344.0,6.0" fill="#79957f" opacity="0.95" />
<polygon points="143.0,119.0 143.0,121.0 154.0,131.0 155.0,134.0 158.0,135.0 162.0,132.0 162.0,130.0 150.0,118.0 146.0,117.0" fill="#351a0e" opacity="0.95" />
<polygon points="272.0,124.0 271.0,125.0 272.0,129.0 278.0,135.0 280.0,133.0 280.0,132.0 278.0,130.0 278.0,129.0 273.0,124.0" fill="#087788" />
<polygon points="271.0,83.0 270.0,84.0 277.0,91.0 279.0,89.0 273.0,83.0" fill="#faabac" />
<polygon points="293.0,106.0 292.0,107.0 294.0,109.0 294.0,110.0 300.0,116.0 301.0,115.0 301.0,112.0 295.0,106.0" fill="#faabac" />
<polygon points="282.0,94.0 281.0,95.0 288.0,103.0 290.0,101.0 283.0,94.0" fill="#faabac" />
<polygon points="377.0,35.0 379.0,37.0 377.0,39.0 376.0,39.0 373.0,41.0 371.0,39.0 374.0,36.0" fill="#79957f" />
<polygon points="128.0,128.0 127.0,127.0 125.0,127.0 117.0,134.0 118.0,135.0 121.0,133.0 124.0,133.0" fill="#e5a126" />
<polygon points="266.0,90.0 263.0,88.0 257.0,92.0 252.0,93.0 249.0,95.0 249.0,98.0 252.0,100.0 256.0,100.0 262.0,97.0 266.0,93.0" fill="#087788" opacity="0.95" />
<polygon points="341.0,62.0 339.0,64.0 341.0,65.0 347.0,71.0 349.0,69.0 349.0,68.0" fill="#79957f" />
<polygon points="285.0,93.0 284.0,94.0 291.0,101.0 292.0,101.0 293.0,100.0 292.0,97.0" fill="#fe8490" />
<polygon points="146.0,380.0 145.0,379.0 143.0,380.0 139.0,380.0 133.0,383.0 143.0,383.0" fill="#976757" />
<polygon points="207.0,80.0 206.0,81.0 207.0,82.0 202.0,87.0 202.0,88.0 203.0,89.0 209.0,83.0" fill="#e5a126" />
<polygon points="139.0,138.0 140.0,143.0 142.0,144.0 150.0,141.0 150.0,139.0 148.0,138.0 144.0,138.0 143.0,137.0" fill="#351a0e" opacity="0.95" />
<polygon points="151.0,366.0 150.0,365.0 138.0,371.0 139.0,372.0" fill="#4f423e" />
<polygon points="167.0,162.0 166.0,161.0 163.0,164.0 161.0,164.0 160.0,165.0 163.0,167.0 167.0,163.0" fill="#087788" />
<polygon points="195.0,103.0 195.0,104.0 198.0,107.0 200.0,105.0 204.0,105.0 205.0,104.0 204.0,102.0 202.0,102.0 201.0,103.0 197.0,103.0 196.0,102.0" fill="#79957f" />
<polygon points="303.0,76.0 302.0,77.0 302.0,78.0 303.0,79.0 304.0,79.0 309.0,84.0 310.0,83.0" fill="#fe8490" />
<polygon points="163.0,370.0 162.0,369.0 161.0,369.0 155.0,374.0 156.0,375.0 160.0,372.0 161.0,372.0" fill="#976757" />
<polygon points="253.0,30.0 252.0,31.0 252.0,32.0 254.0,34.0 256.0,34.0 257.0,35.0 258.0,34.0 256.0,32.0 256.0,31.0 255.0,30.0" fill="#faabac" />
<polygon points="181.0,87.0 180.0,88.0 179.0,88.0 179.0,93.0 180.0,93.0 181.0,94.0 182.0,93.0 183.0,93.0 183.0,88.0 182.0,88.0" fill="#d62135" opacity="0.95" />
<polygon points="317.0,30.0 317.0,33.0 319.0,35.0 321.0,36.0 323.0,35.0 323.0,33.0 321.0,31.0 319.0,30.0 318.0,31.0" fill="#fe8490" opacity="0.95" />
</svg>