<svg xmlns="http://www.w3.org/2000/svg" width="768" height="768" viewBox="0 0 384 384">
<rect width="384" height="384" fill="#8a6b5d"/>
<polygon points="17.0,35.0 7.0,174.0 11.0,127.0 187.0,78.0 312.0,169.0 261.0,242.0 123.0,179.0 48.0,216.0 383.0,321.0 348.0,27.0" fill="#956355" />
<polygon points="0.0,68.0 7.0,174.0 125.0,83.0 262.0,103.0 303.0,212.0 139.0,206.0 139.0,263.0 379.0,320.0 349.0,30.0 130.0,0.0" fill="#956355" opacity="0.95" />
<polygon points="0.0,68.0 0.0,338.0 175.0,383.0 112.0,301.0 163.0,285.0 26.0,220.0 187.0,78.0 311.0,192.0 141.0,208.0 139.0,263.0 377.0,320.0 348.0,32.0 130.0,0.0" fill="#956355" opacity="0.95" />
<polygon points="221.0,105.0 198.0,102.0 196.0,159.0 127.0,164.0 138.0,194.0 163.0,217.0 213.0,221.0 256.0,189.0 262.0,141.0" fill="#59f1f2" />
<polygon points="175.0,383.0 178.0,322.0 142.0,306.0 134.0,328.0 0.0,331.0 28.0,344.0 46.0,372.0" fill="#956355" />
<polygon points="0.0,181.0 0.0,338.0 46.0,370.0 175.0,383.0 176.0,331.0 113.0,303.0 126.0,275.0 43.0,281.0 39.0,231.0 17.0,223.0 39.0,182.0" fill="#956355" opacity="0.95" />
<polygon points="198.0,320.0 209.0,357.0 294.0,347.0 272.0,362.0 290.0,373.0 223.0,383.0 383.0,383.0 383.0,322.0 350.0,339.0 287.0,325.0 322.0,316.0 268.0,293.0" fill="#5f433d" />
<polygon points="249.0,102.0 268.0,132.0 262.0,189.0 243.0,217.0 199.0,233.0 261.0,241.0 302.0,212.0 311.0,169.0 299.0,138.0" fill="#5f433d" />
<polygon points="221.0,105.0 198.0,102.0 197.0,158.0 127.0,164.0 138.0,194.0 168.0,219.0 219.0,219.0 259.0,183.0 262.0,141.0" fill="#59f1f2" opacity="0.95" />
<polygon points="159.0,84.0 124.0,84.0 116.0,125.0 44.0,121.0 39.0,169.0 0.0,174.0 40.0,182.0 1.0,225.0 39.0,229.0 44.0,292.0 164.0,281.0 134.0,205.0 46.0,215.0 48.0,179.0 125.0,178.0 50.0,172.0 46.0,134.0 117.0,135.0" fill="#b18a7a" />
<polygon points="2.0,227.0 2.0,267.0 14.0,270.0 0.0,275.0 2.0,321.0 131.0,318.0 131.0,306.0 112.0,301.0 131.0,291.0 127.0,275.0 50.0,275.0 44.0,293.0 39.0,273.0 16.0,270.0 39.0,266.0 38.0,229.0" fill="#956355" />
<polygon points="47.0,238.0 62.0,225.0 128.0,226.0 130.0,256.0 120.0,266.0 55.0,264.0 48.0,255.0" fill="#b18a7a" />
<polygon points="230.0,0.0 263.0,0.0 330.0,30.0 348.0,26.0 354.0,59.0 383.0,79.0 383.0,6.0 373.0,0.0" fill="#5f433d" />
<polygon points="47.0,134.0 50.0,171.0 123.0,170.0 123.0,165.0 115.0,161.0 114.0,134.0" fill="#956355" />
<polygon points="196.0,105.0 180.0,106.0 160.0,118.0 144.0,134.0 139.0,157.0 195.0,158.0" fill="#2d3d52" />
<polygon points="265.0,292.0 201.0,291.0 194.0,265.0 184.0,293.0 115.0,293.0 114.0,303.0 183.0,314.0 176.0,383.0 208.0,383.0 197.0,320.0 263.0,306.0" fill="#3d3333" />
<polygon points="0.0,32.0 33.0,31.0 44.0,20.0 129.0,0.0 0.0,0.0" fill="#5f433d" />
<polygon points="221.0,105.0 198.0,103.0 197.0,158.0 127.0,165.0 138.0,194.0 168.0,219.0 219.0,219.0 259.0,183.0 262.0,141.0" fill="#59f1f2" opacity="0.95" />
<polygon points="198.0,320.0 210.0,351.0 294.0,347.0 272.0,362.0 286.0,373.0 223.0,383.0 383.0,383.0 383.0,306.0 351.0,335.0 295.0,324.0 320.0,314.0 271.0,294.0" fill="#5f433d" opacity="0.95" />
<polygon points="258.0,102.0 262.0,189.0 243.0,217.0 207.0,235.0 260.0,241.0 309.0,195.0 296.0,132.0" fill="#5f433d" opacity="0.95" />
<polygon points="198.0,320.0 211.0,351.0 294.0,347.0 276.0,373.0 223.0,383.0 383.0,383.0 383.0,306.0 352.0,331.0 271.0,294.0" fill="#5f433d" opacity="0.95" />
<polygon points="48.0,238.0 55.0,263.0 60.0,259.0 65.0,265.0 83.0,260.0 95.0,266.0 119.0,265.0 129.0,256.0 128.0,227.0 62.0,226.0" fill="#956355" />
<polygon points="41.0,125.0 39.0,169.0 0.0,176.0 40.0,182.0 18.0,223.0 43.0,280.0 163.0,281.0 136.0,208.0 46.0,215.0 49.0,179.0 125.0,177.0 48.0,171.0 46.0,134.0 120.0,125.0" fill="#b18a7a" opacity="0.95" />
<polygon points="178.0,81.0 154.0,89.0 132.0,108.0 119.0,134.0 117.0,160.0 138.0,160.0 147.0,125.0 182.0,99.0" fill="#f5bd05" />
<polygon points="0.0,341.0 0.0,383.0 102.0,383.0 36.0,375.0 41.0,360.0 28.0,345.0 5.0,335.0" fill="#5f433d" />
<polygon points="239.0,0.0 349.0,29.0 354.0,59.0 383.0,79.0 383.0,6.0 373.0,0.0" fill="#5f433d" opacity="0.95" />
<polygon points="258.0,102.0 268.0,132.0 262.0,189.0 217.0,237.0 278.0,233.0 310.0,192.0 297.0,134.0" fill="#5f433d" opacity="0.95" />
<polygon points="3.0,179.0 0.0,184.0 2.0,216.0 6.0,220.0 22.0,220.0 34.0,216.0 38.0,212.0 38.0,180.0" fill="#956355" />
<polygon points="47.0,238.0 62.0,225.0 127.0,226.0 130.0,256.0 120.0,266.0 59.0,266.0 48.0,255.0" fill="#b18a7a" opacity="0.95" />
<polygon points="293.0,347.0 285.0,343.0 270.0,352.0 265.0,345.0 240.0,357.0 213.0,351.0 212.0,383.0 290.0,372.0 271.0,362.0" fill="#956355" />
<polygon points="266.0,293.0 201.0,291.0 194.0,265.0 183.0,293.0 116.0,293.0 114.0,303.0 183.0,314.0 176.0,383.0 208.0,383.0 197.0,320.0 263.0,306.0" fill="#3d3333" opacity="0.95" />
<polygon points="196.0,105.0 180.0,106.0 160.0,118.0 144.0,134.0 140.0,157.0 196.0,157.0" fill="#2d3d52" opacity="0.95" />
<polygon points="184.0,81.0 186.0,99.0 207.0,99.0 231.0,108.0 240.0,95.0 217.0,82.0" fill="#f9732d" />
<polygon points="114.0,295.0 185.0,316.0 176.0,383.0 208.0,383.0 200.0,317.0 266.0,304.0 263.0,292.0 200.0,290.0 193.0,266.0 182.0,293.0" fill="#3d3333" opacity="0.95" />
<polygon points="179.0,82.0 154.0,89.0 132.0,108.0 119.0,134.0 117.0,160.0 138.0,160.0 147.0,125.0 182.0,99.0" fill="#f5bd05" opacity="0.95" />
<polygon points="196.0,105.0 180.0,106.0 160.0,118.0 144.0,134.0 141.0,156.0 195.0,157.0" fill="#2d3d52" opacity="0.95" />
<polygon points="29.0,174.0 46.0,268.0 54.0,227.0 127.0,226.0 122.0,265.0 80.0,268.0 163.0,280.0 138.0,263.0 136.0,209.0 46.0,214.0 48.0,180.0 123.0,173.0 44.0,159.0" fill="#b18a7a" opacity="0.95" />
<polygon points="179.0,82.0 154.0,89.0 132.0,108.0 119.0,134.0 117.0,160.0 138.0,159.0 147.0,125.0 182.0,99.0" fill="#f5bd05" opacity="0.95" />
<polygon points="240.0,97.0 234.0,107.0 261.0,137.0 266.0,135.0 265.0,126.0 255.0,109.0" fill="#6e6a7b" />
<polygon points="184.0,81.0 187.0,99.0 207.0,99.0 231.0,107.0 240.0,95.0 217.0,82.0" fill="#f9732d" opacity="0.95" />
<polygon points="262.0,183.0 246.0,205.0 217.0,224.0 174.0,226.0 225.0,228.0 244.0,215.0" fill="#3d3333" />
<polygon points="184.0,81.0 187.0,99.0 207.0,99.0 230.0,107.0 240.0,95.0 217.0,82.0" fill="#f9732d" opacity="0.95" />
<polygon points="239.0,98.0 235.0,108.0 259.0,136.0 266.0,135.0 265.0,126.0 255.0,109.0 244.0,98.0" fill="#6e6a7b" opacity="0.95" />
<polygon points="161.0,265.0 164.0,279.0 168.0,284.0 161.0,291.0 175.0,292.0 176.0,282.0 184.0,277.0 179.0,278.0 175.0,275.0 175.0,271.0 181.0,266.0" fill="#e3ddd3" />
<polygon points="157.0,85.0 146.0,83.0 124.0,85.0 130.0,91.0 129.0,106.0 133.0,106.0" fill="#b18a7a" opacity="0.95" />
<polygon points="257.0,195.0 231.0,217.0 204.0,229.0 230.0,225.0 244.0,215.0" fill="#3d3333" opacity="0.95" />
<polygon points="119.0,127.0 64.0,126.0 61.0,130.0 116.0,134.0" fill="#b18a7a" opacity="0.95" />
<polygon points="196.0,101.0 184.0,101.0 165.0,109.0 146.0,130.0 171.0,109.0" fill="#3d3333" />
<polygon points="240.0,98.0 235.0,108.0 259.0,135.0 266.0,135.0 265.0,126.0 255.0,109.0 244.0,98.0" fill="#6e6a7b" opacity="0.95" />
<polygon points="163.0,265.0 161.0,270.0 167.0,283.0 163.0,291.0 174.0,292.0 177.0,290.0 178.0,280.0 175.0,271.0 180.0,266.0" fill="#e3ddd3" opacity="0.95" />
<polygon points="128.0,177.0 137.0,198.0 158.0,215.0 137.0,194.0" fill="#86eceb" />
<polygon points="193.0,251.0 188.0,251.0 185.0,253.0 185.0,264.0 189.0,266.0 190.0,265.0 193.0,265.0 195.0,263.0 195.0,253.0" fill="#2d3d52" />
<polygon points="197.0,271.0 198.0,272.0 220.0,272.0 230.0,270.0 229.0,269.0 198.0,269.0" fill="#b18a7a" />
<polygon points="154.0,86.0 146.0,83.0 127.0,85.0 126.0,88.0 130.0,91.0 129.0,104.0 134.0,105.0 147.0,92.0 152.0,90.0" fill="#b18a7a" opacity="0.95" />
<polygon points="246.0,209.0 241.0,208.0 212.0,228.0 222.0,229.0 243.0,216.0" fill="#3d3333" opacity="0.95" />
<polygon points="158.0,217.0 179.0,225.0 203.0,225.0 178.0,224.0" fill="#1f98aa" />
<polygon points="164.0,265.0 161.0,267.0 167.0,283.0 164.0,290.0 174.0,292.0 177.0,290.0 178.0,278.0 175.0,275.0 177.0,267.0" fill="#e3ddd3" opacity="0.95" />
<polygon points="274.0,270.0 267.0,269.0 264.0,266.0 260.0,269.0 248.0,270.0 258.0,271.0 263.0,274.0 267.0,271.0" fill="#b18a7a" />
<polygon points="192.0,251.0 188.0,251.0 185.0,253.0 185.0,264.0 189.0,266.0 195.0,264.0 195.0,253.0" fill="#2d3d52" opacity="0.95" />
<polygon points="192.0,251.0 188.0,251.0 185.0,253.0 185.0,263.0 189.0,266.0 195.0,263.0 195.0,253.0" fill="#2d3d52" opacity="0.95" />
<polygon points="169.0,109.0 167.0,108.0 158.0,114.0 157.0,117.0 152.0,120.0 152.0,122.0 156.0,122.0 157.0,119.0 169.0,111.0" fill="#3d3333" opacity="0.95" />
<polygon points="374.0,0.0 374.0,1.0 376.0,3.0 377.0,3.0 378.0,4.0 380.0,4.0 381.0,5.0 383.0,5.0 383.0,0.0" fill="#3d3333" />
<polygon points="374.0,0.0 374.0,2.0 378.0,4.0 383.0,5.0 383.0,0.0" fill="#3d3333" opacity="0.95" />
</svg>