<svg xmlns="http://www.w3.org/2000/svg" width="768" height="768" viewBox="0 0 384 384">
<rect width="384" height="384" fill="#816b6d"/>
<polygon points="0.0,0.0 3.0,220.0 71.0,217.0 72.0,177.0 133.0,132.0 136.0,321.0 383.0,321.0 383.0,0.0 135.0,0.0 133.0,25.0 131.0,0.0" fill="#666161" />
<polygon points="0.0,0.0 0.0,218.0 72.0,216.0 135.0,135.0 135.0,267.0 0.0,274.0 132.0,274.0 139.0,322.0 4.0,326.0 0.0,383.0 383.0,383.0 383.0,0.0" fill="#666161" opacity="0.95" />
<polygon points="2.0,327.0 0.0,383.0 383.0,383.0 383.0,325.0" fill="#666161" />
<polygon points="105.0,38.0 350.0,34.0 351.0,120.0 297.0,169.0 251.0,174.0 247.0,222.0 147.0,231.0 140.0,175.0 195.0,173.0 196.0,127.0 146.0,117.0" fill="#666161" />
<polygon points="0.0,0.0 5.0,220.0 124.0,126.0 195.0,171.0 107.0,37.0 351.0,38.0 351.0,120.0 248.0,221.0 1.0,269.0 131.0,274.0 139.0,325.0 5.0,326.0 0.0,383.0 383.0,383.0 383.0,0.0" fill="#666161" opacity="0.95" />
<polygon points="105.0,38.0 350.0,34.0 351.0,121.0 297.0,169.0 250.0,175.0 248.0,221.0 148.0,231.0 140.0,175.0 196.0,172.0 195.0,126.0 146.0,117.0" fill="#666161" opacity="0.95" />
<polygon points="141.0,218.0 248.0,220.0 249.0,158.0 310.0,156.0 311.0,127.0 199.0,126.0 198.0,171.0 142.0,175.0" fill="#72d1d7" />
<polygon points="2.0,281.0 3.0,320.0 131.0,319.0 130.0,280.0" fill="#7c3d95" />
<polygon points="107.0,39.0 108.0,65.0 140.0,67.0 142.0,101.0 166.0,100.0 168.0,74.0 185.0,76.0 186.0,101.0 247.0,101.0 248.0,76.0 264.0,74.0 266.0,100.0 294.0,101.0 297.0,121.0 347.0,119.0 346.0,38.0" fill="#fe4b64" />
<polygon points="141.0,218.0 249.0,219.0 249.0,158.0 309.0,156.0 311.0,127.0 198.0,127.0 198.0,171.0 141.0,176.0" fill="#72d1d7" opacity="0.95" />
<polygon points="2.0,245.0 3.0,262.0 131.0,261.0 130.0,244.0" fill="#fbea16" />
<polygon points="107.0,39.0 107.0,64.0 140.0,67.0 143.0,101.0 166.0,100.0 169.0,74.0 185.0,76.0 187.0,101.0 246.0,101.0 248.0,76.0 263.0,74.0 266.0,100.0 295.0,102.0 296.0,120.0 347.0,120.0 345.0,38.0" fill="#fe4b64" opacity="0.95" />
<polygon points="0.0,282.0 0.0,318.0 131.0,319.0 129.0,280.0" fill="#7c3d95" opacity="0.95" />
<polygon points="129.0,136.0 118.0,138.0 117.0,152.0 101.0,153.0 100.0,177.0 74.0,178.0 74.0,217.0 47.0,222.0 131.0,221.0" fill="#fe4b64" />
<polygon points="141.0,218.0 248.0,219.0 249.0,159.0 308.0,156.0 311.0,128.0 199.0,127.0 198.0,171.0 142.0,176.0" fill="#72d1d7" opacity="0.95" />
<polygon points="107.0,40.0 109.0,65.0 140.0,67.0 144.0,101.0 166.0,99.0 170.0,74.0 185.0,77.0 188.0,101.0 245.0,101.0 248.0,77.0 262.0,74.0 266.0,99.0 294.0,102.0 297.0,120.0 347.0,119.0 344.0,38.0" fill="#fe4b64" opacity="0.95" />
<polygon points="141.0,104.0 148.0,117.0 197.0,125.0 310.0,125.0 313.0,150.0 343.0,123.0 296.0,122.0 293.0,102.0 265.0,101.0 264.0,76.0 249.0,77.0 247.0,103.0 186.0,103.0 184.0,77.0 169.0,76.0 168.0,100.0" fill="#433c3e" />
<polygon points="0.0,283.0 0.0,317.0 5.0,320.0 131.0,319.0 128.0,280.0" fill="#7c3d95" opacity="0.95" />
<polygon points="0.0,223.0 3.0,241.0 15.0,240.0 9.0,234.0 14.0,226.0 27.0,226.0 30.0,241.0 131.0,240.0 130.0,224.0" fill="#857f82" />
<polygon points="2.0,268.0 3.0,276.0 131.0,275.0 130.0,267.0" fill="#666161" />
<polygon points="130.0,137.0 118.0,138.0 118.0,151.0 101.0,153.0 101.0,176.0 74.0,178.0 71.0,221.0 131.0,221.0" fill="#fe4b64" opacity="0.95" />
<polygon points="0.0,246.0 0.0,260.0 131.0,261.0 129.0,244.0" fill="#fbea16" opacity="0.95" />
<polygon points="129.0,137.0 118.0,139.0 117.0,151.0 101.0,154.0 100.0,176.0 74.0,179.0 74.0,221.0 131.0,220.0" fill="#fe4b64" opacity="0.95" />
<polygon points="141.0,104.0 148.0,117.0 177.0,114.0 197.0,125.0 296.0,124.0 294.0,103.0 265.0,101.0 263.0,76.0 249.0,77.0 246.0,103.0 187.0,103.0 184.0,77.0 170.0,76.0 167.0,102.0" fill="#433c3e" opacity="0.95" />
<polygon points="143.0,225.0 154.0,231.0 215.0,231.0 233.0,224.0 146.0,222.0" fill="#433c3e" />
<polygon points="0.0,223.0 4.0,241.0 12.0,240.0 14.0,226.0 29.0,227.0 32.0,241.0 131.0,240.0 129.0,224.0" fill="#857f82" opacity="0.95" />
<polygon points="0.0,247.0 0.0,259.0 5.0,262.0 131.0,260.0 128.0,244.0" fill="#fbea16" opacity="0.95" />
<polygon points="250.0,172.0 256.0,174.0 289.0,171.0 295.0,169.0 303.0,160.0 301.0,158.0 251.0,158.0" fill="#433c3e" />
<polygon points="141.0,105.0 148.0,117.0 177.0,114.0 197.0,125.0 294.0,123.0 293.0,103.0 265.0,100.0 262.0,76.0 249.0,78.0 245.0,103.0 188.0,103.0 184.0,78.0 171.0,76.0 166.0,102.0" fill="#433c3e" opacity="0.95" />
<polygon points="0.0,223.0 5.0,241.0 16.0,225.0 28.0,227.0 33.0,241.0 131.0,239.0 128.0,224.0" fill="#857f82" opacity="0.95" />
<polygon points="0.0,321.0 0.0,325.0 136.0,323.0" fill="#f1edeb" />
<polygon points="110.0,68.0 117.0,80.0 128.0,86.0 133.0,83.0 139.0,92.0 138.0,67.0 133.0,69.0 131.0,67.0" fill="#433c3e" />
<polygon points="144.0,224.0 146.0,229.0 215.0,231.0 232.0,226.0 228.0,222.0" fill="#433c3e" opacity="0.95" />
<polygon points="250.0,172.0 256.0,174.0 295.0,169.0 302.0,159.0 252.0,158.0 250.0,159.0" fill="#433c3e" opacity="0.95" />
<polygon points="312.0,149.0 316.0,150.0 322.0,147.0 341.0,123.0 310.0,123.0 312.0,126.0" fill="#433c3e" opacity="0.95" />
<polygon points="111.0,68.0 117.0,80.0 128.0,86.0 132.0,84.0 135.0,90.0 139.0,90.0 139.0,68.0" fill="#433c3e" opacity="0.95" />
<polygon points="334.0,53.0 337.0,53.0 340.0,56.0 340.0,58.0 341.0,59.0 337.0,64.0 333.0,64.0 330.0,61.0 330.0,57.0" fill="#fe4b64" />
<polygon points="20.0,372.0 22.0,370.0 27.0,371.0 28.0,370.0 47.0,370.0 49.0,372.0 47.0,374.0 28.0,374.0 27.0,373.0 22.0,374.0" fill="#666161" />
<polygon points="334.0,53.0 336.0,53.0 340.0,56.0 340.0,61.0 336.0,64.0 334.0,64.0 330.0,61.0 330.0,57.0" fill="#fe4b64" opacity="0.95" />
<polygon points="142.0,372.0 144.0,370.0 154.0,370.0 156.0,372.0 154.0,374.0 152.0,374.0 151.0,375.0 146.0,375.0" fill="#666161" />
<polygon points="94.0,372.0 96.0,370.0 108.0,370.0 109.0,371.0 111.0,370.0 113.0,372.0 111.0,374.0 110.0,373.0 108.0,374.0 96.0,374.0" fill="#666161" />
<polygon points="333.0,55.0 331.0,57.0 331.0,60.0 333.0,63.0 337.0,63.0 339.0,61.0 339.0,57.0 337.0,55.0" fill="#f1edeb" />
<polygon points="335.0,53.0 338.0,54.0 340.0,56.0 340.0,61.0 336.0,64.0 334.0,64.0 330.0,61.0 330.0,57.0" fill="#fe4b64" opacity="0.95" />
<polygon points="334.0,55.0 331.0,57.0 331.0,60.0 332.0,62.0 336.0,63.0 339.0,61.0 339.0,57.0 336.0,55.0" fill="#f1edeb" opacity="0.95" />
<polygon points="334.0,55.0 331.0,57.0 331.0,60.0 333.0,62.0 336.0,63.0 339.0,61.0 339.0,57.0 336.0,55.0" fill="#f1edeb" opacity="0.95" />
<polygon points="26.0,227.0 25.0,228.0 25.0,230.0 27.0,232.0 29.0,232.0 30.0,231.0 29.0,230.0 29.0,229.0 27.0,227.0" fill="#bcafb1" />
</svg>