<svg xmlns="http://www.w3.org/2000/svg" width="768" height="768" viewBox="0 0 384 384">
<rect width="384" height="384" fill="#816d6d"/>
<polygon points="2.0,40.0 2.0,235.0 134.0,247.0 131.0,265.0 3.0,269.0 3.0,320.0 383.0,320.0 383.0,39.0" fill="#7e6d70" />
<polygon points="0.0,0.0 0.0,234.0 134.0,247.0 0.0,274.0 0.0,383.0 383.0,383.0 383.0,0.0" fill="#7e6d70" opacity="0.95" />
<polygon points="0.0,0.0 0.0,233.0 134.0,247.0 0.0,276.0 0.0,383.0 383.0,383.0 383.0,0.0" fill="#7e6d70" opacity="0.95" />
<polygon points="0.0,328.0 0.0,383.0 383.0,383.0 383.0,325.0" fill="#7e6d70" />
<polygon points="0.0,0.0 3.0,35.0 383.0,35.0 383.0,0.0" fill="#7e6d70" />
<polygon points="351.0,64.0 345.0,78.0 195.0,79.0 194.0,103.0 177.0,97.0 73.0,226.0 46.0,223.0 174.0,63.0 335.0,51.0" fill="#7e6d70" />
<polygon points="350.0,65.0 173.0,65.0 47.0,222.0 72.0,225.0 177.0,95.0 192.0,103.0 194.0,77.0 344.0,77.0" fill="#f94236" />
<polygon points="351.0,64.0 345.0,78.0 194.0,80.0 194.0,103.0 177.0,97.0 74.0,225.0 46.0,223.0 172.0,64.0" fill="#7e6d70" opacity="0.95" />
<polygon points="2.0,238.0 2.0,267.0 9.0,275.0 18.0,263.0 132.0,262.0 130.0,244.0 14.0,244.0 11.0,237.0" fill="#c9c960" />
<polygon points="350.0,65.0 172.0,66.0 47.0,222.0 73.0,224.0 177.0,95.0 192.0,103.0 193.0,78.0" fill="#f94236" opacity="0.95" />
<polygon points="351.0,64.0 345.0,78.0 195.0,80.0 194.0,102.0 177.0,97.0 74.0,225.0 46.0,223.0 173.0,64.0" fill="#7e6d70" opacity="0.95" />
<polygon points="350.0,65.0 173.0,66.0 47.0,222.0 73.0,224.0 174.0,99.0 192.0,102.0 194.0,78.0" fill="#f94236" opacity="0.95" />
<polygon points="0.0,239.0 0.0,266.0 9.0,274.0 19.0,263.0 132.0,262.0 130.0,244.0 15.0,244.0 10.0,237.0" fill="#c9c960" opacity="0.95" />
<polygon points="0.0,240.0 0.0,266.0 9.0,273.0 19.0,263.0 132.0,261.0 129.0,244.0" fill="#c9c960" opacity="0.95" />
<polygon points="342.0,336.0 344.0,334.0 356.0,334.0 358.0,336.0 362.0,334.0 365.0,342.0 359.0,345.0 344.0,344.0 342.0,342.0" fill="#7e6d70" />
<polygon points="208.0,370.0 210.0,359.0 213.0,362.0 219.0,363.0 221.0,361.0 233.0,364.0 229.0,372.0 225.0,365.0 221.0,371.0 212.0,370.0 210.0,372.0" fill="#7e6d70" />
<polygon points="335.0,53.0 330.0,60.0 334.0,66.0 340.0,60.0" fill="#f0eeeb" />
<polygon points="0.0,76.0 0.0,114.0 1.0,113.0 1.0,77.0" fill="#f0eeeb" />
<polygon points="0.0,236.0 0.0,268.0 1.0,267.0 1.0,237.0" fill="#f0eeeb" />
<polygon points="0.0,162.0 0.0,187.0 1.0,186.0 1.0,163.0" fill="#f0eeeb" />
<polygon points="0.0,49.0 0.0,67.0 1.0,66.0 1.0,50.0" fill="#f0eeeb" />
<polygon points="335.0,55.0 333.0,56.0 331.0,59.0 331.0,62.0 332.0,64.0 334.0,65.0 339.0,61.0 339.0,59.0 337.0,56.0" fill="#f0eeeb" opacity="0.95" />
<polygon points="335.0,56.0 331.0,59.0 331.0,62.0 334.0,64.0 337.0,63.0 339.0,61.0 339.0,59.0" fill="#f0eeeb" opacity="0.95" />
</svg>