<svg xmlns="http://www.w3.org/2000/svg" width="768" height="768" viewBox="0 0 384 384">
<rect width="384" height="384" fill="#86625f"/>
<polygon points="121.0,107.0 147.0,197.0 200.0,257.0 249.0,201.0 275.0,108.0" fill="#5ad0fa" />
<polygon points="121.0,108.0 147.0,197.0 203.0,255.0 257.0,185.0 275.0,108.0" fill="#5ad0fa" opacity="0.95" />
<polygon points="368.0,260.0 271.0,236.0 240.0,328.0 101.0,314.0 182.0,295.0 145.0,257.0 0.0,273.0 109.0,365.0 231.0,368.0" fill="#915648" opacity="0.95" />
<polygon points="122.0,108.0 147.0,197.0 203.0,255.0 257.0,185.0 275.0,109.0" fill="#5ad0fa" opacity="0.95" />
<polygon points="383.0,258.0 352.0,325.0 233.0,374.0 183.0,350.0 111.0,373.0 0.0,280.0 0.0,383.0 383.0,383.0" fill="#54383a" opacity="0.95" />
<polygon points="383.0,326.0 315.0,326.0 331.0,350.0 234.0,370.0 298.0,372.0 140.0,374.0 203.0,352.0 33.0,349.0 0.0,370.0 61.0,372.0 0.0,383.0 383.0,383.0 383.0,350.0 338.0,348.0" fill="#54383a" />
<polygon points="45.0,326.0 99.0,330.0 106.0,345.0 312.0,337.0 310.0,326.0" fill="#915648" />
<polygon points="298.0,77.0 278.0,202.0 201.0,289.0 102.0,174.0 204.0,321.0 240.0,320.0 228.0,300.0 302.0,212.0" fill="#54383a" />
<polygon points="101.0,165.0 138.0,234.0 196.0,288.0 256.0,236.0 287.0,168.0 199.0,259.0 148.0,201.0 126.0,209.0 106.0,144.0" fill="#882c38" />
<polygon points="368.0,254.0 310.0,258.0 317.0,280.0 297.0,278.0 303.0,258.0 258.0,257.0 243.0,293.0 253.0,299.0 228.0,312.0 347.0,320.0 365.0,301.0 323.0,297.0 367.0,275.0" fill="#915648" />
<polygon points="265.0,0.0 296.0,16.0 294.0,29.0 304.0,39.0 337.0,40.0 339.0,63.0 371.0,63.0 371.0,84.0 383.0,86.0 383.0,0.0" fill="#54383a" />
<polygon points="373.0,197.0 297.0,177.0 245.0,326.0 175.0,287.0 165.0,326.0 91.0,327.0 99.0,359.0 257.0,366.0 345.0,319.0 325.0,296.0 367.0,259.0 276.0,253.0 365.0,233.0" fill="#915648" opacity="0.95" />
<polygon points="383.0,258.0 335.0,295.0 349.0,325.0 258.0,378.0 182.0,350.0 110.0,373.0 79.0,350.0 99.0,335.0 50.0,333.0 41.0,288.0 0.0,280.0 0.0,383.0 383.0,383.0" fill="#54383a" opacity="0.95" />
<polygon points="183.0,293.0 145.0,256.0 135.0,280.0 49.0,280.0 48.0,297.0 76.0,299.0 38.0,304.0 122.0,321.0 102.0,309.0" fill="#915648" />
<polygon points="0.0,78.0 15.0,85.0 24.0,69.0 14.0,64.0 39.0,61.0 30.0,36.0 79.0,39.0 72.0,27.0 91.0,26.0 78.0,15.0 120.0,15.0 130.0,0.0 0.0,0.0" fill="#54383a" />
<polygon points="109.0,102.0 111.0,169.0 134.0,215.0 146.0,197.0 129.0,157.0 120.0,105.0" fill="#c31a37" />
<polygon points="95.0,37.0 164.0,38.0 203.0,21.0 152.0,15.0 212.0,16.0 218.0,6.0 284.0,14.0 261.0,0.0 131.0,0.0 126.0,9.0 146.0,17.0 96.0,19.0" fill="#915648" />
<polygon points="25.0,220.0 50.0,235.0 49.0,254.0 93.0,252.0 84.0,274.0 135.0,266.0 135.0,257.0 96.0,255.0 137.0,251.0 125.0,235.0 92.0,234.0 116.0,222.0" fill="#c7835c" />
<polygon points="280.0,192.0 257.0,187.0 200.0,258.0 149.0,202.0 126.0,215.0 201.0,288.0 248.0,246.0" fill="#882c38" opacity="0.95" />
<polygon points="266.0,0.0 296.0,19.0 301.0,37.0 336.0,41.0 355.0,81.0 371.0,80.0 355.0,109.0 383.0,110.0 383.0,0.0" fill="#54383a" opacity="0.95" />
<polygon points="297.0,77.0 278.0,202.0 201.0,289.0 103.0,173.0 205.0,321.0 238.0,320.0 228.0,299.0 301.0,212.0" fill="#54383a" opacity="0.95" />
<polygon points="95.0,37.0 163.0,37.0 218.0,12.0 238.0,19.0 179.0,40.0 284.0,40.0 291.0,24.0 262.0,0.0 131.0,0.0 136.0,17.0 97.0,19.0" fill="#915648" opacity="0.95" />
<polygon points="0.0,0.0 0.0,110.0 81.0,109.0 40.0,88.0 31.0,104.0 10.0,79.0 38.0,61.0 34.0,37.0 70.0,39.0 90.0,24.0 79.0,16.0 129.0,0.0" fill="#54383a" opacity="0.95" />
<polygon points="0.0,194.0 0.0,209.0 116.0,221.0 120.0,227.0 106.0,233.0 125.0,233.0 136.0,244.0 107.0,194.0 42.0,201.0" fill="#915648" />
<polygon points="296.0,177.0 314.0,233.0 367.0,232.0 366.0,216.0 341.0,215.0 371.0,213.0 376.0,194.0 326.0,201.0 302.0,193.0 317.0,176.0" fill="#915648" />
<polygon points="0.0,175.0 1.0,190.0 92.0,191.0 102.0,186.0 99.0,176.0" fill="#c7835c" />
<polygon points="149.0,91.0 150.0,105.0 248.0,104.0 247.0,90.0 214.0,85.0 202.0,75.0 202.0,68.0 189.0,69.0 181.0,85.0" fill="#c31a37" />
<polygon points="11.0,79.0 51.0,84.0 82.0,107.0 85.0,89.0 59.0,86.0 67.0,65.0 87.0,86.0 98.0,70.0 77.0,64.0 90.0,61.0 89.0,42.0 45.0,42.0 44.0,64.0" fill="#915648" />
<polygon points="123.0,45.0 124.0,58.0 129.0,63.0 197.0,63.0 199.0,57.0 197.0,43.0 127.0,42.0" fill="#bc5a4b" />
<polygon points="0.0,236.0 0.0,254.0 88.0,254.0 92.0,268.0 131.0,269.0 137.0,251.0 106.0,233.0 117.0,223.0 33.0,215.0 26.0,223.0 48.0,237.0" fill="#c7835c" opacity="0.95" />
<polygon points="279.0,194.0 258.0,187.0 200.0,258.0 150.0,204.0 129.0,220.0 201.0,288.0 248.0,246.0" fill="#882c38" opacity="0.95" />
<polygon points="187.0,72.0 152.0,79.0 108.0,79.0 105.0,104.0 147.0,105.0 150.0,89.0 181.0,84.0" fill="#882c38" />
<polygon points="278.0,110.0 259.0,182.0 273.0,192.0 282.0,178.0 287.0,146.0 286.0,122.0" fill="#c31a37" />
<polygon points="383.0,235.0 352.0,235.0 338.0,242.0 332.0,236.0 293.0,235.0 279.0,251.0 356.0,253.0 375.0,249.0" fill="#c7835c" />
<polygon points="203.0,71.0 214.0,84.0 247.0,89.0 250.0,105.0 275.0,105.0 285.0,114.0 290.0,143.0 285.0,79.0 238.0,79.0" fill="#882c38" />
<polygon points="85.0,54.0 100.0,61.0 195.0,63.0 198.0,44.0 92.0,43.0" fill="#bc5a4b" opacity="0.95" />
<polygon points="266.0,0.0 296.0,19.0 301.0,37.0 335.0,41.0 338.0,61.0 360.0,66.0 357.0,82.0 369.0,72.0 372.0,87.0 355.0,102.0 383.0,110.0 383.0,0.0" fill="#54383a" opacity="0.95" />
<polygon points="0.0,236.0 0.0,254.0 43.0,249.0 87.0,254.0 94.0,268.0 134.0,267.0 132.0,241.0 110.0,232.0 115.0,222.0 33.0,215.0 26.0,222.0 35.0,235.0" fill="#c7835c" opacity="0.95" />
<polygon points="110.0,102.0 111.0,169.0 134.0,214.0 146.0,197.0 129.0,157.0 119.0,105.0" fill="#c31a37" opacity="0.95" />
<polygon points="250.0,51.0 253.0,62.0 301.0,61.0 313.0,57.0 304.0,44.0 296.0,43.0 253.0,44.0" fill="#bc5a4b" />
<polygon points="301.0,126.0 351.0,127.0 373.0,121.0 376.0,124.0 383.0,119.0 383.0,113.0 302.0,115.0" fill="#c7835c" />
<polygon points="310.0,188.0 367.0,191.0 372.0,187.0 372.0,179.0 323.0,176.0 313.0,180.0" fill="#c7835c" />
<polygon points="149.0,91.0 151.0,105.0 248.0,104.0 248.0,91.0 214.0,85.0 195.0,68.0 188.0,70.0 183.0,84.0" fill="#c31a37" opacity="0.95" />
<polygon points="0.0,236.0 0.0,254.0 38.0,254.0 40.0,251.0 40.0,238.0 37.0,236.0" fill="#c7835c" />
<polygon points="85.0,54.0 100.0,61.0 194.0,63.0 198.0,45.0 93.0,43.0" fill="#bc5a4b" opacity="0.95" />
<polygon points="383.0,237.0 294.0,235.0 280.0,252.0 356.0,253.0 376.0,248.0" fill="#c7835c" opacity="0.95" />
<polygon points="0.0,111.0 0.0,115.0 27.0,119.0 43.0,116.0 51.0,127.0 95.0,126.0 94.0,114.0 80.0,118.0" fill="#c7835c" />
<polygon points="188.0,75.0 109.0,79.0 105.0,101.0 146.0,105.0 150.0,89.0 181.0,84.0" fill="#882c38" opacity="0.95" />
<polygon points="84.0,57.0 116.0,62.0 120.0,59.0 119.0,44.0 92.0,43.0 86.0,48.0" fill="#bc5a4b" />
<polygon points="111.0,102.0 106.0,106.0 111.0,169.0 134.0,214.0 146.0,197.0 129.0,157.0 119.0,105.0" fill="#c31a37" opacity="0.95" />
<polygon points="281.0,111.0 276.0,112.0 259.0,182.0 274.0,192.0 282.0,178.0 287.0,146.0" fill="#c31a37" opacity="0.95" />
<polygon points="203.0,71.0 208.0,81.0 246.0,89.0 249.0,104.0 274.0,105.0 290.0,121.0 286.0,80.0 238.0,79.0" fill="#882c38" opacity="0.95" />
<polygon points="149.0,91.0 152.0,105.0 248.0,103.0 247.0,91.0 214.0,85.0 195.0,68.0 188.0,70.0 183.0,84.0" fill="#c31a37" opacity="0.95" />
<polygon points="301.0,92.0 302.0,108.0 323.0,110.0 328.0,106.0 329.0,92.0 327.0,90.0 304.0,90.0" fill="#bc5a4b" />
<polygon points="238.0,323.0 312.0,326.0 358.0,323.0" fill="#f0d5b8" />
<polygon points="188.0,75.0 109.0,79.0 105.0,100.0 145.0,105.0 150.0,89.0 181.0,84.0" fill="#882c38" opacity="0.95" />
<polygon points="250.0,51.0 255.0,62.0 301.0,61.0 312.0,57.0 305.0,45.0 296.0,43.0 254.0,44.0" fill="#bc5a4b" opacity="0.95" />
<polygon points="280.0,111.0 259.0,182.0 274.0,192.0 282.0,178.0 287.0,146.0 286.0,122.0" fill="#c31a37" opacity="0.95" />
<polygon points="252.0,46.0 252.0,60.0 267.0,64.0 264.0,74.0 301.0,79.0 302.0,107.0 328.0,106.0 327.0,91.0 307.0,87.0 316.0,80.0 309.0,69.0 286.0,66.0 312.0,56.0 304.0,45.0" fill="#bc5a4b" opacity="0.95" />
<polygon points="203.0,71.0 214.0,84.0 247.0,90.0 252.0,105.0 273.0,105.0 290.0,113.0 289.0,89.0 283.0,79.0 238.0,79.0" fill="#882c38" opacity="0.95" />
<polygon points="148.0,268.0 139.0,257.0 131.0,270.0 95.0,268.0 90.0,274.0 130.0,274.0" fill="#bc5a4b" />
<polygon points="158.0,347.0 216.0,350.0 247.0,347.0" fill="#f0d5b8" />
<polygon points="301.0,92.0 301.0,107.0 322.0,110.0 328.0,106.0 328.0,91.0 306.0,89.0" fill="#bc5a4b" opacity="0.95" />
<polygon points="94.0,112.0 86.0,108.0 82.0,111.0 50.0,112.0 80.0,117.0" fill="#d1a78a" />
<polygon points="378.0,129.0 375.0,127.0 326.0,129.0" fill="#f0d5b8" />
<polygon points="0.0,371.0 0.0,373.0 46.0,372.0" fill="#d1a78a" />
<polygon points="94.0,347.0 98.0,349.0 148.0,347.0 106.0,347.0 102.0,345.0" fill="#f0d5b8" />
<polygon points="0.0,322.0 0.0,324.0 45.0,323.0" fill="#f0d5b8" />
<polygon points="199.0,54.0 199.0,64.0 208.0,69.0 211.0,66.0 233.0,65.0 207.0,64.0 203.0,57.0 204.0,53.0" fill="#f0d5b8" />
<polygon points="139.0,65.0 164.0,66.0 169.0,74.0 172.0,73.0 171.0,70.0 174.0,66.0 173.0,64.0" fill="#f0d5b8" />
<polygon points="370.0,265.0 369.0,276.0 365.0,280.0 365.0,300.0 369.0,299.0 369.0,281.0 372.0,278.0" fill="#d1a78a" />
<polygon points="335.0,92.0 338.0,97.0 346.0,95.0 350.0,102.0 348.0,104.0 350.0,107.0 354.0,105.0 350.0,102.0 360.0,92.0 358.0,90.0 337.0,90.0" fill="#882c38" />
<polygon points="157.0,371.0 163.0,373.0 189.0,371.0 160.0,369.0" fill="#f0d5b8" />
<polygon points="308.0,215.0 307.0,216.0 307.0,233.0 310.0,234.0 311.0,233.0 311.0,217.0 312.0,216.0 311.0,215.0" fill="#f0d5b8" />
<polygon points="92.0,111.0 86.0,109.0 83.0,111.0 72.0,111.0 70.0,112.0 70.0,114.0 82.0,117.0 92.0,113.0" fill="#d1a78a" opacity="0.95" />
<polygon points="0.0,347.0 0.0,349.0 14.0,349.0 15.0,348.0 14.0,347.0" fill="#d1a78a" />
<polygon points="367.0,284.0 365.0,285.0 365.0,299.0 367.0,300.0 369.0,299.0 369.0,285.0" fill="#d1a78a" opacity="0.95" />
<polygon points="40.0,194.0 42.0,196.0 44.0,194.0 49.0,193.0 50.0,194.0 63.0,194.0 64.0,193.0 63.0,192.0 50.0,192.0 49.0,193.0 48.0,192.0 43.0,193.0 42.0,192.0" fill="#f0d5b8" />
<polygon points="369.0,73.0 367.0,85.0 369.0,87.0 368.0,88.0 376.0,89.0 377.0,88.0 376.0,87.0 374.0,88.0 370.0,84.0 370.0,74.0" fill="#d1a78a" />
<polygon points="337.0,17.0 336.0,16.0 336.0,14.0 334.0,12.0 328.0,17.0 329.0,18.0 336.0,18.0" fill="#d1a78a" />
<polygon points="2.0,39.0 3.0,40.0 13.0,40.0 14.0,39.0 13.0,38.0 9.0,38.0 7.0,36.0 7.0,34.0 6.0,33.0 5.0,34.0 5.0,36.0" fill="#9b7568" />
<polygon points="312.0,114.0 314.0,116.0 321.0,116.0 322.0,115.0 325.0,115.0 326.0,114.0 325.0,113.0 313.0,113.0" fill="#d1a78a" />
<polygon points="365.0,347.0 366.0,349.0 378.0,349.0 379.0,348.0 378.0,347.0 375.0,347.0 371.0,345.0 370.0,346.0 366.0,346.0" fill="#d1a78a" />
<polygon points="368.0,25.0 367.0,26.0 367.0,30.0 368.0,31.0 366.0,33.0 366.0,37.0 367.0,38.0 370.0,35.0 368.0,31.0 370.0,27.0" fill="#9b7568" />
<polygon points="234.0,44.0 233.0,43.0 232.0,44.0 225.0,44.0 224.0,45.0 223.0,44.0 222.0,45.0 223.0,46.0 224.0,45.0 225.0,46.0 231.0,46.0" fill="#9b7568" />
</svg>