<svg xmlns="http://www.w3.org/2000/svg" width="768" height="768" viewBox="0 0 384 384">
<rect width="384" height="384" fill="#94604d"/>
<polygon points="219.0,0.0 267.0,155.0 256.0,222.0 199.0,260.0 209.0,383.0 383.0,383.0 383.0,0.0" fill="#945544" />
<polygon points="0.0,0.0 0.0,383.0 175.0,383.0 184.0,254.0 116.0,156.0 152.0,163.0 136.0,88.0 171.0,113.0 160.0,0.0" fill="#945544" />
<polygon points="219.0,0.0 267.0,155.0 256.0,222.0 199.0,259.0 209.0,383.0 383.0,383.0 383.0,0.0" fill="#945544" opacity="0.95" />
<polygon points="0.0,0.0 0.0,383.0 175.0,383.0 184.0,254.0 116.0,156.0 151.0,164.0 134.0,89.0 171.0,108.0 160.0,0.0" fill="#945544" opacity="0.95" />
<polygon points="219.0,0.0 267.0,155.0 256.0,222.0 199.0,260.0 209.0,383.0 383.0,383.0 383.0,0.0" fill="#945544" opacity="0.95" />
<polygon points="0.0,0.0 0.0,383.0 175.0,383.0 184.0,254.0 116.0,156.0 151.0,164.0 135.0,89.0 171.0,108.0 160.0,0.0" fill="#945544" opacity="0.95" />
<polygon points="135.0,90.0 184.0,181.0 177.0,203.0 119.0,149.0 138.0,199.0 188.0,230.0 234.0,210.0 265.0,158.0 211.0,196.0 248.0,91.0 192.0,152.0" fill="#6cf9ee" />
<polygon points="161.0,0.0 161.0,79.0 173.0,97.0 193.0,104.0 209.0,96.0 220.0,78.0 218.0,0.0" fill="#f57027" />
<polygon points="201.0,229.0 182.0,231.0 186.0,280.0 167.0,304.0 177.0,383.0 207.0,383.0 216.0,301.0 197.0,281.0" fill="#0d2938" />
<polygon points="134.0,91.0 184.0,181.0 177.0,202.0 120.0,149.0 138.0,199.0 188.0,230.0 234.0,210.0 265.0,158.0 217.0,188.0 248.0,91.0 192.0,150.0" fill="#6cf9ee" opacity="0.95" />
<polygon points="161.0,0.0 161.0,79.0 173.0,97.0 193.0,104.0 209.0,96.0 220.0,78.0 218.0,0.0" fill="#f57027" opacity="0.95" />
<polygon points="135.0,102.0 144.0,143.0 177.0,201.0 183.0,183.0 160.0,127.0" fill="#26845d" />
<polygon points="225.0,22.0 217.0,88.0 193.0,105.0 172.0,102.0 190.0,146.0 213.0,112.0 247.0,87.0" fill="#69332f" />
<polygon points="135.0,91.0 184.0,181.0 174.0,200.0 121.0,149.0 138.0,199.0 188.0,230.0 234.0,210.0 265.0,158.0 219.0,184.0 248.0,92.0 192.0,149.0" fill="#6cf9ee" opacity="0.95" />
<polygon points="261.0,176.0 239.0,207.0 203.0,230.0 200.0,257.0 233.0,242.0 255.0,222.0 264.0,197.0" fill="#69332f" />
<polygon points="161.0,0.0 161.0,79.0 173.0,97.0 193.0,104.0 209.0,96.0 220.0,78.0 218.0,0.0" fill="#f57027" opacity="0.95" />
<polygon points="184.0,230.0 186.0,280.0 169.0,295.0 169.0,346.0 177.0,383.0 208.0,383.0 216.0,301.0 197.0,281.0 201.0,231.0" fill="#0d2938" opacity="0.95" />
<polygon points="185.0,230.0 186.0,280.0 169.0,295.0 169.0,346.0 177.0,383.0 208.0,383.0 216.0,301.0 197.0,280.0 201.0,232.0" fill="#0d2938" opacity="0.95" />
<polygon points="224.0,22.0 217.0,88.0 193.0,105.0 172.0,102.0 190.0,144.0 212.0,112.0 246.0,87.0" fill="#69332f" opacity="0.95" />
<polygon points="136.0,103.0 144.0,143.0 177.0,200.0 183.0,183.0 160.0,127.0" fill="#26845d" opacity="0.95" />
<polygon points="250.0,106.0 235.0,151.0 247.0,160.0 260.0,147.0" fill="#69332f" />
<polygon points="263.0,178.0 239.0,207.0 203.0,230.0 199.0,255.0 228.0,245.0 255.0,222.0" fill="#69332f" opacity="0.95" />
<polygon points="225.0,25.0 215.0,91.0 193.0,105.0 172.0,102.0 191.0,144.0 245.0,87.0" fill="#69332f" opacity="0.95" />
<polygon points="148.0,210.0 156.0,227.0 182.0,249.0 180.0,229.0" fill="#69332f" />
<polygon points="138.0,104.0 144.0,143.0 176.0,200.0 183.0,191.0 178.0,164.0 162.0,130.0" fill="#26845d" opacity="0.95" />
<polygon points="263.0,181.0 232.0,213.0 203.0,230.0 200.0,254.0 228.0,245.0 255.0,222.0" fill="#69332f" opacity="0.95" />
<polygon points="244.0,158.0 238.0,154.0 233.0,156.0 217.0,192.0 245.0,162.0" fill="#481d1f" />
<polygon points="250.0,110.0 236.0,152.0 245.0,158.0 260.0,147.0" fill="#69332f" opacity="0.95" />
<polygon points="148.0,213.0 156.0,227.0 169.0,240.0 182.0,245.0 179.0,228.0" fill="#69332f" opacity="0.95" />
<polygon points="244.0,158.0 237.0,154.0 233.0,156.0 219.0,187.0 223.0,187.0 245.0,162.0" fill="#481d1f" opacity="0.95" />
<polygon points="244.0,158.0 237.0,154.0 233.0,156.0 222.0,179.0 223.0,182.0 227.0,182.0 245.0,162.0" fill="#481d1f" opacity="0.95" />
</svg>