<svg xmlns="http://www.w3.org/2000/svg" width="768" height="768" viewBox="0 0 384 384">
<rect width="384" height="384" fill="#8f6960"/>
<polygon points="167.0,40.0 91.0,44.0 15.0,104.0 0.0,383.0 172.0,383.0" fill="#986f61" />
<polygon points="226.0,25.0 208.0,40.0 211.0,383.0 383.0,383.0 383.0,154.0 322.0,69.0" fill="#986f61" />
<polygon points="167.0,40.0 90.0,45.0 15.0,104.0 0.0,383.0 171.0,383.0" fill="#986f61" opacity="0.95" />
<polygon points="227.0,25.0 208.0,39.0 211.0,383.0 383.0,383.0 383.0,154.0 322.0,69.0" fill="#986f61" opacity="0.95" />
<polygon points="164.0,39.0 90.0,45.0 15.0,104.0 0.0,383.0 171.0,383.0" fill="#986f61" opacity="0.95" />
<polygon points="227.0,25.0 208.0,40.0 211.0,383.0 383.0,383.0 383.0,154.0 322.0,69.0" fill="#986f61" opacity="0.95" />
<polygon points="0.0,154.0 20.0,94.0 91.0,43.0 159.0,36.0 175.0,71.0 176.0,0.0 0.0,0.0" fill="#755046" />
<polygon points="206.0,0.0 209.0,38.0 230.0,24.0 282.0,39.0 361.0,109.0 383.0,153.0 383.0,0.0" fill="#755046" />
<polygon points="167.0,269.0 175.0,383.0 210.0,383.0 217.0,282.0 184.0,279.0 180.0,267.0 171.0,281.0" fill="#192430" />
<polygon points="0.0,154.0 20.0,94.0 86.0,46.0 155.0,35.0 175.0,52.0 176.0,0.0 0.0,0.0" fill="#755046" opacity="0.95" />
<polygon points="207.0,0.0 207.0,36.0 230.0,24.0 284.0,41.0 361.0,109.0 383.0,153.0 383.0,0.0" fill="#755046" opacity="0.95" />
<polygon points="180.0,108.0 168.0,110.0 163.0,121.0 171.0,280.0 181.0,264.0" fill="#153a4f" />
<polygon points="183.0,0.0 184.0,104.0 205.0,105.0 204.0,0.0" fill="#e80151" />
<polygon points="0.0,154.0 22.0,92.0 109.0,37.0 175.0,42.0 176.0,0.0 0.0,0.0" fill="#755046" opacity="0.95" />
<polygon points="207.0,0.0 208.0,36.0 230.0,24.0 284.0,41.0 361.0,109.0 383.0,153.0 383.0,0.0" fill="#755046" opacity="0.95" />
<polygon points="179.0,268.0 167.0,281.0 175.0,383.0 210.0,383.0 217.0,282.0 185.0,279.0" fill="#192430" opacity="0.95" />
<polygon points="198.0,109.0 197.0,175.0 194.0,180.0 183.0,179.0 182.0,202.0 216.0,209.0 217.0,124.0 211.0,112.0" fill="#cadbd8" />
<polygon points="177.0,269.0 167.0,282.0 175.0,383.0 210.0,383.0 217.0,283.0 186.0,279.0" fill="#192430" opacity="0.95" />
<polygon points="183.0,0.0 184.0,104.0 204.0,105.0 204.0,0.0" fill="#e80151" opacity="0.95" />
<polygon points="179.0,108.0 168.0,110.0 163.0,121.0 166.0,264.0 171.0,272.0 181.0,265.0" fill="#153a4f" opacity="0.95" />
<polygon points="183.0,108.0 182.0,164.0 194.0,173.0 196.0,170.0 196.0,109.0" fill="#3777a2" />
<polygon points="182.0,248.0 184.0,278.0 193.0,276.0 202.0,281.0 218.0,279.0 216.0,249.0 193.0,251.0" fill="#4f4b53" />
<polygon points="199.0,109.0 197.0,175.0 193.0,180.0 183.0,178.0 182.0,202.0 215.0,208.0 217.0,124.0 211.0,112.0" fill="#cadbd8" opacity="0.95" />
<polygon points="182.0,228.0 184.0,246.0 193.0,250.0 216.0,247.0 216.0,225.0 191.0,225.0" fill="#76777d" />
<polygon points="178.0,108.0 168.0,110.0 163.0,121.0 166.0,264.0 171.0,271.0 181.0,264.0" fill="#153a4f" opacity="0.95" />
<polygon points="177.0,0.0 176.0,104.0 182.0,106.0 182.0,0.0" fill="#570918" />
<polygon points="183.0,0.0 184.0,103.0 203.0,105.0 206.0,103.0 204.0,0.0" fill="#e80151" opacity="0.95" />
<polygon points="200.0,109.0 197.0,175.0 183.0,179.0 182.0,202.0 214.0,208.0 217.0,124.0 211.0,112.0" fill="#cadbd8" opacity="0.95" />
<polygon points="182.0,209.0 185.0,226.0 191.0,224.0 203.0,226.0 217.0,222.0 217.0,211.0 208.0,206.0 185.0,206.0" fill="#93acb1" />
<polygon points="182.0,248.0 183.0,277.0 193.0,276.0 202.0,281.0 218.0,279.0 217.0,250.0 193.0,251.0" fill="#4f4b53" opacity="0.95" />
<polygon points="182.0,227.0 184.0,246.0 193.0,250.0 216.0,247.0 217.0,226.0" fill="#76777d" opacity="0.95" />
<polygon points="184.0,108.0 182.0,109.0 182.0,165.0 193.0,173.0 196.0,170.0 196.0,109.0" fill="#3777a2" opacity="0.95" />
<polygon points="177.0,0.0 176.0,104.0 181.0,106.0 182.0,0.0" fill="#570918" opacity="0.95" />
<polygon points="182.0,249.0 184.0,277.0 193.0,276.0 202.0,281.0 218.0,278.0 216.0,250.0" fill="#4f4b53" opacity="0.95" />
<polygon points="182.0,208.0 185.0,226.0 191.0,224.0 203.0,226.0 217.0,222.0 217.0,210.0 208.0,206.0" fill="#93acb1" opacity="0.95" />
<polygon points="185.0,108.0 182.0,110.0 182.0,164.0 193.0,172.0 196.0,170.0 196.0,110.0" fill="#3777a2" opacity="0.95" />
<polygon points="182.0,229.0 184.0,246.0 193.0,250.0 216.0,246.0 216.0,226.0 191.0,225.0" fill="#76777d" opacity="0.95" />
<polygon points="182.0,209.0 183.0,224.0 186.0,226.0 191.0,224.0 203.0,226.0 217.0,222.0 217.0,211.0 208.0,206.0 187.0,206.0" fill="#93acb1" opacity="0.95" />
<polygon points="162.0,128.0 161.0,129.0 162.0,171.0 163.0,170.0" fill="#192430" />
<polygon points="179.0,69.0 176.0,71.0 175.0,94.0 176.0,104.0 180.0,106.0 183.0,104.0 182.0,71.0" fill="#570918" opacity="0.95" />
<polygon points="179.0,17.0 176.0,19.0 176.0,57.0 179.0,59.0 182.0,57.0 182.0,19.0" fill="#570918" opacity="0.95" />
<polygon points="183.0,166.0 182.0,167.0 182.0,175.0 184.0,177.0 187.0,176.0 191.0,179.0 194.0,179.0 196.0,175.0 192.0,174.0" fill="#93acb1" />
<polygon points="2.0,335.0 0.0,335.0 0.0,356.0 1.0,357.0 3.0,355.0 3.0,352.0 4.0,351.0 4.0,337.0" fill="#755046" />
<polygon points="200.0,107.0 209.0,109.0 218.0,119.0 217.0,121.0 219.0,121.0 216.0,113.0 211.0,108.0 207.0,106.0" fill="#192430" />
<polygon points="182.0,168.0 182.0,176.0 184.0,177.0 187.0,176.0 192.0,179.0 195.0,178.0 195.0,175.0 192.0,174.0 184.0,167.0" fill="#93acb1" opacity="0.95" />
<polygon points="0.0,335.0 0.0,356.0 3.0,355.0 3.0,352.0 4.0,351.0 4.0,337.0" fill="#755046" opacity="0.95" />
<polygon points="185.0,168.0 182.0,170.0 182.0,174.0 188.0,177.0 191.0,175.0 191.0,173.0" fill="#93acb1" opacity="0.95" />
<polygon points="0.0,335.0 0.0,356.0 3.0,354.0 4.0,351.0 4.0,337.0" fill="#755046" opacity="0.95" />
</svg>