<svg xmlns="http://www.w3.org/2000/svg" width="768" height="768" viewBox="0 0 384 384">
<rect width="384" height="384" fill="#905b4c"/>
<polygon points="0.0,0.0 2.0,127.0 130.0,126.0 130.0,0.0" fill="#753c36" />
<polygon points="131.0,0.0 131.0,126.0 253.0,127.0 255.0,0.0" fill="#ac6652" />
<polygon points="0.0,132.0 2.0,255.0 130.0,253.0 119.0,154.0 130.0,150.0 130.0,130.0" fill="#ac6652" />
<polygon points="256.0,0.0 257.0,128.0 131.0,142.0 151.0,176.0 184.0,142.0 232.0,176.0 264.0,147.0 256.0,192.0 192.0,236.0 131.0,193.0 131.0,254.0 255.0,255.0 256.0,319.0 383.0,319.0 383.0,258.0 279.0,258.0 264.0,193.0 383.0,191.0 383.0,0.0" fill="#753c36" />
<polygon points="2.0,259.0 3.0,319.0 130.0,318.0 129.0,258.0" fill="#753c36" />
<polygon points="131.0,259.0 132.0,319.0 254.0,319.0 253.0,258.0" fill="#ac6652" />
<polygon points="0.0,324.0 0.0,383.0 130.0,383.0 129.0,322.0" fill="#ac6652" />
<polygon points="0.0,0.0 1.0,126.0 130.0,126.0 130.0,0.0" fill="#753c36" opacity="0.95" />
<polygon points="131.0,323.0 131.0,383.0 254.0,383.0 253.0,322.0" fill="#753c36" />
<polygon points="131.0,0.0 131.0,126.0 254.0,126.0 255.0,0.0" fill="#ac6652" opacity="0.95" />
<polygon points="255.0,323.0 255.0,383.0 383.0,383.0 383.0,322.0" fill="#ac6652" />
<polygon points="255.0,0.0 131.0,0.0 131.0,127.0 0.0,132.0 0.0,253.0 128.0,254.0 131.0,130.0 254.0,125.0" fill="#ac6652" opacity="0.95" />
<polygon points="0.0,132.0 1.0,254.0 130.0,253.0 119.0,149.0 130.0,149.0 131.0,131.0" fill="#ac6652" opacity="0.95" />
<polygon points="256.0,0.0 255.0,128.0 131.0,142.0 151.0,175.0 183.0,143.0 232.0,176.0 263.0,147.0 255.0,192.0 192.0,236.0 131.0,193.0 131.0,254.0 254.0,256.0 257.0,319.0 383.0,319.0 383.0,258.0 279.0,258.0 265.0,210.0 383.0,191.0 383.0,0.0" fill="#753c36" opacity="0.95" />
<polygon points="267.0,196.0 267.0,236.0 273.0,250.0 293.0,255.0 383.0,255.0 383.0,194.0" fill="#ac6652" />
<polygon points="0.0,0.0 0.0,125.0 130.0,125.0 130.0,0.0" fill="#753c36" opacity="0.95" />
<polygon points="264.0,149.0 233.0,178.0 195.0,155.0 152.0,177.0 124.0,149.0 136.0,197.0 193.0,234.0 247.0,198.0" fill="#33fdf8" />
<polygon points="256.0,0.0 255.0,127.0 131.0,142.0 151.0,175.0 262.0,147.0 255.0,192.0 192.0,236.0 133.0,196.0 131.0,253.0 253.0,256.0 256.0,319.0 383.0,319.0 383.0,258.0 277.0,258.0 265.0,210.0 383.0,191.0 383.0,0.0" fill="#753c36" opacity="0.95" />
<polygon points="131.0,259.0 131.0,318.0 253.0,320.0 255.0,383.0 383.0,383.0 383.0,322.0 257.0,322.0 254.0,259.0" fill="#ac6652" opacity="0.95" />
<polygon points="0.0,260.0 4.0,319.0 130.0,318.0 128.0,258.0" fill="#753c36" opacity="0.95" />
<polygon points="131.0,323.0 131.0,383.0 254.0,383.0 252.0,322.0" fill="#753c36" opacity="0.95" />
<polygon points="264.0,149.0 233.0,177.0 194.0,155.0 152.0,177.0 127.0,151.0 121.0,158.0 136.0,197.0 193.0,234.0 247.0,198.0" fill="#33fdf8" opacity="0.95" />
<polygon points="264.0,151.0 232.0,177.0 194.0,155.0 152.0,177.0 127.0,151.0 121.0,158.0 136.0,197.0 193.0,234.0 247.0,198.0" fill="#33fdf8" opacity="0.95" />
<polygon points="181.0,146.0 189.0,154.0 194.0,154.0 202.0,146.0 198.0,143.0 191.0,150.0 184.0,143.0" fill="#f7f0ee" />
<polygon points="182.0,145.0 182.0,147.0 190.0,154.0 195.0,153.0 201.0,147.0 201.0,145.0 198.0,144.0 191.0,149.0 184.0,144.0" fill="#f7f0ee" opacity="0.95" />
</svg>