<svg xmlns="http://www.w3.org/2000/svg" width="768" height="768" viewBox="0 0 384 384">
<rect width="384" height="384" fill="#8f5f56"/>
<polygon points="0.0,0.0 0.0,383.0 383.0,383.0 383.0,0.0" fill="#95584c" />
<polygon points="0.0,0.0 0.0,383.0 383.0,383.0 383.0,0.0" fill="#95584c" opacity="0.95" />
<polygon points="0.0,0.0 0.0,383.0 383.0,383.0 383.0,0.0" fill="#95584c" opacity="0.95" />
<polygon points="190.0,104.0 267.0,177.0 192.0,277.0 115.0,178.0" fill="#95584c" />
<polygon points="191.0,104.0 267.0,177.0 192.0,276.0 116.0,179.0" fill="#95584c" opacity="0.95" />
<polygon points="192.0,105.0 267.0,179.0 191.0,276.0 116.0,177.0" fill="#95584c" opacity="0.95" />
<polygon points="172.0,172.0 160.0,182.0 192.0,234.0 224.0,181.0 216.0,174.0" fill="#4dfdf6" />
<polygon points="142.0,207.0 190.0,275.0 191.0,237.0" fill="#0d0b70" />
<polygon points="173.0,172.0 161.0,183.0 193.0,233.0 224.0,181.0 215.0,174.0" fill="#4dfdf6" opacity="0.95" />
<polygon points="150.0,145.0 117.0,177.0 139.0,201.0 156.0,184.0 142.0,172.0 152.0,149.0" fill="#4dfdf6" />
<polygon points="173.0,172.0 160.0,183.0 193.0,232.0 224.0,181.0 215.0,174.0" fill="#4dfdf6" opacity="0.95" />
<polygon points="248.0,161.0 230.0,184.0 239.0,192.0 232.0,204.0 234.0,208.0 246.0,201.0 265.0,179.0" fill="#4dfdf6" />
<polygon points="204.0,230.0 192.0,238.0 193.0,274.0 213.0,244.0 213.0,240.0" fill="#2974d4" />
<polygon points="209.0,124.0 203.0,128.0 219.0,165.0 228.0,146.0" fill="#4dfdf6" />
<polygon points="201.0,132.0 193.0,154.0 222.0,177.0 232.0,153.0 219.0,170.0" fill="#e8f8f6" />
<polygon points="144.0,210.0 185.0,269.0 190.0,270.0 191.0,237.0" fill="#0d0b70" opacity="0.95" />
<polygon points="159.0,183.0 139.0,203.0 152.0,212.0 163.0,195.0 163.0,189.0" fill="#e8f8f6" />
<polygon points="161.0,138.0 152.0,145.0 165.0,171.0 170.0,155.0" fill="#0b258e" />
<polygon points="147.0,212.0 176.0,257.0 190.0,270.0 191.0,237.0" fill="#0d0b70" opacity="0.95" />
<polygon points="149.0,147.0 118.0,176.0 125.0,188.0 140.0,200.0 155.0,185.0 143.0,173.0 151.0,151.0" fill="#4dfdf6" opacity="0.95" />
<polygon points="228.0,184.0 223.0,186.0 202.0,221.0 201.0,230.0 219.0,218.0 216.0,209.0 230.0,190.0" fill="#e8f8f6" />
<polygon points="249.0,162.0 243.0,165.0 231.0,183.0 238.0,191.0 232.0,204.0 235.0,208.0 246.0,201.0 265.0,179.0" fill="#4dfdf6" opacity="0.95" />
<polygon points="242.0,154.0 235.0,153.0 231.0,159.0 225.0,175.0 225.0,180.0 229.0,184.0 246.0,160.0" fill="#274691" />
<polygon points="174.0,210.0 168.0,221.0 189.0,234.0 178.0,212.0" fill="#2974d4" />
<polygon points="199.0,127.0 185.0,128.0 187.0,140.0 192.0,151.0 200.0,131.0" fill="#274691" />
<polygon points="147.0,149.0 118.0,176.0 125.0,188.0 140.0,200.0 156.0,184.0 143.0,173.0 150.0,153.0" fill="#4dfdf6" opacity="0.95" />
<polygon points="202.0,134.0 193.0,154.0 221.0,176.0 225.0,169.0 217.0,168.0" fill="#e8f8f6" opacity="0.95" />
<polygon points="203.0,230.0 192.0,237.0 192.0,270.0 194.0,271.0 206.0,257.0 213.0,244.0 213.0,240.0" fill="#2974d4" opacity="0.95" />
<polygon points="249.0,162.0 243.0,165.0 231.0,183.0 238.0,191.0 232.0,204.0 235.0,208.0 246.0,201.0 265.0,179.0" fill="#4dfdf6" opacity="0.95" />
<polygon points="179.0,133.0 172.0,155.0 178.0,164.0 177.0,171.0 186.0,172.0 184.0,166.0 187.0,159.0 183.0,156.0 183.0,145.0 186.0,141.0" fill="#2b9fde" />
<polygon points="155.0,157.0 152.0,164.0 153.0,179.0 158.0,182.0 167.0,175.0 162.0,172.0" fill="#2974d4" />
<polygon points="232.0,188.0 217.0,209.0 217.0,214.0 221.0,217.0 229.0,212.0 226.0,208.0 227.0,204.0 236.0,194.0" fill="#b1f9f5" />
<polygon points="203.0,230.0 192.0,238.0 192.0,268.0 195.0,270.0 213.0,244.0 213.0,240.0" fill="#2974d4" opacity="0.95" />
<polygon points="202.0,135.0 193.0,154.0 221.0,176.0 224.0,172.0 216.0,166.0" fill="#e8f8f6" opacity="0.95" />
<polygon points="229.0,185.0 223.0,186.0 200.0,228.0 218.0,219.0 216.0,209.0 230.0,190.0" fill="#e8f8f6" opacity="0.95" />
<polygon points="159.0,184.0 140.0,202.0 141.0,205.0 151.0,211.0 155.0,209.0 163.0,195.0 163.0,189.0" fill="#e8f8f6" opacity="0.95" />
<polygon points="174.0,128.0 165.0,134.0 171.0,149.0 173.0,148.0 176.0,139.0 176.0,131.0" fill="#37deef" />
<polygon points="225.0,216.0 215.0,223.0 216.0,225.0 224.0,230.0 231.0,223.0" fill="#07054b" />
<polygon points="161.0,138.0 153.0,144.0 153.0,148.0 162.0,168.0 165.0,169.0 170.0,155.0" fill="#0b258e" opacity="0.95" />
<polygon points="243.0,155.0 237.0,153.0 233.0,155.0 225.0,175.0 226.0,181.0 231.0,181.0 244.0,163.0" fill="#274691" opacity="0.95" />
<polygon points="185.0,111.0 165.0,130.0 166.0,132.0 180.0,122.0 186.0,112.0" fill="#7cf4f1" />
<polygon points="198.0,127.0 185.0,128.0 187.0,140.0 192.0,149.0 195.0,146.0 200.0,128.0" fill="#274691" opacity="0.95" />
<polygon points="180.0,137.0 177.0,139.0 172.0,155.0 178.0,164.0 177.0,171.0 183.0,172.0 186.0,161.0 183.0,156.0 185.0,139.0" fill="#2b9fde" opacity="0.95" />
<polygon points="173.0,211.0 169.0,222.0 184.0,231.0 187.0,230.0 178.0,212.0" fill="#2974d4" opacity="0.95" />
<polygon points="159.0,185.0 140.0,202.0 141.0,205.0 151.0,211.0 155.0,209.0 163.0,195.0 163.0,189.0" fill="#e8f8f6" opacity="0.95" />
<polygon points="208.0,227.0 205.0,230.0 214.0,240.0 213.0,245.0 214.0,246.0 220.0,238.0" fill="#204fae" />
<polygon points="243.0,155.0 237.0,153.0 233.0,155.0 225.0,175.0 226.0,181.0 231.0,181.0 244.0,163.0" fill="#274691" opacity="0.95" />
<polygon points="234.0,210.0 227.0,215.0 228.0,219.0 231.0,222.0 238.0,213.0" fill="#0d0b70" />
<polygon points="161.0,138.0 153.0,144.0 153.0,148.0 164.0,168.0 168.0,165.0 170.0,155.0 164.0,140.0" fill="#0b258e" opacity="0.95" />
<polygon points="195.0,160.0 193.0,162.0 194.0,169.0 196.0,172.0 201.0,172.0 202.0,171.0 203.0,165.0 198.0,160.0" fill="#204fae" />
<polygon points="194.0,156.0 191.0,156.0 186.0,162.0 185.0,168.0 189.0,172.0 194.0,171.0 192.0,165.0 192.0,162.0 196.0,158.0" fill="#2974d4" />
<polygon points="153.0,152.0 147.0,165.0 147.0,171.0 151.0,178.0 151.0,164.0 154.0,157.0" fill="#2b9fde" />
<polygon points="213.0,206.0 200.0,225.0 203.0,229.0 218.0,219.0 216.0,208.0" fill="#e8f8f6" opacity="0.95" />
<polygon points="236.0,191.0 230.0,191.0 222.0,200.0 217.0,209.0 219.0,216.0 221.0,217.0 228.0,213.0 227.0,204.0 236.0,194.0" fill="#b1f9f5" opacity="0.95" />
<polygon points="155.0,160.0 152.0,164.0 153.0,179.0 157.0,182.0 165.0,177.0 165.0,175.0 162.0,172.0 158.0,162.0" fill="#2974d4" opacity="0.95" />
<polygon points="192.0,106.0 190.0,110.0 194.0,123.0 192.0,125.0 193.0,126.0 193.0,124.0 199.0,120.0 200.0,117.0" fill="#327ab9" />
<polygon points="197.0,127.0 188.0,127.0 185.0,129.0 189.0,146.0 192.0,148.0 195.0,146.0 200.0,131.0" fill="#274691" opacity="0.95" />
<polygon points="180.0,137.0 177.0,139.0 173.0,157.0 178.0,164.0 177.0,170.0 181.0,172.0 184.0,170.0 186.0,159.0 183.0,156.0 185.0,140.0" fill="#2b9fde" opacity="0.95" />
<polygon points="169.0,198.0 159.0,214.0 161.0,217.0 166.0,210.0 167.0,203.0 171.0,200.0" fill="#37deef" />
<polygon points="225.0,217.0 216.0,222.0 216.0,225.0 224.0,230.0 230.0,224.0 230.0,222.0" fill="#07054b" opacity="0.95" />
<polygon points="173.0,213.0 169.0,222.0 183.0,230.0 185.0,229.0 186.0,226.0 179.0,214.0 176.0,212.0" fill="#2974d4" opacity="0.95" />
<polygon points="233.0,190.0 226.0,195.0 217.0,209.0 217.0,214.0 221.0,217.0 227.0,213.0 227.0,204.0 236.0,194.0" fill="#b1f9f5" opacity="0.95" />
<polygon points="165.0,191.0 154.0,212.0 155.0,213.0 166.0,196.0" fill="#b1f9f5" />
<polygon points="155.0,162.0 152.0,164.0 153.0,179.0 157.0,182.0 164.0,177.0 164.0,174.0 159.0,165.0" fill="#2974d4" opacity="0.95" />
<polygon points="167.0,196.0 157.0,212.0 158.0,214.0 167.0,199.0" fill="#7cf4f1" />
<polygon points="209.0,227.0 219.0,236.0 221.0,236.0 222.0,235.0 220.0,232.0 212.0,226.0 210.0,226.0" fill="#0b258e" />
<polygon points="171.0,201.0 168.0,203.0 167.0,210.0 162.0,217.0 164.0,219.0 172.0,204.0" fill="#2fbdea" />
<polygon points="173.0,129.0 166.0,133.0 167.0,140.0 169.0,141.0 176.0,138.0 176.0,131.0" fill="#37deef" opacity="0.95" />
<polygon points="196.0,160.0 193.0,162.0 195.0,171.0 200.0,172.0 202.0,171.0 203.0,165.0 199.0,161.0" fill="#204fae" opacity="0.95" />
<polygon points="224.0,217.0 216.0,222.0 216.0,224.0 224.0,230.0 230.0,224.0 230.0,222.0" fill="#07054b" opacity="0.95" />
<polygon points="171.0,163.0 169.0,165.0 168.0,168.0 168.0,173.0 169.0,174.0 172.0,171.0 174.0,172.0 175.0,171.0" fill="#37deef" />
<polygon points="173.0,205.0 170.0,208.0 170.0,211.0 165.0,219.0 166.0,220.0 169.0,218.0 172.0,211.0 175.0,208.0" fill="#2b9fde" />
<polygon points="188.0,111.0 186.0,116.0 188.0,120.0 188.0,124.0 191.0,125.0 193.0,123.0 189.0,116.0 189.0,112.0" fill="#2b9fde" />
<polygon points="206.0,229.0 207.0,233.0 214.0,241.0 216.0,242.0 218.0,241.0 219.0,237.0 208.0,228.0" fill="#204fae" opacity="0.95" />
<polygon points="212.0,225.0 222.0,233.0 224.0,232.0 223.0,230.0 214.0,224.0" fill="#0d0b70" />
<polygon points="233.0,198.0 230.0,201.0 227.0,207.0 229.0,211.0 231.0,211.0 233.0,209.0 231.0,206.0 231.0,204.0 234.0,199.0" fill="#7cf4f1" />
<polygon points="205.0,166.0 203.0,168.0 203.0,171.0 204.0,172.0 209.0,172.0 210.0,171.0" fill="#274691" />
<polygon points="182.0,117.0 180.0,116.0 178.0,117.0 169.0,126.0 169.0,128.0 171.0,129.0 176.0,126.0 182.0,119.0" fill="#7cf4f1" opacity="0.95" />
<polygon points="229.0,185.0 226.0,184.0 223.0,186.0 217.0,196.0 218.0,199.0 220.0,200.0 222.0,199.0 230.0,190.0" fill="#e8f8f6" opacity="0.95" />
<polygon points="185.0,116.0 182.0,121.0 183.0,122.0 182.0,124.0 183.0,126.0 185.0,126.0 187.0,124.0 187.0,120.0" fill="#2fbdea" />
<polygon points="237.0,212.0 233.0,211.0 229.0,213.0 227.0,215.0 228.0,219.0 231.0,221.0 233.0,220.0 236.0,216.0" fill="#0d0b70" opacity="0.95" />
<polygon points="172.0,157.0 170.0,161.0 173.0,164.0 174.0,167.0 176.0,168.0 177.0,167.0 177.0,164.0 174.0,161.0 174.0,159.0" fill="#2fbdea" />
<polygon points="188.0,147.0 186.0,151.0 187.0,152.0 187.0,154.0 189.0,156.0 192.0,153.0 190.0,151.0" fill="#37deef" />
<polygon points="196.0,160.0 193.0,162.0 194.0,169.0 199.0,172.0 202.0,170.0 203.0,165.0 199.0,161.0" fill="#204fae" opacity="0.95" />
<polygon points="194.0,111.0 192.0,112.0 192.0,120.0 195.0,122.0 199.0,120.0 199.0,116.0 196.0,112.0" fill="#327ab9" opacity="0.95" />
<polygon points="243.0,206.0 242.0,205.0 240.0,207.0 237.0,208.0 235.0,210.0 238.0,212.0 243.0,207.0" fill="#07054b" />
<polygon points="220.0,133.0 219.0,134.0 219.0,136.0 222.0,139.0 225.0,139.0 226.0,138.0 221.0,133.0" fill="#80797e" />
<polygon points="186.0,143.0 184.0,145.0 184.0,149.0 185.0,150.0 184.0,156.0 187.0,158.0 188.0,156.0 186.0,154.0 185.0,150.0 188.0,145.0" fill="#2fbdea" />
<polygon points="224.0,141.0 230.0,145.0 231.0,144.0 228.0,140.0 225.0,140.0" fill="#60a7bd" />
<polygon points="233.0,211.0 227.0,215.0 228.0,219.0 231.0,221.0 233.0,220.0 236.0,216.0 236.0,213.0" fill="#0d0b70" opacity="0.95" />
<polygon points="173.0,129.0 170.0,130.0 166.0,134.0 166.0,136.0 170.0,139.0 172.0,138.0 173.0,139.0 176.0,137.0 176.0,131.0" fill="#37deef" opacity="0.95" />
<polygon points="198.0,121.0 196.0,123.0 196.0,125.0 197.0,126.0 200.0,126.0 201.0,125.0 201.0,124.0 200.0,123.0 200.0,122.0 199.0,121.0" fill="#60a7bd" />
<polygon points="213.0,232.0 210.0,234.0 210.0,236.0 216.0,241.0 219.0,239.0 219.0,237.0" fill="#204fae" opacity="0.95" />
<polygon points="195.0,113.0 192.0,115.0 192.0,120.0 195.0,122.0 199.0,119.0 199.0,116.0" fill="#327ab9" opacity="0.95" />
<polygon points="171.0,165.0 169.0,166.0 168.0,168.0 168.0,171.0 170.0,172.0 174.0,170.0 173.0,166.0" fill="#37deef" opacity="0.95" />
<polygon points="149.0,164.0 148.0,165.0 147.0,165.0 147.0,171.0 148.0,171.0 149.0,172.0 150.0,171.0 151.0,171.0 151.0,165.0 150.0,165.0" fill="#2b9fde" opacity="0.95" />
<polygon points="205.0,167.0 204.0,168.0 203.0,168.0 203.0,171.0 206.0,172.0 207.0,171.0 208.0,171.0 208.0,169.0" fill="#274691" opacity="0.95" />
<polygon points="185.0,119.0 184.0,120.0 183.0,120.0 183.0,125.0 184.0,125.0 185.0,126.0 186.0,125.0 187.0,125.0 187.0,120.0 186.0,120.0" fill="#2fbdea" opacity="0.95" />
</svg>