<svg xmlns="http://www.w3.org/2000/svg" width="768" height="768" viewBox="0 0 384 384">
<rect width="384" height="384" fill="#8f7265"/>
<polygon points="0.0,0.0 0.0,119.0 55.0,126.0 51.0,163.0 106.0,120.0 229.0,132.0 294.0,202.0 282.0,248.0 253.0,221.0 271.0,275.0 383.0,243.0 383.0,176.0 290.0,110.0 334.0,89.0" fill="#966656" />
<polygon points="130.0,194.0 94.0,227.0 97.0,295.0 0.0,295.0 0.0,383.0 125.0,383.0 179.0,335.0 181.0,276.0 133.0,254.0" fill="#966656" />
<polygon points="0.0,0.0 0.0,119.0 55.0,126.0 50.0,162.0 106.0,120.0 229.0,132.0 302.0,227.0 260.0,235.0 270.0,274.0 383.0,243.0 383.0,176.0 290.0,110.0 335.0,90.0" fill="#966656" opacity="0.95" />
<polygon points="208.0,138.0 131.0,179.0 170.0,230.0 258.0,191.0" fill="#5ff2fa" />
<polygon points="0.0,0.0 0.0,119.0 72.0,164.0 124.0,117.0 132.0,151.0 251.0,141.0 302.0,226.0 272.0,275.0 383.0,243.0 383.0,176.0 290.0,110.0 335.0,90.0" fill="#966656" opacity="0.95" />
<polygon points="189.0,0.0 177.0,30.0 222.0,74.0 348.0,84.0 383.0,162.0 383.0,98.0 349.0,59.0 227.0,0.0" fill="#c49d8b" />
<polygon points="383.0,286.0 278.0,328.0 202.0,383.0 271.0,374.0 323.0,383.0 383.0,323.0" fill="#c49d8b" />
<polygon points="125.0,118.0 72.0,172.0 87.0,201.0 0.0,212.0 0.0,279.0 98.0,275.0 52.0,223.0 129.0,191.0" fill="#c49d8b" />
<polygon points="132.0,197.0 94.0,227.0 99.0,293.0 0.0,295.0 0.0,383.0 126.0,383.0 179.0,335.0 181.0,276.0 133.0,254.0" fill="#966656" opacity="0.95" />
<polygon points="246.0,206.0 240.0,220.0 183.0,245.0 209.0,304.0 266.0,272.0" fill="#4a403e" />
<polygon points="295.0,0.0 301.0,30.0 349.0,52.0 383.0,87.0 383.0,0.0" fill="#201f24" />
<polygon points="201.0,26.0 215.0,7.0 327.0,52.0 343.0,69.0 253.0,60.0" fill="#c49d8b" />
<polygon points="208.0,138.0 131.0,179.0 171.0,230.0 257.0,193.0" fill="#5ff2fa" opacity="0.95" />
<polygon points="131.0,197.0 94.0,228.0 87.0,302.0 0.0,295.0 0.0,383.0 126.0,383.0 179.0,335.0 181.0,276.0 133.0,254.0" fill="#966656" opacity="0.95" />
<polygon points="105.0,0.0 241.0,91.0 334.0,88.0 291.0,110.0 383.0,175.0 341.0,80.0 241.0,83.0 176.0,30.0 188.0,0.0" fill="#c78772" />
<polygon points="154.0,383.0 334.0,279.0 271.0,287.0 206.0,326.0 188.0,271.0 196.0,320.0 150.0,366.0" fill="#0a0506" />
<polygon points="202.0,26.0 253.0,59.0 342.0,69.0 327.0,53.0 215.0,8.0" fill="#e1c6b8" />
<polygon points="383.0,286.0 278.0,328.0 202.0,383.0 322.0,383.0 383.0,323.0" fill="#c49d8b" opacity="0.95" />
<polygon points="127.0,119.0 72.0,172.0 88.0,199.0 0.0,213.0 0.0,279.0 93.0,281.0 53.0,222.0 128.0,193.0" fill="#c49d8b" opacity="0.95" />
<polygon points="189.0,0.0 177.0,30.0 222.0,74.0 348.0,84.0 383.0,162.0 383.0,98.0 349.0,59.0 228.0,0.0" fill="#c49d8b" opacity="0.95" />
<polygon points="383.0,244.0 199.0,292.0 206.0,325.0 335.0,281.0 171.0,383.0 383.0,276.0" fill="#572e23" />
<polygon points="0.0,173.0 5.0,213.0 84.0,197.0 54.0,224.0 99.0,258.0 93.0,227.0 122.0,201.0 95.0,211.0 71.0,174.0 97.0,147.0" fill="#c78772" />
<polygon points="208.0,138.0 131.0,179.0 171.0,230.0 257.0,193.0" fill="#5ff2fa" opacity="0.95" />
<polygon points="247.0,213.0 184.0,243.0 210.0,304.0 266.0,272.0" fill="#4a403e" opacity="0.95" />
<polygon points="369.0,305.0 282.0,341.0 270.0,355.0 290.0,366.0 310.0,362.0 349.0,335.0" fill="#e1c6b8" />
<polygon points="383.0,286.0 278.0,328.0 202.0,383.0 271.0,374.0 323.0,383.0 383.0,323.0" fill="#c49d8b" opacity="0.95" />
<polygon points="370.0,305.0 349.0,336.0 308.0,364.0 285.0,366.0 269.0,355.0 288.0,337.0 364.0,301.0" fill="#c49d8b" />
<polygon points="295.0,0.0 301.0,30.0 349.0,52.0 383.0,87.0 383.0,0.0" fill="#201f24" opacity="0.95" />
<polygon points="105.0,0.0 241.0,91.0 335.0,89.0 291.0,110.0 383.0,175.0 344.0,82.0 241.0,83.0 177.0,32.0 188.0,0.0" fill="#c78772" opacity="0.95" />
<polygon points="201.0,26.0 214.0,8.0 327.0,52.0 343.0,69.0 253.0,60.0" fill="#c49d8b" opacity="0.95" />
<polygon points="247.0,214.0 184.0,243.0 210.0,304.0 266.0,272.0" fill="#4a403e" opacity="0.95" />
<polygon points="334.0,279.0 271.0,287.0 207.0,325.0 196.0,306.0 190.0,331.0 150.0,366.0 154.0,383.0" fill="#0a0506" opacity="0.95" />
<polygon points="133.0,194.0 134.0,254.0 173.0,267.0 188.0,300.0 182.0,332.0 145.0,373.0 189.0,331.0 195.0,302.0 169.0,231.0" fill="#572e23" />
<polygon points="15.0,38.0 27.0,25.0 42.0,22.0 70.0,58.0 60.0,68.0 28.0,69.0 17.0,55.0" fill="#966656" />
<polygon points="202.0,26.0 253.0,59.0 342.0,69.0 327.0,53.0 214.0,9.0" fill="#e1c6b8" opacity="0.95" />
<polygon points="16.0,38.0 19.0,57.0 32.0,67.0 52.0,69.0 69.0,58.0 42.0,23.0 27.0,26.0" fill="#572e23" />
<polygon points="133.0,197.0 134.0,254.0 182.0,276.0 182.0,337.0 198.0,304.0 207.0,324.0 331.0,276.0 295.0,311.0 383.0,276.0 364.0,246.0 210.0,305.0" fill="#572e23" opacity="0.95" />
<polygon points="334.0,279.0 271.0,287.0 207.0,325.0 197.0,317.0 150.0,366.0 154.0,383.0" fill="#0a0506" opacity="0.95" />
<polygon points="295.0,0.0 301.0,30.0 349.0,52.0 383.0,87.0 383.0,0.0" fill="#201f24" opacity="0.95" />
<polygon points="202.0,26.0 253.0,59.0 341.0,67.0 227.0,9.0 214.0,9.0" fill="#e1c6b8" opacity="0.95" />
<polygon points="249.0,141.0 252.0,171.0 280.0,194.0 259.0,213.0 249.0,210.0 269.0,242.0 282.0,247.0 299.0,227.0 293.0,202.0 257.0,168.0 259.0,151.0" fill="#c78772" />
<polygon points="87.0,182.0 75.0,185.0 61.0,160.0 40.0,160.0 37.0,176.0 0.0,173.0 0.0,210.0 62.0,209.0 89.0,196.0 72.0,192.0" fill="#c78772" opacity="0.95" />
<polygon points="191.0,149.0 170.0,138.0 130.0,154.0 133.0,169.0 128.0,175.0" fill="#e1c6b8" />
<polygon points="105.0,0.0 241.0,91.0 335.0,89.0 325.0,115.0 291.0,110.0 383.0,175.0 344.0,82.0 241.0,83.0 176.0,30.0 188.0,0.0" fill="#c78772" opacity="0.95" />
<polygon points="132.0,204.0 134.0,254.0 184.0,277.0 186.0,333.0 274.0,285.0 331.0,276.0 312.0,303.0 383.0,276.0 377.0,244.0 198.0,303.0" fill="#572e23" opacity="0.95" />
<polygon points="369.0,305.0 282.0,341.0 271.0,355.0 290.0,366.0 310.0,362.0 349.0,335.0" fill="#e1c6b8" opacity="0.95" />
<polygon points="15.0,38.0 27.0,25.0 42.0,22.0 70.0,58.0 60.0,68.0 28.0,69.0 17.0,55.0" fill="#966656" opacity="0.95" />
<polygon points="249.0,202.0 174.0,237.0 217.0,222.0" fill="#035a63" />
<polygon points="244.0,209.0 178.0,240.0 169.0,233.0 197.0,289.0 183.0,243.0" fill="#201f24" />
<polygon points="16.0,38.0 19.0,57.0 32.0,67.0 52.0,69.0 69.0,58.0 42.0,23.0 27.0,26.0" fill="#572e23" opacity="0.95" />
<polygon points="0.0,209.0 18.0,211.0 39.0,195.0 41.0,210.0 67.0,205.0 85.0,185.0 47.0,161.0 31.0,177.0 17.0,158.0 15.0,171.0 0.0,173.0" fill="#c78772" opacity="0.95" />
<polygon points="383.0,324.0 369.0,328.0 363.0,354.0 326.0,383.0 361.0,380.0 370.0,369.0 376.0,343.0 383.0,342.0" fill="#c78772" />
<polygon points="100.0,277.0 90.0,270.0 94.0,281.0 82.0,277.0 82.0,286.0 49.0,277.0 48.0,286.0 8.0,274.0 17.0,282.0 0.0,280.0 0.0,294.0 97.0,294.0" fill="#c78772" />
<polygon points="369.0,305.0 282.0,341.0 272.0,354.0 290.0,366.0 310.0,362.0 349.0,335.0" fill="#e1c6b8" opacity="0.95" />
<polygon points="257.0,150.0 250.0,167.0 279.0,200.0 251.0,214.0 269.0,242.0 282.0,247.0 299.0,224.0 283.0,187.0 257.0,168.0" fill="#c78772" opacity="0.95" />
<polygon points="15.0,38.0 27.0,25.0 42.0,22.0 70.0,58.0 60.0,68.0 28.0,69.0 17.0,55.0" fill="#966656" opacity="0.95" />
<polygon points="190.0,148.0 170.0,138.0 131.0,156.0 130.0,166.0 136.0,171.0" fill="#e1c6b8" opacity="0.95" />
<polygon points="16.0,38.0 19.0,57.0 32.0,67.0 52.0,69.0 69.0,58.0 42.0,23.0 27.0,26.0" fill="#572e23" opacity="0.95" />
<polygon points="383.0,343.0 377.0,343.0 371.0,361.0 371.0,370.0 357.0,383.0 383.0,383.0" fill="#966656" />
<polygon points="182.0,154.0 198.0,150.0 208.0,137.0 259.0,188.0 253.0,174.0 212.0,131.0 202.0,133.0 196.0,148.0" fill="#a2f3f7" />
<polygon points="188.0,147.0 170.0,138.0 133.0,155.0 130.0,165.0 136.0,171.0 185.0,152.0" fill="#e1c6b8" opacity="0.95" />
<polygon points="245.0,211.0 173.0,241.0 185.0,268.0 193.0,271.0 185.0,241.0" fill="#201f24" opacity="0.95" />
<polygon points="245.0,204.0 174.0,237.0 217.0,222.0" fill="#035a63" opacity="0.95" />
<polygon points="284.0,0.0 287.0,18.0 292.0,22.0 290.0,26.0 299.0,31.0 296.0,25.0 294.0,0.0" fill="#4a403e" />
<polygon points="200.0,135.0 197.0,145.0 206.0,137.0 216.0,141.0 259.0,188.0 253.0,174.0 216.0,133.0" fill="#a2f3f7" opacity="0.95" />
<polygon points="340.0,48.0 383.0,92.0 383.0,88.0 365.0,67.0" fill="#4a403e" />
<polygon points="235.0,210.0 179.0,230.0 174.0,237.0 204.0,228.0" fill="#035a63" opacity="0.95" />
<polygon points="24.0,257.0 24.0,261.0 31.0,266.0 39.0,265.0 48.0,270.0 52.0,266.0 46.0,259.0 43.0,263.0 38.0,259.0 41.0,255.0 38.0,251.0 34.0,250.0 32.0,256.0" fill="#e1c6b8" />
<polygon points="149.0,376.0 146.0,373.0 145.0,374.0 138.0,373.0 134.0,377.0 128.0,380.0 126.0,383.0 149.0,383.0" fill="#4a403e" />
<polygon points="244.0,213.0 240.0,211.0 206.0,230.0 209.0,232.0 232.0,223.0" fill="#201f24" opacity="0.95" />
<polygon points="284.0,0.0 287.0,19.0 292.0,22.0 291.0,27.0 295.0,29.0 297.0,28.0 294.0,0.0" fill="#4a403e" opacity="0.95" />
<polygon points="200.0,135.0 203.0,139.0 208.0,137.0 216.0,141.0 234.0,161.0 239.0,160.0 216.0,133.0 206.0,131.0" fill="#a2f3f7" opacity="0.95" />
<polygon points="149.0,376.0 146.0,373.0 145.0,374.0 139.0,373.0 128.0,380.0 127.0,383.0 149.0,383.0" fill="#4a403e" opacity="0.95" />
<polygon points="179.0,239.0 174.0,244.0 184.0,266.0 188.0,269.0 191.0,265.0 185.0,255.0 183.0,241.0" fill="#201f24" opacity="0.95" />
<polygon points="284.0,0.0 286.0,15.0 289.0,19.0 293.0,21.0 296.0,19.0 295.0,2.0 294.0,0.0" fill="#4a403e" opacity="0.95" />
<polygon points="149.0,376.0 146.0,374.0 139.0,373.0 128.0,380.0 127.0,383.0 149.0,383.0" fill="#4a403e" opacity="0.95" />
<polygon points="149.0,369.0 148.0,370.0 148.0,372.0 150.0,376.0 150.0,383.0 153.0,383.0 152.0,373.0" fill="#201f24" />
<polygon points="147.0,368.0 145.0,367.0 143.0,368.0 141.0,370.0 140.0,370.0 140.0,372.0 142.0,373.0 145.0,373.0 147.0,372.0" fill="#572e23" opacity="0.95" />
</svg>