<svg xmlns="http://www.w3.org/2000/svg" width="768" height="768" viewBox="0 0 384 384">
<rect width="384" height="384" fill="#947b72"/>
<polygon points="379.0,81.0 360.0,84.0 276.0,207.0 198.0,269.0 195.0,290.0 215.0,294.0 207.0,383.0 383.0,383.0" fill="#9e8e88" />
<polygon points="0.0,130.0 0.0,383.0 198.0,383.0 154.0,379.0 156.0,294.0 181.0,291.0 180.0,271.0 110.0,219.0 40.0,110.0" fill="#9e8e88" />
<polygon points="379.0,81.0 360.0,84.0 276.0,207.0 198.0,269.0 195.0,290.0 215.0,294.0 210.0,383.0 383.0,383.0" fill="#9e8e88" opacity="0.95" />
<polygon points="33.0,109.0 0.0,130.0 0.0,383.0 159.0,383.0 153.0,308.0 181.0,273.0 110.0,219.0" fill="#9e8e88" opacity="0.95" />
<polygon points="304.0,0.0 251.0,0.0 204.0,25.0 205.0,140.0 234.0,124.0 234.0,150.0 256.0,146.0 317.0,63.0" fill="#b38e70" />
<polygon points="284.0,139.0 193.0,160.0 103.0,150.0 152.0,213.0 190.0,234.0 243.0,200.0" fill="#9e8e88" />
<polygon points="33.0,109.0 0.0,130.0 0.0,383.0 158.0,383.0 153.0,308.0 181.0,273.0 110.0,219.0" fill="#9e8e88" opacity="0.95" />
<polygon points="91.0,0.0 89.0,77.0 122.0,151.0 236.0,148.0 234.0,125.0 203.0,139.0 197.0,40.0 250.0,0.0 174.0,10.0 157.0,104.0" fill="#a1795c" />
<polygon points="379.0,81.0 346.0,73.0 356.0,93.0 303.0,175.0 198.0,269.0 196.0,289.0 215.0,294.0 211.0,383.0 383.0,383.0" fill="#9e8e88" opacity="0.95" />
<polygon points="335.0,53.0 213.0,226.0 168.0,226.0 115.0,174.0 184.0,287.0 306.0,161.0" fill="#ad4b5d" />
<polygon points="159.0,292.0 156.0,379.0 210.0,381.0 214.0,294.0" fill="#03414d" />
<polygon points="304.0,0.0 251.0,0.0 204.0,25.0 208.0,139.0 233.0,124.0 238.0,149.0 254.0,146.0 317.0,63.0" fill="#b38e70" opacity="0.95" />
<polygon points="47.0,48.0 45.0,88.0 84.0,167.0 169.0,259.0 134.0,227.0" fill="#7c2c2a" />
<polygon points="312.0,0.0 331.0,42.0 383.0,68.0 383.0,0.0" fill="#1b0e0a" />
<polygon points="283.0,140.0 193.0,160.0 104.0,152.0 152.0,213.0 190.0,234.0 243.0,200.0" fill="#9e8e88" opacity="0.95" />
<polygon points="91.0,0.0 89.0,77.0 122.0,151.0 236.0,148.0 233.0,125.0 203.0,139.0 197.0,40.0 250.0,0.0 174.0,10.0 156.0,104.0" fill="#a1795c" opacity="0.95" />
<polygon points="0.0,0.0 0.0,78.0 24.0,69.0 47.0,47.0 55.0,58.0 54.0,40.0 67.0,0.0" fill="#1b0e0a" />
<polygon points="68.0,0.0 55.0,40.0 99.0,145.0 119.0,147.0 88.0,77.0 90.0,0.0" fill="#744f39" />
<polygon points="109.0,0.0 143.0,89.0 157.0,103.0 157.0,79.0 170.0,59.0 169.0,16.0 188.0,0.0" fill="#744f39" />
<polygon points="304.0,0.0 251.0,0.0 204.0,25.0 209.0,139.0 232.0,125.0 238.0,147.0 251.0,147.0 317.0,63.0" fill="#b38e70" opacity="0.95" />
<polygon points="337.0,56.0 221.0,221.0 188.0,235.0 131.0,197.0 183.0,286.0 292.0,182.0 333.0,112.0" fill="#ad4b5d" opacity="0.95" />
<polygon points="283.0,141.0 193.0,160.0 105.0,154.0 152.0,213.0 190.0,234.0 232.0,211.0" fill="#9e8e88" opacity="0.95" />
<polygon points="158.0,293.0 156.0,379.0 208.0,383.0 213.0,368.0 214.0,294.0" fill="#03414d" opacity="0.95" />
<polygon points="91.0,0.0 89.0,77.0 122.0,150.0 236.0,148.0 232.0,126.0 204.0,138.0 197.0,40.0 250.0,0.0 174.0,10.0 156.0,104.0" fill="#a1795c" opacity="0.95" />
<polygon points="338.0,59.0 221.0,221.0 188.0,235.0 136.0,205.0 184.0,285.0 292.0,182.0" fill="#ad4b5d" opacity="0.95" />
<polygon points="47.0,49.0 53.0,109.0 134.0,232.0 136.0,208.0" fill="#7c2c2a" opacity="0.95" />
<polygon points="0.0,80.0 0.0,129.0 40.0,109.0 106.0,213.0 165.0,262.0 107.0,207.0 36.0,66.0" fill="#736059" />
<polygon points="312.0,0.0 330.0,41.0 383.0,68.0 383.0,0.0" fill="#1b0e0a" opacity="0.95" />
<polygon points="67.0,0.0 0.0,0.0 0.0,78.0 25.0,68.0 45.0,49.0 54.0,49.0" fill="#1b0e0a" opacity="0.95" />
<polygon points="109.0,0.0 144.0,91.0 156.0,103.0 171.0,50.0 169.0,16.0 188.0,0.0" fill="#744f39" opacity="0.95" />
<polygon points="158.0,293.0 156.0,378.0 162.0,383.0 208.0,383.0 213.0,368.0 214.0,294.0" fill="#03414d" opacity="0.95" />
<polygon points="68.0,0.0 59.0,61.0 99.0,144.0 117.0,147.0 88.0,77.0 90.0,0.0" fill="#744f39" opacity="0.95" />
<polygon points="67.0,0.0 0.0,0.0 0.0,78.0 54.0,47.0" fill="#1b0e0a" opacity="0.95" />
<polygon points="47.0,49.0 53.0,109.0 130.0,228.0 136.0,208.0" fill="#7c2c2a" opacity="0.95" />
<polygon points="310.0,0.0 318.0,63.0 257.0,143.0 289.0,136.0 325.0,58.0" fill="#a1795c" />
<polygon points="312.0,0.0 322.0,27.0 340.0,50.0 383.0,68.0 383.0,0.0" fill="#1b0e0a" opacity="0.95" />
<polygon points="68.0,0.0 59.0,61.0 97.0,141.0 116.0,147.0 88.0,77.0 90.0,0.0" fill="#744f39" opacity="0.95" />
<polygon points="0.0,80.0 0.0,129.0 41.0,110.0 122.0,226.0 44.0,103.0 36.0,66.0" fill="#736059" opacity="0.95" />
<polygon points="109.0,0.0 144.0,91.0 156.0,103.0 157.0,78.0 171.0,50.0 169.0,16.0 188.0,0.0" fill="#744f39" opacity="0.95" />
<polygon points="333.0,43.0 299.0,126.0 338.0,50.0" fill="#7c2c2a" />
<polygon points="36.0,67.0 0.0,80.0 0.0,129.0 34.0,107.0 53.0,118.0 42.0,99.0" fill="#736059" opacity="0.95" />
<polygon points="310.0,0.0 318.0,63.0 261.0,143.0 288.0,137.0 325.0,58.0" fill="#a1795c" opacity="0.95" />
<polygon points="383.0,69.0 345.0,54.0 344.0,71.0 356.0,71.0 358.0,77.0 337.0,107.0 342.0,109.0 365.0,79.0 383.0,85.0" fill="#736059" />
<polygon points="313.0,10.0 327.0,57.0 287.0,131.0 298.0,128.0 329.0,53.0" fill="#744f39" />
<polygon points="323.0,134.0 277.0,204.0 309.0,165.0" fill="#736059" />
<polygon points="317.0,71.0 262.0,142.0 284.0,136.0" fill="#a1795c" opacity="0.95" />
<polygon points="295.0,130.0 284.0,132.0 290.0,136.0 250.0,194.0" fill="#736059" />
<polygon points="257.0,42.0 260.0,45.0 262.0,69.0 255.0,76.0 250.0,68.0 250.0,58.0 252.0,56.0 252.0,45.0" fill="#b38e70" />
<polygon points="383.0,69.0 344.0,55.0 344.0,68.0 358.0,77.0 337.0,107.0 343.0,108.0 365.0,79.0 383.0,85.0" fill="#736059" opacity="0.95" />
<polygon points="257.0,43.0 253.0,45.0 253.0,58.0 251.0,61.0 251.0,68.0 255.0,75.0 261.0,69.0 261.0,57.0" fill="#a1795c" />
<polygon points="348.0,69.0 342.0,93.0 343.0,97.0 357.0,77.0 356.0,72.0 351.0,72.0" fill="#9e8e88" />
<polygon points="330.0,56.0 305.0,116.0 328.0,74.0" fill="#7c2c2a" opacity="0.95" />
<polygon points="44.0,88.0 43.0,99.0 64.0,134.0" fill="#744f39" />
<polygon points="255.0,43.0 260.0,45.0 262.0,69.0 256.0,76.0 250.0,68.0 251.0,48.0" fill="#b38e70" opacity="0.95" />
<polygon points="67.0,147.0 83.0,181.0 98.0,196.0 74.0,151.0" fill="#736059" opacity="0.95" />
<polygon points="309.0,12.0 306.0,14.0 307.0,28.0 321.0,62.0 325.0,58.0 326.0,46.0" fill="#a1795c" opacity="0.95" />
<polygon points="344.0,57.0 344.0,67.0 356.0,72.0 358.0,81.0 372.0,78.0 383.0,83.0 383.0,69.0 373.0,69.0 349.0,55.0" fill="#736059" opacity="0.95" />
<polygon points="307.0,102.0 303.0,102.0 287.0,130.0 297.0,128.0 297.0,122.0" fill="#744f39" opacity="0.95" />
<polygon points="257.0,44.0 253.0,45.0 253.0,58.0 251.0,61.0 252.0,71.0 256.0,75.0 261.0,69.0 261.0,57.0 259.0,45.0" fill="#a1795c" opacity="0.95" />
<polygon points="39.0,61.0 35.0,59.0 21.0,71.0 27.0,74.0 29.0,68.0 33.0,64.0 37.0,66.0 39.0,71.0" fill="#744f39" />
<polygon points="256.0,43.0 260.0,46.0 262.0,57.0 262.0,69.0 256.0,76.0 252.0,73.0 250.0,68.0 250.0,58.0 252.0,56.0 251.0,48.0" fill="#b38e70" opacity="0.95" />
<polygon points="256.0,44.0 253.0,46.0 253.0,58.0 251.0,61.0 252.0,71.0 256.0,75.0 261.0,69.0 259.0,46.0" fill="#a1795c" opacity="0.95" />
<polygon points="354.0,90.0 350.0,90.0 343.0,98.0 339.0,100.0 337.0,104.0 339.0,108.0 341.0,109.0 347.0,104.0 355.0,93.0" fill="#736059" opacity="0.95" />
<polygon points="332.0,43.0 330.0,44.0 330.0,49.0 335.0,52.0 337.0,51.0 337.0,48.0 336.0,46.0" fill="#7c2c2a" opacity="0.95" />
<polygon points="184.0,290.0 185.0,291.0 192.0,291.0 193.0,290.0 192.0,289.0 185.0,289.0" fill="#1b0e0a" />
<polygon points="317.0,87.0 314.0,89.0 310.0,97.0 310.0,99.0 313.0,101.0 316.0,99.0 320.0,91.0 320.0,89.0" fill="#7c2c2a" opacity="0.95" />
<polygon points="333.0,44.0 330.0,46.0 330.0,49.0 333.0,51.0 336.0,49.0 336.0,46.0" fill="#7c2c2a" opacity="0.95" />
<polygon points="325.0,70.0 322.0,72.0 322.0,74.0 325.0,76.0 328.0,74.0 328.0,72.0" fill="#7c2c2a" opacity="0.95" />
</svg>