<svg xmlns="http://www.w3.org/2000/svg" width="768" height="768" viewBox="0 0 384 384">
<rect width="384" height="384" fill="#8f6a61"/>
<polygon points="242.0,0.0 233.0,93.0 276.0,125.0 305.0,191.0 247.0,264.0 233.0,383.0 383.0,383.0 383.0,58.0 310.0,0.0" fill="#96695b" />
<polygon points="0.0,0.0 0.0,180.0 74.0,209.0 72.0,237.0 100.0,225.0 91.0,279.0 0.0,343.0 0.0,383.0 169.0,383.0 166.0,232.0 121.0,177.0 169.0,0.0" fill="#96695b" />
<polygon points="0.0,0.0 0.0,180.0 100.0,225.0 88.0,283.0 0.0,343.0 0.0,383.0 169.0,383.0 160.0,226.0 122.0,179.0 169.0,0.0" fill="#96695b" opacity="0.95" />
<polygon points="242.0,0.0 234.0,96.0 276.0,125.0 305.0,191.0 247.0,264.0 233.0,383.0 383.0,383.0 383.0,58.0 311.0,0.0" fill="#96695b" opacity="0.95" />
<polygon points="185.0,107.0 145.0,136.0 135.0,176.0 156.0,216.0 201.0,227.0 240.0,206.0 254.0,158.0 230.0,118.0" fill="#71cad1" />
<polygon points="0.0,0.0 0.0,182.0 100.0,225.0 91.0,279.0 0.0,343.0 0.0,383.0 169.0,383.0 164.0,247.0 122.0,179.0 169.0,0.0" fill="#96695b" opacity="0.95" />
<polygon points="242.0,0.0 234.0,95.0 276.0,125.0 305.0,191.0 247.0,264.0 233.0,383.0 383.0,383.0 383.0,58.0 311.0,0.0" fill="#96695b" opacity="0.95" />
<polygon points="0.0,181.0 4.0,344.0 90.0,279.0 99.0,225.0 82.0,221.0 72.0,239.0 74.0,210.0 47.0,216.0" fill="#df998a" />
<polygon points="172.0,0.0 162.0,97.0 223.0,97.0 216.0,0.0" fill="#fc011c" />
<polygon points="185.0,107.0 145.0,136.0 135.0,176.0 156.0,216.0 201.0,227.0 240.0,206.0 254.0,158.0 230.0,118.0" fill="#71cad1" opacity="0.95" />
<polygon points="0.0,181.0 4.0,343.0 87.0,283.0 99.0,225.0 72.0,239.0 75.0,211.0 48.0,216.0" fill="#df998a" opacity="0.95" />
<polygon points="166.0,246.0 173.0,383.0 184.0,383.0 192.0,372.0 196.0,383.0 204.0,383.0 215.0,257.0 209.0,251.0 174.0,254.0" fill="#111c32" />
<polygon points="185.0,107.0 145.0,136.0 135.0,176.0 156.0,216.0 201.0,227.0 240.0,206.0 254.0,158.0 230.0,118.0" fill="#71cad1" opacity="0.95" />
<polygon points="260.0,139.0 271.0,166.0 223.0,254.0 215.0,383.0 237.0,255.0 288.0,187.0" fill="#482820" />
<polygon points="239.0,98.0 289.0,187.0 237.0,258.0 225.0,383.0 246.0,264.0 304.0,191.0 275.0,125.0" fill="#654236" />
<polygon points="172.0,0.0 162.0,97.0 224.0,96.0 216.0,0.0" fill="#fc011c" opacity="0.95" />
<polygon points="0.0,183.0 3.0,343.0 90.0,279.0 99.0,225.0 82.0,224.0 75.0,238.0 74.0,211.0 48.0,216.0" fill="#df998a" opacity="0.95" />
<polygon points="172.0,0.0 162.0,96.0 224.0,96.0 216.0,0.0" fill="#fc011c" opacity="0.95" />
<polygon points="170.0,251.0 173.0,383.0 184.0,383.0 192.0,372.0 196.0,383.0 204.0,383.0 215.0,257.0" fill="#111c32" opacity="0.95" />
<polygon points="273.0,163.0 223.0,254.0 215.0,383.0 225.0,380.0 237.0,255.0 288.0,187.0" fill="#482820" opacity="0.95" />
<polygon points="239.0,98.0 289.0,187.0 237.0,258.0 225.0,383.0 246.0,264.0 304.0,191.0 275.0,125.0" fill="#654236" opacity="0.95" />
<polygon points="311.0,0.0 317.0,9.0 332.0,10.0 354.0,30.0 368.0,34.0 377.0,54.0 383.0,57.0 383.0,0.0" fill="#654236" />
<polygon points="209.0,251.0 169.0,255.0 173.0,383.0 184.0,383.0 191.0,372.0 196.0,383.0 204.0,383.0 215.0,262.0" fill="#111c32" opacity="0.95" />
<polygon points="161.0,239.0 174.0,253.0 209.0,250.0 216.0,257.0 209.0,383.0 220.0,237.0" fill="#080f24" />
<polygon points="273.0,165.0 223.0,254.0 215.0,383.0 225.0,380.0 237.0,255.0 288.0,187.0" fill="#482820" opacity="0.95" />
<polygon points="239.0,98.0 289.0,187.0 237.0,258.0 225.0,383.0 246.0,264.0 304.0,191.0 275.0,125.0" fill="#654236" opacity="0.95" />
<polygon points="245.0,140.0 198.0,172.0 156.0,143.0 190.0,161.0 195.0,137.0 198.0,160.0 240.0,136.0" fill="#71cad1" />
<polygon points="219.0,0.0 226.0,91.0 230.0,87.0 229.0,0.0" fill="#482820" />
<polygon points="252.0,191.0 217.0,224.0 198.0,229.0 161.0,224.0 185.0,236.0 224.0,236.0" fill="#08060d" />
<polygon points="241.0,0.0 230.0,0.0 231.0,91.0 236.0,89.0 237.0,16.0" fill="#654236" />
<polygon points="224.0,240.0 218.0,243.0 210.0,383.0" fill="#08060d" />
<polygon points="312.0,0.0 315.0,8.0 332.0,10.0 353.0,29.0 368.0,34.0 378.0,56.0 383.0,57.0 383.0,0.0" fill="#654236" opacity="0.95" />
<polygon points="166.0,250.0 172.0,383.0 172.0,298.0" fill="#26364e" />
<polygon points="243.0,138.0 197.0,172.0 184.0,163.0" fill="#71cad1" opacity="0.95" />
<polygon points="242.0,139.0 197.0,162.0 157.0,142.0 194.0,170.0" fill="#08060d" />
<polygon points="312.0,0.0 316.0,8.0 332.0,10.0 354.0,29.0 368.0,34.0 383.0,57.0 383.0,0.0" fill="#654236" opacity="0.95" />
<polygon points="249.0,202.0 208.0,227.0 162.0,225.0 185.0,236.0 221.0,236.0" fill="#08060d" opacity="0.95" />
<polygon points="164.0,236.0 168.0,247.0 175.0,253.0 209.0,250.0 219.0,256.0 217.0,237.0" fill="#080f24" opacity="0.95" />
<polygon points="219.0,0.0 224.0,86.0 227.0,90.0 230.0,87.0 229.0,0.0" fill="#482820" opacity="0.95" />
<polygon points="241.0,0.0 230.0,0.0 232.0,91.0 236.0,89.0 237.0,16.0" fill="#654236" opacity="0.95" />
<polygon points="173.0,109.0 150.0,124.0 133.0,151.0 132.0,179.0 140.0,198.0 135.0,157.0 144.0,136.0" fill="#56a0ac" />
<polygon points="165.0,237.0 168.0,247.0 175.0,253.0 219.0,252.0 216.0,237.0 174.0,234.0" fill="#080f24" opacity="0.95" />
<polygon points="219.0,0.0 224.0,86.0 227.0,88.0 230.0,86.0 229.0,0.0" fill="#482820" opacity="0.95" />
<polygon points="236.0,104.0 235.0,112.0 249.0,125.0 255.0,134.0 256.0,129.0 245.0,111.0" fill="#482820" />
<polygon points="144.0,121.0 133.0,138.0 127.0,157.0 129.0,182.0 130.0,152.0" fill="#bcb6b5" />
<polygon points="241.0,0.0 230.0,0.0 231.0,71.0 234.0,73.0 237.0,71.0 237.0,16.0" fill="#654236" opacity="0.95" />
<polygon points="220.0,27.0 219.0,50.0 222.0,84.0" fill="#bb070b" />
<polygon points="157.0,90.0 152.0,93.0 152.0,110.0 153.0,111.0 159.0,107.0 159.0,92.0" fill="#df998a" />
<polygon points="228.0,221.0 225.0,219.0 198.0,229.0 182.0,228.0 179.0,233.0 185.0,236.0 221.0,236.0 225.0,233.0" fill="#08060d" opacity="0.95" />
<polygon points="245.0,124.0 255.0,143.0 260.0,164.0 257.0,142.0" fill="#bcb6b5" />
<polygon points="162.0,264.0 160.0,271.0 163.0,290.0 165.0,292.0 165.0,265.0" fill="#df998a" />
<polygon points="227.0,92.0 226.0,93.0 226.0,104.0 225.0,106.0 232.0,111.0 233.0,110.0 233.0,94.0 231.0,92.0" fill="#df998a" />
<polygon points="197.0,156.0 206.0,160.0 202.0,168.0 197.0,172.0 190.0,170.0 187.0,165.0 189.0,161.0" fill="#71cad1" opacity="0.95" />
<polygon points="229.0,224.0 226.0,226.0 226.0,244.0 227.0,245.0 232.0,241.0 231.0,238.0 231.0,226.0" fill="#654236" />
<polygon points="132.0,192.0 131.0,194.0 140.0,208.0 150.0,218.0 155.0,218.0 139.0,204.0" fill="#08060d" />
<polygon points="235.0,105.0 235.0,112.0 250.0,127.0 254.0,127.0 245.0,111.0 239.0,105.0" fill="#482820" opacity="0.95" />
<polygon points="189.0,326.0 192.0,326.0 196.0,332.0 196.0,334.0 193.0,337.0 192.0,336.0 189.0,336.0 186.0,333.0 186.0,330.0" fill="#111c32" />
<polygon points="157.0,90.0 152.0,93.0 152.0,109.0 154.0,110.0 159.0,107.0 159.0,91.0" fill="#df998a" opacity="0.95" />
<polygon points="168.0,106.0 170.0,107.0 179.0,104.0 193.0,102.0 177.0,101.0" fill="#080f24" />
<polygon points="189.0,343.0 192.0,343.0 196.0,348.0 196.0,351.0 194.0,353.0 192.0,352.0 190.0,353.0 186.0,349.0 186.0,346.0" fill="#111c32" />
<polygon points="157.0,142.0 160.0,140.0 169.0,146.0 170.0,149.0 167.0,151.0 159.0,146.0 157.0,144.0" fill="#71cad1" opacity="0.95" />
<polygon points="189.0,358.0 192.0,358.0 194.0,360.0 194.0,363.0 196.0,365.0 196.0,367.0 194.0,369.0 192.0,368.0 189.0,369.0 185.0,365.0 186.0,361.0" fill="#111c32" />
<polygon points="191.0,309.0 196.0,315.0 196.0,317.0 194.0,319.0 193.0,318.0 192.0,319.0 189.0,319.0 187.0,317.0 187.0,312.0" fill="#111c32" />
<polygon points="228.0,92.0 226.0,93.0 226.0,107.0 231.0,110.0 233.0,109.0 233.0,94.0" fill="#df998a" opacity="0.95" />
<polygon points="161.0,109.0 160.0,108.0 157.0,109.0 147.0,117.0 150.0,118.0" fill="#486c7d" />
<polygon points="261.0,142.0 259.0,143.0 262.0,159.0 268.0,160.0 270.0,159.0 266.0,148.0" fill="#482820" opacity="0.95" />
<polygon points="227.0,111.0 236.0,117.0 243.0,124.0 244.0,123.0 243.0,120.0 237.0,115.0 228.0,110.0" fill="#56a0ac" />
<polygon points="155.0,91.0 152.0,93.0 152.0,107.0 156.0,109.0 159.0,107.0 159.0,93.0" fill="#df998a" opacity="0.95" />
<polygon points="186.0,346.0 191.0,343.0 196.0,348.0 196.0,351.0 191.0,353.0 186.0,350.0" fill="#111c32" opacity="0.95" />
<polygon points="186.0,361.0 190.0,358.0 193.0,359.0 196.0,367.0 193.0,369.0 187.0,368.0 185.0,365.0" fill="#111c32" opacity="0.95" />
<polygon points="229.0,92.0 226.0,94.0 226.0,107.0 230.0,109.0 233.0,107.0 233.0,94.0" fill="#df998a" opacity="0.95" />
<polygon points="246.0,207.0 243.0,205.0 241.0,206.0 233.0,214.0 233.0,217.0 236.0,219.0 239.0,218.0 245.0,211.0" fill="#08060d" opacity="0.95" />
<polygon points="192.0,161.0 189.0,163.0 189.0,167.0 191.0,169.0 194.0,170.0 197.0,168.0 197.0,162.0" fill="#08060d" opacity="0.95" />
<polygon points="236.0,106.0 235.0,112.0 246.0,121.0 248.0,120.0 249.0,117.0 245.0,111.0 238.0,105.0" fill="#482820" opacity="0.95" />
<polygon points="187.0,328.0 190.0,326.0 193.0,327.0 194.0,331.0 196.0,332.0 196.0,334.0 193.0,336.0 188.0,335.0 186.0,333.0" fill="#111c32" opacity="0.95" />
<polygon points="223.0,241.0 218.0,243.0 220.0,252.0 222.0,253.0 224.0,252.0 226.0,248.0 225.0,242.0" fill="#08060d" opacity="0.95" />
<polygon points="214.0,102.0 219.0,105.0 222.0,105.0 224.0,103.0 221.0,101.0 215.0,101.0" fill="#08060d" />
<polygon points="195.0,374.0 194.0,373.0 189.0,374.0 185.0,378.0 185.0,383.0 187.0,383.0 187.0,380.0 189.0,378.0 194.0,379.0 195.0,378.0" fill="#080f24" />
<polygon points="169.0,276.0 167.0,277.0 167.0,290.0 169.0,291.0 171.0,290.0 171.0,277.0" fill="#26364e" opacity="0.95" />
<polygon points="218.0,1.0 217.0,2.0 217.0,11.0 219.0,13.0 218.0,14.0 218.0,19.0 219.0,20.0 220.0,19.0 220.0,14.0 218.0,12.0 219.0,11.0 219.0,2.0" fill="#bb070b" />
<polygon points="192.0,359.0 189.0,359.0 187.0,361.0 186.0,363.0 186.0,365.0 187.0,366.0 191.0,361.0 192.0,362.0 193.0,361.0" fill="#080f24" />
<polygon points="170.0,297.0 169.0,298.0 168.0,298.0 168.0,305.0 169.0,305.0 170.0,306.0 171.0,305.0 172.0,305.0 172.0,298.0 171.0,298.0" fill="#26364e" opacity="0.95" />
<polygon points="188.0,375.0 188.0,377.0 190.0,378.0 192.0,378.0 193.0,379.0 195.0,378.0 195.0,374.0 193.0,373.0" fill="#080f24" opacity="0.95" />
<polygon points="209.0,379.0 208.0,379.0 207.0,378.0 206.0,379.0 205.0,379.0 205.0,383.0 209.0,383.0" fill="#080f24" opacity="0.95" />
</svg>