<svg xmlns="http://www.w3.org/2000/svg" width="768" height="768" viewBox="0 0 384 384">
<rect width="384" height="384" fill="#8a655e"/>
<polygon points="2.0,141.0 2.0,267.0 83.0,270.0 0.0,274.0 0.0,361.0 26.0,383.0 141.0,383.0 144.0,202.0 42.0,129.0" fill="#a07b6b" />
<polygon points="383.0,191.0 311.0,206.0 304.0,194.0 262.0,223.0 255.0,298.0 238.0,324.0 251.0,376.0 342.0,383.0 383.0,363.0" fill="#a07b6b" />
<polygon points="1.0,145.0 0.0,361.0 25.0,383.0 141.0,383.0 144.0,201.0 82.0,147.0" fill="#a07b6b" opacity="0.95" />
<polygon points="103.0,66.0 158.0,105.0 257.0,102.0 332.0,129.0 381.0,99.0 328.0,46.0 247.0,4.0 169.0,19.0" fill="#fe7171" />
<polygon points="0.0,31.0 47.0,41.0 0.0,59.0 6.0,144.0 51.0,126.0 136.0,191.0 199.0,134.0 225.0,168.0 229.0,101.0 158.0,106.0 102.0,67.0 162.0,14.0" fill="#624d47" />
<polygon points="383.0,108.0 332.0,130.0 242.0,103.0 251.0,203.0 213.0,383.0 273.0,383.0 240.0,373.0 253.0,221.0 383.0,190.0" fill="#624d47" />
<polygon points="0.0,146.0 0.0,361.0 25.0,383.0 141.0,383.0 154.0,295.0 143.0,202.0 82.0,147.0" fill="#a07b6b" opacity="0.95" />
<polygon points="383.0,191.0 303.0,197.0 262.0,223.0 238.0,324.0 246.0,370.0 342.0,383.0 383.0,363.0" fill="#a07b6b" opacity="0.95" />
<polygon points="10.0,29.0 48.0,41.0 0.0,63.0 5.0,143.0 241.0,175.0 213.0,383.0 272.0,383.0 260.0,222.0 383.0,190.0 383.0,108.0 159.0,106.0 104.0,66.0 159.0,17.0" fill="#624d47" opacity="0.95" />
<polygon points="104.0,65.0 159.0,105.0 257.0,102.0 332.0,129.0 383.0,98.0 246.0,4.0 169.0,19.0" fill="#fe7171" opacity="0.95" />
<polygon points="0.0,0.0 6.0,30.0 248.0,3.0 348.0,28.0 316.0,38.0 383.0,94.0 383.0,0.0" fill="#38363b" />
<polygon points="0.0,32.0 47.0,41.0 0.0,63.0 5.0,143.0 45.0,126.0 135.0,190.0 200.0,134.0 225.0,168.0 230.0,102.0 159.0,106.0 102.0,67.0 160.0,16.0" fill="#624d47" opacity="0.95" />
<polygon points="383.0,191.0 304.0,199.0 262.0,224.0 255.0,298.0 238.0,325.0 247.0,370.0 343.0,383.0 383.0,363.0" fill="#a07b6b" opacity="0.95" />
<polygon points="383.0,108.0 332.0,130.0 242.0,103.0 251.0,203.0 213.0,383.0 272.0,383.0 242.0,373.0 259.0,221.0 383.0,190.0" fill="#624d47" opacity="0.95" />
<polygon points="105.0,64.0 159.0,105.0 257.0,102.0 332.0,129.0 379.0,97.0 328.0,46.0 246.0,4.0 169.0,19.0" fill="#fe7171" opacity="0.95" />
<polygon points="162.0,209.0 174.0,255.0 189.0,233.0 184.0,292.0 155.0,298.0 170.0,383.0 210.0,383.0 216.0,287.0 195.0,280.0 191.0,240.0 215.0,261.0 236.0,211.0 188.0,229.0" fill="#122635" />
<polygon points="0.0,0.0 3.0,29.0 247.0,3.0 327.0,32.0 383.0,94.0 383.0,0.0" fill="#38363b" opacity="0.95" />
<polygon points="137.0,197.0 192.0,221.0 246.0,204.0 240.0,192.0 220.0,190.0 216.0,178.0 189.0,169.0 146.0,179.0" fill="#a2e5f0" />
<polygon points="0.0,0.0 4.0,29.0 246.0,3.0 324.0,32.0 383.0,95.0 383.0,0.0" fill="#38363b" opacity="0.95" />
<polygon points="189.0,241.0 181.0,292.0 156.0,298.0 170.0,383.0 210.0,383.0 216.0,287.0 195.0,280.0" fill="#122635" opacity="0.95" />
<polygon points="138.0,194.0 192.0,221.0 245.0,204.0 241.0,193.0 189.0,169.0 160.0,172.0" fill="#a2e5f0" opacity="0.95" />
<polygon points="187.0,257.0 180.0,291.0 156.0,298.0 170.0,383.0 210.0,383.0 216.0,287.0 195.0,279.0" fill="#122635" opacity="0.95" />
<polygon points="138.0,194.0 192.0,221.0 245.0,204.0 241.0,193.0 189.0,169.0 160.0,172.0" fill="#a2e5f0" opacity="0.95" />
<polygon points="145.0,203.0 143.0,217.0 150.0,221.0 141.0,228.0 157.0,269.0 157.0,294.0 158.0,269.0 168.0,252.0 160.0,235.0 160.0,209.0" fill="#624d47" />
<polygon points="0.0,49.0 7.0,61.0 35.0,50.0 46.0,41.0 42.0,38.0 3.0,38.0" fill="#38363b" />
<polygon points="161.0,211.0 162.0,237.0 175.0,255.0 184.0,228.0 215.0,245.0 211.0,262.0 232.0,243.0 234.0,210.0 190.0,224.0" fill="#122635" opacity="0.95" />
<polygon points="157.0,323.0 146.0,369.0 164.0,373.0 151.0,375.0 142.0,383.0 169.0,383.0" fill="#624d47" />
<polygon points="224.0,172.0 206.0,163.0 183.0,161.0 149.0,171.0 142.0,180.0 165.0,169.0 189.0,168.0 222.0,182.0" fill="#3cc3dc" />
<polygon points="161.0,212.0 162.0,237.0 174.0,254.0 185.0,227.0 215.0,245.0 213.0,262.0 232.0,243.0 233.0,210.0 191.0,224.0" fill="#122635" opacity="0.95" />
<polygon points="146.0,203.0 147.0,222.0 141.0,228.0 157.0,268.0 159.0,293.0 158.0,268.0 167.0,250.0 160.0,235.0 160.0,208.0" fill="#624d47" opacity="0.95" />
<polygon points="237.0,102.0 233.0,106.0 225.0,180.0 219.0,183.0 222.0,188.0 236.0,187.0 229.0,182.0" fill="#122635" />
<polygon points="156.0,325.0 147.0,368.0 152.0,375.0 142.0,383.0 169.0,383.0" fill="#624d47" opacity="0.95" />
<polygon points="0.0,54.0 7.0,61.0 37.0,49.0 45.0,40.0 4.0,38.0 0.0,40.0" fill="#38363b" opacity="0.95" />
<polygon points="143.0,176.0 189.0,168.0 224.0,180.0 223.0,171.0 193.0,161.0 167.0,164.0" fill="#3cc3dc" opacity="0.95" />
<polygon points="146.0,203.0 146.0,222.0 141.0,228.0 146.0,248.0 158.0,267.0 167.0,254.0 160.0,235.0 160.0,209.0" fill="#624d47" opacity="0.95" />
<polygon points="237.0,227.0 231.0,246.0 215.0,262.0 206.0,264.0 207.0,270.0 217.0,274.0 218.0,288.0 219.0,270.0 225.0,267.0 235.0,244.0" fill="#38363b" />
<polygon points="173.0,164.0 221.0,182.0 227.0,179.0 249.0,195.0 245.0,183.0 212.0,165.0" fill="#3cc3dc" opacity="0.95" />
<polygon points="0.0,55.0 7.0,61.0 39.0,47.0 44.0,40.0 5.0,38.0 0.0,41.0" fill="#38363b" opacity="0.95" />
<polygon points="231.0,173.0 230.0,182.0 237.0,185.0 235.0,189.0 240.0,191.0 246.0,202.0 249.0,203.0 248.0,186.0" fill="#3cc3dc" />
<polygon points="236.0,102.0 225.0,180.0 220.0,184.0 223.0,188.0 236.0,187.0 229.0,182.0" fill="#122635" opacity="0.95" />
<polygon points="163.0,266.0 162.0,293.0 176.0,293.0 173.0,279.0 176.0,276.0 178.0,280.0 182.0,279.0 183.0,275.0 177.0,276.0 184.0,270.0 168.0,278.0" fill="#f5e8dd" />
<polygon points="209.0,244.0 203.0,246.0 200.0,271.0 205.0,268.0 205.0,262.0 202.0,257.0 211.0,254.0" fill="#a07b6b" />
<polygon points="167.0,257.0 163.0,264.0 169.0,277.0 181.0,267.0 181.0,264.0 178.0,263.0 170.0,268.0 167.0,263.0" fill="#dabeac" />
<polygon points="201.0,136.0 198.0,138.0 195.0,159.0 196.0,161.0 199.0,160.0 202.0,140.0" fill="#f5e8dd" />
<polygon points="135.0,38.0 125.0,37.0 122.0,39.0 117.0,39.0 116.0,41.0 119.0,47.0 122.0,48.0" fill="#38363b" />
<polygon points="198.0,274.0 198.0,279.0 199.0,280.0 202.0,279.0 213.0,279.0 214.0,280.0 216.0,274.0 213.0,272.0 200.0,272.0" fill="#f5e8dd" />
<polygon points="231.0,250.0 227.0,250.0 215.0,262.0 206.0,264.0 206.0,269.0 214.0,270.0 217.0,275.0 221.0,275.0 221.0,269.0 225.0,267.0" fill="#38363b" opacity="0.95" />
<polygon points="230.0,175.0 230.0,182.0 237.0,185.0 236.0,190.0 243.0,194.0 245.0,200.0 249.0,200.0 248.0,186.0 235.0,175.0" fill="#3cc3dc" opacity="0.95" />
<polygon points="163.0,278.0 162.0,293.0 165.0,294.0 177.0,292.0 177.0,290.0 173.0,287.0 173.0,278.0" fill="#f5e8dd" opacity="0.95" />
<polygon points="383.0,99.0 381.0,101.0 369.0,101.0 365.0,104.0 367.0,106.0 379.0,106.0 380.0,107.0 383.0,107.0" fill="#38363b" />
<polygon points="198.0,273.0 198.0,279.0 200.0,280.0 215.0,278.0 215.0,273.0 213.0,272.0 200.0,272.0" fill="#f5e8dd" opacity="0.95" />
<polygon points="166.0,277.0 163.0,279.0 162.0,292.0 165.0,294.0 172.0,293.0 175.0,291.0 173.0,287.0 173.0,280.0" fill="#f5e8dd" opacity="0.95" />
<polygon points="38.0,269.0 44.0,266.0 48.0,268.0 49.0,271.0 43.0,274.0 39.0,272.0" fill="#a07b6b" opacity="0.95" />
<polygon points="164.0,264.0 166.0,273.0 169.0,276.0 181.0,267.0 179.0,263.0 172.0,268.0 169.0,267.0 168.0,264.0" fill="#dabeac" opacity="0.95" />
<polygon points="208.0,244.0 203.0,246.0 203.0,253.0 206.0,256.0 210.0,254.0 209.0,251.0 210.0,245.0" fill="#a07b6b" opacity="0.95" />
<polygon points="181.0,241.0 179.0,243.0 179.0,250.0 180.0,251.0 181.0,251.0 183.0,249.0 182.0,247.0 185.0,244.0" fill="#fe7171" />
<polygon points="188.0,223.0 191.0,225.0 191.0,227.0 188.0,229.0 185.0,227.0 185.0,225.0" fill="#122635" opacity="0.95" />
<polygon points="198.0,274.0 198.0,278.0 201.0,280.0 202.0,279.0 212.0,279.0 215.0,277.0 215.0,274.0 212.0,272.0 201.0,272.0" fill="#f5e8dd" opacity="0.95" />
<polygon points="202.0,259.0 200.0,260.0 200.0,270.0 202.0,271.0 204.0,270.0 205.0,268.0 205.0,262.0 204.0,260.0" fill="#a07b6b" opacity="0.95" />
<polygon points="188.0,220.0 187.0,221.0 187.0,224.0 186.0,225.0 186.0,226.0 188.0,228.0 189.0,228.0 190.0,227.0 190.0,222.0" fill="#3cc3dc" />
<polygon points="170.0,268.0 166.0,271.0 166.0,273.0 169.0,275.0 173.0,272.0 173.0,270.0" fill="#dabeac" opacity="0.95" />
<polygon points="199.0,144.0 197.0,145.0 198.0,151.0 196.0,152.0 196.0,155.0 198.0,156.0 200.0,155.0 199.0,149.0 201.0,148.0 201.0,145.0" fill="#f5e8dd" opacity="0.95" />
<polygon points="226.0,182.0 223.0,184.0 223.0,186.0 227.0,188.0 230.0,186.0 230.0,184.0" fill="#122635" opacity="0.95" />
<polygon points="149.0,171.0 146.0,173.0 146.0,175.0 149.0,177.0 152.0,175.0 152.0,173.0" fill="#3cc3dc" opacity="0.95" />
</svg>