<svg xmlns="http://www.w3.org/2000/svg" width="768" height="768" viewBox="0 0 384 384">
<rect width="384" height="384" fill="#8d6c60"/>
<polygon points="262.0,178.0 243.0,239.0 212.0,236.0 258.0,382.0 383.0,383.0 370.0,249.0" fill="#ae8271" />
<polygon points="0.0,80.0 2.0,206.0 119.0,177.0 169.0,108.0 212.0,105.0 383.0,276.0 383.0,132.0 347.0,107.0 136.0,69.0" fill="#845d4d" />
<polygon points="124.0,174.0 0.0,209.0 0.0,383.0 153.0,383.0 151.0,338.0 185.0,271.0 174.0,254.0 145.0,257.0 145.0,208.0" fill="#ae8271" />
<polygon points="0.0,80.0 1.0,205.0 119.0,177.0 169.0,108.0 212.0,105.0 383.0,275.0 362.0,115.0 271.0,82.0" fill="#845d4d" opacity="0.95" />
<polygon points="126.0,177.0 0.0,209.0 0.0,383.0 153.0,383.0 151.0,338.0 185.0,271.0 173.0,254.0 145.0,257.0" fill="#ae8271" opacity="0.95" />
<polygon points="74.0,35.0 208.0,81.0 331.0,58.0 249.0,0.0 156.0,10.0 164.0,44.0 255.0,52.0" fill="#dc715f" />
<polygon points="259.0,184.0 243.0,239.0 212.0,237.0 258.0,383.0 383.0,383.0 370.0,249.0 309.0,199.0" fill="#ae8271" opacity="0.95" />
<polygon points="0.0,81.0 0.0,204.0 119.0,177.0 169.0,108.0 212.0,105.0 383.0,273.0 362.0,115.0 270.0,82.0" fill="#845d4d" opacity="0.95" />
<polygon points="250.0,0.0 255.0,20.0 337.0,53.0 277.0,87.0 347.0,106.0 383.0,131.0 383.0,0.0" fill="#5d3d32" />
<polygon points="125.0,177.0 0.0,209.0 0.0,383.0 153.0,383.0 151.0,338.0 185.0,271.0 173.0,254.0 144.0,255.0 145.0,208.0" fill="#ae8271" opacity="0.95" />
<polygon points="0.0,0.0 6.0,79.0 144.0,79.0 75.0,41.0 97.0,24.0 166.0,54.0 262.0,46.0 164.0,45.0 156.0,0.0" fill="#5d3d32" />
<polygon points="260.0,184.0 243.0,239.0 212.0,238.0 258.0,383.0 383.0,383.0 370.0,249.0 309.0,199.0" fill="#ae8271" opacity="0.95" />
<polygon points="263.0,149.0 247.0,142.0 208.0,173.0 127.0,165.0 150.0,210.0 204.0,219.0 250.0,196.0" fill="#91ebf0" />
<polygon points="245.0,202.0 138.0,225.0 145.0,255.0 173.0,252.0 187.0,274.0 152.0,339.0 154.0,383.0 209.0,383.0 215.0,361.0 225.0,383.0 257.0,383.0 227.0,273.0 189.0,251.0 240.0,241.0" fill="#181718" />
<polygon points="75.0,33.0 197.0,80.0 331.0,58.0 249.0,0.0 156.0,5.0 163.0,43.0 259.0,40.0 245.0,54.0" fill="#dc715f" opacity="0.95" />
<polygon points="250.0,0.0 254.0,19.0 337.0,53.0 277.0,87.0 383.0,131.0 383.0,0.0" fill="#5d3d32" opacity="0.95" />
<polygon points="0.0,0.0 6.0,79.0 145.0,78.0 75.0,41.0 97.0,24.0 166.0,54.0 262.0,46.0 165.0,46.0 155.0,0.0" fill="#5d3d32" opacity="0.95" />
<polygon points="246.0,204.0 139.0,224.0 147.0,257.0 186.0,270.0 154.0,383.0 209.0,383.0 215.0,365.0 257.0,383.0 227.0,273.0 190.0,262.0 198.0,239.0 241.0,240.0" fill="#181718" opacity="0.95" />
<polygon points="75.0,33.0 197.0,80.0 331.0,58.0 249.0,0.0 156.0,5.0 165.0,44.0 259.0,40.0 245.0,54.0" fill="#dc715f" opacity="0.95" />
<polygon points="263.0,149.0 247.0,142.0 208.0,173.0 128.0,165.0 126.0,174.0 150.0,210.0 204.0,219.0 250.0,196.0" fill="#91ebf0" opacity="0.95" />
<polygon points="250.0,0.0 255.0,19.0 337.0,53.0 278.0,87.0 383.0,131.0 383.0,0.0" fill="#5d3d32" opacity="0.95" />
<polygon points="0.0,0.0 6.0,79.0 140.0,79.0 75.0,41.0 97.0,24.0 174.0,55.0 262.0,46.0 166.0,47.0 155.0,0.0" fill="#5d3d32" opacity="0.95" />
<polygon points="245.0,205.0 139.0,224.0 147.0,257.0 186.0,270.0 152.0,339.0 154.0,383.0 216.0,367.0 257.0,383.0 227.0,273.0 190.0,262.0 198.0,239.0 241.0,239.0" fill="#181718" opacity="0.95" />
<polygon points="263.0,149.0 247.0,142.0 208.0,173.0 129.0,165.0 126.0,174.0 150.0,210.0 204.0,219.0 250.0,196.0" fill="#91ebf0" opacity="0.95" />
<polygon points="168.0,128.0 181.0,148.0 197.0,149.0 212.0,144.0 224.0,125.0 181.0,123.0" fill="#91ebf0" />
<polygon points="248.0,124.0 240.0,120.0 230.0,129.0 226.0,126.0 214.0,144.0 189.0,152.0 205.0,172.0 215.0,169.0 228.0,158.0 233.0,137.0" fill="#3f8397" />
<polygon points="168.0,126.0 179.0,146.0 185.0,149.0 212.0,144.0 223.0,129.0 219.0,123.0" fill="#91ebf0" opacity="0.95" />
<polygon points="161.0,121.0 143.0,133.0 161.0,163.0 159.0,153.0" fill="#194248" />
<polygon points="248.0,124.0 240.0,120.0 224.0,128.0 211.0,146.0 190.0,153.0 204.0,171.0 215.0,169.0 228.0,158.0 233.0,137.0" fill="#3f8397" opacity="0.95" />
<polygon points="127.0,158.0 127.0,164.0 154.0,173.0 168.0,171.0 133.0,153.0" fill="#65bbc4" />
<polygon points="180.0,149.0 179.0,161.0 184.0,172.0 202.0,172.0 203.0,169.0 195.0,162.0 188.0,151.0" fill="#2d6471" />
<polygon points="192.0,244.0 190.0,251.0 194.0,267.0 201.0,265.0 199.0,257.0 202.0,254.0 209.0,265.0 219.0,264.0 211.0,244.0 201.0,240.0" fill="#5d3d32" />
<polygon points="258.0,137.0 249.0,126.0 234.0,137.0 232.0,147.0 234.0,148.0" fill="#65bbc4" />
<polygon points="169.0,127.0 179.0,146.0 185.0,149.0 212.0,144.0 223.0,129.0 219.0,123.0 181.0,123.0" fill="#91ebf0" opacity="0.95" />
<polygon points="244.0,121.0 225.0,129.0 211.0,146.0 191.0,152.0 205.0,171.0 225.0,162.0 233.0,137.0 247.0,126.0" fill="#3f8397" opacity="0.95" />
<polygon points="143.0,134.0 135.0,144.0 158.0,163.0" fill="#2d6471" />
<polygon points="165.0,113.0 216.0,112.0 220.0,110.0 209.0,106.0 182.0,106.0 172.0,108.0" fill="#194248" />
<polygon points="224.0,120.0 176.0,119.0 164.0,122.0 163.0,129.0 171.0,145.0 178.0,148.0 167.0,128.0 170.0,124.0" fill="#65bbc4" />
<polygon points="171.0,147.0 171.0,169.0 182.0,173.0 183.0,171.0 178.0,161.0 178.0,150.0" fill="#194248" />
<polygon points="130.0,151.0 159.0,167.0 163.0,167.0 135.0,145.0" fill="#3f8397" />
<polygon points="215.0,364.0 210.0,383.0 224.0,383.0" fill="#ae8271" />
<polygon points="162.0,134.0 160.0,137.0 160.0,153.0 163.0,164.0 169.0,168.0 169.0,146.0 164.0,140.0" fill="#181718" />
<polygon points="179.0,151.0 180.0,164.0 184.0,172.0 200.0,173.0 203.0,171.0 188.0,151.0" fill="#2d6471" opacity="0.95" />
<polygon points="192.0,244.0 193.0,266.0 200.0,265.0 199.0,257.0 202.0,255.0 208.0,264.0 218.0,264.0 212.0,245.0 201.0,240.0" fill="#5d3d32" opacity="0.95" />
<polygon points="164.0,120.0 224.0,117.0 222.0,115.0 166.0,117.0" fill="#3f8397" />
<polygon points="160.0,122.0 144.0,132.0 148.0,144.0 158.0,158.0 160.0,157.0 159.0,137.0 162.0,130.0" fill="#194248" opacity="0.95" />
<polygon points="257.0,135.0 248.0,127.0 234.0,137.0 232.0,147.0 252.0,140.0" fill="#65bbc4" opacity="0.95" />
<polygon points="127.0,158.0 127.0,163.0 151.0,172.0 167.0,172.0 167.0,169.0 159.0,168.0 133.0,153.0" fill="#65bbc4" opacity="0.95" />
<polygon points="224.0,116.0 226.0,120.0 226.0,125.0 229.0,128.0 240.0,119.0 233.0,115.0 225.0,115.0" fill="#2d6471" />
<polygon points="168.0,110.0 170.0,113.0 218.0,111.0 217.0,108.0 209.0,106.0 182.0,106.0" fill="#194248" opacity="0.95" />
<polygon points="192.0,244.0 193.0,266.0 198.0,266.0 199.0,259.0 203.0,256.0 211.0,265.0 218.0,263.0 211.0,245.0 201.0,240.0" fill="#5d3d32" opacity="0.95" />
<polygon points="143.0,42.0 143.0,46.0 147.0,49.0 157.0,52.0 162.0,52.0 164.0,50.0 161.0,46.0 153.0,44.0 145.0,39.0" fill="#181718" />
<polygon points="179.0,152.0 180.0,164.0 185.0,172.0 200.0,173.0 203.0,171.0 187.0,151.0 182.0,150.0" fill="#2d6471" opacity="0.95" />
<polygon points="127.0,158.0 130.0,164.0 154.0,173.0 161.0,171.0 133.0,153.0" fill="#65bbc4" opacity="0.95" />
<polygon points="159.0,122.0 145.0,132.0 146.0,140.0 156.0,154.0 159.0,152.0 159.0,137.0 162.0,129.0 162.0,124.0" fill="#194248" opacity="0.95" />
<polygon points="162.0,137.0 160.0,138.0 160.0,153.0 163.0,164.0 168.0,168.0 170.0,167.0 169.0,146.0" fill="#181718" opacity="0.95" />
<polygon points="172.0,147.0 170.0,148.0 171.0,169.0 180.0,172.0 182.0,169.0 179.0,164.0 178.0,150.0" fill="#194248" opacity="0.95" />
<polygon points="257.0,135.0 248.0,127.0 234.0,137.0 232.0,145.0 236.0,147.0 256.0,138.0" fill="#65bbc4" opacity="0.95" />
<polygon points="99.0,26.0 114.0,38.0 115.0,37.0 109.0,30.0 110.0,27.0 109.0,24.0" fill="#845d4d" />
<polygon points="214.0,368.0 212.0,372.0 211.0,383.0 224.0,383.0 218.0,368.0 216.0,367.0" fill="#ae8271" opacity="0.95" />
<polygon points="143.0,135.0 138.0,139.0 136.0,144.0 151.0,156.0 153.0,153.0 145.0,140.0 145.0,136.0" fill="#2d6471" opacity="0.95" />
<polygon points="180.0,119.0 163.0,123.0 163.0,129.0 174.0,147.0 177.0,144.0 167.0,126.0 182.0,122.0" fill="#65bbc4" opacity="0.95" />
<polygon points="239.0,118.0 233.0,115.0 225.0,116.0 226.0,125.0 230.0,128.0 239.0,120.0" fill="#2d6471" opacity="0.95" />
<polygon points="144.0,41.0 143.0,46.0 145.0,48.0 157.0,52.0 163.0,51.0 163.0,47.0 146.0,40.0" fill="#181718" opacity="0.95" />
<polygon points="173.0,148.0 170.0,150.0 171.0,169.0 178.0,172.0 181.0,170.0 179.0,164.0 178.0,151.0" fill="#194248" opacity="0.95" />
<polygon points="163.0,140.0 160.0,142.0 160.0,153.0 163.0,164.0 167.0,167.0 170.0,165.0 169.0,146.0" fill="#181718" opacity="0.95" />
<polygon points="132.0,148.0 132.0,152.0 150.0,162.0 152.0,161.0 152.0,159.0 139.0,147.0 135.0,146.0" fill="#3f8397" opacity="0.95" />
<polygon points="194.0,119.0 194.0,121.0 196.0,122.0 224.0,122.0 224.0,119.0 222.0,118.0" fill="#65bbc4" opacity="0.95" />
<polygon points="214.0,369.0 212.0,372.0 211.0,383.0 224.0,383.0 219.0,370.0 216.0,368.0" fill="#ae8271" opacity="0.95" />
<polygon points="143.0,44.0 145.0,48.0 153.0,51.0 160.0,52.0 163.0,50.0 162.0,47.0 148.0,41.0" fill="#181718" opacity="0.95" />
<polygon points="202.0,255.0 200.0,257.0 200.0,262.0 202.0,264.0 206.0,264.0 207.0,263.0 207.0,260.0 205.0,258.0 205.0,257.0" fill="#845d4d" />
<polygon points="172.0,0.0 172.0,1.0 176.0,4.0 180.0,4.0 182.0,2.0 182.0,0.0" fill="#5d3d32" />
<polygon points="142.0,136.0 138.0,139.0 136.0,144.0 148.0,153.0 151.0,151.0 151.0,149.0 147.0,144.0 145.0,138.0" fill="#2d6471" opacity="0.95" />
<polygon points="233.0,115.0 228.0,115.0 225.0,117.0 226.0,125.0 229.0,127.0 232.0,126.0 238.0,120.0 238.0,118.0" fill="#2d6471" opacity="0.95" />
<polygon points="172.0,109.0 172.0,111.0 175.0,113.0 180.0,111.0 193.0,112.0 196.0,110.0 196.0,108.0 193.0,106.0 182.0,106.0" fill="#194248" opacity="0.95" />
<polygon points="132.0,148.0 132.0,151.0 134.0,153.0 144.0,158.0 147.0,156.0 147.0,154.0 139.0,147.0 135.0,146.0" fill="#3f8397" opacity="0.95" />
<polygon points="190.0,114.0 189.0,113.0 178.0,113.0 177.0,114.0 167.0,114.0 166.0,115.0 167.0,116.0 176.0,116.0 177.0,115.0 189.0,115.0" fill="#2d6471" />
<polygon points="200.0,257.0 200.0,262.0 203.0,264.0 207.0,263.0 207.0,260.0 205.0,257.0 203.0,256.0" fill="#845d4d" opacity="0.95" />
<polygon points="108.0,24.0 102.0,26.0 102.0,28.0 107.0,32.0 109.0,31.0 109.0,28.0 110.0,27.0 110.0,25.0" fill="#845d4d" opacity="0.95" />
<polygon points="156.0,79.0 158.0,77.0 159.0,78.0 160.0,77.0 161.0,77.0 163.0,79.0 161.0,81.0 160.0,81.0 159.0,80.0 158.0,81.0" fill="#845d4d" />
<polygon points="203.0,257.0 200.0,259.0 200.0,262.0 204.0,264.0 207.0,262.0 207.0,260.0" fill="#845d4d" opacity="0.95" />
<polygon points="106.0,24.0 103.0,26.0 103.0,28.0 106.0,30.0 109.0,28.0 109.0,26.0" fill="#845d4d" opacity="0.95" />
</svg>