<svg xmlns="http://www.w3.org/2000/svg" width="768" height="768" viewBox="0 0 384 384">
<rect width="384" height="384" fill="#917463"/>
<polygon points="181.0,97.0 110.0,82.0 28.0,98.0 35.0,150.0 49.0,166.0 154.0,159.0 167.0,143.0 169.0,105.0" fill="#3d5148" />
<polygon points="134.0,80.0 169.0,94.0 219.0,94.0 241.0,83.0 242.0,72.0 222.0,25.0 185.0,10.0 151.0,41.0" fill="#ecc5b4" />
<polygon points="180.0,97.0 114.0,82.0 31.0,97.0 40.0,162.0 153.0,159.0" fill="#3d5148" opacity="0.95" />
<polygon points="94.0,81.0 132.0,82.0 185.0,9.0 223.0,25.0 244.0,83.0 287.0,78.0 252.0,17.0 141.0,0.0 113.0,19.0" fill="#fab99a" />
<polygon points="40.0,188.0 56.0,203.0 54.0,225.0 137.0,231.0 119.0,178.0 76.0,178.0" fill="#ec986d" />
<polygon points="27.0,267.0 40.0,275.0 75.0,276.0 76.0,257.0 155.0,273.0 163.0,296.0 189.0,277.0 183.0,242.0 32.0,233.0" fill="#ec986d" />
<polygon points="260.0,170.0 221.0,170.0 210.0,146.0 208.0,160.0 182.0,174.0 180.0,153.0 164.0,171.0 127.0,172.0 148.0,209.0 198.0,220.0 239.0,207.0" fill="#5ef8f5" />
<polygon points="248.0,231.0 328.0,225.0 322.0,209.0 340.0,187.0 274.0,178.0" fill="#ec986d" />
<polygon points="220.0,106.0 219.0,136.0 226.0,153.0 313.0,158.0 304.0,136.0 279.0,114.0 239.0,103.0" fill="#057d85" />
<polygon points="140.0,0.0 118.0,0.0 57.0,33.0 36.0,91.0 90.0,83.0 115.0,30.0 112.0,19.0" fill="#ec986d" />
<polygon points="278.0,0.0 360.0,65.0 369.0,93.0 349.0,92.0 361.0,97.0 358.0,119.0 370.0,121.0 375.0,108.0 383.0,125.0 383.0,0.0" fill="#18131d" />
<polygon points="42.0,171.0 121.0,174.0 150.0,233.0 239.0,228.0 268.0,174.0 348.0,163.0 216.0,152.0 263.0,171.0 194.0,225.0 126.0,180.0 174.0,146.0" fill="#18131d" />
<polygon points="353.0,235.0 200.0,242.0 195.0,274.0 223.0,294.0 226.0,272.0 303.0,247.0 318.0,251.0 305.0,271.0 347.0,270.0" fill="#ec986d" />
<polygon points="198.0,0.0 265.0,23.0 289.0,80.0 361.0,91.0 350.0,66.0 314.0,42.0" fill="#ec986d" />
<polygon points="186.0,283.0 176.0,286.0 161.0,305.0 158.0,348.0 148.0,379.0 195.0,378.0" fill="#18131d" />
<polygon points="180.0,98.0 114.0,82.0 32.0,97.0 40.0,162.0 152.0,159.0 166.0,146.0 169.0,107.0" fill="#3d5148" opacity="0.95" />
<polygon points="26.0,249.0 36.0,274.0 97.0,259.0 165.0,295.0 303.0,247.0 305.0,271.0 347.0,270.0 353.0,235.0 321.0,230.0 339.0,186.0 279.0,177.0 250.0,237.0 192.0,257.0 86.0,177.0 40.0,188.0 62.0,230.0" fill="#ec986d" opacity="0.95" />
<polygon points="134.0,80.0 170.0,94.0 218.0,94.0 242.0,82.0 222.0,24.0 186.0,10.0 151.0,41.0" fill="#ecc5b4" opacity="0.95" />
<polygon points="222.0,92.0 221.0,103.0 288.0,119.0 314.0,162.0 346.0,161.0 349.0,140.0 290.0,87.0 249.0,83.0" fill="#265a65" />
<polygon points="351.0,324.0 339.0,322.0 309.0,337.0 252.0,328.0 249.0,337.0 268.0,363.0 308.0,371.0 341.0,354.0" fill="#ecc5b4" />
<polygon points="31.0,330.0 47.0,360.0 77.0,372.0 116.0,364.0 134.0,341.0 130.0,331.0 86.0,341.0 42.0,325.0" fill="#ecc5b4" />
<polygon points="277.0,83.0 290.0,86.0 325.0,124.0 353.0,141.0 359.0,96.0" fill="#3d5148" />
<polygon points="94.0,81.0 133.0,81.0 186.0,9.0 223.0,24.0 243.0,82.0 286.0,77.0 252.0,17.0 141.0,0.0 113.0,19.0" fill="#fab99a" opacity="0.95" />
<polygon points="260.0,170.0 221.0,170.0 211.0,155.0 182.0,174.0 180.0,156.0 164.0,171.0 127.0,172.0 148.0,209.0 198.0,220.0 239.0,207.0" fill="#5ef8f5" opacity="0.95" />
<polygon points="278.0,0.0 360.0,65.0 369.0,92.0 358.0,119.0 376.0,110.0 383.0,125.0 383.0,0.0" fill="#18131d" opacity="0.95" />
<polygon points="340.0,187.0 272.0,179.0 255.0,236.0 199.0,243.0 196.0,277.0 222.0,293.0 225.0,273.0 317.0,250.0 307.0,272.0 349.0,269.0 351.0,233.0 261.0,235.0 327.0,225.0" fill="#ec986d" opacity="0.95" />
<polygon points="206.0,284.0 206.0,377.0 218.0,351.0 231.0,365.0 230.0,379.0 249.0,379.0 235.0,315.0" fill="#18131d" />
<polygon points="27.0,267.0 40.0,275.0 75.0,276.0 75.0,258.0 155.0,273.0 164.0,296.0 189.0,277.0 183.0,242.0 32.0,233.0" fill="#ec986d" opacity="0.95" />
<polygon points="140.0,0.0 118.0,0.0 57.0,33.0 36.0,91.0 93.0,81.0 114.0,15.0" fill="#ec986d" opacity="0.95" />
<polygon points="135.0,79.0 170.0,94.0 218.0,94.0 240.0,83.0 242.0,72.0 222.0,25.0 186.0,10.0 151.0,41.0" fill="#ecc5b4" opacity="0.95" />
<polygon points="220.0,106.0 219.0,136.0 226.0,153.0 312.0,159.0 304.0,136.0 284.0,117.0 246.0,104.0" fill="#057d85" opacity="0.95" />
<polygon points="39.0,31.0 0.0,49.0 2.0,162.0 9.0,112.0 28.0,123.0 26.0,99.0 38.0,94.0 24.0,96.0 15.0,79.0" fill="#18131d" />
<polygon points="345.0,288.0 329.0,280.0 256.0,293.0 242.0,307.0 318.0,300.0 304.0,312.0 316.0,313.0" fill="#18131d" />
<polygon points="373.0,148.0 360.0,151.0 347.0,182.0 327.0,180.0 341.0,189.0 323.0,209.0 325.0,220.0 365.0,223.0 371.0,181.0 383.0,174.0" fill="#ba6947" />
<polygon points="83.0,285.0 129.0,296.0 145.0,310.0 154.0,303.0 148.0,276.0 138.0,271.0 93.0,266.0 94.0,280.0" fill="#6c332c" />
<polygon points="278.0,0.0 360.0,65.0 369.0,91.0 358.0,118.0 376.0,112.0 383.0,124.0 383.0,0.0" fill="#18131d" opacity="0.95" />
<polygon points="186.0,283.0 176.0,286.0 161.0,305.0 159.0,349.0 149.0,379.0 195.0,378.0" fill="#18131d" opacity="0.95" />
<polygon points="14.0,115.0 7.0,127.0 13.0,223.0 51.0,225.0 55.0,203.0 39.0,188.0 53.0,182.0 42.0,180.0 38.0,164.0 29.0,170.0 32.0,145.0 17.0,151.0 23.0,124.0 16.0,131.0" fill="#ba6947" />
<polygon points="91.0,0.0 68.0,0.0 44.0,18.0 31.0,0.0 0.0,39.0 41.0,32.0 16.0,79.0 24.0,95.0 45.0,37.0" fill="#6c332c" />
<polygon points="128.0,171.0 148.0,209.0 185.0,220.0 233.0,211.0 259.0,175.0 221.0,170.0 211.0,158.0 185.0,169.0 180.0,156.0 164.0,171.0" fill="#5ef8f5" opacity="0.95" />
<polygon points="96.0,80.0 132.0,81.0 186.0,9.0 223.0,25.0 244.0,81.0 285.0,76.0 272.0,31.0 252.0,17.0 141.0,0.0 114.0,18.0" fill="#fab99a" opacity="0.95" />
<polygon points="222.0,92.0 223.0,103.0 288.0,119.0 313.0,161.0 346.0,161.0 349.0,140.0 290.0,87.0 249.0,83.0" fill="#265a65" opacity="0.95" />
<polygon points="300.0,257.0 232.0,273.0 227.0,299.0 232.0,308.0 242.0,311.0 250.0,295.0 294.0,283.0 275.0,272.0" fill="#6c332c" />
<polygon points="241.0,0.0 360.0,70.0 277.0,0.0" fill="#6c332c" />
<polygon points="220.0,106.0 219.0,136.0 226.0,153.0 312.0,159.0 304.0,136.0 284.0,117.0 246.0,104.0" fill="#057d85" opacity="0.95" />
<polygon points="39.0,292.0 49.0,310.0 78.0,299.0 139.0,304.0 120.0,294.0 69.0,284.0" fill="#18131d" />
<polygon points="351.0,324.0 339.0,322.0 309.0,337.0 253.0,328.0 249.0,337.0 268.0,363.0 308.0,371.0 341.0,354.0" fill="#ecc5b4" opacity="0.95" />
<polygon points="282.0,82.0 324.0,123.0 353.0,139.0 358.0,96.0" fill="#3d5148" opacity="0.95" />
<polygon points="31.0,330.0 47.0,360.0 77.0,372.0 116.0,364.0 134.0,341.0 130.0,331.0 86.0,341.0 42.0,325.0" fill="#ecc5b4" opacity="0.95" />
<polygon points="117.0,0.0 92.0,0.0 56.0,25.0 28.0,94.0 52.0,37.0" fill="#ba6947" />
<polygon points="205.0,124.0 183.0,125.0 179.0,151.0 184.0,161.0 179.0,173.0 190.0,164.0 207.0,160.0 209.0,139.0" fill="#b1f0f7" />
<polygon points="371.0,235.0 359.0,235.0 356.0,278.0 311.0,279.0 346.0,288.0 324.0,311.0 248.0,307.0 327.0,320.0 361.0,296.0 369.0,268.0 383.0,303.0" fill="#6c332c" />
<polygon points="11.0,117.0 13.0,223.0 49.0,225.0 54.0,202.0 39.0,190.0 40.0,169.0 28.0,168.0 33.0,146.0 17.0,151.0" fill="#ba6947" opacity="0.95" />
<polygon points="222.0,92.0 224.0,102.0 284.0,116.0 315.0,161.0 346.0,161.0 350.0,143.0 290.0,87.0 249.0,83.0" fill="#265a65" opacity="0.95" />
<polygon points="358.0,226.0 236.0,235.0 356.0,233.0" fill="#b37969" />
<polygon points="358.0,235.0 347.0,271.0 305.0,272.0 313.0,248.0 239.0,269.0 299.0,255.0 276.0,272.0 283.0,279.0 354.0,278.0" fill="#ba6947" />
<polygon points="351.0,324.0 339.0,322.0 309.0,337.0 253.0,328.0 249.0,337.0 268.0,363.0 308.0,371.0 341.0,354.0" fill="#ecc5b4" opacity="0.95" />
<polygon points="31.0,330.0 47.0,360.0 77.0,372.0 116.0,364.0 134.0,341.0 130.0,331.0 86.0,341.0 42.0,325.0" fill="#ecc5b4" opacity="0.95" />
<polygon points="373.0,148.0 360.0,151.0 348.0,181.0 334.0,181.0 341.0,189.0 323.0,209.0 325.0,220.0 363.0,223.0 371.0,181.0 383.0,174.0" fill="#ba6947" opacity="0.95" />
<polygon points="194.0,281.0 198.0,377.0 202.0,378.0 199.0,283.0" fill="#ecc5b4" />
<polygon points="13.0,247.0 33.0,311.0 24.0,282.0 90.0,283.0 93.0,265.0 132.0,268.0 76.0,258.0 77.0,276.0 45.0,277.0 26.0,267.0 28.0,233.0" fill="#ba6947" />
<polygon points="23.0,284.0 30.0,306.0 50.0,318.0 117.0,317.0 73.0,312.0 64.0,302.0 49.0,311.0 38.0,292.0 63.0,282.0" fill="#6c332c" />
<polygon points="379.0,172.0 372.0,181.0 364.0,213.0 364.0,221.0 378.0,227.0 383.0,219.0 383.0,175.0" fill="#6c332c" />
<polygon points="292.0,86.0 324.0,123.0 349.0,139.0 354.0,136.0 358.0,96.0" fill="#3d5148" opacity="0.95" />
<polygon points="299.0,257.0 232.0,273.0 232.0,308.0 239.0,312.0 250.0,295.0 287.0,284.0 275.0,272.0" fill="#6c332c" opacity="0.95" />
<polygon points="370.0,269.0 362.0,296.0 345.0,305.0 357.0,306.0 372.0,292.0 372.0,339.0 342.0,379.0 356.0,379.0 383.0,344.0 383.0,304.0" fill="#ba6947" />
<polygon points="92.0,267.0 95.0,278.0 89.0,286.0 129.0,296.0 142.0,309.0 152.0,308.0 154.0,296.0 146.0,274.0 107.0,265.0" fill="#6c332c" opacity="0.95" />
<polygon points="12.0,118.0 13.0,223.0 48.0,225.0 54.0,202.0 40.0,192.0 40.0,174.0 28.0,168.0 33.0,147.0 17.0,150.0" fill="#ba6947" opacity="0.95" />
<polygon points="155.0,325.0 136.0,320.0 129.0,353.0 116.0,365.0 87.0,374.0 102.0,377.0 122.0,370.0" fill="#fab99a" />
<polygon points="91.0,0.0 48.0,15.0 31.0,0.0 23.0,7.0 28.0,20.0 0.0,38.0 38.0,37.0 16.0,79.0 22.0,93.0 45.0,37.0" fill="#6c332c" opacity="0.95" />
<polygon points="373.0,148.0 360.0,151.0 350.0,179.0 323.0,209.0 325.0,220.0 363.0,222.0 371.0,181.0 383.0,174.0" fill="#ba6947" opacity="0.95" />
<polygon points="354.0,312.0 309.0,333.0 294.0,331.0 304.0,321.0 245.0,323.0 242.0,314.0 238.0,326.0 251.0,353.0 249.0,326.0 309.0,336.0" fill="#cc9886" />
<polygon points="25.0,315.0 86.0,340.0 134.0,325.0 76.0,325.0 119.0,326.0 83.0,337.0" fill="#cc9886" />
<polygon points="23.0,307.0 76.0,335.0 118.0,327.0 74.0,326.0 84.0,322.0 54.0,321.0" fill="#b37969" />
<polygon points="174.0,119.0 171.0,131.0 182.0,133.0 182.0,173.0 188.0,165.0 207.0,160.0 208.0,131.0 204.0,124.0 181.0,126.0" fill="#b1f0f7" opacity="0.95" />
<polygon points="32.0,228.0 34.0,232.0 49.0,229.0 126.0,234.0 58.0,226.0" fill="#b37969" />
<polygon points="23.0,316.0 21.0,332.0 30.0,353.0 47.0,369.0 70.0,373.0 36.0,348.0 30.0,330.0 45.0,324.0" fill="#fab99a" />
<polygon points="361.0,317.0 339.0,320.0 352.0,324.0 349.0,343.0 318.0,370.0 274.0,367.0 253.0,348.0 254.0,359.0 281.0,375.0 329.0,370.0 352.0,350.0" fill="#fab99a" />
<polygon points="209.0,115.0 208.0,128.0 211.0,143.0 219.0,153.0 225.0,155.0 219.0,141.0 216.0,117.0" fill="#0cd66e" />
<polygon points="173.0,121.0 171.0,131.0 182.0,134.0 183.0,164.0 205.0,162.0 209.0,146.0 207.0,127.0 201.0,123.0 182.0,126.0" fill="#b1f0f7" opacity="0.95" />
<polygon points="155.0,325.0 135.0,321.0 129.0,353.0 94.0,375.0 126.0,367.0" fill="#fab99a" opacity="0.95" />
<polygon points="238.0,320.0 243.0,332.0 257.0,325.0 290.0,336.0 306.0,324.0 278.0,318.0" fill="#cc9886" opacity="0.95" />
<polygon points="355.0,226.0 329.0,225.0 274.0,234.0 353.0,233.0" fill="#b37969" opacity="0.95" />
<polygon points="52.0,371.0 70.0,379.0 100.0,378.0" fill="#cc9886" />
<polygon points="155.0,325.0 137.0,320.0 129.0,353.0 99.0,375.0 126.0,367.0" fill="#fab99a" opacity="0.95" />
<polygon points="351.0,308.0 343.0,307.0 320.0,325.0 316.0,323.0 318.0,318.0 300.0,318.0 307.0,323.0 295.0,331.0 319.0,329.0 341.0,311.0" fill="#b37969" />
<polygon points="198.0,241.0 186.0,242.0 190.0,252.0 190.0,277.0 188.0,280.0 191.0,283.0 196.0,279.0 194.0,274.0 195.0,246.0" fill="#cc9886" />
<polygon points="22.0,317.0 21.0,332.0 30.0,353.0 46.0,368.0 62.0,371.0 34.0,344.0 30.0,330.0 39.0,321.0" fill="#fab99a" opacity="0.95" />
<polygon points="2.0,181.0 0.0,183.0 0.0,197.0 5.0,202.0 9.0,203.0 10.0,197.0" fill="#b37969" />
<polygon points="255.0,322.0 258.0,326.0 290.0,336.0 303.0,325.0 299.0,320.0 264.0,318.0" fill="#cc9886" opacity="0.95" />
<polygon points="54.0,321.0 59.0,328.0 83.0,336.0 114.0,329.0 111.0,326.0 87.0,330.0 76.0,327.0 70.0,320.0" fill="#b37969" opacity="0.95" />
<polygon points="173.0,133.0 170.0,134.0 167.0,146.0 160.0,157.0 171.0,149.0 176.0,138.0" fill="#0cd66e" />
<polygon points="210.0,115.0 208.0,116.0 208.0,128.0 211.0,143.0 222.0,154.0 224.0,151.0 219.0,141.0 216.0,117.0" fill="#0cd66e" opacity="0.95" />
<polygon points="327.0,372.0 284.0,376.0 293.0,379.0 311.0,379.0" fill="#cc9886" />
<polygon points="360.0,315.0 343.0,317.0 352.0,324.0 349.0,343.0 335.0,361.0 319.0,371.0 337.0,366.0 352.0,350.0 360.0,332.0" fill="#fab99a" opacity="0.95" />
<polygon points="311.0,305.0 309.0,303.0 283.0,306.0 281.0,308.0 302.0,309.0" fill="#b37969" />
<polygon points="211.0,115.0 208.0,117.0 211.0,143.0 219.0,152.0 222.0,148.0 218.0,136.0 217.0,121.0" fill="#0cd66e" opacity="0.95" />
<polygon points="133.0,324.0 114.0,321.0 85.0,324.0 83.0,327.0 99.0,328.0 113.0,324.0 118.0,332.0" fill="#cc9886" opacity="0.95" />
<polygon points="129.0,233.0 133.0,237.0 144.0,237.0 160.0,241.0 167.0,240.0 154.0,236.0 145.0,238.0 137.0,233.0" fill="#cc9886" />
<polygon points="54.0,322.0 59.0,328.0 76.0,335.0 91.0,336.0 103.0,332.0 100.0,328.0 77.0,328.0 72.0,321.0 62.0,318.0" fill="#b37969" opacity="0.95" />
<polygon points="174.0,119.0 171.0,124.0 171.0,131.0 174.0,133.0 176.0,133.0 178.0,131.0 179.0,125.0 178.0,124.0 178.0,121.0" fill="#b1f0f7" />
<polygon points="195.0,241.0 188.0,243.0 190.0,252.0 189.0,281.0 191.0,282.0 195.0,280.0 195.0,246.0 197.0,244.0" fill="#cc9886" opacity="0.95" />
<polygon points="355.0,229.0 359.0,232.0 378.0,233.0 382.0,236.0 383.0,235.0 381.0,233.0 379.0,234.0 376.0,231.0 377.0,229.0 373.0,226.0 360.0,226.0" fill="#66707e" />
<polygon points="323.0,325.0 315.0,317.0 305.0,319.0 307.0,324.0 296.0,329.0 296.0,331.0 309.0,332.0 319.0,329.0" fill="#b37969" opacity="0.95" />
<polygon points="218.0,95.0 213.0,98.0 210.0,98.0 208.0,96.0 207.0,97.0 210.0,105.0 214.0,105.0 216.0,103.0 219.0,96.0" fill="#3d5148" />
<polygon points="173.0,133.0 170.0,134.0 165.0,151.0 167.0,152.0 171.0,149.0 175.0,141.0 175.0,134.0" fill="#0cd66e" opacity="0.95" />
<polygon points="356.0,228.0 356.0,230.0 359.0,232.0 367.0,233.0 376.0,232.0 376.0,228.0 372.0,226.0 360.0,226.0" fill="#66707e" opacity="0.95" />
<polygon points="129.0,177.0 128.0,179.0 134.0,192.0 135.0,191.0 132.0,180.0" fill="#b1f0f7" />
<polygon points="209.0,382.0 209.0,383.0 227.0,383.0 226.0,381.0 221.0,381.0 220.0,380.0 211.0,380.0" fill="#66707e" />
<polygon points="166.0,238.0 171.0,240.0 184.0,240.0 185.0,239.0 184.0,238.0 171.0,238.0 170.0,237.0 167.0,237.0" fill="#66707e" />
<polygon points="357.0,228.0 357.0,230.0 360.0,232.0 373.0,233.0 376.0,231.0 376.0,229.0 372.0,226.0 360.0,226.0" fill="#66707e" opacity="0.95" />
<polygon points="218.0,97.0 216.0,96.0 213.0,98.0 208.0,99.0 209.0,104.0 211.0,105.0 215.0,104.0 218.0,99.0" fill="#3d5148" opacity="0.95" />
<polygon points="203.0,283.0 202.0,284.0 202.0,295.0 203.0,296.0 204.0,295.0 204.0,284.0" fill="#3d5148" />
<polygon points="197.0,380.0 197.0,383.0 227.0,383.0 220.0,380.0 212.0,380.0 207.0,383.0 202.0,379.0" fill="#66707e" opacity="0.95" />
<polygon points="196.0,383.0 205.0,383.0 205.0,382.0 203.0,378.0 202.0,379.0 199.0,379.0 198.0,378.0 197.0,379.0 197.0,382.0" fill="#66707e" />
<polygon points="187.0,240.0 188.0,241.0 190.0,241.0 191.0,240.0 196.0,240.0 197.0,239.0 196.0,238.0 190.0,238.0" fill="#66707e" />
<polygon points="11.0,383.0 22.0,383.0 20.0,381.0 13.0,381.0" fill="#66707e" />
<polygon points="1.0,383.0 10.0,383.0 11.0,382.0 10.0,381.0 3.0,381.0" fill="#265a65" />
<polygon points="172.0,135.0 169.0,137.0 169.0,140.0 168.0,141.0 168.0,143.0 171.0,145.0 173.0,144.0 175.0,141.0 175.0,137.0" fill="#0cd66e" opacity="0.95" />
<polygon points="197.0,381.0 197.0,383.0 223.0,383.0 220.0,380.0 212.0,380.0 207.0,383.0 201.0,379.0" fill="#66707e" opacity="0.95" />
<polygon points="379.0,228.0 377.0,231.0 378.0,232.0 381.0,232.0 382.0,233.0 383.0,233.0 383.0,229.0 381.0,229.0 380.0,228.0" fill="#3d5148" />
</svg>