<svg xmlns="http://www.w3.org/2000/svg" width="768" height="768" viewBox="0 0 384 384">
<rect width="384" height="384" fill="#8a7b76"/>
<polygon points="128.0,91.0 0.0,132.0 0.0,239.0 17.0,242.0 0.0,260.0 0.0,383.0 172.0,383.0 148.0,125.0" fill="#b0998d" />
<polygon points="270.0,112.0 234.0,291.0 310.0,292.0 262.0,325.0 268.0,371.0 346.0,348.0 372.0,367.0 383.0,203.0" fill="#b0998d" />
<polygon points="128.0,92.0 0.0,132.0 0.0,239.0 16.0,242.0 0.0,259.0 0.0,383.0 171.0,383.0 148.0,124.0" fill="#b0998d" opacity="0.95" />
<polygon points="128.0,92.0 0.0,132.0 0.0,239.0 16.0,243.0 0.0,259.0 0.0,383.0 171.0,383.0 148.0,125.0" fill="#b0998d" opacity="0.95" />
<polygon points="246.0,102.0 182.0,120.0 187.0,225.0 258.0,199.0" fill="#95cbd9" />
<polygon points="272.0,115.0 234.0,291.0 309.0,290.0 262.0,325.0 283.0,376.0 367.0,362.0 383.0,203.0" fill="#b0998d" opacity="0.95" />
<polygon points="273.0,116.0 234.0,291.0 309.0,291.0 262.0,325.0 286.0,376.0 383.0,348.0 383.0,203.0" fill="#b0998d" opacity="0.95" />
<polygon points="240.0,0.0 201.0,24.0 204.0,6.0 217.0,0.0 197.0,4.0 183.0,118.0 247.0,100.0" fill="#ebe5e9" />
<polygon points="245.0,102.0 182.0,119.0 188.0,225.0 258.0,200.0" fill="#95cbd9" opacity="0.95" />
<polygon points="244.0,102.0 182.0,120.0 189.0,225.0 258.0,199.0" fill="#95cbd9" opacity="0.95" />
<polygon points="199.0,359.0 226.0,383.0 383.0,383.0 374.0,353.0 371.0,369.0 347.0,351.0 320.0,374.0 266.0,370.0 281.0,361.0 261.0,325.0 307.0,289.0 234.0,292.0 221.0,348.0" fill="#816c5d" />
<polygon points="257.0,0.0 269.0,103.0 383.0,171.0 383.0,153.0 344.0,134.0 339.0,81.0 328.0,111.0 285.0,101.0 286.0,0.0" fill="#b0998d" />
<polygon points="243.0,0.0 255.0,153.0 269.0,149.0 259.0,8.0 255.0,0.0" fill="#121520" />
<polygon points="235.0,218.0 207.0,242.0 217.0,259.0 204.0,263.0 201.0,346.0 211.0,352.0 220.0,348.0 232.0,296.0" fill="#121520" />
<polygon points="152.0,156.0 169.0,273.0 173.0,261.0 181.0,263.0 199.0,249.0 199.0,229.0 184.0,225.0 182.0,161.0" fill="#0f203a" />
<polygon points="240.0,0.0 203.0,21.0 204.0,6.0 216.0,0.0 197.0,4.0 185.0,117.0 246.0,100.0" fill="#ebe5e9" opacity="0.95" />
<polygon points="161.0,0.0 158.0,67.0 186.0,72.0 194.0,14.0 180.0,5.0 181.0,15.0 170.0,0.0" fill="#e7052f" />
<polygon points="269.0,106.0 299.0,141.0 383.0,202.0 365.0,179.0 368.0,170.0 383.0,172.0" fill="#816c5d" />
<polygon points="109.0,0.0 91.0,55.0 87.0,0.0 67.0,0.0 68.0,81.0 80.0,49.0 105.0,94.0 11.0,113.0 0.0,131.0 128.0,89.0 121.0,59.0 107.0,68.0" fill="#816c5d" />
<polygon points="168.0,277.0 165.0,304.0 175.0,380.0 191.0,383.0 198.0,379.0 197.0,364.0 190.0,363.0 198.0,295.0 187.0,282.0 184.0,288.0" fill="#0f203a" />
<polygon points="199.0,359.0 226.0,383.0 383.0,383.0 383.0,358.0 354.0,351.0 310.0,376.0 266.0,370.0 261.0,325.0 306.0,289.0 233.0,294.0 220.0,350.0" fill="#816c5d" opacity="0.95" />
<polygon points="104.0,84.0 86.0,84.0 78.0,50.0 73.0,84.0 66.0,71.0 34.0,85.0 23.0,73.0 8.0,92.0 8.0,113.0 26.0,121.0 33.0,110.0 103.0,95.0" fill="#493c31" />
<polygon points="240.0,0.0 206.0,19.0 201.0,14.0 212.0,0.0 197.0,4.0 187.0,117.0 246.0,100.0" fill="#ebe5e9" opacity="0.95" />
<polygon points="0.0,0.0 0.0,37.0 30.0,40.0 32.0,38.0 30.0,0.0" fill="#816c5d" />
<polygon points="40.0,0.0 33.0,0.0 31.0,47.0 5.0,47.0 0.0,75.0 65.0,71.0 63.0,40.0 55.0,47.0 40.0,40.0" fill="#2d251e" />
<polygon points="354.0,0.0 353.0,136.0 361.0,62.0 376.0,143.0 383.0,0.0 374.0,140.0 370.0,0.0 362.0,43.0" fill="#2d251e" />
<polygon points="257.0,0.0 269.0,103.0 383.0,171.0 383.0,153.0 344.0,134.0 340.0,82.0 328.0,111.0 285.0,101.0 286.0,0.0" fill="#b0998d" opacity="0.95" />
<polygon points="169.0,277.0 165.0,304.0 175.0,381.0 193.0,383.0 198.0,295.0" fill="#0f203a" opacity="0.95" />
<polygon points="154.0,157.0 169.0,273.0 172.0,262.0 199.0,249.0 197.0,226.0 184.0,225.0 182.0,161.0" fill="#0f203a" opacity="0.95" />
<polygon points="292.0,0.0 291.0,76.0 327.0,86.0 325.0,0.0 322.0,83.0 314.0,65.0 306.0,78.0 318.0,0.0 307.0,0.0 303.0,60.0 301.0,0.0" fill="#493c31" />
<polygon points="199.0,359.0 226.0,383.0 383.0,383.0 360.0,355.0 304.0,377.0 267.0,369.0 261.0,325.0 305.0,289.0 234.0,295.0 221.0,348.0" fill="#816c5d" opacity="0.95" />
<polygon points="234.0,218.0 208.0,239.0 214.0,261.0 198.0,251.0 170.0,273.0 193.0,284.0 204.0,266.0 201.0,346.0 211.0,352.0 232.0,296.0" fill="#121520" opacity="0.95" />
<polygon points="164.0,84.0 157.0,95.0 165.0,105.0 153.0,119.0 159.0,129.0 149.0,134.0 153.0,146.0 160.0,142.0 169.0,150.0 179.0,150.0 184.0,90.0" fill="#121520" />
<polygon points="269.0,106.0 299.0,141.0 383.0,202.0 365.0,179.0 383.0,172.0" fill="#816c5d" opacity="0.95" />
<polygon points="243.0,0.0 247.0,23.0 254.0,25.0 245.0,30.0 253.0,149.0 267.0,151.0 256.0,0.0" fill="#121520" opacity="0.95" />
<polygon points="155.0,157.0 171.0,272.0 199.0,249.0 197.0,226.0 184.0,224.0 182.0,162.0" fill="#0f203a" opacity="0.95" />
<polygon points="161.0,0.0 158.0,67.0 185.0,72.0 193.0,13.0 184.0,7.0 176.0,9.0 171.0,0.0" fill="#e7052f" opacity="0.95" />
<polygon points="379.0,0.0 371.0,0.0 373.0,139.0 381.0,46.0" fill="#0e0b0d" />
<polygon points="257.0,0.0 269.0,103.0 383.0,171.0 383.0,153.0 344.0,134.0 340.0,82.0 327.0,111.0 285.0,101.0 286.0,0.0" fill="#b0998d" opacity="0.95" />
<polygon points="98.0,0.0 91.0,55.0 87.0,0.0 67.0,0.0 68.0,81.0 79.0,49.0 85.0,81.0 105.0,94.0 68.0,111.0 127.0,91.0 122.0,62.0 107.0,66.0" fill="#816c5d" opacity="0.95" />
<polygon points="157.0,8.0 148.0,11.0 138.0,39.0 130.0,37.0 135.0,46.0 132.0,63.0 142.0,71.0 156.0,48.0" fill="#0e0b0d" />
<polygon points="233.0,218.0 208.0,239.0 213.0,261.0 197.0,252.0 171.0,273.0 193.0,284.0 205.0,271.0 201.0,346.0 211.0,352.0 232.0,296.0" fill="#121520" opacity="0.95" />
<polygon points="128.0,0.0 110.0,0.0 109.0,69.0 117.0,65.0 120.0,57.0 124.0,65.0 126.0,61.0 118.0,33.0 125.0,28.0" fill="#b0998d" />
<polygon points="170.0,277.0 165.0,304.0 175.0,380.0 194.0,383.0 198.0,374.0 190.0,360.0 198.0,295.0" fill="#0f203a" opacity="0.95" />
<polygon points="41.0,0.0 41.0,40.0 52.0,46.0 64.0,40.0 67.0,68.0 66.0,0.0 62.0,37.0 58.0,0.0" fill="#493c31" />
<polygon points="130.0,55.0 125.0,78.0 136.0,103.0 145.0,108.0 153.0,95.0 143.0,73.0 131.0,63.0" fill="#121520" />
<polygon points="340.0,0.0 350.0,73.0 328.0,69.0 326.0,108.0 293.0,103.0 328.0,110.0 339.0,80.0 345.0,134.0 383.0,152.0 350.0,136.0 351.0,0.0" fill="#816c5d" />
<polygon points="244.0,0.0 253.0,25.0 245.0,31.0 253.0,149.0 266.0,151.0 261.0,19.0 256.0,0.0" fill="#121520" opacity="0.95" />
<polygon points="38.0,107.0 39.0,89.0 46.0,79.0 52.0,88.0 63.0,79.0 71.0,88.0 79.0,80.0 83.0,83.0 85.0,96.0 82.0,99.0 52.0,105.0 46.0,111.0" fill="#493c31" />
<polygon points="161.0,0.0 158.0,67.0 184.0,72.0 188.0,67.0 193.0,14.0 187.0,9.0 178.0,11.0 171.0,0.0" fill="#e7052f" opacity="0.95" />
<polygon points="165.0,85.0 158.0,94.0 164.0,107.0 154.0,118.0 158.0,130.0 149.0,134.0 149.0,141.0 178.0,150.0 184.0,90.0" fill="#121520" opacity="0.95" />
<polygon points="244.0,206.0 205.0,220.0 206.0,260.0 216.0,259.0 206.0,244.0 208.0,237.0 232.0,217.0 239.0,225.0" fill="#0e0b0d" />
<polygon points="39.0,107.0 46.0,110.0 52.0,104.0 82.0,98.0 82.0,83.0 79.0,81.0 71.0,89.0 63.0,80.0 52.0,89.0 46.0,80.0 40.0,89.0" fill="#2d251e" />
<polygon points="40.0,0.0 33.0,0.0 31.0,47.0 4.0,48.0 0.0,75.0 11.0,73.0 7.0,66.0 14.0,62.0 24.0,73.0 65.0,71.0 64.0,43.0 40.0,40.0" fill="#2d251e" opacity="0.95" />
<polygon points="354.0,0.0 353.0,69.0 356.0,71.0 361.0,66.0 368.0,72.0 370.0,0.0" fill="#2d251e" opacity="0.95" />
<polygon points="318.0,0.0 307.0,0.0 304.0,33.0 301.0,0.0 292.0,0.0 290.0,67.0 299.0,80.0 306.0,73.0 297.0,58.0 304.0,51.0 315.0,53.0" fill="#493c31" opacity="0.95" />
<polygon points="67.0,0.0 68.0,81.0 80.0,49.0 86.0,82.0 101.0,82.0 107.0,99.0 125.0,92.0 124.0,67.0 107.0,66.0 108.0,21.0 96.0,17.0 97.0,51.0 86.0,54.0 87.0,0.0" fill="#816c5d" opacity="0.95" />
<polygon points="159.0,71.0 162.0,84.0 179.0,88.0 184.0,87.0 185.0,74.0" fill="#0e0b0d" />
<polygon points="293.0,78.0 293.0,96.0 297.0,94.0 303.0,97.0 314.0,96.0 323.0,102.0 326.0,101.0 326.0,86.0" fill="#2d251e" />
<polygon points="318.0,0.0 292.0,0.0 295.0,60.0 291.0,74.0 299.0,80.0 305.0,74.0 295.0,59.0 305.0,51.0 315.0,51.0" fill="#493c31" opacity="0.95" />
<polygon points="361.0,63.0 355.0,138.0 383.0,147.0 383.0,132.0 376.0,144.0 366.0,137.0 367.0,73.0" fill="#493c31" />
<polygon points="200.0,251.0 181.0,264.0 173.0,262.0 171.0,264.0 176.0,269.0 168.0,275.0 180.0,277.0 183.0,282.0 188.0,281.0 191.0,284.0 189.0,287.0 195.0,289.0" fill="#121520" />
<polygon points="155.0,9.0 148.0,11.0 138.0,39.0 131.0,41.0 135.0,45.0 132.0,64.0 142.0,71.0 156.0,48.0" fill="#0e0b0d" opacity="0.95" />
<polygon points="61.0,60.0 58.0,66.0 5.0,69.0 10.0,63.0 23.0,64.0 36.0,58.0 41.0,60.0 45.0,55.0" fill="#2d251e" />
<polygon points="379.0,0.0 371.0,0.0 373.0,137.0 376.0,67.0 383.0,45.0 377.0,38.0" fill="#0e0b0d" opacity="0.95" />
<polygon points="39.0,107.0 46.0,110.0 53.0,104.0 82.0,98.0 82.0,83.0 72.0,89.0 63.0,81.0 53.0,89.0 44.0,82.0" fill="#2d251e" opacity="0.95" />
<polygon points="244.0,207.0 205.0,219.0 204.0,238.0 232.0,217.0 241.0,220.0" fill="#0e0b0d" opacity="0.95" />
<polygon points="154.0,9.0 144.0,19.0 132.0,55.0 132.0,63.0 141.0,70.0 156.0,48.0 157.0,11.0" fill="#0e0b0d" opacity="0.95" />
<polygon points="58.0,0.0 41.0,0.0 41.0,37.0 43.0,38.0 52.0,32.0 58.0,32.0" fill="#493c31" opacity="0.95" />
<polygon points="202.0,375.0 205.0,383.0 225.0,383.0 217.0,367.0 214.0,365.0 211.0,370.0 206.0,366.0" fill="#ebe5e9" />
<polygon points="40.0,0.0 33.0,0.0 32.0,45.0 1.0,50.0 0.0,75.0 9.0,74.0 11.0,63.0 46.0,55.0 65.0,69.0 64.0,45.0 40.0,40.0" fill="#2d251e" opacity="0.95" />
<polygon points="25.0,83.0 29.0,87.0 30.0,108.0 27.0,113.0 16.0,105.0 21.0,96.0 22.0,86.0" fill="#493c31" />
<polygon points="60.0,60.0 51.0,60.0 45.0,56.0 41.0,61.0 36.0,59.0 24.0,65.0 14.0,63.0 6.0,69.0 58.0,65.0" fill="#0e0b0d" />
<polygon points="14.0,241.0 0.0,240.0 0.0,259.0 3.0,256.0 7.0,255.0 13.0,249.0 16.0,243.0" fill="#ccc0bf" />
<polygon points="153.0,147.0 153.0,151.0 156.0,154.0 174.0,158.0 182.0,157.0 179.0,151.0 169.0,151.0 160.0,143.0" fill="#0e0b0d" />
<polygon points="189.0,70.0 183.0,106.0 184.0,112.0 189.0,97.0" fill="#ccc0bf" />
<polygon points="41.0,84.0 29.0,85.0 27.0,113.0 17.0,106.0 22.0,87.0 8.0,93.0 9.0,111.0 18.0,114.0 16.0,120.0 25.0,121.0 38.0,109.0" fill="#493c31" opacity="0.95" />
<polygon points="83.0,85.0 80.0,83.0 72.0,89.0 63.0,82.0 53.0,89.0 45.0,83.0 40.0,89.0 39.0,107.0 45.0,110.0 71.0,98.0 80.0,99.0 84.0,96.0" fill="#2d251e" opacity="0.95" />
<polygon points="227.0,1.0 218.0,0.0 207.0,4.0 200.0,22.0 202.0,22.0 205.0,15.0 224.0,0.0" fill="#ccc0bf" />
<polygon points="173.0,5.0 181.0,14.0 182.0,12.0 178.0,6.0 180.0,4.0 192.0,12.0 195.0,11.0 196.0,4.0 191.0,0.0 174.0,0.0" fill="#790310" />
<polygon points="224.0,236.0 220.0,236.0 217.0,239.0 217.0,246.0 220.0,250.0 222.0,250.0 227.0,244.0 226.0,238.0" fill="#0f203a" />
<polygon points="218.0,369.0 214.0,369.0 211.0,373.0 205.0,369.0 203.0,370.0 205.0,383.0 224.0,383.0" fill="#ebe5e9" opacity="0.95" />
<polygon points="15.0,242.0 11.0,240.0 0.0,240.0 0.0,258.0 13.0,250.0 15.0,246.0" fill="#ccc0bf" opacity="0.95" />
<polygon points="173.0,5.0 176.0,7.0 181.0,4.0 191.0,11.0 195.0,11.0 196.0,4.0 192.0,0.0 174.0,0.0" fill="#790310" opacity="0.95" />
<polygon points="223.0,0.0 217.0,0.0 214.0,3.0 206.0,5.0 203.0,14.0 205.0,15.0 215.0,9.0" fill="#ccc0bf" opacity="0.95" />
<polygon points="205.0,363.0 199.0,366.0 200.0,383.0 204.0,383.0 201.0,373.0 206.0,364.0" fill="#ccc0bf" />
<polygon points="13.0,241.0 0.0,240.0 0.0,258.0 8.0,254.0 15.0,246.0 15.0,243.0" fill="#ccc0bf" opacity="0.95" />
<polygon points="220.0,373.0 217.0,371.0 210.0,375.0 207.0,374.0 204.0,376.0 205.0,383.0 224.0,383.0" fill="#ebe5e9" opacity="0.95" />
<polygon points="173.0,2.0 176.0,6.0 181.0,4.0 192.0,11.0 196.0,6.0 192.0,0.0 174.0,0.0" fill="#790310" opacity="0.95" />
<polygon points="335.0,52.0 332.0,56.0 332.0,64.0 334.0,67.0 337.0,66.0 337.0,62.0 338.0,61.0 337.0,60.0 337.0,55.0" fill="#ccc0bf" />
<polygon points="223.0,236.0 221.0,236.0 217.0,239.0 217.0,246.0 221.0,250.0 227.0,244.0 226.0,238.0" fill="#0f203a" opacity="0.95" />
<polygon points="218.0,4.0 213.0,0.0 211.0,3.0 205.0,6.0 204.0,12.0 207.0,14.0 215.0,9.0 218.0,6.0" fill="#ccc0bf" opacity="0.95" />
<polygon points="223.0,236.0 221.0,236.0 217.0,239.0 217.0,246.0 221.0,250.0 227.0,244.0 226.0,238.0" fill="#0f203a" opacity="0.95" />
<polygon points="335.0,54.0 332.0,56.0 332.0,64.0 333.0,66.0 335.0,67.0 337.0,66.0 337.0,55.0" fill="#ccc0bf" opacity="0.95" />
</svg>