<svg xmlns="http://www.w3.org/2000/svg" width="768" height="768" viewBox="0 0 384 384">
<rect width="384" height="384" fill="#816a69"/>
<polygon points="0.0,128.0 0.0,291.0 19.0,321.0 293.0,321.0 288.0,292.0 348.0,201.0 318.0,127.0" fill="#827c7b" />
<polygon points="0.0,128.0 24.0,321.0 0.0,383.0 383.0,383.0 367.0,326.0 284.0,313.0 347.0,203.0 322.0,129.0" fill="#827c7b" opacity="0.95" />
<polygon points="0.0,128.0 23.0,320.0 0.0,327.0 0.0,383.0 383.0,383.0 365.0,326.0 284.0,312.0 347.0,203.0 320.0,128.0" fill="#827c7b" opacity="0.95" />
<polygon points="0.0,327.0 0.0,383.0 175.0,383.0 176.0,373.0 383.0,383.0 383.0,345.0 367.0,325.0" fill="#827c7b" />
<polygon points="0.0,0.0 2.0,124.0 309.0,121.0 116.0,106.0 150.0,98.0 137.0,76.0 68.0,70.0 25.0,20.0 45.0,0.0" fill="#403f42" />
<polygon points="346.0,83.0 304.0,124.0 331.0,126.0 349.0,201.0 328.0,256.0 289.0,292.0 299.0,320.0 372.0,319.0 383.0,127.0" fill="#645f5f" />
<polygon points="27.0,20.0 71.0,51.0 68.0,69.0 135.0,77.0 131.0,45.0 141.0,19.0 132.0,15.0 151.0,3.0 46.0,0.0" fill="#645f5f" />
<polygon points="0.0,0.0 3.0,124.0 274.0,123.0 243.0,102.0 119.0,107.0 149.0,99.0 139.0,78.0 67.0,69.0 27.0,20.0 44.0,0.0" fill="#403f42" opacity="0.95" />
<polygon points="346.0,83.0 325.0,118.0 309.0,114.0 328.0,126.0 348.0,203.0 327.0,259.0 289.0,292.0 300.0,320.0 370.0,319.0 383.0,127.0" fill="#645f5f" opacity="0.95" />
<polygon points="133.0,41.0 140.0,63.0 193.0,95.0 246.0,69.0 248.0,42.0 228.0,37.0 215.0,61.0 198.0,59.0 176.0,25.0 205.0,20.0 200.0,10.0 172.0,5.0 171.0,24.0" fill="#e9190b" />
<polygon points="309.0,0.0 341.0,51.0 342.0,82.0 369.0,121.0 383.0,126.0 383.0,87.0 361.0,57.0 367.0,27.0 355.0,0.0" fill="#403f42" />
<polygon points="32.0,17.0 69.0,48.0 69.0,69.0 136.0,76.0 139.0,20.0 121.0,12.0 150.0,0.0 45.0,0.0" fill="#645f5f" opacity="0.95" />
<polygon points="0.0,0.0 4.0,124.0 254.0,122.0 222.0,100.0 119.0,107.0 149.0,98.0 139.0,78.0 69.0,70.0 27.0,20.0 44.0,0.0" fill="#403f42" opacity="0.95" />
<polygon points="346.0,83.0 309.0,115.0 334.0,142.0 348.0,203.0 327.0,258.0 289.0,292.0 300.0,320.0 367.0,319.0 383.0,255.0 383.0,127.0" fill="#645f5f" opacity="0.95" />
<polygon points="263.0,43.0 257.0,70.0 304.0,104.0 332.0,101.0 339.0,72.0 328.0,64.0 324.0,77.0 306.0,63.0 297.0,37.0 309.0,27.0 297.0,26.0 277.0,49.0" fill="#e9190b" />
<polygon points="32.0,18.0 71.0,51.0 69.0,69.0 133.0,77.0 134.0,14.0 150.0,0.0 45.0,0.0" fill="#645f5f" opacity="0.95" />
<polygon points="133.0,41.0 140.0,63.0 193.0,95.0 246.0,69.0 246.0,42.0 198.0,59.0 176.0,25.0 207.0,19.0 172.0,5.0 174.0,22.0" fill="#e9190b" opacity="0.95" />
<polygon points="356.0,0.0 368.0,26.0 360.0,48.0 362.0,57.0 383.0,86.0 383.0,0.0" fill="#19171f" />
<polygon points="242.0,0.0 244.0,9.0 263.0,16.0 251.0,29.0 243.0,28.0 256.0,56.0 265.0,37.0 284.0,23.0 322.0,25.0 308.0,0.0" fill="#645f5f" />
<polygon points="310.0,0.0 341.0,51.0 342.0,82.0 369.0,121.0 383.0,126.0 383.0,87.0 361.0,57.0 366.0,26.0 355.0,0.0" fill="#403f42" opacity="0.95" />
<polygon points="263.0,43.0 257.0,70.0 304.0,104.0 332.0,101.0 339.0,71.0 307.0,65.0 297.0,36.0 309.0,27.0 296.0,27.0 277.0,49.0" fill="#e9190b" opacity="0.95" />
<polygon points="133.0,58.0 146.0,80.0 188.0,102.0 228.0,94.0 243.0,76.0 198.0,97.0" fill="#aa090a" />
<polygon points="133.0,41.0 140.0,63.0 193.0,95.0 246.0,69.0 245.0,43.0 198.0,59.0 175.0,21.0 204.0,20.0 200.0,10.0 172.0,5.0 173.0,23.0" fill="#e9190b" opacity="0.95" />
<polygon points="167.0,5.0 154.0,9.0 141.0,21.0 135.0,36.0 142.0,42.0 174.0,20.0" fill="#f56a2e" />
<polygon points="107.0,100.0 175.0,116.0 208.0,112.0 211.0,106.0 180.0,108.0 150.0,93.0 148.0,101.0" fill="#19171f" />
<polygon points="310.0,0.0 341.0,51.0 343.0,80.0 369.0,121.0 383.0,126.0 383.0,87.0 361.0,57.0 366.0,26.0 355.0,0.0" fill="#403f42" opacity="0.95" />
<polygon points="253.0,53.0 242.0,81.0 231.0,96.0 267.0,102.0 270.0,100.0 259.0,84.0" fill="#827c7b" />
<polygon points="262.0,45.0 257.0,69.0 304.0,104.0 332.0,101.0 339.0,72.0 306.0,63.0 297.0,37.0 308.0,27.0 298.0,26.0 277.0,49.0" fill="#e9190b" opacity="0.95" />
<polygon points="243.0,0.0 243.0,7.0 263.0,16.0 245.0,30.0 256.0,53.0 284.0,23.0 321.0,24.0 309.0,0.0" fill="#645f5f" opacity="0.95" />
<polygon points="236.0,110.0 238.0,114.0 258.0,119.0 293.0,120.0 305.0,116.0 267.0,106.0 242.0,106.0" fill="#19171f" />
<polygon points="356.0,0.0 367.0,26.0 361.0,43.0 362.0,57.0 383.0,86.0 383.0,0.0" fill="#19171f" opacity="0.95" />
<polygon points="383.0,255.0 377.0,267.0 368.0,310.0 378.0,320.0 383.0,320.0" fill="#403f42" />
<polygon points="258.0,73.0 266.0,92.0 299.0,112.0 327.0,105.0 301.0,104.0" fill="#aa090a" />
<polygon points="240.0,0.0 263.0,17.0 246.0,31.0 254.0,51.0 284.0,23.0 319.0,22.0 309.0,0.0" fill="#645f5f" opacity="0.95" />
<polygon points="139.0,76.0 154.0,96.0 180.0,107.0 204.0,106.0 225.0,96.0 188.0,103.0" fill="#78090b" />
<polygon points="312.0,39.0 307.0,45.0 306.0,58.0 309.0,65.0 321.0,69.0 324.0,58.0 320.0,42.0" fill="#f6e8e3" />
<polygon points="356.0,0.0 367.0,25.0 361.0,43.0 362.0,57.0 383.0,86.0 383.0,0.0" fill="#19171f" opacity="0.95" />
<polygon points="197.0,27.0 194.0,30.0 194.0,42.0 198.0,55.0 212.0,54.0 214.0,52.0 214.0,44.0 209.0,31.0 206.0,28.0" fill="#f6e8e3" />
<polygon points="134.0,62.0 146.0,80.0 188.0,102.0 227.0,94.0 242.0,78.0 236.0,73.0 198.0,97.0" fill="#aa090a" opacity="0.95" />
<polygon points="109.0,99.0 165.0,115.0 210.0,110.0 208.0,105.0 180.0,108.0 153.0,96.0 147.0,101.0" fill="#19171f" opacity="0.95" />
<polygon points="168.0,6.0 162.0,5.0 150.0,12.0 139.0,24.0 135.0,37.0 142.0,41.0 174.0,21.0" fill="#f56a2e" opacity="0.95" />
<polygon points="252.0,55.0 242.0,81.0 231.0,96.0 266.0,101.0 268.0,98.0 257.0,78.0 256.0,57.0" fill="#827c7b" opacity="0.95" />
<polygon points="236.0,110.0 238.0,114.0 258.0,119.0 303.0,118.0 276.0,107.0 242.0,106.0" fill="#19171f" opacity="0.95" />
<polygon points="265.0,39.0 277.0,48.0 293.0,34.0 276.0,45.0 270.0,42.0 275.0,34.0 307.0,25.0 321.0,36.0 327.0,58.0 331.0,37.0 313.0,24.0 293.0,22.0" fill="#f56a2e" />
<polygon points="245.0,9.0 238.0,20.0 248.0,29.0 251.0,28.0 259.0,18.0 250.0,10.0" fill="#827c7b" />
<polygon points="112.0,99.0 119.0,106.0 165.0,115.0 210.0,110.0 180.0,108.0 154.0,97.0" fill="#19171f" opacity="0.95" />
<polygon points="383.0,255.0 377.0,267.0 368.0,310.0 373.0,318.0 383.0,320.0" fill="#403f42" opacity="0.95" />
<polygon points="258.0,73.0 266.0,92.0 297.0,111.0 325.0,107.0 297.0,102.0" fill="#aa090a" opacity="0.95" />
<polygon points="143.0,81.0 154.0,96.0 180.0,107.0 222.0,99.0 188.0,103.0" fill="#78090b" opacity="0.95" />
<polygon points="253.0,55.0 242.0,81.0 232.0,93.0 235.0,98.0 267.0,98.0 257.0,78.0" fill="#827c7b" opacity="0.95" />
<polygon points="229.0,23.0 227.0,26.0 234.0,45.0 237.0,45.0 244.0,40.0 244.0,35.0 236.0,25.0" fill="#f6e8e3" />
<polygon points="234.0,19.0 223.0,12.0 205.0,21.0 181.0,18.0 177.0,29.0 188.0,36.0 185.0,27.0 189.0,22.0 205.0,21.0 214.0,30.0 216.0,21.0 222.0,28.0 224.0,19.0" fill="#f56a2e" />
<polygon points="135.0,65.0 146.0,80.0 188.0,102.0 200.0,100.0 141.0,64.0" fill="#aa090a" opacity="0.95" />
<polygon points="195.0,28.0 194.0,42.0 198.0,55.0 212.0,54.0 214.0,44.0 209.0,31.0 203.0,27.0" fill="#f6e8e3" opacity="0.95" />
<polygon points="164.0,10.0 166.0,13.0 155.0,27.0 149.0,28.0 147.0,26.0 148.0,19.0 157.0,12.0" fill="#f56a2e" />
<polygon points="266.0,94.0 279.0,108.0 292.0,113.0 299.0,113.0" fill="#78090b" />
<polygon points="5.0,290.0 2.0,295.0 4.0,297.0 2.0,301.0 2.0,319.0 10.0,320.0 17.0,317.0 17.0,311.0 13.0,303.0 8.0,299.0" fill="#645f5f" />
<polygon points="236.0,110.0 241.0,115.0 258.0,119.0 296.0,118.0 276.0,107.0 242.0,106.0" fill="#19171f" opacity="0.95" />
<polygon points="332.0,44.0 331.0,45.0 331.0,65.0 338.0,69.0 339.0,57.0" fill="#f6e8e3" />
<polygon points="312.0,39.0 307.0,45.0 306.0,58.0 309.0,65.0 320.0,68.0 323.0,66.0 323.0,50.0 320.0,42.0" fill="#f6e8e3" opacity="0.95" />
<polygon points="383.0,256.0 377.0,267.0 369.0,305.0 370.0,314.0 379.0,320.0 383.0,320.0" fill="#403f42" opacity="0.95" />
<polygon points="244.0,35.0 231.0,23.0 230.0,37.0 216.0,42.0 207.0,29.0 198.0,27.0 194.0,42.0 198.0,54.0 204.0,56.0 218.0,44.0 224.0,48.0 231.0,42.0 241.0,43.0" fill="#f6e8e3" opacity="0.95" />
<polygon points="258.0,75.0 266.0,92.0 297.0,111.0 318.0,109.0 281.0,93.0 263.0,74.0" fill="#aa090a" opacity="0.95" />
<polygon points="189.0,20.0 176.0,20.0 165.0,5.0 159.0,23.0 151.0,28.0 142.0,20.0 135.0,36.0 142.0,41.0 173.0,21.0 184.0,35.0" fill="#f56a2e" opacity="0.95" />
<polygon points="218.0,25.0 220.0,44.0 223.0,48.0 225.0,48.0 227.0,43.0" fill="#f6e8e3" />
<polygon points="246.0,9.0 240.0,16.0 239.0,21.0 248.0,29.0 258.0,21.0 258.0,17.0" fill="#827c7b" opacity="0.95" />
<polygon points="242.0,74.0 239.0,72.0 205.0,97.0 209.0,99.0 231.0,92.0 242.0,78.0" fill="#aa090a" opacity="0.95" />
<polygon points="145.0,84.0 160.0,100.0 180.0,107.0 188.0,106.0 186.0,102.0 152.0,84.0" fill="#78090b" opacity="0.95" />
<polygon points="218.0,358.0 220.0,360.0 220.0,363.0 217.0,366.0 214.0,366.0 213.0,369.0 210.0,371.0 207.0,368.0 207.0,360.0 209.0,358.0" fill="#827c7b" />
<polygon points="230.0,23.0 228.0,24.0 232.0,42.0 237.0,45.0 244.0,40.0 244.0,35.0 236.0,25.0" fill="#f6e8e3" opacity="0.95" />
<polygon points="165.0,12.0 165.0,15.0 155.0,27.0 150.0,28.0 147.0,26.0 147.0,21.0 150.0,16.0 162.0,10.0" fill="#f56a2e" opacity="0.95" />
<polygon points="312.0,39.0 307.0,45.0 306.0,58.0 309.0,65.0 320.0,68.0 323.0,66.0 323.0,59.0 326.0,56.0 323.0,54.0 320.0,42.0" fill="#f6e8e3" opacity="0.95" />
<polygon points="203.0,9.0 209.0,14.0 206.0,22.0 213.0,27.0 218.0,22.0 232.0,18.0 232.0,15.0 227.0,13.0 214.0,14.0 209.0,8.0" fill="#f56a2e" opacity="0.95" />
<polygon points="288.0,31.0 286.0,30.0 278.0,34.0 272.0,40.0 273.0,43.0 285.0,36.0 288.0,33.0" fill="#fbc1af" />
<polygon points="308.0,24.0 312.0,32.0 321.0,36.0 324.0,48.0 328.0,48.0 330.0,36.0 319.0,27.0" fill="#f56a2e" opacity="0.95" />
<polygon points="165.0,12.0 160.0,12.0 160.0,17.0 156.0,21.0 152.0,19.0 152.0,16.0 148.0,21.0 148.0,26.0 155.0,26.0" fill="#f99f78" />
<polygon points="188.0,0.0 187.0,8.0 188.0,9.0 192.0,7.0 194.0,8.0 197.0,4.0 194.0,0.0" fill="#403f42" />
<polygon points="182.0,18.0 178.0,21.0 177.0,29.0 186.0,36.0 188.0,35.0 186.0,25.0 190.0,22.0 190.0,20.0 187.0,18.0" fill="#f56a2e" opacity="0.95" />
<polygon points="272.0,99.0 279.0,108.0 292.0,113.0 295.0,112.0 295.0,110.0 275.0,98.0" fill="#78090b" opacity="0.95" />
<polygon points="207.0,23.0 206.0,24.0 211.0,29.0 215.0,44.0 217.0,45.0 218.0,44.0 217.0,35.0" fill="#f99f78" />
<polygon points="321.0,40.0 315.0,35.0 307.0,35.0 303.0,44.0 303.0,50.0 305.0,50.0 310.0,39.0 316.0,38.0 320.0,41.0" fill="#fbc1af" />
<polygon points="190.0,28.0 192.0,36.0 193.0,30.0 197.0,26.0 203.0,26.0 209.0,30.0 210.0,29.0 204.0,24.0 193.0,24.0" fill="#fbc1af" />
<polygon points="288.0,31.0 286.0,30.0 278.0,34.0 273.0,39.0 273.0,41.0 275.0,42.0 288.0,34.0" fill="#fbc1af" opacity="0.95" />
<polygon points="200.0,58.0 204.0,60.0 210.0,60.0 215.0,58.0 214.0,57.0 211.0,57.0 210.0,58.0 209.0,57.0 201.0,57.0" fill="#f99f78" />
<polygon points="205.0,4.0 204.0,3.0 202.0,3.0 201.0,4.0 199.0,4.0 197.0,6.0 198.0,7.0 199.0,6.0 202.0,6.0" fill="#fbc1af" />
<polygon points="191.0,23.0 189.0,23.0 186.0,27.0 187.0,30.0 189.0,32.0 190.0,31.0 189.0,28.0 192.0,24.0" fill="#f99f78" />
<polygon points="277.0,103.0 278.0,107.0 283.0,110.0 287.0,111.0 290.0,109.0 289.0,106.0 280.0,101.0" fill="#78090b" opacity="0.95" />
<polygon points="148.0,21.0 148.0,26.0 150.0,27.0 153.0,27.0 157.0,24.0 157.0,22.0 155.0,21.0 153.0,21.0 152.0,20.0" fill="#f99f78" opacity="0.95" />
<polygon points="229.0,20.0 225.0,20.0 223.0,22.0 224.0,23.0 224.0,24.0 225.0,25.0 226.0,25.0 230.0,21.0" fill="#fbc1af" />
<polygon points="158.0,14.0 157.0,15.0 156.0,15.0 153.0,18.0 153.0,19.0 154.0,20.0 156.0,20.0 159.0,17.0 159.0,15.0" fill="#fbc1af" />
<polygon points="151.0,20.0 148.0,22.0 148.0,25.0 151.0,27.0 153.0,27.0 156.0,25.0 156.0,23.0 154.0,21.0" fill="#f99f78" opacity="0.95" />
<polygon points="313.0,36.0 311.0,35.0 308.0,35.0 306.0,36.0 305.0,40.0 307.0,41.0 313.0,38.0" fill="#fbc1af" opacity="0.95" />
</svg>