<svg xmlns="http://www.w3.org/2000/svg" width="768" height="768" viewBox="0 0 384 384">
<rect width="384" height="384" fill="#8a695f"/>
<polygon points="270.0,99.0 240.0,221.0 252.0,383.0 383.0,383.0 383.0,235.0" fill="#a67464" />
<polygon points="127.0,95.0 48.0,120.0 0.0,163.0 0.0,383.0 151.0,383.0 166.0,219.0 98.0,149.0 139.0,149.0" fill="#a67464" />
<polygon points="168.0,219.0 152.0,383.0 251.0,383.0 239.0,222.0" fill="#252c2c" />
<polygon points="210.0,0.0 247.0,20.0 247.0,79.0 268.0,69.0 276.0,113.0 333.0,158.0 383.0,234.0 383.0,0.0" fill="#744c40" />
<polygon points="128.0,96.0 50.0,119.0 9.0,154.0 0.0,383.0 151.0,383.0 166.0,219.0 99.0,150.0 139.0,148.0" fill="#a67464" opacity="0.95" />
<polygon points="270.0,100.0 240.0,221.0 252.0,383.0 383.0,383.0 383.0,235.0" fill="#a67464" opacity="0.95" />
<polygon points="161.0,0.0 0.0,0.0 5.0,165.0 48.0,119.0 130.0,94.0 119.0,49.0 136.0,40.0 152.0,62.0" fill="#744c40" />
<polygon points="128.0,96.0 50.0,119.0 9.0,154.0 0.0,383.0 151.0,383.0 166.0,219.0 99.0,149.0 139.0,146.0" fill="#a67464" opacity="0.95" />
<polygon points="271.0,107.0 240.0,221.0 252.0,383.0 383.0,383.0 383.0,235.0 332.0,158.0" fill="#a67464" opacity="0.95" />
<polygon points="167.0,220.0 152.0,383.0 251.0,383.0 239.0,222.0" fill="#252c2c" opacity="0.95" />
<polygon points="211.0,0.0 247.0,20.0 246.0,76.0 268.0,69.0 276.0,113.0 333.0,158.0 383.0,234.0 383.0,0.0" fill="#744c40" opacity="0.95" />
<polygon points="264.0,134.0 244.0,124.0 247.0,106.0 221.0,105.0 200.0,135.0 195.0,179.0 122.0,143.0 100.0,149.0 167.0,218.0 239.0,220.0" fill="#89d3da" />
<polygon points="0.0,159.0 48.0,119.0 129.0,93.0 119.0,49.0 133.0,39.0 153.0,60.0 161.0,0.0 0.0,0.0" fill="#744c40" opacity="0.95" />
<polygon points="168.0,220.0 152.0,383.0 251.0,383.0 239.0,223.0" fill="#252c2c" opacity="0.95" />
<polygon points="212.0,0.0 247.0,20.0 246.0,71.0 268.0,69.0 276.0,113.0 333.0,158.0 383.0,234.0 383.0,0.0" fill="#744c40" opacity="0.95" />
<polygon points="0.0,158.0 50.0,118.0 123.0,98.0 119.0,49.0 133.0,39.0 153.0,58.0 161.0,0.0 0.0,0.0" fill="#744c40" opacity="0.95" />
<polygon points="264.0,133.0 245.0,125.0 248.0,107.0 220.0,106.0 194.0,179.0 122.0,143.0 100.0,149.0 166.0,217.0 238.0,220.0" fill="#89d3da" opacity="0.95" />
<polygon points="162.0,0.0 154.0,60.0 144.0,58.0 151.0,101.0 183.0,104.0 188.0,10.0 184.0,0.0" fill="#ab5332" />
<polygon points="209.0,0.0 194.0,13.0 185.0,67.0 186.0,105.0 219.0,104.0 216.0,63.0 223.0,22.0" fill="#f4839b" />
<polygon points="122.0,64.0 140.0,151.0 183.0,173.0 178.0,150.0 153.0,115.0 144.0,62.0" fill="#252c2c" />
<polygon points="264.0,134.0 245.0,124.0 247.0,107.0 220.0,106.0 193.0,179.0 122.0,143.0 100.0,149.0 167.0,217.0 237.0,220.0" fill="#89d3da" opacity="0.95" />
<polygon points="232.0,14.0 222.0,26.0 217.0,63.0 220.0,103.0 247.0,105.0 248.0,26.0 243.0,17.0" fill="#dde2e1" />
<polygon points="153.0,106.0 158.0,123.0 183.0,158.0 185.0,174.0 194.0,178.0 198.0,137.0 218.0,107.0" fill="#2a3e6b" />
<polygon points="162.0,0.0 154.0,60.0 145.0,63.0 151.0,101.0 182.0,104.0 188.0,10.0 184.0,0.0" fill="#ab5332" opacity="0.95" />
<polygon points="210.0,0.0 194.0,13.0 185.0,67.0 187.0,105.0 219.0,104.0 216.0,63.0 222.0,18.0" fill="#f4839b" opacity="0.95" />
<polygon points="121.0,66.0 140.0,151.0 184.0,172.0 153.0,115.0 144.0,64.0" fill="#252c2c" opacity="0.95" />
<polygon points="259.0,66.0 252.0,72.0 248.0,84.0 246.0,124.0 264.0,131.0 270.0,76.0 265.0,67.0" fill="#252c2c" />
<polygon points="232.0,14.0 222.0,26.0 217.0,63.0 220.0,103.0 246.0,105.0 248.0,26.0 243.0,17.0" fill="#dde2e1" opacity="0.95" />
<polygon points="152.0,107.0 183.0,158.0 185.0,174.0 195.0,176.0 197.0,140.0 217.0,107.0" fill="#2a3e6b" opacity="0.95" />
<polygon points="162.0,0.0 157.0,48.0 146.0,66.0 151.0,101.0 181.0,104.0 190.0,44.0 184.0,0.0" fill="#ab5332" opacity="0.95" />
<polygon points="123.0,67.0 140.0,151.0 183.0,171.0 153.0,115.0 144.0,65.0" fill="#252c2c" opacity="0.95" />
<polygon points="211.0,0.0 203.0,0.0 194.0,13.0 185.0,67.0 188.0,105.0 219.0,103.0 216.0,63.0 222.0,18.0" fill="#f4839b" opacity="0.95" />
<polygon points="232.0,14.0 222.0,26.0 217.0,63.0 220.0,102.0 245.0,105.0 248.0,26.0 243.0,17.0" fill="#dde2e1" opacity="0.95" />
<polygon points="154.0,107.0 158.0,123.0 183.0,158.0 185.0,173.0 194.0,176.0 198.0,137.0 217.0,108.0" fill="#2a3e6b" opacity="0.95" />
<polygon points="259.0,66.0 252.0,72.0 248.0,84.0 246.0,125.0 263.0,131.0 270.0,76.0 265.0,67.0" fill="#252c2c" opacity="0.95" />
<polygon points="130.0,40.0 122.0,45.0 120.0,59.0 124.0,64.0 132.0,66.0 142.0,61.0 144.0,51.0 138.0,42.0" fill="#f4839b" />
<polygon points="259.0,66.0 252.0,72.0 248.0,84.0 246.0,124.0 262.0,131.0 270.0,76.0 265.0,67.0" fill="#252c2c" opacity="0.95" />
<polygon points="130.0,40.0 122.0,45.0 120.0,59.0 124.0,64.0 132.0,66.0 142.0,61.0 144.0,51.0 138.0,42.0" fill="#f4839b" opacity="0.95" />
<polygon points="199.0,0.0 185.0,0.0 189.0,10.0 189.0,27.0 191.0,31.0 193.0,13.0" fill="#744c40" />
<polygon points="130.0,40.0 122.0,45.0 120.0,59.0 124.0,64.0 132.0,66.0 142.0,61.0 144.0,51.0 138.0,42.0" fill="#f4839b" opacity="0.95" />
<polygon points="199.0,0.0 185.0,0.0 189.0,10.0 189.0,19.0 191.0,20.0 193.0,19.0 193.0,13.0" fill="#744c40" opacity="0.95" />
<polygon points="185.0,0.0 188.0,6.0 188.0,9.0 191.0,11.0 195.0,9.0 199.0,0.0" fill="#744c40" opacity="0.95" />
</svg>