<svg xmlns="http://www.w3.org/2000/svg" width="768" height="768" viewBox="0 0 384 384">
<rect width="384" height="384" fill="#896a5c"/>
<polygon points="167.0,222.0 2.0,227.0 0.0,259.0 34.0,286.0 147.0,286.0 164.0,264.0 159.0,234.0" fill="#bc927f" />
<polygon points="156.0,190.0 147.0,129.0 15.0,132.0 38.0,141.0 33.0,169.0 43.0,186.0" fill="#bc927f" />
<polygon points="182.0,104.0 184.0,215.0 188.0,220.0 217.0,219.0 216.0,104.0" fill="#bad6e4" />
<polygon points="17.0,327.0 39.0,341.0 38.0,354.0 62.0,377.0 157.0,377.0 145.0,357.0 147.0,326.0" fill="#bc927f" />
<polygon points="0.0,87.0 30.0,105.0 2.0,122.0 147.0,118.0 142.0,88.0 29.0,86.0 56.0,45.0 3.0,37.0 83.0,13.0 134.0,55.0 129.0,0.0 26.0,0.0" fill="#503731" />
<polygon points="167.0,223.0 3.0,227.0 0.0,260.0 34.0,286.0 147.0,286.0 164.0,264.0" fill="#bc927f" opacity="0.95" />
<polygon points="0.0,135.0 2.0,185.0 73.0,198.0 2.0,217.0 162.0,217.0 156.0,192.0 43.0,187.0 37.0,141.0" fill="#9e7160" />
<polygon points="383.0,136.0 332.0,126.0 347.0,141.0 309.0,164.0 253.0,132.0 250.0,159.0 284.0,185.0 250.0,196.0 298.0,199.0 250.0,201.0 246.0,217.0 380.0,216.0 304.0,199.0 381.0,194.0" fill="#775145" />
<polygon points="247.0,375.0 314.0,377.0 336.0,357.0 339.0,337.0 355.0,327.0 258.0,326.0 261.0,344.0" fill="#bc927f" />
<polygon points="156.0,190.0 146.0,130.0 26.0,132.0 38.0,141.0 33.0,169.0 46.0,187.0" fill="#bc927f" opacity="0.95" />
<polygon points="263.0,224.0 283.0,233.0 285.0,248.0 315.0,278.0 354.0,269.0 383.0,238.0 381.0,227.0" fill="#bc927f" />
<polygon points="22.0,327.0 62.0,377.0 156.0,378.0 147.0,326.0" fill="#bc927f" opacity="0.95" />
<polygon points="171.0,0.0 156.0,51.0 135.0,34.0 150.0,106.0 182.0,101.0 178.0,11.0" fill="#ed7220" />
<polygon points="166.0,225.0 4.0,227.0 0.0,260.0 34.0,286.0 147.0,286.0 164.0,264.0" fill="#bc927f" opacity="0.95" />
<polygon points="27.0,79.0 55.0,89.0 143.0,86.0 138.0,57.0 116.0,44.0 119.0,35.0 89.0,31.0 99.0,22.0 83.0,14.0 59.0,19.0 71.0,29.0 62.0,33.0 99.0,36.0 49.0,39.0 57.0,45.0" fill="#775145" />
<polygon points="248.0,0.0 250.0,29.0 273.0,10.0 350.0,62.0 344.0,89.0 313.0,99.0 383.0,88.0 381.0,32.0 355.0,30.0 338.0,7.0 293.0,16.0 278.0,0.0" fill="#503731" />
<polygon points="183.0,104.0 184.0,215.0 188.0,220.0 216.0,219.0 216.0,104.0" fill="#bad6e4" opacity="0.95" />
<polygon points="156.0,189.0 145.0,130.0 31.0,133.0 38.0,141.0 33.0,169.0 46.0,187.0" fill="#bc927f" opacity="0.95" />
<polygon points="383.0,136.0 346.0,131.0 309.0,164.0 251.0,133.0 250.0,159.0 284.0,185.0 250.0,192.0 247.0,217.0 382.0,215.0 305.0,198.0 382.0,193.0" fill="#775145" opacity="0.95" />
<polygon points="241.0,225.0 256.0,233.0 252.0,255.0 281.0,286.0 365.0,287.0 383.0,272.0 381.0,239.0 354.0,270.0 315.0,279.0 281.0,232.0" fill="#9e7160" />
<polygon points="143.0,86.0 138.0,57.0 109.0,33.0 53.0,40.0 55.0,48.0 27.0,79.0 55.0,89.0" fill="#775145" opacity="0.95" />
<polygon points="250.0,107.0 252.0,128.0 306.0,144.0 325.0,141.0 325.0,127.0 342.0,123.0" fill="#272122" />
<polygon points="240.0,227.0 247.0,286.0 307.0,293.0 263.0,320.0 382.0,318.0 343.0,295.0 353.0,288.0 273.0,284.0 251.0,255.0 255.0,233.0" fill="#775145" />
<polygon points="9.0,318.0 80.0,319.0 72.0,307.0 84.0,300.0 130.0,305.0 151.0,320.0 160.0,298.0 155.0,290.0 31.0,288.0 35.0,294.0" fill="#775145" />
<polygon points="0.0,135.0 0.0,184.0 72.0,197.0 31.0,216.0 162.0,217.0 155.0,192.0 42.0,186.0 37.0,141.0" fill="#9e7160" opacity="0.95" />
<polygon points="237.0,383.0 356.0,383.0 373.0,363.0 377.0,327.0 342.0,335.0 314.0,378.0 246.0,374.0 260.0,333.0 251.0,326.0" fill="#9e7160" />
<polygon points="249.0,85.0 254.0,100.0 383.0,111.0 381.0,91.0 313.0,100.0" fill="#272122" />
<polygon points="152.0,107.0 157.0,144.0 172.0,159.0 153.0,158.0 152.0,163.0 181.0,179.0 180.0,105.0" fill="#124045" />
<polygon points="8.0,21.0 0.0,87.0 30.0,104.0 0.0,120.0 146.0,116.0 141.0,88.0 26.0,83.0 67.0,14.0 135.0,52.0 129.0,0.0 26.0,0.0" fill="#503731" opacity="0.95" />
<polygon points="200.0,19.0 211.0,57.0 209.0,96.0 240.0,101.0 230.0,81.0 228.0,46.0" fill="#fdb194" />
<polygon points="184.0,104.0 184.0,215.0 188.0,220.0 215.0,219.0 219.0,215.0 216.0,105.0" fill="#bad6e4" opacity="0.95" />
<polygon points="10.0,40.0 0.0,87.0 30.0,105.0 1.0,121.0 84.0,106.0 146.0,117.0 141.0,88.0 29.0,86.0 55.0,44.0" fill="#503731" opacity="0.95" />
<polygon points="0.0,227.0 91.0,230.0 164.0,221.0 0.0,218.0" fill="#e3c6bd" />
<polygon points="162.0,296.0 153.0,324.0 164.0,350.0 195.0,358.0 180.0,345.0 205.0,339.0 216.0,349.0 200.0,357.0 214.0,357.0 228.0,341.0 218.0,331.0 235.0,335.0 239.0,297.0 234.0,311.0 192.0,305.0 162.0,316.0" fill="#122b31" />
<polygon points="170.0,0.0 158.0,48.0 136.0,39.0 151.0,106.0 182.0,101.0 178.0,11.0" fill="#ed7220" opacity="0.95" />
<polygon points="242.0,103.0 219.0,104.0 220.0,187.0 230.0,181.0 222.0,179.0 223.0,172.0 242.0,145.0" fill="#206366" />
<polygon points="279.0,0.0 293.0,15.0 338.0,6.0 359.0,21.0 356.0,29.0 383.0,29.0 383.0,0.0" fill="#272122" />
<polygon points="248.0,0.0 248.0,24.0 273.0,10.0 350.0,62.0 338.0,96.0 383.0,89.0 382.0,33.0 356.0,29.0 337.0,7.0 293.0,16.0 278.0,0.0" fill="#503731" opacity="0.95" />
<polygon points="0.0,331.0 0.0,353.0 22.0,383.0 169.0,383.0 158.0,374.0 141.0,383.0 62.0,378.0 37.0,354.0 33.0,336.0 15.0,326.0" fill="#9e7160" />
<polygon points="192.0,0.0 197.0,100.0 209.0,99.0 210.0,57.0 198.0,22.0 198.0,0.0" fill="#e3c6bd" />
<polygon points="200.0,0.0 201.0,19.0 229.0,46.0 231.0,81.0 247.0,102.0 244.0,37.0 231.0,16.0 205.0,17.0" fill="#fa9965" />
<polygon points="347.0,138.0 329.0,126.0 328.0,139.0 318.0,145.0 251.0,130.0 281.0,153.0 309.0,163.0 327.0,158.0" fill="#503731" />
<polygon points="137.0,0.0 131.0,5.0 136.0,32.0 146.0,46.0 156.0,50.0 156.0,36.0 164.0,23.0 167.0,0.0" fill="#c34b14" />
<polygon points="254.0,221.0 324.0,228.0 383.0,227.0 383.0,219.0" fill="#e3c6bd" />
<polygon points="155.0,163.0 153.0,170.0 162.0,204.0 169.0,211.0 181.0,211.0 183.0,182.0 171.0,171.0" fill="#206366" />
<polygon points="191.0,0.0 180.0,4.0 187.0,102.0 196.0,100.0 189.0,24.0" fill="#fdb194" />
<polygon points="241.0,303.0 233.0,311.0 156.0,310.0 162.0,349.0 178.0,356.0 183.0,342.0 205.0,339.0 219.0,355.0 237.0,331.0" fill="#122b31" opacity="0.95" />
<polygon points="251.0,225.0 252.0,255.0 281.0,286.0 365.0,287.0 383.0,273.0 380.0,242.0 343.0,276.0 311.0,278.0 281.0,232.0" fill="#9e7160" opacity="0.95" />
<polygon points="248.0,34.0 248.0,70.0 273.0,89.0 303.0,96.0 343.0,89.0 343.0,72.0 323.0,89.0 287.0,85.0" fill="#88331d" />
<polygon points="247.0,161.0 231.0,181.0 220.0,189.0 223.0,211.0 240.0,207.0 247.0,198.0" fill="#63a0a9" />
<polygon points="383.0,136.0 350.0,132.0 309.0,164.0 252.0,134.0 250.0,159.0 284.0,185.0 251.0,192.0 247.0,216.0 367.0,215.0 326.0,204.0 334.0,192.0 318.0,185.0 364.0,171.0 354.0,194.0 382.0,193.0" fill="#775145" opacity="0.95" />
<polygon points="60.0,78.0 70.0,66.0 89.0,61.0 106.0,67.0 114.0,80.0 108.0,85.0 85.0,87.0 63.0,84.0" fill="#775145" />
<polygon points="171.0,2.0 158.0,47.0 137.0,44.0 152.0,106.0 182.0,100.0 178.0,11.0" fill="#ed7220" opacity="0.95" />
<polygon points="0.0,131.0 148.0,127.0 0.0,126.0" fill="#e3c6bd" />
<polygon points="244.0,319.0 260.0,319.0 306.0,293.0 246.0,287.0 247.0,293.0 259.0,299.0 246.0,306.0" fill="#503731" />
<polygon points="238.0,294.0 217.0,274.0 217.0,283.0 229.0,290.0 226.0,298.0 195.0,280.0 167.0,293.0 161.0,314.0 192.0,304.0 234.0,310.0" fill="#124045" />
<polygon points="7.0,23.0 14.0,35.0 68.0,28.0 56.0,20.0 83.0,13.0 99.0,20.0 92.0,30.0 121.0,35.0 117.0,44.0 136.0,53.0 129.0,0.0 26.0,0.0" fill="#503731" opacity="0.95" />
<polygon points="260.0,46.0 267.0,62.0 284.0,82.0 298.0,88.0 317.0,87.0" fill="#c34b14" />
<polygon points="10.0,318.0 79.0,319.0 73.0,304.0 127.0,305.0 126.0,313.0 138.0,309.0 150.0,320.0 159.0,295.0 34.0,288.0" fill="#775145" opacity="0.95" />
<polygon points="250.0,107.0 251.0,127.0 306.0,144.0 325.0,141.0 325.0,127.0 333.0,124.0" fill="#272122" opacity="0.95" />
<polygon points="61.0,78.0 63.0,83.0 85.0,86.0 108.0,84.0 113.0,80.0 106.0,68.0 89.0,62.0 70.0,67.0" fill="#9e7160" />
<polygon points="248.0,0.0 249.0,22.0 273.0,10.0 343.0,55.0 345.0,92.0 383.0,89.0 382.0,33.0 356.0,37.0 358.0,21.0 337.0,7.0 293.0,16.0 278.0,0.0" fill="#503731" opacity="0.95" />
<polygon points="0.0,321.0 0.0,325.0 151.0,324.0" fill="#faf6f3" />
<polygon points="204.0,0.0 205.0,16.0 231.0,15.0 243.0,33.0 246.0,70.0 242.0,6.0" fill="#ed7220" />
<polygon points="154.0,315.0 163.0,349.0 176.0,354.0 183.0,342.0 215.0,343.0 217.0,356.0 235.0,335.0 241.0,310.0 192.0,305.0" fill="#122b31" opacity="0.95" />
<polygon points="241.0,103.0 219.0,104.0 221.0,176.0 242.0,145.0 244.0,113.0" fill="#206366" opacity="0.95" />
<polygon points="0.0,317.0 7.0,319.0 34.0,293.0 27.0,289.0 2.0,288.0 0.0,290.0" fill="#503731" />
<polygon points="213.0,231.0 218.0,245.0 213.0,251.0 222.0,258.0 220.0,266.0 242.0,290.0 243.0,277.0 234.0,243.0" fill="#122b31" />
<polygon points="254.0,227.0 252.0,255.0 281.0,286.0 365.0,287.0 383.0,273.0 379.0,243.0 343.0,276.0 311.0,278.0 281.0,232.0" fill="#9e7160" opacity="0.95" />
<polygon points="245.0,323.0 383.0,325.0 383.0,321.0" fill="#faf6f3" />
<polygon points="27.0,79.0 62.0,89.0 67.0,69.0 89.0,61.0 113.0,75.0 109.0,90.0 143.0,85.0 118.0,35.0 82.0,36.0 98.0,23.0 83.0,14.0 57.0,21.0 75.0,36.0 57.0,40.0" fill="#775145" opacity="0.95" />
<polygon points="249.0,85.0 254.0,100.0 383.0,111.0 380.0,92.0 313.0,100.0" fill="#272122" opacity="0.95" />
<polygon points="153.0,107.0 157.0,144.0 171.0,160.0 154.0,158.0 152.0,162.0 180.0,178.0 180.0,105.0" fill="#124045" opacity="0.95" />
<polygon points="375.0,327.0 341.0,336.0 337.0,357.0 314.0,378.0 254.0,380.0 244.0,373.0 237.0,383.0 356.0,383.0 373.0,363.0" fill="#9e7160" opacity="0.95" />
<polygon points="250.0,108.0 254.0,128.0 306.0,144.0 328.0,137.0 329.0,122.0" fill="#272122" opacity="0.95" />
<polygon points="0.0,331.0 0.0,354.0 13.0,361.0 22.0,383.0 102.0,383.0 56.0,375.0 37.0,354.0 35.0,337.0 14.0,326.0" fill="#9e7160" opacity="0.95" />
<polygon points="202.0,21.0 211.0,57.0 209.0,96.0 238.0,101.0 230.0,81.0 228.0,46.0" fill="#fdb194" opacity="0.95" />
<polygon points="0.0,227.0 91.0,230.0 159.0,220.0 0.0,218.0" fill="#e3c6bd" opacity="0.95" />
<polygon points="279.0,0.0 293.0,15.0 337.0,6.0 359.0,21.0 356.0,28.0 383.0,29.0 383.0,0.0" fill="#272122" opacity="0.95" />
<polygon points="248.0,360.0 231.0,371.0 210.0,375.0 170.0,373.0 150.0,362.0 174.0,383.0 227.0,383.0" fill="#272122" />
<polygon points="201.0,17.0 229.0,46.0 231.0,81.0 241.0,99.0 248.0,100.0 242.0,33.0 230.0,16.0" fill="#fa9965" opacity="0.95" />
<polygon points="154.0,164.0 162.0,204.0 169.0,211.0 183.0,210.0 183.0,181.0 163.0,166.0" fill="#206366" opacity="0.95" />
<polygon points="191.0,0.0 180.0,4.0 187.0,102.0 196.0,100.0" fill="#fdb194" opacity="0.95" />
<polygon points="192.0,0.0 197.0,100.0 209.0,99.0 210.0,57.0 198.0,22.0 197.0,0.0" fill="#e3c6bd" opacity="0.95" />
<polygon points="247.0,346.0 239.0,328.0 232.0,340.0 240.0,346.0 233.0,353.0 228.0,343.0 208.0,359.0 160.0,352.0 148.0,339.0 150.0,353.0 173.0,365.0 228.0,364.0" fill="#272122" />
<polygon points="0.0,92.0 0.0,110.0 2.0,112.0 29.0,105.0 29.0,96.0 25.0,93.0 4.0,90.0" fill="#272122" />
<polygon points="154.0,107.0 154.0,135.0 170.0,157.0 164.0,166.0 179.0,177.0 180.0,106.0" fill="#124045" opacity="0.95" />
<polygon points="271.0,220.0 306.0,227.0 383.0,227.0 383.0,219.0" fill="#e3c6bd" opacity="0.95" />
<polygon points="161.0,313.0 192.0,304.0 233.0,310.0 237.0,293.0 230.0,286.0 226.0,298.0 194.0,282.0 167.0,293.0" fill="#124045" opacity="0.95" />
<polygon points="246.0,163.0 220.0,189.0 221.0,207.0 224.0,211.0 240.0,207.0 247.0,198.0" fill="#63a0a9" opacity="0.95" />
<polygon points="248.0,39.0 248.0,70.0 273.0,89.0 303.0,96.0 343.0,89.0 342.0,72.0 323.0,89.0 287.0,85.0" fill="#88331d" opacity="0.95" />
<polygon points="240.0,103.0 219.0,105.0 218.0,165.0 222.0,171.0 242.0,145.0 244.0,113.0" fill="#206366" opacity="0.95" />
<polygon points="176.0,0.0 134.0,3.0 133.0,23.0 146.0,46.0 157.0,48.0 156.0,36.0 164.0,23.0 168.0,1.0" fill="#c34b14" opacity="0.95" />
<polygon points="148.0,108.0 152.0,156.0 170.0,161.0 156.0,144.0" fill="#122b31" />
<polygon points="261.0,48.0 284.0,82.0 298.0,88.0 315.0,87.0 293.0,67.0" fill="#c34b14" opacity="0.95" />
<polygon points="195.0,3.0 190.0,24.0 197.0,99.0 205.0,101.0 210.0,57.0" fill="#e3c6bd" opacity="0.95" />
<polygon points="209.0,17.0 213.0,33.0 229.0,46.0 231.0,81.0 245.0,101.0 243.0,35.0 231.0,17.0" fill="#fa9965" opacity="0.95" />
<polygon points="180.0,235.0 172.0,243.0 159.0,291.0 172.0,278.0 175.0,281.0 184.0,274.0 175.0,274.0 178.0,257.0 184.0,254.0 177.0,246.0" fill="#122b31" />
<polygon points="204.0,22.0 201.0,26.0 211.0,57.0 209.0,96.0 237.0,101.0 240.0,97.0 229.0,75.0 228.0,46.0" fill="#fdb194" opacity="0.95" />
<polygon points="261.0,35.0 272.0,49.0 300.0,65.0 293.0,59.0 295.0,56.0 323.0,54.0 298.0,54.0 273.0,35.0" fill="#e3c6bd" />
<polygon points="155.0,164.0 154.0,175.0 162.0,204.0 169.0,211.0 182.0,210.0 183.0,182.0 168.0,169.0" fill="#206366" opacity="0.95" />
<polygon points="161.0,313.0 192.0,304.0 232.0,310.0 237.0,293.0 223.0,297.0 213.0,287.0 194.0,282.0 168.0,293.0" fill="#124045" opacity="0.95" />
<polygon points="0.0,218.0 0.0,227.0 49.0,231.0 109.0,226.0 106.0,222.0" fill="#e3c6bd" opacity="0.95" />
<polygon points="245.0,164.0 220.0,190.0 221.0,207.0 225.0,211.0 240.0,207.0 247.0,198.0 248.0,166.0" fill="#63a0a9" opacity="0.95" />
<polygon points="218.0,234.0 222.0,260.0 211.0,262.0 229.0,269.0 218.0,279.0 224.0,284.0 233.0,279.0 241.0,288.0 234.0,243.0" fill="#122b31" opacity="0.95" />
<polygon points="136.0,0.0 132.0,9.0 136.0,32.0 146.0,46.0 154.0,49.0 157.0,47.0 159.0,27.0 164.0,23.0 167.0,0.0" fill="#c34b14" opacity="0.95" />
<polygon points="247.0,103.0 244.0,104.0 243.0,145.0 228.0,164.0 223.0,176.0 225.0,181.0 235.0,172.0 230.0,170.0 249.0,148.0" fill="#124045" />
<polygon points="248.0,41.0 248.0,70.0 273.0,89.0 303.0,96.0 343.0,89.0 342.0,72.0 323.0,89.0 287.0,85.0 258.0,44.0" fill="#88331d" opacity="0.95" />
<polygon points="253.0,322.0 383.0,325.0 383.0,321.0" fill="#faf6f3" opacity="0.95" />
<polygon points="340.0,56.0 329.0,54.0 294.0,59.0 303.0,64.0 320.0,65.0 325.0,69.0 325.0,74.0 330.0,65.0 340.0,60.0" fill="#faf6f3" />
<polygon points="205.0,0.0 204.0,15.0 230.0,15.0 234.0,24.0 246.0,32.0 246.0,17.0 240.0,4.0" fill="#ed7220" opacity="0.95" />
<polygon points="179.0,235.0 172.0,243.0 160.0,290.0 169.0,284.0 179.0,265.0" fill="#122b31" opacity="0.95" />
<polygon points="184.0,0.0 180.0,17.0 187.0,59.0 185.0,99.0 193.0,101.0 196.0,81.0 189.0,24.0 191.0,0.0" fill="#fdb194" opacity="0.95" />
<polygon points="263.0,52.0 272.0,69.0 287.0,84.0 307.0,89.0 315.0,86.0 266.0,50.0" fill="#c34b14" opacity="0.95" />
<polygon points="67.0,322.0 69.0,325.0 151.0,324.0 149.0,321.0" fill="#faf6f3" opacity="0.95" />
<polygon points="219.0,234.0 216.0,241.0 222.0,257.0 220.0,266.0 227.0,268.0 227.0,276.0 240.0,286.0 243.0,277.0 235.0,263.0 234.0,243.0" fill="#122b31" opacity="0.95" />
<polygon points="47.0,220.0 71.0,222.0 102.0,221.0 101.0,219.0" fill="#faf6f3" />
<polygon points="340.0,56.0 329.0,54.0 309.0,58.0 297.0,57.0 295.0,60.0 326.0,68.0 337.0,63.0" fill="#faf6f3" opacity="0.95" />
<polygon points="205.0,0.0 205.0,15.0 227.0,14.0 234.0,19.0 238.0,28.0 246.0,29.0 243.0,8.0 235.0,0.0 228.0,0.0 224.0,4.0 219.0,0.0" fill="#ed7220" opacity="0.95" />
<polygon points="203.0,283.0 213.0,286.0 223.0,296.0 226.0,297.0 229.0,293.0 227.0,289.0 218.0,285.0 214.0,279.0" fill="#206366" />
<polygon points="246.0,125.0 243.0,145.0 224.0,172.0 223.0,179.0 226.0,181.0 232.0,176.0 230.0,169.0 249.0,149.0 249.0,129.0" fill="#124045" opacity="0.95" />
<polygon points="174.0,244.0 171.0,246.0 166.0,274.0 159.0,283.0 162.0,288.0 175.0,275.0 179.0,265.0 181.0,250.0" fill="#122b31" opacity="0.95" />
<polygon points="340.0,57.0 336.0,54.0 303.0,58.0 300.0,62.0 326.0,68.0 337.0,63.0" fill="#faf6f3" opacity="0.95" />
<polygon points="161.0,206.0 162.0,213.0 164.0,216.0 182.0,216.0 183.0,215.0 182.0,212.0 169.0,212.0 162.0,205.0" fill="#124045" />
<polygon points="270.0,108.0 271.0,109.0 276.0,109.0 282.0,111.0 286.0,106.0 285.0,105.0 277.0,105.0 275.0,104.0" fill="#fa9965" />
<polygon points="244.0,206.0 243.0,205.0 233.0,211.0 220.0,212.0 222.0,215.0 231.0,214.0 239.0,211.0" fill="#206366" />
<polygon points="220.0,0.0 222.0,3.0 233.0,1.0 239.0,2.0 246.0,12.0 245.0,15.0 247.0,15.0 245.0,11.0 246.0,0.0" fill="#c34b14" />
<polygon points="284.0,110.0 289.0,112.0 294.0,112.0 297.0,108.0 293.0,106.0 288.0,106.0 286.0,107.0" fill="#fdb194" />
<polygon points="162.0,175.0 167.0,179.0 167.0,187.0 168.0,189.0 166.0,191.0 164.0,189.0 163.0,184.0 161.0,181.0 161.0,178.0 160.0,177.0" fill="#206366" />
<polygon points="206.0,239.0 205.0,238.0 201.0,239.0 204.0,242.0 202.0,244.0 198.0,244.0 194.0,242.0 193.0,248.0 196.0,249.0 206.0,246.0 203.0,243.0" fill="#bad6e4" />
<polygon points="208.0,282.0 208.0,284.0 213.0,286.0 221.0,295.0 228.0,296.0 227.0,289.0 218.0,285.0 213.0,280.0" fill="#206366" opacity="0.95" />
<polygon points="186.0,347.0 186.0,352.0 189.0,354.0 194.0,354.0 195.0,353.0 192.0,350.0 192.0,348.0 195.0,345.0 194.0,344.0 190.0,344.0" fill="#63a0a9" />
<polygon points="206.0,344.0 202.0,344.0 201.0,345.0 203.0,348.0 200.0,353.0 201.0,354.0 204.0,354.0 208.0,351.0 209.0,347.0" fill="#63a0a9" />
<polygon points="202.0,235.0 199.0,233.0 196.0,233.0 193.0,238.0 195.0,239.0 198.0,237.0 200.0,237.0" fill="#63a0a9" />
<polygon points="202.0,348.0 198.0,345.0 197.0,346.0 195.0,346.0 193.0,348.0 193.0,350.0 195.0,352.0 200.0,352.0" fill="#bad6e4" />
<polygon points="291.0,65.0 303.0,75.0 308.0,78.0 309.0,77.0 301.0,70.0 292.0,64.0" fill="#ed7220" />
<polygon points="162.0,210.0 162.0,213.0 165.0,216.0 183.0,215.0 183.0,213.0 181.0,212.0 169.0,212.0 164.0,209.0" fill="#124045" opacity="0.95" />
<polygon points="279.0,16.0 278.0,17.0 279.0,20.0 288.0,29.0 289.0,28.0 288.0,26.0" fill="#88331d" />
<polygon points="162.0,176.0 161.0,177.0 162.0,178.0 162.0,181.0 166.0,190.0 167.0,189.0 166.0,187.0 166.0,179.0" fill="#63a0a9" />
<polygon points="245.0,43.0 243.0,44.0 242.0,47.0 242.0,57.0 243.0,58.0 243.0,62.0 245.0,63.0 247.0,62.0 247.0,44.0" fill="#ed7220" opacity="0.95" />
<polygon points="327.0,114.0 327.0,116.0 329.0,119.0 335.0,119.0 336.0,118.0 336.0,116.0 333.0,114.0 330.0,114.0 329.0,113.0" fill="#fa9965" />
<polygon points="211.0,276.0 210.0,275.0 207.0,275.0 206.0,274.0 202.0,276.0 202.0,279.0 203.0,280.0 207.0,280.0 208.0,279.0 210.0,279.0 211.0,278.0" fill="#bad6e4" />
<polygon points="203.0,368.0 204.0,369.0 204.0,371.0 206.0,373.0 212.0,373.0 213.0,372.0 213.0,370.0 210.0,367.0 208.0,367.0 207.0,368.0 204.0,367.0" fill="#fdb194" />
<polygon points="220.0,0.0 223.0,3.0 234.0,1.0 244.0,6.0 246.0,5.0 246.0,0.0" fill="#c34b14" opacity="0.95" />
<polygon points="299.0,68.0 305.0,72.0 311.0,78.0 312.0,77.0 308.0,72.0 300.0,67.0" fill="#fa9965" />
<polygon points="318.0,113.0 318.0,116.0 319.0,117.0 321.0,117.0 322.0,118.0 326.0,118.0 327.0,117.0 326.0,116.0 326.0,114.0 323.0,112.0 319.0,112.0" fill="#fdb194" />
<polygon points="254.0,104.0 256.0,106.0 258.0,106.0 259.0,107.0 262.0,104.0 260.0,102.0 256.0,102.0" fill="#88331d" />
<polygon points="193.0,243.0 193.0,248.0 195.0,249.0 204.0,247.0 204.0,245.0 202.0,244.0 198.0,244.0 195.0,242.0" fill="#bad6e4" opacity="0.95" />
<polygon points="209.0,247.0 208.0,246.0 204.0,249.0 203.0,248.0 202.0,249.0 197.0,249.0 194.0,252.0 198.0,253.0 201.0,252.0 204.0,249.0 205.0,250.0 207.0,248.0 208.0,249.0" fill="#63a0a9" />
<polygon points="191.0,344.0 186.0,346.0 186.0,352.0 189.0,354.0 193.0,353.0 192.0,350.0 193.0,345.0" fill="#63a0a9" opacity="0.95" />
<polygon points="212.0,368.0 214.0,370.0 214.0,372.0 215.0,373.0 219.0,371.0 216.0,367.0 213.0,367.0" fill="#fa9965" />
<polygon points="205.0,344.0 202.0,345.0 202.0,353.0 204.0,354.0 208.0,351.0 208.0,346.0" fill="#63a0a9" opacity="0.95" />
<polygon points="337.0,73.0 333.0,77.0 332.0,80.0 330.0,82.0 331.0,83.0 338.0,75.0" fill="#c34b14" />
<polygon points="184.0,51.0 183.0,52.0 184.0,53.0 183.0,54.0 183.0,64.0 185.0,65.0 186.0,64.0 186.0,59.0 185.0,58.0 185.0,54.0 184.0,53.0 185.0,52.0" fill="#fa9965" />
<polygon points="272.0,106.0 272.0,108.0 277.0,110.0 282.0,110.0 284.0,109.0 284.0,106.0 282.0,105.0 277.0,105.0 275.0,104.0" fill="#fa9965" opacity="0.95" />
<polygon points="211.0,276.0 206.0,274.0 202.0,276.0 202.0,279.0 207.0,280.0 211.0,278.0" fill="#bad6e4" opacity="0.95" />
<polygon points="174.0,369.0 174.0,371.0 175.0,372.0 179.0,372.0 180.0,371.0 180.0,369.0 179.0,368.0 175.0,368.0" fill="#fa9965" />
<polygon points="285.0,108.0 285.0,110.0 289.0,112.0 293.0,112.0 295.0,111.0 295.0,107.0 293.0,106.0 288.0,106.0" fill="#fdb194" opacity="0.95" />
<polygon points="198.0,345.0 193.0,348.0 193.0,350.0 196.0,352.0 199.0,352.0 201.0,351.0 201.0,347.0" fill="#bad6e4" opacity="0.95" />
<polygon points="198.0,345.0 193.0,348.0 193.0,350.0 196.0,352.0 198.0,352.0 201.0,350.0 201.0,347.0" fill="#bad6e4" opacity="0.95" />
<polygon points="237.0,0.0 238.0,2.0 239.0,2.0 243.0,5.0 246.0,3.0 246.0,0.0" fill="#c34b14" opacity="0.95" />
<polygon points="255.0,103.0 255.0,105.0 256.0,105.0 257.0,106.0 259.0,106.0 260.0,105.0 261.0,105.0 261.0,103.0 260.0,103.0 259.0,102.0 257.0,102.0 256.0,103.0" fill="#88331d" opacity="0.95" />
</svg>