<svg xmlns="http://www.w3.org/2000/svg" width="768" height="768" viewBox="0 0 384 384">
<rect width="384" height="384" fill="#8c6a61"/>
<polygon points="0.0,0.0 0.0,383.0 383.0,383.0 383.0,130.0 208.0,239.0 147.0,216.0 278.0,0.0" fill="#946356" />
<polygon points="0.0,0.0 0.0,383.0 383.0,383.0 383.0,131.0 208.0,239.0 147.0,216.0 278.0,0.0" fill="#946356" opacity="0.95" />
<polygon points="0.0,0.0 0.0,383.0 383.0,383.0 383.0,131.0 208.0,239.0 147.0,216.0 278.0,0.0" fill="#946356" opacity="0.95" />
<polygon points="383.0,0.0 279.0,1.0 291.0,30.0 334.0,32.0 371.0,104.0 166.0,237.0 229.0,229.0 383.0,129.0" fill="#1f1624" />
<polygon points="383.0,0.0 279.0,0.0 286.0,27.0 334.0,33.0 371.0,104.0 166.0,237.0 229.0,229.0 383.0,130.0" fill="#1f1624" opacity="0.95" />
<polygon points="366.0,87.0 215.0,214.0 251.0,200.0 363.0,114.0" fill="#c4c4c2" />
<polygon points="383.0,0.0 279.0,0.0 286.0,27.0 333.0,35.0 371.0,104.0 169.0,239.0 247.0,220.0 383.0,130.0" fill="#1f1624" opacity="0.95" />
<polygon points="194.0,150.0 158.0,184.0 150.0,208.0 156.0,203.0 185.0,202.0 206.0,183.0 209.0,174.0" fill="#ade4e8" />
<polygon points="275.0,19.0 253.0,69.0 279.0,89.0 282.0,102.0 307.0,96.0 297.0,95.0 293.0,83.0 315.0,78.0 322.0,53.0 299.0,50.0 303.0,37.0" fill="#da9e7f" />
<polygon points="312.0,122.0 266.0,115.0 218.0,187.0 176.0,206.0 229.0,186.0 272.0,126.0 223.0,199.0 151.0,218.0 219.0,207.0" fill="#05bdc2" />
<polygon points="276.0,124.0 229.0,187.0 149.0,211.0 172.0,218.0 223.0,198.0 263.0,155.0" fill="#3ed6d9" />
<polygon points="367.0,90.0 217.0,213.0 363.0,114.0" fill="#c4c4c2" opacity="0.95" />
<polygon points="276.0,20.0 253.0,70.0 291.0,102.0 303.0,98.0 293.0,83.0 315.0,78.0 321.0,51.0 299.0,50.0 302.0,36.0" fill="#da9e7f" opacity="0.95" />
<polygon points="195.0,151.0 170.0,169.0 149.0,207.0 179.0,204.0 198.0,193.0 208.0,173.0" fill="#ade4e8" opacity="0.95" />
<polygon points="232.0,87.0 195.0,146.0 209.0,169.0 209.0,145.0 225.0,150.0 221.0,135.0 239.0,138.0 226.0,127.0 238.0,124.0 231.0,117.0 244.0,124.0 251.0,117.0 241.0,108.0 258.0,107.0" fill="#e4ebeb" />
<polygon points="311.0,121.0 266.0,115.0 241.0,150.0 227.0,144.0 227.0,187.0 270.0,137.0 223.0,199.0 151.0,218.0 219.0,207.0" fill="#05bdc2" opacity="0.95" />
<polygon points="368.0,93.0 220.0,212.0 251.0,200.0 363.0,114.0" fill="#c4c4c2" opacity="0.95" />
<polygon points="276.0,20.0 253.0,69.0 291.0,102.0 299.0,98.0 293.0,83.0 315.0,78.0 321.0,51.0 300.0,50.0 302.0,37.0" fill="#da9e7f" opacity="0.95" />
<polygon points="195.0,152.0 170.0,169.0 152.0,202.0 179.0,204.0 202.0,188.0 208.0,173.0" fill="#ade4e8" opacity="0.95" />
<polygon points="232.0,88.0 195.0,146.0 207.0,168.0 210.0,146.0 236.0,138.0 231.0,116.0 248.0,119.0 243.0,109.0 257.0,108.0" fill="#e4ebeb" opacity="0.95" />
<polygon points="269.0,135.0 231.0,186.0 150.0,212.0 172.0,218.0 217.0,202.0 260.0,159.0" fill="#3ed6d9" opacity="0.95" />
<polygon points="311.0,121.0 268.0,114.0 241.0,150.0 230.0,141.0 229.0,181.0 260.0,138.0 269.0,146.0 225.0,199.0" fill="#05bdc2" opacity="0.95" />
<polygon points="231.0,89.0 195.0,146.0 203.0,161.0 237.0,125.0 232.0,117.0 247.0,118.0 253.0,106.0" fill="#e4ebeb" opacity="0.95" />
<polygon points="245.0,140.0 237.0,143.0 230.0,156.0 211.0,161.0 217.0,171.0 194.0,198.0 222.0,179.0" fill="#3ed6d9" />
<polygon points="346.0,59.0 345.0,75.0 336.0,91.0 342.0,102.0 350.0,95.0 356.0,75.0" fill="#e4ebeb" />
<polygon points="317.0,127.0 293.0,142.0 263.0,173.0" fill="#27535e" />
<polygon points="334.0,93.0 319.0,109.0 324.0,118.0 328.0,117.0 342.0,106.0" fill="#f8706a" />
<polygon points="313.0,125.0 285.0,145.0 248.0,185.0" fill="#0c8995" />
<polygon points="247.0,73.0 241.0,80.0 238.0,90.0 250.0,100.0 252.0,98.0 257.0,100.0 255.0,90.0 261.0,83.0" fill="#3ed6d9" />
<polygon points="223.0,216.0 204.0,218.0 173.0,229.0 196.0,228.0" fill="#9b8e8d" />
<polygon points="313.0,103.0 310.0,97.0 281.0,105.0 276.0,99.0 261.0,100.0 276.0,103.0 281.0,113.0 303.0,114.0" fill="#e4ebeb" />
<polygon points="304.0,37.0 299.0,49.0 315.0,46.0 322.0,49.0 315.0,81.0 323.0,77.0 328.0,57.0 319.0,41.0" fill="#946356" />
<polygon points="383.0,52.0 376.0,72.0 383.0,94.0" fill="#6f4744" />
<polygon points="233.0,156.0 212.0,161.0 217.0,171.0 208.0,176.0 201.0,192.0 222.0,179.0" fill="#3ed6d9" opacity="0.95" />
<polygon points="228.0,191.0 180.0,209.0 155.0,207.0 151.0,212.0 162.0,218.0 185.0,215.0 217.0,202.0" fill="#3ed6d9" opacity="0.95" />
<polygon points="336.0,53.0 328.0,69.0 342.0,61.0 346.0,66.0 337.0,94.0 342.0,101.0 354.0,101.0 362.0,88.0 354.0,87.0 353.0,67.0" fill="#e4ebeb" opacity="0.95" />
<polygon points="338.0,71.0 328.0,76.0 328.0,84.0 324.0,88.0 312.0,94.0 314.0,101.0 335.0,82.0" fill="#f8706a" />
<polygon points="248.0,73.0 241.0,80.0 238.0,90.0 245.0,97.0 254.0,98.0 256.0,97.0 256.0,87.0 260.0,82.0" fill="#3ed6d9" opacity="0.95" />
<polygon points="256.0,90.0 256.0,94.0 259.0,98.0 268.0,96.0 275.0,92.0 274.0,89.0 263.0,84.0 259.0,85.0" fill="#05bdc2" />
<polygon points="335.0,83.0 315.0,102.0 315.0,106.0 317.0,109.0 334.0,92.0 336.0,84.0" fill="#522b32" />
<polygon points="334.0,94.0 320.0,108.0 325.0,118.0 341.0,107.0 339.0,100.0" fill="#f8706a" opacity="0.95" />
<polygon points="267.0,137.0 263.0,137.0 238.0,169.0 234.0,176.0 235.0,183.0 239.0,183.0 263.0,155.0 268.0,146.0" fill="#3ed6d9" opacity="0.95" />
<polygon points="242.0,108.0 257.0,121.0 275.0,110.0 268.0,108.0 262.0,114.0 257.0,114.0" fill="#3ed6d9" />
<polygon points="312.0,104.0 309.0,97.0 282.0,105.0 276.0,99.0 262.0,99.0 265.0,103.0 278.0,104.0 281.0,113.0 303.0,114.0" fill="#e4ebeb" opacity="0.95" />
<polygon points="221.0,216.0 204.0,218.0 183.0,226.0 183.0,229.0 208.0,224.0" fill="#9b8e8d" opacity="0.95" />
<polygon points="318.0,111.0 315.0,111.0 312.0,114.0 308.0,115.0 315.0,125.0 323.0,119.0" fill="#e4ebeb" />
<polygon points="357.0,78.0 351.0,95.0 342.0,103.0 344.0,108.0 350.0,102.0 360.0,84.0" fill="#c4c4c2" />
<polygon points="315.0,129.0 312.0,128.0 303.0,134.0 280.0,156.0 284.0,156.0 311.0,135.0" fill="#27535e" opacity="0.95" />
<polygon points="349.0,64.0 346.0,66.0 345.0,75.0 337.0,90.0 339.0,98.0 343.0,101.0 350.0,95.0 356.0,75.0" fill="#e4ebeb" opacity="0.95" />
<polygon points="333.0,32.0 332.0,31.0 326.0,35.0 311.0,37.0 327.0,41.0 332.0,38.0" fill="#522b32" />
<polygon points="334.0,95.0 320.0,108.0 322.0,115.0 326.0,118.0 341.0,107.0 339.0,100.0" fill="#f8706a" opacity="0.95" />
<polygon points="294.0,83.0 294.0,91.0 297.0,94.0 309.0,94.0 311.0,92.0 300.0,86.0 303.0,82.0 307.0,83.0 308.0,82.0 306.0,80.0 300.0,80.0" fill="#946356" />
<polygon points="216.0,147.0 213.0,151.0 219.0,157.0 213.0,164.0 217.0,171.0 208.0,177.0 203.0,187.0 206.0,191.0 222.0,179.0 231.0,161.0 228.0,156.0 220.0,156.0" fill="#3ed6d9" opacity="0.95" />
<polygon points="257.0,87.0 257.0,95.0 260.0,98.0 275.0,92.0 274.0,89.0 263.0,84.0" fill="#05bdc2" opacity="0.95" />
<polygon points="335.0,52.0 333.0,59.0 326.0,70.0 327.0,71.0 330.0,70.0 332.0,72.0 334.0,70.0 333.0,67.0 336.0,64.0 341.0,63.0 340.0,56.0" fill="#e4ebeb" />
<polygon points="338.0,72.0 328.0,76.0 328.0,85.0 313.0,93.0 313.0,99.0 320.0,97.0 335.0,82.0" fill="#f8706a" opacity="0.95" />
<polygon points="383.0,55.0 381.0,56.0 376.0,72.0 380.0,89.0 383.0,92.0" fill="#6f4744" opacity="0.95" />
<polygon points="213.0,208.0 210.0,206.0 177.0,217.0 174.0,221.0 185.0,222.0" fill="#05bdc2" opacity="0.95" />
<polygon points="230.0,140.0 226.0,147.0 228.0,149.0 234.0,151.0 235.0,150.0 235.0,145.0 237.0,142.0 234.0,140.0" fill="#05bdc2" />
<polygon points="342.0,56.0 342.0,64.0 339.0,67.0 336.0,65.0 335.0,69.0 340.0,72.0 341.0,76.0 345.0,70.0 345.0,58.0" fill="#c4c4c2" />
<polygon points="299.0,49.0 308.0,50.0 315.0,46.0 321.0,47.0 323.0,44.0 319.0,41.0 313.0,42.0 305.0,37.0 299.0,45.0" fill="#946356" opacity="0.95" />
<polygon points="283.0,116.0 285.0,118.0 292.0,119.0 297.0,118.0 300.0,120.0 307.0,116.0 306.0,115.0 284.0,115.0" fill="#0c8995" />
<polygon points="255.0,73.0 262.0,81.0 268.0,84.0 270.0,83.0 265.0,77.0 256.0,72.0" fill="#c4c4c2" />
<polygon points="334.0,49.0 337.0,53.0 346.0,57.0 350.0,61.0 351.0,60.0 340.0,49.0 336.0,47.0" fill="#66a4ae" />
<polygon points="210.0,220.0 204.0,218.0 186.0,225.0 185.0,228.0 188.0,230.0 209.0,223.0" fill="#9b8e8d" opacity="0.95" />
<polygon points="331.0,40.0 329.0,40.0 327.0,42.0 324.0,41.0 322.0,42.0 325.0,46.0 325.0,53.0 328.0,56.0 330.0,52.0 330.0,48.0 332.0,45.0" fill="#6f4744" />
<polygon points="299.0,48.0 308.0,50.0 315.0,46.0 319.0,46.0 320.0,43.0 305.0,38.0 302.0,40.0" fill="#946356" opacity="0.95" />
<polygon points="257.0,87.0 257.0,95.0 260.0,97.0 268.0,96.0 275.0,92.0 274.0,89.0 263.0,84.0" fill="#05bdc2" opacity="0.95" />
<polygon points="383.0,57.0 379.0,61.0 376.0,72.0 380.0,89.0 383.0,91.0" fill="#6f4744" opacity="0.95" />
<polygon points="334.0,89.0 332.0,88.0 328.0,90.0 319.0,99.0 315.0,101.0 315.0,106.0 317.0,107.0 320.0,106.0 334.0,92.0" fill="#522b32" opacity="0.95" />
<polygon points="294.0,83.0 294.0,91.0 296.0,93.0 309.0,93.0 309.0,91.0 300.0,86.0 302.0,81.0 300.0,80.0" fill="#946356" opacity="0.95" />
<polygon points="265.0,105.0 267.0,108.0 270.0,107.0 276.0,109.0 278.0,107.0 276.0,104.0 273.0,103.0 268.0,103.0" fill="#ade4e8" />
<polygon points="333.0,91.0 330.0,89.0 315.0,102.0 315.0,105.0 318.0,107.0 320.0,106.0 333.0,93.0" fill="#522b32" opacity="0.95" />
<polygon points="324.0,55.0 322.0,56.0 321.0,68.0 317.0,73.0 317.0,77.0 319.0,78.0 323.0,77.0 323.0,68.0 327.0,63.0 327.0,57.0" fill="#946356" opacity="0.95" />
<polygon points="327.0,73.0 323.0,78.0 322.0,82.0 323.0,84.0 319.0,89.0 320.0,90.0 327.0,84.0 327.0,78.0 326.0,77.0 328.0,74.0" fill="#da9e7f" />
<polygon points="333.0,33.0 331.0,32.0 326.0,35.0 319.0,35.0 317.0,36.0 317.0,39.0 326.0,41.0 332.0,38.0" fill="#522b32" opacity="0.95" />
<polygon points="312.0,105.0 308.0,108.0 306.0,112.0 307.0,113.0 308.0,112.0 310.0,114.0 313.0,110.0 314.0,111.0 315.0,110.0" fill="#c4c4c2" />
<polygon points="221.0,149.0 219.0,153.0 216.0,156.0 217.0,157.0 220.0,157.0 224.0,155.0 223.0,151.0" fill="#05bdc2" />
<polygon points="332.0,47.0 328.0,61.0 329.0,63.0 332.0,57.0 332.0,52.0 333.0,51.0 333.0,48.0" fill="#522b32" />
<polygon points="340.0,113.0 339.0,112.0 324.0,122.0 325.0,123.0 329.0,120.0 330.0,121.0" fill="#6f4744" />
<polygon points="330.0,40.0 324.0,43.0 325.0,53.0 327.0,54.0 330.0,52.0 330.0,48.0 332.0,45.0 332.0,41.0" fill="#6f4744" opacity="0.95" />
<polygon points="301.0,85.0 302.0,87.0 311.0,91.0 314.0,88.0 313.0,87.0 307.0,88.0 305.0,86.0 307.0,84.0 306.0,83.0 303.0,83.0" fill="#6f4744" />
<polygon points="334.0,72.0 328.0,76.0 328.0,83.0 331.0,85.0 335.0,82.0 337.0,74.0" fill="#f8706a" opacity="0.95" />
<polygon points="320.0,79.0 318.0,79.0 314.0,83.0 317.0,86.0 321.0,81.0 321.0,80.0" fill="#6f4744" />
<polygon points="334.0,49.0 334.0,51.0 343.0,56.0 345.0,55.0 345.0,53.0 338.0,48.0" fill="#66a4ae" opacity="0.95" />
<polygon points="294.0,83.0 294.0,91.0 298.0,94.0 305.0,93.0 306.0,90.0 300.0,86.0 300.0,83.0 297.0,81.0" fill="#946356" opacity="0.95" />
<polygon points="315.0,85.0 313.0,83.0 312.0,83.0 306.0,86.0 307.0,87.0 311.0,87.0" fill="#522b32" />
<polygon points="262.0,172.0 260.0,171.0 258.0,172.0 253.0,178.0 253.0,180.0 255.0,181.0 257.0,180.0 262.0,174.0" fill="#0c8995" opacity="0.95" />
<polygon points="238.0,77.0 233.0,82.0 233.0,83.0 232.0,84.0 232.0,85.0 233.0,86.0 238.0,81.0 238.0,79.0 239.0,78.0" fill="#05bdc2" />
<polygon points="290.0,116.0 290.0,118.0 292.0,119.0 297.0,118.0 301.0,120.0 304.0,118.0 304.0,116.0 302.0,115.0" fill="#0c8995" opacity="0.95" />
<polygon points="234.0,116.0 234.0,117.0 235.0,118.0 237.0,118.0 240.0,120.0 241.0,119.0 241.0,118.0 238.0,115.0 235.0,115.0" fill="#ade4e8" />
<polygon points="343.0,65.0 339.0,67.0 340.0,73.0 342.0,74.0 344.0,73.0 344.0,71.0 345.0,70.0 345.0,66.0" fill="#c4c4c2" opacity="0.95" />
<polygon points="261.0,77.0 261.0,80.0 266.0,83.0 268.0,82.0 268.0,80.0 265.0,77.0 263.0,76.0" fill="#c4c4c2" opacity="0.95" />
<polygon points="236.0,88.0 235.0,89.0 235.0,91.0 237.0,93.0 238.0,93.0 242.0,97.0 243.0,96.0 237.0,90.0 237.0,89.0" fill="#ade4e8" />
<polygon points="332.0,35.0 329.0,33.0 323.0,36.0 322.0,39.0 326.0,41.0 330.0,39.0 332.0,37.0" fill="#522b32" opacity="0.95" />
<polygon points="322.0,93.0 319.0,91.0 313.0,94.0 313.0,97.0 316.0,99.0 320.0,97.0 322.0,95.0" fill="#f8706a" opacity="0.95" />
<polygon points="266.0,104.0 266.0,106.0 271.0,108.0 275.0,108.0 277.0,107.0 277.0,105.0 273.0,103.0 268.0,103.0" fill="#ade4e8" opacity="0.95" />
<polygon points="156.0,223.0 159.0,225.0 163.0,225.0 164.0,224.0 163.0,223.0 160.0,223.0 159.0,222.0 157.0,222.0" fill="#0c8995" />
<polygon points="329.0,41.0 325.0,43.0 325.0,47.0 328.0,49.0 330.0,48.0 332.0,45.0 332.0,43.0" fill="#6f4744" opacity="0.95" />
<polygon points="325.0,77.0 324.0,78.0 323.0,78.0 323.0,84.0 324.0,84.0 325.0,85.0 326.0,84.0 327.0,84.0 327.0,78.0 326.0,78.0" fill="#da9e7f" opacity="0.95" />
<polygon points="314.0,108.0 312.0,107.0 310.0,107.0 308.0,108.0 308.0,111.0 310.0,112.0 314.0,110.0" fill="#c4c4c2" opacity="0.95" />
<polygon points="305.0,133.0 302.0,135.0 302.0,137.0 305.0,139.0 308.0,137.0 308.0,135.0" fill="#27535e" opacity="0.95" />
</svg>