<svg xmlns="http://www.w3.org/2000/svg" width="768" height="768" viewBox="0 0 384 384">
<rect width="384" height="384" fill="#896d64"/>
<polygon points="207.0,75.0 179.0,78.0 196.0,67.0 187.0,42.0 166.0,49.0 161.0,0.0 0.0,18.0 2.0,113.0 191.0,104.0" fill="#8f5f4f" />
<polygon points="132.0,127.0 0.0,224.0 0.0,266.0 79.0,292.0 143.0,379.0 142.0,270.0 165.0,238.0" fill="#b28372" opacity="0.95" />
<polygon points="151.0,286.0 155.0,383.0 209.0,383.0 216.0,354.0 225.0,383.0 284.0,383.0 270.0,293.0 194.0,298.0" fill="#212121" />
<polygon points="214.0,0.0 286.0,17.0 219.0,19.0 220.0,63.0 353.0,64.0 259.0,83.0 361.0,115.0 309.0,124.0 366.0,164.0 357.0,264.0 377.0,267.0 354.0,17.0" fill="#8f5f4f" />
<polygon points="0.0,266.0 145.0,269.0 147.0,235.0 159.0,267.0 164.0,231.0 155.0,222.0 2.0,222.0" fill="#b28372" />
<polygon points="214.0,0.0 225.0,78.0 356.0,113.0 309.0,124.0 359.0,164.0 345.0,299.0 378.0,321.0 290.0,383.0 383.0,383.0 351.0,16.0" fill="#8f5f4f" opacity="0.95" />
<polygon points="260.0,110.0 162.0,138.0 184.0,225.0 235.0,223.0 192.0,237.0 236.0,233.0 169.0,242.0 159.0,285.0 244.0,280.0 258.0,165.0 251.0,216.0 222.0,196.0 259.0,128.0 272.0,164.0" fill="#69a8bd" />
<polygon points="132.0,133.0 0.0,224.0 0.0,266.0 73.0,293.0 109.0,357.0 150.0,372.0 142.0,270.0 165.0,238.0" fill="#b28372" opacity="0.95" />
<polygon points="162.0,0.0 1.0,18.0 21.0,26.0 0.0,31.0 0.0,161.0 39.0,160.0 26.0,113.0 192.0,102.0 202.0,78.0 180.0,80.0 194.0,67.0 188.0,44.0 165.0,46.0" fill="#8f5f4f" opacity="0.95" />
<polygon points="287.0,107.0 302.0,162.0 273.0,291.0 287.0,380.0 353.0,317.0 356.0,274.0 353.0,168.0" fill="#b28372" opacity="0.95" />
<polygon points="162.0,0.0 36.0,29.0 12.0,17.0 0.0,161.0 36.0,161.0 44.0,141.0 51.0,161.0 99.0,157.0 130.0,122.0 95.0,112.0 192.0,101.0" fill="#8f5f4f" opacity="0.95" />
<polygon points="214.0,0.0 221.0,74.0 334.0,112.0 316.0,150.0 358.0,164.0 363.0,321.0 290.0,383.0 383.0,383.0 350.0,34.0" fill="#8f5f4f" opacity="0.95" />
<polygon points="0.0,327.0 2.0,371.0 142.0,368.0 130.0,365.0 123.0,353.0 110.0,359.0 94.0,329.0" fill="#8f5f4f" />
<polygon points="151.0,286.0 155.0,383.0 209.0,383.0 216.0,362.0 225.0,383.0 284.0,383.0 272.0,294.0 194.0,298.0" fill="#212121" opacity="0.95" />
<polygon points="277.0,0.0 355.0,17.0 383.0,313.0 383.0,0.0 372.0,41.0 363.0,0.0" fill="#4f3125" />
<polygon points="144.0,169.0 95.0,168.0 91.0,205.0 88.0,169.0 28.0,169.0 77.0,175.0 43.0,184.0 15.0,214.0 0.0,216.0 149.0,218.0" fill="#b28372" />
<polygon points="359.0,219.0 297.0,219.0 282.0,267.0 356.0,267.0 355.0,222.0" fill="#b28372" />
<polygon points="292.0,116.0 300.0,218.0 273.0,296.0 284.0,369.0 311.0,371.0 349.0,316.0 353.0,178.0" fill="#b28372" opacity="0.95" />
<polygon points="365.0,164.0 296.0,167.0 296.0,213.0 356.0,215.0 352.0,171.0" fill="#b28372" />
<polygon points="359.0,272.0 281.0,273.0 272.0,293.0 276.0,318.0 357.0,318.0 348.0,312.0 343.0,296.0" fill="#b28372" />
<polygon points="150.0,288.0 155.0,383.0 209.0,383.0 216.0,364.0 225.0,383.0 284.0,383.0 270.0,293.0 194.0,298.0" fill="#212121" opacity="0.95" />
<polygon points="48.0,159.0 99.0,157.0 107.0,147.0 126.0,142.0 130.0,121.0 51.0,118.0 47.0,122.0" fill="#8f5f4f" />
<polygon points="383.0,321.0 342.0,327.0 319.0,353.0 314.0,366.0 383.0,370.0" fill="#8f5f4f" />
<polygon points="6.0,274.0 38.0,284.0 46.0,320.0 50.0,292.0 76.0,291.0 77.0,320.0 151.0,320.0 146.0,274.0 47.0,274.0 44.0,292.0 41.0,274.0" fill="#b28372" />
<polygon points="0.0,327.0 0.0,383.0 152.0,383.0 112.0,376.0 138.0,366.0 124.0,354.0 110.0,359.0 94.0,329.0" fill="#8f5f4f" opacity="0.95" />
<polygon points="0.0,13.0 84.0,12.0 148.0,0.0 0.0,0.0" fill="#4f3125" />
<polygon points="277.0,0.0 354.0,16.0 383.0,309.0 383.0,0.0 372.0,30.0 363.0,0.0" fill="#4f3125" opacity="0.95" />
<polygon points="210.0,102.0 237.0,134.0 250.0,131.0 252.0,110.0 264.0,111.0 281.0,131.0 272.0,165.0 299.0,161.0 273.0,97.0 230.0,81.0" fill="#9cccda" />
<polygon points="264.0,112.0 222.0,136.0 207.0,103.0 162.0,138.0 181.0,161.0 226.0,148.0 220.0,182.0 182.0,167.0 185.0,226.0 245.0,208.0 223.0,195.0 258.0,129.0 272.0,164.0" fill="#69a8bd" opacity="0.95" />
<polygon points="274.0,170.0 277.0,229.0 253.0,284.0 270.0,292.0 281.0,271.0 328.0,270.0 281.0,267.0 297.0,217.0 294.0,173.0" fill="#e3c7b6" />
<polygon points="277.0,0.0 352.0,17.0 383.0,298.0 383.0,0.0 373.0,19.0 363.0,0.0" fill="#4f3125" opacity="0.95" />
<polygon points="264.0,112.0 229.0,137.0 207.0,103.0 162.0,138.0 181.0,161.0 226.0,148.0 220.0,182.0 182.0,169.0 186.0,226.0 241.0,208.0 225.0,196.0 259.0,129.0 272.0,164.0" fill="#69a8bd" opacity="0.95" />
<polygon points="259.0,194.0 234.0,226.0 172.0,244.0 186.0,255.0 167.0,259.0 162.0,273.0 183.0,276.0 167.0,287.0 211.0,273.0 243.0,281.0 226.0,256.0 261.0,237.0" fill="#69a8bd" opacity="0.95" />
<polygon points="274.0,170.0 277.0,229.0 253.0,284.0 270.0,292.0 296.0,218.0 295.0,174.0" fill="#e3c7b6" opacity="0.95" />
<polygon points="0.0,14.0 84.0,12.0 148.0,0.0 0.0,0.0" fill="#4f3125" opacity="0.95" />
<polygon points="195.0,14.0 181.0,27.0 211.0,33.0 204.0,41.0 192.0,37.0 190.0,49.0 202.0,62.0 196.0,74.0 216.0,65.0 213.0,99.0 228.0,82.0 215.0,61.0 224.0,39.0" fill="#e3c7b6" />
<polygon points="260.0,201.0 211.0,249.0 174.0,244.0 169.0,286.0 180.0,292.0 211.0,273.0 241.0,280.0 226.0,248.0 261.0,235.0" fill="#69a8bd" opacity="0.95" />
<polygon points="210.0,101.0 238.0,134.0 250.0,131.0 250.0,111.0 264.0,111.0 281.0,131.0 273.0,165.0 299.0,162.0 276.0,99.0 231.0,81.0" fill="#9cccda" opacity="0.95" />
<polygon points="254.0,158.0 235.0,172.0 241.0,190.0 223.0,196.0 244.0,204.0 250.0,215.0 255.0,193.0" fill="#9cccda" />
<polygon points="229.0,175.0 222.0,146.0 206.0,151.0 198.0,160.0 184.0,161.0 197.0,172.0 213.0,169.0 219.0,183.0" fill="#417b93" />
<polygon points="183.0,161.0 198.0,159.0 206.0,150.0 222.0,145.0 226.0,148.0 225.0,163.0 230.0,175.0 219.0,184.0 213.0,170.0 197.0,173.0" fill="#69a8bd" />
<polygon points="271.0,172.0 277.0,229.0 254.0,281.0 268.0,291.0 296.0,218.0 295.0,175.0" fill="#e3c7b6" opacity="0.95" />
<polygon points="143.0,141.0 146.0,175.0 153.0,175.0 160.0,188.0 166.0,176.0 175.0,228.0 185.0,220.0 168.0,166.0 154.0,149.0 149.0,156.0" fill="#244656" />
<polygon points="254.0,235.0 225.0,258.0 246.0,260.0 224.0,272.0 242.0,269.0 245.0,280.0 228.0,279.0 233.0,286.0 215.0,295.0 251.0,286.0" fill="#9cccda" />
<polygon points="191.0,109.0 148.0,134.0 177.0,167.0 179.0,197.0 180.0,163.0 161.0,138.0" fill="#417b93" />
<polygon points="0.0,320.0 0.0,324.0 152.0,323.0" fill="#e3c7b6" />
<polygon points="210.0,102.0 239.0,134.0 250.0,130.0 251.0,111.0 264.0,111.0 281.0,131.0 273.0,164.0 298.0,161.0 276.0,99.0 231.0,81.0" fill="#9cccda" opacity="0.95" />
<polygon points="235.0,232.0 201.0,239.0 191.0,247.0 205.0,251.0" fill="#9cccda" />
<polygon points="195.0,14.0 182.0,29.0 210.0,33.0 190.0,40.0 190.0,49.0 201.0,61.0 195.0,73.0 212.0,71.0 215.0,98.0 227.0,85.0 214.0,66.0 224.0,41.0" fill="#e3c7b6" opacity="0.95" />
<polygon points="0.0,14.0 10.0,19.0 4.0,27.0 12.0,30.0 14.0,15.0 147.0,0.0 0.0,0.0" fill="#4f3125" opacity="0.95" />
<polygon points="193.0,106.0 158.0,120.0 142.0,137.0 168.0,164.0 175.0,188.0 175.0,165.0 147.0,134.0" fill="#305f73" />
<polygon points="143.0,166.0 136.0,160.0 132.0,165.0 1.0,167.0 88.0,168.0 91.0,204.0 95.0,167.0" fill="#c69f8d" />
<polygon points="253.0,158.0 236.0,171.0 241.0,190.0 224.0,195.0 245.0,205.0 250.0,214.0 255.0,193.0" fill="#9cccda" opacity="0.95" />
<polygon points="195.0,14.0 186.0,28.0 210.0,35.0 191.0,40.0 190.0,49.0 201.0,62.0 198.0,72.0 211.0,74.0 215.0,98.0 227.0,85.0 213.0,66.0 223.0,43.0 208.0,19.0" fill="#e3c7b6" opacity="0.95" />
<polygon points="225.0,148.0 214.0,147.0 197.0,160.0 171.0,158.0 179.0,170.0 177.0,189.0 184.0,165.0 197.0,172.0 212.0,169.0 219.0,181.0 228.0,177.0" fill="#417b93" opacity="0.95" />
<polygon points="186.0,0.0 164.0,25.0 168.0,50.0 178.0,37.0 180.0,43.0 187.0,41.0 185.0,35.0 169.0,29.0 171.0,19.0 197.0,9.0" fill="#4f3125" />
<polygon points="255.0,237.0 243.0,239.0 227.0,256.0 243.0,260.0 233.0,269.0 243.0,270.0 245.0,280.0 231.0,279.0 233.0,287.0 216.0,294.0 250.0,287.0" fill="#9cccda" opacity="0.95" />
<polygon points="190.0,106.0 179.0,101.0 150.0,124.0 158.0,119.0 175.0,115.0" fill="#244656" />
<polygon points="253.0,158.0 236.0,171.0 241.0,190.0 226.0,196.0 250.0,212.0 255.0,193.0 256.0,160.0" fill="#9cccda" opacity="0.95" />
<polygon points="183.0,0.0 167.0,0.0 164.0,3.0 162.0,17.0 165.0,23.0 171.0,15.0 179.0,11.0 177.0,6.0 181.0,4.0" fill="#212121" />
<polygon points="228.0,176.0 222.0,146.0 206.0,151.0 197.0,160.0 184.0,162.0 197.0,172.0 211.0,169.0 220.0,180.0" fill="#417b93" opacity="0.95" />
<polygon points="144.0,145.0 145.0,172.0 153.0,175.0 162.0,188.0 165.0,186.0 164.0,177.0 170.0,175.0 168.0,166.0 158.0,153.0 148.0,155.0" fill="#244656" opacity="0.95" />
<polygon points="235.0,232.0 205.0,252.0 191.0,247.0 195.0,239.0 210.0,238.0 232.0,230.0" fill="#69a8bd" opacity="0.95" />
<polygon points="276.0,210.0 269.0,229.0 266.0,219.0 264.0,231.0 270.0,231.0 265.0,254.0 275.0,234.0" fill="#c69f8d" />
<polygon points="364.0,0.0 365.0,11.0 370.0,16.0 370.0,28.0 373.0,39.0 376.0,8.0 379.0,3.0 378.0,0.0" fill="#212121" />
<polygon points="189.0,112.0 149.0,133.0 159.0,148.0 163.0,148.0 161.0,138.0 179.0,127.0" fill="#417b93" opacity="0.95" />
<polygon points="166.0,177.0 166.0,186.0 164.0,189.0 167.0,192.0 169.0,222.0 171.0,193.0" fill="#212121" />
<polygon points="287.0,114.0 289.0,116.0 335.0,115.0 320.0,113.0" fill="#c69f8d" />
<polygon points="253.0,236.0 243.0,239.0 228.0,255.0 231.0,259.0 238.0,259.0 238.0,267.0 244.0,270.0 254.0,260.0 256.0,238.0" fill="#9cccda" opacity="0.95" />
<polygon points="227.0,284.0 222.0,281.0 214.0,281.0 188.0,287.0 187.0,290.0 191.0,291.0 213.0,285.0" fill="#417b93" />
<polygon points="0.0,269.0 0.0,273.0 41.0,272.0 44.0,275.0 47.0,272.0 59.0,271.0" fill="#e3c7b6" />
<polygon points="205.0,227.0 211.0,230.0 220.0,227.0 227.0,227.0 230.0,224.0 226.0,221.0 215.0,221.0" fill="#305f73" />
<polygon points="300.0,164.0 348.0,165.0 350.0,167.0 354.0,164.0 307.0,162.0" fill="#c69f8d" />
<polygon points="156.0,254.0 151.0,263.0 150.0,285.0 150.0,279.0 158.0,270.0 158.0,256.0" fill="#c69f8d" />
<polygon points="149.0,175.0 146.0,178.0 146.0,185.0 152.0,187.0 157.0,187.0 159.0,185.0 158.0,181.0 153.0,176.0" fill="#305f73" />
<polygon points="243.0,209.0 246.0,212.0 245.0,214.0 237.0,221.0 235.0,221.0 232.0,218.0 231.0,214.0 236.0,210.0" fill="#69a8bd" />
<polygon points="182.0,0.0 166.0,0.0 163.0,7.0 163.0,21.0 167.0,21.0 170.0,16.0 179.0,11.0 178.0,6.0" fill="#212121" opacity="0.95" />
<polygon points="209.0,75.0 205.0,79.0 205.0,82.0 201.0,88.0 201.0,93.0 203.0,95.0 206.0,93.0 210.0,98.0 211.0,86.0" fill="#c69f8d" />
<polygon points="144.0,155.0 145.0,172.0 153.0,175.0 159.0,181.0 163.0,181.0 164.0,174.0 160.0,168.0 165.0,161.0 157.0,153.0 151.0,156.0" fill="#244656" opacity="0.95" />
<polygon points="179.0,73.0 180.0,78.0 186.0,85.0 192.0,85.0 197.0,81.0 196.0,79.0 190.0,79.0 182.0,72.0" fill="#4f3125" />
<polygon points="187.0,115.0 182.0,114.0 151.0,131.0 149.0,135.0 160.0,142.0 164.0,135.0 179.0,127.0" fill="#417b93" opacity="0.95" />
<polygon points="166.0,275.0 168.0,273.0 176.0,272.0 179.0,273.0 186.0,279.0 184.0,281.0 180.0,281.0 173.0,278.0 169.0,278.0" fill="#69a8bd" />
<polygon points="3.0,24.0 6.0,30.0 15.0,29.0 23.0,24.0 35.0,28.0 40.0,25.0 38.0,23.0 24.0,23.0 22.0,25.0 18.0,23.0" fill="#4f3125" />
<polygon points="186.0,105.0 180.0,101.0 160.0,116.0 160.0,118.0 170.0,117.0 185.0,108.0" fill="#244656" opacity="0.95" />
<polygon points="173.0,118.0 159.0,120.0 148.0,127.0 142.0,137.0 145.0,143.0 156.0,145.0 147.0,133.0" fill="#305f73" opacity="0.95" />
<polygon points="174.0,196.0 172.0,197.0 170.0,225.0 174.0,228.0 178.0,222.0 183.0,220.0 183.0,217.0 179.0,213.0 176.0,197.0" fill="#244656" opacity="0.95" />
<polygon points="206.0,0.0 209.0,3.0 205.0,8.0 209.0,12.0 214.0,14.0 216.0,12.0 216.0,8.0 212.0,2.0 213.0,0.0" fill="#4f3125" />
<polygon points="364.0,0.0 365.0,11.0 370.0,16.0 370.0,28.0 372.0,29.0 375.0,27.0 378.0,0.0" fill="#212121" opacity="0.95" />
<polygon points="182.0,0.0 166.0,0.0 163.0,7.0 162.0,17.0 166.0,19.0 179.0,11.0 178.0,5.0" fill="#212121" opacity="0.95" />
<polygon points="268.0,170.0 267.0,179.0 278.0,200.0 279.0,198.0 271.0,182.0 270.0,171.0" fill="#c69f8d" />
<polygon points="206.0,142.0 195.0,149.0 186.0,150.0 184.0,148.0 187.0,145.0 192.0,145.0 204.0,140.0" fill="#69a8bd" />
<polygon points="74.0,272.0 75.0,273.0 108.0,273.0 109.0,272.0 108.0,271.0 75.0,271.0" fill="#e3c7b6" />
<polygon points="191.0,230.0 190.0,229.0 185.0,229.0 176.0,233.0 181.0,238.0 185.0,238.0 190.0,233.0 189.0,232.0" fill="#305f73" />
<polygon points="116.0,115.0 132.0,116.0 135.0,120.0 147.0,115.0" fill="#c69f8d" />
<polygon points="245.0,212.0 243.0,210.0 239.0,210.0 234.0,212.0 232.0,214.0 232.0,216.0 235.0,220.0 237.0,220.0 242.0,216.0" fill="#417b93" />
<polygon points="222.0,125.0 220.0,128.0 221.0,129.0 220.0,133.0 222.0,135.0 227.0,135.0 228.0,134.0 228.0,126.0 227.0,125.0" fill="#e3c7b6" />
<polygon points="224.0,282.0 214.0,281.0 198.0,284.0 188.0,288.0 188.0,290.0 222.0,285.0" fill="#417b93" opacity="0.95" />
<polygon points="166.0,235.0 166.0,237.0 168.0,239.0 173.0,241.0 178.0,241.0 180.0,239.0 176.0,234.0 169.0,234.0 168.0,233.0" fill="#244656" />
<polygon points="257.0,147.0 256.0,146.0 247.0,148.0 240.0,156.0 241.0,157.0 247.0,157.0 248.0,156.0 247.0,155.0 254.0,150.0 256.0,150.0" fill="#417b93" />
<polygon points="175.0,205.0 172.0,207.0 170.0,225.0 174.0,228.0 183.0,219.0 179.0,213.0 178.0,207.0" fill="#244656" opacity="0.95" />
<polygon points="364.0,0.0 365.0,11.0 373.0,18.0 375.0,17.0 378.0,0.0" fill="#212121" opacity="0.95" />
<polygon points="185.0,105.0 180.0,101.0 165.0,112.0 163.0,116.0 166.0,118.0 170.0,117.0 182.0,110.0" fill="#244656" opacity="0.95" />
<polygon points="275.0,218.0 272.0,221.0 268.0,236.0 268.0,246.0 266.0,247.0 268.0,250.0 275.0,234.0 277.0,222.0" fill="#c69f8d" opacity="0.95" />
<polygon points="168.0,159.0 166.0,162.0 168.0,163.0 172.0,180.0 175.0,181.0 177.0,180.0 177.0,170.0 175.0,165.0" fill="#305f73" opacity="0.95" />
<polygon points="208.0,228.0 215.0,229.0 220.0,227.0 227.0,227.0 230.0,225.0 230.0,223.0 226.0,221.0 216.0,221.0 210.0,224.0" fill="#305f73" opacity="0.95" />
<polygon points="146.0,177.0 146.0,185.0 152.0,187.0 156.0,187.0 159.0,185.0 158.0,181.0 153.0,176.0 150.0,175.0" fill="#305f73" opacity="0.95" />
<polygon points="207.0,78.0 205.0,79.0 205.0,82.0 202.0,86.0 201.0,93.0 203.0,94.0 211.0,93.0 209.0,79.0" fill="#c69f8d" opacity="0.95" />
<polygon points="263.0,134.0 262.0,135.0 260.0,134.0 258.0,136.0 262.0,141.0 262.0,144.0 258.0,151.0 259.0,152.0 266.0,143.0 265.0,140.0 266.0,137.0" fill="#305f73" />
<polygon points="166.0,235.0 166.0,238.0 173.0,241.0 179.0,240.0 179.0,236.0 175.0,234.0 168.0,234.0" fill="#244656" opacity="0.95" />
<polygon points="146.0,178.0 146.0,184.0 152.0,187.0 156.0,187.0 159.0,185.0 158.0,181.0 153.0,176.0 150.0,175.0" fill="#305f73" opacity="0.95" />
</svg>