<svg xmlns="http://www.w3.org/2000/svg" width="768" height="768" viewBox="0 0 384 384">
<rect width="384" height="384" fill="#8b776f"/>
<polygon points="139.0,123.0 0.0,239.0 2.0,283.0 85.0,316.0 0.0,328.0 111.0,365.0 177.0,345.0 176.0,317.0 121.0,300.0 179.0,280.0 130.0,192.0" fill="#bfa59a" />
<polygon points="270.0,125.0 252.0,143.0 261.0,214.0 304.0,243.0 258.0,247.0 261.0,273.0 232.0,282.0 244.0,318.0 383.0,319.0 383.0,192.0" fill="#a18479" />
<polygon points="140.0,111.0 110.0,92.0 2.0,130.0 0.0,234.0 24.0,234.0 6.0,222.0 71.0,193.0 66.0,179.0" fill="#a18479" />
<polygon points="184.0,40.0 153.0,213.0 184.0,278.0 175.0,383.0 208.0,383.0 218.0,341.0 237.0,383.0 281.0,383.0 254.0,376.0 225.0,282.0 244.0,214.0 183.0,217.0" fill="#0b121d" />
<polygon points="139.0,125.0 0.0,239.0 1.0,282.0 83.0,316.0 1.0,326.0 111.0,365.0 177.0,345.0 125.0,302.0 178.0,281.0 130.0,192.0" fill="#bfa59a" opacity="0.95" />
<polygon points="269.0,126.0 253.0,142.0 262.0,214.0 303.0,244.0 258.0,247.0 261.0,273.0 233.0,284.0 244.0,318.0 383.0,319.0 383.0,192.0" fill="#a18479" opacity="0.95" />
<polygon points="199.0,0.0 184.0,106.0 244.0,102.0 250.0,73.0 235.0,60.0 252.0,13.0 208.0,13.0" fill="#e5dbd8" />
<polygon points="271.0,125.0 262.0,214.0 303.0,243.0 258.0,247.0 244.0,317.0 370.0,319.0 276.0,376.0 383.0,383.0 383.0,192.0" fill="#a18479" opacity="0.95" />
<polygon points="138.0,126.0 0.0,239.0 0.0,281.0 81.0,315.0 0.0,325.0 111.0,365.0 177.0,345.0 176.0,318.0 111.0,315.0 178.0,281.0 130.0,192.0" fill="#bfa59a" opacity="0.95" />
<polygon points="237.0,103.0 183.0,111.0 186.0,219.0 260.0,206.0 251.0,154.0 210.0,189.0 241.0,142.0 229.0,129.0 245.0,134.0 248.0,112.0 236.0,113.0" fill="#81cbd6" />
<polygon points="0.0,330.0 0.0,383.0 173.0,383.0 176.0,347.0 151.0,347.0 147.0,366.0 111.0,366.0" fill="#a18479" />
<polygon points="140.0,111.0 110.0,92.0 0.0,131.0 0.0,234.0 24.0,234.0 9.0,220.0 71.0,193.0 66.0,179.0" fill="#a18479" opacity="0.95" />
<polygon points="179.0,66.0 153.0,213.0 183.0,277.0 175.0,383.0 208.0,383.0 218.0,348.0 237.0,383.0 280.0,383.0 255.0,376.0 226.0,282.0 243.0,214.0 183.0,217.0" fill="#0b121d" opacity="0.95" />
<polygon points="319.0,0.0 305.0,78.0 331.0,100.0 293.0,102.0 378.0,129.0 288.0,106.0 271.0,124.0 383.0,191.0 383.0,121.0 344.0,107.0 351.0,0.0 335.0,38.0 331.0,0.0 326.0,55.0" fill="#614a41" />
<polygon points="65.0,0.0 57.0,0.0 56.0,47.0 41.0,40.0 39.0,0.0 31.0,43.0 0.0,48.0 2.0,120.0 69.0,98.0" fill="#332724" />
<polygon points="246.0,321.0 255.0,361.0 286.0,377.0 314.0,362.0 337.0,329.0 383.0,325.0" fill="#bfa59a" />
<polygon points="144.0,101.0 131.0,192.0 153.0,211.0 164.0,114.0" fill="#3fa4ae" />
<polygon points="248.0,111.0 184.0,109.0 185.0,218.0 260.0,206.0 250.0,155.0 211.0,189.0 236.0,154.0" fill="#81cbd6" opacity="0.95" />
<polygon points="383.0,326.0 337.0,330.0 314.0,363.0 287.0,378.0 256.0,365.0 284.0,383.0 383.0,383.0" fill="#a18479" />
<polygon points="140.0,111.0 110.0,92.0 0.0,131.0 0.0,234.0 24.0,234.0 9.0,220.0 71.0,193.0 66.0,179.0" fill="#a18479" opacity="0.95" />
<polygon points="178.0,73.0 153.0,213.0 183.0,278.0 175.0,383.0 208.0,383.0 218.0,351.0 237.0,383.0 280.0,383.0 255.0,375.0 226.0,284.0 243.0,216.0 183.0,217.0" fill="#0b121d" opacity="0.95" />
<polygon points="199.0,0.0 184.0,106.0 244.0,102.0 250.0,73.0 236.0,57.0 252.0,13.0 209.0,13.0" fill="#e5dbd8" opacity="0.95" />
<polygon points="131.0,0.0 122.0,15.0 131.0,9.0 139.0,17.0 151.0,101.0 166.0,105.0 156.0,81.0 172.0,82.0 185.0,25.0 168.0,0.0" fill="#ea6741" />
<polygon points="0.0,330.0 0.0,383.0 173.0,383.0 175.0,347.0 150.0,348.0 147.0,366.0 111.0,366.0" fill="#a18479" opacity="0.95" />
<polygon points="352.0,0.0 345.0,107.0 383.0,120.0 383.0,48.0 376.0,109.0 367.0,108.0 371.0,6.0" fill="#332724" />
<polygon points="320.0,4.0 305.0,78.0 331.0,100.0 294.0,103.0 377.0,129.0 287.0,107.0 272.0,125.0 383.0,191.0 383.0,121.0 344.0,107.0 351.0,0.0 336.0,68.0" fill="#614a41" opacity="0.95" />
<polygon points="111.0,0.0 104.0,38.0 96.0,0.0 89.0,46.0 70.0,36.0 66.0,0.0 70.0,98.0 2.0,129.0 110.0,91.0 95.0,77.0" fill="#614a41" />
<polygon points="299.0,88.0 277.0,94.0 263.0,77.0 250.0,85.0 252.0,141.0 299.0,95.0" fill="#053c45" />
<polygon points="65.0,0.0 57.0,0.0 57.0,46.0 38.0,32.0 26.0,46.0 10.0,40.0 0.0,47.0 1.0,119.0 69.0,98.0" fill="#332724" opacity="0.95" />
<polygon points="260.0,194.0 232.0,260.0 236.0,283.0 260.0,273.0 260.0,244.0 279.0,252.0 303.0,243.0 274.0,231.0 260.0,214.0" fill="#bfa59a" />
<polygon points="246.0,320.0 256.0,363.0 286.0,376.0 314.0,362.0 336.0,330.0 383.0,325.0" fill="#bfa59a" opacity="0.95" />
<polygon points="232.0,104.0 183.0,111.0 188.0,219.0 260.0,206.0 250.0,155.0 212.0,188.0 236.0,154.0 231.0,140.0 246.0,130.0 248.0,112.0" fill="#81cbd6" opacity="0.95" />
<polygon points="200.0,0.0 184.0,104.0 244.0,102.0 250.0,73.0 236.0,57.0 252.0,14.0 209.0,13.0" fill="#e5dbd8" opacity="0.95" />
<polygon points="225.0,0.0 231.0,11.0 252.0,11.0 260.0,21.0 267.0,74.0 277.0,92.0 296.0,88.0 303.0,78.0 261.0,0.0" fill="#ea6741" />
<polygon points="383.0,326.0 336.0,331.0 318.0,359.0 289.0,379.0 260.0,368.0 283.0,383.0 383.0,383.0" fill="#a18479" opacity="0.95" />
<polygon points="145.0,101.0 131.0,192.0 152.0,211.0 164.0,127.0 160.0,108.0" fill="#3fa4ae" opacity="0.95" />
<polygon points="65.0,42.0 50.0,47.0 38.0,32.0 26.0,46.0 10.0,40.0 0.0,47.0 0.0,117.0 69.0,98.0" fill="#332724" opacity="0.95" />
<polygon points="338.0,0.0 340.0,65.0 319.0,7.0 305.0,72.0 331.0,100.0 295.0,102.0 376.0,128.0 287.0,107.0 272.0,124.0 383.0,191.0 383.0,120.0 344.0,107.0" fill="#614a41" opacity="0.95" />
<polygon points="246.0,321.0 255.0,361.0 286.0,375.0 314.0,362.0 336.0,330.0 373.0,324.0" fill="#bfa59a" opacity="0.95" />
<polygon points="131.0,0.0 125.0,10.0 139.0,17.0 151.0,101.0 158.0,105.0 156.0,81.0 173.0,80.0 184.0,24.0 168.0,0.0" fill="#ea6741" opacity="0.95" />
<polygon points="131.0,10.0 102.0,57.0 106.0,83.0 128.0,60.0 131.0,46.0 120.0,34.0 132.0,26.0 146.0,77.0" fill="#c53a29" />
<polygon points="262.0,0.0 301.0,75.0 293.0,38.0 279.0,9.0 283.0,4.0" fill="#f9976d" />
<polygon points="71.0,0.0 70.0,98.0 1.0,128.0 109.0,92.0 95.0,84.0 108.0,38.0 70.0,36.0" fill="#614a41" opacity="0.95" />
<polygon points="147.0,104.0 131.0,192.0 151.0,210.0 164.0,127.0 162.0,111.0" fill="#3fa4ae" opacity="0.95" />
<polygon points="352.0,0.0 345.0,107.0 383.0,120.0 383.0,48.0 376.0,109.0 367.0,108.0 371.0,6.0" fill="#332724" opacity="0.95" />
<polygon points="383.0,0.0 371.0,0.0 368.0,108.0 372.0,111.0 378.0,55.0 383.0,47.0" fill="#0b121d" />
<polygon points="110.0,89.0 141.0,111.0 143.0,109.0 141.0,78.0" fill="#053c45" />
<polygon points="300.0,89.0 278.0,94.0 263.0,77.0 250.0,85.0 251.0,140.0 299.0,95.0" fill="#053c45" opacity="0.95" />
<polygon points="131.0,0.0 127.0,7.0 139.0,17.0 155.0,105.0 156.0,81.0 174.0,76.0 184.0,24.0 168.0,0.0" fill="#ea6741" opacity="0.95" />
<polygon points="225.0,0.0 260.0,21.0 268.0,75.0 278.0,92.0 296.0,88.0 302.0,77.0 261.0,0.0" fill="#ea6741" opacity="0.95" />
<polygon points="0.0,0.0 0.0,43.0 14.0,39.0 20.0,45.0 29.0,44.0 31.0,39.0 17.0,39.0 12.0,34.0 22.0,27.0 33.0,31.0 32.0,0.0" fill="#614a41" />
<polygon points="249.0,123.0 237.0,154.0 212.0,190.0 223.0,186.0 252.0,152.0" fill="#3fa4ae" />
<polygon points="318.0,0.0 299.0,0.0 298.0,53.0 304.0,72.0 310.0,21.0" fill="#332724" />
<polygon points="261.0,207.0 245.0,215.0 232.0,260.0 237.0,283.0 260.0,273.0 259.0,245.0 279.0,252.0 302.0,244.0 277.0,234.0" fill="#bfa59a" opacity="0.95" />
<polygon points="59.0,77.0 53.0,85.0 41.0,88.0 32.0,104.0 26.0,94.0 12.0,96.0 9.0,93.0 9.0,81.0 16.0,74.0" fill="#332724" />
<polygon points="107.0,40.0 67.0,37.0 70.0,98.0 0.0,126.0 108.0,92.0 95.0,84.0" fill="#614a41" opacity="0.95" />
<polygon points="44.0,0.0 42.0,40.0 50.0,46.0 56.0,46.0 60.0,40.0 57.0,32.0 56.0,0.0" fill="#614a41" />
<polygon points="254.0,17.0 250.0,30.0 259.0,74.0 266.0,74.0 263.0,30.0" fill="#c53a29" />
<polygon points="225.0,0.0 260.0,21.0 275.0,88.0 296.0,88.0 302.0,77.0 261.0,0.0" fill="#ea6741" opacity="0.95" />
<polygon points="352.0,0.0 345.0,107.0 383.0,119.0 383.0,48.0 376.0,109.0 367.0,108.0 371.0,6.0" fill="#332724" opacity="0.95" />
<polygon points="58.0,77.0 16.0,75.0 10.0,81.0 10.0,93.0 26.0,93.0 32.0,103.0 36.0,92.0 44.0,85.0 56.0,82.0" fill="#614a41" />
<polygon points="299.0,90.0 278.0,94.0 263.0,77.0 250.0,85.0 252.0,139.0 299.0,95.0" fill="#053c45" opacity="0.95" />
<polygon points="257.0,209.0 245.0,215.0 232.0,260.0 241.0,282.0 259.0,273.0 259.0,245.0 279.0,252.0 302.0,243.0 277.0,234.0" fill="#bfa59a" opacity="0.95" />
<polygon points="32.0,0.0 0.0,0.0 1.0,43.0 13.0,38.0 13.0,33.0 19.0,28.0 32.0,28.0" fill="#614a41" opacity="0.95" />
<polygon points="131.0,10.0 102.0,57.0 99.0,73.0 107.0,83.0 129.0,57.0 130.0,45.0 120.0,34.0 139.0,26.0" fill="#c53a29" opacity="0.95" />
<polygon points="262.0,0.0 282.0,47.0 301.0,70.0 280.0,10.0 283.0,4.0" fill="#f9976d" opacity="0.95" />
<polygon points="383.0,0.0 371.0,0.0 368.0,108.0 372.0,111.0 378.0,55.0 383.0,47.0" fill="#0b121d" opacity="0.95" />
<polygon points="134.0,27.0 121.0,34.0 132.0,47.0 124.0,70.0 117.0,74.0 119.0,80.0 131.0,72.0 139.0,48.0" fill="#8c1d1d" />
<polygon points="112.0,89.0 137.0,108.0 143.0,109.0 143.0,79.0 127.0,81.0" fill="#053c45" opacity="0.95" />
<polygon points="330.0,0.0 299.0,0.0 298.0,53.0 304.0,70.0 310.0,21.0 318.0,4.0 323.0,5.0 328.0,50.0" fill="#332724" opacity="0.95" />
<polygon points="250.0,131.0 246.0,131.0 237.0,154.0 212.0,189.0 223.0,186.0 252.0,152.0" fill="#3fa4ae" opacity="0.95" />
<polygon points="131.0,10.0 102.0,57.0 99.0,73.0 107.0,83.0 129.0,57.0 130.0,46.0 119.0,34.0 139.0,25.0" fill="#c53a29" opacity="0.95" />
<polygon points="304.0,79.0 303.0,90.0 299.0,96.0 314.0,96.0 323.0,104.0 327.0,104.0 330.0,100.0 330.0,90.0 327.0,87.0 318.0,87.0 312.0,81.0" fill="#332724" />
<polygon points="262.0,0.0 282.0,47.0 298.0,64.0 281.0,11.0 283.0,4.0" fill="#f9976d" opacity="0.95" />
<polygon points="383.0,0.0 371.0,0.0 368.0,108.0 372.0,111.0 378.0,55.0 383.0,47.0" fill="#0b121d" opacity="0.95" />
<polygon points="206.0,6.0 208.0,12.0 229.0,10.0 231.0,8.0 224.0,0.0 208.0,0.0" fill="#f9976d" />
<polygon points="195.0,0.0 188.0,0.0 185.0,38.0" fill="#0b121d" />
<polygon points="255.0,18.0 251.0,33.0 258.0,67.0 265.0,73.0 268.0,68.0 263.0,53.0 263.0,30.0" fill="#c53a29" opacity="0.95" />
<polygon points="114.0,90.0 137.0,108.0 142.0,107.0 142.0,79.0 127.0,81.0" fill="#053c45" opacity="0.95" />
<polygon points="134.0,315.0 123.0,318.0 89.0,316.0 94.0,312.0 114.0,313.0 118.0,306.0 121.0,312.0 130.0,307.0" fill="#bfa59a" />
<polygon points="249.0,136.0 243.0,138.0 237.0,154.0 214.0,184.0 214.0,189.0 223.0,186.0 252.0,152.0" fill="#3fa4ae" opacity="0.95" />
<polygon points="169.0,0.0 169.0,4.0 173.0,12.0 184.0,23.0 186.0,20.0 187.0,4.0 179.0,5.0 175.0,2.0 175.0,0.0" fill="#c53a29" />
<polygon points="165.0,77.0 159.0,78.0 157.0,81.0 157.0,88.0 162.0,93.0 159.0,98.0 161.0,102.0 168.0,98.0 170.0,91.0 170.0,83.0" fill="#f9976d" />
<polygon points="13.0,56.0 15.0,60.0 23.0,58.0 61.0,58.0 59.0,56.0 17.0,53.0" fill="#0b121d" />
<polygon points="133.0,27.0 121.0,34.0 121.0,39.0 131.0,45.0 129.0,60.0 121.0,73.0 123.0,79.0 131.0,72.0 138.0,49.0" fill="#8c1d1d" opacity="0.95" />
<polygon points="256.0,19.0 252.0,22.0 251.0,33.0 258.0,67.0 265.0,72.0 268.0,68.0 263.0,53.0 263.0,30.0" fill="#c53a29" opacity="0.95" />
<polygon points="187.0,38.0 182.0,62.0 182.0,73.0 186.0,72.0 186.0,51.0 189.0,43.0" fill="#8c1d1d" />
<polygon points="34.0,0.0 35.0,30.0 37.0,32.0 38.0,0.0" fill="#0b121d" />
<polygon points="206.0,9.0 209.0,12.0 230.0,9.0 230.0,6.0 224.0,0.0 208.0,0.0" fill="#f9976d" opacity="0.95" />
<polygon points="250.0,33.0 248.0,35.0 249.0,47.0 254.0,58.0 255.0,56.0" fill="#8c1d1d" />
<polygon points="165.0,77.0 157.0,81.0 157.0,88.0 162.0,92.0 159.0,98.0 161.0,102.0 168.0,98.0 170.0,91.0 170.0,83.0" fill="#f9976d" opacity="0.95" />
<polygon points="169.0,0.0 169.0,4.0 173.0,12.0 181.0,20.0 186.0,20.0 187.0,5.0 179.0,5.0 175.0,2.0 175.0,0.0" fill="#c53a29" opacity="0.95" />
<polygon points="132.0,27.0 124.0,31.0 121.0,34.0 121.0,38.0 130.0,44.0 135.0,50.0 138.0,48.0 136.0,30.0" fill="#8c1d1d" opacity="0.95" />
<polygon points="206.0,9.0 210.0,12.0 227.0,10.0 230.0,8.0 230.0,6.0 224.0,0.0 208.0,0.0" fill="#f9976d" opacity="0.95" />
<polygon points="248.0,104.0 247.0,103.0 239.0,104.0 236.0,107.0 235.0,111.0 236.0,112.0 243.0,109.0 247.0,110.0 248.0,109.0" fill="#3fa4ae" />
<polygon points="145.0,88.0 143.0,92.0 143.0,98.0 144.0,99.0 149.0,99.0 150.0,98.0 149.0,91.0 147.0,88.0 146.0,89.0" fill="#c53a29" />
<polygon points="165.0,77.0 157.0,81.0 157.0,88.0 161.0,92.0 159.0,100.0 162.0,102.0 168.0,98.0 170.0,91.0 170.0,83.0" fill="#f9976d" opacity="0.95" />
<polygon points="169.0,0.0 169.0,4.0 173.0,12.0 181.0,20.0 185.0,20.0 187.0,7.0 177.0,4.0 175.0,0.0" fill="#c53a29" opacity="0.95" />
<polygon points="113.0,34.0 106.0,47.0 107.0,49.0 111.0,44.0 114.0,36.0" fill="#ea6741" />
<polygon points="13.0,56.0 13.0,58.0 16.0,60.0 36.0,57.0 36.0,55.0 28.0,53.0 17.0,53.0" fill="#0b121d" opacity="0.95" />
<polygon points="176.0,0.0 176.0,2.0 179.0,4.0 184.0,4.0 185.0,3.0 185.0,0.0" fill="#8c1d1d" />
<polygon points="248.0,104.0 246.0,103.0 241.0,103.0 236.0,107.0 236.0,110.0 239.0,111.0 243.0,109.0 246.0,109.0 248.0,108.0" fill="#3fa4ae" opacity="0.95" />
<polygon points="184.0,61.0 182.0,62.0 182.0,72.0 184.0,73.0 186.0,72.0 186.0,62.0" fill="#8c1d1d" opacity="0.95" />
<polygon points="130.0,61.0 127.0,63.0 123.0,71.0 123.0,73.0 126.0,75.0 131.0,72.0 133.0,66.0 133.0,63.0" fill="#8c1d1d" opacity="0.95" />
<polygon points="248.0,105.0 245.0,103.0 241.0,103.0 236.0,107.0 236.0,109.0 239.0,111.0 247.0,108.0" fill="#3fa4ae" opacity="0.95" />
<polygon points="232.0,139.0 233.0,140.0 234.0,140.0 236.0,142.0 234.0,144.0 232.0,144.0 230.0,142.0 230.0,141.0" fill="#81cbd6" />
<polygon points="176.0,0.0 176.0,2.0 179.0,4.0 183.0,4.0 184.0,3.0 185.0,3.0 185.0,0.0" fill="#8c1d1d" opacity="0.95" />
<polygon points="162.0,107.0 161.0,108.0 161.0,109.0 163.0,111.0 164.0,111.0 165.0,112.0 166.0,111.0 166.0,109.0 167.0,108.0 166.0,107.0" fill="#81cbd6" />
<polygon points="176.0,0.0 176.0,2.0 179.0,4.0 182.0,4.0 185.0,2.0 185.0,0.0" fill="#8c1d1d" opacity="0.95" />
</svg>