<svg xmlns="http://www.w3.org/2000/svg" width="768" height="768" viewBox="0 0 384 384">
<rect width="384" height="384" fill="#877a72"/>
<polygon points="166.0,32.0 152.0,139.0 146.0,114.0 76.0,114.0 0.0,159.0 0.0,383.0 151.0,367.0" fill="#a78c7c" />
<polygon points="256.0,129.0 242.0,227.0 253.0,377.0 383.0,383.0 383.0,220.0 327.0,155.0 283.0,137.0 266.0,183.0" fill="#a78c7c" />
<polygon points="147.0,115.0 76.0,114.0 0.0,158.0 0.0,383.0 127.0,383.0 151.0,366.0 164.0,220.0" fill="#a78c7c" opacity="0.95" />
<polygon points="147.0,115.0 76.0,114.0 0.0,158.0 0.0,383.0 127.0,383.0 151.0,366.0 164.0,220.0" fill="#a78c7c" opacity="0.95" />
<polygon points="258.0,130.0 242.0,227.0 253.0,377.0 383.0,383.0 383.0,220.0 281.0,140.0 285.0,167.0 264.0,182.0" fill="#a78c7c" opacity="0.95" />
<polygon points="247.0,103.0 184.0,102.0 187.0,227.0 248.0,200.0 257.0,142.0" fill="#93d8db" />
<polygon points="153.0,0.0 70.0,1.0 50.0,34.0 59.0,41.0 8.0,92.0 29.0,105.0 0.0,117.0 2.0,156.0 76.0,113.0 151.0,111.0" fill="#6f5c50" />
<polygon points="278.0,0.0 282.0,135.0 327.0,154.0 383.0,219.0 383.0,124.0 331.0,94.0 354.0,70.0" fill="#6f5c50" />
<polygon points="180.0,108.0 160.0,341.0 181.0,336.0 192.0,276.0 197.0,383.0 216.0,350.0 226.0,383.0 260.0,383.0 247.0,204.0 185.0,226.0" fill="#152439" />
<polygon points="259.0,131.0 242.0,227.0 253.0,377.0 383.0,383.0 383.0,220.0 299.0,143.0 281.0,141.0 285.0,167.0 266.0,182.0" fill="#a78c7c" opacity="0.95" />
<polygon points="200.0,0.0 184.0,99.0 248.0,102.0 251.0,9.0 231.0,0.0 212.0,14.0" fill="#f1eff0" />
<polygon points="153.0,0.0 70.0,0.0 59.0,41.0 14.0,95.0 28.0,106.0 0.0,115.0 0.0,151.0 76.0,113.0 151.0,112.0" fill="#6f5c50" opacity="0.95" />
<polygon points="246.0,103.0 184.0,102.0 188.0,226.0 248.0,200.0 257.0,142.0" fill="#93d8db" opacity="0.95" />
<polygon points="278.0,0.0 282.0,136.0 328.0,155.0 383.0,219.0 383.0,124.0 332.0,95.0 354.0,70.0" fill="#6f5c50" opacity="0.95" />
<polygon points="180.0,108.0 160.0,153.0 178.0,226.0 159.0,337.0 179.0,340.0 192.0,277.0 197.0,383.0 216.0,359.0 225.0,383.0 259.0,383.0 246.0,207.0 185.0,225.0" fill="#152439" opacity="0.95" />
<polygon points="153.0,0.0 70.0,0.0 59.0,40.0 15.0,98.0 27.0,106.0 0.0,115.0 0.0,150.0 76.0,113.0 150.0,112.0" fill="#6f5c50" opacity="0.95" />
<polygon points="245.0,103.0 184.0,103.0 189.0,226.0 248.0,200.0 257.0,142.0" fill="#93d8db" opacity="0.95" />
<polygon points="278.0,0.0 282.0,135.0 328.0,155.0 383.0,219.0 383.0,124.0 333.0,95.0 354.0,70.0" fill="#6f5c50" opacity="0.95" />
<polygon points="179.0,110.0 160.0,153.0 159.0,337.0 179.0,340.0 193.0,281.0 197.0,383.0 215.0,365.0 257.0,383.0 245.0,209.0 185.0,224.0" fill="#152439" opacity="0.95" />
<polygon points="304.0,0.0 383.0,91.0 383.0,0.0 341.0,0.0 347.0,19.0 340.0,24.0 327.0,19.0 335.0,0.0" fill="#1f1716" />
<polygon points="200.0,0.0 185.0,99.0 246.0,102.0 251.0,9.0 244.0,0.0 230.0,0.0 213.0,14.0" fill="#f1eff0" opacity="0.95" />
<polygon points="244.0,0.0 262.0,8.0 268.0,168.0 274.0,159.0 278.0,167.0 270.0,182.0 284.0,167.0 277.0,0.0" fill="#dfb9a4" />
<polygon points="192.0,277.0 182.0,336.0 168.0,346.0 157.0,338.0 152.0,372.0 139.0,383.0 196.0,383.0 200.0,340.0" fill="#1f1716" />
<polygon points="201.0,0.0 185.0,98.0 245.0,102.0 251.0,9.0 244.0,0.0 230.0,0.0 213.0,14.0" fill="#f1eff0" opacity="0.95" />
<polygon points="291.0,0.0 357.0,74.0 332.0,94.0 383.0,123.0 383.0,92.0 303.0,0.0" fill="#48372f" />
<polygon points="304.0,0.0 383.0,91.0 383.0,0.0" fill="#1f1716" opacity="0.95" />
<polygon points="254.0,23.0 246.0,50.0 246.0,81.0 253.0,126.0 266.0,134.0" fill="#6f5c50" />
<polygon points="304.0,0.0 383.0,91.0 383.0,0.0 341.0,0.0 347.0,19.0 340.0,24.0 327.0,19.0 335.0,0.0" fill="#1f1716" opacity="0.95" />
<polygon points="245.0,0.0 260.0,8.0 268.0,160.0 277.0,165.0 270.0,182.0 283.0,167.0 277.0,0.0" fill="#dfb9a4" opacity="0.95" />
<polygon points="173.0,2.0 179.0,45.0 170.0,98.0 182.0,100.0 191.0,28.0" fill="#8f021d" />
<polygon points="195.0,281.0 180.0,340.0 168.0,346.0 156.0,342.0 152.0,372.0 140.0,383.0 196.0,383.0" fill="#1f1716" opacity="0.95" />
<polygon points="245.0,0.0 260.0,9.0 268.0,159.0 280.0,168.0 277.0,0.0" fill="#dfb9a4" opacity="0.95" />
<polygon points="59.0,0.0 32.0,0.0 39.0,12.0 36.0,36.0 21.0,50.0 13.0,39.0 0.0,49.0 6.0,83.0 41.0,44.0 42.0,14.0" fill="#1f1716" />
<polygon points="253.0,24.0 246.0,81.0 253.0,126.0 267.0,133.0" fill="#6f5c50" opacity="0.95" />
<polygon points="291.0,0.0 357.0,74.0 333.0,95.0 383.0,123.0 383.0,92.0 303.0,0.0" fill="#48372f" opacity="0.95" />
<polygon points="195.0,284.0 180.0,340.0 155.0,348.0 152.0,372.0 140.0,383.0 196.0,383.0" fill="#1f1716" opacity="0.95" />
<polygon points="154.0,0.0 153.0,65.0 161.0,61.0 166.0,31.0 172.0,66.0 165.0,116.0 176.0,67.0 170.0,4.0 161.0,8.0" fill="#a87459" />
<polygon points="157.0,69.0 152.0,77.0 155.0,131.0 166.0,78.0" fill="#dfb9a4" />
<polygon points="173.0,0.0 190.0,26.0 199.0,0.0" fill="#dd0244" />
<polygon points="174.0,5.0 179.0,45.0 171.0,98.0 181.0,100.0 191.0,28.0" fill="#8f021d" opacity="0.95" />
<polygon points="252.0,31.0 246.0,81.0 253.0,126.0 266.0,133.0 269.0,127.0" fill="#6f5c50" opacity="0.95" />
<polygon points="354.0,61.0 356.0,78.0 334.0,95.0 383.0,123.0 383.0,92.0" fill="#48372f" opacity="0.95" />
<polygon points="59.0,0.0 32.0,0.0 39.0,12.0 36.0,36.0 21.0,50.0 12.0,39.0 0.0,48.0 5.0,82.0 40.0,46.0 42.0,14.0" fill="#1f1716" opacity="0.95" />
<polygon points="70.0,0.0 60.0,0.0 52.0,12.0 43.0,14.0 40.0,23.0 45.0,30.0 42.0,36.0 52.0,31.0" fill="#48372f" />
<polygon points="204.0,0.0 212.0,13.0 221.0,12.0 230.0,0.0" fill="#dfb9a4" />
<polygon points="160.0,166.0 165.0,221.0 176.0,227.0 168.0,211.0" fill="#1f1716" />
<polygon points="175.0,8.0 179.0,45.0 171.0,97.0 180.0,100.0 191.0,28.0" fill="#8f021d" opacity="0.95" />
<polygon points="216.0,353.0 210.0,383.0 225.0,383.0 219.0,372.0" fill="#f1eff0" />
<polygon points="154.0,0.0 158.0,42.0 163.0,33.0 172.0,34.0 171.0,5.0 161.0,7.0 158.0,0.0" fill="#a87459" opacity="0.95" />
<polygon points="41.0,38.0 41.0,46.0 29.0,61.0 23.0,63.0 19.0,71.0 25.0,77.0 46.0,46.0" fill="#48372f" />
<polygon points="156.0,70.0 153.0,72.0 152.0,82.0 157.0,121.0 166.0,78.0" fill="#dfb9a4" opacity="0.95" />
<polygon points="38.0,22.0 33.0,23.0 37.0,36.0 23.0,49.0 12.0,39.0 0.0,48.0 4.0,79.0 41.0,44.0 38.0,36.0 43.0,27.0" fill="#1f1716" opacity="0.95" />
<polygon points="174.0,0.0 188.0,23.0 192.0,23.0 199.0,0.0" fill="#dd0244" opacity="0.95" />
<polygon points="340.0,0.0 336.0,0.0 329.0,13.0 328.0,19.0 332.0,23.0 340.0,23.0 346.0,19.0 346.0,14.0 341.0,7.0" fill="#48372f" />
<polygon points="150.0,369.0 140.0,369.0 134.0,371.0 128.0,383.0 137.0,383.0 150.0,374.0" fill="#6f5c50" />
<polygon points="0.0,0.0 16.0,35.0 20.0,36.0 15.0,23.0 21.0,21.0 29.0,38.0 32.0,35.0 25.0,25.0 30.0,4.0 23.0,4.0 23.0,15.0 17.0,19.0 10.0,1.0" fill="#a78c7c" />
<polygon points="291.0,0.0 341.0,52.0 344.0,50.0 303.0,0.0" fill="#48372f" opacity="0.95" />
<polygon points="69.0,0.0 60.0,0.0 52.0,12.0 44.0,13.0 41.0,21.0 44.0,33.0 48.0,34.0 52.0,31.0" fill="#48372f" opacity="0.95" />
<polygon points="165.0,33.0 160.0,42.0 162.0,61.0 156.0,67.0 168.0,78.0 171.0,66.0 168.0,60.0 168.0,35.0" fill="#a78c7c" opacity="0.95" />
<polygon points="166.0,5.0 155.0,8.0 156.0,35.0 159.0,37.0 164.0,32.0 172.0,30.0 172.0,15.0" fill="#a87459" opacity="0.95" />
<polygon points="0.0,21.0 2.0,46.0 10.0,38.0 16.0,41.0 19.0,49.0 29.0,43.0 12.0,36.0 4.0,39.0 2.0,37.0 7.0,27.0 2.0,19.0" fill="#48372f" />
<polygon points="205.0,0.0 209.0,10.0 213.0,13.0 221.0,12.0 229.0,2.0 229.0,0.0" fill="#dfb9a4" opacity="0.95" />
<polygon points="174.0,0.0 185.0,19.0 189.0,22.0 191.0,21.0 199.0,0.0" fill="#dd0244" opacity="0.95" />
<polygon points="69.0,0.0 60.0,0.0 52.0,12.0 44.0,14.0 41.0,24.0 46.0,33.0 52.0,31.0" fill="#48372f" opacity="0.95" />
<polygon points="156.0,70.0 153.0,72.0 152.0,82.0 155.0,107.0 158.0,109.0 161.0,107.0 166.0,78.0" fill="#dfb9a4" opacity="0.95" />
<polygon points="0.0,0.0 13.0,25.0 19.0,20.0 26.0,21.0 31.0,13.0 26.0,0.0 23.0,15.0 18.0,19.0 11.0,10.0 10.0,0.0" fill="#a78c7c" opacity="0.95" />
<polygon points="205.0,0.0 209.0,10.0 213.0,13.0 221.0,12.0 229.0,2.0 229.0,0.0" fill="#dfb9a4" opacity="0.95" />
<polygon points="165.0,34.0 160.0,42.0 162.0,61.0 156.0,67.0 167.0,77.0 171.0,73.0 171.0,66.0 168.0,60.0 168.0,36.0" fill="#a78c7c" opacity="0.95" />
<polygon points="216.0,363.0 213.0,365.0 210.0,383.0 224.0,383.0 219.0,372.0 218.0,364.0" fill="#f1eff0" opacity="0.95" />
<polygon points="17.0,22.0 16.0,23.0 16.0,27.0 18.0,33.0 22.0,36.0 26.0,36.0 27.0,33.0 22.0,28.0 22.0,23.0 21.0,22.0" fill="#dfb9a4" />
<polygon points="213.0,368.0 211.0,373.0 210.0,383.0 224.0,383.0 220.0,375.0 219.0,369.0 216.0,367.0" fill="#f1eff0" opacity="0.95" />
<polygon points="6.0,16.0 5.0,17.0 7.0,19.0 6.0,21.0 13.0,32.0 14.0,31.0" fill="#a87459" />
<polygon points="158.0,52.0 156.0,53.0 154.0,59.0 154.0,62.0 156.0,63.0 161.0,61.0 160.0,53.0" fill="#a87459" opacity="0.95" />
<polygon points="257.0,22.0 256.0,23.0 257.0,24.0 256.0,25.0 257.0,28.0 256.0,30.0 256.0,38.0 257.0,39.0 258.0,38.0 258.0,30.0 257.0,29.0 258.0,27.0 257.0,24.0 258.0,23.0" fill="#a87459" />
<polygon points="158.0,55.0 156.0,56.0 154.0,59.0 154.0,61.0 157.0,63.0 161.0,60.0 161.0,57.0" fill="#a87459" opacity="0.95" />
<polygon points="173.0,62.0 172.0,63.0 171.0,63.0 171.0,65.0 172.0,66.0 172.0,67.0 173.0,67.0 174.0,68.0 175.0,67.0 176.0,67.0 176.0,64.0" fill="#a87459" opacity="0.95" />
</svg>