<svg xmlns="http://www.w3.org/2000/svg" width="768" height="768" viewBox="0 0 384 384">
<rect width="384" height="384" fill="#8e6858"/>
<polygon points="204.0,0.0 201.0,157.0 259.0,175.0 196.0,263.0 276.0,259.0 383.0,383.0 383.0,10.0" fill="#8e604c" />
<polygon points="0.0,161.0 0.0,383.0 164.0,383.0 156.0,318.0 180.0,267.0 134.0,242.0 113.0,192.0" fill="#b48069" />
<polygon points="0.0,0.0 0.0,160.0 113.0,191.0 135.0,242.0 184.0,277.0 186.0,254.0 130.0,214.0 124.0,172.0 184.0,157.0 179.0,0.0" fill="#8e604c" />
<polygon points="204.0,0.0 201.0,157.0 259.0,175.0 196.0,263.0 277.0,260.0 383.0,383.0 383.0,10.0" fill="#8e604c" opacity="0.95" />
<polygon points="204.0,0.0 201.0,156.0 259.0,175.0 197.0,262.0 246.0,244.0 383.0,383.0 383.0,10.0" fill="#8e604c" opacity="0.95" />
<polygon points="0.0,161.0 0.0,383.0 164.0,383.0 156.0,318.0 180.0,267.0 134.0,242.0 114.0,193.0" fill="#b48069" opacity="0.95" />
<polygon points="0.0,0.0 0.0,160.0 114.0,192.0 135.0,242.0 185.0,269.0 130.0,214.0 124.0,172.0 184.0,157.0 179.0,0.0" fill="#8e604c" opacity="0.95" />
<polygon points="197.0,267.0 197.0,281.0 221.0,296.0 212.0,383.0 366.0,383.0 334.0,332.0 290.0,296.0 276.0,260.0 246.0,245.0" fill="#b48069" />
<polygon points="0.0,161.0 0.0,383.0 164.0,383.0 156.0,318.0 180.0,267.0 134.0,242.0 97.0,183.0" fill="#b48069" opacity="0.95" />
<polygon points="0.0,0.0 0.0,160.0 97.0,182.0 141.0,248.0 184.0,266.0 130.0,214.0 124.0,172.0 184.0,156.0 179.0,0.0" fill="#8e604c" opacity="0.95" />
<polygon points="126.0,160.0 138.0,199.0 183.0,227.0 229.0,215.0 258.0,172.0 257.0,159.0 200.0,159.0 189.0,147.0 183.0,159.0" fill="#4ee8f1" />
<polygon points="197.0,267.0 221.0,296.0 212.0,383.0 365.0,383.0 334.0,332.0 290.0,296.0 277.0,261.0 246.0,245.0" fill="#b48069" opacity="0.95" />
<polygon points="189.0,249.0 187.0,282.0 161.0,297.0 169.0,383.0 211.0,383.0 219.0,295.0 195.0,281.0" fill="#0c0d14" />
<polygon points="181.0,0.0 183.0,117.0 203.0,118.0 203.0,0.0" fill="#e70a6b" />
<polygon points="197.0,267.0 221.0,296.0 212.0,383.0 365.0,383.0 334.0,332.0 290.0,296.0 277.0,261.0 246.0,245.0" fill="#b48069" opacity="0.95" />
<polygon points="126.0,160.0 138.0,199.0 183.0,227.0 229.0,215.0 258.0,172.0 256.0,159.0 201.0,159.0 189.0,147.0 182.0,159.0" fill="#4ee8f1" opacity="0.95" />
<polygon points="189.0,264.0 187.0,282.0 162.0,295.0 169.0,383.0 211.0,383.0 219.0,295.0 195.0,282.0" fill="#0c0d14" opacity="0.95" />
<polygon points="126.0,161.0 138.0,199.0 183.0,227.0 229.0,215.0 258.0,172.0 255.0,159.0 202.0,159.0 189.0,147.0 181.0,159.0" fill="#4ee8f1" opacity="0.95" />
<polygon points="181.0,0.0 183.0,117.0 203.0,117.0 203.0,0.0" fill="#e70a6b" opacity="0.95" />
<polygon points="190.0,265.0 187.0,281.0 162.0,295.0 169.0,383.0 211.0,383.0 219.0,295.0 195.0,281.0" fill="#0c0d14" opacity="0.95" />
<polygon points="131.0,195.0 147.0,224.0 189.0,247.0 193.0,235.0 200.0,242.0 229.0,228.0 250.0,199.0 218.0,223.0 186.0,229.0" fill="#0c0d14" />
<polygon points="181.0,0.0 183.0,116.0 202.0,117.0 206.0,108.0 203.0,0.0" fill="#e70a6b" opacity="0.95" />
<polygon points="179.0,20.0 176.0,110.0 180.0,115.0 183.0,78.0" fill="#442922" />
<polygon points="132.0,198.0 147.0,224.0 188.0,244.0 225.0,231.0 248.0,204.0 186.0,229.0" fill="#0c0d14" opacity="0.95" />
<polygon points="129.0,187.0 127.0,203.0 138.0,224.0 186.0,253.0 186.0,244.0 143.0,221.0" fill="#442922" />
<polygon points="133.0,201.0 147.0,224.0 185.0,243.0 220.0,234.0 245.0,210.0 186.0,229.0" fill="#0c0d14" opacity="0.95" />
<polygon points="160.0,310.0 157.0,343.0 165.0,383.0 168.0,383.0" fill="#8e604c" />
<polygon points="253.0,191.0 238.0,221.0 198.0,243.0 198.0,249.0 241.0,224.0 252.0,206.0" fill="#442922" />
<polygon points="179.0,36.0 175.0,97.0 176.0,110.0 180.0,114.0 183.0,105.0 183.0,78.0" fill="#442922" opacity="0.95" />
<polygon points="127.0,190.0 128.0,207.0 138.0,224.0 157.0,240.0 187.0,250.0 186.0,244.0 147.0,225.0" fill="#442922" opacity="0.95" />
<polygon points="160.0,313.0 157.0,318.0 157.0,343.0 165.0,373.0 167.0,367.0" fill="#8e604c" opacity="0.95" />
<polygon points="248.0,212.0 225.0,232.0 197.0,244.0 197.0,248.0 227.0,236.0" fill="#442922" opacity="0.95" />
<polygon points="131.0,212.0 157.0,240.0 187.0,249.0 186.0,244.0 161.0,235.0 136.0,211.0" fill="#442922" opacity="0.95" />
<polygon points="179.0,56.0 176.0,58.0 175.0,77.0 176.0,110.0 179.0,112.0 183.0,105.0 182.0,58.0" fill="#442922" opacity="0.95" />
<polygon points="182.0,127.0 187.0,132.0 201.0,131.0 204.0,126.0 203.0,125.0 196.0,126.0 194.0,124.0 188.0,124.0" fill="#442922" />
<polygon points="181.0,119.0 182.0,124.0 203.0,123.0 204.0,122.0 204.0,120.0 202.0,118.0 192.0,118.0 191.0,119.0 183.0,119.0 182.0,118.0" fill="#8c1437" />
<polygon points="181.0,138.0 182.0,139.0 181.0,144.0 183.0,146.0 187.0,146.0 190.0,143.0 196.0,141.0 195.0,139.0 187.0,139.0 184.0,137.0" fill="#442922" />
<polygon points="181.0,120.0 181.0,123.0 183.0,124.0 204.0,122.0 204.0,119.0 202.0,118.0 192.0,118.0" fill="#8c1437" opacity="0.95" />
<polygon points="160.0,332.0 157.0,334.0 157.0,343.0 160.0,360.0 163.0,362.0 166.0,358.0 163.0,334.0" fill="#8e604c" opacity="0.95" />
<polygon points="193.0,240.0 192.0,241.0 192.0,248.0 194.0,250.0 195.0,249.0 195.0,241.0 194.0,240.0" fill="#d1e7e6" />
<polygon points="195.0,257.0 193.0,257.0 191.0,259.0 191.0,264.0 193.0,266.0 194.0,266.0 195.0,265.0 195.0,261.0 196.0,260.0 196.0,258.0" fill="#1c5869" />
<polygon points="193.0,250.0 192.0,250.0 191.0,251.0 191.0,256.0 192.0,257.0 195.0,255.0 195.0,252.0" fill="#5094a1" />
<polygon points="189.0,145.0 190.0,146.0 195.0,146.0 196.0,145.0 196.0,144.0 195.0,143.0 192.0,143.0" fill="#0c0d14" />
<polygon points="194.0,257.0 191.0,258.0 191.0,264.0 193.0,265.0 195.0,264.0 195.0,261.0 196.0,260.0 196.0,258.0" fill="#1c5869" opacity="0.95" />
<polygon points="198.0,147.0 197.0,148.0 197.0,149.0 198.0,150.0 198.0,155.0 199.0,156.0 200.0,155.0 200.0,151.0 199.0,150.0 199.0,148.0" fill="#d1e7e6" />
<polygon points="193.0,250.0 192.0,251.0 191.0,251.0 191.0,255.0 192.0,255.0 193.0,256.0 194.0,255.0 195.0,255.0 195.0,251.0 194.0,251.0" fill="#5094a1" opacity="0.95" />
</svg>