<svg xmlns="http://www.w3.org/2000/svg" width="768" height="768" viewBox="0 0 384 384">
<rect width="384" height="384" fill="#8c6a5f"/>
<polygon points="0.0,0.0 0.0,383.0 383.0,383.0 383.0,0.0" fill="#916156" />
<polygon points="0.0,0.0 0.0,383.0 383.0,383.0 383.0,0.0" fill="#916156" opacity="0.95" />
<polygon points="0.0,0.0 0.0,383.0 383.0,383.0 383.0,0.0" fill="#916156" opacity="0.95" />
<polygon points="184.0,128.0 231.0,140.0 254.0,178.0 245.0,230.0 200.0,253.0 149.0,238.0 130.0,196.0 139.0,153.0" fill="#916156" />
<polygon points="139.0,157.0 134.0,190.0 167.0,220.0 219.0,217.0 248.0,189.0 241.0,153.0 209.0,131.0 167.0,134.0" fill="#12d3e0" />
<polygon points="184.0,128.0 231.0,140.0 254.0,178.0 245.0,230.0 200.0,253.0 149.0,238.0 130.0,196.0 139.0,153.0" fill="#916156" opacity="0.95" />
<polygon points="184.0,128.0 231.0,140.0 254.0,178.0 245.0,230.0 200.0,253.0 149.0,238.0 130.0,196.0 139.0,153.0" fill="#916156" opacity="0.95" />
<polygon points="139.0,157.0 134.0,190.0 167.0,220.0 219.0,217.0 248.0,189.0 241.0,153.0 209.0,131.0 167.0,134.0" fill="#12d3e0" opacity="0.95" />
<polygon points="139.0,157.0 134.0,190.0 167.0,220.0 219.0,217.0 248.0,189.0 241.0,153.0 209.0,131.0 167.0,134.0" fill="#12d3e0" opacity="0.95" />
<polygon points="252.0,192.0 228.0,220.0 200.0,230.0 163.0,228.0 133.0,201.0 154.0,234.0 203.0,244.0 238.0,228.0" fill="#23181a" />
<polygon points="253.0,203.0 237.0,230.0 203.0,245.0 154.0,235.0 134.0,210.0 156.0,242.0 200.0,252.0 237.0,238.0" fill="#563835" />
<polygon points="251.0,199.0 228.0,220.0 200.0,230.0 163.0,228.0 135.0,207.0 154.0,234.0 203.0,244.0 237.0,229.0" fill="#23181a" opacity="0.95" />
<polygon points="249.0,205.0 200.0,230.0 166.0,229.0 137.0,212.0 166.0,240.0 203.0,244.0 237.0,229.0" fill="#23181a" opacity="0.95" />
<polygon points="251.0,214.0 229.0,236.0 203.0,245.0 145.0,233.0 172.0,249.0 206.0,251.0 237.0,238.0" fill="#563835" opacity="0.95" />
<polygon points="175.0,169.0 181.0,169.0 185.0,172.0 183.0,176.0 186.0,180.0 186.0,183.0 183.0,187.0 175.0,187.0 173.0,185.0 173.0,171.0" fill="#12d3e0" />
<polygon points="189.0,136.0 194.0,137.0 198.0,141.0 198.0,146.0 193.0,151.0 188.0,150.0 184.0,145.0 185.0,140.0" fill="#12d3e0" />
<polygon points="146.0,210.0 176.0,225.0 200.0,225.0 218.0,219.0 176.0,223.0" fill="#08a1b3" />
<polygon points="241.0,231.0 203.0,245.0 176.0,244.0 155.0,235.0 152.0,239.0 172.0,249.0 200.0,252.0 234.0,240.0" fill="#563835" opacity="0.95" />
<polygon points="176.0,169.0 181.0,169.0 185.0,172.0 184.0,177.0 186.0,183.0 182.0,187.0 176.0,187.0 173.0,185.0 173.0,171.0" fill="#12d3e0" opacity="0.95" />
<polygon points="199.0,169.0 207.0,169.0 209.0,171.0 207.0,174.0 202.0,175.0 209.0,178.0 202.0,181.0 203.0,183.0 207.0,182.0 209.0,184.0 207.0,187.0 199.0,187.0 197.0,185.0 197.0,171.0" fill="#12d3e0" />
<polygon points="190.0,136.0 194.0,137.0 198.0,141.0 198.0,146.0 193.0,151.0 188.0,150.0 184.0,145.0 185.0,140.0" fill="#12d3e0" opacity="0.95" />
<polygon points="200.0,169.0 206.0,169.0 209.0,171.0 207.0,174.0 209.0,177.0 207.0,180.0 208.0,185.0 205.0,187.0 200.0,187.0 197.0,185.0 197.0,171.0" fill="#12d3e0" opacity="0.95" />
<polygon points="177.0,169.0 181.0,169.0 185.0,172.0 184.0,177.0 186.0,183.0 181.0,187.0 177.0,187.0 173.0,184.0 173.0,172.0" fill="#12d3e0" opacity="0.95" />
<polygon points="190.0,138.0 187.0,141.0 186.0,144.0 189.0,148.0 193.0,148.0 194.0,149.0 197.0,145.0 197.0,142.0 194.0,138.0" fill="#112229" />
<polygon points="227.0,217.0 209.0,224.0 192.0,227.0 199.0,228.0 212.0,225.0" fill="#057d90" />
<polygon points="156.0,223.0 166.0,228.0 176.0,228.0 158.0,222.0" fill="#112229" />
<polygon points="191.0,138.0 187.0,141.0 187.0,146.0 190.0,148.0 194.0,148.0 196.0,147.0 197.0,142.0 195.0,139.0" fill="#112229" opacity="0.95" />
<polygon points="176.0,171.0 175.0,179.0 177.0,180.0 180.0,178.0 182.0,180.0 180.0,184.0 183.0,185.0 184.0,179.0 181.0,176.0 183.0,172.0 181.0,171.0 181.0,174.0 178.0,176.0 176.0,174.0 178.0,172.0" fill="#23181a" />
<polygon points="191.0,138.0 187.0,141.0 187.0,146.0 190.0,148.0 193.0,148.0 197.0,145.0 197.0,142.0 195.0,139.0" fill="#112229" opacity="0.95" />
<polygon points="200.0,171.0 199.0,172.0 199.0,184.0 201.0,185.0 202.0,184.0 201.0,183.0 201.0,179.0 202.0,178.0 201.0,177.0 201.0,173.0 202.0,172.0" fill="#23181a" />
</svg>