<svg xmlns="http://www.w3.org/2000/svg" width="768" height="768" viewBox="0 0 384 384">
<rect width="384" height="384" fill="#8f6657"/>
<polygon points="153.0,0.0 71.0,7.0 0.0,52.0 1.0,263.0 92.0,177.0 159.0,158.0" fill="#8f6351" />
<polygon points="224.0,0.0 208.0,106.0 226.0,172.0 323.0,239.0 357.0,383.0 383.0,383.0 377.0,111.0 334.0,53.0" fill="#8f6351" />
<polygon points="157.0,160.0 92.0,178.0 9.0,248.0 0.0,383.0 163.0,383.0 161.0,298.0 183.0,268.0 165.0,263.0" fill="#b17f69" />
<polygon points="221.0,153.0 234.0,323.0 214.0,339.0 214.0,383.0 356.0,383.0 356.0,319.0 322.0,239.0 242.0,169.0 228.0,175.0" fill="#b17f69" />
<polygon points="153.0,0.0 71.0,7.0 0.0,52.0 0.0,262.0 90.0,178.0 159.0,157.0" fill="#8f6351" opacity="0.95" />
<polygon points="224.0,0.0 226.0,172.0 323.0,239.0 358.0,383.0 383.0,383.0 377.0,111.0 334.0,53.0" fill="#8f6351" opacity="0.95" />
<polygon points="159.0,164.0 90.0,179.0 9.0,248.0 0.0,383.0 162.0,383.0 161.0,297.0 183.0,268.0 165.0,264.0" fill="#b17f69" opacity="0.95" />
<polygon points="153.0,0.0 71.0,7.0 0.0,52.0 0.0,262.0 91.0,178.0 159.0,157.0" fill="#8f6351" opacity="0.95" />
<polygon points="224.0,0.0 225.0,169.0 323.0,239.0 358.0,383.0 383.0,383.0 377.0,111.0 331.0,51.0" fill="#8f6351" opacity="0.95" />
<polygon points="158.0,165.0 91.0,179.0 9.0,248.0 0.0,383.0 162.0,383.0 161.0,298.0 181.0,278.0 165.0,263.0" fill="#b17f69" opacity="0.95" />
<polygon points="221.0,170.0 234.0,323.0 214.0,339.0 214.0,383.0 356.0,383.0 356.0,319.0 322.0,239.0 244.0,170.0" fill="#b17f69" opacity="0.95" />
<polygon points="241.0,0.0 334.0,52.0 383.0,127.0 383.0,0.0" fill="#603e33" />
<polygon points="222.0,173.0 234.0,323.0 214.0,339.0 214.0,383.0 356.0,383.0 356.0,319.0 322.0,239.0 243.0,170.0" fill="#b17f69" opacity="0.95" />
<polygon points="229.0,224.0 194.0,241.0 200.0,383.0 213.0,383.0 212.0,339.0 232.0,324.0" fill="#454a4f" />
<polygon points="157.0,0.0 160.0,101.0 165.0,108.0 186.0,108.0 180.0,0.0" fill="#b2040e" />
<polygon points="225.0,221.0 166.0,233.0 166.0,263.0 185.0,270.0 184.0,292.0 163.0,298.0 165.0,381.0 199.0,383.0 193.0,236.0" fill="#131b23" />
<polygon points="242.0,0.0 334.0,52.0 383.0,123.0 383.0,0.0" fill="#603e33" opacity="0.95" />
<polygon points="161.0,113.0 161.0,221.0 166.0,230.0 186.0,231.0 182.0,223.0 182.0,115.0" fill="#065d62" />
<polygon points="218.0,158.0 187.0,187.0 184.0,220.0 189.0,229.0 212.0,224.0 220.0,216.0" fill="#26cdc5" />
<polygon points="242.0,0.0 334.0,52.0 383.0,122.0 383.0,0.0" fill="#603e33" opacity="0.95" />
<polygon points="0.0,51.0 24.0,25.0 63.0,8.0 103.0,0.0 0.0,0.0" fill="#603e33" />
<polygon points="228.0,224.0 194.0,240.0 200.0,383.0 213.0,383.0 204.0,360.0 213.0,357.0 212.0,339.0 232.0,324.0" fill="#454a4f" opacity="0.95" />
<polygon points="195.0,230.0 166.0,233.0 166.0,263.0 185.0,268.0 183.0,292.0 163.0,298.0 168.0,383.0 199.0,383.0" fill="#131b23" opacity="0.95" />
<polygon points="186.0,56.0 186.0,103.0 213.0,102.0 217.0,89.0 211.0,73.0" fill="#fd3354" />
<polygon points="162.0,113.0 161.0,221.0 167.0,230.0 183.0,231.0 181.0,115.0" fill="#065d62" opacity="0.95" />
<polygon points="157.0,0.0 160.0,101.0 165.0,108.0 185.0,108.0 180.0,0.0" fill="#b2040e" opacity="0.95" />
<polygon points="218.0,112.0 182.0,116.0 184.0,163.0 193.0,153.0 207.0,147.0 212.0,131.0 219.0,122.0" fill="#8fb9bd" />
<polygon points="183.0,0.0 182.0,21.0 215.0,52.0 221.0,73.0 219.0,0.0 196.0,0.0 193.0,14.0" fill="#fb8383" />
<polygon points="228.0,224.0 194.0,241.0 196.0,333.0 203.0,359.0 213.0,357.0 212.0,339.0 232.0,324.0" fill="#454a4f" opacity="0.95" />
<polygon points="218.0,126.0 208.0,147.0 184.0,164.0 184.0,192.0 217.0,158.0" fill="#6cbcbf" />
<polygon points="191.0,231.0 166.0,234.0 166.0,262.0 185.0,268.0 183.0,290.0 163.0,298.0 168.0,383.0 199.0,383.0" fill="#131b23" opacity="0.95" />
<polygon points="217.0,160.0 187.0,187.0 184.0,220.0 189.0,229.0 212.0,224.0 220.0,216.0" fill="#26cdc5" opacity="0.95" />
<polygon points="162.0,113.0 161.0,221.0 165.0,229.0 181.0,231.0 181.0,116.0" fill="#065d62" opacity="0.95" />
<polygon points="157.0,0.0 160.0,101.0 165.0,108.0 183.0,108.0 180.0,0.0" fill="#b2040e" opacity="0.95" />
<polygon points="0.0,51.0 22.0,26.0 102.0,0.0 0.0,0.0" fill="#603e33" opacity="0.95" />
<polygon points="185.0,25.0 183.0,49.0 212.0,73.0 218.0,89.0 216.0,102.0 222.0,95.0 222.0,79.0 215.0,54.0" fill="#fd606c" />
<polygon points="219.0,113.0 197.0,112.0 182.0,116.0 183.0,160.0 207.0,147.0 219.0,123.0" fill="#8fb9bd" opacity="0.95" />
<polygon points="185.0,58.0 186.0,103.0 214.0,101.0 217.0,89.0 211.0,73.0" fill="#fd3354" opacity="0.95" />
<polygon points="216.0,162.0 187.0,187.0 184.0,220.0 189.0,229.0 212.0,224.0 220.0,216.0 219.0,164.0" fill="#26cdc5" opacity="0.95" />
<polygon points="0.0,51.0 18.0,28.0 93.0,0.0 0.0,0.0" fill="#603e33" opacity="0.95" />
<polygon points="196.0,0.0 197.0,10.0 191.0,14.0 183.0,9.0 182.0,20.0 219.0,60.0 219.0,0.0" fill="#fb8383" opacity="0.95" />
<polygon points="186.0,28.0 183.0,49.0 212.0,73.0 219.0,98.0 222.0,79.0 215.0,54.0" fill="#fd606c" opacity="0.95" />
<polygon points="219.0,127.0 215.0,127.0 208.0,147.0 184.0,164.0 183.0,186.0 193.0,182.0 217.0,158.0" fill="#6cbcbf" opacity="0.95" />
<polygon points="186.0,59.0 185.0,101.0 189.0,104.0 213.0,101.0 217.0,89.0 211.0,73.0" fill="#fd3354" opacity="0.95" />
<polygon points="196.0,0.0 197.0,10.0 192.0,14.0 183.0,11.0 182.0,20.0 196.0,38.0 218.0,55.0 221.0,53.0 219.0,0.0" fill="#fb8383" opacity="0.95" />
<polygon points="185.0,31.0 186.0,55.0 221.0,83.0 214.0,52.0" fill="#fd606c" opacity="0.95" />
<polygon points="218.0,130.0 213.0,131.0 208.0,147.0 184.0,164.0 184.0,184.0 193.0,182.0 217.0,158.0" fill="#6cbcbf" opacity="0.95" />
<polygon points="216.0,112.0 184.0,115.0 182.0,139.0 185.0,141.0 193.0,135.0 198.0,140.0 197.0,149.0 205.0,149.0 219.0,122.0" fill="#8fb9bd" opacity="0.95" />
<polygon points="191.0,135.0 195.0,136.0 198.0,140.0 198.0,145.0 193.0,151.0 191.0,151.0 187.0,147.0 187.0,140.0" fill="#8fb9bd" />
<polygon points="207.0,106.0 170.0,109.0 166.0,111.0 188.0,113.0 206.0,108.0" fill="#131b23" />
<polygon points="204.0,251.0 208.0,252.0 211.0,256.0 211.0,261.0 206.0,267.0 202.0,264.0 203.0,263.0 201.0,260.0 203.0,255.0 202.0,253.0" fill="#454a4f" />
<polygon points="188.0,0.0 187.0,2.0 188.0,10.0 190.0,12.0 194.0,12.0 196.0,10.0 196.0,3.0 194.0,0.0" fill="#131b23" />
<polygon points="191.0,137.0 188.0,140.0 188.0,146.0 191.0,150.0 193.0,150.0 196.0,147.0 196.0,139.0 194.0,137.0" fill="#131b23" />
<polygon points="206.0,252.0 204.0,254.0 202.0,260.0 207.0,265.0 210.0,261.0 210.0,256.0" fill="#131b23" />
<polygon points="192.0,135.0 195.0,136.0 198.0,140.0 198.0,145.0 196.0,149.0 193.0,151.0 187.0,147.0 187.0,140.0" fill="#8fb9bd" opacity="0.95" />
<polygon points="207.0,357.0 210.0,360.0 210.0,368.0 209.0,369.0 209.0,372.0 207.0,374.0 204.0,371.0 204.0,360.0" fill="#454a4f" />
<polygon points="206.0,251.0 210.0,254.0 211.0,261.0 208.0,265.0 205.0,266.0 202.0,264.0 201.0,258.0 202.0,254.0" fill="#454a4f" opacity="0.95" />
<polygon points="206.0,251.0 211.0,256.0 211.0,261.0 206.0,266.0 202.0,263.0 201.0,260.0 202.0,254.0" fill="#454a4f" opacity="0.95" />
<polygon points="193.0,137.0 188.0,140.0 188.0,146.0 189.0,148.0 192.0,150.0 196.0,147.0 196.0,139.0" fill="#131b23" opacity="0.95" />
<polygon points="188.0,0.0 187.0,2.0 188.0,10.0 191.0,12.0 195.0,11.0 196.0,10.0 195.0,0.0" fill="#131b23" opacity="0.95" />
<polygon points="207.0,358.0 205.0,360.0 205.0,371.0 207.0,373.0 208.0,372.0 208.0,369.0 209.0,368.0 209.0,360.0" fill="#131b23" />
<polygon points="185.0,146.0 182.0,148.0 182.0,154.0 183.0,157.0 186.0,159.0 192.0,154.0 192.0,151.0" fill="#8fb9bd" opacity="0.95" />
<polygon points="200.0,374.0 200.0,383.0 213.0,383.0 211.0,374.0 209.0,373.0 206.0,374.0 203.0,372.0" fill="#454a4f" opacity="0.95" />
<polygon points="1.0,270.0 0.0,271.0 0.0,277.0 1.0,277.0 3.0,275.0 3.0,273.0" fill="#8f6351" />
</svg>