<svg xmlns="http://www.w3.org/2000/svg" width="768" height="768" viewBox="0 0 384 384">
<rect width="384" height="384" fill="#916a59"/>
<polygon points="176.0,16.0 76.0,32.0 0.0,91.0 0.0,383.0 159.0,383.0 183.0,278.0 121.0,192.0 174.0,125.0" fill="#a46f57" />
<polygon points="197.0,16.0 207.0,126.0 256.0,173.0 204.0,254.0 211.0,383.0 383.0,383.0 383.0,100.0 316.0,39.0" fill="#a46f57" />
<polygon points="176.0,16.0 76.0,32.0 0.0,91.0 0.0,383.0 159.0,383.0 182.0,277.0 121.0,192.0 174.0,125.0" fill="#a46f57" opacity="0.95" />
<polygon points="206.0,14.0 207.0,126.0 256.0,173.0 204.0,254.0 211.0,383.0 383.0,383.0 383.0,100.0 313.0,38.0" fill="#a46f57" opacity="0.95" />
<polygon points="206.0,14.0 207.0,126.0 256.0,173.0 204.0,255.0 211.0,383.0 383.0,383.0 383.0,100.0 313.0,38.0" fill="#a46f57" opacity="0.95" />
<polygon points="176.0,16.0 76.0,32.0 0.0,91.0 0.0,383.0 159.0,383.0 182.0,277.0 121.0,192.0 174.0,125.0" fill="#a46f57" opacity="0.95" />
<polygon points="0.0,0.0 0.0,90.0 130.0,18.0 178.0,16.0 175.0,63.0 195.0,11.0 316.0,38.0 383.0,99.0 383.0,0.0" fill="#72493c" />
<polygon points="250.0,162.0 209.0,134.0 211.0,173.0 186.0,181.0 160.0,140.0 138.0,157.0 132.0,180.0 151.0,208.0 206.0,219.0 246.0,200.0" fill="#36d7e0" />
<polygon points="0.0,0.0 0.0,90.0 76.0,31.0 171.0,14.0 182.0,34.0 194.0,11.0 313.0,37.0 383.0,99.0 383.0,0.0" fill="#72493c" opacity="0.95" />
<polygon points="131.0,189.0 141.0,226.0 185.0,257.0 167.0,307.0 169.0,383.0 210.0,383.0 217.0,306.0 191.0,268.0 192.0,231.0 152.0,219.0" fill="#1b1422" />
<polygon points="0.0,0.0 0.0,90.0 76.0,31.0 195.0,11.0 313.0,37.0 383.0,99.0 383.0,0.0" fill="#72493c" opacity="0.95" />
<polygon points="253.0,171.0 235.0,144.0 210.0,134.0 207.0,178.0 178.0,178.0 160.0,140.0 138.0,157.0 132.0,180.0 151.0,208.0 195.0,220.0 240.0,206.0" fill="#36d7e0" opacity="0.95" />
<polygon points="133.0,194.0 141.0,226.0 185.0,257.0 167.0,307.0 169.0,383.0 210.0,383.0 217.0,306.0 191.0,268.0 192.0,231.0 155.0,221.0" fill="#1b1422" opacity="0.95" />
<polygon points="190.0,25.0 180.0,68.0 180.0,100.0 208.0,109.0 209.0,71.0 198.0,63.0" fill="#e30348" />
<polygon points="253.0,171.0 235.0,144.0 211.0,134.0 207.0,178.0 178.0,178.0 160.0,140.0 138.0,157.0 132.0,180.0 151.0,208.0 195.0,220.0 240.0,206.0" fill="#36d7e0" opacity="0.95" />
<polygon points="134.0,196.0 141.0,226.0 185.0,257.0 167.0,307.0 169.0,383.0 210.0,383.0 217.0,306.0 191.0,266.0 192.0,232.0 155.0,221.0" fill="#1b1422" opacity="0.95" />
<polygon points="127.0,173.0 122.0,197.0 131.0,228.0 175.0,260.0 183.0,277.0 183.0,254.0 137.0,221.0" fill="#72493c" />
<polygon points="191.0,31.0 180.0,68.0 180.0,100.0 207.0,108.0 209.0,71.0 198.0,63.0" fill="#e30348" opacity="0.95" />
<polygon points="245.0,214.0 223.0,232.0 204.0,241.0 204.0,251.0 212.0,250.0 232.0,237.0" fill="#72493c" />
<polygon points="165.0,309.0 156.0,342.0 160.0,383.0 168.0,383.0 163.0,351.0" fill="#72493c" />
<polygon points="194.0,112.0 188.0,114.0 191.0,160.0 196.0,157.0" fill="#4e5775" />
<polygon points="190.0,35.0 185.0,40.0 180.0,68.0 180.0,100.0 206.0,107.0 209.0,71.0 198.0,63.0 194.0,37.0" fill="#e30348" opacity="0.95" />
<polygon points="126.0,174.0 122.0,197.0 131.0,228.0 185.0,271.0 183.0,254.0 140.0,226.0" fill="#72493c" opacity="0.95" />
<polygon points="188.0,19.0 174.0,70.0 175.0,107.0 182.0,105.0 179.0,68.0" fill="#751428" />
<polygon points="195.0,20.0 193.0,27.0 200.0,62.0 207.0,67.0" fill="#ead6da" />
<polygon points="178.0,220.0 184.0,227.0 194.0,230.0 208.0,226.0 212.0,220.0" fill="#0a357d" />
<polygon points="243.0,218.0 203.0,242.0 204.0,251.0 230.0,239.0" fill="#72493c" opacity="0.95" />
<polygon points="177.0,171.0 181.0,174.0 189.0,173.0 191.0,175.0 196.0,172.0 200.0,175.0 206.0,168.0 199.0,162.0 187.0,161.0 179.0,165.0" fill="#071447" />
<polygon points="174.0,109.0 180.0,158.0 182.0,142.0 180.0,123.0 177.0,119.0 181.0,108.0" fill="#1b1422" />
<polygon points="251.0,194.0 241.0,207.0 223.0,217.0 226.0,223.0 235.0,220.0 244.0,212.0 250.0,203.0" fill="#0a357d" />
<polygon points="203.0,114.0 201.0,149.0 204.0,160.0 207.0,152.0 206.0,137.0 211.0,130.0 206.0,126.0" fill="#7b8491" />
<polygon points="125.0,177.0 122.0,197.0 131.0,228.0 150.0,248.0 183.0,265.0 179.0,250.0 140.0,226.0 130.0,201.0 131.0,179.0" fill="#72493c" opacity="0.95" />
<polygon points="164.0,313.0 156.0,342.0 160.0,383.0 168.0,383.0 164.0,361.0" fill="#72493c" opacity="0.95" />
<polygon points="228.0,226.0 222.0,226.0 217.0,223.0 209.0,228.0 203.0,229.0 203.0,239.0 206.0,240.0 218.0,234.0" fill="#1b1422" />
<polygon points="198.0,110.0 197.0,152.0 198.0,160.0 202.0,162.0 199.0,120.0 201.0,113.0" fill="#ead6da" />
<polygon points="185.0,113.0 186.0,160.0 188.0,123.0" fill="#ada4b2" />
<polygon points="181.0,46.0 174.0,70.0 176.0,107.0 180.0,105.0" fill="#751428" opacity="0.95" />
<polygon points="201.0,239.0 200.0,272.0 201.0,279.0 204.0,280.0" fill="#ead6da" />
<polygon points="174.0,160.0 173.0,134.0 162.0,136.0 145.0,147.0 157.0,140.0 166.0,140.0 171.0,158.0" fill="#21a1b8" />
<polygon points="191.0,113.0 189.0,114.0 190.0,159.0 193.0,160.0 196.0,157.0 195.0,114.0" fill="#4e5775" opacity="0.95" />
<polygon points="195.0,20.0 193.0,27.0 200.0,62.0 205.0,67.0 207.0,61.0" fill="#ead6da" opacity="0.95" />
<polygon points="176.0,159.0 179.0,163.0 177.0,171.0 181.0,174.0 195.0,172.0 200.0,175.0 205.0,170.0 205.0,166.0 199.0,162.0 183.0,163.0 180.0,159.0" fill="#071447" opacity="0.95" />
<polygon points="149.0,210.0 162.0,222.0 166.0,223.0 170.0,218.0 156.0,213.0 150.0,209.0" fill="#0a357d" />
<polygon points="225.0,227.0 217.0,223.0 202.0,230.0 203.0,239.0 205.0,240.0 218.0,234.0" fill="#1b1422" opacity="0.95" />
<polygon points="192.0,113.0 189.0,115.0 190.0,157.0 193.0,159.0 196.0,157.0 195.0,115.0" fill="#4e5775" opacity="0.95" />
<polygon points="181.0,221.0 182.0,226.0 193.0,229.0 201.0,229.0 209.0,225.0 209.0,221.0 207.0,220.0" fill="#0a357d" opacity="0.95" />
<polygon points="250.0,201.0 246.0,201.0 241.0,207.0 224.0,216.0 225.0,222.0 229.0,223.0 239.0,217.0" fill="#0a357d" opacity="0.95" />
<polygon points="177.0,168.0 177.0,171.0 181.0,174.0 195.0,172.0 200.0,175.0 205.0,170.0 203.0,164.0 195.0,161.0 187.0,161.0" fill="#071447" opacity="0.95" />
<polygon points="203.0,117.0 201.0,118.0 202.0,153.0 205.0,154.0 207.0,153.0 206.0,137.0 209.0,129.0" fill="#7b8491" opacity="0.95" />
<polygon points="195.0,242.0 193.0,243.0 193.0,267.0 194.0,268.0 196.0,265.0 196.0,243.0" fill="#ead6da" />
<polygon points="141.0,202.0 140.0,203.0 144.0,211.0 157.0,221.0 158.0,220.0" fill="#071447" />
<polygon points="224.0,227.0 217.0,223.0 203.0,230.0 203.0,237.0 207.0,239.0 223.0,231.0" fill="#1b1422" opacity="0.95" />
<polygon points="178.0,107.0 174.0,109.0 177.0,118.0 175.0,130.0 179.0,152.0 182.0,144.0 181.0,129.0 177.0,121.0 181.0,111.0" fill="#1b1422" opacity="0.95" />
<polygon points="181.0,222.0 183.0,226.0 193.0,229.0 201.0,229.0 209.0,225.0 209.0,222.0 206.0,220.0 184.0,220.0" fill="#0a357d" opacity="0.95" />
<polygon points="245.0,208.0 242.0,206.0 226.0,215.0 224.0,220.0 228.0,223.0 235.0,220.0 244.0,212.0" fill="#0a357d" opacity="0.95" />
<polygon points="226.0,224.0 222.0,218.0 218.0,218.0 210.0,223.0 211.0,225.0 217.0,222.0 219.0,222.0 222.0,225.0" fill="#071447" />
<polygon points="165.0,135.0 161.0,137.0 161.0,139.0 168.0,142.0 170.0,155.0 172.0,156.0 174.0,155.0 174.0,135.0" fill="#21a1b8" opacity="0.95" />
<polygon points="166.0,224.0 169.0,225.0 174.0,223.0 179.0,227.0 181.0,226.0 180.0,223.0 177.0,220.0 171.0,219.0" fill="#071447" />
<polygon points="200.0,42.0 197.0,44.0 200.0,62.0 204.0,66.0 207.0,64.0 203.0,44.0" fill="#ead6da" opacity="0.95" />
<polygon points="153.0,213.0 153.0,215.0 162.0,222.0 165.0,223.0 169.0,220.0 169.0,218.0 155.0,212.0" fill="#0a357d" opacity="0.95" />
<polygon points="187.0,107.0 189.0,112.0 193.0,111.0 195.0,109.0 199.0,109.0 200.0,108.0 194.0,106.0 191.0,107.0 188.0,106.0" fill="#1b1422" />
<polygon points="170.0,134.0 165.0,136.0 164.0,139.0 171.0,145.0 174.0,143.0 174.0,136.0" fill="#21a1b8" opacity="0.95" />
<polygon points="190.0,16.0 191.0,17.0 192.0,16.0 194.0,16.0 197.0,14.0 195.0,12.0 192.0,12.0 190.0,14.0" fill="#e30348" />
<polygon points="157.0,216.0 157.0,218.0 162.0,222.0 165.0,223.0 169.0,220.0 169.0,218.0 166.0,216.0 160.0,214.0" fill="#0a357d" opacity="0.95" />
<polygon points="188.0,107.0 188.0,111.0 190.0,112.0 196.0,109.0 196.0,107.0 194.0,106.0 192.0,106.0 191.0,107.0 190.0,106.0" fill="#1b1422" opacity="0.95" />
<polygon points="177.0,157.0 176.0,158.0 176.0,162.0 177.0,163.0 179.0,161.0 180.0,161.0 181.0,160.0 180.0,159.0 179.0,159.0" fill="#071447" />
<polygon points="205.0,126.0 202.0,128.0 202.0,131.0 205.0,133.0 208.0,131.0 208.0,128.0" fill="#7b8491" opacity="0.95" />
<polygon points="223.0,219.0 218.0,218.0 212.0,221.0 212.0,223.0 214.0,224.0 217.0,222.0 220.0,222.0 221.0,223.0 223.0,222.0" fill="#071447" opacity="0.95" />
<polygon points="177.0,99.0 174.0,101.0 174.0,105.0 177.0,107.0 180.0,105.0 180.0,101.0" fill="#751428" opacity="0.95" />
<polygon points="169.0,221.0 169.0,223.0 171.0,224.0 172.0,223.0 174.0,223.0 177.0,225.0 179.0,224.0 179.0,222.0 174.0,219.0 172.0,219.0" fill="#071447" opacity="0.95" />
<polygon points="178.0,88.0 175.0,90.0 175.0,92.0 178.0,94.0 181.0,92.0 181.0,90.0" fill="#751428" opacity="0.95" />
</svg>