<svg xmlns="http://www.w3.org/2000/svg" width="768" height="768" viewBox="0 0 384 384">
<rect width="384" height="384" fill="#8d6a54"/>
<polygon points="168.0,81.0 87.0,84.0 0.0,119.0 0.0,383.0 105.0,381.0 150.0,343.0 190.0,117.0" fill="#b38975" />
<polygon points="0.0,49.0 0.0,118.0 143.0,73.0 187.0,150.0 263.0,69.0 308.0,134.0 249.0,383.0 383.0,383.0 362.0,48.0 296.0,0.0 108.0,0.0" fill="#956b57" />
<polygon points="169.0,82.0 87.0,84.0 0.0,119.0 0.0,383.0 104.0,381.0 149.0,343.0 189.0,125.0" fill="#b38975" opacity="0.95" />
<polygon points="0.0,49.0 0.0,118.0 143.0,73.0 188.0,148.0 263.0,69.0 308.0,134.0 249.0,383.0 383.0,383.0 368.0,53.0 296.0,0.0 108.0,0.0" fill="#956b57" opacity="0.95" />
<polygon points="167.0,81.0 87.0,84.0 0.0,119.0 0.0,383.0 103.0,383.0 149.0,342.0 189.0,125.0" fill="#b38975" opacity="0.95" />
<polygon points="0.0,49.0 0.0,118.0 143.0,73.0 188.0,147.0 263.0,69.0 308.0,134.0 249.0,383.0 383.0,383.0 362.0,48.0 296.0,0.0 108.0,0.0" fill="#956b57" opacity="0.95" />
<polygon points="275.0,103.0 212.0,333.0 167.0,354.0 198.0,377.0 240.0,340.0" fill="#2a1a11" />
<polygon points="268.0,87.0 226.0,172.0 200.0,324.0 163.0,355.0 211.0,333.0" fill="#262615" />
<polygon points="222.0,106.0 167.0,271.0 194.0,271.0" fill="#b0bc98" />
<polygon points="297.0,0.0 383.0,66.0 383.0,0.0" fill="#604335" />
<polygon points="0.0,48.0 107.0,0.0 0.0,0.0" fill="#604335" />
<polygon points="287.0,95.0 269.0,96.0 289.0,124.0 239.0,354.0 209.0,379.0 162.0,355.0 178.0,383.0 248.0,383.0 307.0,134.0" fill="#604335" />
<polygon points="275.0,103.0 212.0,333.0 173.0,354.0 198.0,377.0 240.0,340.0 286.0,120.0" fill="#2a1a11" opacity="0.95" />
<polygon points="267.0,87.0 186.0,351.0 218.0,315.0" fill="#262615" opacity="0.95" />
<polygon points="275.0,103.0 212.0,333.0 174.0,354.0 198.0,377.0 240.0,340.0 286.0,120.0" fill="#2a1a11" opacity="0.95" />
<polygon points="221.0,106.0 164.0,291.0 192.0,282.0 179.0,274.0 195.0,268.0" fill="#b0bc98" opacity="0.95" />
<polygon points="266.0,87.0 186.0,351.0 218.0,315.0" fill="#262615" opacity="0.95" />
<polygon points="287.0,95.0 269.0,96.0 289.0,124.0 239.0,354.0 209.0,379.0 164.0,356.0 178.0,383.0 248.0,383.0 307.0,134.0" fill="#604335" opacity="0.95" />
<polygon points="297.0,0.0 383.0,66.0 383.0,0.0" fill="#604335" opacity="0.95" />
<polygon points="0.0,48.0 107.0,0.0 0.0,0.0" fill="#604335" opacity="0.95" />
<polygon points="177.0,383.0 151.0,344.0 140.0,348.0 122.0,374.0 105.0,382.0 83.0,382.0" fill="#956b57" />
<polygon points="287.0,95.0 269.0,96.0 289.0,124.0 239.0,354.0 209.0,379.0 166.0,357.0 178.0,383.0 248.0,383.0 307.0,134.0" fill="#604335" opacity="0.95" />
<polygon points="297.0,0.0 383.0,66.0 383.0,0.0" fill="#604335" opacity="0.95" />
<polygon points="0.0,48.0 107.0,0.0 0.0,0.0" fill="#604335" opacity="0.95" />
<polygon points="214.0,118.0 179.0,198.0 175.0,287.0 192.0,282.0 181.0,275.0 199.0,249.0 206.0,150.0 227.0,130.0" fill="#b0bc98" opacity="0.95" />
<polygon points="177.0,382.0 150.0,344.0 140.0,348.0 122.0,374.0 104.0,382.0 84.0,381.0" fill="#956b57" opacity="0.95" />
<polygon points="256.0,68.0 246.0,68.0 232.0,78.0 223.0,96.0 228.0,98.0 224.0,116.0 231.0,103.0 235.0,106.0 245.0,87.0 259.0,79.0" fill="#8aa22f" />
<polygon points="235.0,119.0 218.0,157.0 209.0,212.0 221.0,183.0 221.0,164.0 235.0,143.0" fill="#203d02" />
<polygon points="157.0,291.0 153.0,316.0 166.0,324.0 173.0,312.0 178.0,340.0 185.0,323.0 181.0,316.0 187.0,312.0 179.0,290.0 174.0,289.0 169.0,304.0" fill="#5c7313" />
<polygon points="159.0,279.0 149.0,298.0 151.0,332.0 164.0,343.0 170.0,330.0 176.0,345.0 175.0,315.0 166.0,325.0 152.0,316.0 155.0,292.0 164.0,283.0" fill="#375703" />
<polygon points="209.0,217.0 193.0,282.0 201.0,286.0 204.0,284.0 199.0,276.0 208.0,272.0 205.0,245.0 214.0,229.0" fill="#203d02" />
<polygon points="177.0,382.0 148.0,344.0 140.0,348.0 139.0,355.0 122.0,374.0 105.0,383.0" fill="#956b57" opacity="0.95" />
<polygon points="177.0,193.0 162.0,246.0 163.0,261.0 173.0,219.0 179.0,218.0 174.0,216.0" fill="#375703" />
<polygon points="259.0,70.0 246.0,68.0 232.0,78.0 227.0,91.0 228.0,103.0 238.0,103.0 245.0,87.0 259.0,79.0" fill="#8aa22f" opacity="0.95" />
<polygon points="176.0,288.0 170.0,303.0 155.0,301.0 153.0,316.0 166.0,321.0 175.0,313.0 178.0,338.0 187.0,309.0" fill="#5c7313" opacity="0.95" />
<polygon points="195.0,142.0 179.0,177.0 180.0,186.0" fill="#375703" />
<polygon points="256.0,87.0 242.0,98.0 234.0,113.0 237.0,120.0 234.0,141.0 242.0,123.0 239.0,117.0 247.0,108.0 245.0,101.0" fill="#375703" />
<polygon points="193.0,289.0 189.0,308.0 199.0,309.0 204.0,299.0 203.0,293.0 201.0,290.0 196.0,292.0" fill="#203d02" />
<polygon points="233.0,123.0 218.0,157.0 211.0,202.0 220.0,184.0 221.0,164.0 233.0,143.0" fill="#203d02" opacity="0.95" />
<polygon points="257.0,69.0 246.0,68.0 232.0,78.0 227.0,91.0 229.0,102.0 237.0,103.0 245.0,87.0 259.0,78.0" fill="#8aa22f" opacity="0.95" />
<polygon points="159.0,281.0 151.0,288.0 148.0,317.0 153.0,336.0 162.0,343.0 163.0,334.0 176.0,332.0 173.0,313.0 165.0,324.0 152.0,316.0" fill="#375703" opacity="0.95" />
<polygon points="192.0,279.0 186.0,280.0 175.0,275.0 166.0,276.0 164.0,280.0 171.0,284.0 162.0,286.0 161.0,289.0 167.0,291.0 174.0,286.0 190.0,285.0" fill="#b0bc98" />
<polygon points="176.0,196.0 162.0,246.0 163.0,259.0" fill="#375703" opacity="0.95" />
<polygon points="208.0,219.0 195.0,270.0 196.0,284.0 200.0,274.0 207.0,270.0 205.0,245.0 208.0,234.0 214.0,230.0" fill="#203d02" opacity="0.95" />
<polygon points="228.0,82.0 209.0,110.0 207.0,118.0 215.0,112.0 213.0,108.0 219.0,104.0 227.0,90.0" fill="#5c7313" />
<polygon points="235.0,36.0 240.0,39.0 238.0,41.0 240.0,41.0 248.0,51.0 245.0,55.0 232.0,43.0 232.0,39.0" fill="#956b57" />
<polygon points="147.0,322.0 149.0,337.0 155.0,348.0 176.0,347.0 171.0,341.0 170.0,331.0 167.0,341.0 161.0,344.0 152.0,336.0" fill="#203d02" />
<polygon points="210.0,283.0 214.0,286.0 216.0,290.0 216.0,294.0 212.0,299.0 206.0,291.0 206.0,288.0" fill="#262615" />
<polygon points="175.0,316.0 170.0,316.0 165.0,323.0 154.0,319.0 150.0,321.0 151.0,332.0 157.0,340.0 176.0,329.0" fill="#375703" opacity="0.95" />
<polygon points="265.0,76.0 262.0,78.0 260.0,86.0 252.0,96.0 251.0,102.0 264.0,87.0 269.0,85.0 269.0,81.0" fill="#203d02" />
<polygon points="156.0,300.0 155.0,319.0 160.0,318.0 165.0,307.0 178.0,317.0 178.0,326.0 184.0,326.0 182.0,315.0 187.0,309.0 178.0,293.0 172.0,294.0 167.0,305.0" fill="#5c7313" opacity="0.95" />
<polygon points="260.0,81.0 259.0,80.0 251.0,82.0 246.0,87.0 242.0,95.0 243.0,96.0 258.0,85.0" fill="#5c7313" />
<polygon points="243.0,331.0 234.0,359.0 213.0,377.0 233.0,364.0" fill="#262615" />
<polygon points="287.0,120.0 279.0,154.0 287.0,129.0" fill="#262615" />
<polygon points="194.0,291.0 191.0,294.0 190.0,307.0 198.0,309.0 201.0,307.0 203.0,301.0 203.0,293.0 200.0,291.0" fill="#203d02" opacity="0.95" />
<polygon points="236.0,45.0 238.0,48.0 244.0,54.0 245.0,54.0 247.0,51.0 240.0,42.0" fill="#604335" />
<polygon points="210.0,284.0 207.0,288.0 207.0,291.0 212.0,298.0 215.0,294.0 215.0,290.0 213.0,286.0" fill="#2a1a11" />
<polygon points="236.0,36.0 240.0,39.0 240.0,41.0 247.0,49.0 246.0,53.0 244.0,54.0 232.0,43.0 232.0,39.0" fill="#956b57" opacity="0.95" />
<polygon points="252.0,93.0 250.0,92.0 242.0,98.0 234.0,113.0 234.0,117.0 237.0,118.0 246.0,111.0 245.0,101.0 251.0,97.0" fill="#375703" opacity="0.95" />
<polygon points="188.0,318.0 186.0,321.0 187.0,322.0 189.0,321.0 195.0,327.0 199.0,324.0 199.0,317.0 198.0,316.0 195.0,316.0 191.0,319.0" fill="#203d02" />
<polygon points="200.0,291.0 191.0,294.0 190.0,306.0 193.0,308.0 198.0,309.0 201.0,307.0 203.0,301.0 203.0,293.0" fill="#203d02" opacity="0.95" />
<polygon points="200.0,181.0 204.0,185.0 200.0,189.0 197.0,186.0 198.0,183.0" fill="#b0bc98" />
<polygon points="207.0,307.0 210.0,310.0 211.0,313.0 208.0,318.0 208.0,321.0 206.0,323.0 203.0,320.0 204.0,319.0 204.0,312.0 203.0,310.0" fill="#262615" />
<polygon points="194.0,217.0 194.0,214.0 197.0,211.0 199.0,213.0 202.0,213.0 204.0,215.0 202.0,217.0 199.0,217.0 196.0,219.0" fill="#b0bc98" />
<polygon points="211.0,144.0 214.0,146.0 214.0,153.0 209.0,156.0 206.0,154.0 206.0,150.0 208.0,146.0" fill="#b0bc98" opacity="0.95" />
<polygon points="210.0,283.0 214.0,286.0 216.0,290.0 216.0,294.0 212.0,298.0 206.0,293.0 206.0,286.0" fill="#262615" opacity="0.95" />
<polygon points="242.0,101.0 239.0,103.0 234.0,113.0 234.0,116.0 237.0,118.0 246.0,111.0 245.0,103.0" fill="#375703" opacity="0.95" />
<polygon points="251.0,60.0 250.0,59.0 248.0,60.0 245.0,57.0 244.0,58.0 244.0,64.0 236.0,71.0 237.0,72.0 247.0,64.0 248.0,65.0 251.0,62.0" fill="#b38975" />
<polygon points="232.0,108.0 229.0,109.0 227.0,114.0 227.0,118.0 229.0,121.0 231.0,120.0 232.0,117.0 232.0,113.0 233.0,112.0 233.0,109.0" fill="#b0bc98" />
<polygon points="163.0,307.0 166.0,307.0 169.0,310.0 168.0,312.0 169.0,313.0 167.0,315.0 163.0,315.0 161.0,313.0 162.0,312.0 161.0,311.0 161.0,309.0" fill="#5c7313" />
<polygon points="218.0,220.0 218.0,223.0 220.0,225.0 225.0,225.0 226.0,224.0 226.0,223.0 222.0,219.0 219.0,219.0" fill="#2a1a11" />
<polygon points="236.0,36.0 240.0,39.0 240.0,43.0 236.0,46.0 232.0,43.0 232.0,39.0" fill="#956b57" opacity="0.95" />
<polygon points="160.0,269.0 157.0,271.0 156.0,276.0 153.0,280.0 154.0,283.0 158.0,279.0 158.0,275.0 162.0,271.0" fill="#5c7313" />
<polygon points="258.0,82.0 255.0,81.0 250.0,83.0 246.0,87.0 245.0,92.0 247.0,93.0 258.0,85.0" fill="#5c7313" opacity="0.95" />
<polygon points="159.0,350.0 159.0,352.0 163.0,355.0 169.0,352.0 176.0,352.0 176.0,350.0 170.0,347.0" fill="#262615" opacity="0.95" />
<polygon points="220.0,191.0 217.0,194.0 217.0,197.0 215.0,201.0 215.0,207.0 216.0,208.0 218.0,206.0 218.0,202.0 220.0,198.0 219.0,195.0 221.0,192.0" fill="#5c7313" />
<polygon points="207.0,308.0 204.0,310.0 205.0,312.0 205.0,319.0 204.0,320.0 206.0,322.0 207.0,321.0 207.0,318.0 210.0,313.0" fill="#2a1a11" />
<polygon points="212.0,235.0 208.0,241.0 209.0,245.0 206.0,252.0 208.0,255.0 210.0,251.0 210.0,245.0 212.0,243.0 210.0,241.0 213.0,237.0" fill="#5c7313" />
<polygon points="205.0,272.0 203.0,272.0 200.0,276.0 200.0,281.0 201.0,282.0 204.0,282.0 205.0,281.0 203.0,278.0 206.0,275.0 206.0,273.0" fill="#375703" />
<polygon points="226.0,97.0 225.0,97.0 222.0,101.0 222.0,104.0 224.0,106.0 226.0,104.0 226.0,102.0 227.0,101.0 227.0,98.0" fill="#93a45e" />
<polygon points="210.0,285.0 208.0,286.0 207.0,291.0 210.0,296.0 212.0,297.0 215.0,294.0 215.0,290.0 213.0,286.0" fill="#2a1a11" opacity="0.95" />
<polygon points="206.0,159.0 201.0,168.0 202.0,169.0 205.0,166.0 207.0,162.0 207.0,160.0" fill="#93a45e" />
<polygon points="224.0,125.0 221.0,126.0 221.0,134.0 222.0,135.0 225.0,134.0 227.0,131.0 227.0,127.0" fill="#b0bc98" opacity="0.95" />
<polygon points="203.0,225.0 202.0,224.0 201.0,225.0 200.0,224.0 198.0,224.0 194.0,228.0 195.0,229.0 197.0,229.0 198.0,228.0 200.0,228.0 201.0,229.0" fill="#b0bc98" />
<polygon points="206.0,307.0 210.0,310.0 210.0,315.0 207.0,317.0 204.0,315.0 204.0,312.0 203.0,311.0 203.0,309.0" fill="#262615" opacity="0.95" />
<polygon points="188.0,300.0 187.0,301.0 184.0,301.0 183.0,302.0 183.0,304.0 185.0,306.0 187.0,306.0 188.0,305.0 188.0,304.0 189.0,303.0 189.0,301.0" fill="#8aa22f" />
<polygon points="161.0,293.0 162.0,294.0 170.0,294.0 172.0,292.0 171.0,291.0 168.0,291.0 167.0,292.0 164.0,292.0 162.0,291.0" fill="#93a45e" />
<polygon points="246.0,59.0 244.0,60.0 244.0,64.0 246.0,65.0 250.0,63.0 250.0,61.0" fill="#b38975" opacity="0.95" />
<polygon points="174.0,255.0 173.0,254.0 169.0,254.0 166.0,258.0 167.0,259.0 165.0,261.0 166.0,262.0 167.0,261.0 166.0,260.0 168.0,258.0 170.0,258.0" fill="#93a45e" />
<polygon points="210.0,286.0 207.0,288.0 207.0,291.0 208.0,293.0 212.0,296.0 215.0,294.0 215.0,290.0 213.0,287.0" fill="#2a1a11" opacity="0.95" />
<polygon points="218.0,220.0 218.0,223.0 221.0,225.0 225.0,224.0 225.0,222.0 223.0,220.0 221.0,219.0" fill="#2a1a11" opacity="0.95" />
<polygon points="185.0,301.0 184.0,302.0 183.0,302.0 183.0,304.0 186.0,306.0 187.0,305.0 188.0,305.0 188.0,302.0" fill="#8aa22f" opacity="0.95" />
<polygon points="84.0,382.0 84.0,383.0 96.0,383.0 95.0,381.0 93.0,380.0 89.0,380.0 88.0,379.0" fill="#956b57" opacity="0.95" />
<polygon points="207.0,309.0 206.0,310.0 205.0,310.0 205.0,315.0 206.0,315.0 207.0,316.0 208.0,315.0 209.0,315.0 209.0,310.0 208.0,310.0" fill="#2a1a11" opacity="0.95" />
</svg>