<svg xmlns="http://www.w3.org/2000/svg" width="768" height="768" viewBox="0 0 384 384">
<rect width="384" height="384" fill="#8c6556"/>
<polygon points="0.0,129.0 0.0,275.0 89.0,220.0 125.0,297.0 2.0,322.0 0.0,383.0 144.0,383.0 184.0,282.0 228.0,289.0 228.0,383.0 383.0,383.0 383.0,318.0 255.0,319.0 286.0,220.0 383.0,275.0 383.0,191.0 250.0,162.0 235.0,254.0 130.0,256.0 145.0,123.0" fill="#a1715b" />
<polygon points="0.0,129.0 0.0,273.0 89.0,220.0 125.0,297.0 0.0,323.0 0.0,383.0 144.0,383.0 184.0,282.0 228.0,288.0 229.0,383.0 383.0,383.0 383.0,318.0 255.0,319.0 286.0,220.0 383.0,275.0 383.0,191.0 250.0,162.0 235.0,254.0 131.0,256.0 147.0,124.0" fill="#a1715b" opacity="0.95" />
<polygon points="0.0,0.0 2.0,81.0 26.0,75.0 27.0,33.0 96.0,32.0 98.0,76.0 124.0,87.0 155.0,78.0 157.0,35.0 226.0,37.0 239.0,94.0 214.0,126.0 255.0,126.0 255.0,0.0" fill="#a1715b" />
<polygon points="383.0,0.0 256.0,0.0 258.0,48.0 286.0,24.0 371.0,70.0 337.0,147.0 257.0,142.0 259.0,191.0 312.0,190.0 383.0,123.0" fill="#503430" />
<polygon points="0.0,129.0 0.0,272.0 89.0,220.0 125.0,297.0 0.0,323.0 0.0,383.0 144.0,383.0 184.0,282.0 227.0,288.0 229.0,383.0 383.0,383.0 383.0,318.0 255.0,318.0 286.0,220.0 359.0,223.0 383.0,275.0 383.0,191.0 250.0,162.0 235.0,254.0 131.0,256.0 141.0,122.0" fill="#a1715b" opacity="0.95" />
<polygon points="78.0,125.0 145.0,122.0 129.0,129.0 135.0,175.0 256.0,164.0 254.0,128.0 213.0,126.0 238.0,102.0 227.0,78.0 217.0,111.0 183.0,120.0 151.0,107.0 155.0,79.0 99.0,78.0 102.0,104.0" fill="#7d5442" />
<polygon points="91.0,38.0 74.0,40.0 72.0,49.0 69.0,41.0 28.0,42.0 32.0,109.0 67.0,113.0 91.0,103.0 98.0,86.0" fill="#222023" />
<polygon points="0.0,0.0 3.0,80.0 26.0,75.0 28.0,33.0 96.0,32.0 98.0,76.0 124.0,87.0 155.0,78.0 157.0,35.0 226.0,37.0 239.0,94.0 216.0,126.0 255.0,126.0 255.0,0.0" fill="#a1715b" opacity="0.95" />
<polygon points="383.0,124.0 313.0,190.0 383.0,190.0" fill="#7d5442" />
<polygon points="383.0,0.0 256.0,0.0 257.0,44.0 286.0,24.0 371.0,70.0 337.0,147.0 257.0,145.0 257.0,190.0 313.0,189.0 383.0,123.0" fill="#503430" opacity="0.95" />
<polygon points="257.0,99.0 257.0,137.0 265.0,146.0 315.0,154.0 344.0,138.0 313.0,130.0 305.0,113.0" fill="#222023" />
<polygon points="0.0,0.0 4.0,79.0 26.0,75.0 32.0,32.0 94.0,32.0 98.0,76.0 124.0,87.0 155.0,78.0 158.0,35.0 225.0,37.0 239.0,102.0 221.0,125.0 255.0,125.0 255.0,0.0" fill="#a1715b" opacity="0.95" />
<polygon points="92.0,39.0 29.0,41.0 32.0,109.0 67.0,113.0 91.0,103.0 98.0,86.0" fill="#222023" opacity="0.95" />
<polygon points="348.0,50.0 324.0,67.0 309.0,102.0 309.0,117.0 317.0,96.0 329.0,93.0 332.0,136.0 352.0,125.0 368.0,85.0 368.0,65.0" fill="#dcd9d9" />
<polygon points="80.0,123.0 147.0,123.0 129.0,129.0 135.0,175.0 256.0,161.0 255.0,129.0 215.0,126.0 238.0,102.0 228.0,81.0 217.0,111.0 181.0,120.0 151.0,107.0 155.0,81.0 101.0,80.0" fill="#7d5442" opacity="0.95" />
<polygon points="218.0,173.0 163.0,175.0 161.0,197.0 218.0,197.0" fill="#7fe7e7" />
<polygon points="383.0,0.0 256.0,0.0 258.0,41.0 286.0,24.0 371.0,70.0 337.0,147.0 257.0,146.0 258.0,190.0 313.0,189.0 383.0,123.0" fill="#503430" opacity="0.95" />
<polygon points="25.0,235.0 25.0,276.0 37.0,285.0 69.0,288.0 72.0,279.0 86.0,280.0 99.0,269.0 97.0,254.0 76.0,256.0 66.0,241.0 34.0,237.0 30.0,242.0" fill="#e0dd9d" />
<polygon points="81.0,122.0 141.0,121.0 135.0,175.0 256.0,160.0 254.0,129.0 219.0,125.0 238.0,102.0 229.0,82.0 217.0,111.0 181.0,120.0 151.0,107.0 152.0,81.0 102.0,81.0" fill="#7d5442" opacity="0.95" />
<polygon points="91.0,39.0 29.0,42.0 32.0,109.0 67.0,113.0 91.0,103.0 98.0,86.0" fill="#222023" opacity="0.95" />
<polygon points="24.0,228.0 32.0,237.0 67.0,238.0 76.0,255.0 97.0,251.0 98.0,226.0 92.0,222.0 53.0,219.0" fill="#dcd9d9" />
<polygon points="105.0,257.0 96.0,280.0 100.0,294.0 77.0,320.0 123.0,315.0 124.0,297.0" fill="#7d5442" />
<polygon points="383.0,124.0 315.0,190.0 383.0,190.0" fill="#7d5442" opacity="0.95" />
<polygon points="257.0,99.0 257.0,137.0 265.0,146.0 304.0,155.0 343.0,140.0 313.0,130.0 304.0,113.0" fill="#222023" opacity="0.95" />
<polygon points="383.0,276.0 372.0,276.0 364.0,269.0 352.0,284.0 356.0,288.0 355.0,296.0 330.0,319.0 383.0,317.0" fill="#7d5442" />
<polygon points="257.0,72.0 274.0,82.0 286.0,84.0 291.0,80.0 305.0,87.0 318.0,75.0 266.0,51.0" fill="#d40829" />
<polygon points="227.0,224.0 210.0,236.0 170.0,240.0 159.0,234.0 157.0,223.0 149.0,236.0 152.0,254.0 216.0,255.0 225.0,241.0" fill="#503430" />
<polygon points="0.0,113.0 17.0,126.0 75.0,126.0 94.0,114.0 101.0,100.0 97.0,91.0 83.0,110.0 42.0,114.0 28.0,106.0 25.0,88.0 6.0,99.0" fill="#503430" />
<polygon points="348.0,50.0 324.0,67.0 309.0,102.0 312.0,115.0 317.0,96.0 328.0,92.0 333.0,136.0 352.0,125.0 368.0,85.0 368.0,65.0" fill="#dcd9d9" opacity="0.95" />
<polygon points="257.0,315.0 328.0,319.0 354.0,296.0 355.0,288.0 348.0,285.0 344.0,295.0 328.0,302.0 303.0,303.0 285.0,294.0 290.0,282.0 282.0,280.0 260.0,298.0" fill="#503430" />
<polygon points="223.0,222.0 210.0,218.0 161.0,224.0 159.0,232.0 170.0,239.0 206.0,236.0 220.0,231.0" fill="#222023" />
<polygon points="172.0,296.0 164.0,304.0 170.0,330.0 166.0,343.0 174.0,350.0 189.0,352.0 197.0,343.0 194.0,323.0 200.0,311.0 192.0,306.0 191.0,298.0" fill="#0a3b32" />
<polygon points="161.0,42.0 158.0,67.0 165.0,53.0 167.0,66.0 184.0,76.0 183.0,91.0 158.0,83.0 157.0,89.0 195.0,99.0 192.0,48.0" fill="#d40829" />
<polygon points="17.0,299.0 24.0,319.0 74.0,319.0 95.0,301.0 99.0,286.0 92.0,283.0 78.0,300.0 43.0,304.0 28.0,295.0 31.0,284.0 26.0,281.0" fill="#503430" />
<polygon points="298.0,232.0 288.0,234.0 285.0,277.0 298.0,284.0 304.0,270.0 318.0,272.0 329.0,265.0 325.0,251.0 305.0,248.0 301.0,244.0 304.0,234.0" fill="#a15d09" />
<polygon points="18.0,268.0 6.0,274.0 0.0,282.0 2.0,320.0 22.0,319.0 16.0,296.0 26.0,279.0" fill="#7d5442" />
<polygon points="348.0,50.0 324.0,67.0 310.0,98.0 328.0,94.0 325.0,115.0 333.0,136.0 352.0,125.0 368.0,85.0 368.0,65.0" fill="#dcd9d9" opacity="0.95" />
<polygon points="134.0,343.0 132.0,364.0 145.0,383.0 182.0,383.0 165.0,376.0 150.0,358.0 156.0,334.0" fill="#7d5442" />
<polygon points="219.0,176.0 214.0,172.0 165.0,175.0 161.0,178.0 161.0,197.0 217.0,197.0" fill="#7fe7e7" opacity="0.95" />
<polygon points="257.0,101.0 257.0,137.0 265.0,146.0 304.0,155.0 341.0,142.0 313.0,130.0 303.0,113.0" fill="#222023" opacity="0.95" />
<polygon points="269.0,46.0 290.0,59.0 320.0,69.0 327.0,62.0 321.0,55.0 318.0,57.0 282.0,37.0" fill="#fa778c" />
<polygon points="235.0,342.0 227.0,336.0 222.0,363.0 188.0,383.0 227.0,383.0 239.0,358.0" fill="#7d5442" />
<polygon points="209.0,295.0 204.0,301.0 192.0,298.0 201.0,311.0 195.0,323.0 198.0,343.0 194.0,351.0 213.0,347.0 213.0,304.0" fill="#0b8169" />
<polygon points="352.0,234.0 333.0,237.0 334.0,281.0 329.0,286.0 352.0,276.0 352.0,249.0 348.0,246.0" fill="#f2d24e" />
<polygon points="25.0,241.0 26.0,251.0 40.0,257.0 37.0,263.0 25.0,259.0 25.0,276.0 37.0,285.0 67.0,288.0 72.0,279.0 86.0,280.0 99.0,269.0 98.0,255.0 76.0,256.0 66.0,241.0" fill="#e0dd9d" opacity="0.95" />
<polygon points="161.0,294.0 160.0,356.0 181.0,365.0 215.0,358.0 218.0,348.0 183.0,353.0 166.0,345.0 163.0,304.0 170.0,296.0" fill="#222023" />
<polygon points="28.0,292.0 39.0,302.0 63.0,303.0 86.0,295.0 90.0,287.0 55.0,290.0 31.0,285.0" fill="#222023" />
<polygon points="24.0,228.0 33.0,237.0 69.0,239.0 71.0,252.0 76.0,255.0 97.0,251.0 98.0,226.0 92.0,222.0 53.0,219.0" fill="#dcd9d9" opacity="0.95" />
<polygon points="285.0,289.0 289.0,297.0 303.0,302.0 328.0,301.0 346.0,291.0 345.0,286.0 309.0,288.0 291.0,283.0" fill="#222023" />
<polygon points="150.0,349.0 160.0,370.0 183.0,383.0 210.0,372.0 225.0,355.0 221.0,346.0 215.0,359.0 181.0,366.0 159.0,356.0 157.0,341.0" fill="#503430" />
<polygon points="305.0,235.0 303.0,245.0 310.0,250.0 324.0,248.0 330.0,265.0 323.0,272.0 304.0,271.0 300.0,283.0 326.0,287.0 334.0,267.0 333.0,242.0" fill="#d39710" />
<polygon points="219.0,176.0 214.0,172.0 165.0,175.0 161.0,178.0 161.0,195.0 216.0,197.0" fill="#7fe7e7" opacity="0.95" />
<polygon points="220.0,199.0 176.0,197.0 162.0,200.0 161.0,206.0 170.0,212.0 188.0,205.0 201.0,209.0 206.0,203.0 215.0,208.0" fill="#0ea2a7" />
<polygon points="160.0,44.0 168.0,67.0 183.0,75.0 183.0,91.0 157.0,89.0 194.0,98.0 197.0,61.0 191.0,47.0" fill="#d40829" opacity="0.95" />
<polygon points="0.0,116.0 17.0,126.0 74.0,126.0 94.0,114.0 101.0,100.0 96.0,93.0 83.0,110.0 42.0,114.0 28.0,106.0 24.0,89.0 3.0,102.0" fill="#503430" opacity="0.95" />
<polygon points="173.0,296.0 165.0,303.0 170.0,330.0 166.0,343.0 174.0,350.0 188.0,352.0 197.0,343.0 195.0,320.0 200.0,311.0 192.0,306.0 190.0,298.0" fill="#0a3b32" opacity="0.95" />
<polygon points="301.0,233.0 288.0,235.0 284.0,275.0 295.0,283.0 302.0,271.0 318.0,272.0 328.0,266.0 324.0,250.0 305.0,248.0" fill="#a15d09" opacity="0.95" />
<polygon points="257.0,316.0 327.0,319.0 354.0,296.0 355.0,288.0 348.0,285.0 344.0,295.0 328.0,302.0 303.0,303.0 285.0,294.0 288.0,281.0 282.0,280.0 260.0,298.0" fill="#503430" opacity="0.95" />
<polygon points="260.0,60.0 257.0,72.0 275.0,82.0 293.0,81.0 304.0,87.0 317.0,77.0 315.0,71.0 267.0,52.0" fill="#d40829" opacity="0.95" />
<polygon points="257.0,75.0 258.0,92.0 267.0,90.0 282.0,100.0 292.0,97.0 299.0,103.0 309.0,98.0 314.0,85.0 302.0,89.0 291.0,81.0 284.0,85.0 274.0,83.0 264.0,74.0" fill="#84101b" />
<polygon points="164.0,54.0 157.0,79.0 162.0,86.0 181.0,92.0 183.0,76.0 172.0,72.0 166.0,66.0 168.0,58.0" fill="#84101b" />
<polygon points="24.0,228.0 33.0,237.0 68.0,239.0 71.0,252.0 78.0,256.0 97.0,251.0 98.0,226.0 92.0,222.0 54.0,219.0" fill="#dcd9d9" opacity="0.95" />
<polygon points="284.0,223.0 291.0,230.0 318.0,234.0 345.0,233.0 360.0,228.0 356.0,223.0 337.0,220.0 332.0,227.0 324.0,228.0 312.0,227.0 309.0,220.0" fill="#dcd9d9" />
<polygon points="25.0,243.0 40.0,257.0 25.0,263.0 27.0,279.0 66.0,288.0 76.0,277.0 85.0,280.0 73.0,268.0 79.0,260.0 93.0,273.0 99.0,269.0 97.0,255.0 78.0,257.0 66.0,241.0" fill="#e0dd9d" opacity="0.95" />
<polygon points="157.0,290.0 175.0,295.0 202.0,296.0 227.0,289.0 204.0,285.0 198.0,291.0 182.0,291.0 179.0,285.0" fill="#dcd9d9" />
<polygon points="325.0,91.0 318.0,96.0 313.0,114.0 308.0,119.0 316.0,130.0 327.0,130.0 324.0,108.0 328.0,93.0" fill="#b3a19a" />
<polygon points="206.0,44.0 198.0,48.0 205.0,78.0 199.0,92.0 201.0,98.0 208.0,97.0 214.0,83.0 210.0,58.0 203.0,50.0" fill="#fa778c" />
<polygon points="156.0,37.0 163.0,41.0 192.0,44.0 225.0,38.0 208.0,34.0 202.0,37.0 181.0,37.0 178.0,34.0" fill="#dcd9d9" />
<polygon points="348.0,234.0 333.0,239.0 335.0,281.0 351.0,277.0 349.0,240.0 353.0,236.0" fill="#f2d24e" opacity="0.95" />
<polygon points="270.0,45.0 280.0,54.0 320.0,69.0 326.0,63.0 323.0,56.0 317.0,57.0 281.0,37.0" fill="#fa778c" opacity="0.95" />
<polygon points="174.0,296.0 166.0,303.0 170.0,330.0 166.0,343.0 174.0,350.0 187.0,352.0 197.0,343.0 195.0,320.0 200.0,311.0 192.0,306.0 190.0,298.0" fill="#0a3b32" opacity="0.95" />
<polygon points="208.0,296.0 203.0,301.0 193.0,298.0 193.0,306.0 201.0,311.0 196.0,322.0 195.0,351.0 211.0,349.0 215.0,339.0 212.0,300.0" fill="#0b8169" opacity="0.95" />
<polygon points="221.0,207.0 212.0,209.0 206.0,204.0 201.0,210.0 191.0,206.0 173.0,213.0 163.0,210.0 162.0,217.0 213.0,216.0" fill="#0b8169" />
<polygon points="260.0,60.0 258.0,71.0 276.0,82.0 291.0,80.0 304.0,87.0 317.0,77.0 314.0,71.0 267.0,52.0" fill="#d40829" opacity="0.95" />
<polygon points="307.0,235.0 304.0,246.0 324.0,249.0 329.0,266.0 318.0,273.0 302.0,272.0 300.0,284.0 325.0,287.0 334.0,268.0 333.0,242.0" fill="#d39710" opacity="0.95" />
<polygon points="300.0,233.0 289.0,236.0 284.0,275.0 295.0,283.0 303.0,271.0 318.0,272.0 328.0,266.0 323.0,251.0 310.0,251.0 302.0,245.0 304.0,238.0" fill="#a15d09" opacity="0.95" />
<polygon points="270.0,45.0 293.0,60.0 320.0,69.0 325.0,64.0 323.0,57.0 281.0,37.0" fill="#fa778c" opacity="0.95" />
<polygon points="297.0,33.0 286.0,26.0 273.0,29.0 261.0,46.0 257.0,60.0 273.0,40.0 284.0,35.0 297.0,37.0" fill="#dcd9d9" />
<polygon points="212.0,295.0 215.0,349.0 223.0,343.0 217.0,324.0 224.0,318.0 216.0,313.0 223.0,304.0" fill="#0a3b32" />
<polygon points="160.0,44.0 159.0,52.0 169.0,58.0 168.0,67.0 183.0,76.0 180.0,96.0 192.0,98.0 197.0,88.0 197.0,61.0 191.0,48.0 185.0,44.0" fill="#d40829" opacity="0.95" />
<polygon points="257.0,75.0 257.0,91.0 267.0,91.0 282.0,100.0 291.0,97.0 303.0,103.0 312.0,90.0 310.0,85.0 284.0,85.0 264.0,74.0" fill="#84101b" opacity="0.95" />
<polygon points="348.0,234.0 333.0,239.0 333.0,279.0 336.0,281.0 350.0,277.0 351.0,236.0" fill="#f2d24e" opacity="0.95" />
<polygon points="196.0,298.0 193.0,305.0 201.0,315.0 196.0,322.0 198.0,343.0 194.0,349.0 205.0,351.0 212.0,348.0 215.0,339.0 212.0,300.0" fill="#0b8169" opacity="0.95" />
<polygon points="220.0,199.0 168.0,198.0 161.0,201.0 161.0,206.0 170.0,212.0 190.0,205.0 200.0,209.0 206.0,203.0 214.0,208.0" fill="#0ea2a7" opacity="0.95" />
<polygon points="266.0,50.0 277.0,58.0 320.0,72.0 311.0,65.0" fill="#f83e67" />
<polygon points="164.0,54.0 157.0,79.0 162.0,86.0 179.0,92.0 182.0,75.0 167.0,67.0 168.0,58.0" fill="#84101b" opacity="0.95" />
<polygon points="300.0,40.0 302.0,44.0 316.0,47.0 327.0,56.0 331.0,57.0 338.0,51.0" fill="#d40829" />
<polygon points="220.0,200.0 210.0,196.0 168.0,198.0 161.0,201.0 161.0,206.0 170.0,212.0 190.0,205.0 214.0,208.0" fill="#0ea2a7" opacity="0.95" />
<polygon points="204.0,44.0 198.0,51.0 203.0,58.0 204.0,83.0 199.0,92.0 202.0,98.0 208.0,97.0 214.0,83.0" fill="#fa778c" opacity="0.95" />
<polygon points="210.0,44.0 204.0,50.0 211.0,58.0 214.0,94.0 218.0,90.0 215.0,85.0 225.0,77.0 216.0,75.0 216.0,66.0 224.0,66.0 214.0,58.0" fill="#f83e67" />
<polygon points="325.0,91.0 318.0,96.0 313.0,115.0 308.0,118.0 310.0,125.0 316.0,130.0 327.0,129.0 324.0,115.0 327.0,98.0" fill="#b3a19a" opacity="0.95" />
<polygon points="221.0,208.0 206.0,204.0 200.0,210.0 190.0,206.0 172.0,213.0 164.0,211.0 162.0,216.0 214.0,215.0" fill="#0b8169" opacity="0.95" />
<polygon points="221.0,213.0 213.0,217.0 194.0,215.0 173.0,219.0 217.0,219.0 221.0,217.0" fill="#0a3b32" />
<polygon points="257.0,76.0 258.0,92.0 267.0,91.0 282.0,100.0 291.0,97.0 303.0,103.0 312.0,90.0 309.0,85.0 301.0,88.0 293.0,82.0 276.0,83.0 264.0,74.0" fill="#84101b" opacity="0.95" />
<polygon points="199.0,56.0 197.0,59.0 198.0,89.0 193.0,93.0 198.0,98.0 198.0,91.0 204.0,79.0 201.0,71.0 202.0,60.0" fill="#f83e67" />
<polygon points="218.0,42.0 213.0,44.0 212.0,50.0 215.0,55.0 214.0,56.0 219.0,61.0 223.0,58.0 221.0,44.0" fill="#d40829" />
<polygon points="73.0,265.0 77.0,261.0 83.0,261.0 85.0,263.0 85.0,265.0 90.0,268.0 90.0,272.0 87.0,275.0 80.0,275.0 74.0,270.0" fill="#e0dd9d" />
<polygon points="332.0,272.0 328.0,268.0 318.0,273.0 305.0,271.0 299.0,276.0 300.0,283.0 307.0,286.0 324.0,287.0 331.0,279.0" fill="#d39710" opacity="0.95" />
<polygon points="217.0,211.0 207.0,205.0 200.0,210.0 190.0,206.0 162.0,215.0 214.0,215.0" fill="#0b8169" opacity="0.95" />
<polygon points="201.0,50.0 198.0,54.0 203.0,58.0 204.0,83.0 199.0,94.0 205.0,98.0 214.0,81.0 209.0,59.0" fill="#fa778c" opacity="0.95" />
<polygon points="30.0,251.0 36.0,252.0 39.0,255.0 40.0,261.0 38.0,263.0 32.0,263.0 28.0,258.0 28.0,253.0" fill="#e0dd9d" />
<polygon points="324.0,92.0 318.0,96.0 313.0,114.0 308.0,119.0 310.0,125.0 316.0,130.0 326.0,128.0 324.0,108.0 327.0,94.0" fill="#b3a19a" opacity="0.95" />
<polygon points="305.0,237.0 305.0,247.0 310.0,250.0 321.0,249.0 325.0,252.0 326.0,258.0 331.0,257.0 332.0,241.0 318.0,235.0" fill="#d39710" opacity="0.95" />
<polygon points="165.0,56.0 162.0,58.0 164.0,64.0 158.0,70.0 157.0,79.0 162.0,86.0 178.0,92.0 181.0,90.0 182.0,76.0 165.0,65.0 168.0,60.0" fill="#84101b" opacity="0.95" />
<polygon points="300.0,40.0 301.0,43.0 315.0,47.0 328.0,56.0 336.0,52.0 323.0,45.0" fill="#d40829" opacity="0.95" />
<polygon points="30.0,252.0 29.0,253.0 29.0,258.0 32.0,262.0 38.0,262.0 39.0,261.0 39.0,257.0 35.0,253.0 33.0,252.0" fill="#f2d24e" />
<polygon points="355.0,232.0 353.0,233.0 354.0,237.0 349.0,241.0 351.0,244.0 349.0,246.0 353.0,249.0 350.0,260.0 352.0,263.0 357.0,256.0 357.0,246.0 352.0,242.0 356.0,239.0" fill="#d39710" />
<polygon points="356.0,278.0 353.0,277.0 347.0,280.0 342.0,279.0 335.0,283.0 338.0,285.0 343.0,285.0 354.0,281.0" fill="#e0dd9d" />
<polygon points="312.0,223.0 313.0,226.0 332.0,226.0 333.0,225.0 332.0,222.0 325.0,222.0 324.0,223.0 323.0,222.0 313.0,222.0" fill="#0a3b32" />
<polygon points="351.0,87.0 348.0,90.0 350.0,93.0 350.0,101.0 348.0,105.0 350.0,107.0 354.0,97.0" fill="#b3a19a" />
<polygon points="73.0,265.0 78.0,261.0 82.0,261.0 85.0,263.0 85.0,265.0 90.0,268.0 90.0,272.0 86.0,275.0 80.0,275.0 74.0,271.0" fill="#e0dd9d" opacity="0.95" />
<polygon points="209.0,45.0 205.0,48.0 205.0,51.0 211.0,57.0 211.0,71.0 215.0,75.0 217.0,73.0 218.0,62.0 212.0,57.0 211.0,46.0" fill="#f83e67" opacity="0.95" />
<polygon points="218.0,42.0 214.0,44.0 213.0,52.0 215.0,58.0 219.0,61.0 223.0,58.0 223.0,53.0 221.0,49.0 221.0,44.0" fill="#d40829" opacity="0.95" />
<polygon points="289.0,38.0 299.0,47.0 302.0,45.0 307.0,49.0 309.0,48.0 305.0,45.0 303.0,46.0 297.0,38.0" fill="#f83e67" />
<polygon points="200.0,59.0 198.0,60.0 197.0,64.0 198.0,87.0 200.0,88.0 202.0,87.0 203.0,74.0 201.0,71.0 202.0,60.0" fill="#f83e67" opacity="0.95" />
<polygon points="214.0,296.0 212.0,297.0 212.0,313.0 215.0,320.0 218.0,321.0 220.0,317.0 217.0,315.0 216.0,310.0 223.0,307.0 223.0,304.0" fill="#0a3b32" opacity="0.95" />
<polygon points="29.0,253.0 30.0,261.0 32.0,262.0 39.0,261.0 38.0,255.0 33.0,252.0" fill="#f2d24e" opacity="0.95" />
<polygon points="88.0,237.0 85.0,238.0 81.0,237.0 80.0,238.0 81.0,239.0 79.0,241.0 81.0,245.0 84.0,245.0 89.0,238.0" fill="#e0dd9d" />
<polygon points="50.0,34.0 51.0,35.0 70.0,35.0 71.0,34.0 70.0,33.0 55.0,33.0 54.0,32.0" fill="#0a3b32" />
<polygon points="181.0,34.0 182.0,36.0 202.0,36.0 203.0,35.0 198.0,33.0 197.0,34.0 190.0,34.0 189.0,33.0 182.0,33.0" fill="#0a3b32" />
<polygon points="185.0,286.0 190.0,290.0 192.0,289.0 201.0,289.0 202.0,288.0 201.0,285.0 198.0,286.0 187.0,286.0 186.0,285.0" fill="#0a3b32" />
<polygon points="312.0,220.0 313.0,221.0 323.0,221.0 324.0,222.0 325.0,221.0 333.0,221.0 334.0,220.0 333.0,219.0 313.0,219.0" fill="#b3a19a" />
<polygon points="192.0,45.0 191.0,46.0 193.0,48.0 192.0,49.0 193.0,50.0 193.0,53.0 196.0,55.0 198.0,50.0 197.0,48.0 198.0,46.0 197.0,45.0" fill="#f83e67" />
<polygon points="312.0,49.0 320.0,55.0 321.0,54.0 328.0,59.0 329.0,58.0 323.0,53.0 321.0,53.0 316.0,48.0" fill="#f83e67" />
<polygon points="357.0,267.0 355.0,267.0 354.0,266.0 350.0,270.0 351.0,271.0 350.0,272.0 354.0,274.0 358.0,270.0 358.0,268.0" fill="#d39710" />
<polygon points="223.0,91.0 221.0,89.0 212.0,96.0 213.0,97.0 214.0,96.0 216.0,96.0 220.0,94.0" fill="#fa778c" />
<polygon points="354.0,244.0 352.0,245.0 352.0,255.0 351.0,256.0 351.0,259.0 353.0,260.0 357.0,257.0 357.0,246.0" fill="#d39710" opacity="0.95" />
<polygon points="267.0,49.0 267.0,51.0 284.0,60.0 286.0,59.0 286.0,57.0 274.0,52.0 271.0,49.0" fill="#f83e67" opacity="0.95" />
<polygon points="189.0,31.0 190.0,33.0 197.0,33.0 198.0,32.0 200.0,33.0 201.0,32.0 197.0,30.0 190.0,30.0" fill="#b3a19a" />
<polygon points="355.0,278.0 353.0,277.0 347.0,280.0 342.0,279.0 336.0,282.0 336.0,284.0 347.0,284.0 354.0,281.0" fill="#e0dd9d" opacity="0.95" />
<polygon points="29.0,254.0 29.0,258.0 31.0,261.0 36.0,262.0 39.0,260.0 39.0,257.0 35.0,253.0 32.0,252.0" fill="#f2d24e" opacity="0.95" />
<polygon points="59.0,31.0 60.0,32.0 68.0,32.0 69.0,31.0 68.0,30.0 60.0,30.0" fill="#b3a19a" />
<polygon points="223.0,212.0 222.0,213.0 222.0,218.0 224.0,220.0 225.0,219.0 226.0,219.0 228.0,216.0 227.0,215.0 226.0,215.0" fill="#b3a19a" />
<polygon points="156.0,216.0 155.0,217.0 156.0,218.0 156.0,220.0 158.0,222.0 161.0,222.0 162.0,221.0 162.0,219.0 161.0,218.0 161.0,217.0 160.0,216.0" fill="#b3a19a" />
<polygon points="214.0,60.0 211.0,62.0 212.0,65.0 211.0,71.0 214.0,73.0 217.0,71.0 216.0,68.0 217.0,62.0" fill="#f83e67" opacity="0.95" />
<polygon points="357.0,258.0 354.0,262.0 354.0,263.0 356.0,266.0 357.0,266.0 358.0,265.0 358.0,259.0" fill="#a15d09" />
<polygon points="358.0,268.0 356.0,267.0 352.0,268.0 351.0,269.0 351.0,273.0 353.0,274.0 358.0,271.0" fill="#d39710" opacity="0.95" />
<polygon points="88.0,238.0 86.0,237.0 85.0,238.0 83.0,237.0 81.0,238.0 80.0,244.0 82.0,245.0 85.0,244.0 88.0,240.0" fill="#e0dd9d" opacity="0.95" />
<polygon points="156.0,217.0 156.0,220.0 159.0,222.0 162.0,221.0 161.0,217.0 159.0,216.0" fill="#b3a19a" opacity="0.95" />
<polygon points="354.0,267.0 351.0,269.0 351.0,271.0 354.0,273.0 357.0,271.0 357.0,269.0" fill="#d39710" opacity="0.95" />
</svg>