<svg xmlns="http://www.w3.org/2000/svg" width="768" height="768" viewBox="0 0 384 384">
<rect width="384" height="384" fill="#8a6b5c"/>
<polygon points="342.0,56.0 198.0,4.0 53.0,41.0 0.0,92.0 0.0,325.0 79.0,383.0 283.0,383.0 334.0,357.0 383.0,291.0 383.0,116.0" fill="#906656" />
<polygon points="342.0,56.0 198.0,4.0 53.0,41.0 0.0,91.0 0.0,325.0 79.0,383.0 284.0,383.0 337.0,355.0 383.0,291.0 383.0,115.0" fill="#906656" opacity="0.95" />
<polygon points="342.0,56.0 198.0,4.0 53.0,41.0 0.0,91.0 0.0,325.0 79.0,383.0 286.0,383.0 383.0,293.0 383.0,113.0" fill="#906656" opacity="0.95" />
<polygon points="247.0,70.0 281.0,113.0 286.0,196.0 220.0,271.0 236.0,332.0 167.0,341.0 148.0,300.0 163.0,250.0 128.0,219.0 124.0,165.0 183.0,158.0" fill="#906656" />
<polygon points="0.0,0.0 0.0,91.0 72.0,28.0 198.0,3.0 316.0,37.0 383.0,115.0 383.0,0.0" fill="#6b4d42" />
<polygon points="246.0,71.0 281.0,113.0 286.0,196.0 221.0,270.0 236.0,332.0 167.0,341.0 148.0,300.0 163.0,250.0 128.0,219.0 125.0,164.0 183.0,158.0" fill="#906656" opacity="0.95" />
<polygon points="246.0,77.0 184.0,159.0 128.0,165.0 145.0,205.0 200.0,220.0 252.0,194.0 264.0,157.0 247.0,124.0" fill="#7cdcd9" />
<polygon points="245.0,73.0 281.0,113.0 286.0,196.0 221.0,270.0 236.0,332.0 167.0,341.0 148.0,300.0 163.0,251.0 128.0,219.0 125.0,165.0 183.0,158.0" fill="#906656" opacity="0.95" />
<polygon points="0.0,0.0 0.0,90.0 75.0,27.0 198.0,3.0 316.0,37.0 383.0,114.0 383.0,0.0" fill="#6b4d42" opacity="0.95" />
<polygon points="247.0,81.0 184.0,159.0 128.0,165.0 145.0,205.0 200.0,220.0 252.0,194.0 264.0,157.0 247.0,124.0" fill="#7cdcd9" opacity="0.95" />
<polygon points="383.0,292.0 354.0,341.0 284.0,383.0 383.0,383.0" fill="#6b4d42" />
<polygon points="0.0,0.0 0.0,90.0 75.0,27.0 198.0,3.0 316.0,37.0 383.0,112.0 383.0,0.0" fill="#6b4d42" opacity="0.95" />
<polygon points="246.0,82.0 184.0,159.0 128.0,166.0 145.0,205.0 200.0,220.0 252.0,194.0 264.0,157.0 247.0,124.0" fill="#7cdcd9" opacity="0.95" />
<polygon points="0.0,326.0 0.0,383.0 78.0,383.0 42.0,367.0" fill="#6b4d42" />
<polygon points="252.0,89.0 266.0,113.0 273.0,200.0 208.0,275.0 263.0,235.0 286.0,192.0 280.0,113.0" fill="#6b4d42" />
<polygon points="383.0,292.0 354.0,341.0 285.0,383.0 383.0,383.0" fill="#6b4d42" opacity="0.95" />
<polygon points="266.0,154.0 260.0,206.0 237.0,231.0 204.0,244.0 206.0,271.0 267.0,213.0 274.0,174.0" fill="#4a342c" />
<polygon points="193.0,242.0 183.0,253.0 184.0,278.0 165.0,296.0 173.0,296.0 152.0,303.0 167.0,331.0 185.0,325.0 196.0,309.0 202.0,288.0 191.0,272.0" fill="#4a342c" />
<polygon points="262.0,180.0 243.0,205.0 210.0,221.0 203.0,229.0 206.0,242.0 234.0,232.0 253.0,215.0 263.0,196.0" fill="#170f0e" />
<polygon points="383.0,294.0 354.0,341.0 287.0,383.0 383.0,383.0" fill="#6b4d42" opacity="0.95" />
<polygon points="252.0,89.0 266.0,113.0 273.0,200.0 212.0,270.0 263.0,235.0 286.0,192.0 280.0,113.0" fill="#6b4d42" opacity="0.95" />
<polygon points="238.0,293.0 224.0,329.0 212.0,323.0 213.0,303.0 201.0,290.0 185.0,326.0 163.0,330.0 153.0,305.0 154.0,326.0 172.0,341.0 227.0,337.0 241.0,320.0" fill="#6b4d42" />
<polygon points="192.0,244.0 183.0,252.0 179.0,287.0 165.0,303.0 153.0,302.0 167.0,331.0 185.0,325.0 196.0,309.0 200.0,285.0 191.0,272.0" fill="#4a342c" opacity="0.95" />
<polygon points="264.0,183.0 239.0,208.0 211.0,220.0 204.0,227.0 205.0,241.0 242.0,226.0 259.0,206.0" fill="#170f0e" opacity="0.95" />
<polygon points="269.0,159.0 260.0,206.0 237.0,231.0 204.0,244.0 205.0,268.0 267.0,213.0 274.0,189.0" fill="#4a342c" opacity="0.95" />
<polygon points="250.0,95.0 251.0,121.0 249.0,125.0 263.0,141.0 265.0,139.0 265.0,113.0 261.0,103.0" fill="#4a342c" />
<polygon points="169.0,241.0 166.0,253.0 184.0,256.0 184.0,278.0 157.0,305.0 157.0,318.0 173.0,331.0 193.0,315.0 200.0,285.0 191.0,272.0 194.0,247.0 181.0,254.0" fill="#4a342c" opacity="0.95" />
<polygon points="138.0,210.0 150.0,227.0 158.0,231.0 164.0,228.0 166.0,238.0 176.0,242.0 175.0,220.0 170.0,219.0 164.0,225.0" fill="#170f0e" />
<polygon points="270.0,161.0 260.0,206.0 237.0,231.0 204.0,245.0 206.0,265.0 267.0,213.0 274.0,189.0" fill="#4a342c" opacity="0.95" />
<polygon points="264.0,186.0 259.0,185.0 236.0,210.0 211.0,220.0 204.0,228.0 205.0,240.0 219.0,239.0 242.0,226.0 259.0,206.0" fill="#170f0e" opacity="0.95" />
<polygon points="133.0,196.0 130.0,206.0 136.0,222.0 148.0,235.0 160.0,241.0 163.0,233.0 150.0,228.0 141.0,219.0 137.0,210.0 147.0,211.0" fill="#4a342c" />
<polygon points="209.0,290.0 204.0,293.0 214.0,303.0 212.0,321.0 224.0,328.0 235.0,316.0 235.0,295.0 229.0,297.0 233.0,305.0 224.0,316.0 222.0,305.0 216.0,301.0 220.0,298.0 214.0,298.0" fill="#4a342c" />
<polygon points="251.0,95.0 249.0,96.0 250.0,126.0 262.0,138.0 265.0,129.0 265.0,113.0 261.0,103.0" fill="#4a342c" opacity="0.95" />
<polygon points="139.0,212.0 150.0,227.0 165.0,230.0 166.0,239.0 174.0,243.0 180.0,233.0 184.0,246.0 193.0,241.0 194.0,227.0 180.0,228.0 171.0,219.0 164.0,225.0" fill="#170f0e" opacity="0.95" />
<polygon points="194.0,223.0 190.0,227.0 180.0,228.0 180.0,231.0 183.0,235.0 183.0,245.0 186.0,249.0 194.0,239.0 194.0,227.0 196.0,225.0" fill="#170f0e" />
<polygon points="141.0,215.0 150.0,227.0 164.0,231.0 173.0,242.0 179.0,238.0 186.0,247.0 194.0,239.0 191.0,227.0 181.0,228.0 174.0,220.0 164.0,225.0" fill="#170f0e" opacity="0.95" />
<polygon points="202.0,255.0 200.0,268.0 197.0,271.0 199.0,281.0 202.0,285.0 207.0,282.0 203.0,270.0" fill="#d8e9e8" />
<polygon points="172.0,272.0 169.0,285.0 157.0,293.0 154.0,287.0 167.0,276.0 165.0,271.0 154.0,282.0 152.0,292.0 155.0,298.0 174.0,283.0" fill="#d8e9e8" />
<polygon points="218.0,299.0 217.0,301.0 223.0,305.0 223.0,314.0 226.0,315.0 231.0,308.0 232.0,300.0 229.0,299.0 225.0,301.0" fill="#170f0e" />
<polygon points="149.0,213.0 153.0,218.0 161.0,222.0 164.0,219.0 163.0,217.0 151.0,211.0" fill="#5f605f" />
<polygon points="214.0,272.0 213.0,275.0 220.0,276.0 225.0,281.0 226.0,287.0 220.0,292.0 226.0,293.0 229.0,289.0 227.0,278.0 218.0,272.0" fill="#d8e9e8" />
<polygon points="179.0,245.0 178.0,246.0 178.0,268.0 179.0,269.0 180.0,268.0 180.0,246.0" fill="#d8e9e8" />
<polygon points="201.0,231.0 200.0,232.0 200.0,248.0 201.0,249.0 202.0,248.0 202.0,232.0" fill="#d8e9e8" />
<polygon points="200.0,270.0 197.0,272.0 199.0,281.0 202.0,283.0 204.0,282.0 205.0,283.0 207.0,282.0 207.0,279.0 204.0,271.0" fill="#d8e9e8" opacity="0.95" />
<polygon points="230.0,299.0 226.0,301.0 224.0,300.0 221.0,301.0 223.0,305.0 223.0,314.0 225.0,315.0 229.0,312.0 232.0,305.0 232.0,300.0" fill="#170f0e" opacity="0.95" />
<polygon points="150.0,213.0 150.0,215.0 153.0,218.0 161.0,222.0 163.0,221.0 163.0,217.0 153.0,212.0" fill="#5f605f" opacity="0.95" />
<polygon points="200.0,270.0 197.0,272.0 197.0,275.0 199.0,281.0 203.0,283.0 206.0,281.0 206.0,277.0 204.0,272.0" fill="#d8e9e8" opacity="0.95" />
<polygon points="229.0,299.0 223.0,303.0 223.0,312.0 226.0,314.0 229.0,312.0 232.0,305.0 232.0,301.0" fill="#170f0e" opacity="0.95" />
<polygon points="204.0,220.0 203.0,220.0 202.0,221.0 200.0,221.0 199.0,222.0 199.0,224.0 202.0,226.0 204.0,226.0 205.0,225.0 205.0,221.0" fill="#235855" />
<polygon points="212.0,286.0 210.0,288.0 210.0,289.0 214.0,292.0 215.0,292.0 217.0,294.0 218.0,293.0 217.0,291.0" fill="#5f605f" />
<polygon points="152.0,215.0 153.0,218.0 159.0,221.0 162.0,219.0 161.0,216.0 155.0,213.0" fill="#5f605f" opacity="0.95" />
<polygon points="180.0,220.0 178.0,222.0 178.0,224.0 179.0,225.0 181.0,225.0 182.0,224.0 183.0,225.0 184.0,224.0 182.0,222.0 182.0,221.0 181.0,220.0" fill="#235855" />
<polygon points="203.0,220.0 199.0,222.0 199.0,224.0 202.0,226.0 205.0,225.0 205.0,221.0" fill="#235855" opacity="0.95" />
<polygon points="173.0,268.0 172.0,269.0 173.0,270.0 173.0,271.0 175.0,273.0 177.0,271.0 177.0,270.0 175.0,268.0" fill="#906656" />
<polygon points="226.0,288.0 223.0,290.0 223.0,292.0 224.0,292.0 225.0,293.0 228.0,291.0 228.0,289.0 227.0,289.0" fill="#d8e9e8" opacity="0.95" />
<polygon points="172.0,278.0 171.0,279.0 170.0,279.0 170.0,283.0 171.0,283.0 172.0,284.0 173.0,283.0 174.0,283.0 174.0,279.0 173.0,279.0" fill="#d8e9e8" opacity="0.95" />
</svg>