<svg xmlns="http://www.w3.org/2000/svg" width="768" height="768" viewBox="0 0 384 384">
<rect width="384" height="384" fill="#8c6654"/>
<polygon points="0.0,0.0 0.0,383.0 187.0,383.0 186.0,240.0 120.0,152.0 138.0,83.0 189.0,145.0 244.0,83.0 257.0,210.0 196.0,247.0 198.0,383.0 383.0,383.0 383.0,0.0" fill="#875747" />
<polygon points="0.0,0.0 0.0,383.0 187.0,383.0 138.0,84.0 189.0,144.0 244.0,84.0 257.0,210.0 196.0,247.0 198.0,383.0 383.0,383.0 383.0,0.0" fill="#875747" opacity="0.95" />
<polygon points="0.0,0.0 0.0,383.0 187.0,383.0 186.0,240.0 120.0,152.0 139.0,84.0 190.0,144.0 243.0,85.0 257.0,210.0 196.0,247.0 198.0,383.0 383.0,383.0 383.0,0.0" fill="#875747" opacity="0.95" />
<polygon points="244.0,84.0 186.0,149.0 182.0,190.0 122.0,150.0 136.0,197.0 187.0,233.0 237.0,207.0 254.0,182.0" fill="#7ee5d9" />
<polygon points="138.0,87.0 126.0,148.0 181.0,188.0 183.0,136.0" fill="#669d3d" />
<polygon points="244.0,86.0 186.0,151.0 183.0,188.0 122.0,150.0 136.0,197.0 188.0,233.0 254.0,182.0" fill="#7ee5d9" opacity="0.95" />
<polygon points="243.0,87.0 186.0,152.0 182.0,187.0 122.0,151.0 136.0,197.0 188.0,233.0 254.0,182.0 260.0,149.0" fill="#7ee5d9" opacity="0.95" />
<polygon points="139.0,87.0 126.0,148.0 180.0,187.0 183.0,136.0" fill="#669d3d" opacity="0.95" />
<polygon points="139.0,88.0 126.0,148.0 179.0,186.0 183.0,136.0" fill="#669d3d" opacity="0.95" />
<polygon points="189.0,234.0 189.0,383.0 196.0,383.0 194.0,235.0" fill="#042253" />
<polygon points="261.0,163.0 245.0,210.0 229.0,224.0 197.0,235.0 197.0,243.0 235.0,230.0 252.0,216.0 264.0,185.0" fill="#472c2c" />
<polygon points="134.0,199.0 153.0,223.0 186.0,237.0 183.0,231.0" fill="#472c2c" />
<polygon points="190.0,234.0 189.0,383.0 196.0,383.0 195.0,246.0" fill="#042253" opacity="0.95" />
<polygon points="251.0,196.0 201.0,231.0 215.0,229.0 235.0,219.0" fill="#190f15" />
<polygon points="191.0,234.0 189.0,383.0 196.0,383.0 195.0,246.0" fill="#042253" opacity="0.95" />
<polygon points="263.0,165.0 245.0,210.0 196.0,240.0 230.0,232.0 252.0,216.0 262.0,195.0" fill="#472c2c" opacity="0.95" />
<polygon points="138.0,205.0 159.0,227.0 186.0,236.0" fill="#472c2c" opacity="0.95" />
<polygon points="263.0,174.0 257.0,174.0 250.0,201.0 235.0,220.0 196.0,238.0 244.0,224.0 260.0,201.0" fill="#472c2c" opacity="0.95" />
<polygon points="247.0,203.0 206.0,230.0 229.0,223.0 244.0,210.0" fill="#190f15" opacity="0.95" />
<polygon points="141.0,209.0 159.0,227.0 177.0,235.0 184.0,234.0 146.0,208.0" fill="#472c2c" opacity="0.95" />
<polygon points="244.0,208.0 238.0,207.0 213.0,224.0 212.0,227.0 215.0,229.0 229.0,223.0" fill="#190f15" opacity="0.95" />
<polygon points="194.0,144.0 193.0,144.0 192.0,145.0 190.0,145.0 189.0,146.0 189.0,148.0 191.0,150.0 193.0,150.0 195.0,148.0 195.0,145.0" fill="#472c2c" />
<polygon points="193.0,144.0 189.0,146.0 189.0,148.0 192.0,150.0 195.0,148.0 195.0,145.0" fill="#472c2c" opacity="0.95" />
</svg>