<svg xmlns="http://www.w3.org/2000/svg" width="768" height="768" viewBox="0 0 384 384">
<rect width="384" height="384" fill="#906a62"/>
<polygon points="136.0,116.0 0.0,150.0 0.0,383.0 153.0,383.0 183.0,244.0 125.0,176.0 118.0,142.0 155.0,158.0" fill="#976a5c" />
<polygon points="275.0,147.0 242.0,218.0 194.0,234.0 198.0,283.0 245.0,270.0 208.0,383.0 383.0,383.0 383.0,191.0" fill="#976a5c" />
<polygon points="137.0,118.0 0.0,153.0 0.0,383.0 153.0,383.0 183.0,244.0 125.0,176.0 118.0,143.0 154.0,157.0" fill="#976a5c" opacity="0.95" />
<polygon points="204.0,0.0 250.0,23.0 202.0,96.0 173.0,74.0 183.0,167.0 240.0,92.0 255.0,121.0 291.0,113.0 267.0,153.0 382.0,191.0 383.0,0.0" fill="#5d4540" />
<polygon points="2.0,0.0 5.0,149.0 122.0,116.0 146.0,129.0 108.0,38.0 136.0,49.0 130.0,0.0" fill="#5d4540" />
<polygon points="276.0,147.0 242.0,218.0 194.0,234.0 197.0,282.0 245.0,270.0 209.0,383.0 383.0,383.0 383.0,191.0" fill="#976a5c" opacity="0.95" />
<polygon points="137.0,118.0 0.0,153.0 0.0,383.0 153.0,383.0 183.0,244.0 125.0,176.0 119.0,144.0 153.0,155.0" fill="#976a5c" opacity="0.95" />
<polygon points="239.0,93.0 201.0,133.0 190.0,198.0 118.0,144.0 152.0,213.0 201.0,229.0 253.0,192.0 264.0,151.0" fill="#87cdd2" />
<polygon points="276.0,147.0 242.0,218.0 194.0,234.0 198.0,281.0 245.0,272.0 209.0,383.0 383.0,383.0 383.0,191.0" fill="#976a5c" opacity="0.95" />
<polygon points="0.0,0.0 4.0,147.0 140.0,115.0 108.0,38.0 134.0,45.0 130.0,0.0" fill="#5d4540" opacity="0.95" />
<polygon points="204.0,0.0 250.0,23.0 211.0,90.0 186.0,100.0 173.0,75.0 183.0,164.0 239.0,93.0 256.0,120.0 290.0,111.0 265.0,151.0 382.0,191.0 383.0,0.0" fill="#5d4540" opacity="0.95" />
<polygon points="109.0,34.0 169.0,98.0 181.0,73.0 193.0,98.0 230.0,68.0 249.0,8.0 209.0,18.0 203.0,0.0 160.0,0.0 154.0,24.0 132.0,0.0 137.0,49.0" fill="#ed6878" />
<polygon points="0.0,0.0 1.0,142.0 139.0,113.0 108.0,38.0 134.0,44.0 130.0,0.0" fill="#5d4540" opacity="0.95" />
<polygon points="241.0,95.0 203.0,129.0 189.0,194.0 118.0,145.0 152.0,213.0 201.0,229.0 250.0,196.0 264.0,151.0" fill="#87cdd2" opacity="0.95" />
<polygon points="243.0,269.0 197.0,285.0 197.0,383.0 208.0,382.0 234.0,318.0" fill="#154a36" />
<polygon points="257.0,17.0 270.0,26.0 277.0,8.0 294.0,35.0 306.0,21.0 314.0,40.0 333.0,38.0 332.0,57.0 356.0,55.0 341.0,83.0 356.0,96.0 340.0,108.0 344.0,121.0 298.0,116.0 307.0,97.0 297.0,88.0 275.0,96.0" fill="#5d4540" />
<polygon points="110.0,36.0 166.0,97.0 176.0,73.0 187.0,99.0 251.0,26.0 297.0,114.0 354.0,98.0 354.0,55.0 278.0,11.0 131.0,0.0 135.0,44.0" fill="#ed6878" opacity="0.95" />
<polygon points="184.0,294.0 167.0,295.0 157.0,307.0 154.0,383.0 185.0,383.0" fill="#154a36" />
<polygon points="257.0,18.0 278.0,98.0 297.0,87.0 308.0,97.0 297.0,114.0 343.0,120.0 339.0,108.0 355.0,96.0 340.0,83.0 355.0,56.0 332.0,58.0 332.0,38.0 313.0,41.0 305.0,22.0 294.0,36.0 277.0,9.0 271.0,27.0" fill="#ed6878" />
<polygon points="241.0,96.0 203.0,129.0 188.0,191.0 119.0,146.0 152.0,213.0 201.0,229.0 250.0,196.0 264.0,151.0" fill="#87cdd2" opacity="0.95" />
<polygon points="204.0,0.0 331.0,36.0 355.0,98.0 298.0,116.0 251.0,27.0 202.0,96.0 144.0,89.0 183.0,101.0 183.0,163.0 239.0,93.0 290.0,111.0 266.0,150.0 382.0,191.0 383.0,0.0" fill="#5d4540" opacity="0.95" />
<polygon points="109.0,34.0 151.0,89.0 170.0,96.0 181.0,73.0 193.0,98.0 230.0,68.0 249.0,8.0 209.0,16.0 203.0,0.0 160.0,0.0 154.0,20.0 131.0,0.0 135.0,46.0" fill="#ed6878" opacity="0.95" />
<polygon points="119.0,61.0 157.0,160.0 182.0,182.0 182.0,101.0 170.0,99.0 170.0,160.0" fill="#1a2b38" />
<polygon points="184.0,229.0 186.0,383.0 196.0,383.0 194.0,232.0" fill="#1a2b38" />
<polygon points="242.0,269.0 197.0,285.0 197.0,383.0 208.0,383.0 238.0,308.0" fill="#154a36" opacity="0.95" />
<polygon points="256.0,18.0 270.0,25.0 277.0,8.0 292.0,30.0 305.0,21.0 313.0,38.0 333.0,38.0 333.0,52.0 356.0,55.0 342.0,82.0 356.0,96.0 345.0,120.0 298.0,116.0 306.0,96.0 296.0,88.0 275.0,96.0" fill="#5d4540" opacity="0.95" />
<polygon points="256.0,19.0 278.0,98.0 297.0,87.0 308.0,97.0 297.0,114.0 345.0,119.0 340.0,107.0 355.0,96.0 341.0,81.0 354.0,54.0 332.0,54.0 331.0,37.0 312.0,40.0 305.0,22.0 294.0,32.0 277.0,10.0 270.0,26.0" fill="#ed6878" opacity="0.95" />
<polygon points="180.0,293.0 164.0,297.0 156.0,310.0 154.0,383.0 185.0,383.0 185.0,295.0" fill="#154a36" opacity="0.95" />
<polygon points="241.0,270.0 197.0,285.0 197.0,383.0 208.0,383.0 238.0,308.0" fill="#154a36" opacity="0.95" />
<polygon points="120.0,65.0 157.0,161.0 183.0,179.0 182.0,100.0 170.0,99.0 166.0,149.0 137.0,79.0" fill="#1a2b38" opacity="0.95" />
<polygon points="185.0,229.0 186.0,383.0 196.0,383.0 193.0,231.0" fill="#1a2b38" opacity="0.95" />
<polygon points="180.0,293.0 164.0,297.0 156.0,310.0 154.0,383.0 185.0,383.0 185.0,296.0" fill="#154a36" opacity="0.95" />
<polygon points="122.0,67.0 157.0,160.0 182.0,178.0 182.0,101.0 170.0,100.0 165.0,144.0" fill="#1a2b38" opacity="0.95" />
<polygon points="140.0,81.0 159.0,128.0 160.0,115.0 168.0,130.0 169.0,100.0" fill="#5d4540" />
<polygon points="250.0,200.0 204.0,230.0 218.0,232.0 227.0,229.0 242.0,216.0" fill="#1a2b38" />
<polygon points="186.0,229.0 186.0,383.0 196.0,383.0 193.0,232.0" fill="#1a2b38" opacity="0.95" />
<polygon points="280.0,103.0 272.0,114.0 255.0,122.0 261.0,134.0 275.0,121.0 290.0,113.0" fill="#1a2b38" />
<polygon points="142.0,86.0 154.0,115.0 169.0,119.0 169.0,98.0" fill="#5d4540" opacity="0.95" />
<polygon points="248.0,203.0 205.0,230.0 218.0,232.0 230.0,227.0 242.0,216.0" fill="#1a2b38" opacity="0.95" />
<polygon points="187.0,167.0 184.0,171.0 185.0,188.0 190.0,195.0 193.0,169.0 189.0,169.0" fill="#976a5c" />
<polygon points="160.0,116.0 158.0,118.0 169.0,154.0 168.0,131.0 165.0,121.0" fill="#976a5c" />
<polygon points="289.0,111.0 283.0,105.0 279.0,105.0 272.0,114.0 256.0,121.0 259.0,131.0 264.0,131.0 275.0,121.0 289.0,114.0" fill="#1a2b38" opacity="0.95" />
<polygon points="187.0,168.0 185.0,169.0 185.0,188.0 189.0,193.0 191.0,192.0 193.0,170.0" fill="#976a5c" opacity="0.95" />
<polygon points="162.0,119.0 160.0,120.0 162.0,134.0 165.0,144.0 167.0,145.0 169.0,144.0 168.0,131.0 165.0,126.0 165.0,121.0" fill="#976a5c" opacity="0.95" />
</svg>