<svg xmlns="http://www.w3.org/2000/svg" width="768" height="768" viewBox="0 0 384 384">
<rect width="384" height="384" fill="#9e6d63"/>
<polygon points="15.0,100.0 105.0,103.0 72.0,42.0 115.0,104.0 120.0,65.0 177.0,104.0 179.0,58.0 184.0,103.0 215.0,104.0 250.0,43.0 224.0,104.0 366.0,102.0 298.0,0.0 100.0,0.0" fill="#bc4c4c" />
<polygon points="149.0,107.0 189.0,224.0 257.0,148.0 203.0,228.0 336.0,151.0 310.0,106.0 264.0,106.0 243.0,144.0 253.0,106.0" fill="#a69e8a" />
<polygon points="16.0,96.0 103.0,103.0 78.0,51.0 116.0,104.0 122.0,65.0 149.0,104.0 178.0,103.0 181.0,74.0 186.0,104.0 365.0,102.0 298.0,0.0 97.0,0.0" fill="#bc4c4c" opacity="0.95" />
<polygon points="383.0,235.0 210.0,240.0 197.0,250.0 198.0,273.0 378.0,277.0" fill="#cf965d" />
<polygon points="0.0,241.0 3.0,277.0 181.0,275.0 183.0,246.0 167.0,240.0" fill="#cf965d" />
<polygon points="16.0,96.0 100.0,104.0 86.0,63.0 116.0,104.0 124.0,65.0 150.0,104.0 365.0,101.0 298.0,0.0 96.0,0.0" fill="#bc4c4c" opacity="0.95" />
<polygon points="2.0,281.0 2.0,320.0 131.0,319.0 130.0,280.0" fill="#692547" />
<polygon points="252.0,281.0 253.0,320.0 383.0,318.0 381.0,280.0" fill="#692547" />
<polygon points="0.0,226.0 164.0,241.0 62.0,193.0 176.0,231.0 136.0,191.0 87.0,178.0" fill="#b4907a" />
<polygon points="383.0,229.0 359.0,191.0 302.0,192.0 285.0,206.0 263.0,203.0 212.0,238.0" fill="#b4907a" />
<polygon points="354.0,324.0 285.0,323.0 267.0,339.0 210.0,357.0 213.0,377.0 315.0,378.0" fill="#b4907a" />
<polygon points="60.0,113.0 36.0,196.0 82.0,177.0 134.0,190.0 63.0,123.0 167.0,203.0 136.0,106.0 117.0,108.0 137.0,139.0 107.0,106.0" fill="#a69e8a" />
<polygon points="70.0,105.0 0.0,109.0 4.0,225.0 34.0,196.0 44.0,138.0" fill="#7c7570" />
<polygon points="29.0,324.0 74.0,378.0 169.0,377.0 175.0,352.0 151.0,340.0 115.0,335.0 102.0,323.0" fill="#b4907a" />
<polygon points="299.0,0.0 346.0,53.0 367.0,102.0 381.0,104.0 380.0,0.0" fill="#8d323f" />
<polygon points="99.0,0.0 0.0,0.0 2.0,104.0 15.0,103.0 32.0,67.0 68.0,34.0 66.0,20.0" fill="#8d323f" />
<polygon points="121.0,66.0 169.0,205.0 109.0,166.0 178.0,232.0 58.0,200.0 184.0,245.0 174.0,365.0 57.0,383.0 325.0,383.0 212.0,378.0 195.0,250.0 272.0,192.0 200.0,229.0 250.0,142.0 189.0,230.0" fill="#02031f" />
<polygon points="253.0,107.0 150.0,107.0 186.0,222.0 244.0,147.0 238.0,136.0" fill="#a69e8a" opacity="0.95" />
<polygon points="383.0,235.0 210.0,240.0 197.0,249.0 198.0,273.0 377.0,277.0" fill="#cf965d" opacity="0.95" />
<polygon points="0.0,241.0 4.0,277.0 181.0,275.0 183.0,245.0 167.0,240.0" fill="#cf965d" opacity="0.95" />
<polygon points="60.0,113.0 37.0,196.0 82.0,177.0 132.0,191.0 63.0,123.0 166.0,201.0 137.0,107.0" fill="#a69e8a" opacity="0.95" />
<polygon points="324.0,114.0 263.0,107.0 247.0,138.0 256.0,150.0 203.0,226.0 334.0,156.0" fill="#a69e8a" opacity="0.95" />
<polygon points="0.0,282.0 3.0,320.0 131.0,319.0 129.0,280.0" fill="#692547" opacity="0.95" />
<polygon points="0.0,325.0 0.0,383.0 56.0,383.0 71.0,376.0 45.0,350.0 27.0,323.0" fill="#915e59" />
<polygon points="252.0,281.0 254.0,320.0 383.0,318.0 380.0,280.0" fill="#692547" opacity="0.95" />
<polygon points="248.0,280.0 202.0,295.0 209.0,356.0 252.0,337.0 267.0,338.0 282.0,324.0 249.0,321.0" fill="#a69e8a" />
<polygon points="135.0,280.0 134.0,321.0 108.0,324.0 115.0,334.0 145.0,337.0 174.0,349.0 181.0,281.0" fill="#a69e8a" />
<polygon points="312.0,105.0 325.0,114.0 336.0,155.0 359.0,147.0 345.0,163.0 375.0,211.0 374.0,199.0 383.0,194.0 383.0,109.0" fill="#7c7570" />
<polygon points="383.0,227.0 361.0,192.0 339.0,187.0 264.0,204.0 215.0,238.0" fill="#b4907a" opacity="0.95" />
<polygon points="0.0,236.0 161.0,240.0 62.0,194.0 174.0,229.0 138.0,193.0 82.0,178.0 16.0,208.0" fill="#b4907a" opacity="0.95" />
<polygon points="381.0,323.0 356.0,323.0 318.0,376.0 326.0,383.0 375.0,383.0 383.0,371.0" fill="#915e59" />
<polygon points="252.0,107.0 151.0,108.0 187.0,221.0 244.0,147.0 238.0,136.0" fill="#a69e8a" opacity="0.95" />
<polygon points="383.0,235.0 210.0,240.0 197.0,250.0 198.0,273.0 377.0,277.0" fill="#cf965d" opacity="0.95" />
<polygon points="354.0,324.0 286.0,323.0 266.0,339.0 210.0,357.0 213.0,377.0 314.0,378.0" fill="#b4907a" opacity="0.95" />
<polygon points="65.0,106.0 0.0,109.0 0.0,221.0 34.0,197.0 40.0,149.0" fill="#7c7570" opacity="0.95" />
<polygon points="29.0,324.0 75.0,378.0 169.0,377.0 174.0,352.0 148.0,339.0 116.0,335.0 101.0,323.0" fill="#b4907a" opacity="0.95" />
<polygon points="324.0,114.0 264.0,107.0 256.0,150.0 204.0,223.0 315.0,160.0 266.0,202.0 352.0,185.0" fill="#a69e8a" opacity="0.95" />
<polygon points="0.0,241.0 5.0,277.0 181.0,275.0 182.0,246.0 167.0,240.0" fill="#cf965d" opacity="0.95" />
<polygon points="299.0,0.0 346.0,53.0 367.0,102.0 382.0,103.0 380.0,0.0" fill="#8d323f" opacity="0.95" />
<polygon points="121.0,67.0 167.0,201.0 110.0,167.0 177.0,232.0 59.0,200.0 184.0,245.0 174.0,365.0 57.0,383.0 325.0,383.0 212.0,378.0 195.0,250.0 271.0,190.0 201.0,227.0 250.0,143.0 186.0,225.0" fill="#02031f" opacity="0.95" />
<polygon points="96.0,0.0 0.0,0.0 1.0,103.0 14.0,103.0 32.0,67.0 66.0,34.0 66.0,20.0" fill="#8d323f" opacity="0.95" />
<polygon points="0.0,283.0 0.0,318.0 4.0,320.0 131.0,318.0 128.0,280.0" fill="#692547" opacity="0.95" />
<polygon points="0.0,236.0 155.0,240.0 62.0,194.0 173.0,227.0 138.0,193.0 82.0,178.0 19.0,206.0" fill="#b4907a" opacity="0.95" />
<polygon points="252.0,282.0 255.0,320.0 383.0,318.0 383.0,282.0 379.0,280.0" fill="#692547" opacity="0.95" />
<polygon points="249.0,281.0 202.0,295.0 207.0,354.0 279.0,329.0 249.0,321.0" fill="#a69e8a" opacity="0.95" />
<polygon points="299.0,0.0 346.0,53.0 367.0,102.0 383.0,102.0 383.0,0.0" fill="#8d323f" opacity="0.95" />
<polygon points="122.0,67.0 167.0,200.0 110.0,167.0 175.0,230.0 59.0,200.0 184.0,246.0 174.0,365.0 57.0,383.0 325.0,383.0 212.0,377.0 195.0,250.0 271.0,190.0 202.0,225.0 250.0,143.0 187.0,223.0" fill="#02031f" opacity="0.95" />
<polygon points="29.0,325.0 76.0,378.0 170.0,374.0 174.0,352.0 148.0,339.0 117.0,335.0 101.0,323.0" fill="#b4907a" opacity="0.95" />
<polygon points="318.0,106.0 334.0,133.0 337.0,153.0 347.0,153.0 354.0,187.0 375.0,202.0 383.0,194.0 383.0,109.0" fill="#7c7570" opacity="0.95" />
<polygon points="95.0,0.0 0.0,0.0 0.0,102.0 14.0,102.0 32.0,67.0 65.0,33.0 66.0,20.0" fill="#8d323f" opacity="0.95" />
<polygon points="60.0,105.0 0.0,109.0 0.0,213.0 8.0,216.0 34.0,196.0 41.0,145.0" fill="#7c7570" opacity="0.95" />
<polygon points="0.0,325.0 0.0,383.0 56.0,383.0 71.0,376.0 45.0,350.0 28.0,324.0" fill="#915e59" opacity="0.95" />
<polygon points="382.0,324.0 355.0,324.0 318.0,377.0 326.0,383.0 377.0,383.0 383.0,373.0" fill="#915e59" opacity="0.95" />
<polygon points="321.0,106.0 336.0,150.0 348.0,154.0 354.0,186.0 373.0,201.0 383.0,194.0 383.0,109.0" fill="#7c7570" opacity="0.95" />
<polygon points="0.0,325.0 0.0,383.0 56.0,383.0 71.0,375.0 45.0,350.0 27.0,324.0" fill="#915e59" opacity="0.95" />
<polygon points="383.0,325.0 356.0,324.0 318.0,376.0 326.0,383.0 376.0,383.0 383.0,374.0" fill="#915e59" opacity="0.95" />
<polygon points="60.0,129.0 108.0,166.0 111.0,163.0 65.0,126.0" fill="#544e54" />
<polygon points="73.0,45.0 93.0,85.0 114.0,111.0" fill="#02031f" />
<polygon points="249.0,44.0 243.0,45.0 217.0,105.0 229.0,90.0 235.0,90.0" fill="#544e54" />
<polygon points="326.0,163.0 316.0,161.0 269.0,187.0 274.0,191.0" fill="#544e54" />
<polygon points="249.0,43.0 252.0,47.0 237.0,88.0 224.0,97.0 221.0,93.0 240.0,48.0" fill="#bc4c4c" opacity="0.95" />
<polygon points="271.0,82.0 250.0,117.0 252.0,121.0 273.0,84.0" fill="#2a253a" />
<polygon points="200.0,293.0 204.0,293.0 213.0,287.0 215.0,289.0 223.0,289.0 235.0,282.0 227.0,279.0 201.0,281.0" fill="#d9cac2" />
<polygon points="247.0,41.0 252.0,47.0 237.0,88.0 227.0,94.0 223.0,89.0 240.0,48.0" fill="#bc4c4c" opacity="0.95" />
<polygon points="60.0,129.0 103.0,164.0 110.0,164.0 110.0,160.0 64.0,126.0" fill="#544e54" opacity="0.95" />
<polygon points="248.0,44.0 241.0,49.0 227.0,91.0 235.0,90.0 250.0,48.0" fill="#544e54" opacity="0.95" />
<polygon points="321.0,164.0 316.0,161.0 284.0,176.0 270.0,188.0 275.0,190.0" fill="#544e54" opacity="0.95" />
<polygon points="250.0,120.0 246.0,123.0 238.0,139.0 243.0,143.0 254.0,123.0" fill="#544e54" />
<polygon points="78.0,56.0 99.0,94.0 114.0,107.0 82.0,56.0" fill="#02031f" opacity="0.95" />
<polygon points="179.0,60.0 180.0,103.0 182.0,104.0 183.0,79.0" fill="#02031f" />
<polygon points="60.0,129.0 103.0,164.0 110.0,164.0 105.0,156.0 64.0,126.0" fill="#544e54" opacity="0.95" />
<polygon points="320.0,164.0 316.0,161.0 284.0,176.0 270.0,188.0 275.0,190.0" fill="#544e54" opacity="0.95" />
<polygon points="247.0,44.0 242.0,47.0 226.0,85.0 229.0,90.0 236.0,87.0 250.0,48.0" fill="#544e54" opacity="0.95" />
<polygon points="200.0,292.0 203.0,293.0 213.0,288.0 223.0,289.0 227.0,287.0 230.0,281.0 226.0,279.0 200.0,282.0" fill="#d9cac2" opacity="0.95" />
<polygon points="269.0,90.0 265.0,90.0 250.0,119.0 257.0,117.0" fill="#2a253a" opacity="0.95" />
<polygon points="86.0,68.0 85.0,71.0 105.0,102.0 109.0,102.0 110.0,99.0 91.0,69.0" fill="#02031f" opacity="0.95" />
<polygon points="378.0,197.0 375.0,199.0 375.0,203.0 377.0,205.0 376.0,207.0 378.0,211.0 378.0,217.0 381.0,219.0 383.0,217.0 383.0,199.0 381.0,197.0" fill="#915e59" />
<polygon points="354.0,149.0 328.0,161.0 332.0,161.0" fill="#2a253a" />
<polygon points="200.0,283.0 200.0,291.0 203.0,293.0 213.0,288.0 223.0,289.0 226.0,287.0 227.0,281.0 224.0,279.0 211.0,279.0" fill="#d9cac2" opacity="0.95" />
<polygon points="378.0,197.0 376.0,198.0 376.0,204.0 378.0,215.0 380.0,216.0 383.0,214.0 383.0,199.0" fill="#915e59" opacity="0.95" />
<polygon points="116.0,111.0 115.0,113.0 119.0,117.0 119.0,118.0 122.0,121.0 123.0,121.0 124.0,119.0 118.0,111.0" fill="#2a253a" />
<polygon points="381.0,376.0 378.0,381.0 378.0,383.0 383.0,383.0 383.0,378.0" fill="#8d323f" />
<polygon points="180.0,67.0 183.0,69.0 183.0,72.0 180.0,74.0 177.0,72.0 177.0,69.0" fill="#bc4c4c" opacity="0.95" />
<polygon points="257.0,107.0 254.0,109.0 251.0,115.0 251.0,117.0 254.0,119.0 257.0,117.0 260.0,111.0 260.0,109.0" fill="#2a253a" opacity="0.95" />
<polygon points="379.0,197.0 376.0,199.0 376.0,204.0 379.0,206.0 383.0,204.0 383.0,199.0" fill="#915e59" opacity="0.95" />
<polygon points="181.0,78.0 180.0,79.0 179.0,79.0 179.0,86.0 180.0,86.0 181.0,87.0 182.0,86.0 183.0,86.0 183.0,79.0 182.0,79.0" fill="#02031f" opacity="0.95" />
</svg>