<svg xmlns="http://www.w3.org/2000/svg" width="768" height="768" viewBox="0 0 384 384">
<rect width="384" height="384" fill="#996555"/>
<polygon points="0.0,0.0 0.0,383.0 152.0,360.0 114.0,76.0 181.0,74.0 187.0,188.0 244.0,40.0 233.0,359.0 383.0,383.0 383.0,0.0" fill="#af5e53" />
<polygon points="0.0,0.0 0.0,383.0 152.0,360.0 114.0,76.0 181.0,74.0 186.0,188.0 244.0,41.0 233.0,360.0 383.0,383.0 383.0,0.0" fill="#af5e53" opacity="0.95" />
<polygon points="0.0,0.0 0.0,383.0 152.0,359.0 114.0,76.0 181.0,74.0 185.0,168.0 244.0,42.0 233.0,358.0 383.0,383.0 383.0,0.0" fill="#af5e53" opacity="0.95" />
<polygon points="122.0,66.0 133.0,223.0 156.0,274.0 145.0,307.0 159.0,280.0 182.0,278.0" fill="#7db88f" />
<polygon points="251.0,48.0 244.0,136.0 217.0,124.0 235.0,237.0 263.0,129.0 264.0,66.0" fill="#25573a" />
<polygon points="198.0,253.0 201.0,317.0 235.0,320.0 244.0,284.0 239.0,261.0 228.0,251.0" fill="#428557" />
<polygon points="123.0,66.0 133.0,223.0 155.0,273.0 145.0,305.0 177.0,277.0" fill="#7db88f" opacity="0.95" />
<polygon points="226.0,160.0 218.0,167.0 216.0,253.0 229.0,248.0 237.0,221.0" fill="#163237" />
<polygon points="251.0,48.0 244.0,135.0 218.0,126.0 239.0,227.0 264.0,117.0 264.0,66.0" fill="#25573a" opacity="0.95" />
<polygon points="127.0,66.0 149.0,191.0 157.0,199.0 153.0,149.0" fill="#428557" />
<polygon points="136.0,67.0 165.0,220.0 182.0,209.0 181.0,197.0 165.0,195.0 170.0,161.0" fill="#163237" />
<polygon points="177.0,71.0 167.0,136.0 159.0,129.0 171.0,161.0 168.0,197.0 183.0,193.0 183.0,83.0" fill="#25573a" />
<polygon points="122.0,67.0 133.0,223.0 155.0,273.0 145.0,300.0 176.0,276.0" fill="#7db88f" opacity="0.95" />
<polygon points="197.0,254.0 201.0,317.0 237.0,318.0 244.0,284.0 239.0,261.0 228.0,251.0" fill="#428557" opacity="0.95" />
<polygon points="210.0,122.0 198.0,140.0 194.0,193.0 183.0,194.0 189.0,236.0 200.0,253.0 212.0,251.0 215.0,238.0 208.0,246.0 203.0,239.0" fill="#7db88f" />
<polygon points="215.0,123.0 204.0,207.0 207.0,245.0 216.0,233.0" fill="#428557" />
<polygon points="179.0,211.0 165.0,217.0 184.0,248.0 189.0,356.0 184.0,365.0 162.0,365.0 171.0,383.0 208.0,383.0 214.0,367.0 202.0,368.0 195.0,251.0" fill="#081637" />
<polygon points="243.0,47.0 233.0,55.0 229.0,70.0 228.0,125.0 232.0,124.0 241.0,137.0 247.0,102.0" fill="#7db88f" />
<polygon points="199.0,314.0 201.0,347.0 232.0,351.0 238.0,320.0 202.0,319.0" fill="#25573a" />
<polygon points="183.0,279.0 171.0,282.0 169.0,292.0 162.0,290.0 162.0,280.0 153.0,287.0 144.0,309.0 147.0,320.0 184.0,316.0" fill="#428557" />
<polygon points="251.0,48.0 245.0,130.0 218.0,129.0 218.0,157.0 229.0,162.0 241.0,220.0 265.0,101.0 264.0,66.0" fill="#25573a" opacity="0.95" />
<polygon points="198.0,255.0 201.0,316.0 237.0,318.0 244.0,284.0 239.0,261.0 228.0,251.0" fill="#428557" opacity="0.95" />
<polygon points="186.0,317.0 175.0,321.0 147.0,321.0 150.0,340.0 157.0,343.0 184.0,344.0 187.0,335.0" fill="#25573a" />
<polygon points="225.0,160.0 218.0,167.0 217.0,253.0 229.0,248.0 237.0,221.0" fill="#163237" opacity="0.95" />
<polygon points="176.0,71.0 163.0,140.0 171.0,161.0 168.0,197.0 183.0,193.0 183.0,83.0" fill="#25573a" opacity="0.95" />
<polygon points="210.0,122.0 198.0,140.0 195.0,190.0 183.0,194.0 189.0,236.0 200.0,253.0 214.0,248.0 203.0,239.0" fill="#7db88f" opacity="0.95" />
<polygon points="164.0,224.0 164.0,244.0 179.0,277.0 182.0,274.0 180.0,240.0" fill="#428557" />
<polygon points="138.0,70.0 162.0,214.0 173.0,214.0 181.0,197.0 165.0,196.0 170.0,161.0" fill="#163237" opacity="0.95" />
<polygon points="180.0,211.0 166.0,218.0 184.0,248.0 189.0,356.0 163.0,366.0 171.0,383.0 208.0,383.0 212.0,367.0 201.0,367.0 195.0,251.0" fill="#081637" opacity="0.95" />
<polygon points="188.0,340.0 184.0,345.0 152.0,342.0 154.0,361.0 184.0,364.0 188.0,356.0" fill="#163237" />
<polygon points="243.0,47.0 233.0,55.0 229.0,70.0 229.0,123.0 241.0,136.0 247.0,102.0" fill="#7db88f" opacity="0.95" />
<polygon points="198.0,319.0 201.0,347.0 233.0,350.0 236.0,321.0" fill="#25573a" opacity="0.95" />
<polygon points="165.0,224.0 164.0,244.0 179.0,279.0 168.0,292.0 161.0,280.0 144.0,308.0 148.0,320.0 175.0,320.0 186.0,311.0 180.0,239.0" fill="#428557" opacity="0.95" />
<polygon points="154.0,364.0 144.0,362.0 132.0,365.0 124.0,372.0 120.0,383.0 155.0,383.0" fill="#7db88f" />
<polygon points="208.0,123.0 198.0,140.0 195.0,190.0 183.0,194.0 189.0,236.0 200.0,253.0 207.0,250.0" fill="#7db88f" opacity="0.95" />
<polygon points="232.0,363.0 231.0,383.0 263.0,383.0 259.0,373.0 251.0,365.0 242.0,362.0" fill="#428557" />
<polygon points="176.0,71.0 164.0,141.0 171.0,161.0 169.0,197.0 183.0,193.0 183.0,83.0" fill="#25573a" opacity="0.95" />
<polygon points="225.0,160.0 218.0,167.0 218.0,253.0 232.0,243.0 237.0,221.0" fill="#163237" opacity="0.95" />
<polygon points="141.0,74.0 164.0,191.0 170.0,161.0" fill="#163237" opacity="0.95" />
<polygon points="180.0,211.0 167.0,219.0 184.0,248.0 189.0,356.0 165.0,367.0 171.0,383.0 208.0,383.0 211.0,368.0 197.0,354.0 195.0,251.0" fill="#081637" opacity="0.95" />
<polygon points="187.0,319.0 148.0,321.0 150.0,340.0 157.0,343.0 185.0,343.0" fill="#25573a" opacity="0.95" />
<polygon points="198.0,345.0 202.0,367.0 217.0,365.0 232.0,358.0 233.0,353.0 230.0,351.0 202.0,349.0" fill="#163237" />
<polygon points="242.0,47.0 233.0,55.0 229.0,70.0 229.0,122.0 240.0,134.0 247.0,102.0" fill="#7db88f" opacity="0.95" />
<polygon points="168.0,226.0 162.0,235.0 178.0,278.0 167.0,292.0 160.0,281.0 144.0,309.0 149.0,320.0 175.0,320.0 186.0,311.0 179.0,239.0" fill="#428557" opacity="0.95" />
<polygon points="151.0,343.0 155.0,362.0 179.0,364.0 186.0,362.0 188.0,345.0" fill="#163237" opacity="0.95" />
<polygon points="198.0,349.0 199.0,361.0 203.0,367.0 217.0,365.0 232.0,358.0 232.0,352.0 227.0,350.0" fill="#163237" opacity="0.95" />
<polygon points="163.0,287.0 163.0,290.0 164.0,291.0 169.0,291.0 171.0,289.0 168.0,286.0 164.0,286.0" fill="#d0bb9f" />
<polygon points="174.0,68.0 173.0,67.0 173.0,66.0 171.0,64.0 170.0,64.0 166.0,68.0 167.0,69.0 173.0,69.0" fill="#d0bb9f" />
<polygon points="197.0,135.0 193.0,141.0 193.0,143.0 192.0,144.0 193.0,145.0 197.0,142.0 197.0,137.0 198.0,136.0" fill="#081637" />
<polygon points="125.0,60.0 124.0,61.0 123.0,64.0 124.0,65.0 128.0,65.0 129.0,64.0" fill="#d0bb9f" />
<polygon points="211.0,116.0 210.0,117.0 210.0,119.0 209.0,120.0 211.0,122.0 214.0,122.0 215.0,121.0 214.0,120.0 214.0,119.0" fill="#d0bb9f" />
<polygon points="163.0,287.0 163.0,290.0 165.0,291.0 168.0,291.0 170.0,290.0 170.0,287.0 168.0,286.0 165.0,286.0" fill="#d0bb9f" opacity="0.95" />
</svg>