<svg xmlns="http://www.w3.org/2000/svg" width="768" height="768" viewBox="0 0 384 384">
<rect width="384" height="384" fill="#906864"/>
<polygon points="383.0,173.0 2.0,288.0 0.0,383.0 383.0,383.0" fill="#8c5448" />
<polygon points="383.0,173.0 1.0,289.0 0.0,383.0 383.0,383.0" fill="#8c5448" opacity="0.95" />
<polygon points="0.0,4.0 2.0,40.0 252.0,107.0 383.0,119.0 382.0,91.0 256.0,0.0" fill="#eb644f" />
<polygon points="383.0,173.0 1.0,289.0 0.0,383.0 383.0,383.0" fill="#8c5448" opacity="0.95" />
<polygon points="0.0,105.0 5.0,151.0 383.0,168.0 381.0,139.0 280.0,116.0" fill="#566e7b" />
<polygon points="248.0,198.0 2.0,196.0 0.0,259.0 105.0,251.0" fill="#adc2c6" />
<polygon points="0.0,151.0 4.0,197.0 157.0,187.0 249.0,202.0 341.0,173.0 211.0,152.0" fill="#7f97a0" />
<polygon points="0.0,0.0 3.0,40.0 252.0,107.0 383.0,119.0 382.0,91.0 259.0,0.0" fill="#eb644f" opacity="0.95" />
<polygon points="0.0,43.0 5.0,104.0 143.0,100.0 383.0,136.0" fill="#334556" />
<polygon points="0.0,106.0 6.0,151.0 383.0,168.0 382.0,140.0 279.0,116.0" fill="#566e7b" opacity="0.95" />
<polygon points="0.0,0.0 4.0,40.0 252.0,107.0 383.0,119.0 382.0,91.0 261.0,0.0" fill="#eb644f" opacity="0.95" />
<polygon points="247.0,198.0 3.0,197.0 0.0,261.0 108.0,250.0" fill="#adc2c6" opacity="0.95" />
<polygon points="0.0,153.0 5.0,197.0 157.0,187.0 252.0,201.0 340.0,174.0 146.0,148.0" fill="#7f97a0" opacity="0.95" />
<polygon points="0.0,107.0 6.0,151.0 383.0,168.0 383.0,141.0 279.0,116.0" fill="#566e7b" opacity="0.95" />
<polygon points="0.0,43.0 4.0,103.0 280.0,115.0" fill="#334556" opacity="0.95" />
<polygon points="259.0,0.0 328.0,61.0 338.0,51.0 353.0,52.0 364.0,79.0 383.0,88.0 383.0,0.0" fill="#231b3c" />
<polygon points="247.0,199.0 154.0,188.0 7.0,197.0 0.0,261.0 108.0,250.0" fill="#adc2c6" opacity="0.95" />
<polygon points="0.0,153.0 5.0,197.0 157.0,187.0 255.0,200.0 338.0,174.0 146.0,148.0" fill="#7f97a0" opacity="0.95" />
<polygon points="0.0,43.0 5.0,103.0 259.0,112.0 95.0,56.0" fill="#334556" opacity="0.95" />
<polygon points="261.0,0.0 326.0,59.0 353.0,52.0 364.0,79.0 383.0,87.0 383.0,0.0" fill="#231b3c" opacity="0.95" />
<polygon points="101.0,250.0 39.0,253.0 5.0,266.0 0.0,260.0 0.0,289.0 56.0,275.0" fill="#f1f0f0" />
<polygon points="263.0,0.0 326.0,58.0 351.0,51.0 364.0,79.0 383.0,86.0 383.0,0.0" fill="#231b3c" opacity="0.95" />
<polygon points="100.0,251.0 0.0,262.0 0.0,288.0 56.0,275.0" fill="#f1f0f0" opacity="0.95" />
<polygon points="97.0,252.0 39.0,253.0 0.0,262.0 0.0,288.0 56.0,275.0" fill="#f1f0f0" opacity="0.95" />
<polygon points="333.0,56.0 330.0,63.0 339.0,73.0 362.0,77.0 360.0,63.0 355.0,55.0 350.0,52.0 339.0,52.0" fill="#f1f0f0" />
<polygon points="292.0,116.0 383.0,136.0 380.0,123.0" fill="#334556" opacity="0.95" />
<polygon points="333.0,56.0 331.0,64.0 339.0,73.0 362.0,76.0 360.0,63.0 355.0,55.0 350.0,52.0 339.0,52.0" fill="#f1f0f0" opacity="0.95" />
<polygon points="321.0,121.0 324.0,125.0 383.0,136.0 383.0,125.0" fill="#334556" opacity="0.95" />
<polygon points="333.0,56.0 331.0,64.0 339.0,73.0 357.0,77.0 361.0,75.0 360.0,63.0 355.0,55.0 350.0,52.0 339.0,52.0" fill="#f1f0f0" opacity="0.95" />
</svg>