<svg xmlns="http://www.w3.org/2000/svg" width="768" height="768" viewBox="0 0 384 384">
<rect width="384" height="384" fill="#925f59"/>
<polygon points="2.0,0.0 5.0,126.0 134.0,59.0 281.0,63.0 251.0,124.0 336.0,129.0 246.0,146.0 271.0,237.0 135.0,229.0 248.0,267.0 5.0,258.0 2.0,383.0 383.0,383.0 383.0,0.0" fill="#8a4b46" />
<polygon points="0.0,0.0 5.0,126.0 136.0,61.0 266.0,63.0 252.0,110.0 323.0,128.0 246.0,146.0 272.0,236.0 135.0,231.0 249.0,266.0 0.0,261.0 0.0,383.0 383.0,383.0 383.0,0.0" fill="#8a4b46" opacity="0.95" />
<polygon points="0.0,0.0 6.0,126.0 134.0,60.0 263.0,63.0 252.0,110.0 315.0,129.0 247.0,147.0 272.0,236.0 135.0,233.0 249.0,266.0 1.0,261.0 0.0,383.0 383.0,383.0 383.0,0.0" fill="#8a4b46" opacity="0.95" />
<polygon points="312.0,130.0 251.0,127.0 258.0,67.0 74.0,70.0 97.0,95.0 2.0,129.0 0.0,188.0 86.0,192.0 3.0,194.0 2.0,254.0 130.0,254.0 108.0,192.0 134.0,151.0 223.0,126.0 298.0,166.0" fill="#a8675e" />
<polygon points="264.0,185.0 239.0,141.0 205.0,129.0 174.0,150.0 137.0,155.0 120.0,197.0 140.0,219.0 244.0,219.0 260.0,207.0" fill="#50f5fb" />
<polygon points="309.0,130.0 248.0,127.0 256.0,67.0 84.0,67.0 62.0,128.0 0.0,131.0 9.0,185.0 59.0,191.0 0.0,196.0 0.0,251.0 235.0,270.0 129.0,259.0 119.0,166.0 216.0,126.0 298.0,166.0" fill="#a8675e" opacity="0.95" />
<polygon points="310.0,136.0 249.0,126.0 255.0,67.0 85.0,67.0 59.0,128.0 7.0,131.0 40.0,192.0 0.0,197.0 0.0,249.0 235.0,270.0 130.0,260.0 119.0,166.0 216.0,126.0 298.0,166.0" fill="#a8675e" opacity="0.95" />
<polygon points="264.0,185.0 239.0,141.0 205.0,129.0 174.0,149.0 137.0,155.0 120.0,197.0 140.0,219.0 244.0,219.0 260.0,207.0" fill="#50f5fb" opacity="0.95" />
<polygon points="264.0,185.0 239.0,141.0 205.0,129.0 173.0,149.0 137.0,155.0 120.0,197.0 140.0,219.0 244.0,219.0 260.0,207.0" fill="#50f5fb" opacity="0.95" />
<polygon points="31.0,263.0 104.0,266.0 115.0,277.0 134.0,263.0 171.0,281.0 251.0,260.0" fill="#a8675e" />
<polygon points="278.0,215.0 267.0,193.0 246.0,220.0 136.0,219.0 135.0,225.0 153.0,238.0 264.0,238.0 275.0,232.0" fill="#372021" />
<polygon points="278.0,215.0 273.0,195.0 267.0,194.0 246.0,220.0 137.0,219.0 135.0,225.0 153.0,238.0 264.0,238.0 275.0,232.0" fill="#372021" opacity="0.95" />
<polygon points="278.0,215.0 268.0,194.0 246.0,220.0 138.0,220.0 135.0,225.0 153.0,238.0 264.0,238.0 275.0,232.0" fill="#372021" opacity="0.95" />
<polygon points="5.0,157.0 4.0,189.0 33.0,190.0 33.0,183.0 27.0,180.0 18.0,187.0 8.0,185.0 6.0,180.0 11.0,173.0 5.0,166.0 8.0,163.0" fill="#8a4b46" />
<polygon points="33.0,185.0 27.0,180.0 21.0,182.0 18.0,187.0 12.0,188.0 6.0,182.0 4.0,189.0 29.0,191.0 33.0,189.0" fill="#8a4b46" opacity="0.95" />
<polygon points="18.0,65.0 20.0,63.0 28.0,63.0 30.0,65.0 27.0,68.0 26.0,67.0 24.0,68.0 22.0,67.0 21.0,68.0" fill="#8a4b46" />
<polygon points="2.0,107.0 0.0,109.0 0.0,118.0 2.0,120.0 3.0,119.0 3.0,108.0" fill="#a8675e" />
<polygon points="5.0,156.0 6.0,156.0 9.0,159.0 9.0,163.0 6.0,166.0 3.0,163.0 3.0,158.0" fill="#a8675e" />
<polygon points="133.0,318.0 134.0,318.0 137.0,321.0 137.0,322.0 134.0,325.0 133.0,325.0 130.0,322.0 130.0,321.0" fill="#8a4b46" />
<polygon points="65.0,256.0 68.0,254.0 76.0,254.0 79.0,256.0 79.0,258.0 74.0,261.0 70.0,261.0 66.0,259.0" fill="#a8675e" opacity="0.95" />
<polygon points="33.0,185.0 31.0,182.0 27.0,180.0 22.0,182.0 18.0,187.0 18.0,189.0 21.0,191.0 29.0,191.0 33.0,188.0" fill="#8a4b46" opacity="0.95" />
<polygon points="100.0,192.0 102.0,190.0 105.0,190.0 107.0,192.0 105.0,194.0 102.0,194.0" fill="#a8675e" />
<polygon points="124.0,162.0 120.0,166.0 120.0,169.0 122.0,171.0 123.0,170.0 124.0,167.0 126.0,165.0 126.0,164.0" fill="#8a4b46" />
<polygon points="44.0,190.0 48.0,187.0 51.0,187.0 55.0,190.0 55.0,192.0 51.0,195.0 48.0,195.0 44.0,192.0" fill="#a8675e" opacity="0.95" />
<polygon points="71.0,254.0 73.0,254.0 77.0,257.0 77.0,259.0 72.0,263.0 67.0,259.0 67.0,257.0" fill="#a8675e" opacity="0.95" />
<polygon points="127.0,213.0 125.0,215.0 126.0,216.0 126.0,217.0 129.0,220.0 130.0,220.0 132.0,217.0 131.0,216.0 130.0,216.0" fill="#8a4b46" />
<polygon points="266.0,183.0 265.0,184.0 265.0,187.0 266.0,188.0 266.0,190.0 267.0,191.0 268.0,191.0 269.0,190.0 269.0,188.0 268.0,187.0 268.0,185.0" fill="#372021" />
</svg>