<svg xmlns="http://www.w3.org/2000/svg" width="768" height="768" viewBox="0 0 384 384">
<rect width="384" height="384" fill="#926658"/>
<polygon points="22.0,68.0 2.0,383.0 171.0,383.0 192.0,265.0 214.0,383.0 383.0,383.0 364.0,77.0 211.0,80.0 284.0,175.0 183.0,256.0 100.0,167.0 174.0,79.0" fill="#9a644e" />
<polygon points="22.0,68.0 0.0,383.0 171.0,383.0 192.0,279.0 213.0,383.0 383.0,383.0 365.0,78.0 212.0,80.0 284.0,175.0 183.0,256.0 100.0,167.0 173.0,77.0" fill="#9a644e" opacity="0.95" />
<polygon points="22.0,68.0 0.0,383.0 171.0,383.0 192.0,284.0 213.0,383.0 383.0,383.0 365.0,78.0 216.0,79.0 284.0,175.0 183.0,256.0 100.0,167.0 174.0,79.0" fill="#9a644e" opacity="0.95" />
<polygon points="223.0,102.0 165.0,110.0 144.0,130.0 136.0,162.0 125.0,162.0 142.0,202.0 169.0,223.0 217.0,223.0 251.0,191.0 259.0,142.0" fill="#67cedc" />
<polygon points="73.0,43.0 175.0,79.0 130.0,111.0 121.0,157.0 186.0,92.0 267.0,155.0 209.0,81.0 326.0,60.0 234.0,0.0 150.0,0.0" fill="#dc673f" />
<polygon points="2.0,100.0 26.0,63.0 54.0,63.0 91.0,26.0 148.0,0.0 2.0,0.0" fill="#4d2c36" />
<polygon points="236.0,0.0 284.0,20.0 329.0,62.0 352.0,52.0 383.0,117.0 383.0,0.0" fill="#4d2c36" />
<polygon points="223.0,102.0 165.0,110.0 144.0,130.0 136.0,162.0 125.0,162.0 142.0,202.0 169.0,223.0 217.0,223.0 251.0,191.0 259.0,142.0" fill="#67cedc" opacity="0.95" />
<polygon points="74.0,42.0 175.0,79.0 130.0,111.0 121.0,157.0 186.0,92.0 267.0,155.0 210.0,81.0 325.0,61.0 236.0,0.0 148.0,0.0" fill="#dc673f" opacity="0.95" />
<polygon points="101.0,150.0 123.0,222.0 183.0,255.0 254.0,231.0 283.0,149.0 265.0,156.0 235.0,220.0 183.0,233.0 142.0,211.0 124.0,159.0" fill="#ac2435" />
<polygon points="223.0,102.0 165.0,110.0 125.0,163.0 142.0,202.0 169.0,223.0 217.0,223.0 251.0,191.0 259.0,142.0" fill="#67cedc" opacity="0.95" />
<polygon points="75.0,41.0 175.0,79.0 130.0,111.0 121.0,157.0 186.0,92.0 267.0,155.0 213.0,81.0 324.0,60.0 239.0,0.0 145.0,0.0" fill="#dc673f" opacity="0.95" />
<polygon points="192.0,266.0 172.0,383.0 213.0,383.0" fill="#5b4c4c" />
<polygon points="0.0,95.0 29.0,61.0 56.0,61.0 91.0,26.0 146.0,0.0 0.0,0.0" fill="#4d2c36" opacity="0.95" />
<polygon points="238.0,0.0 284.0,20.0 329.0,60.0 352.0,52.0 383.0,114.0 383.0,0.0" fill="#4d2c36" opacity="0.95" />
<polygon points="101.0,150.0 123.0,222.0 183.0,255.0 254.0,231.0 284.0,150.0 263.0,157.0 242.0,214.0 183.0,233.0 142.0,211.0 124.0,159.0" fill="#ac2435" opacity="0.95" />
<polygon points="0.0,90.0 7.0,92.0 29.0,61.0 55.0,61.0 91.0,26.0 143.0,0.0 0.0,0.0" fill="#4d2c36" opacity="0.95" />
<polygon points="241.0,0.0 290.0,24.0 328.0,59.0 352.0,52.0 383.0,113.0 383.0,0.0" fill="#4d2c36" opacity="0.95" />
<polygon points="101.0,152.0 123.0,222.0 183.0,255.0 254.0,231.0 283.0,151.0 264.0,157.0 235.0,220.0 183.0,233.0 149.0,218.0 124.0,160.0" fill="#ac2435" opacity="0.95" />
<polygon points="192.0,280.0 172.0,383.0 212.0,383.0" fill="#5b4c4c" opacity="0.95" />
<polygon points="192.0,285.0 172.0,383.0 212.0,383.0" fill="#5b4c4c" opacity="0.95" />
<polygon points="191.0,93.0 164.0,99.0 142.0,115.0 130.0,134.0 127.0,160.0 135.0,161.0 147.0,124.0 168.0,107.0 191.0,102.0" fill="#efb20d" />
<polygon points="332.0,58.0 331.0,64.0 343.0,74.0 364.0,75.0 353.0,54.0 339.0,52.0" fill="#bd8875" />
<polygon points="262.0,166.0 244.0,204.0 209.0,227.0 174.0,226.0 138.0,204.0 168.0,228.0 212.0,230.0 246.0,208.0" fill="#5b4c4c" />
<polygon points="192.0,94.0 169.0,97.0 148.0,109.0 130.0,134.0 125.0,159.0 135.0,161.0 139.0,137.0 156.0,115.0 192.0,101.0" fill="#efb20d" opacity="0.95" />
<polygon points="332.0,58.0 331.0,64.0 340.0,72.0 356.0,76.0 363.0,75.0 360.0,64.0 353.0,54.0 339.0,52.0" fill="#bd8875" opacity="0.95" />
<polygon points="252.0,197.0 226.0,220.0 195.0,230.0 144.0,212.0 168.0,228.0 201.0,232.0 236.0,218.0" fill="#5b4c4c" opacity="0.95" />
<polygon points="191.0,94.0 169.0,97.0 148.0,109.0 130.0,134.0 125.0,158.0 135.0,160.0 139.0,137.0 156.0,115.0 191.0,101.0" fill="#efb20d" opacity="0.95" />
<polygon points="193.0,96.0 194.0,102.0 216.0,104.0 219.0,102.0 217.0,99.0 202.0,95.0" fill="#a0bcc1" />
<polygon points="332.0,58.0 331.0,64.0 340.0,72.0 356.0,76.0 363.0,74.0 360.0,64.0 353.0,54.0 339.0,52.0" fill="#bd8875" opacity="0.95" />
<polygon points="128.0,177.0 130.0,187.0 142.0,205.0 134.0,190.0 131.0,179.0" fill="#4b9394" />
<polygon points="193.0,96.0 193.0,101.0 208.0,104.0 216.0,104.0 219.0,102.0 217.0,99.0 202.0,95.0" fill="#a0bcc1" opacity="0.95" />
<polygon points="193.0,97.0 193.0,100.0 196.0,102.0 214.0,104.0 217.0,102.0 217.0,100.0 214.0,98.0 202.0,95.0 196.0,95.0" fill="#a0bcc1" opacity="0.95" />
<polygon points="260.0,165.0 258.0,166.0 257.0,176.0 255.0,183.0 257.0,184.0 259.0,183.0 262.0,170.0 262.0,166.0" fill="#5b4c4c" opacity="0.95" />
</svg>