<svg xmlns="http://www.w3.org/2000/svg" width="768" height="768" viewBox="0 0 384 384">
<rect width="384" height="384" fill="#8f5c4f"/>
<polygon points="251.0,0.0 252.0,127.0 383.0,127.0 383.0,0.0" fill="#8c4e45" />
<polygon points="133.0,0.0 134.0,126.0 249.0,127.0 250.0,0.0" fill="#d0613f" />
<polygon points="0.0,0.0 0.0,59.0 7.0,64.0 0.0,68.0 2.0,126.0 131.0,125.0 131.0,0.0" fill="#64403a" />
<polygon points="252.0,259.0 253.0,320.0 383.0,320.0 383.0,258.0" fill="#64403a" />
<polygon points="0.0,195.0 2.0,254.0 131.0,247.0 124.0,193.0" fill="#a16c59" />
<polygon points="251.0,132.0 254.0,190.0 383.0,190.0 383.0,130.0" fill="#64403a" />
<polygon points="0.0,0.0 1.0,125.0 131.0,125.0 130.0,0.0" fill="#64403a" opacity="0.95" />
<polygon points="0.0,326.0 2.0,383.0 131.0,383.0 130.0,324.0" fill="#8c4e45" />
<polygon points="133.0,260.0 136.0,316.0 251.0,315.0 247.0,260.0" fill="#a16c59" />
<polygon points="251.0,0.0 251.0,126.0 383.0,127.0 383.0,0.0" fill="#8c4e45" opacity="0.95" />
<polygon points="131.0,251.0 0.0,260.0 0.0,383.0 131.0,383.0" fill="#8c4e45" opacity="0.95" />
<polygon points="251.0,324.0 251.0,383.0 383.0,383.0 383.0,323.0" fill="#a16c59" />
<polygon points="131.0,250.0 25.0,251.0 15.0,258.0 5.0,252.0 0.0,318.0 130.0,320.0" fill="#8c4e45" />
<polygon points="134.0,324.0 134.0,383.0 250.0,383.0 249.0,323.0" fill="#64403a" />
<polygon points="148.0,138.0 129.0,157.0 128.0,181.0 166.0,221.0 192.0,233.0 250.0,193.0 255.0,161.0 240.0,140.0 199.0,135.0 189.0,152.0 186.0,135.0" fill="#4cdecf" />
<polygon points="0.0,0.0 0.0,124.0 131.0,124.0 130.0,0.0" fill="#64403a" opacity="0.95" />
<polygon points="133.0,0.0 134.0,126.0 250.0,126.0 250.0,78.0 239.0,70.0 250.0,62.0 250.0,0.0" fill="#d0613f" opacity="0.95" />
<polygon points="251.0,0.0 252.0,126.0 383.0,127.0 383.0,0.0" fill="#8c4e45" opacity="0.95" />
<polygon points="0.0,260.0 0.0,383.0 131.0,383.0 130.0,259.0" fill="#8c4e45" opacity="0.95" />
<polygon points="130.0,131.0 64.0,133.0 64.0,143.0 46.0,133.0 43.0,145.0 24.0,148.0 4.0,132.0 0.0,187.0 129.0,191.0" fill="#8c4e45" />
<polygon points="252.0,259.0 254.0,320.0 383.0,320.0 383.0,258.0" fill="#64403a" opacity="0.95" />
<polygon points="133.0,0.0 134.0,125.0 249.0,126.0 250.0,79.0 238.0,66.0 250.0,61.0 250.0,0.0" fill="#d0613f" opacity="0.95" />
<polygon points="251.0,132.0 256.0,190.0 383.0,190.0 383.0,130.0" fill="#64403a" opacity="0.95" />
<polygon points="0.0,195.0 3.0,252.0 131.0,246.0 123.0,193.0" fill="#a16c59" opacity="0.95" />
<polygon points="251.0,324.0 251.0,383.0 383.0,383.0 383.0,323.0" fill="#a16c59" opacity="0.95" />
<polygon points="134.0,324.0 134.0,383.0 250.0,383.0 250.0,324.0" fill="#64403a" opacity="0.95" />
<polygon points="252.0,195.0 253.0,255.0 383.0,255.0 383.0,247.0 346.0,237.0 334.0,243.0 345.0,232.0 347.0,196.0 279.0,210.0" fill="#8c4e45" />
<polygon points="133.0,259.0 137.0,316.0 251.0,314.0 251.0,264.0 243.0,259.0" fill="#a16c59" opacity="0.95" />
<polygon points="252.0,199.0 193.0,234.0 133.0,196.0 131.0,218.0 154.0,248.0 204.0,255.0 246.0,236.0" fill="#91061f" />
<polygon points="148.0,138.0 129.0,157.0 128.0,181.0 166.0,221.0 192.0,233.0 250.0,193.0 255.0,161.0 240.0,140.0 200.0,135.0 190.0,152.0 185.0,135.0" fill="#4cdecf" opacity="0.95" />
<polygon points="252.0,260.0 255.0,320.0 383.0,320.0 383.0,258.0" fill="#64403a" opacity="0.95" />
<polygon points="251.0,325.0 251.0,383.0 383.0,383.0 383.0,323.0" fill="#a16c59" opacity="0.95" />
<polygon points="133.0,261.0 137.0,316.0 251.0,314.0 251.0,264.0 243.0,259.0" fill="#a16c59" opacity="0.95" />
<polygon points="130.0,131.0 69.0,133.0 64.0,143.0 48.0,133.0 43.0,145.0 24.0,148.0 4.0,132.0 0.0,188.0 127.0,191.0" fill="#8c4e45" opacity="0.95" />
<polygon points="240.0,140.0 201.0,135.0 191.0,152.0 184.0,136.0 148.0,138.0 128.0,160.0 131.0,190.0 195.0,232.0 253.0,187.0 255.0,161.0" fill="#4cdecf" opacity="0.95" />
<polygon points="0.0,195.0 0.0,226.0 7.0,230.0 0.0,249.0 131.0,245.0 123.0,193.0" fill="#a16c59" opacity="0.95" />
<polygon points="252.0,199.0 193.0,234.0 134.0,198.0 131.0,218.0 147.0,244.0 204.0,255.0 246.0,236.0" fill="#91061f" opacity="0.95" />
<polygon points="252.0,200.0 193.0,234.0 135.0,199.0 131.0,218.0 147.0,244.0 204.0,255.0 246.0,236.0" fill="#91061f" opacity="0.95" />
<polygon points="133.0,133.0 135.0,146.0 147.0,137.0 178.0,134.0 232.0,136.0 250.0,145.0 247.0,129.0 135.0,129.0" fill="#f45c27" />
<polygon points="351.0,193.0 347.0,199.0 351.0,209.0 342.0,218.0 346.0,235.0 383.0,246.0 383.0,240.0 370.0,236.0 377.0,209.0 372.0,206.0 366.0,212.0 364.0,195.0" fill="#a16c59" />
<polygon points="133.0,233.0 134.0,255.0 169.0,254.0 152.0,248.0" fill="#f45c27" />
<polygon points="250.0,234.0 235.0,246.0 214.0,254.0 249.0,255.0" fill="#f45c27" />
<polygon points="133.0,133.0 135.0,145.0 147.0,137.0 178.0,134.0 232.0,136.0 250.0,144.0 247.0,129.0 136.0,129.0" fill="#f45c27" opacity="0.95" />
<polygon points="133.0,236.0 133.0,254.0 163.0,254.0 163.0,252.0 144.0,243.0 137.0,236.0" fill="#f45c27" opacity="0.95" />
<polygon points="250.0,237.0 246.0,237.0 235.0,246.0 221.0,252.0 221.0,254.0 250.0,254.0" fill="#f45c27" opacity="0.95" />
<polygon points="133.0,143.0 136.0,145.0 151.0,136.0 177.0,135.0 180.0,131.0 177.0,129.0 137.0,129.0 133.0,133.0" fill="#f45c27" opacity="0.95" />
<polygon points="204.0,131.0 207.0,135.0 232.0,136.0 247.0,144.0 250.0,142.0 249.0,131.0 246.0,129.0 207.0,129.0" fill="#f45c27" opacity="0.95" />
<polygon points="133.0,238.0 134.0,254.0 156.0,255.0 159.0,253.0 158.0,250.0 147.0,245.0 136.0,236.0" fill="#f45c27" opacity="0.95" />
<polygon points="190.0,135.0 189.0,136.0 189.0,149.0 190.0,150.0 194.0,150.0 195.0,151.0 196.0,150.0 196.0,136.0 195.0,135.0" fill="#040301" />
<polygon points="250.0,239.0 247.0,237.0 235.0,246.0 226.0,250.0 225.0,253.0 228.0,255.0 249.0,254.0" fill="#f45c27" opacity="0.95" />
<polygon points="191.0,135.0 189.0,136.0 189.0,149.0 194.0,150.0 196.0,149.0 196.0,136.0" fill="#040301" opacity="0.95" />
<polygon points="244.0,63.0 247.0,65.0 246.0,66.0 247.0,67.0 247.0,73.0 246.0,74.0 247.0,75.0 245.0,77.0 243.0,75.0 244.0,74.0 238.0,69.0 240.0,67.0 242.0,67.0 243.0,66.0 242.0,65.0" fill="#d0613f" />
<polygon points="192.0,135.0 189.0,137.0 189.0,148.0 193.0,150.0 196.0,148.0 196.0,137.0" fill="#040301" opacity="0.95" />
</svg>