<svg xmlns="http://www.w3.org/2000/svg" width="768" height="768" viewBox="0 0 384 384">
<rect width="384" height="384" fill="#8c6b6a"/>
<polygon points="383.0,217.0 4.0,220.0 0.0,383.0 383.0,383.0" fill="#986e65" />
<polygon points="383.0,217.0 4.0,220.0 0.0,383.0 383.0,383.0" fill="#986e65" opacity="0.95" />
<polygon points="383.0,217.0 5.0,220.0 0.0,383.0 383.0,383.0" fill="#986e65" opacity="0.95" />
<polygon points="0.0,117.0 3.0,220.0 148.0,219.0 123.0,158.0 193.0,156.0 225.0,101.0 260.0,147.0 241.0,217.0 383.0,216.0 383.0,124.0 66.0,54.0" fill="#6b6a73" />
<polygon points="67.0,49.0 358.0,125.0 322.0,55.0 239.0,0.0 141.0,0.0" fill="#e2725b" />
<polygon points="0.0,118.0 3.0,220.0 146.0,219.0 123.0,158.0 194.0,155.0 225.0,101.0 260.0,147.0 240.0,216.0 383.0,216.0 383.0,124.0 66.0,54.0" fill="#6b6a73" opacity="0.95" />
<polygon points="68.0,47.0 357.0,125.0 322.0,55.0 240.0,0.0 140.0,0.0" fill="#e2725b" opacity="0.95" />
<polygon points="2.0,113.0 22.0,115.0 77.0,37.0 140.0,0.0 0.0,0.0" fill="#403b4d" />
<polygon points="0.0,118.0 4.0,219.0 146.0,219.0 123.0,159.0 194.0,155.0 226.0,101.0 260.0,147.0 241.0,216.0 383.0,216.0 383.0,124.0 66.0,54.0" fill="#6b6a73" opacity="0.95" />
<polygon points="68.0,47.0 357.0,124.0 322.0,55.0 242.0,0.0 138.0,0.0" fill="#e2725b" opacity="0.95" />
<polygon points="257.0,166.0 241.0,149.0 197.0,166.0 138.0,168.0 128.0,179.0 152.0,214.0 200.0,227.0 243.0,204.0" fill="#69c1ce" />
<polygon points="240.0,0.0 292.0,26.0 330.0,63.0 348.0,52.0 353.0,67.0 338.0,76.0 357.0,118.0 383.0,123.0 383.0,0.0" fill="#403b4d" />
<polygon points="0.0,113.0 23.0,114.0 77.0,37.0 139.0,0.0 0.0,0.0" fill="#403b4d" opacity="0.95" />
<polygon points="257.0,166.0 241.0,149.0 197.0,166.0 132.0,170.0 129.0,182.0 158.0,218.0 200.0,227.0 243.0,204.0" fill="#69c1ce" opacity="0.95" />
<polygon points="0.0,112.0 23.0,114.0 64.0,50.0 137.0,0.0 0.0,0.0" fill="#403b4d" opacity="0.95" />
<polygon points="242.0,0.0 329.0,61.0 348.0,52.0 353.0,67.0 339.0,78.0 357.0,118.0 383.0,123.0 383.0,0.0" fill="#403b4d" opacity="0.95" />
<polygon points="257.0,166.0 241.0,149.0 197.0,166.0 139.0,168.0 129.0,182.0 158.0,218.0 200.0,227.0 243.0,204.0" fill="#69c1ce" opacity="0.95" />
<polygon points="258.0,146.0 246.0,119.0 224.0,103.0 201.0,133.0 195.0,158.0 126.0,158.0 128.0,176.0 137.0,167.0 197.0,165.0 241.0,148.0 258.0,164.0" fill="#63abbb" />
<polygon points="244.0,0.0 326.0,59.0 348.0,52.0 353.0,67.0 339.0,78.0 357.0,118.0 383.0,123.0 383.0,0.0" fill="#403b4d" opacity="0.95" />
<polygon points="246.0,119.0 225.0,103.0 201.0,133.0 196.0,157.0 127.0,158.0 125.0,169.0 197.0,165.0 241.0,148.0 256.0,155.0" fill="#63abbb" opacity="0.95" />
<polygon points="258.0,146.0 246.0,119.0 225.0,103.0 201.0,133.0 195.0,157.0 128.0,158.0 125.0,168.0 197.0,165.0" fill="#63abbb" opacity="0.95" />
<polygon points="132.0,195.0 152.0,219.0 185.0,231.0 228.0,222.0 251.0,197.0 217.0,224.0 183.0,228.0 159.0,220.0" fill="#403b4d" />
<polygon points="338.0,52.0 332.0,58.0 332.0,65.0 337.0,72.0 346.0,73.0 351.0,69.0 352.0,59.0 347.0,53.0" fill="#f4edec" />
<polygon points="338.0,52.0 332.0,58.0 332.0,65.0 337.0,72.0 346.0,73.0 351.0,69.0 352.0,59.0 347.0,53.0" fill="#f4edec" opacity="0.95" />
<polygon points="338.0,52.0 332.0,58.0 332.0,65.0 337.0,72.0 346.0,73.0 351.0,69.0 352.0,59.0 347.0,53.0" fill="#f4edec" opacity="0.95" />
<polygon points="228.0,220.0 226.0,219.0 220.0,222.0 220.0,224.0 222.0,225.0 228.0,222.0" fill="#403b4d" opacity="0.95" />
</svg>