<svg xmlns="http://www.w3.org/2000/svg" width="768" height="768" viewBox="0 0 384 384">
<rect width="384" height="384" fill="#8d6056"/>
<polygon points="0.0,188.0 130.0,190.0 132.0,254.0 150.0,255.0 152.0,206.0 113.0,172.0 133.0,127.0 180.0,127.0 191.0,103.0 202.0,127.0 383.0,128.0 383.0,89.0 290.0,0.0 131.0,0.0 131.0,125.0 5.0,127.0" fill="#a2574a" />
<polygon points="5.0,0.0 4.0,9.0 26.0,22.0 0.0,48.0 0.0,124.0 129.0,126.0 130.0,0.0" fill="#5d3d35" />
<polygon points="383.0,88.0 291.0,0.0 131.0,0.0 131.0,125.0 6.0,127.0 0.0,188.0 131.0,191.0 132.0,255.0 1.0,258.0 0.0,383.0 131.0,383.0 133.0,127.0 383.0,128.0" fill="#a2574a" opacity="0.95" />
<polygon points="0.0,259.0 2.0,320.0 131.0,319.0 130.0,257.0" fill="#a2574a" />
<polygon points="252.0,258.0 253.0,320.0 383.0,320.0 383.0,257.0" fill="#5d3d35" />
<polygon points="230.0,204.0 239.0,247.0 234.0,256.0 383.0,256.0 383.0,191.0 250.0,188.0" fill="#a2574a" />
<polygon points="0.0,326.0 0.0,383.0 131.0,383.0 130.0,325.0" fill="#a2574a" />
<polygon points="251.0,326.0 250.0,383.0 383.0,383.0 383.0,325.0" fill="#8a6558" />
<polygon points="0.0,191.0 0.0,257.0 129.0,255.0 133.0,320.0 194.0,257.0 133.0,256.0 126.0,192.0" fill="#bb8e78" />
<polygon points="132.0,325.0 132.0,383.0 250.0,382.0 249.0,325.0" fill="#5d3d35" />
<polygon points="252.0,132.0 252.0,165.0 269.0,171.0 254.0,190.0 383.0,190.0 383.0,129.0" fill="#8a6558" />
<polygon points="5.0,0.0 25.0,26.0 0.0,47.0 0.0,124.0 130.0,125.0 130.0,0.0" fill="#5d3d35" opacity="0.95" />
<polygon points="0.0,188.0 123.0,190.0 131.0,129.0 178.0,127.0 191.0,106.0 204.0,127.0 383.0,128.0 383.0,88.0 291.0,0.0 131.0,0.0 132.0,124.0 6.0,127.0" fill="#a2574a" opacity="0.95" />
<polygon points="191.0,104.0 168.0,163.0 114.0,171.0 154.0,204.0 147.0,250.0 189.0,228.0 236.0,250.0 228.0,204.0 268.0,171.0 214.0,163.0" fill="#3fcdfa" />
<polygon points="291.0,0.0 383.0,88.0 383.0,0.0" fill="#5d3d35" />
<polygon points="5.0,0.0 25.0,26.0 0.0,45.0 0.0,124.0 131.0,123.0 130.0,0.0" fill="#5d3d35" opacity="0.95" />
<polygon points="0.0,191.0 0.0,257.0 130.0,255.0 126.0,192.0" fill="#bb8e78" opacity="0.95" />
<polygon points="230.0,204.0 237.0,257.0 383.0,256.0 383.0,191.0 249.0,189.0" fill="#a2574a" opacity="0.95" />
<polygon points="133.0,321.0 249.0,324.0 251.0,260.0 193.0,234.0 176.0,241.0 196.0,239.0 226.0,255.0 195.0,257.0" fill="#8a6558" />
<polygon points="252.0,258.0 254.0,320.0 383.0,320.0 383.0,257.0" fill="#5d3d35" opacity="0.95" />
<polygon points="133.0,321.0 250.0,325.0 251.0,383.0 383.0,383.0 383.0,325.0 253.0,325.0 251.0,259.0 194.0,258.0" fill="#8a6558" opacity="0.95" />
<polygon points="138.0,193.0 128.0,257.0 0.0,259.0 0.0,383.0 131.0,383.0 131.0,258.0 146.0,253.0 152.0,210.0" fill="#a2574a" opacity="0.95" />
<polygon points="132.0,326.0 132.0,383.0 250.0,383.0 248.0,325.0" fill="#5d3d35" opacity="0.95" />
<polygon points="252.0,132.0 253.0,166.0 268.0,170.0 254.0,190.0 383.0,190.0 383.0,129.0" fill="#8a6558" opacity="0.95" />
<polygon points="230.0,204.0 238.0,257.0 383.0,256.0 383.0,191.0 249.0,189.0" fill="#a2574a" opacity="0.95" />
<polygon points="252.0,259.0 255.0,320.0 383.0,320.0 383.0,257.0" fill="#5d3d35" opacity="0.95" />
<polygon points="191.0,106.0 168.0,163.0 115.0,173.0 154.0,204.0 147.0,248.0 193.0,228.0 235.0,250.0 229.0,203.0 266.0,171.0 213.0,162.0" fill="#3fcdfa" opacity="0.95" />
<polygon points="134.0,320.0 249.0,325.0 251.0,383.0 383.0,383.0 383.0,325.0 255.0,325.0 251.0,260.0 229.0,253.0 195.0,258.0" fill="#8a6558" opacity="0.95" />
<polygon points="0.0,191.0 0.0,257.0 128.0,254.0 135.0,317.0 192.0,260.0 130.0,254.0 126.0,192.0" fill="#bb8e78" opacity="0.95" />
<polygon points="132.0,327.0 132.0,383.0 250.0,383.0 247.0,325.0" fill="#5d3d35" opacity="0.95" />
<polygon points="252.0,132.0 253.0,165.0 268.0,171.0 255.0,190.0 383.0,190.0 383.0,129.0" fill="#8a6558" opacity="0.95" />
<polygon points="202.0,129.0 214.0,162.0 251.0,165.0 250.0,128.0" fill="#b05506" />
<polygon points="132.0,129.0 133.0,166.0 169.0,161.0 179.0,128.0" fill="#b05506" />
<polygon points="191.0,108.0 168.0,163.0 116.0,173.0 154.0,204.0 148.0,248.0 193.0,228.0 234.0,250.0 229.0,203.0 266.0,171.0 213.0,162.0" fill="#3fcdfa" opacity="0.95" />
<polygon points="193.0,257.0 132.0,256.0 132.0,318.0 136.0,318.0" fill="#bb8e78" opacity="0.95" />
<polygon points="203.0,128.0 213.0,161.0 251.0,165.0 251.0,129.0" fill="#b05506" opacity="0.95" />
<polygon points="157.0,252.0 200.0,257.0 225.0,255.0 192.0,239.0" fill="#a2574a" />
<polygon points="132.0,129.0 132.0,165.0 169.0,161.0 179.0,129.0" fill="#b05506" opacity="0.95" />
<polygon points="203.0,129.0 214.0,161.0 251.0,164.0 249.0,128.0" fill="#b05506" opacity="0.95" />
<polygon points="132.0,129.0 133.0,165.0 169.0,160.0 178.0,129.0" fill="#b05506" opacity="0.95" />
<polygon points="0.0,321.0 0.0,324.0 131.0,323.0" fill="#f8efeb" />
<polygon points="251.0,322.0 383.0,324.0 383.0,321.0" fill="#f8efeb" />
<polygon points="149.0,251.0 193.0,233.0 233.0,252.0 192.0,229.0" fill="#2d7e8e" />
<polygon points="155.0,247.0 193.0,233.0 231.0,251.0 192.0,229.0" fill="#2d7e8e" opacity="0.95" />
<polygon points="327.0,60.0 335.0,66.0 337.0,65.0 337.0,57.0 336.0,56.0 334.0,56.0" fill="#f8efeb" />
<polygon points="328.0,59.0 328.0,61.0 334.0,65.0 337.0,64.0 337.0,57.0 334.0,56.0" fill="#f8efeb" opacity="0.95" />
<polygon points="188.0,235.0 188.0,237.0 196.0,239.0 199.0,241.0 201.0,240.0 201.0,238.0 193.0,234.0" fill="#8a6558" opacity="0.95" />
<polygon points="334.0,56.0 329.0,59.0 329.0,61.0 334.0,65.0 337.0,63.0 337.0,58.0" fill="#f8efeb" opacity="0.95" />
</svg>