<svg xmlns="http://www.w3.org/2000/svg" width="768" height="768" viewBox="0 0 384 384">
<rect width="384" height="384" fill="#876860"/>
<polygon points="0.0,0.0 2.0,320.0 383.0,320.0 383.0,179.0 295.0,141.0 167.0,179.0 114.0,280.0 41.0,277.0 144.0,95.0 259.0,48.0 383.0,76.0 383.0,0.0" fill="#875a5f" />
<polygon points="0.0,328.0 0.0,383.0 383.0,383.0 383.0,326.0" fill="#875a5f" />
<polygon points="0.0,0.0 1.0,319.0 383.0,320.0 383.0,179.0 295.0,141.0 167.0,179.0 115.0,279.0 41.0,278.0 144.0,95.0 259.0,48.0 383.0,76.0 383.0,0.0" fill="#875a5f" opacity="0.95" />
<polygon points="0.0,0.0 0.0,383.0 383.0,383.0 383.0,179.0 327.0,148.0 207.0,155.0 114.0,279.0 41.0,277.0 144.0,95.0 259.0,48.0 383.0,76.0 383.0,0.0" fill="#875a5f" opacity="0.95" />
<polygon points="0.0,328.0 0.0,383.0 383.0,383.0 383.0,326.0" fill="#875a5f" opacity="0.95" />
<polygon points="383.0,136.0 291.0,103.0 203.0,118.0 132.0,179.0 95.0,277.0 115.0,277.0 147.0,196.0 208.0,153.0 299.0,140.0 383.0,177.0" fill="#4b94c3" />
<polygon points="383.0,90.0 293.0,60.0 175.0,87.0 88.0,176.0 53.0,277.0 186.0,103.0 293.0,80.0 383.0,113.0" fill="#f9c112" />
<polygon points="383.0,114.0 291.0,81.0 192.0,101.0 105.0,188.0 75.0,277.0 188.0,124.0 296.0,102.0 383.0,135.0" fill="#6aa26d" />
<polygon points="383.0,77.0 297.0,49.0 173.0,76.0 83.0,164.0 42.0,277.0 98.0,159.0 176.0,85.0 267.0,58.0" fill="#c4595f" />
<polygon points="383.0,136.0 291.0,103.0 203.0,118.0 132.0,179.0 95.0,277.0 115.0,277.0 147.0,196.0 208.0,153.0 299.0,140.0 383.0,177.0" fill="#4b94c3" opacity="0.95" />
<polygon points="383.0,90.0 293.0,60.0 175.0,87.0 88.0,176.0 53.0,277.0 186.0,103.0 293.0,80.0 383.0,113.0" fill="#f9c112" opacity="0.95" />
<polygon points="383.0,114.0 291.0,81.0 192.0,101.0 105.0,188.0 75.0,277.0 188.0,124.0 296.0,102.0 383.0,135.0" fill="#6aa26d" opacity="0.95" />
<polygon points="383.0,136.0 291.0,103.0 203.0,118.0 132.0,179.0 95.0,276.0 115.0,276.0 147.0,196.0 208.0,153.0 299.0,140.0 383.0,177.0" fill="#4b94c3" opacity="0.95" />
<polygon points="383.0,90.0 293.0,60.0 175.0,87.0 88.0,176.0 53.0,276.0 186.0,103.0 293.0,80.0 383.0,113.0" fill="#f9c112" opacity="0.95" />
<polygon points="383.0,114.0 291.0,81.0 192.0,101.0 117.0,170.0 75.0,276.0 188.0,124.0 296.0,102.0 383.0,135.0" fill="#6aa26d" opacity="0.95" />
<polygon points="383.0,77.0 297.0,49.0 173.0,76.0 83.0,164.0 42.0,278.0 98.0,159.0 176.0,85.0 267.0,58.0" fill="#c4595f" opacity="0.95" />
<polygon points="383.0,77.0 297.0,49.0 173.0,76.0 83.0,164.0 42.0,277.0 98.0,159.0 176.0,85.0 267.0,58.0" fill="#c4595f" opacity="0.95" />
<polygon points="0.0,320.0 0.0,326.0 1.0,325.0 3.0,325.0 4.0,324.0 5.0,324.0 5.0,322.0 4.0,322.0 3.0,321.0 1.0,321.0" fill="#fdd5f6" opacity="0.95" />
</svg>