<svg xmlns="http://www.w3.org/2000/svg" width="768" height="768" viewBox="0 0 384 384">
<rect width="384" height="384" fill="#8a6c5f"/>
<polygon points="0.0,0.0 0.0,383.0 383.0,383.0 383.0,0.0" fill="#906455" />
<polygon points="0.0,0.0 0.0,383.0 383.0,383.0 383.0,0.0" fill="#906455" opacity="0.95" />
<polygon points="0.0,0.0 0.0,383.0 383.0,383.0 383.0,0.0" fill="#906455" opacity="0.95" />
<polygon points="188.0,127.0 232.0,137.0 255.0,168.0 247.0,218.0 197.0,256.0 149.0,232.0 129.0,199.0 135.0,153.0" fill="#906455" />
<polygon points="188.0,127.0 232.0,137.0 255.0,168.0 247.0,218.0 197.0,256.0 149.0,232.0 129.0,199.0 135.0,153.0" fill="#906455" opacity="0.95" />
<polygon points="252.0,185.0 239.0,178.0 145.0,179.0 133.0,191.0 156.0,216.0 190.0,229.0 233.0,212.0" fill="#1bf4f3" />
<polygon points="188.0,127.0 232.0,137.0 255.0,168.0 247.0,218.0 197.0,256.0 149.0,232.0 129.0,199.0 135.0,153.0" fill="#906455" opacity="0.95" />
<polygon points="130.0,168.0 133.0,189.0 145.0,178.0 254.0,181.0 251.0,161.0 227.0,152.0 204.0,159.0 184.0,150.0 151.0,153.0" fill="#1bd1f1" />
<polygon points="252.0,185.0 239.0,178.0 145.0,179.0 134.0,193.0 156.0,216.0 190.0,229.0 233.0,212.0" fill="#1bf4f3" opacity="0.95" />
<polygon points="252.0,185.0 239.0,178.0 145.0,179.0 134.0,193.0 156.0,216.0 190.0,229.0 233.0,212.0" fill="#1bf4f3" opacity="0.95" />
<polygon points="254.0,190.0 231.0,215.0 198.0,230.0 160.0,220.0 130.0,194.0 151.0,226.0 198.0,242.0 234.0,225.0" fill="#150f1a" />
<polygon points="130.0,168.0 133.0,188.0 145.0,178.0 254.0,181.0 251.0,161.0 227.0,152.0 203.0,159.0 184.0,150.0 151.0,153.0" fill="#1bd1f1" opacity="0.95" />
<polygon points="133.0,208.0 149.0,231.0 186.0,255.0 219.0,244.0 251.0,208.0 198.0,243.0 157.0,231.0" fill="#553e3f" />
<polygon points="198.0,138.0 189.0,134.0 166.0,135.0 146.0,144.0 134.0,157.0 183.0,149.0 194.0,152.0" fill="#27a1d3" />
<polygon points="130.0,168.0 133.0,186.0 145.0,178.0 254.0,180.0 252.0,163.0 227.0,152.0 203.0,159.0 184.0,150.0 151.0,153.0" fill="#1bd1f1" opacity="0.95" />
<polygon points="253.0,195.0 198.0,230.0 168.0,224.0 132.0,201.0 157.0,230.0 198.0,242.0 234.0,225.0" fill="#150f1a" opacity="0.95" />
<polygon points="203.0,137.0 209.0,153.0 227.0,151.0 250.0,158.0 234.0,142.0 212.0,135.0" fill="#27a1d3" />
<polygon points="251.0,201.0 198.0,230.0 134.0,206.0 157.0,230.0 198.0,242.0 234.0,225.0" fill="#150f1a" opacity="0.95" />
<polygon points="241.0,223.0 198.0,243.0 144.0,226.0 174.0,249.0 197.0,255.0" fill="#553e3f" opacity="0.95" />
<polygon points="197.0,137.0 166.0,135.0 146.0,144.0 136.0,156.0 183.0,149.0 193.0,152.0" fill="#27a1d3" opacity="0.95" />
<polygon points="204.0,136.0 210.0,153.0 227.0,151.0 249.0,158.0 246.0,151.0 222.0,137.0" fill="#27a1d3" opacity="0.95" />
<polygon points="199.0,138.0 189.0,134.0 166.0,135.0 146.0,144.0 137.0,155.0 183.0,149.0 192.0,152.0" fill="#27a1d3" opacity="0.95" />
<polygon points="153.0,232.0 186.0,255.0 203.0,253.0 231.0,234.0 228.0,230.0 186.0,243.0" fill="#553e3f" opacity="0.95" />
<polygon points="202.0,138.0 211.0,153.0 227.0,151.0 243.0,158.0 248.0,156.0 240.0,145.0 212.0,135.0" fill="#27a1d3" opacity="0.95" />
<polygon points="199.0,139.0 196.0,147.0 196.0,152.0 197.0,155.0 200.0,158.0 204.0,158.0 206.0,156.0 206.0,151.0 201.0,146.0" fill="#d7f6f9" />
<polygon points="177.0,132.0 198.0,136.0 201.0,134.0 203.0,136.0 205.0,134.0 224.0,136.0 208.0,131.0 201.0,133.0 199.0,131.0" fill="#3780aa" />
<polygon points="199.0,143.0 197.0,144.0 196.0,152.0 199.0,157.0 203.0,158.0 206.0,156.0 206.0,150.0" fill="#d7f6f9" opacity="0.95" />
<polygon points="201.0,135.0 200.0,136.0 201.0,137.0 201.0,143.0 202.0,146.0 205.0,148.0 206.0,147.0 206.0,144.0" fill="#92cde3" />
<polygon points="199.0,145.0 196.0,147.0 196.0,152.0 199.0,157.0 203.0,158.0 206.0,156.0 206.0,151.0" fill="#d7f6f9" opacity="0.95" />
<polygon points="193.0,132.0 193.0,134.0 198.0,136.0 201.0,134.0 204.0,135.0 206.0,134.0 206.0,132.0 204.0,131.0 201.0,133.0 198.0,131.0" fill="#3780aa" opacity="0.95" />
</svg>