<svg xmlns="http://www.w3.org/2000/svg" width="768" height="768" viewBox="0 0 384 384">
<rect width="384" height="384" fill="#8d5a57"/>
<polygon points="0.0,0.0 0.0,383.0 383.0,383.0 383.0,0.0" fill="#813a35" />
<polygon points="0.0,0.0 0.0,383.0 383.0,383.0 383.0,0.0" fill="#813a35" opacity="0.95" />
<polygon points="0.0,0.0 0.0,383.0 383.0,383.0 383.0,0.0" fill="#813a35" opacity="0.95" />
<polygon points="134.0,56.0 187.0,141.0 252.0,56.0 250.0,150.0 348.0,162.0 250.0,205.0 350.0,292.0 240.0,243.0 274.0,359.0 204.0,253.0 180.0,365.0 130.0,324.0 162.0,234.0 116.0,288.0 54.0,253.0 145.0,199.0 57.0,126.0 167.0,168.0" fill="#813a35" />
<polygon points="251.0,57.0 193.0,151.0 131.0,59.0 166.0,170.0 56.0,129.0 158.0,191.0 58.0,256.0 169.0,217.0 133.0,325.0 192.0,231.0 254.0,323.0 218.0,213.0 327.0,254.0 225.0,192.0 328.0,135.0 216.0,168.0" fill="#b5ecf4" />
<polygon points="134.0,56.0 187.0,141.0 252.0,56.0 250.0,148.0 348.0,162.0 251.0,204.0 350.0,292.0 239.0,244.0 273.0,358.0 204.0,253.0 179.0,365.0 158.0,243.0 54.0,253.0 144.0,200.0 56.0,127.0 167.0,168.0" fill="#813a35" opacity="0.95" />
<polygon points="134.0,56.0 187.0,141.0 251.0,56.0 250.0,148.0 348.0,162.0 252.0,204.0 350.0,292.0 239.0,244.0 273.0,358.0 203.0,253.0 179.0,365.0 156.0,244.0 54.0,253.0 144.0,200.0 56.0,127.0 168.0,165.0" fill="#813a35" opacity="0.95" />
<polygon points="251.0,57.0 192.0,151.0 131.0,59.0 165.0,170.0 56.0,129.0 158.0,191.0 57.0,255.0 169.0,217.0 134.0,325.0 192.0,232.0 254.0,323.0 219.0,213.0 327.0,255.0 226.0,193.0 326.0,128.0 215.0,166.0" fill="#b5ecf4" opacity="0.95" />
<polygon points="251.0,57.0 192.0,150.0 131.0,60.0 165.0,170.0 56.0,129.0 157.0,191.0 57.0,255.0 169.0,217.0 135.0,325.0 192.0,233.0 254.0,323.0 220.0,214.0 327.0,254.0 226.0,193.0 326.0,128.0 215.0,166.0" fill="#b5ecf4" opacity="0.95" />
<polygon points="349.0,170.0 327.0,140.0 229.0,193.0 249.0,205.0 278.0,189.0 315.0,189.0" fill="#522822" />
<polygon points="193.0,233.0 143.0,324.0 177.0,364.0 186.0,343.0 182.0,287.0 204.0,251.0" fill="#522822" />
<polygon points="167.0,216.0 83.0,258.0 98.0,281.0 120.0,285.0 134.0,259.0 166.0,230.0" fill="#522822" />
<polygon points="257.0,79.0 220.0,149.0 220.0,169.0 248.0,153.0 273.0,122.0 273.0,98.0" fill="#522822" />
<polygon points="221.0,235.0 234.0,257.0 246.0,242.0 315.0,290.0 349.0,294.0 327.0,257.0 293.0,258.0 232.0,222.0" fill="#522822" />
<polygon points="347.0,162.0 328.0,140.0 229.0,194.0 248.0,205.0 278.0,189.0 309.0,191.0 343.0,178.0" fill="#522822" opacity="0.95" />
<polygon points="192.0,234.0 143.0,324.0 177.0,364.0 186.0,343.0 182.0,287.0 203.0,251.0" fill="#522822" opacity="0.95" />
<polygon points="167.0,216.0 83.0,259.0 98.0,281.0 120.0,285.0 131.0,262.0 166.0,230.0" fill="#522822" opacity="0.95" />
<polygon points="258.0,80.0 221.0,147.0 221.0,169.0 248.0,153.0 273.0,122.0 273.0,98.0" fill="#522822" opacity="0.95" />
<polygon points="222.0,234.0 234.0,255.0 246.0,242.0 315.0,290.0 349.0,294.0 326.0,257.0 293.0,258.0 233.0,223.0" fill="#522822" opacity="0.95" />
<polygon points="218.0,215.0 215.0,225.0 221.0,234.0 230.0,222.0 222.0,216.0" fill="#2d1413" />
<polygon points="219.0,215.0 217.0,216.0 215.0,225.0 218.0,231.0 221.0,233.0 225.0,230.0 229.0,224.0 229.0,221.0" fill="#2d1413" opacity="0.95" />
<polygon points="220.0,215.0 217.0,217.0 215.0,225.0 218.0,231.0 221.0,233.0 225.0,230.0 229.0,224.0 229.0,221.0" fill="#2d1413" opacity="0.95" />
<polygon points="219.0,152.0 215.0,158.0 215.0,161.0 217.0,165.0 219.0,162.0 219.0,158.0 220.0,157.0 220.0,153.0" fill="#2d1413" />
</svg>