<svg xmlns="http://www.w3.org/2000/svg" width="768" height="768" viewBox="0 0 384 384">
<rect width="384" height="384" fill="#8c5f53"/>
<polygon points="0.0,0.0 2.0,320.0 168.0,319.0 122.0,151.0 192.0,25.0 182.0,116.0 239.0,64.0 264.0,152.0 215.0,319.0 383.0,320.0 383.0,0.0" fill="#8c5143" />
<polygon points="0.0,0.0 1.0,319.0 160.0,320.0 168.0,383.0 184.0,262.0 122.0,151.0 192.0,28.0 264.0,152.0 199.0,260.0 215.0,383.0 223.0,320.0 383.0,320.0 383.0,0.0" fill="#8c5143" opacity="0.95" />
<polygon points="0.0,0.0 0.0,318.0 156.0,320.0 168.0,383.0 184.0,262.0 122.0,151.0 192.0,31.0 264.0,152.0 199.0,260.0 215.0,383.0 230.0,320.0 383.0,320.0 383.0,0.0" fill="#8c5143" opacity="0.95" />
<polygon points="0.0,327.0 0.0,383.0 153.0,383.0 155.0,325.0" fill="#b37666" />
<polygon points="230.0,326.0 230.0,383.0 383.0,383.0 383.0,325.0" fill="#b37666" />
<polygon points="142.0,65.0 169.0,171.0 137.0,107.0 126.0,175.0 194.0,231.0 260.0,178.0 253.0,128.0 223.0,183.0 247.0,85.0 192.0,152.0" fill="#7df7f1" />
<polygon points="0.0,327.0 0.0,383.0 153.0,383.0 152.0,325.0" fill="#b37666" opacity="0.95" />
<polygon points="231.0,326.0 230.0,383.0 383.0,383.0 383.0,325.0" fill="#b37666" opacity="0.95" />
<polygon points="141.0,70.0 170.0,164.0 137.0,109.0 126.0,175.0 194.0,231.0 260.0,178.0 254.0,132.0 223.0,181.0 247.0,85.0 192.0,149.0" fill="#7df7f1" opacity="0.95" />
<polygon points="188.0,248.0 186.0,292.0 170.0,295.0 170.0,383.0 213.0,383.0 213.0,285.0 197.0,281.0 197.0,250.0" fill="#171f41" />
<polygon points="0.0,327.0 0.0,383.0 153.0,383.0 149.0,325.0" fill="#b37666" opacity="0.95" />
<polygon points="233.0,327.0 230.0,383.0 383.0,383.0 383.0,325.0" fill="#b37666" opacity="0.95" />
<polygon points="241.0,74.0 193.0,147.0 139.0,84.0 170.0,164.0 136.0,112.0 128.0,181.0 189.0,231.0 261.0,175.0 255.0,135.0 224.0,178.0" fill="#7df7f1" opacity="0.95" />
<polygon points="192.0,26.0 170.0,76.0 175.0,100.0 190.0,114.0 212.0,90.0 211.0,67.0" fill="#fd070c" />
<polygon points="126.0,183.0 143.0,226.0 183.0,256.0 196.0,247.0 199.0,259.0 248.0,221.0 260.0,189.0 190.0,233.0" fill="#4a2522" />
<polygon points="188.0,248.0 186.0,292.0 170.0,295.0 170.0,383.0 213.0,383.0 213.0,285.0 197.0,282.0 197.0,250.0" fill="#171f41" opacity="0.95" />
<polygon points="126.0,187.0 149.0,232.0 200.0,256.0 233.0,236.0 259.0,197.0 255.0,190.0 190.0,233.0" fill="#4a2522" opacity="0.95" />
<polygon points="192.0,29.0 170.0,76.0 175.0,100.0 190.0,114.0 212.0,90.0 211.0,67.0" fill="#fd070c" opacity="0.95" />
<polygon points="189.0,248.0 186.0,291.0 170.0,296.0 170.0,383.0 213.0,383.0 213.0,286.0 197.0,281.0 197.0,250.0" fill="#171f41" opacity="0.95" />
<polygon points="143.0,103.0 143.0,123.0 166.0,172.0 167.0,145.0" fill="#4a2522" />
<polygon points="259.0,192.0 192.0,233.0 128.0,198.0 154.0,236.0 201.0,256.0 248.0,221.0" fill="#4a2522" opacity="0.95" />
<polygon points="167.0,325.0 158.0,326.0 153.0,330.0 154.0,383.0 168.0,383.0" fill="#8c5143" />
<polygon points="247.0,121.0 230.0,157.0 226.0,182.0 247.0,157.0 250.0,146.0" fill="#4a2522" />
<polygon points="216.0,325.0 215.0,383.0 229.0,383.0 229.0,343.0 232.0,330.0 228.0,326.0" fill="#8c5143" />
<polygon points="192.0,32.0 170.0,76.0 175.0,100.0 190.0,114.0 212.0,90.0 211.0,67.0" fill="#fd070c" opacity="0.95" />
<polygon points="220.0,102.0 210.0,102.0 193.0,122.0 183.0,119.0 175.0,102.0 169.0,106.0 192.0,149.0" fill="#4a2522" />
<polygon points="142.0,104.0 145.0,129.0 165.0,169.0 168.0,150.0 164.0,136.0" fill="#4a2522" opacity="0.95" />
<polygon points="247.0,123.0 230.0,157.0 227.0,180.0 247.0,157.0 250.0,146.0" fill="#4a2522" opacity="0.95" />
<polygon points="222.0,103.0 210.0,102.0 193.0,122.0 183.0,119.0 174.0,102.0 169.0,112.0 193.0,146.0" fill="#4a2522" opacity="0.95" />
<polygon points="143.0,105.0 140.0,110.0 145.0,129.0 165.0,168.0 168.0,150.0 164.0,136.0" fill="#4a2522" opacity="0.95" />
<polygon points="203.0,109.0 201.0,108.0 191.0,115.0 183.0,110.0 181.0,113.0 185.0,120.0 193.0,121.0 201.0,115.0" fill="#8c5143" opacity="0.95" />
<polygon points="219.0,323.0 220.0,324.0 236.0,324.0 237.0,323.0 235.0,321.0 222.0,321.0" fill="#eca793" />
<polygon points="148.0,323.0 149.0,324.0 162.0,324.0 163.0,323.0 161.0,321.0 150.0,321.0" fill="#eca793" />
<polygon points="201.0,113.0 197.0,111.0 190.0,115.0 185.0,112.0 182.0,114.0 182.0,116.0 187.0,121.0 193.0,121.0 197.0,119.0" fill="#8c5143" opacity="0.95" />
</svg>