<svg xmlns="http://www.w3.org/2000/svg" width="768" height="768" viewBox="0 0 384 384">
<rect width="384" height="384" fill="#8b6b5e"/>
<polygon points="16.0,92.0 0.0,383.0 383.0,383.0 382.0,134.0 333.0,60.0 238.0,0.0 149.0,0.0" fill="#936556" />
<polygon points="18.0,89.0 0.0,383.0 383.0,383.0 383.0,134.0 333.0,60.0 239.0,0.0 148.0,0.0" fill="#936556" opacity="0.95" />
<polygon points="16.0,92.0 0.0,383.0 383.0,383.0 383.0,134.0 333.0,60.0 239.0,0.0 148.0,0.0" fill="#936556" opacity="0.95" />
<polygon points="190.0,126.0 247.0,148.0 256.0,198.0 235.0,239.0 194.0,257.0 149.0,241.0 127.0,204.0 135.0,148.0" fill="#936556" />
<polygon points="239.0,0.0 348.0,72.0 383.0,129.0 383.0,0.0" fill="#6c453b" />
<polygon points="0.0,119.0 74.0,35.0 148.0,0.0 0.0,0.0" fill="#6c453b" />
<polygon points="190.0,126.0 247.0,148.0 256.0,198.0 235.0,239.0 194.0,257.0 149.0,241.0 127.0,204.0 135.0,148.0" fill="#936556" opacity="0.95" />
<polygon points="253.0,178.0 246.0,169.0 183.0,177.0 136.0,172.0 132.0,190.0 160.0,216.0 206.0,221.0 233.0,212.0" fill="#4ef4f8" />
<polygon points="190.0,126.0 247.0,148.0 256.0,198.0 235.0,239.0 194.0,257.0 149.0,241.0 127.0,204.0 135.0,148.0" fill="#936556" opacity="0.95" />
<polygon points="240.0,0.0 348.0,72.0 383.0,126.0 383.0,0.0" fill="#6c453b" opacity="0.95" />
<polygon points="0.0,114.0 74.0,35.0 147.0,0.0 0.0,0.0" fill="#6c453b" opacity="0.95" />
<polygon points="240.0,0.0 333.0,59.0 383.0,115.0 383.0,0.0" fill="#6c453b" opacity="0.95" />
<polygon points="0.0,110.0 74.0,35.0 147.0,0.0 0.0,0.0" fill="#6c453b" opacity="0.95" />
<polygon points="253.0,178.0 246.0,169.0 183.0,177.0 137.0,172.0 132.0,190.0 160.0,216.0 206.0,221.0 233.0,212.0" fill="#4ef4f8" opacity="0.95" />
<polygon points="249.0,155.0 206.0,146.0 199.0,157.0 195.0,150.0 134.0,156.0 131.0,183.0 136.0,171.0 183.0,176.0 246.0,168.0 253.0,176.0" fill="#30c0e4" />
<polygon points="253.0,178.0 246.0,169.0 183.0,177.0 137.0,172.0 132.0,190.0 160.0,216.0 206.0,221.0 233.0,212.0" fill="#4ef4f8" opacity="0.95" />
<polygon points="252.0,198.0 199.0,229.0 168.0,224.0 132.0,201.0 152.0,229.0 203.0,236.0 236.0,225.0" fill="#07030c" />
<polygon points="248.0,155.0 207.0,146.0 199.0,155.0 174.0,150.0 135.0,156.0 129.0,175.0 251.0,171.0" fill="#30c0e4" opacity="0.95" />
<polygon points="133.0,154.0 194.0,149.0 198.0,139.0 203.0,148.0 248.0,152.0 241.0,144.0 185.0,135.0 139.0,146.0" fill="#4098ae" />
<polygon points="253.0,165.0 247.0,155.0 207.0,146.0 198.0,153.0 138.0,155.0 129.0,172.0 205.0,175.0" fill="#30c0e4" opacity="0.95" />
<polygon points="250.0,217.0 201.0,245.0 168.0,242.0 137.0,227.0 159.0,246.0 194.0,256.0 235.0,238.0" fill="#664c57" />
<polygon points="132.0,199.0 145.0,225.0 181.0,236.0 224.0,231.0 251.0,201.0 213.0,225.0 186.0,229.0" fill="#07030c" opacity="0.95" />
<polygon points="249.0,213.0 236.0,226.0 203.0,237.0 161.0,233.0 137.0,220.0 157.0,237.0 188.0,245.0 226.0,236.0" fill="#322639" />
<polygon points="134.0,152.0 193.0,149.0 198.0,143.0 240.0,154.0 247.0,150.0 211.0,136.0 185.0,135.0" fill="#4098ae" opacity="0.95" />
<polygon points="133.0,203.0 145.0,225.0 181.0,236.0 224.0,231.0 249.0,206.0 186.0,229.0" fill="#07030c" opacity="0.95" />
<polygon points="246.0,225.0 201.0,245.0 142.0,233.0 165.0,249.0 194.0,256.0 221.0,247.0" fill="#664c57" opacity="0.95" />
<polygon points="136.0,149.0 142.0,155.0 199.0,143.0 247.0,152.0 206.0,135.0 175.0,136.0" fill="#4098ae" opacity="0.95" />
<polygon points="161.0,218.0 183.0,227.0 202.0,227.0 218.0,221.0 182.0,222.0" fill="#30c0e4" />
<polygon points="237.0,227.0 203.0,237.0 145.0,230.0 188.0,245.0 222.0,238.0" fill="#322639" opacity="0.95" />
<polygon points="238.0,233.0 188.0,246.0 150.0,234.0 147.0,238.0 194.0,256.0 221.0,247.0" fill="#664c57" opacity="0.95" />
<polygon points="194.0,129.0 169.0,130.0 150.0,138.0" fill="#322639" />
<polygon points="198.0,129.0 230.0,140.0 235.0,139.0 218.0,131.0" fill="#322639" />
<polygon points="185.0,134.0 175.0,133.0 152.0,140.0 149.0,138.0 139.0,145.0 151.0,145.0 170.0,136.0" fill="#135b6e" />
<polygon points="154.0,233.0 165.0,240.0 188.0,245.0 225.0,236.0 222.0,232.0 203.0,237.0" fill="#322639" opacity="0.95" />
<polygon points="168.0,220.0 172.0,224.0 183.0,227.0 202.0,227.0 211.0,224.0 209.0,221.0 182.0,222.0" fill="#30c0e4" opacity="0.95" />
<polygon points="211.0,135.0 231.0,145.0 240.0,143.0 237.0,140.0 230.0,141.0 216.0,135.0" fill="#135b6e" />
<polygon points="130.0,192.0 128.0,195.0 128.0,204.0 131.0,215.0 136.0,223.0 137.0,221.0 130.0,201.0" fill="#6c453b" />
<polygon points="198.0,140.0 197.0,141.0 196.0,148.0 197.0,149.0 197.0,153.0 199.0,156.0 201.0,153.0 201.0,146.0" fill="#e2f6f9" />
<polygon points="161.0,138.0 159.0,137.0 152.0,140.0 147.0,139.0 142.0,143.0 142.0,145.0 151.0,145.0 161.0,140.0" fill="#135b6e" opacity="0.95" />
<polygon points="254.0,197.0 250.0,209.0 250.0,213.0 251.0,214.0 255.0,202.0 255.0,198.0" fill="#6c453b" />
<polygon points="216.0,132.0 216.0,134.0 230.0,140.0 232.0,139.0 232.0,137.0 218.0,131.0" fill="#322639" opacity="0.95" />
<polygon points="198.0,144.0 196.0,145.0 196.0,148.0 197.0,149.0 197.0,153.0 199.0,154.0 201.0,153.0 201.0,146.0" fill="#e2f6f9" opacity="0.95" />
<polygon points="143.0,142.0 143.0,144.0 146.0,146.0 147.0,145.0 150.0,145.0 153.0,143.0 153.0,141.0 150.0,139.0 147.0,139.0" fill="#135b6e" opacity="0.95" />
<polygon points="227.0,141.0 227.0,143.0 231.0,145.0 236.0,145.0 238.0,144.0 238.0,141.0 236.0,140.0 234.0,141.0 230.0,141.0 229.0,140.0" fill="#135b6e" opacity="0.95" />
<polygon points="193.0,131.0 194.0,132.0 196.0,131.0 199.0,133.0 204.0,133.0 205.0,132.0 204.0,131.0 198.0,131.0 197.0,130.0 196.0,131.0 194.0,130.0" fill="#664c57" />
</svg>