<svg xmlns="http://www.w3.org/2000/svg" width="768" height="768" viewBox="0 0 384 384">
<rect width="384" height="384" fill="#8e6c6a"/>
<polygon points="383.0,172.0 310.0,167.0 144.0,241.0 3.0,257.0 0.0,318.0 159.0,320.0 240.0,264.0 381.0,254.0" fill="#885a56" />
<polygon points="87.0,30.0 85.0,50.0 191.0,94.0 383.0,123.0 383.0,89.0 338.0,72.0 279.0,0.0 131.0,0.0" fill="#e0705d" />
<polygon points="0.0,45.0 2.0,125.0 239.0,115.0 61.0,40.0" fill="#3a393b" />
<polygon points="313.0,129.0 198.0,126.0 92.0,196.0 91.0,251.0 196.0,222.0 307.0,166.0" fill="#81c4d5" />
<polygon points="0.0,209.0 87.0,197.0 195.0,128.0 2.0,127.0" fill="#885a56" />
<polygon points="383.0,172.0 310.0,167.0 144.0,241.0 0.0,259.0 0.0,383.0 153.0,383.0 153.0,322.0 203.0,279.0 382.0,253.0" fill="#885a56" opacity="0.95" />
<polygon points="383.0,258.0 249.0,265.0 193.0,287.0 161.0,319.0 381.0,320.0" fill="#3a393b" />
<polygon points="0.0,327.0 0.0,383.0 153.0,383.0 157.0,325.0" fill="#885a56" />
<polygon points="214.0,355.0 215.0,383.0 383.0,383.0 381.0,325.0 228.0,325.0" fill="#885a56" />
<polygon points="383.0,172.0 310.0,167.0 144.0,241.0 1.0,259.0 0.0,383.0 153.0,383.0 155.0,322.0 203.0,279.0 383.0,252.0" fill="#885a56" opacity="0.95" />
<polygon points="87.0,30.0 85.0,50.0 191.0,94.0 383.0,123.0 383.0,89.0 338.0,72.0 279.0,0.0 130.0,0.0" fill="#e0705d" opacity="0.95" />
<polygon points="313.0,129.0 197.0,127.0 92.0,196.0 91.0,251.0 241.0,202.0 308.0,165.0" fill="#81c4d5" opacity="0.95" />
<polygon points="0.0,44.0 3.0,125.0 239.0,115.0 61.0,40.0" fill="#3a393b" opacity="0.95" />
<polygon points="0.0,209.0 87.0,197.0 174.0,150.0 193.0,128.0 3.0,127.0" fill="#885a56" opacity="0.95" />
<polygon points="87.0,30.0 85.0,50.0 191.0,94.0 383.0,123.0 383.0,89.0 338.0,72.0 279.0,0.0 130.0,0.0" fill="#e0705d" opacity="0.95" />
<polygon points="313.0,129.0 197.0,127.0 91.0,198.0 91.0,249.0 241.0,202.0 310.0,162.0" fill="#81c4d5" opacity="0.95" />
<polygon points="0.0,44.0 4.0,125.0 239.0,115.0 61.0,40.0" fill="#3a393b" opacity="0.95" />
<polygon points="383.0,258.0 272.0,260.0 193.0,287.0 162.0,317.0 154.0,376.0 212.0,374.0 224.0,320.0 382.0,319.0" fill="#3a393b" opacity="0.95" />
<polygon points="0.0,37.0 77.0,32.0 130.0,0.0 0.0,0.0" fill="#885a56" />
<polygon points="0.0,209.0 87.0,197.0 193.0,129.0 4.0,127.0" fill="#885a56" opacity="0.95" />
<polygon points="214.0,355.0 214.0,383.0 383.0,383.0 380.0,325.0 229.0,325.0" fill="#885a56" opacity="0.95" />
<polygon points="280.0,0.0 328.0,60.0 351.0,51.0 361.0,62.0 361.0,79.0 383.0,86.0 383.0,0.0" fill="#22252f" />
<polygon points="383.0,258.0 272.0,260.0 193.0,287.0 163.0,315.0 154.0,374.0 211.0,373.0 226.0,320.0 383.0,318.0" fill="#3a393b" opacity="0.95" />
<polygon points="312.0,127.0 316.0,141.0 310.0,166.0 356.0,163.0 383.0,167.0 381.0,126.0" fill="#519fb6" />
<polygon points="160.0,325.0 154.0,379.0 175.0,383.0 178.0,375.0 207.0,373.0 214.0,383.0 214.0,350.0 226.0,326.0" fill="#3a393b" />
<polygon points="90.0,198.0 16.0,218.0 34.0,218.0 46.0,227.0 46.0,246.0 35.0,251.0 89.0,253.0" fill="#bbdee3" />
<polygon points="281.0,0.0 326.0,58.0 350.0,51.0 361.0,62.0 362.0,80.0 383.0,85.0 383.0,0.0" fill="#22252f" opacity="0.95" />
<polygon points="233.0,123.0 341.0,123.0 245.0,106.0" fill="#22252f" />
<polygon points="313.0,126.0 311.0,164.0 383.0,167.0 382.0,127.0" fill="#519fb6" opacity="0.95" />
<polygon points="281.0,0.0 326.0,58.0 350.0,51.0 361.0,62.0 362.0,79.0 383.0,85.0 383.0,0.0" fill="#22252f" opacity="0.95" />
<polygon points="90.0,252.0 90.0,198.0 19.0,216.0 44.0,224.0 46.0,251.0" fill="#bbdee3" opacity="0.95" />
<polygon points="314.0,127.0 312.0,164.0 383.0,166.0 383.0,128.0" fill="#519fb6" opacity="0.95" />
<polygon points="0.0,212.0 0.0,256.0 54.0,254.0 33.0,250.0 45.0,246.0 48.0,233.0 41.0,222.0 17.0,220.0 15.0,212.0 8.0,214.0 15.0,218.0 5.0,223.0" fill="#e9f0f1" />
<polygon points="89.0,251.0 88.0,199.0 21.0,214.0 23.0,221.0 34.0,218.0 44.0,224.0 47.0,251.0" fill="#bbdee3" opacity="0.95" />
<polygon points="235.0,121.0 330.0,123.0 245.0,106.0" fill="#22252f" opacity="0.95" />
<polygon points="333.0,56.0 330.0,63.0 337.0,70.0 360.0,78.0 360.0,63.0 353.0,54.0 339.0,52.0" fill="#e9f0f1" />
<polygon points="0.0,212.0 0.0,256.0 4.0,245.0 11.0,242.0 25.0,249.0 45.0,246.0 47.0,231.0 41.0,222.0 15.0,219.0 6.0,223.0" fill="#e9f0f1" opacity="0.95" />
<polygon points="237.0,120.0 240.0,124.0 319.0,122.0 316.0,118.0 245.0,106.0" fill="#22252f" opacity="0.95" />
<polygon points="86.0,31.0 62.0,36.0 61.0,38.0 81.0,48.0" fill="#ad827b" />
<polygon points="0.0,212.0 0.0,256.0 11.0,242.0 25.0,249.0 45.0,245.0 47.0,231.0 41.0,222.0 15.0,219.0 7.0,223.0" fill="#e9f0f1" opacity="0.95" />
<polygon points="333.0,56.0 331.0,64.0 337.0,70.0 360.0,78.0 360.0,63.0 353.0,54.0 339.0,52.0" fill="#e9f0f1" opacity="0.95" />
<polygon points="210.0,378.0 207.0,374.0 202.0,376.0 178.0,376.0 175.0,378.0 175.0,382.0 210.0,383.0" fill="#22252f" />
<polygon points="333.0,56.0 331.0,64.0 337.0,70.0 355.0,78.0 361.0,76.0 360.0,63.0 353.0,54.0 339.0,52.0" fill="#e9f0f1" opacity="0.95" />
<polygon points="3.0,248.0 6.0,243.0 9.0,244.0 11.0,242.0 14.0,242.0 26.0,250.0 24.0,252.0 5.0,253.0 3.0,251.0" fill="#e9f0f1" />
<polygon points="86.0,31.0 66.0,35.0 62.0,39.0 81.0,47.0 83.0,46.0" fill="#ad827b" opacity="0.95" />
<polygon points="4.0,248.0 5.0,252.0 18.0,252.0 25.0,250.0 14.0,243.0 11.0,243.0 9.0,245.0 6.0,244.0" fill="#bbdee3" />
<polygon points="210.0,378.0 207.0,374.0 202.0,376.0 178.0,376.0 176.0,377.0 176.0,383.0 210.0,383.0" fill="#22252f" opacity="0.95" />
<polygon points="85.0,33.0 81.0,31.0 66.0,35.0 63.0,39.0 80.0,47.0 83.0,45.0" fill="#ad827b" opacity="0.95" />
<polygon points="176.0,378.0 176.0,383.0 210.0,383.0 210.0,378.0 206.0,375.0 179.0,376.0" fill="#22252f" opacity="0.95" />
<polygon points="4.0,251.0 6.0,252.0 18.0,252.0 21.0,250.0 19.0,246.0 13.0,243.0 5.0,245.0" fill="#bbdee3" opacity="0.95" />
<polygon points="4.0,214.0 4.0,221.0 5.0,222.0 12.0,220.0 14.0,218.0 13.0,217.0 9.0,217.0 6.0,213.0" fill="#bbdee3" />
<polygon points="5.0,247.0 5.0,249.0 8.0,251.0 18.0,252.0 21.0,250.0 19.0,246.0 13.0,243.0" fill="#bbdee3" opacity="0.95" />
<polygon points="4.0,217.0 4.0,221.0 6.0,222.0 7.0,221.0 11.0,220.0 11.0,218.0 7.0,216.0" fill="#bbdee3" opacity="0.95" />
</svg>