<svg xmlns="http://www.w3.org/2000/svg" width="768" height="768" viewBox="0 0 384 384">
<rect width="384" height="384" fill="#8d705f"/>
<polygon points="0.0,140.0 0.0,383.0 172.0,383.0 183.0,245.0 139.0,239.0 129.0,170.0 183.0,129.0 256.0,171.0 243.0,239.0 194.0,244.0 210.0,383.0 383.0,383.0 360.0,181.0 213.0,116.0" fill="#a2755d" />
<polygon points="0.0,140.0 0.0,383.0 171.0,383.0 183.0,245.0 140.0,241.0 129.0,170.0 183.0,129.0 256.0,171.0 243.0,239.0 194.0,244.0 210.0,383.0 383.0,383.0 360.0,181.0 213.0,116.0" fill="#a2755d" opacity="0.95" />
<polygon points="0.0,140.0 0.0,383.0 171.0,383.0 183.0,245.0 139.0,239.0 129.0,170.0 183.0,129.0 256.0,171.0 243.0,239.0 194.0,244.0 210.0,383.0 383.0,383.0 360.0,181.0 213.0,116.0" fill="#a2755d" opacity="0.95" />
<polygon points="0.0,43.0 45.0,56.0 0.0,71.0 0.0,139.0 213.0,115.0 383.0,206.0 383.0,132.0 99.0,72.0 53.0,16.0 122.0,0.0 39.0,0.0" fill="#715549" />
<polygon points="55.0,13.0 101.0,72.0 383.0,131.0 273.0,0.0 203.0,1.0 341.0,88.0 256.0,41.0 205.0,87.0 106.0,66.0 188.0,56.0 186.0,0.0" fill="#a2755d" />
<polygon points="135.0,159.0 135.0,197.0 170.0,218.0 226.0,214.0 254.0,186.0 246.0,151.0 213.0,132.0 162.0,136.0" fill="#7ab7c7" />
<polygon points="0.0,43.0 43.0,55.0 0.0,71.0 0.0,139.0 213.0,115.0 383.0,206.0 383.0,132.0 99.0,72.0 54.0,13.0 122.0,0.0 39.0,0.0" fill="#715549" opacity="0.95" />
<polygon points="280.0,0.0 303.0,34.0 325.0,37.0 383.0,92.0 383.0,0.0" fill="#39363b" />
<polygon points="100.0,54.0 205.0,86.0 224.0,71.0 210.0,44.0 256.0,40.0 343.0,85.0 273.0,17.0 187.0,0.0 200.0,45.0 185.0,59.0" fill="#cf8662" />
<polygon points="135.0,159.0 135.0,197.0 170.0,218.0 226.0,214.0 254.0,186.0 246.0,151.0 213.0,132.0 162.0,136.0" fill="#7ab7c7" opacity="0.95" />
<polygon points="45.0,36.0 383.0,131.0 358.0,68.0 338.0,88.0 256.0,41.0 209.0,48.0 205.0,87.0 105.0,65.0 188.0,56.0 186.0,0.0 67.0,4.0 74.0,44.0" fill="#a2755d" opacity="0.95" />
<polygon points="0.0,43.0 41.0,54.0 0.0,71.0 0.0,139.0 213.0,115.0 383.0,206.0 383.0,132.0 51.0,49.0 65.0,4.0 122.0,0.0 39.0,0.0" fill="#715549" opacity="0.95" />
<polygon points="0.0,26.0 383.0,131.0 359.0,69.0 256.0,41.0 205.0,87.0 105.0,65.0 126.0,26.0 188.0,56.0 186.0,0.0" fill="#a2755d" opacity="0.95" />
<polygon points="137.0,213.0 142.0,241.0 185.0,243.0 186.0,280.0 164.0,304.0 159.0,342.0 174.0,383.0 207.0,383.0 217.0,298.0 193.0,278.0 191.0,244.0 240.0,241.0 245.0,217.0 186.0,234.0" fill="#39363b" />
<polygon points="135.0,159.0 135.0,197.0 170.0,218.0 226.0,214.0 254.0,186.0 246.0,151.0 213.0,132.0 162.0,136.0" fill="#7ab7c7" opacity="0.95" />
<polygon points="281.0,0.0 303.0,34.0 329.0,40.0 383.0,92.0 383.0,0.0" fill="#39363b" opacity="0.95" />
<polygon points="100.0,54.0 205.0,86.0 224.0,71.0 208.0,45.0 256.0,40.0 342.0,86.0 274.0,18.0 185.0,7.0 188.0,57.0" fill="#cf8662" opacity="0.95" />
<polygon points="281.0,0.0 303.0,34.0 329.0,40.0 383.0,92.0 383.0,0.0" fill="#39363b" opacity="0.95" />
<polygon points="139.0,217.0 141.0,240.0 185.0,243.0 186.0,280.0 164.0,304.0 159.0,342.0 174.0,383.0 207.0,383.0 217.0,298.0 193.0,278.0 191.0,244.0 239.0,241.0 244.0,219.0 186.0,234.0" fill="#39363b" opacity="0.95" />
<polygon points="100.0,54.0 205.0,86.0 224.0,71.0 210.0,46.0 256.0,40.0 342.0,85.0 274.0,18.0 185.0,7.0 188.0,57.0" fill="#cf8662" opacity="0.95" />
<polygon points="133.0,200.0 153.0,224.0 198.0,233.0 241.0,218.0 251.0,198.0 201.0,221.0 162.0,217.0" fill="#152c3a" />
<polygon points="140.0,218.0 142.0,240.0 187.0,248.0 159.0,342.0 174.0,383.0 207.0,383.0 217.0,298.0 193.0,278.0 190.0,247.0 238.0,241.0 244.0,221.0 186.0,234.0" fill="#39363b" opacity="0.95" />
<polygon points="47.0,6.0 38.0,0.0 24.0,0.0 20.0,9.0 0.0,26.0 0.0,42.0 28.0,40.0 38.0,22.0 49.0,14.0" fill="#a2755d" />
<polygon points="44.0,56.0 34.0,50.0 1.0,52.0 0.0,70.0 15.0,68.0" fill="#39363b" />
<polygon points="301.0,101.0 308.0,96.0 323.0,104.0 334.0,102.0 346.0,113.0 347.0,118.0 342.0,122.0 312.0,118.0 302.0,110.0" fill="#a2755d" />
<polygon points="249.0,202.0 201.0,221.0 135.0,205.0 140.0,217.0 161.0,228.0 198.0,233.0 234.0,222.0" fill="#152c3a" opacity="0.95" />
<polygon points="47.0,6.0 38.0,0.0 24.0,0.0 20.0,9.0 0.0,26.0 0.0,42.0 28.0,40.0 38.0,22.0 49.0,14.0" fill="#a2755d" opacity="0.95" />
<polygon points="302.0,101.0 303.0,110.0 312.0,117.0 326.0,121.0 342.0,121.0 346.0,118.0 345.0,113.0 334.0,103.0 323.0,105.0 308.0,97.0" fill="#cf8662" />
<polygon points="247.0,206.0 201.0,221.0 137.0,209.0 161.0,228.0 198.0,233.0 234.0,222.0" fill="#152c3a" opacity="0.95" />
<polygon points="44.0,36.0 48.0,32.0 55.0,30.0 65.0,37.0 71.0,49.0 66.0,53.0 55.0,51.0 45.0,43.0" fill="#715549" />
<polygon points="203.0,0.0 214.0,9.0 272.0,16.0 300.0,47.0 321.0,48.0 329.0,63.0 333.0,50.0 302.0,39.0 273.0,0.0" fill="#a2755d" opacity="0.95" />
<polygon points="23.0,0.0 11.0,0.0 8.0,4.0 0.0,0.0 0.0,25.0 9.0,15.0 19.0,9.0" fill="#715549" />
<polygon points="29.0,19.0 26.0,17.0 13.0,24.0 8.0,34.0 18.0,38.0 25.0,36.0 28.0,32.0" fill="#cf8662" />
<polygon points="42.0,55.0 34.0,50.0 1.0,52.0 0.0,70.0 18.0,67.0" fill="#39363b" opacity="0.95" />
<polygon points="334.0,54.0 330.0,60.0 331.0,65.0 341.0,74.0 350.0,75.0 351.0,70.0 346.0,59.0 341.0,55.0" fill="#d1c0bd" />
<polygon points="268.0,62.0 265.0,67.0 268.0,74.0 278.0,85.0 284.0,84.0 286.0,82.0 276.0,64.0" fill="#cf8662" />
<polygon points="120.0,32.0 121.0,38.0 127.0,42.0 145.0,41.0 154.0,48.0 158.0,48.0 155.0,43.0 131.0,27.0 125.0,27.0" fill="#715549" />
<polygon points="274.0,0.0 303.0,39.0 317.0,39.0 335.0,48.0 325.0,38.0 303.0,35.0 280.0,1.0" fill="#715549" />
<polygon points="302.0,101.0 303.0,110.0 312.0,117.0 326.0,121.0 342.0,121.0 346.0,118.0 345.0,113.0 334.0,103.0 323.0,105.0 308.0,97.0" fill="#cf8662" opacity="0.95" />
<polygon points="354.0,62.0 374.0,93.0 383.0,102.0 383.0,93.0" fill="#715549" />
<polygon points="40.0,54.0 34.0,50.0 1.0,52.0 0.0,70.0 18.0,67.0 39.0,58.0" fill="#39363b" opacity="0.95" />
<polygon points="44.0,36.0 52.0,30.0 59.0,32.0 71.0,45.0 71.0,50.0 63.0,53.0 51.0,49.0 45.0,43.0" fill="#715549" opacity="0.95" />
<polygon points="82.0,29.0 80.0,32.0 83.0,39.0 87.0,44.0 91.0,44.0 95.0,40.0 95.0,35.0 90.0,30.0" fill="#cf8662" />
<polygon points="302.0,101.0 303.0,110.0 312.0,117.0 326.0,121.0 342.0,121.0 346.0,118.0 345.0,113.0 334.0,103.0 323.0,105.0 308.0,97.0" fill="#cf8662" opacity="0.95" />
<polygon points="23.0,0.0 10.0,0.0 7.0,3.0 0.0,0.0 0.0,25.0 9.0,15.0 19.0,9.0" fill="#715549" opacity="0.95" />
<polygon points="29.0,19.0 26.0,17.0 13.0,24.0 8.0,34.0 18.0,38.0 25.0,36.0 28.0,32.0" fill="#cf8662" opacity="0.95" />
<polygon points="332.0,55.0 330.0,60.0 331.0,65.0 344.0,75.0 351.0,74.0 350.0,66.0 346.0,59.0 338.0,54.0" fill="#d1c0bd" opacity="0.95" />
<polygon points="333.0,55.0 330.0,60.0 331.0,65.0 344.0,75.0 350.0,74.0 350.0,66.0 346.0,59.0 338.0,54.0" fill="#d1c0bd" opacity="0.95" />
<polygon points="334.0,52.0 335.0,53.0 338.0,53.0 339.0,54.0 341.0,54.0 343.0,56.0 344.0,55.0 344.0,54.0 340.0,51.0 335.0,51.0" fill="#8d9594" />
</svg>