<svg xmlns="http://www.w3.org/2000/svg" width="768" height="768" viewBox="0 0 384 384">
<rect width="384" height="384" fill="#8d6250"/>
<polygon points="0.0,131.0 2.0,219.0 128.0,219.0 132.0,157.0 252.0,157.0 253.0,188.0 279.0,219.0 383.0,219.0 381.0,129.0" fill="#935f4d" />
<polygon points="0.0,131.0 0.0,383.0 162.0,383.0 133.0,157.0 253.0,158.0 256.0,227.0 336.0,324.0 253.0,324.0 248.0,242.0 158.0,247.0 238.0,270.0 239.0,331.0 300.0,383.0 383.0,383.0 382.0,130.0" fill="#935f4d" opacity="0.95" />
<polygon points="1.0,225.0 2.0,320.0 131.0,319.0 131.0,245.0 150.0,239.0 135.0,223.0" fill="#935f4d" />
<polygon points="112.0,0.0 115.0,46.0 153.0,100.0 246.0,100.0 266.0,77.0 294.0,119.0 330.0,118.0 351.0,98.0 345.0,61.0 282.0,60.0 290.0,0.0" fill="#e16a27" />
<polygon points="0.0,131.0 0.0,383.0 162.0,383.0 134.0,157.0 252.0,158.0 332.0,324.0 254.0,325.0 248.0,242.0 158.0,247.0 237.0,270.0 300.0,383.0 383.0,383.0 383.0,131.0" fill="#935f4d" opacity="0.95" />
<polygon points="254.0,224.0 334.0,320.0 383.0,320.0 383.0,223.0" fill="#935f4d" />
<polygon points="0.0,40.0 2.0,125.0 383.0,125.0 383.0,38.0 293.0,39.0 352.0,70.0 323.0,121.0 280.0,114.0 265.0,79.0 247.0,101.0 152.0,101.0 110.0,38.0" fill="#433a3b" />
<polygon points="0.0,327.0 0.0,383.0 162.0,383.0 163.0,368.0 149.0,353.0 146.0,334.0 130.0,325.0" fill="#935f4d" />
<polygon points="0.0,0.0 3.0,125.0 383.0,125.0 383.0,0.0 292.0,0.0 289.0,52.0 353.0,73.0 323.0,121.0 280.0,114.0 264.0,80.0 153.0,101.0 111.0,0.0" fill="#433a3b" opacity="0.95" />
<polygon points="131.0,160.0 135.0,195.0 165.0,218.0 219.0,218.0 238.0,208.0 253.0,187.0 252.0,159.0" fill="#abd5e3" />
<polygon points="112.0,0.0 115.0,46.0 154.0,100.0 245.0,100.0 265.0,78.0 278.0,111.0 318.0,120.0 351.0,98.0 346.0,62.0 283.0,61.0 291.0,0.0" fill="#e16a27" opacity="0.95" />
<polygon points="156.0,244.0 193.0,284.0 237.0,268.0 239.0,330.0 254.0,328.0 300.0,383.0 383.0,383.0 383.0,325.0 252.0,323.0 249.0,242.0" fill="#935f4d" />
<polygon points="237.0,270.0 152.0,309.0 148.0,348.0 163.0,367.0 176.0,369.0 176.0,383.0 208.0,383.0 208.0,369.0 234.0,356.0" fill="#433a3b" />
<polygon points="0.0,0.0 2.0,34.0 110.0,33.0 111.0,0.0" fill="#433a3b" />
<polygon points="0.0,0.0 4.0,125.0 295.0,123.0 263.0,80.0 245.0,101.0 152.0,100.0 108.0,37.0 111.0,0.0" fill="#433a3b" opacity="0.95" />
<polygon points="250.0,223.0 234.0,239.0 254.0,247.0 254.0,319.0 331.0,320.0" fill="#6e483b" />
<polygon points="112.0,0.0 115.0,46.0 155.0,100.0 244.0,100.0 263.0,79.0 282.0,114.0 318.0,120.0 351.0,98.0 346.0,62.0 283.0,61.0 291.0,0.0" fill="#e16a27" opacity="0.95" />
<polygon points="292.0,0.0 295.0,34.0 383.0,34.0 383.0,0.0" fill="#433a3b" />
<polygon points="131.0,160.0 135.0,195.0 165.0,218.0 219.0,218.0 238.0,208.0 253.0,187.0 251.0,159.0" fill="#abd5e3" opacity="0.95" />
<polygon points="136.0,241.0 132.0,245.0 132.0,326.0 145.0,332.0 152.0,307.0 192.0,284.0 154.0,243.0" fill="#fc9340" />
<polygon points="238.0,271.0 173.0,293.0 152.0,309.0 148.0,348.0 162.0,366.0 176.0,369.0 176.0,383.0 208.0,383.0 208.0,369.0 234.0,356.0" fill="#433a3b" opacity="0.95" />
<polygon points="253.0,195.0 217.0,220.0 168.0,220.0 133.0,194.0 134.0,220.0 153.0,241.0 231.0,241.0 253.0,220.0" fill="#433a3b" />
<polygon points="222.0,368.0 222.0,383.0 299.0,383.0 254.0,329.0 240.0,334.0 235.0,356.0" fill="#6e483b" />
<polygon points="131.0,161.0 135.0,195.0 165.0,218.0 219.0,218.0 238.0,208.0 253.0,187.0 250.0,159.0" fill="#abd5e3" opacity="0.95" />
<polygon points="249.0,224.0 237.0,239.0 254.0,247.0 254.0,319.0 331.0,319.0" fill="#6e483b" opacity="0.95" />
<polygon points="237.0,271.0 173.0,293.0 152.0,309.0 148.0,348.0 176.0,370.0 176.0,383.0 208.0,383.0 208.0,370.0 234.0,356.0" fill="#433a3b" opacity="0.95" />
<polygon points="292.0,0.0 290.0,52.0 336.0,53.0 353.0,73.0 350.0,103.0 326.0,123.0 383.0,125.0 383.0,0.0" fill="#433a3b" opacity="0.95" />
<polygon points="137.0,241.0 132.0,245.0 132.0,326.0 144.0,332.0 152.0,307.0 191.0,283.0 154.0,243.0" fill="#fc9340" opacity="0.95" />
<polygon points="222.0,368.0 222.0,383.0 299.0,383.0 254.0,330.0 240.0,334.0 235.0,356.0" fill="#6e483b" opacity="0.95" />
<polygon points="255.0,197.0 254.0,221.0 238.0,235.0 254.0,247.0 254.0,318.0 329.0,319.0 253.0,224.0 275.0,217.0" fill="#6e483b" opacity="0.95" />
<polygon points="150.0,241.0 132.0,245.0 132.0,326.0 138.0,332.0 146.0,330.0 147.0,316.0 160.0,299.0 190.0,285.0" fill="#fc9340" opacity="0.95" />
<polygon points="222.0,368.0 222.0,383.0 299.0,383.0 254.0,331.0 240.0,335.0 235.0,356.0" fill="#6e483b" opacity="0.95" />
<polygon points="0.0,320.0 0.0,325.0 131.0,323.0" fill="#f6f0e5" />
<polygon points="256.0,322.0 383.0,324.0 383.0,321.0" fill="#f6f0e5" />
<polygon points="253.0,189.0 253.0,217.0 255.0,219.0 276.0,219.0 275.0,215.0" fill="#6e483b" />
<polygon points="328.0,63.0 321.0,52.0 314.0,52.0 307.0,64.0 301.0,54.0 293.0,58.0 288.0,55.0 284.0,59.0 309.0,66.0" fill="#fbd69e" />
<polygon points="210.0,368.0 209.0,369.0 209.0,383.0 221.0,383.0 221.0,370.0 219.0,368.0" fill="#e16a27" />
<polygon points="254.0,195.0 253.0,217.0 256.0,219.0 275.0,218.0 275.0,215.0 258.0,195.0" fill="#6e483b" opacity="0.95" />
<polygon points="164.0,368.0 163.0,369.0 163.0,383.0 174.0,383.0 174.0,369.0 173.0,368.0" fill="#e16a27" />
<polygon points="342.0,58.0 336.0,55.0 329.0,60.0 315.0,52.0 307.0,59.0 298.0,54.0 288.0,55.0 285.0,60.0 320.0,66.0" fill="#fbd69e" opacity="0.95" />
<polygon points="343.0,59.0 335.0,54.0 330.0,63.0 331.0,64.0 342.0,61.0" fill="#fbd69e" />
<polygon points="209.0,369.0 209.0,383.0 221.0,383.0 221.0,370.0 218.0,368.0 211.0,368.0" fill="#e16a27" opacity="0.95" />
<polygon points="294.0,57.0 295.0,62.0 306.0,62.0 312.0,66.0 341.0,60.0 337.0,55.0 329.0,59.0 320.0,52.0 306.0,59.0 299.0,54.0" fill="#fbd69e" opacity="0.95" />
<polygon points="163.0,369.0 163.0,383.0 174.0,383.0 174.0,369.0 172.0,368.0 165.0,368.0" fill="#e16a27" opacity="0.95" />
<polygon points="209.0,370.0 209.0,383.0 221.0,383.0 221.0,370.0 218.0,368.0 212.0,368.0" fill="#e16a27" opacity="0.95" />
<polygon points="163.0,370.0 163.0,383.0 174.0,383.0 174.0,370.0 171.0,368.0 166.0,368.0" fill="#e16a27" opacity="0.95" />
<polygon points="327.0,53.0 325.0,55.0 329.0,59.0 330.0,58.0 331.0,55.0 329.0,53.0" fill="#e16a27" />
<polygon points="132.0,201.0 131.0,202.0 131.0,205.0 132.0,206.0 131.0,207.0 131.0,218.0 132.0,219.0 133.0,218.0 133.0,207.0 132.0,206.0 133.0,205.0 133.0,202.0" fill="#6e483b" />
</svg>