<svg xmlns="http://www.w3.org/2000/svg" width="768" height="768" viewBox="0 0 384 384">
<rect width="384" height="384" fill="#8e6a61"/>
<polygon points="0.0,88.0 3.0,319.0 66.0,315.0 37.0,225.0 190.0,107.0 321.0,202.0 346.0,265.0 301.0,315.0 383.0,319.0 383.0,89.0 293.0,0.0 90.0,0.0" fill="#925e53" />
<polygon points="0.0,87.0 0.0,317.0 60.0,315.0 37.0,225.0 194.0,107.0 321.0,202.0 346.0,265.0 301.0,315.0 383.0,319.0 383.0,89.0 294.0,0.0 90.0,0.0" fill="#925e53" opacity="0.95" />
<polygon points="129.0,148.0 38.0,225.0 25.0,262.0 67.0,315.0 2.0,320.0 2.0,378.0 6.0,363.0 14.0,383.0 127.0,383.0 133.0,326.0 185.0,277.0 137.0,233.0" fill="#b48476" />
<polygon points="250.0,141.0 245.0,234.0 198.0,277.0 249.0,323.0 257.0,383.0 341.0,383.0 383.0,320.0 300.0,315.0 342.0,248.0 320.0,202.0" fill="#b48476" />
<polygon points="0.0,87.0 1.0,317.0 60.0,315.0 37.0,225.0 194.0,107.0 321.0,202.0 346.0,265.0 301.0,314.0 383.0,319.0 383.0,89.0 294.0,0.0 90.0,0.0" fill="#925e53" opacity="0.95" />
<polygon points="127.0,148.0 38.0,225.0 25.0,262.0 71.0,315.0 0.0,322.0 14.0,383.0 126.0,383.0 133.0,326.0 185.0,277.0 137.0,233.0" fill="#b48476" opacity="0.95" />
<polygon points="255.0,145.0 245.0,234.0 198.0,277.0 249.0,323.0 257.0,383.0 341.0,383.0 383.0,320.0 300.0,315.0 344.0,255.0 320.0,202.0" fill="#b48476" opacity="0.95" />
<polygon points="302.0,0.0 383.0,80.0 383.0,0.0" fill="#3a2322" />
<polygon points="126.0,148.0 38.0,225.0 25.0,262.0 68.0,314.0 0.0,322.0 14.0,383.0 126.0,383.0 133.0,326.0 185.0,277.0 137.0,233.0" fill="#b48476" opacity="0.95" />
<polygon points="261.0,152.0 244.0,236.0 198.0,277.0 249.0,323.0 257.0,383.0 341.0,383.0 383.0,320.0 300.0,314.0 344.0,255.0 320.0,202.0" fill="#b48476" opacity="0.95" />
<polygon points="187.0,277.0 166.0,310.0 162.0,336.0 178.0,382.0 200.0,383.0 222.0,326.0 201.0,285.0" fill="#3a2322" />
<polygon points="4.0,70.0 12.0,69.0 82.0,0.0 2.0,0.0" fill="#3a2322" />
<polygon points="133.0,200.0 146.0,233.0 191.0,278.0 241.0,226.0 249.0,201.0 191.0,239.0" fill="#230b2d" />
<polygon points="255.0,159.0 222.0,188.0 215.0,169.0 197.0,182.0 193.0,171.0 180.0,181.0 171.0,171.0 158.0,185.0 128.0,160.0 126.0,190.0 159.0,215.0 181.0,212.0 199.0,232.0 255.0,191.0" fill="#43f7f5" />
<polygon points="303.0,0.0 383.0,80.0 383.0,0.0" fill="#3a2322" opacity="0.95" />
<polygon points="188.0,277.0 166.0,310.0 162.0,336.0 178.0,383.0 201.0,383.0 222.0,326.0 201.0,285.0" fill="#3a2322" opacity="0.95" />
<polygon points="255.0,159.0 221.0,188.0 215.0,169.0 198.0,181.0 171.0,171.0 158.0,185.0 129.0,160.0 126.0,190.0 200.0,231.0 255.0,191.0" fill="#43f7f5" opacity="0.95" />
<polygon points="4.0,70.0 12.0,69.0 82.0,0.0 0.0,0.0" fill="#3a2322" opacity="0.95" />
<polygon points="200.0,281.0 223.0,326.0 201.0,383.0 231.0,383.0 241.0,334.0" fill="#563832" />
<polygon points="303.0,0.0 383.0,80.0 383.0,0.0" fill="#3a2322" opacity="0.95" />
<polygon points="134.0,202.0 146.0,233.0 191.0,278.0 241.0,226.0 248.0,204.0 192.0,239.0" fill="#230b2d" opacity="0.95" />
<polygon points="188.0,278.0 166.0,310.0 162.0,336.0 178.0,383.0 201.0,383.0 222.0,326.0 201.0,285.0" fill="#3a2322" opacity="0.95" />
<polygon points="180.0,283.0 147.0,327.0 153.0,383.0 178.0,383.0 164.0,353.0 161.0,327.0" fill="#563832" />
<polygon points="255.0,159.0 222.0,187.0 215.0,169.0 200.0,180.0 171.0,172.0 158.0,185.0 129.0,160.0 126.0,190.0 200.0,231.0 255.0,191.0" fill="#43f7f5" opacity="0.95" />
<polygon points="4.0,70.0 12.0,69.0 82.0,0.0 0.0,0.0" fill="#3a2322" opacity="0.95" />
<polygon points="170.0,290.0 134.0,326.0 128.0,383.0 152.0,383.0 145.0,332.0" fill="#925e53" />
<polygon points="218.0,295.0 243.0,338.0 232.0,383.0 256.0,383.0 251.0,329.0" fill="#925e53" />
<polygon points="135.0,204.0 146.0,233.0 191.0,278.0 241.0,226.0 247.0,207.0 192.0,239.0" fill="#230b2d" opacity="0.95" />
<polygon points="199.0,123.0 197.0,179.0 217.0,135.0" fill="#dcf6f7" />
<polygon points="89.0,0.0 7.0,73.0 2.0,30.0 0.0,82.0 5.0,84.0" fill="#563832" />
<polygon points="208.0,289.0 223.0,334.0 202.0,383.0 231.0,383.0 242.0,338.0 233.0,316.0" fill="#563832" opacity="0.95" />
<polygon points="294.0,0.0 383.0,88.0 383.0,81.0 301.0,0.0" fill="#563832" />
<polygon points="170.0,294.0 147.0,327.0 152.0,383.0 177.0,383.0 161.0,336.0" fill="#563832" opacity="0.95" />
<polygon points="383.0,337.0 379.0,338.0 378.0,347.0 370.0,359.0 353.0,377.0 342.0,383.0 383.0,383.0" fill="#925e53" />
<polygon points="188.0,118.0 179.0,125.0 183.0,149.0 194.0,152.0 197.0,140.0 197.0,122.0" fill="#6ad7ea" />
<polygon points="154.0,305.0 132.0,331.0 128.0,383.0 151.0,383.0 145.0,332.0" fill="#925e53" opacity="0.95" />
<polygon points="214.0,295.0 223.0,334.0 202.0,383.0 231.0,383.0 242.0,338.0" fill="#563832" opacity="0.95" />
<polygon points="217.0,129.0 200.0,179.0 215.0,168.0 223.0,172.0 227.0,166.0 213.0,160.0 222.0,141.0" fill="#2ce3ed" />
<polygon points="167.0,297.0 146.0,332.0 152.0,383.0 177.0,383.0 161.0,336.0" fill="#563832" opacity="0.95" />
<polygon points="179.0,136.0 167.0,136.0 182.0,172.0 178.0,175.0 172.0,165.0 157.0,168.0 158.0,184.0 171.0,170.0 179.0,180.0 185.0,168.0 195.0,170.0 195.0,154.0 182.0,149.0" fill="#2ce3ed" />
<polygon points="231.0,307.0 243.0,338.0 232.0,383.0 256.0,383.0 253.0,335.0 248.0,323.0" fill="#925e53" opacity="0.95" />
<polygon points="241.0,227.0 235.0,234.0 220.0,241.0 202.0,268.0 239.0,236.0" fill="#3a2322" />
<polygon points="161.0,216.0 190.0,237.0 198.0,233.0 186.0,227.0 184.0,218.0 179.0,212.0" fill="#2ce3ed" />
<polygon points="160.0,130.0 153.0,136.0 163.0,139.0 170.0,160.0 161.0,165.0 156.0,158.0 150.0,164.0 137.0,155.0 154.0,180.0 157.0,167.0 172.0,164.0 180.0,172.0 178.0,156.0" fill="#10b4cf" />
<polygon points="200.0,124.0 196.0,147.0 199.0,169.0 216.0,136.0" fill="#dcf6f7" opacity="0.95" />
<polygon points="224.0,139.0 215.0,157.0 215.0,161.0 223.0,162.0 232.0,148.0" fill="#10b4cf" />
<polygon points="149.0,310.0 132.0,331.0 128.0,383.0 151.0,383.0 145.0,355.0 145.0,332.0 152.0,314.0" fill="#925e53" opacity="0.95" />
<polygon points="141.0,140.0 142.0,148.0 149.0,143.0 157.0,156.0 167.0,155.0 160.0,138.0 155.0,141.0 150.0,133.0" fill="#126073" />
<polygon points="89.0,0.0 83.0,0.0 12.0,70.0 1.0,74.0 0.0,82.0 6.0,83.0" fill="#563832" opacity="0.95" />
<polygon points="295.0,0.0 383.0,88.0 383.0,81.0 302.0,0.0" fill="#563832" opacity="0.95" />
<polygon points="383.0,337.0 379.0,338.0 378.0,347.0 370.0,359.0 353.0,377.0 342.0,383.0 383.0,383.0" fill="#925e53" opacity="0.95" />
<polygon points="162.0,126.0 165.0,133.0 179.0,125.0 183.0,149.0 195.0,151.0 196.0,121.0 191.0,118.0 184.0,121.0 179.0,115.0" fill="#6ad7ea" opacity="0.95" />
<polygon points="168.0,136.0 170.0,147.0 179.0,156.0 180.0,169.0 195.0,169.0 195.0,154.0 182.0,149.0 180.0,137.0" fill="#2ce3ed" opacity="0.95" />
<polygon points="185.0,113.0 184.0,112.0 165.0,123.0 162.0,126.0 163.0,132.0 166.0,133.0 173.0,127.0" fill="#6ad7ea" />
<polygon points="219.0,136.0 210.0,147.0 199.0,174.0 201.0,178.0 215.0,168.0 226.0,168.0 226.0,164.0 214.0,160.0 222.0,141.0" fill="#2ce3ed" opacity="0.95" />
<polygon points="202.0,125.0 198.0,127.0 196.0,147.0 197.0,164.0 200.0,166.0 216.0,136.0" fill="#dcf6f7" opacity="0.95" />
<polygon points="248.0,145.0 243.0,151.0 240.0,149.0 237.0,150.0 233.0,159.0 233.0,162.0 236.0,165.0 241.0,166.0 248.0,158.0 250.0,150.0" fill="#126073" />
<polygon points="241.0,167.0 236.0,166.0 231.0,162.0 225.0,171.0 225.0,174.0 230.0,178.0" fill="#1d81a0" />
<polygon points="163.0,216.0 192.0,237.0 197.0,234.0 186.0,227.0 181.0,213.0" fill="#2ce3ed" opacity="0.95" />
<polygon points="162.0,126.0 166.0,132.0 178.0,126.0 183.0,148.0 187.0,151.0 195.0,149.0 197.0,125.0 193.0,119.0 184.0,121.0 177.0,116.0" fill="#6ad7ea" opacity="0.95" />
<polygon points="198.0,113.0 211.0,130.0 213.0,131.0 218.0,127.0 218.0,124.0 214.0,120.0 199.0,112.0" fill="#6ad7ea" />
<polygon points="169.0,136.0 169.0,145.0 179.0,156.0 178.0,166.0 183.0,169.0 194.0,169.0 195.0,154.0 182.0,148.0 180.0,137.0" fill="#2ce3ed" opacity="0.95" />
<polygon points="219.0,136.0 211.0,145.0 201.0,170.0 204.0,176.0 215.0,168.0 226.0,168.0 214.0,159.0 222.0,141.0" fill="#2ce3ed" opacity="0.95" />
<polygon points="142.0,139.0 141.0,147.0 149.0,144.0 156.0,155.0 166.0,156.0 161.0,140.0 156.0,141.0 149.0,134.0" fill="#126073" opacity="0.95" />
<polygon points="139.0,157.0 140.0,166.0 154.0,180.0 155.0,170.0 166.0,167.0 156.0,160.0 150.0,163.0 146.0,158.0" fill="#10b4cf" opacity="0.95" />
<polygon points="165.0,217.0 192.0,237.0 197.0,234.0 186.0,227.0 181.0,213.0" fill="#2ce3ed" opacity="0.95" />
<polygon points="225.0,140.0 222.0,142.0 215.0,157.0 215.0,160.0 224.0,161.0 231.0,150.0 230.0,144.0" fill="#10b4cf" opacity="0.95" />
<polygon points="147.0,134.0 144.0,133.0 140.0,136.0 134.0,138.0 131.0,143.0 135.0,146.0" fill="#b48476" />
<polygon points="142.0,139.0 142.0,146.0 151.0,146.0 160.0,157.0 166.0,155.0 161.0,140.0 156.0,140.0 149.0,135.0" fill="#126073" opacity="0.95" />
<polygon points="249.0,149.0 247.0,148.0 242.0,151.0 239.0,149.0 237.0,150.0 233.0,159.0 234.0,164.0 243.0,164.0 248.0,158.0" fill="#126073" opacity="0.95" />
<polygon points="230.0,133.0 229.0,141.0 233.0,144.0 237.0,141.0 240.0,141.0 243.0,143.0 245.0,142.0 235.0,134.0 231.0,132.0" fill="#126073" />
<polygon points="168.0,148.0 167.0,151.0 170.0,157.0 170.0,163.0 177.0,170.0 179.0,169.0 178.0,156.0" fill="#10b4cf" opacity="0.95" />
<polygon points="173.0,166.0 170.0,165.0 162.0,171.0 156.0,170.0 156.0,183.0 164.0,183.0 168.0,172.0 173.0,169.0" fill="#2ce3ed" opacity="0.95" />
<polygon points="248.0,151.0 237.0,151.0 233.0,162.0 237.0,165.0 243.0,164.0 248.0,158.0" fill="#126073" opacity="0.95" />
<polygon points="225.0,140.0 222.0,142.0 215.0,157.0 216.0,160.0 222.0,162.0 226.0,159.0 231.0,150.0 230.0,144.0" fill="#10b4cf" opacity="0.95" />
<polygon points="140.0,157.0 140.0,166.0 150.0,176.0 154.0,176.0 155.0,168.0 158.0,163.0 155.0,161.0 150.0,163.0 144.0,157.0" fill="#10b4cf" opacity="0.95" />
<polygon points="201.0,115.0 202.0,119.0 210.0,129.0 214.0,130.0 218.0,128.0 218.0,124.0 214.0,120.0 203.0,114.0" fill="#6ad7ea" opacity="0.95" />
<polygon points="239.0,167.0 231.0,164.0 228.0,166.0 225.0,171.0 225.0,174.0 230.0,177.0 239.0,169.0" fill="#1d81a0" opacity="0.95" />
<polygon points="235.0,147.0 233.0,148.0 227.0,159.0 229.0,161.0 236.0,148.0" fill="#43f7f5" />
<polygon points="237.0,142.0 235.0,145.0 238.0,148.0 240.0,148.0 243.0,150.0 245.0,148.0 245.0,145.0 240.0,142.0" fill="#1d81a0" />
<polygon points="169.0,160.0 169.0,157.0 168.0,156.0 165.0,158.0 160.0,158.0 159.0,157.0 157.0,158.0 161.0,164.0 163.0,164.0" fill="#1d81a0" />
<polygon points="139.0,144.0 133.0,149.0 133.0,150.0 131.0,152.0 132.0,153.0 138.0,153.0 141.0,150.0 140.0,149.0 140.0,145.0" fill="#1d81a0" />
<polygon points="167.0,133.0 168.0,134.0 176.0,134.0 177.0,135.0 179.0,135.0 180.0,134.0 180.0,131.0 179.0,130.0 175.0,130.0 172.0,128.0" fill="#10b4cf" />
<polygon points="155.0,131.0 153.0,136.0 161.0,137.0 164.0,144.0 167.0,145.0 167.0,137.0 162.0,134.0 162.0,131.0" fill="#10b4cf" opacity="0.95" />
<polygon points="230.0,134.0 230.0,142.0 234.0,143.0 240.0,140.0 240.0,138.0 233.0,133.0" fill="#126073" opacity="0.95" />
<polygon points="149.0,145.0 147.0,149.0 147.0,154.0 148.0,155.0 150.0,155.0 152.0,152.0 152.0,149.0" fill="#43f7f5" />
<polygon points="237.0,166.0 233.0,164.0 229.0,165.0 225.0,171.0 225.0,174.0 229.0,177.0 232.0,176.0 238.0,170.0" fill="#1d81a0" opacity="0.95" />
<polygon points="203.0,118.0 203.0,120.0 211.0,129.0 214.0,130.0 218.0,127.0 218.0,124.0 214.0,120.0 206.0,116.0" fill="#6ad7ea" opacity="0.95" />
<polygon points="187.0,113.0 180.0,121.0 181.0,122.0 188.0,116.0 188.0,114.0" fill="#126073" />
<polygon points="224.0,174.0 222.0,176.0 222.0,177.0 223.0,178.0 224.0,181.0 225.0,182.0 226.0,182.0 229.0,179.0" fill="#10b4cf" />
<polygon points="236.0,143.0 236.0,146.0 241.0,149.0 245.0,148.0 245.0,145.0 240.0,142.0" fill="#1d81a0" opacity="0.95" />
<polygon points="233.0,133.0 230.0,135.0 230.0,141.0 234.0,143.0 238.0,141.0 239.0,138.0" fill="#126073" opacity="0.95" />
<polygon points="169.0,158.0 167.0,157.0 161.0,158.0 159.0,159.0 159.0,162.0 163.0,164.0 169.0,161.0" fill="#1d81a0" opacity="0.95" />
<polygon points="140.0,147.0 138.0,146.0 135.0,147.0 133.0,149.0 133.0,152.0 135.0,153.0 139.0,152.0 140.0,151.0" fill="#1d81a0" opacity="0.95" />
<polygon points="141.0,137.0 139.0,136.0 134.0,138.0 132.0,140.0 132.0,145.0 134.0,146.0 136.0,145.0 139.0,142.0 139.0,140.0 141.0,139.0" fill="#b48476" opacity="0.95" />
<polygon points="170.0,119.0 169.0,118.0 167.0,120.0 162.0,121.0 161.0,123.0 163.0,124.0" fill="#b48476" />
<polygon points="176.0,125.0 174.0,127.0 174.0,128.0 175.0,129.0 178.0,129.0 179.0,128.0 179.0,127.0 177.0,125.0" fill="#1d81a0" />
<polygon points="136.0,137.0 132.0,140.0 132.0,143.0 135.0,145.0 139.0,142.0 139.0,139.0" fill="#b48476" opacity="0.95" />
<polygon points="150.0,148.0 147.0,149.0 147.0,154.0 149.0,155.0 151.0,154.0 152.0,152.0 152.0,149.0" fill="#43f7f5" opacity="0.95" />
</svg>