<svg xmlns="http://www.w3.org/2000/svg" width="768" height="768" viewBox="0 0 384 384">
<rect width="384" height="384" fill="#8c695b"/>
<polygon points="286.0,0.0 54.0,29.0 0.0,201.0 95.0,237.0 75.0,285.0 2.0,290.0 2.0,383.0 150.0,383.0 135.0,326.0 175.0,344.0 383.0,235.0 383.0,108.0" fill="#a26957" />
<polygon points="287.0,0.0 54.0,29.0 0.0,202.0 94.0,234.0 75.0,285.0 0.0,291.0 0.0,383.0 151.0,383.0 135.0,328.0 175.0,344.0 383.0,235.0 383.0,107.0" fill="#a26957" opacity="0.95" />
<polygon points="287.0,0.0 54.0,29.0 0.0,202.0 94.0,232.0 75.0,285.0 0.0,291.0 0.0,383.0 151.0,383.0 137.0,329.0 175.0,344.0 383.0,235.0 383.0,107.0" fill="#a26957" opacity="0.95" />
<polygon points="187.0,120.0 258.0,161.0 265.0,203.0 257.0,241.0 198.0,283.0 145.0,253.0 119.0,217.0 124.0,165.0" fill="#a26957" />
<polygon points="383.0,283.0 273.0,319.0 174.0,383.0 223.0,365.0 241.0,383.0 383.0,383.0" fill="#a26957" />
<polygon points="188.0,120.0 258.0,161.0 265.0,203.0 257.0,241.0 198.0,283.0 145.0,253.0 119.0,217.0 124.0,165.0" fill="#a26957" opacity="0.95" />
<polygon points="383.0,240.0 291.0,263.0 175.0,345.0 135.0,327.0 159.0,362.0 151.0,383.0 381.0,280.0" fill="#743f2f" />
<polygon points="188.0,120.0 258.0,161.0 265.0,203.0 257.0,241.0 198.0,283.0 145.0,253.0 119.0,217.0 124.0,165.0" fill="#a26957" opacity="0.95" />
<polygon points="2.0,204.0 0.0,287.0 73.0,285.0 80.0,275.0 76.0,225.0 94.0,237.0 82.0,212.0 43.0,216.0" fill="#b68b7a" />
<polygon points="383.0,283.0 273.0,319.0 174.0,383.0 225.0,365.0 241.0,383.0 383.0,383.0" fill="#a26957" opacity="0.95" />
<polygon points="205.0,128.0 213.0,160.0 196.0,185.0 193.0,171.0 154.0,181.0 136.0,165.0 171.0,151.0 173.0,133.0 126.0,164.0 126.0,190.0 193.0,237.0 257.0,190.0 256.0,161.0" fill="#1ef8f5" />
<polygon points="300.0,0.0 355.0,55.0 381.0,95.0 383.0,0.0" fill="#141313" />
<polygon points="68.0,0.0 0.0,0.0 2.0,104.0 32.0,45.0" fill="#141313" />
<polygon points="383.0,240.0 291.0,263.0 175.0,345.0 135.0,329.0 152.0,383.0 382.0,279.0" fill="#743f2f" opacity="0.95" />
<polygon points="383.0,283.0 273.0,319.0 174.0,383.0 225.0,365.0 241.0,383.0 383.0,383.0" fill="#a26957" opacity="0.95" />
<polygon points="383.0,240.0 291.0,263.0 175.0,345.0 137.0,330.0 152.0,383.0 383.0,278.0" fill="#743f2f" opacity="0.95" />
<polygon points="1.0,205.0 0.0,284.0 75.0,284.0 75.0,228.0 93.0,234.0 81.0,210.0 43.0,216.0" fill="#b68b7a" opacity="0.95" />
<polygon points="365.0,314.0 361.0,346.0 325.0,357.0 311.0,370.0 292.0,369.0 261.0,344.0 267.0,331.0 287.0,322.0 321.0,329.0 351.0,308.0" fill="#a26957" />
<polygon points="210.0,131.0 213.0,160.0 155.0,181.0 138.0,168.0 178.0,144.0 172.0,133.0 126.0,164.0 126.0,190.0 193.0,237.0 257.0,190.0 256.0,161.0" fill="#1ef8f5" opacity="0.95" />
<polygon points="364.0,314.0 351.0,309.0 321.0,330.0 287.0,323.0 267.0,332.0 262.0,344.0 294.0,369.0 311.0,369.0 323.0,356.0 360.0,346.0" fill="#b68b7a" />
<polygon points="301.0,0.0 382.0,90.0 383.0,0.0" fill="#141313" opacity="0.95" />
<polygon points="248.0,201.0 195.0,239.0 141.0,202.0 138.0,215.0 172.0,249.0 196.0,258.0 241.0,222.0" fill="#36071f" />
<polygon points="67.0,0.0 0.0,0.0 1.0,101.0 41.0,31.0" fill="#141313" opacity="0.95" />
<polygon points="210.0,131.0 213.0,160.0 155.0,181.0 138.0,168.0 178.0,144.0 172.0,133.0 126.0,164.0 126.0,190.0 193.0,237.0 257.0,190.0 256.0,161.0" fill="#1ef8f5" opacity="0.95" />
<polygon points="0.0,207.0 0.0,284.0 73.0,285.0 80.0,275.0 75.0,228.0 93.0,232.0 82.0,212.0 43.0,216.0" fill="#b68b7a" opacity="0.95" />
<polygon points="198.0,127.0 176.0,129.0 179.0,144.0 171.0,152.0 137.0,165.0 154.0,180.0 193.0,170.0" fill="#0dd9fb" />
<polygon points="264.0,203.0 255.0,193.0 247.0,231.0 197.0,269.0 134.0,227.0 128.0,193.0 120.0,217.0 145.0,252.0 198.0,282.0 256.0,241.0" fill="#743f2f" />
<polygon points="256.0,198.0 196.0,259.0 154.0,236.0 134.0,197.0 126.0,206.0 150.0,241.0 197.0,268.0 246.0,231.0" fill="#561c1f" />
<polygon points="301.0,0.0 349.0,48.0 376.0,87.0 383.0,87.0 383.0,0.0" fill="#141313" opacity="0.95" />
<polygon points="67.0,0.0 0.0,0.0 0.0,95.0 7.0,95.0 32.0,45.0" fill="#141313" opacity="0.95" />
<polygon points="364.0,314.0 351.0,309.0 321.0,330.0 287.0,323.0 267.0,332.0 262.0,344.0 292.0,368.0 311.0,369.0 325.0,356.0 360.0,346.0" fill="#b68b7a" opacity="0.95" />
<polygon points="247.0,202.0 194.0,239.0 143.0,204.0 138.0,215.0 172.0,249.0 196.0,258.0 241.0,222.0" fill="#36071f" opacity="0.95" />
<polygon points="81.0,0.0 69.0,0.0 44.0,28.0 2.0,115.0 45.0,36.0" fill="#3d312c" />
<polygon points="278.0,304.0 296.0,284.0 324.0,287.0 311.0,302.0 286.0,306.0" fill="#743f2f" />
<polygon points="279.0,304.0 311.0,301.0 323.0,287.0 296.0,285.0" fill="#561c1f" />
<polygon points="264.0,203.0 255.0,193.0 247.0,231.0 197.0,269.0 134.0,227.0 127.0,197.0 120.0,217.0 145.0,252.0 198.0,282.0 256.0,241.0" fill="#743f2f" opacity="0.95" />
<polygon points="287.0,0.0 349.0,56.0 381.0,104.0 348.0,48.0 299.0,0.0" fill="#3d312c" />
<polygon points="364.0,314.0 351.0,309.0 321.0,330.0 287.0,323.0 267.0,332.0 262.0,344.0 293.0,368.0 311.0,369.0 325.0,356.0 359.0,346.0" fill="#b68b7a" opacity="0.95" />
<polygon points="198.0,128.0 176.0,129.0 179.0,144.0 167.0,154.0 138.0,163.0 139.0,168.0 155.0,180.0 194.0,169.0" fill="#0dd9fb" opacity="0.95" />
<polygon points="247.0,204.0 194.0,239.0 143.0,204.0 138.0,215.0 172.0,249.0 196.0,258.0 241.0,222.0" fill="#36071f" opacity="0.95" />
<polygon points="240.0,383.0 231.0,366.0 218.0,369.0 196.0,382.0" fill="#b68b7a" />
<polygon points="256.0,198.0 196.0,259.0 154.0,236.0 134.0,197.0 126.0,206.0 150.0,241.0 197.0,268.0 246.0,231.0" fill="#561c1f" opacity="0.95" />
<polygon points="197.0,128.0 176.0,129.0 179.0,144.0 171.0,152.0 138.0,166.0 155.0,180.0 193.0,169.0" fill="#0dd9fb" opacity="0.95" />
<polygon points="264.0,203.0 257.0,192.0 247.0,231.0 197.0,269.0 150.0,242.0 125.0,206.0 120.0,217.0 145.0,252.0 198.0,282.0 256.0,241.0" fill="#743f2f" opacity="0.95" />
<polygon points="320.0,51.0 321.0,63.0 334.0,71.0 340.0,82.0 355.0,89.0 357.0,84.0 338.0,57.0 329.0,51.0" fill="#b68b7a" />
<polygon points="219.0,15.0 216.0,19.0 216.0,28.0 222.0,28.0 236.0,37.0 241.0,35.0 240.0,28.0 246.0,21.0 236.0,9.0" fill="#b68b7a" />
<polygon points="80.0,0.0 68.0,0.0 44.0,28.0 1.0,113.0 45.0,36.0" fill="#3d312c" opacity="0.95" />
<polygon points="126.0,206.0 150.0,241.0 197.0,268.0 246.0,231.0 256.0,198.0 196.0,259.0 154.0,236.0 134.0,197.0" fill="#561c1f" opacity="0.95" />
<polygon points="74.0,179.0 72.0,178.0 46.0,202.0 49.0,204.0 59.0,204.0 64.0,201.0 74.0,190.0" fill="#743f2f" />
<polygon points="279.0,304.0 284.0,295.0 297.0,284.0 324.0,287.0 311.0,302.0 286.0,306.0" fill="#743f2f" opacity="0.95" />
<polygon points="288.0,0.0 349.0,56.0 382.0,100.0 348.0,48.0 300.0,0.0" fill="#3d312c" opacity="0.95" />
<polygon points="280.0,304.0 311.0,301.0 323.0,287.0 297.0,285.0 285.0,295.0" fill="#561c1f" opacity="0.95" />
<polygon points="320.0,51.0 322.0,64.0 334.0,71.0 340.0,82.0 348.0,88.0 357.0,87.0 337.0,56.0" fill="#b68b7a" opacity="0.95" />
<polygon points="204.0,141.0 200.0,161.0 195.0,164.0 196.0,184.0 199.0,167.0 208.0,162.0 210.0,158.0" fill="#78e9f8" />
<polygon points="233.0,161.0 240.0,167.0 234.0,176.0 227.0,182.0 225.0,180.0 225.0,172.0 229.0,163.0" fill="#1ef8f5" />
<polygon points="280.0,303.0 284.0,295.0 297.0,284.0 319.0,285.0 323.0,288.0 311.0,302.0 286.0,306.0" fill="#743f2f" opacity="0.95" />
<polygon points="200.0,128.0 196.0,151.0 197.0,162.0 200.0,158.0 202.0,139.0 206.0,133.0" fill="#e8eeec" />
<polygon points="38.0,44.0 23.0,61.0 0.0,110.0 11.0,105.0" fill="#3d312c" opacity="0.95" />
<polygon points="233.0,162.0 230.0,163.0 226.0,172.0 227.0,181.0 233.0,176.0 239.0,167.0" fill="#0dd9fb" />
<polygon points="281.0,303.0 286.0,305.0 311.0,301.0 321.0,292.0 322.0,288.0 297.0,285.0 285.0,295.0" fill="#561c1f" opacity="0.95" />
<polygon points="288.0,0.0 325.0,33.0 330.0,32.0 300.0,0.0" fill="#3d312c" opacity="0.95" />
<polygon points="80.0,0.0 68.0,0.0 42.0,33.0 47.0,34.0 56.0,22.0" fill="#3d312c" opacity="0.95" />
<polygon points="232.0,161.0 239.0,165.0 239.0,169.0 228.0,181.0 225.0,179.0 225.0,172.0 229.0,163.0" fill="#1ef8f5" opacity="0.95" />
<polygon points="181.0,126.0 182.0,127.0 191.0,127.0 199.0,125.0 195.0,122.0 187.0,122.0" fill="#1ef8f5" />
<polygon points="201.0,129.0 199.0,130.0 197.0,140.0 196.0,158.0 198.0,159.0 200.0,158.0 202.0,139.0 205.0,132.0" fill="#e8eeec" opacity="0.95" />
<polygon points="204.0,145.0 202.0,146.0 200.0,161.0 195.0,164.0 195.0,168.0 197.0,169.0 200.0,165.0 209.0,161.0 209.0,155.0" fill="#78e9f8" opacity="0.95" />
<polygon points="234.0,162.0 239.0,166.0 239.0,169.0 229.0,180.0 225.0,177.0 225.0,172.0 228.0,165.0" fill="#1ef8f5" opacity="0.95" />
<polygon points="232.0,162.0 230.0,163.0 226.0,172.0 226.0,179.0 228.0,180.0 233.0,176.0 238.0,169.0 238.0,166.0" fill="#0dd9fb" opacity="0.95" />
<polygon points="233.0,163.0 229.0,165.0 226.0,172.0 226.0,177.0 229.0,179.0 238.0,169.0 238.0,166.0" fill="#0dd9fb" opacity="0.95" />
<polygon points="205.0,151.0 201.0,153.0 201.0,158.0 200.0,159.0 200.0,162.0 203.0,164.0 209.0,161.0 209.0,155.0" fill="#78e9f8" opacity="0.95" />
<polygon points="184.0,124.0 184.0,126.0 186.0,127.0 191.0,127.0 192.0,126.0 197.0,125.0 197.0,123.0 195.0,122.0 187.0,122.0" fill="#1ef8f5" opacity="0.95" />
<polygon points="178.0,366.0 177.0,365.0 174.0,365.0 172.0,367.0 172.0,369.0 173.0,370.0 175.0,370.0 178.0,367.0" fill="#561c1f" />
<polygon points="202.0,130.0 199.0,132.0 199.0,134.0 202.0,136.0 205.0,134.0 205.0,132.0" fill="#e8eeec" opacity="0.95" />
<polygon points="374.0,87.0 371.0,89.0 371.0,91.0 374.0,93.0 377.0,91.0 377.0,89.0" fill="#3d312c" opacity="0.95" />
<polygon points="175.0,365.0 172.0,367.0 172.0,369.0 173.0,369.0 174.0,370.0 177.0,368.0 177.0,366.0 176.0,366.0" fill="#561c1f" opacity="0.95" />
</svg>