<svg xmlns="http://www.w3.org/2000/svg" width="768" height="768" viewBox="0 0 384 384">
<rect width="384" height="384" fill="#8e685b"/>
<polygon points="0.0,0.0 0.0,383.0 295.0,381.0 383.0,252.0 383.0,103.0 340.0,4.0" fill="#98604e" />
<polygon points="0.0,0.0 0.0,383.0 304.0,374.0 383.0,252.0 383.0,105.0 340.0,5.0" fill="#98604e" opacity="0.95" />
<polygon points="0.0,0.0 0.0,383.0 293.0,383.0 383.0,252.0 383.0,105.0 340.0,5.0" fill="#98604e" opacity="0.95" />
<polygon points="378.0,136.0 303.0,183.0 262.0,249.0 49.0,265.0 231.0,89.0 264.0,88.0 277.0,134.0" fill="#98604e" />
<polygon points="376.0,131.0 262.0,249.0 49.0,265.0 231.0,89.0 265.0,89.0 278.0,134.0" fill="#98604e" opacity="0.95" />
<polygon points="265.0,155.0 68.0,249.0 131.0,165.0 50.0,264.0 251.0,202.0" fill="#85e8f1" />
<polygon points="378.0,136.0 303.0,183.0 262.0,249.0 51.0,264.0 129.0,165.0 192.0,149.0 231.0,89.0 265.0,89.0 278.0,134.0" fill="#98604e" opacity="0.95" />
<polygon points="318.0,128.0 139.0,162.0 67.0,247.0 155.0,191.0" fill="#59d3e8" />
<polygon points="347.0,139.0 268.0,156.0 252.0,203.0 65.0,264.0 261.0,231.0 285.0,179.0" fill="#412a28" />
<polygon points="265.0,155.0 150.0,195.0 51.0,264.0 252.0,201.0" fill="#85e8f1" opacity="0.95" />
<polygon points="310.0,129.0 139.0,162.0 72.0,243.0" fill="#59d3e8" opacity="0.95" />
<polygon points="377.0,136.0 314.0,134.0 348.0,142.0 286.0,179.0 261.0,232.0 80.0,266.0 262.0,248.0 303.0,182.0" fill="#6f4339" />
<polygon points="265.0,156.0 152.0,194.0 53.0,262.0 248.0,203.0" fill="#85e8f1" opacity="0.95" />
<polygon points="383.0,253.0 369.0,300.0 363.0,288.0 355.0,297.0 357.0,321.0 335.0,330.0 328.0,315.0 315.0,362.0 294.0,383.0 383.0,383.0" fill="#6f4339" />
<polygon points="347.0,139.0 266.0,158.0 249.0,204.0 66.0,265.0 261.0,231.0 285.0,179.0" fill="#412a28" opacity="0.95" />
<polygon points="245.0,88.0 227.0,94.0 195.0,151.0 251.0,133.0" fill="#85e8f1" />
<polygon points="307.0,131.0 139.0,162.0 74.0,240.0" fill="#59d3e8" opacity="0.95" />
<polygon points="347.0,140.0 267.0,159.0 249.0,204.0 71.0,264.0 261.0,231.0 285.0,179.0" fill="#412a28" opacity="0.95" />
<polygon points="337.0,0.0 340.0,13.0 352.0,21.0 349.0,27.0 338.0,25.0 340.0,34.0 353.0,40.0 352.0,50.0 383.0,102.0 383.0,0.0" fill="#6f4339" />
<polygon points="383.0,254.0 373.0,288.0 356.0,295.0 356.0,322.0 335.0,330.0 327.0,316.0 331.0,330.0 295.0,383.0 383.0,383.0" fill="#6f4339" opacity="0.95" />
<polygon points="375.0,131.0 312.0,135.0 348.0,142.0 286.0,179.0 261.0,232.0 98.0,265.0 275.0,242.0 296.0,189.0" fill="#6f4339" opacity="0.95" />
<polygon points="246.0,89.0 227.0,94.0 194.0,150.0 251.0,133.0" fill="#85e8f1" opacity="0.95" />
<polygon points="383.0,254.0 375.0,259.0 373.0,288.0 356.0,295.0 356.0,321.0 322.0,338.0 315.0,362.0 296.0,383.0 383.0,383.0" fill="#6f4339" opacity="0.95" />
<polygon points="377.0,136.0 313.0,135.0 348.0,142.0 286.0,179.0 261.0,232.0 112.0,264.0 275.0,242.0 296.0,189.0" fill="#6f4339" opacity="0.95" />
<polygon points="245.0,89.0 227.0,94.0 197.0,148.0 251.0,133.0" fill="#85e8f1" opacity="0.95" />
<polygon points="339.0,0.0 340.0,13.0 352.0,21.0 348.0,27.0 338.0,25.0 341.0,36.0 353.0,40.0 352.0,50.0 383.0,102.0 383.0,0.0" fill="#6f4339" opacity="0.95" />
<polygon points="340.0,0.0 340.0,12.0 352.0,21.0 341.0,28.0 341.0,36.0 353.0,41.0 352.0,50.0 383.0,102.0 383.0,0.0" fill="#6f4339" opacity="0.95" />
<polygon points="250.0,100.0 253.0,138.0 262.0,138.0 265.0,136.0 263.0,107.0 260.0,101.0" fill="#412a28" />
<polygon points="250.0,91.0 249.0,98.0 258.0,99.0 263.0,104.0 266.0,135.0 274.0,135.0 267.0,92.0 264.0,89.0" fill="#6f4339" />
<polygon points="131.0,169.0 67.0,241.0 86.0,225.0" fill="#85e8f1" opacity="0.95" />
<polygon points="302.0,143.0 279.0,150.0 271.0,155.0 277.0,161.0" fill="#45a4c9" />
<polygon points="251.0,100.0 249.0,106.0 253.0,138.0 258.0,139.0 265.0,136.0 264.0,112.0 260.0,101.0" fill="#412a28" opacity="0.95" />
<polygon points="252.0,100.0 249.0,102.0 253.0,137.0 258.0,139.0 265.0,136.0 264.0,112.0 261.0,102.0" fill="#412a28" opacity="0.95" />
<polygon points="297.0,145.0 295.0,144.0 273.0,153.0 272.0,156.0 279.0,160.0 296.0,148.0" fill="#45a4c9" opacity="0.95" />
<polygon points="291.0,149.0 287.0,147.0 273.0,153.0 272.0,156.0 275.0,159.0 279.0,160.0 290.0,152.0" fill="#45a4c9" opacity="0.95" />
</svg>