<svg xmlns="http://www.w3.org/2000/svg" width="768" height="768" viewBox="0 0 384 384">
<rect width="384" height="384" fill="#8f675b"/>
<polygon points="0.0,0.0 5.0,209.0 82.0,175.0 159.0,221.0 113.0,177.0 193.0,116.0 270.0,178.0 199.0,248.0 383.0,300.0 383.0,0.0 202.0,0.0 314.0,35.0 194.0,110.0 77.0,31.0 184.0,0.0" fill="#7b5246" />
<polygon points="21.0,185.0 0.0,209.0 0.0,383.0 176.0,383.0 164.0,334.0 186.0,331.0 185.0,238.0 88.0,202.0 90.0,177.0 66.0,183.0 76.0,196.0" fill="#ad735b" />
<polygon points="201.0,246.0 198.0,331.0 220.0,334.0 208.0,383.0 383.0,383.0 383.0,301.0 269.0,238.0 237.0,232.0" fill="#ad735b" />
<polygon points="191.0,117.0 115.0,178.0 192.0,242.0 269.0,178.0" fill="#4be5f4" />
<polygon points="0.0,0.0 0.0,202.0 82.0,175.0 158.0,221.0 114.0,176.0 192.0,116.0 270.0,177.0 198.0,243.0 383.0,300.0 383.0,0.0 204.0,0.0 313.0,36.0 194.0,110.0 79.0,33.0 182.0,0.0" fill="#7b5246" opacity="0.95" />
<polygon points="0.0,0.0 1.0,202.0 82.0,175.0 153.0,219.0 114.0,176.0 192.0,116.0 269.0,177.0 199.0,243.0 383.0,300.0 383.0,0.0 206.0,0.0 311.0,36.0 194.0,110.0 79.0,33.0 180.0,0.0" fill="#7b5246" opacity="0.95" />
<polygon points="21.0,185.0 0.0,215.0 0.0,383.0 175.0,383.0 165.0,334.0 186.0,331.0 185.0,238.0 86.0,201.0 90.0,177.0 66.0,183.0 73.0,196.0" fill="#ad735b" opacity="0.95" />
<polygon points="193.0,108.0 312.0,35.0 193.0,0.0" fill="#fd8f8c" />
<polygon points="202.0,244.0 198.0,331.0 219.0,334.0 208.0,383.0 383.0,383.0 383.0,301.0 268.0,238.0" fill="#ad735b" opacity="0.95" />
<polygon points="94.0,27.0 192.0,107.0 192.0,0.0" fill="#f53d3f" />
<polygon points="21.0,185.0 0.0,215.0 0.0,383.0 175.0,383.0 165.0,335.0 186.0,330.0 185.0,238.0 87.0,201.0 89.0,177.0 68.0,195.0" fill="#ad735b" opacity="0.95" />
<polygon points="191.0,117.0 116.0,179.0 192.0,241.0 268.0,177.0" fill="#4be5f4" opacity="0.95" />
<polygon points="201.0,246.0 198.0,330.0 219.0,335.0 208.0,383.0 383.0,383.0 383.0,301.0 268.0,238.0" fill="#ad735b" opacity="0.95" />
<polygon points="191.0,117.0 116.0,179.0 192.0,241.0 268.0,177.0" fill="#4be5f4" opacity="0.95" />
<polygon points="193.0,107.0 311.0,34.0 193.0,0.0" fill="#fd8f8c" opacity="0.95" />
<polygon points="95.0,27.0 192.0,107.0 192.0,0.0" fill="#f53d3f" opacity="0.95" />
<polygon points="193.0,105.0 309.0,34.0 193.0,0.0" fill="#fd8f8c" opacity="0.95" />
<polygon points="96.0,27.0 192.0,105.0 192.0,0.0" fill="#f53d3f" opacity="0.95" />
<polygon points="196.0,240.0 187.0,242.0 187.0,331.0 166.0,335.0 177.0,383.0 207.0,383.0 218.0,338.0 197.0,331.0" fill="#072d6b" />
<polygon points="79.0,31.0 165.0,89.0 92.0,27.0" fill="#fd8f8c" />
<polygon points="195.0,241.0 187.0,243.0 187.0,331.0 166.0,335.0 177.0,383.0 207.0,383.0 218.0,338.0 197.0,331.0" fill="#072d6b" opacity="0.95" />
<polygon points="190.0,242.0 187.0,330.0 166.0,338.0 177.0,383.0 207.0,383.0 218.0,336.0 197.0,330.0 197.0,244.0" fill="#072d6b" opacity="0.95" />
<polygon points="342.0,50.0 354.0,58.0 346.0,75.0 329.0,63.0 329.0,58.0" fill="#7b5246" />
<polygon points="80.0,31.0 154.0,81.0 96.0,30.0" fill="#fd8f8c" opacity="0.95" />
<polygon points="81.0,31.0 133.0,70.0 146.0,74.0 96.0,30.0" fill="#fd8f8c" opacity="0.95" />
<polygon points="342.0,51.0 338.0,54.0 339.0,68.0 342.0,73.0 346.0,73.0 353.0,58.0" fill="#ba9f9d" />
<polygon points="342.0,50.0 353.0,57.0 350.0,69.0 345.0,74.0 329.0,64.0 329.0,58.0" fill="#7b5246" opacity="0.95" />
<polygon points="342.0,50.0 353.0,58.0 350.0,69.0 345.0,74.0 329.0,63.0 329.0,58.0" fill="#7b5246" opacity="0.95" />
<polygon points="342.0,51.0 338.0,53.0 339.0,68.0 345.0,73.0 349.0,69.0 352.0,57.0" fill="#ba9f9d" opacity="0.95" />
<polygon points="335.0,239.0 336.0,236.0 340.0,233.0 350.0,233.0 354.0,236.0 354.0,238.0 352.0,240.0 340.0,239.0 337.0,241.0" fill="#7b5246" />
<polygon points="342.0,51.0 338.0,54.0 339.0,68.0 345.0,73.0 349.0,69.0 352.0,58.0" fill="#ba9f9d" opacity="0.95" />
<polygon points="335.0,55.0 331.0,58.0 331.0,63.0 337.0,68.0 338.0,67.0 338.0,58.0 337.0,56.0" fill="#f9f6f3" />
<polygon points="336.0,239.0 337.0,240.0 340.0,238.0 352.0,239.0 353.0,236.0 350.0,234.0 340.0,234.0 337.0,236.0" fill="#ad735b" />
<polygon points="336.0,236.0 340.0,233.0 350.0,233.0 354.0,236.0 354.0,238.0 351.0,240.0 340.0,239.0 339.0,240.0 336.0,238.0" fill="#7b5246" opacity="0.95" />
<polygon points="335.0,55.0 331.0,58.0 331.0,64.0 336.0,67.0 338.0,66.0 338.0,58.0 337.0,56.0" fill="#f9f6f3" opacity="0.95" />
<polygon points="334.0,56.0 331.0,58.0 331.0,63.0 335.0,66.0 338.0,64.0 338.0,58.0" fill="#f9f6f3" opacity="0.95" />
<polygon points="337.0,236.0 337.0,238.0 339.0,239.0 340.0,238.0 346.0,238.0 347.0,239.0 353.0,238.0 353.0,236.0 350.0,234.0 340.0,234.0" fill="#ad735b" opacity="0.95" />
</svg>