<svg xmlns="http://www.w3.org/2000/svg" width="768" height="768" viewBox="0 0 384 384">
<rect width="384" height="384" fill="#8b6a65"/>
<polygon points="62.0,151.0 18.0,273.0 24.0,383.0 175.0,383.0 170.0,330.0 215.0,335.0 213.0,383.0 346.0,383.0 316.0,185.0 239.0,246.0 166.0,242.0 106.0,113.0" fill="#9c755f" />
<polygon points="62.0,151.0 18.0,273.0 24.0,383.0 175.0,383.0 177.0,330.0 216.0,334.0 213.0,383.0 346.0,383.0 316.0,185.0 238.0,245.0 165.0,241.0 107.0,116.0" fill="#9c755f" opacity="0.95" />
<polygon points="248.0,42.0 206.0,104.0 183.0,107.0 190.0,241.0 229.0,243.0 279.0,126.0" fill="#5ec4d5" />
<polygon points="118.0,13.0 0.0,122.0 0.0,383.0 23.0,383.0 27.0,222.0 104.0,113.0" fill="#705547" />
<polygon points="62.0,151.0 18.0,273.0 24.0,383.0 175.0,383.0 166.0,334.0 207.0,329.0 213.0,383.0 346.0,383.0 316.0,185.0 237.0,246.0 167.0,242.0 105.0,116.0" fill="#9c755f" opacity="0.95" />
<polygon points="343.0,90.0 298.0,191.0 321.0,189.0 345.0,246.0 347.0,383.0 383.0,383.0 383.0,209.0" fill="#705547" />
<polygon points="4.0,123.0 32.0,78.0 81.0,29.0 132.0,0.0 0.0,0.0" fill="#362b27" />
<polygon points="200.0,0.0 184.0,104.0 203.0,106.0 248.0,40.0 283.0,107.0 292.0,39.0 280.0,1.0" fill="#feb1c5" />
<polygon points="333.0,128.0 283.0,114.0 231.0,243.0 297.0,192.0" fill="#505d77" />
<polygon points="133.0,0.0 104.0,71.0 136.0,56.0 154.0,102.0 182.0,105.0 198.0,0.0" fill="#fe232d" />
<polygon points="248.0,44.0 203.0,107.0 183.0,107.0 190.0,241.0 229.0,243.0 279.0,126.0" fill="#5ec4d5" opacity="0.95" />
<polygon points="117.0,13.0 0.0,127.0 0.0,383.0 23.0,383.0 27.0,222.0 104.0,114.0" fill="#705547" opacity="0.95" />
<polygon points="301.0,0.0 336.0,46.0 343.0,87.0 375.0,153.0 381.0,201.0 383.0,0.0" fill="#362b27" />
<polygon points="136.0,57.0 105.0,75.0 129.0,84.0 150.0,194.0 185.0,240.0 182.0,107.0 153.0,103.0" fill="#505d77" />
<polygon points="248.0,44.0 206.0,104.0 183.0,109.0 190.0,241.0 230.0,241.0 279.0,126.0" fill="#5ec4d5" opacity="0.95" />
<polygon points="117.0,13.0 0.0,127.0 0.0,383.0 23.0,383.0 27.0,222.0 104.0,113.0" fill="#705547" opacity="0.95" />
<polygon points="290.0,20.0 293.0,60.0 284.0,110.0 333.0,127.0 341.0,97.0 333.0,42.0 323.0,24.0" fill="#fe232d" />
<polygon points="344.0,91.0 304.0,186.0 320.0,187.0 348.0,259.0 347.0,383.0 383.0,383.0 383.0,206.0" fill="#705547" opacity="0.95" />
<polygon points="3.0,120.0 77.0,32.0 131.0,0.0 0.0,0.0" fill="#362b27" opacity="0.95" />
<polygon points="105.0,76.0 131.0,187.0 161.0,237.0 181.0,240.0 149.0,194.0 128.0,84.0" fill="#9b888f" />
<polygon points="199.0,0.0 184.0,104.0 204.0,105.0 247.0,42.0 284.0,103.0 292.0,39.0 280.0,0.0" fill="#feb1c5" opacity="0.95" />
<polygon points="302.0,0.0 334.0,41.0 380.0,184.0 383.0,0.0" fill="#362b27" opacity="0.95" />
<polygon points="345.0,92.0 308.0,181.0 348.0,259.0 347.0,383.0 383.0,383.0 383.0,203.0" fill="#705547" opacity="0.95" />
<polygon points="333.0,128.0 283.0,114.0 231.0,242.0 297.0,192.0" fill="#505d77" opacity="0.95" />
<polygon points="133.0,0.0 113.0,32.0 105.0,70.0 135.0,56.0 154.0,102.0 181.0,105.0 198.0,0.0" fill="#fe232d" opacity="0.95" />
<polygon points="170.0,332.0 167.0,339.0 176.0,383.0 212.0,383.0 213.0,334.0" fill="#04153d" />
<polygon points="134.0,58.0 107.0,75.0 129.0,84.0 150.0,194.0 184.0,238.0 182.0,107.0 153.0,103.0" fill="#505d77" opacity="0.95" />
<polygon points="0.0,115.0 8.0,116.0 81.0,29.0 131.0,0.0 0.0,0.0" fill="#362b27" opacity="0.95" />
<polygon points="291.0,20.0 284.0,110.0 333.0,126.0 341.0,97.0 335.0,47.0 324.0,25.0" fill="#fe232d" opacity="0.95" />
<polygon points="199.0,0.0 184.0,103.0 203.0,105.0 247.0,43.0 284.0,102.0 292.0,39.0 280.0,0.0" fill="#feb1c5" opacity="0.95" />
<polygon points="332.0,128.0 282.0,116.0 232.0,242.0 297.0,192.0" fill="#505d77" opacity="0.95" />
<polygon points="133.0,0.0 105.0,69.0 135.0,56.0 154.0,102.0 180.0,105.0 198.0,0.0" fill="#fe232d" opacity="0.95" />
<polygon points="302.0,0.0 334.0,41.0 343.0,87.0 379.0,165.0 383.0,0.0" fill="#362b27" opacity="0.95" />
<polygon points="106.0,77.0 131.0,187.0 161.0,237.0 179.0,240.0 149.0,194.0 128.0,84.0" fill="#9b888f" opacity="0.95" />
<polygon points="134.0,58.0 109.0,74.0 129.0,84.0 150.0,194.0 182.0,236.0 182.0,108.0 152.0,101.0" fill="#505d77" opacity="0.95" />
<polygon points="293.0,21.0 284.0,110.0 332.0,126.0 341.0,97.0 335.0,47.0 323.0,25.0" fill="#fe232d" opacity="0.95" />
<polygon points="168.0,334.0 176.0,383.0 212.0,383.0 213.0,334.0" fill="#04153d" opacity="0.95" />
<polygon points="107.0,77.0 108.0,118.0 131.0,187.0 161.0,237.0 177.0,240.0 149.0,194.0 128.0,84.0" fill="#9b888f" opacity="0.95" />
<polygon points="168.0,334.0 176.0,383.0 212.0,383.0 214.0,336.0 205.0,332.0" fill="#04153d" opacity="0.95" />
<polygon points="280.0,0.0 289.0,19.0 321.0,21.0 300.0,0.0" fill="#505d77" />
<polygon points="281.0,0.0 288.0,18.0 319.0,21.0 301.0,0.0" fill="#505d77" opacity="0.95" />
<polygon points="281.0,0.0 289.0,18.0 315.0,22.0 318.0,20.0 301.0,0.0" fill="#505d77" opacity="0.95" />
<polygon points="222.0,310.0 227.0,313.0 218.0,330.0 216.0,326.0 220.0,316.0 220.0,312.0" fill="#9c755f" />
<polygon points="195.0,287.0 198.0,289.0 198.0,306.0 193.0,308.0 190.0,306.0 192.0,289.0" fill="#9c755f" opacity="0.95" />
<polygon points="196.0,275.0 198.0,277.0 198.0,294.0 196.0,296.0 195.0,295.0 194.0,296.0 192.0,294.0 192.0,289.0 193.0,288.0 193.0,280.0" fill="#9c755f" />
<polygon points="164.0,270.0 169.0,273.0 169.0,286.0 165.0,289.0 161.0,286.0 160.0,273.0" fill="#9c755f" opacity="0.95" />
<polygon points="168.0,303.0 170.0,305.0 170.0,316.0 171.0,317.0 171.0,322.0 169.0,324.0 167.0,322.0 167.0,316.0 165.0,310.0 165.0,306.0" fill="#9c755f" />
<polygon points="227.0,301.0 230.0,303.0 230.0,306.0 226.0,315.0 223.0,317.0 220.0,315.0 222.0,304.0" fill="#9c755f" opacity="0.95" />
<polygon points="166.0,287.0 169.0,289.0 169.0,298.0 170.0,299.0 170.0,304.0 167.0,306.0 164.0,304.0 162.0,290.0" fill="#9c755f" opacity="0.95" />
</svg>