<svg xmlns="http://www.w3.org/2000/svg" width="768" height="768" viewBox="0 0 384 384">
<rect width="384" height="384" fill="#896761"/>
<polygon points="63.0,49.0 8.0,163.0 46.0,316.0 144.0,363.0 307.0,343.0 372.0,222.0 352.0,92.0 300.0,201.0 194.0,247.0 115.0,132.0 186.0,21.0" fill="#8d684e" />
<polygon points="0.0,0.0 0.0,383.0 174.0,383.0 43.0,314.0 8.0,150.0 80.0,36.0 328.0,34.0 375.0,169.0 339.0,313.0 214.0,383.0 383.0,383.0 383.0,0.0" fill="#644837" />
<polygon points="60.0,51.0 8.0,163.0 44.0,314.0 144.0,363.0 307.0,343.0 371.0,227.0 352.0,92.0 300.0,201.0 195.0,247.0 115.0,132.0 182.0,22.0" fill="#8d684e" opacity="0.95" />
<polygon points="63.0,49.0 8.0,163.0 46.0,316.0 144.0,363.0 307.0,343.0 371.0,227.0 352.0,92.0 300.0,201.0 195.0,247.0 115.0,132.0 179.0,23.0" fill="#8d684e" opacity="0.95" />
<polygon points="0.0,0.0 0.0,383.0 174.0,383.0 43.0,314.0 8.0,150.0 80.0,36.0 328.0,34.0 375.0,169.0 339.0,313.0 214.0,383.0 383.0,383.0 383.0,0.0" fill="#644837" opacity="0.95" />
<polygon points="267.0,78.0 217.0,110.0 193.0,148.0 183.0,185.0 189.0,235.0 235.0,209.0 269.0,166.0 278.0,115.0" fill="#89d9e5" />
<polygon points="246.0,24.0 278.0,110.0 325.0,136.0 343.0,97.0 330.0,38.0 295.0,15.0" fill="#f43a40" />
<polygon points="0.0,0.0 4.0,164.0 91.0,31.0 321.0,27.0 375.0,154.0 362.0,268.0 214.0,383.0 383.0,383.0 383.0,0.0" fill="#644837" opacity="0.95" />
<polygon points="255.0,16.0 214.0,13.0 188.0,22.0 216.0,110.0 260.0,79.0 242.0,28.0" fill="#e5e4e5" />
<polygon points="147.0,57.0 119.0,106.0 149.0,124.0 149.0,195.0 185.0,242.0 242.0,239.0 234.0,210.0 187.0,234.0 184.0,172.0 215.0,111.0 151.0,122.0" fill="#475cbc" />
<polygon points="266.0,78.0 217.0,110.0 193.0,148.0 183.0,185.0 190.0,234.0 235.0,209.0 269.0,166.0 278.0,115.0" fill="#89d9e5" opacity="0.95" />
<polygon points="188.0,31.0 168.0,34.0 149.0,59.0 144.0,94.0 152.0,120.0 183.0,103.0 213.0,106.0" fill="#f43a40" />
<polygon points="246.0,24.0 278.0,110.0 328.0,133.0 343.0,90.0 327.0,34.0 289.0,14.0" fill="#f43a40" opacity="0.95" />
<polygon points="279.0,112.0 269.0,168.0 309.0,189.0 324.0,166.0 324.0,138.0 309.0,120.0" fill="#475cbc" />
<polygon points="265.0,78.0 217.0,110.0 193.0,148.0 183.0,185.0 190.0,234.0 235.0,209.0 269.0,166.0 278.0,115.0" fill="#89d9e5" opacity="0.95" />
<polygon points="309.0,191.0 269.0,169.0 235.0,210.0 239.0,230.0 271.0,218.0" fill="#7360aa" />
<polygon points="1.0,185.0 0.0,383.0 174.0,383.0 173.0,364.0 100.0,356.0 43.0,314.0" fill="#644837" opacity="0.95" />
<polygon points="246.0,24.0 278.0,109.0 328.0,133.0 343.0,92.0 327.0,34.0 289.0,14.0" fill="#f43a40" opacity="0.95" />
<polygon points="252.0,15.0 188.0,22.0 217.0,109.0 259.0,80.0 242.0,28.0" fill="#e5e4e5" opacity="0.95" />
<polygon points="143.0,60.0 119.0,106.0 149.0,124.0 149.0,195.0 186.0,242.0 242.0,239.0 233.0,212.0 186.0,234.0 184.0,172.0 215.0,110.0 150.0,119.0" fill="#475cbc" opacity="0.95" />
<polygon points="178.0,334.0 176.0,336.0 176.0,383.0 213.0,383.0 212.0,335.0" fill="#475cbc" />
<polygon points="187.0,31.0 168.0,34.0 147.0,64.0 144.0,94.0 152.0,119.0 183.0,103.0 212.0,106.0" fill="#f43a40" opacity="0.95" />
<polygon points="248.0,14.0 189.0,22.0 217.0,108.0 259.0,79.0 242.0,28.0" fill="#e5e4e5" opacity="0.95" />
<polygon points="281.0,112.0 270.0,169.0 309.0,189.0 324.0,166.0 324.0,138.0 309.0,120.0" fill="#475cbc" opacity="0.95" />
<polygon points="141.0,62.0 119.0,106.0 149.0,124.0 149.0,195.0 187.0,242.0 238.0,236.0 233.0,212.0 186.0,232.0 184.0,172.0 214.0,110.0 150.0,119.0" fill="#475cbc" opacity="0.95" />
<polygon points="119.0,107.0 116.0,121.0 119.0,147.0 137.0,158.0 148.0,125.0" fill="#e2c6af" />
<polygon points="306.0,191.0 267.0,171.0 236.0,209.0 239.0,230.0 271.0,218.0" fill="#7360aa" opacity="0.95" />
<polygon points="187.0,32.0 168.0,34.0 147.0,64.0 144.0,94.0 153.0,118.0 183.0,103.0 211.0,104.0" fill="#f43a40" opacity="0.95" />
<polygon points="177.0,335.0 176.0,383.0 213.0,383.0 212.0,335.0" fill="#475cbc" opacity="0.95" />
<polygon points="282.0,112.0 270.0,168.0 309.0,189.0 324.0,166.0 324.0,138.0 309.0,120.0" fill="#475cbc" opacity="0.95" />
<polygon points="305.0,191.0 268.0,171.0 236.0,209.0 239.0,229.0 271.0,218.0" fill="#7360aa" opacity="0.95" />
<polygon points="177.0,335.0 176.0,383.0 213.0,383.0 213.0,337.0 209.0,334.0" fill="#475cbc" opacity="0.95" />
<polygon points="120.0,108.0 116.0,121.0 119.0,148.0 136.0,158.0 147.0,124.0" fill="#e2c6af" opacity="0.95" />
<polygon points="122.0,150.0 130.0,174.0 148.0,197.0 138.0,161.0" fill="#e5e4e5" />
<polygon points="120.0,108.0 116.0,121.0 118.0,144.0 135.0,158.0 147.0,124.0" fill="#e2c6af" opacity="0.95" />
<polygon points="122.0,152.0 130.0,174.0 139.0,187.0 144.0,188.0 138.0,161.0" fill="#e5e4e5" opacity="0.95" />
<polygon points="227.0,276.0 229.0,278.0 229.0,282.0 221.0,304.0 219.0,301.0 225.0,278.0" fill="#8d684e" />
<polygon points="333.0,51.0 329.0,54.0 334.0,68.0 338.0,69.0 339.0,64.0" fill="#e5e4e5" />
<polygon points="125.0,152.0 122.0,154.0 125.0,164.0 139.0,185.0 142.0,180.0 138.0,161.0" fill="#e5e4e5" opacity="0.95" />
<polygon points="189.0,29.0 187.0,24.0 185.0,23.0 172.0,31.0 179.0,32.0 186.0,31.0" fill="#f66a6a" />
<polygon points="332.0,52.0 330.0,53.0 330.0,56.0 334.0,68.0 337.0,69.0 339.0,68.0 339.0,64.0 335.0,53.0" fill="#e5e4e5" opacity="0.95" />
<polygon points="188.0,26.0 185.0,23.0 174.0,29.0 174.0,31.0 176.0,32.0 186.0,31.0 188.0,30.0" fill="#f66a6a" opacity="0.95" />
<polygon points="338.0,77.0 337.0,78.0 337.0,80.0 338.0,81.0 337.0,83.0 337.0,88.0 339.0,89.0 341.0,87.0 341.0,80.0 340.0,78.0" fill="#e2c6af" />
<polygon points="341.0,69.0 336.0,72.0 336.0,75.0 337.0,76.0 339.0,76.0 342.0,79.0 343.0,78.0 343.0,75.0 342.0,74.0 342.0,70.0" fill="#f66a6a" />
<polygon points="5.0,169.0 0.0,172.0 0.0,175.0 5.0,178.0 8.0,176.0 8.0,171.0" fill="#644837" opacity="0.95" />
<polygon points="188.0,26.0 185.0,24.0 183.0,24.0 179.0,26.0 178.0,29.0 181.0,31.0 185.0,31.0 188.0,29.0" fill="#f66a6a" opacity="0.95" />
<polygon points="342.0,71.0 340.0,70.0 337.0,71.0 336.0,72.0 336.0,75.0 338.0,76.0 340.0,76.0 342.0,75.0" fill="#f66a6a" opacity="0.95" />
<polygon points="339.0,82.0 338.0,83.0 337.0,83.0 337.0,88.0 338.0,88.0 339.0,89.0 340.0,88.0 341.0,88.0 341.0,83.0 340.0,83.0" fill="#e2c6af" opacity="0.95" />
<polygon points="339.0,70.0 336.0,72.0 336.0,74.0 339.0,76.0 342.0,74.0 342.0,72.0" fill="#f66a6a" opacity="0.95" />
</svg>