<svg xmlns="http://www.w3.org/2000/svg" width="768" height="768" viewBox="0 0 384 384">
<rect width="384" height="384" fill="#916860"/>
<polygon points="8.0,0.0 11.0,320.0 184.0,280.0 83.0,192.0 152.0,165.0 193.0,10.0 219.0,125.0 290.0,128.0 222.0,130.0 231.0,169.0 315.0,192.0 200.0,254.0 218.0,319.0 383.0,312.0 383.0,0.0" fill="#996a5b" />
<polygon points="8.0,0.0 9.0,383.0 153.0,383.0 184.0,261.0 118.0,191.0 194.0,10.0 260.0,191.0 197.0,259.0 213.0,383.0 383.0,383.0 383.0,0.0" fill="#996a5b" opacity="0.95" />
<polygon points="8.0,0.0 9.0,383.0 153.0,383.0 184.0,262.0 136.0,255.0 124.0,172.0 194.0,11.0 259.0,191.0 198.0,260.0 213.0,383.0 383.0,383.0 383.0,0.0" fill="#996a5b" opacity="0.95" />
<polygon points="217.0,327.0 212.0,383.0 383.0,383.0 383.0,324.0" fill="#996a5b" />
<polygon points="9.0,326.0 9.0,383.0 154.0,383.0 156.0,324.0" fill="#996a5b" />
<polygon points="126.0,172.0 143.0,205.0 181.0,220.0 230.0,211.0 246.0,199.0 257.0,175.0" fill="#9cdaee" />
<polygon points="148.0,209.0 141.0,241.0 187.0,243.0 185.0,280.0 154.0,337.0 154.0,381.0 210.0,383.0 216.0,287.0 196.0,282.0 192.0,243.0 241.0,241.0 236.0,212.0 185.0,222.0" fill="#201c20" />
<polygon points="169.0,109.0 153.0,169.0 195.0,171.0 195.0,111.0" fill="#6a9ed8" />
<polygon points="126.0,172.0 143.0,205.0 181.0,220.0 230.0,211.0 246.0,199.0 257.0,175.0" fill="#9cdaee" opacity="0.95" />
<polygon points="194.0,11.0 182.0,107.0 214.0,109.0" fill="#f7058e" />
<polygon points="197.0,110.0 198.0,169.0 229.0,170.0 214.0,111.0" fill="#dcf1eb" />
<polygon points="149.0,210.0 140.0,240.0 186.0,243.0 185.0,280.0 154.0,337.0 154.0,381.0 210.0,383.0 216.0,287.0 196.0,282.0 193.0,243.0 242.0,240.0 236.0,212.0 185.0,222.0" fill="#201c20" opacity="0.95" />
<polygon points="126.0,173.0 143.0,205.0 181.0,220.0 230.0,211.0 246.0,199.0 257.0,175.0" fill="#9cdaee" opacity="0.95" />
<polygon points="233.0,210.0 197.0,222.0 146.0,213.0 141.0,240.0 185.0,244.0 185.0,279.0 154.0,337.0 156.0,383.0 212.0,380.0 216.0,288.0 196.0,281.0 194.0,244.0 240.0,240.0" fill="#201c20" opacity="0.95" />
<polygon points="170.0,109.0 153.0,169.0 195.0,171.0 195.0,111.0" fill="#6a9ed8" opacity="0.95" />
<polygon points="194.0,11.0 182.0,108.0 214.0,109.0" fill="#f7058e" opacity="0.95" />
<polygon points="190.0,29.0 169.0,108.0 182.0,105.0" fill="#d30230" />
<polygon points="196.0,111.0 198.0,169.0 229.0,169.0 214.0,111.0" fill="#dcf1eb" opacity="0.95" />
<polygon points="171.0,109.0 153.0,168.0 194.0,171.0 195.0,112.0" fill="#6a9ed8" opacity="0.95" />
<polygon points="138.0,253.0 183.0,254.0 186.0,243.0 140.0,242.0" fill="#65443b" />
<polygon points="193.0,14.0 183.0,106.0 212.0,109.0 215.0,102.0" fill="#f7058e" opacity="0.95" />
<polygon points="196.0,112.0 198.0,169.0 225.0,170.0 228.0,163.0 215.0,114.0 211.0,110.0" fill="#dcf1eb" opacity="0.95" />
<polygon points="193.0,243.0 199.0,253.0 203.0,252.0 206.0,254.0 236.0,254.0 239.0,247.0 238.0,242.0" fill="#65443b" />
<polygon points="189.0,30.0 170.0,108.0 182.0,105.0" fill="#d30230" opacity="0.95" />
<polygon points="132.0,194.0 132.0,204.0 140.0,230.0 146.0,208.0" fill="#65443b" />
<polygon points="4.0,324.0 0.0,341.0 2.0,383.0 8.0,383.0 5.0,340.0 10.0,328.0" fill="#65443b" />
<polygon points="138.0,247.0 138.0,253.0 182.0,254.0 184.0,253.0 185.0,243.0 141.0,242.0" fill="#65443b" opacity="0.95" />
<polygon points="248.0,198.0 236.0,209.0 241.0,229.0 246.0,213.0" fill="#65443b" />
<polygon points="194.0,243.0 197.0,252.0 206.0,254.0 235.0,254.0 239.0,247.0 237.0,242.0" fill="#65443b" opacity="0.95" />
<polygon points="0.0,0.0 0.0,7.0 4.0,13.0 0.0,19.0 0.0,56.0 5.0,58.0 6.0,29.0 3.0,19.0 8.0,6.0 7.0,0.0" fill="#65443b" />
<polygon points="187.0,41.0 170.0,96.0 172.0,108.0 182.0,105.0 190.0,45.0" fill="#d30230" opacity="0.95" />
<polygon points="251.0,193.0 255.0,195.0 314.0,192.0 255.0,189.0" fill="#c38a64" />
<polygon points="6.0,324.0 0.0,326.0 0.0,383.0 8.0,383.0 5.0,340.0 9.0,327.0" fill="#65443b" opacity="0.95" />
<polygon points="129.0,256.0 167.0,257.0 177.0,260.0 184.0,257.0 183.0,255.0" fill="#c38a64" />
<polygon points="107.0,128.0 109.0,126.0 146.0,126.0 148.0,128.0 146.0,130.0 109.0,130.0" fill="#996a5b" />
<polygon points="259.0,256.0 244.0,253.0 241.0,255.0 207.0,256.0 221.0,259.0" fill="#c38a64" />
<polygon points="138.0,247.0 138.0,252.0 141.0,254.0 181.0,254.0 184.0,252.0 184.0,244.0 181.0,242.0 142.0,242.0" fill="#65443b" opacity="0.95" />
<polygon points="129.0,192.0 126.0,190.0 84.0,192.0 121.0,194.0" fill="#c38a64" />
<polygon points="85.0,128.0 87.0,126.0 99.0,126.0 101.0,128.0 99.0,130.0 87.0,130.0" fill="#996a5b" />
<polygon points="271.0,256.0 273.0,254.0 284.0,254.0 286.0,256.0 284.0,258.0 273.0,258.0" fill="#996a5b" />
<polygon points="113.0,256.0 115.0,254.0 123.0,254.0 125.0,256.0 123.0,258.0 115.0,258.0" fill="#996a5b" />
<polygon points="86.0,128.0 87.0,129.0 99.0,129.0 100.0,128.0 99.0,127.0 87.0,127.0" fill="#c38a64" />
<polygon points="298.0,128.0 300.0,126.0 301.0,127.0 302.0,126.0 309.0,126.0 311.0,128.0 309.0,130.0 302.0,130.0 301.0,129.0 300.0,130.0" fill="#996a5b" />
<polygon points="272.0,256.0 273.0,257.0 284.0,257.0 285.0,256.0 284.0,255.0 273.0,255.0" fill="#c38a64" />
<polygon points="169.0,256.0 169.0,258.0 171.0,259.0 176.0,259.0 177.0,260.0 183.0,258.0 183.0,256.0 181.0,255.0 171.0,255.0" fill="#c38a64" opacity="0.95" />
<polygon points="114.0,256.0 115.0,257.0 123.0,257.0 124.0,256.0 123.0,255.0 115.0,255.0" fill="#c38a64" />
<polygon points="299.0,128.0 300.0,129.0 301.0,128.0 302.0,129.0 309.0,129.0 310.0,128.0 309.0,127.0 302.0,127.0 301.0,128.0 300.0,127.0" fill="#c38a64" />
<polygon points="256.0,190.0 254.0,190.0 252.0,191.0 252.0,194.0 254.0,195.0 257.0,194.0 258.0,193.0 258.0,191.0" fill="#c38a64" opacity="0.95" />
</svg>