<svg xmlns="http://www.w3.org/2000/svg" width="768" height="768" viewBox="0 0 384 384">
<rect width="384" height="384" fill="#7f616f"/>
<polygon points="247.0,0.0 361.0,257.0 262.0,280.0 247.0,180.0 218.0,315.0 383.0,383.0 383.0,154.0 310.0,189.0 383.0,0.0" fill="#5a3a63" />
<polygon points="248.0,0.0 326.0,57.0 235.0,106.0 308.0,203.0 209.0,228.0 284.0,296.0 218.0,315.0 383.0,383.0 383.0,156.0 298.0,185.0 383.0,151.0 383.0,0.0" fill="#5a3a63" opacity="0.95" />
<polygon points="7.0,168.0 0.0,383.0 122.0,383.0 97.0,341.0 153.0,383.0 81.0,276.0 11.0,281.0 51.0,212.0" fill="#5a3a63" />
<polygon points="129.0,0.0 0.0,0.0 5.0,161.0 40.0,160.0 7.0,145.0 9.0,111.0 34.0,118.0 18.0,140.0 109.0,61.0 72.0,29.0 137.0,56.0 104.0,21.0" fill="#5a3a63" />
<polygon points="215.0,285.0 193.0,282.0 185.0,295.0 160.0,296.0 154.0,383.0 209.0,383.0 218.0,327.0" fill="#0d1a20" />
<polygon points="248.0,0.0 295.0,26.0 283.0,71.0 326.0,54.0 235.0,110.0 332.0,249.0 383.0,156.0 369.0,197.0 298.0,178.0 383.0,152.0 383.0,0.0" fill="#5a3a63" opacity="0.95" />
<polygon points="5.0,170.0 0.0,383.0 122.0,383.0 95.0,343.0 153.0,339.0 67.0,270.0 40.0,301.0 44.0,258.0 3.0,269.0 51.0,215.0" fill="#5a3a63" opacity="0.95" />
<polygon points="128.0,0.0 0.0,0.0 4.0,160.0 40.0,161.0 8.0,112.0 40.0,97.0 19.0,139.0 108.0,62.0 72.0,29.0 132.0,45.0 104.0,24.0" fill="#5a3a63" opacity="0.95" />
<polygon points="232.0,152.0 206.0,180.0 195.0,148.0 183.0,179.0 161.0,157.0 169.0,184.0 140.0,184.0 164.0,205.0 131.0,222.0 202.0,230.0 247.0,201.0 221.0,204.0 215.0,190.0" fill="#95e4d8" />
<polygon points="216.0,286.0 193.0,283.0 184.0,295.0 160.0,296.0 154.0,383.0 209.0,383.0 217.0,338.0" fill="#0d1a20" opacity="0.95" />
<polygon points="0.0,3.0 5.0,159.0 40.0,160.0 2.0,137.0 29.0,94.0 55.0,123.0 100.0,80.0 112.0,121.0 144.0,106.0 134.0,70.0 114.0,88.0 69.0,35.0 128.0,0.0" fill="#5a3a63" opacity="0.95" />
<polygon points="0.0,265.0 0.0,349.0 25.0,345.0 0.0,383.0 122.0,383.0 95.0,344.0 153.0,350.0 86.0,327.0 70.0,272.0 43.0,302.0 45.0,260.0 24.0,286.0" fill="#5a3a63" opacity="0.95" />
<polygon points="383.0,224.0 358.0,233.0 352.0,289.0 336.0,264.0 311.0,286.0 258.0,281.0 249.0,302.0 284.0,296.0 258.0,322.0 314.0,316.0 267.0,348.0 288.0,370.0 263.0,383.0 383.0,383.0" fill="#5a3a63" opacity="0.95" />
<polygon points="215.0,286.0 194.0,283.0 183.0,295.0 160.0,297.0 154.0,383.0 209.0,383.0 217.0,338.0" fill="#0d1a20" opacity="0.95" />
<polygon points="231.0,151.0 205.0,180.0 194.0,148.0 182.0,179.0 160.0,158.0 168.0,184.0 140.0,185.0 164.0,205.0 131.0,222.0 202.0,230.0 249.0,200.0 219.0,201.0" fill="#95e4d8" opacity="0.95" />
<polygon points="231.0,152.0 204.0,180.0 195.0,149.0 181.0,178.0 162.0,158.0 168.0,182.0 140.0,184.0 164.0,204.0 131.0,222.0 202.0,230.0 247.0,201.0 216.0,192.0" fill="#95e4d8" opacity="0.95" />
<polygon points="167.0,231.0 160.0,240.0 170.0,253.0 164.0,260.0 176.0,269.0 183.0,284.0 184.0,242.0 172.0,244.0 173.0,233.0" fill="#f1ae89" />
<polygon points="118.0,258.0 113.0,251.0 105.0,248.0 101.0,253.0 86.0,259.0 92.0,269.0 116.0,262.0" fill="#fcc012" />
<polygon points="83.0,243.0 59.0,244.0 61.0,258.0 55.0,261.0 51.0,255.0 47.0,258.0 48.0,264.0 62.0,264.0 78.0,258.0 77.0,250.0" fill="#fcc012" />
<polygon points="274.0,92.0 262.0,81.0 249.0,93.0 248.0,97.0 253.0,100.0" fill="#20655a" />
<polygon points="204.0,230.0 192.0,235.0 196.0,277.0 205.0,270.0 211.0,284.0 213.0,270.0 205.0,258.0 209.0,250.0 200.0,254.0 195.0,241.0 211.0,234.0" fill="#f1ae89" />
<polygon points="167.0,232.0 161.0,238.0 163.0,247.0 170.0,253.0 165.0,261.0 182.0,277.0 184.0,242.0 171.0,243.0 172.0,233.0" fill="#f1ae89" opacity="0.95" />
<polygon points="209.0,147.0 209.0,151.0 212.0,154.0 219.0,155.0 224.0,147.0 230.0,150.0 234.0,149.0 219.0,138.0" fill="#20a26f" />
<polygon points="216.0,0.0 207.0,0.0 205.0,3.0 204.0,12.0 208.0,16.0 211.0,16.0 220.0,10.0" fill="#8d9e2b" />
<polygon points="166.0,263.0 164.0,283.0 174.0,282.0 179.0,284.0 184.0,293.0 185.0,288.0 181.0,283.0 182.0,279.0 175.0,273.0 175.0,269.0" fill="#f8daa7" />
<polygon points="260.0,57.0 261.0,70.0 275.0,73.0 270.0,77.0 271.0,87.0 282.0,89.0 284.0,84.0 275.0,85.0 272.0,81.0 279.0,76.0 278.0,69.0 270.0,59.0" fill="#e93b8c" />
<polygon points="118.0,258.0 114.0,252.0 106.0,248.0 99.0,254.0 87.0,257.0 92.0,269.0 116.0,262.0" fill="#fcc012" opacity="0.95" />
<polygon points="82.0,178.0 71.0,187.0 78.0,191.0 77.0,195.0 80.0,200.0 86.0,201.0 87.0,192.0 85.0,190.0 84.0,179.0" fill="#e93b8c" />
<polygon points="358.0,65.0 351.0,68.0 348.0,84.0 349.0,88.0 355.0,88.0 361.0,82.0 358.0,77.0 358.0,73.0 361.0,70.0" fill="#20a26f" />
<polygon points="273.0,321.0 263.0,325.0 258.0,330.0 258.0,333.0 267.0,344.0 271.0,341.0 267.0,333.0 276.0,326.0" fill="#bfe1c6" />
<polygon points="198.0,142.0 208.0,147.0 209.0,144.0 217.0,137.0 200.0,136.0" fill="#bfe1c6" />
<polygon points="319.0,265.0 308.0,274.0 303.0,272.0 300.0,276.0 303.0,280.0 306.0,277.0 308.0,279.0 307.0,282.0 312.0,285.0 324.0,272.0" fill="#fcc012" />
<polygon points="99.0,157.0 102.0,165.0 109.0,167.0 108.0,172.0 116.0,165.0 121.0,165.0 125.0,170.0 129.0,166.0 126.0,161.0 119.0,161.0 114.0,157.0" fill="#e93b8c" />
<polygon points="82.0,244.0 58.0,245.0 60.0,259.0 56.0,261.0 51.0,255.0 47.0,257.0 48.0,264.0 62.0,264.0 78.0,258.0 78.0,248.0" fill="#fcc012" opacity="0.95" />
<polygon points="167.0,232.0 161.0,238.0 163.0,247.0 169.0,252.0 165.0,261.0 181.0,276.0 184.0,274.0 183.0,243.0 173.0,243.0 172.0,234.0" fill="#f1ae89" opacity="0.95" />
<polygon points="248.0,208.0 247.0,212.0 261.0,219.0 267.0,221.0 270.0,216.0 269.0,214.0" fill="#f1e9e5" />
<polygon points="162.0,289.0 163.0,293.0 180.0,293.0 181.0,292.0 181.0,287.0 174.0,283.0 170.0,283.0 168.0,285.0 165.0,285.0" fill="#f1e9e5" />
<polygon points="163.0,202.0 160.0,201.0 157.0,203.0 155.0,201.0 155.0,196.0 150.0,199.0 140.0,211.0 161.0,206.0" fill="#e93b8c" />
<polygon points="135.0,18.0 131.0,16.0 127.0,16.0 125.0,18.0 119.0,17.0 116.0,22.0 121.0,28.0 126.0,28.0 133.0,26.0 137.0,22.0" fill="#8d9e2b" />
<polygon points="289.0,316.0 288.0,322.0 290.0,328.0 292.0,330.0 299.0,329.0 300.0,325.0 296.0,315.0" fill="#bfe1c6" />
<polygon points="198.0,156.0 199.0,161.0 211.0,166.0 216.0,160.0 199.0,155.0" fill="#f67ab4" />
<polygon points="220.0,236.0 216.0,237.0 212.0,234.0 201.0,247.0 197.0,246.0 198.0,251.0 204.0,253.0 210.0,244.0" fill="#f8daa7" />
<polygon points="210.0,38.0 213.0,43.0 228.0,49.0 231.0,48.0 229.0,43.0 215.0,38.0" fill="#f1e9e5" />
<polygon points="27.0,132.0 18.0,141.0 18.0,146.0 21.0,149.0 25.0,148.0 29.0,142.0 29.0,136.0" fill="#20655a" />
<polygon points="196.0,64.0 195.0,63.0 189.0,63.0 187.0,65.0 184.0,65.0 180.0,70.0 180.0,73.0 186.0,76.0 195.0,68.0" fill="#e93b8c" />
<polygon points="346.0,308.0 356.0,318.0 362.0,320.0 367.0,319.0 366.0,315.0 363.0,312.0 354.0,308.0" fill="#f7add0" />
<polygon points="95.0,247.0 93.0,246.0 81.0,248.0 79.0,250.0 80.0,256.0 84.0,257.0 87.0,255.0 95.0,254.0 96.0,253.0" fill="#bfe1c6" />
<polygon points="74.0,108.0 70.0,113.0 70.0,115.0 74.0,120.0 81.0,122.0 84.0,119.0 84.0,117.0" fill="#bfe1c6" />
<polygon points="346.0,245.0 344.0,249.0 347.0,254.0 352.0,258.0 357.0,257.0 358.0,254.0 356.0,246.0" fill="#fcc012" />
<polygon points="106.0,33.0 100.0,32.0 100.0,39.0 94.0,42.0 93.0,46.0 96.0,52.0 102.0,51.0 105.0,47.0 103.0,40.0 108.0,38.0" fill="#20655a" />
<polygon points="204.0,74.0 186.0,85.0 188.0,88.0 191.0,87.0 193.0,89.0 194.0,98.0 198.0,92.0 195.0,85.0 205.0,78.0" fill="#e93b8c" />
<polygon points="53.0,187.0 45.0,195.0 46.0,200.0 48.0,202.0 53.0,199.0 56.0,195.0" fill="#20a26f" />
<polygon points="151.0,84.0 154.0,86.0 158.0,82.0 168.0,80.0 173.0,84.0 174.0,92.0 181.0,95.0 184.0,93.0 184.0,88.0 179.0,89.0 178.0,81.0 170.0,75.0 161.0,76.0" fill="#20655a" />
<polygon points="118.0,258.0 107.0,248.0 99.0,254.0 88.0,257.0 87.0,260.0 89.0,265.0 95.0,268.0 115.0,262.0" fill="#fcc012" opacity="0.95" />
<polygon points="141.0,265.0 139.0,269.0 143.0,276.0 140.0,281.0 142.0,283.0 146.0,283.0 149.0,278.0 147.0,274.0 152.0,268.0 150.0,266.0" fill="#e93b8c" />
<polygon points="359.0,224.0 359.0,227.0 361.0,229.0 370.0,231.0 375.0,230.0 375.0,226.0 372.0,222.0 361.0,221.0" fill="#bfe1c6" />
<polygon points="45.0,121.0 41.0,129.0 46.0,135.0 48.0,134.0 55.0,143.0 58.0,140.0 54.0,132.0 45.0,127.0" fill="#fcc012" />
<polygon points="317.0,352.0 311.0,350.0 305.0,356.0 304.0,360.0 308.0,364.0 310.0,364.0 318.0,354.0" fill="#bfe1c6" />
<polygon points="206.0,64.0 203.0,62.0 193.0,73.0 185.0,79.0 185.0,81.0 188.0,82.0 196.0,75.0 201.0,73.0 206.0,68.0" fill="#f8daa7" />
<polygon points="140.0,33.0 139.0,36.0 143.0,40.0 144.0,45.0 148.0,48.0 148.0,51.0 154.0,51.0 156.0,49.0 156.0,44.0 152.0,43.0 150.0,41.0 151.0,38.0 144.0,32.0" fill="#20655a" />
<polygon points="78.0,246.0 60.0,244.0 58.0,250.0 61.0,258.0 57.0,261.0 50.0,256.0 48.0,263.0 62.0,264.0 78.0,258.0" fill="#fcc012" opacity="0.95" />
<polygon points="272.0,90.0 265.0,82.0 259.0,82.0 256.0,89.0 249.0,93.0 249.0,98.0 253.0,100.0 272.0,92.0" fill="#20655a" opacity="0.95" />
<polygon points="165.0,265.0 164.0,283.0 181.0,283.0 181.0,278.0 176.0,275.0 175.0,269.0 168.0,264.0" fill="#f8daa7" opacity="0.95" />
<polygon points="334.0,312.0 335.0,318.0 337.0,320.0 341.0,320.0 349.0,323.0 351.0,321.0 346.0,313.0 339.0,311.0" fill="#bfe1c6" />
<polygon points="290.0,74.0 286.0,73.0 274.0,79.0 273.0,81.0 275.0,84.0 285.0,84.0 285.0,80.0 290.0,76.0" fill="#f67ab4" />
<polygon points="362.0,161.0 353.0,169.0 352.0,171.0 354.0,174.0 361.0,174.0 367.0,167.0 363.0,164.0" fill="#20655a" />
<polygon points="202.0,271.0 199.0,275.0 198.0,281.0 200.0,283.0 207.0,283.0 208.0,282.0 208.0,274.0 205.0,271.0" fill="#f8daa7" />
<polygon points="282.0,294.0 274.0,292.0 278.0,298.0 272.0,302.0 262.0,303.0 260.0,305.0 261.0,309.0 265.0,310.0 276.0,304.0 283.0,298.0" fill="#20655a" />
<polygon points="234.0,239.0 229.0,250.0 233.0,259.0 237.0,263.0 241.0,262.0 243.0,259.0 235.0,256.0 235.0,245.0 237.0,241.0" fill="#e93b8c" />
<polygon points="209.0,147.0 209.0,151.0 213.0,154.0 220.0,153.0 225.0,147.0 230.0,150.0 234.0,149.0 234.0,147.0 219.0,138.0" fill="#20a26f" opacity="0.95" />
<polygon points="39.0,189.0 46.0,193.0 53.0,185.0 57.0,188.0 60.0,186.0 60.0,184.0 54.0,183.0 52.0,185.0 50.0,183.0 42.0,181.0 39.0,184.0" fill="#bfe1c6" />
<polygon points="205.0,2.0 204.0,12.0 207.0,15.0 210.0,16.0 220.0,10.0 216.0,0.0 207.0,0.0" fill="#8d9e2b" opacity="0.95" />
<polygon points="357.0,65.0 351.0,68.0 348.0,87.0 354.0,88.0 360.0,83.0 360.0,78.0 358.0,77.0 360.0,67.0" fill="#20a26f" opacity="0.95" />
<polygon points="88.0,143.0 85.0,148.0 85.0,150.0 88.0,152.0 94.0,152.0 96.0,150.0 96.0,145.0 93.0,143.0" fill="#f67ab4" />
<polygon points="371.0,150.0 367.0,154.0 366.0,158.0 367.0,159.0 376.0,160.0 380.0,155.0 380.0,153.0 378.0,151.0" fill="#bfe1c6" />
<polygon points="195.0,253.0 198.0,264.0 197.0,271.0 205.0,270.0 209.0,274.0 213.0,274.0 212.0,266.0 206.0,261.0 205.0,255.0" fill="#f1ae89" opacity="0.95" />
<polygon points="314.0,108.0 312.0,106.0 304.0,105.0 301.0,107.0 296.0,107.0 295.0,112.0 297.0,114.0 303.0,112.0 311.0,112.0 314.0,110.0" fill="#f1e9e5" />
<polygon points="162.0,292.0 164.0,293.0 181.0,292.0 181.0,287.0 174.0,283.0 163.0,286.0" fill="#f1e9e5" opacity="0.95" />
<polygon points="100.0,158.0 103.0,165.0 111.0,169.0 117.0,165.0 125.0,169.0 128.0,167.0 127.0,162.0 119.0,161.0 113.0,157.0" fill="#e93b8c" opacity="0.95" />
<polygon points="214.0,364.0 211.0,373.0 211.0,379.0 212.0,380.0 215.0,380.0 218.0,378.0 218.0,370.0 220.0,367.0" fill="#e93b8c" />
<polygon points="323.0,270.0 318.0,266.0 307.0,274.0 301.0,274.0 301.0,278.0 307.0,279.0 308.0,283.0 311.0,285.0 323.0,273.0" fill="#fcc012" opacity="0.95" />
<polygon points="231.0,287.0 230.0,290.0 224.0,296.0 225.0,297.0 235.0,298.0 236.0,296.0" fill="#20a26f" />
<polygon points="59.0,123.0 58.0,124.0 58.0,133.0 60.0,135.0 66.0,135.0 68.0,132.0 68.0,130.0 63.0,125.0 61.0,125.0" fill="#20655a" />
<polygon points="127.0,246.0 143.0,258.0 144.0,255.0 138.0,252.0 132.0,245.0" fill="#f67ab4" />
<polygon points="286.0,93.0 283.0,91.0 280.0,92.0 275.0,99.0 273.0,99.0 270.0,103.0 267.0,102.0 266.0,105.0 272.0,107.0 284.0,98.0" fill="#fbd97c" />
<polygon points="219.0,193.0 219.0,195.0 226.0,200.0 232.0,197.0 231.0,195.0 225.0,192.0 220.0,192.0" fill="#f1e9e5" />
<polygon points="215.0,244.0 212.0,246.0 206.0,257.0 207.0,261.0 210.0,264.0 213.0,262.0 212.0,251.0 216.0,245.0" fill="#e38a6a" />
<polygon points="151.0,133.0 147.0,134.0 148.0,137.0 146.0,139.0 144.0,138.0 141.0,139.0 142.0,146.0 144.0,148.0 149.0,145.0 153.0,139.0 153.0,135.0" fill="#20655a" />
<polygon points="187.0,234.0 185.0,232.0 174.0,234.0 174.0,237.0 171.0,240.0 175.0,240.0 181.0,236.0 185.0,242.0 185.0,246.0 187.0,243.0" fill="#e38a6a" />
<polygon points="115.0,174.0 112.0,176.0 112.0,182.0 116.0,185.0 119.0,183.0 120.0,180.0 118.0,176.0" fill="#f67ab4" />
<polygon points="332.0,55.0 330.0,58.0 330.0,62.0 335.0,68.0 339.0,69.0 340.0,67.0 337.0,64.0 337.0,56.0 336.0,55.0" fill="#f1e9e5" />
<polygon points="205.0,3.0 204.0,12.0 209.0,16.0 220.0,10.0 216.0,0.0 207.0,0.0" fill="#8d9e2b" opacity="0.95" />
<polygon points="19.0,32.0 20.0,35.0 26.0,38.0 30.0,38.0 32.0,36.0 22.0,30.0" fill="#fbd97c" />
<polygon points="136.0,20.0 131.0,16.0 125.0,18.0 120.0,17.0 117.0,19.0 117.0,23.0 120.0,27.0 126.0,28.0 134.0,25.0" fill="#8d9e2b" opacity="0.95" />
<polygon points="279.0,320.0 278.0,323.0 280.0,326.0 286.0,330.0 288.0,327.0 287.0,323.0 282.0,320.0" fill="#f67ab4" />
<polygon points="219.0,138.0 210.0,145.0 209.0,151.0 213.0,154.0 220.0,153.0 222.0,149.0 226.0,146.0 226.0,143.0" fill="#20a26f" opacity="0.95" />
<polygon points="232.0,92.0 227.0,96.0 226.0,102.0 228.0,104.0 232.0,104.0 234.0,102.0 233.0,101.0 233.0,98.0 236.0,94.0" fill="#fbd97c" />
<polygon points="155.0,291.0 153.0,292.0 154.0,295.0 150.0,298.0 153.0,301.0 150.0,304.0 151.0,305.0 159.0,300.0 159.0,295.0" fill="#e38a6a" />
<polygon points="357.0,65.0 351.0,68.0 348.0,86.0 351.0,88.0 356.0,87.0 360.0,83.0 360.0,79.0 358.0,77.0 360.0,67.0" fill="#20a26f" opacity="0.95" />
<polygon points="121.0,52.0 116.0,57.0 108.0,57.0 112.0,60.0 111.0,64.0 113.0,67.0 117.0,66.0 118.0,60.0 120.0,58.0 124.0,58.0 121.0,55.0" fill="#f8bb5c" />
<polygon points="248.0,210.0 249.0,214.0 266.0,220.0 269.0,218.0 269.0,215.0 251.0,209.0" fill="#f1e9e5" opacity="0.95" />
<polygon points="116.0,166.0 108.0,173.0 106.0,184.0 109.0,186.0 112.0,185.0 111.0,176.0 115.0,172.0 114.0,170.0 117.0,167.0" fill="#8d4872" />
<polygon points="348.0,336.0 346.0,338.0 346.0,340.0 352.0,347.0 354.0,348.0 357.0,346.0 356.0,342.0 351.0,337.0" fill="#fbd97c" />
<polygon points="355.0,236.0 351.0,231.0 349.0,231.0 348.0,232.0 343.0,232.0 340.0,235.0 342.0,237.0 354.0,237.0" fill="#fbd97c" />
<polygon points="78.0,172.0 74.0,171.0 60.0,181.0 63.0,184.0 58.0,189.0 65.0,187.0 62.0,183.0 67.0,177.0 73.0,178.0 79.0,174.0" fill="#6a7d7b" />
<polygon points="90.0,29.0 86.0,30.0 87.0,35.0 85.0,37.0 82.0,36.0 80.0,38.0 80.0,45.0 84.0,43.0 89.0,35.0 94.0,34.0" fill="#fbd97c" />
<polygon points="164.0,97.0 163.0,96.0 158.0,97.0 154.0,100.0 152.0,100.0 151.0,102.0 154.0,106.0 160.0,103.0 159.0,102.0" fill="#f8bb5c" />
<polygon points="69.0,262.0 68.0,263.0 69.0,266.0 72.0,269.0 75.0,270.0 77.0,268.0 77.0,264.0 73.0,262.0" fill="#f67ab4" />
<polygon points="166.0,265.0 164.0,282.0 167.0,284.0 170.0,282.0 177.0,284.0 180.0,283.0 181.0,278.0 175.0,273.0 175.0,269.0 168.0,264.0" fill="#f8daa7" opacity="0.95" />
<polygon points="15.0,75.0 13.0,77.0 12.0,80.0 15.0,83.0 18.0,83.0 21.0,80.0 21.0,78.0 18.0,75.0" fill="#f1e9e5" />
<polygon points="196.0,254.0 195.0,259.0 198.0,264.0 198.0,269.0 201.0,271.0 211.0,271.0 212.0,267.0 206.0,261.0 205.0,256.0 199.0,253.0" fill="#f1ae89" opacity="0.95" />
<polygon points="217.0,237.0 213.0,235.0 209.0,237.0 204.0,245.0 198.0,248.0 198.0,251.0 201.0,253.0 205.0,252.0" fill="#f8daa7" opacity="0.95" />
<polygon points="347.0,309.0 347.0,311.0 355.0,317.0 362.0,320.0 366.0,319.0 366.0,315.0 363.0,312.0 354.0,308.0" fill="#f7add0" opacity="0.95" />
<polygon points="102.0,285.0 102.0,291.0 103.0,292.0 104.0,291.0 107.0,293.0 111.0,290.0 109.0,288.0 110.0,286.0 109.0,284.0 103.0,284.0" fill="#f67ab4" />
<polygon points="135.0,306.0 134.0,309.0 136.0,311.0 134.0,314.0 136.0,316.0 139.0,314.0 142.0,315.0 144.0,313.0 144.0,311.0 138.0,306.0" fill="#fbd97c" />
<polygon points="206.0,64.0 202.0,64.0 188.0,76.0 185.0,81.0 188.0,82.0 196.0,75.0 201.0,73.0 206.0,68.0" fill="#f8daa7" opacity="0.95" />
<polygon points="248.0,307.0 248.0,310.0 250.0,313.0 253.0,314.0 259.0,314.0 260.0,313.0 258.0,309.0 256.0,309.0 252.0,306.0 249.0,306.0" fill="#fbd97c" />
<polygon points="336.0,179.0 337.0,180.0 339.0,179.0 344.0,179.0 347.0,177.0 347.0,175.0 345.0,173.0 339.0,173.0 337.0,175.0" fill="#f67ab4" />
<polygon points="238.0,92.0 234.0,98.0 234.0,101.0 235.0,102.0 238.0,102.0 241.0,100.0 240.0,94.0" fill="#f8daa7" />
<polygon points="227.0,330.0 219.0,336.0 219.0,339.0 221.0,341.0 225.0,336.0 226.0,337.0 229.0,336.0 229.0,332.0" fill="#f8bb5c" />
<polygon points="89.0,163.0 89.0,166.0 92.0,169.0 96.0,169.0 98.0,167.0 96.0,165.0 96.0,162.0 95.0,161.0 92.0,161.0" fill="#f1e9e5" />
<polygon points="36.0,322.0 35.0,322.0 32.0,325.0 32.0,327.0 31.0,328.0 31.0,333.0 32.0,334.0 36.0,334.0 37.0,333.0 38.0,324.0" fill="#f7add0" />
<polygon points="358.0,178.0 357.0,179.0 365.0,187.0 366.0,190.0 369.0,193.0 371.0,193.0 372.0,192.0 371.0,189.0 360.0,178.0" fill="#fbd97c" />
<polygon points="364.0,160.0 364.0,164.0 369.0,166.0 374.0,166.0 376.0,162.0 375.0,161.0 369.0,161.0 365.0,159.0" fill="#20a26f" />
<polygon points="237.0,52.0 243.0,58.0 248.0,58.0 250.0,55.0 249.0,54.0 245.0,54.0 240.0,51.0 238.0,51.0" fill="#20a26f" />
<polygon points="71.0,300.0 63.0,307.0 63.0,309.0 61.0,311.0 63.0,313.0 69.0,307.0 72.0,306.0 71.0,304.0 72.0,301.0" fill="#f67ab4" />
<polygon points="371.0,343.0 373.0,348.0 383.0,349.0 383.0,344.0 382.0,343.0 381.0,344.0 380.0,343.0 373.0,343.0 372.0,342.0" fill="#f7add0" />
<polygon points="39.0,218.0 36.0,220.0 37.0,228.0 38.0,229.0 40.0,229.0 41.0,228.0 41.0,220.0" fill="#f7add0" />
<polygon points="207.0,272.0 203.0,271.0 200.0,273.0 198.0,278.0 198.0,282.0 200.0,283.0 208.0,282.0 208.0,274.0" fill="#f8daa7" opacity="0.95" />
<polygon points="285.0,222.0 285.0,226.0 286.0,227.0 289.0,227.0 293.0,224.0 295.0,226.0 298.0,225.0 297.0,221.0 293.0,223.0 290.0,220.0 287.0,220.0" fill="#f7add0" />
<polygon points="136.0,20.0 131.0,16.0 125.0,18.0 120.0,17.0 117.0,19.0 117.0,23.0 120.0,27.0 126.0,28.0 134.0,25.0 136.0,23.0" fill="#8d9e2b" opacity="0.95" />
<polygon points="244.0,241.0 242.0,243.0 242.0,248.0 240.0,252.0 245.0,256.0 252.0,256.0 254.0,254.0 252.0,252.0 244.0,253.0 242.0,251.0 246.0,246.0 246.0,243.0" fill="#fbd97c" />
<polygon points="33.0,129.0 32.0,130.0 32.0,133.0 34.0,137.0 36.0,139.0 39.0,139.0 40.0,137.0 37.0,132.0 37.0,130.0 36.0,129.0" fill="#f7add0" />
<polygon points="122.0,202.0 120.0,202.0 118.0,204.0 118.0,206.0 116.0,208.0 113.0,209.0 113.0,212.0 114.0,213.0 116.0,213.0 121.0,209.0 123.0,206.0 123.0,203.0" fill="#f1ae89" />
<polygon points="249.0,353.0 248.0,354.0 248.0,356.0 256.0,363.0 257.0,362.0 256.0,361.0 256.0,359.0 258.0,357.0 256.0,355.0" fill="#f7add0" />
<polygon points="220.0,319.0 219.0,323.0 221.0,324.0 223.0,322.0 226.0,325.0 226.0,328.0 229.0,330.0 230.0,329.0 229.0,320.0 227.0,318.0 223.0,322.0" fill="#e38a6a" />
<polygon points="156.0,267.0 148.0,274.0 149.0,276.0 152.0,276.0 155.0,274.0 155.0,272.0 157.0,268.0" fill="#8d4872" />
<polygon points="108.0,326.0 104.0,332.0 104.0,335.0 105.0,336.0 108.0,335.0 110.0,332.0 110.0,330.0" fill="#f8bb5c" />
<polygon points="38.0,174.0 36.0,173.0 30.0,176.0 27.0,179.0 28.0,180.0 30.0,179.0 34.0,179.0 38.0,176.0" fill="#f8bb5c" />
<polygon points="245.0,75.0 243.0,77.0 241.0,76.0 240.0,77.0 243.0,81.0 243.0,84.0 244.0,85.0 247.0,83.0 247.0,78.0" fill="#f8bb5c" />
<polygon points="113.0,143.0 113.0,146.0 117.0,148.0 121.0,153.0 117.0,157.0 120.0,159.0 123.0,153.0" fill="#6a7d7b" />
<polygon points="131.0,347.0 129.0,347.0 126.0,350.0 126.0,352.0 125.0,353.0 125.0,354.0 130.0,358.0 132.0,356.0 131.0,354.0 131.0,350.0 132.0,348.0" fill="#f8bb5c" />
<polygon points="72.0,325.0 69.0,327.0 69.0,330.0 71.0,333.0 73.0,333.0 75.0,331.0 74.0,327.0" fill="#f8bb5c" />
<polygon points="72.0,374.0 72.0,375.0 76.0,378.0 77.0,381.0 80.0,380.0 83.0,377.0 82.0,375.0 78.0,376.0 75.0,373.0" fill="#f8bb5c" />
<polygon points="349.0,310.0 350.0,313.0 359.0,319.0 363.0,320.0 366.0,318.0 366.0,315.0 357.0,309.0 352.0,308.0" fill="#f7add0" opacity="0.95" />
<polygon points="287.0,272.0 285.0,272.0 282.0,275.0 282.0,278.0 283.0,279.0 285.0,279.0 288.0,276.0 288.0,275.0 289.0,274.0" fill="#e38a6a" />
<polygon points="288.0,159.0 286.0,159.0 282.0,163.0 282.0,166.0 283.0,167.0 285.0,167.0 288.0,164.0 288.0,163.0 289.0,162.0 289.0,160.0" fill="#f7add0" />
<polygon points="175.0,118.0 176.0,124.0 180.0,124.0 185.0,121.0 184.0,115.0 183.0,116.0 184.0,118.0 181.0,121.0 177.0,119.0 178.0,116.0 177.0,115.0" fill="#6a7d7b" />
<polygon points="141.0,148.0 140.0,147.0 135.0,148.0 133.0,151.0 134.0,152.0 135.0,151.0 137.0,151.0 140.0,153.0 141.0,152.0" fill="#e38a6a" />
<polygon points="136.0,208.0 134.0,208.0 132.0,210.0 132.0,212.0 135.0,214.0 138.0,211.0 138.0,210.0" fill="#f1ae89" />
<polygon points="14.0,280.0 16.0,283.0 20.0,280.0 24.0,283.0 26.0,281.0 25.0,278.0 20.0,278.0 19.0,279.0 16.0,278.0" fill="#f8bb5c" />
<polygon points="126.0,173.0 126.0,175.0 128.0,177.0 129.0,177.0 130.0,176.0 132.0,176.0 133.0,175.0 133.0,173.0 131.0,171.0 128.0,171.0" fill="#95b29d" />
<polygon points="174.0,235.0 174.0,238.0 176.0,239.0 180.0,237.0 185.0,241.0 187.0,240.0 187.0,234.0 185.0,233.0 182.0,234.0 179.0,233.0" fill="#e38a6a" opacity="0.95" />
<polygon points="207.0,97.0 203.0,101.0 205.0,103.0 209.0,99.0" fill="#8d4872" />
<polygon points="124.0,306.0 123.0,307.0 123.0,312.0 127.0,315.0 130.0,315.0 131.0,313.0 130.0,312.0 128.0,312.0 125.0,309.0 125.0,307.0" fill="#8d4872" />
<polygon points="98.0,147.0 97.0,148.0 97.0,151.0 95.0,153.0 95.0,154.0 98.0,156.0 99.0,155.0 100.0,151.0 102.0,149.0" fill="#8d4872" />
<polygon points="210.0,232.0 205.0,230.0 200.0,235.0 194.0,233.0 192.0,234.0 192.0,238.0 198.0,240.0 200.0,239.0 201.0,234.0 203.0,233.0 208.0,236.0 210.0,235.0" fill="#f1ae89" opacity="0.95" />
<polygon points="155.0,24.0 155.0,25.0 158.0,27.0 162.0,27.0 163.0,26.0 158.0,23.0 156.0,23.0" fill="#95e4d8" />
<polygon points="197.0,128.0 195.0,130.0 197.0,132.0 197.0,134.0 198.0,135.0 201.0,132.0" fill="#8d4872" />
<polygon points="255.0,82.0 256.0,83.0 258.0,81.0 260.0,81.0 261.0,80.0 259.0,78.0 256.0,78.0 255.0,79.0" fill="#6a7d7b" />
<polygon points="149.0,18.0 147.0,16.0 146.0,16.0 145.0,17.0 144.0,17.0 142.0,19.0 144.0,21.0 147.0,21.0" fill="#f1ae89" />
<polygon points="67.0,135.0 70.0,138.0 71.0,138.0 73.0,136.0 71.0,134.0 68.0,134.0" fill="#95b29d" />
<polygon points="319.0,132.0 317.0,132.0 314.0,135.0 316.0,137.0 318.0,137.0 320.0,135.0 320.0,133.0" fill="#e38a6a" />
<polygon points="102.0,117.0 95.0,124.0 95.0,126.0 96.0,127.0 97.0,126.0 99.0,126.0 100.0,127.0 101.0,126.0 100.0,125.0 100.0,122.0 103.0,118.0" fill="#6a7d7b" />
<polygon points="120.0,311.0 119.0,312.0 121.0,315.0 121.0,317.0 123.0,320.0 126.0,322.0 127.0,321.0 123.0,317.0 124.0,315.0 122.0,312.0" fill="#e38a6a" />
<polygon points="78.0,172.0 74.0,171.0 69.0,174.0 69.0,176.0 74.0,177.0 78.0,175.0" fill="#6a7d7b" opacity="0.95" />
<polygon points="310.0,144.0 309.0,144.0 307.0,146.0 307.0,147.0 309.0,150.0 311.0,148.0 311.0,145.0" fill="#95b29d" />
<polygon points="212.0,67.0 210.0,69.0 209.0,68.0 208.0,69.0 210.0,71.0 210.0,73.0 212.0,76.0 210.0,78.0 211.0,79.0 214.0,75.0 212.0,73.0 213.0,70.0" fill="#e38a6a" />
<polygon points="278.0,334.0 280.0,336.0 283.0,336.0 285.0,334.0 284.0,333.0 279.0,333.0" fill="#95e4d8" />
<polygon points="83.0,240.0 84.0,241.0 87.0,240.0 90.0,245.0 92.0,244.0 96.0,246.0 97.0,245.0 96.0,243.0 92.0,244.0 89.0,241.0 88.0,238.0 85.0,238.0" fill="#6a7d7b" />
<polygon points="183.0,117.0 182.0,116.0 180.0,116.0 178.0,118.0 178.0,119.0 179.0,120.0 181.0,120.0 183.0,118.0" fill="#95b29d" />
<polygon points="45.0,225.0 44.0,226.0 44.0,230.0 42.0,232.0 43.0,233.0 47.0,229.0 47.0,227.0" fill="#8d4872" />
<polygon points="133.0,173.0 129.0,171.0 126.0,173.0 126.0,176.0 129.0,177.0 133.0,175.0" fill="#95b29d" opacity="0.95" />
<polygon points="112.0,170.0 108.0,173.0 109.0,178.0 107.0,179.0 107.0,185.0 109.0,186.0 111.0,185.0 110.0,176.0 114.0,173.0 114.0,171.0" fill="#8d4872" opacity="0.95" />
<polygon points="229.0,257.0 228.0,258.0 228.0,260.0 230.0,262.0 232.0,262.0 233.0,261.0 232.0,260.0 232.0,259.0 230.0,257.0" fill="#6a7d7b" />
<polygon points="40.0,177.0 39.0,177.0 36.0,180.0 36.0,182.0 37.0,183.0 40.0,180.0 40.0,179.0 41.0,178.0" fill="#b56679" />
<polygon points="157.0,68.0 155.0,70.0 158.0,73.0 158.0,74.0 159.0,75.0 160.0,74.0 160.0,72.0 161.0,71.0 160.0,70.0 159.0,70.0" fill="#6a7d7b" />
<polygon points="310.0,154.0 309.0,153.0 307.0,155.0 305.0,155.0 303.0,154.0 302.0,156.0 304.0,158.0 307.0,157.0" fill="#6a7d7b" />
<polygon points="120.0,229.0 119.0,230.0 119.0,232.0 121.0,234.0 122.0,234.0 123.0,233.0 123.0,230.0 122.0,229.0" fill="#95b29d" />
<polygon points="61.0,324.0 60.0,325.0 61.0,326.0 61.0,327.0 66.0,332.0 67.0,331.0 66.0,330.0 66.0,329.0" fill="#8d4872" />
<polygon points="155.0,271.0 153.0,270.0 149.0,272.0 149.0,275.0 151.0,276.0 154.0,275.0 155.0,274.0" fill="#8d4872" opacity="0.95" />
<polygon points="218.0,381.0 217.0,380.0 216.0,380.0 215.0,381.0 212.0,381.0 211.0,382.0 211.0,383.0 218.0,383.0" fill="#b56679" />
<polygon points="129.0,171.0 126.0,173.0 126.0,175.0 129.0,177.0 132.0,175.0 132.0,173.0" fill="#95b29d" opacity="0.95" />
</svg>