<svg xmlns="http://www.w3.org/2000/svg" width="768" height="768" viewBox="0 0 384 384">
<rect width="384" height="384" fill="#82565b"/>
<polygon points="372.0,382.0 295.0,246.0 273.0,289.0 315.0,371.0 187.0,268.0 112.0,383.0 186.0,334.0 210.0,383.0 230.0,351.0 259.0,381.0" fill="#53262e" />
<polygon points="383.0,0.0 317.0,8.0 349.0,63.0 332.0,93.0 290.0,77.0 309.0,115.0 275.0,100.0 258.0,145.0 307.0,132.0 271.0,188.0 383.0,156.0" fill="#271d28" />
<polygon points="0.0,0.0 0.0,142.0 51.0,104.0 76.0,140.0 101.0,82.0 45.0,89.0 90.0,51.0 39.0,57.0 75.0,39.0 39.0,41.0 66.0,27.0 38.0,10.0 101.0,12.0" fill="#271d28" />
<polygon points="383.0,0.0 304.0,31.0 350.0,40.0 323.0,42.0 329.0,90.0 295.0,79.0 310.0,114.0 232.0,120.0 228.0,148.0 285.0,142.0 271.0,187.0 383.0,150.0" fill="#271d28" opacity="0.95" />
<polygon points="372.0,382.0 298.0,247.0 281.0,302.0 246.0,297.0 311.0,318.0 315.0,371.0 188.0,269.0 113.0,383.0 186.0,334.0 210.0,383.0 230.0,352.0" fill="#53262e" opacity="0.95" />
<polygon points="103.0,230.0 70.0,201.0 18.0,241.0 0.0,211.0 0.0,268.0 63.0,287.0 87.0,263.0 50.0,271.0 56.0,252.0 99.0,243.0" fill="#e9b7aa" />
<polygon points="165.0,278.0 102.0,308.0 117.0,251.0 87.0,287.0 0.0,302.0 23.0,336.0 4.0,353.0 100.0,285.0 37.0,333.0 124.0,312.0 116.0,363.0" fill="#a73e43" />
<polygon points="372.0,382.0 301.0,248.0 246.0,297.0 313.0,321.0 315.0,371.0 188.0,269.0 113.0,383.0 186.0,334.0 210.0,383.0 231.0,352.0" fill="#53262e" opacity="0.95" />
<polygon points="383.0,0.0 335.0,0.0 332.0,97.0 310.0,88.0 274.0,136.0 259.0,106.0 230.0,127.0 284.0,143.0 273.0,188.0 383.0,149.0" fill="#271d28" opacity="0.95" />
<polygon points="0.0,0.0 0.0,142.0 52.0,105.0 113.0,140.0 81.0,111.0 100.0,81.0 46.0,88.0 89.0,50.0 36.0,55.0 63.0,29.0 40.0,6.0 99.0,9.0" fill="#271d28" opacity="0.95" />
<polygon points="99.0,221.0 71.0,201.0 18.0,241.0 0.0,211.0 0.0,268.0 63.0,287.0 86.0,262.0 52.0,271.0 56.0,252.0 98.0,243.0" fill="#e9b7aa" opacity="0.95" />
<polygon points="164.0,277.0 100.0,307.0 116.0,252.0 86.0,287.0 0.0,302.0 22.0,334.0 73.0,301.0 38.0,334.0 96.0,311.0 110.0,362.0" fill="#a73e43" opacity="0.95" />
<polygon points="111.0,346.0 82.0,360.0 101.0,318.0 78.0,309.0 73.0,334.0 37.0,335.0 0.0,364.0 16.0,359.0 21.0,383.0 54.0,352.0 27.0,383.0 91.0,362.0 102.0,380.0" fill="#53262e" />
<polygon points="52.0,0.0 0.0,0.0 0.0,142.0 10.0,119.0 52.0,107.0 57.0,124.0 100.0,85.0 68.0,100.0 68.0,85.0 47.0,86.0 49.0,65.0 87.0,53.0 45.0,53.0" fill="#271d28" opacity="0.95" />
<polygon points="211.0,161.0 197.0,191.0 196.0,165.0 187.0,191.0 162.0,183.0 189.0,210.0 168.0,200.0 163.0,217.0 182.0,216.0 190.0,229.0 219.0,187.0" fill="#619dc4" />
<polygon points="305.0,232.0 303.0,285.0 329.0,294.0 332.0,312.0 355.0,299.0 383.0,321.0 361.0,293.0 372.0,247.0 350.0,240.0 355.0,273.0 332.0,265.0 310.0,284.0" fill="#a73e43" />
<polygon points="209.0,380.0 199.0,371.0 196.0,341.0 183.0,336.0 175.0,350.0 160.0,354.0 151.0,369.0 140.0,370.0 136.0,379.0 126.0,383.0" fill="#271d28" />
<polygon points="140.0,239.0 63.0,249.0 49.0,269.0" fill="#f4ebe5" />
<polygon points="164.0,279.0 102.0,308.0 116.0,252.0 85.0,287.0 0.0,302.0 0.0,321.0 22.0,334.0 74.0,301.0 128.0,364.0 132.0,316.0" fill="#a73e43" opacity="0.95" />
<polygon points="111.0,346.0 89.0,325.0 99.0,314.0 79.0,309.0 73.0,334.0 37.0,335.0 0.0,364.0 18.0,360.0 21.0,383.0 70.0,362.0 103.0,376.0" fill="#53262e" opacity="0.95" />
<polygon points="218.0,254.0 227.0,287.0 277.0,354.0" fill="#f4ebe5" />
<polygon points="100.0,224.0 71.0,201.0 18.0,241.0 0.0,211.0 0.0,268.0 63.0,287.0 86.0,263.0 55.0,271.0 56.0,252.0 74.0,232.0 79.0,247.0 98.0,243.0" fill="#e9b7aa" opacity="0.95" />
<polygon points="270.0,142.0 248.0,158.0 201.0,224.0" fill="#f4ebe5" />
<polygon points="60.0,140.0 41.0,130.0 42.0,144.0 16.0,142.0 23.0,153.0 0.0,164.0 20.0,168.0 0.0,171.0 0.0,196.0 27.0,194.0 30.0,178.0 8.0,182.0 28.0,173.0 23.0,160.0 43.0,168.0 38.0,180.0 51.0,172.0" fill="#53262e" />
<polygon points="102.0,149.0 124.0,161.0 114.0,163.0 186.0,209.0" fill="#f4ebe5" />
<polygon points="99.0,314.0 79.0,309.0 73.0,334.0 58.0,342.0 37.0,335.0 7.0,359.0 28.0,383.0 85.0,359.0 103.0,375.0 111.0,346.0 90.0,326.0" fill="#53262e" opacity="0.95" />
<polygon points="39.0,383.0 100.0,383.0 100.0,375.0 91.0,363.0 83.0,369.0 76.0,363.0 69.0,363.0 58.0,367.0" fill="#271d28" />
<polygon points="219.0,175.0 206.0,190.0 191.0,167.0 188.0,190.0 164.0,181.0 184.0,207.0 172.0,204.0 163.0,217.0 182.0,216.0 191.0,227.0 216.0,198.0" fill="#619dc4" opacity="0.95" />
<polygon points="374.0,247.0 370.0,256.0 363.0,257.0 372.0,271.0 364.0,267.0 360.0,271.0 369.0,285.0 362.0,293.0 383.0,314.0 383.0,250.0" fill="#53262e" />
<polygon points="209.0,380.0 199.0,371.0 196.0,341.0 187.0,336.0 176.0,349.0 160.0,354.0 151.0,369.0 139.0,371.0 126.0,383.0" fill="#271d28" opacity="0.95" />
<polygon points="367.0,244.0 349.0,242.0 358.0,245.0 352.0,269.0 302.0,280.0 329.0,297.0 329.0,310.0 356.0,300.0 373.0,309.0 358.0,275.0" fill="#a73e43" opacity="0.95" />
<polygon points="252.0,284.0 245.0,295.0 268.0,330.0 275.0,319.0 272.0,313.0 287.0,308.0 280.0,301.0 273.0,304.0 263.0,285.0 257.0,288.0" fill="#53262e" />
<polygon points="354.0,248.0 334.0,241.0 329.0,247.0 317.0,234.0 314.0,246.0 321.0,244.0 327.0,254.0 315.0,254.0 306.0,279.0 313.0,283.0 315.0,273.0 321.0,279.0 332.0,264.0 339.0,272.0 353.0,260.0" fill="#cb6a61" />
<polygon points="50.0,293.0 26.0,283.0 14.0,292.0 0.0,288.0 0.0,301.0 12.0,300.0 29.0,305.0 43.0,301.0" fill="#cb6a61" />
<polygon points="258.0,97.0 257.0,106.0 250.0,108.0 250.0,120.0 245.0,121.0 238.0,140.0 241.0,145.0 247.0,141.0 248.0,147.0 269.0,125.0" fill="#271d28" />
<polygon points="137.0,269.0 121.0,277.0 119.0,273.0 111.0,273.0 117.0,279.0 112.0,287.0 115.0,292.0 102.0,307.0 115.0,309.0 129.0,305.0 137.0,297.0 140.0,289.0 135.0,282.0" fill="#53262e" />
<polygon points="180.0,233.0 156.0,248.0 156.0,240.0 141.0,245.0 136.0,267.0 140.0,269.0 169.0,244.0 155.0,270.0 174.0,249.0" fill="#67424c" />
<polygon points="107.0,213.0 125.0,222.0 114.0,226.0 120.0,239.0 143.0,235.0 132.0,222.0 139.0,214.0" fill="#98676d" />
<polygon points="86.0,160.0 60.0,162.0 57.0,175.0 44.0,174.0 41.0,184.0 32.0,177.0 33.0,192.0 13.0,199.0 24.0,206.0 33.0,199.0 29.0,212.0 42.0,211.0 50.0,187.0 38.0,198.0 43.0,183.0 83.0,174.0" fill="#a73e43" />
<polygon points="219.0,177.0 199.0,192.0 191.0,174.0 185.0,190.0 164.0,181.0 181.0,202.0 165.0,217.0 189.0,222.0 208.0,209.0" fill="#619dc4" opacity="0.95" />
<polygon points="363.0,242.0 351.0,269.0 333.0,266.0 321.0,281.0 303.0,283.0 326.0,295.0 331.0,311.0 354.0,299.0 372.0,306.0 358.0,274.0" fill="#a73e43" opacity="0.95" />
<polygon points="292.0,317.0 290.0,325.0 300.0,341.0 305.0,360.0 314.0,362.0 315.0,348.0 300.0,322.0" fill="#f4ebe5" />
<polygon points="203.0,227.0 206.0,238.0 213.0,226.0 226.0,224.0 272.0,235.0 260.0,222.0 248.0,228.0 221.0,215.0 207.0,219.0" fill="#5d5c74" />
<polygon points="218.0,241.0 215.0,245.0 226.0,268.0 241.0,275.0 227.0,252.0 228.0,247.0" fill="#5d5c74" />
<polygon points="0.0,204.0 0.0,210.0 8.0,216.0 10.0,234.0 21.0,239.0 30.0,221.0 17.0,218.0" fill="#d9887c" />
<polygon points="254.0,177.0 240.0,178.0 215.0,211.0 229.0,199.0 238.0,198.0 237.0,206.0 243.0,205.0 251.0,195.0 243.0,188.0" fill="#8da5c0" />
<polygon points="0.0,269.0 0.0,287.0 10.0,291.0 26.0,282.0 52.0,293.0 60.0,287.0 46.0,286.0 29.0,275.0 10.0,278.0" fill="#d9887c" />
<polygon points="135.0,239.0 60.0,250.0 50.0,269.0 59.0,269.0 69.0,257.0" fill="#f4ebe5" opacity="0.95" />
<polygon points="126.0,246.0 96.0,254.0 93.0,275.0 50.0,297.0 87.0,286.0 99.0,273.0 102.0,256.0" fill="#cb6a61" />
<polygon points="118.0,164.0 152.0,191.0 183.0,207.0 138.0,170.0" fill="#f4ebe5" opacity="0.95" />
<polygon points="354.0,250.0 347.0,245.0 340.0,251.0 336.0,242.0 323.0,246.0 324.0,237.0 316.0,237.0 314.0,246.0 323.0,252.0 315.0,254.0 306.0,279.0 322.0,278.0 331.0,265.0 341.0,270.0" fill="#cb6a61" opacity="0.95" />
<polygon points="214.0,251.0 221.0,282.0 217.0,284.0 209.0,273.0 211.0,263.0 206.0,259.0 205.0,287.0 221.0,289.0 227.0,298.0" fill="#67424c" />
<polygon points="170.0,44.0 144.0,54.0 133.0,69.0 139.0,74.0 129.0,94.0 155.0,47.0 157.0,63.0 164.0,49.0 174.0,62.0 178.0,53.0" fill="#a73e43" />
<polygon points="328.0,230.0 343.0,233.0 349.0,220.0 358.0,237.0 365.0,239.0 368.0,233.0 366.0,220.0 363.0,219.0 360.0,226.0 345.0,215.0" fill="#a73e43" />
<polygon points="233.0,286.0 254.0,327.0 275.0,348.0 255.0,311.0" fill="#f4ebe5" opacity="0.95" />
<polygon points="353.0,310.0 342.0,319.0 365.0,358.0 350.0,324.0 356.0,323.0 367.0,347.0" fill="#f4ebe5" />
<polygon points="238.0,234.0 262.0,254.0 267.0,250.0 286.0,259.0 286.0,250.0 266.0,243.0 261.0,248.0 254.0,238.0" fill="#67424c" />
<polygon points="49.0,292.0 26.0,283.0 13.0,292.0 0.0,288.0 0.0,301.0 12.0,300.0 29.0,305.0 43.0,300.0" fill="#cb6a61" opacity="0.95" />
<polygon points="276.0,319.0 268.0,331.0 279.0,353.0 291.0,355.0 293.0,353.0 287.0,351.0 278.0,335.0 280.0,325.0" fill="#a73e43" />
<polygon points="239.0,145.0 224.0,174.0 226.0,177.0 230.0,177.0 237.0,165.0 244.0,162.0 238.0,156.0 242.0,147.0" fill="#67424c" />
<polygon points="179.0,233.0 158.0,246.0 153.0,242.0 140.0,246.0 138.0,267.0 162.0,250.0 165.0,255.0 160.0,260.0 170.0,253.0 177.0,258.0 171.0,243.0" fill="#67424c" opacity="0.95" />
<polygon points="115.0,216.0 125.0,229.0 122.0,233.0 116.0,232.0 119.0,238.0 143.0,235.0 133.0,225.0 139.0,214.0" fill="#98676d" opacity="0.95" />
<polygon points="20.0,251.0 25.0,258.0 25.0,267.0 19.0,271.0 15.0,271.0 12.0,268.0 10.0,260.0 15.0,254.0" fill="#e9b7aa" />
<polygon points="239.0,200.0 234.0,199.0 227.0,201.0 218.0,211.0 225.0,212.0 234.0,208.0" fill="#619dc4" />
<polygon points="229.0,271.0 244.0,294.0 252.0,283.0 255.0,286.0 262.0,283.0 255.0,275.0 253.0,281.0 250.0,278.0 247.0,282.0 244.0,272.0 238.0,277.0 232.0,270.0" fill="#67424c" />
<polygon points="83.0,211.0 86.0,215.0 96.0,219.0 95.0,216.0 98.0,211.0 108.0,211.0 111.0,209.0 86.0,205.0" fill="#d9887c" />
<polygon points="273.0,55.0 276.0,60.0 294.0,62.0 298.0,60.0 294.0,56.0 296.0,54.0 295.0,53.0 278.0,53.0" fill="#e9b7aa" />
<polygon points="263.0,272.0 262.0,273.0 266.0,282.0 271.0,287.0 276.0,287.0 281.0,283.0 279.0,279.0 271.0,271.0" fill="#67424c" />
<polygon points="292.0,317.0 291.0,327.0 300.0,341.0 305.0,360.0 313.0,362.0 316.0,360.0 315.0,348.0 300.0,322.0" fill="#f4ebe5" opacity="0.95" />
<polygon points="215.0,243.0 226.0,268.0 241.0,275.0 228.0,254.0 228.0,247.0 219.0,241.0" fill="#5d5c74" opacity="0.95" />
<polygon points="0.0,269.0 0.0,287.0 10.0,291.0 26.0,282.0 50.0,292.0 59.0,288.0 29.0,275.0 10.0,278.0" fill="#d9887c" opacity="0.95" />
<polygon points="93.0,174.0 121.0,184.0 123.0,183.0 117.0,177.0 104.0,172.0 97.0,171.0" fill="#d9887c" />
<polygon points="47.0,293.0 26.0,283.0 12.0,292.0 0.0,288.0 0.0,301.0 12.0,300.0 29.0,305.0 42.0,300.0" fill="#cb6a61" opacity="0.95" />
<polygon points="229.0,271.0 244.0,293.0 253.0,282.0 280.0,285.0 270.0,271.0 263.0,273.0 263.0,280.0 253.0,282.0" fill="#67424c" opacity="0.95" />
<polygon points="354.0,252.0 342.0,253.0 336.0,265.0 327.0,255.0 338.0,244.0 327.0,246.0 320.0,236.0 314.0,241.0 320.0,251.0 311.0,269.0 320.0,277.0 331.0,265.0 340.0,270.0" fill="#cb6a61" opacity="0.95" />
<polygon points="195.0,152.0 187.0,154.0 187.0,161.0 182.0,166.0 183.0,169.0 198.0,161.0 197.0,154.0" fill="#70809d" />
<polygon points="3.0,206.0 4.0,209.0 12.0,211.0 21.0,219.0 30.0,219.0 33.0,216.0 29.0,215.0 26.0,210.0 24.0,212.0 22.0,210.0 24.0,207.0 20.0,203.0 15.0,204.0 13.0,200.0 8.0,200.0" fill="#cb6a61" />
<polygon points="187.0,251.0 180.0,268.0 181.0,272.0 176.0,279.0 180.0,282.0 182.0,269.0 186.0,265.0 196.0,271.0 198.0,268.0" fill="#67424c" />
<polygon points="20.0,252.0 15.0,255.0 11.0,260.0 13.0,268.0 15.0,270.0 19.0,270.0 24.0,267.0 24.0,258.0" fill="#d9887c" />
<polygon points="9.0,212.0 7.0,215.0 10.0,223.0 10.0,234.0 18.0,240.0 24.0,235.0 28.0,220.0 21.0,220.0" fill="#d9887c" opacity="0.95" />
<polygon points="170.0,167.0 163.0,169.0 159.0,173.0 155.0,174.0 151.0,172.0 149.0,175.0 159.0,184.0 161.0,179.0 170.0,171.0" fill="#70809d" />
<polygon points="182.0,230.0 177.0,239.0 182.0,246.0 177.0,248.0 176.0,250.0 179.0,252.0 189.0,238.0" fill="#5d5c74" />
<polygon points="93.0,255.0 78.0,260.0 90.0,261.0 80.0,275.0 81.0,282.0 84.0,280.0 82.0,278.0 92.0,271.0" fill="#d9887c" />
<polygon points="133.0,164.0 147.0,175.0 151.0,171.0 160.0,171.0 157.0,167.0 154.0,169.0 151.0,166.0" fill="#5d5c74" />
<polygon points="208.0,232.0 214.0,234.0 228.0,230.0 235.0,239.0 250.0,246.0 233.0,234.0 235.0,227.0 232.0,225.0 219.0,226.0" fill="#70809d" />
<polygon points="162.0,179.0 169.0,181.0 176.0,179.0 185.0,190.0 188.0,189.0 183.0,181.0 177.0,177.0 173.0,169.0" fill="#8da5c0" />
<polygon points="184.0,219.0 176.0,217.0 169.0,222.0 162.0,222.0 154.0,234.0 159.0,235.0 161.0,227.0 168.0,229.0 172.0,223.0 180.0,226.0 185.0,222.0" fill="#70809d" />
<polygon points="230.0,218.0 219.0,215.0 214.0,220.0 206.0,220.0 203.0,235.0 208.0,236.0 208.0,230.0 227.0,224.0" fill="#5d5c74" opacity="0.95" />
<polygon points="255.0,144.0 252.0,144.0 247.0,149.0 244.0,146.0 240.0,150.0 239.0,156.0 241.0,158.0 247.0,158.0" fill="#5d5c74" />
<polygon points="142.0,215.0 139.0,219.0 141.0,221.0 134.0,225.0 135.0,228.0 144.0,229.0 148.0,232.0 155.0,224.0 153.0,222.0 148.0,222.0 146.0,220.0 148.0,218.0 147.0,216.0" fill="#67424c" />
<polygon points="265.0,254.0 264.0,256.0 275.0,268.0 278.0,269.0 280.0,264.0 268.0,253.0" fill="#98676d" />
<polygon points="159.0,194.0 160.0,203.0 167.0,209.0 164.0,212.0 158.0,209.0 153.0,211.0 158.0,221.0 167.0,221.0 160.0,215.0 171.0,210.0" fill="#8da5c0" />
<polygon points="138.0,246.0 129.0,251.0 123.0,249.0 121.0,251.0 124.0,257.0 130.0,253.0 136.0,254.0 127.0,261.0 132.0,269.0 138.0,264.0 136.0,257.0 140.0,249.0" fill="#98676d" />
<polygon points="248.0,180.0 238.0,181.0 241.0,188.0 231.0,190.0 224.0,200.0 236.0,198.0 238.0,205.0 243.0,205.0 250.0,196.0 243.0,188.0" fill="#8da5c0" opacity="0.95" />
<polygon points="78.0,185.0 80.0,192.0 77.0,197.0 84.0,195.0 101.0,199.0 94.0,192.0 88.0,193.0 84.0,189.0 86.0,185.0" fill="#cb6a61" />
<polygon points="248.0,20.0 241.0,19.0 238.0,15.0 228.0,24.0 233.0,29.0 227.0,33.0 230.0,36.0 233.0,31.0 235.0,35.0 243.0,28.0 232.0,27.0" fill="#e9b7aa" />
<polygon points="11.0,212.0 8.0,214.0 10.0,234.0 18.0,240.0 24.0,235.0 28.0,221.0 17.0,218.0" fill="#d9887c" opacity="0.95" />
<polygon points="272.0,7.0 263.0,19.0 261.0,29.0 264.0,26.0 270.0,29.0 274.0,25.0 274.0,20.0 267.0,18.0" fill="#e9b7aa" />
<polygon points="132.0,197.0 142.0,206.0 148.0,207.0 151.0,210.0 154.0,206.0 146.0,203.0 141.0,197.0" fill="#ac8e8f" />
<polygon points="268.0,199.0 265.0,198.0 249.0,205.0 247.0,209.0 259.0,206.0 265.0,203.0" fill="#8da5c0" />
<polygon points="0.0,269.0 0.0,287.0 10.0,291.0 26.0,282.0 50.0,292.0 58.0,289.0 29.0,275.0 11.0,278.0" fill="#d9887c" opacity="0.95" />
<polygon points="213.0,141.0 209.0,144.0 208.0,149.0 208.0,156.0 209.0,157.0 213.0,156.0 216.0,151.0 217.0,144.0" fill="#70809d" />
<polygon points="104.0,220.0 103.0,221.0 110.0,229.0 104.0,237.0 104.0,240.0 110.0,241.0 113.0,236.0 117.0,239.0 111.0,228.0 114.0,225.0" fill="#cb6a61" />
<polygon points="117.0,216.0 123.0,222.0 123.0,230.0 117.0,234.0 119.0,238.0 123.0,238.0 128.0,230.0 135.0,237.0 142.0,234.0 132.0,224.0 138.0,214.0" fill="#98676d" opacity="0.95" />
<polygon points="79.0,232.0 81.0,234.0 80.0,237.0 81.0,239.0 72.0,245.0 67.0,241.0 71.0,237.0 69.0,233.0 71.0,231.0 74.0,233.0" fill="#e9b7aa" />
<polygon points="138.0,187.0 137.0,191.0 139.0,194.0 153.0,200.0 157.0,198.0 152.0,192.0 143.0,192.0 141.0,190.0 143.0,187.0 141.0,184.0" fill="#5d5c74" />
<polygon points="20.0,251.0 23.0,253.0 25.0,258.0 25.0,267.0 19.0,271.0 16.0,271.0 12.0,268.0 10.0,260.0" fill="#e9b7aa" opacity="0.95" />
<polygon points="217.0,242.0 216.0,247.0 225.0,266.0 229.0,269.0 234.0,268.0 235.0,265.0 228.0,254.0 228.0,247.0 219.0,241.0" fill="#5d5c74" opacity="0.95" />
<polygon points="222.0,214.0 223.0,216.0 228.0,215.0 232.0,219.0 232.0,222.0 238.0,223.0 244.0,217.0 241.0,216.0 237.0,219.0 233.0,209.0" fill="#70809d" />
<polygon points="118.0,197.0 132.0,202.0 138.0,208.0 144.0,208.0 131.0,197.0 136.0,195.0 128.0,191.0 126.0,192.0 130.0,195.0 128.0,198.0" fill="#98676d" />
<polygon points="238.0,200.0 234.0,199.0 227.0,201.0 219.0,209.0 219.0,211.0 225.0,212.0 234.0,208.0" fill="#619dc4" opacity="0.95" />
<polygon points="196.0,237.0 193.0,239.0 192.0,245.0 191.0,246.0 194.0,250.0 197.0,250.0 199.0,248.0 199.0,241.0" fill="#8da5c0" />
<polygon points="194.0,221.0 192.0,223.0 193.0,229.0 189.0,232.0 186.0,229.0 184.0,230.0 189.0,236.0 192.0,234.0 195.0,237.0 199.0,234.0 199.0,228.0" fill="#70809d" />
<polygon points="210.0,236.0 212.0,240.0 217.0,236.0 228.0,246.0 231.0,241.0 229.0,239.0 226.0,240.0 217.0,232.0 214.0,235.0 212.0,234.0" fill="#8da5c0" />
<polygon points="203.0,128.0 200.0,131.0 201.0,133.0 201.0,152.0 202.0,153.0 204.0,149.0 204.0,129.0" fill="#98676d" />
<polygon points="250.0,61.0 252.0,74.0 253.0,71.0 260.0,64.0 265.0,69.0 267.0,68.0 261.0,63.0 260.0,60.0 256.0,59.0 254.0,61.0 252.0,59.0" fill="#e9b7aa" />
<polygon points="250.0,194.0 241.0,188.0 236.0,191.0 233.0,189.0 228.0,193.0 227.0,198.0 230.0,200.0 237.0,198.0 243.0,202.0 249.0,198.0" fill="#8da5c0" opacity="0.95" />
<polygon points="259.0,173.0 256.0,173.0 254.0,175.0 255.0,178.0 248.0,183.0 250.0,186.0 247.0,189.0 252.0,195.0 256.0,189.0 250.0,185.0 259.0,176.0" fill="#70809d" />
<polygon points="256.0,158.0 248.0,168.0 250.0,170.0 249.0,171.0 253.0,174.0 254.0,173.0 252.0,170.0 261.0,161.0 260.0,160.0 259.0,161.0" fill="#5d5c74" />
<polygon points="220.0,233.0 226.0,239.0 230.0,235.0 229.0,234.0 230.0,233.0 228.0,231.0 223.0,231.0" fill="#619dc4" />
<polygon points="121.0,251.0 121.0,254.0 128.0,258.0 127.0,264.0 132.0,268.0 137.0,265.0 136.0,257.0 130.0,256.0 127.0,251.0" fill="#98676d" opacity="0.95" />
<polygon points="197.0,154.0 193.0,153.0 187.0,155.0 187.0,162.0 182.0,166.0 182.0,168.0 184.0,169.0 189.0,165.0 195.0,163.0 197.0,161.0" fill="#70809d" opacity="0.95" />
<polygon points="170.0,168.0 167.0,167.0 163.0,169.0 159.0,174.0 152.0,173.0 150.0,177.0 159.0,183.0 161.0,182.0 162.0,175.0 168.0,173.0" fill="#70809d" opacity="0.95" />
<polygon points="241.0,221.0 244.0,223.0 248.0,224.0 252.0,220.0 250.0,218.0 244.0,218.0 242.0,219.0" fill="#8da5c0" />
<polygon points="116.0,187.0 118.0,195.0 120.0,195.0 122.0,197.0 128.0,197.0 129.0,196.0 128.0,194.0 123.0,191.0 124.0,190.0 123.0,189.0 121.0,189.0 117.0,186.0" fill="#ac8e8f" />
<polygon points="237.0,201.0 234.0,199.0 231.0,201.0 227.0,201.0 220.0,208.0 220.0,210.0 225.0,212.0 234.0,208.0 237.0,204.0" fill="#619dc4" opacity="0.95" />
<polygon points="265.0,254.0 267.0,261.0 277.0,269.0 279.0,268.0 279.0,263.0 274.0,260.0 273.0,257.0 267.0,253.0" fill="#98676d" opacity="0.95" />
<polygon points="210.0,131.0 209.0,141.0 210.0,142.0 213.0,140.0 217.0,142.0 219.0,139.0 217.0,136.0 218.0,133.0 217.0,132.0 213.0,138.0 211.0,136.0" fill="#ac8e8f" />
<polygon points="118.0,177.0 124.0,183.0 123.0,184.0 124.0,185.0 128.0,186.0 130.0,184.0 129.0,183.0 130.0,182.0 124.0,177.0 121.0,177.0 120.0,176.0" fill="#98676d" />
<polygon points="221.0,164.0 215.0,168.0 215.0,171.0 214.0,172.0 215.0,173.0 216.0,172.0 217.0,173.0 218.0,172.0 220.0,173.0 222.0,171.0 223.0,167.0" fill="#8da5c0" />
<polygon points="138.0,199.0 138.0,201.0 142.0,206.0 149.0,208.0 152.0,207.0 152.0,205.0 146.0,203.0 143.0,198.0 141.0,197.0" fill="#ac8e8f" opacity="0.95" />
<polygon points="172.0,135.0 171.0,137.0 173.0,140.0 174.0,146.0 175.0,147.0 176.0,146.0 176.0,136.0 175.0,135.0 174.0,136.0" fill="#ac8e8f" />
<polygon points="115.0,213.0 117.0,214.0 119.0,212.0 124.0,212.0 125.0,213.0 133.0,213.0 134.0,212.0 133.0,211.0 126.0,211.0 119.0,209.0" fill="#ac8e8f" />
<polygon points="117.0,189.0 117.0,194.0 123.0,197.0 128.0,196.0 128.0,194.0 125.0,193.0 122.0,189.0 120.0,188.0" fill="#ac8e8f" opacity="0.95" />
<polygon points="221.0,232.0 221.0,234.0 223.0,236.0 223.0,237.0 225.0,238.0 229.0,237.0 229.0,232.0 227.0,231.0 223.0,231.0" fill="#619dc4" opacity="0.95" />
<polygon points="175.0,167.0 174.0,168.0 174.0,169.0 178.0,173.0 179.0,172.0 178.0,171.0 178.0,168.0 177.0,167.0" fill="#ac8e8f" />
<polygon points="120.0,227.0 119.0,228.0 120.0,229.0 119.0,230.0 122.0,232.0 124.0,232.0 125.0,231.0 121.0,227.0" fill="#ac8e8f" />
<polygon points="225.0,231.0 222.0,233.0 222.0,235.0 226.0,238.0 229.0,236.0 229.0,233.0" fill="#619dc4" opacity="0.95" />
<polygon points="120.0,188.0 117.0,190.0 117.0,193.0 121.0,196.0 124.0,194.0 124.0,192.0 123.0,190.0" fill="#ac8e8f" opacity="0.95" />
<polygon points="210.0,161.0 209.0,162.0 208.0,162.0 208.0,166.0 209.0,166.0 210.0,167.0 211.0,166.0 212.0,166.0 212.0,162.0 211.0,162.0" fill="#619dc4" opacity="0.95" />
</svg>