<svg xmlns="http://www.w3.org/2000/svg" width="768" height="768" viewBox="0 0 384 384">
<rect width="384" height="384" fill="#8a5c52"/>
<polygon points="0.0,0.0 2.0,126.0 194.0,128.0 2.0,130.0 2.0,320.0 182.0,295.0 142.0,218.0 231.0,21.0 276.0,128.0 259.0,319.0 383.0,320.0 383.0,130.0 277.0,128.0 383.0,126.0 376.0,10.0" fill="#954f45" />
<polygon points="0.0,0.0 1.0,358.0 145.0,383.0 183.0,293.0 148.0,192.0 233.0,22.0 278.0,194.0 215.0,383.0 383.0,359.0 377.0,11.0" fill="#954f45" opacity="0.95" />
<polygon points="0.0,0.0 0.0,357.0 145.0,383.0 183.0,293.0 148.0,192.0 234.0,23.0 278.0,194.0 215.0,383.0 383.0,359.0 376.0,11.0" fill="#954f45" opacity="0.95" />
<polygon points="0.0,327.0 0.0,357.0 16.0,359.0 43.0,383.0 145.0,383.0 150.0,325.0" fill="#954f45" />
<polygon points="215.0,383.0 348.0,383.0 363.0,364.0 383.0,358.0 383.0,325.0 256.0,325.0 249.0,348.0 221.0,364.0" fill="#954f45" />
<polygon points="233.0,23.0 246.0,57.0 198.0,139.0 201.0,180.0 170.0,174.0 151.0,194.0 162.0,221.0 200.0,224.0 201.0,265.0 203.0,222.0 264.0,167.0 243.0,122.0 257.0,62.0" fill="#97fef6" />
<polygon points="234.0,24.0 246.0,57.0 198.0,139.0 201.0,178.0 152.0,190.0 168.0,224.0 235.0,207.0 263.0,172.0 244.0,123.0 259.0,72.0" fill="#97fef6" opacity="0.95" />
<polygon points="233.0,260.0 204.0,260.0 197.0,308.0 175.0,298.0 156.0,309.0 153.0,331.0 163.0,346.0 184.0,349.0 198.0,339.0 203.0,302.0 223.0,307.0 240.0,297.0 244.0,277.0" fill="#31f2dc" />
<polygon points="237.0,135.0 249.0,150.0 245.0,166.0 232.0,178.0 213.0,178.0 203.0,163.0 207.0,147.0 221.0,135.0" fill="#97fef6" />
<polygon points="237.0,136.0 221.0,136.0 208.0,147.0 204.0,163.0 213.0,177.0 232.0,177.0 244.0,166.0 248.0,150.0" fill="#31f2dc" />
<polygon points="235.0,25.0 246.0,57.0 196.0,153.0 234.0,134.0 248.0,160.0 226.0,180.0 160.0,179.0 168.0,224.0 225.0,212.0 261.0,178.0 244.0,123.0 259.0,72.0" fill="#97fef6" opacity="0.95" />
<polygon points="270.0,130.0 261.0,136.0 269.0,193.0 259.0,224.0 205.0,255.0 246.0,254.0 267.0,233.0 275.0,205.0" fill="#68312b" />
<polygon points="258.0,195.0 207.0,220.0 204.0,235.0 221.0,235.0 242.0,226.0 252.0,215.0" fill="#0b0104" />
<polygon points="212.0,256.0 200.0,266.0 199.0,302.0 223.0,307.0 240.0,297.0 244.0,277.0 233.0,260.0" fill="#31f2dc" opacity="0.95" />
<polygon points="170.0,299.0 156.0,309.0 153.0,331.0 163.0,346.0 184.0,349.0 201.0,333.0 201.0,308.0 184.0,299.0" fill="#31f2dc" opacity="0.95" />
<polygon points="262.0,69.0 266.0,207.0 247.0,237.0 209.0,256.0 253.0,250.0 274.0,216.0" fill="#68312b" opacity="0.95" />
<polygon points="232.0,326.0 205.0,325.0 199.0,340.0 186.0,350.0 161.0,346.0 162.0,364.0 173.0,372.0 190.0,369.0 207.0,341.0" fill="#0b0104" />
<polygon points="254.0,326.0 245.0,325.0 236.0,339.0 217.0,347.0 192.0,383.0 214.0,383.0 220.0,364.0 248.0,348.0" fill="#68312b" />
<polygon points="234.0,134.0 246.0,143.0 248.0,160.0 235.0,176.0 215.0,179.0 204.0,167.0 205.0,151.0 217.0,137.0" fill="#97fef6" opacity="0.95" />
<polygon points="233.0,260.0 204.0,260.0 197.0,304.0 175.0,298.0 156.0,309.0 153.0,331.0 163.0,346.0 191.0,346.0 202.0,330.0 200.0,306.0 223.0,307.0 240.0,297.0 244.0,277.0" fill="#31f2dc" opacity="0.95" />
<polygon points="155.0,223.0 158.0,236.0 168.0,245.0 186.0,245.0 198.0,238.0 197.0,224.0 173.0,227.0 157.0,220.0" fill="#0b0104" />
<polygon points="0.0,320.0 0.0,324.0 151.0,322.0" fill="#f9e7d4" />
<polygon points="263.0,177.0 251.0,218.0 232.0,232.0 205.0,238.0 206.0,248.0 236.0,242.0 255.0,228.0 265.0,207.0" fill="#381316" />
<polygon points="234.0,135.0 217.0,138.0 206.0,151.0 205.0,167.0 215.0,178.0 235.0,175.0 247.0,160.0 245.0,143.0" fill="#31f2dc" opacity="0.95" />
<polygon points="243.0,326.0 213.0,336.0 196.0,365.0 181.0,373.0 161.0,364.0 156.0,342.0 159.0,375.0 165.0,383.0 191.0,383.0 212.0,351.0" fill="#381316" />
<polygon points="0.0,362.0 2.0,372.0 0.0,383.0 42.0,383.0 16.0,360.0 7.0,359.0" fill="#68312b" />
<polygon points="260.0,66.0 265.0,127.0 273.0,125.0 269.0,86.0" fill="#68312b" />
<polygon points="264.0,79.0 266.0,207.0 247.0,237.0 209.0,256.0 253.0,250.0 274.0,216.0" fill="#68312b" opacity="0.95" />
<polygon points="258.0,195.0 205.0,221.0 204.0,235.0 221.0,235.0 242.0,226.0 252.0,215.0" fill="#0b0104" opacity="0.95" />
<polygon points="239.0,303.0 236.0,302.0 221.0,309.0 204.0,305.0 203.0,319.0 239.0,320.0" fill="#0b0104" />
<polygon points="232.0,38.0 221.0,59.0 225.0,64.0 219.0,68.0 208.0,121.0 221.0,105.0 225.0,65.0 234.0,50.0" fill="#68312b" />
<polygon points="239.0,303.0 203.0,307.0 208.0,324.0 199.0,340.0 182.0,351.0 160.0,348.0 162.0,364.0 173.0,372.0 193.0,367.0 207.0,341.0 239.0,319.0" fill="#0b0104" opacity="0.95" />
<polygon points="258.0,196.0 201.0,228.0 158.0,221.0 157.0,234.0 181.0,246.0 202.0,234.0 227.0,233.0 250.0,218.0" fill="#0b0104" opacity="0.95" />
<polygon points="234.0,135.0 217.0,138.0 206.0,151.0 205.0,167.0 215.0,178.0 235.0,175.0 247.0,160.0 245.0,143.0" fill="#31f2dc" opacity="0.95" />
<polygon points="383.0,359.0 379.0,364.0 367.0,363.0 363.0,365.0 349.0,383.0 383.0,383.0" fill="#68312b" />
<polygon points="152.0,334.0 144.0,353.0 146.0,383.0 164.0,383.0 153.0,361.0 152.0,347.0 156.0,340.0" fill="#68312b" />
<polygon points="235.0,38.0 234.0,82.0 245.0,57.0 244.0,47.0" fill="#31f2dc" />
<polygon points="253.0,326.0 244.0,326.0 236.0,339.0 217.0,347.0 193.0,383.0 214.0,383.0 220.0,364.0 248.0,348.0" fill="#68312b" opacity="0.95" />
<polygon points="239.0,305.0 204.0,307.0 208.0,324.0 199.0,340.0 182.0,351.0 160.0,348.0 162.0,364.0 173.0,372.0 193.0,367.0 207.0,341.0 239.0,318.0" fill="#0b0104" opacity="0.95" />
<polygon points="155.0,223.0 158.0,236.0 168.0,245.0 181.0,246.0 198.0,239.0 196.0,224.0 173.0,227.0 159.0,221.0" fill="#0b0104" opacity="0.95" />
<polygon points="242.0,326.0 213.0,336.0 196.0,365.0 181.0,373.0 161.0,364.0 154.0,344.0 165.0,383.0 192.0,383.0 212.0,351.0" fill="#381316" opacity="0.95" />
<polygon points="151.0,236.0 163.0,254.0 192.0,254.0 198.0,248.0 197.0,240.0 181.0,247.0 166.0,245.0 156.0,234.0 154.0,223.0 157.0,219.0 153.0,214.0" fill="#381316" />
<polygon points="265.0,180.0 257.0,188.0 261.0,194.0 251.0,218.0 232.0,232.0 204.0,239.0 205.0,247.0 236.0,242.0 255.0,228.0 265.0,207.0" fill="#381316" opacity="0.95" />
<polygon points="265.0,185.0 251.0,218.0 232.0,232.0 181.0,247.0 152.0,239.0 164.0,254.0 192.0,256.0 202.0,245.0 236.0,242.0 258.0,224.0" fill="#381316" opacity="0.95" />
<polygon points="242.0,327.0 213.0,336.0 185.0,372.0 156.0,362.0 165.0,383.0 192.0,383.0 212.0,351.0" fill="#381316" opacity="0.95" />
<polygon points="77.0,192.0 79.0,190.0 119.0,190.0 121.0,192.0 119.0,194.0 79.0,194.0" fill="#954f45" />
<polygon points="192.0,259.0 189.0,263.0 189.0,277.0 193.0,290.0 191.0,301.0 196.0,305.0 195.0,272.0 199.0,265.0 197.0,259.0" fill="#381316" />
<polygon points="256.0,106.0 245.0,122.0 252.0,127.0 256.0,119.0" fill="#0b0104" />
<polygon points="261.0,93.0 256.0,103.0 258.0,113.0 255.0,127.0 261.0,126.0 263.0,123.0 264.0,109.0" fill="#381316" />
<polygon points="150.0,218.0 152.0,239.0 162.0,253.0 191.0,254.0 198.0,249.0 196.0,241.0 181.0,247.0 166.0,245.0 156.0,234.0 156.0,218.0" fill="#381316" opacity="0.95" />
<polygon points="287.0,64.0 289.0,62.0 300.0,63.0 320.0,62.0 322.0,64.0 320.0,66.0 300.0,65.0 289.0,66.0" fill="#954f45" />
<polygon points="68.0,64.0 70.0,62.0 91.0,62.0 93.0,64.0 91.0,66.0 70.0,66.0" fill="#954f45" />
<polygon points="237.0,40.0 235.0,41.0 236.0,66.0 234.0,74.0 236.0,77.0 245.0,57.0 245.0,49.0" fill="#31f2dc" opacity="0.95" />
<polygon points="145.0,64.0 147.0,62.0 156.0,62.0 157.0,63.0 158.0,62.0 172.0,62.0 174.0,64.0 172.0,66.0 158.0,66.0 157.0,65.0 156.0,66.0 147.0,66.0" fill="#954f45" />
<polygon points="120.0,64.0 122.0,62.0 130.0,62.0 132.0,64.0 130.0,66.0 122.0,66.0" fill="#954f45" />
<polygon points="238.0,42.0 235.0,44.0 236.0,65.0 239.0,67.0 243.0,63.0 245.0,57.0 245.0,49.0" fill="#31f2dc" opacity="0.95" />
</svg>