<svg xmlns="http://www.w3.org/2000/svg" width="768" height="768" viewBox="0 0 384 384">
<rect width="384" height="384" fill="#93565f"/>
<polygon points="0.0,0.0 0.0,383.0 383.0,383.0 383.0,0.0" fill="#954a54" opacity="0.95" />
<polygon points="0.0,0.0 0.0,383.0 383.0,383.0 383.0,0.0" fill="#954a54" opacity="0.95" />
<polygon points="2.0,0.0 3.0,126.0 135.0,126.0 136.0,157.0 191.0,157.0 243.0,63.0 254.0,190.0 383.0,190.0 383.0,0.0 135.0,0.0 135.0,66.0 131.0,0.0" fill="#954a54" />
<polygon points="2.0,195.0 3.0,320.0 131.0,319.0 130.0,194.0" fill="#954a54" />
<polygon points="135.0,325.0 135.0,383.0 383.0,383.0 383.0,324.0" fill="#954a54" />
<polygon points="135.0,259.0 136.0,320.0 383.0,320.0 383.0,258.0 310.0,256.0 383.0,254.0 383.0,194.0 252.0,194.0 238.0,234.0 208.0,258.0" fill="#954a54" />
<polygon points="242.0,69.0 191.0,159.0 125.0,160.0 136.0,197.0 169.0,223.0 212.0,224.0 254.0,184.0" fill="#75f1d6" />
<polygon points="2.0,325.0 2.0,383.0 131.0,383.0 130.0,324.0" fill="#954a54" />
<polygon points="0.0,133.0 3.0,190.0 130.0,189.0 124.0,159.0 131.0,156.0 130.0,130.0" fill="#954a54" />
<polygon points="242.0,63.0 259.0,160.0 246.0,219.0 209.0,258.0 168.0,257.0 131.0,220.0 124.0,159.0 192.0,156.0" fill="#954a54" opacity="0.95" />
<polygon points="241.0,69.0 192.0,158.0 125.0,160.0 136.0,197.0 169.0,223.0 212.0,224.0 254.0,184.0" fill="#75f1d6" opacity="0.95" />
<polygon points="241.0,63.0 259.0,160.0 246.0,219.0 212.0,258.0 167.0,257.0 131.0,223.0 124.0,160.0 191.0,156.0" fill="#954a54" opacity="0.95" />
<polygon points="243.0,78.0 191.0,158.0 125.0,161.0 132.0,191.0 165.0,221.0 212.0,224.0 251.0,190.0 258.0,161.0" fill="#75f1d6" opacity="0.95" />
<polygon points="250.0,196.0 196.0,230.0 161.0,220.0 136.0,198.0 135.0,207.0 158.0,246.0 194.0,256.0 237.0,234.0" fill="#4f113d" />
<polygon points="250.0,199.0 196.0,230.0 171.0,225.0 137.0,201.0 158.0,246.0 194.0,256.0 237.0,234.0" fill="#4f113d" opacity="0.95" />
<polygon points="249.0,202.0 196.0,230.0 135.0,207.0 158.0,246.0 194.0,256.0 228.0,243.0" fill="#4f113d" opacity="0.95" />
</svg>