<svg xmlns="http://www.w3.org/2000/svg" width="768" height="768" viewBox="0 0 384 384">
<rect width="384" height="384" fill="#8d6a5a"/>
<polygon points="0.0,112.0 0.0,383.0 162.0,383.0 123.0,164.0 188.0,63.0 263.0,164.0 219.0,383.0 383.0,383.0 383.0,151.0 318.0,61.0 178.0,24.0" fill="#9f6a56" />
<polygon points="0.0,112.0 0.0,383.0 162.0,383.0 123.0,164.0 188.0,63.0 263.0,164.0 220.0,383.0 383.0,383.0 383.0,150.0 318.0,62.0 178.0,24.0" fill="#9f6a56" opacity="0.95" />
<polygon points="0.0,112.0 0.0,383.0 162.0,383.0 123.0,164.0 188.0,63.0 263.0,164.0 220.0,383.0 383.0,383.0 383.0,150.0 315.0,60.0 178.0,24.0" fill="#9f6a56" opacity="0.95" />
<polygon points="0.0,33.0 0.0,111.0 103.0,39.0 215.0,24.0 318.0,60.0 383.0,150.0 383.0,39.0 332.0,14.0 102.0,0.0" fill="#744538" />
<polygon points="142.0,142.0 126.0,159.0 127.0,182.0 184.0,229.0 229.0,212.0 261.0,175.0 257.0,153.0 203.0,132.0 194.0,151.0 179.0,132.0" fill="#04fdf1" />
<polygon points="0.0,33.0 0.0,111.0 103.0,39.0 215.0,24.0 318.0,60.0 383.0,149.0 383.0,39.0 286.0,0.0 99.0,0.0" fill="#744538" opacity="0.95" />
<polygon points="0.0,33.0 0.0,111.0 103.0,39.0 215.0,24.0 318.0,60.0 383.0,149.0 383.0,39.0 288.0,0.0 96.0,0.0" fill="#744538" opacity="0.95" />
<polygon points="142.0,142.0 126.0,159.0 127.0,182.0 184.0,229.0 229.0,212.0 261.0,175.0 257.0,153.0 203.0,133.0 193.0,151.0 178.0,132.0" fill="#04fdf1" opacity="0.95" />
<polygon points="183.0,67.0 162.0,97.0 152.0,136.0 176.0,130.0 184.0,138.0 202.0,131.0 229.0,136.0 211.0,84.0 196.0,66.0" fill="#fd031b" />
<polygon points="142.0,142.0 126.0,159.0 127.0,182.0 184.0,229.0 229.0,212.0 261.0,175.0 257.0,153.0 204.0,133.0 192.0,151.0 177.0,132.0" fill="#04fdf1" opacity="0.95" />
<polygon points="183.0,67.0 162.0,97.0 152.0,135.0 230.0,135.0 205.0,75.0" fill="#fd031b" opacity="0.95" />
<polygon points="286.0,0.0 349.0,19.0 383.0,38.0 383.0,0.0" fill="#52322c" />
<polygon points="257.0,188.0 236.0,209.0 204.0,230.0 205.0,261.0 254.0,211.0 259.0,199.0" fill="#201315" />
<polygon points="0.0,32.0 26.0,17.0 101.0,0.0 0.0,0.0" fill="#52322c" />
<polygon points="130.0,190.0 127.0,201.0 133.0,214.0 175.0,258.0 177.0,234.0" fill="#201315" />
<polygon points="183.0,67.0 162.0,97.0 152.0,134.0 229.0,135.0 205.0,75.0" fill="#fd031b" opacity="0.95" />
<polygon points="259.0,192.0 201.0,235.0 170.0,231.0 130.0,191.0 127.0,201.0 172.0,256.0 178.0,237.0 201.0,237.0 207.0,261.0" fill="#201315" opacity="0.95" />
<polygon points="287.0,0.0 349.0,19.0 383.0,38.0 383.0,0.0" fill="#52322c" opacity="0.95" />
<polygon points="183.0,247.0 181.0,272.0 198.0,272.0 199.0,248.0" fill="#1a1b24" />
<polygon points="0.0,32.0 26.0,17.0 98.0,0.0 0.0,0.0" fill="#52322c" opacity="0.95" />
<polygon points="259.0,192.0 200.0,235.0 171.0,231.0 130.0,192.0 127.0,201.0 171.0,254.0 179.0,238.0 200.0,237.0 207.0,261.0" fill="#201315" opacity="0.95" />
<polygon points="289.0,0.0 349.0,19.0 383.0,38.0 383.0,0.0" fill="#52322c" opacity="0.95" />
<polygon points="0.0,32.0 26.0,17.0 95.0,0.0 0.0,0.0" fill="#52322c" opacity="0.95" />
<polygon points="216.0,317.0 219.0,331.0 218.0,363.0 231.0,336.0 225.0,323.0" fill="#744538" />
<polygon points="178.0,283.0 174.0,367.0 177.0,351.0" fill="#8c8280" />
<polygon points="259.0,203.0 242.0,227.0 204.0,264.0 206.0,270.0 249.0,223.0" fill="#52322c" />
<polygon points="182.0,248.0 181.0,272.0 187.0,273.0 199.0,271.0 199.0,248.0" fill="#1a1b24" opacity="0.95" />
<polygon points="260.0,207.0 206.0,273.0 211.0,272.0 252.0,224.0" fill="#744538" />
<polygon points="206.0,333.0 205.0,361.0 209.0,364.0 212.0,361.0 213.0,336.0 210.0,333.0" fill="#201315" />
<polygon points="127.0,204.0 140.0,229.0 175.0,265.0 176.0,260.0 146.0,232.0" fill="#52322c" />
<polygon points="173.0,286.0 168.0,299.0 171.0,303.0 169.0,328.0 173.0,327.0" fill="#1a1b24" />
<polygon points="135.0,223.0 139.0,231.0 175.0,268.0 168.0,257.0" fill="#744538" />
<polygon points="171.0,332.0 168.0,333.0 168.0,346.0 166.0,353.0 167.0,367.0 171.0,366.0 173.0,334.0" fill="#1a1b24" />
<polygon points="192.0,280.0 191.0,281.0 191.0,299.0 195.0,300.0 198.0,298.0 198.0,281.0 197.0,280.0" fill="#1a1b24" />
<polygon points="185.0,247.0 182.0,249.0 181.0,271.0 184.0,273.0 196.0,272.0 199.0,270.0 199.0,249.0 196.0,247.0" fill="#1a1b24" opacity="0.95" />
<polygon points="182.0,281.0 180.0,300.0 185.0,300.0 185.0,295.0 188.0,293.0 192.0,299.0 197.0,299.0 198.0,281.0" fill="#1a1b24" opacity="0.95" />
<polygon points="192.0,332.0 192.0,336.0 195.0,333.0 198.0,336.0 197.0,358.0 195.0,360.0 192.0,353.0 190.0,364.0 198.0,366.0 202.0,359.0 205.0,366.0 212.0,366.0 213.0,361.0 208.0,365.0 203.0,360.0 204.0,335.0" fill="#1a1b24" />
<polygon points="184.0,306.0 181.0,306.0 179.0,310.0 179.0,326.0 180.0,327.0 185.0,325.0 186.0,309.0" fill="#1a1b24" />
<polygon points="189.0,333.0 186.0,334.0 186.0,364.0 187.0,365.0 189.0,364.0 190.0,357.0 190.0,334.0" fill="#33373e" />
<polygon points="218.0,319.0 216.0,324.0 219.0,331.0 217.0,348.0 219.0,355.0 228.0,346.0 231.0,336.0 225.0,323.0" fill="#744538" opacity="0.95" />
<polygon points="166.0,321.0 161.0,326.0 158.0,334.0 158.0,341.0 163.0,353.0 163.0,337.0 167.0,323.0" fill="#744538" />
<polygon points="186.0,139.0 185.0,141.0 188.0,149.0 192.0,150.0 195.0,147.0 197.0,140.0 196.0,139.0" fill="#201315" />
<polygon points="214.0,321.0 213.0,332.0 215.0,355.0 218.0,341.0 218.0,331.0" fill="#52322c" />
<polygon points="207.0,333.0 205.0,334.0 205.0,361.0 209.0,363.0 212.0,361.0 213.0,335.0" fill="#201315" opacity="0.95" />
<polygon points="180.0,242.0 178.0,243.0 178.0,259.0 176.0,274.0 178.0,276.0 180.0,268.0" fill="#d2bbb1" />
<polygon points="188.0,312.0 186.0,325.0 181.0,328.0 186.0,333.0 186.0,357.0 188.0,358.0 190.0,357.0 190.0,333.0 198.0,330.0 190.0,325.0" fill="#33373e" opacity="0.95" />
<polygon points="182.0,233.0 182.0,237.0 188.0,241.0 192.0,238.0 193.0,239.0 199.0,238.0 198.0,232.0 192.0,234.0 183.0,232.0" fill="#201315" />
<polygon points="172.0,294.0 169.0,296.0 172.0,306.0 168.0,327.0 173.0,327.0 176.0,314.0 182.0,327.0 186.0,309.0 183.0,306.0 177.0,311.0 174.0,309.0" fill="#1a1b24" opacity="0.95" />
<polygon points="212.0,373.0 209.0,373.0 205.0,375.0 205.0,383.0 213.0,383.0 213.0,374.0" fill="#201315" />
<polygon points="219.0,320.0 216.0,324.0 219.0,331.0 217.0,352.0 220.0,354.0 228.0,346.0 231.0,336.0 228.0,327.0" fill="#744538" opacity="0.95" />
<polygon points="200.0,276.0 202.0,279.0 208.0,282.0 214.0,280.0 216.0,278.0 215.0,275.0 204.0,275.0 202.0,274.0" fill="#f0e7ea" />
<polygon points="164.0,277.0 168.0,281.0 173.0,282.0 176.0,280.0 181.0,280.0 185.0,276.0 182.0,275.0 178.0,277.0 175.0,275.0 171.0,275.0" fill="#f0e7ea" />
<polygon points="200.0,283.0 199.0,284.0 199.0,298.0 200.0,299.0 202.0,299.0 203.0,298.0 203.0,286.0" fill="#33373e" />
<polygon points="187.0,307.0 186.0,308.0 187.0,309.0 187.0,312.0 186.0,313.0 186.0,324.0 189.0,325.0 190.0,324.0 190.0,308.0" fill="#33373e" />
<polygon points="182.0,336.0 179.0,338.0 179.0,352.0 178.0,353.0 178.0,359.0 179.0,360.0 182.0,358.0 182.0,346.0 183.0,345.0 183.0,337.0" fill="#201315" />
<polygon points="215.0,288.0 215.0,292.0 216.0,293.0 222.0,294.0 224.0,292.0 224.0,289.0 221.0,287.0 216.0,287.0" fill="#d2bbb1" />
<polygon points="200.0,306.0 199.0,307.0 200.0,308.0 200.0,322.0 199.0,324.0 202.0,325.0 203.0,324.0 203.0,307.0" fill="#33373e" />
<polygon points="164.0,286.0 162.0,288.0 162.0,291.0 164.0,294.0 167.0,294.0 169.0,292.0 170.0,288.0 167.0,286.0" fill="#f0e7ea" />
<polygon points="212.0,328.0 210.0,326.0 205.0,326.0 204.0,329.0 199.0,332.0 201.0,335.0 205.0,331.0" fill="#33373e" />
<polygon points="189.0,285.0 187.0,287.0 187.0,294.0 186.0,295.0 186.0,298.0 187.0,299.0 189.0,299.0 190.0,298.0 190.0,286.0" fill="#33373e" />
<polygon points="201.0,284.0 199.0,285.0 199.0,298.0 194.0,301.0 190.0,298.0 190.0,295.0 186.0,295.0 186.0,298.0 193.0,305.0 198.0,304.0 198.0,301.0 203.0,299.0 203.0,285.0" fill="#33373e" opacity="0.95" />
<polygon points="202.0,258.0 201.0,259.0 201.0,272.0 202.0,273.0 203.0,272.0 203.0,259.0" fill="#d2bbb1" />
<polygon points="164.0,368.0 164.0,373.0 169.0,370.0 172.0,372.0 172.0,383.0 175.0,383.0 175.0,374.0 180.0,369.0 178.0,368.0 174.0,372.0 171.0,368.0 169.0,370.0" fill="#8c8280" />
<polygon points="194.0,274.0 191.0,274.0 187.0,278.0 187.0,284.0 188.0,285.0 190.0,283.0 190.0,279.0 195.0,275.0" fill="#5b575b" />
<polygon points="163.0,325.0 161.0,326.0 158.0,334.0 158.0,341.0 160.0,346.0 162.0,347.0 164.0,346.0 163.0,337.0 165.0,326.0" fill="#744538" opacity="0.95" />
<polygon points="201.0,275.0 201.0,278.0 208.0,282.0 216.0,278.0 216.0,276.0 214.0,275.0 204.0,275.0 203.0,274.0" fill="#f0e7ea" opacity="0.95" />
<polygon points="166.0,280.0 173.0,282.0 178.0,279.0 183.0,279.0 184.0,276.0 182.0,275.0 178.0,277.0 171.0,275.0 166.0,277.0" fill="#f0e7ea" opacity="0.95" />
<polygon points="177.0,276.0 171.0,275.0 168.0,277.0 169.0,283.0 162.0,288.0 164.0,293.0 166.0,294.0 169.0,292.0 169.0,285.0 178.0,279.0" fill="#f0e7ea" opacity="0.95" />
<polygon points="204.0,304.0 205.0,305.0 207.0,305.0 208.0,304.0 210.0,304.0 211.0,305.0 212.0,304.0 212.0,301.0 211.0,300.0 206.0,300.0" fill="#33373e" />
<polygon points="202.0,366.0 199.0,368.0 199.0,370.0 201.0,372.0 203.0,372.0 205.0,369.0 205.0,368.0" fill="#8c8280" />
<polygon points="191.0,368.0 191.0,370.0 192.0,371.0 197.0,371.0 198.0,370.0 198.0,368.0 197.0,367.0 192.0,367.0" fill="#5b575b" />
<polygon points="186.0,367.0 184.0,369.0 184.0,370.0 186.0,372.0 189.0,372.0 190.0,371.0 190.0,368.0 189.0,367.0" fill="#8c8280" />
<polygon points="215.0,288.0 215.0,292.0 219.0,294.0 221.0,294.0 224.0,292.0 224.0,289.0 221.0,287.0 217.0,287.0" fill="#d2bbb1" opacity="0.95" />
<polygon points="187.0,326.0 186.0,327.0 186.0,331.0 187.0,332.0 189.0,332.0 190.0,331.0 190.0,327.0 189.0,326.0" fill="#5b575b" />
<polygon points="205.0,370.0 206.0,371.0 210.0,371.0 212.0,369.0 212.0,368.0 211.0,367.0 207.0,367.0" fill="#5b575b" />
<polygon points="200.0,300.0 199.0,301.0 199.0,304.0 200.0,305.0 202.0,305.0 204.0,303.0 204.0,301.0 203.0,300.0" fill="#5b575b" />
<polygon points="170.0,228.0 171.0,230.0 173.0,231.0 176.0,231.0 178.0,233.0 180.0,231.0 179.0,230.0 177.0,231.0 172.0,227.0" fill="#9f6a56" />
<polygon points="193.0,300.0 191.0,302.0 191.0,304.0 192.0,305.0 196.0,305.0 198.0,303.0 198.0,301.0 197.0,300.0 196.0,300.0 195.0,301.0 194.0,301.0" fill="#33373e" />
<polygon points="203.0,277.0 203.0,279.0 208.0,282.0 214.0,279.0 214.0,277.0 211.0,275.0 206.0,275.0" fill="#f0e7ea" opacity="0.95" />
<polygon points="167.0,286.0 165.0,286.0 162.0,288.0 162.0,291.0 163.0,293.0 165.0,294.0 168.0,293.0 170.0,290.0 170.0,288.0" fill="#f0e7ea" opacity="0.95" />
<polygon points="217.0,279.0 213.0,282.0 215.0,285.0 214.0,286.0 215.0,287.0 217.0,285.0 217.0,281.0 218.0,280.0" fill="#8c8280" />
<polygon points="215.0,327.0 213.0,328.0 213.0,332.0 214.0,333.0 214.0,341.0 216.0,342.0 218.0,341.0 218.0,331.0 217.0,328.0" fill="#52322c" opacity="0.95" />
<polygon points="215.0,289.0 215.0,291.0 219.0,294.0 221.0,294.0 224.0,292.0 224.0,289.0 221.0,287.0 218.0,287.0" fill="#d2bbb1" opacity="0.95" />
<polygon points="188.0,300.0 186.0,302.0 186.0,303.0 187.0,304.0 187.0,305.0 188.0,306.0 189.0,306.0 190.0,305.0 190.0,301.0 189.0,300.0" fill="#5b575b" />
<polygon points="184.0,368.0 184.0,370.0 187.0,372.0 190.0,371.0 190.0,368.0 188.0,367.0 186.0,367.0" fill="#8c8280" opacity="0.95" />
<polygon points="202.0,366.0 199.0,368.0 199.0,371.0 200.0,371.0 201.0,372.0 204.0,371.0 204.0,367.0 203.0,367.0" fill="#8c8280" opacity="0.95" />
<polygon points="166.0,368.0 163.0,369.0 163.0,372.0 164.0,372.0 165.0,373.0 168.0,371.0 168.0,369.0 167.0,369.0" fill="#8c8280" opacity="0.95" />
<polygon points="202.0,300.0 199.0,301.0 199.0,304.0 200.0,304.0 201.0,305.0 204.0,303.0 204.0,301.0 203.0,301.0" fill="#5b575b" opacity="0.95" />
<polygon points="188.0,326.0 187.0,327.0 186.0,327.0 186.0,331.0 187.0,331.0 188.0,332.0 189.0,331.0 190.0,331.0 190.0,327.0 189.0,327.0" fill="#5b575b" opacity="0.95" />
<polygon points="191.0,368.0 191.0,370.0 192.0,370.0 193.0,371.0 196.0,371.0 197.0,370.0 198.0,370.0 198.0,368.0 197.0,368.0 196.0,367.0 193.0,367.0 192.0,368.0" fill="#5b575b" opacity="0.95" />
<polygon points="206.0,368.0 206.0,370.0 207.0,370.0 208.0,371.0 210.0,371.0 211.0,370.0 212.0,370.0 212.0,368.0 211.0,368.0 210.0,367.0 208.0,367.0 207.0,368.0" fill="#5b575b" opacity="0.95" />
</svg>