<svg xmlns="http://www.w3.org/2000/svg" width="768" height="768" viewBox="0 0 384 384">
<rect width="384" height="384" fill="#91534c"/>
<polygon points="0.0,0.0 0.0,383.0 383.0,383.0 383.0,0.0" fill="#914941" opacity="0.95" />
<polygon points="0.0,0.0 0.0,383.0 383.0,383.0 383.0,0.0" fill="#914941" opacity="0.95" />
<polygon points="0.0,0.0 9.0,62.0 359.0,64.0 6.0,67.0 8.0,126.0 196.0,128.0 5.0,132.0 7.0,190.0 128.0,192.0 7.0,195.0 5.0,253.0 172.0,257.0 6.0,260.0 4.0,317.0 383.0,318.0 383.0,0.0" fill="#914941" />
<polygon points="0.0,332.0 0.0,383.0 383.0,383.0 382.0,324.0" fill="#914941" />
<polygon points="240.0,101.0 263.0,143.0 248.0,200.0 195.0,227.0 148.0,212.0 124.0,165.0 194.0,160.0 200.0,129.0 229.0,99.0" fill="#914941" />
<polygon points="242.0,104.0 228.0,101.0 201.0,130.0 193.0,162.0 126.0,165.0 150.0,212.0 202.0,222.0 247.0,196.0 262.0,149.0" fill="#95e8e0" />
<polygon points="240.0,101.0 263.0,143.0 248.0,200.0 195.0,227.0 148.0,212.0 129.0,192.0 124.0,165.0 194.0,160.0 198.0,131.0 229.0,99.0" fill="#914941" opacity="0.95" />
<polygon points="242.0,104.0 228.0,101.0 201.0,130.0 196.0,160.0 126.0,165.0 150.0,212.0 202.0,222.0 247.0,196.0 262.0,149.0" fill="#95e8e0" opacity="0.95" />
<polygon points="240.0,101.0 260.0,130.0 263.0,168.0 239.0,209.0 179.0,226.0 127.0,191.0 126.0,163.0 194.0,160.0 198.0,130.0 229.0,99.0" fill="#914941" opacity="0.95" />
<polygon points="242.0,104.0 228.0,101.0 201.0,130.0 194.0,161.0 126.0,166.0 150.0,212.0 202.0,222.0 247.0,196.0 262.0,149.0" fill="#95e8e0" opacity="0.95" />
<polygon points="309.0,128.0 311.0,126.0 372.0,126.0 374.0,128.0 372.0,130.0 311.0,130.0" fill="#914941" />
<polygon points="109.0,193.0 104.0,191.0 21.0,193.0" fill="#e9a283" />
<polygon points="0.0,313.0 0.0,331.0 7.0,323.0 119.0,322.0 10.0,321.0" fill="#f6d2b9" />
<polygon points="97.0,258.0 166.0,257.0 99.0,256.0" fill="#e9a283" />
<polygon points="0.0,248.0 0.0,265.0 7.0,258.0 62.0,257.0 8.0,256.0" fill="#f6d2b9" />
<polygon points="257.0,184.0 229.0,213.0 194.0,224.0 210.0,223.0 232.0,213.0" fill="#4bbca2" />
<polygon points="172.0,257.0 174.0,255.0 197.0,255.0 199.0,257.0 197.0,259.0 174.0,259.0" fill="#914941" />
<polygon points="65.0,257.0 67.0,259.0 88.0,259.0 90.0,257.0 89.0,256.0 66.0,256.0" fill="#e9a283" />
<polygon points="0.0,184.0 0.0,201.0 7.0,194.0 17.0,193.0 9.0,192.0 5.0,190.0" fill="#f6d2b9" />
<polygon points="0.0,55.0 0.0,72.0 4.0,67.0 10.0,64.0 6.0,62.0" fill="#f6d2b9" />
<polygon points="0.0,120.0 0.0,137.0 6.0,130.0 8.0,130.0 10.0,128.0 4.0,125.0" fill="#f6d2b9" />
<polygon points="109.0,192.0 111.0,194.0 125.0,194.0 127.0,192.0 126.0,191.0 110.0,191.0" fill="#c87765" />
<polygon points="133.0,64.0 134.0,65.0 157.0,65.0 158.0,64.0 157.0,63.0 134.0,63.0" fill="#c87765" />
<polygon points="173.0,257.0 174.0,258.0 197.0,258.0 198.0,257.0 197.0,256.0 174.0,256.0" fill="#c87765" />
<polygon points="0.0,57.0 0.0,70.0 8.0,65.0 8.0,63.0" fill="#f6d2b9" opacity="0.95" />
<polygon points="0.0,314.0 0.0,329.0 8.0,323.0 8.0,320.0 5.0,319.0 2.0,315.0" fill="#f6d2b9" opacity="0.95" />
<polygon points="0.0,250.0 0.0,264.0 2.0,263.0 5.0,259.0 8.0,258.0 8.0,256.0" fill="#f6d2b9" opacity="0.95" />
<polygon points="0.0,121.0 0.0,135.0 8.0,129.0 8.0,127.0 4.0,125.0 2.0,122.0" fill="#f6d2b9" opacity="0.95" />
<polygon points="0.0,186.0 0.0,199.0 5.0,195.0 8.0,194.0 8.0,191.0 5.0,190.0" fill="#f6d2b9" opacity="0.95" />
<polygon points="121.0,322.0 122.0,323.0 129.0,323.0 130.0,322.0 129.0,321.0 122.0,321.0" fill="#e9a283" />
<polygon points="175.0,223.0 176.0,224.0 178.0,224.0 179.0,223.0 181.0,225.0 185.0,225.0 186.0,224.0 185.0,223.0 181.0,223.0 180.0,224.0 178.0,222.0 176.0,222.0" fill="#4bbca2" />
</svg>