<svg xmlns="http://www.w3.org/2000/svg" width="768" height="768" viewBox="0 0 384 384">
<rect width="384" height="384" fill="#8c655b"/>
<polygon points="0.0,0.0 0.0,158.0 124.0,160.0 142.0,111.0 162.0,110.0 122.0,65.0 131.0,62.0 131.0,0.0" fill="#5a3c3c" />
<polygon points="133.0,0.0 132.0,67.0 162.0,107.0 233.0,106.0 257.0,69.0 304.0,120.0 340.0,119.0 331.0,55.0 253.0,0.0" fill="#eb573b" />
<polygon points="187.0,104.0 158.0,116.0 160.0,131.0 144.0,128.0 134.0,175.0 164.0,212.0 212.0,219.0 252.0,195.0 263.0,154.0 236.0,114.0" fill="#5ae6d4" />
<polygon points="0.0,0.0 0.0,158.0 125.0,158.0 142.0,111.0 162.0,111.0 127.0,66.0 131.0,0.0" fill="#5a3c3c" opacity="0.95" />
<polygon points="177.0,269.0 138.0,221.0 2.0,225.0 3.0,250.0 32.0,255.0 0.0,259.0 2.0,286.0 132.0,284.0 139.0,321.0 2.0,324.0 0.0,351.0 132.0,350.0 163.0,383.0 143.0,322.0" fill="#b6816b" />
<polygon points="255.0,0.0 356.0,64.0 340.0,121.0 304.0,121.0 255.0,73.0 232.0,109.0 267.0,144.0 268.0,189.0 383.0,190.0 383.0,163.0 287.0,161.0 383.0,159.0 383.0,38.0 326.0,36.0 383.0,34.0 383.0,0.0" fill="#5a3c3c" />
<polygon points="0.0,0.0 0.0,158.0 124.0,158.0 142.0,112.0 161.0,111.0 128.0,66.0 131.0,0.0" fill="#5a3c3c" opacity="0.95" />
<polygon points="133.0,0.0 133.0,69.0 160.0,105.0 232.0,105.0 257.0,70.0 303.0,119.0 340.0,119.0 331.0,55.0 254.0,0.0" fill="#eb573b" opacity="0.95" />
<polygon points="1.0,163.0 2.0,220.0 137.0,219.0 128.0,194.0 50.0,192.0 127.0,190.0 122.0,162.0" fill="#975f51" />
<polygon points="163.0,294.0 146.0,340.0 174.0,383.0 232.0,383.0 249.0,352.0 234.0,300.0 216.0,287.0 229.0,303.0 188.0,285.0" fill="#5a3c3c" />
<polygon points="0.0,290.0 2.0,320.0 131.0,319.0 130.0,288.0" fill="#5a3c3c" />
<polygon points="256.0,0.0 356.0,63.0 339.0,121.0 303.0,120.0 255.0,73.0 232.0,109.0 267.0,144.0 268.0,189.0 383.0,190.0 383.0,0.0" fill="#5a3c3c" opacity="0.95" />
<polygon points="264.0,289.0 265.0,320.0 383.0,320.0 383.0,288.0" fill="#5a3c3c" />
<polygon points="133.0,0.0 134.0,71.0 160.0,105.0 232.0,105.0 258.0,71.0 303.0,119.0 340.0,118.0 331.0,55.0 254.0,0.0" fill="#eb573b" opacity="0.95" />
<polygon points="0.0,164.0 3.0,220.0 131.0,219.0 122.0,162.0" fill="#975f51" opacity="0.95" />
<polygon points="187.0,104.0 158.0,116.0 161.0,130.0 144.0,128.0 134.0,175.0 164.0,212.0 212.0,219.0 252.0,195.0 263.0,154.0 236.0,114.0" fill="#5ae6d4" opacity="0.95" />
<polygon points="263.0,224.0 264.0,254.0 383.0,254.0 383.0,223.0" fill="#b6816b" />
<polygon points="178.0,272.0 136.0,222.0 3.0,225.0 0.0,285.0 131.0,286.0 138.0,322.0 3.0,324.0 0.0,351.0 133.0,351.0 163.0,383.0 143.0,321.0" fill="#b6816b" opacity="0.95" />
<polygon points="197.0,257.0 197.0,282.0 229.0,294.0 246.0,320.0 263.0,319.0 264.0,280.0 383.0,287.0 383.0,257.0 249.0,256.0 261.0,226.0 230.0,256.0" fill="#975f51" />
<polygon points="261.0,219.0 383.0,220.0 383.0,194.0 269.0,193.0" fill="#975f51" />
<polygon points="187.0,104.0 142.0,131.0 134.0,175.0 164.0,212.0 212.0,219.0 252.0,195.0 263.0,154.0 236.0,114.0" fill="#5ae6d4" opacity="0.95" />
<polygon points="267.0,327.0 269.0,350.0 383.0,351.0 383.0,325.0" fill="#b6816b" />
<polygon points="163.0,294.0 148.0,315.0 146.0,340.0 174.0,383.0 233.0,383.0 249.0,352.0 237.0,304.0 188.0,285.0" fill="#5a3c3c" opacity="0.95" />
<polygon points="0.0,165.0 4.0,220.0 131.0,218.0 121.0,162.0" fill="#975f51" opacity="0.95" />
<polygon points="0.0,227.0 0.0,285.0 130.0,286.0 138.0,320.0 4.0,324.0 0.0,351.0 132.0,350.0 163.0,383.0 143.0,321.0 178.0,272.0 139.0,225.0" fill="#b6816b" opacity="0.95" />
<polygon points="256.0,0.0 356.0,63.0 338.0,121.0 303.0,120.0 253.0,76.0 233.0,109.0 267.0,144.0 268.0,188.0 346.0,190.0 329.0,177.0 383.0,190.0 383.0,0.0" fill="#5a3c3c" opacity="0.95" />
<polygon points="130.0,195.0 149.0,233.0 194.0,252.0 244.0,238.0 266.0,199.0 230.0,225.0 186.0,231.0" fill="#720222" />
<polygon points="197.0,257.0 197.0,282.0 235.0,300.0 256.0,351.0 264.0,286.0 383.0,287.0 383.0,257.0 251.0,256.0 260.0,229.0 228.0,256.0" fill="#975f51" opacity="0.95" />
<polygon points="263.0,224.0 265.0,254.0 383.0,254.0 383.0,223.0" fill="#b6816b" opacity="0.95" />
<polygon points="262.0,217.0 383.0,220.0 383.0,194.0 269.0,193.0" fill="#975f51" opacity="0.95" />
<polygon points="268.0,327.0 270.0,350.0 383.0,351.0 383.0,325.0" fill="#b6816b" opacity="0.95" />
<polygon points="197.0,258.0 197.0,281.0 235.0,300.0 257.0,351.0 265.0,286.0 383.0,287.0 383.0,257.0 249.0,253.0 259.0,231.0 227.0,256.0" fill="#975f51" opacity="0.95" />
<polygon points="263.0,224.0 266.0,254.0 383.0,254.0 383.0,223.0" fill="#b6816b" opacity="0.95" />
<polygon points="131.0,200.0 149.0,233.0 194.0,252.0 241.0,240.0 265.0,205.0 222.0,228.0 186.0,231.0" fill="#720222" opacity="0.95" />
<polygon points="263.0,214.0 266.0,220.0 383.0,220.0 383.0,194.0 270.0,193.0" fill="#975f51" opacity="0.95" />
<polygon points="268.0,327.0 272.0,350.0 383.0,351.0 383.0,325.0" fill="#b6816b" opacity="0.95" />
<polygon points="247.0,119.0 265.0,159.0 255.0,193.0 221.0,218.0 167.0,224.0 215.0,229.0 258.0,203.0 269.0,154.0" fill="#291a1f" />
<polygon points="148.0,235.0 193.0,286.0 230.0,301.0 212.0,287.0 195.0,283.0 195.0,253.0" fill="#291a1f" />
<polygon points="265.0,202.0 210.0,231.0 177.0,229.0 132.0,207.0 163.0,243.0 207.0,252.0 244.0,238.0" fill="#720222" opacity="0.95" />
<polygon points="265.0,142.0 264.0,174.0 251.0,198.0 187.0,229.0 222.0,227.0 254.0,208.0 268.0,185.0" fill="#291a1f" opacity="0.95" />
<polygon points="261.0,351.0 250.0,352.0 249.0,363.0 234.0,383.0 259.0,383.0 258.0,356.0" fill="#b6816b" />
<polygon points="156.0,242.0 191.0,285.0 226.0,299.0 213.0,288.0 195.0,284.0 195.0,253.0" fill="#291a1f" opacity="0.95" />
<polygon points="144.0,121.0 134.0,133.0 126.0,155.0 127.0,175.0 133.0,181.0 132.0,153.0" fill="#a58e85" />
<polygon points="269.0,175.0 263.0,175.0 255.0,193.0 234.0,212.0 189.0,228.0 210.0,230.0 240.0,219.0 267.0,190.0" fill="#291a1f" opacity="0.95" />
<polygon points="130.0,180.0 138.0,200.0 160.0,218.0 163.0,214.0 145.0,201.0" fill="#d9bbaa" />
<polygon points="160.0,244.0 159.0,247.0 190.0,282.0 194.0,282.0 195.0,254.0" fill="#291a1f" opacity="0.95" />
<polygon points="163.0,110.0 190.0,102.0 231.0,107.0 217.0,101.0 191.0,99.0" fill="#291a1f" />
<polygon points="249.0,324.0 248.0,329.0 250.0,335.0 250.0,349.0 251.0,350.0 253.0,348.0 256.0,351.0 259.0,351.0 261.0,326.0 258.0,323.0" fill="#975f51" />
<polygon points="341.0,52.0 339.0,54.0 339.0,63.0 341.0,72.0 345.0,73.0 351.0,68.0 353.0,64.0 351.0,57.0 347.0,53.0" fill="#f6e0cc" />
<polygon points="144.0,110.0 143.0,114.0 149.0,125.0 149.0,130.0 153.0,131.0 161.0,128.0 155.0,123.0 154.0,115.0 149.0,110.0" fill="#291a1f" />
<polygon points="197.0,160.0 200.0,160.0 204.0,165.0 204.0,167.0 201.0,171.0 196.0,171.0 193.0,168.0 193.0,164.0" fill="#5ae6d4" />
<polygon points="136.0,132.0 126.0,155.0 127.0,175.0 131.0,179.0 132.0,153.0 138.0,137.0" fill="#a58e85" opacity="0.95" />
<polygon points="134.0,371.0 134.0,383.0 151.0,382.0 149.0,380.0 152.0,376.0 151.0,373.0 145.0,373.0 139.0,375.0 135.0,370.0" fill="#a58e85" />
<polygon points="130.0,182.0 143.0,206.0 156.0,216.0 161.0,216.0 162.0,213.0 145.0,201.0 134.0,182.0" fill="#d9bbaa" opacity="0.95" />
<polygon points="264.0,323.0 263.0,350.0 266.0,353.0 283.0,353.0 283.0,351.0 269.0,351.0 267.0,349.0 266.0,327.0 271.0,324.0" fill="#a58e85" />
<polygon points="342.0,52.0 340.0,53.0 339.0,63.0 341.0,72.0 345.0,73.0 351.0,68.0 352.0,59.0 348.0,54.0" fill="#f6e0cc" opacity="0.95" />
<polygon points="337.0,53.0 332.0,58.0 332.0,65.0 333.0,68.0 339.0,72.0 340.0,71.0 338.0,63.0 339.0,56.0" fill="#fbf8f3" />
<polygon points="195.0,161.0 199.0,160.0 203.0,163.0 204.0,167.0 202.0,170.0 197.0,171.0 193.0,168.0 193.0,164.0" fill="#5ae6d4" opacity="0.95" />
<polygon points="145.0,110.0 143.0,111.0 146.0,123.0 149.0,125.0 150.0,130.0 153.0,131.0 157.0,129.0 154.0,115.0 150.0,111.0" fill="#291a1f" opacity="0.95" />
<polygon points="200.0,161.0 198.0,161.0 194.0,164.0 194.0,168.0 196.0,170.0 200.0,170.0 202.0,168.0 202.0,163.0" fill="#291a1f" />
<polygon points="198.0,160.0 201.0,161.0 204.0,165.0 204.0,167.0 199.0,171.0 197.0,171.0 193.0,168.0 193.0,164.0" fill="#5ae6d4" opacity="0.95" />
<polygon points="343.0,52.0 340.0,54.0 339.0,63.0 341.0,71.0 345.0,73.0 351.0,68.0 352.0,59.0 348.0,54.0" fill="#f6e0cc" opacity="0.95" />
<polygon points="162.0,216.0 162.0,218.0 164.0,220.0 169.0,222.0 171.0,222.0 173.0,219.0 171.0,217.0 164.0,214.0" fill="#a58e85" />
<polygon points="179.0,274.0 178.0,275.0 178.0,280.0 177.0,281.0 178.0,282.0 177.0,284.0 178.0,285.0 181.0,285.0 184.0,284.0 187.0,281.0 185.0,278.0" fill="#a58e85" />
<polygon points="152.0,374.0 150.0,373.0 145.0,373.0 142.0,375.0 136.0,374.0 134.0,375.0 134.0,383.0 150.0,383.0 150.0,378.0 152.0,376.0" fill="#a58e85" opacity="0.95" />
<polygon points="130.0,148.0 127.0,150.0 126.0,160.0 128.0,162.0 126.0,166.0 127.0,175.0 130.0,177.0 133.0,175.0 132.0,166.0 130.0,164.0 133.0,150.0" fill="#a58e85" opacity="0.95" />
<polygon points="161.0,369.0 160.0,370.0 162.0,372.0 162.0,374.0 165.0,379.0 164.0,383.0 171.0,383.0" fill="#a58e85" />
<polygon points="336.0,54.0 332.0,58.0 332.0,65.0 333.0,68.0 338.0,72.0 340.0,71.0 340.0,68.0 338.0,63.0 338.0,55.0" fill="#fbf8f3" opacity="0.95" />
<polygon points="151.0,375.0 148.0,373.0 145.0,373.0 142.0,375.0 137.0,374.0 134.0,376.0 134.0,383.0 150.0,383.0 149.0,379.0" fill="#a58e85" opacity="0.95" />
<polygon points="149.0,209.0 149.0,211.0 158.0,217.0 161.0,215.0 161.0,213.0 152.0,207.0" fill="#d9bbaa" opacity="0.95" />
<polygon points="335.0,56.0 332.0,58.0 332.0,65.0 333.0,68.0 336.0,70.0 339.0,68.0 339.0,64.0 338.0,63.0 338.0,58.0" fill="#fbf8f3" opacity="0.95" />
<polygon points="141.0,196.0 138.0,198.0 138.0,200.0 142.0,203.0 145.0,201.0 145.0,199.0" fill="#d9bbaa" opacity="0.95" />
</svg>