<svg xmlns="http://www.w3.org/2000/svg" width="768" height="768" viewBox="0 0 384 384">
<rect width="384" height="384" fill="#925951"/>
<polygon points="326.0,39.0 42.0,39.0 42.0,77.0 290.0,78.0" fill="#a3443c" />
<polygon points="321.0,40.0 250.0,0.0 88.0,14.0 0.0,134.0 0.0,218.0 85.0,215.0 49.0,173.0 158.0,170.0 109.0,129.0 149.0,79.0 290.0,78.0" fill="#a3443c" opacity="0.95" />
<polygon points="42.0,77.0 241.0,87.0 304.0,73.0 322.0,39.0 279.0,38.0 285.0,15.0 250.0,0.0 144.0,0.0 45.0,40.0" fill="#a3443c" opacity="0.95" />
<polygon points="6.0,276.0 27.0,287.0 54.0,320.0 157.0,319.0 154.0,278.0" fill="#a3443c" />
<polygon points="62.0,33.0 280.0,34.0 291.0,25.0 250.0,0.0 147.0,0.0 89.0,10.0" fill="#a3443c" />
<polygon points="374.0,275.0 246.0,279.0 235.0,292.0 237.0,318.0 325.0,319.0" fill="#a3443c" />
<polygon points="301.0,83.0 224.0,93.0 205.0,124.0 198.0,383.0 214.0,383.0 216.0,119.0 304.0,112.0" fill="#9ab29e" />
<polygon points="0.0,134.0 2.0,174.0 35.0,173.0 38.0,165.0 41.0,173.0 160.0,168.0 126.0,158.0 113.0,131.0" fill="#a3443c" />
<polygon points="383.0,176.0 321.0,180.0 284.0,209.0 233.0,215.0 383.0,219.0" fill="#a3443c" />
<polygon points="151.0,85.0 45.0,85.0 15.0,125.0 47.0,130.0 0.0,134.0 0.0,218.0 88.0,213.0 81.0,186.0 19.0,173.0 160.0,169.0 71.0,129.0 115.0,124.0" fill="#a3443c" opacity="0.95" />
<polygon points="139.0,133.0 161.0,148.0 161.0,234.0 181.0,234.0 186.0,287.0 160.0,293.0 150.0,383.0 197.0,383.0 200.0,193.0 189.0,176.0 182.0,210.0 174.0,176.0 167.0,198.0 166.0,137.0" fill="#042138" />
<polygon points="0.0,181.0 2.0,220.0 67.0,219.0 88.0,212.0 89.0,196.0 79.0,185.0 44.0,179.0" fill="#a3443c" />
<polygon points="219.0,206.0 225.0,383.0 244.0,383.0 229.0,213.0" fill="#042138" />
<polygon points="0.0,32.0 58.0,34.0 82.0,22.0 89.0,8.0 93.0,14.0 146.0,0.0 0.0,0.0" fill="#64282b" />
<polygon points="46.0,228.0 48.0,268.0 89.0,267.0 88.0,228.0" fill="#ca8267" />
<polygon points="363.0,53.0 326.0,45.0 365.0,76.0 349.0,135.0 326.0,140.0 304.0,113.0 226.0,111.0 218.0,171.0 247.0,140.0 290.0,140.0 309.0,158.0 355.0,149.0 375.0,105.0" fill="#042138" />
<polygon points="221.0,101.0 138.0,115.0 176.0,125.0 169.0,199.0 166.0,136.0 138.0,140.0 161.0,148.0 186.0,287.0 160.0,294.0 150.0,383.0 197.0,383.0 177.0,125.0 195.0,170.0" fill="#042138" opacity="0.95" />
<polygon points="264.0,226.0 264.0,267.0 303.0,268.0 304.0,227.0" fill="#ca8267" />
<polygon points="251.0,0.0 284.0,13.0 294.0,34.0 356.0,32.0 348.0,8.0 330.0,0.0" fill="#64282b" />
<polygon points="300.0,84.0 225.0,93.0 205.0,124.0 198.0,383.0 214.0,383.0 216.0,119.0 302.0,112.0" fill="#9ab29e" opacity="0.95" />
<polygon points="218.0,101.0 138.0,115.0 174.0,126.0 138.0,140.0 172.0,148.0 161.0,228.0 186.0,287.0 160.0,295.0 150.0,383.0 197.0,383.0 200.0,195.0 177.0,172.0" fill="#042138" opacity="0.95" />
<polygon points="132.0,227.0 98.0,227.0 95.0,230.0 96.0,268.0 133.0,267.0 134.0,230.0" fill="#ca8267" />
<polygon points="327.0,48.0 308.0,67.0 305.0,101.0 317.0,131.0 333.0,137.0 343.0,114.0 344.0,88.0 337.0,71.0 327.0,65.0 333.0,52.0" fill="#e1a471" />
<polygon points="0.0,280.0 2.0,320.0 51.0,318.0 27.0,288.0 7.0,278.0" fill="#64282b" />
<polygon points="0.0,331.0 4.0,363.0 25.0,371.0 42.0,371.0 47.0,364.0 52.0,371.0 94.0,369.0 90.0,340.0 81.0,348.0 46.0,345.0 25.0,330.0" fill="#64282b" />
<polygon points="383.0,274.0 367.0,279.0 350.0,292.0 327.0,318.0 383.0,319.0" fill="#64282b" />
<polygon points="363.0,53.0 330.0,42.0 366.0,80.0 349.0,135.0 230.0,110.0 217.0,166.0 255.0,139.0 355.0,149.0 375.0,105.0" fill="#042138" opacity="0.95" />
<polygon points="313.0,226.0 309.0,230.0 309.0,267.0 339.0,268.0 344.0,257.0 350.0,253.0 350.0,227.0" fill="#ca8267" />
<polygon points="133.0,229.0 27.0,227.0 19.0,248.0 23.0,263.0 35.0,269.0 130.0,268.0" fill="#ca8267" opacity="0.95" />
<polygon points="215.0,154.0 215.0,383.0 223.0,383.0" fill="#f6f6f2" />
<polygon points="299.0,84.0 226.0,93.0 205.0,124.0 198.0,383.0 214.0,383.0 216.0,119.0 301.0,112.0" fill="#9ab29e" opacity="0.95" />
<polygon points="97.0,328.0 98.0,358.0 109.0,354.0 127.0,355.0 132.0,361.0 145.0,363.0 152.0,360.0 155.0,327.0" fill="#ca8267" />
<polygon points="302.0,329.0 294.0,330.0 264.0,350.0 262.0,371.0 305.0,369.0" fill="#aa644f" />
<polygon points="263.0,227.0 266.0,268.0 338.0,268.0 350.0,252.0 348.0,226.0 314.0,226.0 307.0,231.0 302.0,226.0" fill="#ca8267" opacity="0.95" />
<polygon points="220.0,208.0 225.0,383.0 244.0,383.0 229.0,213.0" fill="#042138" opacity="0.95" />
<polygon points="22.0,228.0 25.0,234.0 19.0,248.0 25.0,266.0 89.0,267.0 89.0,229.0" fill="#ca8267" opacity="0.95" />
<polygon points="0.0,32.0 57.0,34.0 82.0,22.0 89.0,10.0 143.0,0.0 0.0,0.0" fill="#64282b" opacity="0.95" />
<polygon points="138.0,119.0 144.0,123.0 203.0,125.0 225.0,102.0 163.0,101.0 159.0,120.0 154.0,109.0 142.0,109.0" fill="#042138" />
<polygon points="0.0,124.0 9.0,126.0 20.0,120.0 35.0,102.0 43.0,102.0 53.0,91.0 24.0,84.0 2.0,84.0" fill="#64282b" />
<polygon points="231.0,228.0 233.0,260.0 242.0,268.0 252.0,266.0 259.0,236.0 267.0,268.0 336.0,268.0 350.0,252.0 347.0,226.0" fill="#ca8267" opacity="0.95" />
<polygon points="140.0,226.0 137.0,230.0 138.0,267.0 158.0,268.0 160.0,228.0 157.0,226.0" fill="#aa644f" />
<polygon points="335.0,326.0 298.0,328.0 260.0,354.0 242.0,342.0 242.0,367.0 301.0,371.0" fill="#aa644f" opacity="0.95" />
<polygon points="359.0,65.0 343.0,78.0 345.0,109.0 336.0,137.0 351.0,132.0 364.0,110.0 366.0,89.0" fill="#dfbda0" />
<polygon points="383.0,325.0 361.0,325.0 353.0,329.0 353.0,370.0 367.0,370.0 375.0,362.0 383.0,359.0" fill="#64282b" />
<polygon points="331.0,0.0 349.0,8.0 355.0,29.0 360.0,33.0 383.0,33.0 383.0,0.0" fill="#3e2029" />
<polygon points="94.0,180.0 93.0,218.0 99.0,220.0 149.0,218.0 101.0,217.0 102.0,193.0 160.0,193.0 159.0,178.0" fill="#aa644f" />
<polygon points="251.0,0.0 285.0,14.0 295.0,34.0 355.0,32.0 348.0,8.0 332.0,0.0" fill="#64282b" opacity="0.95" />
<polygon points="354.0,44.0 332.0,44.0 365.0,76.0 357.0,127.0 330.0,141.0 303.0,113.0 226.0,111.0 227.0,189.0 241.0,142.0 309.0,155.0 363.0,141.0 375.0,87.0" fill="#042138" opacity="0.95" />
<polygon points="221.0,209.0 225.0,383.0 244.0,383.0 229.0,214.0" fill="#042138" opacity="0.95" />
<polygon points="159.0,222.0 0.0,221.0 0.0,227.0" fill="#f3ddcc" />
<polygon points="303.0,150.0 263.0,141.0 236.0,151.0 284.0,148.0 299.0,177.0 267.0,204.0 240.0,204.0 222.0,183.0 221.0,207.0 261.0,212.0 292.0,203.0 308.0,179.0" fill="#9ab29e" />
<polygon points="232.0,226.0 233.0,261.0 240.0,263.0 234.0,267.0 251.0,268.0 255.0,259.0 258.0,227.0" fill="#ca8267" />
<polygon points="327.0,48.0 308.0,67.0 305.0,101.0 314.0,127.0 332.0,137.0 343.0,114.0 344.0,88.0 328.0,65.0 333.0,49.0" fill="#e1a471" opacity="0.95" />
<polygon points="32.0,39.0 2.0,39.0 0.0,41.0 0.0,71.0 3.0,74.0 30.0,56.0 34.0,48.0" fill="#3e2029" />
<polygon points="2.0,228.0 0.0,230.0 0.0,266.0 23.0,268.0 18.0,243.0 24.0,232.0 17.0,228.0" fill="#aa644f" />
<polygon points="0.0,331.0 0.0,361.0 28.0,372.0 5.0,380.0 30.0,380.0 29.0,372.0 47.0,365.0 94.0,369.0 90.0,340.0 63.0,348.0 25.0,330.0" fill="#64282b" opacity="0.95" />
<polygon points="0.0,321.0 0.0,325.0 157.0,323.0" fill="#f3ddcc" />
<polygon points="383.0,376.0 246.0,379.0 245.0,383.0 383.0,383.0" fill="#3e2029" />
<polygon points="333.0,327.0 298.0,328.0 260.0,354.0 243.0,343.0 242.0,367.0 301.0,371.0" fill="#aa644f" opacity="0.95" />
<polygon points="335.0,325.0 308.0,327.0 309.0,369.0 316.0,353.0 337.0,327.0" fill="#aa644f" />
<polygon points="327.0,48.0 308.0,67.0 305.0,101.0 314.0,127.0 332.0,137.0 343.0,114.0 344.0,88.0 328.0,65.0 333.0,50.0" fill="#e1a471" opacity="0.95" />
<polygon points="335.0,47.0 329.0,64.0 343.0,77.0 358.0,64.0 348.0,52.0" fill="#f6f6f2" />
<polygon points="292.0,179.0 239.0,181.0 234.0,184.0 233.0,196.0 243.0,203.0 255.0,203.0 250.0,199.0 263.0,193.0 269.0,185.0" fill="#aa644f" />
<polygon points="158.0,270.0 95.0,270.0 92.0,230.0 89.0,270.0 0.0,269.0 0.0,274.0" fill="#f3ddcc" />
<polygon points="97.0,360.0 98.0,372.0 152.0,370.0 151.0,362.0 132.0,362.0 127.0,356.0 115.0,358.0 102.0,355.0" fill="#aa644f" />
<polygon points="342.0,270.0 306.0,267.0 235.0,269.0 234.0,272.0" fill="#f3ddcc" />
<polygon points="333.0,0.0 349.0,7.0 357.0,31.0 383.0,33.0 383.0,0.0" fill="#3e2029" opacity="0.95" />
<polygon points="56.0,179.0 94.0,189.0 93.0,216.0 79.0,220.0 102.0,219.0 102.0,193.0 160.0,192.0 158.0,178.0" fill="#aa644f" opacity="0.95" />
<polygon points="358.0,67.0 343.0,78.0 345.0,109.0 338.0,137.0 354.0,129.0 364.0,110.0 365.0,81.0" fill="#dfbda0" opacity="0.95" />
<polygon points="303.0,150.0 289.0,141.0 254.0,146.0 289.0,151.0 297.0,183.0 275.0,202.0 252.0,205.0 222.0,183.0 221.0,207.0 261.0,212.0 292.0,203.0 308.0,179.0" fill="#9ab29e" opacity="0.95" />
<polygon points="33.0,40.0 1.0,40.0 0.0,71.0 4.0,73.0 28.0,58.0 33.0,51.0" fill="#3e2029" opacity="0.95" />
<polygon points="138.0,222.0 0.0,221.0 0.0,227.0" fill="#f3ddcc" opacity="0.95" />
<polygon points="216.0,268.0 215.0,383.0 223.0,383.0" fill="#f6f6f2" opacity="0.95" />
<polygon points="383.0,376.0 261.0,378.0 245.0,383.0 383.0,383.0" fill="#3e2029" opacity="0.95" />
<polygon points="336.0,0.0 349.0,8.0 357.0,31.0 383.0,33.0 383.0,0.0" fill="#3e2029" opacity="0.95" />
<polygon points="303.0,150.0 289.0,141.0 258.0,144.0 289.0,151.0 297.0,183.0 267.0,204.0 241.0,204.0 223.0,188.0 221.0,207.0 261.0,212.0 292.0,203.0 308.0,179.0" fill="#9ab29e" opacity="0.95" />
<polygon points="226.0,37.0 194.0,34.0 134.0,37.0" fill="#dfbda0" />
<polygon points="358.0,67.0 343.0,78.0 345.0,109.0 337.0,130.0 340.0,136.0 354.0,129.0 364.0,110.0 365.0,81.0" fill="#dfbda0" opacity="0.95" />
<polygon points="33.0,40.0 0.0,41.0 0.0,71.0 4.0,73.0 28.0,58.0 33.0,51.0" fill="#3e2029" opacity="0.95" />
<polygon points="129.0,109.0 118.0,130.0 119.0,143.0 126.0,153.0 131.0,148.0 125.0,136.0" fill="#e1a471" />
<polygon points="222.0,96.0 207.0,94.0 189.0,97.0 149.0,97.0 148.0,100.0 221.0,99.0" fill="#dfbda0" />
<polygon points="336.0,47.0 329.0,65.0 344.0,76.0 357.0,65.0 357.0,62.0 348.0,52.0" fill="#f6f6f2" opacity="0.95" />
<polygon points="235.0,174.0 238.0,176.0 291.0,176.0 293.0,174.0" fill="#f3ddcc" />
<polygon points="383.0,360.0 372.0,366.0 378.0,372.0 374.0,377.0 261.0,378.0 245.0,383.0 383.0,383.0" fill="#3e2029" opacity="0.95" />
<polygon points="234.0,270.0 236.0,273.0 309.0,271.0 307.0,268.0" fill="#f3ddcc" opacity="0.95" />
<polygon points="63.0,128.0 117.0,129.0 116.0,126.0" fill="#f3ddcc" />
<polygon points="247.0,142.0 234.0,148.0 226.0,157.0 221.0,170.0 222.0,182.0 231.0,155.0 246.0,146.0" fill="#f6f6f2" />
<polygon points="90.0,322.0 92.0,325.0 156.0,324.0 154.0,321.0" fill="#f3ddcc" opacity="0.95" />
<polygon points="337.0,48.0 334.0,50.0 330.0,65.0 344.0,76.0 357.0,65.0 357.0,62.0 348.0,52.0" fill="#f6f6f2" opacity="0.95" />
<polygon points="0.0,127.0 0.0,131.0 43.0,129.0" fill="#f3ddcc" />
<polygon points="293.0,36.0 290.0,34.0 288.0,36.0 243.0,35.0 236.0,37.0" fill="#dfbda0" />
<polygon points="40.0,80.0 2.0,80.0 1.0,82.0 36.0,83.0" fill="#dfbda0" />
<polygon points="218.0,333.0 215.0,335.0 215.0,383.0 223.0,383.0 221.0,335.0" fill="#f6f6f2" opacity="0.95" />
<polygon points="202.0,131.0 197.0,145.0 197.0,161.0 200.0,157.0 201.0,143.0 204.0,135.0" fill="#f6f6f2" />
<polygon points="126.0,114.0 120.0,123.0 118.0,139.0 122.0,149.0 127.0,153.0 130.0,144.0 125.0,136.0 128.0,119.0" fill="#e1a471" opacity="0.95" />
<polygon points="0.0,365.0 0.0,369.0 2.0,371.0 21.0,371.0 22.0,370.0 8.0,364.0 2.0,363.0" fill="#3e2029" />
<polygon points="143.0,103.0 138.0,105.0 135.0,108.0 132.0,113.0 133.0,115.0 137.0,114.0 144.0,106.0" fill="#e1a471" />
<polygon points="222.0,96.0 219.0,94.0 194.0,95.0 192.0,96.0 192.0,98.0 220.0,99.0 222.0,98.0" fill="#dfbda0" opacity="0.95" />
<polygon points="124.0,119.0 120.0,123.0 118.0,139.0 122.0,149.0 126.0,152.0 130.0,149.0 130.0,145.0 125.0,136.0 127.0,121.0" fill="#e1a471" opacity="0.95" />
<polygon points="164.0,273.0 162.0,276.0 162.0,278.0 165.0,281.0 172.0,282.0 173.0,281.0 173.0,277.0 172.0,276.0 167.0,276.0" fill="#f6f6f2" />
<polygon points="162.0,287.0 162.0,291.0 163.0,292.0 171.0,292.0 172.0,291.0 172.0,287.0 171.0,286.0 167.0,286.0 165.0,285.0" fill="#f6f6f2" />
<polygon points="363.0,323.0 364.0,324.0 365.0,323.0 367.0,323.0 368.0,324.0 383.0,324.0 383.0,321.0 365.0,321.0" fill="#dfbda0" />
<polygon points="258.0,370.0 256.0,372.0 253.0,372.0 252.0,373.0 257.0,378.0 259.0,378.0 263.0,373.0 262.0,372.0 260.0,372.0" fill="#dfbda0" />
<polygon points="144.0,104.0 142.0,103.0 138.0,105.0 133.0,111.0 133.0,113.0 135.0,114.0 138.0,113.0 144.0,106.0" fill="#e1a471" opacity="0.95" />
</svg>