<svg xmlns="http://www.w3.org/2000/svg" width="768" height="768" viewBox="0 0 384 384">
<rect width="384" height="384" fill="#98655a"/>
<polygon points="60.0,57.0 334.0,58.0 285.0,16.0 219.0,0.0 125.0,13.0" fill="#a04439" />
<polygon points="180.0,195.0 226.0,215.0 233.0,255.0 353.0,253.0 356.0,194.0" fill="#c7a291" />
<polygon points="11.0,123.0 71.0,125.0 82.0,62.0 185.0,63.0 192.0,125.0 369.0,120.0 318.0,37.0 187.0,0.0 84.0,31.0" fill="#a04439" opacity="0.95" />
<polygon points="200.0,130.0 201.0,190.0 308.0,190.0 315.0,183.0 315.0,129.0" fill="#7dacaf" />
<polygon points="10.0,254.0 142.0,255.0 144.0,227.0 170.0,207.0 168.0,196.0 20.0,194.0" fill="#c7a291" />
<polygon points="184.0,67.0 201.0,83.0 199.0,103.0 185.0,105.0 191.0,125.0 372.0,124.0 361.0,87.0 342.0,66.0" fill="#a04439" />
<polygon points="9.0,260.0 21.0,297.0 43.0,319.0 150.0,319.0 166.0,307.0 164.0,286.0 144.0,273.0 144.0,258.0" fill="#a04439" />
<polygon points="2.0,61.0 57.0,62.0 86.0,29.0 186.0,0.0 2.0,0.0" fill="#5f251f" />
<polygon points="13.0,119.0 70.0,125.0 84.0,62.0 182.0,62.0 192.0,125.0 369.0,123.0 318.0,37.0 232.0,0.0 84.0,31.0" fill="#a04439" opacity="0.95" />
<polygon points="222.0,284.0 231.0,305.0 246.0,307.0 247.0,319.0 341.0,319.0 357.0,300.0 366.0,267.0 363.0,258.0 234.0,258.0" fill="#a04439" />
<polygon points="317.0,133.0 313.0,190.0 383.0,188.0 381.0,129.0" fill="#4b8083" />
<polygon points="173.0,67.0 130.0,67.0 110.0,129.0 44.0,130.0 53.0,192.0 20.0,195.0 11.0,254.0 143.0,254.0 170.0,205.0 137.0,112.0 172.0,102.0 155.0,91.0" fill="#c7a291" opacity="0.95" />
<polygon points="186.0,208.0 197.0,275.0 171.0,212.0 146.0,234.0 171.0,294.0 156.0,354.0 204.0,329.0 209.0,380.0 240.0,342.0 211.0,280.0 219.0,226.0" fill="#a04439" />
<polygon points="172.0,66.0 129.0,69.0 112.0,129.0 43.0,131.0 50.0,190.0 166.0,189.0 158.0,152.0 137.0,146.0 150.0,133.0 134.0,128.0 142.0,106.0 172.0,102.0 155.0,96.0 173.0,88.0" fill="#c7a291" />
<polygon points="220.0,0.0 285.0,15.0 318.0,36.0 335.0,62.0 383.0,62.0 383.0,0.0" fill="#5f251f" />
<polygon points="239.0,356.0 200.0,292.0 221.0,245.0 204.0,210.0 185.0,209.0 193.0,276.0 170.0,212.0 147.0,260.0 10.0,259.0 43.0,319.0 165.0,311.0 156.0,351.0 205.0,330.0 207.0,380.0" fill="#a04439" opacity="0.95" />
<polygon points="200.0,130.0 202.0,190.0 308.0,190.0 315.0,183.0 314.0,129.0" fill="#7dacaf" opacity="0.95" />
<polygon points="61.0,325.0 86.0,355.0 127.0,383.0 174.0,383.0 152.0,367.0 152.0,324.0" fill="#c7a291" />
<polygon points="8.0,325.0 52.0,383.0 126.0,383.0 86.0,356.0 58.0,324.0" fill="#a07768" />
<polygon points="171.0,67.0 129.0,69.0 111.0,128.0 44.0,131.0 52.0,191.0 16.0,201.0 14.0,254.0 143.0,253.0 169.0,201.0 134.0,127.0 172.0,101.0 155.0,96.0" fill="#c7a291" opacity="0.95" />
<polygon points="169.0,130.0 182.0,201.0 226.0,215.0 232.0,254.0 352.0,254.0 355.0,195.0 196.0,194.0 195.0,130.0" fill="#c7a291" opacity="0.95" />
<polygon points="174.0,71.0 144.0,232.0 173.0,212.0 187.0,276.0 182.0,210.0 216.0,218.0 241.0,354.0 157.0,357.0 168.0,302.0 152.0,351.0 209.0,383.0 252.0,337.0 226.0,217.0 176.0,187.0" fill="#03010b" />
<polygon points="369.0,325.0 327.0,324.0 304.0,357.0 263.0,383.0 330.0,383.0" fill="#a07768" />
<polygon points="0.0,124.0 12.0,122.0 38.0,64.0 58.0,61.0 84.0,30.0 186.0,0.0 0.0,0.0" fill="#5f251f" opacity="0.95" />
<polygon points="222.0,284.0 228.0,302.0 243.0,304.0 248.0,319.0 341.0,319.0 357.0,300.0 366.0,267.0 362.0,258.0 235.0,258.0" fill="#a04439" opacity="0.95" />
<polygon points="239.0,356.0 200.0,291.0 221.0,245.0 204.0,210.0 185.0,210.0 193.0,276.0 169.0,212.0 145.0,259.0 12.0,260.0 43.0,319.0 163.0,312.0 156.0,348.0 203.0,329.0 208.0,380.0" fill="#a04439" opacity="0.95" />
<polygon points="3.0,129.0 0.0,187.0 49.0,188.0 49.0,158.0 39.0,143.0 43.0,134.0 38.0,130.0" fill="#a07768" />
<polygon points="200.0,131.0 203.0,190.0 308.0,190.0 315.0,183.0 313.0,129.0" fill="#7dacaf" opacity="0.95" />
<polygon points="215.0,383.0 262.0,383.0 303.0,355.0 325.0,325.0 251.0,324.0 255.0,350.0 248.0,365.0" fill="#c7a291" />
<polygon points="220.0,0.0 283.0,14.0 349.0,64.0 370.0,122.0 383.0,125.0 383.0,0.0" fill="#5f251f" opacity="0.95" />
<polygon points="128.0,66.0 98.0,67.0 88.0,87.0 82.0,126.0 112.0,123.0" fill="#a07768" />
<polygon points="169.0,131.0 181.0,199.0 226.0,215.0 233.0,254.0 350.0,253.0 354.0,195.0 198.0,194.0 195.0,131.0" fill="#c7a291" opacity="0.95" />
<polygon points="317.0,132.0 316.0,183.0 312.0,189.0 383.0,188.0 383.0,131.0" fill="#4b8083" opacity="0.95" />
<polygon points="0.0,123.0 12.0,121.0 36.0,65.0 58.0,61.0 84.0,30.0 179.0,0.0 0.0,0.0" fill="#5f251f" opacity="0.95" />
<polygon points="383.0,324.0 372.0,324.0 333.0,378.0 333.0,383.0 383.0,383.0" fill="#7d5448" />
<polygon points="233.0,0.0 318.0,36.0 350.0,65.0 370.0,121.0 383.0,125.0 383.0,0.0" fill="#5f251f" opacity="0.95" />
<polygon points="62.0,325.0 86.0,355.0 127.0,383.0 173.0,383.0 152.0,367.0 153.0,325.0" fill="#c7a291" opacity="0.95" />
<polygon points="9.0,325.0 52.0,383.0 126.0,383.0 86.0,356.0 58.0,324.0" fill="#a07768" opacity="0.95" />
<polygon points="318.0,132.0 315.0,189.0 383.0,188.0 382.0,131.0" fill="#4b8083" opacity="0.95" />
<polygon points="359.0,194.0 360.0,227.0 351.0,250.0 356.0,254.0 383.0,254.0 383.0,194.0" fill="#a07768" />
<polygon points="3.0,325.0 2.0,383.0 49.0,383.0 23.0,352.0 11.0,330.0" fill="#7d5448" />
<polygon points="383.0,258.0 365.0,260.0 365.0,282.0 346.0,319.0 383.0,319.0" fill="#5f251f" />
<polygon points="37.0,130.0 0.0,131.0 4.0,254.0 14.0,242.0 15.0,192.0 49.0,188.0 49.0,158.0" fill="#a07768" opacity="0.95" />
<polygon points="175.0,71.0 138.0,145.0 184.0,275.0 183.0,209.0 218.0,221.0 228.0,310.0 230.0,225.0 181.0,202.0 158.0,122.0 199.0,101.0" fill="#03010b" opacity="0.95" />
<polygon points="346.0,66.0 362.0,87.0 370.0,121.0 383.0,125.0 383.0,66.0" fill="#5f251f" />
<polygon points="42.0,66.0 1.0,67.0 4.0,126.0 12.0,121.0 26.0,80.0" fill="#5f251f" />
<polygon points="368.0,325.0 326.0,325.0 304.0,357.0 263.0,383.0 330.0,383.0" fill="#a07768" opacity="0.95" />
<polygon points="3.0,258.0 2.0,318.0 37.0,319.0 14.0,285.0 11.0,263.0" fill="#5f251f" />
<polygon points="37.0,130.0 0.0,132.0 5.0,254.0 14.0,241.0 17.0,193.0 49.0,187.0 49.0,158.0" fill="#a07768" opacity="0.95" />
<polygon points="11.0,326.0 24.0,352.0 52.0,383.0 125.0,383.0 86.0,356.0 59.0,325.0" fill="#a07768" opacity="0.95" />
<polygon points="383.0,324.0 370.0,325.0 333.0,383.0 383.0,383.0" fill="#7d5448" opacity="0.95" />
<polygon points="175.0,71.0 174.0,102.0 142.0,107.0 137.0,131.0 159.0,151.0 187.0,276.0 159.0,122.0 199.0,99.0" fill="#03010b" opacity="0.95" />
<polygon points="0.0,327.0 0.0,383.0 49.0,383.0 15.0,341.0 10.0,328.0" fill="#7d5448" opacity="0.95" />
<polygon points="205.0,332.0 192.0,332.0 187.0,340.0 167.0,345.0 154.0,367.0 175.0,383.0 209.0,383.0 203.0,379.0 201.0,362.0" fill="#03010b" opacity="0.95" />
<polygon points="96.0,66.0 82.0,69.0 73.0,126.0 81.0,122.0 87.0,87.0" fill="#7d5448" />
<polygon points="383.0,324.0 373.0,324.0 366.0,330.0 333.0,383.0 383.0,383.0" fill="#7d5448" opacity="0.95" />
<polygon points="0.0,320.0 0.0,324.0 152.0,322.0" fill="#faf7f3" />
<polygon points="1.0,328.0 0.0,383.0 49.0,383.0 23.0,352.0 10.0,329.0" fill="#7d5448" opacity="0.95" />
<polygon points="204.0,333.0 192.0,332.0 186.0,340.0 167.0,345.0 155.0,359.0 155.0,367.0 174.0,383.0 205.0,383.0 201.0,362.0" fill="#03010b" opacity="0.95" />
<polygon points="240.0,307.0 233.0,319.0 241.0,354.0 225.0,379.0 240.0,372.0 252.0,353.0 252.0,337.0" fill="#03010b" opacity="0.95" />
<polygon points="94.0,66.0 82.0,69.0 72.0,113.0 75.0,126.0 80.0,124.0" fill="#7d5448" opacity="0.95" />
<polygon points="199.0,127.0 196.0,128.0 198.0,192.0" fill="#faf7f3" />
<polygon points="205.0,204.0 202.0,208.0 216.0,218.0 222.0,232.0 220.0,262.0 212.0,275.0 216.0,286.0 221.0,271.0 231.0,265.0 232.0,235.0 226.0,217.0" fill="#03010b" opacity="0.95" />
<polygon points="240.0,307.0 233.0,317.0 241.0,340.0 239.0,360.0 230.0,372.0 233.0,376.0 246.0,366.0 252.0,353.0 252.0,337.0" fill="#03010b" opacity="0.95" />
<polygon points="144.0,236.0 144.0,250.0 150.0,263.0 148.0,275.0 160.0,277.0 168.0,293.0 165.0,278.0 153.0,271.0" fill="#03010b" />
<polygon points="92.0,66.0 82.0,69.0 79.0,95.0 72.0,113.0 76.0,126.0 80.0,123.0 87.0,87.0 95.0,70.0" fill="#7d5448" opacity="0.95" />
<polygon points="210.0,290.0 214.0,318.0 217.0,321.0 219.0,317.0 223.0,321.0 225.0,319.0 223.0,314.0 218.0,317.0 216.0,315.0" fill="#03010b" />
</svg>