<svg xmlns="http://www.w3.org/2000/svg" width="768" height="768" viewBox="0 0 384 384">
<rect width="384" height="384" fill="#976555"/>
<polygon points="41.0,40.0 1.0,219.0 30.0,127.0 161.0,121.0 52.0,80.0 99.0,34.0 295.0,33.0 332.0,80.0 184.0,122.0 360.0,127.0 314.0,170.0 383.0,268.0 347.0,39.0 121.0,0.0" fill="#8f564b" opacity="0.95" />
<polygon points="378.0,82.0 352.0,67.0 353.0,82.0 192.0,81.0 184.0,122.0 370.0,126.0 363.0,89.0" fill="#8f564b" />
<polygon points="9.0,126.0 157.0,124.0 165.0,82.0 22.0,82.0 31.0,89.0" fill="#8f564b" />
<polygon points="58.0,33.0 221.0,24.0 327.0,33.0 276.0,0.0 122.0,0.0" fill="#8f564b" />
<polygon points="165.0,134.0 154.0,383.0 187.0,361.0 171.0,383.0 210.0,383.0 229.0,256.0 265.0,230.0 191.0,193.0 195.0,257.0 171.0,233.0 185.0,279.0 164.0,280.0" fill="#03091d" />
<polygon points="41.0,40.0 28.0,220.0 39.0,127.0 161.0,121.0 55.0,79.0 103.0,33.0 289.0,34.0 326.0,80.0 184.0,122.0 325.0,126.0 373.0,225.0 231.0,318.0 375.0,368.0 346.0,39.0" fill="#8f564b" opacity="0.95" />
<polygon points="183.0,171.0 312.0,172.0 313.0,138.0 324.0,131.0 199.0,134.0 185.0,128.0" fill="#bd7d67" />
<polygon points="383.0,274.0 258.0,279.0 229.0,319.0 370.0,320.0 367.0,291.0" fill="#8f564b" />
<polygon points="33.0,178.0 42.0,185.0 38.0,220.0 159.0,218.0 159.0,178.0" fill="#bd7d67" />
<polygon points="164.0,123.0 47.0,131.0 52.0,144.0 38.0,138.0 25.0,173.0 159.0,172.0" fill="#bd7d67" />
<polygon points="169.0,32.0 154.0,383.0 210.0,383.0 229.0,256.0 265.0,230.0 191.0,193.0 175.0,232.0 180.0,43.0 217.0,33.0" fill="#03091d" opacity="0.95" />
<polygon points="158.0,231.0 153.0,223.0 47.0,224.0 46.0,267.0 153.0,268.0 158.0,246.0 152.0,240.0" fill="#c89b82" />
<polygon points="0.0,275.0 23.0,320.0 134.0,319.0 112.0,310.0 100.0,279.0" fill="#8f564b" />
<polygon points="234.0,267.0 349.0,267.0 350.0,226.0 263.0,223.0 267.0,234.0 248.0,239.0" fill="#c89b82" />
<polygon points="187.0,32.0 154.0,383.0 210.0,383.0 229.0,256.0 265.0,235.0 190.0,194.0 187.0,307.0" fill="#03091d" opacity="0.95" />
<polygon points="0.0,32.0 57.0,33.0 121.0,0.0 0.0,0.0" fill="#58302f" />
<polygon points="218.0,375.0 298.0,371.0 308.0,357.0 308.0,333.0 317.0,326.0 225.0,325.0" fill="#c89b82" />
<polygon points="164.0,129.0 54.0,130.0 49.0,146.0 39.0,137.0 29.0,161.0 42.0,185.0 38.0,219.0 159.0,218.0 160.0,180.0 105.0,175.0 160.0,171.0" fill="#bd7d67" opacity="0.95" />
<polygon points="277.0,0.0 328.0,33.0 383.0,33.0 383.0,0.0" fill="#58302f" />
<polygon points="331.0,77.0 279.0,47.0 293.0,37.0 243.0,38.0 249.0,65.0 224.0,38.0 182.0,46.0 188.0,77.0" fill="#bd7d67" />
<polygon points="184.0,129.0 185.0,172.0 300.0,174.0 184.0,181.0 187.0,218.0 203.0,191.0 258.0,218.0 335.0,218.0 349.0,176.0 310.0,174.0 320.0,130.0" fill="#bd7d67" opacity="0.95" />
<polygon points="352.0,155.0 350.0,175.0 211.0,189.0 183.0,180.0 183.0,212.0 193.0,219.0 187.0,195.0 205.0,192.0 258.0,218.0 338.0,220.0" fill="#bd7d67" />
<polygon points="0.0,327.0 0.0,358.0 14.0,371.0 94.0,370.0 90.0,334.0 78.0,347.0 65.0,332.0 42.0,325.0" fill="#8f564b" />
<polygon points="164.0,130.0 58.0,130.0 47.0,146.0 38.0,139.0 29.0,171.0 41.0,176.0 40.0,218.0 158.0,218.0 154.0,175.0" fill="#bd7d67" opacity="0.95" />
<polygon points="55.0,77.0 164.0,76.0 167.0,53.0 151.0,42.0 109.0,39.0 100.0,53.0" fill="#bd7d67" />
<polygon points="158.0,230.0 152.0,223.0 47.0,224.0 46.0,267.0 152.0,268.0" fill="#c89b82" opacity="0.95" />
<polygon points="0.0,275.0 26.0,321.0 0.0,327.0 15.0,371.0 1.0,378.0 153.0,383.0 53.0,375.0 94.0,370.0 93.0,340.0 38.0,321.0 132.0,319.0 102.0,280.0" fill="#8f564b" opacity="0.95" />
<polygon points="184.0,130.0 186.0,172.0 279.0,175.0 185.0,181.0 187.0,218.0 197.0,191.0 258.0,218.0 335.0,217.0 344.0,177.0 311.0,173.0 314.0,130.0" fill="#bd7d67" opacity="0.95" />
<polygon points="383.0,354.0 383.0,325.0 363.0,323.0 373.0,273.0 258.0,279.0 230.0,317.0 353.0,320.0 342.0,368.0 373.0,370.0" fill="#8f564b" opacity="0.95" />
<polygon points="0.0,75.0 38.0,76.0 35.0,34.0 66.0,30.0 120.0,0.0 0.0,0.0" fill="#58302f" opacity="0.95" />
<polygon points="97.0,328.0 99.0,372.0 131.0,371.0 130.0,376.0 153.0,376.0 154.0,358.0 146.0,348.0 154.0,343.0 153.0,326.0" fill="#c89b82" />
<polygon points="235.0,261.0 237.0,268.0 346.0,268.0 350.0,226.0 266.0,223.0 267.0,234.0 248.0,239.0" fill="#c89b82" opacity="0.95" />
<polygon points="219.0,371.0 296.0,371.0 308.0,357.0 308.0,331.0 313.0,326.0 226.0,325.0" fill="#c89b82" opacity="0.95" />
<polygon points="2.0,38.0 0.0,40.0 0.0,75.0 2.0,77.0 36.0,77.0 38.0,75.0 38.0,39.0" fill="#58302f" />
<polygon points="158.0,231.0 151.0,223.0 48.0,224.0 46.0,267.0 151.0,268.0 157.0,261.0 153.0,239.0" fill="#c89b82" opacity="0.95" />
<polygon points="120.0,0.0 0.0,0.0 0.0,124.0 16.0,122.0 29.0,88.0 18.0,80.0 38.0,75.0 37.0,37.0" fill="#58302f" opacity="0.95" />
<polygon points="167.0,71.0 172.0,90.0 164.0,98.0 163.0,120.0 173.0,123.0 170.0,227.0 179.0,229.0 185.0,221.0 180.0,211.0 185.0,75.0" fill="#03091d" />
<polygon points="277.0,0.0 320.0,29.0 355.0,35.0 352.0,66.0 382.0,79.0 364.0,96.0 371.0,124.0 383.0,126.0 383.0,0.0" fill="#58302f" opacity="0.95" />
<polygon points="235.0,261.0 238.0,268.0 346.0,268.0 350.0,226.0 268.0,223.0 267.0,234.0 248.0,239.0" fill="#c89b82" opacity="0.95" />
<polygon points="219.0,370.0 294.0,371.0 308.0,357.0 309.0,327.0 227.0,325.0" fill="#c89b82" opacity="0.95" />
<polygon points="352.0,38.0 352.0,66.0 372.0,77.0 383.0,78.0 383.0,38.0" fill="#58302f" />
<polygon points="200.0,206.0 209.0,217.0 210.0,238.0 200.0,305.0 195.0,309.0" fill="#03091d" />
<polygon points="277.0,0.0 320.0,29.0 353.0,36.0 352.0,66.0 378.0,80.0 364.0,89.0 370.0,122.0 383.0,126.0 383.0,0.0" fill="#58302f" opacity="0.95" />
<polygon points="27.0,86.0 13.0,83.0 0.0,85.0 2.0,126.0 8.0,126.0 18.0,120.0 17.0,116.0 25.0,105.0 28.0,94.0" fill="#58302f" />
<polygon points="113.0,39.0 171.0,36.0 178.0,41.0 171.0,45.0 175.0,69.0 183.0,70.0 181.0,43.0 217.0,32.0 122.0,30.0" fill="#03091d" />
<polygon points="203.0,211.0 195.0,302.0 199.0,301.0 208.0,241.0 208.0,221.0" fill="#f5cb0e" />
<polygon points="234.0,251.0 225.0,276.0 212.0,383.0" fill="#f5cb0e" />
<polygon points="0.0,321.0 0.0,325.0 92.0,324.0 95.0,332.0 99.0,325.0 154.0,324.0" fill="#e9c9b0" />
<polygon points="383.0,275.0 372.0,280.0 368.0,291.0 369.0,302.0 366.0,315.0 373.0,319.0 383.0,319.0" fill="#58302f" />
<polygon points="202.0,208.0 209.0,217.0 210.0,238.0 200.0,305.0 190.0,310.0 187.0,295.0 194.0,293.0 197.0,260.0 191.0,258.0 192.0,237.0 200.0,235.0" fill="#03091d" opacity="0.95" />
<polygon points="15.0,271.0 155.0,269.0 49.0,270.0 44.0,255.0 41.0,270.0" fill="#e9c9b0" />
<polygon points="166.0,286.0 191.0,295.0 186.0,317.0 187.0,295.0 180.0,295.0 179.0,326.0 190.0,327.0 185.0,333.0 174.0,330.0 175.0,294.0 164.0,293.0 168.0,305.0 160.0,298.0" fill="#03091d" />
<polygon points="199.0,315.0 204.0,319.0 206.0,329.0 201.0,333.0 196.0,332.0 193.0,356.0 188.0,362.0 185.0,356.0 187.0,337.0 195.0,329.0 189.0,323.0" fill="#03091d" />
<polygon points="203.0,211.0 197.0,302.0 208.0,241.0 208.0,221.0" fill="#f5cb0e" opacity="0.95" />
<polygon points="184.0,174.0 279.0,174.0 200.0,174.0 197.0,171.0" fill="#e9c9b0" />
<polygon points="238.0,42.0 234.0,48.0 235.0,54.0 240.0,61.0 248.0,64.0 251.0,61.0 250.0,53.0 243.0,43.0" fill="#03091d" />
<polygon points="234.0,270.0 249.0,272.0 296.0,270.0" fill="#e9c9b0" />
<polygon points="260.0,221.0 262.0,223.0 311.0,223.0 316.0,221.0" fill="#e9c9b0" />
<polygon points="91.0,322.0 96.0,327.0 99.0,325.0 154.0,324.0 152.0,321.0" fill="#e9c9b0" opacity="0.95" />
<polygon points="340.0,222.0 349.0,223.0 351.0,225.0 383.0,224.0 383.0,221.0" fill="#e9c9b0" />
<polygon points="42.0,129.0 44.0,131.0 46.0,129.0 88.0,128.0 44.0,127.0" fill="#e9c9b0" />
<polygon points="196.0,317.0 192.0,321.0 196.0,324.0 197.0,329.0 199.0,331.0 202.0,331.0 205.0,328.0 204.0,322.0 200.0,317.0" fill="#f5cb0e" />
<polygon points="205.0,219.0 202.0,221.0 200.0,253.0 203.0,255.0 206.0,253.0 208.0,241.0 208.0,221.0" fill="#f5cb0e" opacity="0.95" />
<polygon points="170.0,49.0 167.0,51.0 170.0,54.0 170.0,66.0 168.0,68.0 170.0,70.0 172.0,70.0 174.0,68.0 174.0,55.0 172.0,50.0" fill="#f5cb0e" />
<polygon points="174.0,367.0 169.0,366.0 163.0,371.0 162.0,380.0 164.0,383.0 169.0,383.0 166.0,378.0 166.0,374.0 169.0,370.0 174.0,369.0" fill="#f5cb0e" />
<polygon points="286.0,127.0 287.0,128.0 288.0,127.0 289.0,128.0 313.0,128.0 314.0,127.0 313.0,126.0 289.0,126.0 288.0,127.0 287.0,126.0" fill="#e9c9b0" />
<polygon points="197.0,317.0 193.0,320.0 193.0,322.0 196.0,324.0 197.0,329.0 202.0,331.0 205.0,328.0 204.0,322.0 201.0,318.0" fill="#f5cb0e" opacity="0.95" />
<polygon points="163.0,37.0 165.0,40.0 171.0,43.0 173.0,39.0 170.0,37.0 167.0,37.0 166.0,36.0" fill="#f3e42f" />
<polygon points="193.0,333.0 192.0,333.0 189.0,336.0 189.0,342.0 188.0,343.0 188.0,345.0 190.0,347.0 192.0,347.0 193.0,346.0 193.0,338.0 194.0,337.0 194.0,334.0" fill="#f5cb0e" />
<polygon points="113.0,127.0 114.0,128.0 129.0,128.0 130.0,127.0 132.0,128.0 133.0,127.0 132.0,126.0 130.0,127.0 129.0,126.0 114.0,126.0" fill="#e9c9b0" />
<polygon points="240.0,245.0 237.0,245.0 234.0,249.0 237.0,251.0 241.0,246.0" fill="#ccb027" />
<polygon points="189.0,347.0 188.0,348.0 188.0,352.0 187.0,353.0 187.0,357.0 189.0,359.0 191.0,357.0 191.0,355.0 192.0,354.0 192.0,349.0" fill="#f3e42f" />
<polygon points="197.0,317.0 194.0,319.0 194.0,322.0 196.0,324.0 197.0,329.0 201.0,331.0 205.0,328.0 205.0,325.0 203.0,320.0 201.0,318.0" fill="#f5cb0e" opacity="0.95" />
<polygon points="138.0,28.0 136.0,30.0 136.0,31.0 138.0,33.0 140.0,33.0 142.0,31.0 142.0,30.0 140.0,28.0" fill="#f3e42f" />
<polygon points="147.0,29.0 147.0,31.0 148.0,32.0 151.0,32.0 153.0,30.0 153.0,29.0 152.0,28.0 148.0,28.0" fill="#f3e42f" />
<polygon points="183.0,275.0 181.0,275.0 179.0,277.0 179.0,279.0 180.0,280.0 182.0,280.0 183.0,279.0 183.0,278.0 184.0,277.0 184.0,276.0" fill="#f3e42f" />
<polygon points="168.0,86.0 166.0,88.0 166.0,89.0 168.0,91.0 169.0,91.0 170.0,90.0 170.0,87.0 169.0,86.0" fill="#f3e42f" />
<polygon points="164.0,37.0 164.0,39.0 169.0,42.0 172.0,41.0 172.0,38.0 170.0,37.0 167.0,37.0 166.0,36.0" fill="#f3e42f" opacity="0.95" />
<polygon points="190.0,348.0 188.0,349.0 188.0,352.0 187.0,353.0 187.0,357.0 189.0,358.0 191.0,357.0 191.0,355.0 192.0,354.0 192.0,349.0" fill="#f3e42f" opacity="0.95" />
</svg>