<svg xmlns="http://www.w3.org/2000/svg" width="768" height="768" viewBox="0 0 384 384">
<rect width="384" height="384" fill="#8b5a54"/>
<polygon points="0.0,13.0 0.0,125.0 34.0,127.0 0.0,129.0 0.0,212.0 90.0,208.0 113.0,287.0 0.0,320.0 314.0,320.0 361.0,284.0 383.0,181.0 188.0,129.0 187.0,7.0" fill="#8e4e40" />
<polygon points="1.0,12.0 0.0,212.0 91.0,209.0 113.0,294.0 0.0,316.0 0.0,383.0 284.0,371.0 383.0,244.0 383.0,181.0 171.0,111.0 184.0,6.0" fill="#8e4e40" opacity="0.95" />
<polygon points="1.0,12.0 0.0,212.0 91.0,209.0 113.0,294.0 1.0,316.0 0.0,383.0 282.0,372.0 383.0,245.0 383.0,181.0 171.0,111.0 184.0,6.0" fill="#8e4e40" opacity="0.95" />
<polygon points="0.0,383.0 264.0,383.0 315.0,327.0 0.0,325.0" fill="#8e4e40" />
<polygon points="244.0,146.0 272.0,229.0 149.0,251.0 133.0,165.0" fill="#8e4e40" />
<polygon points="245.0,147.0 272.0,229.0 146.0,249.0 133.0,165.0" fill="#8e4e40" opacity="0.95" />
<polygon points="244.0,147.0 272.0,229.0 149.0,251.0 133.0,165.0" fill="#8e4e40" opacity="0.95" />
<polygon points="265.0,382.0 378.0,383.0 383.0,325.0 318.0,325.0 285.0,371.0" fill="#603f3e" />
<polygon points="383.0,180.0 383.0,90.0 321.0,150.0 237.0,130.0" fill="#603f3e" />
<polygon points="155.0,0.0 189.0,14.0 233.0,10.0 350.0,51.0 352.0,62.0 377.0,61.0 376.0,34.0 333.0,0.0" fill="#603f3e" />
<polygon points="383.0,245.0 352.0,296.0 265.0,383.0 378.0,383.0" fill="#603f3e" opacity="0.95" />
<polygon points="173.0,89.0 172.0,104.0 320.0,145.0 329.0,134.0" fill="#051d30" />
<polygon points="92.0,212.0 0.0,214.0 0.0,232.0 20.0,226.0 31.0,235.0 0.0,239.0 0.0,267.0 52.0,264.0 57.0,278.0 98.0,275.0 96.0,263.0 56.0,262.0 60.0,244.0 95.0,242.0" fill="#f4f6f6" />
<polygon points="199.0,8.0 178.0,79.0 218.0,92.0 226.0,75.0 267.0,86.0 230.0,60.0 241.0,40.0 201.0,28.0 246.0,35.0 249.0,25.0" fill="#fdaed2" />
<polygon points="383.0,246.0 352.0,296.0 265.0,383.0 378.0,383.0" fill="#603f3e" opacity="0.95" />
<polygon points="156.0,0.0 233.0,10.0 376.0,62.0 371.0,32.0 334.0,0.0" fill="#603f3e" opacity="0.95" />
<polygon points="383.0,245.0 352.0,296.0 319.0,320.0 383.0,320.0" fill="#603f3e" />
<polygon points="265.0,203.0 256.0,195.0 148.0,214.0 154.0,223.0" fill="#03dfea" />
<polygon points="383.0,180.0 383.0,90.0 321.0,150.0 238.0,130.0" fill="#603f3e" opacity="0.95" />
<polygon points="156.0,0.0 233.0,10.0 375.0,62.0 366.0,26.0 334.0,0.0" fill="#603f3e" opacity="0.95" />
<polygon points="100.0,280.0 93.0,279.0 90.0,285.0 0.0,289.0 0.0,304.0 96.0,299.0" fill="#051d30" />
<polygon points="173.0,89.0 175.0,105.0 306.0,143.0 328.0,136.0" fill="#051d30" opacity="0.95" />
<polygon points="383.0,38.0 376.0,63.0 350.0,64.0 334.0,128.0 299.0,118.0 330.0,133.0 322.0,145.0 257.0,130.0 334.0,144.0 383.0,86.0" fill="#3e3136" />
<polygon points="261.0,193.0 254.0,181.0 224.0,186.0 213.0,196.0 202.0,172.0 182.0,176.0 190.0,180.0 184.0,192.0 144.0,200.0 148.0,212.0" fill="#f4f6f6" />
<polygon points="250.0,162.0 245.0,150.0 138.0,166.0 141.0,180.0 178.0,174.0 189.0,161.0 209.0,169.0" fill="#8bbffb" />
<polygon points="269.0,212.0 243.0,209.0 260.0,215.0 195.0,221.0 176.0,232.0 154.0,232.0 147.0,216.0 147.0,240.0 157.0,246.0 258.0,228.0" fill="#051d30" />
<polygon points="199.0,10.0 181.0,81.0 218.0,92.0 227.0,75.0 268.0,85.0 230.0,60.0 243.0,41.0 201.0,28.0 244.0,34.0 247.0,23.0" fill="#fdaed2" opacity="0.95" />
<polygon points="258.0,52.0 254.0,71.0 299.0,85.0 317.0,74.0 326.0,83.0 323.0,92.0 334.0,96.0 338.0,75.0" fill="#fc055d" />
<polygon points="92.0,212.0 0.0,214.0 0.0,231.0 29.0,232.0 0.0,239.0 0.0,267.0 28.0,266.0 34.0,254.0 58.0,278.0 99.0,274.0 95.0,263.0 41.0,255.0 47.0,245.0 94.0,242.0" fill="#f4f6f6" opacity="0.95" />
<polygon points="383.0,180.0 383.0,90.0 321.0,150.0 240.0,131.0" fill="#603f3e" opacity="0.95" />
<polygon points="172.0,93.0 175.0,105.0 320.0,145.0 328.0,136.0" fill="#051d30" opacity="0.95" />
<polygon points="334.0,0.0 358.0,17.0 368.0,30.0 383.0,34.0 383.0,0.0" fill="#3e3136" />
<polygon points="250.0,23.0 251.0,37.0 348.0,58.0 332.0,124.0 351.0,53.0" fill="#fc74b1" />
<polygon points="177.0,86.0 260.0,110.0 292.0,113.0 295.0,106.0 284.0,105.0 279.0,91.0 271.0,97.0 240.0,81.0 223.0,96.0" fill="#b27e6f" />
<polygon points="255.0,179.0 249.0,164.0 214.0,169.0 204.0,177.0 222.0,185.0" fill="#cff9f4" />
<polygon points="54.0,267.0 46.0,265.0 0.0,268.0 0.0,281.0 54.0,278.0" fill="#e7d2ca" />
<polygon points="92.0,212.0 0.0,220.0 0.0,231.0 29.0,232.0 0.0,239.0 0.0,267.0 28.0,266.0 34.0,255.0 45.0,265.0 47.0,245.0 93.0,242.0" fill="#f4f6f6" opacity="0.95" />
<polygon points="189.0,180.0 173.0,175.0 142.0,180.0 141.0,185.0 144.0,196.0 150.0,197.0 184.0,191.0" fill="#cff9f4" />
<polygon points="383.0,0.0 335.0,0.0 380.0,34.0 378.0,61.0 350.0,64.0 335.0,125.0 311.0,122.0 328.0,138.0 299.0,145.0 334.0,144.0 383.0,86.0" fill="#3e3136" opacity="0.95" />
<polygon points="60.0,246.0 63.0,253.0 59.0,262.0 91.0,262.0 97.0,260.0 94.0,244.0" fill="#f9fe3c" />
<polygon points="245.0,43.0 291.0,60.0 288.0,47.0 343.0,73.0 346.0,59.0 284.0,40.0 278.0,52.0" fill="#fb4399" />
<polygon points="260.0,191.0 254.0,181.0 213.0,196.0 205.0,173.0 186.0,175.0 187.0,190.0 145.0,204.0 154.0,211.0" fill="#f4f6f6" opacity="0.95" />
<polygon points="264.0,200.0 256.0,195.0 151.0,212.0 149.0,218.0 154.0,223.0 262.0,205.0" fill="#03dfea" opacity="0.95" />
<polygon points="100.0,280.0 52.0,286.0 47.0,292.0 40.0,287.0 0.0,289.0 0.0,304.0 96.0,299.0" fill="#051d30" opacity="0.95" />
<polygon points="195.0,16.0 185.0,82.0 218.0,92.0 227.0,75.0 269.0,84.0 227.0,57.0 207.0,63.0 207.0,45.0 227.0,52.0 235.0,43.0" fill="#fdaed2" opacity="0.95" />
<polygon points="269.0,78.0 270.0,88.0 295.0,98.0 295.0,114.0 314.0,119.0 320.0,116.0 310.0,101.0 312.0,94.0 301.0,86.0" fill="#fc74b1" />
<polygon points="268.0,212.0 239.0,223.0 195.0,221.0 176.0,232.0 155.0,232.0 147.0,223.0 147.0,240.0 157.0,246.0 258.0,228.0" fill="#051d30" opacity="0.95" />
<polygon points="383.0,0.0 335.0,0.0 378.0,35.0 378.0,61.0 351.0,64.0 335.0,124.0 314.0,124.0 328.0,130.0 327.0,147.0 383.0,86.0" fill="#3e3136" opacity="0.95" />
<polygon points="259.0,53.0 254.0,71.0 299.0,85.0 316.0,74.0 326.0,83.0 324.0,93.0 334.0,96.0 338.0,75.0" fill="#fc055d" opacity="0.95" />
<polygon points="186.0,88.0 249.0,107.0 294.0,109.0 282.0,93.0 271.0,97.0 240.0,81.0 221.0,96.0" fill="#b27e6f" opacity="0.95" />
<polygon points="264.0,200.0 256.0,195.0 152.0,212.0 149.0,218.0 154.0,223.0 257.0,206.0" fill="#03dfea" opacity="0.95" />
<polygon points="267.0,214.0 239.0,223.0 200.0,220.0 176.0,232.0 149.0,225.0 146.0,235.0 157.0,246.0 260.0,227.0" fill="#051d30" opacity="0.95" />
<polygon points="208.0,44.0 214.0,43.0 223.0,49.0 225.0,56.0 219.0,64.0 212.0,65.0 203.0,59.0 202.0,50.0" fill="#fdaed2" />
<polygon points="145.0,204.0 154.0,211.0 253.0,195.0 259.0,188.0 254.0,181.0 228.0,185.0 213.0,196.0 203.0,175.0 193.0,173.0 185.0,191.0" fill="#f4f6f6" opacity="0.95" />
<polygon points="100.0,281.0 62.0,289.0 53.0,286.0 46.0,292.0 39.0,287.0 0.0,289.0 0.0,304.0 95.0,299.0" fill="#051d30" opacity="0.95" />
<polygon points="187.0,160.0 139.0,166.0 139.0,178.0 177.0,174.0" fill="#8bbffb" opacity="0.95" />
<polygon points="322.0,92.0 313.0,96.0 311.0,101.0 321.0,115.0 316.0,120.0 325.0,123.0 332.0,114.0 335.0,100.0" fill="#fb4399" />
<polygon points="255.0,180.0 248.0,164.0 214.0,169.0 205.0,176.0 207.0,180.0 223.0,185.0" fill="#cff9f4" opacity="0.95" />
<polygon points="54.0,267.0 46.0,265.0 0.0,268.0 0.0,281.0 54.0,277.0" fill="#e7d2ca" opacity="0.95" />
<polygon points="259.0,54.0 257.0,72.0 296.0,84.0 316.0,74.0 326.0,83.0 324.0,93.0 334.0,95.0 336.0,74.0" fill="#fc055d" opacity="0.95" />
<polygon points="91.0,281.0 34.0,280.0 0.0,283.0 0.0,287.0 40.0,285.0 43.0,288.0 48.0,285.0 90.0,284.0" fill="#c8a99a" />
<polygon points="189.0,180.0 173.0,175.0 143.0,180.0 141.0,185.0 144.0,196.0 150.0,197.0 181.0,192.0 187.0,189.0" fill="#cff9f4" opacity="0.95" />
<polygon points="270.0,79.0 269.0,87.0 295.0,98.0 295.0,114.0 320.0,117.0 311.0,95.0 302.0,87.0" fill="#fc74b1" opacity="0.95" />
<polygon points="204.0,8.0 273.0,28.0 236.0,12.0" fill="#8e4e40" />
<polygon points="249.0,159.0 246.0,152.0 238.0,151.0 199.0,157.0 195.0,161.0 213.0,169.0 246.0,164.0" fill="#8bbffb" opacity="0.95" />
<polygon points="134.0,168.0 132.0,182.0 144.0,229.0 145.0,217.0" fill="#3e3136" />
<polygon points="248.0,44.0 291.0,60.0 288.0,47.0 340.0,68.0 345.0,62.0 284.0,40.0 278.0,52.0" fill="#fb4399" opacity="0.95" />
<polygon points="12.0,246.0 19.0,246.0 24.0,250.0 25.0,257.0 21.0,261.0 13.0,262.0 7.0,257.0 6.0,253.0" fill="#f4f6f6" />
<polygon points="61.0,246.0 62.0,257.0 60.0,261.0 91.0,262.0 97.0,260.0 96.0,249.0 93.0,244.0" fill="#f9fe3c" opacity="0.95" />
<polygon points="307.0,76.0 303.0,81.0 304.0,89.0 311.0,93.0 318.0,92.0 322.0,87.0 322.0,80.0 316.0,75.0" fill="#3e3136" />
<polygon points="47.0,245.0 54.0,246.0 58.0,251.0 58.0,255.0 51.0,261.0 44.0,259.0 41.0,255.0 42.0,249.0" fill="#f4f6f6" />
<polygon points="254.0,175.0 247.0,164.0 214.0,169.0 206.0,179.0 227.0,185.0 251.0,181.0" fill="#cff9f4" opacity="0.95" />
<polygon points="247.0,31.0 251.0,37.0 277.0,45.0 282.0,37.0 297.0,40.0 253.0,24.0" fill="#fc74b1" opacity="0.95" />
<polygon points="91.0,281.0 0.0,283.0 0.0,287.0 89.0,284.0" fill="#c8a99a" opacity="0.95" />
<polygon points="224.0,89.0 228.0,95.0 281.0,111.0 294.0,109.0 282.0,103.0 280.0,92.0 271.0,97.0 240.0,81.0" fill="#b27e6f" opacity="0.95" />
<polygon points="54.0,267.0 46.0,265.0 0.0,268.0 0.0,281.0 51.0,278.0 54.0,276.0" fill="#e7d2ca" opacity="0.95" />
<polygon points="189.0,180.0 173.0,175.0 144.0,180.0 141.0,185.0 143.0,194.0 150.0,197.0 181.0,192.0 186.0,189.0" fill="#cff9f4" opacity="0.95" />
<polygon points="0.0,237.0 27.0,236.0 29.0,234.0 21.0,228.0 11.0,227.0 5.0,229.0 0.0,234.0" fill="#051d30" />
<polygon points="211.0,43.0 219.0,45.0 225.0,53.0 224.0,59.0 216.0,65.0 207.0,63.0 202.0,57.0 202.0,50.0" fill="#fdaed2" opacity="0.95" />
<polygon points="249.0,159.0 246.0,152.0 238.0,151.0 200.0,157.0 197.0,161.0 213.0,169.0 246.0,164.0" fill="#8bbffb" opacity="0.95" />
<polygon points="270.0,80.0 271.0,88.0 295.0,98.0 295.0,114.0 314.0,119.0 319.0,116.0 311.0,95.0 302.0,87.0" fill="#fc74b1" opacity="0.95" />
<polygon points="173.0,106.0 232.0,125.0 242.0,124.0" fill="#3e3136" />
<polygon points="184.0,162.0 178.0,160.0 138.0,167.0 137.0,171.0 142.0,179.0 172.0,175.0 179.0,172.0" fill="#8bbffb" opacity="0.95" />
<polygon points="321.0,93.0 312.0,97.0 311.0,101.0 321.0,115.0 318.0,121.0 324.0,123.0 331.0,117.0 335.0,100.0" fill="#fb4399" opacity="0.95" />
<polygon points="226.0,214.0 220.0,212.0 195.0,216.0 189.0,219.0 193.0,221.0 225.0,216.0" fill="#66626a" />
<polygon points="62.0,247.0 61.0,260.0 64.0,262.0 91.0,262.0 97.0,259.0 96.0,249.0 92.0,244.0 65.0,245.0" fill="#f9fe3c" opacity="0.95" />
<polygon points="188.0,219.0 159.0,223.0 155.0,226.0 167.0,227.0 173.0,224.0 178.0,228.0 182.0,228.0" fill="#3e3136" />
<polygon points="55.0,266.0 55.0,275.0 59.0,278.0 91.0,276.0 98.0,273.0 98.0,265.0 95.0,263.0 67.0,263.0" fill="#f4f6f6" opacity="0.95" />
<polygon points="202.0,24.0 204.0,30.0 212.0,32.0 214.0,27.0 233.0,41.0 249.0,39.0 233.0,32.0 237.0,36.0 234.0,39.0 227.0,34.0 228.0,30.0" fill="#e7d2ca" />
<polygon points="7.0,251.0 13.0,246.0 19.0,246.0 24.0,250.0 25.0,257.0 19.0,262.0 13.0,262.0 7.0,257.0" fill="#f4f6f6" opacity="0.95" />
<polygon points="207.0,46.0 203.0,51.0 203.0,55.0 205.0,57.0 213.0,56.0 218.0,61.0 221.0,56.0 217.0,48.0 218.0,47.0 216.0,45.0" fill="#3e3136" />
<polygon points="278.0,53.0 284.0,56.0 288.0,47.0 332.0,60.0 340.0,68.0 345.0,62.0 284.0,40.0" fill="#fb4399" opacity="0.95" />
<polygon points="321.0,93.0 312.0,97.0 311.0,101.0 323.0,122.0 331.0,116.0 335.0,100.0" fill="#fb4399" opacity="0.95" />
<polygon points="307.0,76.0 303.0,81.0 304.0,89.0 311.0,93.0 319.0,91.0 322.0,87.0 321.0,78.0 316.0,75.0" fill="#3e3136" opacity="0.95" />
<polygon points="303.0,41.0 311.0,46.0 351.0,56.0 349.0,52.0" fill="#fc74b1" opacity="0.95" />
<polygon points="223.0,11.0 225.0,15.0 260.0,24.0 235.0,12.0" fill="#8e4e40" opacity="0.95" />
<polygon points="225.0,213.0 220.0,212.0 190.0,218.0 190.0,220.0 225.0,215.0" fill="#66626a" opacity="0.95" />
<polygon points="248.0,32.0 248.0,35.0 274.0,44.0 279.0,42.0 278.0,39.0 251.0,30.0" fill="#fc74b1" opacity="0.95" />
<polygon points="215.0,22.0 216.0,25.0 242.0,34.0 246.0,32.0 245.0,29.0 218.0,20.0" fill="#fdaed2" opacity="0.95" />
<polygon points="261.0,212.0 260.0,211.0 252.0,212.0 246.0,216.0 244.0,215.0 243.0,218.0 245.0,219.0 253.0,215.0 260.0,214.0" fill="#66626a" />
<polygon points="167.0,229.0 165.0,227.0 162.0,227.0 161.0,228.0 154.0,228.0 153.0,230.0 154.0,231.0 160.0,231.0 161.0,230.0 166.0,230.0" fill="#66626a" />
<polygon points="216.0,28.0 216.0,30.0 219.0,31.0 224.0,35.0 226.0,34.0 226.0,30.0 219.0,27.0" fill="#e7d2ca" opacity="0.95" />
<polygon points="238.0,35.0 238.0,38.0 242.0,40.0 245.0,39.0 245.0,36.0 241.0,34.0" fill="#e7d2ca" opacity="0.95" />
<polygon points="15.0,255.0 13.0,257.0 13.0,258.0 14.0,259.0 17.0,259.0 18.0,258.0 18.0,256.0 17.0,255.0" fill="#c8a99a" />
<polygon points="266.0,110.0 266.0,111.0 267.0,112.0 269.0,112.0 270.0,113.0 271.0,113.0 272.0,112.0 272.0,111.0 271.0,110.0 269.0,110.0 268.0,109.0 267.0,109.0" fill="#8e4e40" />
<polygon points="43.0,281.0 40.0,283.0 40.0,285.0 44.0,287.0 47.0,285.0 47.0,283.0" fill="#c8a99a" opacity="0.95" />
<polygon points="264.0,46.0 261.0,48.0 261.0,50.0 264.0,52.0 267.0,50.0 267.0,48.0" fill="#fb4399" opacity="0.95" />
</svg>