<svg xmlns="http://www.w3.org/2000/svg" width="768" height="768" viewBox="0 0 384 384">
<rect width="384" height="384" fill="#916458"/>
<polygon points="255.0,0.0 258.0,190.0 383.0,193.0 383.0,0.0" fill="#955148" />
<polygon points="0.0,0.0 2.0,126.0 131.0,126.0 131.0,0.0" fill="#955148" />
<polygon points="254.0,0.0 132.0,0.0 130.0,128.0 0.0,129.0 3.0,257.0 131.0,253.0 123.0,161.0 140.0,120.0 203.0,95.0 254.0,122.0" fill="#ae695d" />
<polygon points="255.0,0.0 259.0,190.0 383.0,193.0 383.0,0.0" fill="#955148" opacity="0.95" />
<polygon points="383.0,251.0 259.0,254.0 253.0,200.0 203.0,233.0 134.0,201.0 133.0,254.0 252.0,254.0 252.0,319.0 133.0,320.0 130.0,255.0 5.0,256.0 2.0,318.0 129.0,320.0 132.0,383.0 255.0,383.0 258.0,319.0 383.0,319.0" fill="#955148" />
<polygon points="132.0,256.0 133.0,319.0 254.0,315.0 252.0,255.0" fill="#ae695d" />
<polygon points="0.0,322.0 0.0,383.0 131.0,383.0 129.0,321.0" fill="#ae695d" />
<polygon points="259.0,253.0 383.0,250.0 383.0,194.0 258.0,192.0" fill="#ae695d" />
<polygon points="0.0,0.0 1.0,125.0 131.0,126.0 131.0,0.0" fill="#955148" opacity="0.95" />
<polygon points="132.0,0.0 132.0,126.0 1.0,128.0 0.0,254.0 129.0,254.0 132.0,318.0 251.0,318.0 254.0,256.0 131.0,253.0 123.0,161.0 174.0,97.0 253.0,122.0 254.0,0.0" fill="#ae695d" opacity="0.95" />
<polygon points="256.0,322.0 256.0,383.0 383.0,383.0 383.0,320.0" fill="#ae695d" />
<polygon points="383.0,251.0 259.0,254.0 252.0,202.0 203.0,233.0 135.0,203.0 129.0,255.0 0.0,259.0 0.0,317.0 129.0,320.0 132.0,383.0 255.0,383.0 256.0,320.0 383.0,319.0" fill="#955148" opacity="0.95" />
<polygon points="255.0,0.0 259.0,189.0 383.0,193.0 383.0,0.0" fill="#955148" opacity="0.95" />
<polygon points="198.0,96.0 198.0,143.0 214.0,160.0 206.0,179.0 126.0,159.0 144.0,206.0 188.0,227.0 232.0,214.0 258.0,169.0 247.0,122.0" fill="#1dfce9" />
<polygon points="0.0,0.0 0.0,124.0 131.0,125.0 131.0,0.0" fill="#955148" opacity="0.95" />
<polygon points="254.0,0.0 132.0,0.0 130.0,127.0 0.0,129.0 0.0,254.0 132.0,257.0 130.0,320.0 4.0,320.0 0.0,383.0 131.0,383.0 133.0,320.0 254.0,315.0 253.0,256.0 131.0,252.0 123.0,170.0 168.0,99.0 253.0,119.0" fill="#ae695d" opacity="0.95" />
<polygon points="0.0,260.0 5.0,319.0 130.0,321.0 132.0,383.0 255.0,383.0 259.0,319.0 383.0,319.0 383.0,251.0 260.0,253.0 251.0,204.0 203.0,233.0 135.0,204.0 128.0,255.0" fill="#955148" opacity="0.95" />
<polygon points="0.0,322.0 0.0,383.0 131.0,383.0 128.0,321.0" fill="#ae695d" opacity="0.95" />
<polygon points="131.0,256.0 252.0,254.0 255.0,315.0 239.0,320.0 134.0,320.0" fill="#955148" opacity="0.95" />
<polygon points="256.0,321.0 256.0,383.0 383.0,383.0 383.0,320.0" fill="#ae695d" opacity="0.95" />
<polygon points="255.0,197.0 259.0,253.0 383.0,250.0 383.0,194.0 259.0,192.0" fill="#ae695d" opacity="0.95" />
<polygon points="198.0,96.0 198.0,143.0 214.0,160.0 206.0,179.0 126.0,158.0 144.0,206.0 188.0,227.0 232.0,214.0 258.0,169.0 247.0,122.0" fill="#1dfce9" opacity="0.95" />
<polygon points="168.0,105.0 150.0,122.0 135.0,153.0 209.0,173.0 211.0,168.0 196.0,160.0 195.0,101.0" fill="#0a0a0c" />
<polygon points="206.0,97.0 206.0,179.0 126.0,159.0 139.0,200.0 176.0,225.0 226.0,218.0 256.0,180.0 250.0,126.0" fill="#1dfce9" opacity="0.95" />
<polygon points="168.0,105.0 144.0,131.0 136.0,154.0 210.0,172.0 196.0,160.0 195.0,101.0" fill="#0a0a0c" opacity="0.95" />
<polygon points="168.0,105.0 150.0,122.0 136.0,153.0 209.0,171.0 196.0,160.0 195.0,102.0" fill="#0a0a0c" opacity="0.95" />
<polygon points="255.0,194.0 230.0,217.0 208.0,227.0 160.0,223.0 186.0,232.0 211.0,230.0 238.0,216.0" fill="#0a0a0c" />
<polygon points="176.0,169.0 178.0,175.0 187.0,182.0 196.0,182.0 204.0,177.0 197.0,169.0" fill="#cdb8aa" />
<polygon points="162.0,106.0 152.0,110.0 141.0,121.0 130.0,139.0 128.0,153.0 134.0,153.0 142.0,132.0" fill="#d7b225" />
<polygon points="254.0,194.0 217.0,224.0 175.0,229.0 202.0,232.0 238.0,216.0" fill="#0a0a0c" opacity="0.95" />
<polygon points="200.0,146.0 197.0,151.0 197.0,160.0 201.0,164.0 208.0,165.0 211.0,163.0 211.0,157.0 209.0,153.0 203.0,147.0" fill="#cdb8aa" />
<polygon points="255.0,135.0 259.0,169.0 254.0,191.0 258.0,188.0 262.0,174.0 262.0,155.0" fill="#70f6e0" />
<polygon points="160.0,108.0 152.0,110.0 141.0,121.0 130.0,139.0 127.0,152.0 134.0,153.0 142.0,132.0" fill="#d7b225" opacity="0.95" />
<polygon points="176.0,169.0 178.0,175.0 187.0,182.0 196.0,182.0 203.0,178.0 197.0,170.0 187.0,168.0" fill="#cdb8aa" opacity="0.95" />
<polygon points="193.0,97.0 178.0,97.0 159.0,105.0 167.0,105.0 181.0,99.0" fill="#b99630" />
<polygon points="156.0,110.0 152.0,110.0 134.0,131.0 128.0,146.0 129.0,153.0 135.0,151.0 142.0,132.0 157.0,113.0" fill="#d7b225" opacity="0.95" />
<polygon points="201.0,147.0 197.0,150.0 197.0,160.0 202.0,164.0 208.0,165.0 211.0,163.0 211.0,157.0 209.0,152.0" fill="#cdb8aa" opacity="0.95" />
<polygon points="177.0,170.0 178.0,175.0 187.0,182.0 196.0,182.0 203.0,178.0 203.0,176.0 196.0,170.0 180.0,168.0" fill="#cdb8aa" opacity="0.95" />
<polygon points="202.0,147.0 197.0,151.0 197.0,160.0 202.0,164.0 208.0,165.0 211.0,163.0 211.0,157.0 209.0,153.0" fill="#cdb8aa" opacity="0.95" />
<polygon points="131.0,190.0 130.0,191.0 138.0,205.0 142.0,208.0 143.0,206.0 138.0,201.0" fill="#0a0a0c" />
<polygon points="176.0,99.0 174.0,98.0 168.0,100.0 165.0,102.0 165.0,104.0 167.0,105.0 172.0,102.0 176.0,101.0" fill="#b99630" opacity="0.95" />
<polygon points="260.0,169.0 258.0,170.0 258.0,175.0 257.0,176.0 257.0,179.0 259.0,180.0 261.0,179.0 261.0,175.0 262.0,174.0 262.0,170.0" fill="#70f6e0" opacity="0.95" />
<polygon points="161.0,222.0 161.0,224.0 165.0,226.0 167.0,225.0 167.0,223.0 163.0,221.0" fill="#0a0a0c" opacity="0.95" />
<polygon points="260.0,154.0 259.0,155.0 258.0,155.0 258.0,159.0 259.0,159.0 260.0,160.0 261.0,159.0 262.0,159.0 262.0,155.0 261.0,155.0" fill="#70f6e0" opacity="0.95" />
</svg>