<svg xmlns="http://www.w3.org/2000/svg" width="768" height="768" viewBox="0 0 384 384">
<rect width="384" height="384" fill="#8d6e66"/>
<polygon points="318.0,55.0 157.0,26.0 39.0,79.0 54.0,331.0 170.0,371.0 185.0,256.0 127.0,167.0 186.0,130.0 184.0,53.0 257.0,170.0 197.0,256.0 217.0,369.0 344.0,313.0 370.0,156.0" fill="#a77a6c" />
<polygon points="318.0,55.0 157.0,26.0 39.0,79.0 54.0,331.0 168.0,371.0 185.0,256.0 127.0,167.0 184.0,53.0 257.0,170.0 197.0,257.0 218.0,369.0 344.0,313.0 370.0,156.0" fill="#a77a6c" opacity="0.95" />
<polygon points="22.0,30.0 25.0,362.0 167.0,382.0 31.0,300.0 27.0,96.0 230.0,22.0 348.0,85.0 372.0,228.0 309.0,350.0 213.0,382.0 349.0,370.0 362.0,31.0" fill="#784f4b" />
<polygon points="318.0,55.0 157.0,26.0 39.0,79.0 54.0,331.0 166.0,370.0 185.0,257.0 127.0,167.0 184.0,53.0 257.0,170.0 197.0,257.0 220.0,368.0 344.0,313.0 370.0,156.0" fill="#a77a6c" opacity="0.95" />
<polygon points="22.0,30.0 23.0,360.0 166.0,383.0 31.0,300.0 27.0,96.0 230.0,22.0 348.0,85.0 372.0,228.0 309.0,350.0 214.0,383.0 349.0,370.0 362.0,31.0" fill="#784f4b" opacity="0.95" />
<polygon points="131.0,160.0 134.0,191.0 186.0,220.0 233.0,210.0 255.0,184.0 246.0,151.0 198.0,134.0 206.0,169.0 197.0,176.0 178.0,170.0 184.0,133.0" fill="#42f1f3" />
<polygon points="22.0,30.0 25.0,362.0 166.0,383.0 31.0,300.0 27.0,96.0 230.0,22.0 348.0,85.0 372.0,228.0 309.0,350.0 215.0,383.0 349.0,370.0 362.0,31.0" fill="#784f4b" opacity="0.95" />
<polygon points="131.0,160.0 134.0,191.0 187.0,220.0 233.0,210.0 255.0,184.0 246.0,151.0 198.0,134.0 197.0,176.0 178.0,170.0 183.0,133.0" fill="#42f1f3" opacity="0.95" />
<polygon points="292.0,1.0 361.0,29.0 383.0,85.0 383.0,0.0" fill="#55363a" />
<polygon points="184.0,284.0 172.0,287.0 147.0,319.0 149.0,348.0 161.0,358.0 187.0,327.0" fill="#2a272c" />
<polygon points="0.0,76.0 22.0,29.0 46.0,13.0 94.0,1.0 0.0,0.0" fill="#55363a" />
<polygon points="198.0,284.0 196.0,327.0 216.0,359.0 225.0,360.0 236.0,343.0 236.0,318.0 214.0,289.0" fill="#2a272c" />
<polygon points="131.0,160.0 134.0,191.0 188.0,220.0 233.0,210.0 255.0,184.0 246.0,151.0 198.0,135.0 197.0,176.0 178.0,170.0 182.0,133.0" fill="#42f1f3" opacity="0.95" />
<polygon points="247.0,203.0 199.0,222.0 140.0,210.0 162.0,236.0 197.0,241.0 235.0,224.0" fill="#0a0b13" />
<polygon points="182.0,55.0 166.0,69.0 184.0,83.0 185.0,106.0 199.0,107.0 214.0,92.0 214.0,68.0 202.0,56.0" fill="#fd0536" />
<polygon points="187.0,255.0 188.0,327.0 165.0,359.0 155.0,357.0 168.0,368.0 214.0,368.0 223.0,362.0 195.0,327.0 196.0,256.0" fill="#0a0b13" />
<polygon points="1.0,310.0 0.0,383.0 58.0,383.0 37.0,374.0 22.0,360.0" fill="#55363a" />
<polygon points="383.0,304.0 368.0,349.0 349.0,371.0 329.0,383.0 383.0,383.0" fill="#55363a" />
<polygon points="199.0,284.0 196.0,327.0 220.0,361.0 235.0,346.0 236.0,318.0 214.0,289.0" fill="#2a272c" opacity="0.95" />
<polygon points="183.0,284.0 172.0,287.0 147.0,319.0 149.0,348.0 161.0,358.0 187.0,327.0" fill="#2a272c" opacity="0.95" />
<polygon points="293.0,0.0 361.0,29.0 383.0,84.0 383.0,0.0" fill="#55363a" opacity="0.95" />
<polygon points="0.0,75.0 22.0,29.0 46.0,13.0 93.0,0.0 0.0,0.0" fill="#55363a" opacity="0.95" />
<polygon points="247.0,205.0 199.0,222.0 142.0,213.0 162.0,236.0 197.0,241.0 235.0,224.0" fill="#0a0b13" opacity="0.95" />
<polygon points="188.0,109.0 187.0,169.0 193.0,171.0 197.0,166.0 196.0,110.0" fill="#0a0b13" />
<polygon points="188.0,255.0 188.0,327.0 160.0,362.0 168.0,368.0 214.0,368.0 219.0,363.0 195.0,327.0 196.0,256.0" fill="#0a0b13" opacity="0.95" />
<polygon points="182.0,55.0 174.0,59.0 167.0,70.0 184.0,83.0 185.0,106.0 199.0,107.0 214.0,92.0 214.0,68.0 199.0,55.0" fill="#fd0536" opacity="0.95" />
<polygon points="293.0,0.0 361.0,29.0 383.0,82.0 383.0,0.0" fill="#55363a" opacity="0.95" />
<polygon points="0.0,311.0 0.0,383.0 57.0,383.0 22.0,360.0" fill="#55363a" opacity="0.95" />
<polygon points="200.0,284.0 196.0,290.0 196.0,327.0 220.0,361.0 235.0,346.0 236.0,318.0 214.0,289.0" fill="#2a272c" opacity="0.95" />
<polygon points="182.0,284.0 172.0,287.0 147.0,319.0 149.0,348.0 161.0,358.0 187.0,327.0 186.0,288.0" fill="#2a272c" opacity="0.95" />
<polygon points="0.0,75.0 22.0,29.0 46.0,13.0 93.0,0.0 0.0,0.0" fill="#55363a" opacity="0.95" />
<polygon points="167.0,71.0 167.0,93.0 179.0,106.0 183.0,107.0 184.0,85.0" fill="#b50318" />
<polygon points="383.0,305.0 368.0,349.0 349.0,371.0 329.0,383.0 383.0,383.0" fill="#55363a" opacity="0.95" />
<polygon points="141.0,215.0 144.0,230.0 156.0,243.0 176.0,253.0 192.0,253.0 190.0,242.0 162.0,237.0" fill="#2a272c" />
<polygon points="245.0,208.0 199.0,222.0 143.0,214.0 162.0,236.0 197.0,241.0 235.0,224.0" fill="#0a0b13" opacity="0.95" />
<polygon points="189.0,255.0 188.0,327.0 161.0,363.0 214.0,368.0 219.0,363.0 195.0,327.0 196.0,257.0" fill="#0a0b13" opacity="0.95" />
<polygon points="182.0,55.0 167.0,69.0 184.0,83.0 185.0,105.0 199.0,107.0 214.0,92.0 214.0,68.0 199.0,55.0" fill="#fd0536" opacity="0.95" />
<polygon points="130.0,189.0 135.0,199.0 149.0,211.0 166.0,218.0 184.0,219.0 148.0,204.0" fill="#0ab0d2" />
<polygon points="170.0,377.0 179.0,380.0 203.0,380.0 207.0,378.0 205.0,375.0 209.0,369.0 174.0,368.0 175.0,372.0" fill="#2a272c" />
<polygon points="189.0,109.0 187.0,110.0 187.0,169.0 193.0,171.0 196.0,169.0 196.0,110.0" fill="#0a0b13" opacity="0.95" />
<polygon points="216.0,236.0 201.0,241.0 202.0,250.0 204.0,253.0 211.0,252.0 219.0,248.0" fill="#c4c0bd" />
<polygon points="141.0,218.0 144.0,230.0 156.0,243.0 176.0,253.0 192.0,253.0 191.0,243.0 166.0,239.0" fill="#2a272c" opacity="0.95" />
<polygon points="168.0,72.0 166.0,73.0 167.0,93.0 182.0,107.0 184.0,106.0 184.0,85.0" fill="#b50318" opacity="0.95" />
<polygon points="190.0,109.0 187.0,111.0 187.0,169.0 193.0,171.0 196.0,169.0 196.0,111.0" fill="#0a0b13" opacity="0.95" />
<polygon points="142.0,223.0 146.0,233.0 164.0,248.0 181.0,254.0 192.0,252.0 190.0,243.0 166.0,239.0 147.0,222.0" fill="#2a272c" opacity="0.95" />
<polygon points="169.0,72.0 166.0,74.0 167.0,93.0 181.0,106.0 184.0,104.0 184.0,85.0" fill="#b50318" opacity="0.95" />
<polygon points="135.0,197.0 143.0,207.0 157.0,215.0 183.0,219.0 178.0,214.0 158.0,209.0" fill="#0ab0d2" opacity="0.95" />
<polygon points="205.0,168.0 199.0,162.0 198.0,169.0 194.0,172.0 189.0,172.0 185.0,163.0 180.0,166.0 179.0,170.0 185.0,175.0 197.0,175.0 202.0,173.0" fill="#0ab0d2" />
<polygon points="217.0,238.0 213.0,237.0 202.0,241.0 203.0,252.0 207.0,253.0 218.0,249.0 219.0,245.0" fill="#c4c0bd" opacity="0.95" />
<polygon points="228.0,230.0 223.0,233.0 224.0,244.0 225.0,245.0 231.0,241.0" fill="#4d606c" />
<polygon points="141.0,203.0 157.0,215.0 176.0,220.0 181.0,218.0 178.0,214.0 158.0,209.0 144.0,201.0" fill="#0ab0d2" opacity="0.95" />
<polygon points="218.0,240.0 214.0,237.0 204.0,240.0 202.0,242.0 202.0,250.0 207.0,253.0 218.0,249.0" fill="#c4c0bd" opacity="0.95" />
<polygon points="204.0,166.0 198.0,164.0 198.0,169.0 191.0,173.0 183.0,164.0 179.0,170.0 185.0,175.0 191.0,173.0 197.0,175.0 204.0,171.0" fill="#0ab0d2" opacity="0.95" />
<polygon points="221.0,234.0 218.0,236.0 219.0,244.0 221.0,248.0 224.0,245.0 223.0,244.0 223.0,238.0" fill="#84989b" />
<polygon points="200.0,241.0 197.0,243.0 197.0,253.0 199.0,255.0 202.0,253.0 202.0,251.0 201.0,250.0 201.0,242.0" fill="#84989b" />
<polygon points="227.0,231.0 223.0,233.0 224.0,243.0 226.0,244.0 230.0,242.0 229.0,232.0" fill="#4d606c" opacity="0.95" />
<polygon points="193.0,242.0 192.0,243.0 192.0,248.0 193.0,249.0 193.0,253.0 195.0,254.0 196.0,253.0 196.0,243.0 195.0,242.0" fill="#4d606c" />
<polygon points="183.0,164.0 181.0,165.0 179.0,168.0 180.0,172.0 183.0,174.0 186.0,172.0 186.0,166.0" fill="#0ab0d2" opacity="0.95" />
<polygon points="199.0,242.0 197.0,243.0 197.0,254.0 199.0,255.0 202.0,253.0 202.0,251.0 201.0,250.0 201.0,243.0" fill="#84989b" opacity="0.95" />
<polygon points="201.0,164.0 198.0,166.0 198.0,169.0 197.0,170.0 197.0,172.0 200.0,174.0 204.0,171.0 204.0,166.0" fill="#0ab0d2" opacity="0.95" />
<polygon points="226.0,231.0 223.0,233.0 223.0,237.0 224.0,238.0 224.0,241.0 227.0,243.0 230.0,241.0 230.0,237.0 229.0,236.0 229.0,233.0" fill="#4d606c" opacity="0.95" />
<polygon points="220.0,235.0 218.0,236.0 218.0,239.0 219.0,240.0 219.0,244.0 221.0,245.0 223.0,244.0 223.0,238.0 222.0,236.0" fill="#84989b" opacity="0.95" />
<polygon points="194.0,242.0 193.0,243.0 192.0,243.0 192.0,248.0 193.0,248.0 194.0,249.0 195.0,248.0 196.0,248.0 196.0,243.0 195.0,243.0" fill="#4d606c" opacity="0.95" />
</svg>