<svg xmlns="http://www.w3.org/2000/svg" width="768" height="768" viewBox="0 0 384 384">
<rect width="384" height="384" fill="#8e5c54"/>
<polygon points="0.0,0.0 0.0,383.0 383.0,383.0 383.0,0.0" fill="#8b423a" opacity="0.95" />
<polygon points="0.0,0.0 0.0,383.0 131.0,383.0 131.0,263.0 64.0,299.0 36.0,256.0 113.0,161.0 160.0,247.0 135.0,383.0 383.0,383.0 383.0,0.0 135.0,0.0 135.0,66.0 131.0,0.0" fill="#8b423a" />
<polygon points="0.0,0.0 0.0,383.0 383.0,383.0 383.0,0.0" fill="#8b423a" opacity="0.95" />
<polygon points="302.0,114.0 246.0,90.0 193.0,151.0 127.0,158.0 161.0,232.0 240.0,205.0 269.0,158.0 300.0,167.0" fill="#66fcf5" />
<polygon points="362.0,128.0 319.0,129.0 318.0,179.0 275.0,173.0 255.0,220.0 178.0,257.0 123.0,160.0 131.0,126.0 150.0,128.0 136.0,153.0 170.0,157.0 248.0,88.0" fill="#8b423a" />
<polygon points="321.0,128.0 323.0,173.0 272.0,175.0 249.0,225.0 178.0,257.0 159.0,232.0 79.0,298.0 43.0,282.0 47.0,213.0 84.0,175.0 193.0,148.0 242.0,89.0" fill="#8b423a" opacity="0.95" />
<polygon points="320.0,129.0 323.0,173.0 272.0,175.0 249.0,225.0 111.0,256.0 79.0,298.0 43.0,282.0 47.0,213.0 84.0,175.0 192.0,148.0 242.0,89.0" fill="#8b423a" opacity="0.95" />
<polygon points="302.0,114.0 246.0,90.0 194.0,150.0 125.0,159.0 161.0,232.0 240.0,205.0 272.0,157.0 300.0,167.0" fill="#66fcf5" opacity="0.95" />
<polygon points="110.0,165.0 86.0,176.0 71.0,205.0 49.0,211.0 40.0,266.0 53.0,291.0 84.0,284.0 98.0,249.0 120.0,258.0 144.0,245.0" fill="#dcd9d6" />
<polygon points="302.0,114.0 246.0,90.0 194.0,150.0 127.0,158.0 161.0,232.0 240.0,205.0 272.0,157.0 300.0,167.0" fill="#66fcf5" opacity="0.95" />
<polygon points="109.0,165.0 87.0,175.0 71.0,205.0 49.0,211.0 40.0,266.0 53.0,291.0 84.0,284.0 95.0,251.0 120.0,258.0 144.0,245.0" fill="#dcd9d6" opacity="0.95" />
<polygon points="109.0,165.0 87.0,176.0 71.0,205.0 49.0,211.0 40.0,266.0 53.0,291.0 84.0,284.0 95.0,251.0 120.0,258.0 144.0,245.0" fill="#dcd9d6" opacity="0.95" />
<polygon points="315.0,139.0 302.0,167.0 267.0,161.0 241.0,206.0 166.0,244.0 245.0,217.0 273.0,165.0 310.0,175.0" fill="#0c0c0e" />
<polygon points="287.0,108.0 290.0,125.0 234.0,141.0 229.0,126.0 249.0,117.0 244.0,99.0 259.0,94.0 267.0,111.0" fill="#66fcf5" />
<polygon points="286.0,109.0 267.0,113.0 259.0,96.0 245.0,100.0 250.0,118.0 230.0,127.0 236.0,142.0 290.0,123.0" fill="#0c0c0e" />
<polygon points="118.0,165.0 149.0,237.0 135.0,259.0 148.0,260.0 158.0,253.0 157.0,236.0" fill="#461c19" />
<polygon points="284.0,167.0 267.0,171.0 265.0,194.0 245.0,218.0 169.0,249.0 249.0,224.0 269.0,201.0 270.0,176.0" fill="#461c19" />
<polygon points="318.0,146.0 294.0,171.0 267.0,161.0 241.0,206.0 166.0,244.0 245.0,217.0 271.0,166.0 304.0,178.0" fill="#0c0c0e" opacity="0.95" />
<polygon points="287.0,108.0 291.0,124.0 234.0,141.0 229.0,126.0 248.0,118.0 244.0,99.0 258.0,94.0 268.0,111.0" fill="#66fcf5" opacity="0.95" />
<polygon points="286.0,109.0 268.0,113.0 258.0,96.0 244.0,101.0 250.0,118.0 231.0,126.0 236.0,142.0 290.0,123.0" fill="#0c0c0e" opacity="0.95" />
<polygon points="288.0,110.0 289.0,125.0 234.0,141.0 229.0,127.0 248.0,117.0 245.0,99.0 258.0,94.0 267.0,110.0" fill="#66fcf5" opacity="0.95" />
<polygon points="110.0,252.0 103.0,249.0 93.0,255.0 87.0,285.0 59.0,295.0 75.0,298.0 95.0,290.0 101.0,282.0 101.0,266.0" fill="#461c19" />
<polygon points="265.0,185.0 241.0,206.0 171.0,232.0 165.0,241.0 181.0,242.0 245.0,217.0" fill="#0c0c0e" opacity="0.95" />
<polygon points="286.0,109.0 268.0,112.0 260.0,97.0 246.0,100.0 250.0,118.0 231.0,127.0 235.0,140.0 289.0,123.0" fill="#0c0c0e" opacity="0.95" />
<polygon points="120.0,167.0 149.0,237.0 145.0,251.0 123.0,261.0 148.0,260.0 158.0,253.0 157.0,236.0" fill="#461c19" opacity="0.95" />
<polygon points="284.0,167.0 267.0,171.0 265.0,194.0 245.0,218.0 169.0,249.0 249.0,224.0 269.0,201.0 268.0,179.0" fill="#461c19" opacity="0.95" />
<polygon points="305.0,115.0 320.0,149.0 320.0,163.0 304.0,179.0 290.0,176.0 298.0,184.0 314.0,181.0 325.0,164.0 318.0,133.0" fill="#461c19" />
<polygon points="121.0,169.0 149.0,237.0 136.0,259.0 148.0,260.0 158.0,252.0 157.0,236.0" fill="#461c19" opacity="0.95" />
<polygon points="270.0,195.0 245.0,218.0 169.0,249.0 175.0,253.0 249.0,224.0" fill="#461c19" opacity="0.95" />
<polygon points="110.0,252.0 103.0,249.0 95.0,253.0 90.0,282.0 62.0,297.0 75.0,298.0 95.0,290.0 101.0,282.0 101.0,266.0" fill="#461c19" opacity="0.95" />
<polygon points="108.0,250.0 94.0,254.0 90.0,282.0 69.0,293.0 69.0,297.0 88.0,294.0 99.0,286.0" fill="#461c19" opacity="0.95" />
<polygon points="6.0,322.0 8.0,320.0 30.0,320.0 32.0,322.0 30.0,324.0 8.0,324.0" fill="#8b423a" />
<polygon points="319.0,149.0 314.0,148.0 302.0,167.0 294.0,171.0 291.0,169.0 288.0,173.0 296.0,178.0 310.0,175.0 319.0,163.0" fill="#0c0c0e" opacity="0.95" />
<polygon points="107.0,322.0 109.0,320.0 123.0,320.0 125.0,322.0 123.0,324.0 109.0,324.0" fill="#8b423a" />
<polygon points="368.0,128.0 370.0,126.0 377.0,126.0 379.0,128.0 377.0,130.0 370.0,130.0" fill="#8b423a" />
<polygon points="37.0,128.0 39.0,126.0 44.0,126.0 46.0,128.0 44.0,130.0 39.0,130.0" fill="#8b423a" />
<polygon points="92.0,256.0 89.0,260.0 89.0,270.0 90.0,271.0 92.0,269.0 92.0,258.0 93.0,257.0" fill="#413530" />
<polygon points="282.0,160.0 279.0,158.0 271.0,159.0 262.0,166.0 262.0,169.0 265.0,171.0 271.0,166.0 281.0,163.0" fill="#0c0c0e" opacity="0.95" />
<polygon points="113.0,164.0 112.0,165.0 114.0,167.0 114.0,168.0 116.0,171.0 117.0,170.0 117.0,169.0 116.0,168.0 116.0,165.0 115.0,164.0" fill="#413530" />
</svg>