<svg xmlns="http://www.w3.org/2000/svg" width="768" height="768" viewBox="0 0 384 384">
<rect width="384" height="384" fill="#8e634e"/>
<polygon points="2.0,0.0 3.0,320.0 373.0,322.0 2.0,324.0 2.0,383.0 383.0,383.0 383.0,0.0" fill="#8e5b47" />
<polygon points="0.0,0.0 0.0,383.0 383.0,383.0 383.0,0.0" fill="#8e5b47" opacity="0.95" />
<polygon points="0.0,0.0 0.0,383.0 383.0,383.0 383.0,0.0" fill="#8e5b47" opacity="0.95" />
<polygon points="149.0,115.0 184.0,100.0 231.0,109.0 279.0,154.0 279.0,199.0 221.0,240.0 161.0,225.0 123.0,165.0" fill="#8e5b47" />
<polygon points="125.0,162.0 138.0,199.0 180.0,222.0 235.0,210.0 262.0,171.0 261.0,161.0" fill="#61f3f4" />
<polygon points="149.0,115.0 184.0,100.0 231.0,109.0 279.0,154.0 279.0,199.0 221.0,240.0 161.0,225.0 123.0,165.0" fill="#8e5b47" opacity="0.95" />
<polygon points="149.0,115.0 184.0,100.0 231.0,109.0 279.0,154.0 279.0,199.0 221.0,240.0 161.0,225.0 123.0,165.0" fill="#8e5b47" opacity="0.95" />
<polygon points="196.0,102.0 175.0,103.0 149.0,116.0 131.0,137.0 125.0,158.0 195.0,159.0" fill="#b8010b" />
<polygon points="125.0,162.0 138.0,199.0 180.0,222.0 235.0,210.0 262.0,171.0 260.0,161.0" fill="#61f3f4" opacity="0.95" />
<polygon points="198.0,102.0 199.0,159.0 262.0,158.0 259.0,142.0 244.0,120.0 222.0,106.0" fill="#93df6d" />
<polygon points="125.0,163.0 138.0,199.0 180.0,222.0 235.0,210.0 262.0,171.0 259.0,161.0" fill="#61f3f4" opacity="0.95" />
<polygon points="196.0,102.0 175.0,103.0 149.0,116.0 131.0,137.0 126.0,158.0 196.0,158.0" fill="#b8010b" opacity="0.95" />
<polygon points="198.0,102.0 198.0,158.0 262.0,158.0 259.0,142.0 244.0,120.0 222.0,106.0" fill="#93df6d" opacity="0.95" />
<polygon points="196.0,103.0 175.0,103.0 149.0,116.0 131.0,137.0 126.0,157.0 195.0,158.0" fill="#b8010b" opacity="0.95" />
<polygon points="278.0,154.0 254.0,131.0 270.0,188.0 225.0,232.0 186.0,232.0 142.0,207.0 188.0,237.0 235.0,235.0 279.0,197.0" fill="#623c2f" />
<polygon points="267.0,160.0 251.0,197.0 227.0,218.0 177.0,227.0 210.0,234.0 245.0,220.0 266.0,197.0" fill="#2e1b16" />
<polygon points="198.0,103.0 199.0,158.0 262.0,157.0 259.0,142.0 244.0,120.0 222.0,106.0" fill="#93df6d" opacity="0.95" />
<polygon points="268.0,137.0 255.0,133.0 270.0,188.0 245.0,221.0 210.0,235.0 158.0,222.0 200.0,239.0 254.0,224.0 282.0,188.0" fill="#623c2f" opacity="0.95" />
<polygon points="268.0,162.0 240.0,208.0 216.0,224.0 184.0,230.0 218.0,233.0 250.0,216.0 266.0,197.0" fill="#2e1b16" opacity="0.95" />
<polygon points="259.0,130.0 270.0,165.0 267.0,197.0 219.0,239.0 254.0,224.0 282.0,188.0 278.0,154.0" fill="#623c2f" opacity="0.95" />
<polygon points="269.0,168.0 263.0,168.0 257.0,188.0 240.0,208.0 197.0,231.0 222.0,232.0 250.0,216.0 266.0,197.0" fill="#2e1b16" opacity="0.95" />
<polygon points="163.0,219.0 182.0,226.0 190.0,226.0 192.0,224.0" fill="#1a97a0" />
<polygon points="128.0,321.0 133.0,318.0 137.0,320.0 138.0,323.0 133.0,326.0 129.0,324.0" fill="#8e5b47" opacity="0.95" />
<polygon points="133.0,61.0 136.0,64.0 134.0,66.0 132.0,66.0 130.0,64.0" fill="#8e5b47" />
<polygon points="211.0,222.0 210.0,221.0 205.0,223.0 199.0,223.0 193.0,225.0 194.0,226.0 203.0,226.0 204.0,225.0 207.0,225.0" fill="#0e7177" />
<polygon points="128.0,321.0 130.0,319.0 134.0,318.0 138.0,321.0 138.0,323.0 136.0,325.0 132.0,326.0 128.0,323.0" fill="#8e5b47" opacity="0.95" />
<polygon points="225.0,218.0 223.0,217.0 218.0,220.0 213.0,221.0 211.0,223.0 212.0,224.0 216.0,223.0" fill="#094346" />
</svg>