<svg xmlns="http://www.w3.org/2000/svg" width="768" height="768" viewBox="0 0 384 384">
<rect width="384" height="384" fill="#8d6655"/>
<polygon points="0.0,76.0 0.0,202.0 109.0,196.0 122.0,257.0 0.0,267.0 0.0,383.0 383.0,383.0 383.0,258.0 264.0,261.0 269.0,196.0 383.0,213.0 383.0,78.0 337.0,30.0 122.0,0.0" fill="#98604b" />
<polygon points="0.0,76.0 0.0,202.0 121.0,205.0 116.0,266.0 0.0,267.0 0.0,383.0 383.0,383.0 383.0,258.0 264.0,261.0 269.0,196.0 383.0,213.0 383.0,78.0 337.0,30.0 121.0,0.0" fill="#98604b" opacity="0.95" />
<polygon points="0.0,76.0 0.0,202.0 121.0,205.0 118.0,265.0 0.0,267.0 0.0,383.0 383.0,383.0 383.0,258.0 264.0,261.0 269.0,196.0 383.0,213.0 383.0,78.0 337.0,30.0 119.0,0.0" fill="#98604b" opacity="0.95" />
<polygon points="175.0,131.0 219.0,135.0 248.0,172.0 243.0,242.0 216.0,265.0 171.0,266.0 140.0,240.0 132.0,167.0" fill="#98604b" />
<polygon points="212.0,133.0 167.0,135.0 137.0,159.0 135.0,195.0 160.0,223.0 204.0,227.0 244.0,199.0 244.0,165.0" fill="#06cdf3" />
<polygon points="119.0,203.0 93.0,194.0 4.0,203.0 0.0,266.0 55.0,279.0 113.0,266.0 120.0,255.0 104.0,232.0" fill="#c4825d" />
<polygon points="265.0,200.0 266.0,222.0 277.0,232.0 265.0,261.0 333.0,278.0 383.0,257.0 383.0,214.0 357.0,200.0" fill="#c4825d" />
<polygon points="175.0,131.0 219.0,135.0 248.0,172.0 243.0,242.0 216.0,265.0 171.0,266.0 140.0,240.0 132.0,167.0" fill="#98604b" opacity="0.95" />
<polygon points="176.0,20.0 210.0,21.0 237.0,43.0 238.0,67.0 219.0,91.0 179.0,97.0 150.0,72.0 142.0,53.0" fill="#98604b" />
<polygon points="177.0,21.0 145.0,50.0 151.0,72.0 179.0,96.0 217.0,91.0 237.0,67.0 236.0,43.0 210.0,22.0" fill="#c66050" />
<polygon points="175.0,131.0 219.0,135.0 248.0,172.0 243.0,242.0 216.0,265.0 171.0,266.0 140.0,240.0 132.0,167.0" fill="#98604b" opacity="0.95" />
<polygon points="212.0,133.0 167.0,135.0 137.0,159.0 135.0,195.0 160.0,223.0 204.0,227.0 244.0,199.0 244.0,165.0" fill="#06cdf3" opacity="0.95" />
<polygon points="268.0,0.0 346.0,33.0 355.0,63.0 383.0,77.0 383.0,0.0" fill="#5a3a2f" />
<polygon points="0.0,75.0 25.0,70.0 34.0,42.0 54.0,23.0 121.0,0.0 0.0,0.0" fill="#5a3a2f" />
<polygon points="119.0,203.0 42.0,195.0 0.0,206.0 0.0,266.0 55.0,279.0 113.0,266.0 119.0,254.0 105.0,231.0" fill="#c4825d" opacity="0.95" />
<polygon points="265.0,200.0 266.0,222.0 277.0,231.0 265.0,261.0 333.0,278.0 383.0,257.0 383.0,214.0 357.0,200.0" fill="#c4825d" opacity="0.95" />
<polygon points="212.0,133.0 167.0,135.0 137.0,159.0 135.0,195.0 160.0,223.0 204.0,227.0 244.0,199.0 244.0,165.0" fill="#06cdf3" opacity="0.95" />
<polygon points="177.0,20.0 209.0,21.0 237.0,43.0 238.0,67.0 219.0,91.0 180.0,97.0 143.0,61.0 155.0,33.0" fill="#98604b" opacity="0.95" />
<polygon points="173.0,23.0 145.0,49.0 153.0,75.0 183.0,97.0 219.0,90.0 236.0,69.0 236.0,43.0 209.0,22.0" fill="#c66050" opacity="0.95" />
<polygon points="0.0,206.0 0.0,266.0 59.0,279.0 119.0,261.0 105.0,234.0 120.0,208.0 109.0,197.0 42.0,195.0" fill="#c4825d" opacity="0.95" />
<polygon points="265.0,200.0 266.0,222.0 277.0,232.0 265.0,261.0 333.0,278.0 383.0,257.0 383.0,214.0 357.0,200.0" fill="#c4825d" opacity="0.95" />
<polygon points="250.0,190.0 214.0,225.0 191.0,231.0 167.0,227.0 164.0,249.0 194.0,256.0 229.0,242.0 246.0,222.0" fill="#04083f" />
<polygon points="177.0,20.0 209.0,21.0 237.0,43.0 238.0,67.0 219.0,91.0 183.0,98.0 150.0,72.0 144.0,49.0" fill="#98604b" opacity="0.95" />
<polygon points="269.0,0.0 348.0,35.0 355.0,63.0 383.0,77.0 383.0,0.0" fill="#5a3a2f" opacity="0.95" />
<polygon points="173.0,23.0 145.0,50.0 153.0,75.0 188.0,98.0 221.0,88.0 236.0,69.0 236.0,43.0 209.0,22.0" fill="#c66050" opacity="0.95" />
<polygon points="0.0,74.0 26.0,69.0 35.0,39.0 51.0,25.0 120.0,0.0 0.0,0.0" fill="#5a3a2f" opacity="0.95" />
<polygon points="270.0,0.0 346.0,34.0 355.0,63.0 383.0,76.0 383.0,0.0" fill="#5a3a2f" opacity="0.95" />
<polygon points="0.0,74.0 25.0,69.0 35.0,40.0 51.0,25.0 118.0,0.0 0.0,0.0" fill="#5a3a2f" opacity="0.95" />
<polygon points="138.0,225.0 150.0,254.0 183.0,267.0 231.0,257.0 245.0,228.0 212.0,253.0 181.0,257.0 160.0,249.0" fill="#5a3a2f" />
<polygon points="250.0,196.0 214.0,225.0 165.0,229.0 164.0,249.0 194.0,256.0 226.0,244.0 246.0,222.0" fill="#04083f" opacity="0.95" />
<polygon points="133.0,194.0 142.0,228.0 162.0,249.0 165.0,228.0 141.0,208.0" fill="#471125" />
<polygon points="250.0,200.0 214.0,225.0 166.0,229.0 164.0,249.0 194.0,256.0 221.0,247.0 243.0,227.0" fill="#04083f" opacity="0.95" />
<polygon points="139.0,230.0 150.0,254.0 183.0,267.0 231.0,257.0 244.0,235.0 207.0,255.0 181.0,257.0" fill="#5a3a2f" opacity="0.95" />
<polygon points="243.0,235.0 197.0,257.0 170.0,254.0 144.0,234.0 141.0,240.0 166.0,263.0 198.0,267.0 234.0,255.0" fill="#5a3a2f" opacity="0.95" />
<polygon points="180.0,175.0 184.0,172.0 191.0,172.0 197.0,179.0 196.0,185.0 190.0,189.0 184.0,188.0 179.0,183.0" fill="#06cdf3" />
<polygon points="154.0,190.0 161.0,188.0 168.0,193.0 169.0,199.0 164.0,205.0 157.0,205.0 152.0,201.0 151.0,193.0" fill="#06cdf3" />
<polygon points="198.0,143.0 206.0,142.0 211.0,146.0 212.0,154.0 208.0,158.0 201.0,159.0 195.0,154.0 194.0,149.0" fill="#06cdf3" />
<polygon points="133.0,201.0 142.0,228.0 156.0,245.0 162.0,246.0 164.0,227.0 153.0,220.0 137.0,201.0" fill="#471125" opacity="0.95" />
<polygon points="223.0,186.0 229.0,185.0 235.0,189.0 237.0,192.0 237.0,196.0 233.0,201.0 225.0,202.0 220.0,198.0 219.0,191.0" fill="#06cdf3" />
<polygon points="184.0,173.0 180.0,177.0 181.0,184.0 187.0,188.0 192.0,187.0 196.0,182.0 195.0,177.0 190.0,173.0" fill="#e9e4e6" />
<polygon points="200.0,143.0 196.0,147.0 196.0,153.0 199.0,157.0 206.0,158.0 210.0,155.0 211.0,148.0 206.0,143.0" fill="#e9e4e6" />
<polygon points="222.0,188.0 220.0,191.0 221.0,198.0 225.0,201.0 233.0,200.0 236.0,195.0 235.0,191.0 228.0,186.0" fill="#e9e4e6" />
<polygon points="154.0,191.0 152.0,194.0 152.0,198.0 156.0,203.0 163.0,204.0 167.0,201.0 168.0,195.0 164.0,190.0" fill="#e9e4e6" />
<polygon points="136.0,206.0 135.0,211.0 142.0,228.0 156.0,245.0 162.0,245.0 164.0,227.0 140.0,206.0" fill="#471125" opacity="0.95" />
<polygon points="180.0,175.0 184.0,172.0 192.0,173.0 197.0,179.0 196.0,185.0 190.0,189.0 184.0,188.0 179.0,183.0" fill="#06cdf3" opacity="0.95" />
<polygon points="158.0,188.0 165.0,190.0 169.0,195.0 168.0,201.0 163.0,205.0 157.0,205.0 151.0,199.0 151.0,193.0" fill="#06cdf3" opacity="0.95" />
<polygon points="198.0,143.0 206.0,142.0 211.0,146.0 212.0,154.0 208.0,158.0 201.0,159.0 195.0,154.0 194.0,149.0" fill="#06cdf3" opacity="0.95" />
<polygon points="185.0,173.0 180.0,177.0 180.0,182.0 183.0,186.0 189.0,188.0 195.0,184.0 196.0,179.0 192.0,174.0" fill="#e9e4e6" opacity="0.95" />
<polygon points="226.0,186.0 221.0,189.0 220.0,196.0 223.0,200.0 230.0,201.0 234.0,199.0 236.0,193.0 232.0,188.0" fill="#e9e4e6" opacity="0.95" />
<polygon points="200.0,143.0 196.0,147.0 196.0,153.0 199.0,157.0 206.0,158.0 210.0,155.0 211.0,148.0 205.0,143.0" fill="#e9e4e6" opacity="0.95" />
<polygon points="154.0,191.0 152.0,194.0 152.0,198.0 156.0,203.0 163.0,204.0 167.0,201.0 168.0,195.0 165.0,191.0 163.0,190.0" fill="#e9e4e6" opacity="0.95" />
<polygon points="185.0,173.0 180.0,177.0 180.0,182.0 183.0,186.0 189.0,188.0 195.0,184.0 196.0,179.0 192.0,174.0" fill="#e9e4e6" opacity="0.95" />
<polygon points="200.0,143.0 196.0,147.0 196.0,153.0 199.0,157.0 206.0,158.0 210.0,155.0 211.0,148.0 205.0,143.0" fill="#e9e4e6" opacity="0.95" />
</svg>