<svg xmlns="http://www.w3.org/2000/svg" width="768" height="768" viewBox="0 0 384 384">
<rect width="384" height="384" fill="#876555"/>
<polygon points="0.0,0.0 2.0,62.0 252.0,64.0 2.0,66.0 2.0,125.0 338.0,191.0 202.0,281.0 5.0,259.0 2.0,320.0 134.0,322.0 4.0,323.0 0.0,383.0 363.0,315.0 383.0,255.0 251.0,254.0 383.0,250.0 383.0,83.0 277.0,65.0 301.0,11.0" fill="#885c4a" />
<polygon points="0.0,0.0 1.0,124.0 198.0,122.0 257.0,189.0 202.0,281.0 137.0,233.0 0.0,270.0 0.0,383.0 289.0,376.0 363.0,315.0 383.0,82.0 280.0,0.0" fill="#885c4a" opacity="0.95" />
<polygon points="0.0,0.0 0.0,123.0 198.0,122.0 258.0,190.0 202.0,281.0 160.0,235.0 1.0,270.0 0.0,383.0 311.0,366.0 383.0,282.0 383.0,82.0 280.0,0.0" fill="#885c4a" opacity="0.95" />
<polygon points="0.0,131.0 2.0,267.0 5.0,258.0 12.0,270.0 14.0,258.0 131.0,252.0 130.0,129.0" fill="#b99787" />
<polygon points="0.0,131.0 0.0,251.0 10.0,268.0 18.0,253.0 131.0,252.0 131.0,130.0" fill="#b99787" opacity="0.95" />
<polygon points="0.0,131.0 0.0,251.0 131.0,251.0 130.0,130.0" fill="#b99787" opacity="0.95" />
<polygon points="188.0,125.0 181.0,133.0 198.0,145.0 166.0,172.0 136.0,171.0 137.0,211.0 174.0,214.0 177.0,246.0 192.0,256.0 210.0,247.0 202.0,229.0 212.0,213.0 250.0,210.0 250.0,172.0 214.0,169.0 203.0,155.0 211.0,133.0" fill="#59def5" />
<polygon points="383.0,284.0 362.0,317.0 346.0,310.0 363.0,325.0 310.0,368.0 251.0,383.0 383.0,383.0" fill="#5c392d" />
<polygon points="281.0,1.0 301.0,10.0 310.0,29.0 323.0,30.0 328.0,50.0 312.0,62.0 330.0,62.0 345.0,50.0 383.0,80.0 383.0,0.0" fill="#5c392d" />
<polygon points="188.0,125.0 181.0,133.0 197.0,147.0 166.0,172.0 135.0,172.0 138.0,211.0 174.0,214.0 177.0,246.0 192.0,256.0 210.0,247.0 212.0,213.0 250.0,210.0 250.0,172.0 214.0,169.0 203.0,155.0 211.0,133.0" fill="#59def5" opacity="0.95" />
<polygon points="282.0,0.0 303.0,12.0 309.0,28.0 323.0,30.0 328.0,50.0 321.0,61.0 345.0,50.0 383.0,80.0 383.0,0.0" fill="#5c392d" opacity="0.95" />
<polygon points="383.0,284.0 354.0,317.0 361.0,327.0 350.0,338.0 333.0,341.0 301.0,373.0 251.0,383.0 383.0,383.0" fill="#5c392d" opacity="0.95" />
<polygon points="188.0,125.0 181.0,133.0 198.0,145.0 166.0,172.0 135.0,172.0 138.0,211.0 174.0,214.0 177.0,246.0 192.0,256.0 210.0,247.0 212.0,213.0 250.0,209.0 250.0,172.0 214.0,169.0 203.0,155.0 211.0,133.0" fill="#59def5" opacity="0.95" />
<polygon points="282.0,0.0 301.0,11.0 311.0,29.0 324.0,32.0 324.0,61.0 345.0,50.0 383.0,80.0 383.0,0.0" fill="#5c392d" opacity="0.95" />
<polygon points="383.0,285.0 348.0,339.0 333.0,341.0 301.0,373.0 257.0,383.0 383.0,383.0" fill="#5c392d" opacity="0.95" />
<polygon points="135.0,167.0 152.0,171.0 164.0,170.0 174.0,165.0 181.0,154.0 140.0,152.0 136.0,149.0" fill="#885c4a" />
<polygon points="250.0,213.0 238.0,210.0 216.0,212.0 206.0,221.0 203.0,233.0 207.0,237.0 220.0,228.0 245.0,224.0 250.0,220.0" fill="#301e1a" />
<polygon points="135.0,213.0 141.0,224.0 163.0,224.0 182.0,233.0 179.0,221.0 168.0,212.0 147.0,210.0" fill="#301e1a" />
<polygon points="135.0,133.0 135.0,146.0 140.0,151.0 181.0,151.0 182.0,145.0 179.0,141.0 148.0,139.0" fill="#5c392d" />
<polygon points="137.0,130.0 148.0,138.0 179.0,140.0 186.0,148.0 196.0,145.0 194.0,137.0 182.0,136.0 178.0,129.0" fill="#301e1a" />
<polygon points="253.0,197.0 251.0,220.0 245.0,225.0 216.0,231.0 207.0,238.0 212.0,245.0 229.0,236.0 246.0,234.0 254.0,227.0" fill="#5c392d" />
<polygon points="135.0,166.0 152.0,171.0 164.0,170.0 174.0,165.0 180.0,154.0 137.0,150.0" fill="#885c4a" opacity="0.95" />
<polygon points="135.0,221.0 135.0,228.0 140.0,234.0 160.0,234.0 175.0,239.0 181.0,235.0 167.0,226.0 141.0,225.0" fill="#5c392d" />
<polygon points="210.0,263.0 210.0,253.0 208.0,251.0 197.0,257.0 181.0,256.0 183.0,263.0 193.0,271.0 202.0,270.0" fill="#301e1a" />
<polygon points="250.0,214.0 238.0,210.0 216.0,212.0 206.0,221.0 204.0,236.0 229.0,225.0 245.0,224.0 250.0,220.0" fill="#301e1a" opacity="0.95" />
<polygon points="339.0,51.0 334.0,55.0 332.0,64.0 336.0,69.0 343.0,71.0 351.0,66.0 352.0,60.0 348.0,53.0" fill="#d5c5bd" />
<polygon points="135.0,213.0 141.0,224.0 163.0,224.0 182.0,231.0 179.0,221.0 168.0,212.0 147.0,210.0" fill="#301e1a" opacity="0.95" />
<polygon points="212.0,248.0 209.0,250.0 211.0,263.0 199.0,272.0 189.0,270.0 179.0,256.0 182.0,271.0 194.0,280.0 207.0,278.0 215.0,265.0" fill="#5c392d" />
<polygon points="338.0,313.0 333.0,318.0 332.0,322.0 334.0,327.0 339.0,332.0 346.0,332.0 352.0,327.0 352.0,319.0 346.0,313.0" fill="#d5c5bd" />
<polygon points="137.0,130.0 148.0,138.0 176.0,139.0 186.0,148.0 196.0,145.0 194.0,137.0 183.0,136.0 177.0,129.0" fill="#301e1a" opacity="0.95" />
<polygon points="135.0,165.0 146.0,170.0 164.0,170.0 174.0,165.0 180.0,155.0 138.0,151.0 135.0,153.0" fill="#885c4a" opacity="0.95" />
<polygon points="250.0,215.0 238.0,210.0 216.0,212.0 206.0,221.0 204.0,234.0 207.0,236.0 229.0,225.0 245.0,224.0 250.0,220.0" fill="#301e1a" opacity="0.95" />
<polygon points="210.0,263.0 210.0,256.0 207.0,252.0 197.0,257.0 181.0,256.0 183.0,263.0 193.0,271.0 202.0,270.0" fill="#301e1a" opacity="0.95" />
<polygon points="136.0,214.0 136.0,219.0 141.0,224.0 157.0,223.0 178.0,231.0 181.0,229.0 179.0,221.0 168.0,212.0 147.0,210.0" fill="#301e1a" opacity="0.95" />
<polygon points="339.0,51.0 334.0,55.0 332.0,64.0 336.0,69.0 343.0,71.0 351.0,66.0 352.0,60.0 348.0,53.0" fill="#d5c5bd" opacity="0.95" />
<polygon points="339.0,313.0 333.0,318.0 334.0,327.0 339.0,332.0 346.0,332.0 352.0,327.0 352.0,319.0 345.0,313.0" fill="#d5c5bd" opacity="0.95" />
<polygon points="339.0,51.0 334.0,55.0 332.0,64.0 336.0,69.0 343.0,71.0 351.0,66.0 352.0,60.0 348.0,53.0" fill="#d5c5bd" opacity="0.95" />
<polygon points="339.0,313.0 333.0,318.0 334.0,327.0 339.0,332.0 346.0,332.0 352.0,327.0 352.0,319.0 345.0,313.0" fill="#d5c5bd" opacity="0.95" />
<polygon points="23.0,264.0 27.0,261.0 32.0,260.0 36.0,261.0 39.0,264.0 37.0,266.0 31.0,268.0 30.0,267.0 29.0,268.0" fill="#885c4a" />
<polygon points="361.0,325.0 356.0,323.0 353.0,330.0 347.0,335.0 343.0,334.0 342.0,338.0 348.0,338.0" fill="#885c4a" />
<polygon points="225.0,254.0 227.0,252.0 228.0,253.0 229.0,252.0 230.0,253.0 231.0,252.0 242.0,253.0 245.0,252.0 247.0,254.0 245.0,256.0 242.0,255.0 241.0,256.0 230.0,255.0 227.0,256.0" fill="#885c4a" />
<polygon points="38.0,264.0 36.0,262.0 32.0,261.0 31.0,262.0 27.0,262.0 24.0,264.0 29.0,267.0 30.0,266.0 31.0,267.0 35.0,266.0" fill="#b99787" />
<polygon points="369.0,252.0 372.0,250.0 378.0,250.0 381.0,252.0 381.0,254.0 378.0,256.0 372.0,256.0 369.0,254.0" fill="#885c4a" opacity="0.95" />
<polygon points="37.0,263.0 32.0,261.0 25.0,263.0 25.0,265.0 31.0,267.0 37.0,265.0" fill="#b99787" opacity="0.95" />
<polygon points="11.0,261.0 8.0,263.0 8.0,265.0 12.0,268.0 15.0,266.0 15.0,263.0" fill="#b99787" opacity="0.95" />
</svg>