<svg xmlns="http://www.w3.org/2000/svg" width="768" height="768" viewBox="0 0 384 384">
<rect width="384" height="384" fill="#916c63"/>
<polygon points="0.0,0.0 2.0,126.0 130.0,125.0 131.0,0.0" fill="#704040" />
<polygon points="132.0,0.0 132.0,56.0 146.0,57.0 132.0,60.0 132.0,126.0 250.0,127.0 250.0,0.0" fill="#dbc7b1" />
<polygon points="252.0,128.0 253.0,191.0 383.0,191.0 383.0,127.0" fill="#89655a" />
<polygon points="0.0,322.0 0.0,383.0 130.0,383.0 129.0,320.0" fill="#c09386" />
<polygon points="253.0,321.0 253.0,383.0 383.0,383.0 383.0,320.0" fill="#c09386" />
<polygon points="0.0,0.0 1.0,125.0 130.0,125.0 131.0,0.0" fill="#704040" opacity="0.95" />
<polygon points="0.0,129.0 2.0,191.0 81.0,191.0 85.0,175.0 99.0,191.0 131.0,190.0 129.0,127.0" fill="#89655a" />
<polygon points="383.0,192.0 221.0,192.0 224.0,234.0 131.0,256.0 131.0,318.0 164.0,319.0 190.0,260.0 222.0,294.0 220.0,319.0 252.0,318.0 254.0,254.0 302.0,254.0 301.0,281.0 346.0,285.0 353.0,254.0 383.0,254.0" fill="#c09386" />
<polygon points="252.0,0.0 254.0,126.0 285.0,125.0 275.0,107.0 304.0,86.0 324.0,33.0 355.0,96.0 349.0,115.0 324.0,125.0 383.0,126.0 383.0,0.0" fill="#704040" />
<polygon points="132.0,0.0 132.0,52.0 145.0,56.0 132.0,60.0 132.0,126.0 251.0,126.0 250.0,0.0" fill="#dbc7b1" opacity="0.95" />
<polygon points="0.0,0.0 0.0,124.0 130.0,124.0 131.0,0.0" fill="#704040" opacity="0.95" />
<polygon points="0.0,322.0 0.0,383.0 130.0,383.0 130.0,321.0 193.0,260.0 253.0,321.0 253.0,383.0 383.0,383.0 383.0,320.0 252.0,318.0 253.0,255.0 346.0,285.0 383.0,192.0 222.0,192.0 188.0,255.0 130.0,253.0 162.0,193.0 102.0,192.0 131.0,318.0" fill="#c09386" opacity="0.95" />
<polygon points="253.0,128.0 255.0,191.0 383.0,191.0 383.0,127.0" fill="#89655a" opacity="0.95" />
<polygon points="132.0,0.0 132.0,51.0 144.0,56.0 132.0,62.0 132.0,125.0 250.0,126.0 250.0,0.0" fill="#dbc7b1" opacity="0.95" />
<polygon points="0.0,322.0 0.0,383.0 130.0,383.0 130.0,322.0 193.0,260.0 253.0,322.0 253.0,383.0 383.0,383.0 383.0,320.0 252.0,317.0 256.0,254.0 320.0,288.0 383.0,254.0 383.0,192.0 223.0,192.0 187.0,255.0 130.0,252.0 161.0,193.0 103.0,192.0 131.0,317.0" fill="#c09386" opacity="0.95" />
<polygon points="88.0,176.0 86.0,190.0 62.0,199.0 44.0,225.0 38.0,275.0 55.0,287.0 81.0,287.0 100.0,274.0 94.0,236.0 101.0,203.0" fill="#dbc7b1" />
<polygon points="252.0,0.0 253.0,125.0 282.0,125.0 275.0,107.0 304.0,86.0 325.0,34.0 355.0,96.0 327.0,125.0 383.0,126.0 383.0,0.0" fill="#704040" opacity="0.95" />
<polygon points="72.0,193.0 2.0,192.0 0.0,253.0 40.0,254.0 49.0,212.0" fill="#c09386" />
<polygon points="0.0,129.0 3.0,191.0 81.0,191.0 86.0,175.0 100.0,191.0 131.0,190.0 128.0,127.0" fill="#89655a" opacity="0.95" />
<polygon points="189.0,29.0 222.0,94.0 222.0,107.0 208.0,115.0 173.0,115.0 157.0,104.0" fill="#dbc7b1" />
<polygon points="131.0,129.0 134.0,191.0 163.0,190.0 162.0,172.0 179.0,165.0 189.0,135.0 205.0,150.0 203.0,163.0 221.0,171.0 221.0,191.0 252.0,189.0 250.0,128.0" fill="#73835b" />
<polygon points="253.0,257.0 254.0,319.0 383.0,319.0 383.0,256.0 354.0,256.0 356.0,288.0 328.0,302.0 273.0,291.0 301.0,256.0" fill="#704040" />
<polygon points="253.0,129.0 256.0,191.0 383.0,191.0 383.0,127.0" fill="#89655a" opacity="0.95" />
<polygon points="166.0,168.0 162.0,218.0 184.0,228.0 215.0,223.0 222.0,214.0 220.0,171.0 206.0,166.0 206.0,173.0" fill="#06c1c1" />
<polygon points="188.0,262.0 182.0,285.0 163.0,295.0 165.0,333.0 152.0,355.0 169.0,367.0 211.0,368.0 233.0,352.0 219.0,332.0 222.0,297.0 201.0,286.0 197.0,264.0" fill="#2c2123" />
<polygon points="190.0,34.0 159.0,106.0 175.0,114.0 211.0,113.0 220.0,108.0 221.0,95.0" fill="#b00619" />
<polygon points="2.0,257.0 3.0,319.0 130.0,318.0 129.0,256.0 97.0,256.0 101.0,291.0 72.0,302.0 20.0,295.0 15.0,283.0 36.0,274.0 40.0,257.0" fill="#704040" />
<polygon points="252.0,0.0 253.0,125.0 281.0,124.0 275.0,107.0 303.0,86.0 325.0,34.0 355.0,96.0 330.0,124.0 383.0,126.0 383.0,0.0" fill="#704040" opacity="0.95" />
<polygon points="0.0,258.0 4.0,319.0 130.0,320.0 132.0,383.0 252.0,383.0 255.0,319.0 383.0,319.0 383.0,256.0 328.0,302.0 273.0,291.0 302.0,257.0 255.0,256.0 233.0,356.0 151.0,355.0 165.0,321.0 130.0,318.0 130.0,257.0 72.0,302.0 15.0,291.0 40.0,257.0" fill="#704040" opacity="0.95" />
<polygon points="0.0,129.0 4.0,191.0 81.0,191.0 87.0,175.0 101.0,191.0 131.0,189.0 127.0,127.0" fill="#89655a" opacity="0.95" />
<polygon points="162.0,193.0 100.0,192.0 102.0,222.0 95.0,236.0 95.0,253.0 129.0,254.0 130.0,231.0 147.0,215.0 159.0,212.0" fill="#c09386" />
<polygon points="87.0,176.0 86.0,190.0 62.0,199.0 44.0,225.0 38.0,275.0 55.0,287.0 81.0,287.0 99.0,276.0 94.0,236.0 101.0,203.0" fill="#dbc7b1" opacity="0.95" />
<polygon points="0.0,259.0 5.0,319.0 129.0,320.0 132.0,383.0 252.0,383.0 256.0,319.0 383.0,319.0 383.0,256.0 328.0,302.0 273.0,291.0 301.0,257.0 256.0,256.0 233.0,356.0 151.0,355.0 165.0,322.0 130.0,317.0 129.0,257.0 72.0,302.0 15.0,291.0 39.0,257.0" fill="#704040" opacity="0.95" />
<polygon points="189.0,29.0 222.0,94.0 222.0,107.0 208.0,115.0 173.0,115.0 157.0,104.0" fill="#dbc7b1" opacity="0.95" />
<polygon points="68.0,193.0 1.0,193.0 0.0,253.0 41.0,253.0 45.0,220.0" fill="#c09386" opacity="0.95" />
<polygon points="189.0,262.0 182.0,285.0 163.0,295.0 165.0,333.0 152.0,355.0 169.0,367.0 211.0,368.0 233.0,350.0 219.0,332.0 222.0,297.0 201.0,286.0" fill="#2c2123" opacity="0.95" />
<polygon points="131.0,129.0 134.0,191.0 162.0,190.0 163.0,170.0 180.0,163.0 178.0,150.0 190.0,135.0 205.0,150.0 203.0,163.0 221.0,171.0 221.0,190.0 252.0,189.0 249.0,128.0" fill="#73835b" opacity="0.95" />
<polygon points="166.0,168.0 162.0,218.0 184.0,228.0 215.0,223.0 222.0,214.0 220.0,171.0 214.0,166.0 203.0,173.0" fill="#06c1c1" opacity="0.95" />
<polygon points="354.0,96.0 342.0,85.0 335.0,68.0 312.0,67.0 304.0,75.0 305.0,86.0 296.0,92.0 294.0,101.0 307.0,111.0 332.0,113.0 351.0,106.0" fill="#b00619" />
<polygon points="190.0,37.0 159.0,106.0 175.0,114.0 211.0,113.0 220.0,108.0 221.0,95.0" fill="#b00619" opacity="0.95" />
<polygon points="88.0,177.0 85.0,189.0 62.0,199.0 44.0,225.0 38.0,275.0 55.0,287.0 81.0,287.0 99.0,276.0 94.0,236.0 101.0,203.0" fill="#dbc7b1" opacity="0.95" />
<polygon points="190.0,30.0 222.0,94.0 222.0,107.0 208.0,115.0 173.0,115.0 157.0,104.0" fill="#dbc7b1" opacity="0.95" />
<polygon points="131.0,231.0 132.0,254.0 190.0,253.0 190.0,242.0 156.0,238.0 139.0,228.0" fill="#89655a" />
<polygon points="65.0,194.0 0.0,194.0 0.0,253.0 40.0,253.0 45.0,220.0" fill="#c09386" opacity="0.95" />
<polygon points="131.0,130.0 135.0,191.0 162.0,189.0 163.0,170.0 180.0,163.0 178.0,150.0 190.0,135.0 205.0,150.0 203.0,163.0 221.0,171.0 222.0,190.0 252.0,189.0 249.0,128.0" fill="#73835b" opacity="0.95" />
<polygon points="189.0,262.0 183.0,283.0 163.0,295.0 165.0,333.0 152.0,355.0 169.0,367.0 211.0,368.0 233.0,350.0 219.0,332.0 222.0,297.0 200.0,284.0 198.0,266.0" fill="#2c2123" opacity="0.95" />
<polygon points="166.0,168.0 162.0,218.0 184.0,228.0 215.0,223.0 222.0,214.0 220.0,171.0 214.0,166.0 203.0,173.0" fill="#06c1c1" opacity="0.95" />
<polygon points="140.0,223.0 144.0,232.0 173.0,240.0 209.0,239.0 228.0,227.0 224.0,215.0 200.0,229.0 171.0,226.0 159.0,214.0" fill="#2c2123" />
<polygon points="190.0,38.0 159.0,106.0 175.0,114.0 211.0,113.0 220.0,108.0 221.0,95.0" fill="#b00619" opacity="0.95" />
<polygon points="15.0,285.0 22.0,295.0 50.0,301.0 84.0,299.0 102.0,287.0 99.0,278.0 82.0,288.0 58.0,289.0 36.0,275.0" fill="#2c2123" />
<polygon points="273.0,289.0 290.0,298.0 328.0,301.0 350.0,293.0 356.0,283.0 318.0,289.0 294.0,275.0 277.0,280.0" fill="#2c2123" />
<polygon points="294.0,95.0 298.0,107.0 319.0,113.0 344.0,110.0 354.0,101.0 351.0,91.0 342.0,86.0 338.0,71.0 329.0,66.0 310.0,68.0 304.0,75.0 305.0,86.0" fill="#b00619" opacity="0.95" />
<polygon points="189.0,136.0 185.0,140.0 189.0,149.0 177.0,171.0 205.0,172.0 194.0,149.0 198.0,139.0" fill="#2c2123" />
<polygon points="276.0,107.0 277.0,117.0 287.0,125.0 316.0,126.0 327.0,122.0 298.0,115.0 292.0,96.0 281.0,100.0" fill="#2c2123" />
<polygon points="131.0,231.0 133.0,254.0 190.0,253.0 188.0,242.0 156.0,238.0 138.0,228.0" fill="#89655a" opacity="0.95" />
<polygon points="323.0,37.0 314.0,49.0 320.0,64.0 306.0,72.0 294.0,101.0 307.0,111.0 332.0,113.0 351.0,106.0 354.0,96.0 326.0,64.0 332.0,49.0" fill="#b00619" opacity="0.95" />
<polygon points="140.0,223.0 144.0,232.0 173.0,240.0 209.0,239.0 228.0,227.0 224.0,216.0 200.0,229.0 171.0,226.0 158.0,214.0" fill="#2c2123" opacity="0.95" />
<polygon points="15.0,285.0 22.0,295.0 50.0,301.0 84.0,299.0 102.0,287.0 99.0,279.0 78.0,289.0 58.0,289.0 36.0,276.0" fill="#2c2123" opacity="0.95" />
<polygon points="323.0,35.0 313.0,52.0 315.0,58.0 322.0,62.0 328.0,61.0 332.0,56.0 332.0,49.0" fill="#b00619" />
<polygon points="131.0,231.0 131.0,252.0 134.0,254.0 190.0,252.0 187.0,242.0 156.0,238.0 137.0,228.0" fill="#89655a" opacity="0.95" />
<polygon points="296.0,108.0 300.0,115.0 315.0,119.0 340.0,118.0 351.0,111.0 349.0,108.0 333.0,114.0 316.0,114.0" fill="#dbc7b1" />
<polygon points="323.0,36.0 314.0,49.0 315.0,58.0 322.0,62.0 329.0,60.0 332.0,56.0 332.0,49.0" fill="#b00619" opacity="0.95" />
<polygon points="329.0,39.0 334.0,54.0 331.0,60.0 325.0,64.0 334.0,66.0 340.0,72.0 339.0,58.0" fill="#faf7f5" />
<polygon points="199.0,145.0 196.0,148.0 196.0,150.0 200.0,156.0 203.0,153.0 203.0,150.0" fill="#faf7f5" />
<polygon points="312.0,55.0 310.0,59.0 309.0,65.0 310.0,66.0 319.0,65.0 320.0,64.0 314.0,59.0" fill="#faf7f5" />
<polygon points="335.0,54.0 328.0,62.0 328.0,64.0 339.0,70.0 341.0,69.0 338.0,55.0" fill="#faf7f5" opacity="0.95" />
<polygon points="134.0,58.0 137.0,60.0 141.0,60.0 145.0,57.0 144.0,56.0 142.0,56.0 139.0,53.0 137.0,53.0" fill="#c09386" />
<polygon points="335.0,56.0 331.0,59.0 329.0,64.0 337.0,68.0 340.0,66.0 339.0,58.0" fill="#faf7f5" opacity="0.95" />
<polygon points="310.0,59.0 309.0,65.0 313.0,66.0 318.0,64.0 318.0,62.0 312.0,58.0" fill="#faf7f5" opacity="0.95" />
<polygon points="199.0,146.0 196.0,148.0 196.0,150.0 198.0,153.0 201.0,154.0 203.0,153.0 203.0,150.0 201.0,147.0" fill="#faf7f5" opacity="0.95" />
<polygon points="200.0,148.0 197.0,150.0 197.0,152.0 200.0,154.0 203.0,152.0 203.0,150.0" fill="#faf7f5" opacity="0.95" />
<polygon points="313.0,59.0 310.0,61.0 310.0,64.0 313.0,66.0 316.0,64.0 316.0,61.0" fill="#faf7f5" opacity="0.95" />
</svg>