<svg xmlns="http://www.w3.org/2000/svg" width="768" height="768" viewBox="0 0 384 384">
<rect width="384" height="384" fill="#9a625c"/>
<polygon points="383.0,64.0 321.0,65.0 321.0,130.0 360.0,139.0 353.0,181.0 324.0,189.0 321.0,172.0 318.0,192.0 257.0,192.0 257.0,255.0 383.0,254.0" fill="#c17e66" />
<polygon points="226.0,102.0 191.0,151.0 165.0,123.0 175.0,151.0 155.0,185.0 118.0,146.0 159.0,217.0 198.0,228.0 249.0,193.0 264.0,146.0" fill="#b6f3ef" />
<polygon points="192.0,0.0 192.0,46.0 204.0,62.0 319.0,61.0 314.0,45.0 293.0,23.0 254.0,0.0" fill="#c17e66" />
<polygon points="66.0,192.0 65.0,254.0 128.0,255.0 128.0,193.0" fill="#daccb1" />
<polygon points="64.0,65.0 65.0,126.0 129.0,125.0 128.0,64.0" fill="#460d1d" />
<polygon points="64.0,257.0 65.0,319.0 129.0,318.0 128.0,256.0" fill="#460d1d" />
<polygon points="255.0,65.0 257.0,126.0 320.0,125.0 319.0,64.0" fill="#460d1d" />
<polygon points="0.0,63.0 0.0,126.0 62.0,127.0 63.0,65.0" fill="#9b4945" />
<polygon points="0.0,0.0 2.0,62.0 63.0,61.0 63.0,0.0" fill="#460d1d" />
<polygon points="256.0,256.0 256.0,318.0 318.0,319.0 319.0,257.0" fill="#460d1d" />
<polygon points="254.0,192.0 196.0,230.0 130.0,192.0 130.0,254.0 185.0,257.0 168.0,318.0 130.0,321.0 131.0,383.0 190.0,383.0 191.0,330.0 217.0,325.0 199.0,257.0 254.0,254.0" fill="#460d1d" />
<polygon points="0.0,260.0 63.0,254.0 65.0,191.0 130.0,190.0 116.0,156.0 128.0,128.0 0.0,127.0 0.0,191.0 42.0,194.0 37.0,210.0 52.0,235.0 44.0,252.0" fill="#c17e66" />
<polygon points="320.0,1.0 322.0,62.0 383.0,62.0 383.0,0.0" fill="#460d1d" />
<polygon points="383.0,319.0 322.0,321.0 304.0,354.0 258.0,382.0 254.0,321.0 192.0,330.0 191.0,383.0 197.0,348.0 207.0,381.0 383.0,383.0" fill="#7b2d37" />
<polygon points="383.0,64.0 321.0,64.0 321.0,129.0 360.0,137.0 353.0,181.0 256.0,193.0 256.0,254.0 383.0,254.0" fill="#c17e66" opacity="0.95" />
<polygon points="133.0,0.0 131.0,61.0 179.0,63.0 191.0,46.0 191.0,0.0" fill="#9b4945" />
<polygon points="319.0,257.0 255.0,255.0 253.0,192.0 196.0,230.0 132.0,193.0 129.0,255.0 64.0,257.0 64.0,318.0 129.0,320.0 131.0,383.0 190.0,383.0 191.0,330.0 217.0,325.0 200.0,256.0 255.0,257.0 258.0,319.0 319.0,318.0" fill="#460d1d" opacity="0.95" />
<polygon points="2.0,259.0 0.0,318.0 50.0,323.0 61.0,341.0 67.0,383.0 63.0,257.0" fill="#9b4945" />
<polygon points="202.0,256.0 204.0,296.0 217.0,318.0 253.0,319.0 254.0,258.0" fill="#daccb1" />
<polygon points="131.0,256.0 130.0,318.0 165.0,319.0 179.0,298.0 184.0,257.0" fill="#daccb1" />
<polygon points="227.0,103.0 191.0,149.0 165.0,123.0 175.0,151.0 155.0,183.0 118.0,146.0 159.0,217.0 198.0,228.0 249.0,193.0 264.0,146.0" fill="#b6f3ef" opacity="0.95" />
<polygon points="192.0,0.0 203.0,61.0 317.0,62.0 321.0,127.0 366.0,141.0 346.0,188.0 256.0,194.0 256.0,253.0 383.0,254.0 383.0,64.0 323.0,65.0 255.0,0.0" fill="#c17e66" opacity="0.95" />
<polygon points="322.0,256.0 321.0,319.0 383.0,318.0 383.0,288.0 361.0,260.0 374.0,256.0" fill="#9b4945" />
<polygon points="129.0,4.0 86.0,26.0 69.0,45.0 64.0,62.0 128.0,62.0" fill="#d0a78a" />
<polygon points="0.0,320.0 0.0,383.0 62.0,383.0 57.0,347.0 60.0,341.0 53.0,327.0 47.0,323.0" fill="#c17e66" />
<polygon points="65.0,322.0 68.0,337.0 85.0,357.0 129.0,380.0 128.0,320.0" fill="#daccb1" />
<polygon points="319.0,258.0 256.0,255.0 252.0,193.0 196.0,230.0 133.0,195.0 128.0,255.0 64.0,258.0 64.0,317.0 128.0,320.0 131.0,383.0 190.0,383.0 191.0,331.0 217.0,325.0 201.0,256.0 255.0,258.0 259.0,319.0 319.0,317.0" fill="#460d1d" opacity="0.95" />
<polygon points="319.0,321.0 256.0,321.0 255.0,380.0 300.0,356.0 316.0,337.0" fill="#daccb1" />
<polygon points="157.0,98.0 226.0,99.0 192.0,48.0" fill="#ea0501" />
<polygon points="253.0,128.0 313.0,191.0 320.0,189.0 319.0,128.0" fill="#9b4945" />
<polygon points="0.0,0.0 0.0,60.0 64.0,64.0 64.0,125.0 129.0,125.0 129.0,65.0 63.0,62.0 63.0,0.0" fill="#460d1d" opacity="0.95" />
<polygon points="192.0,0.0 192.0,46.0 205.0,62.0 319.0,63.0 314.0,45.0 293.0,23.0 254.0,0.0" fill="#c17e66" opacity="0.95" />
<polygon points="67.0,192.0 65.0,254.0 129.0,256.0 131.0,315.0 65.0,329.0 127.0,380.0 129.0,321.0 167.0,317.0 184.0,257.0 129.0,254.0 128.0,193.0" fill="#daccb1" opacity="0.95" />
<polygon points="0.0,192.0 0.0,255.0 46.0,250.0 50.0,232.0 36.0,210.0 43.0,196.0" fill="#d0a78a" />
<polygon points="0.0,127.0 0.0,191.0 44.0,196.0 37.0,210.0 51.0,242.0 27.0,257.0 62.0,255.0 64.0,192.0 129.0,190.0 116.0,156.0 125.0,128.0" fill="#c17e66" opacity="0.95" />
<polygon points="383.0,319.0 321.0,322.0 304.0,354.0 258.0,382.0 252.0,320.0 192.0,330.0 191.0,356.0 223.0,383.0 383.0,383.0" fill="#7b2d37" opacity="0.95" />
<polygon points="228.0,118.0 252.0,151.0 229.0,185.0 207.0,150.0" fill="#b6f3ef" />
<polygon points="228.0,104.0 191.0,149.0 165.0,124.0 175.0,151.0 155.0,183.0 118.0,146.0 159.0,217.0 198.0,228.0 249.0,193.0 264.0,146.0" fill="#b6f3ef" opacity="0.95" />
<polygon points="0.0,63.0 0.0,126.0 63.0,126.0 63.0,65.0" fill="#9b4945" opacity="0.95" />
<polygon points="207.0,64.0 241.0,116.0 253.0,113.0 254.0,66.0" fill="#daccb1" />
<polygon points="131.0,0.0 131.0,61.0 180.0,62.0 191.0,47.0 191.0,0.0" fill="#9b4945" opacity="0.95" />
<polygon points="0.0,260.0 0.0,318.0 51.0,324.0 60.0,338.0 67.0,383.0 63.0,257.0" fill="#9b4945" opacity="0.95" />
<polygon points="201.0,257.0 205.0,300.0 217.0,318.0 255.0,321.0 255.0,379.0 308.0,348.0 319.0,321.0 254.0,319.0 253.0,257.0" fill="#daccb1" opacity="0.95" />
<polygon points="68.0,192.0 65.0,253.0 128.0,256.0 131.0,318.0 65.0,329.0 126.0,380.0 129.0,321.0 167.0,317.0 184.0,258.0 129.0,253.0 127.0,193.0" fill="#daccb1" opacity="0.95" />
<polygon points="0.0,127.0 0.0,191.0 43.0,197.0 37.0,210.0 52.0,235.0 45.0,257.0 62.0,254.0 65.0,192.0 129.0,189.0 116.0,156.0 124.0,128.0" fill="#c17e66" opacity="0.95" />
<polygon points="383.0,383.0 383.0,319.0 323.0,321.0 304.0,354.0 258.0,382.0 253.0,321.0 192.0,331.0 209.0,380.0" fill="#7b2d37" opacity="0.95" />
<polygon points="0.0,320.0 0.0,383.0 62.0,383.0 59.0,338.0 47.0,323.0" fill="#c17e66" opacity="0.95" />
<polygon points="64.0,49.0 93.0,19.0 129.0,0.0 64.0,0.0" fill="#7b2d37" />
<polygon points="255.0,0.0 293.0,21.0 320.0,49.0 320.0,0.0" fill="#7b2d37" />
<polygon points="0.0,63.0 0.0,126.0 62.0,126.0 63.0,66.0" fill="#9b4945" opacity="0.95" />
<polygon points="265.0,142.0 266.0,157.0 259.0,168.0 256.0,190.0 310.0,190.0 311.0,187.0" fill="#7b2d37" />
<polygon points="322.0,256.0 321.0,319.0 383.0,318.0 383.0,288.0 361.0,261.0 362.0,256.0" fill="#9b4945" opacity="0.95" />
<polygon points="129.0,4.0 86.0,26.0 69.0,45.0 64.0,62.0 128.0,62.0" fill="#d0a78a" opacity="0.95" />
<polygon points="324.0,130.0 323.0,187.0 347.0,187.0 352.0,181.0 350.0,172.0 355.0,165.0 355.0,144.0 359.0,139.0 349.0,131.0" fill="#d0a78a" />
<polygon points="201.0,258.0 205.0,300.0 216.0,316.0 255.0,322.0 256.0,379.0 308.0,348.0 318.0,321.0 254.0,318.0 253.0,257.0" fill="#daccb1" opacity="0.95" />
<polygon points="66.0,339.0 68.0,383.0 129.0,383.0 91.0,363.0" fill="#7b2d37" />
<polygon points="0.0,192.0 0.0,255.0 46.0,250.0 50.0,232.0 36.0,210.0 43.0,196.0" fill="#d0a78a" opacity="0.95" />
<polygon points="224.0,95.0 191.0,48.0 158.0,98.0 222.0,99.0" fill="#ea0501" opacity="0.95" />
<polygon points="228.0,120.0 251.0,149.0 229.0,183.0 208.0,152.0" fill="#b6f3ef" opacity="0.95" />
<polygon points="129.0,5.0 118.0,6.0 86.0,26.0 69.0,45.0 64.0,61.0 128.0,62.0" fill="#d0a78a" opacity="0.95" />
<polygon points="0.0,192.0 0.0,255.0 46.0,250.0 50.0,232.0 36.0,210.0 42.0,197.0" fill="#d0a78a" opacity="0.95" />
<polygon points="159.0,95.0 162.0,99.0 224.0,97.0 191.0,48.0" fill="#ea0501" opacity="0.95" />
<polygon points="228.0,120.0 251.0,149.0 229.0,182.0 208.0,152.0" fill="#b6f3ef" opacity="0.95" />
<polygon points="64.0,45.0 93.0,19.0 128.0,0.0 64.0,0.0" fill="#7b2d37" opacity="0.95" />
<polygon points="158.0,101.0 150.0,105.0 120.0,144.0 133.0,147.0 154.0,118.0 162.0,128.0 171.0,120.0" fill="#deeadf" />
<polygon points="256.0,0.0 293.0,21.0 320.0,46.0 319.0,0.0" fill="#7b2d37" opacity="0.95" />
<polygon points="265.0,145.0 266.0,157.0 259.0,168.0 256.0,190.0 311.0,189.0 270.0,145.0" fill="#7b2d37" opacity="0.95" />
<polygon points="325.0,130.0 323.0,187.0 346.0,187.0 352.0,181.0 350.0,172.0 355.0,165.0 358.0,137.0 349.0,131.0" fill="#d0a78a" opacity="0.95" />
<polygon points="327.0,130.0 323.0,137.0 323.0,186.0 346.0,187.0 352.0,181.0 350.0,172.0 355.0,165.0 358.0,137.0 348.0,131.0" fill="#d0a78a" opacity="0.95" />
<polygon points="159.0,102.0 150.0,105.0 121.0,142.0 132.0,146.0 152.0,121.0 162.0,125.0 170.0,120.0" fill="#deeadf" opacity="0.95" />
<polygon points="199.0,159.0 201.0,161.0 191.0,175.0 182.0,161.0 184.0,159.0" fill="#b6f3ef" />
<polygon points="162.0,106.0 153.0,102.0 121.0,141.0 132.0,146.0 152.0,121.0 161.0,125.0 169.0,117.0" fill="#deeadf" opacity="0.95" />
<polygon points="183.0,161.0 186.0,159.0 197.0,159.0 200.0,161.0 200.0,163.0 195.0,171.0 191.0,173.0 187.0,170.0" fill="#b6f3ef" opacity="0.95" />
<polygon points="195.0,159.0 199.0,162.0 197.0,168.0 191.0,173.0 187.0,170.0 184.0,165.0 184.0,162.0 188.0,159.0" fill="#b6f3ef" opacity="0.95" />
<polygon points="244.0,114.0 243.0,115.0 243.0,118.0 245.0,120.0 248.0,120.0 253.0,125.0 254.0,124.0 254.0,115.0 253.0,114.0" fill="#d0a78a" />
</svg>