<svg xmlns="http://www.w3.org/2000/svg" width="768" height="768" viewBox="0 0 384 384">
<rect width="384" height="384" fill="#8f634c"/>
<polygon points="0.0,0.0 2.0,383.0 173.0,383.0 184.0,247.0 125.0,163.0 192.0,103.0 264.0,158.0 257.0,223.0 200.0,248.0 213.0,383.0 383.0,383.0 383.0,0.0" fill="#965f4d" />
<polygon points="0.0,0.0 0.0,383.0 173.0,383.0 184.0,246.0 125.0,163.0 192.0,103.0 264.0,158.0 257.0,223.0 200.0,247.0 213.0,383.0 383.0,383.0 383.0,0.0" fill="#965f4d" opacity="0.95" />
<polygon points="0.0,0.0 0.0,383.0 173.0,383.0 184.0,247.0 125.0,163.0 192.0,103.0 255.0,129.0 267.0,192.0 200.0,248.0 213.0,383.0 383.0,383.0 383.0,0.0" fill="#965f4d" opacity="0.95" />
<polygon points="207.0,106.0 155.0,120.0 128.0,162.0 145.0,204.0 184.0,211.0 188.0,239.0 209.0,209.0 244.0,202.0 262.0,169.0 249.0,130.0" fill="#4d9f48" />
<polygon points="207.0,106.0 155.0,120.0 128.0,162.0 137.0,196.0 182.0,209.0 189.0,239.0 208.0,210.0 240.0,206.0 262.0,169.0 243.0,123.0" fill="#4d9f48" opacity="0.95" />
<polygon points="207.0,106.0 155.0,120.0 128.0,162.0 137.0,196.0 182.0,209.0 190.0,239.0 209.0,210.0 244.0,202.0 262.0,169.0 249.0,130.0" fill="#4d9f48" opacity="0.95" />
<polygon points="187.0,241.0 186.0,332.0 181.0,349.0 174.0,352.0 175.0,383.0 212.0,383.0 212.0,353.0 205.0,349.0 205.0,335.0 198.0,332.0 198.0,242.0" fill="#0f0e20" />
<polygon points="253.0,200.0 231.0,211.0 210.0,211.0 203.0,235.0 238.0,227.0 247.0,217.0" fill="#0f0e20" />
<polygon points="137.0,201.0 144.0,218.0 154.0,228.0 186.0,236.0 180.0,209.0 156.0,212.0" fill="#0f0e20" />
<polygon points="188.0,241.0 186.0,332.0 181.0,349.0 174.0,352.0 175.0,383.0 212.0,383.0 212.0,353.0 198.0,332.0 198.0,242.0" fill="#0f0e20" opacity="0.95" />
<polygon points="263.0,186.0 238.0,228.0 205.0,236.0 199.0,245.0 246.0,234.0 263.0,208.0" fill="#573233" />
<polygon points="189.0,241.0 186.0,332.0 174.0,353.0 175.0,383.0 212.0,383.0 212.0,354.0 198.0,331.0 198.0,243.0" fill="#0f0e20" opacity="0.95" />
<polygon points="128.0,186.0 127.0,203.0 138.0,226.0 156.0,240.0 183.0,245.0 184.0,237.0 160.0,232.0 146.0,222.0" fill="#573233" />
<polygon points="138.0,204.0 154.0,228.0 186.0,235.0 181.0,210.0 162.0,213.0" fill="#0f0e20" opacity="0.95" />
<polygon points="252.0,201.0 231.0,211.0 209.0,212.0 203.0,234.0 238.0,227.0 247.0,217.0" fill="#0f0e20" opacity="0.95" />
<polygon points="263.0,186.0 238.0,228.0 208.0,235.0 199.0,245.0 246.0,234.0 263.0,208.0" fill="#573233" opacity="0.95" />
<polygon points="139.0,206.0 154.0,228.0 186.0,234.0 181.0,211.0 162.0,213.0 142.0,204.0" fill="#0f0e20" opacity="0.95" />
<polygon points="251.0,204.0 248.0,202.0 227.0,212.0 210.0,212.0 203.0,233.0 235.0,229.0 247.0,217.0" fill="#0f0e20" opacity="0.95" />
<polygon points="126.0,195.0 134.0,220.0 147.0,235.0 163.0,242.0 185.0,243.0 180.0,235.0 150.0,226.0 136.0,197.0" fill="#573233" opacity="0.95" />
<polygon points="297.0,128.0 299.0,126.0 332.0,126.0 334.0,128.0 332.0,130.0 299.0,130.0" fill="#965f4d" />
<polygon points="150.0,176.0 155.0,173.0 173.0,192.0 171.0,194.0 167.0,192.0 158.0,183.0 153.0,181.0" fill="#4d9f48" />
<polygon points="264.0,195.0 253.0,195.0 250.0,213.0 238.0,228.0 208.0,235.0 203.0,242.0 231.0,241.0 246.0,234.0 261.0,213.0" fill="#573233" opacity="0.95" />
<polygon points="126.0,195.0 134.0,220.0 147.0,235.0 163.0,242.0 185.0,242.0 180.0,235.0 150.0,226.0 136.0,197.0" fill="#573233" opacity="0.95" />
<polygon points="192.0,137.0 197.0,137.0 199.0,139.0 198.0,141.0 199.0,156.0 197.0,158.0 194.0,155.0 193.0,147.0 190.0,139.0" fill="#4d9f48" />
<polygon points="233.0,174.0 235.0,176.0 232.0,184.0 230.0,186.0 227.0,185.0 225.0,188.0 226.0,189.0 219.0,195.0 217.0,192.0 225.0,181.0" fill="#4d9f48" />
<polygon points="116.0,128.0 118.0,126.0 136.0,126.0 138.0,128.0 136.0,130.0 118.0,130.0" fill="#965f4d" />
<polygon points="258.0,128.0 260.0,126.0 261.0,127.0 262.0,126.0 288.0,126.0 290.0,128.0 288.0,130.0 262.0,130.0 261.0,129.0 260.0,130.0" fill="#965f4d" />
<polygon points="31.0,128.0 33.0,126.0 46.0,127.0 56.0,126.0 58.0,128.0 56.0,130.0 54.0,129.0 33.0,130.0" fill="#965f4d" />
<polygon points="6.0,128.0 8.0,126.0 9.0,127.0 11.0,126.0 28.0,126.0 30.0,128.0 28.0,130.0 11.0,130.0 10.0,129.0 8.0,130.0" fill="#965f4d" />
<polygon points="69.0,128.0 71.0,126.0 81.0,126.0 83.0,128.0 81.0,130.0 71.0,130.0" fill="#965f4d" />
<polygon points="194.0,137.0 199.0,139.0 199.0,151.0 196.0,153.0 193.0,151.0 193.0,147.0 191.0,143.0 191.0,139.0" fill="#4d9f48" opacity="0.95" />
<polygon points="90.0,128.0 92.0,126.0 100.0,126.0 102.0,128.0 100.0,130.0 92.0,130.0" fill="#965f4d" />
<polygon points="150.0,176.0 154.0,173.0 160.0,178.0 160.0,181.0 157.0,183.0 153.0,181.0 150.0,178.0" fill="#4d9f48" opacity="0.95" />
<polygon points="229.0,178.0 232.0,180.0 232.0,184.0 227.0,187.0 224.0,185.0 224.0,183.0 225.0,181.0" fill="#4d9f48" opacity="0.95" />
<polygon points="155.0,174.0 151.0,177.0 155.0,181.0 157.0,181.0 158.0,180.0 158.0,178.0" fill="#0f0e20" />
<polygon points="168.0,154.0 170.0,156.0 170.0,158.0 172.0,160.0 172.0,162.0 170.0,164.0 168.0,162.0 168.0,160.0 166.0,157.0 166.0,156.0" fill="#4d9f48" />
</svg>