<svg xmlns="http://www.w3.org/2000/svg" width="768" height="768" viewBox="0 0 384 384">
<rect width="384" height="384" fill="#8d6d5d"/>
<polygon points="114.0,110.0 144.0,216.0 259.0,226.0 358.0,124.0 318.0,148.0 260.0,88.0 213.0,110.0 174.0,76.0" fill="#0f0b0a" />
<polygon points="180.0,222.0 167.0,229.0 153.0,383.0 242.0,383.0 230.0,229.0" fill="#2a4f23" />
<polygon points="0.0,0.0 0.0,54.0 22.0,64.0 0.0,69.0 0.0,125.0 28.0,128.0 0.0,132.0 0.0,189.0 127.0,191.0 110.0,128.0 128.0,71.0 92.0,64.0 127.0,62.0 176.0,8.0" fill="#773f2a" />
<polygon points="2.0,319.0 158.0,318.0 162.0,258.0 3.0,258.0" fill="#773f2a" />
<polygon points="234.0,259.0 239.0,319.0 383.0,319.0 383.0,258.0" fill="#773f2a" />
<polygon points="0.0,327.0 0.0,383.0 152.0,383.0 156.0,325.0" fill="#aa7c68" />
<polygon points="136.0,60.0 139.0,85.0 175.0,75.0 193.0,106.0 255.0,84.0 318.0,138.0 352.0,97.0 341.0,56.0 247.0,11.0 181.0,25.0" fill="#feb2be" />
<polygon points="0.0,196.0 2.0,255.0 164.0,254.0 166.0,229.0 147.0,221.0 130.0,194.0" fill="#aa7c68" />
<polygon points="238.0,326.0 243.0,383.0 383.0,383.0 383.0,325.0" fill="#aa7c68" />
<polygon points="231.0,230.0 234.0,255.0 383.0,255.0 383.0,194.0 287.0,194.0 258.0,228.0" fill="#aa7c68" />
<polygon points="0.0,0.0 20.0,61.0 0.0,71.0 0.0,121.0 24.0,126.0 0.0,132.0 0.0,189.0 127.0,190.0 111.0,104.0 129.0,76.0 114.0,63.0 176.0,8.0" fill="#773f2a" opacity="0.95" />
<polygon points="269.0,9.0 368.0,64.0 351.0,74.0 364.0,128.0 290.0,190.0 383.0,191.0 380.0,10.0" fill="#773f2a" />
<polygon points="0.0,0.0 0.0,43.0 20.0,61.0 0.0,71.0 0.0,189.0 126.0,190.0 111.0,104.0 133.0,49.0 176.0,8.0" fill="#773f2a" opacity="0.95" />
<polygon points="118.0,108.0 147.0,214.0 257.0,223.0 355.0,122.0 315.0,142.0 256.0,90.0 217.0,116.0 173.0,80.0" fill="#9dc6ca" opacity="0.95" />
<polygon points="180.0,222.0 167.0,228.0 153.0,383.0 242.0,383.0 230.0,229.0" fill="#2a4f23" opacity="0.95" />
<polygon points="0.0,260.0 3.0,319.0 158.0,318.0 161.0,258.0" fill="#773f2a" opacity="0.95" />
<polygon points="234.0,259.0 240.0,319.0 383.0,319.0 383.0,258.0" fill="#773f2a" opacity="0.95" />
<polygon points="118.0,108.0 132.0,145.0 154.0,133.0 126.0,167.0 147.0,214.0 175.0,219.0 176.0,195.0 200.0,226.0 221.0,198.0 257.0,223.0 355.0,122.0 315.0,142.0 256.0,90.0 224.0,122.0 161.0,115.0 173.0,80.0" fill="#9dc6ca" opacity="0.95" />
<polygon points="0.0,327.0 0.0,383.0 152.0,383.0 155.0,325.0" fill="#aa7c68" opacity="0.95" />
<polygon points="136.0,60.0 138.0,84.0 175.0,75.0 193.0,106.0 255.0,84.0 319.0,138.0 352.0,97.0 341.0,56.0 247.0,11.0 182.0,25.0" fill="#feb2be" opacity="0.95" />
<polygon points="0.0,196.0 3.0,255.0 164.0,254.0 165.0,229.0 147.0,221.0 129.0,194.0" fill="#aa7c68" opacity="0.95" />
<polygon points="238.0,326.0 243.0,383.0 383.0,383.0 383.0,325.0" fill="#aa7c68" opacity="0.95" />
<polygon points="180.0,222.0 167.0,229.0 153.0,383.0 242.0,383.0 230.0,229.0" fill="#2a4f23" opacity="0.95" />
<polygon points="0.0,261.0 4.0,319.0 158.0,317.0 160.0,258.0" fill="#773f2a" opacity="0.95" />
<polygon points="161.0,113.0 184.0,104.0 221.0,117.0 237.0,155.0 223.0,183.0 200.0,163.0 181.0,171.0 155.0,146.0 153.0,126.0" fill="#0f0b0a" />
<polygon points="231.0,230.0 235.0,255.0 383.0,255.0 383.0,194.0 292.0,193.0 258.0,228.0" fill="#aa7c68" opacity="0.95" />
<polygon points="234.0,260.0 241.0,319.0 383.0,319.0 383.0,258.0" fill="#773f2a" opacity="0.95" />
<polygon points="228.0,91.0 255.0,88.0 277.0,114.0 309.0,128.0 314.0,147.0 303.0,180.0 287.0,187.0 266.0,159.0 275.0,141.0 262.0,155.0 238.0,152.0 220.0,111.0" fill="#0f0b0a" />
<polygon points="0.0,327.0 0.0,383.0 152.0,383.0 154.0,325.0" fill="#aa7c68" opacity="0.95" />
<polygon points="162.0,114.0 155.0,124.0 156.0,145.0 181.0,169.0 200.0,161.0 223.0,181.0 236.0,156.0 221.0,119.0 185.0,106.0" fill="#9dc6ca" />
<polygon points="246.0,155.0 262.0,158.0 283.0,184.0 279.0,201.0 251.0,227.0 221.0,220.0 219.0,194.0 232.0,166.0" fill="#0f0b0a" />
<polygon points="136.0,60.0 139.0,83.0 175.0,75.0 193.0,106.0 255.0,84.0 319.0,138.0 352.0,97.0 341.0,56.0 247.0,11.0 182.0,25.0" fill="#feb2be" opacity="0.95" />
<polygon points="0.0,196.0 4.0,255.0 164.0,253.0 165.0,229.0 147.0,221.0 128.0,194.0" fill="#aa7c68" opacity="0.95" />
<polygon points="229.0,92.0 221.0,111.0 239.0,151.0 263.0,153.0 275.0,139.0 267.0,158.0 288.0,185.0 302.0,179.0 312.0,149.0 304.0,124.0 278.0,116.0 256.0,90.0" fill="#9dc6ca" />
<polygon points="148.0,145.0 178.0,173.0 171.0,191.0 178.0,217.0 168.0,224.0 146.0,215.0 125.0,176.0 130.0,155.0" fill="#0f0b0a" />
<polygon points="261.0,159.0 244.0,157.0 232.0,168.0 230.0,182.0 221.0,193.0 224.0,221.0 255.0,224.0 280.0,197.0 281.0,183.0" fill="#9dc6ca" />
<polygon points="149.0,146.0 131.0,156.0 126.0,174.0 147.0,214.0 169.0,222.0 177.0,217.0 170.0,194.0 176.0,172.0" fill="#9dc6ca" />
<polygon points="198.0,166.0 219.0,184.0 219.0,219.0 206.0,228.0 181.0,215.0 174.0,192.0 180.0,176.0" fill="#0f0b0a" />
<polygon points="176.0,80.0 182.0,101.0 161.0,110.0 151.0,123.0 150.0,140.0 133.0,148.0 117.0,123.0 120.0,99.0 162.0,79.0" fill="#0f0b0a" />
<polygon points="197.0,168.0 181.0,177.0 176.0,193.0 183.0,216.0 208.0,226.0 217.0,220.0 217.0,182.0" fill="#9dc6ca" />
<polygon points="175.0,81.0 132.0,91.0 121.0,100.0 118.0,121.0 133.0,146.0 148.0,140.0 150.0,122.0 159.0,110.0 180.0,101.0" fill="#9dc6ca" />
<polygon points="129.0,62.0 179.0,22.0 237.0,7.0 362.0,60.0 313.0,20.0 268.0,16.0 286.0,0.0 162.0,0.0 174.0,17.0" fill="#42221b" />
<polygon points="138.0,44.0 245.0,7.0 361.0,61.0 310.0,22.0 267.0,15.0 285.0,0.0 163.0,0.0 174.0,17.0" fill="#42221b" opacity="0.95" />
<polygon points="0.0,320.0 0.0,325.0 157.0,323.0" fill="#fdfdfc" />
<polygon points="350.0,105.0 345.0,118.0 335.0,123.0 329.0,133.0 317.0,141.0 318.0,146.0 334.0,147.0 351.0,131.0 355.0,114.0" fill="#9dc6ca" />
<polygon points="152.0,37.0 217.0,9.0 245.0,7.0 265.0,20.0 268.0,9.0 286.0,2.0 168.0,0.0 175.0,15.0" fill="#42221b" opacity="0.95" />
<polygon points="170.0,194.0 176.0,175.0 173.0,160.0 182.0,169.0 199.0,161.0 217.0,173.0 214.0,177.0 197.0,168.0 184.0,174.0 176.0,194.0" fill="#9dc6ca" opacity="0.95" />
<polygon points="298.0,0.0 307.0,7.0 310.0,2.0 316.0,8.0 335.0,1.0 348.0,5.0 352.0,0.0" fill="#42221b" />
<polygon points="130.0,65.0 126.0,67.0 129.0,70.0 130.0,83.0 117.0,94.0 112.0,104.0 113.0,110.0 117.0,98.0 134.0,85.0" fill="#42221b" />
<polygon points="323.0,36.0 335.0,51.0 344.0,54.0 350.0,61.0 361.0,61.0 356.0,48.0 338.0,37.0 327.0,34.0" fill="#42221b" opacity="0.95" />
<polygon points="361.0,0.0 368.0,5.0 379.0,7.0 381.0,13.0 375.0,17.0 378.0,27.0 374.0,29.0 377.0,31.0 383.0,28.0 383.0,20.0 380.0,18.0 383.0,15.0 383.0,0.0" fill="#42221b" />
<polygon points="283.0,19.0 298.0,31.0 312.0,35.0 315.0,33.0 315.0,28.0 308.0,22.0 286.0,17.0" fill="#42221b" opacity="0.95" />
<polygon points="299.0,0.0 317.0,8.0 337.0,0.0 346.0,2.0 346.0,0.0" fill="#42221b" opacity="0.95" />
<polygon points="4.0,55.0 3.0,59.0 6.0,62.0 9.0,60.0 12.0,60.0 15.0,63.0 17.0,62.0 16.0,59.0 13.0,59.0 7.0,53.0" fill="#42221b" />
<polygon points="218.0,11.0 217.0,10.0 210.0,13.0 202.0,22.0 197.0,22.0 202.0,25.0 211.0,15.0" fill="#0f0b0a" />
<polygon points="354.0,96.0 350.0,103.0 353.0,106.0 357.0,115.0 358.0,111.0 353.0,103.0 355.0,97.0" fill="#0f0b0a" />
<polygon points="347.0,76.0 343.0,79.0 350.0,85.0 354.0,93.0 355.0,92.0 354.0,88.0 348.0,81.0" fill="#0f0b0a" />
</svg>