<svg xmlns="http://www.w3.org/2000/svg" width="768" height="768" viewBox="0 0 384 384">
<rect width="384" height="384" fill="#945f45"/>
<polygon points="0.0,0.0 2.0,127.0 130.0,126.0 131.0,0.0" fill="#954c3c" />
<polygon points="383.0,0.0 254.0,0.0 235.0,383.0 254.0,383.0 255.0,320.0 383.0,320.0 383.0,257.0 253.0,255.0 255.0,191.0 383.0,191.0" fill="#954c3c" />
<polygon points="0.0,260.0 0.0,383.0 131.0,383.0 130.0,258.0" fill="#954c3c" />
<polygon points="2.0,129.0 0.0,253.0 133.0,253.0 132.0,383.0 152.0,383.0 147.0,208.0 129.0,192.0 130.0,130.0" fill="#c9784c" />
<polygon points="383.0,0.0 254.0,0.0 236.0,383.0 254.0,383.0 256.0,320.0 383.0,320.0 383.0,257.0 254.0,255.0 257.0,191.0 383.0,191.0" fill="#954c3c" opacity="0.95" />
<polygon points="133.0,0.0 133.0,89.0 138.0,74.0 179.0,127.0 204.0,127.0 243.0,75.0 253.0,110.0 253.0,0.0" fill="#c9784c" />
<polygon points="255.0,195.0 256.0,256.0 383.0,253.0 383.0,195.0" fill="#c9784c" />
<polygon points="0.0,0.0 1.0,126.0 130.0,126.0 131.0,0.0" fill="#954c3c" opacity="0.95" />
<polygon points="254.0,323.0 255.0,383.0 383.0,383.0 383.0,322.0" fill="#c9784c" />
<polygon points="0.0,259.0 0.0,383.0 131.0,383.0 131.0,259.0" fill="#954c3c" opacity="0.95" />
<polygon points="383.0,0.0 254.0,0.0 236.0,383.0 254.0,383.0 257.0,320.0 383.0,320.0 383.0,257.0 254.0,254.0 258.0,191.0 383.0,191.0" fill="#954c3c" opacity="0.95" />
<polygon points="1.0,130.0 0.0,253.0 134.0,254.0 132.0,383.0 152.0,383.0 147.0,208.0 129.0,193.0 130.0,130.0" fill="#c9784c" opacity="0.95" />
<polygon points="0.0,0.0 0.0,125.0 130.0,125.0 131.0,0.0" fill="#954c3c" opacity="0.95" />
<polygon points="0.0,259.0 0.0,383.0 131.0,383.0 130.0,259.0" fill="#954c3c" opacity="0.95" />
<polygon points="141.0,80.0 164.0,219.0 192.0,229.0 192.0,152.0" fill="#4aab89" />
<polygon points="133.0,0.0 132.0,78.0 142.0,78.0 178.0,126.0 205.0,126.0 243.0,77.0 253.0,96.0 253.0,0.0" fill="#c9784c" opacity="0.95" />
<polygon points="0.0,131.0 0.0,253.0 132.0,255.0 132.0,383.0 152.0,383.0 147.0,208.0 129.0,193.0 130.0,131.0" fill="#c9784c" opacity="0.95" />
<polygon points="256.0,194.0 257.0,255.0 383.0,253.0 383.0,195.0" fill="#c9784c" opacity="0.95" />
<polygon points="254.0,323.0 255.0,383.0 383.0,383.0 383.0,322.0" fill="#c9784c" opacity="0.95" />
<polygon points="133.0,0.0 132.0,74.0 179.0,126.0 205.0,126.0 240.0,81.0 253.0,86.0 253.0,0.0" fill="#c9784c" opacity="0.95" />
<polygon points="246.0,87.0 222.0,134.0 217.0,202.0 205.0,227.0 236.0,209.0 253.0,183.0" fill="#4aab89" />
<polygon points="235.0,212.0 206.0,228.0 215.0,236.0 211.0,312.0 219.0,383.0 234.0,383.0 239.0,366.0" fill="#333727" />
<polygon points="243.0,77.0 193.0,153.0 195.0,229.0 216.0,202.0 219.0,142.0" fill="#80cbaa" />
<polygon points="148.0,210.0 153.0,383.0 168.0,383.0 174.0,226.0 167.0,224.0 164.0,280.0 162.0,220.0" fill="#7b752e" />
<polygon points="138.0,77.0 132.0,179.0 142.0,201.0 162.0,218.0 158.0,165.0" fill="#80cbaa" />
<polygon points="143.0,85.0 163.0,216.0 190.0,229.0 192.0,152.0" fill="#4aab89" opacity="0.95" />
<polygon points="185.0,229.0 174.0,383.0 203.0,383.0 195.0,343.0 194.0,231.0" fill="#333727" />
<polygon points="245.0,89.0 222.0,134.0 208.0,226.0 236.0,209.0 253.0,183.0" fill="#4aab89" opacity="0.95" />
<polygon points="234.0,212.0 208.0,227.0 215.0,236.0 211.0,312.0 219.0,383.0 235.0,383.0 239.0,366.0" fill="#333727" opacity="0.95" />
<polygon points="145.0,88.0 163.0,216.0 189.0,229.0 192.0,152.0" fill="#4aab89" opacity="0.95" />
<polygon points="178.0,227.0 171.0,231.0 169.0,383.0 181.0,329.0 183.0,230.0" fill="#67542c" />
<polygon points="243.0,79.0 193.0,153.0 196.0,229.0 216.0,202.0 219.0,142.0" fill="#80cbaa" opacity="0.95" />
<polygon points="204.0,230.0 203.0,382.0 218.0,383.0 210.0,312.0 214.0,236.0" fill="#67542c" />
<polygon points="234.0,213.0 209.0,227.0 219.0,383.0 235.0,383.0 239.0,366.0" fill="#333727" opacity="0.95" />
<polygon points="245.0,90.0 222.0,134.0 210.0,225.0 236.0,209.0 253.0,183.0" fill="#4aab89" opacity="0.95" />
<polygon points="138.0,82.0 132.0,179.0 142.0,201.0 160.0,217.0 158.0,165.0" fill="#80cbaa" opacity="0.95" />
<polygon points="149.0,211.0 147.0,351.0 153.0,383.0 167.0,383.0 172.0,298.0 162.0,286.0 171.0,281.0 171.0,241.0 162.0,231.0 173.0,225.0" fill="#7b752e" opacity="0.95" />
<polygon points="186.0,229.0 174.0,383.0 202.0,383.0 195.0,343.0 193.0,231.0" fill="#333727" opacity="0.95" />
<polygon points="241.0,83.0 193.0,153.0 197.0,229.0 216.0,202.0 219.0,142.0" fill="#80cbaa" opacity="0.95" />
<polygon points="138.0,88.0 132.0,179.0 158.0,216.0 158.0,165.0" fill="#80cbaa" opacity="0.95" />
<polygon points="149.0,212.0 147.0,351.0 153.0,383.0 167.0,383.0 172.0,298.0 162.0,289.0 162.0,220.0" fill="#7b752e" opacity="0.95" />
<polygon points="186.0,229.0 174.0,383.0 202.0,383.0 195.0,343.0 193.0,232.0" fill="#333727" opacity="0.95" />
<polygon points="178.0,227.0 171.0,231.0 168.0,383.0 173.0,383.0 181.0,329.0" fill="#67542c" opacity="0.95" />
<polygon points="205.0,230.0 203.0,383.0 218.0,383.0 210.0,312.0 214.0,236.0" fill="#67542c" opacity="0.95" />
<polygon points="178.0,227.0 171.0,231.0 171.0,380.0 181.0,329.0" fill="#67542c" opacity="0.95" />
<polygon points="182.0,129.0 193.0,150.0 203.0,130.0" fill="#954c3c" />
<polygon points="206.0,230.0 203.0,383.0 218.0,383.0 210.0,312.0 214.0,236.0" fill="#67542c" opacity="0.95" />
<polygon points="196.0,232.0 197.0,311.0 198.0,288.0 203.0,286.0 199.0,283.0 199.0,240.0" fill="#7b752e" />
<polygon points="198.0,324.0 197.0,352.0 203.0,379.0 204.0,345.0 198.0,338.0" fill="#7b752e" />
<polygon points="165.0,221.0 163.0,222.0 163.0,253.0 164.0,254.0 165.0,253.0 165.0,225.0 166.0,224.0" fill="#c1c4b0" />
<polygon points="199.0,341.0 197.0,342.0 197.0,352.0 200.0,371.0 202.0,372.0 204.0,371.0 204.0,345.0" fill="#7b752e" opacity="0.95" />
<polygon points="197.0,239.0 195.0,240.0 195.0,269.0 197.0,270.0 199.0,269.0 199.0,240.0" fill="#7b752e" opacity="0.95" />
<polygon points="164.0,283.0 167.0,286.0 167.0,290.0 164.0,293.0 162.0,291.0 162.0,285.0" fill="#7b752e" />
<polygon points="164.0,259.0 163.0,260.0 163.0,275.0 164.0,276.0 165.0,275.0 165.0,260.0" fill="#c1c4b0" />
<polygon points="200.0,341.0 197.0,343.0 197.0,352.0 198.0,353.0 198.0,360.0 201.0,362.0 204.0,360.0 204.0,345.0" fill="#7b752e" opacity="0.95" />
<polygon points="200.0,291.0 199.0,292.0 200.0,294.0 199.0,295.0 199.0,307.0 200.0,308.0 201.0,307.0 201.0,295.0 200.0,294.0 201.0,292.0" fill="#c1c4b0" />
<polygon points="133.0,187.0 132.0,188.0 132.0,191.0 131.0,192.0 132.0,194.0 135.0,196.0 136.0,195.0 136.0,193.0" fill="#dfa47a" />
<polygon points="201.0,324.0 200.0,325.0 200.0,333.0 201.0,334.0 202.0,333.0 202.0,325.0" fill="#c1c4b0" />
</svg>