<svg xmlns="http://www.w3.org/2000/svg" width="768" height="768" viewBox="0 0 384 384">
<rect width="384" height="384" fill="#805054"/>
<polygon points="158.0,160.0 0.0,155.0 7.0,318.0 159.0,319.0 173.0,217.0 151.0,201.0" fill="#735852" />
<polygon points="263.0,164.0 236.0,383.0 383.0,383.0 382.0,330.0 303.0,326.0 288.0,349.0 241.0,324.0 383.0,319.0 383.0,190.0" fill="#735852" />
<polygon points="159.0,161.0 0.0,157.0 0.0,383.0 141.0,367.0 171.0,291.0" fill="#735852" opacity="0.95" />
<polygon points="159.0,161.0 0.0,156.0 7.0,318.0 162.0,315.0 173.0,228.0 151.0,201.0" fill="#735852" opacity="0.95" />
<polygon points="246.0,223.0 175.0,216.0 140.0,382.0 83.0,383.0 235.0,383.0" fill="#373a34" />
<polygon points="87.0,77.0 96.0,110.0 244.0,105.0 331.0,125.0 344.0,98.0 339.0,74.0 304.0,55.0 328.0,60.0 328.0,43.0 269.0,0.0 160.0,6.0 116.0,32.0" fill="#ec0c36" />
<polygon points="261.0,165.0 236.0,383.0 383.0,383.0 382.0,330.0 287.0,348.0 241.0,324.0 383.0,319.0 383.0,189.0" fill="#735852" opacity="0.95" />
<polygon points="277.0,0.0 330.0,35.0 345.0,102.0 331.0,126.0 250.0,108.0 255.0,165.0 383.0,189.0 383.0,0.0" fill="#373a34" />
<polygon points="262.0,165.0 236.0,383.0 253.0,368.0 383.0,383.0 383.0,331.0 366.0,324.0 383.0,319.0 383.0,189.0" fill="#735852" opacity="0.95" />
<polygon points="3.0,0.0 35.0,12.0 0.0,36.0 3.0,151.0 163.0,164.0 170.0,130.0 116.0,120.0 176.0,107.0 92.0,109.0 94.0,54.0 61.0,27.0 174.0,0.0" fill="#373a34" />
<polygon points="87.0,77.0 96.0,110.0 244.0,105.0 330.0,125.0 344.0,98.0 339.0,73.0 306.0,57.0 328.0,43.0 271.0,0.0 163.0,5.0 116.0,32.0" fill="#ec0c36" opacity="0.95" />
<polygon points="160.0,326.0 2.0,326.0 0.0,383.0 82.0,383.0 91.0,369.0 110.0,382.0 136.0,379.0" fill="#735852" />
<polygon points="245.0,222.0 174.0,217.0 154.0,361.0 140.0,381.0 83.0,383.0 235.0,383.0" fill="#373a34" opacity="0.95" />
<polygon points="87.0,77.0 96.0,110.0 244.0,105.0 330.0,125.0 344.0,98.0 339.0,74.0 306.0,57.0 328.0,43.0 275.0,0.0 173.0,0.0 116.0,32.0" fill="#ec0c36" opacity="0.95" />
<polygon points="241.0,223.0 173.0,219.0 154.0,360.0 83.0,383.0 235.0,383.0 226.0,281.0" fill="#373a34" opacity="0.95" />
<polygon points="4.0,0.0 35.0,17.0 0.0,36.0 0.0,148.0 164.0,161.0 170.0,131.0 116.0,120.0 176.0,107.0 92.0,109.0 62.0,24.0 168.0,0.0" fill="#373a34" opacity="0.95" />
<polygon points="278.0,0.0 334.0,41.0 345.0,102.0 331.0,126.0 249.0,109.0 255.0,165.0 298.0,160.0 383.0,188.0 383.0,0.0" fill="#373a34" opacity="0.95" />
<polygon points="0.0,383.0 82.0,383.0 93.0,369.0 109.0,381.0 135.0,378.0 156.0,332.0 3.0,326.0" fill="#735852" opacity="0.95" />
<polygon points="280.0,0.0 334.0,41.0 345.0,102.0 331.0,126.0 250.0,109.0 255.0,164.0 383.0,188.0 383.0,0.0" fill="#373a34" opacity="0.95" />
<polygon points="169.0,31.0 241.0,11.0 304.0,40.0 276.0,51.0 247.0,41.0 201.0,57.0 190.0,39.0" fill="#ec0c36" />
<polygon points="4.0,0.0 35.0,17.0 0.0,36.0 1.0,149.0 166.0,158.0 170.0,131.0 115.0,121.0 176.0,108.0 92.0,109.0 93.0,57.0 61.0,38.0 164.0,0.0" fill="#373a34" opacity="0.95" />
<polygon points="251.0,140.0 240.0,115.0 182.0,124.0 172.0,146.0 185.0,155.0 240.0,156.0" fill="#64cbbd" />
<polygon points="260.0,210.0 253.0,166.0 218.0,185.0 161.0,177.0 153.0,192.0 157.0,204.0 183.0,213.0 220.0,207.0 250.0,219.0" fill="#eef3f4" />
<polygon points="175.0,29.0 190.0,31.0 202.0,48.0 248.0,36.0 269.0,45.0 299.0,37.0 241.0,13.0" fill="#eef3f4" />
<polygon points="154.0,8.0 124.0,5.0 109.0,15.0 72.0,18.0 63.0,27.0 78.0,48.0 95.0,56.0 113.0,33.0" fill="#735852" />
<polygon points="168.0,31.0 241.0,11.0 305.0,40.0 276.0,50.0 248.0,41.0 201.0,57.0" fill="#ec0c36" opacity="0.95" />
<polygon points="160.0,175.0 213.0,177.0 218.0,184.0 244.0,174.0 252.0,151.0 218.0,160.0 185.0,158.0 172.0,148.0" fill="#bae3e0" />
<polygon points="260.0,210.0 252.0,167.0 218.0,184.0 170.0,175.0 154.0,188.0 153.0,199.0 184.0,211.0 249.0,219.0" fill="#eef3f4" opacity="0.95" />
<polygon points="178.0,28.0 203.0,48.0 298.0,37.0 241.0,13.0" fill="#eef3f4" opacity="0.95" />
<polygon points="250.0,134.0 240.0,116.0 206.0,118.0 193.0,128.0 183.0,125.0 173.0,147.0 186.0,155.0 237.0,156.0 250.0,150.0" fill="#64cbbd" opacity="0.95" />
<polygon points="166.0,35.0 241.0,11.0 306.0,41.0 275.0,51.0 248.0,41.0 201.0,57.0 190.0,41.0" fill="#ec0c36" opacity="0.95" />
<polygon points="173.0,134.0 184.0,122.0 240.0,114.0 250.0,132.0 248.0,108.0 178.0,107.0" fill="#309991" />
<polygon points="150.0,9.0 124.0,5.0 103.0,16.0 73.0,18.0 64.0,30.0 78.0,48.0 95.0,53.0" fill="#735852" opacity="0.95" />
<polygon points="161.0,176.0 218.0,183.0 245.0,173.0 252.0,152.0 219.0,160.0 173.0,149.0" fill="#bae3e0" opacity="0.95" />
<polygon points="250.0,134.0 239.0,116.0 206.0,118.0 179.0,132.0 173.0,146.0 186.0,155.0 237.0,156.0 250.0,149.0" fill="#64cbbd" opacity="0.95" />
<polygon points="260.0,210.0 251.0,168.0 219.0,183.0 170.0,175.0 154.0,188.0 184.0,210.0 237.0,210.0 247.0,219.0" fill="#eef3f4" opacity="0.95" />
<polygon points="178.0,28.0 203.0,48.0 295.0,36.0 241.0,13.0" fill="#eef3f4" opacity="0.95" />
<polygon points="0.0,320.0 0.0,325.0 158.0,323.0" fill="#eef3f4" />
<polygon points="162.0,174.0 227.0,179.0 247.0,171.0 252.0,153.0 219.0,160.0 173.0,150.0" fill="#bae3e0" opacity="0.95" />
<polygon points="249.0,327.0 267.0,343.0 278.0,346.0 282.0,343.0 289.0,345.0 287.0,340.0 301.0,327.0" fill="#a9928e" />
<polygon points="174.0,131.0 184.0,122.0 214.0,115.0 241.0,115.0 247.0,125.0 248.0,108.0 179.0,107.0" fill="#309991" opacity="0.95" />
<polygon points="158.0,205.0 186.0,217.0 209.0,215.0 216.0,220.0 223.0,215.0 220.0,208.0 205.0,211.0 190.0,206.0 183.0,214.0 167.0,202.0" fill="#bae3e0" />
<polygon points="175.0,124.0 214.0,115.0 245.0,117.0 248.0,109.0 180.0,107.0" fill="#309991" opacity="0.95" />
<polygon points="251.0,327.0 267.0,343.0 278.0,346.0 287.0,343.0 299.0,330.0 297.0,326.0" fill="#a9928e" opacity="0.95" />
<polygon points="159.0,204.0 187.0,217.0 243.0,218.0 237.0,211.0 184.0,212.0" fill="#bae3e0" opacity="0.95" />
<polygon points="99.0,246.0 93.0,243.0 95.0,241.0 92.0,238.0 89.0,238.0 73.0,251.0 85.0,257.0 90.0,256.0" fill="#a9928e" />
<polygon points="253.0,328.0 260.0,338.0 278.0,346.0 299.0,330.0 296.0,326.0" fill="#a9928e" opacity="0.95" />
<polygon points="99.0,245.0 89.0,238.0 76.0,247.0 74.0,252.0 85.0,257.0 90.0,256.0 99.0,248.0" fill="#a9928e" opacity="0.95" />
<polygon points="243.0,40.0 210.0,49.0 197.0,48.0 204.0,55.0 221.0,47.0 229.0,48.0" fill="#e3bdbd" />
<polygon points="217.0,351.0 224.0,358.0 225.0,364.0 220.0,374.0 221.0,376.0 215.0,379.0 209.0,371.0 214.0,365.0 220.0,364.0 220.0,361.0 213.0,357.0" fill="#373a34" />
<polygon points="161.0,206.0 191.0,217.0 215.0,219.0 221.0,215.0 218.0,210.0 191.0,207.0 184.0,212.0 168.0,203.0" fill="#bae3e0" opacity="0.95" />
<polygon points="99.0,246.0 93.0,239.0 89.0,238.0 76.0,247.0 74.0,252.0 85.0,257.0 91.0,255.0" fill="#a9928e" opacity="0.95" />
<polygon points="308.0,347.0 301.0,351.0 304.0,356.0 304.0,362.0 310.0,362.0 315.0,360.0 315.0,357.0 312.0,353.0 313.0,350.0" fill="#a9928e" />
<polygon points="326.0,36.0 333.0,47.0 333.0,52.0 330.0,55.0 331.0,64.0 340.0,72.0 338.0,55.0 332.0,46.0 332.0,42.0" fill="#eef3f4" />
<polygon points="244.0,218.0 237.0,211.0 233.0,215.0 225.0,215.0 225.0,217.0 230.0,221.0 236.0,218.0 239.0,220.0" fill="#bae3e0" />
<polygon points="311.0,41.0 319.0,49.0 320.0,52.0 322.0,54.0 320.0,56.0 312.0,49.0 313.0,47.0 309.0,43.0" fill="#ec0c36" />
<polygon points="302.0,350.0 301.0,353.0 303.0,354.0 303.0,361.0 310.0,362.0 314.0,360.0 312.0,349.0 307.0,348.0" fill="#a9928e" opacity="0.95" />
<polygon points="334.0,52.0 330.0,54.0 331.0,64.0 339.0,71.0 341.0,70.0 341.0,67.0 339.0,63.0 338.0,55.0" fill="#eef3f4" opacity="0.95" />
<polygon points="307.0,348.0 302.0,351.0 303.0,360.0 306.0,362.0 310.0,362.0 314.0,359.0 313.0,350.0 310.0,348.0" fill="#a9928e" opacity="0.95" />
<polygon points="151.0,356.0 148.0,356.0 145.0,359.0 144.0,358.0 142.0,360.0 141.0,364.0 143.0,366.0 146.0,366.0 147.0,365.0 148.0,366.0 149.0,365.0 149.0,362.0 152.0,359.0" fill="#a9928e" />
<polygon points="216.0,48.0 214.0,47.0 210.0,49.0 201.0,48.0 199.0,49.0 199.0,53.0 202.0,55.0 209.0,54.0 214.0,52.0" fill="#e3bdbd" opacity="0.95" />
<polygon points="312.0,47.0 315.0,45.0 320.0,48.0 320.0,50.0 316.0,52.0 312.0,49.0" fill="#ec0c36" opacity="0.95" />
<polygon points="334.0,52.0 331.0,54.0 331.0,64.0 337.0,69.0 340.0,67.0 338.0,55.0" fill="#eef3f4" opacity="0.95" />
<polygon points="299.0,13.0 304.0,18.0 308.0,20.0 310.0,19.0 304.0,14.0 300.0,12.0" fill="#f36d8e" />
<polygon points="242.0,241.0 241.0,242.0 241.0,245.0 242.0,246.0 242.0,250.0 243.0,251.0 245.0,247.0 244.0,246.0 244.0,243.0" fill="#f36d8e" />
<polygon points="310.0,21.0 315.0,26.0 318.0,24.0 314.0,21.0 312.0,21.0 311.0,20.0" fill="#e3bdbd" />
<polygon points="231.0,214.0 228.0,216.0 228.0,218.0 232.0,221.0 235.0,219.0 235.0,216.0" fill="#bae3e0" opacity="0.95" />
<polygon points="199.0,51.0 199.0,53.0 202.0,55.0 204.0,55.0 207.0,53.0 207.0,51.0 204.0,49.0 202.0,49.0" fill="#e3bdbd" opacity="0.95" />
<polygon points="269.0,46.0 273.0,48.0 274.0,48.0 276.0,46.0 277.0,47.0 278.0,46.0 277.0,45.0 275.0,46.0 271.0,44.0" fill="#e3bdbd" />
<polygon points="247.0,38.0 248.0,39.0 251.0,39.0 252.0,40.0 254.0,39.0 256.0,41.0 258.0,40.0 256.0,38.0 254.0,39.0 252.0,37.0 248.0,37.0" fill="#e3bdbd" />
<polygon points="232.0,44.0 230.0,43.0 226.0,45.0 226.0,47.0 228.0,48.0 232.0,46.0" fill="#e3bdbd" opacity="0.95" />
</svg>