<svg xmlns="http://www.w3.org/2000/svg" width="768" height="768" viewBox="0 0 384 384">
<rect width="384" height="384" fill="#95504a"/>
<polygon points="0.0,0.0 2.0,126.0 205.0,127.0 235.0,35.0 265.0,65.0 273.0,127.0 383.0,126.0 383.0,0.0" fill="#a3403e" />
<polygon points="135.0,259.0 136.0,320.0 383.0,320.0 383.0,258.0" fill="#82423a" />
<polygon points="9.0,131.0 0.0,252.0 136.0,255.0 135.0,383.0 383.0,383.0 383.0,130.0 273.0,131.0 274.0,192.0 207.0,240.0 137.0,205.0 123.0,131.0" fill="#82423a" opacity="0.95" />
<polygon points="135.0,325.0 135.0,383.0 383.0,383.0 383.0,324.0" fill="#82423a" />
<polygon points="0.0,0.0 5.0,127.0 204.0,127.0 236.0,35.0 263.0,64.0 272.0,126.0 383.0,126.0 383.0,0.0" fill="#a3403e" opacity="0.95" />
<polygon points="383.0,194.0 268.0,193.0 207.0,240.0 158.0,225.0 132.0,194.0 3.0,194.0 2.0,253.0 383.0,254.0" fill="#82423a" />
<polygon points="10.0,132.0 0.0,251.0 134.0,255.0 135.0,383.0 383.0,383.0 383.0,130.0 275.0,131.0 273.0,191.0 207.0,240.0 132.0,204.0 123.0,131.0" fill="#82423a" opacity="0.95" />
<polygon points="0.0,0.0 4.0,126.0 204.0,127.0 237.0,35.0 264.0,65.0 273.0,126.0 383.0,126.0 383.0,0.0" fill="#a3403e" opacity="0.95" />
<polygon points="0.0,261.0 2.0,320.0 131.0,319.0 130.0,258.0" fill="#a3403e" />
<polygon points="241.0,37.0 194.0,149.0 125.0,169.0 140.0,206.0 170.0,228.0 219.0,220.0 261.0,175.0" fill="#6be0cd" />
<polygon points="0.0,326.0 0.0,383.0 131.0,383.0 130.0,324.0" fill="#a3403e" />
<polygon points="0.0,260.0 0.0,383.0 131.0,383.0 131.0,259.0" fill="#a3403e" opacity="0.95" />
<polygon points="273.0,131.0 277.0,170.0 272.0,190.0 383.0,190.0 383.0,130.0" fill="#82423a" />
<polygon points="0.0,260.0 0.0,383.0 131.0,383.0 130.0,259.0" fill="#a3403e" opacity="0.95" />
<polygon points="7.0,134.0 22.0,169.0 3.0,190.0 130.0,189.0 112.0,160.0 121.0,158.0 124.0,130.0" fill="#82423a" />
<polygon points="240.0,37.0 194.0,149.0 125.0,168.0 140.0,206.0 170.0,228.0 219.0,220.0 261.0,175.0" fill="#6be0cd" opacity="0.95" />
<polygon points="239.0,37.0 225.0,100.0 194.0,149.0 126.0,168.0 140.0,206.0 170.0,228.0 219.0,220.0 261.0,175.0" fill="#6be0cd" opacity="0.95" />
<polygon points="248.0,47.0 263.0,173.0 234.0,211.0 186.0,234.0 226.0,230.0 273.0,178.0" fill="#3a181a" />
<polygon points="135.0,162.0 167.0,163.0 182.0,158.0 194.0,147.0 201.0,134.0 194.0,130.0 136.0,130.0" fill="#82423a" />
<polygon points="247.0,47.0 263.0,173.0 195.0,236.0 238.0,222.0 273.0,178.0" fill="#3a181a" opacity="0.95" />
<polygon points="135.0,161.0 167.0,163.0 177.0,160.0 194.0,147.0 200.0,134.0 194.0,130.0 137.0,130.0" fill="#82423a" opacity="0.95" />
<polygon points="247.0,47.0 265.0,165.0 254.0,193.0 194.0,232.0 203.0,238.0 248.0,214.0 275.0,170.0" fill="#3a181a" opacity="0.95" />
<polygon points="2.0,130.0 0.0,180.0 5.0,184.0 20.0,160.0 15.0,156.0 13.0,139.0" fill="#a3403e" />
<polygon points="103.0,155.0 88.0,166.0 88.0,159.0 74.0,159.0 70.0,171.0 55.0,170.0 61.0,162.0 58.0,155.0 54.0,166.0 38.0,157.0 50.0,147.0 66.0,152.0 82.0,143.0" fill="#82423a" />
<polygon points="102.0,155.0 87.0,144.0 65.0,154.0 57.0,152.0 62.0,162.0 56.0,170.0 70.0,170.0 74.0,158.0 88.0,158.0 88.0,165.0" fill="#a3403e" />
<polygon points="3.0,130.0 0.0,132.0 0.0,182.0 4.0,184.0 18.0,165.0 18.0,160.0 14.0,153.0 13.0,139.0" fill="#a3403e" opacity="0.95" />
</svg>