<svg xmlns="http://www.w3.org/2000/svg" width="768" height="768" viewBox="0 0 384 384">
<rect width="384" height="384" fill="#916155"/>
<polygon points="0.0,0.0 0.0,383.0 383.0,383.0 383.0,0.0 201.0,0.0 275.0,175.0 199.0,256.0 196.0,382.0 116.0,144.0 165.0,163.0 134.0,93.0 180.0,0.0" fill="#885749" />
<polygon points="201.0,0.0 275.0,175.0 258.0,220.0 199.0,256.0 196.0,383.0 383.0,383.0 383.0,0.0" fill="#885749" opacity="0.95" />
<polygon points="0.0,0.0 0.0,383.0 188.0,383.0 186.0,249.0 117.0,148.0 164.0,162.0 134.0,93.0 162.0,103.0 149.0,55.0 180.0,0.0" fill="#885749" opacity="0.95" />
<polygon points="201.0,0.0 275.0,175.0 258.0,220.0 199.0,256.0 197.0,383.0 383.0,383.0 383.0,0.0" fill="#885749" opacity="0.95" />
<polygon points="0.0,0.0 0.0,383.0 187.0,383.0 186.0,249.0 117.0,148.0 163.0,159.0 134.0,95.0 162.0,101.0 149.0,55.0 180.0,0.0" fill="#885749" opacity="0.95" />
<polygon points="247.0,89.0 194.0,150.0 135.0,94.0 189.0,192.0 120.0,153.0 190.0,240.0 260.0,176.0 265.0,146.0 208.0,200.0" fill="#7defd5" />
<polygon points="182.0,0.0 178.0,18.0 152.0,48.0 150.0,69.0 167.0,97.0 200.0,105.0 225.0,89.0 234.0,57.0 225.0,36.0 203.0,17.0 199.0,0.0" fill="#ec0b45" />
<polygon points="246.0,89.0 193.0,148.0 135.0,94.0 186.0,183.0 120.0,153.0 190.0,240.0 260.0,176.0 265.0,146.0 211.0,196.0" fill="#7defd5" opacity="0.95" />
<polygon points="245.0,90.0 193.0,147.0 135.0,95.0 184.0,178.0 120.0,153.0 191.0,240.0 260.0,176.0 263.0,147.0 213.0,192.0" fill="#7defd5" opacity="0.95" />
<polygon points="182.0,0.0 178.0,18.0 152.0,48.0 150.0,69.0 167.0,97.0 200.0,105.0 225.0,89.0 234.0,57.0 199.0,0.0" fill="#ec0b45" opacity="0.95" />
<polygon points="188.0,249.0 187.0,379.0 196.0,381.0 197.0,250.0" fill="#261422" />
<polygon points="274.0,169.0 268.0,154.0 255.0,205.0 201.0,241.0 132.0,186.0 199.0,254.0 257.0,220.0" fill="#573332" />
<polygon points="182.0,0.0 178.0,18.0 152.0,48.0 150.0,69.0 167.0,97.0 200.0,105.0 225.0,89.0 234.0,57.0 225.0,36.0 203.0,17.0 199.0,0.0" fill="#ec0b45" opacity="0.95" />
<polygon points="248.0,117.0 211.0,200.0 251.0,155.0" fill="#261422" />
<polygon points="233.0,77.0 208.0,104.0 176.0,105.0 187.0,118.0 193.0,148.0 208.0,120.0 238.0,91.0" fill="#261422" />
<polygon points="143.0,109.0 166.0,166.0 185.0,187.0 168.0,143.0" fill="#573332" />
<polygon points="262.0,175.0 249.0,197.0 207.0,227.0 204.0,237.0 226.0,229.0 250.0,210.0 262.0,189.0" fill="#261422" />
<polygon points="274.0,169.0 266.0,159.0 242.0,219.0 200.0,241.0 133.0,188.0 161.0,227.0 201.0,251.0 257.0,220.0" fill="#573332" opacity="0.95" />
<polygon points="189.0,249.0 187.0,379.0 193.0,383.0 197.0,380.0 197.0,250.0" fill="#261422" opacity="0.95" />
<polygon points="247.0,122.0 216.0,194.0 251.0,155.0" fill="#261422" opacity="0.95" />
<polygon points="190.0,249.0 187.0,379.0 193.0,383.0 197.0,379.0 197.0,251.0" fill="#261422" opacity="0.95" />
<polygon points="251.0,92.0 247.0,112.0 251.0,124.0 250.0,144.0 253.0,153.0 261.0,146.0 259.0,113.0" fill="#573332" />
<polygon points="235.0,80.0 208.0,104.0 177.0,106.0 187.0,118.0 191.0,145.0 212.0,115.0 237.0,92.0" fill="#261422" opacity="0.95" />
<polygon points="274.0,169.0 266.0,161.0 242.0,219.0 200.0,241.0 135.0,193.0 172.0,237.0 201.0,251.0 257.0,220.0" fill="#573332" opacity="0.95" />
<polygon points="235.0,82.0 208.0,104.0 178.0,107.0 187.0,118.0 191.0,144.0 237.0,92.0" fill="#261422" opacity="0.95" />
<polygon points="236.0,56.0 233.0,76.0 240.0,91.0 248.0,84.0" fill="#573332" />
<polygon points="263.0,180.0 237.0,209.0 204.0,229.0 203.0,236.0 242.0,218.0 259.0,197.0" fill="#261422" opacity="0.95" />
<polygon points="143.0,113.0 166.0,166.0 183.0,180.0 164.0,136.0" fill="#573332" opacity="0.95" />
<polygon points="163.0,95.0 163.0,107.0 177.0,121.0 186.0,135.0 185.0,116.0 176.0,108.0 174.0,102.0" fill="#573332" />
<polygon points="251.0,94.0 248.0,113.0 253.0,152.0 261.0,147.0 258.0,108.0 254.0,95.0" fill="#573332" opacity="0.95" />
<polygon points="146.0,117.0 166.0,166.0 178.0,173.0 168.0,143.0 153.0,120.0" fill="#573332" opacity="0.95" />
</svg>