<svg xmlns="http://www.w3.org/2000/svg" width="768" height="768" viewBox="0 0 384 384">
<rect width="384" height="384" fill="#985e61"/>
<polygon points="2.0,127.0 0.0,317.0 152.0,320.0 183.0,281.0 186.0,232.0 131.0,192.0 129.0,128.0" fill="#a25d5d" />
<polygon points="255.0,127.0 257.0,181.0 195.0,232.0 197.0,282.0 218.0,292.0 228.0,320.0 383.0,319.0 383.0,127.0" fill="#a25d5d" />
<polygon points="0.0,0.0 2.0,126.0 129.0,126.0 138.0,90.0 187.0,140.0 193.0,112.0 196.0,143.0 243.0,88.0 255.0,126.0 383.0,126.0 383.0,0.0 252.0,0.0 234.0,74.0 194.0,100.0 147.0,75.0 130.0,0.0" fill="#7a3645" />
<polygon points="1.0,128.0 0.0,317.0 154.0,319.0 183.0,281.0 186.0,231.0 131.0,192.0 129.0,128.0" fill="#a25d5d" opacity="0.95" />
<polygon points="255.0,128.0 257.0,181.0 195.0,232.0 197.0,282.0 218.0,292.0 229.0,320.0 383.0,319.0 383.0,127.0" fill="#a25d5d" opacity="0.95" />
<polygon points="131.0,0.0 141.0,59.0 158.0,87.0 191.0,99.0 228.0,81.0 251.0,0.0" fill="#f87082" />
<polygon points="258.0,127.0 252.0,192.0 195.0,232.0 197.0,281.0 233.0,324.0 194.0,383.0 383.0,383.0 383.0,127.0" fill="#a25d5d" opacity="0.95" />
<polygon points="0.0,328.0 0.0,383.0 185.0,383.0 156.0,360.0 152.0,326.0" fill="#a25d5d" />
<polygon points="193.0,383.0 383.0,383.0 383.0,326.0 229.0,326.0 223.0,355.0" fill="#a25d5d" />
<polygon points="0.0,129.0 0.0,383.0 184.0,383.0 156.0,360.0 148.0,322.0 183.0,281.0 186.0,232.0 131.0,192.0 128.0,129.0" fill="#a25d5d" opacity="0.95" />
<polygon points="245.0,89.0 198.0,142.0 193.0,209.0 184.0,141.0 136.0,92.0 125.0,167.0 144.0,207.0 193.0,231.0 246.0,199.0 258.0,149.0" fill="#7ac2ac" />
<polygon points="0.0,0.0 3.0,126.0 128.0,126.0 138.0,90.0 197.0,138.0 244.0,88.0 256.0,126.0 383.0,126.0 383.0,0.0 252.0,0.0 234.0,74.0 194.0,100.0 147.0,75.0 130.0,0.0" fill="#7a3645" opacity="0.95" />
<polygon points="0.0,0.0 4.0,126.0 127.0,126.0 138.0,90.0 198.0,135.0 244.0,88.0 256.0,126.0 383.0,126.0 383.0,0.0 252.0,0.0 234.0,74.0 194.0,100.0 147.0,75.0 130.0,0.0" fill="#7a3645" opacity="0.95" />
<polygon points="131.0,0.0 141.0,59.0 158.0,87.0 191.0,99.0 228.0,81.0 251.0,0.0" fill="#f87082" opacity="0.95" />
<polygon points="246.0,90.0 198.0,142.0 192.0,209.0 184.0,141.0 136.0,93.0 125.0,167.0 144.0,207.0 193.0,231.0 246.0,199.0 258.0,171.0" fill="#7ac2ac" opacity="0.95" />
<polygon points="0.0,328.0 0.0,383.0 184.0,383.0 156.0,360.0 151.0,326.0" fill="#a25d5d" opacity="0.95" />
<polygon points="194.0,381.0 383.0,383.0 383.0,326.0 230.0,326.0 223.0,355.0" fill="#a25d5d" opacity="0.95" />
<polygon points="192.0,232.0 183.0,284.0 160.0,298.0 152.0,340.0 159.0,363.0 186.0,383.0 218.0,361.0 227.0,337.0 220.0,296.0 196.0,282.0" fill="#342c32" />
<polygon points="131.0,0.0 141.0,59.0 158.0,87.0 191.0,99.0 228.0,81.0 251.0,0.0" fill="#f87082" opacity="0.95" />
<polygon points="246.0,91.0 198.0,142.0 191.0,208.0 184.0,141.0 135.0,95.0 125.0,167.0 144.0,207.0 193.0,231.0 246.0,199.0 258.0,171.0" fill="#7ac2ac" opacity="0.95" />
<polygon points="191.0,232.0 183.0,284.0 160.0,298.0 152.0,340.0 159.0,363.0 185.0,383.0 218.0,361.0 227.0,337.0 220.0,296.0 196.0,282.0" fill="#342c32" opacity="0.95" />
<polygon points="191.0,235.0 184.0,281.0 160.0,298.0 152.0,340.0 159.0,363.0 185.0,383.0 218.0,361.0 227.0,337.0 220.0,296.0 196.0,281.0" fill="#342c32" opacity="0.95" />
<polygon points="0.0,320.0 0.0,326.0 153.0,323.0" fill="#fbf7f5" />
<polygon points="191.0,113.0 189.0,207.0 193.0,208.0 194.0,114.0" fill="#342c32" />
<polygon points="192.0,113.0 189.0,115.0 188.0,148.0 191.0,208.0 194.0,207.0" fill="#342c32" opacity="0.95" />
<polygon points="333.0,53.0 339.0,53.0 344.0,58.0 343.0,64.0 338.0,68.0 332.0,67.0 328.0,62.0 329.0,57.0" fill="#7a3645" />
<polygon points="332.0,55.0 330.0,58.0 330.0,63.0 333.0,66.0 339.0,66.0 342.0,63.0 342.0,57.0 338.0,54.0" fill="#fbf7f5" />
<polygon points="334.0,53.0 338.0,53.0 344.0,58.0 343.0,64.0 338.0,68.0 332.0,67.0 328.0,62.0 329.0,57.0" fill="#7a3645" opacity="0.95" />
<polygon points="334.0,53.0 338.0,53.0 344.0,58.0 343.0,64.0 338.0,68.0 332.0,67.0 328.0,62.0 329.0,57.0" fill="#7a3645" opacity="0.95" />
<polygon points="334.0,54.0 330.0,58.0 330.0,63.0 334.0,66.0 338.0,66.0 342.0,63.0 342.0,57.0 338.0,54.0" fill="#fbf7f5" opacity="0.95" />
<polygon points="334.0,54.0 330.0,58.0 330.0,63.0 334.0,66.0 338.0,66.0 342.0,63.0 342.0,57.0 338.0,54.0" fill="#fbf7f5" opacity="0.95" />
<polygon points="191.0,146.0 188.0,148.0 188.0,150.0 191.0,152.0 194.0,150.0 194.0,148.0" fill="#342c32" opacity="0.95" />
</svg>