<svg xmlns="http://www.w3.org/2000/svg" width="768" height="768" viewBox="0 0 384 384">
<rect width="384" height="384" fill="#906046"/>
<polygon points="0.0,0.0 0.0,383.0 383.0,383.0 383.0,0.0" fill="#8e5545" />
<polygon points="0.0,0.0 0.0,383.0 383.0,383.0 383.0,0.0" fill="#8e5545" opacity="0.95" />
<polygon points="0.0,0.0 0.0,383.0 383.0,383.0 383.0,0.0" fill="#8e5545" opacity="0.95" />
<polygon points="141.0,78.0 194.0,136.0 247.0,81.0 270.0,159.0 261.0,192.0 224.0,224.0 182.0,232.0 125.0,192.0 117.0,149.0" fill="#8e5545" />
<polygon points="142.0,79.0 119.0,150.0 186.0,206.0 266.0,148.0 199.0,230.0 119.0,158.0 154.0,217.0 225.0,222.0 268.0,162.0 245.0,80.0 193.0,137.0" fill="#07131d" />
<polygon points="140.0,79.0 194.0,134.0 247.0,81.0 270.0,159.0 260.0,193.0 224.0,224.0 182.0,232.0 126.0,193.0 117.0,149.0" fill="#8e5545" opacity="0.95" />
<polygon points="141.0,79.0 194.0,133.0 247.0,81.0 270.0,159.0 261.0,192.0 224.0,224.0 182.0,232.0 125.0,192.0 117.0,149.0" fill="#8e5545" opacity="0.95" />
<polygon points="264.0,148.0 194.0,209.0 124.0,148.0 147.0,207.0 196.0,229.0 245.0,201.0" fill="#97c748" />
<polygon points="243.0,87.0 193.0,148.0 142.0,89.0 138.0,151.0 123.0,160.0 152.0,211.0 196.0,229.0 250.0,195.0 264.0,150.0 244.0,153.0 257.0,125.0" fill="#97c748" opacity="0.95" />
<polygon points="144.0,83.0 189.0,135.0 188.0,172.0 158.0,143.0 146.0,105.0 151.0,139.0 131.0,131.0" fill="#07131d" />
<polygon points="143.0,88.0 133.0,133.0 150.0,115.0 170.0,158.0 123.0,150.0 139.0,199.0 192.0,229.0 231.0,213.0 264.0,149.0 229.0,182.0 247.0,142.0 195.0,200.0 229.0,184.0 182.0,205.0 189.0,140.0" fill="#97c748" opacity="0.95" />
<polygon points="144.0,85.0 133.0,133.0 150.0,138.0 146.0,103.0 162.0,147.0 187.0,170.0 183.0,126.0" fill="#97c748" />
<polygon points="242.0,83.0 257.0,114.0 256.0,144.0 250.0,146.0 251.0,136.0 232.0,139.0 236.0,104.0 226.0,142.0 197.0,171.0 201.0,131.0" fill="#07131d" />
<polygon points="242.0,85.0 203.0,130.0 197.0,170.0 225.0,141.0 236.0,102.0 233.0,138.0 251.0,134.0 254.0,144.0 256.0,116.0" fill="#97c748" />
<polygon points="135.0,138.0 155.0,146.0 189.0,177.0 188.0,203.0 155.0,175.0 136.0,148.0" fill="#07131d" />
<polygon points="247.0,140.0 227.0,148.0 195.0,178.0 196.0,202.0 226.0,179.0" fill="#97c748" />
<polygon points="247.0,139.0 248.0,146.0 230.0,176.0 209.0,197.0 196.0,203.0 194.0,177.0 228.0,146.0" fill="#07131d" />
<polygon points="136.0,140.0 159.0,178.0 187.0,201.0 188.0,178.0 154.0,147.0" fill="#97c748" />
<polygon points="244.0,87.0 203.0,130.0 196.0,168.0 225.0,141.0 234.0,105.0 234.0,138.0 256.0,135.0" fill="#97c748" opacity="0.95" />
<polygon points="197.0,255.0 206.0,258.0 207.0,270.0 219.0,270.0 223.0,255.0 231.0,258.0 229.0,297.0 220.0,295.0 218.0,280.0 206.0,282.0 204.0,297.0 195.0,295.0" fill="#8e5545" />
<polygon points="183.0,255.0 184.0,264.0 165.0,264.0 164.0,270.0 183.0,271.0 185.0,279.0 165.0,281.0 164.0,287.0 184.0,288.0 187.0,294.0 156.0,298.0 152.0,294.0 152.0,258.0" fill="#8e5545" />
<polygon points="156.0,256.0 154.0,295.0 184.0,296.0 183.0,289.0 163.0,287.0 165.0,280.0 184.0,278.0 181.0,272.0 165.0,272.0 163.0,265.0 183.0,263.0 184.0,257.0" fill="#97c748" />
<polygon points="198.0,256.0 196.0,294.0 205.0,294.0 206.0,279.0 219.0,279.0 222.0,295.0 228.0,296.0 229.0,258.0 222.0,257.0 219.0,272.0 207.0,272.0 204.0,257.0" fill="#97c748" />
<polygon points="183.0,255.0 185.0,263.0 166.0,264.0 164.0,270.0 182.0,271.0 185.0,279.0 166.0,281.0 164.0,287.0 183.0,288.0 187.0,294.0 154.0,297.0 152.0,258.0" fill="#8e5545" opacity="0.95" />
<polygon points="196.0,256.0 206.0,258.0 208.0,270.0 220.0,269.0 222.0,256.0 231.0,258.0 229.0,297.0 220.0,295.0 218.0,280.0 206.0,282.0 204.0,297.0 195.0,295.0" fill="#8e5545" opacity="0.95" />
<polygon points="192.0,136.0 190.0,170.0 184.0,172.0 190.0,181.0 186.0,206.0 197.0,207.0 207.0,200.0 194.0,201.0 194.0,177.0 199.0,172.0 195.0,170.0 197.0,137.0" fill="#07131d" opacity="0.95" />
<polygon points="267.0,143.0 258.0,142.0 253.0,147.0 247.0,148.0 243.0,157.0 247.0,157.0 251.0,152.0 267.0,145.0" fill="#07131d" opacity="0.95" />
<polygon points="224.0,146.0 227.0,147.0 239.0,143.0 241.0,140.0 239.0,139.0 235.0,141.0 230.0,136.0 228.0,137.0" fill="#07131d" opacity="0.95" />
<polygon points="152.0,132.0 150.0,133.0 151.0,140.0 149.0,141.0 149.0,144.0 158.0,148.0 160.0,147.0 160.0,145.0 154.0,133.0" fill="#07131d" opacity="0.95" />
<polygon points="121.0,144.0 121.0,146.0 131.0,150.0 134.0,153.0 138.0,153.0 135.0,145.0 128.0,145.0 124.0,143.0" fill="#07131d" opacity="0.95" />
</svg>