<svg xmlns="http://www.w3.org/2000/svg" width="768" height="768" viewBox="0 0 384 384">
<rect width="384" height="384" fill="#8a6759"/>
<polygon points="0.0,328.0 0.0,383.0 153.0,383.0 152.0,326.0" fill="#ad5e5a" />
<polygon points="2.0,128.0 0.0,317.0 151.0,320.0 122.0,276.0 94.0,277.0 63.0,258.0 69.0,221.0 39.0,177.0 46.0,129.0" fill="#ad5e5a" />
<polygon points="132.0,0.0 0.0,0.0 0.0,125.0 45.0,127.0 60.0,50.0" fill="#341c20" />
<polygon points="249.0,326.0 249.0,383.0 383.0,383.0 383.0,325.0" fill="#a97676" />
<polygon points="154.0,297.0 154.0,383.0 247.0,383.0 247.0,299.0 236.0,309.0" fill="#341c20" />
<polygon points="134.0,39.0 144.0,25.0 153.0,50.0 157.0,27.0 186.0,84.0 266.0,82.0 292.0,26.0 241.0,0.0 158.0,0.0" fill="#df8c8b" />
<polygon points="157.0,0.0 73.0,59.0 74.0,195.0 144.0,232.0 115.0,135.0 124.0,91.0 170.0,75.0 157.0,28.0 152.0,48.0 144.0,26.0 132.0,41.0" fill="#ad5e5a" />
<polygon points="383.0,197.0 367.0,198.0 347.0,245.0 312.0,274.0 255.0,290.0 249.0,318.0 383.0,319.0" fill="#5f342d" />
<polygon points="0.0,130.0 0.0,383.0 153.0,383.0 134.0,286.0 63.0,258.0 69.0,221.0 39.0,177.0 44.0,130.0" fill="#ad5e5a" opacity="0.95" />
<polygon points="1.0,129.0 0.0,317.0 152.0,319.0 126.0,279.0 63.0,258.0 69.0,221.0 39.0,177.0 45.0,129.0" fill="#ad5e5a" opacity="0.95" />
<polygon points="0.0,328.0 0.0,383.0 153.0,383.0 151.0,326.0" fill="#ad5e5a" opacity="0.95" />
<polygon points="280.0,0.0 292.0,18.0 317.0,24.0 355.0,61.0 383.0,127.0 383.0,0.0" fill="#341c20" />
<polygon points="131.0,0.0 0.0,0.0 0.0,125.0 46.0,126.0 60.0,50.0" fill="#341c20" opacity="0.95" />
<polygon points="129.0,24.0 73.0,59.0 72.0,192.0 137.0,227.0 117.0,102.0 170.0,73.0 162.0,33.0 136.0,42.0" fill="#ad5e5a" opacity="0.95" />
<polygon points="249.0,326.0 249.0,383.0 383.0,383.0 383.0,325.0" fill="#a97676" opacity="0.95" />
<polygon points="154.0,297.0 154.0,383.0 247.0,383.0 248.0,303.0 213.0,309.0" fill="#341c20" opacity="0.95" />
<polygon points="135.0,30.0 163.0,33.0 187.0,84.0 270.0,77.0 296.0,97.0 309.0,58.0 290.0,69.0 297.0,44.0 274.0,72.0 291.0,25.0 242.0,0.0 158.0,0.0" fill="#df8c8b" opacity="0.95" />
<polygon points="383.0,197.0 367.0,197.0 346.0,247.0 312.0,274.0 254.0,291.0 249.0,318.0 383.0,319.0" fill="#5f342d" opacity="0.95" />
<polygon points="130.0,0.0 0.0,0.0 0.0,125.0 45.0,126.0 60.0,50.0" fill="#341c20" opacity="0.95" />
<polygon points="129.0,24.0 73.0,59.0 72.0,192.0 136.0,226.0 117.0,102.0 169.0,70.0 162.0,33.0 137.0,45.0" fill="#ad5e5a" opacity="0.95" />
<polygon points="120.0,26.0 62.0,55.0 42.0,177.0 75.0,217.0 69.0,242.0 114.0,240.0 86.0,231.0 64.0,116.0 72.0,59.0" fill="#63673c" />
<polygon points="249.0,327.0 249.0,383.0 383.0,383.0 383.0,325.0" fill="#a97676" opacity="0.95" />
<polygon points="290.0,28.0 266.0,84.0 299.0,41.0 280.0,78.0 310.0,55.0 294.0,99.0 341.0,152.0 348.0,63.0 321.0,70.0 324.0,46.0" fill="#e8adad" />
<polygon points="154.0,298.0 154.0,383.0 247.0,383.0 247.0,304.0 213.0,309.0 165.0,295.0" fill="#341c20" opacity="0.95" />
<polygon points="143.0,19.0 188.0,84.0 299.0,92.0 293.0,53.0 281.0,79.0 279.0,51.0 246.0,59.0 258.0,18.0 290.0,27.0 279.0,10.0 161.0,0.0" fill="#df8c8b" opacity="0.95" />
<polygon points="383.0,197.0 367.0,198.0 347.0,245.0 312.0,274.0 254.0,291.0 249.0,317.0 383.0,319.0" fill="#5f342d" opacity="0.95" />
<polygon points="344.0,183.0 291.0,221.0 201.0,256.0 289.0,240.0 342.0,200.0" fill="#63673c" />
<polygon points="281.0,0.0 292.0,18.0 317.0,24.0 355.0,61.0 383.0,127.0 383.0,0.0" fill="#341c20" opacity="0.95" />
<polygon points="119.0,111.0 128.0,177.0 157.0,208.0 200.0,208.0 202.0,229.0 275.0,176.0 251.0,192.0 174.0,190.0 129.0,150.0 124.0,119.0 142.0,97.0" fill="#b3c7ac" />
<polygon points="326.0,242.0 311.0,236.0 276.0,266.0 184.0,282.0 239.0,294.0 257.0,274.0 298.0,268.0" fill="#6b9561" />
<polygon points="257.0,19.0 249.0,52.0 284.0,44.0 276.0,72.0 301.0,42.0 299.0,113.0 343.0,141.0 346.0,60.0 325.0,67.0 319.0,41.0" fill="#e8adad" opacity="0.95" />
<polygon points="338.0,244.0 298.0,269.0 257.0,275.0 239.0,295.0 183.0,282.0 172.0,294.0 237.0,306.0 254.0,287.0 306.0,275.0" fill="#5d8c30" />
<polygon points="281.0,0.0 292.0,18.0 317.0,24.0 355.0,61.0 383.0,127.0 383.0,0.0" fill="#341c20" opacity="0.95" />
<polygon points="364.0,120.0 364.0,148.0 345.0,196.0 318.0,227.0 325.0,236.0 347.0,233.0 362.0,203.0 354.0,201.0 356.0,188.0 376.0,166.0" fill="#6b9561" />
<polygon points="372.0,142.0 317.0,236.0 185.0,283.0 239.0,294.0 313.0,258.0 360.0,207.0" fill="#6b9561" opacity="0.95" />
<polygon points="209.0,18.0 230.0,52.0 247.0,38.0 282.0,47.0 279.0,69.0 306.0,61.0 299.0,113.0 344.0,139.0 346.0,61.0 260.0,18.0 249.0,37.0 234.0,14.0" fill="#e8adad" opacity="0.95" />
<polygon points="150.0,0.0 136.0,0.0 107.0,15.0 72.0,48.0 132.0,21.0" fill="#7c861c" />
<polygon points="119.0,111.0 126.0,173.0 155.0,205.0 206.0,216.0 249.0,196.0 153.0,181.0 124.0,124.0 142.0,97.0" fill="#b3c7ac" opacity="0.95" />
<polygon points="209.0,106.0 200.0,125.0 216.0,118.0 205.0,130.0 207.0,139.0 221.0,133.0 208.0,146.0 212.0,154.0 226.0,153.0 244.0,117.0" fill="#5d8c30" />
<polygon points="81.0,46.0 57.0,65.0 44.0,168.0 60.0,156.0 67.0,174.0 45.0,182.0 75.0,217.0 70.0,242.0 87.0,236.0 64.0,118.0" fill="#63673c" opacity="0.95" />
<polygon points="285.0,178.0 268.0,179.0 246.0,200.0 217.0,208.0 208.0,218.0 240.0,212.0 247.0,223.0 254.0,210.0 272.0,206.0" fill="#6b9561" />
<polygon points="195.0,111.0 186.0,115.0 186.0,126.0 184.0,118.0 169.0,134.0 179.0,139.0 169.0,151.0 182.0,176.0 178.0,179.0 187.0,185.0 194.0,167.0" fill="#6b9561" />
<polygon points="294.0,145.0 266.0,217.0 214.0,250.0 288.0,209.0" fill="#354420" />
<polygon points="325.0,241.0 312.0,236.0 276.0,265.0 185.0,283.0 239.0,294.0" fill="#6b9561" opacity="0.95" />
<polygon points="285.0,177.0 206.0,217.0 132.0,188.0 167.0,221.0 239.0,212.0 246.0,223.0" fill="#6b9561" opacity="0.95" />
<polygon points="214.0,99.0 192.0,99.0 151.0,137.0 157.0,116.0 183.0,100.0 148.0,121.0 140.0,141.0 160.0,169.0 152.0,179.0 174.0,187.0 163.0,128.0" fill="#354420" />
<polygon points="344.0,183.0 335.0,197.0 228.0,252.0 302.0,233.0 342.0,200.0" fill="#63673c" opacity="0.95" />
<polygon points="314.0,157.0 296.0,203.0 233.0,241.0 300.0,208.0" fill="#5f342d" />
<polygon points="352.0,62.0 361.0,106.0 351.0,105.0 371.0,128.0 378.0,160.0 357.0,188.0 359.0,202.0 383.0,145.0" fill="#5d8c30" />
<polygon points="224.0,100.0 263.0,137.0 223.0,188.0 250.0,191.0 270.0,173.0 267.0,159.0 241.0,185.0 271.0,150.0 267.0,133.0" fill="#354420" />
<polygon points="310.0,126.0 329.0,148.0 332.0,167.0 319.0,194.0 289.0,221.0 335.0,196.0 345.0,169.0 338.0,141.0" fill="#a97676" />
<polygon points="119.0,111.0 126.0,173.0 156.0,203.0 206.0,215.0 249.0,196.0 153.0,181.0 129.0,150.0 134.0,103.0" fill="#b3c7ac" opacity="0.95" />
<polygon points="211.0,106.0 201.0,115.0 200.0,125.0 206.0,129.0 214.0,154.0 231.0,149.0 243.0,117.0" fill="#5d8c30" opacity="0.95" />
<polygon points="66.0,248.0 66.0,257.0 90.0,273.0 101.0,272.0 111.0,261.0 105.0,251.0 97.0,253.0 99.0,248.0 85.0,245.0" fill="#5d8c30" />
<polygon points="0.0,320.0 0.0,325.0 153.0,323.0" fill="#fbfaf9" />
<polygon points="76.0,48.0 52.0,83.0 44.0,166.0 59.0,156.0 67.0,176.0 50.0,200.0 74.0,219.0 69.0,241.0 121.0,260.0 107.0,234.0 87.0,235.0 71.0,192.0" fill="#63673c" opacity="0.95" />
<polygon points="317.0,136.0 310.0,156.0 318.0,167.0 302.0,209.0 318.0,194.0 331.0,167.0 329.0,150.0" fill="#ad5e5a" />
<polygon points="247.0,119.0 227.0,182.0 262.0,143.0 261.0,137.0 253.0,147.0 251.0,141.0 241.0,145.0 254.0,136.0" fill="#63673c" />
<polygon points="258.0,16.0 266.0,23.0 265.0,33.0 240.0,83.0" fill="#df8c8b" />
<polygon points="311.0,43.0 299.0,66.0 281.0,80.0 301.0,45.0 293.0,46.0 273.0,80.0 277.0,91.0 298.0,95.0" fill="#df8c8b" />
<polygon points="128.0,194.0 127.0,206.0 149.0,235.0 173.0,249.0 189.0,247.0 189.0,237.0 181.0,234.0 184.0,238.0 176.0,239.0 154.0,224.0" fill="#5f342d" />
<polygon points="200.0,97.0 264.0,98.0 304.0,127.0 292.0,97.0 261.0,83.0 252.0,84.0 252.0,92.0 237.0,93.0 235.0,87.0 232.0,94.0" fill="#5d8c30" />
<polygon points="195.0,112.0 173.0,124.0 170.0,132.0 179.0,139.0 170.0,151.0 173.0,167.0 187.0,185.0 192.0,184.0" fill="#6b9561" opacity="0.95" />
<polygon points="266.0,213.0 254.0,211.0 247.0,224.0 240.0,213.0 221.0,217.0 223.0,226.0 202.0,242.0 193.0,238.0 196.0,221.0 170.0,219.0 201.0,246.0" fill="#63673c" />
<polygon points="283.0,23.0 285.0,35.0 277.0,50.0 264.0,60.0 246.0,63.0 256.0,19.0" fill="#df8c8b" opacity="0.95" />
<polygon points="345.0,186.0 230.0,251.0 259.0,250.0 302.0,233.0 342.0,200.0" fill="#63673c" opacity="0.95" />
<polygon points="364.0,123.0 364.0,148.0 345.0,196.0 318.0,227.0 325.0,236.0 347.0,233.0 360.0,207.0 356.0,188.0 376.0,166.0" fill="#6b9561" opacity="0.95" />
<polygon points="243.0,108.0 263.0,137.0 260.0,155.0 209.0,193.0 249.0,191.0 270.0,174.0 267.0,133.0" fill="#354420" opacity="0.95" />
<polygon points="249.0,322.0 383.0,324.0 383.0,321.0" fill="#fbfaf9" />
<polygon points="129.0,180.0 156.0,215.0 168.0,221.0 176.0,213.0 202.0,224.0 200.0,209.0 180.0,206.0 175.0,211.0 167.0,202.0 157.0,209.0 153.0,196.0" fill="#6b9561" />
<polygon points="282.0,21.0 284.0,35.0 281.0,44.0 265.0,60.0 262.0,56.0 254.0,60.0 252.0,58.0 269.0,30.0 268.0,25.0" fill="#df8c8b" />
<polygon points="300.0,133.0 302.0,139.0 294.0,154.0 307.0,174.0 312.0,140.0" fill="#b3c7ac" />
<polygon points="247.0,16.0 250.0,22.0 244.0,43.0 226.0,58.0 224.0,54.0 236.0,28.0" fill="#df8c8b" />
<polygon points="83.0,201.0 89.0,207.0 86.0,228.0 91.0,236.0 101.0,225.0 121.0,240.0 135.0,233.0 121.0,217.0 117.0,223.0 98.0,224.0 97.0,213.0 106.0,207.0" fill="#a97676" />
<polygon points="149.0,0.0 135.0,0.0 99.0,20.0 76.0,46.0 135.0,19.0" fill="#7c861c" opacity="0.95" />
<polygon points="258.0,17.0 240.0,82.0 264.0,33.0 265.0,24.0" fill="#e8adad" />
<polygon points="238.0,8.0 226.0,41.0 247.0,16.0 246.0,38.0 221.0,56.0 223.0,22.0 206.0,21.0" fill="#df8c8b" opacity="0.95" />
<polygon points="195.0,96.0 177.0,87.0 151.0,92.0 125.0,119.0 131.0,152.0 139.0,145.0 132.0,120.0 136.0,109.0 170.0,91.0" fill="#5d8c30" />
<polygon points="356.0,125.0 345.0,130.0 340.0,155.0 346.0,164.0 340.0,178.0 343.0,181.0 361.0,147.0 352.0,139.0" fill="#b8aa8a" />
<polygon points="203.0,102.0 151.0,135.0 143.0,129.0 140.0,141.0 159.0,168.0 152.0,179.0 174.0,185.0 163.0,167.0 163.0,126.0" fill="#354420" opacity="0.95" />
<polygon points="353.0,65.0 361.0,105.0 352.0,108.0 371.0,128.0 377.0,159.0 357.0,188.0 359.0,202.0 383.0,164.0 383.0,140.0" fill="#5d8c30" opacity="0.95" />
<polygon points="239.0,6.0 241.0,12.0 220.0,53.0 216.0,31.0 223.0,23.0 217.0,26.0 213.0,22.0 206.0,29.0 204.0,24.0 218.0,11.0 227.0,19.0" fill="#df8c8b" />
<polygon points="134.0,289.0 132.0,294.0 133.0,302.0 141.0,310.0 152.0,316.0 153.0,295.0 138.0,288.0" fill="#5f342d" />
<polygon points="282.0,22.0 277.0,26.0 273.0,22.0 269.0,25.0 270.0,30.0 254.0,59.0 262.0,55.0 265.0,59.0 277.0,48.0 283.0,35.0" fill="#e8adad" />
<polygon points="247.0,17.0 235.0,31.0 226.0,57.0 242.0,45.0 244.0,30.0 249.0,22.0" fill="#e8adad" />
<polygon points="60.0,155.0 63.0,158.0 67.0,176.0 61.0,180.0 48.0,180.0 44.0,176.0 44.0,173.0" fill="#63673c" />
<polygon points="311.0,127.0 332.0,161.0 315.0,203.0 337.0,194.0 345.0,164.0 339.0,161.0 338.0,141.0" fill="#a97676" opacity="0.95" />
<polygon points="182.0,96.0 172.0,92.0 159.0,95.0 137.0,115.0 137.0,126.0 152.0,110.0" fill="#7c861c" />
<polygon points="338.0,244.0 326.0,243.0 298.0,268.0 289.0,264.0 280.0,274.0 257.0,276.0 250.0,287.0 275.0,288.0 304.0,276.0" fill="#5d8c30" opacity="0.95" />
<polygon points="128.0,194.0 128.0,206.0 149.0,235.0 173.0,249.0 189.0,247.0 191.0,238.0 177.0,239.0 154.0,224.0" fill="#5f342d" opacity="0.95" />
<polygon points="173.0,293.0 179.0,300.0 237.0,306.0 248.0,294.0 238.0,295.0 229.0,287.0 223.0,298.0 215.0,289.0 206.0,294.0 182.0,282.0" fill="#5d8c30" opacity="0.95" />
<polygon points="332.0,239.0 312.0,230.0 275.0,253.0 244.0,262.0 287.0,252.0 311.0,235.0" fill="#b3c7ac" />
<polygon points="239.0,7.0 227.0,20.0 218.0,12.0 205.0,24.0 206.0,28.0 213.0,21.0 224.0,23.0 218.0,38.0 220.0,52.0" fill="#e8adad" />
<polygon points="307.0,194.0 235.0,239.0 285.0,220.0" fill="#5f342d" opacity="0.95" />
<polygon points="149.0,0.0 135.0,0.0 107.0,15.0 80.0,42.0 135.0,19.0" fill="#7c861c" opacity="0.95" />
<polygon points="242.0,0.0 245.0,4.0 256.0,9.0 275.0,8.0 285.0,11.0 277.0,0.0" fill="#7c861c" />
<polygon points="139.0,235.0 136.0,247.0 143.0,252.0 161.0,248.0 164.0,256.0 187.0,259.0 191.0,256.0 190.0,251.0 171.0,252.0 144.0,233.0" fill="#63673c" />
<polygon points="60.0,156.0 46.0,171.0 45.0,176.0 48.0,179.0 61.0,179.0 66.0,176.0 62.0,158.0" fill="#354420" />
<polygon points="240.0,263.0 232.0,258.0 205.0,271.0 195.0,262.0 188.0,272.0 176.0,274.0 158.0,269.0 184.0,280.0 196.0,272.0 215.0,274.0" fill="#b3c7ac" />
<polygon points="317.0,136.0 312.0,152.0 317.0,171.0 307.0,204.0 318.0,194.0 331.0,167.0 328.0,148.0" fill="#ad5e5a" opacity="0.95" />
<polygon points="348.0,66.0 340.0,76.0 346.0,88.0 342.0,99.0 349.0,104.0 344.0,117.0 350.0,119.0 347.0,128.0 358.0,126.0 353.0,137.0 358.0,140.0 363.0,130.0 348.0,103.0 355.0,97.0" fill="#b3c7ac" />
<polygon points="238.0,9.0 227.0,19.0 218.0,12.0 208.0,19.0 224.0,22.0 219.0,45.0 229.0,53.0 242.0,45.0 247.0,17.0 230.0,30.0" fill="#e8adad" opacity="0.95" />
<polygon points="89.0,206.0 86.0,228.0 90.0,235.0 101.0,226.0 121.0,240.0 135.0,233.0 122.0,219.0 97.0,223.0 101.0,207.0" fill="#a97676" opacity="0.95" />
<polygon points="268.0,141.0 260.0,152.0 266.0,161.0 261.0,165.0 252.0,161.0 225.0,190.0 249.0,191.0 270.0,173.0" fill="#354420" opacity="0.95" />
<polygon points="160.0,125.0 151.0,133.0 143.0,130.0 140.0,141.0 150.0,162.0 159.0,168.0 151.0,178.0 165.0,184.0 166.0,135.0" fill="#354420" opacity="0.95" />
<polygon points="302.0,133.0 295.0,157.0 307.0,171.0 312.0,140.0" fill="#b3c7ac" opacity="0.95" />
<polygon points="236.0,103.0 247.0,108.0 263.0,124.0 273.0,148.0 273.0,137.0 265.0,115.0 252.0,105.0" fill="#341c20" />
<polygon points="313.0,127.0 311.0,134.0 323.0,140.0 332.0,161.0 319.0,196.0 333.0,197.0 345.0,169.0 339.0,143.0" fill="#a97676" opacity="0.95" />
<polygon points="199.0,129.0 193.0,180.0 195.0,193.0 199.0,192.0 198.0,180.0 201.0,177.0 199.0,151.0 202.0,131.0" fill="#fbfaf9" />
<polygon points="123.0,262.0 141.0,271.0 150.0,281.0 160.0,278.0 147.0,268.0 147.0,264.0 138.0,257.0 133.0,265.0" fill="#b8aa8a" />
<polygon points="355.0,125.0 345.0,130.0 341.0,161.0 346.0,164.0 343.0,180.0 361.0,147.0 352.0,139.0" fill="#b8aa8a" opacity="0.95" />
<polygon points="128.0,195.0 128.0,206.0 149.0,235.0 173.0,249.0 189.0,247.0 190.0,239.0 177.0,239.0 154.0,224.0 134.0,195.0" fill="#5f342d" opacity="0.95" />
<polygon points="328.0,213.0 302.0,234.0 273.0,246.0 277.0,249.0 316.0,230.0" fill="#b8aa8a" />
<polygon points="290.0,151.0 286.0,184.0 266.0,215.0 268.0,219.0 284.0,212.0 282.0,205.0 292.0,190.0 294.0,166.0" fill="#354420" opacity="0.95" />
<polygon points="283.0,254.0 232.0,268.0 273.0,261.0" fill="#fbfaf9" />
<polygon points="86.0,214.0 86.0,228.0 92.0,236.0 102.0,227.0 121.0,240.0 135.0,233.0 124.0,220.0 99.0,225.0 98.0,210.0 93.0,207.0" fill="#a97676" opacity="0.95" />
<polygon points="133.0,290.0 132.0,300.0 135.0,305.0 143.0,311.0 153.0,313.0 153.0,295.0 138.0,288.0" fill="#5f342d" opacity="0.95" />
<polygon points="223.0,222.0 219.0,220.0 206.0,227.0 203.0,231.0 202.0,237.0 206.0,238.0 213.0,234.0 222.0,226.0" fill="#354420" />
<polygon points="317.0,75.0 320.0,79.0 313.0,88.0 311.0,94.0 303.0,101.0 301.0,97.0" fill="#e8adad" />
<polygon points="353.0,126.0 345.0,130.0 341.0,160.0 349.0,171.0 361.0,147.0 353.0,139.0 356.0,130.0" fill="#b8aa8a" opacity="0.95" />
<polygon points="160.0,249.0 136.0,259.0 130.0,267.0 151.0,281.0 159.0,279.0 147.0,268.0 145.0,260.0 161.0,254.0" fill="#b8aa8a" opacity="0.95" />
<polygon points="243.0,0.0 244.0,3.0 256.0,9.0 283.0,9.0 278.0,0.0" fill="#7c861c" opacity="0.95" />
<polygon points="236.0,261.0 207.0,272.0 194.0,265.0 187.0,272.0 159.0,270.0 184.0,279.0 197.0,272.0 222.0,272.0" fill="#b3c7ac" opacity="0.95" />
<polygon points="180.0,95.0 170.0,92.0 157.0,96.0 137.0,115.0 137.0,125.0 142.0,124.0 149.0,112.0" fill="#7c861c" opacity="0.95" />
<polygon points="348.0,68.0 340.0,76.0 341.0,83.0 345.0,85.0 342.0,99.0 346.0,103.0 354.0,98.0 351.0,92.0 354.0,81.0" fill="#b3c7ac" opacity="0.95" />
<polygon points="199.0,4.0 194.0,14.0 193.0,42.0 196.0,36.0 196.0,15.0 200.0,9.0" fill="#e8adad" />
<polygon points="138.0,236.0 135.0,234.0 122.0,245.0 116.0,238.0 116.0,242.0 108.0,247.0 111.0,249.0 122.0,246.0 133.0,255.0 134.0,252.0 126.0,246.0 135.0,245.0" fill="#b8aa8a" />
<polygon points="198.0,250.0 193.0,253.0 190.0,259.0 190.0,265.0 186.0,270.0 187.0,271.0 200.0,257.0" fill="#b8aa8a" />
<polygon points="152.0,266.0 170.0,284.0 177.0,279.0 176.0,277.0 171.0,277.0 158.0,271.0 153.0,265.0" fill="#fbfaf9" />
<polygon points="177.0,95.0 170.0,92.0 158.0,96.0 137.0,115.0 136.0,121.0 142.0,123.0 150.0,111.0" fill="#7c861c" opacity="0.95" />
<polygon points="243.0,0.0 246.0,4.0 256.0,9.0 279.0,9.0 282.0,7.0 278.0,0.0" fill="#7c861c" opacity="0.95" />
<polygon points="154.0,250.0 144.0,258.0 137.0,259.0 133.0,265.0 151.0,281.0 158.0,279.0 147.0,268.0 147.0,262.0 157.0,254.0" fill="#b8aa8a" opacity="0.95" />
<polygon points="138.0,250.0 150.0,260.0 157.0,254.0 160.0,255.0 162.0,252.0 161.0,249.0 154.0,250.0 150.0,253.0 143.0,253.0 139.0,249.0" fill="#b8aa8a" />
<polygon points="226.0,272.0 218.0,275.0 195.0,274.0 203.0,278.0 213.0,278.0" fill="#fbfaf9" />
<polygon points="91.0,244.0 88.0,241.0 88.0,238.0 84.0,237.0 73.0,243.0 68.0,243.0 67.0,245.0 71.0,246.0 75.0,244.0" fill="#7c861c" />
<polygon points="198.0,162.0 196.0,163.0 193.0,189.0 196.0,193.0 199.0,192.0 198.0,180.0 200.0,178.0 200.0,163.0" fill="#fbfaf9" opacity="0.95" />
<polygon points="337.0,53.0 335.0,53.0 330.0,62.0 331.0,63.0 334.0,63.0 338.0,59.0 338.0,56.0 339.0,55.0" fill="#fbfaf9" />
<polygon points="161.0,274.0 161.0,276.0 171.0,284.0 176.0,280.0 176.0,278.0 168.0,276.0 163.0,273.0" fill="#fbfaf9" opacity="0.95" />
<polygon points="197.0,243.0 195.0,243.0 193.0,245.0 193.0,248.0 192.0,249.0 192.0,251.0 193.0,252.0 196.0,249.0 198.0,249.0 199.0,250.0 200.0,249.0 200.0,246.0" fill="#a97676" />
<polygon points="336.0,53.0 334.0,54.0 331.0,60.0 331.0,62.0 333.0,63.0 337.0,61.0 338.0,59.0 338.0,54.0" fill="#fbfaf9" opacity="0.95" />
</svg>