<svg xmlns="http://www.w3.org/2000/svg" width="768" height="768" viewBox="0 0 384 384">
<rect width="384" height="384" fill="#88634a"/>
<polygon points="0.0,0.0 0.0,383.0 383.0,383.0 383.0,0.0" fill="#905d4d" />
<polygon points="0.0,0.0 0.0,383.0 383.0,383.0 383.0,0.0" fill="#905d4d" opacity="0.95" />
<polygon points="0.0,0.0 0.0,383.0 383.0,383.0 383.0,0.0" fill="#905d4d" opacity="0.95" />
<polygon points="109.0,38.0 186.0,171.0 236.0,74.0 207.0,35.0 269.0,63.0 245.0,225.0 283.0,315.0 210.0,286.0 202.0,317.0 167.0,309.0" fill="#905d4d" />
<polygon points="221.0,32.0 275.0,77.0 245.0,225.0 288.0,310.0 215.0,293.0 181.0,323.0 108.0,56.0 186.0,165.0 236.0,74.0" fill="#905d4d" opacity="0.95" />
<polygon points="231.0,36.0 275.0,77.0 245.0,225.0 288.0,310.0 216.0,295.0 182.0,323.0 136.0,236.0 108.0,55.0 187.0,163.0" fill="#905d4d" opacity="0.95" />
<polygon points="128.0,71.0 197.0,318.0 212.0,294.0 186.0,230.0 182.0,156.0" fill="#453327" />
<polygon points="254.0,53.0 220.0,224.0 277.0,317.0 287.0,307.0 245.0,238.0 276.0,94.0" fill="#453327" />
<polygon points="240.0,48.0 244.0,85.0 195.0,220.0 188.0,171.0 185.0,216.0 210.0,283.0 259.0,317.0 210.0,229.0 248.0,92.0" fill="#5daf29" />
<polygon points="247.0,68.0 188.0,171.0 185.0,216.0 210.0,283.0 258.0,317.0 210.0,229.0" fill="#5daf29" opacity="0.95" />
<polygon points="131.0,71.0 197.0,318.0 212.0,294.0 186.0,230.0 182.0,156.0" fill="#453327" opacity="0.95" />
<polygon points="254.0,53.0 220.0,224.0 276.0,317.0 287.0,307.0 245.0,238.0 276.0,94.0" fill="#453327" opacity="0.95" />
<polygon points="246.0,75.0 187.0,174.0 185.0,216.0 210.0,283.0 258.0,317.0 210.0,229.0" fill="#5daf29" opacity="0.95" />
<polygon points="132.0,71.0 197.0,318.0 212.0,294.0 186.0,230.0 182.0,156.0" fill="#453327" opacity="0.95" />
<polygon points="256.0,53.0 220.0,224.0 278.0,316.0 287.0,307.0 245.0,238.0 276.0,94.0" fill="#453327" opacity="0.95" />
<polygon points="245.0,52.0 211.0,229.0 263.0,315.0 215.0,226.0 252.0,93.0" fill="#258108" />
<polygon points="138.0,213.0 142.0,246.0 159.0,283.0 163.0,275.0 174.0,274.0 169.0,255.0 148.0,242.0 142.0,227.0 151.0,220.0" fill="#5daf29" />
<polygon points="120.0,120.0 137.0,229.0 136.0,196.0 154.0,195.0 132.0,180.0" fill="#8da753" />
<polygon points="121.0,90.0 120.0,114.0 128.0,149.0 139.0,141.0 139.0,130.0 132.0,113.0 132.0,102.0" fill="#c6d3ae" />
<polygon points="236.0,84.0 218.0,110.0 207.0,144.0 229.0,107.0" fill="#5daf29" />
<polygon points="129.0,151.0 134.0,180.0 153.0,190.0 150.0,178.0 144.0,171.0 144.0,165.0" fill="#c6d3ae" />
<polygon points="213.0,117.0 200.0,137.0 191.0,168.0 203.0,157.0" fill="#abc982" />
<polygon points="138.0,197.0 139.0,208.0 144.0,215.0 158.0,212.0 157.0,198.0 151.0,199.0" fill="#c6d3ae" />
<polygon points="140.0,217.0 142.0,246.0 159.0,282.0 174.0,272.0 165.0,260.0 168.0,253.0 150.0,244.0 141.0,229.0 149.0,218.0" fill="#5daf29" opacity="0.95" />
<polygon points="173.0,287.0 173.0,290.0 165.0,293.0 164.0,297.0 171.0,310.0 182.0,317.0 181.0,305.0" fill="#5daf29" />
<polygon points="122.0,133.0 127.0,185.0 136.0,213.0 136.0,197.0 153.0,194.0 134.0,184.0" fill="#8da753" opacity="0.95" />
<polygon points="135.0,105.0 142.0,143.0 137.0,150.0 144.0,155.0 146.0,146.0 152.0,148.0" fill="#258108" />
<polygon points="122.0,72.0 146.0,128.0 132.0,86.0" fill="#21640b" />
<polygon points="122.0,97.0 121.0,119.0 132.0,124.0 131.0,128.0 124.0,129.0 129.0,145.0 139.0,142.0 139.0,130.0 132.0,102.0" fill="#c6d3ae" opacity="0.95" />
<polygon points="129.0,154.0 135.0,182.0 152.0,188.0 150.0,178.0 144.0,171.0 144.0,165.0 136.0,156.0" fill="#c6d3ae" opacity="0.95" />
<polygon points="224.0,250.0 233.0,276.0 266.0,309.0 233.0,272.0" fill="#21640b" />
<polygon points="138.0,198.0 139.0,208.0 143.0,214.0 145.0,215.0 158.0,212.0 158.0,199.0" fill="#c6d3ae" opacity="0.95" />
<polygon points="139.0,219.0 146.0,256.0 160.0,258.0 152.0,265.0 156.0,276.0 172.0,274.0 162.0,248.0 148.0,242.0 142.0,229.0 147.0,220.0" fill="#5daf29" opacity="0.95" />
<polygon points="207.0,127.0 193.0,154.0 193.0,165.0 203.0,157.0 205.0,139.0 209.0,131.0" fill="#abc982" opacity="0.95" />
<polygon points="155.0,157.0 156.0,177.0 164.0,195.0" fill="#21640b" />
<polygon points="164.0,294.0 172.0,312.0 181.0,314.0 181.0,305.0 176.0,292.0 170.0,291.0" fill="#5daf29" opacity="0.95" />
<polygon points="124.0,99.0 120.0,114.0 122.0,120.0 132.0,124.0 124.0,130.0 129.0,145.0 139.0,141.0 139.0,130.0 132.0,113.0 133.0,105.0" fill="#c6d3ae" opacity="0.95" />
<polygon points="149.0,263.0 151.0,275.0 162.0,296.0 161.0,288.0 165.0,279.0 163.0,276.0 159.0,284.0" fill="#8da753" />
<polygon points="131.0,156.0 134.0,180.0 142.0,186.0 151.0,187.0 152.0,184.0 144.0,171.0 144.0,165.0 136.0,156.0" fill="#c6d3ae" opacity="0.95" />
<polygon points="138.0,199.0 139.0,208.0 143.0,213.0 148.0,214.0 158.0,211.0 157.0,199.0 141.0,197.0" fill="#c6d3ae" opacity="0.95" />
<polygon points="123.0,68.0 143.0,113.0 134.0,85.0" fill="#204411" />
<polygon points="225.0,246.0 234.0,272.0 250.0,290.0 231.0,263.0" fill="#204411" />
<polygon points="209.0,34.0 210.0,36.0 222.0,37.0 228.0,41.0 232.0,38.0 221.0,33.0" fill="#687630" />
<polygon points="240.0,80.0 238.0,82.0 237.0,89.0 233.0,97.0 234.0,99.0 240.0,92.0 243.0,85.0" fill="#abc982" />
<polygon points="170.0,291.0 164.0,295.0 165.0,300.0 171.0,310.0 179.0,314.0 182.0,312.0 179.0,299.0 175.0,292.0" fill="#5daf29" opacity="0.95" />
<polygon points="157.0,229.0 155.0,235.0 150.0,240.0 151.0,241.0 154.0,238.0 156.0,238.0 162.0,246.0 163.0,237.0 161.0,234.0 161.0,230.0" fill="#c6d3ae" />
<polygon points="109.0,39.0 108.0,40.0 108.0,53.0 110.0,61.0 112.0,62.0 114.0,58.0 111.0,52.0" fill="#687630" />
<polygon points="202.0,138.0 199.0,140.0 193.0,154.0 192.0,161.0 195.0,163.0 200.0,161.0 204.0,154.0 205.0,140.0" fill="#abc982" opacity="0.95" />
<polygon points="141.0,122.0 139.0,123.0 141.0,146.0 138.0,151.0 142.0,155.0 144.0,154.0 144.0,148.0 149.0,143.0 144.0,125.0" fill="#258108" opacity="0.95" />
<polygon points="127.0,181.0 131.0,196.0 138.0,194.0 149.0,197.0 152.0,195.0 150.0,191.0 136.0,186.0 132.0,180.0" fill="#8da753" opacity="0.95" />
<polygon points="153.0,216.0 150.0,217.0 153.0,222.0 153.0,225.0 148.0,230.0 149.0,235.0 152.0,229.0 160.0,224.0 154.0,219.0" fill="#8da753" />
<polygon points="255.0,70.0 252.0,94.0 253.0,97.0 251.0,99.0 252.0,101.0 256.0,85.0" fill="#21640b" />
<polygon points="239.0,62.0 238.0,63.0 238.0,68.0 240.0,70.0 239.0,73.0 242.0,77.0 243.0,76.0 241.0,74.0 245.0,68.0 245.0,65.0 243.0,63.0" fill="#abc982" />
<polygon points="151.0,224.0 148.0,222.0 144.0,225.0 143.0,229.0 144.0,230.0 147.0,230.0 151.0,226.0" fill="#258108" />
<polygon points="172.0,245.0 171.0,249.0 174.0,256.0 174.0,261.0 178.0,268.0 179.0,267.0" fill="#21640b" />
<polygon points="192.0,205.0 190.0,208.0 190.0,210.0 192.0,214.0 192.0,220.0 193.0,221.0 194.0,220.0 194.0,209.0 192.0,207.0 193.0,206.0" fill="#abc982" />
<polygon points="155.0,255.0 153.0,257.0 153.0,260.0 155.0,262.0 157.0,262.0 159.0,260.0 159.0,258.0 157.0,255.0" fill="#abc982" />
<polygon points="154.0,214.0 153.0,215.0 155.0,217.0 155.0,219.0 160.0,223.0 161.0,222.0 160.0,221.0 160.0,217.0 158.0,214.0" fill="#abc982" />
<polygon points="174.0,242.0 174.0,250.0 179.0,260.0 178.0,263.0 180.0,267.0 180.0,261.0 178.0,259.0 179.0,257.0" fill="#204411" />
<polygon points="153.0,172.0 151.0,173.0 152.0,181.0 156.0,190.0 159.0,191.0 160.0,188.0 156.0,180.0 155.0,173.0" fill="#258108" opacity="0.95" />
<polygon points="146.0,166.0 145.0,167.0 145.0,171.0 149.0,175.0 150.0,174.0 150.0,169.0 148.0,167.0 147.0,167.0" fill="#abc982" />
<polygon points="171.0,276.0 167.0,276.0 165.0,278.0 166.0,279.0 165.0,280.0 166.0,283.0 162.0,288.0 163.0,289.0 168.0,285.0 168.0,281.0 172.0,277.0" fill="#abc982" />
<polygon points="231.0,40.0 230.0,42.0 236.0,49.0 238.0,47.0 237.0,46.0 239.0,44.0 237.0,42.0 235.0,44.0 233.0,42.0 234.0,41.0 233.0,40.0" fill="#8da753" />
<polygon points="218.0,34.0 218.0,36.0 222.0,37.0 228.0,41.0 231.0,39.0 231.0,37.0 221.0,33.0" fill="#687630" opacity="0.95" />
<polygon points="144.0,135.0 141.0,137.0 142.0,146.0 138.0,149.0 138.0,151.0 141.0,153.0 144.0,151.0 144.0,148.0 148.0,145.0 147.0,137.0" fill="#258108" opacity="0.95" />
<polygon points="220.0,248.0 218.0,249.0 218.0,251.0 222.0,261.0 224.0,262.0 226.0,261.0 226.0,259.0 222.0,249.0" fill="#258108" opacity="0.95" />
<polygon points="213.0,223.0 211.0,224.0 211.0,229.0 213.0,233.0 215.0,234.0 217.0,233.0 217.0,230.0 215.0,224.0" fill="#258108" opacity="0.95" />
<polygon points="179.0,284.0 178.0,286.0 184.0,296.0 183.0,297.0 184.0,300.0 185.0,299.0 185.0,297.0 183.0,295.0 184.0,293.0" fill="#21640b" />
<polygon points="151.0,224.0 149.0,223.0 145.0,224.0 143.0,227.0 143.0,229.0 145.0,230.0 148.0,229.0 151.0,226.0" fill="#258108" opacity="0.95" />
<polygon points="177.0,270.0 175.0,271.0 175.0,274.0 176.0,275.0 176.0,280.0 178.0,281.0 180.0,280.0 181.0,276.0 179.0,271.0" fill="#258108" opacity="0.95" />
<polygon points="182.0,281.0 181.0,282.0 181.0,286.0 185.0,291.0 184.0,292.0 185.0,293.0 186.0,292.0 184.0,290.0 185.0,289.0 183.0,286.0 183.0,282.0" fill="#204411" />
<polygon points="111.0,55.0 109.0,56.0 109.0,58.0 110.0,60.0 112.0,61.0 114.0,60.0 114.0,58.0 113.0,56.0" fill="#687630" opacity="0.95" />
<polygon points="255.0,293.0 254.0,294.0 255.0,295.0 255.0,297.0 258.0,300.0 260.0,300.0 261.0,299.0 260.0,298.0 259.0,298.0 256.0,295.0 256.0,294.0" fill="#204411" />
<polygon points="155.0,221.0 154.0,222.0 153.0,222.0 153.0,225.0 156.0,226.0 157.0,225.0 158.0,225.0 158.0,223.0" fill="#8da753" opacity="0.95" />
<polygon points="160.0,283.0 157.0,285.0 157.0,287.0 158.0,287.0 159.0,288.0 162.0,287.0 162.0,284.0 161.0,284.0" fill="#8da753" opacity="0.95" />
<polygon points="165.0,208.0 164.0,209.0 164.0,211.0 166.0,213.0 165.0,217.0 168.0,221.0 167.0,222.0 168.0,223.0 169.0,222.0 167.0,220.0 168.0,219.0 167.0,218.0 167.0,214.0 165.0,212.0 166.0,211.0" fill="#21640b" />
</svg>