<svg xmlns="http://www.w3.org/2000/svg" width="768" height="768" viewBox="0 0 384 384">
<rect width="384" height="384" fill="#916b59"/>
<polygon points="0.0,130.0 0.0,288.0 131.0,286.0 135.0,243.0 183.0,242.0 191.0,260.0 255.0,233.0 246.0,179.0 190.0,132.0" fill="#a28b82" />
<polygon points="0.0,130.0 0.0,288.0 130.0,286.0 138.0,242.0 183.0,242.0 191.0,260.0 255.0,233.0 246.0,179.0 190.0,132.0" fill="#a28b82" opacity="0.95" />
<polygon points="183.0,129.0 245.0,176.0 257.0,215.0 243.0,250.0 187.0,258.0 187.0,279.0 303.0,282.0 346.0,265.0 359.0,200.0 304.0,129.0" fill="#887269" />
<polygon points="133.0,0.0 133.0,49.0 156.0,99.0 242.0,100.0 244.0,62.0 267.0,70.0 270.0,109.0 342.0,120.0 342.0,57.0 337.0,69.0 280.0,39.0 291.0,0.0" fill="#e25807" />
<polygon points="383.0,130.0 306.0,130.0 367.0,224.0 340.0,271.0 2.0,288.0 0.0,316.0 290.0,315.0 279.0,290.0 381.0,284.0" fill="#6c554e" />
<polygon points="268.0,325.0 2.0,324.0 3.0,383.0 154.0,383.0 155.0,331.0 212.0,331.0 214.0,383.0 262.0,383.0" fill="#a28b82" />
<polygon points="0.0,130.0 0.0,288.0 129.0,286.0 138.0,242.0 182.0,242.0 191.0,260.0 255.0,233.0 246.0,179.0 190.0,132.0" fill="#a28b82" opacity="0.95" />
<polygon points="0.0,43.0 2.0,125.0 344.0,124.0 141.0,84.0 151.0,100.0 125.0,119.0 76.0,117.0 98.0,95.0 59.0,84.0 71.0,43.0" fill="#5c3e39" />
<polygon points="189.0,129.0 247.0,179.0 256.0,233.0 186.0,261.0 186.0,277.0 279.0,284.0 346.0,265.0 366.0,224.0 305.0,130.0" fill="#887269" opacity="0.95" />
<polygon points="0.0,0.0 0.0,31.0 13.0,35.0 132.0,34.0 129.0,0.0" fill="#887269" />
<polygon points="133.0,0.0 133.0,49.0 155.0,98.0 242.0,100.0 246.0,64.0 267.0,70.0 269.0,108.0 342.0,120.0 342.0,68.0 281.0,41.0 291.0,0.0" fill="#e25807" opacity="0.95" />
<polygon points="383.0,130.0 309.0,129.0 367.0,224.0 340.0,271.0 3.0,288.0 0.0,317.0 267.0,321.0 284.0,289.0 380.0,284.0" fill="#6c554e" opacity="0.95" />
<polygon points="359.0,326.0 269.0,327.0 264.0,348.0 270.0,366.0 263.0,383.0 371.0,383.0 355.0,337.0" fill="#887269" />
<polygon points="192.0,130.0 247.0,179.0 256.0,233.0 187.0,276.0 279.0,284.0 346.0,265.0 366.0,224.0 304.0,130.0" fill="#887269" opacity="0.95" />
<polygon points="213.0,334.0 155.0,333.0 154.0,381.0 211.0,383.0" fill="#26201d" />
<polygon points="0.0,35.0 73.0,44.0 60.0,80.0 99.0,95.0 80.0,98.0 76.0,116.0 125.0,118.0 147.0,103.0 131.0,36.0" fill="#6c554e" />
<polygon points="267.0,324.0 3.0,324.0 0.0,368.0 3.0,383.0 153.0,383.0 154.0,332.0 211.0,331.0 214.0,383.0 262.0,383.0" fill="#a28b82" opacity="0.95" />
<polygon points="134.0,245.0 133.0,293.0 185.0,292.0 183.0,243.0" fill="#d67b59" />
<polygon points="133.0,0.0 133.0,49.0 155.0,98.0 241.0,100.0 244.0,68.0 262.0,66.0 269.0,108.0 342.0,119.0 342.0,70.0 281.0,41.0 291.0,0.0" fill="#e25807" opacity="0.95" />
<polygon points="0.0,43.0 3.0,125.0 334.0,124.0 247.0,101.0 76.0,117.0 98.0,95.0 59.0,83.0 70.0,46.0" fill="#5c3e39" opacity="0.95" />
<polygon points="381.0,15.0 337.0,34.0 353.0,41.0 347.0,125.0 383.0,123.0" fill="#26201d" />
<polygon points="383.0,287.0 278.0,293.0 295.0,309.0 285.0,321.0 381.0,321.0" fill="#5c3e39" />
<polygon points="267.0,325.0 4.0,324.0 0.0,383.0 153.0,383.0 157.0,331.0 210.0,331.0 214.0,383.0 262.0,383.0" fill="#a28b82" opacity="0.95" />
<polygon points="358.0,326.0 268.0,328.0 263.0,383.0 371.0,383.0 355.0,337.0" fill="#887269" opacity="0.95" />
<polygon points="290.0,311.0 283.0,284.0 190.0,278.0 211.0,289.0 192.0,296.0 0.0,290.0 7.0,320.0" fill="#6c554e" opacity="0.95" />
<polygon points="0.0,43.0 4.0,125.0 324.0,123.0 247.0,101.0 76.0,117.0 98.0,95.0 59.0,82.0 65.0,46.0" fill="#5c3e39" opacity="0.95" />
<polygon points="0.0,0.0 0.0,31.0 13.0,35.0 132.0,34.0 129.0,0.0" fill="#887269" opacity="0.95" />
<polygon points="357.0,326.0 270.0,327.0 263.0,383.0 371.0,383.0" fill="#887269" opacity="0.95" />
<polygon points="293.0,31.0 330.0,36.0 359.0,27.0 383.0,12.0 383.0,0.0 323.0,0.0 305.0,14.0 293.0,14.0" fill="#5c3e39" />
<polygon points="37.0,38.0 72.0,44.0 60.0,80.0 99.0,95.0 76.0,102.0 74.0,115.0 125.0,117.0 145.0,103.0 132.0,37.0" fill="#6c554e" opacity="0.95" />
<polygon points="213.0,334.0 154.0,334.0 154.0,381.0 211.0,383.0" fill="#26201d" opacity="0.95" />
<polygon points="134.0,245.0 132.0,292.0 185.0,292.0 185.0,244.0" fill="#d67b59" opacity="0.95" />
<polygon points="313.0,128.0 367.0,228.0 342.0,270.0 291.0,286.0 379.0,284.0 383.0,130.0" fill="#6c554e" opacity="0.95" />
<polygon points="0.0,0.0 0.0,31.0 13.0,35.0 132.0,33.0 129.0,0.0" fill="#887269" opacity="0.95" />
<polygon points="380.0,16.0 338.0,34.0 353.0,41.0 347.0,125.0 383.0,123.0" fill="#26201d" opacity="0.95" />
<polygon points="383.0,319.0 380.0,285.0 279.0,292.0 294.0,307.0 289.0,321.0" fill="#5c3e39" opacity="0.95" />
<polygon points="61.0,38.0 69.0,49.0 60.0,80.0 99.0,95.0 76.0,102.0 74.0,115.0 124.0,117.0 145.0,101.0 131.0,37.0" fill="#6c554e" opacity="0.95" />
<polygon points="213.0,334.0 155.0,334.0 156.0,383.0 211.0,383.0" fill="#26201d" opacity="0.95" />
<polygon points="281.0,39.0 293.0,48.0 339.0,55.0 351.0,41.0 293.0,33.0" fill="#d67b59" />
<polygon points="133.0,247.0 133.0,292.0 185.0,291.0 184.0,244.0 138.0,243.0" fill="#d67b59" opacity="0.95" />
<polygon points="363.0,324.0 356.0,337.0 369.0,359.0 372.0,381.0 383.0,383.0 383.0,326.0" fill="#6c554e" />
<polygon points="383.0,319.0 383.0,287.0 280.0,293.0 294.0,307.0 289.0,317.0 292.0,321.0" fill="#5c3e39" opacity="0.95" />
<polygon points="379.0,16.0 341.0,33.0 353.0,41.0 355.0,62.0 345.0,104.0 347.0,125.0 383.0,123.0" fill="#26201d" opacity="0.95" />
<polygon points="293.0,32.0 330.0,36.0 359.0,27.0 383.0,13.0 383.0,0.0 322.0,0.0 309.0,12.0 293.0,16.0" fill="#5c3e39" opacity="0.95" />
<polygon points="244.0,63.0 248.0,80.0 247.0,100.0 267.0,90.0 267.0,74.0 263.0,67.0 251.0,68.0" fill="#993f0f" />
<polygon points="293.0,31.0 330.0,36.0 359.0,27.0 383.0,13.0 383.0,0.0 322.0,0.0 309.0,12.0 293.0,17.0" fill="#5c3e39" opacity="0.95" />
<polygon points="282.0,38.0 294.0,48.0 340.0,55.0 350.0,43.0 348.0,39.0 293.0,33.0" fill="#d67b59" opacity="0.95" />
<polygon points="351.0,44.0 344.0,55.0 345.0,99.0 351.0,88.0 354.0,70.0" fill="#5c3e39" />
<polygon points="364.0,324.0 359.0,327.0 356.0,337.0 369.0,359.0 371.0,379.0 375.0,383.0 383.0,383.0 383.0,326.0" fill="#6c554e" opacity="0.95" />
<polygon points="282.0,38.0 294.0,48.0 340.0,55.0 350.0,43.0 347.0,39.0 293.0,33.0" fill="#d67b59" opacity="0.95" />
<polygon points="262.0,67.0 244.0,67.0 248.0,80.0 248.0,99.0 267.0,91.0 267.0,74.0" fill="#993f0f" opacity="0.95" />
<polygon points="364.0,324.0 358.0,329.0 357.0,339.0 369.0,359.0 371.0,379.0 374.0,383.0 383.0,383.0 383.0,326.0" fill="#6c554e" opacity="0.95" />
<polygon points="262.0,67.0 245.0,69.0 248.0,80.0 246.0,97.0 249.0,99.0 267.0,90.0 267.0,74.0" fill="#993f0f" opacity="0.95" />
<polygon points="267.0,94.0 265.0,93.0 250.0,101.0 252.0,103.0 266.0,101.0" fill="#26201d" />
<polygon points="112.0,287.0 113.0,288.0 123.0,289.0 128.0,293.0 131.0,292.0 131.0,288.0 128.0,286.0 113.0,286.0" fill="#887269" />
<polygon points="267.0,94.0 265.0,93.0 251.0,100.0 251.0,102.0 256.0,103.0 267.0,100.0" fill="#26201d" opacity="0.95" />
<polygon points="337.0,55.0 334.0,55.0 333.0,56.0 333.0,59.0 331.0,62.0 331.0,63.0 333.0,65.0 338.0,59.0 338.0,56.0" fill="#f3e9ea" />
<polygon points="267.0,96.0 263.0,94.0 257.0,97.0 256.0,100.0 259.0,102.0 262.0,102.0 267.0,99.0" fill="#26201d" opacity="0.95" />
<polygon points="0.0,371.0 0.0,383.0 1.0,382.0 0.0,380.0 2.0,378.0 2.0,376.0 3.0,375.0" fill="#beb1af" />
<polygon points="336.0,55.0 333.0,56.0 333.0,59.0 332.0,60.0 332.0,63.0 334.0,64.0 336.0,63.0 338.0,59.0 338.0,56.0" fill="#f3e9ea" opacity="0.95" />
</svg>