<svg xmlns="http://www.w3.org/2000/svg" width="768" height="768" viewBox="0 0 384 384">
<rect width="384" height="384" fill="#886348"/>
<polygon points="5.0,53.0 280.0,65.0 194.0,78.0 278.0,112.0 301.0,188.0 159.0,221.0 205.0,271.0 113.0,308.0 166.0,323.0 107.0,383.0 383.0,383.0 383.0,0.0" fill="#7a5039" />
<polygon points="2.0,104.0 0.0,318.0 73.0,322.0 2.0,324.0 0.0,383.0 106.0,383.0 165.0,323.0 111.0,308.0 202.0,270.0 128.0,189.0 127.0,111.0" fill="#9f745e" />
<polygon points="8.0,55.0 271.0,65.0 197.0,82.0 278.0,112.0 301.0,188.0 160.0,222.0 204.0,272.0 122.0,298.0 162.0,325.0 107.0,383.0 383.0,383.0 383.0,0.0" fill="#7a5039" opacity="0.95" />
<polygon points="0.0,0.0 5.0,98.0 275.0,65.0 12.0,61.0 229.0,24.0" fill="#9f745e" />
<polygon points="5.0,103.0 0.0,383.0 105.0,383.0 161.0,324.0 121.0,298.0 201.0,269.0 128.0,189.0 128.0,114.0" fill="#9f745e" opacity="0.95" />
<polygon points="8.0,55.0 259.0,63.0 197.0,82.0 293.0,139.0 262.0,228.0 160.0,223.0 203.0,272.0 123.0,299.0 161.0,325.0 108.0,383.0 383.0,383.0 383.0,0.0" fill="#7a5039" opacity="0.95" />
<polygon points="0.0,0.0 0.0,383.0 106.0,383.0 159.0,325.0 122.0,299.0 201.0,270.0 124.0,120.0 6.0,100.0 262.0,66.0 12.0,61.0 226.0,24.0" fill="#9f745e" opacity="0.95" />
<polygon points="230.0,105.0 192.0,150.0 162.0,105.0 150.0,107.0 133.0,159.0 157.0,200.0 193.0,215.0 237.0,187.0 249.0,149.0" fill="#c4dd90" />
<polygon points="0.0,0.0 5.0,98.0 270.0,67.0 12.0,61.0 228.0,23.0" fill="#9f745e" opacity="0.95" />
<polygon points="254.0,96.0 259.0,181.0 239.0,208.0 194.0,233.0 248.0,234.0 300.0,188.0 292.0,139.0" fill="#271c14" />
<polygon points="140.0,88.0 123.0,82.0 0.0,101.0 117.0,122.0" fill="#7a5039" />
<polygon points="230.0,105.0 192.0,149.0 162.0,105.0 150.0,107.0 133.0,159.0 157.0,200.0 192.0,215.0 237.0,187.0 249.0,149.0" fill="#c4dd90" opacity="0.95" />
<polygon points="152.0,122.0 172.0,132.0 195.0,188.0 216.0,140.0 218.0,180.0 228.0,120.0 234.0,176.0 203.0,199.0 168.0,193.0 146.0,164.0" fill="#c4dd90" />
<polygon points="230.0,105.0 191.0,150.0 163.0,107.0 150.0,107.0 133.0,159.0 157.0,200.0 192.0,214.0 237.0,187.0 249.0,149.0" fill="#c4dd90" opacity="0.95" />
<polygon points="193.0,78.0 169.0,108.0 191.0,143.0 212.0,104.0" fill="#9f032e" />
<polygon points="254.0,96.0 261.0,176.0 207.0,232.0 254.0,231.0 300.0,188.0 292.0,139.0" fill="#271c14" opacity="0.95" />
<polygon points="230.0,90.0 248.0,167.0 193.0,216.0 133.0,164.0 160.0,99.0 134.0,115.0 132.0,181.0 188.0,228.0 256.0,168.0" fill="#9ac460" />
<polygon points="139.0,87.0 0.0,101.0 116.0,122.0" fill="#7a5039" opacity="0.95" />
<polygon points="254.0,96.0 262.0,173.0 212.0,233.0 262.0,227.0 300.0,188.0 292.0,139.0" fill="#271c14" opacity="0.95" />
<polygon points="149.0,127.0 172.0,132.0 195.0,185.0 214.0,144.0 227.0,167.0 220.0,131.0 230.0,122.0 234.0,176.0 203.0,199.0 168.0,193.0 146.0,164.0" fill="#c4dd90" opacity="0.95" />
<polygon points="138.0,87.0 22.0,92.0 8.0,102.0 116.0,122.0" fill="#7a5039" opacity="0.95" />
<polygon points="149.0,127.0 172.0,132.0 194.0,177.0 216.0,147.0 228.0,164.0 220.0,131.0 230.0,122.0 234.0,176.0 203.0,199.0 168.0,193.0 146.0,164.0" fill="#c4dd90" opacity="0.95" />
<polygon points="230.0,90.0 248.0,167.0 192.0,216.0 133.0,164.0 160.0,99.0 134.0,115.0 132.0,181.0 188.0,228.0 256.0,168.0" fill="#9ac460" opacity="0.95" />
<polygon points="193.0,79.0 170.0,105.0 191.0,141.0 211.0,107.0" fill="#9f032e" opacity="0.95" />
<polygon points="216.0,141.0 213.0,152.0 197.0,176.0 198.0,192.0 211.0,187.0 221.0,173.0 221.0,152.0" fill="#d0ebbf" />
<polygon points="193.0,79.0 170.0,105.0 191.0,141.0 211.0,107.0" fill="#9f032e" opacity="0.95" />
<polygon points="164.0,131.0 165.0,181.0 175.0,189.0 189.0,192.0 170.0,157.0" fill="#73880e" />
<polygon points="230.0,90.0 250.0,158.0 225.0,200.0 184.0,213.0 127.0,161.0 141.0,198.0 188.0,228.0 214.0,221.0 256.0,168.0" fill="#9ac460" opacity="0.95" />
<polygon points="227.0,88.0 208.0,97.0 212.0,107.0 191.0,144.0 159.0,90.0 191.0,149.0" fill="#271c14" />
<polygon points="232.0,126.0 232.0,156.0 224.0,177.0 202.0,194.0 169.0,192.0 204.0,197.0 228.0,182.0 236.0,158.0" fill="#271c14" />
<polygon points="191.0,78.0 184.0,81.0 153.0,84.0 160.0,88.0 165.0,98.0 170.0,101.0" fill="#7a5039" />
<polygon points="166.0,129.0 171.0,157.0 186.0,186.0 194.0,192.0 190.0,175.0 178.0,161.0 171.0,132.0" fill="#9ac460" />
<polygon points="216.0,144.0 197.0,176.0 199.0,192.0 211.0,187.0 221.0,173.0 221.0,152.0" fill="#d0ebbf" opacity="0.95" />
<polygon points="141.0,91.0 124.0,127.0 121.0,161.0 132.0,195.0 158.0,217.0 136.0,198.0 123.0,168.0" fill="#3e5447" />
<polygon points="258.0,138.0 254.0,177.0 219.0,218.0 247.0,196.0 256.0,180.0 261.0,158.0" fill="#5b9647" />
<polygon points="167.0,151.0 165.0,181.0 169.0,186.0 185.0,191.0 187.0,188.0" fill="#73880e" opacity="0.95" />
<polygon points="126.0,163.0 137.0,198.0 185.0,229.0 140.0,198.0" fill="#5b9647" />
<polygon points="160.0,128.0 155.0,141.0 159.0,146.0 160.0,161.0 155.0,164.0 163.0,179.0 165.0,157.0" fill="#7a5039" />
<polygon points="233.0,127.0 224.0,177.0 200.0,195.0 169.0,192.0 198.0,198.0 228.0,182.0 236.0,158.0" fill="#271c14" opacity="0.95" />
<polygon points="217.0,148.0 197.0,176.0 197.0,190.0 200.0,192.0 211.0,187.0 221.0,173.0 221.0,152.0" fill="#d0ebbf" opacity="0.95" />
<polygon points="168.0,130.0 171.0,157.0 192.0,191.0 190.0,175.0 178.0,161.0 176.0,145.0" fill="#9ac460" opacity="0.95" />
<polygon points="153.0,93.0 143.0,97.0 136.0,109.0 128.0,137.0 130.0,149.0 149.0,107.0 160.0,101.0" fill="#9ac460" opacity="0.95" />
<polygon points="231.0,88.0 244.0,98.0 257.0,136.0 246.0,96.0 239.0,89.0" fill="#5b9647" />
<polygon points="186.0,82.0 162.0,82.0 156.0,84.0 156.0,86.0 163.0,91.0 165.0,98.0 170.0,101.0" fill="#7a5039" opacity="0.95" />
<polygon points="169.0,158.0 166.0,160.0 165.0,181.0 169.0,186.0 183.0,191.0 186.0,187.0 181.0,175.0" fill="#73880e" opacity="0.95" />
<polygon points="221.0,99.0 212.0,100.0 212.0,107.0 200.0,131.0 204.0,131.0" fill="#271c14" opacity="0.95" />
<polygon points="150.0,157.0 150.0,170.0 157.0,181.0 160.0,179.0 155.0,173.0" fill="#3e5447" />
<polygon points="160.0,135.0 155.0,141.0 159.0,146.0 160.0,161.0 156.0,167.0 163.0,177.0 165.0,176.0 163.0,137.0" fill="#7a5039" opacity="0.95" />
<polygon points="224.0,126.0 221.0,131.0 221.0,138.0 223.0,140.0 227.0,141.0 228.0,140.0 228.0,128.0" fill="#9ac460" />
<polygon points="250.0,101.0 252.0,115.0 259.0,131.0" fill="#3e5447" />
<polygon points="155.0,144.0 154.0,145.0 154.0,160.0 157.0,163.0 159.0,161.0 159.0,153.0 158.0,152.0 158.0,146.0" fill="#271c14" />
<polygon points="260.0,171.0 258.0,179.0 243.0,203.0 253.0,191.0" fill="#3e5447" />
<polygon points="234.0,163.0 229.0,164.0 224.0,177.0 211.0,189.0 212.0,192.0 218.0,191.0 228.0,182.0 234.0,170.0" fill="#271c14" opacity="0.95" />
<polygon points="162.0,218.0 181.0,230.0 185.0,230.0 169.0,219.0" fill="#3e5447" />
<polygon points="157.0,92.0 153.0,89.0 145.0,91.0 138.0,99.0 135.0,107.0 137.0,107.0 143.0,96.0 151.0,92.0" fill="#5b9647" />
<polygon points="181.0,166.0 178.0,170.0 182.0,174.0 186.0,186.0 190.0,189.0 193.0,187.0 190.0,175.0" fill="#9ac460" opacity="0.95" />
<polygon points="132.0,117.0 126.0,133.0 127.0,137.0 129.0,129.0 132.0,124.0 133.0,120.0" fill="#5b9647" />
<polygon points="225.0,127.0 221.0,131.0 221.0,138.0 226.0,141.0 228.0,140.0 228.0,128.0" fill="#9ac460" opacity="0.95" />
<polygon points="7.0,196.0 3.0,194.0 2.0,195.0 0.0,193.0 0.0,201.0" fill="#bfa899" />
<polygon points="126.0,139.0 124.0,146.0 125.0,149.0 124.0,159.0 126.0,161.0 127.0,160.0 126.0,156.0 127.0,155.0 126.0,151.0 127.0,140.0" fill="#5b9647" />
<polygon points="170.0,138.0 167.0,140.0 170.0,154.0 173.0,156.0 176.0,154.0 176.0,145.0 173.0,140.0" fill="#9ac460" opacity="0.95" />
<polygon points="156.0,145.0 154.0,146.0 154.0,160.0 157.0,162.0 159.0,161.0 159.0,153.0 158.0,152.0 158.0,146.0" fill="#271c14" opacity="0.95" />
<polygon points="240.0,87.0 239.0,88.0 246.0,95.0 247.0,94.0 245.0,90.0 241.0,87.0" fill="#3e5447" />
<polygon points="78.0,318.0 82.0,316.0 86.0,319.0 86.0,321.0 83.0,323.0 81.0,323.0 78.0,321.0" fill="#9f745e" opacity="0.95" />
<polygon points="165.0,184.0 162.0,187.0 163.0,188.0 164.0,187.0 167.0,189.0 169.0,187.0 167.0,185.0 166.0,185.0" fill="#3e5447" />
<polygon points="82.0,321.0 84.0,319.0 85.0,319.0 86.0,320.0 87.0,319.0 89.0,321.0 87.0,323.0 86.0,322.0 85.0,323.0 84.0,323.0" fill="#9f745e" />
<polygon points="262.0,158.0 261.0,159.0 261.0,164.0 260.0,165.0 260.0,168.0 261.0,169.0 262.0,168.0 262.0,164.0 263.0,163.0 263.0,159.0" fill="#3e5447" />
<polygon points="157.0,128.0 156.0,129.0 156.0,135.0 157.0,136.0 158.0,135.0 158.0,132.0 159.0,131.0" fill="#73880e" />
<polygon points="215.0,39.0 215.0,41.0 217.0,42.0 224.0,42.0 226.0,41.0 226.0,39.0 223.0,37.0 219.0,37.0" fill="#9f745e" opacity="0.95" />
<polygon points="260.0,133.0 259.0,134.0 259.0,138.0 260.0,139.0 260.0,142.0 261.0,143.0 262.0,142.0 262.0,139.0 261.0,138.0 261.0,134.0" fill="#3e5447" />
<polygon points="152.0,90.0 149.0,89.0 144.0,92.0 144.0,94.0 146.0,95.0 152.0,92.0" fill="#5b9647" opacity="0.95" />
<polygon points="5.0,195.0 4.0,195.0 3.0,194.0 2.0,195.0 1.0,194.0 0.0,194.0 0.0,201.0 4.0,198.0 5.0,198.0" fill="#bfa899" opacity="0.95" />
<polygon points="227.0,211.0 225.0,210.0 220.0,213.0 220.0,215.0 222.0,216.0 227.0,213.0" fill="#5b9647" opacity="0.95" />
<polygon points="1.0,194.0 0.0,194.0 0.0,201.0 1.0,200.0 2.0,200.0 4.0,198.0 4.0,196.0" fill="#bfa899" opacity="0.95" />
<polygon points="233.0,89.0 233.0,91.0 234.0,91.0 235.0,92.0 237.0,92.0 238.0,91.0 239.0,91.0 239.0,89.0 238.0,89.0 237.0,88.0 235.0,88.0 234.0,89.0" fill="#5b9647" opacity="0.95" />
</svg>