<svg xmlns="http://www.w3.org/2000/svg" width="768" height="768" viewBox="0 0 384 384">
<rect width="384" height="384" fill="#916f57"/>
<polygon points="364.0,122.0 207.0,78.0 168.0,195.0 104.0,152.0 145.0,94.0 47.0,126.0 122.0,258.0 302.0,226.0 293.0,159.0 351.0,180.0 275.0,112.0" fill="#b8a186" />
<polygon points="377.0,123.0 278.0,111.0 345.0,194.0 56.0,327.0 339.0,246.0" fill="#a78665" />
<polygon points="372.0,243.0 344.0,295.0 252.0,324.0 209.0,371.0 220.0,383.0 383.0,383.0" fill="#75544d" />
<polygon points="316.0,105.0 255.0,139.0 210.0,79.0 150.0,183.0 117.0,101.0 73.0,161.0 123.0,257.0 293.0,159.0 346.0,192.0" fill="#b8a186" opacity="0.95" />
<polygon points="378.0,126.0 279.0,113.0 346.0,193.0 56.0,327.0 325.0,253.0" fill="#a78665" opacity="0.95" />
<polygon points="372.0,248.0 324.0,309.0 249.0,326.0 219.0,358.0 218.0,380.0 383.0,383.0" fill="#75544d" opacity="0.95" />
<polygon points="352.0,277.0 39.0,383.0 108.0,383.0 132.0,354.0 205.0,383.0 210.0,349.0 231.0,359.0 249.0,325.0 323.0,309.0" fill="#492a23" />
<polygon points="250.0,0.0 326.0,33.0 360.0,62.0 383.0,97.0 383.0,0.0" fill="#0d0608" />
<polygon points="362.0,121.0 281.0,90.0 223.0,166.0 186.0,108.0 148.0,184.0 126.0,107.0 76.0,143.0 125.0,255.0 293.0,160.0 324.0,205.0 311.0,134.0" fill="#b8a186" opacity="0.95" />
<polygon points="372.0,252.0 324.0,309.0 249.0,326.0 220.0,358.0 218.0,379.0 383.0,383.0" fill="#75544d" opacity="0.95" />
<polygon points="378.0,126.0 313.0,133.0 354.0,179.0 300.0,233.0 128.0,258.0 179.0,280.0 64.0,329.0 324.0,252.0" fill="#a78665" opacity="0.95" />
<polygon points="62.0,22.0 0.0,47.0 0.0,116.0 12.0,112.0 18.0,124.0 25.0,102.0 38.0,112.0 71.0,94.0 62.0,90.0 74.0,79.0 75.0,50.0 44.0,37.0" fill="#552009" />
<polygon points="352.0,281.0 40.0,383.0 107.0,383.0 132.0,357.0 205.0,383.0 208.0,350.0" fill="#492a23" opacity="0.95" />
<polygon points="383.0,130.0 339.0,247.0 179.0,286.0 241.0,277.0 179.0,308.0 342.0,262.0" fill="#ac784b" />
<polygon points="63.0,147.0 54.0,193.0 15.0,180.0 41.0,216.0 4.0,221.0 53.0,221.0 45.0,252.0 81.0,258.0" fill="#b8a186" />
<polygon points="252.0,0.0 326.0,33.0 383.0,95.0 383.0,0.0" fill="#0d0608" opacity="0.95" />
<polygon points="351.0,284.0 118.0,341.0 40.0,383.0 107.0,383.0 132.0,357.0 205.0,383.0 209.0,351.0" fill="#492a23" opacity="0.95" />
<polygon points="59.0,21.0 0.0,47.0 0.0,115.0 17.0,124.0 23.0,103.0 38.0,112.0 68.0,96.0 75.0,50.0 45.0,39.0 62.0,31.0" fill="#552009" opacity="0.95" />
<polygon points="348.0,278.0 199.0,314.0 302.0,299.0" fill="#0d0608" />
<polygon points="255.0,0.0 326.0,33.0 383.0,94.0 383.0,0.0" fill="#0d0608" opacity="0.95" />
<polygon points="383.0,130.0 340.0,245.0 177.0,290.0 342.0,262.0" fill="#ac784b" opacity="0.95" />
<polygon points="59.0,21.0 0.0,47.0 0.0,115.0 18.0,124.0 25.0,102.0 38.0,112.0 66.0,97.0 74.0,49.0 46.0,38.0 63.0,29.0" fill="#552009" opacity="0.95" />
<polygon points="184.0,27.0 193.0,43.0 229.0,54.0 246.0,66.0 217.0,24.0 193.0,19.0" fill="#efe1e4" />
<polygon points="258.0,28.0 267.0,44.0 319.0,55.0 322.0,48.0 339.0,71.0 350.0,72.0 346.0,61.0 317.0,39.0 272.0,24.0" fill="#efe1e4" />
<polygon points="121.0,30.0 131.0,28.0 153.0,38.0 161.0,11.0 189.0,4.0 139.0,0.0 134.0,4.0 138.0,13.0" fill="#843b10" />
<polygon points="243.0,22.0 350.0,95.0 381.0,98.0 325.0,42.0 348.0,63.0 341.0,81.0 322.0,56.0 255.0,33.0 268.0,21.0" fill="#e0c7b4" />
<polygon points="48.0,264.0 26.0,266.0 13.0,281.0 24.0,306.0 32.0,308.0 42.0,300.0 42.0,292.0 53.0,289.0 46.0,281.0 55.0,277.0" fill="#b8a186" />
<polygon points="65.0,21.0 61.0,33.0 45.0,37.0 76.0,50.0 71.0,70.0 79.0,78.0 101.0,43.0 70.0,37.0" fill="#843b10" />
<polygon points="0.0,41.0 28.0,5.0 34.0,8.0 37.0,20.0 38.0,8.0 59.0,11.0 66.0,0.0 0.0,0.0" fill="#552009" />
<polygon points="26.0,312.0 28.0,333.0 33.0,329.0 44.0,347.0 34.0,353.0 87.0,333.0 78.0,328.0 62.0,343.0 54.0,318.0" fill="#b8a186" />
<polygon points="377.0,174.0 346.0,265.0 323.0,277.0 356.0,270.0" fill="#843b10" />
<polygon points="376.0,213.0 371.0,233.0 375.0,286.0 381.0,292.0 383.0,220.0" fill="#492a23" />
<polygon points="66.0,186.0 33.0,197.0 38.0,219.0 15.0,222.0 64.0,226.0 56.0,254.0 61.0,245.0 77.0,253.0" fill="#b8a186" opacity="0.95" />
<polygon points="348.0,278.0 200.0,315.0 302.0,299.0" fill="#0d0608" opacity="0.95" />
<polygon points="320.0,275.0 259.0,279.0 257.0,288.0 163.0,318.0" fill="#7d5122" />
<polygon points="95.0,352.0 17.0,382.0 0.0,383.0 38.0,383.0 79.0,368.0" fill="#0d0608" />
<polygon points="123.0,27.0 153.0,36.0 159.0,14.0 186.0,2.0 138.0,0.0 137.0,14.0" fill="#843b10" opacity="0.95" />
<polygon points="91.0,183.0 90.0,216.0 69.0,210.0 89.0,235.0 77.0,250.0 103.0,264.0 87.0,247.0 101.0,228.0 92.0,215.0 103.0,192.0" fill="#e0c7b4" />
<polygon points="208.0,0.0 222.0,13.0 231.0,6.0 282.0,15.0 254.0,3.0" fill="#bf5f17" />
<polygon points="184.0,26.0 191.0,41.0 200.0,47.0 235.0,55.0 218.0,25.0 193.0,19.0" fill="#efe1e4" opacity="0.95" />
<polygon points="258.0,28.0 257.0,36.0 272.0,46.0 324.0,52.0 349.0,73.0 346.0,61.0 317.0,39.0 272.0,24.0" fill="#efe1e4" opacity="0.95" />
<polygon points="347.0,279.0 201.0,315.0 302.0,299.0" fill="#0d0608" opacity="0.95" />
<polygon points="190.0,0.0 211.0,13.0 187.0,16.0 177.0,34.0 200.0,53.0 238.0,64.0 190.0,41.0 183.0,29.0 189.0,20.0 220.0,18.0" fill="#e0c7b4" />
<polygon points="0.0,39.0 27.0,6.0 59.0,11.0 66.0,0.0 0.0,0.0" fill="#552009" opacity="0.95" />
<polygon points="117.0,36.0 119.0,41.0 140.0,44.0 168.0,65.0 174.0,63.0 140.0,33.0 128.0,29.0" fill="#552009" />
<polygon points="68.0,25.0 46.0,39.0 76.0,50.0 73.0,71.0 78.0,75.0 100.0,41.0 72.0,37.0" fill="#843b10" opacity="0.95" />
<polygon points="115.0,56.0 117.0,62.0 119.0,60.0 141.0,78.0 158.0,79.0 150.0,72.0 150.0,64.0 141.0,57.0 135.0,58.0 121.0,50.0" fill="#e0c7b4" />
<polygon points="123.0,27.0 152.0,34.0 159.0,14.0 183.0,0.0 139.0,0.0 142.0,8.0" fill="#843b10" opacity="0.95" />
<polygon points="271.0,47.0 311.0,59.0 340.0,88.0 377.0,93.0 349.0,59.0 346.0,82.0 321.0,56.0" fill="#e0c7b4" opacity="0.95" />
<polygon points="362.0,211.0 339.0,245.0 288.0,250.0 304.0,258.0 278.0,273.0 262.0,265.0 263.0,280.0 342.0,262.0" fill="#ac784b" opacity="0.95" />
<polygon points="105.0,142.0 107.0,154.0 128.0,158.0 143.0,180.0 162.0,186.0 149.0,180.0 164.0,173.0 148.0,171.0 159.0,164.0 150.0,152.0 139.0,164.0" fill="#e0c7b4" />
<polygon points="94.0,353.0 0.0,383.0 39.0,383.0 79.0,368.0" fill="#0d0608" opacity="0.95" />
<polygon points="263.0,62.0 268.0,71.0 271.0,68.0 274.0,71.0 275.0,78.0 297.0,77.0 305.0,70.0 288.0,62.0 280.0,62.0 278.0,66.0 271.0,61.0" fill="#bf5f17" />
<polygon points="0.0,38.0 28.0,6.0 59.0,11.0 66.0,0.0 0.0,0.0" fill="#552009" opacity="0.95" />
<polygon points="376.0,216.0 371.0,233.0 375.0,286.0 383.0,291.0 383.0,220.0" fill="#492a23" opacity="0.95" />
<polygon points="194.0,317.0 185.0,317.0 157.0,328.0 157.0,333.0 176.0,333.0 180.0,336.0 185.0,328.0 192.0,326.0" fill="#0d0608" />
<polygon points="334.0,106.0 335.0,115.0 312.0,127.0 326.0,131.0 330.0,145.0 351.0,160.0 355.0,140.0 343.0,143.0 341.0,133.0 363.0,121.0" fill="#b8a186" opacity="0.95" />
<polygon points="258.0,28.0 257.0,36.0 272.0,46.0 323.0,51.0 337.0,69.0 347.0,69.0 346.0,61.0 317.0,39.0 272.0,24.0" fill="#efe1e4" opacity="0.95" />
<polygon points="80.0,13.0 84.0,13.0 89.0,18.0 101.0,17.0 114.0,6.0 122.0,4.0 124.0,0.0 97.0,0.0 88.0,11.0 86.0,9.0" fill="#552009" />
<polygon points="49.0,35.0 49.0,40.0 75.0,49.0 77.0,73.0 100.0,44.0 73.0,37.0 66.0,29.0" fill="#843b10" opacity="0.95" />
<polygon points="251.0,143.0 246.0,146.0 238.0,143.0 231.0,148.0 237.0,150.0 232.0,165.0 213.0,161.0 218.0,155.0 223.0,160.0 229.0,157.0 222.0,155.0 217.0,146.0 229.0,135.0" fill="#b8a186" />
<polygon points="184.0,27.0 200.0,47.0 232.0,56.0 235.0,51.0 222.0,30.0 243.0,37.0 230.0,21.0 222.0,28.0 193.0,19.0" fill="#efe1e4" opacity="0.95" />
<polygon points="208.0,0.0 221.0,12.0 231.0,6.0 280.0,15.0 245.0,0.0" fill="#bf5f17" opacity="0.95" />
<polygon points="30.0,20.0 20.0,21.0 3.0,41.0 7.0,42.0 22.0,34.0 30.0,27.0" fill="#e6b083" />
<polygon points="128.0,261.0 130.0,268.0 159.0,266.0 164.0,273.0 155.0,281.0 182.0,278.0 164.0,273.0 174.0,267.0 171.0,259.0 159.0,258.0 159.0,251.0 155.0,261.0 143.0,254.0 142.0,263.0" fill="#b8a186" />
<polygon points="240.0,90.0 233.0,100.0 236.0,105.0 229.0,108.0 229.0,121.0 238.0,134.0 249.0,134.0 257.0,141.0 257.0,130.0 251.0,133.0 239.0,125.0 241.0,112.0 248.0,118.0 246.0,92.0" fill="#e0c7b4" />
<polygon points="269.0,84.0 281.0,83.0 288.0,96.0 294.0,90.0 303.0,100.0 323.0,104.0 315.0,88.0 310.0,95.0 302.0,93.0 299.0,82.0 274.0,80.0" fill="#a78665" />
<polygon points="12.0,113.0 3.0,114.0 3.0,118.0 0.0,119.0 0.0,142.0 6.0,133.0 10.0,133.0 18.0,126.0 14.0,122.0" fill="#843b10" />
<polygon points="175.0,311.0 93.0,342.0 101.0,346.0 105.0,339.0 122.0,332.0 126.0,336.0 131.0,328.0" fill="#ac784b" />
<polygon points="115.0,57.0 115.0,60.0 140.0,77.0 152.0,77.0 150.0,64.0 143.0,58.0 135.0,58.0 123.0,51.0" fill="#e0c7b4" opacity="0.95" />
<polygon points="117.0,36.0 171.0,63.0 165.0,53.0 145.0,42.0 143.0,35.0 128.0,29.0" fill="#552009" opacity="0.95" />
<polygon points="153.0,365.0 149.0,367.0 146.0,365.0 145.0,359.0 139.0,365.0 137.0,363.0 138.0,377.0 136.0,379.0 128.0,377.0 126.0,381.0 154.0,383.0 156.0,371.0" fill="#75544d" />
<polygon points="8.0,231.0 4.0,233.0 10.0,251.0 5.0,264.0 12.0,272.0 14.0,267.0 9.0,256.0 27.0,241.0 14.0,240.0" fill="#e0c7b4" />
<polygon points="81.0,77.0 84.0,84.0 91.0,82.0 95.0,84.0 99.0,80.0 103.0,82.0 109.0,79.0 97.0,76.0 91.0,65.0" fill="#75544d" />
<polygon points="133.0,355.0 133.0,370.0 128.0,374.0 123.0,360.0 118.0,368.0 114.0,360.0 110.0,363.0 110.0,381.0 117.0,377.0 125.0,383.0 128.0,376.0 137.0,377.0" fill="#7d5122" />
<polygon points="185.0,7.0 172.0,6.0 161.0,13.0 160.0,20.0 156.0,23.0 157.0,30.0 172.0,14.0" fill="#bf5f17" />
<polygon points="377.0,216.0 371.0,233.0 375.0,286.0 383.0,291.0 383.0,220.0" fill="#492a23" opacity="0.95" />
<polygon points="356.0,309.0 362.0,314.0 366.0,313.0 369.0,318.0 369.0,323.0 367.0,325.0 363.0,323.0 360.0,330.0 345.0,321.0" fill="#75544d" />
<polygon points="148.0,106.0 155.0,136.0 162.0,143.0 162.0,151.0 155.0,154.0 161.0,171.0 166.0,157.0 165.0,139.0 150.0,118.0" fill="#7d5122" />
<polygon points="271.0,17.0 305.0,29.0 304.0,24.0" fill="#ac784b" />
<polygon points="252.0,266.0 240.0,279.0 228.0,277.0 221.0,285.0 215.0,282.0 180.0,297.0 175.0,293.0 183.0,283.0" fill="#a78665" opacity="0.95" />
<polygon points="216.0,13.0 236.0,38.0 240.0,39.0 245.0,36.0 224.0,15.0 219.0,12.0" fill="#efe1e4" />
<polygon points="121.0,6.0 114.0,7.0 104.0,18.0 89.0,19.0 79.0,11.0 76.0,16.0 80.0,24.0 87.0,22.0 91.0,27.0 103.0,23.0" fill="#843b10" />
<polygon points="306.0,28.0 338.0,50.0 346.0,52.0 321.0,33.0" fill="#e6b083" />
<polygon points="81.0,13.0 90.0,18.0 101.0,17.0 124.0,0.0 96.0,0.0 89.0,11.0 83.0,10.0" fill="#552009" opacity="0.95" />
<polygon points="191.0,84.0 189.0,83.0 184.0,89.0 175.0,86.0 176.0,89.0 168.0,96.0 169.0,103.0 179.0,108.0 184.0,102.0 189.0,104.0 191.0,101.0 180.0,95.0" fill="#7d5122" />
<polygon points="196.0,8.0 188.0,7.0 175.0,13.0 161.0,27.0 157.0,38.0 165.0,40.0 171.0,18.0" fill="#ac784b" />
<polygon points="49.0,291.0 45.0,293.0 45.0,298.0 41.0,302.0 46.0,313.0 51.0,316.0 57.0,314.0 60.0,309.0 53.0,303.0 56.0,300.0 51.0,297.0 53.0,295.0" fill="#a78665" />
<polygon points="193.0,317.0 157.0,328.0 157.0,333.0 181.0,335.0 185.0,328.0 192.0,326.0" fill="#0d0608" opacity="0.95" />
<polygon points="116.0,284.0 126.0,279.0 134.0,284.0 149.0,283.0 152.0,288.0 145.0,292.0 134.0,291.0 124.0,297.0" fill="#a78665" opacity="0.95" />
<polygon points="366.0,314.0 357.0,314.0 349.0,320.0 349.0,323.0 360.0,329.0 363.0,322.0 368.0,322.0" fill="#a78665" />
<polygon points="83.0,85.0 81.0,81.0 77.0,79.0 63.0,90.0 67.0,93.0 75.0,90.0 77.0,91.0 82.0,89.0" fill="#492a23" />
<polygon points="354.0,240.0 348.0,241.0 348.0,253.0 344.0,261.0 325.0,274.0 345.0,265.0" fill="#7d5122" />
<polygon points="21.0,328.0 15.0,333.0 21.0,343.0 19.0,346.0 22.0,350.0 21.0,357.0 30.0,352.0 29.0,344.0 21.0,336.0 27.0,332.0" fill="#ac784b" />
<polygon points="132.0,102.0 128.0,105.0 130.0,116.0 127.0,120.0 133.0,129.0 129.0,132.0 124.0,128.0 128.0,140.0 128.0,131.0 133.0,137.0 138.0,137.0 136.0,109.0" fill="#e0c7b4" />
<polygon points="265.0,65.0 266.0,69.0 274.0,71.0 276.0,77.0 296.0,77.0 304.0,71.0 294.0,64.0 287.0,71.0 281.0,65.0" fill="#bf5f17" opacity="0.95" />
<polygon points="47.0,280.0 55.0,290.0 59.0,288.0 62.0,293.0 76.0,291.0 76.0,286.0 80.0,283.0 68.0,288.0 53.0,280.0" fill="#a78665" />
<polygon points="208.0,0.0 221.0,12.0 231.0,5.0 274.0,12.0 251.0,0.0 237.0,0.0 231.0,5.0 225.0,0.0" fill="#bf5f17" opacity="0.95" />
<polygon points="30.0,20.0 20.0,21.0 4.0,41.0 6.0,42.0 30.0,27.0" fill="#e6b083" opacity="0.95" />
<polygon points="241.0,70.0 241.0,68.0 234.0,61.0 223.0,65.0 216.0,64.0 214.0,67.0 229.0,68.0 239.0,71.0" fill="#e6b083" />
<polygon points="365.0,95.0 376.0,104.0 374.0,106.0 366.0,101.0 364.0,103.0 383.0,117.0 383.0,107.0 374.0,98.0" fill="#e28c2d" />
<polygon points="266.0,273.0 260.0,269.0 250.0,270.0 243.0,277.0 244.0,282.0 246.0,283.0 250.0,279.0 256.0,276.0 263.0,276.0" fill="#a78665" />
<polygon points="383.0,149.0 377.0,159.0 377.0,165.0 374.0,168.0 373.0,173.0 374.0,174.0 377.0,173.0 381.0,177.0 383.0,175.0" fill="#bf5f17" />
<polygon points="90.0,66.0 82.0,76.0 82.0,83.0 84.0,84.0 98.0,82.0 98.0,78.0" fill="#75544d" opacity="0.95" />
<polygon points="356.0,309.0 362.0,314.0 367.0,314.0 369.0,322.0 362.0,324.0 359.0,329.0 345.0,321.0" fill="#75544d" opacity="0.95" />
<polygon points="37.0,10.0 39.0,16.0 42.0,16.0 47.0,20.0 52.0,19.0 56.0,15.0 59.0,17.0 62.0,16.0 61.0,11.0 57.0,12.0 45.0,9.0" fill="#843b10" />
<polygon points="290.0,62.0 294.0,62.0 298.0,66.0 301.0,65.0 306.0,70.0 302.0,75.0 318.0,76.0 310.0,66.0 301.0,62.0" fill="#ac784b" />
<polygon points="110.0,362.0 109.0,379.0 117.0,378.0 120.0,383.0 125.0,383.0 128.0,376.0 136.0,376.0 133.0,371.0 125.0,371.0 125.0,363.0" fill="#7d5122" opacity="0.95" />
<polygon points="126.0,363.0 126.0,371.0 133.0,370.0 137.0,374.0 134.0,378.0 127.0,378.0 127.0,383.0 153.0,383.0 154.0,377.0 150.0,375.0 147.0,365.0 143.0,363.0 134.0,368.0" fill="#75544d" opacity="0.95" />
<polygon points="252.0,84.0 249.0,94.0 260.0,102.0 264.0,111.0 263.0,119.0 256.0,125.0 259.0,127.0 266.0,124.0 268.0,114.0 263.0,102.0 253.0,91.0" fill="#7d5122" />
<polygon points="181.0,7.0 172.0,6.0 161.0,13.0 157.0,26.0 163.0,25.0 168.0,17.0" fill="#bf5f17" opacity="0.95" />
<polygon points="291.0,178.0 285.0,186.0 284.0,193.0 288.0,197.0 284.0,199.0 284.0,201.0 292.0,199.0 291.0,192.0 294.0,182.0" fill="#7d5122" />
<polygon points="8.0,293.0 7.0,297.0 12.0,303.0 16.0,325.0 19.0,321.0 19.0,310.0 15.0,306.0 15.0,299.0" fill="#ac784b" />
<polygon points="231.0,12.0 241.0,22.0 247.0,17.0 255.0,15.0 249.0,13.0 240.0,14.0 236.0,11.0" fill="#e6b083" />
<polygon points="308.0,77.0 330.0,84.0 329.0,77.0 322.0,69.0 320.0,70.0 321.0,76.0 318.0,79.0 311.0,76.0" fill="#e6b083" />
<polygon points="169.0,94.0 170.0,103.0 178.0,106.0 184.0,102.0 190.0,103.0 181.0,96.0 184.0,89.0 180.0,86.0" fill="#7d5122" opacity="0.95" />
<polygon points="346.0,319.0 357.0,311.0 368.0,316.0 369.0,325.0 359.0,329.0 348.0,324.0" fill="#75544d" opacity="0.95" />
<polygon points="308.0,276.0 294.0,275.0 266.0,283.0 260.0,279.0 259.0,288.0 267.0,290.0" fill="#7d5122" opacity="0.95" />
<polygon points="271.0,66.0 277.0,77.0 282.0,74.0 295.0,77.0 303.0,70.0 294.0,64.0 286.0,70.0 274.0,64.0" fill="#bf5f17" opacity="0.95" />
<polygon points="0.0,205.0 0.0,229.0 2.0,231.0 4.0,229.0 4.0,225.0 2.0,222.0 6.0,216.0 3.0,213.0 6.0,208.0" fill="#e6b083" />
<polygon points="0.0,265.0 0.0,276.0 3.0,279.0 6.0,275.0 8.0,280.0 18.0,275.0 18.0,271.0 15.0,269.0 12.0,273.0 7.0,270.0 5.0,275.0" fill="#e6b083" />
<polygon points="5.0,334.0 0.0,337.0 2.0,339.0 6.0,360.0 8.0,356.0 6.0,354.0 8.0,352.0 8.0,346.0" fill="#bf5f17" />
<polygon points="139.0,81.0 140.0,84.0 150.0,89.0 153.0,97.0 151.0,102.0 153.0,103.0 155.0,101.0 153.0,99.0 159.0,96.0 156.0,93.0 157.0,89.0" fill="#ac784b" />
<polygon points="241.0,113.0 239.0,115.0 240.0,125.0 249.0,131.0 253.0,132.0 254.0,131.0 253.0,129.0 244.0,121.0 244.0,115.0" fill="#efe1e4" />
<polygon points="230.0,228.0 225.0,225.0 212.0,230.0 216.0,232.0" fill="#492a23" />
<polygon points="152.0,67.0 151.0,72.0 160.0,80.0 162.0,80.0 165.0,83.0 167.0,81.0 166.0,78.0 161.0,76.0" fill="#efe1e4" />
<polygon points="30.0,21.0 27.0,19.0 20.0,21.0 13.0,28.0 10.0,36.0 14.0,38.0 22.0,34.0 30.0,27.0" fill="#e6b083" opacity="0.95" />
<polygon points="2.0,235.0 0.0,236.0 0.0,260.0 2.0,258.0 2.0,254.0 6.0,249.0 6.0,247.0 3.0,244.0 4.0,241.0 1.0,238.0 3.0,236.0" fill="#e6b083" />
<polygon points="82.0,85.0 80.0,84.0 80.0,81.0 77.0,80.0 65.0,87.0 64.0,91.0 67.0,93.0 75.0,90.0 77.0,91.0 82.0,88.0" fill="#492a23" opacity="0.95" />
<polygon points="149.0,81.0 150.0,84.0 154.0,85.0 158.0,89.0 162.0,86.0 161.0,83.0 159.0,83.0 154.0,80.0 150.0,80.0" fill="#e28c2d" />
<polygon points="224.0,21.0 228.0,28.0 234.0,33.0 234.0,37.0 239.0,39.0 244.0,37.0 237.0,26.0 230.0,21.0" fill="#efe1e4" opacity="0.95" />
<polygon points="340.0,89.0 339.0,90.0 349.0,100.0 351.0,101.0 352.0,100.0 344.0,91.0" fill="#e28c2d" />
<polygon points="375.0,107.0 376.0,113.0 383.0,116.0 383.0,107.0 379.0,105.0" fill="#e28c2d" opacity="0.95" />
<polygon points="149.0,81.0 150.0,84.0 158.0,88.0 162.0,86.0 162.0,84.0 154.0,80.0" fill="#e28c2d" opacity="0.95" />
<polygon points="0.0,318.0 0.0,333.0 1.0,334.0 3.0,332.0 3.0,329.0 4.0,328.0 3.0,327.0 3.0,323.0" fill="#e28c2d" />
<polygon points="124.0,8.0 122.0,7.0 119.0,10.0 115.0,12.0 114.0,14.0 118.0,16.0" fill="#e28c2d" />
<polygon points="71.0,0.0 69.0,0.0 65.0,7.0 65.0,11.0 69.0,15.0 68.0,16.0 69.0,17.0 70.0,16.0 68.0,14.0 70.0,11.0 70.0,5.0 72.0,2.0" fill="#e28c2d" />
<polygon points="30.0,14.0 28.0,12.0 25.0,15.0 22.0,16.0 15.0,23.0 16.0,24.0 22.0,19.0 29.0,18.0 30.0,17.0" fill="#e28c2d" />
<polygon points="157.0,372.0 155.0,374.0 155.0,379.0 154.0,380.0 155.0,381.0 154.0,382.0 155.0,383.0 160.0,383.0 158.0,380.0 161.0,376.0" fill="#492a23" />
<polygon points="248.0,75.0 247.0,76.0 247.0,80.0 246.0,81.0 246.0,82.0 247.0,83.0 248.0,83.0 251.0,81.0 251.0,78.0" fill="#e28c2d" />
</svg>