<svg xmlns="http://www.w3.org/2000/svg" width="768" height="768" viewBox="0 0 384 384">
<rect width="384" height="384" fill="#97775f"/>
<polygon points="323.0,116.0 285.0,105.0 88.0,175.0 0.0,239.0 0.0,280.0 89.0,283.0 104.0,241.0 303.0,164.0 286.0,121.0" fill="#d8d9db" />
<polygon points="364.0,101.0 247.0,263.0 65.0,344.0 350.0,252.0" fill="#ae8a6a" />
<polygon points="323.0,116.0 286.0,105.0 86.0,176.0 0.0,239.0 0.0,280.0 90.0,282.0 104.0,241.0 305.0,163.0 286.0,120.0" fill="#d8d9db" opacity="0.95" />
<polygon points="323.0,116.0 286.0,105.0 87.0,176.0 0.0,239.0 0.0,280.0 90.0,282.0 104.0,241.0 305.0,162.0 288.0,122.0" fill="#d8d9db" opacity="0.95" />
<polygon points="257.0,0.0 330.0,36.0 383.0,96.0 383.0,0.0" fill="#0e0608" />
<polygon points="357.0,261.0 345.0,269.0 359.0,304.0 259.0,355.0 257.0,377.0 262.0,365.0 287.0,378.0 383.0,368.0" fill="#ae8a6a" />
<polygon points="129.0,0.0 55.0,0.0 0.0,56.0 55.0,26.0 0.0,97.0 119.0,47.0 129.0,32.0 66.0,36.0" fill="#6f300c" />
<polygon points="366.0,112.0 343.0,99.0 347.0,167.0 288.0,222.0 248.0,211.0 222.0,273.0 347.0,253.0" fill="#ae8a6a" opacity="0.95" />
<polygon points="95.0,28.0 318.0,55.0 326.0,111.0 344.0,95.0 320.0,51.0 213.0,7.0" fill="#df9960" />
<polygon points="189.0,48.0 112.0,47.0 25.0,86.0" fill="#b9652a" />
<polygon points="358.0,263.0 345.0,269.0 359.0,304.0 257.0,366.0 287.0,378.0 383.0,368.0" fill="#ae8a6a" opacity="0.95" />
<polygon points="361.0,100.0 342.0,161.0 289.0,222.0 249.0,211.0 265.0,225.0 216.0,253.0 226.0,271.0 364.0,229.0" fill="#ae8a6a" opacity="0.95" />
<polygon points="258.0,0.0 330.0,36.0 383.0,94.0 383.0,0.0" fill="#0e0608" opacity="0.95" />
<polygon points="67.0,36.0 163.0,33.0 97.0,25.0 195.0,5.0 318.0,32.0 231.0,0.0 130.0,0.0" fill="#b9652a" />
<polygon points="340.0,269.0 336.0,307.0 261.0,323.0 244.0,346.0 157.0,355.0 155.0,383.0 208.0,383.0 210.0,362.0 224.0,383.0 283.0,383.0 254.0,380.0 257.0,345.0 348.0,305.0" fill="#634225" />
<polygon points="128.0,0.0 24.0,8.0 0.0,41.0 45.0,8.0 5.0,48.0 54.0,27.0 0.0,96.0 121.0,46.0 69.0,33.0" fill="#6f300c" opacity="0.95" />
<polygon points="97.0,26.0 181.0,23.0 264.0,64.0 274.0,47.0 325.0,60.0 208.0,6.0" fill="#df9960" opacity="0.95" />
<polygon points="328.0,276.0 301.0,280.0 292.0,274.0 270.0,292.0 247.0,300.0 246.0,306.0 269.0,311.0 321.0,306.0 331.0,298.0" fill="#0e0608" />
<polygon points="261.0,0.0 330.0,36.0 383.0,94.0 383.0,0.0" fill="#0e0608" opacity="0.95" />
<polygon points="134.0,103.0 74.0,126.0 84.0,144.0 63.0,138.0 52.0,169.0 77.0,173.0 83.0,147.0 90.0,173.0 126.0,165.0 98.0,129.0 122.0,120.0 118.0,144.0 154.0,154.0" fill="#ae8a6a" />
<polygon points="328.0,276.0 292.0,274.0 164.0,348.0 235.0,336.0 248.0,307.0 321.0,306.0" fill="#0e0608" opacity="0.95" />
<polygon points="128.0,0.0 24.0,8.0 13.0,22.0 35.0,15.0 0.0,33.0 8.0,48.0 52.0,29.0 0.0,96.0 120.0,45.0 70.0,32.0" fill="#6f300c" opacity="0.95" />
<polygon points="336.0,274.0 321.0,307.0 247.0,308.0 238.0,336.0 139.0,354.0 244.0,345.0 261.0,322.0 340.0,303.0" fill="#341709" />
<polygon points="245.0,309.0 204.0,329.0 190.0,325.0 172.0,344.0 147.0,349.0 238.0,335.0" fill="#0e0608" />
<polygon points="70.0,35.0 195.0,5.0 316.0,30.0 233.0,0.0 129.0,0.0" fill="#b9652a" opacity="0.95" />
<polygon points="340.0,269.0 336.0,307.0 262.0,323.0 244.0,346.0 158.0,355.0 155.0,383.0 208.0,383.0 211.0,362.0 225.0,383.0 270.0,383.0 254.0,381.0 258.0,343.0 348.0,305.0" fill="#634225" opacity="0.95" />
<polygon points="328.0,136.0 290.0,181.0 261.0,185.0 207.0,238.0 238.0,227.0 275.0,185.0 285.0,200.0 300.0,176.0 307.0,187.0" fill="#634225" />
<polygon points="108.0,23.0 195.0,24.0 276.0,66.0 275.0,47.0 317.0,54.0 206.0,6.0" fill="#df9960" opacity="0.95" />
<polygon points="154.0,358.0 151.0,355.0 119.0,360.0 112.0,369.0 95.0,367.0 103.0,374.0 87.0,383.0 150.0,383.0" fill="#8c6543" />
<polygon points="357.0,263.0 345.0,269.0 359.0,304.0 258.0,365.0 287.0,378.0 383.0,368.0 375.0,321.0 370.0,352.0 344.0,340.0 373.0,309.0" fill="#ae8a6a" opacity="0.95" />
<polygon points="181.0,46.0 112.0,47.0 29.0,85.0 128.0,57.0 162.0,62.0" fill="#b9652a" opacity="0.95" />
<polygon points="343.0,265.0 351.0,303.0 265.0,337.0 255.0,368.0 279.0,341.0 358.0,304.0" fill="#8c6543" />
<polygon points="53.0,24.0 39.0,29.0 12.0,54.0 8.0,49.0 0.0,57.0 0.0,88.0 24.0,65.0" fill="#341709" />
<polygon points="328.0,276.0 292.0,274.0 175.0,344.0 239.0,334.0 248.0,306.0 321.0,306.0" fill="#0e0608" opacity="0.95" />
<polygon points="264.0,222.0 246.0,213.0 224.0,236.0 177.0,243.0 167.0,257.0 222.0,262.0 220.0,272.0 231.0,262.0 204.0,252.0 219.0,241.0 234.0,253.0 231.0,240.0" fill="#8c6543" />
<polygon points="101.0,289.0 104.0,303.0 172.0,293.0 169.0,320.0 210.0,303.0 175.0,288.0 188.0,271.0 194.0,287.0 220.0,277.0 156.0,257.0 148.0,285.0" fill="#ae8a6a" opacity="0.95" />
<polygon points="383.0,212.0 375.0,245.0 367.0,256.0 383.0,321.0" fill="#0e0608" />
<polygon points="274.0,265.0 223.0,297.0 210.0,294.0 213.0,281.0 192.0,287.0 210.0,298.0 202.0,314.0 143.0,320.0 203.0,317.0" fill="#8c6543" />
<polygon points="236.0,120.0 229.0,92.0 225.0,106.0 205.0,102.0 229.0,114.0 226.0,129.0 204.0,110.0 172.0,119.0 134.0,94.0 160.0,125.0 185.0,129.0 182.0,143.0 216.0,136.0 211.0,125.0 226.0,136.0" fill="#ae8a6a" />
<polygon points="171.0,23.0 236.0,59.0 237.0,124.0 248.0,98.0 246.0,66.0 205.0,31.0" fill="#e5b294" />
<polygon points="181.0,47.0 112.0,47.0 42.0,80.0" fill="#b9652a" opacity="0.95" />
<polygon points="216.0,14.0 227.0,26.0 253.0,27.0 286.0,43.0 302.0,41.0 291.0,31.0 240.0,13.0" fill="#e5b294" />
<polygon points="154.0,358.0 98.0,366.0 98.0,378.0 82.0,370.0 25.0,381.0 150.0,383.0" fill="#8c6543" opacity="0.95" />
<polygon points="255.0,378.0 383.0,383.0 383.0,369.0 287.0,379.0 267.0,375.0 262.0,366.0" fill="#8c6543" />
<polygon points="238.0,208.0 174.0,218.0 167.0,233.0 106.0,241.0 100.0,249.0 162.0,242.0 175.0,224.0" fill="#b8afab" />
<polygon points="351.0,292.0 340.0,280.0 336.0,307.0 262.0,323.0 244.0,346.0 158.0,355.0 155.0,383.0 170.0,369.0 208.0,383.0 212.0,363.0 225.0,383.0 255.0,383.0 265.0,336.0 342.0,310.0" fill="#634225" opacity="0.95" />
<polygon points="158.0,57.0 195.0,64.0 184.0,82.0 208.0,68.0 198.0,59.0 206.0,54.0 232.0,61.0 219.0,67.0 238.0,93.0 240.0,68.0 224.0,51.0" fill="#df9960" />
<polygon points="71.0,34.0 110.0,36.0 112.0,18.0 195.0,5.0 301.0,22.0 238.0,0.0 129.0,0.0" fill="#b9652a" opacity="0.95" />
<polygon points="365.0,309.0 369.0,312.0 373.0,344.0 369.0,353.0 362.0,343.0 360.0,352.0 350.0,348.0 344.0,340.0 346.0,324.0" fill="#ae8a6a" />
<polygon points="0.0,281.0 0.0,286.0 19.0,301.0 86.0,286.0 30.0,289.0" fill="#b8afab" />
<polygon points="365.0,310.0 347.0,324.0 345.0,340.0 350.0,347.0 360.0,351.0 362.0,342.0 369.0,352.0 372.0,344.0 368.0,312.0" fill="#e5b294" />
<polygon points="359.0,78.0 357.0,95.0 383.0,114.0 383.0,100.0 370.0,82.0 364.0,84.0" fill="#df9960" />
<polygon points="53.0,25.0 38.0,30.0 13.0,53.0 0.0,56.0 0.0,88.0 21.0,69.0" fill="#341709" opacity="0.95" />
<polygon points="251.0,217.0 167.0,257.0 187.0,253.0 198.0,268.0 217.0,262.0 205.0,251.0 219.0,241.0 240.0,250.0 232.0,240.0" fill="#8c6543" opacity="0.95" />
<polygon points="89.0,371.0 16.0,381.0 65.0,383.0 68.0,375.0 70.0,383.0 81.0,383.0" fill="#8c6543" />
<polygon points="0.0,25.0 9.0,15.0 31.0,0.0 0.0,0.0" fill="#0e0608" />
<polygon points="383.0,216.0 368.0,255.0 383.0,317.0" fill="#0e0608" opacity="0.95" />
<polygon points="336.0,274.0 327.0,272.0 332.0,298.0 321.0,307.0 248.0,308.0 239.0,335.0 173.0,350.0 244.0,345.0 262.0,322.0 326.0,311.0 342.0,300.0" fill="#341709" opacity="0.95" />
<polygon points="54.0,0.0 26.0,14.0 7.0,33.0 0.0,51.0 25.0,23.0" fill="#b9652a" />
<polygon points="153.0,365.0 140.0,358.0 119.0,360.0 111.0,369.0 100.0,367.0 98.0,378.0 82.0,370.0 42.0,376.0 36.0,383.0 150.0,383.0" fill="#8c6543" opacity="0.95" />
<polygon points="262.0,290.0 248.0,291.0 228.0,309.0 217.0,310.0 196.0,326.0 203.0,328.0 223.0,314.0 227.0,316.0" fill="#6f300c" />
<polygon points="187.0,329.0 181.0,326.0 141.0,349.0 119.0,351.0 116.0,357.0 138.0,357.0 148.0,344.0 159.0,347.0" fill="#6f300c" />
<polygon points="236.0,208.0 174.0,218.0 166.0,233.0 101.0,248.0 161.0,242.0 177.0,224.0" fill="#b8afab" opacity="0.95" />
<polygon points="374.0,207.0 364.0,239.0 367.0,247.0 358.0,256.0 360.0,259.0 373.0,246.0 380.0,217.0" fill="#b9652a" />
<polygon points="201.0,237.0 170.0,236.0 159.0,247.0 129.0,257.0 141.0,263.0 159.0,250.0 164.0,259.0 163.0,250.0 176.0,254.0 175.0,243.0 198.0,239.0 201.0,244.0" fill="#634225" />
<polygon points="216.0,14.0 227.0,26.0 253.0,27.0 287.0,43.0 302.0,42.0 288.0,30.0 246.0,15.0" fill="#e5b294" opacity="0.95" />
<polygon points="346.0,271.0 348.0,306.0 281.0,328.0 257.0,353.0 266.0,357.0 296.0,332.0 353.0,309.0 360.0,293.0" fill="#8c6543" opacity="0.95" />
<polygon points="273.0,49.0 284.0,59.0 315.0,65.0 323.0,80.0 333.0,75.0 319.0,59.0 308.0,62.0 297.0,53.0" fill="#e5b294" />
<polygon points="335.0,272.0 327.0,304.0 249.0,308.0 239.0,335.0 192.0,349.0 244.0,345.0 262.0,322.0 336.0,306.0" fill="#341709" opacity="0.95" />
<polygon points="169.0,24.0 235.0,55.0 227.0,44.0 197.0,27.0" fill="#e5b294" opacity="0.95" />
<polygon points="303.0,80.0 305.0,87.0 320.0,98.0 327.0,100.0 332.0,96.0 332.0,89.0 328.0,85.0" fill="#6f300c" />
<polygon points="365.0,311.0 348.0,323.0 345.0,340.0 351.0,347.0 369.0,351.0 372.0,344.0 368.0,312.0" fill="#e5b294" opacity="0.95" />
<polygon points="217.0,78.0 211.0,73.0 204.0,75.0 193.0,87.0 193.0,98.0 188.0,103.0 181.0,102.0 188.0,107.0 202.0,90.0 209.0,101.0 221.0,105.0 221.0,95.0 211.0,91.0" fill="#634225" />
<polygon points="50.0,26.0 38.0,30.0 12.0,54.0 0.0,56.0 0.0,88.0 24.0,65.0" fill="#341709" opacity="0.95" />
<polygon points="48.0,0.0 36.0,0.0 15.0,16.0 0.0,33.0 0.0,43.0 26.0,13.0" fill="#6f300c" />
<polygon points="148.0,58.0 128.0,58.0 91.0,71.0 99.0,73.0 106.0,66.0 131.0,67.0" fill="#df9960" />
<polygon points="220.0,51.0 164.0,58.0 195.0,64.0 190.0,79.0 206.0,69.0 200.0,57.0 214.0,58.0" fill="#df9960" opacity="0.95" />
<polygon points="72.0,88.0 64.0,85.0 42.0,99.0 54.0,104.0 58.0,101.0 58.0,110.0 66.0,102.0 66.0,92.0" fill="#341709" />
<polygon points="227.0,218.0 203.0,229.0 172.0,235.0 198.0,233.0 206.0,238.0 210.0,230.0 226.0,223.0" fill="#341709" />
<polygon points="316.0,173.0 307.0,164.0 289.0,181.0 282.0,177.0 261.0,185.0 250.0,200.0 276.0,185.0 290.0,200.0 298.0,178.0 308.0,184.0" fill="#634225" opacity="0.95" />
<polygon points="4.0,300.0 7.0,308.0 12.0,306.0 37.0,321.0 39.0,314.0 59.0,309.0 52.0,302.0 27.0,311.0 14.0,301.0 12.0,306.0 9.0,294.0" fill="#634225" />
<polygon points="0.0,281.0 0.0,287.0 19.0,301.0 79.0,288.0 30.0,289.0" fill="#b8afab" opacity="0.95" />
<polygon points="216.0,15.0 227.0,26.0 253.0,27.0 287.0,43.0 302.0,41.0 288.0,30.0 246.0,15.0" fill="#e5b294" opacity="0.95" />
<polygon points="335.0,54.0 331.0,60.0 332.0,65.0 342.0,75.0 346.0,75.0 349.0,72.0 348.0,61.0 343.0,56.0" fill="#d8d9db" />
<polygon points="3.0,353.0 9.0,372.0 21.0,379.0 34.0,373.0 45.0,375.0 46.0,370.0 58.0,372.0 41.0,366.0 22.0,373.0 9.0,365.0 13.0,351.0" fill="#6f300c" />
<polygon points="221.0,212.0 174.0,218.0 164.0,233.0 102.0,247.0 161.0,242.0 175.0,225.0" fill="#b8afab" opacity="0.95" />
<polygon points="121.0,41.0 137.0,45.0 142.0,39.0 147.0,42.0 146.0,38.0 153.0,36.0 147.0,33.0 133.0,33.0 123.0,37.0" fill="#634225" />
<polygon points="161.0,128.0 146.0,130.0 146.0,134.0 152.0,143.0 159.0,141.0 163.0,131.0" fill="#341709" />
<polygon points="305.0,342.0 301.0,350.0 303.0,360.0 308.0,365.0 312.0,366.0 316.0,361.0 315.0,351.0 311.0,345.0" fill="#e5b294" />
<polygon points="365.0,311.0 348.0,323.0 350.0,329.0 345.0,336.0 348.0,345.0 357.0,349.0 372.0,347.0 368.0,313.0" fill="#e5b294" opacity="0.95" />
<polygon points="357.0,251.0 332.0,259.0 325.0,268.0 318.0,265.0 312.0,270.0 304.0,269.0 299.0,276.0 302.0,279.0 325.0,272.0 332.0,262.0 355.0,257.0" fill="#b9652a" />
<polygon points="374.0,211.0 364.0,239.0 367.0,247.0 359.0,255.0 361.0,258.0 373.0,246.0 380.0,217.0" fill="#b9652a" opacity="0.95" />
<polygon points="96.0,284.0 92.0,282.0 79.0,296.0 60.0,300.0 61.0,309.0 64.0,306.0 69.0,311.0 68.0,308.0 79.0,299.0 94.0,299.0 89.0,290.0" fill="#634225" />
<polygon points="180.0,73.0 170.0,80.0 171.0,86.0 178.0,93.0 183.0,92.0 189.0,85.0 188.0,83.0 185.0,85.0 181.0,80.0 185.0,75.0" fill="#341709" />
<polygon points="219.0,51.0 192.0,50.0 165.0,58.0 191.0,62.0 202.0,71.0 200.0,58.0 207.0,53.0 214.0,58.0" fill="#df9960" opacity="0.95" />
<polygon points="251.0,83.0 249.0,85.0 254.0,88.0 249.0,94.0 254.0,97.0 254.0,102.0 248.0,104.0 251.0,109.0 259.0,112.0 262.0,104.0 259.0,98.0 266.0,86.0 262.0,83.0" fill="#6f300c" />
<polygon points="266.0,171.0 272.0,177.0 272.0,182.0 279.0,176.0 269.0,170.0 271.0,167.0 300.0,168.0 303.0,165.0 272.0,161.0 267.0,165.0" fill="#b8afab" />
<polygon points="303.0,80.0 305.0,87.0 319.0,97.0 327.0,100.0 332.0,96.0 330.0,86.0" fill="#6f300c" opacity="0.95" />
<polygon points="360.0,84.0 358.0,96.0 372.0,104.0 375.0,99.0 379.0,99.0 378.0,110.0 383.0,113.0 383.0,101.0 374.0,86.0 369.0,82.0" fill="#df9960" opacity="0.95" />
<polygon points="306.0,70.0 314.0,79.0 336.0,85.0 339.0,97.0 327.0,108.0 336.0,109.0 344.0,95.0 338.0,72.0 324.0,80.0 318.0,69.0" fill="#df9960" opacity="0.95" />
<polygon points="0.0,282.0 0.0,287.0 19.0,301.0 47.0,292.0 44.0,288.0 19.0,288.0" fill="#b8afab" opacity="0.95" />
<polygon points="336.0,54.0 332.0,57.0 331.0,63.0 341.0,74.0 345.0,75.0 349.0,72.0 349.0,63.0 343.0,56.0" fill="#d8d9db" opacity="0.95" />
<polygon points="287.0,121.0 303.0,132.0 298.0,126.0 300.0,123.0 313.0,127.0 301.0,120.0 289.0,119.0" fill="#b8afab" />
<polygon points="267.0,165.0 269.0,168.0 301.0,167.0 298.0,163.0 272.0,161.0" fill="#b8afab" opacity="0.95" />
<polygon points="336.0,54.0 332.0,57.0 331.0,63.0 341.0,74.0 345.0,75.0 349.0,72.0 349.0,63.0 343.0,56.0" fill="#d8d9db" opacity="0.95" />
<polygon points="246.0,101.0 244.0,103.0 245.0,112.0 241.0,119.0 242.0,120.0 248.0,112.0 247.0,111.0 248.0,106.0 246.0,104.0 247.0,102.0" fill="#b8afab" />
</svg>