<svg xmlns="http://www.w3.org/2000/svg" width="768" height="768" viewBox="0 0 384 384">
<rect width="384" height="384" fill="#8e6253"/>
<polygon points="0.0,0.0 19.0,165.0 203.0,168.0 228.0,96.0 282.0,145.0 225.0,229.0 95.0,181.0 156.0,243.0 65.0,298.0 169.0,257.0 197.0,383.0 383.0,383.0 383.0,286.0 220.0,267.0 383.0,244.0 383.0,134.0 192.0,75.0 194.0,11.0 353.0,21.0" fill="#814b40" />
<polygon points="0.0,0.0 41.0,176.0 201.0,168.0 228.0,97.0 282.0,145.0 225.0,229.0 95.0,181.0 156.0,243.0 65.0,298.0 169.0,257.0 197.0,383.0 383.0,383.0 383.0,286.0 220.0,267.0 383.0,244.0 383.0,134.0 192.0,75.0 195.0,11.0 346.0,14.0" fill="#814b40" opacity="0.95" />
<polygon points="2.0,154.0 0.0,383.0 108.0,375.0 136.0,287.0 76.0,305.0 16.0,248.0 99.0,178.0 146.0,209.0 123.0,157.0 45.0,179.0" fill="#ad675a" />
<polygon points="0.0,0.0 41.0,176.0 199.0,168.0 228.0,97.0 282.0,145.0 225.0,229.0 95.0,181.0 156.0,243.0 67.0,300.0 169.0,257.0 197.0,383.0 383.0,383.0 383.0,286.0 220.0,267.0 383.0,244.0 383.0,134.0 192.0,75.0 196.0,11.0 346.0,14.0" fill="#814b40" opacity="0.95" />
<polygon points="93.0,185.0 18.0,249.0 58.0,293.0 82.0,287.0 143.0,238.0" fill="#ebce8d" />
<polygon points="234.0,101.0 193.0,151.0 204.0,169.0 124.0,157.0 148.0,208.0 203.0,222.0 250.0,195.0 262.0,142.0" fill="#94e2e0" />
<polygon points="193.0,14.0 194.0,76.0 274.0,88.0 272.0,62.0 287.0,26.0" fill="#ecaea1" />
<polygon points="3.0,154.0 0.0,383.0 88.0,383.0 134.0,286.0 70.0,303.0 17.0,246.0 99.0,178.0 138.0,201.0 123.0,157.0 45.0,179.0" fill="#ad675a" opacity="0.95" />
<polygon points="92.0,185.0 18.0,249.0 59.0,293.0 82.0,287.0 143.0,238.0" fill="#ebce8d" opacity="0.95" />
<polygon points="234.0,101.0 197.0,142.0 203.0,168.0 124.0,157.0 148.0,208.0 203.0,222.0 250.0,195.0 262.0,142.0" fill="#94e2e0" opacity="0.95" />
<polygon points="4.0,155.0 0.0,383.0 88.0,383.0 134.0,287.0 70.0,303.0 17.0,246.0 99.0,178.0 131.0,194.0 123.0,159.0 45.0,179.0" fill="#ad675a" opacity="0.95" />
<polygon points="284.0,22.0 383.0,76.0 383.0,0.0 314.0,0.0 344.0,11.0 351.0,26.0" fill="#4c2415" />
<polygon points="92.0,185.0 18.0,249.0 59.0,293.0 82.0,287.0 143.0,238.0" fill="#ebce8d" opacity="0.95" />
<polygon points="234.0,101.0 197.0,142.0 201.0,168.0 124.0,159.0 148.0,208.0 203.0,222.0 250.0,195.0 262.0,142.0" fill="#94e2e0" opacity="0.95" />
<polygon points="193.0,14.0 193.0,75.0 272.0,87.0 267.0,79.0 283.0,25.0 236.0,14.0" fill="#ecaea1" opacity="0.95" />
<polygon points="354.0,60.0 320.0,119.0 338.0,136.0 372.0,81.0" fill="#ecaea1" />
<polygon points="193.0,15.0 194.0,75.0 267.0,82.0 281.0,24.0 236.0,14.0" fill="#ecaea1" opacity="0.95" />
<polygon points="187.0,268.0 192.0,298.0 175.0,361.0 165.0,375.0 142.0,383.0 181.0,383.0 208.0,336.0 208.0,295.0" fill="#2d1612" />
<polygon points="291.0,27.0 273.0,84.0 316.0,111.0 345.0,54.0" fill="#dd8d89" opacity="0.95" />
<polygon points="383.0,255.0 362.0,240.0 363.0,260.0 350.0,275.0 261.0,312.0 285.0,314.0 373.0,276.0" fill="#2d1612" />
<polygon points="286.0,22.0 383.0,76.0 383.0,0.0 315.0,0.0 344.0,11.0 350.0,26.0" fill="#4c2415" opacity="0.95" />
<polygon points="250.0,110.0 264.0,146.0 261.0,177.0 239.0,208.0 209.0,224.0 248.0,212.0 272.0,181.0 274.0,142.0" fill="#2d1612" />
<polygon points="383.0,270.0 276.0,317.0 301.0,316.0 383.0,285.0" fill="#4c2415" />
<polygon points="353.0,60.0 321.0,117.0 339.0,136.0 372.0,81.0" fill="#ecaea1" opacity="0.95" />
<polygon points="315.0,0.0 353.0,23.0 296.0,27.0 383.0,76.0 383.0,0.0" fill="#4c2415" opacity="0.95" />
<polygon points="186.0,280.0 160.0,297.0 157.0,311.0 170.0,318.0 154.0,324.0 167.0,332.0 140.0,333.0 143.0,351.0 153.0,338.0 180.0,333.0 190.0,298.0" fill="#7d3b0b" />
<polygon points="187.0,268.0 192.0,298.0 175.0,361.0 143.0,383.0 182.0,383.0 208.0,336.0 208.0,295.0" fill="#2d1612" opacity="0.95" />
<polygon points="183.0,264.0 206.0,288.0 212.0,315.0 182.0,383.0 196.0,383.0 225.0,334.0 226.0,316.0 211.0,286.0" fill="#4c2415" />
<polygon points="181.0,335.0 124.0,353.0 170.0,356.0 134.0,371.0 158.0,369.0 160.0,377.0" fill="#4c2415" />
<polygon points="368.0,66.0 374.0,80.0 344.0,138.0 358.0,135.0 383.0,96.0 383.0,77.0" fill="#2d1612" />
<polygon points="337.0,49.0 310.0,105.0 317.0,115.0 346.0,56.0" fill="#dd8d89" />
<polygon points="323.0,41.0 297.0,96.0 304.0,105.0 331.0,46.0" fill="#dd8d89" />
<polygon points="306.0,33.0 285.0,84.0 289.0,96.0 315.0,38.0" fill="#dd8d89" />
<polygon points="103.0,188.0 149.0,243.0 75.0,297.0 101.0,287.0 155.0,243.0" fill="#4c2415" />
<polygon points="383.0,255.0 363.0,241.0 350.0,275.0 261.0,312.0 285.0,314.0 373.0,276.0" fill="#2d1612" opacity="0.95" />
<polygon points="333.0,234.0 321.0,272.0 299.0,247.0 303.0,274.0 287.0,256.0 281.0,285.0 271.0,270.0 264.0,283.0 258.0,265.0 257.0,284.0 274.0,296.0 293.0,276.0 336.0,270.0" fill="#7d3b0b" />
<polygon points="148.0,241.0 145.0,238.0 73.0,293.0 90.0,290.0" fill="#2d1612" />
<polygon points="354.0,61.0 321.0,117.0 339.0,136.0 372.0,81.0" fill="#ecaea1" opacity="0.95" />
<polygon points="291.0,27.0 275.0,68.0 276.0,89.0 299.0,32.0" fill="#dd8d89" />
<polygon points="383.0,97.0 359.0,135.0 345.0,141.0 360.0,143.0 383.0,133.0" fill="#4c2415" />
<polygon points="248.0,103.0 239.0,104.0 275.0,142.0 273.0,181.0 239.0,219.0 199.0,227.0 243.0,221.0 279.0,179.0 279.0,138.0" fill="#4c2415" />
<polygon points="188.0,269.0 192.0,298.0 175.0,361.0 165.0,375.0 143.0,383.0 182.0,383.0 208.0,336.0 208.0,295.0" fill="#2d1612" opacity="0.95" />
<polygon points="383.0,255.0 364.0,241.0 350.0,275.0 261.0,312.0 285.0,314.0 373.0,276.0" fill="#2d1612" opacity="0.95" />
<polygon points="250.0,110.0 263.0,141.0 263.0,171.0 249.0,198.0 213.0,225.0 252.0,209.0 274.0,175.0 273.0,139.0" fill="#2d1612" opacity="0.95" />
<polygon points="186.0,281.0 157.0,304.0 158.0,312.0 165.0,315.0 155.0,322.0 165.0,330.0 163.0,338.0 179.0,334.0 190.0,298.0" fill="#7d3b0b" opacity="0.95" />
<polygon points="339.0,276.0 330.0,269.0 311.0,282.0 293.0,277.0 274.0,297.0 261.0,287.0 256.0,309.0 261.0,315.0 262.0,304.0" fill="#4c2415" />
<polygon points="336.0,239.0 323.0,270.0 300.0,252.0 297.0,268.0 284.0,260.0 282.0,282.0 257.0,279.0 250.0,304.0 298.0,274.0 304.0,282.0 336.0,268.0" fill="#7d3b0b" opacity="0.95" />
<polygon points="323.0,41.0 298.0,93.0 303.0,104.0 330.0,47.0" fill="#dd8d89" opacity="0.95" />
<polygon points="339.0,50.0 311.0,103.0 316.0,113.0 345.0,58.0" fill="#dd8d89" opacity="0.95" />
<polygon points="186.0,281.0 165.0,294.0 158.0,304.0 163.0,317.0 155.0,324.0 171.0,337.0 180.0,333.0 179.0,326.0 185.0,321.0 190.0,284.0" fill="#7d3b0b" opacity="0.95" />
<polygon points="306.0,33.0 285.0,84.0 290.0,96.0 314.0,39.0" fill="#dd8d89" opacity="0.95" />
<polygon points="169.0,258.0 167.0,268.0 176.0,276.0 170.0,288.0 162.0,281.0 144.0,282.0 156.0,287.0 149.0,292.0 157.0,296.0 155.0,306.0 148.0,307.0 153.0,311.0 162.0,294.0 185.0,280.0" fill="#d17837" />
<polygon points="238.0,243.0 229.0,253.0 244.0,259.0 239.0,273.0 245.0,284.0 253.0,278.0 251.0,266.0 256.0,256.0 254.0,253.0 251.0,257.0 244.0,248.0 241.0,250.0" fill="#f5ae77" />
<polygon points="139.0,281.0 133.0,303.0 145.0,308.0 150.0,299.0 153.0,305.0 154.0,299.0 147.0,292.0 152.0,288.0" fill="#f5ae77" />
<polygon points="291.0,27.0 275.0,68.0 276.0,88.0 298.0,33.0" fill="#dd8d89" opacity="0.95" />
<polygon points="144.0,271.0 145.0,275.0 163.0,276.0 172.0,284.0 175.0,276.0 166.0,268.0 166.0,259.0 162.0,261.0 156.0,258.0 152.0,262.0 153.0,267.0" fill="#f5ae77" />
<polygon points="313.0,235.0 310.0,232.0 305.0,235.0 292.0,234.0 289.0,239.0 290.0,252.0 302.0,244.0 311.0,256.0 315.0,250.0 307.0,244.0 313.0,240.0" fill="#d17837" />
<polygon points="337.0,242.0 328.0,242.0 323.0,266.0 313.0,258.0 303.0,272.0 287.0,261.0 283.0,278.0 269.0,277.0 250.0,298.0 271.0,287.0 282.0,292.0 296.0,275.0 322.0,277.0 335.0,266.0" fill="#7d3b0b" opacity="0.95" />
<polygon points="226.0,254.0 221.0,261.0 221.0,267.0 226.0,278.0 230.0,282.0 232.0,280.0 230.0,257.0" fill="#ad675a" />
<polygon points="355.0,235.0 353.0,239.0 348.0,240.0 345.0,262.0 347.0,266.0 352.0,264.0 357.0,249.0" fill="#7d3b0b" />
<polygon points="232.0,258.0 234.0,290.0 243.0,305.0 242.0,291.0 236.0,287.0 240.0,276.0" fill="#f8d7c0" />
<polygon points="116.0,323.0 133.0,330.0 159.0,329.0 154.0,326.0 139.0,328.0 122.0,316.0" fill="#f5ae77" />
<polygon points="236.0,245.0 231.0,253.0 243.0,256.0 239.0,273.0 247.0,283.0 254.0,257.0 243.0,253.0" fill="#f5ae77" opacity="0.95" />
<polygon points="89.0,380.0 89.0,383.0 117.0,383.0 115.0,380.0 106.0,375.0 92.0,376.0" fill="#814b40" />
<polygon points="133.0,304.0 133.0,315.0 123.0,315.0 141.0,326.0 135.0,319.0 139.0,313.0 146.0,315.0 150.0,311.0" fill="#f8d7c0" />
<polygon points="145.0,270.0 147.0,275.0 163.0,275.0 170.0,280.0 174.0,279.0 165.0,262.0 158.0,259.0 153.0,261.0 152.0,268.0" fill="#f5ae77" opacity="0.95" />
<polygon points="254.0,276.0 255.0,279.0 253.0,281.0 251.0,279.0 247.0,284.0 242.0,285.0 248.0,301.0 249.0,293.0 257.0,286.0" fill="#d17837" />
<polygon points="258.0,287.0 249.0,297.0 249.0,302.0 254.0,308.0 254.0,300.0 260.0,296.0" fill="#7d3b0b" />
<polygon points="236.0,246.0 231.0,252.0 243.0,256.0 239.0,273.0 246.0,281.0 254.0,259.0 242.0,254.0" fill="#f5ae77" opacity="0.95" />
<polygon points="313.0,235.0 308.0,233.0 287.0,241.0 280.0,238.0 275.0,241.0 282.0,244.0 284.0,253.0 288.0,244.0 308.0,243.0" fill="#d17837" opacity="0.95" />
<polygon points="333.0,230.0 332.0,232.0 335.0,232.0 339.0,237.0 340.0,244.0 344.0,244.0 346.0,249.0 347.0,240.0 354.0,237.0 354.0,232.0 349.0,230.0 340.0,233.0" fill="#d17837" />
<polygon points="169.0,318.0 157.0,313.0 153.0,317.0 151.0,316.0 143.0,320.0 152.0,324.0 156.0,319.0" fill="#d17837" />
<polygon points="140.0,282.0 133.0,303.0 145.0,308.0 149.0,305.0 150.0,296.0 145.0,297.0 142.0,293.0 149.0,291.0 149.0,288.0" fill="#f5ae77" opacity="0.95" />
<polygon points="247.0,239.0 243.0,241.0 240.0,248.0 241.0,249.0 244.0,247.0 251.0,256.0 253.0,249.0 258.0,242.0 257.0,241.0 253.0,244.0" fill="#d17837" />
<polygon points="145.0,271.0 148.0,275.0 160.0,273.0 166.0,277.0 170.0,273.0 165.0,263.0 158.0,259.0 154.0,260.0 153.0,265.0" fill="#f5ae77" opacity="0.95" />
<polygon points="227.0,255.0 222.0,259.0 221.0,267.0 226.0,278.0 230.0,281.0 232.0,280.0 232.0,270.0 230.0,257.0" fill="#ad675a" opacity="0.95" />
<polygon points="266.0,239.0 265.0,240.0 267.0,245.0 265.0,252.0 262.0,255.0 269.0,261.0 271.0,259.0 270.0,257.0 272.0,253.0 271.0,247.0 268.0,243.0 268.0,240.0" fill="#d17837" />
<polygon points="354.0,239.0 349.0,241.0 347.0,249.0 346.0,265.0 348.0,266.0 352.0,264.0 354.0,253.0 357.0,249.0 356.0,240.0" fill="#7d3b0b" opacity="0.95" />
<polygon points="171.0,259.0 167.0,262.0 167.0,268.0 177.0,274.0 174.0,283.0 177.0,286.0 184.0,281.0 184.0,278.0 179.0,275.0 180.0,270.0" fill="#d17837" opacity="0.95" />
<polygon points="276.0,238.0 275.0,241.0 277.0,243.0 279.0,241.0 282.0,244.0 282.0,252.0 285.0,256.0 287.0,249.0 286.0,241.0 283.0,238.0" fill="#d17837" />
<polygon points="89.0,380.0 89.0,383.0 117.0,383.0 115.0,380.0 106.0,375.0 93.0,376.0" fill="#814b40" opacity="0.95" />
<polygon points="155.0,364.0 151.0,363.0 143.0,367.0 125.0,366.0 123.0,368.0 134.0,374.0 133.0,371.0 135.0,369.0 141.0,370.0" fill="#7d3b0b" />
<polygon points="315.0,238.0 314.0,243.0 317.0,253.0 316.0,254.0 317.0,255.0 319.0,253.0 323.0,261.0 324.0,255.0 321.0,251.0 319.0,242.0" fill="#f5ae77" />
<polygon points="118.0,325.0 116.0,328.0 115.0,334.0 118.0,337.0 121.0,335.0 126.0,337.0 128.0,335.0 125.0,331.0 126.0,330.0 125.0,329.0 124.0,330.0" fill="#ecaea1" />
<polygon points="309.0,228.0 307.0,231.0 308.0,232.0 310.0,231.0 321.0,242.0 322.0,241.0 319.0,234.0" fill="#ebce8d" />
<polygon points="149.0,311.0 134.0,305.0 132.0,306.0 133.0,315.0 126.0,319.0 135.0,324.0 137.0,314.0 147.0,314.0" fill="#f8d7c0" opacity="0.95" />
<polygon points="227.0,255.0 222.0,259.0 221.0,267.0 226.0,278.0 229.0,280.0 232.0,278.0 230.0,257.0" fill="#ad675a" opacity="0.95" />
<polygon points="89.0,380.0 89.0,383.0 117.0,383.0 115.0,380.0 106.0,375.0 94.0,376.0" fill="#814b40" opacity="0.95" />
<polygon points="237.0,255.0 233.0,258.0 238.0,269.0 240.0,267.0 240.0,265.0 237.0,261.0 239.0,258.0" fill="#ebce8d" />
<polygon points="140.0,280.0 142.0,281.0 146.0,278.0 156.0,278.0 158.0,280.0 162.0,279.0 160.0,277.0 150.0,275.0" fill="#ebce8d" />
<polygon points="330.0,51.0 334.0,54.0 334.0,56.0 331.0,62.0 327.0,65.0 323.0,62.0 323.0,60.0 326.0,54.0" fill="#dd8d89" opacity="0.95" />
<polygon points="338.0,262.0 337.0,263.0 341.0,266.0 340.0,268.0 345.0,274.0 347.0,271.0 342.0,264.0" fill="#ad675a" />
<polygon points="129.0,306.0 127.0,311.0 125.0,313.0 131.0,316.0 132.0,315.0 132.0,311.0 131.0,310.0 131.0,307.0" fill="#ebce8d" />
<polygon points="147.0,310.0 136.0,305.0 133.0,306.0 133.0,315.0 129.0,320.0 134.0,321.0 137.0,314.0 144.0,314.0" fill="#f8d7c0" opacity="0.95" />
<polygon points="116.0,328.0 115.0,331.0 116.0,335.0 118.0,336.0 122.0,335.0 125.0,337.0 127.0,336.0 127.0,332.0 119.0,326.0" fill="#ecaea1" opacity="0.95" />
<polygon points="274.0,254.0 273.0,260.0 275.0,262.0 274.0,263.0 275.0,268.0 277.0,269.0 281.0,267.0 275.0,261.0 279.0,257.0 280.0,258.0 281.0,257.0 279.0,255.0 277.0,256.0" fill="#ebce8d" />
<polygon points="234.0,264.0 232.0,265.0 232.0,268.0 233.0,269.0 233.0,281.0 235.0,282.0 238.0,280.0 239.0,275.0 237.0,272.0 236.0,265.0" fill="#f8d7c0" opacity="0.95" />
<polygon points="347.0,56.0 344.0,60.0 341.0,66.0 342.0,67.0 346.0,60.0 349.0,57.0" fill="#ad675a" />
<polygon points="119.0,327.0 115.0,331.0 115.0,334.0 118.0,336.0 125.0,333.0 125.0,331.0" fill="#ecaea1" opacity="0.95" />
<polygon points="285.0,71.0 283.0,73.0 284.0,75.0 281.0,79.0 279.0,85.0 280.0,86.0 284.0,78.0 283.0,76.0 286.0,72.0" fill="#ad675a" />
<polygon points="337.0,264.0 336.0,265.0 339.0,269.0 338.0,270.0 338.0,274.0 339.0,275.0 342.0,275.0 343.0,272.0 338.0,268.0 339.0,266.0" fill="#814b40" />
<polygon points="239.0,280.0 237.0,282.0 237.0,287.0 238.0,288.0 240.0,288.0 241.0,287.0 241.0,284.0 240.0,283.0 240.0,281.0" fill="#ebce8d" />
<polygon points="111.0,352.0 109.0,355.0 110.0,357.0 109.0,358.0 110.0,359.0 109.0,362.0 110.0,364.0 109.0,365.0 110.0,366.0 114.0,360.0 112.0,358.0 112.0,353.0" fill="#ebce8d" />
<polygon points="235.0,290.0 235.0,292.0 239.0,297.0 241.0,298.0 243.0,297.0 243.0,294.0 241.0,290.0 239.0,289.0" fill="#f8d7c0" opacity="0.95" />
<polygon points="298.0,34.0 295.0,39.0 295.0,41.0 294.0,42.0 295.0,43.0 298.0,39.0 298.0,37.0 299.0,36.0" fill="#ad675a" />
<polygon points="114.0,354.0 113.0,355.0 113.0,358.0 115.0,360.0 118.0,357.0 116.0,355.0 115.0,355.0" fill="#f8d7c0" />
<polygon points="280.0,259.0 279.0,259.0 276.0,261.0 276.0,262.0 279.0,265.0 280.0,264.0 280.0,262.0 281.0,261.0 281.0,260.0" fill="#f8d7c0" />
<polygon points="283.0,89.0 281.0,92.0 283.0,94.0 284.0,94.0 285.0,95.0 286.0,94.0 286.0,93.0 285.0,92.0 285.0,91.0" fill="#ecaea1" />
<polygon points="236.0,273.0 233.0,275.0 233.0,278.0 236.0,280.0 239.0,278.0 239.0,275.0" fill="#f8d7c0" opacity="0.95" />
<polygon points="310.0,54.0 308.0,57.0 309.0,58.0 306.0,62.0 307.0,63.0 304.0,67.0 305.0,68.0 307.0,65.0 306.0,64.0 309.0,60.0 308.0,59.0 311.0,55.0" fill="#814b40" />
<polygon points="340.0,270.0 339.0,271.0 338.0,271.0 338.0,274.0 341.0,275.0 342.0,274.0 343.0,274.0 343.0,272.0" fill="#814b40" opacity="0.95" />
<polygon points="239.0,289.0 236.0,291.0 236.0,293.0 239.0,295.0 242.0,293.0 242.0,291.0" fill="#f8d7c0" opacity="0.95" />
</svg>