<svg xmlns="http://www.w3.org/2000/svg" width="768" height="768" viewBox="0 0 384 384">
<rect width="384" height="384" fill="#95695b"/>
<polygon points="0.0,0.0 2.0,126.0 130.0,125.0 130.0,0.0" fill="#7a453e" />
<polygon points="0.0,126.0 0.0,302.0 68.0,222.0 130.0,288.0 0.0,319.0 0.0,383.0 179.0,383.0 193.0,271.0 250.0,323.0 224.0,383.0 383.0,383.0 383.0,321.0 255.0,318.0 251.0,244.0 133.0,276.0 143.0,134.0 253.0,163.0 322.0,114.0 255.0,0.0 131.0,0.0 129.0,127.0" fill="#bc7d64" />
<polygon points="256.0,0.0 256.0,60.0 288.0,63.0 324.0,117.0 258.0,124.0 229.0,236.0 176.0,244.0 138.0,210.0 161.0,254.0 251.0,243.0 257.0,319.0 383.0,320.0 383.0,0.0" fill="#7a453e" />
<polygon points="255.0,0.0 131.0,0.0 128.0,127.0 0.0,126.0 0.0,302.0 68.0,222.0 127.0,320.0 0.0,319.0 0.0,383.0 178.0,383.0 126.0,171.0 157.0,129.0 253.0,159.0 321.0,116.0 256.0,62.0" fill="#bc7d64" opacity="0.95" />
<polygon points="0.0,0.0 1.0,125.0 130.0,125.0 130.0,0.0" fill="#7a453e" opacity="0.95" />
<polygon points="256.0,0.0 257.0,62.0 338.0,31.0 354.0,80.0 291.0,76.0 324.0,117.0 258.0,124.0 232.0,234.0 139.0,228.0 162.0,254.0 252.0,244.0 258.0,319.0 383.0,320.0 383.0,0.0" fill="#7a453e" opacity="0.95" />
<polygon points="255.0,0.0 131.0,0.0 127.0,127.0 0.0,126.0 0.0,302.0 68.0,222.0 130.0,288.0 126.0,320.0 0.0,319.0 0.0,383.0 178.0,383.0 126.0,171.0 157.0,129.0 252.0,153.0 321.0,115.0 255.0,60.0" fill="#bc7d64" opacity="0.95" />
<polygon points="0.0,0.0 1.0,125.0 130.0,124.0 130.0,0.0" fill="#7a453e" opacity="0.95" />
<polygon points="170.0,28.0 196.0,22.0 224.0,31.0 240.0,73.0 227.0,104.0 189.0,114.0 161.0,100.0 150.0,58.0" fill="#bc7d64" />
<polygon points="259.0,192.0 319.0,197.0 312.0,222.0 343.0,232.0 357.0,257.0 340.0,298.0 314.0,306.0 289.0,293.0 276.0,259.0 282.0,243.0 257.0,218.0" fill="#7a453e" />
<polygon points="256.0,0.0 258.0,62.0 356.0,51.0 343.0,93.0 293.0,83.0 322.0,119.0 256.0,127.0 254.0,184.0 320.0,199.0 348.0,289.0 295.0,299.0 254.0,201.0 206.0,245.0 139.0,228.0 251.0,245.0 259.0,319.0 383.0,320.0 383.0,0.0" fill="#7a453e" opacity="0.95" />
<polygon points="320.0,30.0 349.0,38.0 358.0,62.0 351.0,85.0 331.0,98.0 302.0,87.0 291.0,61.0 295.0,42.0" fill="#7a453e" />
<polygon points="242.0,140.0 201.0,150.0 211.0,175.0 199.0,184.0 165.0,161.0 197.0,141.0 163.0,145.0 167.0,204.0 128.0,182.0 149.0,215.0 203.0,217.0 254.0,173.0" fill="#43d1bf" />
<polygon points="174.0,270.0 230.0,283.0 250.0,323.0 245.0,364.0 224.0,383.0 383.0,383.0 383.0,321.0 255.0,318.0 252.0,245.0 188.0,255.0" fill="#bc7d64" opacity="0.95" />
<polygon points="170.0,28.0 196.0,22.0 224.0,31.0 240.0,73.0 227.0,104.0 189.0,114.0 161.0,100.0 151.0,54.0" fill="#bc7d64" opacity="0.95" />
<polygon points="257.0,193.0 319.0,197.0 312.0,223.0 343.0,232.0 357.0,257.0 340.0,298.0 314.0,306.0 289.0,293.0 281.0,242.0 258.0,221.0" fill="#7a453e" opacity="0.95" />
<polygon points="126.0,270.0 111.0,251.0 103.0,282.0 75.0,301.0 54.0,298.0 38.0,278.0 26.0,299.0 4.0,299.0 0.0,317.0 128.0,319.0" fill="#7a453e" />
<polygon points="174.0,270.0 230.0,283.0 250.0,323.0 245.0,364.0 225.0,383.0 383.0,383.0 383.0,321.0 255.0,317.0 251.0,246.0" fill="#bc7d64" opacity="0.95" />
<polygon points="87.0,226.0 64.0,224.0 46.0,232.0 38.0,240.0 35.0,263.0 48.0,273.0 84.0,263.0 96.0,245.0" fill="#e1d5c5" />
<polygon points="170.0,28.0 196.0,22.0 224.0,31.0 240.0,73.0 227.0,104.0 189.0,114.0 161.0,100.0 151.0,54.0" fill="#bc7d64" opacity="0.95" />
<polygon points="317.0,196.0 257.0,195.0 263.0,229.0 283.0,243.0 280.0,267.0 291.0,259.0 292.0,241.0 320.0,226.0 308.0,213.0" fill="#bc7d64" />
<polygon points="232.0,47.0 228.0,42.0 216.0,49.0 201.0,33.0 180.0,35.0 167.0,48.0 165.0,61.0 183.0,69.0 156.0,77.0 166.0,85.0 209.0,84.0 223.0,73.0" fill="#f683b3" />
<polygon points="222.0,129.0 144.0,135.0 127.0,178.0 154.0,202.0 174.0,196.0 153.0,171.0 158.0,149.0 195.0,138.0 199.0,150.0 223.0,138.0" fill="#90dcd3" />
<polygon points="242.0,140.0 205.0,147.0 199.0,184.0 165.0,161.0 196.0,140.0 163.0,145.0 167.0,204.0 131.0,189.0 150.0,215.0 224.0,208.0 254.0,173.0" fill="#43d1bf" opacity="0.95" />
<polygon points="231.0,285.0 200.0,324.0 213.0,316.0 209.0,332.0 187.0,339.0 172.0,332.0 196.0,326.0 178.0,307.0 215.0,294.0 177.0,287.0 163.0,298.0 177.0,300.0 171.0,323.0 151.0,316.0 155.0,339.0 189.0,354.0 220.0,342.0 238.0,312.0" fill="#023336" />
<polygon points="242.0,140.0 206.0,147.0 199.0,184.0 165.0,161.0 196.0,141.0 163.0,145.0 154.0,171.0 167.0,204.0 131.0,189.0 150.0,215.0 224.0,208.0 254.0,173.0" fill="#43d1bf" opacity="0.95" />
<polygon points="88.0,227.0 64.0,224.0 46.0,232.0 38.0,240.0 35.0,263.0 48.0,273.0 84.0,263.0 96.0,245.0" fill="#e1d5c5" opacity="0.95" />
<polygon points="174.0,47.0 185.0,38.0 197.0,37.0 205.0,43.0 207.0,55.0 217.0,54.0 220.0,65.0 210.0,77.0 186.0,83.0 184.0,78.0 190.0,70.0 175.0,56.0" fill="#f683b3" />
<polygon points="99.0,61.0 72.0,85.0 35.0,86.0 34.0,90.0 57.0,104.0 77.0,100.0 95.0,81.0" fill="#100610" />
<polygon points="131.0,262.0 136.0,276.0 151.0,277.0 179.0,267.0 186.0,259.0 134.0,256.0" fill="#dcbb9d" />
<polygon points="253.0,190.0 237.0,211.0 191.0,234.0 158.0,229.0 183.0,242.0 214.0,239.0 241.0,220.0" fill="#100610" />
<polygon points="260.0,193.0 259.0,221.0 283.0,243.0 278.0,263.0 287.0,263.0 288.0,246.0 315.0,227.0 308.0,211.0 319.0,199.0" fill="#bc7d64" opacity="0.95" />
<polygon points="223.0,130.0 148.0,133.0 127.0,178.0 167.0,203.0 174.0,196.0 153.0,171.0 158.0,149.0 194.0,138.0 199.0,150.0" fill="#90dcd3" opacity="0.95" />
<polygon points="240.0,313.0 230.0,333.0 206.0,351.0 189.0,355.0 159.0,345.0 184.0,367.0 210.0,367.0 230.0,349.0" fill="#100610" />
<polygon points="223.0,32.0 209.0,24.0 173.0,28.0 156.0,44.0 153.0,74.0 182.0,69.0 164.0,61.0 180.0,34.0 201.0,32.0 222.0,48.0" fill="#faaac4" />
<polygon points="74.0,234.0 79.0,241.0 74.0,258.0 70.0,262.0 52.0,262.0 47.0,249.0 50.0,242.0 60.0,235.0" fill="#e1d5c5" />
<polygon points="88.0,227.0 64.0,224.0 46.0,232.0 38.0,240.0 35.0,263.0 48.0,273.0 84.0,263.0 96.0,245.0" fill="#e1d5c5" opacity="0.95" />
<polygon points="235.0,293.0 187.0,339.0 172.0,332.0 178.0,307.0 215.0,294.0 177.0,287.0 165.0,296.0 171.0,323.0 151.0,319.0 156.0,341.0 189.0,354.0 214.0,346.0 235.0,322.0" fill="#023336" opacity="0.95" />
<polygon points="347.0,238.0 339.0,258.0 312.0,267.0 306.0,250.0 322.0,248.0 304.0,242.0 298.0,258.0 307.0,265.0 299.0,271.0 284.0,263.0 281.0,274.0 314.0,283.0 343.0,259.0" fill="#c17317" />
<polygon points="90.0,226.0 97.0,245.0 84.0,264.0 58.0,274.0 33.0,264.0 45.0,286.0 76.0,282.0 91.0,270.0 102.0,242.0" fill="#dcbb9d" />
<polygon points="223.0,131.0 148.0,133.0 127.0,177.0 167.0,203.0 174.0,196.0 153.0,171.0 158.0,149.0 193.0,138.0 199.0,150.0" fill="#90dcd3" opacity="0.95" />
<polygon points="226.0,144.0 234.0,151.0 239.0,166.0 230.0,188.0 222.0,193.0 220.0,188.0 225.0,170.0 221.0,148.0" fill="#43d1bf" />
<polygon points="234.0,55.0 224.0,73.0 209.0,85.0 166.0,88.0 200.0,97.0 223.0,84.0" fill="#e65795" />
<polygon points="226.0,145.0 222.0,148.0 226.0,170.0 222.0,192.0 229.0,188.0 238.0,166.0 233.0,151.0" fill="#90dcd3" />
<polygon points="216.0,54.0 209.0,54.0 202.0,67.0 191.0,71.0 185.0,81.0 210.0,76.0 219.0,65.0" fill="#faaac4" />
<polygon points="349.0,242.0 344.0,259.0 316.0,284.0 325.0,282.0 328.0,287.0 347.0,274.0 353.0,261.0" fill="#7e290a" />
<polygon points="248.0,204.0 190.0,234.0 160.0,232.0 183.0,242.0 208.0,241.0 232.0,229.0" fill="#100610" opacity="0.95" />
<polygon points="99.0,61.0 72.0,85.0 36.0,86.0 34.0,90.0 53.0,103.0 72.0,102.0 92.0,86.0" fill="#100610" opacity="0.95" />
<polygon points="346.0,39.0 338.0,32.0 309.0,34.0 297.0,41.0 293.0,62.0 316.0,64.0 303.0,57.0 304.0,48.0 314.0,39.0" fill="#faaac4" />
<polygon points="305.0,48.0 304.0,57.0 314.0,62.0 313.0,44.0 335.0,48.0 337.0,71.0 322.0,76.0 319.0,64.0 297.0,67.0 319.0,79.0 340.0,74.0 354.0,55.0 349.0,39.0 317.0,39.0" fill="#f683b3" />
<polygon points="254.0,177.0 238.0,201.0 203.0,218.0 148.0,217.0 182.0,218.0 189.0,228.0 240.0,204.0" fill="#09988a" />
<polygon points="351.0,275.0 326.0,292.0 295.0,290.0 294.0,293.0 310.0,301.0 325.0,301.0 337.0,295.0" fill="#100610" />
<polygon points="106.0,247.0 103.0,250.0 104.0,258.0 80.0,279.0 80.0,287.0 94.0,280.0 110.0,261.0" fill="#7e290a" />
<polygon points="91.0,40.0 92.0,57.0 78.0,76.0 40.0,81.0 25.0,64.0 31.0,83.0 57.0,88.0 80.0,80.0 98.0,56.0" fill="#3f1314" />
<polygon points="240.0,319.0 206.0,351.0 189.0,355.0 165.0,347.0 164.0,354.0 190.0,369.0 210.0,367.0 230.0,349.0" fill="#100610" opacity="0.95" />
<polygon points="209.0,307.0 200.0,299.0 191.0,298.0 181.0,304.0 178.0,316.0 184.0,321.0 191.0,313.0 205.0,316.0 210.0,312.0" fill="#100610" />
<polygon points="75.0,235.0 79.0,246.0 73.0,260.0 59.0,264.0 52.0,262.0 48.0,253.0 50.0,242.0 63.0,234.0" fill="#e1d5c5" opacity="0.95" />
<polygon points="222.0,31.0 196.0,23.0 172.0,29.0 156.0,44.0 153.0,74.0 181.0,70.0 164.0,61.0 177.0,36.0 200.0,32.0 222.0,48.0" fill="#faaac4" opacity="0.95" />
<polygon points="232.0,47.0 183.0,34.0 165.0,61.0 179.0,63.0 175.0,45.0 197.0,37.0 219.0,67.0 188.0,84.0 184.0,65.0 157.0,78.0 209.0,84.0" fill="#f683b3" opacity="0.95" />
<polygon points="175.0,170.0 175.0,176.0 178.0,178.0 189.0,172.0 209.0,175.0 207.0,168.0 200.0,161.0 186.0,161.0" fill="#100610" />
<polygon points="235.0,293.0 206.0,333.0 176.0,336.0 172.0,329.0 182.0,320.0 175.0,315.0 167.0,325.0 151.0,320.0 155.0,339.0 189.0,354.0 214.0,346.0 235.0,322.0" fill="#023336" opacity="0.95" />
<polygon points="162.0,299.0 154.0,309.0 153.0,315.0 160.0,322.0 169.0,324.0 172.0,307.0 176.0,300.0 167.0,301.0" fill="#075657" />
<polygon points="131.0,259.0 137.0,276.0 151.0,277.0 169.0,271.0 173.0,279.0 176.0,275.0 172.0,271.0 184.0,262.0 169.0,256.0" fill="#dcbb9d" opacity="0.95" />
<polygon points="342.0,258.0 311.0,267.0 306.0,250.0 321.0,246.0 306.0,241.0 299.0,251.0 306.0,266.0 284.0,263.0 280.0,272.0 293.0,283.0 312.0,284.0" fill="#c17317" opacity="0.95" />
<polygon points="352.0,279.0 319.0,303.0 293.0,291.0 332.0,286.0 287.0,284.0 295.0,298.0 320.0,305.0 340.0,297.0" fill="#3f1314" />
<polygon points="235.0,64.0 222.0,86.0 200.0,98.0 180.0,90.0 165.0,91.0 188.0,100.0 214.0,95.0 225.0,86.0" fill="#7e290a" />
<polygon points="101.0,240.0 82.0,265.0 58.0,274.0 37.0,267.0 35.0,271.0 46.0,286.0 73.0,283.0 94.0,266.0" fill="#dcbb9d" opacity="0.95" />
<polygon points="71.0,42.0 59.0,40.0 50.0,43.0 43.0,52.0 45.0,63.0 57.0,68.0 60.0,64.0 54.0,65.0 50.0,57.0 59.0,49.0 65.0,49.0 72.0,57.0 78.0,50.0" fill="#3f1314" />
<polygon points="131.0,259.0 134.0,274.0 149.0,277.0 171.0,271.0 184.0,262.0 181.0,258.0 135.0,256.0" fill="#dcbb9d" opacity="0.95" />
<polygon points="239.0,327.0 206.0,351.0 189.0,355.0 167.0,348.0 164.0,354.0 190.0,369.0 210.0,367.0 226.0,355.0" fill="#100610" opacity="0.95" />
<polygon points="75.0,235.0 79.0,246.0 74.0,258.0 59.0,264.0 52.0,262.0 48.0,253.0 50.0,242.0 63.0,234.0" fill="#e1d5c5" opacity="0.95" />
<polygon points="226.0,144.0 234.0,151.0 239.0,166.0 230.0,188.0 223.0,193.0 220.0,188.0 225.0,170.0 221.0,148.0" fill="#43d1bf" opacity="0.95" />
<polygon points="355.0,58.0 340.0,75.0 319.0,80.0 312.0,74.0 297.0,72.0 304.0,79.0 327.0,86.0 345.0,77.0" fill="#e65795" />
<polygon points="222.0,31.0 196.0,23.0 172.0,29.0 156.0,44.0 153.0,73.0 180.0,69.0 164.0,61.0 179.0,35.0 200.0,32.0 222.0,48.0" fill="#faaac4" opacity="0.95" />
<polygon points="352.0,248.0 347.0,248.0 339.0,265.0 319.0,281.0 331.0,286.0 343.0,278.0 352.0,264.0" fill="#7e290a" opacity="0.95" />
<polygon points="233.0,61.0 209.0,85.0 171.0,88.0 200.0,97.0 223.0,84.0" fill="#e65795" opacity="0.95" />
<polygon points="338.0,261.0 300.0,270.0 285.0,264.0 280.0,272.0 293.0,283.0 312.0,284.0 333.0,270.0" fill="#c17317" opacity="0.95" />
<polygon points="209.0,285.0 216.0,294.0 211.0,308.0 218.0,316.0 227.0,301.0 222.0,299.0 213.0,285.0" fill="#075657" />
<polygon points="216.0,54.0 209.0,54.0 202.0,67.0 190.0,72.0 185.0,81.0 210.0,76.0 219.0,65.0" fill="#faaac4" opacity="0.95" />
<polygon points="352.0,42.0 333.0,43.0 341.0,65.0 323.0,77.0 318.0,64.0 300.0,65.0 300.0,73.0 319.0,79.0 340.0,74.0 353.0,57.0" fill="#f683b3" opacity="0.95" />
<polygon points="74.0,235.0 63.0,235.0 51.0,242.0 48.0,249.0 52.0,261.0 63.0,261.0 56.0,254.0 56.0,248.0 62.0,242.0 70.0,241.0 77.0,249.0 78.0,241.0" fill="#dcbb9d" />
<polygon points="334.0,234.0 323.0,228.0 307.0,230.0 289.0,247.0 291.0,261.0 301.0,263.0 295.0,258.0 298.0,246.0 294.0,244.0 305.0,236.0 325.0,243.0 330.0,240.0 317.0,234.0" fill="#dcbb9d" />
<polygon points="344.0,37.0 321.0,31.0 296.0,43.0 294.0,64.0 315.0,65.0 303.0,57.0 304.0,48.0 313.0,40.0 339.0,41.0" fill="#faaac4" opacity="0.95" />
<polygon points="226.0,145.0 222.0,148.0 226.0,170.0 221.0,188.0 223.0,192.0 229.0,188.0 238.0,166.0 233.0,151.0" fill="#90dcd3" opacity="0.95" />
<polygon points="95.0,257.0 58.0,274.0 39.0,269.0 36.0,273.0 47.0,286.0 73.0,283.0 91.0,270.0" fill="#dcbb9d" opacity="0.95" />
<polygon points="230.0,211.0 194.0,224.0 191.0,228.0 202.0,228.0" fill="#075657" />
<polygon points="336.0,58.0 333.0,58.0 328.0,66.0 321.0,69.0 322.0,75.0 331.0,73.0 340.0,67.0" fill="#faaac4" />
<polygon points="201.0,40.0 188.0,38.0 175.0,47.0 175.0,54.0 183.0,64.0 180.0,58.0 182.0,50.0 188.0,45.0 196.0,44.0 204.0,51.0 205.0,46.0" fill="#e65795" />
<polygon points="215.0,294.0 199.0,284.0 182.0,286.0 168.0,297.0 180.0,303.0 197.0,297.0 208.0,304.0" fill="#023336" opacity="0.95" />
<polygon points="162.0,300.0 158.0,302.0 153.0,315.0 160.0,322.0 168.0,324.0 171.0,321.0 174.0,301.0" fill="#075657" opacity="0.95" />
<polygon points="226.0,144.0 234.0,151.0 239.0,166.0 230.0,188.0 224.0,193.0 220.0,190.0 225.0,174.0 221.0,148.0" fill="#43d1bf" opacity="0.95" />
<polygon points="108.0,249.0 103.0,250.0 102.0,261.0 89.0,274.0 81.0,277.0 79.0,286.0 85.0,286.0 102.0,272.0 110.0,261.0" fill="#7e290a" opacity="0.95" />
<polygon points="24.0,67.0 32.0,84.0 53.0,88.0 72.0,84.0 87.0,73.0 85.0,70.0 64.0,82.0 40.0,81.0" fill="#3f1314" opacity="0.95" />
<polygon points="147.0,221.0 149.0,227.0 163.0,238.0 189.0,244.0 166.0,237.0 158.0,231.0 158.0,223.0" fill="#3f1314" />
<polygon points="352.0,252.0 347.0,251.0 339.0,265.0 320.0,280.0 331.0,286.0 343.0,278.0 352.0,263.0" fill="#7e290a" opacity="0.95" />
<polygon points="188.0,283.0 189.0,285.0 198.0,282.0 212.0,283.0 224.0,296.0 224.0,288.0 205.0,275.0 200.0,274.0 199.0,279.0" fill="#e1d5c5" />
<polygon points="248.0,211.0 232.0,230.0 204.0,243.0 232.0,233.0" fill="#3f1314" />
<polygon points="75.0,45.0 64.0,40.0 50.0,43.0 43.0,52.0 45.0,63.0 55.0,67.0 50.0,61.0 51.0,55.0 65.0,49.0 72.0,56.0 78.0,52.0" fill="#3f1314" opacity="0.95" />
<polygon points="217.0,56.0 209.0,54.0 202.0,66.0 190.0,72.0 185.0,80.0 189.0,82.0 210.0,76.0 219.0,65.0" fill="#faaac4" opacity="0.95" />
<polygon points="343.0,36.0 321.0,31.0 301.0,38.0 296.0,43.0 293.0,62.0 309.0,63.0 303.0,50.0 313.0,40.0 339.0,41.0" fill="#faaac4" opacity="0.95" />
<polygon points="196.0,153.0 186.0,149.0 169.0,152.0 166.0,161.0 171.0,173.0 173.0,173.0 171.0,158.0 175.0,153.0" fill="#09988a" />
<polygon points="226.0,145.0 222.0,148.0 226.0,170.0 221.0,188.0 224.0,192.0 229.0,188.0 238.0,166.0 233.0,151.0" fill="#90dcd3" opacity="0.95" />
<polygon points="174.0,168.0 175.0,169.0 186.0,160.0 203.0,161.0 201.0,159.0 180.0,156.0" fill="#023336" />
<polygon points="231.0,46.0 218.0,50.0 210.0,39.0 197.0,35.0 207.0,52.0 217.0,54.0 220.0,65.0 194.0,85.0 209.0,84.0 223.0,73.0" fill="#f683b3" opacity="0.95" />
<polygon points="72.0,245.0 66.0,244.0 60.0,248.0 59.0,255.0 63.0,259.0 68.0,253.0 70.0,252.0 72.0,253.0 74.0,251.0 74.0,247.0" fill="#c17317" />
<polygon points="203.0,51.0 196.0,45.0 188.0,46.0 183.0,50.0 181.0,57.0 185.0,57.0 193.0,51.0 198.0,51.0 200.0,53.0" fill="#7e290a" />
<polygon points="352.0,64.0 333.0,78.0 319.0,80.0 311.0,74.0 302.0,78.0 327.0,86.0 345.0,77.0" fill="#e65795" opacity="0.95" />
<polygon points="161.0,221.0 164.0,223.0 173.0,223.0 182.0,226.0 186.0,222.0 182.0,219.0 166.0,219.0" fill="#075657" />
<polygon points="109.0,253.0 105.0,253.0 104.0,258.0 91.0,272.0 80.0,279.0 80.0,286.0 85.0,286.0 102.0,272.0 110.0,261.0" fill="#7e290a" opacity="0.95" />
<polygon points="78.0,50.0 71.0,42.0 59.0,40.0 45.0,48.0 43.0,58.0 47.0,63.0 51.0,55.0 59.0,49.0 66.0,50.0 72.0,56.0" fill="#3f1314" opacity="0.95" />
<polygon points="75.0,236.0 67.0,234.0 51.0,242.0 49.0,253.0 52.0,261.0 61.0,262.0 56.0,254.0 60.0,243.0 70.0,241.0 78.0,244.0" fill="#dcbb9d" opacity="0.95" />
<polygon points="295.0,73.0 299.0,81.0 315.0,88.0 319.0,87.0 311.0,81.0 302.0,79.0 296.0,72.0" fill="#7e290a" />
<polygon points="334.0,48.0 329.0,43.0 321.0,42.0 311.0,47.0 310.0,54.0 313.0,58.0 313.0,54.0 318.0,47.0 327.0,47.0 332.0,51.0" fill="#e65795" />
<polygon points="162.0,300.0 157.0,304.0 153.0,315.0 160.0,322.0 167.0,324.0 171.0,321.0 171.0,311.0 174.0,302.0 171.0,300.0" fill="#075657" opacity="0.95" />
<polygon points="172.0,164.0 175.0,165.0 176.0,159.0 180.0,155.0 201.0,158.0 204.0,161.0 207.0,157.0 204.0,155.0 177.0,153.0 172.0,158.0" fill="#075657" />
<polygon points="189.0,69.0 186.0,67.0 176.0,73.0 162.0,73.0 158.0,78.0 168.0,85.0 181.0,85.0 184.0,83.0 184.0,78.0" fill="#f683b3" opacity="0.95" />
<polygon points="204.0,43.0 197.0,38.0 188.0,38.0 179.0,43.0 174.0,51.0 178.0,57.0 186.0,46.0 196.0,44.0 203.0,49.0 205.0,48.0" fill="#e65795" opacity="0.95" />
<polygon points="233.0,212.0 221.0,216.0 206.0,226.0" fill="#023336" />
<polygon points="218.0,294.0 212.0,301.0 212.0,309.0 217.0,315.0 219.0,314.0 219.0,308.0 226.0,304.0" fill="#075657" opacity="0.95" />
<polygon points="225.0,78.0 220.0,77.0 207.0,88.0 185.0,86.0 182.0,90.0 200.0,97.0 209.0,87.0 222.0,85.0" fill="#e65795" opacity="0.95" />
<polygon points="172.0,226.0 177.0,228.0 181.0,233.0 192.0,232.0 191.0,230.0 179.0,226.0 175.0,227.0 173.0,225.0" fill="#3f1314" />
<polygon points="355.0,70.0 343.0,81.0 345.0,83.0 347.0,81.0 349.0,83.0 348.0,85.0 349.0,86.0 355.0,75.0 356.0,71.0" fill="#3f1314" />
<polygon points="75.0,236.0 67.0,234.0 51.0,242.0 49.0,253.0 52.0,261.0 61.0,261.0 56.0,254.0 57.0,246.0 65.0,241.0 76.0,242.0" fill="#dcbb9d" opacity="0.95" />
<polygon points="319.0,252.0 314.0,248.0 310.0,248.0 307.0,250.0 306.0,258.0 309.0,259.0 313.0,253.0 316.0,252.0 318.0,254.0" fill="#7e290a" />
<polygon points="343.0,46.0 344.0,46.0 347.0,49.0 348.0,52.0 344.0,56.0 341.0,56.0 339.0,54.0 339.0,49.0" fill="#f683b3" />
<polygon points="72.0,245.0 66.0,244.0 60.0,248.0 59.0,255.0 63.0,258.0 68.0,253.0 74.0,251.0 74.0,247.0" fill="#c17317" opacity="0.95" />
<polygon points="173.0,328.0 173.0,332.0 176.0,335.0 187.0,338.0 188.0,337.0 185.0,333.0 181.0,333.0 175.0,326.0" fill="#075657" />
<polygon points="208.0,217.0 206.0,216.0 200.0,219.0 188.0,218.0 184.0,226.0 188.0,228.0 194.0,223.0 208.0,219.0" fill="#09988a" opacity="0.95" />
<polygon points="204.0,43.0 197.0,38.0 188.0,38.0 179.0,43.0 174.0,51.0 178.0,55.0 188.0,45.0 196.0,44.0 201.0,47.0" fill="#e65795" opacity="0.95" />
<polygon points="101.0,251.0 98.0,254.0 97.0,256.0 97.0,262.0 98.0,263.0 103.0,258.0 103.0,253.0" fill="#c17317" />
<polygon points="320.0,245.0 314.0,241.0 304.0,242.0 299.0,251.0 299.0,259.0 302.0,261.0 305.0,259.0 308.0,248.0 314.0,247.0 317.0,249.0" fill="#c17317" opacity="0.95" />
<polygon points="184.0,278.0 183.0,277.0 179.0,278.0 170.0,284.0 168.0,289.0 169.0,290.0 175.0,283.0 183.0,280.0" fill="#90dcd3" />
<polygon points="348.0,39.0 334.0,44.0 337.0,49.0 343.0,46.0 348.0,50.0 338.0,58.0 344.0,67.0 353.0,57.0 350.0,50.0 352.0,42.0" fill="#f683b3" opacity="0.95" />
<polygon points="321.0,66.0 318.0,64.0 310.0,68.0 301.0,65.0 298.0,69.0 303.0,74.0 308.0,71.0 317.0,77.0 320.0,75.0" fill="#f683b3" opacity="0.95" />
<polygon points="334.0,48.0 326.0,42.0 321.0,42.0 313.0,45.0 310.0,53.0 314.0,53.0 317.0,48.0 322.0,46.0 332.0,51.0" fill="#e65795" opacity="0.95" />
<polygon points="198.0,279.0 198.0,281.0 203.0,283.0 213.0,282.0 213.0,280.0 205.0,275.0 201.0,276.0" fill="#e1d5c5" opacity="0.95" />
<polygon points="74.0,247.0 70.0,244.0 62.0,246.0 60.0,248.0 59.0,255.0 62.0,257.0 73.0,251.0" fill="#c17317" opacity="0.95" />
<polygon points="320.0,232.0 318.0,234.0 320.0,235.0 326.0,241.0 328.0,239.0 328.0,238.0 324.0,234.0 323.0,232.0" fill="#e1d5c5" />
<polygon points="344.0,236.0 341.0,238.0 342.0,242.0 341.0,253.0 342.0,254.0 345.0,253.0 347.0,247.0 347.0,238.0" fill="#c17317" opacity="0.95" />
<polygon points="164.0,220.0 164.0,222.0 166.0,223.0 173.0,223.0 178.0,225.0 185.0,223.0 185.0,221.0 182.0,219.0 166.0,219.0" fill="#075657" opacity="0.95" />
<polygon points="205.0,328.0 204.0,327.0 201.0,330.0 196.0,332.0 195.0,331.0 192.0,333.0 189.0,332.0 188.0,334.0 191.0,336.0 194.0,336.0 197.0,333.0 201.0,333.0" fill="#e1d5c5" />
<polygon points="178.0,150.0 175.0,149.0 167.0,154.0 167.0,164.0 171.0,164.0 171.0,158.0 175.0,153.0 178.0,152.0" fill="#09988a" opacity="0.95" />
<polygon points="215.0,279.0 221.0,284.0 225.0,284.0 226.0,283.0 219.0,279.0 217.0,279.0 216.0,278.0" fill="#023336" />
<polygon points="189.0,157.0 187.0,156.0 181.0,156.0 177.0,159.0 177.0,164.0 179.0,165.0 184.0,161.0 189.0,159.0" fill="#023336" opacity="0.95" />
<polygon points="150.0,217.0 150.0,219.0 155.0,221.0 159.0,221.0 163.0,219.0 163.0,217.0 161.0,216.0 152.0,216.0" fill="#09988a" opacity="0.95" />
<polygon points="210.0,154.0 207.0,151.0 205.0,152.0 200.0,152.0 199.0,153.0 200.0,154.0 204.0,154.0 208.0,157.0" fill="#09988a" />
<polygon points="191.0,219.0 188.0,220.0 185.0,224.0 185.0,226.0 188.0,228.0 194.0,223.0 194.0,221.0" fill="#09988a" opacity="0.95" />
<polygon points="156.0,299.0 154.0,301.0 154.0,303.0 152.0,307.0 153.0,309.0 155.0,307.0 157.0,303.0 157.0,300.0" fill="#023336" />
<polygon points="101.0,252.0 99.0,253.0 97.0,256.0 97.0,261.0 99.0,262.0 101.0,261.0 103.0,258.0 103.0,253.0" fill="#c17317" opacity="0.95" />
<polygon points="241.0,201.0 239.0,200.0 234.0,204.0 229.0,206.0 229.0,208.0 231.0,209.0 241.0,203.0" fill="#09988a" opacity="0.95" />
<polygon points="214.0,313.0 212.0,312.0 209.0,315.0 206.0,316.0 204.0,321.0 206.0,322.0 208.0,321.0 210.0,317.0 214.0,315.0" fill="#023336" opacity="0.95" />
<polygon points="246.0,192.0 244.0,193.0 243.0,195.0 243.0,197.0 245.0,198.0 247.0,197.0 248.0,195.0 248.0,193.0" fill="#09988a" opacity="0.95" />
<polygon points="206.0,151.0 205.0,152.0 204.0,152.0 204.0,154.0 207.0,156.0 208.0,155.0 209.0,155.0 209.0,153.0" fill="#09988a" opacity="0.95" />
</svg>