<svg xmlns="http://www.w3.org/2000/svg" width="768" height="768" viewBox="0 0 384 384">
<rect width="384" height="384" fill="#936657"/>
<polygon points="0.0,0.0 0.0,383.0 383.0,383.0 383.0,0.0" fill="#9c5f4a" />
<polygon points="0.0,0.0 0.0,383.0 383.0,383.0 383.0,0.0" fill="#9c5f4a" opacity="0.95" />
<polygon points="0.0,0.0 0.0,383.0 383.0,383.0 383.0,0.0" fill="#9c5f4a" opacity="0.95" />
<polygon points="189.0,123.0 236.0,145.0 254.0,174.0 238.0,242.0 201.0,257.0 149.0,246.0 129.0,185.0 138.0,155.0" fill="#9c5f4a" />
<polygon points="131.0,171.0 135.0,198.0 175.0,220.0 229.0,212.0 253.0,186.0 245.0,156.0 198.0,135.0 194.0,171.0 185.0,133.0 148.0,147.0" fill="#65f6f1" />
<polygon points="190.0,123.0 236.0,145.0 254.0,174.0 238.0,242.0 201.0,257.0 149.0,246.0 129.0,185.0 138.0,155.0" fill="#9c5f4a" opacity="0.95" />
<polygon points="190.0,123.0 236.0,145.0 254.0,174.0 238.0,242.0 201.0,257.0 149.0,246.0 129.0,185.0 138.0,155.0" fill="#9c5f4a" opacity="0.95" />
<polygon points="131.0,171.0 135.0,198.0 175.0,220.0 229.0,212.0 253.0,186.0 245.0,156.0 198.0,135.0 193.0,171.0 184.0,133.0 148.0,147.0" fill="#65f6f1" opacity="0.95" />
<polygon points="248.0,203.0 202.0,226.0 191.0,222.0 189.0,232.0 185.0,222.0 137.0,204.0 150.0,245.0 205.0,255.0 236.0,243.0" fill="#3b0642" />
<polygon points="131.0,171.0 135.0,198.0 175.0,220.0 229.0,212.0 253.0,186.0 245.0,156.0 208.0,134.0 198.0,136.0 193.0,171.0 183.0,133.0 148.0,147.0" fill="#65f6f1" opacity="0.95" />
<polygon points="247.0,205.0 201.0,224.0 138.0,208.0 150.0,245.0 205.0,255.0 236.0,243.0" fill="#3b0642" opacity="0.95" />
<polygon points="246.0,207.0 189.0,225.0 139.0,212.0 150.0,245.0 205.0,255.0 236.0,243.0" fill="#3b0642" opacity="0.95" />
<polygon points="190.0,124.0 187.0,127.0 188.0,148.0 191.0,151.0 195.0,152.0 196.0,151.0 196.0,126.0 193.0,124.0" fill="#311681" />
<polygon points="188.0,150.0 187.0,151.0 188.0,167.0 190.0,170.0 194.0,170.0 196.0,167.0 196.0,154.0 194.0,152.0 190.0,152.0" fill="#2e29a5" />
<polygon points="190.0,124.0 187.0,127.0 188.0,149.0 194.0,151.0 196.0,150.0 196.0,126.0" fill="#311681" opacity="0.95" />
<polygon points="189.0,151.0 187.0,152.0 187.0,163.0 189.0,169.0 193.0,170.0 196.0,167.0 196.0,153.0" fill="#2e29a5" opacity="0.95" />
<polygon points="191.0,124.0 187.0,127.0 188.0,148.0 193.0,151.0 196.0,149.0 196.0,126.0" fill="#311681" opacity="0.95" />
<polygon points="190.0,152.0 187.0,154.0 187.0,163.0 188.0,167.0 192.0,170.0 196.0,167.0 196.0,154.0 193.0,152.0" fill="#2e29a5" opacity="0.95" />
<polygon points="188.0,222.0 187.0,223.0 188.0,224.0 188.0,230.0 189.0,231.0 190.0,230.0 190.0,225.0" fill="#3f255a" />
</svg>