<svg xmlns="http://www.w3.org/2000/svg" width="768" height="768" viewBox="0 0 384 384">
<rect width="384" height="384" fill="#8c6d59"/>
<polygon points="152.0,11.0 272.0,188.0 209.0,238.0 129.0,196.0 175.0,269.0 38.0,383.0 383.0,383.0 383.0,0.0" fill="#89604b" />
<polygon points="171.0,0.0 0.0,0.0 0.0,383.0 114.0,341.0 174.0,269.0 125.0,178.0 141.0,120.0 189.0,92.0 144.0,37.0" fill="#a47b66" />
<polygon points="171.0,0.0 161.0,73.0 250.0,123.0 272.0,188.0 209.0,238.0 128.0,200.0 175.0,269.0 38.0,383.0 383.0,383.0 383.0,0.0" fill="#89604b" opacity="0.95" />
<polygon points="170.0,0.0 0.0,0.0 0.0,383.0 117.0,339.0 174.0,269.0 125.0,178.0 184.0,94.0 145.0,40.0" fill="#a47b66" opacity="0.95" />
<polygon points="171.0,0.0 156.0,60.0 250.0,123.0 272.0,188.0 209.0,238.0 130.0,203.0 172.0,275.0 39.0,383.0 383.0,383.0 383.0,0.0" fill="#89604b" opacity="0.95" />
<polygon points="170.0,0.0 0.0,0.0 0.0,383.0 117.0,339.0 174.0,269.0 125.0,178.0 138.0,124.0 182.0,96.0 145.0,39.0" fill="#a47b66" opacity="0.95" />
<polygon points="130.0,190.0 154.0,214.0 182.0,217.0 188.0,227.0 232.0,208.0 260.0,160.0 140.0,159.0 144.0,182.0 131.0,180.0" fill="#31c6e3" />
<polygon points="130.0,190.0 140.0,201.0 156.0,190.0 171.0,205.0 144.0,206.0 187.0,227.0 232.0,208.0 258.0,160.0 140.0,159.0 144.0,182.0" fill="#31c6e3" opacity="0.95" />
<polygon points="190.0,103.0 170.0,104.0 159.0,119.0 150.0,121.0 137.0,149.0 187.0,151.0" fill="#49332f" />
<polygon points="209.0,107.0 211.0,122.0 201.0,155.0 260.0,152.0 254.0,131.0 240.0,116.0 223.0,107.0" fill="#7ecc68" />
<polygon points="130.0,190.0 139.0,200.0 154.0,189.0 171.0,203.0 149.0,206.0 154.0,214.0 199.0,224.0 245.0,195.0 256.0,162.0 140.0,159.0 144.0,182.0" fill="#31c6e3" opacity="0.95" />
<polygon points="209.0,106.0 204.0,151.0 260.0,152.0 255.0,133.0 244.0,119.0 226.0,108.0" fill="#7ecc68" opacity="0.95" />
<polygon points="267.0,153.0 255.0,192.0 232.0,222.0 184.0,232.0 221.0,231.0 251.0,211.0 266.0,187.0" fill="#251712" />
<polygon points="189.0,109.0 182.0,109.0 180.0,102.0 169.0,105.0 159.0,119.0 149.0,122.0 138.0,149.0 188.0,150.0" fill="#49332f" opacity="0.95" />
<polygon points="193.0,102.0 187.0,152.0 141.0,150.0 132.0,154.0 196.0,158.0" fill="#251712" />
<polygon points="209.0,107.0 206.0,151.0 259.0,150.0 254.0,131.0 240.0,116.0 223.0,107.0" fill="#7ecc68" opacity="0.95" />
<polygon points="190.0,111.0 178.0,102.0 170.0,105.0 159.0,119.0 149.0,123.0 139.0,147.0 150.0,151.0 188.0,150.0" fill="#49332f" opacity="0.95" />
<polygon points="202.0,101.0 195.0,102.0 198.0,107.0 198.0,154.0 203.0,151.0 210.0,122.0 207.0,109.0 211.0,104.0" fill="#abdd96" />
<polygon points="142.0,198.0 154.0,188.0 173.0,205.0 167.0,208.0 147.0,204.0" fill="#31c6e3" />
<polygon points="269.0,161.0 233.0,221.0 191.0,234.0 221.0,231.0 251.0,211.0 264.0,193.0" fill="#251712" opacity="0.95" />
<polygon points="264.0,142.0 270.0,173.0 262.0,199.0 236.0,226.0 209.0,237.0 236.0,229.0 265.0,201.0 274.0,161.0" fill="#49332f" />
<polygon points="197.0,101.0 197.0,152.0 200.0,153.0 208.0,134.0 209.0,103.0" fill="#abdd96" opacity="0.95" />
<polygon points="143.0,198.0 144.0,201.0 150.0,204.0 164.0,207.0 171.0,205.0 154.0,189.0 149.0,195.0" fill="#97e0f2" />
<polygon points="268.0,166.0 235.0,219.0 203.0,235.0 231.0,226.0 255.0,207.0" fill="#251712" opacity="0.95" />
<polygon points="130.0,156.0 126.0,166.0 127.0,183.0 131.0,179.0 137.0,185.0 143.0,182.0 135.0,169.0 135.0,163.0 140.0,158.0" fill="#97e0f2" />
<polygon points="262.0,162.0 249.0,191.0 232.0,209.0 188.0,228.0 201.0,231.0 236.0,209.0 256.0,183.0" fill="#0489a5" />
<polygon points="195.0,106.0 191.0,106.0 188.0,151.0 141.0,150.0 134.0,154.0 196.0,157.0" fill="#251712" opacity="0.95" />
<polygon points="169.0,102.0 142.0,120.0 144.0,125.0 140.0,141.0 148.0,122.0 159.0,118.0 167.0,110.0 165.0,106.0" fill="#89604b" />
<polygon points="202.0,101.0 197.0,103.0 196.0,110.0 197.0,151.0 200.0,153.0 203.0,151.0 209.0,126.0 208.0,104.0" fill="#abdd96" opacity="0.95" />
<polygon points="196.0,123.0 190.0,123.0 188.0,151.0 141.0,150.0 138.0,154.0 195.0,157.0" fill="#251712" opacity="0.95" />
<polygon points="257.0,183.0 246.0,200.0 227.0,217.0 230.0,220.0 248.0,201.0" fill="#0a5e71" />
<polygon points="130.0,156.0 127.0,161.0 126.0,174.0 137.0,185.0 143.0,182.0 135.0,169.0 138.0,157.0" fill="#97e0f2" opacity="0.95" />
<polygon points="192.0,94.0 195.0,100.0 219.0,104.0 207.0,99.0 201.0,94.0" fill="#a47b66" />
<polygon points="143.0,198.0 144.0,201.0 150.0,204.0 164.0,207.0 170.0,205.0 169.0,202.0 154.0,190.0" fill="#97e0f2" opacity="0.95" />
<polygon points="162.0,218.0 180.0,225.0 183.0,225.0 185.0,223.0 185.0,220.0 182.0,218.0" fill="#0489a5" />
<polygon points="131.0,156.0 127.0,161.0 126.0,173.0 137.0,185.0 142.0,183.0 143.0,179.0 135.0,169.0 137.0,158.0" fill="#97e0f2" opacity="0.95" />
<polygon points="143.0,198.0 144.0,201.0 150.0,204.0 164.0,207.0 170.0,205.0 169.0,202.0 154.0,190.0" fill="#97e0f2" opacity="0.95" />
<polygon points="166.0,109.0 158.0,109.0 154.0,114.0 145.0,117.0 142.0,120.0 144.0,126.0 148.0,126.0 149.0,121.0 159.0,118.0" fill="#89604b" opacity="0.95" />
<polygon points="146.0,218.0 163.0,229.0 167.0,228.0 159.0,224.0 154.0,216.0 152.0,220.0 148.0,217.0" fill="#49332f" />
<polygon points="227.0,214.0 205.0,224.0 192.0,225.0 189.0,229.0 200.0,230.0" fill="#0489a5" opacity="0.95" />
<polygon points="271.0,156.0 269.0,157.0 270.0,173.0 265.0,191.0 267.0,194.0 271.0,188.0 274.0,174.0 274.0,161.0" fill="#49332f" opacity="0.95" />
<polygon points="253.0,156.0 249.0,153.0 234.0,154.0 231.0,156.0 232.0,157.0 237.0,156.0 252.0,157.0" fill="#156017" />
<polygon points="169.0,223.0 172.0,226.0 176.0,227.0 179.0,231.0 187.0,230.0 184.0,227.0 176.0,224.0 174.0,225.0 170.0,222.0" fill="#49332f" />
<polygon points="204.0,157.0 207.0,158.0 210.0,156.0 222.0,156.0 223.0,157.0 228.0,156.0 223.0,154.0 213.0,153.0 207.0,154.0" fill="#156017" />
<polygon points="167.0,218.0 167.0,220.0 180.0,225.0 185.0,223.0 185.0,220.0 182.0,218.0 170.0,218.0 169.0,217.0" fill="#0489a5" opacity="0.95" />
<polygon points="184.0,103.0 187.0,106.0 187.0,107.0 184.0,110.0 181.0,107.0 181.0,106.0" fill="#49332f" />
<polygon points="193.0,96.0 193.0,99.0 195.0,100.0 202.0,100.0 203.0,101.0 206.0,100.0 206.0,98.0 201.0,94.0 197.0,94.0" fill="#a47b66" opacity="0.95" />
<polygon points="163.0,66.0 166.0,64.0 169.0,64.0 173.0,67.0 173.0,70.0 170.0,72.0 168.0,72.0 163.0,68.0" fill="#89604b" opacity="0.95" />
<polygon points="153.0,116.0 152.0,117.0 149.0,115.0 145.0,117.0 142.0,120.0 142.0,122.0 145.0,124.0 152.0,119.0" fill="#89604b" opacity="0.95" />
<polygon points="249.0,152.0 250.0,153.0 252.0,153.0 255.0,156.0 259.0,156.0 261.0,154.0 260.0,153.0 259.0,154.0 257.0,154.0 251.0,151.0" fill="#3a9d37" />
<polygon points="178.0,227.0 178.0,230.0 180.0,231.0 183.0,231.0 185.0,230.0 185.0,228.0 181.0,226.0" fill="#49332f" opacity="0.95" />
<polygon points="221.0,105.0 222.0,106.0 223.0,105.0 235.0,112.0 236.0,111.0 225.0,105.0 224.0,106.0 222.0,104.0" fill="#a47b66" />
<polygon points="232.0,213.0 228.0,216.0 228.0,218.0 231.0,220.0 234.0,218.0 234.0,214.0" fill="#0a5e71" opacity="0.95" />
<polygon points="175.0,220.0 175.0,222.0 180.0,225.0 182.0,225.0 185.0,223.0 185.0,220.0 182.0,218.0 178.0,218.0" fill="#0489a5" opacity="0.95" />
<polygon points="265.0,144.0 263.0,145.0 263.0,147.0 264.0,148.0 264.0,150.0 267.0,152.0 269.0,151.0 269.0,148.0 268.0,146.0" fill="#49332f" opacity="0.95" />
<polygon points="164.0,111.0 161.0,109.0 160.0,110.0 159.0,109.0 156.0,111.0 156.0,114.0 155.0,115.0 157.0,114.0 160.0,116.0 164.0,113.0" fill="#89604b" opacity="0.95" />
<polygon points="194.0,96.0 194.0,98.0 197.0,100.0 200.0,100.0 203.0,98.0 203.0,96.0 200.0,94.0 197.0,94.0" fill="#a47b66" opacity="0.95" />
<polygon points="231.0,214.0 228.0,216.0 228.0,218.0 231.0,220.0 234.0,218.0 234.0,216.0" fill="#0a5e71" opacity="0.95" />
<polygon points="200.0,224.0 197.0,226.0 197.0,228.0 200.0,230.0 203.0,228.0 203.0,226.0" fill="#0489a5" opacity="0.95" />
</svg>