<svg xmlns="http://www.w3.org/2000/svg" width="768" height="768" viewBox="0 0 384 384">
<rect width="384" height="384" fill="#7d5a44"/>
<polygon points="291.0,368.0 193.0,245.0 239.0,231.0 165.0,222.0 213.0,290.0 174.0,337.0 2.0,365.0" fill="#6a382d" />
<polygon points="125.0,168.0 144.0,205.0 191.0,231.0 232.0,212.0 254.0,168.0" fill="#2fd6ec" />
<polygon points="280.0,0.0 338.0,21.0 295.0,33.0 345.0,52.0 353.0,99.0 278.0,178.0 370.0,295.0 247.0,383.0 383.0,383.0 383.0,242.0 321.0,186.0 383.0,137.0 383.0,0.0" fill="#2e1c1a" />
<polygon points="0.0,0.0 140.0,34.0 185.0,70.0 262.0,44.0 179.0,43.0 136.0,15.0 337.0,23.0 279.0,0.0" fill="#6a382d" />
<polygon points="0.0,105.0 9.0,329.0 29.0,325.0 17.0,316.0 19.0,272.0 57.0,240.0 67.0,210.0 45.0,195.0 70.0,165.0" fill="#a8776c" />
<polygon points="291.0,363.0 193.0,245.0 236.0,234.0 167.0,223.0 213.0,289.0 174.0,337.0 9.0,366.0 248.0,383.0" fill="#6a382d" opacity="0.95" />
<polygon points="280.0,0.0 338.0,21.0 299.0,33.0 345.0,52.0 353.0,99.0 279.0,179.0 370.0,295.0 249.0,383.0 383.0,383.0 383.0,242.0 321.0,186.0 383.0,137.0 383.0,0.0" fill="#2e1c1a" opacity="0.95" />
<polygon points="0.0,0.0 186.0,70.0 259.0,44.0 136.0,15.0 337.0,23.0 279.0,0.0" fill="#6a382d" opacity="0.95" />
<polygon points="178.0,124.0 172.0,146.0 205.0,166.0 241.0,167.0 248.0,148.0 219.0,111.0 205.0,105.0" fill="#6a382d" />
<polygon points="125.0,168.0 144.0,205.0 191.0,231.0 232.0,212.0 255.0,174.0 253.0,168.0" fill="#2fd6ec" opacity="0.95" />
<polygon points="137.0,199.0 140.0,227.0 185.0,278.0 153.0,323.0 101.0,354.0 167.0,341.0 212.0,293.0" fill="#2e1c1a" />
<polygon points="0.0,105.0 9.0,329.0 27.0,325.0 19.0,272.0 57.0,240.0 66.0,211.0 45.0,195.0 69.0,164.0" fill="#a8776c" opacity="0.95" />
<polygon points="111.0,61.0 81.0,79.0 79.0,100.0 91.0,125.0 113.0,140.0 118.0,130.0 105.0,121.0 150.0,87.0" fill="#6a382d" />
<polygon points="280.0,0.0 335.0,21.0 302.0,33.0 353.0,79.0 344.0,130.0 281.0,179.0 370.0,295.0 254.0,383.0 383.0,383.0 383.0,242.0 321.0,186.0 383.0,137.0 383.0,0.0" fill="#2e1c1a" opacity="0.95" />
<polygon points="383.0,138.0 342.0,158.0 322.0,181.0 348.0,204.0 350.0,221.0 382.0,241.0 383.0,185.0 357.0,180.0 383.0,173.0" fill="#6a382d" />
<polygon points="93.0,264.0 73.0,281.0 69.0,303.0 87.0,315.0 114.0,320.0 140.0,299.0 145.0,276.0 140.0,269.0 121.0,272.0" fill="#6a382d" />
<polygon points="291.0,368.0 216.0,292.0 151.0,350.0 46.0,342.0 46.0,357.0 10.0,364.0 48.0,364.0 35.0,383.0 253.0,383.0" fill="#6a382d" opacity="0.95" />
<polygon points="273.0,206.0 247.0,285.0 312.0,341.0 304.0,323.0 324.0,313.0 270.0,272.0 334.0,265.0 310.0,245.0 263.0,264.0 297.0,238.0" fill="#2e1c1a" />
<polygon points="125.0,169.0 144.0,205.0 191.0,231.0 232.0,212.0 255.0,174.0 252.0,168.0" fill="#2fd6ec" opacity="0.95" />
<polygon points="314.0,66.0 286.0,61.0 236.0,89.0 266.0,130.0 285.0,141.0 299.0,132.0 287.0,110.0 294.0,77.0 316.0,74.0" fill="#2e1c1a" />
<polygon points="0.0,105.0 9.0,329.0 26.0,324.0 24.0,259.0 58.0,237.0 65.0,213.0 45.0,195.0 69.0,164.0" fill="#a8776c" opacity="0.95" />
<polygon points="0.0,0.0 140.0,34.0 187.0,70.0 255.0,46.0 179.0,43.0 168.0,17.0 334.0,23.0 279.0,0.0" fill="#6a382d" opacity="0.95" />
<polygon points="0.0,54.0 15.0,41.0 36.0,45.0 39.0,56.0 56.0,41.0 54.0,35.0 90.0,26.0 82.0,17.0 0.0,8.0" fill="#8b574d" />
<polygon points="203.0,104.0 184.0,98.0 160.0,115.0 136.0,155.0 144.0,166.0 201.0,165.0 171.0,145.0 177.0,124.0" fill="#2e1c1a" />
<polygon points="135.0,17.0 189.0,31.0 190.0,38.0 165.0,37.0 204.0,46.0 276.0,37.0 244.0,38.0 232.0,21.0" fill="#8b574d" />
<polygon points="67.0,66.0 54.0,83.0 55.0,109.0 104.0,144.0 110.0,139.0 82.0,113.0 79.0,82.0 109.0,61.0" fill="#2e1c1a" />
<polygon points="138.0,201.0 140.0,227.0 184.0,280.0 153.0,323.0 101.0,354.0 167.0,341.0 212.0,293.0" fill="#2e1c1a" opacity="0.95" />
<polygon points="29.0,327.0 0.0,330.0 0.0,383.0 34.0,383.0 49.0,368.0 48.0,363.0 25.0,370.0 1.0,365.0 49.0,354.0" fill="#8b574d" />
<polygon points="275.0,207.0 248.0,286.0 308.0,333.0 323.0,312.0 271.0,271.0 333.0,264.0 309.0,246.0 262.0,263.0 296.0,239.0" fill="#2e1c1a" opacity="0.95" />
<polygon points="47.0,137.0 71.0,165.0 58.0,176.0 69.0,183.0 46.0,195.0 47.0,204.0 63.0,210.0 102.0,176.0" fill="#8b574d" />
<polygon points="0.0,58.0 0.0,104.0 16.0,115.0 17.0,123.0 36.0,126.0 26.0,100.0 31.0,70.0 24.0,66.0 7.0,72.0 5.0,59.0" fill="#8b574d" />
<polygon points="0.0,54.0 10.0,41.0 34.0,44.0 40.0,54.0 56.0,36.0 90.0,26.0 82.0,17.0 0.0,8.0" fill="#8b574d" opacity="0.95" />
<polygon points="0.0,8.0 0.0,104.0 33.0,126.0 30.0,70.0 7.0,71.0 4.0,46.0 18.0,35.0 41.0,53.0 86.0,20.0" fill="#8b574d" opacity="0.95" />
<polygon points="138.0,17.0 190.0,32.0 169.0,37.0 226.0,47.0 272.0,39.0 244.0,38.0 234.0,22.0" fill="#8b574d" opacity="0.95" />
<polygon points="196.0,95.0 220.0,110.0 249.0,147.0 244.0,166.0 258.0,159.0 260.0,151.0 229.0,108.0" fill="#f5efe6" />
<polygon points="30.0,328.0 0.0,330.0 0.0,383.0 33.0,383.0 49.0,369.0 48.0,363.0 25.0,370.0 8.0,366.0 48.0,355.0 43.0,339.0" fill="#8b574d" opacity="0.95" />
<polygon points="0.0,58.0 0.0,104.0 16.0,115.0 16.0,122.0 36.0,125.0 26.0,100.0 30.0,69.0 24.0,66.0 8.0,72.0" fill="#8b574d" opacity="0.95" />
<polygon points="134.0,259.0 150.0,285.0 174.0,282.0 173.0,275.0 155.0,272.0 160.0,250.0 147.0,267.0" fill="#f5efe6" />
<polygon points="278.0,204.0 319.0,253.0 317.0,243.0 295.0,213.0" fill="#f5efe6" />
<polygon points="165.0,84.0 148.0,95.0 148.0,107.0 143.0,99.0 130.0,111.0 119.0,142.0 131.0,141.0 139.0,128.0 131.0,115.0 139.0,117.0 140.0,105.0 145.0,111.0 159.0,105.0 170.0,89.0" fill="#fab224" />
<polygon points="45.0,122.0 52.0,137.0 79.0,157.0 91.0,157.0 95.0,162.0 114.0,158.0 104.0,150.0 96.0,160.0" fill="#fab224" />
<polygon points="267.0,190.0 317.0,226.0 305.0,204.0 301.0,211.0 297.0,199.0 274.0,189.0" fill="#fab224" />
<polygon points="272.0,51.0 264.0,46.0 244.0,59.0 248.0,68.0 253.0,69.0 260.0,66.0" fill="#ed8808" />
<polygon points="255.0,209.0 233.0,246.0 232.0,253.0 239.0,252.0 240.0,263.0 248.0,254.0 248.0,239.0 254.0,233.0 252.0,229.0 259.0,215.0" fill="#fab224" />
<polygon points="166.0,292.0 158.0,291.0 155.0,299.0 149.0,289.0 120.0,318.0 132.0,323.0 145.0,318.0 142.0,301.0 149.0,303.0 149.0,311.0" fill="#fab224" />
<polygon points="219.0,271.0 226.0,295.0 254.0,318.0 252.0,307.0 249.0,310.0 243.0,298.0 236.0,296.0" fill="#fab224" />
<polygon points="107.0,58.0 128.0,66.0 155.0,89.0 161.0,86.0 140.0,66.0" fill="#f5efe6" />
<polygon points="95.0,348.0 100.0,342.0 119.0,337.0 137.0,326.0 125.0,322.0 119.0,331.0 111.0,321.0 101.0,328.0 93.0,323.0" fill="#efcc9a" />
<polygon points="65.0,57.0 49.0,67.0 42.0,86.0 45.0,109.0 63.0,126.0 48.0,107.0 48.0,84.0" fill="#8b2707" />
<polygon points="217.0,284.0 233.0,312.0 276.0,345.0 236.0,310.0" fill="#f5efe6" />
<polygon points="40.0,261.0 35.0,268.0 31.0,295.0 36.0,309.0 44.0,319.0 53.0,317.0 38.0,304.0" fill="#8b2707" />
<polygon points="207.0,96.0 231.0,103.0 263.0,145.0 256.0,127.0 232.0,98.0 223.0,93.0" fill="#efcc9a" />
<polygon points="344.0,248.0 343.0,256.0 350.0,274.0 347.0,292.0 350.0,300.0 357.0,294.0 358.0,284.0" fill="#fab224" />
<polygon points="283.0,149.0 280.0,150.0 266.0,165.0 266.0,171.0 269.0,175.0 276.0,174.0 282.0,170.0 284.0,163.0" fill="#8b2707" />
<polygon points="195.0,96.0 234.0,125.0 250.0,149.0 246.0,164.0 259.0,158.0 254.0,139.0 229.0,108.0" fill="#f5efe6" opacity="0.95" />
<polygon points="336.0,73.0 331.0,83.0 334.0,95.0 321.0,120.0 329.0,129.0 331.0,112.0 339.0,109.0 341.0,87.0 335.0,87.0" fill="#fab224" />
<polygon points="350.0,326.0 322.0,335.0 319.0,330.0 327.0,327.0 335.0,315.0 312.0,322.0 318.0,342.0" fill="#f3be6e" />
<polygon points="204.0,95.0 243.0,121.0 264.0,157.0 243.0,116.0 231.0,104.0" fill="#f1ddc3" />
<polygon points="54.0,128.0 71.0,143.0 99.0,158.0 100.0,152.0" fill="#ed8808" />
<polygon points="64.0,250.0 58.0,241.0 49.0,242.0 27.0,257.0 54.0,245.0 57.0,252.0 50.0,264.0 52.0,274.0" fill="#f5efe6" />
<polygon points="0.0,235.0 0.0,269.0 3.0,269.0 8.0,265.0 7.0,249.0 9.0,247.0 9.0,241.0" fill="#d2a983" />
<polygon points="133.0,186.0 128.0,179.0 102.0,171.0 104.0,176.0 86.0,186.0 68.0,210.0 98.0,184.0 115.0,179.0 124.0,189.0" fill="#f5efe6" />
<polygon points="98.0,44.0 100.0,55.0 121.0,59.0 130.0,56.0 138.0,63.0 149.0,64.0 140.0,62.0 131.0,53.0 119.0,53.0 113.0,46.0" fill="#fab224" />
<polygon points="278.0,41.0 266.0,45.0 273.0,51.0 266.0,60.0 267.0,63.0 284.0,56.0 284.0,46.0" fill="#d66907" />
<polygon points="85.0,353.0 81.0,324.0 76.0,329.0 75.0,345.0 70.0,347.0 49.0,340.0" fill="#f5efe6" />
<polygon points="79.0,35.0 74.0,43.0 60.0,40.0 70.0,49.0 50.0,61.0 44.0,74.0 56.0,59.0 86.0,53.0 78.0,43.0" fill="#b64606" />
<polygon points="105.0,148.0 110.0,153.0 131.0,162.0 133.0,161.0 125.0,151.0 113.0,143.0 108.0,142.0" fill="#f5efe6" />
<polygon points="261.0,321.0 281.0,331.0 285.0,340.0 293.0,345.0 290.0,331.0 279.0,321.0" fill="#f3be6e" />
<polygon points="255.0,321.0 271.0,335.0 287.0,343.0 281.0,332.0" fill="#efcc9a" />
<polygon points="247.0,319.0 284.0,349.0 307.0,351.0 289.0,347.0" fill="#f1ddc3" />
<polygon points="341.0,110.0 332.0,112.0 329.0,130.0 318.0,124.0 321.0,134.0 317.0,139.0 312.0,129.0 296.0,141.0 303.0,146.0 320.0,141.0 325.0,130.0 332.0,130.0" fill="#ed8808" />
<polygon points="209.0,93.0 226.0,93.0 246.0,111.0 265.0,150.0 265.0,136.0 242.0,102.0 227.0,89.0" fill="#f3be6e" />
<polygon points="354.0,328.0 348.0,328.0 321.0,341.0 319.0,348.0" fill="#d08b4a" />
<polygon points="259.0,205.0 251.0,207.0 260.0,215.0 249.0,239.0 249.0,254.0 242.0,258.0 241.0,276.0 263.0,218.0" fill="#ed8808" />
<polygon points="25.0,266.0 21.0,304.0 25.0,315.0 28.0,313.0 25.0,289.0 28.0,271.0" fill="#f1ddc3" />
<polygon points="270.0,190.0 274.0,197.0 313.0,222.0 308.0,208.0 299.0,208.0 297.0,199.0" fill="#fab224" opacity="0.95" />
<polygon points="95.0,42.0 113.0,45.0 148.0,60.0 106.0,40.0" fill="#ed8808" />
<polygon points="177.0,285.0 172.0,286.0 146.0,322.0 154.0,319.0 152.0,316.0 159.0,312.0" fill="#b64606" />
<polygon points="60.0,130.0 82.0,144.0 102.0,150.0 97.0,144.0 88.0,143.0" fill="#d66907" />
<polygon points="271.0,50.0 264.0,46.0 246.0,57.0 248.0,68.0 260.0,66.0 271.0,54.0" fill="#ed8808" opacity="0.95" />
<polygon points="238.0,72.0 235.0,65.0 230.0,68.0 217.0,68.0 209.0,71.0 215.0,74.0 232.0,75.0 235.0,77.0" fill="#ed8808" />
<polygon points="119.0,218.0 122.0,237.0 131.0,251.0 133.0,249.0 132.0,243.0 123.0,222.0" fill="#f1ddc3" />
<polygon points="262.0,201.0 255.0,203.0 265.0,213.0 252.0,244.0 253.0,251.0 266.0,217.0 266.0,205.0" fill="#d66907" />
<polygon points="111.0,183.0 98.0,186.0 98.0,197.0 92.0,204.0 86.0,196.0 83.0,206.0 101.0,202.0 105.0,197.0 104.0,187.0" fill="#ed8808" />
<polygon points="96.0,342.0 112.0,340.0 136.0,326.0 126.0,322.0 119.0,331.0 108.0,321.0 100.0,328.0 95.0,327.0" fill="#efcc9a" opacity="0.95" />
<polygon points="298.0,216.0 321.0,249.0 318.0,255.0 326.0,259.0 322.0,243.0" fill="#f1ddc3" />
<polygon points="169.0,81.0 166.0,84.0 171.0,89.0 162.0,101.0 162.0,104.0 179.0,93.0 178.0,87.0" fill="#ed8808" />
<polygon points="340.0,129.0 323.0,141.0 305.0,147.0 297.0,156.0 327.0,141.0" fill="#efcc9a" />
<polygon points="284.0,151.0 281.0,150.0 276.0,153.0 266.0,165.0 268.0,174.0 273.0,175.0 282.0,171.0" fill="#8b2707" opacity="0.95" />
<polygon points="274.0,153.0 258.0,167.0 259.0,181.0 268.0,176.0 265.0,171.0 265.0,165.0 275.0,154.0" fill="#b64606" />
<polygon points="80.0,197.0 66.0,220.0 69.0,231.0 75.0,208.0 81.0,200.0" fill="#f3be6e" />
<polygon points="64.0,57.0 56.0,60.0 44.0,76.0 42.0,90.0 46.0,107.0 51.0,75.0 66.0,60.0" fill="#8b2707" opacity="0.95" />
<polygon points="157.0,106.0 143.0,113.0 138.0,108.0 140.0,128.0 128.0,145.0 121.0,141.0 123.0,146.0 133.0,143.0 143.0,120.0 150.0,118.0" fill="#ed8808" />
<polygon points="104.0,58.0 102.0,56.0 89.0,55.0 69.0,61.0" fill="#f1ddc3" />
<polygon points="344.0,127.0 327.0,142.0 298.0,158.0 291.0,158.0 296.0,161.0 316.0,151.0" fill="#d2a983" />
<polygon points="303.0,40.0 332.0,54.0 334.0,53.0 320.0,43.0 307.0,39.0" fill="#8b2707" />
<polygon points="293.0,39.0 332.0,56.0 301.0,39.0" fill="#b64606" />
<polygon points="357.0,322.0 352.0,319.0 347.0,323.0 336.0,313.0 336.0,319.0 320.0,332.0 322.0,334.0 327.0,330.0 333.0,331.0 342.0,325.0" fill="#efcc9a" />
<polygon points="228.0,87.0 243.0,102.0 254.0,117.0 252.0,109.0 231.0,86.0" fill="#d08b4a" />
<polygon points="148.0,325.0 104.0,347.0 115.0,345.0" fill="#d08b4a" />
<polygon points="0.0,226.0 0.0,269.0 8.0,266.0 9.0,241.0 0.0,235.0 2.0,231.0" fill="#d2a983" opacity="0.95" />
<polygon points="274.0,65.0 270.0,64.0 242.0,82.0 235.0,82.0 241.0,84.0" fill="#d2a983" />
<polygon points="128.0,190.0 119.0,187.0 103.0,204.0 106.0,205.0 110.0,203.0 117.0,195.0 123.0,195.0" fill="#f1ddc3" />
<polygon points="109.0,252.0 108.0,253.0 123.0,269.0 125.0,269.0 126.0,259.0 120.0,259.0 115.0,254.0" fill="#b64606" />
<polygon points="96.0,340.0 112.0,340.0 134.0,326.0 127.0,322.0 119.0,331.0 109.0,321.0 95.0,329.0" fill="#efcc9a" opacity="0.95" />
<polygon points="309.0,224.0 323.0,243.0 328.0,255.0 327.0,260.0 332.0,261.0 334.0,255.0" fill="#efcc9a" />
<polygon points="40.0,262.0 35.0,268.0 32.0,289.0 33.0,302.0 38.0,310.0 40.0,309.0 38.0,296.0 41.0,292.0 42.0,270.0" fill="#8b2707" opacity="0.95" />
<polygon points="62.0,41.0 70.0,47.0 64.0,56.0 86.0,54.0 78.0,43.0 69.0,44.0" fill="#b64606" opacity="0.95" />
<polygon points="335.0,315.0 312.0,322.0 317.0,340.0 333.0,335.0 329.0,331.0 322.0,334.0 319.0,330.0 328.0,326.0" fill="#f3be6e" opacity="0.95" />
<polygon points="277.0,41.0 267.0,44.0 272.0,49.0 272.0,54.0 267.0,59.0 269.0,63.0 284.0,56.0 283.0,45.0" fill="#d66907" opacity="0.95" />
<polygon points="345.0,87.0 344.0,116.0 339.0,121.0 338.0,127.0 347.0,111.0 348.0,100.0" fill="#b64606" />
<polygon points="89.0,205.0 85.0,207.0 75.0,227.0 73.0,236.0 75.0,243.0 79.0,235.0 78.0,225.0 83.0,215.0 92.0,208.0" fill="#d66907" />
<polygon points="196.0,78.0 197.0,80.0 206.0,79.0 214.0,84.0 221.0,84.0 215.0,81.0 213.0,76.0 199.0,74.0" fill="#b64606" />
<polygon points="136.0,330.0 112.0,341.0 102.0,342.0 99.0,348.0 114.0,343.0" fill="#f3be6e" />
<polygon points="281.0,150.0 266.0,165.0 266.0,171.0 270.0,175.0 280.0,172.0 283.0,168.0 284.0,152.0" fill="#8b2707" opacity="0.95" />
<polygon points="315.0,227.0 314.0,228.0 321.0,235.0 332.0,252.0 327.0,236.0" fill="#f3be6e" />
<polygon points="260.0,69.0 248.0,70.0 240.0,79.0 237.0,78.0 236.0,80.0 242.0,81.0" fill="#efcc9a" />
<polygon points="350.0,329.0 319.0,342.0 319.0,347.0 344.0,335.0" fill="#d08b4a" opacity="0.95" />
<polygon points="122.0,45.0 143.0,55.0 153.0,63.0 158.0,63.0 125.0,44.0" fill="#d66907" />
<polygon points="53.0,323.0 71.0,330.0 75.0,329.0 74.0,327.0 58.0,322.0" fill="#b64606" />
<polygon points="211.0,95.0 217.0,101.0 233.0,104.0 245.0,119.0 249.0,119.0 245.0,111.0 228.0,95.0" fill="#efcc9a" opacity="0.95" />
<polygon points="145.0,238.0 144.0,240.0 148.0,252.0 152.0,257.0 155.0,253.0" fill="#d66907" />
<polygon points="65.0,52.0 53.0,52.0 48.0,57.0 43.0,68.0 44.0,69.0 48.0,62.0 55.0,56.0" fill="#d66907" />
<polygon points="0.0,236.0 0.0,269.0 3.0,269.0 8.0,265.0 9.0,241.0 6.0,238.0" fill="#d2a983" opacity="0.95" />
<polygon points="332.0,314.0 313.0,323.0 317.0,332.0 316.0,337.0 320.0,341.0 332.0,335.0 327.0,329.0 335.0,319.0" fill="#f3be6e" opacity="0.95" />
<polygon points="39.0,265.0 35.0,268.0 32.0,298.0 35.0,300.0 38.0,298.0 41.0,291.0 42.0,267.0" fill="#8b2707" opacity="0.95" />
<polygon points="266.0,322.0 266.0,324.0 281.0,331.0 286.0,341.0 290.0,341.0 289.0,330.0 284.0,324.0 278.0,321.0" fill="#f3be6e" opacity="0.95" />
<polygon points="184.0,74.0 179.0,75.0 175.0,78.0 175.0,80.0 178.0,83.0 180.0,83.0 182.0,85.0 185.0,77.0" fill="#b64606" />
<polygon points="277.0,41.0 269.0,45.0 273.0,50.0 268.0,58.0 271.0,62.0 284.0,56.0 283.0,45.0" fill="#d66907" opacity="0.95" />
<polygon points="278.0,257.0 276.0,255.0 272.0,257.0 269.0,256.0 263.0,261.0 266.0,263.0 272.0,263.0 276.0,261.0" fill="#f3be6e" />
<polygon points="287.0,58.0 290.0,61.0 296.0,63.0 307.0,61.0 299.0,59.0 296.0,56.0 294.0,58.0 291.0,55.0" fill="#f1ddc3" />
<polygon points="98.0,206.0 89.0,216.0 86.0,225.0 87.0,227.0 93.0,215.0 100.0,208.0" fill="#d2a983" />
<polygon points="383.0,184.0 383.0,177.0 375.0,180.0 358.0,180.0 370.0,182.0 372.0,181.0 378.0,184.0" fill="#8b2707" />
<polygon points="258.0,121.0 257.0,122.0 264.0,134.0 266.0,131.0 262.0,124.0" fill="#d08b4a" />
<polygon points="172.0,77.0 171.0,81.0 179.0,87.0 179.0,92.0 182.0,93.0 184.0,91.0 184.0,88.0 174.0,80.0 175.0,77.0 174.0,76.0" fill="#d66907" />
<polygon points="144.0,131.0 138.0,140.0 139.0,142.0 136.0,145.0 138.0,150.0 141.0,140.0 145.0,134.0" fill="#d08b4a" />
<polygon points="121.0,320.0 117.0,324.0 114.0,322.0 113.0,323.0 115.0,327.0 119.0,330.0 123.0,327.0 123.0,323.0" fill="#f1ddc3" />
<polygon points="112.0,166.0 111.0,167.0 112.0,169.0 110.0,172.0 114.0,175.0 116.0,173.0 118.0,173.0 119.0,172.0 119.0,170.0 116.0,167.0" fill="#d2a983" />
<polygon points="25.0,285.0 23.0,286.0 25.0,292.0 22.0,294.0 21.0,306.0 23.0,312.0 26.0,314.0 28.0,313.0 28.0,297.0 25.0,292.0 27.0,288.0" fill="#f1ddc3" opacity="0.95" />
<polygon points="349.0,106.0 347.0,116.0 344.0,120.0 345.0,124.0 350.0,112.0" fill="#d2a983" />
<polygon points="166.0,106.0 157.0,114.0 155.0,117.0 156.0,118.0 162.0,112.0 162.0,111.0 167.0,107.0" fill="#d08b4a" />
<polygon points="229.0,263.0 228.0,263.0 224.0,267.0 224.0,268.0 227.0,270.0 228.0,270.0 230.0,267.0 230.0,264.0" fill="#a8776c" />
<polygon points="288.0,151.0 287.0,152.0 287.0,154.0 288.0,155.0 288.0,161.0 289.0,162.0 292.0,162.0 293.0,161.0 290.0,158.0 290.0,154.0" fill="#d08b4a" />
<polygon points="115.0,167.0 112.0,168.0 111.0,170.0 111.0,174.0 113.0,175.0 119.0,172.0 119.0,170.0" fill="#d2a983" opacity="0.95" />
<polygon points="331.0,340.0 328.0,338.0 323.0,340.0 319.0,343.0 319.0,345.0 322.0,347.0 330.0,343.0" fill="#d08b4a" opacity="0.95" />
<polygon points="83.0,236.0 79.0,245.0 80.0,247.0 82.0,246.0 81.0,245.0 83.0,242.0 83.0,239.0 84.0,238.0" fill="#d08b4a" />
<polygon points="30.0,306.0 28.0,308.0 28.0,310.0 31.0,314.0 31.0,316.0 29.0,318.0 31.0,320.0 33.0,320.0 34.0,318.0 32.0,316.0 33.0,314.0 31.0,312.0 31.0,307.0" fill="#d2a983" />
<polygon points="228.0,263.0 226.0,264.0 225.0,266.0 225.0,269.0 227.0,270.0 229.0,269.0 230.0,267.0 230.0,264.0" fill="#a8776c" opacity="0.95" />
</svg>