<svg xmlns="http://www.w3.org/2000/svg" width="768" height="768" viewBox="0 0 384 384">
<rect width="384" height="384" fill="#8e5f4a"/>
<polygon points="383.0,216.0 297.0,189.0 47.0,309.0 249.0,261.0 177.0,351.0 324.0,333.0 266.0,383.0 383.0,383.0 377.0,301.0 216.0,315.0" fill="#7c3f23" />
<polygon points="0.0,239.0 0.0,383.0 142.0,383.0 141.0,325.0 75.0,336.0 46.0,318.0 40.0,276.0 61.0,230.0" fill="#aa7f74" />
<polygon points="0.0,0.0 35.0,33.0 0.0,42.0 0.0,78.0 155.0,46.0 162.0,25.0 117.0,24.0 200.0,1.0 383.0,40.0 383.0,0.0" fill="#512818" />
<polygon points="125.0,106.0 0.0,117.0 0.0,164.0 45.0,186.0 0.0,200.0 20.0,219.0 0.0,238.0 62.0,227.0" fill="#9b624c" />
<polygon points="45.0,310.0 141.0,324.0 143.0,383.0 265.0,383.0 364.0,344.0 191.0,363.0 168.0,320.0 249.0,262.0 163.0,254.0" fill="#9b624c" />
<polygon points="345.0,127.0 244.0,111.0 266.0,143.0 239.0,170.0 136.0,168.0 115.0,129.0 105.0,150.0 168.0,241.0" fill="#a7d4f3" />
<polygon points="364.0,187.0 170.0,259.0 248.0,263.0 176.0,349.0 328.0,334.0 266.0,383.0 383.0,383.0 375.0,301.0 216.0,316.0 383.0,249.0 310.0,210.0" fill="#7c3f23" opacity="0.95" />
<polygon points="155.0,52.0 204.0,98.0 223.0,101.0 253.0,70.0 293.0,98.0 292.0,118.0 338.0,101.0 256.0,44.0" fill="#e30b09" />
<polygon points="383.0,130.0 348.0,126.0 167.0,251.0 317.0,183.0 367.0,189.0 316.0,217.0 383.0,215.0" fill="#512818" />
<polygon points="383.0,250.0 232.0,300.0 217.0,315.0 234.0,322.0 365.0,300.0 383.0,307.0" fill="#512818" />
<polygon points="156.0,48.0 3.0,78.0 0.0,99.0 140.0,75.0" fill="#7c3f23" />
<polygon points="46.0,313.0 143.0,325.0 143.0,383.0 361.0,345.0 191.0,363.0 168.0,320.0 245.0,262.0 163.0,254.0" fill="#9b624c" opacity="0.95" />
<polygon points="0.0,239.0 0.0,383.0 142.0,383.0 143.0,326.0 76.0,336.0 46.0,318.0 41.0,274.0 60.0,230.0" fill="#aa7f74" opacity="0.95" />
<polygon points="0.0,0.0 34.0,32.0 0.0,42.0 0.0,78.0 154.0,46.0 163.0,26.0 118.0,22.0 200.0,1.0 383.0,40.0 383.0,0.0" fill="#512818" opacity="0.95" />
<polygon points="124.0,108.0 0.0,117.0 0.0,164.0 32.0,187.0 0.0,200.0 20.0,219.0 0.0,238.0 62.0,227.0" fill="#9b624c" opacity="0.95" />
<polygon points="383.0,216.0 317.0,218.0 355.0,191.0 171.0,259.0 238.0,266.0 176.0,349.0 360.0,348.0 266.0,383.0 383.0,383.0 374.0,301.0 216.0,315.0" fill="#7c3f23" opacity="0.95" />
<polygon points="344.0,127.0 248.0,112.0 266.0,143.0 239.0,170.0 137.0,168.0 114.0,133.0 105.0,151.0 169.0,237.0" fill="#a7d4f3" opacity="0.95" />
<polygon points="383.0,250.0 232.0,300.0 217.0,315.0 383.0,307.0" fill="#512818" opacity="0.95" />
<polygon points="172.0,28.0 261.0,43.0 354.0,97.0 337.0,53.0 288.0,32.0 206.0,19.0 197.0,5.0" fill="#f0e5c4" />
<polygon points="155.0,52.0 204.0,98.0 253.0,70.0 294.0,106.0 338.0,101.0 256.0,44.0" fill="#e30b09" opacity="0.95" />
<polygon points="0.0,237.0 0.0,383.0 142.0,383.0 141.0,326.0 76.0,336.0 46.0,318.0 41.0,274.0 60.0,231.0" fill="#aa7f74" opacity="0.95" />
<polygon points="122.0,109.0 0.0,117.0 0.0,164.0 31.0,187.0 0.0,200.0 21.0,222.0 1.0,237.0 62.0,226.0" fill="#9b624c" opacity="0.95" />
<polygon points="47.0,315.0 141.0,325.0 143.0,383.0 265.0,383.0 360.0,346.0 193.0,364.0 166.0,324.0 237.0,266.0 164.0,255.0" fill="#9b624c" opacity="0.95" />
<polygon points="383.0,130.0 350.0,129.0 170.0,256.0 317.0,183.0 358.0,189.0 317.0,217.0 383.0,215.0" fill="#512818" opacity="0.95" />
<polygon points="342.0,128.0 249.0,112.0 266.0,143.0 239.0,170.0 137.0,168.0 113.0,136.0 106.0,150.0 171.0,236.0" fill="#a7d4f3" opacity="0.95" />
<polygon points="140.0,81.0 134.0,74.0 0.0,100.0 0.0,111.0" fill="#512818" />
<polygon points="0.0,78.0 154.0,46.0 159.0,21.0 200.0,0.0 0.0,0.0 0.0,21.0 24.0,18.0 34.0,32.0 0.0,42.0" fill="#512818" opacity="0.95" />
<polygon points="215.0,107.0 199.0,138.0 232.0,152.0 245.0,116.0" fill="#abca3e" />
<polygon points="105.0,153.0 73.0,207.0 89.0,218.0 128.0,218.0 137.0,206.0 127.0,207.0 110.0,188.0 125.0,162.0" fill="#e30b09" />
<polygon points="383.0,250.0 232.0,300.0 217.0,315.0 383.0,307.0" fill="#512818" opacity="0.95" />
<polygon points="154.0,48.0 3.0,78.0 0.0,99.0 139.0,75.0" fill="#7c3f23" opacity="0.95" />
<polygon points="155.0,52.0 204.0,98.0 253.0,70.0 293.0,98.0 295.0,118.0 338.0,101.0 302.0,66.0 246.0,44.0" fill="#e30b09" opacity="0.95" />
<polygon points="383.0,130.0 354.0,129.0 170.0,255.0 317.0,183.0 357.0,189.0 317.0,217.0 383.0,215.0" fill="#512818" opacity="0.95" />
<polygon points="175.0,28.0 261.0,43.0 354.0,97.0 338.0,54.0 197.0,10.0" fill="#f0e5c4" opacity="0.95" />
<polygon points="135.0,89.0 0.0,116.0 115.0,109.0" fill="#7c3f23" />
<polygon points="149.0,90.0 178.0,134.0 196.0,140.0 213.0,104.0 189.0,97.0 177.0,107.0 173.0,96.0" fill="#7c3f23" />
<polygon points="338.0,39.0 341.0,48.0 362.0,62.0 372.0,82.0 359.0,127.0 383.0,129.0 383.0,41.0" fill="#1c0b07" />
<polygon points="153.0,50.0 3.0,78.0 0.0,99.0 139.0,75.0" fill="#7c3f23" opacity="0.95" />
<polygon points="118.0,140.0 136.0,158.0 137.0,165.0 144.0,143.0 176.0,132.0 171.0,126.0 143.0,119.0 121.0,118.0" fill="#f9a216" />
<polygon points="200.0,9.0 337.0,52.0 360.0,101.0 354.0,58.0 320.0,35.0" fill="#f5b775" />
<polygon points="178.0,27.0 261.0,43.0 354.0,96.0 338.0,54.0 197.0,11.0" fill="#f0e5c4" opacity="0.95" />
<polygon points="156.0,240.0 56.0,302.0 150.0,258.0" fill="#1c0b07" />
<polygon points="137.0,89.0 123.0,115.0 170.0,125.0 147.0,92.0 140.0,93.0" fill="#a7d4f3" />
<polygon points="106.0,153.0 74.0,207.0 89.0,218.0 128.0,217.0 136.0,205.0 127.0,207.0 110.0,189.0 125.0,161.0" fill="#e30b09" opacity="0.95" />
<polygon points="197.0,142.0 199.0,158.0 231.0,168.0 231.0,152.0" fill="#cbd985" />
<polygon points="107.0,153.0 74.0,204.0 89.0,218.0 132.0,214.0 111.0,189.0 125.0,162.0" fill="#e30b09" opacity="0.95" />
<polygon points="216.0,107.0 210.0,112.0 200.0,141.0 232.0,151.0 245.0,116.0" fill="#abca3e" opacity="0.95" />
<polygon points="61.0,232.0 96.0,243.0 100.0,229.0 115.0,228.0 120.0,238.0 126.0,218.0 90.0,218.0 77.0,227.0 74.0,221.0 82.0,212.0 73.0,209.0" fill="#f0e5c4" />
<polygon points="149.0,90.0 178.0,134.0 198.0,138.0 212.0,104.0 199.0,97.0 178.0,107.0 174.0,97.0" fill="#7c3f23" opacity="0.95" />
<polygon points="136.0,249.0 86.0,273.0 68.0,273.0 54.0,284.0 51.0,296.0" fill="#9d770a" />
<polygon points="48.0,261.0 77.0,262.0 78.0,269.0 86.0,270.0 131.0,246.0 82.0,256.0 75.0,245.0 59.0,240.0 61.0,253.0" fill="#ddd916" />
<polygon points="340.0,39.0 338.0,45.0 362.0,62.0 372.0,82.0 360.0,127.0 383.0,129.0 383.0,41.0" fill="#1c0b07" opacity="0.95" />
<polygon points="196.0,154.0 187.0,147.0 146.0,166.0 187.0,162.0" fill="#74b0da" />
<polygon points="34.0,33.0 31.0,25.0 24.0,18.0 6.0,19.0 0.0,22.0 0.0,41.0 27.0,38.0" fill="#7c3f23" />
<polygon points="173.0,136.0 167.0,135.0 144.0,144.0 140.0,149.0 138.0,165.0 173.0,146.0" fill="#e76810" />
<polygon points="118.0,140.0 127.0,152.0 137.0,156.0 144.0,143.0 176.0,129.0 154.0,121.0 122.0,118.0" fill="#f9a216" opacity="0.95" />
<polygon points="216.0,107.0 200.0,140.0 231.0,151.0 245.0,116.0" fill="#abca3e" opacity="0.95" />
<polygon points="148.0,62.0 140.0,79.0 143.0,82.0 155.0,81.0 162.0,89.0 172.0,90.0 172.0,73.0 175.0,68.0" fill="#f0e5c4" />
<polygon points="237.0,93.0 238.0,104.0 252.0,108.0 262.0,108.0 265.0,97.0 259.0,91.0 243.0,88.0" fill="#cbd985" />
<polygon points="124.0,113.0 129.0,117.0 169.0,123.0 145.0,91.0 135.0,92.0" fill="#a7d4f3" opacity="0.95" />
<polygon points="341.0,39.0 338.0,45.0 362.0,62.0 372.0,82.0 362.0,125.0 383.0,129.0 383.0,41.0" fill="#1c0b07" opacity="0.95" />
<polygon points="0.0,165.0 0.0,199.0 44.0,186.0 25.0,185.0 19.0,181.0 20.0,176.0 11.0,179.0 5.0,174.0 16.0,168.0" fill="#aa7f74" />
<polygon points="118.0,140.0 136.0,156.0 142.0,144.0 175.0,129.0 154.0,121.0 124.0,118.0" fill="#f9a216" opacity="0.95" />
<polygon points="157.0,247.0 56.0,302.0 150.0,258.0" fill="#1c0b07" opacity="0.95" />
<polygon points="0.0,206.0 0.0,232.0 16.0,227.0 19.0,224.0 16.0,217.0" fill="#aa7f74" />
<polygon points="252.0,124.0 247.0,124.0 253.0,133.0 253.0,144.0 238.0,169.0 251.0,164.0 265.0,143.0 262.0,133.0" fill="#74b0da" />
<polygon points="197.0,142.0 199.0,158.0 230.0,167.0 230.0,152.0" fill="#cbd985" opacity="0.95" />
<polygon points="48.0,261.0 76.0,262.0 85.0,270.0 130.0,245.0 82.0,256.0 59.0,241.0 61.0,253.0" fill="#ddd916" opacity="0.95" />
<polygon points="62.0,230.0 74.0,240.0 95.0,243.0 101.0,230.0 122.0,233.0 125.0,220.0 90.0,218.0 78.0,227.0 74.0,221.0 81.0,211.0 74.0,209.0" fill="#f0e5c4" opacity="0.95" />
<polygon points="287.0,29.0 340.0,55.0 356.0,82.0 353.0,102.0 359.0,102.0 363.0,80.0 353.0,57.0 317.0,34.0" fill="#f5b775" opacity="0.95" />
<polygon points="62.0,230.0 94.0,243.0 100.0,231.0 125.0,223.0 126.0,241.0 136.0,244.0 144.0,217.0 90.0,218.0 78.0,227.0 75.0,209.0" fill="#f0e5c4" opacity="0.95" />
<polygon points="146.0,64.0 141.0,80.0 154.0,81.0 163.0,89.0 173.0,89.0 174.0,67.0" fill="#f0e5c4" opacity="0.95" />
<polygon points="125.0,111.0 129.0,117.0 168.0,121.0 144.0,91.0 134.0,94.0" fill="#a7d4f3" opacity="0.95" />
<polygon points="270.0,85.0 273.0,90.0 267.0,95.0 263.0,109.0 273.0,113.0 284.0,92.0 275.0,91.0 274.0,86.0" fill="#f0e5c4" />
<polygon points="205.0,4.0 212.0,12.0 241.0,11.0 260.0,23.0 289.0,25.0 258.0,18.0 247.0,9.0" fill="#e76810" />
<polygon points="142.0,214.0 130.0,218.0 129.0,230.0 125.0,239.0 127.0,243.0 136.0,244.0 139.0,242.0 138.0,226.0 144.0,219.0" fill="#f0e5c4" />
<polygon points="0.0,165.0 0.0,199.0 30.0,189.0 19.0,178.0 7.0,175.0 14.0,166.0" fill="#aa7f74" opacity="0.95" />
<polygon points="129.0,184.0 131.0,194.0 142.0,211.0 146.0,205.0 141.0,197.0 140.0,188.0 133.0,183.0" fill="#1c0b07" />
<polygon points="49.0,261.0 75.0,262.0 85.0,270.0 121.0,248.0 82.0,256.0 63.0,243.0 61.0,252.0" fill="#ddd916" opacity="0.95" />
<polygon points="196.0,154.0 186.0,148.0 150.0,166.0 187.0,162.0 194.0,159.0" fill="#74b0da" opacity="0.95" />
<polygon points="173.0,136.0 167.0,135.0 144.0,144.0 140.0,149.0 139.0,164.0 148.0,162.0 156.0,153.0 173.0,146.0" fill="#e76810" opacity="0.95" />
<polygon points="238.0,91.0 239.0,104.0 252.0,108.0 262.0,108.0 265.0,96.0 259.0,91.0 243.0,88.0" fill="#cbd985" opacity="0.95" />
<polygon points="97.0,267.0 85.0,273.0 66.0,274.0 54.0,284.0 51.0,293.0 54.0,295.0 85.0,279.0" fill="#9d770a" opacity="0.95" />
<polygon points="59.0,237.0 65.0,243.0 77.0,244.0 77.0,250.0 83.0,255.0 95.0,253.0 105.0,245.0 85.0,247.0 84.0,242.0 74.0,241.0 65.0,235.0" fill="#cbd985" />
<polygon points="197.0,144.0 199.0,158.0 227.0,168.0 230.0,166.0 229.0,152.0 201.0,142.0" fill="#cbd985" opacity="0.95" />
<polygon points="251.0,124.0 253.0,144.0 241.0,165.0 243.0,168.0 258.0,157.0 265.0,143.0 262.0,133.0" fill="#74b0da" opacity="0.95" />
<polygon points="302.0,35.0 326.0,54.0 340.0,55.0 356.0,82.0 353.0,101.0 359.0,102.0 362.0,75.0 351.0,55.0 335.0,51.0 317.0,34.0" fill="#f5b775" opacity="0.95" />
<polygon points="249.0,128.0 245.0,149.0 237.0,167.0 245.0,159.0 252.0,144.0 252.0,133.0" fill="#226d97" />
<polygon points="0.0,206.0 0.0,232.0 18.0,226.0 16.0,217.0" fill="#aa7f74" opacity="0.95" />
<polygon points="0.0,165.0 0.0,199.0 30.0,189.0 18.0,179.0 7.0,175.0 9.0,166.0" fill="#aa7f74" opacity="0.95" />
<polygon points="145.0,221.0 140.0,226.0 142.0,241.0 145.0,240.0 149.0,233.0 148.0,226.0" fill="#9d770a" />
<polygon points="148.0,200.0 148.0,205.0 165.0,236.0" fill="#74b0da" />
<polygon points="196.0,154.0 186.0,148.0 153.0,165.0 157.0,167.0 194.0,159.0" fill="#74b0da" opacity="0.95" />
<polygon points="237.0,93.0 239.0,104.0 259.0,109.0 263.0,106.0 265.0,97.0 259.0,91.0 243.0,88.0" fill="#cbd985" opacity="0.95" />
<polygon points="173.0,137.0 167.0,135.0 144.0,144.0 140.0,149.0 139.0,163.0 142.0,165.0 156.0,153.0 173.0,146.0" fill="#e76810" opacity="0.95" />
<polygon points="86.0,275.0 75.0,272.0 67.0,274.0 54.0,284.0 51.0,293.0 54.0,295.0 84.0,279.0" fill="#9d770a" opacity="0.95" />
<polygon points="225.0,211.0 172.0,239.0 182.0,238.0" fill="#226d97" opacity="0.95" />
<polygon points="1.0,206.0 0.0,233.0 18.0,225.0 16.0,217.0" fill="#aa7f74" opacity="0.95" />
<polygon points="254.0,126.0 251.0,128.0 253.0,144.0 243.0,162.0 246.0,167.0 258.0,157.0 265.0,143.0 262.0,133.0" fill="#74b0da" opacity="0.95" />
<polygon points="55.0,264.0 66.0,270.0 71.0,268.0 73.0,269.0 78.0,265.0 74.0,263.0" fill="#cbd985" />
<polygon points="126.0,128.0 138.0,141.0 138.0,143.0 136.0,145.0 126.0,134.0 124.0,130.0" fill="#f9a216" />
<polygon points="133.0,183.0 129.0,185.0 129.0,188.0 142.0,210.0 146.0,208.0 146.0,205.0 141.0,197.0 140.0,188.0" fill="#1c0b07" opacity="0.95" />
<polygon points="127.0,219.0 123.0,226.0 122.0,237.0 116.0,239.0 120.0,244.0 125.0,242.0 124.0,239.0 128.0,230.0" fill="#cbd985" />
<polygon points="272.0,56.0 273.0,59.0 288.0,61.0 293.0,60.0 292.0,59.0 290.0,60.0 285.0,55.0 277.0,52.0" fill="#f9a216" />
<polygon points="135.0,249.0 118.0,253.0 103.0,263.0 120.0,258.0" fill="#9d770a" opacity="0.95" />
<polygon points="104.0,245.0 79.0,247.0 77.0,250.0 83.0,255.0 89.0,255.0 102.0,249.0" fill="#cbd985" opacity="0.95" />
<polygon points="170.0,39.0 176.0,41.0 192.0,40.0 188.0,38.0 185.0,34.0 184.0,35.0 181.0,33.0 177.0,37.0" fill="#e76810" />
<polygon points="133.0,183.0 129.0,186.0 131.0,194.0 139.0,207.0 143.0,209.0 146.0,205.0 141.0,197.0 140.0,188.0" fill="#1c0b07" opacity="0.95" />
<polygon points="216.0,38.0 219.0,41.0 226.0,43.0 230.0,43.0 233.0,40.0 232.0,38.0 228.0,37.0 226.0,35.0 223.0,36.0 218.0,35.0" fill="#f9a216" />
<polygon points="99.0,242.0 100.0,243.0 109.0,242.0 112.0,241.0 115.0,238.0 114.0,237.0 103.0,237.0 100.0,236.0 99.0,237.0" fill="#9d770a" />
<polygon points="284.0,109.0 293.0,118.0 313.0,118.0 311.0,114.0 293.0,113.0 288.0,108.0" fill="#e30b09" opacity="0.95" />
<polygon points="246.0,87.0 257.0,89.0 263.0,94.0 265.0,93.0 265.0,91.0 260.0,86.0 254.0,84.0 248.0,85.0" fill="#abca3e" />
<polygon points="145.0,222.0 142.0,223.0 140.0,226.0 141.0,240.0 143.0,241.0 149.0,233.0 147.0,223.0" fill="#9d770a" opacity="0.95" />
<polygon points="317.0,117.0 319.0,121.0 325.0,119.0 328.0,119.0 331.0,121.0 333.0,116.0 329.0,114.0 323.0,115.0 320.0,114.0" fill="#f5b775" />
<polygon points="311.0,76.0 311.0,78.0 314.0,81.0 318.0,83.0 320.0,82.0 322.0,84.0 325.0,83.0 315.0,73.0" fill="#f9a216" />
<polygon points="116.0,231.0 115.0,230.0 106.0,233.0 100.0,232.0 99.0,234.0 103.0,236.0 115.0,236.0 116.0,235.0" fill="#abca3e" />
<polygon points="278.0,119.0 290.0,124.0 300.0,124.0 302.0,122.0 297.0,120.0 288.0,119.0 282.0,120.0 280.0,118.0" fill="#74b0da" />
<polygon points="230.0,13.0 255.0,28.0 259.0,27.0 248.0,17.0 234.0,12.0" fill="#f5b775" opacity="0.95" />
<polygon points="250.0,132.0 248.0,133.0 245.0,149.0 241.0,157.0 243.0,160.0 248.0,154.0 252.0,144.0 252.0,133.0" fill="#226d97" opacity="0.95" />
<polygon points="268.0,49.0 267.0,50.0 268.0,59.0 271.0,60.0 272.0,59.0 271.0,56.0 274.0,52.0" fill="#e76810" />
<polygon points="217.0,36.0 218.0,40.0 226.0,43.0 233.0,41.0 232.0,38.0 225.0,35.0" fill="#f9a216" opacity="0.95" />
<polygon points="180.0,138.0 179.0,140.0 182.0,143.0 182.0,145.0 178.0,150.0 179.0,151.0 187.0,146.0" fill="#226d97" />
<polygon points="177.0,35.0 173.0,30.0 170.0,30.0 167.0,33.0 168.0,35.0 164.0,39.0 165.0,40.0 166.0,39.0 168.0,40.0 171.0,37.0 175.0,37.0" fill="#f9a216" />
<polygon points="118.0,244.0 114.0,240.0 112.0,242.0 106.0,243.0 105.0,246.0 106.0,247.0 112.0,248.0 115.0,245.0" fill="#abca3e" />
<polygon points="324.0,37.0 323.0,38.0 324.0,41.0 332.0,48.0 333.0,47.0 335.0,49.0 336.0,48.0 327.0,38.0" fill="#9d770a" />
<polygon points="137.0,207.0 132.0,210.0 134.0,214.0 136.0,214.0 140.0,212.0 139.0,209.0" fill="#e76810" />
<polygon points="144.0,222.0 140.0,226.0 141.0,237.0 144.0,239.0 147.0,237.0 149.0,233.0 148.0,226.0" fill="#9d770a" opacity="0.95" />
<polygon points="356.0,112.0 354.0,113.0 355.0,119.0 349.0,123.0 348.0,122.0 346.0,124.0 347.0,125.0 353.0,126.0 355.0,124.0 357.0,126.0 359.0,124.0 358.0,114.0" fill="#f5b775" />
<polygon points="206.0,5.0 207.0,9.0 212.0,12.0 228.0,8.0 235.0,10.0 233.0,7.0 230.0,9.0 225.0,6.0" fill="#e76810" opacity="0.95" />
<polygon points="132.0,175.0 131.0,176.0 134.0,182.0 138.0,185.0 139.0,183.0 135.0,177.0" fill="#226d97" />
<polygon points="216.0,35.0 209.0,33.0 206.0,37.0 204.0,38.0 203.0,37.0 200.0,42.0 201.0,43.0 205.0,39.0 207.0,41.0 210.0,38.0 214.0,38.0" fill="#e76810" />
<polygon points="188.0,79.0 190.0,81.0 186.0,85.0 185.0,85.0 183.0,83.0 187.0,79.0" fill="#e30b09" />
<polygon points="272.0,55.0 272.0,58.0 279.0,60.0 287.0,59.0 287.0,57.0 285.0,55.0 277.0,52.0" fill="#f9a216" opacity="0.95" />
<polygon points="99.0,237.0 99.0,242.0 101.0,243.0 109.0,242.0 113.0,240.0 113.0,238.0 111.0,237.0 103.0,237.0 102.0,236.0" fill="#9d770a" opacity="0.95" />
<polygon points="338.0,103.0 335.0,106.0 335.0,108.0 336.0,109.0 336.0,111.0 335.0,112.0 336.0,113.0 342.0,107.0 342.0,106.0" fill="#e76810" />
<polygon points="167.0,29.0 164.0,31.0 164.0,33.0 160.0,40.0 161.0,41.0 167.0,35.0 166.0,34.0 168.0,30.0" fill="#ddd916" />
<polygon points="318.0,116.0 318.0,118.0 321.0,120.0 332.0,119.0 332.0,116.0 329.0,114.0 324.0,114.0 323.0,115.0 321.0,114.0" fill="#f5b775" opacity="0.95" />
<polygon points="243.0,145.0 240.0,151.0 240.0,154.0 239.0,155.0 240.0,157.0 244.0,149.0 244.0,146.0" fill="#1c0b07" />
<polygon points="180.0,243.0 177.0,241.0 169.0,246.0 169.0,249.0 172.0,251.0 180.0,245.0" fill="#1c0b07" opacity="0.95" />
<polygon points="142.0,190.0 141.0,191.0 142.0,192.0 142.0,197.0 145.0,201.0 146.0,200.0 146.0,198.0" fill="#226d97" />
<polygon points="250.0,85.0 250.0,87.0 257.0,89.0 262.0,92.0 264.0,91.0 264.0,89.0 254.0,84.0" fill="#abca3e" opacity="0.95" />
<polygon points="207.0,29.0 205.0,31.0 202.0,30.0 199.0,34.0 195.0,34.0 193.0,36.0 198.0,43.0 199.0,42.0 197.0,39.0 201.0,34.0 206.0,30.0 207.0,31.0 208.0,30.0" fill="#f5b775" />
<polygon points="203.0,123.0 200.0,125.0 200.0,130.0 199.0,131.0 200.0,132.0 204.0,125.0" fill="#9b624c" />
<polygon points="116.0,232.0 114.0,231.0 107.0,232.0 105.0,233.0 105.0,235.0 107.0,236.0 114.0,236.0 116.0,235.0" fill="#abca3e" opacity="0.95" />
<polygon points="240.0,202.0 237.0,200.0 230.0,204.0 229.0,207.0 232.0,209.0 239.0,205.0" fill="#226d97" opacity="0.95" />
<polygon points="129.0,154.0 128.0,155.0 131.0,158.0 131.0,159.0 134.0,163.0 135.0,162.0 135.0,158.0 133.0,156.0 131.0,156.0" fill="#f5b775" />
<polygon points="115.0,242.0 113.0,241.0 106.0,244.0 106.0,246.0 111.0,248.0 115.0,245.0" fill="#abca3e" opacity="0.95" />
<polygon points="285.0,120.0 285.0,122.0 290.0,124.0 297.0,124.0 299.0,123.0 299.0,121.0 297.0,120.0 289.0,120.0 288.0,119.0" fill="#74b0da" opacity="0.95" />
<polygon points="318.0,116.0 318.0,118.0 321.0,120.0 322.0,119.0 329.0,120.0 332.0,118.0 332.0,116.0 329.0,114.0 328.0,115.0 321.0,114.0" fill="#f5b775" opacity="0.95" />
<polygon points="249.0,140.0 246.0,142.0 246.0,144.0 249.0,146.0 252.0,144.0 252.0,142.0" fill="#226d97" opacity="0.95" />
<polygon points="110.0,242.0 107.0,244.0 107.0,246.0 110.0,248.0 113.0,246.0 113.0,244.0" fill="#abca3e" opacity="0.95" />
<polygon points="184.0,143.0 183.0,144.0 182.0,144.0 182.0,145.0 181.0,146.0 181.0,148.0 182.0,148.0 183.0,149.0 186.0,147.0 186.0,144.0 185.0,144.0" fill="#226d97" opacity="0.95" />
</svg>