<svg xmlns="http://www.w3.org/2000/svg" width="768" height="768" viewBox="0 0 384 384">
<rect width="384" height="384" fill="#956553"/>
<polygon points="0.0,0.0 0.0,383.0 383.0,383.0 383.0,0.0" fill="#905541" />
<polygon points="0.0,0.0 0.0,383.0 383.0,383.0 383.0,0.0" fill="#905541" opacity="0.95" />
<polygon points="0.0,0.0 0.0,383.0 383.0,383.0 383.0,0.0" fill="#905541" opacity="0.95" />
<polygon points="336.0,52.0 343.0,122.0 210.0,78.0 265.0,169.0 206.0,246.0 150.0,235.0 127.0,175.0 183.0,73.0 115.0,65.0 70.0,112.0 27.0,85.0 55.0,33.0 153.0,52.0 216.0,13.0" fill="#905541" />
<polygon points="215.0,105.0 168.0,111.0 137.0,139.0 130.0,184.0 154.0,213.0 215.0,217.0 256.0,187.0 256.0,135.0" fill="#5ad8e3" />
<polygon points="344.0,120.0 321.0,51.0 258.0,16.0 192.0,20.0 153.0,53.0 83.0,30.0 41.0,49.0 70.0,76.0 183.0,72.0 184.0,104.0 218.0,76.0" fill="#bc5c39" />
<polygon points="337.0,53.0 342.0,122.0 210.0,78.0 265.0,169.0 206.0,246.0 150.0,235.0 127.0,175.0 185.0,74.0 115.0,65.0 70.0,112.0 27.0,85.0 55.0,33.0 152.0,52.0 216.0,13.0" fill="#905541" opacity="0.95" />
<polygon points="336.0,56.0 341.0,122.0 210.0,79.0 265.0,169.0 206.0,246.0 150.0,235.0 127.0,175.0 184.0,74.0 115.0,65.0 70.0,112.0 27.0,85.0 55.0,33.0 152.0,52.0 216.0,13.0" fill="#905541" opacity="0.95" />
<polygon points="215.0,105.0 168.0,111.0 137.0,139.0 130.0,184.0 154.0,213.0 215.0,217.0 256.0,187.0 256.0,135.0" fill="#5ad8e3" opacity="0.95" />
<polygon points="310.0,220.0 342.0,226.0 360.0,248.0 363.0,291.0 337.0,311.0 304.0,311.0 279.0,290.0 287.0,261.0 279.0,250.0" fill="#905541" />
<polygon points="95.0,218.0 73.0,209.0 39.0,217.0 21.0,244.0 26.0,268.0 47.0,284.0 87.0,274.0 110.0,251.0" fill="#dca772" />
<polygon points="61.0,208.0 95.0,217.0 119.0,262.0 88.0,297.0 53.0,304.0 26.0,280.0 65.0,290.0 103.0,267.0 64.0,285.0 25.0,268.0 26.0,230.0" fill="#905541" />
<polygon points="344.0,120.0 318.0,48.0 258.0,16.0 192.0,20.0 152.0,53.0 83.0,30.0 41.0,49.0 70.0,76.0 183.0,72.0 186.0,104.0 218.0,76.0" fill="#bc5c39" opacity="0.95" />
<polygon points="188.0,275.0 215.0,278.0 235.0,297.0 238.0,340.0 223.0,360.0 203.0,368.0 173.0,365.0 153.0,344.0 155.0,337.0 167.0,340.0 152.0,311.0 155.0,295.0" fill="#905541" />
<polygon points="215.0,105.0 168.0,111.0 137.0,139.0 130.0,184.0 154.0,213.0 215.0,217.0 256.0,187.0 256.0,135.0" fill="#5ad8e3" opacity="0.95" />
<polygon points="344.0,119.0 317.0,47.0 258.0,16.0 192.0,20.0 152.0,53.0 83.0,30.0 41.0,49.0 70.0,76.0 182.0,72.0 187.0,104.0 218.0,76.0" fill="#bc5c39" opacity="0.95" />
<polygon points="159.0,307.0 168.0,340.0 154.0,344.0 173.0,364.0 214.0,364.0 237.0,340.0 233.0,312.0 194.0,324.0 169.0,298.0" fill="#6d3213" />
<polygon points="361.0,257.0 327.0,273.0 288.0,262.0 280.0,273.0 281.0,293.0 307.0,311.0 342.0,308.0 362.0,291.0" fill="#6d3213" />
<polygon points="280.0,250.0 293.0,264.0 317.0,272.0 341.0,268.0 359.0,254.0 351.0,233.0 320.0,221.0 306.0,223.0" fill="#bc5c39" />
<polygon points="28.0,78.0 34.0,97.0 61.0,111.0 89.0,107.0 112.0,86.0 107.0,73.0 62.0,75.0 41.0,52.0" fill="#6d3213" />
<polygon points="188.0,275.0 215.0,278.0 235.0,297.0 238.0,340.0 223.0,360.0 203.0,368.0 173.0,365.0 153.0,344.0 162.0,337.0 155.0,295.0" fill="#905541" opacity="0.95" />
<polygon points="95.0,218.0 73.0,209.0 39.0,217.0 21.0,244.0 26.0,268.0 47.0,284.0 87.0,274.0 110.0,251.0" fill="#dca772" opacity="0.95" />
<polygon points="153.0,303.0 155.0,315.0 170.0,297.0 177.0,312.0 194.0,323.0 234.0,309.0 231.0,291.0 205.0,276.0 165.0,285.0" fill="#bc5c39" />
<polygon points="95.0,218.0 73.0,209.0 39.0,217.0 21.0,244.0 26.0,268.0 47.0,284.0 87.0,274.0 110.0,251.0" fill="#dca772" opacity="0.95" />
<polygon points="280.0,250.0 292.0,263.0 317.0,272.0 341.0,268.0 359.0,254.0 351.0,233.0 320.0,221.0 306.0,223.0" fill="#bc5c39" opacity="0.95" />
<polygon points="254.0,204.0 224.0,224.0 195.0,231.0 164.0,226.0 140.0,210.0 163.0,236.0 205.0,241.0 240.0,228.0" fill="#361610" />
<polygon points="105.0,88.0 98.0,99.0 75.0,108.0 52.0,105.0 36.0,90.0 62.0,92.0 98.0,84.0" fill="#6d3213" />
<polygon points="153.0,303.0 155.0,312.0 169.0,297.0 194.0,323.0 234.0,309.0 228.0,287.0 205.0,276.0 165.0,285.0" fill="#bc5c39" opacity="0.95" />
<polygon points="283.0,284.0 289.0,280.0 309.0,289.0 355.0,285.0 357.0,291.0 341.0,305.0 320.0,309.0 290.0,297.0" fill="#6d3213" />
<polygon points="284.0,284.0 290.0,296.0 320.0,308.0 341.0,304.0 356.0,291.0 355.0,286.0 309.0,290.0 289.0,281.0" fill="#361610" />
<polygon points="104.0,88.0 79.0,87.0 62.0,93.0 37.0,90.0 52.0,104.0 75.0,107.0 95.0,100.0" fill="#361610" />
<polygon points="233.0,339.0 222.0,356.0 200.0,365.0 178.0,362.0 163.0,351.0 195.0,352.0 203.0,347.0 197.0,340.0 205.0,336.0 229.0,335.0" fill="#6d3213" />
<polygon points="280.0,250.0 292.0,263.0 317.0,272.0 341.0,268.0 359.0,254.0 351.0,233.0 320.0,221.0 306.0,223.0" fill="#bc5c39" opacity="0.95" />
<polygon points="232.0,339.0 199.0,339.0 204.0,347.0 192.0,354.0 164.0,351.0 178.0,361.0 200.0,364.0 222.0,355.0" fill="#361610" />
<polygon points="153.0,303.0 156.0,308.0 168.0,297.0 194.0,323.0 234.0,309.0 231.0,291.0 205.0,276.0 165.0,285.0" fill="#bc5c39" opacity="0.95" />
<polygon points="254.0,200.0 219.0,217.0 177.0,228.0 219.0,225.0 242.0,213.0" fill="#045766" />
<polygon points="159.0,307.0 164.0,338.0 154.0,344.0 173.0,364.0 182.0,363.0 167.0,348.0 192.0,353.0 205.0,336.0 237.0,340.0 232.0,312.0 194.0,324.0 168.0,298.0" fill="#6d3213" opacity="0.95" />
<polygon points="252.0,209.0 195.0,231.0 142.0,217.0 163.0,236.0 205.0,241.0 236.0,231.0" fill="#361610" opacity="0.95" />
<polygon points="28.0,78.0 34.0,97.0 61.0,111.0 40.0,88.0 112.0,86.0 107.0,73.0 62.0,75.0 42.0,53.0" fill="#6d3213" opacity="0.95" />
<polygon points="361.0,257.0 327.0,273.0 281.0,270.0 281.0,286.0 356.0,286.0 343.0,304.0 283.0,296.0 307.0,311.0 342.0,308.0 362.0,291.0" fill="#6d3213" opacity="0.95" />
<polygon points="159.0,307.0 163.0,336.0 154.0,344.0 160.0,352.0 195.0,352.0 205.0,336.0 238.0,337.0 232.0,312.0 194.0,324.0 168.0,298.0" fill="#6d3213" opacity="0.95" />
<polygon points="251.0,211.0 195.0,231.0 143.0,219.0 163.0,236.0 205.0,241.0 236.0,231.0" fill="#361610" opacity="0.95" />
<polygon points="284.0,284.0 290.0,296.0 320.0,308.0 341.0,304.0 356.0,291.0 354.0,286.0 309.0,290.0 289.0,281.0" fill="#361610" opacity="0.95" />
<polygon points="104.0,88.0 79.0,87.0 62.0,93.0 40.0,89.0 38.0,93.0 52.0,104.0 75.0,107.0 95.0,100.0" fill="#361610" opacity="0.95" />
<polygon points="253.0,200.0 182.0,228.0 219.0,225.0 242.0,213.0" fill="#045766" opacity="0.95" />
<polygon points="141.0,206.0 153.0,219.0 165.0,225.0 188.0,223.0 163.0,218.0" fill="#16889b" />
<polygon points="232.0,339.0 205.0,337.0 198.0,340.0 203.0,348.0 195.0,353.0 169.0,349.0 165.0,353.0 184.0,363.0 205.0,363.0 222.0,355.0" fill="#361610" opacity="0.95" />
<polygon points="284.0,284.0 290.0,296.0 320.0,308.0 341.0,304.0 356.0,291.0 353.0,286.0 309.0,290.0 289.0,281.0" fill="#361610" opacity="0.95" />
<polygon points="253.0,200.0 185.0,228.0 204.0,229.0 224.0,223.0" fill="#045766" opacity="0.95" />
<polygon points="104.0,237.0 111.0,246.0 111.0,251.0 90.0,274.0 104.0,264.0 118.0,262.0 116.0,248.0" fill="#bc5c39" />
<polygon points="145.0,210.0 153.0,219.0 165.0,225.0 185.0,224.0 183.0,221.0 163.0,218.0" fill="#16889b" opacity="0.95" />
<polygon points="334.0,53.0 329.0,64.0 333.0,66.0 336.0,66.0 337.0,65.0 337.0,54.0" fill="#f6f0ec" />
<polygon points="261.0,179.0 257.0,187.0 248.0,197.0 249.0,198.0 250.0,197.0 254.0,199.0 260.0,189.0" fill="#16889b" />
<polygon points="312.0,54.0 310.0,57.0 310.0,64.0 311.0,65.0 319.0,65.0 320.0,60.0 315.0,59.0 313.0,57.0 315.0,54.0 314.0,53.0" fill="#f6f0ec" />
<polygon points="152.0,216.0 153.0,219.0 168.0,226.0 178.0,224.0 175.0,220.0 163.0,218.0 155.0,214.0" fill="#16889b" opacity="0.95" />
<polygon points="335.0,53.0 333.0,54.0 332.0,59.0 330.0,61.0 330.0,64.0 333.0,66.0 337.0,65.0 337.0,54.0" fill="#f6f0ec" opacity="0.95" />
<polygon points="259.0,189.0 257.0,188.0 255.0,189.0 250.0,195.0 250.0,197.0 252.0,198.0 256.0,197.0" fill="#16889b" opacity="0.95" />
<polygon points="334.0,58.0 330.0,61.0 330.0,64.0 333.0,66.0 337.0,64.0 337.0,60.0" fill="#f6f0ec" opacity="0.95" />
</svg>