<svg xmlns="http://www.w3.org/2000/svg" width="768" height="768" viewBox="0 0 384 384">
<rect width="384" height="384" fill="#886e66"/>
<polygon points="346.0,153.0 227.0,110.0 0.0,126.0 0.0,383.0 158.0,383.0 170.0,305.0 237.0,320.0 233.0,383.0 383.0,383.0 383.0,321.0 298.0,297.0 362.0,269.0" fill="#8e7a72" />
<polygon points="346.0,153.0 227.0,110.0 0.0,126.0 0.0,383.0 157.0,383.0 172.0,306.0 237.0,320.0 233.0,383.0 383.0,383.0 383.0,321.0 298.0,297.0 362.0,269.0" fill="#8e7a72" opacity="0.95" />
<polygon points="346.0,153.0 227.0,110.0 0.0,126.0 0.0,383.0 157.0,383.0 174.0,306.0 237.0,320.0 233.0,383.0 383.0,383.0 383.0,321.0 298.0,297.0 362.0,269.0" fill="#8e7a72" opacity="0.95" />
<polygon points="0.0,0.0 0.0,49.0 32.0,56.0 10.0,82.0 32.0,104.0 17.0,125.0 187.0,124.0 87.0,99.0 142.0,98.0 117.0,49.0 40.0,32.0 64.0,0.0" fill="#5f514e" />
<polygon points="302.0,0.0 343.0,72.0 352.0,126.0 328.0,131.0 368.0,227.0 363.0,269.0 299.0,297.0 315.0,320.0 383.0,320.0 383.0,126.0 358.0,122.0 350.0,55.0 368.0,29.0 357.0,0.0" fill="#5f514e" />
<polygon points="152.0,17.0 136.0,42.0 152.0,41.0 182.0,104.0 201.0,108.0 222.0,47.0 215.0,34.0 192.0,50.0 173.0,30.0 208.0,18.0" fill="#cb1b18" />
<polygon points="0.0,0.0 0.0,49.0 32.0,56.0 10.0,82.0 31.0,103.0 23.0,124.0 173.0,125.0 88.0,100.0 140.0,95.0 118.0,51.0 41.0,34.0 64.0,0.0" fill="#5f514e" opacity="0.95" />
<polygon points="41.0,32.0 114.0,49.0 122.0,32.0 107.0,23.0 106.0,15.0 135.0,14.0 131.0,0.0 65.0,0.0 43.0,20.0" fill="#8e7a72" />
<polygon points="358.0,0.0 370.0,33.0 351.0,49.0 361.0,82.0 354.0,110.0 363.0,125.0 383.0,125.0 383.0,0.0" fill="#423839" />
<polygon points="302.0,0.0 343.0,72.0 351.0,126.0 329.0,132.0 368.0,227.0 361.0,272.0 299.0,297.0 316.0,320.0 383.0,320.0 383.0,126.0 358.0,122.0 350.0,55.0 368.0,29.0 357.0,0.0" fill="#5f514e" opacity="0.95" />
<polygon points="0.0,0.0 0.0,49.0 32.0,56.0 10.0,82.0 30.0,103.0 24.0,124.0 166.0,124.0 90.0,100.0 140.0,95.0 117.0,51.0 40.0,32.0 64.0,0.0" fill="#5f514e" opacity="0.95" />
<polygon points="166.0,324.0 159.0,340.0 159.0,356.0 168.0,383.0 204.0,383.0 199.0,370.0 203.0,335.0 193.0,324.0" fill="#423839" />
<polygon points="214.0,79.0 233.0,79.0 237.0,98.0 248.0,59.0 232.0,36.0 259.0,40.0 271.0,5.0 275.0,27.0 308.0,22.0 301.0,0.0 209.0,0.0 201.0,8.0 224.0,38.0" fill="#8e7a72" />
<polygon points="157.0,15.0 142.0,33.0 199.0,109.0 221.0,56.0 172.0,42.0 191.0,15.0 208.0,18.0" fill="#cb1b18" opacity="0.95" />
<polygon points="170.0,306.0 153.0,340.0 158.0,382.0 162.0,327.0 187.0,322.0 205.0,337.0 205.0,383.0 219.0,383.0 216.0,353.0 237.0,341.0 232.0,383.0 245.0,343.0 236.0,320.0" fill="#5f514e" />
<polygon points="302.0,0.0 343.0,72.0 351.0,125.0 329.0,132.0 368.0,227.0 363.0,269.0 299.0,297.0 316.0,320.0 383.0,320.0 383.0,126.0 358.0,122.0 350.0,55.0 368.0,29.0 357.0,0.0" fill="#5f514e" opacity="0.95" />
<polygon points="4.0,48.0 0.0,123.0 11.0,125.0 22.0,121.0 17.0,111.0 31.0,104.0 9.0,82.0 31.0,56.0" fill="#423839" />
<polygon points="41.0,32.0 115.0,48.0 120.0,33.0 106.0,15.0 134.0,13.0 130.0,0.0 65.0,0.0 43.0,20.0" fill="#8e7a72" opacity="0.95" />
<polygon points="119.0,62.0 126.0,80.0 175.0,114.0 194.0,114.0 181.0,110.0 144.0,70.0" fill="#381a20" />
<polygon points="260.0,54.0 270.0,76.0 295.0,79.0 301.0,90.0 305.0,75.0 334.0,97.0 341.0,90.0 334.0,72.0 318.0,75.0 319.0,67.0 291.0,60.0 305.0,25.0 291.0,25.0 275.0,51.0" fill="#cb1b18" />
<polygon points="358.0,0.0 369.0,35.0 351.0,49.0 361.0,82.0 354.0,110.0 360.0,123.0 383.0,125.0 383.0,0.0" fill="#423839" opacity="0.95" />
<polygon points="88.0,98.0 169.0,121.0 199.0,121.0 196.0,113.0 175.0,115.0 143.0,95.0 141.0,101.0 123.0,94.0" fill="#423839" />
<polygon points="130.0,28.0 119.0,59.0 144.0,69.0 181.0,109.0 172.0,76.0 151.0,58.0 147.0,38.0 148.0,49.0 132.0,41.0 137.0,26.0" fill="#670e20" />
<polygon points="214.0,79.0 236.0,80.0 248.0,64.0 234.0,34.0 260.0,38.0 271.0,6.0 278.0,25.0 307.0,20.0 301.0,0.0 209.0,0.0 202.0,9.0 224.0,38.0" fill="#8e7a72" opacity="0.95" />
<polygon points="164.0,325.0 159.0,356.0 168.0,383.0 204.0,383.0 199.0,370.0 203.0,335.0 192.0,324.0" fill="#423839" opacity="0.95" />
<polygon points="149.0,19.0 155.0,60.0 183.0,105.0 199.0,106.0 220.0,56.0 206.0,46.0 180.0,54.0 165.0,40.0 171.0,24.0 191.0,25.0 190.0,12.0" fill="#cb1b18" opacity="0.95" />
<polygon points="260.0,54.0 269.0,72.0 340.0,91.0 333.0,75.0 291.0,61.0 314.0,29.0 293.0,25.0 275.0,51.0" fill="#cb1b18" opacity="0.95" />
<polygon points="41.0,25.0 49.0,37.0 115.0,48.0 120.0,35.0 106.0,16.0 133.0,12.0 130.0,0.0 65.0,0.0" fill="#8e7a72" opacity="0.95" />
<polygon points="170.0,308.0 153.0,340.0 158.0,383.0 170.0,322.0 204.0,335.0 205.0,383.0 219.0,383.0 208.0,368.0 226.0,370.0 233.0,337.0 232.0,383.0 236.0,320.0" fill="#5f514e" opacity="0.95" />
<polygon points="214.0,80.0 204.0,108.0 240.0,114.0 245.0,125.0 250.0,102.0 247.0,95.0 241.0,99.0 233.0,95.0 233.0,80.0 220.0,84.0" fill="#5f514e" />
<polygon points="214.0,79.0 236.0,80.0 248.0,64.0 234.0,34.0 259.0,38.0 271.0,9.0 279.0,25.0 305.0,20.0 301.0,0.0 209.0,0.0 202.0,9.0 224.0,38.0" fill="#8e7a72" opacity="0.95" />
<polygon points="358.0,0.0 369.0,35.0 351.0,49.0 361.0,82.0 354.0,110.0 360.0,123.0 383.0,125.0 383.0,0.0" fill="#423839" opacity="0.95" />
<polygon points="165.0,325.0 159.0,356.0 168.0,383.0 204.0,383.0 199.0,370.0 203.0,335.0 192.0,324.0" fill="#423839" opacity="0.95" />
<polygon points="259.0,76.0 262.0,88.0 277.0,102.0 280.0,113.0 297.0,113.0 324.0,103.0 319.0,97.0 280.0,95.0" fill="#381a20" />
<polygon points="119.0,63.0 140.0,93.0 175.0,114.0 191.0,115.0 144.0,70.0" fill="#381a20" opacity="0.95" />
<polygon points="4.0,48.0 0.0,123.0 21.0,122.0 17.0,111.0 30.0,103.0 9.0,82.0 31.0,56.0" fill="#423839" opacity="0.95" />
<polygon points="259.0,63.0 259.0,73.0 280.0,94.0 319.0,96.0 324.0,106.0 333.0,98.0 318.0,79.0 305.0,76.0 301.0,91.0 295.0,80.0 287.0,85.0 278.0,74.0 271.0,78.0" fill="#670e20" />
<polygon points="256.0,87.0 262.0,113.0 253.0,111.0 251.0,100.0 248.0,125.0 314.0,124.0 298.0,113.0 280.0,114.0 275.0,106.0 271.0,114.0" fill="#423839" />
<polygon points="335.0,123.0 330.0,103.0 325.0,107.0 299.0,112.0 307.0,120.0 318.0,125.0 333.0,126.0" fill="#9c4342" />
<polygon points="128.0,29.0 119.0,59.0 156.0,77.0 179.0,102.0 166.0,67.0 157.0,66.0 151.0,50.0 141.0,51.0 133.0,42.0 135.0,28.0" fill="#670e20" opacity="0.95" />
<polygon points="172.0,308.0 167.0,322.0 192.0,323.0 205.0,337.0 205.0,383.0 232.0,383.0 237.0,369.0 222.0,383.0 208.0,368.0 231.0,339.0 245.0,343.0 236.0,320.0" fill="#5f514e" opacity="0.95" />
<polygon points="130.0,28.0 119.0,59.0 155.0,76.0 177.0,99.0 170.0,75.0 139.0,49.0" fill="#670e20" opacity="0.95" />
<polygon points="259.0,64.0 259.0,74.0 280.0,94.0 332.0,99.0 317.0,79.0 306.0,76.0 300.0,85.0 288.0,84.0" fill="#670e20" opacity="0.95" />
<polygon points="306.0,26.0 292.0,27.0 274.0,52.0 260.0,55.0 268.0,71.0 291.0,79.0 305.0,71.0 317.0,76.0 290.0,65.0" fill="#cb1b18" opacity="0.95" />
<polygon points="290.0,27.0 281.0,25.0 267.0,33.0 260.0,51.0 270.0,54.0 278.0,44.0 277.0,40.0 286.0,34.0" fill="#ea7a19" />
<polygon points="120.0,66.0 140.0,93.0 175.0,114.0 183.0,113.0 144.0,70.0" fill="#381a20" opacity="0.95" />
<polygon points="260.0,79.0 259.0,84.0 283.0,114.0 324.0,103.0 319.0,97.0 280.0,95.0" fill="#381a20" opacity="0.95" />
<polygon points="259.0,66.0 266.0,83.0 280.0,94.0 332.0,98.0 316.0,79.0 306.0,76.0 288.0,84.0" fill="#670e20" opacity="0.95" />
<polygon points="230.0,335.0 226.0,360.0 217.0,353.0 227.0,365.0 220.0,383.0 224.0,383.0 236.0,361.0 238.0,344.0" fill="#8e7a72" />
<polygon points="248.0,84.0 256.0,106.0 262.0,104.0 257.0,94.0 261.0,89.0 283.0,114.0 324.0,103.0 319.0,97.0 283.0,96.0 265.0,84.0" fill="#381a20" opacity="0.95" />
<polygon points="335.0,123.0 334.0,112.0 328.0,105.0 300.0,112.0 307.0,120.0 319.0,125.0 332.0,126.0" fill="#9c4342" opacity="0.95" />
<polygon points="250.0,81.0 247.0,88.0 255.0,105.0 254.0,111.0 260.0,114.0 259.0,107.0 262.0,100.0 257.0,94.0 255.0,84.0" fill="#381a20" />
<polygon points="285.0,26.0 275.0,28.0 265.0,35.0 261.0,51.0 271.0,53.0 278.0,44.0 274.0,38.0 286.0,34.0" fill="#ea7a19" opacity="0.95" />
<polygon points="268.0,14.0 263.0,19.0 262.0,23.0 267.0,31.0 272.0,28.0 275.0,22.0 274.0,19.0" fill="#aaa850" />
<polygon points="232.0,42.0 235.0,46.0 242.0,41.0 255.0,40.0 245.0,35.0 235.0,34.0 233.0,36.0" fill="#e8d2b3" />
<polygon points="335.0,123.0 334.0,112.0 328.0,106.0 301.0,112.0 307.0,120.0 319.0,125.0 331.0,126.0" fill="#9c4342" opacity="0.95" />
<polygon points="246.0,67.0 240.0,74.0 238.0,85.0 239.0,97.0 245.0,87.0 243.0,82.0 244.0,77.0 249.0,71.0" fill="#aaa850" />
<polygon points="133.0,0.0 134.0,10.0 140.0,15.0 146.0,14.0 147.0,12.0 138.0,2.0 138.0,0.0" fill="#848a23" />
<polygon points="198.0,17.0 192.0,23.0 192.0,31.0 198.0,32.0 193.0,43.0 183.0,39.0 192.0,49.0 201.0,34.0 206.0,38.0 208.0,35.0 196.0,25.0 198.0,19.0 205.0,30.0 208.0,26.0 214.0,29.0" fill="#f8f0e9" />
<polygon points="282.0,27.0 275.0,28.0 265.0,35.0 263.0,52.0 268.0,54.0 277.0,45.0 277.0,39.0 285.0,34.0" fill="#ea7a19" opacity="0.95" />
<polygon points="326.0,35.0 324.0,38.0 333.0,52.0 333.0,65.0 340.0,72.0 341.0,78.0 342.0,73.0 337.0,64.0 333.0,44.0" fill="#f8f0e9" />
<polygon points="204.0,63.0 208.0,66.0 208.0,69.0 203.0,72.0 206.0,78.0 196.0,89.0 186.0,80.0 199.0,71.0 198.0,67.0" fill="#cb1b18" opacity="0.95" />
<polygon points="158.0,0.0 158.0,5.0 161.0,10.0 166.0,6.0 169.0,6.0 171.0,4.0 169.0,0.0" fill="#e8d2b3" />
<polygon points="171.0,0.0 172.0,3.0 178.0,7.0 182.0,7.0 186.0,3.0 185.0,0.0" fill="#5b6312" />
<polygon points="139.0,0.0 139.0,2.0 149.0,14.0 153.0,14.0 154.0,13.0 151.0,8.0 143.0,0.0" fill="#5b6312" />
<polygon points="251.0,81.0 248.0,84.0 248.0,90.0 257.0,113.0 260.0,111.0 262.0,100.0 257.0,94.0 256.0,84.0" fill="#381a20" opacity="0.95" />
<polygon points="111.0,18.0 123.0,24.0 128.0,23.0 131.0,25.0 133.0,22.0 126.0,19.0 112.0,17.0" fill="#848a23" />
<polygon points="307.0,42.0 307.0,45.0 314.0,47.0 311.0,56.0 306.0,50.0 303.0,53.0 314.0,60.0 304.0,62.0 316.0,65.0 314.0,55.0 319.0,52.0 313.0,43.0" fill="#f8f0e9" />
<polygon points="332.0,102.0 331.0,107.0 335.0,112.0 335.0,124.0 337.0,125.0 339.0,122.0 339.0,109.0" fill="#e07762" />
<polygon points="269.0,15.0 263.0,19.0 262.0,25.0 267.0,30.0 271.0,29.0 274.0,25.0 274.0,19.0" fill="#aaa850" opacity="0.95" />
<polygon points="185.0,5.0 189.0,9.0 198.0,7.0 200.0,8.0 206.0,3.0 203.0,2.0 198.0,4.0 192.0,4.0 190.0,0.0 186.0,0.0 187.0,3.0" fill="#aaa850" />
<polygon points="175.0,39.0 178.0,42.0 177.0,43.0 177.0,46.0 179.0,48.0 178.0,49.0 179.0,50.0 182.0,49.0 184.0,51.0 181.0,55.0 175.0,50.0 171.0,44.0" fill="#cb1b18" />
<polygon points="247.0,68.0 240.0,74.0 238.0,94.0 240.0,95.0 245.0,87.0 243.0,80.0 249.0,71.0" fill="#aaa850" opacity="0.95" />
<polygon points="133.0,0.0 134.0,10.0 141.0,15.0 146.0,13.0 146.0,11.0 138.0,2.0 138.0,0.0" fill="#848a23" opacity="0.95" />
<polygon points="233.0,45.0 235.0,46.0 242.0,41.0 250.0,39.0 250.0,37.0 236.0,34.0 233.0,36.0" fill="#e8d2b3" opacity="0.95" />
<polygon points="250.0,56.0 248.0,58.0 249.0,59.0 249.0,62.0 252.0,65.0 251.0,67.0 252.0,69.0 256.0,65.0 256.0,59.0" fill="#5b6312" />
<polygon points="112.0,21.0 114.0,23.0 115.0,27.0 127.0,28.0 130.0,26.0 117.0,23.0 113.0,20.0" fill="#aaa850" />
<polygon points="275.0,58.0 276.0,59.0 279.0,59.0 282.0,63.0 282.0,64.0 279.0,67.0 278.0,67.0 274.0,63.0 274.0,61.0 273.0,60.0" fill="#cb1b18" />
<polygon points="158.0,0.0 158.0,5.0 160.0,9.0 162.0,10.0 165.0,7.0 170.0,5.0 170.0,0.0" fill="#e8d2b3" opacity="0.95" />
<polygon points="264.0,93.0 263.0,94.0 267.0,100.0 274.0,104.0 275.0,103.0" fill="#aaa850" />
<polygon points="268.0,15.0 263.0,19.0 263.0,25.0 266.0,29.0 269.0,30.0 274.0,25.0 274.0,19.0 271.0,16.0" fill="#aaa850" opacity="0.95" />
<polygon points="171.0,0.0 172.0,3.0 178.0,7.0 181.0,7.0 185.0,4.0 185.0,0.0" fill="#5b6312" opacity="0.95" />
<polygon points="135.0,0.0 133.0,3.0 134.0,10.0 142.0,15.0 144.0,14.0 145.0,10.0 137.0,0.0" fill="#848a23" opacity="0.95" />
<polygon points="140.0,0.0 140.0,3.0 148.0,13.0 150.0,14.0 153.0,13.0 151.0,8.0 144.0,0.0" fill="#5b6312" opacity="0.95" />
<polygon points="212.0,363.0 211.0,365.0 217.0,371.0 217.0,373.0 214.0,376.0 211.0,373.0 210.0,374.0 213.0,377.0 215.0,376.0 217.0,378.0 219.0,376.0 221.0,368.0" fill="#e07762" />
<polygon points="233.0,36.0 233.0,42.0 236.0,44.0 248.0,39.0 248.0,37.0 245.0,35.0 236.0,34.0" fill="#e8d2b3" opacity="0.95" />
<polygon points="139.0,19.0 137.0,16.0 135.0,17.0 127.0,17.0 126.0,18.0 129.0,20.0 133.0,20.0 134.0,21.0" fill="#aaa850" />
<polygon points="271.0,6.0 270.0,7.0 270.0,14.0 274.0,18.0 275.0,17.0 275.0,13.0 274.0,12.0 274.0,10.0" fill="#e8d2b3" />
<polygon points="186.0,4.0 186.0,6.0 190.0,9.0 198.0,7.0 199.0,8.0 202.0,6.0 202.0,4.0 200.0,3.0" fill="#aaa850" opacity="0.95" />
<polygon points="171.0,0.0 172.0,3.0 178.0,7.0 181.0,7.0 185.0,4.0 185.0,0.0" fill="#5b6312" opacity="0.95" />
<polygon points="214.0,18.0 213.0,19.0 215.0,21.0 214.0,23.0 219.0,32.0 220.0,28.0" fill="#f8f0e9" />
<polygon points="158.0,0.0 158.0,5.0 161.0,7.0 165.0,5.0 167.0,6.0 170.0,4.0 170.0,0.0" fill="#e8d2b3" opacity="0.95" />
<polygon points="162.0,290.0 163.0,292.0 165.0,293.0 166.0,292.0 169.0,292.0 171.0,290.0 171.0,289.0 168.0,287.0 165.0,287.0" fill="#dbb883" />
<polygon points="327.0,74.0 324.0,76.0 324.0,78.0 329.0,82.0 327.0,89.0 335.0,96.0 338.0,94.0 338.0,92.0 335.0,89.0 335.0,84.0 330.0,80.0 330.0,76.0" fill="#cb1b18" opacity="0.95" />
<polygon points="227.0,287.0 225.0,287.0 222.0,289.0 221.0,291.0 221.0,294.0 222.0,295.0 224.0,295.0 226.0,293.0 227.0,289.0 228.0,288.0" fill="#dbb883" />
<polygon points="115.0,19.0 115.0,21.0 123.0,24.0 128.0,23.0 128.0,20.0 126.0,19.0 120.0,19.0 119.0,18.0" fill="#848a23" opacity="0.95" />
<polygon points="258.0,44.0 256.0,43.0 253.0,46.0 252.0,45.0 247.0,45.0 246.0,46.0 251.0,50.0 254.0,46.0 256.0,47.0" fill="#5b6312" />
<polygon points="247.0,75.0 245.0,77.0 245.0,79.0 244.0,80.0 244.0,82.0 246.0,84.0 248.0,81.0 248.0,76.0" fill="#848a23" />
<polygon points="302.0,23.0 309.0,26.0 311.0,28.0 314.0,27.0 312.0,25.0 310.0,26.0 307.0,22.0 303.0,22.0" fill="#e07762" />
<polygon points="334.0,104.0 332.0,105.0 332.0,109.0 335.0,112.0 334.0,117.0 336.0,118.0 338.0,117.0 339.0,109.0" fill="#e07762" opacity="0.95" />
<polygon points="317.0,26.0 316.0,27.0 316.0,28.0 318.0,30.0 318.0,31.0 320.0,34.0 323.0,31.0 319.0,27.0 318.0,27.0" fill="#e8d2b3" />
<polygon points="249.0,58.0 249.0,62.0 251.0,63.0 252.0,62.0 253.0,63.0 256.0,62.0 256.0,59.0 252.0,57.0" fill="#5b6312" opacity="0.95" />
<polygon points="108.0,18.0 107.0,19.0 108.0,22.0 111.0,25.0 112.0,25.0 113.0,24.0 112.0,23.0 112.0,22.0" fill="#e8d2b3" />
<polygon points="293.0,60.0 296.0,63.0 297.0,63.0 300.0,61.0 299.0,60.0 298.0,60.0 296.0,58.0 295.0,58.0" fill="#f8f0e9" />
<polygon points="193.0,26.0 192.0,30.0 197.0,31.0 198.0,34.0 200.0,35.0 202.0,34.0 202.0,31.0 199.0,30.0 197.0,26.0 195.0,25.0" fill="#f8f0e9" opacity="0.95" />
<polygon points="334.0,54.0 332.0,55.0 332.0,62.0 333.0,64.0 335.0,65.0 337.0,64.0 337.0,59.0 336.0,58.0 336.0,55.0" fill="#f8f0e9" opacity="0.95" />
<polygon points="185.0,109.0 188.0,111.0 192.0,111.0 193.0,110.0 190.0,108.0 189.0,109.0 187.0,108.0" fill="#670e20" />
<polygon points="225.0,287.0 223.0,288.0 221.0,291.0 221.0,294.0 223.0,295.0 225.0,294.0 227.0,291.0 227.0,288.0" fill="#dbb883" opacity="0.95" />
<polygon points="163.0,289.0 163.0,292.0 165.0,293.0 166.0,292.0 169.0,292.0 171.0,291.0 171.0,289.0 168.0,287.0 166.0,287.0" fill="#dbb883" opacity="0.95" />
<polygon points="272.0,9.0 270.0,10.0 270.0,14.0 273.0,16.0 275.0,15.0 275.0,13.0 274.0,12.0 274.0,10.0" fill="#e8d2b3" opacity="0.95" />
<polygon points="146.0,39.0 145.0,40.0 144.0,40.0 144.0,43.0 147.0,44.0 148.0,43.0 149.0,43.0 149.0,40.0" fill="#670e20" opacity="0.95" />
<polygon points="335.0,105.0 332.0,107.0 332.0,109.0 335.0,111.0 338.0,109.0 338.0,107.0" fill="#e07762" opacity="0.95" />
</svg>