<svg xmlns="http://www.w3.org/2000/svg" width="768" height="768" viewBox="0 0 384 384">
<rect width="384" height="384" fill="#8f5f46"/>
<polygon points="0.0,0.0 0.0,235.0 163.0,248.0 195.0,383.0 349.0,375.0 255.0,349.0 231.0,251.0 345.0,229.0 375.0,291.0 383.0,151.0 256.0,131.0 242.0,205.0 169.0,224.0 124.0,173.0 129.0,0.0" fill="#5d3630" />
<polygon points="109.0,20.0 130.0,62.0 320.0,112.0 366.0,96.0 360.0,79.0 263.0,44.0" fill="#f3a941" />
<polygon points="0.0,0.0 0.0,235.0 163.0,248.0 195.0,383.0 349.0,375.0 255.0,349.0 231.0,251.0 345.0,229.0 375.0,289.0 383.0,151.0 258.0,133.0 242.0,205.0 169.0,224.0 124.0,173.0 128.0,0.0" fill="#5d3630" opacity="0.95" />
<polygon points="0.0,0.0 0.0,235.0 163.0,248.0 195.0,383.0 349.0,375.0 255.0,349.0 231.0,251.0 345.0,229.0 374.0,289.0 383.0,151.0 259.0,133.0 242.0,205.0 169.0,224.0 124.0,173.0 127.0,0.0" fill="#5d3630" opacity="0.95" />
<polygon points="124.0,161.0 142.0,205.0 182.0,226.0 213.0,223.0 234.0,211.0 257.0,159.0" fill="#8fdefb" />
<polygon points="204.0,0.0 317.0,36.0 383.0,80.0 383.0,0.0" fill="#5d3630" />
<polygon points="112.0,35.0 134.0,28.0 291.0,61.0 333.0,97.0 312.0,106.0 215.0,66.0 129.0,57.0" fill="#f3a941" />
<polygon points="113.0,35.0 133.0,57.0 213.0,64.0 313.0,105.0 332.0,96.0 291.0,62.0" fill="#c90d22" />
<polygon points="158.0,6.0 159.0,16.0 318.0,62.0 327.0,53.0 314.0,36.0 199.0,0.0" fill="#fbe4c7" />
<polygon points="4.0,348.0 148.0,356.0 163.0,337.0 12.0,326.0" fill="#c86d1a" />
<polygon points="383.0,150.0 383.0,81.0 363.0,66.0 365.0,101.0 334.0,123.0 234.0,101.0 258.0,132.0 363.0,160.0" fill="#3f2b28" />
<polygon points="0.0,291.0 3.0,318.0 143.0,316.0 133.0,309.0 147.0,302.0 163.0,310.0 148.0,292.0" fill="#500b07" />
<polygon points="157.0,94.0 190.0,149.0 225.0,96.0 197.0,85.0" fill="#96242e" />
<polygon points="124.0,161.0 142.0,205.0 182.0,226.0 213.0,223.0 234.0,211.0 258.0,166.0 256.0,159.0" fill="#8fdefb" opacity="0.95" />
<polygon points="152.0,97.0 130.0,124.0 124.0,157.0 184.0,158.0 188.0,148.0" fill="#c86d1a" />
<polygon points="109.0,20.0 332.0,90.0 130.0,62.0 320.0,112.0 366.0,96.0" fill="#f3a941" opacity="0.95" />
<polygon points="204.0,0.0 310.0,33.0 383.0,80.0 383.0,0.0" fill="#5d3630" opacity="0.95" />
<polygon points="232.0,100.0 225.0,98.0 194.0,149.0 186.0,152.0 187.0,158.0 258.0,157.0 254.0,132.0" fill="#86a739" />
<polygon points="113.0,35.0 133.0,57.0 213.0,64.0 313.0,105.0 332.0,96.0 291.0,62.0" fill="#c90d22" opacity="0.95" />
<polygon points="124.0,162.0 142.0,205.0 182.0,226.0 213.0,223.0 234.0,211.0 258.0,166.0 255.0,159.0" fill="#8fdefb" opacity="0.95" />
<polygon points="177.0,263.0 173.0,290.0 160.0,294.0 158.0,324.0 169.0,332.0 163.0,356.0 113.0,364.0 127.0,375.0 122.0,383.0 194.0,383.0 194.0,307.0" fill="#3f2b28" />
<polygon points="352.0,293.0 337.0,292.0 345.0,280.0 263.0,286.0 253.0,302.0 270.0,316.0 338.0,311.0 352.0,301.0" fill="#500b07" />
<polygon points="0.0,362.0 0.0,383.0 121.0,383.0 126.0,376.0 110.0,365.0 77.0,369.0 74.0,361.0" fill="#5d3630" />
<polygon points="207.0,0.0 310.0,33.0 383.0,80.0 383.0,0.0" fill="#5d3630" opacity="0.95" />
<polygon points="119.0,8.0 362.0,75.0 314.0,36.0 204.0,0.0" fill="#fbe4c7" opacity="0.95" />
<polygon points="158.0,6.0 160.0,16.0 318.0,62.0 327.0,53.0 314.0,36.0 201.0,0.0" fill="#fbe4c7" opacity="0.95" />
<polygon points="0.0,291.0 4.0,318.0 122.0,320.0 142.0,315.0 148.0,302.0 163.0,307.0 148.0,292.0" fill="#500b07" opacity="0.95" />
<polygon points="383.0,150.0 383.0,81.0 365.0,67.0 365.0,101.0 334.0,123.0 237.0,102.0 255.0,130.0 363.0,160.0" fill="#3f2b28" opacity="0.95" />
<polygon points="113.0,35.0 133.0,57.0 213.0,64.0 313.0,105.0 332.0,96.0 291.0,62.0" fill="#c90d22" opacity="0.95" />
<polygon points="157.0,94.0 191.0,149.0 224.0,98.0 197.0,85.0" fill="#96242e" opacity="0.95" />
<polygon points="62.0,271.0 64.0,280.0 147.0,282.0 154.0,276.0 144.0,267.0 108.0,261.0 79.0,263.0" fill="#c86d1a" />
<polygon points="0.0,238.0 0.0,262.0 4.0,251.0 57.0,259.0 137.0,250.0 127.0,240.0 54.0,244.0" fill="#f9cc8e" />
<polygon points="232.0,100.0 225.0,98.0 186.0,157.0 258.0,157.0 254.0,132.0" fill="#86a739" opacity="0.95" />
<polygon points="154.0,96.0 130.0,124.0 124.0,157.0 183.0,158.0 187.0,147.0" fill="#c86d1a" opacity="0.95" />
<polygon points="4.0,348.0 148.0,356.0 162.0,335.0 112.0,338.0 82.0,326.0 12.0,326.0" fill="#c86d1a" opacity="0.95" />
<polygon points="252.0,265.0 272.0,273.0 348.0,263.0 321.0,255.0 292.0,255.0" fill="#c86d1a" />
<polygon points="363.0,246.0 358.0,307.0 371.0,341.0 311.0,359.0 322.0,370.0 345.0,361.0 351.0,374.0 339.0,383.0 383.0,383.0 383.0,281.0 375.0,274.0 377.0,290.0 368.0,288.0" fill="#3f2b28" />
<polygon points="174.0,273.0 161.0,248.0 138.0,241.0 136.0,252.0 4.0,252.0 0.0,263.0 9.0,280.0 8.0,268.0 43.0,266.0 62.0,281.0 66.0,266.0 98.0,260.0 147.0,267.0 150.0,283.0" fill="#f3a941" />
<polygon points="363.0,259.0 344.0,230.0 341.0,250.0 334.0,235.0 322.0,245.0 248.0,240.0 233.0,249.0 239.0,276.0 269.0,274.0 253.0,262.0 292.0,254.0" fill="#f3a941" />
<polygon points="109.0,20.0 294.0,62.0 332.0,90.0 320.0,112.0 366.0,96.0 259.0,43.0" fill="#f3a941" opacity="0.95" />
<polygon points="383.0,150.0 383.0,81.0 367.0,68.0 365.0,101.0 334.0,123.0 238.0,103.0 255.0,130.0 363.0,160.0" fill="#3f2b28" opacity="0.95" />
<polygon points="120.0,70.0 127.0,90.0 141.0,100.0 176.0,85.0" fill="#3f2b28" />
<polygon points="250.0,330.0 256.0,348.0 275.0,357.0 342.0,354.0 369.0,341.0 297.0,342.0 292.0,337.0 305.0,326.0 265.0,337.0" fill="#f3a941" />
<polygon points="176.0,263.0 173.0,290.0 160.0,294.0 158.0,324.0 168.0,329.0 163.0,356.0 117.0,365.0 126.0,383.0 194.0,383.0 194.0,307.0" fill="#3f2b28" opacity="0.95" />
<polygon points="204.0,85.0 320.0,122.0 351.0,109.0 323.0,114.0" fill="#fbe4c7" />
<polygon points="182.0,85.0 157.0,98.0 191.0,148.0 224.0,95.0" fill="#96242e" opacity="0.95" />
<polygon points="232.0,100.0 223.0,101.0 187.0,157.0 258.0,156.0 254.0,132.0" fill="#86a739" opacity="0.95" />
<polygon points="352.0,293.0 338.0,292.0 340.0,279.0 263.0,286.0 253.0,302.0 270.0,316.0 338.0,311.0 351.0,302.0" fill="#500b07" opacity="0.95" />
<polygon points="153.0,97.0 130.0,124.0 124.0,156.0 182.0,158.0 187.0,147.0" fill="#c86d1a" opacity="0.95" />
<polygon points="369.0,334.0 365.0,320.0 356.0,328.0 306.0,328.0 293.0,338.0 336.0,345.0" fill="#c86d1a" />
<polygon points="4.0,348.0 148.0,356.0 162.0,335.0 112.0,338.0 82.0,326.0 12.0,326.0" fill="#c86d1a" opacity="0.95" />
<polygon points="0.0,364.0 0.0,383.0 120.0,383.0 126.0,376.0 109.0,365.0 78.0,369.0 73.0,361.0" fill="#5d3630" opacity="0.95" />
<polygon points="0.0,291.0 4.0,318.0 81.0,319.0 52.0,308.0 75.0,296.0 97.0,305.0 93.0,320.0 163.0,306.0 148.0,292.0" fill="#500b07" opacity="0.95" />
<polygon points="0.0,319.0 3.0,325.0 165.0,331.0 153.0,324.0" fill="#f6f3ea" />
<polygon points="364.0,249.0 358.0,307.0 371.0,341.0 312.0,359.0 356.0,369.0 339.0,383.0 383.0,383.0 383.0,282.0 368.0,288.0" fill="#3f2b28" opacity="0.95" />
<polygon points="178.0,267.0 173.0,289.0 161.0,295.0 158.0,324.0 168.0,330.0 163.0,356.0 122.0,366.0 126.0,383.0 194.0,383.0 194.0,307.0" fill="#3f2b28" opacity="0.95" />
<polygon points="0.0,238.0 0.0,255.0 58.0,258.0 137.0,250.0 127.0,240.0 54.0,244.0" fill="#f9cc8e" opacity="0.95" />
<polygon points="363.0,313.0 252.0,321.0 250.0,326.0 350.0,321.0" fill="#f6f3ea" />
<polygon points="350.0,300.0 341.0,290.0 341.0,279.0 263.0,286.0 253.0,298.0 261.0,313.0 270.0,316.0 338.0,311.0" fill="#500b07" opacity="0.95" />
<polygon points="343.0,247.0 338.0,231.0 253.0,238.0 303.0,246.0 325.0,243.0 334.0,234.0 338.0,248.0" fill="#f9cc8e" />
<polygon points="105.0,41.0 109.0,58.0 124.0,68.0 202.0,84.0 123.0,61.0" fill="#fbe4c7" />
<polygon points="62.0,271.0 63.0,279.0 78.0,282.0 147.0,282.0 154.0,276.0 144.0,267.0 108.0,261.0 79.0,263.0" fill="#c86d1a" opacity="0.95" />
<polygon points="173.0,268.0 161.0,248.0 138.0,241.0 135.0,252.0 0.0,256.0 0.0,279.0 14.0,266.0 43.0,266.0 60.0,281.0 67.0,266.0 108.0,260.0 147.0,267.0 162.0,283.0" fill="#f3a941" opacity="0.95" />
<polygon points="0.0,364.0 0.0,383.0 120.0,383.0 125.0,377.0 108.0,365.0 78.0,369.0 70.0,361.0" fill="#5d3630" opacity="0.95" />
<polygon points="363.0,259.0 344.0,230.0 340.0,250.0 333.0,235.0 322.0,245.0 248.0,240.0 233.0,249.0 239.0,276.0 263.0,273.0 256.0,261.0 292.0,254.0" fill="#f3a941" opacity="0.95" />
<polygon points="254.0,333.0 258.0,351.0 275.0,357.0 342.0,354.0 369.0,342.0 297.0,342.0 299.0,327.0 265.0,337.0" fill="#f3a941" opacity="0.95" />
<polygon points="333.0,46.0 330.0,65.0 342.0,73.0 361.0,78.0 363.0,74.0 359.0,63.0 348.0,53.0" fill="#fbe4c7" />
<polygon points="116.0,11.0 148.0,15.0 154.0,0.0 131.0,0.0" fill="#fbe4c7" />
<polygon points="219.0,89.0 320.0,122.0 350.0,111.0 323.0,114.0" fill="#fbe4c7" opacity="0.95" />
<polygon points="0.0,238.0 0.0,254.0 53.0,251.0 60.0,257.0 136.0,249.0 127.0,240.0 54.0,244.0" fill="#f9cc8e" opacity="0.95" />
<polygon points="366.0,253.0 358.0,307.0 371.0,341.0 320.0,359.0 323.0,370.0 343.0,360.0 357.0,370.0 340.0,383.0 383.0,383.0 383.0,283.0 368.0,288.0" fill="#3f2b28" opacity="0.95" />
<polygon points="97.0,306.0 88.0,317.0 81.0,310.0 56.0,311.0 51.0,307.0 54.0,302.0 70.0,302.0 75.0,296.0 87.0,298.0" fill="#500b07" />
<polygon points="225.0,92.0 320.0,122.0 348.0,113.0" fill="#fbe4c7" opacity="0.95" />
<polygon points="333.0,278.0 329.0,275.0 277.0,278.0 269.0,284.0 306.0,283.0" fill="#926f54" />
<polygon points="361.0,313.0 253.0,321.0 250.0,326.0 350.0,321.0" fill="#f6f3ea" opacity="0.95" />
<polygon points="343.0,247.0 337.0,231.0 261.0,237.0 278.0,245.0 325.0,243.0 333.0,234.0 338.0,248.0" fill="#f9cc8e" opacity="0.95" />
<polygon points="336.0,313.0 266.0,318.0 279.0,320.0" fill="#ac957b" />
<polygon points="333.0,47.0 330.0,65.0 343.0,73.0 362.0,77.0 359.0,63.0 348.0,53.0" fill="#fbe4c7" opacity="0.95" />
<polygon points="52.0,304.0 66.0,303.0 80.0,296.0 96.0,303.0 97.0,308.0 87.0,317.0 81.0,310.0 56.0,311.0" fill="#500b07" opacity="0.95" />
<polygon points="330.0,234.0 319.0,232.0 269.0,236.0 266.0,240.0 278.0,245.0 303.0,246.0 325.0,243.0" fill="#f9cc8e" opacity="0.95" />
<polygon points="161.0,315.0 160.0,309.0 150.0,304.0 148.0,309.0 134.0,309.0 155.0,319.0" fill="#96242e" />
<polygon points="332.0,277.0 278.0,278.0 272.0,284.0 330.0,280.0" fill="#926f54" opacity="0.95" />
<polygon points="52.0,306.0 56.0,310.0 81.0,309.0 87.0,316.0 96.0,308.0 86.0,309.0 74.0,301.0 66.0,304.0 54.0,303.0" fill="#96242e" />
<polygon points="99.0,322.0 101.0,325.0 162.0,330.0 153.0,324.0" fill="#f6f3ea" opacity="0.95" />
<polygon points="74.0,299.0 75.0,301.0 85.0,307.0 93.0,303.0 87.0,299.0 82.0,299.0 77.0,297.0" fill="#5d3630" />
<polygon points="325.0,277.0 322.0,275.0 278.0,278.0 274.0,283.0 278.0,285.0 324.0,280.0" fill="#926f54" opacity="0.95" />
<polygon points="116.0,285.0 118.0,287.0 149.0,287.0 148.0,285.0 144.0,284.0" fill="#f6f3ea" />
<polygon points="53.0,304.0 56.0,310.0 81.0,309.0 85.0,315.0 90.0,315.0 90.0,310.0 74.0,301.0 66.0,304.0" fill="#96242e" opacity="0.95" />
<polygon points="331.0,274.0 335.0,278.0 349.0,278.0 350.0,279.0 351.0,278.0 350.0,274.0 348.0,272.0 340.0,272.0" fill="#ac957b" />
<polygon points="86.0,358.0 102.0,362.0 147.0,362.0 145.0,359.0 114.0,361.0 100.0,357.0" fill="#f9cc8e" opacity="0.95" />
<polygon points="161.0,311.0 152.0,305.0 141.0,310.0 143.0,315.0 134.0,321.0 142.0,322.0 147.0,315.0 156.0,319.0 161.0,315.0" fill="#96242e" opacity="0.95" />
<polygon points="275.0,279.0 274.0,278.0 261.0,279.0 259.0,282.0 259.0,285.0 260.0,286.0 268.0,284.0" fill="#ac957b" />
<polygon points="254.0,290.0 249.0,296.0 249.0,304.0 259.0,313.0 260.0,312.0 252.0,302.0 252.0,298.0 255.0,294.0" fill="#96242e" />
<polygon points="357.0,284.0 352.0,291.0 352.0,296.0 354.0,298.0 349.0,305.0 350.0,306.0 353.0,304.0 354.0,305.0 358.0,301.0 357.0,299.0 360.0,290.0" fill="#96242e" />
<polygon points="330.0,46.0 328.0,55.0 323.0,64.0 324.0,65.0 327.0,65.0 329.0,63.0 332.0,55.0 332.0,49.0" fill="#500b07" />
<polygon points="274.0,329.0 271.0,328.0 259.0,332.0 262.0,335.0 265.0,336.0" fill="#f9cc8e" />
<polygon points="159.0,0.0 155.0,0.0 151.0,13.0 152.0,16.0 156.0,15.0 154.0,10.0 157.0,7.0" fill="#500b07" />
<polygon points="363.0,266.0 360.0,264.0 336.0,270.0 340.0,271.0 353.0,269.0 355.0,267.0 358.0,269.0" fill="#f6f3ea" />
<polygon points="145.0,319.0 143.0,317.0 137.0,317.0 133.0,320.0 131.0,320.0 129.0,318.0 126.0,318.0 125.0,320.0 130.0,322.0 143.0,322.0" fill="#96242e" />
<polygon points="56.0,245.0 59.0,248.0 59.0,251.0 56.0,254.0 54.0,254.0 51.0,251.0 52.0,250.0 52.0,249.0" fill="#f9cc8e" />
<polygon points="361.0,314.0 334.0,316.0 328.0,320.0 322.0,317.0 319.0,321.0 350.0,321.0 359.0,318.0" fill="#f6f3ea" opacity="0.95" />
<polygon points="158.0,253.0 154.0,255.0 153.0,257.0 153.0,260.0 154.0,261.0 159.0,261.0 160.0,260.0 160.0,256.0" fill="#f9cc8e" />
<polygon points="350.0,270.0 349.0,272.0 351.0,274.0 352.0,279.0 356.0,281.0 357.0,280.0 356.0,275.0 352.0,270.0" fill="#c7bba6" />
<polygon points="258.0,279.0 255.0,279.0 253.0,281.0 253.0,285.0 255.0,288.0 258.0,286.0 258.0,282.0 259.0,281.0" fill="#c7bba6" />
<polygon points="0.0,319.0 0.0,324.0 3.0,325.0 6.0,323.0 22.0,322.0 22.0,320.0 20.0,319.0" fill="#f6f3ea" opacity="0.95" />
<polygon points="332.0,274.0 332.0,276.0 335.0,278.0 348.0,278.0 350.0,277.0 350.0,274.0 347.0,272.0 340.0,272.0" fill="#ac957b" opacity="0.95" />
<polygon points="334.0,271.0 333.0,270.0 318.0,271.0 316.0,273.0 317.0,274.0 323.0,274.0 324.0,273.0 333.0,272.0" fill="#f6f3ea" />
<polygon points="160.0,286.0 160.0,288.0 162.0,290.0 164.0,290.0 165.0,291.0 167.0,290.0 170.0,290.0 171.0,289.0 171.0,287.0 170.0,286.0 166.0,286.0 165.0,285.0 161.0,285.0" fill="#f6f3ea" />
<polygon points="272.0,279.0 270.0,278.0 262.0,279.0 260.0,280.0 259.0,284.0 265.0,285.0 271.0,282.0" fill="#ac957b" opacity="0.95" />
<polygon points="357.0,307.0 356.0,306.0 354.0,307.0 352.0,309.0 351.0,309.0 348.0,313.0 349.0,314.0 351.0,314.0" fill="#c7bba6" />
<polygon points="132.0,289.0 133.0,290.0 139.0,290.0 140.0,289.0 138.0,287.0 134.0,287.0" fill="#c7bba6" />
<polygon points="255.0,279.0 253.0,280.0 253.0,285.0 256.0,287.0 258.0,286.0 258.0,280.0" fill="#c7bba6" opacity="0.95" />
<polygon points="337.0,274.0 337.0,276.0 340.0,278.0 347.0,278.0 350.0,276.0 350.0,274.0 347.0,272.0 340.0,272.0" fill="#ac957b" opacity="0.95" />
<polygon points="258.0,316.0 258.0,318.0 259.0,319.0 261.0,319.0 262.0,320.0 264.0,320.0 265.0,319.0 260.0,315.0 259.0,315.0" fill="#c7bba6" />
<polygon points="336.0,314.0 337.0,315.0 340.0,315.0 341.0,314.0 344.0,314.0 345.0,313.0 344.0,312.0 338.0,312.0" fill="#c7bba6" />
<polygon points="294.0,315.0 294.0,317.0 296.0,318.0 302.0,318.0 304.0,317.0 304.0,315.0 302.0,314.0 296.0,314.0" fill="#ac957b" opacity="0.95" />
<polygon points="269.0,280.0 266.0,278.0 261.0,280.0 260.0,281.0 260.0,283.0 263.0,285.0 265.0,285.0 269.0,282.0" fill="#ac957b" opacity="0.95" />
<polygon points="310.0,314.0 310.0,316.0 312.0,317.0 317.0,317.0 319.0,316.0 319.0,314.0 317.0,313.0 312.0,313.0" fill="#ac957b" opacity="0.95" />
<polygon points="353.0,273.0 351.0,274.0 351.0,276.0 352.0,277.0 352.0,279.0 354.0,280.0 356.0,279.0 356.0,274.0" fill="#c7bba6" opacity="0.95" />
</svg>