<svg xmlns="http://www.w3.org/2000/svg" width="768" height="768" viewBox="0 0 384 384">
<rect width="384" height="384" fill="#8d634e"/>
<polygon points="0.0,0.0 0.0,381.0 383.0,383.0 383.0,0.0" fill="#825141" />
<polygon points="0.0,0.0 0.0,383.0 383.0,383.0 383.0,0.0" fill="#825141" opacity="0.95" />
<polygon points="0.0,0.0 0.0,383.0 383.0,383.0 383.0,0.0" fill="#825141" opacity="0.95" />
<polygon points="327.0,126.0 276.0,219.0 175.0,229.0 230.0,281.0 139.0,308.0 54.0,278.0 85.0,184.0 135.0,205.0 124.0,164.0 194.0,160.0 233.0,93.0" fill="#825141" />
<polygon points="327.0,126.0 276.0,219.0 179.0,230.0 230.0,281.0 139.0,308.0 54.0,278.0 85.0,184.0 135.0,205.0 124.0,164.0 194.0,160.0 231.0,95.0" fill="#825141" opacity="0.95" />
<polygon points="234.0,95.0 202.0,130.0 194.0,161.0 125.0,164.0 134.0,194.0 157.0,217.0 207.0,225.0 254.0,189.0 262.0,139.0" fill="#a1eef0" />
<polygon points="85.0,188.0 61.0,233.0 58.0,277.0 182.0,276.0 93.0,188.0" fill="#e8c945" />
<polygon points="327.0,126.0 283.0,214.0 182.0,232.0 230.0,281.0 139.0,308.0 54.0,277.0 82.0,188.0 135.0,205.0 124.0,165.0 194.0,160.0 231.0,95.0" fill="#825141" opacity="0.95" />
<polygon points="326.0,126.0 242.0,96.0 264.0,143.0 258.0,184.0 225.0,219.0 182.0,228.0 236.0,234.0 276.0,218.0 312.0,180.0" fill="#4e3d39" />
<polygon points="237.0,97.0 204.0,127.0 194.0,161.0 125.0,164.0 154.0,215.0 207.0,225.0 250.0,195.0 263.0,146.0" fill="#a1eef0" opacity="0.95" />
<polygon points="85.0,281.0 139.0,307.0 165.0,286.0 211.0,299.0 229.0,284.0 139.0,202.0 120.0,212.0 185.0,278.0" fill="#4e3d39" />
<polygon points="85.0,188.0 61.0,233.0 57.0,276.0 180.0,276.0 93.0,188.0" fill="#e8c945" opacity="0.95" />
<polygon points="237.0,97.0 204.0,127.0 194.0,161.0 125.0,165.0 154.0,215.0 207.0,225.0 250.0,195.0 263.0,146.0" fill="#a1eef0" opacity="0.95" />
<polygon points="326.0,126.0 242.0,96.0 263.0,138.0 261.0,177.0 235.0,212.0 192.0,231.0 236.0,234.0 283.0,213.0 318.0,168.0" fill="#4e3d39" opacity="0.95" />
<polygon points="85.0,188.0 61.0,233.0 58.0,276.0 179.0,275.0 93.0,188.0" fill="#e8c945" opacity="0.95" />
<polygon points="88.0,281.0 139.0,307.0 166.0,286.0 211.0,299.0 229.0,284.0 139.0,203.0 121.0,213.0 185.0,278.0" fill="#4e3d39" opacity="0.95" />
<polygon points="326.0,126.0 242.0,96.0 262.0,134.0 262.0,174.0 235.0,212.0 197.0,231.0 236.0,234.0 283.0,213.0 318.0,168.0" fill="#4e3d39" opacity="0.95" />
<polygon points="91.0,282.0 139.0,307.0 166.0,286.0 211.0,299.0 229.0,284.0 139.0,203.0 122.0,214.0 184.0,277.0" fill="#4e3d39" opacity="0.95" />
</svg>