<svg xmlns="http://www.w3.org/2000/svg" width="768" height="768" viewBox="0 0 384 384">
<rect width="384" height="384" fill="#985b47"/>
<polygon points="0.0,0.0 2.0,383.0 383.0,383.0 383.0,0.0" fill="#944c3c" />
<polygon points="0.0,0.0 0.0,383.0 383.0,383.0 383.0,0.0" fill="#944c3c" opacity="0.95" />
<polygon points="0.0,0.0 0.0,383.0 383.0,383.0 383.0,0.0" fill="#944c3c" opacity="0.95" />
<polygon points="155.0,102.0 206.0,94.0 250.0,125.0 267.0,189.0 237.0,228.0 182.0,232.0 129.0,191.0 128.0,129.0" fill="#944c3c" />
<polygon points="170.0,96.0 231.0,104.0 264.0,153.0 264.0,197.0 228.0,233.0 177.0,230.0 129.0,192.0 129.0,128.0" fill="#944c3c" opacity="0.95" />
<polygon points="125.0,163.0 138.0,200.0 157.0,217.0 185.0,226.0 232.0,213.0 258.0,170.0 257.0,162.0" fill="#86f9f6" />
<polygon points="170.0,96.0 231.0,104.0 264.0,153.0 264.0,197.0 228.0,233.0 177.0,230.0 129.0,192.0 128.0,129.0" fill="#944c3c" opacity="0.95" />
<polygon points="227.0,103.0 202.0,132.0 195.0,161.0 258.0,160.0 250.0,127.0" fill="#bae8b5" />
<polygon points="125.0,163.0 138.0,200.0 157.0,217.0 185.0,226.0 232.0,213.0 258.0,170.0 256.0,162.0" fill="#86f9f6" opacity="0.95" />
<polygon points="154.0,104.0 135.0,127.0 126.0,159.0 184.0,160.0 173.0,125.0" fill="#f4bf01" />
<polygon points="187.0,94.0 157.0,104.0 177.0,130.0 188.0,161.0 203.0,128.0 224.0,103.0" fill="#591620" />
<polygon points="125.0,164.0 138.0,200.0 157.0,217.0 185.0,226.0 232.0,213.0 258.0,170.0 255.0,162.0" fill="#86f9f6" opacity="0.95" />
<polygon points="233.0,107.0 224.0,104.0 209.0,121.0 194.0,160.0 258.0,160.0 254.0,135.0" fill="#bae8b5" opacity="0.95" />
<polygon points="148.0,108.0 132.0,133.0 126.0,159.0 185.0,159.0 169.0,119.0 157.0,105.0" fill="#f4bf01" opacity="0.95" />
<polygon points="223.0,101.0 187.0,94.0 158.0,103.0 177.0,130.0 187.0,160.0" fill="#591620" opacity="0.95" />
<polygon points="233.0,107.0 224.0,104.0 209.0,121.0 198.0,141.0 195.0,160.0 258.0,159.0 254.0,135.0" fill="#bae8b5" opacity="0.95" />
<polygon points="151.0,106.0 132.0,133.0 126.0,158.0 184.0,159.0 173.0,125.0 157.0,105.0" fill="#f4bf01" opacity="0.95" />
<polygon points="221.0,100.0 187.0,94.0 158.0,103.0 177.0,130.0 187.0,159.0 193.0,157.0" fill="#591620" opacity="0.95" />
<polygon points="261.0,169.0 252.0,192.0 230.0,216.0 203.0,227.0 172.0,226.0 211.0,233.0 232.0,225.0 255.0,201.0" fill="#29050f" />
<polygon points="260.0,148.0 256.0,201.0 232.0,226.0 203.0,236.0 237.0,227.0 260.0,203.0 267.0,181.0" fill="#591620" />
<polygon points="261.0,178.0 230.0,216.0 178.0,229.0 211.0,233.0 232.0,225.0 255.0,201.0" fill="#29050f" opacity="0.95" />
<polygon points="257.0,193.0 252.0,192.0 225.0,219.0 191.0,231.0 211.0,233.0 232.0,225.0 251.0,207.0" fill="#29050f" opacity="0.95" />
<polygon points="262.0,155.0 260.0,192.0 243.0,220.0 258.0,206.0 266.0,189.0 267.0,166.0" fill="#591620" opacity="0.95" />
<polygon points="133.0,318.0 136.0,321.0 133.0,324.0 130.0,321.0" fill="#944c3c" />
<polygon points="133.0,61.0 136.0,64.0 134.0,66.0 132.0,66.0 130.0,64.0" fill="#944c3c" />
<polygon points="132.0,255.0 134.0,255.0 136.0,257.0 133.0,260.0 130.0,257.0" fill="#944c3c" />
<polygon points="241.0,221.0 227.0,228.0 226.0,231.0 228.0,232.0 241.0,224.0" fill="#591620" opacity="0.95" />
<polygon points="133.0,318.0 136.0,320.0 136.0,322.0 133.0,324.0 130.0,322.0 130.0,320.0" fill="#944c3c" opacity="0.95" />
<polygon points="264.0,164.0 261.0,166.0 261.0,168.0 264.0,170.0 267.0,168.0 267.0,166.0" fill="#591620" opacity="0.95" />
</svg>