<svg xmlns="http://www.w3.org/2000/svg" width="768" height="768" viewBox="0 0 384 384">
<rect width="384" height="384" fill="#915640"/>
<polygon points="0.0,248.0 30.0,261.0 30.0,322.0 2.0,335.0 383.0,335.0 352.0,322.0 352.0,259.0 383.0,246.0 337.0,206.0 336.0,246.0 234.0,264.0 233.0,324.0 148.0,322.0 181.0,258.0 136.0,205.0 132.0,246.0 46.0,246.0 30.0,201.0 30.0,244.0" fill="#c97d47" />
<polygon points="0.0,41.0 2.0,193.0 132.0,193.0 46.0,182.0 43.0,131.0 132.0,129.0 147.0,178.0 151.0,128.0 209.0,119.0 148.0,116.0 183.0,52.0 234.0,53.0 247.0,121.0 335.0,52.0 308.0,118.0 383.0,129.0 339.0,0.0 336.0,39.0 250.0,39.0 248.0,0.0 233.0,39.0 150.0,39.0 148.0,0.0 46.0,39.0 31.0,0.0" fill="#c97d47" />
<polygon points="253.0,129.0 218.0,115.0 200.0,132.0 196.0,181.0 130.0,186.0 166.0,218.0 223.0,216.0 259.0,182.0 263.0,151.0" fill="#b0d1c6" />
<polygon points="3.0,193.0 131.0,192.0 45.0,181.0 43.0,131.0 131.0,129.0 148.0,177.0 207.0,121.0 148.0,116.0 184.0,55.0 234.0,53.0 246.0,120.0 332.0,51.0 310.0,120.0 383.0,129.0 339.0,5.0 47.0,39.0 31.0,0.0" fill="#c97d47" opacity="0.95" />
<polygon points="0.0,248.0 30.0,261.0 3.0,335.0 383.0,335.0 352.0,322.0 352.0,259.0 383.0,246.0 338.0,208.0 337.0,245.0 234.0,264.0 232.0,324.0 148.0,322.0 181.0,257.0 137.0,208.0 131.0,246.0 47.0,246.0 32.0,202.0 30.0,244.0" fill="#c97d47" opacity="0.95" />
<polygon points="0.0,41.0 4.0,193.0 131.0,191.0 46.0,181.0 48.0,129.0 145.0,178.0 206.0,122.0 47.0,117.0 82.0,56.0 228.0,50.0 245.0,119.0 328.0,50.0 314.0,124.0 383.0,129.0 342.0,8.0" fill="#c97d47" opacity="0.95" />
<polygon points="284.0,54.0 277.0,83.0 249.0,82.0 261.0,178.0 286.0,181.0 269.0,243.0 300.0,239.0 306.0,199.0 336.0,199.0 298.0,192.0 337.0,133.0 312.0,130.0 298.0,106.0 332.0,105.0 336.0,75.0 305.0,82.0" fill="#5e272c" />
<polygon points="0.0,248.0 30.0,261.0 4.0,335.0 383.0,335.0 352.0,321.0 352.0,260.0 383.0,246.0 338.0,208.0 336.0,245.0 234.0,265.0 231.0,324.0 148.0,321.0 181.0,259.0 138.0,210.0 131.0,246.0 48.0,246.0 33.0,203.0 30.0,243.0" fill="#c97d47" opacity="0.95" />
<polygon points="58.0,204.0 61.0,242.0 132.0,240.0 131.0,202.0 72.0,200.0" fill="#934a34" />
<polygon points="133.0,260.0 132.0,324.0 43.0,322.0 44.0,286.0 74.0,282.0 80.0,257.0 103.0,285.0 119.0,279.0 121.0,256.0" fill="#c97d47" />
<polygon points="133.0,55.0 143.0,92.0 132.0,117.0 44.0,115.0 44.0,82.0 68.0,83.0 80.0,53.0 103.0,81.0 118.0,75.0 120.0,51.0" fill="#c97d47" />
<polygon points="338.0,261.0 336.0,324.0 248.0,322.0 248.0,286.0 280.0,282.0 284.0,257.0 306.0,285.0 323.0,279.0 325.0,256.0" fill="#c97d47" />
<polygon points="166.0,0.0 165.0,35.0 232.0,33.0 231.0,0.0" fill="#934a34" />
<polygon points="253.0,129.0 235.0,115.0 214.0,117.0 199.0,135.0 196.0,180.0 130.0,186.0 166.0,218.0 223.0,216.0 259.0,182.0 263.0,151.0" fill="#b0d1c6" opacity="0.95" />
<polygon points="133.0,342.0 148.0,355.0 149.0,383.0 166.0,383.0 169.0,356.0 211.0,356.0 213.0,383.0 266.0,383.0 269.0,356.0 304.0,356.0 308.0,383.0 370.0,383.0 370.0,359.0 383.0,356.0 383.0,344.0 340.0,337.0" fill="#934a34" />
<polygon points="54.0,137.0 71.0,151.0 84.0,152.0 89.0,157.0 88.0,178.0 132.0,177.0 131.0,137.0" fill="#934a34" />
<polygon points="247.0,202.0 204.0,228.0 177.0,226.0 150.0,211.0 149.0,237.0 155.0,243.0 246.0,243.0" fill="#5e272c" />
<polygon points="285.0,56.0 277.0,83.0 249.0,83.0 262.0,178.0 285.0,181.0 270.0,243.0 300.0,239.0 304.0,200.0 336.0,199.0 298.0,192.0 337.0,133.0 298.0,106.0 332.0,105.0 336.0,77.0 308.0,83.0" fill="#5e272c" opacity="0.95" />
<polygon points="233.0,283.0 207.0,287.0 184.0,260.0 178.0,286.0 149.0,286.0 151.0,319.0 185.0,315.0 199.0,306.0 230.0,310.0" fill="#5e272c" />
<polygon points="253.0,129.0 235.0,115.0 214.0,117.0 199.0,135.0 195.0,180.0 130.0,186.0 166.0,218.0 223.0,216.0 259.0,182.0 263.0,151.0" fill="#b0d1c6" opacity="0.95" />
<polygon points="233.0,77.0 205.0,82.0 184.0,56.0 177.0,82.0 149.0,82.0 150.0,113.0 194.0,113.0 200.0,102.0 219.0,106.0 233.0,88.0" fill="#5e272c" />
<polygon points="45.0,82.0 46.0,114.0 82.0,114.0 98.0,102.0 124.0,107.0 132.0,100.0 131.0,75.0 115.0,84.0 102.0,82.0 80.0,54.0 74.0,82.0" fill="#5e272c" />
<polygon points="285.0,181.0 261.0,180.0 247.0,200.0 246.0,244.0 159.0,246.0 194.0,267.0 220.0,261.0 224.0,279.0 208.0,285.0 228.0,284.0 227.0,258.0 274.0,254.0 267.0,211.0" fill="#934a34" />
<polygon points="45.0,287.0 46.0,320.0 91.0,307.0 126.0,311.0 132.0,304.0 131.0,280.0 104.0,287.0 80.0,259.0 79.0,281.0 72.0,288.0" fill="#5e272c" />
<polygon points="249.0,286.0 255.0,320.0 300.0,306.0 327.0,311.0 336.0,303.0 335.0,279.0 319.0,288.0 305.0,286.0 285.0,259.0 279.0,286.0" fill="#5e272c" />
<polygon points="133.0,260.0 133.0,323.0 44.0,322.0 44.0,286.0 76.0,281.0 79.0,260.0 103.0,285.0 119.0,279.0 120.0,257.0" fill="#c97d47" opacity="0.95" />
<polygon points="383.0,344.0 0.0,354.0 41.0,352.0 45.0,383.0 61.0,356.0 106.0,356.0 110.0,383.0 132.0,383.0 135.0,344.0 149.0,383.0 170.0,356.0 212.0,357.0 213.0,383.0 266.0,383.0 270.0,356.0 305.0,357.0 308.0,383.0 370.0,383.0" fill="#934a34" opacity="0.95" />
<polygon points="150.0,130.0 150.0,177.0 195.0,178.0 196.0,151.0 173.0,150.0 157.0,138.0 197.0,137.0 199.0,131.0" fill="#5e272c" />
<polygon points="304.0,202.0 300.0,242.0 333.0,242.0 337.0,205.0 353.0,219.0 354.0,241.0 383.0,242.0 383.0,201.0 367.0,201.0 364.0,211.0 352.0,196.0" fill="#934a34" />
<polygon points="286.0,57.0 277.0,83.0 249.0,84.0 262.0,177.0 285.0,182.0 271.0,243.0 300.0,239.0 306.0,200.0 336.0,198.0 298.0,192.0 336.0,150.0 336.0,132.0 298.0,106.0 332.0,105.0 336.0,79.0 308.0,83.0" fill="#5e272c" opacity="0.95" />
<polygon points="0.0,346.0 2.0,356.0 40.0,351.0 45.0,383.0 57.0,383.0 60.0,356.0 107.0,356.0 110.0,383.0 132.0,383.0 131.0,344.0 50.0,347.0 30.0,338.0" fill="#934a34" />
<polygon points="383.0,344.0 32.0,338.0 0.0,354.0 40.0,352.0 45.0,383.0 61.0,356.0 106.0,356.0 110.0,383.0 132.0,383.0 136.0,346.0 149.0,383.0 170.0,356.0 211.0,357.0 213.0,383.0 266.0,383.0 270.0,356.0 305.0,357.0 308.0,383.0 370.0,383.0" fill="#934a34" opacity="0.95" />
<polygon points="322.0,153.0 322.0,178.0 335.0,178.0 336.0,168.0 348.0,164.0 354.0,178.0 358.0,174.0 383.0,178.0 383.0,137.0 368.0,137.0 359.0,154.0 353.0,134.0 339.0,132.0 337.0,150.0" fill="#934a34" />
<polygon points="164.0,219.0 186.0,227.0 204.0,227.0 217.0,221.0 216.0,219.0 180.0,222.0" fill="#6a9097" />
<polygon points="215.0,221.0 177.0,221.0 175.0,224.0 186.0,227.0 204.0,227.0 215.0,223.0" fill="#6a9097" opacity="0.95" />
<polygon points="335.0,55.0 332.0,58.0 332.0,59.0 331.0,60.0 331.0,63.0 335.0,67.0 336.0,66.0 336.0,56.0" fill="#f8ecd7" />
<polygon points="131.0,56.0 128.0,60.0 128.0,64.0 131.0,67.0 132.0,66.0 132.0,57.0" fill="#f8ecd7" />
<polygon points="79.0,32.0 79.0,34.0 80.0,35.0 86.0,35.0 87.0,34.0 87.0,33.0 84.0,30.0 81.0,30.0" fill="#e3b07a" />
<polygon points="283.0,33.0 283.0,34.0 284.0,35.0 290.0,35.0 291.0,34.0 291.0,33.0 288.0,30.0 285.0,30.0" fill="#e3b07a" />
<polygon points="131.0,262.0 129.0,264.0 129.0,268.0 131.0,270.0 132.0,269.0 132.0,263.0" fill="#f8ecd7" />
<polygon points="334.0,57.0 332.0,58.0 331.0,60.0 331.0,63.0 334.0,65.0 336.0,64.0 336.0,58.0" fill="#f8ecd7" opacity="0.95" />
<polygon points="79.0,32.0 79.0,34.0 81.0,35.0 84.0,35.0 86.0,34.0 86.0,32.0 83.0,30.0" fill="#e3b07a" opacity="0.95" />
<polygon points="203.0,221.0 200.0,223.0 200.0,225.0 204.0,227.0 207.0,225.0 207.0,223.0" fill="#6a9097" opacity="0.95" />
<polygon points="284.0,31.0 284.0,34.0 286.0,35.0 288.0,35.0 290.0,34.0 290.0,32.0 287.0,30.0" fill="#e3b07a" opacity="0.95" />
<polygon points="130.0,59.0 129.0,60.0 128.0,60.0 128.0,64.0 129.0,64.0 130.0,65.0 131.0,64.0 132.0,64.0 132.0,60.0 131.0,60.0" fill="#f8ecd7" opacity="0.95" />
</svg>