<svg xmlns="http://www.w3.org/2000/svg" width="768" height="768" viewBox="0 0 384 384">
<rect width="384" height="384" fill="#986558"/>
<polygon points="0.0,0.0 0.0,383.0 175.0,383.0 123.0,151.0 191.0,36.0 260.0,159.0 210.0,383.0 383.0,383.0 383.0,0.0" fill="#9b6255" />
<polygon points="0.0,0.0 0.0,383.0 174.0,383.0 123.0,151.0 191.0,37.0 260.0,159.0 210.0,383.0 383.0,383.0 383.0,0.0" fill="#9b6255" opacity="0.95" />
<polygon points="0.0,0.0 0.0,383.0 174.0,383.0 123.0,151.0 191.0,38.0 260.0,159.0 210.0,383.0 383.0,383.0 383.0,0.0" fill="#9b6255" opacity="0.95" />
<polygon points="238.0,207.0 195.0,223.0 145.0,209.0 170.0,329.0 215.0,329.0" fill="#633019" />
<polygon points="124.0,161.0 136.0,197.0 182.0,221.0 235.0,208.0 258.0,170.0 257.0,160.0" fill="#77eef8" />
<polygon points="149.0,99.0 234.0,100.0 191.0,38.0" fill="#fe0504" />
<polygon points="238.0,210.0 195.0,223.0 146.0,211.0 169.0,328.0 215.0,329.0" fill="#633019" opacity="0.95" />
<polygon points="124.0,161.0 136.0,197.0 182.0,221.0 235.0,208.0 258.0,170.0 256.0,160.0" fill="#77eef8" opacity="0.95" />
<polygon points="170.0,330.0 176.0,383.0 209.0,383.0 216.0,332.0" fill="#231e1d" />
<polygon points="237.0,210.0 195.0,223.0 146.0,212.0 170.0,328.0 215.0,328.0" fill="#633019" opacity="0.95" />
<polygon points="161.0,104.0 191.0,149.0 221.0,103.0" fill="#633019" />
<polygon points="236.0,108.0 203.0,158.0 258.0,156.0 252.0,129.0" fill="#589401" />
<polygon points="124.0,162.0 136.0,197.0 182.0,221.0 235.0,208.0 258.0,170.0 255.0,160.0" fill="#77eef8" opacity="0.95" />
<polygon points="144.0,110.0 130.0,130.0 125.0,157.0 175.0,158.0 177.0,152.0 150.0,112.0" fill="#589401" />
<polygon points="150.0,98.0 233.0,100.0 191.0,39.0" fill="#fe0504" opacity="0.95" />
<polygon points="148.0,104.0 183.0,159.0 203.0,155.0 235.0,106.0 221.0,105.0 191.0,151.0 160.0,104.0" fill="#e7eed2" />
<polygon points="169.0,331.0 176.0,383.0 209.0,383.0 215.0,332.0" fill="#231e1d" opacity="0.95" />
<polygon points="151.0,97.0 160.0,102.0 233.0,99.0 191.0,39.0" fill="#fe0504" opacity="0.95" />
<polygon points="162.0,103.0 191.0,148.0 220.0,105.0" fill="#633019" opacity="0.95" />
<polygon points="238.0,110.0 232.0,112.0 204.0,157.0 258.0,156.0 252.0,129.0" fill="#589401" opacity="0.95" />
<polygon points="144.0,110.0 130.0,130.0 125.0,157.0 176.0,157.0 177.0,152.0 150.0,112.0" fill="#589401" opacity="0.95" />
<polygon points="171.0,331.0 176.0,383.0 209.0,383.0 215.0,333.0" fill="#231e1d" opacity="0.95" />
<polygon points="148.0,104.0 184.0,159.0 203.0,155.0 235.0,106.0 222.0,104.0 191.0,149.0 160.0,104.0" fill="#e7eed2" opacity="0.95" />
<polygon points="238.0,110.0 232.0,112.0 205.0,157.0 258.0,156.0 252.0,129.0" fill="#589401" opacity="0.95" />
<polygon points="162.0,104.0 191.0,147.0 219.0,106.0 216.0,102.0" fill="#633019" opacity="0.95" />
<polygon points="144.0,110.0 130.0,130.0 125.0,156.0 176.0,157.0 177.0,152.0 150.0,112.0" fill="#589401" opacity="0.95" />
<polygon points="148.0,105.0 184.0,159.0 203.0,155.0 234.0,108.0 222.0,104.0 191.0,149.0 162.0,107.0" fill="#e7eed2" opacity="0.95" />
</svg>