<svg xmlns="http://www.w3.org/2000/svg" width="768" height="768" viewBox="0 0 384 384">
<rect width="384" height="384" fill="#8d6754"/>
<polygon points="0.0,0.0 0.0,383.0 181.0,383.0 179.0,245.0 130.0,184.0 153.0,0.0" fill="#905f47" />
<polygon points="228.0,0.0 264.0,53.0 271.0,200.0 220.0,248.0 214.0,383.0 383.0,383.0 383.0,0.0" fill="#905f47" />
<polygon points="0.0,0.0 0.0,383.0 180.0,383.0 179.0,245.0 130.0,184.0 152.0,0.0" fill="#905f47" opacity="0.95" />
<polygon points="229.0,0.0 264.0,53.0 271.0,200.0 257.0,232.0 220.0,248.0 214.0,383.0 383.0,383.0 383.0,0.0" fill="#905f47" opacity="0.95" />
<polygon points="0.0,0.0 0.0,383.0 180.0,383.0 179.0,246.0 130.0,184.0 152.0,0.0" fill="#905f47" opacity="0.95" />
<polygon points="230.0,0.0 264.0,53.0 271.0,200.0 220.0,248.0 214.0,383.0 383.0,383.0 383.0,0.0" fill="#905f47" opacity="0.95" />
<polygon points="246.0,105.0 207.0,106.0 201.0,197.0 181.0,184.0 181.0,107.0 141.0,108.0 141.0,203.0 187.0,219.0 237.0,209.0 251.0,188.0" fill="#54cccd" />
<polygon points="246.0,32.0 253.0,186.0 202.0,222.0 204.0,319.0 200.0,222.0 147.0,212.0 170.0,240.0 183.0,225.0 185.0,383.0 212.0,379.0 217.0,247.0 267.0,206.0" fill="#251a23" />
<polygon points="181.0,0.0 165.0,0.0 148.0,18.0 141.0,106.0 182.0,103.0" fill="#fa4f0a" />
<polygon points="208.0,0.0 209.0,102.0 246.0,104.0 241.0,19.0 227.0,0.0" fill="#fad077" />
<polygon points="248.0,33.0 248.0,199.0 200.0,223.0 147.0,213.0 183.0,241.0 184.0,383.0 212.0,379.0 217.0,247.0 267.0,206.0" fill="#251a23" opacity="0.95" />
<polygon points="247.0,106.0 207.0,106.0 201.0,197.0 181.0,184.0 181.0,107.0 141.0,108.0 141.0,203.0 187.0,219.0 237.0,209.0 251.0,188.0" fill="#54cccd" opacity="0.95" />
<polygon points="183.0,104.0 182.0,184.0 188.0,192.0 199.0,194.0 207.0,184.0 205.0,105.0" fill="#cadfec" />
<polygon points="249.0,34.0 248.0,199.0 200.0,223.0 148.0,215.0 182.0,243.0 184.0,383.0 212.0,379.0 217.0,247.0 267.0,206.0" fill="#251a23" opacity="0.95" />
<polygon points="246.0,106.0 208.0,107.0 201.0,197.0 181.0,184.0 181.0,108.0 141.0,108.0 141.0,203.0 187.0,219.0 237.0,209.0 251.0,188.0" fill="#54cccd" opacity="0.95" />
<polygon points="181.0,0.0 164.0,0.0 148.0,18.0 142.0,106.0 182.0,103.0" fill="#fa4f0a" opacity="0.95" />
<polygon points="208.0,0.0 209.0,102.0 245.0,104.0 241.0,19.0 228.0,0.0" fill="#fad077" opacity="0.95" />
<polygon points="182.0,0.0 183.0,102.0 189.0,103.0 197.0,96.0 194.0,0.0" fill="#fe55fb" />
<polygon points="181.0,0.0 164.0,0.0 148.0,18.0 140.0,88.0 143.0,106.0 182.0,102.0" fill="#fa4f0a" opacity="0.95" />
<polygon points="208.0,0.0 209.0,102.0 244.0,104.0 247.0,91.0 241.0,19.0 228.0,0.0" fill="#fad077" opacity="0.95" />
<polygon points="184.0,104.0 182.0,184.0 188.0,192.0 199.0,194.0 207.0,184.0 205.0,105.0" fill="#cadfec" opacity="0.95" />
<polygon points="195.0,0.0 198.0,96.0 194.0,102.0 205.0,101.0 201.0,0.0" fill="#fe82fc" />
<polygon points="188.0,104.0 182.0,107.0 181.0,177.0 188.0,192.0 199.0,194.0 207.0,184.0 205.0,106.0" fill="#cadfec" opacity="0.95" />
<polygon points="182.0,0.0 183.0,102.0 189.0,103.0 197.0,96.0 194.0,0.0" fill="#fe55fb" opacity="0.95" />
<polygon points="182.0,0.0 183.0,101.0 189.0,103.0 197.0,96.0 194.0,0.0" fill="#fe55fb" opacity="0.95" />
<polygon points="138.0,107.0 135.0,110.0 131.0,164.0 134.0,192.0" fill="#cadfec" />
<polygon points="195.0,0.0 196.0,102.0 205.0,101.0 201.0,0.0" fill="#fe82fc" opacity="0.95" />
<polygon points="202.0,324.0 204.0,326.0 204.0,372.0 202.0,374.0 200.0,372.0 200.0,326.0" fill="#251a23" />
<polygon points="204.0,29.0 202.0,31.0 202.0,58.0 204.0,73.0" fill="#fcb6e6" />
<polygon points="203.0,245.0 206.0,247.0 205.0,278.0 202.0,280.0 199.0,278.0 199.0,247.0" fill="#251a23" opacity="0.95" />
<polygon points="157.0,0.0 152.0,2.0 146.0,13.0 141.0,29.0 142.0,34.0 149.0,13.0" fill="#d8b29e" />
<polygon points="195.0,0.0 194.0,44.0 196.0,63.0 199.0,65.0 202.0,63.0 201.0,0.0" fill="#fe82fc" opacity="0.95" />
<polygon points="137.0,109.0 135.0,110.0 134.0,149.0 132.0,150.0 134.0,157.0 136.0,156.0 135.0,147.0 138.0,135.0 139.0,110.0" fill="#cadfec" opacity="0.95" />
<polygon points="138.0,84.0 137.0,85.0 137.0,95.0 136.0,96.0 136.0,105.0 137.0,106.0 139.0,102.0 139.0,85.0" fill="#d8b29e" />
<polygon points="200.0,71.0 197.0,73.0 199.0,79.0 197.0,101.0 200.0,103.0 205.0,100.0 204.0,82.0 202.0,80.0 203.0,73.0" fill="#fe82fc" opacity="0.95" />
<polygon points="140.0,53.0 139.0,54.0 139.0,66.0 140.0,67.0 141.0,66.0 141.0,54.0" fill="#d8b29e" />
<polygon points="204.0,247.0 203.0,248.0 203.0,263.0 204.0,264.0 205.0,263.0 205.0,248.0" fill="#624339" />
<polygon points="139.0,69.0 138.0,70.0 138.0,81.0 139.0,82.0 140.0,81.0 140.0,70.0" fill="#d8b29e" />
<polygon points="204.0,0.0 202.0,0.0 202.0,11.0 203.0,12.0 204.0,11.0" fill="#fcb6e6" />
<polygon points="245.0,30.0 247.0,32.0 249.0,32.0 254.0,37.0 255.0,36.0 250.0,31.0 246.0,29.0" fill="#624339" />
<polygon points="133.0,163.0 132.0,164.0 131.0,164.0 131.0,168.0 132.0,168.0 133.0,169.0 134.0,168.0 135.0,168.0 135.0,164.0 134.0,164.0" fill="#cadfec" opacity="0.95" />
</svg>