<svg xmlns="http://www.w3.org/2000/svg" width="768" height="768" viewBox="0 0 384 384">
<rect width="384" height="384" fill="#895445"/>
<polygon points="383.0,0.0 271.0,59.0 341.0,49.0 342.0,104.0 273.0,123.0 263.0,166.0 257.0,115.0 135.0,137.0 135.0,383.0 258.0,383.0 261.0,313.0 383.0,320.0 383.0,250.0 250.0,258.0 259.0,172.0 383.0,189.0" fill="#714334" opacity="0.95" />
<polygon points="6.0,67.0 4.0,126.0 129.0,124.0 127.0,65.0" fill="#714334" />
<polygon points="383.0,0.0 341.0,0.0 338.0,120.0 135.0,137.0 135.0,383.0 258.0,383.0 260.0,316.0 383.0,320.0 383.0,260.0 252.0,258.0 259.0,187.0 383.0,189.0" fill="#714334" opacity="0.95" />
<polygon points="135.0,136.0 138.0,191.0 258.0,188.0 256.0,130.0 139.0,130.0" fill="#714334" />
<polygon points="135.0,200.0 137.0,255.0 258.0,252.0 256.0,195.0 139.0,195.0" fill="#714334" />
<polygon points="135.0,266.0 138.0,320.0 258.0,317.0 255.0,260.0 139.0,260.0" fill="#714334" />
<polygon points="136.0,0.0 137.0,56.0 253.0,51.0 251.0,0.0" fill="#ac6d5a" />
<polygon points="267.0,196.0 266.0,253.0 380.0,247.0 377.0,195.0" fill="#ac6d5a" />
<polygon points="262.0,313.0 267.0,320.0 383.0,320.0 383.0,260.0 267.0,260.0" fill="#714334" />
<polygon points="135.0,331.0 135.0,383.0 258.0,383.0 256.0,325.0 139.0,325.0" fill="#714334" />
<polygon points="0.0,203.0 0.0,247.0 7.0,254.0 124.0,248.0 122.0,199.0 5.0,195.0" fill="#ac6d5a" />
<polygon points="0.0,6.0 0.0,54.0 6.0,61.0 125.0,50.0 125.0,0.0 6.0,0.0" fill="#ac6d5a" />
<polygon points="0.0,268.0 0.0,311.0 6.0,318.0 125.0,313.0 122.0,263.0 5.0,260.0" fill="#ac6d5a" />
<polygon points="0.0,137.0 0.0,182.0 6.0,189.0 125.0,182.0 126.0,140.0 120.0,132.0 9.0,130.0" fill="#ac6d5a" />
<polygon points="383.0,0.0 341.0,0.0 341.0,38.0 322.0,56.0 270.0,61.0 325.0,62.0 345.0,47.0 336.0,61.0 351.0,75.0 330.0,67.0 338.0,120.0 266.0,131.0 266.0,190.0 383.0,189.0" fill="#714334" />
<polygon points="263.0,335.0 263.0,383.0 378.0,383.0 381.0,378.0 378.0,325.0 269.0,325.0" fill="#ac6d5a" />
<polygon points="0.0,333.0 0.0,378.0 5.0,383.0 123.0,383.0 127.0,376.0 128.0,333.0 122.0,326.0 6.0,325.0" fill="#ac6d5a" />
<polygon points="129.0,66.0 8.0,65.0 0.0,122.0 127.0,125.0" fill="#714334" opacity="0.95" />
<polygon points="137.0,123.0 251.0,120.0 255.0,67.0 174.0,67.0 185.0,92.0 172.0,93.0 188.0,115.0" fill="#ac5644" />
<polygon points="7.0,131.0 0.0,248.0 21.0,259.0 0.0,269.0 0.0,313.0 123.0,314.0 124.0,264.0 43.0,256.0 123.0,248.0 125.0,201.0 42.0,192.0 123.0,183.0 124.0,135.0" fill="#ac6d5a" opacity="0.95" />
<polygon points="271.0,66.0 275.0,112.0 266.0,124.0 339.0,118.0 341.0,82.0 328.0,65.0" fill="#ac5644" />
<polygon points="0.0,333.0 4.0,383.0 123.0,383.0 128.0,333.0 122.0,326.0 8.0,325.0" fill="#ac6d5a" opacity="0.95" />
<polygon points="266.0,59.0 279.0,55.0 322.0,55.0 340.0,38.0 340.0,0.0 276.0,0.0 275.0,49.0" fill="#ac5644" />
<polygon points="272.0,66.0 275.0,112.0 266.0,124.0 339.0,118.0 341.0,82.0 328.0,65.0" fill="#ac5644" opacity="0.95" />
<polygon points="252.0,55.0 137.0,58.0 194.0,62.0 178.0,67.0 187.0,116.0 138.0,124.0 253.0,119.0 254.0,66.0 195.0,64.0" fill="#ac5644" opacity="0.95" />
<polygon points="276.0,0.0 275.0,49.0 271.0,56.0 322.0,55.0 339.0,40.0 340.0,0.0" fill="#ac5644" opacity="0.95" />
<polygon points="272.0,66.0 272.0,121.0 339.0,118.0 341.0,82.0 328.0,65.0" fill="#ac5644" opacity="0.95" />
<polygon points="140.0,123.0 251.0,120.0 254.0,67.0 182.0,66.0 179.0,103.0 200.0,107.0" fill="#ac5644" opacity="0.95" />
<polygon points="276.0,0.0 274.0,55.0 321.0,55.0 339.0,40.0 340.0,0.0" fill="#ac5644" opacity="0.95" />
<polygon points="124.0,193.0 134.0,198.0 260.0,194.0 266.0,236.0 263.0,189.0" fill="#e1a589" />
<polygon points="257.0,0.0 252.0,0.0 251.0,54.0 136.0,59.0 250.0,58.0 257.0,48.0" fill="#ac5644" />
<polygon points="263.0,324.0 352.0,322.0 265.0,321.0" fill="#f6c6ab" />
<polygon points="260.0,196.0 259.0,255.0 262.0,252.0 262.0,198.0" fill="#2d160f" />
<polygon points="0.0,328.0 14.0,323.0 109.0,322.0 4.0,321.0 0.0,317.0" fill="#fbe5d1" />
<polygon points="0.0,253.0 0.0,262.0 4.0,259.0 82.0,258.0 5.0,257.0" fill="#fbe5d1" />
<polygon points="259.0,261.0 260.0,319.0 261.0,262.0" fill="#2d160f" />
<polygon points="261.0,68.0 259.0,126.0 262.0,123.0" fill="#2d160f" />
<polygon points="260.0,326.0 259.0,383.0 262.0,382.0 262.0,329.0" fill="#2d160f" />
<polygon points="343.0,193.0 344.0,194.0 383.0,194.0 383.0,192.0 344.0,192.0" fill="#e1a589" />
<polygon points="260.0,27.0 259.0,28.0 259.0,60.0 258.0,61.0 259.0,62.0 261.0,60.0 261.0,28.0" fill="#2d160f" />
<polygon points="133.0,124.0 128.0,128.0 134.0,132.0 139.0,128.0" fill="#e1a589" />
<polygon points="124.0,322.0 129.0,323.0 134.0,327.0 137.0,324.0 147.0,322.0 137.0,321.0 135.0,319.0" fill="#f6c6ab" />
<polygon points="99.0,258.0 100.0,259.0 120.0,259.0 121.0,258.0 120.0,257.0 100.0,257.0" fill="#f6c6ab" />
<polygon points="133.0,60.0 129.0,64.0 133.0,67.0 134.0,67.0 138.0,64.0 134.0,60.0" fill="#e1a589" />
<polygon points="131.0,346.0 130.0,347.0 130.0,360.0 131.0,361.0 132.0,360.0 132.0,347.0" fill="#2d160f" />
<polygon points="0.0,192.0 0.0,194.0 2.0,195.0 4.0,194.0 21.0,194.0 22.0,193.0 21.0,192.0 4.0,192.0 3.0,191.0" fill="#fbe5d1" />
<polygon points="133.0,261.0 134.0,262.0 137.0,259.0 147.0,259.0 148.0,258.0 152.0,259.0 153.0,258.0 135.0,256.0 133.0,258.0" fill="#f6c6ab" />
<polygon points="267.0,257.0 263.0,254.0 259.0,257.0 257.0,257.0 256.0,258.0 257.0,259.0 260.0,259.0 263.0,262.0 267.0,258.0" fill="#e1a589" />
<polygon points="262.0,190.0 259.0,192.0 259.0,194.0 263.0,197.0 263.0,204.0 265.0,205.0 267.0,204.0 267.0,192.0 264.0,190.0" fill="#e1a589" opacity="0.95" />
<polygon points="264.0,319.0 263.0,318.0 257.0,323.0 261.0,325.0" fill="#e1a589" />
<polygon points="334.0,258.0 335.0,259.0 350.0,259.0 351.0,258.0 353.0,259.0 354.0,258.0 353.0,257.0 351.0,258.0 350.0,257.0 335.0,257.0" fill="#e1a589" />
<polygon points="0.0,58.0 0.0,68.0 4.0,64.0 4.0,63.0 1.0,60.0 1.0,59.0" fill="#f6c6ab" />
<polygon points="129.0,192.0 129.0,194.0 133.0,196.0 139.0,194.0 139.0,192.0 135.0,190.0 132.0,190.0" fill="#e1a589" opacity="0.95" />
<polygon points="131.0,327.0 130.0,328.0 130.0,335.0 131.0,336.0 132.0,335.0 132.0,328.0" fill="#2d160f" />
<polygon points="129.0,127.0 129.0,129.0 132.0,131.0 138.0,129.0 138.0,127.0 134.0,125.0" fill="#e1a589" opacity="0.95" />
<polygon points="133.0,319.0 129.0,321.0 129.0,323.0 134.0,326.0 138.0,324.0 138.0,321.0" fill="#f6c6ab" opacity="0.95" />
<polygon points="131.0,197.0 130.0,198.0 131.0,200.0 130.0,202.0 130.0,209.0 131.0,210.0 130.0,212.0 131.0,213.0 132.0,212.0 131.0,210.0 132.0,209.0 132.0,202.0 131.0,201.0 132.0,198.0" fill="#2d160f" />
<polygon points="225.0,322.0 226.0,323.0 227.0,322.0 228.0,323.0 235.0,323.0 236.0,322.0 235.0,321.0 228.0,321.0 227.0,322.0 226.0,321.0" fill="#f6c6ab" />
<polygon points="0.0,318.0 0.0,327.0 4.0,324.0 5.0,324.0 5.0,321.0 4.0,321.0" fill="#fbe5d1" opacity="0.95" />
<polygon points="0.0,254.0 0.0,262.0 4.0,259.0 5.0,259.0 5.0,257.0" fill="#fbe5d1" opacity="0.95" />
<polygon points="0.0,127.0 0.0,129.0 1.0,130.0 3.0,130.0 6.0,128.0 5.0,127.0 3.0,127.0 2.0,126.0 1.0,127.0" fill="#fbe5d1" />
<polygon points="0.0,60.0 0.0,67.0 3.0,65.0 3.0,62.0" fill="#f6c6ab" opacity="0.95" />
<polygon points="133.0,319.0 130.0,321.0 130.0,323.0 134.0,326.0 137.0,324.0 137.0,322.0" fill="#f6c6ab" opacity="0.95" />
<polygon points="0.0,60.0 0.0,67.0 3.0,65.0 3.0,62.0" fill="#f6c6ab" opacity="0.95" />
<polygon points="0.0,318.0 0.0,327.0 1.0,326.0 2.0,326.0 4.0,324.0 4.0,321.0 2.0,319.0 1.0,319.0" fill="#fbe5d1" opacity="0.95" />
<polygon points="0.0,254.0 0.0,262.0 1.0,261.0 2.0,261.0 4.0,259.0 4.0,257.0 2.0,255.0 1.0,255.0" fill="#fbe5d1" opacity="0.95" />
</svg>