<svg xmlns="http://www.w3.org/2000/svg" width="768" height="768" viewBox="0 0 384 384">
<rect width="384" height="384" fill="#955e54"/>
<polygon points="383.0,181.0 317.0,152.0 299.0,105.0 297.0,128.0 2.0,128.0 0.0,383.0 159.0,383.0 187.0,270.0 237.0,284.0 229.0,383.0 383.0,383.0 373.0,315.0 281.0,294.0 311.0,254.0 383.0,254.0" fill="#a7695a" />
<polygon points="383.0,181.0 300.0,106.0 1.0,129.0 0.0,383.0 159.0,383.0 187.0,270.0 237.0,284.0 229.0,383.0 383.0,383.0 373.0,315.0 281.0,294.0 313.0,254.0 383.0,254.0" fill="#a7695a" opacity="0.95" />
<polygon points="383.0,181.0 300.0,106.0 0.0,130.0 0.0,383.0 159.0,383.0 187.0,270.0 237.0,284.0 229.0,383.0 383.0,383.0 373.0,315.0 281.0,294.0 314.0,254.0 383.0,254.0" fill="#a7695a" opacity="0.95" />
<polygon points="133.0,174.0 187.0,145.0 241.0,170.0 251.0,193.0 238.0,255.0 142.0,257.0" fill="#a7695a" />
<polygon points="0.0,0.0 12.0,125.0 265.0,125.0 255.0,79.0 186.0,115.0 141.0,98.0 113.0,54.0 133.0,34.0 104.0,23.0 124.0,0.0" fill="#653730" />
<polygon points="278.0,0.0 298.0,28.0 350.0,58.0 344.0,113.0 331.0,129.0 303.0,133.0 383.0,180.0 383.0,0.0" fill="#653730" />
<polygon points="133.0,174.0 187.0,145.0 241.0,170.0 251.0,193.0 238.0,255.0 142.0,256.0" fill="#a7695a" opacity="0.95" />
<polygon points="0.0,0.0 13.0,125.0 258.0,125.0 254.0,80.0 186.0,115.0 141.0,98.0 113.0,54.0 133.0,34.0 104.0,23.0 123.0,0.0" fill="#653730" opacity="0.95" />
<polygon points="133.0,174.0 187.0,145.0 241.0,170.0 251.0,193.0 238.0,254.0 143.0,256.0" fill="#a7695a" opacity="0.95" />
<polygon points="134.0,38.0 142.0,79.0 184.0,106.0 231.0,77.0 229.0,64.0 205.0,86.0 194.0,51.0 169.0,28.0" fill="#e9232f" />
<polygon points="0.0,0.0 0.0,113.0 16.0,126.0 256.0,124.0 253.0,80.0 186.0,115.0 141.0,98.0 113.0,54.0 133.0,34.0 104.0,23.0 123.0,0.0" fill="#653730" opacity="0.95" />
<polygon points="132.0,182.0 196.0,230.0 249.0,194.0 245.0,180.0 207.0,204.0 234.0,175.0 189.0,157.0 149.0,174.0 189.0,211.0" fill="#37ddea" />
<polygon points="278.0,0.0 298.0,28.0 350.0,58.0 344.0,114.0 304.0,134.0 383.0,180.0 383.0,0.0" fill="#653730" opacity="0.95" />
<polygon points="282.0,291.0 303.0,302.0 362.0,307.0 383.0,326.0 383.0,261.0 377.0,257.0 315.0,257.0 308.0,273.0" fill="#653730" />
<polygon points="105.0,16.0 111.0,31.0 134.0,34.0 165.0,8.0 209.0,6.0 236.0,30.0 241.0,79.0 257.0,76.0 273.0,29.0 304.0,33.0 277.0,0.0 125.0,0.0" fill="#a7695a" />
<polygon points="238.0,299.0 218.0,308.0 220.0,295.0 191.0,315.0 171.0,307.0 158.0,311.0 159.0,343.0 195.0,355.0 216.0,349.0 237.0,333.0" fill="#1c3125" />
<polygon points="278.0,0.0 298.0,28.0 350.0,58.0 344.0,113.0 304.0,134.0 383.0,180.0 383.0,0.0" fill="#653730" opacity="0.95" />
<polygon points="243.0,211.0 193.0,233.0 144.0,208.0 139.0,220.0 155.0,240.0 189.0,249.0 235.0,228.0" fill="#211317" />
<polygon points="134.0,38.0 142.0,79.0 184.0,106.0 231.0,77.0 230.0,64.0 204.0,83.0 189.0,43.0 169.0,28.0" fill="#e9232f" opacity="0.95" />
<polygon points="132.0,182.0 196.0,230.0 249.0,194.0 245.0,180.0 209.0,202.0 234.0,175.0 189.0,157.0 149.0,173.0 187.0,211.0" fill="#37ddea" opacity="0.95" />
<polygon points="282.0,291.0 303.0,302.0 362.0,307.0 383.0,326.0 383.0,261.0 377.0,257.0 316.0,257.0 308.0,273.0" fill="#653730" opacity="0.95" />
<polygon points="105.0,16.0 125.0,32.0 174.0,5.0 209.0,6.0 236.0,30.0 241.0,79.0 256.0,78.0 269.0,33.0 296.0,22.0 277.0,0.0 124.0,0.0" fill="#a7695a" opacity="0.95" />
<polygon points="259.0,56.0 258.0,82.0 266.0,91.0 284.0,90.0 296.0,79.0 304.0,103.0 316.0,110.0 329.0,104.0 335.0,85.0 318.0,71.0 306.0,74.0 302.0,66.0" fill="#e9232f" />
<polygon points="237.0,294.0 221.0,274.0 159.0,308.0 191.0,314.0 222.0,289.0 225.0,299.0" fill="#3e7153" />
<polygon points="134.0,38.0 142.0,79.0 184.0,106.0 231.0,77.0 230.0,64.0 205.0,81.0 189.0,43.0 169.0,28.0" fill="#e9232f" opacity="0.95" />
<polygon points="239.0,334.0 228.0,349.0 190.0,373.0 167.0,367.0 158.0,343.0 160.0,383.0 228.0,383.0 238.0,365.0" fill="#653730" />
<polygon points="132.0,182.0 196.0,230.0 249.0,194.0 245.0,180.0 212.0,201.0 234.0,175.0 189.0,157.0 149.0,174.0 174.0,203.0" fill="#37ddea" opacity="0.95" />
<polygon points="238.0,299.0 226.0,303.0 219.0,296.0 190.0,315.0 171.0,307.0 158.0,311.0 159.0,343.0 195.0,355.0 216.0,349.0 237.0,333.0" fill="#1c3125" opacity="0.95" />
<polygon points="133.0,177.0 186.0,210.0 151.0,171.0 189.0,156.0 233.0,173.0 207.0,203.0 247.0,178.0 188.0,148.0" fill="#87e1ee" />
<polygon points="282.0,291.0 303.0,302.0 362.0,307.0 383.0,326.0 383.0,261.0 376.0,257.0 317.0,257.0 304.0,277.0" fill="#653730" opacity="0.95" />
<polygon points="215.0,11.0 202.0,5.0 179.0,5.0 141.0,24.0 167.0,21.0 191.0,39.0 190.0,30.0" fill="#f98e8f" />
<polygon points="105.0,16.0 125.0,32.0 174.0,5.0 209.0,6.0 236.0,30.0 241.0,79.0 257.0,76.0 269.0,33.0 296.0,22.0 277.0,0.0 124.0,0.0" fill="#a7695a" opacity="0.95" />
<polygon points="218.0,12.0 191.0,30.0 201.0,50.0 224.0,29.0 235.0,33.0" fill="#f2c0c2" />
<polygon points="238.0,301.0 219.0,296.0 190.0,315.0 171.0,307.0 158.0,311.0 159.0,343.0 195.0,355.0 216.0,349.0 237.0,333.0" fill="#1c3125" opacity="0.95" />
<polygon points="243.0,211.0 193.0,233.0 144.0,208.0 139.0,220.0 155.0,240.0 189.0,249.0 235.0,228.0" fill="#211317" opacity="0.95" />
<polygon points="259.0,55.0 261.0,86.0 283.0,89.0 295.0,79.0 304.0,103.0 316.0,110.0 329.0,104.0 331.0,80.0" fill="#e9232f" opacity="0.95" />
<polygon points="131.0,189.0 140.0,204.0 164.0,220.0 193.0,230.0" fill="#07a7be" />
<polygon points="234.0,339.0 201.0,356.0 162.0,346.0 161.0,358.0 175.0,371.0 190.0,372.0 211.0,361.0" fill="#211317" />
<polygon points="135.0,34.0 150.0,26.0 181.0,34.0 205.0,85.0 236.0,65.0 230.0,40.0 205.0,66.0 170.0,23.0 148.0,23.0" fill="#fa6d70" />
<polygon points="237.0,294.0 221.0,274.0 159.0,308.0 190.0,314.0 219.0,291.0 230.0,300.0" fill="#3e7153" opacity="0.95" />
<polygon points="243.0,211.0 193.0,233.0 144.0,208.0 139.0,220.0 155.0,240.0 189.0,249.0 235.0,228.0" fill="#211317" opacity="0.95" />
<polygon points="259.0,56.0 261.0,86.0 282.0,88.0 295.0,79.0 304.0,103.0 316.0,110.0 329.0,104.0 331.0,80.0" fill="#e9232f" opacity="0.95" />
<polygon points="214.0,10.0 196.0,4.0 179.0,5.0 147.0,21.0 167.0,21.0 188.0,34.0" fill="#f98e8f" opacity="0.95" />
<polygon points="134.0,175.0 186.0,210.0 149.0,172.0 185.0,156.0 229.0,171.0 211.0,202.0 246.0,179.0 188.0,148.0" fill="#87e1ee" opacity="0.95" />
<polygon points="296.0,80.0 288.0,82.0 279.0,113.0 280.0,116.0 291.0,120.0 294.0,119.0 297.0,104.0 301.0,100.0 300.0,86.0" fill="#931620" />
<polygon points="263.0,44.0 277.0,49.0 276.0,57.0 283.0,50.0 306.0,57.0 285.0,45.0 291.0,37.0 298.0,47.0 311.0,42.0 314.0,52.0 321.0,43.0 281.0,27.0" fill="#f98e8f" />
<polygon points="237.0,36.0 224.0,30.0 203.0,51.0 196.0,44.0 204.0,64.0 228.0,39.0 237.0,46.0" fill="#f98e8f" />
<polygon points="237.0,294.0 221.0,274.0 164.0,305.0 190.0,314.0 219.0,291.0 230.0,300.0" fill="#3e7153" opacity="0.95" />
<polygon points="251.0,104.0 251.0,114.0 259.0,123.0 295.0,125.0 286.0,119.0 266.0,113.0 255.0,103.0" fill="#211317" />
<polygon points="171.0,172.0 175.0,169.0 183.0,168.0 195.0,171.0 202.0,177.0 198.0,183.0 184.0,186.0 171.0,177.0" fill="#37ddea" />
<polygon points="334.0,46.0 331.0,54.0 339.0,54.0 342.0,69.0 325.0,65.0 337.0,76.0 327.0,115.0 311.0,126.0 333.0,121.0 348.0,65.0" fill="#f98e8f" />
<polygon points="260.0,49.0 337.0,81.0 323.0,71.0 326.0,44.0 286.0,42.0 315.0,57.0 310.0,65.0" fill="#fa6d70" opacity="0.95" />
<polygon points="172.0,172.0 172.0,177.0 184.0,185.0 196.0,183.0 201.0,177.0 195.0,172.0 183.0,169.0" fill="#87e1ee" />
<polygon points="233.0,341.0 201.0,356.0 164.0,347.0 161.0,358.0 178.0,372.0 190.0,372.0" fill="#211317" opacity="0.95" />
<polygon points="137.0,90.0 144.0,99.0 176.0,114.0 190.0,113.0 200.0,106.0 173.0,107.0 142.0,87.0" fill="#211317" />
<polygon points="260.0,49.0 336.0,78.0 324.0,69.0 330.0,61.0 325.0,44.0 316.0,49.0 292.0,38.0 280.0,53.0" fill="#fa6d70" opacity="0.95" />
<polygon points="166.0,282.0 170.0,281.0 173.0,286.0 191.0,279.0 202.0,282.0 216.0,275.0 206.0,271.0 187.0,271.0" fill="#f98e8f" />
<polygon points="214.0,10.0 186.0,4.0 165.0,9.0 151.0,19.0 170.0,22.0 187.0,33.0 208.0,20.0" fill="#f98e8f" opacity="0.95" />
<polygon points="217.0,12.0 191.0,30.0 194.0,41.0 202.0,50.0 223.0,30.0 234.0,32.0 229.0,22.0" fill="#f2c0c2" opacity="0.95" />
<polygon points="232.0,41.0 227.0,41.0 202.0,67.0 204.0,82.0 228.0,64.0 236.0,64.0 238.0,48.0" fill="#fa6d70" opacity="0.95" />
<polygon points="286.0,43.0 322.0,61.0 312.0,63.0 310.0,69.0 322.0,73.0 322.0,63.0 330.0,61.0 327.0,44.0 314.0,53.0 309.0,42.0 298.0,48.0 294.0,38.0" fill="#fa6d70" />
<polygon points="132.0,192.0 140.0,204.0 164.0,220.0 191.0,230.0 185.0,221.0" fill="#07a7be" opacity="0.95" />
<polygon points="227.0,166.0 187.0,148.0 135.0,176.0 181.0,207.0 151.0,171.0 185.0,156.0" fill="#87e1ee" opacity="0.95" />
<polygon points="229.0,345.0 201.0,356.0 165.0,347.0 161.0,358.0 178.0,372.0 190.0,372.0" fill="#211317" opacity="0.95" />
<polygon points="295.0,80.0 289.0,81.0 279.0,113.0 291.0,120.0 294.0,119.0 297.0,104.0 301.0,100.0 300.0,86.0" fill="#931620" opacity="0.95" />
<polygon points="222.0,15.0 217.0,13.0 191.0,30.0 200.0,48.0 205.0,48.0 223.0,30.0 232.0,29.0" fill="#f2c0c2" opacity="0.95" />
<polygon points="264.0,42.0 282.0,51.0 290.0,50.0 285.0,42.0 292.0,37.0 299.0,45.0 311.0,42.0 315.0,50.0 321.0,44.0 284.0,27.0 273.0,30.0" fill="#f98e8f" opacity="0.95" />
<polygon points="232.0,41.0 228.0,41.0 210.0,58.0 203.0,69.0 205.0,80.0 237.0,61.0 238.0,48.0" fill="#fa6d70" opacity="0.95" />
<polygon points="115.0,50.0 114.0,54.0 117.0,58.0 125.0,61.0 132.0,60.0 130.0,47.0 125.0,46.0 117.0,48.0" fill="#a7695a" />
<polygon points="143.0,83.0 161.0,101.0 184.0,107.0 163.0,98.0" fill="#931620" />
<polygon points="261.0,47.0 260.0,54.0 269.0,54.0 291.0,65.0 290.0,52.0 283.0,51.0 276.0,58.0 273.0,47.0" fill="#fa6d70" />
<polygon points="199.0,282.0 196.0,280.0 182.0,282.0 175.0,285.0 171.0,290.0 173.0,292.0 185.0,291.0" fill="#fa6d70" />
<polygon points="237.0,36.0 223.0,31.0 200.0,52.0 203.0,62.0 207.0,62.0 227.0,40.0 237.0,41.0" fill="#f98e8f" opacity="0.95" />
<polygon points="251.0,104.0 251.0,114.0 257.0,122.0 277.0,126.0 293.0,125.0 290.0,121.0 274.0,117.0 256.0,104.0" fill="#211317" opacity="0.95" />
<polygon points="133.0,194.0 140.0,204.0 180.0,229.0 187.0,228.0 184.0,221.0 140.0,194.0" fill="#07a7be" opacity="0.95" />
<polygon points="170.0,281.0 174.0,285.0 191.0,279.0 202.0,282.0 215.0,274.0 187.0,271.0 173.0,276.0" fill="#f98e8f" opacity="0.95" />
<polygon points="171.0,172.0 178.0,168.0 187.0,169.0 198.0,173.0 201.0,176.0 201.0,180.0 196.0,184.0 184.0,186.0 171.0,177.0" fill="#37ddea" opacity="0.95" />
<polygon points="138.0,88.0 141.0,97.0 173.0,113.0 186.0,114.0 198.0,108.0 173.0,107.0" fill="#211317" opacity="0.95" />
<polygon points="299.0,103.0 313.0,120.0 318.0,121.0 326.0,115.0 330.0,108.0 329.0,105.0 322.0,111.0 316.0,111.0 302.0,102.0" fill="#fa6d70" />
<polygon points="172.0,172.0 172.0,177.0 184.0,185.0 196.0,183.0 200.0,180.0 200.0,176.0 194.0,172.0 183.0,169.0" fill="#87e1ee" opacity="0.95" />
<polygon points="295.0,80.0 289.0,81.0 279.0,113.0 280.0,116.0 291.0,120.0 295.0,117.0 297.0,104.0 301.0,100.0 300.0,86.0" fill="#931620" opacity="0.95" />
<polygon points="258.0,84.0 256.0,92.0 256.0,100.0 257.0,103.0 262.0,108.0 264.0,102.0 264.0,90.0" fill="#931620" />
<polygon points="245.0,176.0 235.0,171.0 234.0,179.0 211.0,199.0 214.0,201.0 244.0,180.0" fill="#87e1ee" opacity="0.95" />
<polygon points="171.0,172.0 178.0,168.0 187.0,169.0 198.0,173.0 201.0,176.0 201.0,180.0 196.0,184.0 184.0,186.0 171.0,177.0" fill="#37ddea" opacity="0.95" />
<polygon points="335.0,52.0 330.0,64.0 340.0,70.0 341.0,69.0 337.0,65.0 338.0,54.0" fill="#f2c0c2" />
<polygon points="208.0,313.0 197.0,322.0 193.0,319.0 195.0,316.0 198.0,316.0 205.0,311.0" fill="#1c3125" />
<polygon points="172.0,172.0 172.0,177.0 184.0,185.0 196.0,183.0 200.0,180.0 200.0,176.0 194.0,172.0 183.0,169.0" fill="#87e1ee" opacity="0.95" />
<polygon points="296.0,58.0 293.0,63.0 302.0,65.0 305.0,68.0 307.0,65.0 308.0,60.0 306.0,58.0" fill="#fa6d70" />
<polygon points="259.0,86.0 257.0,87.0 256.0,100.0 257.0,103.0 261.0,106.0 263.0,105.0 264.0,102.0 264.0,90.0 262.0,87.0" fill="#931620" opacity="0.95" />
<polygon points="211.0,305.0 214.0,305.0 216.0,307.0 216.0,308.0 213.0,311.0 211.0,311.0 209.0,309.0 209.0,307.0" fill="#1c3125" />
<polygon points="217.0,94.0 216.0,93.0 201.0,102.0 203.0,103.0" fill="#931620" />
<polygon points="170.0,282.0 164.0,287.0 163.0,289.0 163.0,292.0 164.0,293.0 170.0,288.0 171.0,286.0 171.0,283.0" fill="#f2c0c2" />
<polygon points="157.0,96.0 158.0,99.0 173.0,106.0 176.0,105.0 176.0,103.0 159.0,95.0" fill="#931620" opacity="0.95" />
<polygon points="336.0,52.0 334.0,53.0 331.0,60.0 331.0,65.0 335.0,67.0 337.0,66.0 338.0,63.0 338.0,53.0" fill="#f2c0c2" opacity="0.95" />
<polygon points="260.0,86.0 257.0,88.0 256.0,92.0 256.0,100.0 257.0,103.0 260.0,105.0 264.0,102.0 264.0,90.0" fill="#931620" opacity="0.95" />
<polygon points="227.0,286.0 229.0,286.0 231.0,288.0 228.0,291.0 227.0,291.0 225.0,289.0 225.0,288.0" fill="#3e7153" />
<polygon points="212.0,305.0 215.0,307.0 215.0,309.0 212.0,311.0 209.0,309.0 209.0,307.0" fill="#1c3125" opacity="0.95" />
<polygon points="173.0,296.0 172.0,295.0 169.0,295.0 165.0,297.0 161.0,301.0 161.0,302.0 162.0,303.0 165.0,300.0 168.0,300.0" fill="#1c3125" />
<polygon points="335.0,56.0 333.0,57.0 331.0,60.0 331.0,64.0 334.0,66.0 338.0,63.0 338.0,58.0" fill="#f2c0c2" opacity="0.95" />
<polygon points="181.0,200.0 185.0,203.0 185.0,205.0 181.0,208.0 177.0,205.0 177.0,203.0" fill="#37ddea" opacity="0.95" />
<polygon points="171.0,284.0 169.0,283.0 167.0,284.0 164.0,287.0 163.0,291.0 165.0,292.0 167.0,291.0 170.0,288.0" fill="#f2c0c2" opacity="0.95" />
<polygon points="171.0,296.0 169.0,295.0 165.0,297.0 165.0,299.0 167.0,300.0 171.0,298.0" fill="#1c3125" opacity="0.95" />
</svg>