<svg xmlns="http://www.w3.org/2000/svg" width="768" height="768" viewBox="0 0 384 384">
<rect width="384" height="384" fill="#8f6458"/>
<polygon points="14.0,76.0 0.0,383.0 170.0,383.0 183.0,236.0 131.0,158.0 182.0,12.0 265.0,158.0 200.0,233.0 201.0,383.0 383.0,383.0 383.0,116.0 336.0,51.0 156.0,0.0" fill="#8f604f" />
<polygon points="14.0,76.0 0.0,383.0 170.0,383.0 183.0,236.0 131.0,158.0 182.0,12.0 265.0,158.0 200.0,233.0 201.0,383.0 383.0,383.0 383.0,115.0 328.0,45.0 155.0,0.0" fill="#8f604f" opacity="0.95" />
<polygon points="14.0,76.0 0.0,383.0 170.0,383.0 183.0,236.0 131.0,158.0 182.0,12.0 265.0,158.0 200.0,234.0 201.0,383.0 383.0,383.0 383.0,114.0 328.0,45.0 152.0,0.0" fill="#8f604f" opacity="0.95" />
<polygon points="234.0,0.0 318.0,36.0 383.0,115.0 383.0,0.0" fill="#69453c" />
<polygon points="219.0,104.0 198.0,105.0 195.0,196.0 170.0,166.0 134.0,155.0 141.0,191.0 172.0,215.0 221.0,216.0 260.0,181.0 253.0,129.0" fill="#6ecfd4" />
<polygon points="0.0,94.0 72.0,27.0 155.0,0.0 0.0,0.0" fill="#69453c" />
<polygon points="235.0,0.0 318.0,36.0 383.0,114.0 383.0,0.0" fill="#69453c" opacity="0.95" />
<polygon points="219.0,104.0 199.0,104.0 196.0,181.0 183.0,188.0 171.0,167.0 134.0,155.0 141.0,191.0 172.0,215.0 221.0,216.0 260.0,181.0 253.0,129.0" fill="#6ecfd4" opacity="0.95" />
<polygon points="152.0,32.0 139.0,57.0 154.0,95.0 192.0,105.0 216.0,92.0 228.0,65.0 222.0,52.0 201.0,70.0 200.0,48.0 179.0,33.0 158.0,45.0 190.0,22.0" fill="#f00a29" />
<polygon points="0.0,94.0 72.0,27.0 154.0,0.0 0.0,0.0" fill="#69453c" opacity="0.95" />
<polygon points="219.0,104.0 199.0,105.0 196.0,181.0 183.0,187.0 171.0,167.0 134.0,155.0 141.0,191.0 172.0,215.0 221.0,216.0 260.0,181.0 253.0,129.0" fill="#6ecfd4" opacity="0.95" />
<polygon points="236.0,0.0 318.0,36.0 383.0,113.0 383.0,0.0" fill="#69453c" opacity="0.95" />
<polygon points="0.0,94.0 72.0,27.0 151.0,0.0 0.0,0.0" fill="#69453c" opacity="0.95" />
<polygon points="186.0,229.0 184.0,383.0 197.0,383.0 192.0,237.0 199.0,231.0" fill="#050d3e" />
<polygon points="178.0,21.0 152.0,32.0 139.0,57.0 154.0,95.0 192.0,105.0 216.0,92.0 228.0,64.0 222.0,57.0 201.0,68.0 200.0,48.0 179.0,34.0 157.0,44.0" fill="#f00a29" opacity="0.95" />
<polygon points="170.0,23.0 142.0,44.0 145.0,82.0 166.0,102.0 192.0,105.0 216.0,92.0 228.0,65.0 202.0,68.0 195.0,43.0 165.0,35.0" fill="#f00a29" opacity="0.95" />
<polygon points="173.0,107.0 141.0,138.0 145.0,144.0 153.0,142.0 166.0,158.0 177.0,160.0 179.0,128.0 169.0,123.0 180.0,113.0" fill="#1e4948" />
<polygon points="187.0,229.0 184.0,383.0 197.0,383.0 192.0,237.0 197.0,230.0" fill="#050d3e" opacity="0.95" />
<polygon points="197.0,233.0 193.0,237.0 196.0,351.0" fill="#091964" />
<polygon points="188.0,229.0 184.0,383.0 197.0,383.0 195.0,231.0" fill="#050d3e" opacity="0.95" />
<polygon points="156.0,23.0 201.0,19.0 232.0,51.0 223.0,31.0 198.0,14.0 176.0,14.0" fill="#f87886" />
<polygon points="173.0,107.0 149.0,126.0 142.0,139.0 146.0,144.0 154.0,143.0 165.0,157.0 177.0,159.0 179.0,128.0 170.0,122.0 179.0,111.0" fill="#1e4948" opacity="0.95" />
<polygon points="175.0,28.0 198.0,33.0 190.0,38.0 202.0,47.0 204.0,64.0 214.0,57.0 215.0,42.0 207.0,32.0 190.0,25.0" fill="#f7a7c0" />
<polygon points="195.0,105.0 187.0,107.0 187.0,147.0 189.0,149.0 196.0,145.0 194.0,126.0" fill="#050d3e" />
<polygon points="181.0,334.0 171.0,352.0 171.0,383.0 176.0,383.0 179.0,370.0" fill="#69453c" />
<polygon points="134.0,182.0 133.0,191.0 137.0,201.0 158.0,222.0" fill="#69453c" />
<polygon points="173.0,107.0 149.0,126.0 142.0,139.0 153.0,143.0 165.0,157.0 176.0,159.0 181.0,141.0 179.0,128.0 171.0,123.0 179.0,114.0" fill="#1e4948" opacity="0.95" />
<polygon points="333.0,52.0 338.0,55.0 340.0,64.0 348.0,72.0 344.0,77.0 341.0,77.0 330.0,64.0 329.0,59.0" fill="#8f604f" />
<polygon points="195.0,147.0 191.0,150.0 187.0,150.0 188.0,170.0 190.0,177.0 193.0,175.0 196.0,168.0" fill="#091964" />
<polygon points="192.0,23.0 206.0,30.0 219.0,48.0 215.0,58.0 200.0,68.0 216.0,63.0 222.0,51.0 229.0,64.0 231.0,53.0 202.0,23.0" fill="#f84773" />
<polygon points="178.0,27.0 194.0,31.0 191.0,39.0 202.0,47.0 204.0,60.0 213.0,58.0 214.0,40.0 207.0,32.0 190.0,25.0" fill="#f7a7c0" opacity="0.95" />
<polygon points="161.0,20.0 201.0,19.0 231.0,49.0 223.0,31.0 208.0,18.0 182.0,13.0" fill="#f87886" opacity="0.95" />
<polygon points="174.0,119.0 170.0,124.0 180.0,128.0 177.0,161.0 166.0,159.0 153.0,143.0 141.0,139.0 139.0,145.0 171.0,160.0 177.0,173.0 184.0,170.0 185.0,141.0 184.0,127.0" fill="#23686f" />
<polygon points="156.0,209.0 162.0,216.0 186.0,226.0 202.0,227.0 216.0,220.0 204.0,224.0 177.0,220.0" fill="#23686f" />
<polygon points="194.0,106.0 187.0,107.0 187.0,148.0 189.0,149.0 196.0,145.0 194.0,126.0 196.0,107.0" fill="#050d3e" opacity="0.95" />
<polygon points="180.0,339.0 171.0,352.0 171.0,383.0 176.0,383.0 182.0,345.0" fill="#69453c" opacity="0.95" />
<polygon points="200.0,28.0 192.0,40.0 202.0,47.0 203.0,55.0 209.0,61.0 214.0,55.0 214.0,40.0" fill="#f7a7c0" opacity="0.95" />
<polygon points="166.0,24.0 152.0,26.0 140.0,43.0 152.0,31.0" fill="#f84773" />
<polygon points="237.0,211.0 231.0,213.0 212.0,228.0 217.0,228.0 228.0,222.0" fill="#3c313a" />
<polygon points="148.0,203.0 161.0,219.0 178.0,227.0 186.0,227.0 162.0,217.0" fill="#1e4948" />
<polygon points="135.0,150.0 142.0,154.0 149.0,152.0 162.0,166.0 173.0,165.0 171.0,161.0 164.0,162.0 156.0,156.0 150.0,147.0 144.0,150.0 138.0,146.0" fill="#3e8f95" />
<polygon points="333.0,54.0 331.0,57.0 332.0,65.0 341.0,75.0 344.0,75.0 345.0,72.0 339.0,65.0 337.0,56.0" fill="#f3e9e8" />
<polygon points="192.0,106.0 187.0,108.0 187.0,147.0 190.0,149.0 196.0,145.0 194.0,126.0 195.0,108.0" fill="#050d3e" opacity="0.95" />
<polygon points="194.0,148.0 187.0,151.0 189.0,175.0 191.0,176.0 193.0,175.0 196.0,168.0 196.0,149.0" fill="#091964" opacity="0.95" />
<polygon points="182.0,358.0 180.0,370.0 177.0,378.0 177.0,383.0 183.0,383.0 183.0,359.0" fill="#3c313a" />
<polygon points="176.0,32.0 169.0,30.0 157.0,41.0 158.0,44.0 166.0,37.0 168.0,38.0 171.0,34.0 173.0,35.0" fill="#f84773" />
<polygon points="196.0,234.0 193.0,237.0 193.0,275.0 195.0,276.0 197.0,275.0 198.0,235.0" fill="#091964" opacity="0.95" />
<polygon points="225.0,217.0 223.0,216.0 214.0,223.0 199.0,229.0 210.0,228.0" fill="#1e4948" />
<polygon points="229.0,67.0 227.0,74.0 220.0,80.0 221.0,85.0 217.0,91.0 218.0,92.0 224.0,86.0 228.0,78.0" fill="#f84773" />
<polygon points="178.0,343.0 173.0,348.0 170.0,358.0 170.0,377.0 173.0,379.0 177.0,377.0 181.0,358.0 181.0,345.0" fill="#69453c" opacity="0.95" />
<polygon points="181.0,171.0 179.0,173.0 179.0,179.0 184.0,189.0 185.0,188.0 184.0,187.0 184.0,173.0" fill="#1e4948" />
<polygon points="193.0,149.0 187.0,152.0 188.0,170.0 191.0,172.0 194.0,171.0 196.0,168.0 196.0,151.0" fill="#091964" opacity="0.95" />
<polygon points="136.0,148.0 142.0,154.0 151.0,153.0 153.0,159.0 163.0,166.0 172.0,164.0 170.0,161.0 162.0,161.0 150.0,148.0" fill="#3e8f95" opacity="0.95" />
<polygon points="184.0,114.0 177.0,118.0 175.0,121.0 184.0,126.0 185.0,122.0 181.0,118.0 185.0,115.0" fill="#3e8f95" />
<polygon points="179.0,221.0 179.0,223.0 186.0,226.0 203.0,226.0 203.0,224.0 196.0,221.0" fill="#23686f" opacity="0.95" />
<polygon points="169.0,17.0 172.0,21.0 179.0,19.0 197.0,20.0 200.0,18.0 199.0,15.0 193.0,13.0 182.0,13.0" fill="#f87886" opacity="0.95" />
<polygon points="215.0,27.0 214.0,31.0 223.0,45.0 227.0,48.0 229.0,47.0 229.0,41.0 223.0,31.0 219.0,27.0" fill="#f87886" opacity="0.95" />
<polygon points="334.0,54.0 331.0,57.0 331.0,63.0 335.0,69.0 343.0,75.0 345.0,74.0 345.0,72.0 339.0,65.0 337.0,56.0" fill="#f3e9e8" opacity="0.95" />
<polygon points="184.0,190.0 187.0,188.0 193.0,191.0 194.0,194.0 190.0,196.0 185.0,193.0" fill="#6ecfd4" opacity="0.95" />
<polygon points="184.0,154.0 183.0,155.0 183.0,158.0 181.0,161.0 181.0,165.0 184.0,169.0 185.0,168.0 185.0,155.0" fill="#3e8f95" />
<polygon points="153.0,214.0 161.0,222.0 171.0,227.0 176.0,227.0 161.0,220.0 154.0,213.0" fill="#3c313a" />
<polygon points="182.0,32.0 184.0,34.0 184.0,36.0 185.0,37.0 184.0,38.0 185.0,39.0 187.0,37.0 191.0,36.0 193.0,33.0 191.0,31.0 183.0,31.0" fill="#f84773" />
<polygon points="225.0,49.0 223.0,50.0 224.0,53.0 223.0,57.0 225.0,58.0 225.0,62.0 229.0,63.0 231.0,62.0 232.0,56.0 231.0,53.0" fill="#f84773" opacity="0.95" />
<polygon points="235.0,213.0 233.0,212.0 223.0,219.0 219.0,223.0 219.0,225.0 221.0,226.0 228.0,222.0 235.0,215.0" fill="#3c313a" opacity="0.95" />
<polygon points="202.0,22.0 212.0,29.0 213.0,28.0 207.0,23.0 203.0,21.0" fill="#f7a7c0" />
<polygon points="181.0,370.0 179.0,371.0 179.0,373.0 178.0,374.0 177.0,383.0 183.0,383.0 183.0,371.0" fill="#3c313a" opacity="0.95" />
<polygon points="175.0,160.0 173.0,161.0 173.0,164.0 176.0,171.0 178.0,172.0 182.0,170.0 182.0,168.0 180.0,165.0 180.0,161.0" fill="#23686f" opacity="0.95" />
<polygon points="227.0,50.0 224.0,52.0 224.0,57.0 225.0,61.0 228.0,63.0 231.0,61.0 232.0,56.0 231.0,53.0" fill="#f84773" opacity="0.95" />
<polygon points="334.0,55.0 331.0,57.0 331.0,63.0 335.0,69.0 339.0,72.0 342.0,70.0 342.0,68.0 338.0,63.0 337.0,57.0" fill="#f3e9e8" opacity="0.95" />
<polygon points="195.0,23.0 195.0,25.0 202.0,28.0 205.0,27.0 205.0,25.0 200.0,22.0" fill="#f84773" opacity="0.95" />
<polygon points="159.0,26.0 152.0,26.0 149.0,29.0 149.0,32.0 144.0,35.0 144.0,37.0 148.0,37.0 148.0,34.0 159.0,28.0" fill="#f84773" opacity="0.95" />
<polygon points="186.0,168.0 185.0,169.0 185.0,176.0 186.0,177.0 187.0,176.0 187.0,169.0" fill="#8796a2" />
<polygon points="184.0,129.0 182.0,131.0 182.0,134.0 183.0,135.0 183.0,136.0 184.0,137.0 185.0,137.0 186.0,136.0 186.0,132.0" fill="#3e8f95" />
<polygon points="181.0,171.0 179.0,172.0 179.0,179.0 180.0,181.0 182.0,182.0 184.0,181.0 184.0,173.0" fill="#1e4948" opacity="0.95" />
<polygon points="200.0,53.0 198.0,55.0 199.0,56.0 197.0,58.0 201.0,62.0 202.0,60.0 200.0,57.0 201.0,56.0 201.0,54.0" fill="#f84773" />
<polygon points="179.0,108.0 178.0,109.0 180.0,111.0 181.0,113.0 180.0,114.0 181.0,115.0 184.0,113.0 184.0,111.0 181.0,108.0" fill="#23686f" />
<polygon points="192.0,177.0 191.0,178.0 189.0,178.0 188.0,179.0 189.0,180.0 189.0,182.0 190.0,183.0 191.0,183.0 192.0,182.0 192.0,180.0 193.0,179.0 193.0,178.0" fill="#3e8f95" />
<polygon points="139.0,143.0 139.0,145.0 144.0,149.0 150.0,146.0 151.0,147.0 154.0,146.0 154.0,144.0 152.0,143.0 148.0,145.0 141.0,142.0" fill="#23686f" opacity="0.95" />
<polygon points="176.0,119.0 176.0,122.0 183.0,125.0 185.0,124.0 185.0,121.0 182.0,120.0 181.0,118.0 179.0,117.0" fill="#3e8f95" opacity="0.95" />
<polygon points="177.0,161.0 174.0,163.0 174.0,167.0 175.0,169.0 178.0,171.0 181.0,169.0 181.0,166.0 180.0,163.0" fill="#23686f" opacity="0.95" />
<polygon points="183.0,222.0 183.0,224.0 186.0,226.0 189.0,224.0 196.0,227.0 199.0,225.0 199.0,223.0 196.0,221.0 193.0,223.0 186.0,220.0" fill="#23686f" opacity="0.95" />
<polygon points="183.0,378.0 180.0,376.0 179.0,377.0 178.0,377.0 177.0,378.0 177.0,383.0 183.0,383.0" fill="#3c313a" opacity="0.95" />
<polygon points="183.0,160.0 182.0,161.0 181.0,161.0 181.0,165.0 182.0,165.0 183.0,166.0 184.0,165.0 185.0,165.0 185.0,161.0 184.0,161.0" fill="#3e8f95" opacity="0.95" />
<polygon points="155.0,152.0 155.0,154.0 157.0,155.0 159.0,155.0 160.0,156.0 162.0,155.0 162.0,153.0 160.0,152.0 158.0,152.0 157.0,151.0" fill="#23686f" opacity="0.95" />
</svg>