<svg xmlns="http://www.w3.org/2000/svg" width="768" height="768" viewBox="0 0 384 384">
<rect width="384" height="384" fill="#976655"/>
<polygon points="0.0,0.0 2.0,204.0 124.0,181.0 94.0,130.0 155.0,157.0 130.0,75.0 194.0,124.0 245.0,78.0 232.0,157.0 294.0,134.0 260.0,184.0 383.0,199.0 383.0,0.0" fill="#9d5544" />
<polygon points="128.0,175.0 0.0,209.0 0.0,383.0 141.0,379.0 130.0,342.0 173.0,291.0 139.0,275.0 158.0,270.0 136.0,225.0 154.0,227.0" fill="#c4785f" />
<polygon points="260.0,172.0 231.0,268.0 246.0,275.0 215.0,291.0 255.0,342.0 248.0,379.0 383.0,383.0 383.0,200.0 335.0,182.0 265.0,188.0" fill="#c4785f" />
<polygon points="0.0,0.0 1.0,201.0 124.0,181.0 95.0,130.0 153.0,155.0 130.0,76.0 194.0,122.0 244.0,78.0 235.0,152.0 294.0,134.0 260.0,184.0 383.0,199.0 383.0,0.0" fill="#9d5544" opacity="0.95" />
<polygon points="0.0,0.0 0.0,198.0 124.0,181.0 91.0,133.0 153.0,153.0 134.0,76.0 193.0,121.0 244.0,78.0 236.0,149.0 294.0,134.0 260.0,184.0 383.0,199.0 383.0,0.0" fill="#9d5544" opacity="0.95" />
<polygon points="253.0,185.0 232.0,266.0 246.0,275.0 216.0,290.0 254.0,340.0 249.0,380.0 383.0,383.0 383.0,200.0 335.0,182.0" fill="#c4785f" opacity="0.95" />
<polygon points="130.0,180.0 0.0,207.0 0.0,383.0 140.0,380.0 131.0,340.0 172.0,290.0 139.0,275.0 156.0,267.0 136.0,225.0 153.0,224.0" fill="#c4785f" opacity="0.95" />
<polygon points="254.0,185.0 233.0,264.0 246.0,275.0 216.0,290.0 254.0,340.0 250.0,380.0 383.0,383.0 383.0,200.0 335.0,182.0" fill="#c4785f" opacity="0.95" />
<polygon points="240.0,270.0 176.0,287.0 131.0,342.0 144.0,351.0 129.0,369.0 137.0,383.0 252.0,383.0 259.0,370.0 241.0,351.0 254.0,342.0 214.0,291.0" fill="#19312d" />
<polygon points="128.0,182.0 42.0,186.0 0.0,207.0 0.0,383.0 140.0,380.0 131.0,340.0 171.0,290.0 139.0,275.0 155.0,265.0 136.0,225.0 152.0,221.0" fill="#c4785f" opacity="0.95" />
<polygon points="247.0,88.0 202.0,164.0 163.0,132.0 183.0,187.0 157.0,195.0 194.0,241.0 147.0,206.0 192.0,269.0 254.0,181.0 217.0,193.0" fill="#6cdbd5" />
<polygon points="240.0,271.0 182.0,284.0 132.0,341.0 143.0,351.0 130.0,367.0 138.0,383.0 251.0,383.0 258.0,369.0 242.0,351.0 253.0,341.0 215.0,292.0" fill="#19312d" opacity="0.95" />
<polygon points="92.0,138.0 179.0,182.0 140.0,91.0 194.0,146.0 248.0,83.0 194.0,125.0 130.0,76.0 158.0,162.0" fill="#0b161b" />
<polygon points="239.0,271.0 176.0,287.0 132.0,341.0 139.0,383.0 251.0,383.0 258.0,369.0 243.0,351.0 253.0,341.0 215.0,292.0" fill="#19312d" opacity="0.95" />
<polygon points="246.0,89.0 204.0,161.0 164.0,131.0 183.0,187.0 157.0,195.0 194.0,241.0 148.0,209.0 192.0,268.0 254.0,181.0 219.0,188.0" fill="#6cdbd5" opacity="0.95" />
<polygon points="245.0,90.0 204.0,160.0 164.0,131.0 183.0,186.0 157.0,195.0 194.0,241.0 148.0,209.0 192.0,267.0 254.0,181.0 220.0,183.0" fill="#6cdbd5" opacity="0.95" />
<polygon points="92.0,138.0 178.0,181.0 141.0,92.0 194.0,144.0 247.0,81.0 194.0,123.0 130.0,77.0 156.0,157.0" fill="#0b161b" opacity="0.95" />
<polygon points="239.0,92.0 204.0,129.0 195.0,147.0 201.0,163.0" fill="#b3e7e4" />
<polygon points="137.0,226.0 192.0,283.0 247.0,236.0 244.0,228.0 192.0,271.0 155.0,232.0" fill="#0b161b" />
<polygon points="92.0,137.0 175.0,175.0 142.0,94.0 194.0,143.0 247.0,81.0 193.0,122.0 130.0,77.0 155.0,154.0" fill="#0b161b" opacity="0.95" />
<polygon points="102.0,142.0 132.0,179.0 155.0,193.0 159.0,190.0 159.0,182.0 134.0,156.0 119.0,146.0" fill="#b3e7e4" />
<polygon points="292.0,132.0 264.0,136.0 230.0,162.0 219.0,191.0 255.0,151.0 292.0,139.0" fill="#0b161b" />
<polygon points="142.0,92.0 163.0,131.0 182.0,126.0 158.0,100.0" fill="#b3e7e4" />
<polygon points="133.0,180.0 130.0,186.0 151.0,202.0 190.0,244.0 192.0,237.0 177.0,216.0" fill="#0b161b" />
<polygon points="283.0,142.0 275.0,142.0 260.0,149.0 236.0,174.0 256.0,176.0" fill="#b3e7e4" />
<polygon points="152.0,242.0 154.0,260.0 162.0,274.0 175.0,286.0 187.0,283.0 179.0,270.0" fill="#6cdbd5" />
<polygon points="137.0,226.0 192.0,283.0 247.0,237.0 246.0,229.0 192.0,269.0 155.0,232.0" fill="#0b161b" opacity="0.95" />
<polygon points="246.0,205.0 205.0,229.0 203.0,237.0 211.0,237.0 247.0,212.0" fill="#0b161b" />
<polygon points="234.0,248.0 223.0,253.0 198.0,274.0 197.0,281.0 207.0,283.0 228.0,271.0 233.0,262.0" fill="#6cdbd5" />
<polygon points="238.0,96.0 207.0,124.0 195.0,147.0 199.0,160.0 204.0,160.0" fill="#b3e7e4" opacity="0.95" />
<polygon points="137.0,226.0 192.0,283.0 247.0,236.0 238.0,231.0 192.0,269.0 155.0,232.0" fill="#0b161b" opacity="0.95" />
<polygon points="105.0,143.0 131.0,178.0 155.0,193.0 159.0,190.0 159.0,182.0 134.0,156.0" fill="#b3e7e4" opacity="0.95" />
<polygon points="281.0,142.0 260.0,149.0 236.0,174.0 257.0,175.0" fill="#b3e7e4" opacity="0.95" />
<polygon points="292.0,132.0 270.0,134.0 248.0,145.0 230.0,162.0 221.0,186.0 255.0,151.0 293.0,138.0" fill="#0b161b" opacity="0.95" />
<polygon points="143.0,93.0 162.0,129.0 180.0,125.0 158.0,100.0" fill="#b3e7e4" opacity="0.95" />
<polygon points="237.0,96.0 204.0,129.0 195.0,147.0 200.0,159.0 224.0,126.0" fill="#b3e7e4" opacity="0.95" />
<polygon points="107.0,145.0 132.0,178.0 155.0,193.0 159.0,190.0 159.0,182.0 134.0,156.0 114.0,144.0" fill="#b3e7e4" opacity="0.95" />
<polygon points="233.0,249.0 223.0,253.0 199.0,274.0 198.0,281.0 206.0,283.0 228.0,271.0 233.0,262.0" fill="#6cdbd5" opacity="0.95" />
<polygon points="152.0,246.0 155.0,263.0 162.0,274.0 176.0,286.0 186.0,282.0 173.0,263.0 156.0,246.0" fill="#6cdbd5" opacity="0.95" />
<polygon points="153.0,247.0 154.0,260.0 162.0,274.0 176.0,286.0 184.0,282.0 185.0,278.0 157.0,247.0" fill="#6cdbd5" opacity="0.95" />
<polygon points="233.0,251.0 230.0,249.0 219.0,256.0 198.0,275.0 198.0,280.0 206.0,283.0 228.0,271.0 233.0,262.0" fill="#6cdbd5" opacity="0.95" />
<polygon points="159.0,181.0 162.0,184.0 165.0,182.0 179.0,186.0 182.0,185.0 178.0,183.0 174.0,176.0 167.0,171.0" fill="#19312d" />
<polygon points="215.0,363.0 219.0,368.0 209.0,374.0 207.0,372.0 215.0,367.0 213.0,365.0" fill="#19312d" />
<polygon points="159.0,368.0 162.0,362.0 166.0,365.0 171.0,362.0 173.0,364.0 171.0,368.0 169.0,367.0 161.0,370.0" fill="#19312d" />
<polygon points="160.0,180.0 160.0,182.0 162.0,183.0 165.0,182.0 175.0,185.0 177.0,184.0 174.0,176.0 169.0,172.0 165.0,173.0" fill="#19312d" opacity="0.95" />
<polygon points="198.0,353.0 196.0,355.0 193.0,352.0 188.0,356.0 186.0,354.0 191.0,349.0 193.0,350.0 195.0,348.0 197.0,350.0 196.0,351.0" fill="#19312d" />
<polygon points="172.0,334.0 170.0,336.0 171.0,337.0 169.0,339.0 166.0,338.0 163.0,340.0 161.0,338.0 163.0,336.0 162.0,335.0 164.0,333.0 165.0,334.0 168.0,334.0 170.0,332.0" fill="#19312d" />
<polygon points="165.0,173.0 162.0,177.0 162.0,180.0 166.0,183.0 171.0,184.0 175.0,182.0 174.0,176.0 169.0,172.0" fill="#19312d" opacity="0.95" />
</svg>