<svg xmlns="http://www.w3.org/2000/svg" width="768" height="768" viewBox="0 0 384 384">
<rect width="384" height="384" fill="#8d6352"/>
<polygon points="256.0,0.0 255.0,132.0 264.0,160.0 254.0,190.0 383.0,191.0 383.0,0.0" fill="#5b352d" />
<polygon points="0.0,0.0 2.0,127.0 130.0,126.0 130.0,0.0" fill="#5b352d" />
<polygon points="133.0,0.0 133.0,124.0 254.0,127.0 255.0,0.0" fill="#a05b48" />
<polygon points="256.0,0.0 263.0,161.0 254.0,190.0 383.0,191.0 383.0,0.0" fill="#5b352d" opacity="0.95" />
<polygon points="2.0,258.0 3.0,319.0 130.0,318.0 129.0,257.0" fill="#a05b48" />
<polygon points="131.0,258.0 132.0,319.0 254.0,318.0 253.0,257.0" fill="#bf846c" />
<polygon points="255.0,258.0 257.0,319.0 383.0,319.0 383.0,257.0" fill="#5b352d" />
<polygon points="0.0,324.0 0.0,383.0 130.0,383.0 129.0,322.0" fill="#bf846c" />
<polygon points="256.0,196.0 257.0,255.0 383.0,255.0 383.0,198.0" fill="#bf846c" />
<polygon points="0.0,0.0 1.0,126.0 130.0,126.0 130.0,0.0" fill="#5b352d" opacity="0.95" />
<polygon points="131.0,323.0 131.0,383.0 254.0,383.0 253.0,322.0" fill="#5b352d" />
<polygon points="133.0,0.0 133.0,124.0 255.0,126.0 255.0,0.0" fill="#a05b48" opacity="0.95" />
<polygon points="0.0,132.0 2.0,191.0 129.0,190.0 121.0,161.0 127.0,130.0" fill="#a05b48" />
<polygon points="256.0,325.0 259.0,383.0 383.0,383.0 383.0,322.0" fill="#bf846c" />
<polygon points="256.0,0.0 263.0,161.0 254.0,189.0 383.0,191.0 383.0,0.0" fill="#5b352d" opacity="0.95" />
<polygon points="3.0,197.0 5.0,251.0 11.0,243.0 19.0,254.0 130.0,254.0 129.0,194.0" fill="#bf846c" />
<polygon points="125.0,163.0 141.0,202.0 183.0,228.0 229.0,215.0 257.0,169.0 256.0,162.0" fill="#76fbf8" />
<polygon points="0.0,0.0 0.0,125.0 130.0,125.0 130.0,0.0" fill="#5b352d" opacity="0.95" />
<polygon points="133.0,0.0 133.0,123.0 254.0,126.0 255.0,0.0" fill="#a05b48" opacity="0.95" />
<polygon points="4.0,196.0 7.0,251.0 130.0,256.0 133.0,319.0 254.0,318.0 254.0,258.0 131.0,256.0 128.0,194.0" fill="#bf846c" opacity="0.95" />
<polygon points="0.0,259.0 4.0,319.0 130.0,318.0 128.0,257.0" fill="#a05b48" opacity="0.95" />
<polygon points="256.0,196.0 258.0,255.0 383.0,255.0 383.0,198.0" fill="#bf846c" opacity="0.95" />
<polygon points="0.0,324.0 0.0,383.0 130.0,383.0 128.0,322.0" fill="#bf846c" opacity="0.95" />
<polygon points="1.0,202.0 20.0,254.0 129.0,256.0 132.0,319.0 253.0,318.0 258.0,254.0 383.0,255.0 372.0,195.0 258.0,195.0 252.0,258.0 132.0,256.0 127.0,194.0" fill="#bf846c" opacity="0.95" />
<polygon points="131.0,323.0 131.0,383.0 254.0,383.0 252.0,322.0" fill="#5b352d" opacity="0.95" />
<polygon points="0.0,132.0 3.0,191.0 129.0,190.0 121.0,161.0 125.0,130.0" fill="#a05b48" opacity="0.95" />
<polygon points="131.0,197.0 133.0,255.0 254.0,256.0 258.0,319.0 383.0,319.0 383.0,257.0 257.0,257.0 252.0,200.0 192.0,233.0" fill="#5b352d" opacity="0.95" />
<polygon points="257.0,323.0 259.0,383.0 383.0,383.0 383.0,322.0" fill="#bf846c" opacity="0.95" />
<polygon points="125.0,163.0 141.0,202.0 183.0,228.0 229.0,215.0 257.0,169.0 255.0,162.0" fill="#76fbf8" opacity="0.95" />
<polygon points="0.0,260.0 0.0,316.0 5.0,319.0 130.0,317.0 127.0,257.0" fill="#a05b48" opacity="0.95" />
<polygon points="0.0,132.0 4.0,191.0 129.0,189.0 122.0,162.0 124.0,130.0" fill="#a05b48" opacity="0.95" />
<polygon points="130.0,138.0 130.0,158.0 197.0,157.0 195.0,129.0 136.0,129.0" fill="#4f0501" />
<polygon points="126.0,164.0 141.0,202.0 183.0,228.0 229.0,215.0 257.0,169.0 254.0,162.0" fill="#76fbf8" opacity="0.95" />
<polygon points="200.0,129.0 201.0,158.0 254.0,157.0 254.0,142.0 247.0,128.0" fill="#ea9d34" />
<polygon points="130.0,138.0 131.0,158.0 196.0,157.0 194.0,129.0 137.0,129.0" fill="#4f0501" opacity="0.95" />
<polygon points="200.0,129.0 200.0,157.0 254.0,157.0 254.0,142.0 248.0,129.0" fill="#ea9d34" opacity="0.95" />
<polygon points="130.0,138.0 129.0,156.0 132.0,158.0 196.0,156.0 196.0,131.0 193.0,129.0 137.0,129.0" fill="#4f0501" opacity="0.95" />
<polygon points="200.0,130.0 200.0,156.0 203.0,158.0 254.0,156.0 253.0,138.0 246.0,128.0" fill="#ea9d34" opacity="0.95" />
<polygon points="253.0,189.0 230.0,216.0 191.0,231.0 212.0,229.0 231.0,220.0 246.0,206.0" fill="#130808" />
<polygon points="2.0,211.0 0.0,213.0 0.0,253.0 12.0,255.0 15.0,252.0 11.0,244.0 8.0,252.0 3.0,250.0" fill="#d7b9a8" />
<polygon points="253.0,193.0 249.0,193.0 230.0,216.0 213.0,227.0 235.0,217.0" fill="#130808" opacity="0.95" />
<polygon points="249.0,127.0 248.0,128.0 253.0,134.0 256.0,148.0 257.0,142.0 253.0,130.0" fill="#f4e7da" />
<polygon points="134.0,127.0 129.0,132.0 128.0,135.0 129.0,136.0 127.0,138.0 128.0,140.0 126.0,142.0 127.0,145.0 128.0,144.0 127.0,141.0 129.0,139.0 128.0,137.0 135.0,128.0" fill="#f4e7da" />
<polygon points="14.0,250.0 12.0,249.0 7.0,253.0 3.0,251.0 0.0,253.0 3.0,255.0 6.0,253.0 11.0,255.0 14.0,253.0" fill="#d7b9a8" opacity="0.95" />
<polygon points="257.0,372.0 256.0,373.0 256.0,376.0 257.0,377.0 256.0,378.0 256.0,383.0 258.0,383.0 258.0,378.0 257.0,377.0 259.0,375.0" fill="#d7b9a8" />
</svg>