<svg xmlns="http://www.w3.org/2000/svg" width="768" height="768" viewBox="0 0 384 384">
<rect width="384" height="384" fill="#91675b"/>
<polygon points="0.0,0.0 2.0,126.0 129.0,125.0 130.0,0.0" fill="#673d38" />
<polygon points="131.0,0.0 131.0,126.0 254.0,127.0 254.0,0.0" fill="#af705f" />
<polygon points="0.0,191.0 0.0,256.0 129.0,254.0 128.0,192.0" fill="#ca9f8f" />
<polygon points="2.0,257.0 3.0,319.0 129.0,318.0 128.0,256.0" fill="#9c4f4d" />
<polygon points="130.0,257.0 131.0,319.0 254.0,318.0 253.0,256.0" fill="#af705f" />
<polygon points="256.0,193.0 256.0,255.0 383.0,255.0 383.0,192.0" fill="#af705f" />
<polygon points="255.0,257.0 257.0,319.0 383.0,319.0 383.0,256.0" fill="#673d38" />
<polygon points="0.0,319.0 0.0,383.0 129.0,383.0 127.0,320.0" fill="#ca9f8f" />
<polygon points="130.0,321.0 130.0,383.0 254.0,383.0 253.0,320.0" fill="#673d38" />
<polygon points="0.0,0.0 1.0,125.0 129.0,125.0 130.0,0.0" fill="#673d38" opacity="0.95" />
<polygon points="256.0,321.0 256.0,383.0 383.0,383.0 383.0,320.0" fill="#ca9f8f" />
<polygon points="131.0,0.0 131.0,126.0 254.0,126.0 254.0,0.0" fill="#af705f" opacity="0.95" />
<polygon points="123.0,161.0 141.0,202.0 185.0,229.0 229.0,215.0 249.0,192.0 259.0,162.0" fill="#91f1f5" />
<polygon points="0.0,131.0 2.0,191.0 129.0,190.0 119.0,163.0 130.0,156.0 128.0,129.0" fill="#af705f" />
<polygon points="255.0,0.0 257.0,127.0 383.0,125.0 383.0,65.0 259.0,65.0 258.0,41.0 276.0,5.0" fill="#9c4f4d" />
<polygon points="0.0,0.0 0.0,124.0 129.0,124.0 130.0,0.0" fill="#673d38" opacity="0.95" />
<polygon points="254.0,0.0 131.0,0.0 131.0,127.0 4.0,129.0 0.0,189.0 124.0,191.0 131.0,127.0 253.0,126.0" fill="#af705f" opacity="0.95" />
<polygon points="263.0,0.0 277.0,6.0 259.0,41.0 260.0,62.0 328.0,62.0 334.0,53.0 343.0,62.0 383.0,62.0 383.0,0.0" fill="#673d38" />
<polygon points="130.0,129.0 132.0,157.0 255.0,156.0 254.0,128.0" fill="#6c521d" />
<polygon points="383.0,126.0 257.0,128.0 248.0,196.0 193.0,232.0 150.0,213.0 120.0,162.0 149.0,217.0 201.0,232.0 255.0,189.0 383.0,191.0" fill="#673d38" />
<polygon points="0.0,191.0 0.0,256.0 129.0,254.0 127.0,192.0" fill="#ca9f8f" opacity="0.95" />
<polygon points="0.0,258.0 4.0,319.0 129.0,318.0 129.0,256.0" fill="#9c4f4d" opacity="0.95" />
<polygon points="130.0,257.0 132.0,319.0 254.0,318.0 254.0,256.0" fill="#af705f" opacity="0.95" />
<polygon points="256.0,193.0 256.0,255.0 383.0,255.0 383.0,192.0" fill="#af705f" opacity="0.95" />
<polygon points="255.0,257.0 256.0,319.0 383.0,319.0 383.0,256.0" fill="#673d38" opacity="0.95" />
<polygon points="383.0,65.0 257.0,65.0 255.0,124.0 383.0,125.0" fill="#9c4f4d" opacity="0.95" />
<polygon points="0.0,319.0 0.0,383.0 129.0,383.0 126.0,320.0" fill="#ca9f8f" opacity="0.95" />
<polygon points="256.0,321.0 256.0,383.0 383.0,383.0 383.0,320.0" fill="#ca9f8f" opacity="0.95" />
<polygon points="255.0,192.0 224.0,224.0 192.0,234.0 153.0,221.0 132.0,196.0 131.0,254.0 253.0,255.0" fill="#9c4f4d" />
<polygon points="383.0,192.0 259.0,192.0 254.0,256.0 133.0,256.0 130.0,317.0 251.0,319.0 258.0,254.0 383.0,255.0" fill="#af705f" opacity="0.95" />
<polygon points="124.0,160.0 141.0,202.0 185.0,229.0 229.0,215.0 249.0,192.0 259.0,162.0" fill="#91f1f5" opacity="0.95" />
<polygon points="0.0,131.0 3.0,191.0 128.0,190.0 119.0,163.0 129.0,157.0 127.0,129.0" fill="#af705f" opacity="0.95" />
<polygon points="383.0,256.0 256.0,257.0 256.0,318.0 131.0,321.0 130.0,383.0 254.0,383.0 258.0,318.0 383.0,319.0" fill="#673d38" opacity="0.95" />
<polygon points="383.0,126.0 258.0,128.0 256.0,157.0 262.0,162.0 253.0,188.0 383.0,191.0" fill="#673d38" opacity="0.95" />
<polygon points="0.0,191.0 0.0,256.0 129.0,253.0 126.0,192.0" fill="#ca9f8f" opacity="0.95" />
<polygon points="383.0,65.0 258.0,65.0 255.0,124.0 383.0,125.0" fill="#9c4f4d" opacity="0.95" />
<polygon points="0.0,319.0 0.0,383.0 129.0,383.0 125.0,320.0" fill="#ca9f8f" opacity="0.95" />
<polygon points="256.0,322.0 256.0,383.0 383.0,383.0 383.0,320.0" fill="#ca9f8f" opacity="0.95" />
<polygon points="255.0,199.0 192.0,234.0 133.0,200.0 127.0,257.0 5.0,256.0 0.0,316.0 126.0,319.0 131.0,255.0 252.0,255.0" fill="#9c4f4d" opacity="0.95" />
<polygon points="124.0,161.0 141.0,202.0 185.0,229.0 229.0,215.0 258.0,168.0 255.0,159.0" fill="#91f1f5" opacity="0.95" />
<polygon points="130.0,129.0 133.0,157.0 255.0,156.0 253.0,128.0" fill="#6c521d" opacity="0.95" />
<polygon points="255.0,196.0 224.0,224.0 192.0,234.0 153.0,221.0 132.0,198.0 131.0,255.0 252.0,255.0" fill="#9c4f4d" opacity="0.95" />
<polygon points="130.0,130.0 134.0,157.0 255.0,155.0 252.0,128.0" fill="#6c521d" opacity="0.95" />
<polygon points="262.0,0.0 255.0,0.0 257.0,41.0 262.0,27.0 268.0,24.0 266.0,17.0 273.0,13.0 275.0,7.0 273.0,4.0 264.0,4.0" fill="#9c4f4d" opacity="0.95" />
<polygon points="6.0,323.0 10.0,326.0 8.0,328.0 13.0,342.0 11.0,346.0 5.0,350.0 3.0,348.0 2.0,332.0 3.0,325.0" fill="#ca9f8f" />
<polygon points="201.0,134.0 203.0,136.0 203.0,146.0 201.0,151.0 197.0,154.0 194.0,151.0 194.0,149.0 196.0,146.0 197.0,136.0 199.0,134.0" fill="#6c521d" />
<polygon points="262.0,0.0 255.0,0.0 255.0,35.0 258.0,37.0 262.0,33.0 266.0,18.0 274.0,11.0 273.0,6.0 265.0,4.0" fill="#9c4f4d" opacity="0.95" />
<polygon points="200.0,134.0 203.0,136.0 203.0,146.0 201.0,151.0 197.0,154.0 194.0,152.0 194.0,149.0 196.0,146.0 197.0,136.0" fill="#6c521d" opacity="0.95" />
<polygon points="333.0,55.0 331.0,57.0 331.0,62.0 333.0,64.0 337.0,64.0 340.0,61.0 340.0,57.0 338.0,55.0" fill="#fbfbfa" />
<polygon points="201.0,135.0 198.0,136.0 198.0,143.0 195.0,150.0 196.0,152.0 198.0,152.0 201.0,148.0 202.0,144.0 202.0,136.0" fill="#fbfbfa" />
<polygon points="200.0,135.0 198.0,136.0 198.0,143.0 196.0,148.0 196.0,150.0 198.0,151.0 200.0,150.0 202.0,144.0 202.0,136.0" fill="#fbfbfa" opacity="0.95" />
<polygon points="334.0,55.0 331.0,57.0 331.0,62.0 334.0,64.0 337.0,64.0 339.0,63.0 340.0,61.0 340.0,57.0 337.0,55.0" fill="#fbfbfa" opacity="0.95" />
<polygon points="334.0,55.0 331.0,57.0 331.0,62.0 334.0,64.0 336.0,64.0 340.0,61.0 340.0,57.0 337.0,55.0" fill="#fbfbfa" opacity="0.95" />
</svg>