<svg xmlns="http://www.w3.org/2000/svg" width="768" height="768" viewBox="0 0 384 384">
<rect width="384" height="384" fill="#8e695e"/>
<polygon points="132.0,0.0 132.0,125.0 252.0,126.0 254.0,0.0" fill="#ab7363" />
<polygon points="0.0,191.0 2.0,258.0 126.0,257.0 122.0,320.0 3.0,319.0 0.0,383.0 130.0,383.0 132.0,319.0 255.0,318.0 253.0,256.0 130.0,254.0 129.0,191.0" fill="#ab7363" />
<polygon points="255.0,0.0 255.0,128.0 383.0,126.0 383.0,64.0 331.0,64.0 338.0,47.0 302.0,0.0" fill="#8f574d" />
<polygon points="256.0,193.0 257.0,255.0 383.0,255.0 383.0,192.0" fill="#ab7363" />
<polygon points="255.0,258.0 257.0,319.0 383.0,319.0 383.0,256.0" fill="#624a43" />
<polygon points="131.0,321.0 131.0,383.0 255.0,383.0 254.0,320.0" fill="#624a43" />
<polygon points="3.0,259.0 3.0,318.0 128.0,317.0 126.0,258.0" fill="#8f574d" />
<polygon points="4.0,0.0 24.0,24.0 5.0,24.0 4.0,63.0 104.0,69.0 22.0,84.0 2.0,124.0 127.0,126.0 129.0,0.0" fill="#624a43" />
<polygon points="256.0,321.0 256.0,383.0 383.0,383.0 383.0,320.0" fill="#af978b" />
<polygon points="132.0,0.0 132.0,125.0 253.0,125.0 254.0,0.0" fill="#ab7363" opacity="0.95" />
<polygon points="256.0,129.0 256.0,150.0 273.0,154.0 256.0,172.0 257.0,191.0 383.0,191.0 383.0,127.0" fill="#624a43" />
<polygon points="132.0,0.0 131.0,123.0 253.0,125.0 254.0,0.0" fill="#ab7363" opacity="0.95" />
<polygon points="116.0,155.0 136.0,198.0 186.0,230.0 243.0,203.0 271.0,157.0 256.0,153.0 228.0,178.0 194.0,150.0 155.0,177.0" fill="#62eef4" />
<polygon points="383.0,256.0 256.0,257.0 255.0,319.0 131.0,321.0 131.0,383.0 255.0,383.0 258.0,319.0 383.0,319.0" fill="#624a43" opacity="0.95" />
<polygon points="255.0,0.0 255.0,126.0 383.0,126.0 383.0,64.0 333.0,64.0 337.0,46.0 303.0,0.0" fill="#8f574d" opacity="0.95" />
<polygon points="256.0,193.0 256.0,255.0 383.0,255.0 383.0,192.0" fill="#ab7363" opacity="0.95" />
<polygon points="4.0,0.0 23.0,25.0 5.0,24.0 1.0,61.0 103.0,70.0 13.0,82.0 0.0,117.0 128.0,125.0 129.0,0.0" fill="#624a43" opacity="0.95" />
<polygon points="4.0,259.0 4.0,318.0 128.0,317.0 125.0,258.0" fill="#8f574d" opacity="0.95" />
<polygon points="256.0,321.0 256.0,383.0 383.0,383.0 383.0,320.0" fill="#af978b" opacity="0.95" />
<polygon points="303.0,0.0 321.0,29.0 360.0,63.0 383.0,63.0 383.0,0.0" fill="#6d3936" />
<polygon points="0.0,191.0 1.0,257.0 125.0,257.0 129.0,301.0 1.0,320.0 0.0,383.0 130.0,383.0 130.0,321.0 178.0,318.0 141.0,310.0 151.0,261.0 175.0,293.0 228.0,269.0 233.0,303.0 191.0,318.0 255.0,318.0 254.0,256.0 131.0,255.0 128.0,191.0" fill="#ab7363" opacity="0.95" />
<polygon points="131.0,125.0 44.0,127.0 90.0,135.0 56.0,145.0 31.0,172.0 6.0,153.0 2.0,187.0 129.0,190.0 108.0,154.0 130.0,151.0" fill="#8f574d" />
<polygon points="383.0,256.0 256.0,257.0 254.0,319.0 131.0,322.0 131.0,383.0 255.0,383.0 257.0,320.0 383.0,319.0" fill="#624a43" opacity="0.95" />
<polygon points="0.0,383.0 130.0,383.0 150.0,261.0 177.0,293.0 226.0,268.0 209.0,317.0 252.0,319.0 258.0,254.0 383.0,255.0 383.0,192.0 259.0,192.0 254.0,256.0 154.0,259.0 127.0,191.0 4.0,189.0 0.0,254.0 124.0,257.0 129.0,316.0 0.0,321.0" fill="#ab7363" opacity="0.95" />
<polygon points="4.0,0.0 1.0,61.0 98.0,71.0 23.0,84.0 1.0,115.0 128.0,118.0 129.0,0.0" fill="#624a43" opacity="0.95" />
<polygon points="255.0,0.0 256.0,126.0 383.0,126.0 383.0,64.0 335.0,64.0 337.0,46.0 303.0,0.0" fill="#8f574d" opacity="0.95" />
<polygon points="256.0,129.0 256.0,150.0 273.0,154.0 256.0,172.0 258.0,191.0 383.0,191.0 383.0,127.0" fill="#624a43" opacity="0.95" />
<polygon points="131.0,129.0 131.0,152.0 154.0,176.0 164.0,160.0 185.0,151.0 190.0,136.0 228.0,176.0 254.0,152.0 253.0,128.0" fill="#8e3f36" />
<polygon points="256.0,322.0 256.0,383.0 383.0,383.0 383.0,320.0" fill="#af978b" opacity="0.95" />
<polygon points="0.0,269.0 0.0,315.0 128.0,316.0 124.0,258.0 7.0,258.0" fill="#8f574d" opacity="0.95" />
<polygon points="254.0,191.0 226.0,212.0 228.0,234.0 214.0,225.0 196.0,232.0 207.0,236.0 177.0,242.0 191.0,235.0 132.0,195.0 131.0,252.0 253.0,254.0" fill="#8e3f36" />
<polygon points="116.0,155.0 136.0,198.0 186.0,230.0 243.0,203.0 271.0,157.0 256.0,153.0 229.0,178.0 193.0,150.0 154.0,177.0" fill="#62eef4" opacity="0.95" />
<polygon points="256.0,129.0 256.0,149.0 273.0,155.0 256.0,172.0 258.0,191.0 383.0,191.0 383.0,127.0" fill="#624a43" opacity="0.95" />
<polygon points="147.0,264.0 173.0,269.0 172.0,295.0 215.0,264.0 235.0,298.0 207.0,316.0 159.0,316.0 167.0,298.0 144.0,297.0 164.0,284.0" fill="#ab7363" />
<polygon points="116.0,155.0 136.0,198.0 186.0,230.0 243.0,203.0 267.0,158.0 252.0,155.0 230.0,178.0 193.0,150.0 154.0,175.0" fill="#62eef4" opacity="0.95" />
<polygon points="0.0,170.0 6.0,152.0 13.0,166.0 31.0,171.0 54.0,144.0 91.0,132.0 2.0,128.0" fill="#ab7363" />
<polygon points="130.0,127.0 79.0,126.0 31.0,172.0 6.0,156.0 0.0,186.0 127.0,190.0 124.0,167.0 108.0,154.0 130.0,150.0 122.0,134.0" fill="#8f574d" opacity="0.95" />
<polygon points="148.0,264.0 165.0,277.0 145.0,297.0 168.0,298.0 161.0,315.0 207.0,315.0 233.0,300.0 215.0,265.0 173.0,297.0 172.0,269.0" fill="#af978b" />
<polygon points="304.0,0.0 317.0,24.0 346.0,53.0 361.0,63.0 383.0,63.0 383.0,0.0" fill="#6d3936" opacity="0.95" />
<polygon points="131.0,129.0 131.0,152.0 154.0,174.0 185.0,151.0 190.0,136.0 229.0,176.0 254.0,152.0 252.0,128.0" fill="#8e3f36" opacity="0.95" />
<polygon points="254.0,195.0 226.0,212.0 229.0,233.0 198.0,231.0 207.0,236.0 200.0,243.0 176.0,241.0 189.0,232.0 133.0,197.0 131.0,252.0 252.0,254.0" fill="#8e3f36" opacity="0.95" />
<polygon points="130.0,140.0 101.0,126.0 43.0,154.0 34.0,171.0 7.0,158.0 0.0,186.0 126.0,190.0 126.0,171.0 108.0,154.0 129.0,150.0" fill="#8f574d" opacity="0.95" />
<polygon points="304.0,0.0 317.0,24.0 346.0,53.0 361.0,63.0 383.0,63.0 383.0,0.0" fill="#6d3936" opacity="0.95" />
<polygon points="0.0,109.0 4.0,94.0 15.0,90.0 11.0,81.0 50.0,85.0 78.0,75.0 85.0,80.0 103.0,68.0 17.0,70.0 2.0,63.0" fill="#8f574d" />
<polygon points="131.0,130.0 131.0,152.0 153.0,172.0 184.0,151.0 190.0,136.0 230.0,176.0 254.0,152.0 251.0,128.0" fill="#8e3f36" opacity="0.95" />
<polygon points="254.0,199.0 226.0,212.0 229.0,233.0 210.0,227.0 205.0,241.0 175.0,239.0 184.0,231.0 134.0,198.0 131.0,252.0 251.0,254.0" fill="#8e3f36" opacity="0.95" />
<polygon points="149.0,263.0 165.0,275.0 146.0,296.0 165.0,299.0 162.0,315.0 233.0,300.0 215.0,265.0 174.0,296.0 171.0,267.0" fill="#af978b" opacity="0.95" />
<polygon points="150.0,264.0 165.0,285.0 146.0,299.0 163.0,298.0 164.0,315.0 206.0,314.0 233.0,300.0 215.0,265.0 175.0,296.0 171.0,268.0" fill="#af978b" opacity="0.95" />
<polygon points="3.0,195.0 0.0,197.0 0.0,232.0 2.0,234.0 4.0,232.0" fill="#af978b" />
<polygon points="174.0,238.0 177.0,241.0 200.0,242.0 205.0,239.0 201.0,236.0 176.0,236.0" fill="#6d3936" />
<polygon points="337.0,50.0 337.0,53.0 342.0,63.0 355.0,63.0 356.0,62.0 340.0,49.0" fill="#c0b5ad" />
<polygon points="188.0,138.0 185.0,141.0 185.0,145.0 189.0,149.0 192.0,149.0 197.0,145.0 197.0,140.0 195.0,138.0" fill="#060c1a" />
<polygon points="216.0,225.0 216.0,232.0 219.0,234.0 225.0,234.0 230.0,231.0 228.0,226.0 230.0,224.0 231.0,225.0 231.0,223.0 228.0,225.0 225.0,223.0 223.0,224.0 220.0,221.0" fill="#6d3936" />
<polygon points="336.0,53.0 330.0,62.0 331.0,63.0 339.0,63.0 340.0,62.0 339.0,57.0" fill="#ece1da" />
<polygon points="175.0,237.0 176.0,240.0 184.0,242.0 200.0,242.0 204.0,240.0 201.0,236.0" fill="#6d3936" opacity="0.95" />
<polygon points="337.0,50.0 341.0,62.0 343.0,63.0 354.0,62.0 354.0,60.0 339.0,49.0" fill="#c0b5ad" opacity="0.95" />
<polygon points="12.0,123.0 13.0,124.0 17.0,123.0 20.0,126.0 32.0,126.0 34.0,124.0 39.0,123.0 36.0,120.0 24.0,120.0 22.0,122.0 18.0,121.0 16.0,123.0 15.0,122.0" fill="#6d3936" />
<polygon points="188.0,138.0 185.0,141.0 185.0,145.0 188.0,148.0 192.0,149.0 197.0,145.0 197.0,140.0 194.0,138.0" fill="#060c1a" opacity="0.95" />
<polygon points="217.0,223.0 216.0,232.0 220.0,234.0 225.0,234.0 229.0,232.0 229.0,228.0 227.0,227.0 227.0,224.0 220.0,221.0" fill="#6d3936" opacity="0.95" />
<polygon points="2.0,238.0 0.0,240.0 0.0,249.0 2.0,251.0 4.0,248.0 3.0,246.0 3.0,239.0" fill="#af978b" />
<polygon points="189.0,138.0 185.0,141.0 185.0,145.0 188.0,148.0 192.0,149.0 197.0,145.0 197.0,140.0 194.0,138.0" fill="#060c1a" opacity="0.95" />
<polygon points="140.0,310.0 141.0,311.0 145.0,310.0 147.0,312.0 148.0,311.0 152.0,313.0 153.0,312.0 152.0,308.0 149.0,306.0 143.0,307.0" fill="#af978b" />
<polygon points="40.0,58.0 44.0,61.0 49.0,61.0 50.0,62.0 54.0,62.0 55.0,61.0 54.0,60.0 55.0,58.0 54.0,57.0 48.0,56.0 47.0,57.0 41.0,57.0" fill="#6d3936" />
<polygon points="18.0,125.0 31.0,126.0 37.0,123.0 37.0,121.0 35.0,120.0 25.0,120.0 22.0,122.0 20.0,121.0 18.0,122.0" fill="#6d3936" opacity="0.95" />
<polygon points="339.0,53.0 339.0,56.0 342.0,62.0 349.0,63.0 352.0,61.0 352.0,59.0 342.0,51.0" fill="#c0b5ad" opacity="0.95" />
<polygon points="336.0,54.0 334.0,55.0 331.0,60.0 331.0,62.0 333.0,63.0 338.0,63.0 340.0,62.0 338.0,55.0" fill="#ece1da" opacity="0.95" />
<polygon points="111.0,153.0 110.0,154.0 110.0,157.0 111.0,158.0 114.0,158.0 115.0,157.0 115.0,155.0 116.0,154.0 115.0,153.0" fill="#71dbe1" />
<polygon points="239.0,276.0 238.0,277.0 239.0,278.0 238.0,283.0 239.0,284.0 241.0,284.0 242.0,283.0 241.0,282.0 241.0,279.0 242.0,278.0 240.0,276.0" fill="#af978b" />
<polygon points="336.0,55.0 334.0,56.0 332.0,59.0 332.0,61.0 335.0,63.0 339.0,61.0 339.0,57.0" fill="#ece1da" opacity="0.95" />
<polygon points="112.0,153.0 111.0,154.0 110.0,154.0 110.0,157.0 113.0,158.0 114.0,157.0 115.0,157.0 115.0,154.0" fill="#71dbe1" opacity="0.95" />
</svg>