<svg xmlns="http://www.w3.org/2000/svg" width="768" height="768" viewBox="0 0 384 384">
<rect width="384" height="384" fill="#8c746b"/>
<polygon points="0.0,157.0 2.0,246.0 124.0,172.0 116.0,76.0 267.0,76.0 259.0,167.0 383.0,286.0 383.0,181.0 277.0,0.0 101.0,0.0" fill="#9a695d" />
<polygon points="259.0,170.0 236.0,281.0 376.0,280.0 347.0,222.0" fill="#c5927f" />
<polygon points="124.0,175.0 93.0,178.0 21.0,226.0 0.0,249.0 0.0,283.0 146.0,280.0" fill="#c5927f" />
<polygon points="0.0,156.0 3.0,245.0 124.0,172.0 116.0,77.0 265.0,76.0 260.0,167.0 383.0,286.0 383.0,181.0 278.0,0.0 101.0,0.0" fill="#9a695d" opacity="0.95" />
<polygon points="134.0,128.0 130.0,161.0 151.0,216.0 206.0,219.0 236.0,209.0 254.0,151.0 245.0,125.0" fill="#86bdbf" />
<polygon points="278.0,0.0 324.0,61.0 331.0,124.0 383.0,180.0 383.0,0.0" fill="#523834" />
<polygon points="100.0,0.0 0.0,0.0 2.0,154.0 40.0,124.0 57.0,51.0" fill="#523834" />
<polygon points="0.0,156.0 4.0,244.0 123.0,171.0 117.0,77.0 265.0,76.0 260.0,166.0 383.0,286.0 383.0,181.0 278.0,0.0 101.0,0.0" fill="#9a695d" opacity="0.95" />
<polygon points="259.0,170.0 236.0,280.0 375.0,282.0 349.0,224.0" fill="#c5927f" opacity="0.95" />
<polygon points="124.0,175.0 93.0,178.0 33.0,216.0 0.0,248.0 0.0,283.0 146.0,280.0" fill="#c5927f" opacity="0.95" />
<polygon points="241.0,295.0 215.0,286.0 142.0,294.0 147.0,322.0 130.0,383.0 161.0,383.0 187.0,364.0 212.0,368.0 219.0,383.0 255.0,383.0" fill="#23373b" />
<polygon points="144.0,316.0 0.0,315.0 0.0,336.0 127.0,363.0" fill="#cdafa9" />
<polygon points="241.0,315.0 259.0,363.0 383.0,334.0 383.0,315.0" fill="#cdafa9" />
<polygon points="124.0,79.0 122.0,154.0 144.0,211.0 137.0,124.0 240.0,122.0 255.0,151.0 235.0,214.0 260.0,156.0 260.0,80.0" fill="#5f8084" />
<polygon points="134.0,128.0 130.0,161.0 149.0,214.0 206.0,219.0 236.0,209.0 254.0,151.0 246.0,126.0" fill="#86bdbf" opacity="0.95" />
<polygon points="279.0,0.0 324.0,61.0 331.0,124.0 383.0,180.0 383.0,0.0" fill="#523834" opacity="0.95" />
<polygon points="259.0,171.0 237.0,280.0 375.0,281.0 349.0,224.0" fill="#c5927f" opacity="0.95" />
<polygon points="125.0,177.0 93.0,178.0 33.0,216.0 0.0,248.0 0.0,283.0 145.0,280.0" fill="#c5927f" opacity="0.95" />
<polygon points="100.0,0.0 0.0,0.0 1.0,153.0 38.0,127.0 57.0,51.0" fill="#523834" opacity="0.95" />
<polygon points="134.0,128.0 130.0,161.0 149.0,214.0 206.0,219.0 236.0,209.0 254.0,151.0 246.0,126.0" fill="#86bdbf" opacity="0.95" />
<polygon points="279.0,0.0 324.0,61.0 331.0,124.0 383.0,180.0 383.0,0.0" fill="#523834" opacity="0.95" />
<polygon points="231.0,237.0 154.0,242.0 153.0,263.0 161.0,273.0 222.0,273.0 228.0,266.0" fill="#0cbac0" />
<polygon points="0.0,290.0 3.0,306.0 146.0,306.0 137.0,294.0" fill="#523834" />
<polygon points="124.0,79.0 126.0,164.0 136.0,125.0 209.0,121.0 246.0,125.0 257.0,162.0 258.0,79.0" fill="#5f8084" opacity="0.95" />
<polygon points="100.0,0.0 0.0,0.0 0.0,151.0 38.0,127.0 57.0,51.0" fill="#523834" opacity="0.95" />
<polygon points="240.0,295.0 213.0,286.0 142.0,295.0 147.0,322.0 130.0,383.0 161.0,383.0 187.0,364.0 212.0,368.0 219.0,383.0 255.0,383.0" fill="#23373b" opacity="0.95" />
<polygon points="383.0,287.0 244.0,294.0 240.0,305.0 383.0,306.0" fill="#523834" />
<polygon points="383.0,352.0 265.0,383.0 383.0,383.0" fill="#9a695d" />
<polygon points="144.0,316.0 0.0,315.0 0.0,336.0 127.0,363.0" fill="#cdafa9" opacity="0.95" />
<polygon points="383.0,335.0 260.0,364.0 248.0,352.0 264.0,383.0 383.0,351.0" fill="#c5927f" />
<polygon points="241.0,315.0 259.0,363.0 383.0,334.0 383.0,315.0" fill="#cdafa9" opacity="0.95" />
<polygon points="0.0,338.0 2.0,355.0 122.0,381.0 137.0,353.0 123.0,364.0 37.0,339.0" fill="#c5927f" />
<polygon points="240.0,296.0 150.0,289.0 130.0,383.0 161.0,383.0 187.0,364.0 212.0,368.0 219.0,383.0 255.0,383.0" fill="#23373b" opacity="0.95" />
<polygon points="125.0,80.0 126.0,160.0 140.0,123.0 240.0,122.0 260.0,143.0 256.0,78.0" fill="#5f8084" opacity="0.95" />
<polygon points="0.0,383.0 129.0,383.0 135.0,365.0 122.0,382.0 2.0,356.0" fill="#9a695d" />
<polygon points="144.0,316.0 0.0,315.0 0.0,336.0 126.0,363.0" fill="#cdafa9" opacity="0.95" />
<polygon points="241.0,315.0 259.0,363.0 383.0,334.0 383.0,315.0" fill="#cdafa9" opacity="0.95" />
<polygon points="231.0,237.0 154.0,242.0 153.0,263.0 161.0,273.0 222.0,273.0 228.0,266.0" fill="#0cbac0" opacity="0.95" />
<polygon points="0.0,290.0 3.0,306.0 144.0,304.0 137.0,294.0" fill="#523834" opacity="0.95" />
<polygon points="383.0,335.0 253.0,366.0 265.0,383.0 383.0,351.0" fill="#c5927f" opacity="0.95" />
<polygon points="383.0,287.0 244.0,294.0 241.0,304.0 383.0,306.0" fill="#523834" opacity="0.95" />
<polygon points="0.0,338.0 3.0,355.0 122.0,381.0 132.0,367.0 37.0,339.0" fill="#c5927f" opacity="0.95" />
<polygon points="251.0,192.0 234.0,219.0 193.0,229.0 148.0,221.0 133.0,193.0 150.0,287.0 162.0,284.0 148.0,233.0 233.0,228.0 231.0,289.0" fill="#030c11" />
<polygon points="383.0,352.0 256.0,383.0 383.0,383.0" fill="#9a695d" opacity="0.95" />
<polygon points="0.0,358.0 0.0,383.0 129.0,383.0 28.0,359.0" fill="#9a695d" opacity="0.95" />
<polygon points="150.0,282.0 68.0,285.0 146.0,293.0" fill="#cdafa9" />
<polygon points="231.0,237.0 155.0,242.0 153.0,263.0 161.0,273.0 222.0,273.0 228.0,266.0" fill="#0cbac0" opacity="0.95" />
<polygon points="0.0,308.0 2.0,312.0 146.0,310.0 142.0,306.0" fill="#9a695d" />
<polygon points="383.0,352.0 267.0,383.0 383.0,383.0" fill="#9a695d" opacity="0.95" />
<polygon points="0.0,358.0 0.0,383.0 129.0,383.0 28.0,359.0" fill="#9a695d" opacity="0.95" />
<polygon points="233.0,282.0 236.0,289.0 244.0,292.0 308.0,286.0 297.0,283.0" fill="#cdafa9" />
<polygon points="245.0,211.0 193.0,229.0 138.0,216.0 144.0,238.0 224.0,228.0 238.0,236.0" fill="#030c11" opacity="0.95" />
<polygon points="149.0,281.0 76.0,283.0 74.0,286.0 145.0,293.0" fill="#cdafa9" opacity="0.95" />
<polygon points="243.0,217.0 191.0,230.0 139.0,220.0 145.0,235.0 238.0,231.0" fill="#030c11" opacity="0.95" />
<polygon points="265.0,77.0 262.0,77.0 260.0,82.0 260.0,130.0 262.0,136.0" fill="#23373b" />
<polygon points="233.0,282.0 236.0,289.0 245.0,292.0 284.0,290.0 299.0,286.0 297.0,283.0" fill="#cdafa9" opacity="0.95" />
<polygon points="118.0,77.0 121.0,136.0 123.0,86.0 121.0,80.0 123.0,78.0" fill="#23373b" />
<polygon points="158.0,275.0 160.0,281.0 185.0,281.0 187.0,279.0 186.0,274.0 159.0,274.0" fill="#f1f0ec" />
<polygon points="195.0,275.0 197.0,282.0 218.0,281.0 220.0,277.0 219.0,274.0 196.0,274.0" fill="#f1f0ec" />
<polygon points="220.0,219.0 208.0,222.0 174.0,219.0 157.0,223.0 176.0,221.0 183.0,227.0 193.0,228.0" fill="#23373b" />
<polygon points="124.0,161.0 129.0,186.0 137.0,198.0" fill="#23373b" />
<polygon points="258.0,162.0 244.0,202.0 253.0,187.0" fill="#23373b" />
<polygon points="264.0,77.0 260.0,81.0 260.0,122.0 262.0,123.0 264.0,122.0 266.0,78.0" fill="#23373b" opacity="0.95" />
<polygon points="159.0,275.0 159.0,280.0 166.0,283.0 162.0,287.0 164.0,293.0 174.0,292.0 173.0,288.0 168.0,285.0 169.0,282.0 187.0,279.0 185.0,274.0" fill="#f1f0ec" opacity="0.95" />
<polygon points="196.0,281.0 198.0,282.0 217.0,281.0 219.0,280.0 220.0,275.0 198.0,274.0 196.0,275.0" fill="#f1f0ec" opacity="0.95" />
<polygon points="149.0,250.0 151.0,250.0 151.0,244.0 154.0,241.0 173.0,241.0 150.0,238.0 148.0,240.0" fill="#0d7887" />
<polygon points="162.0,287.0 162.0,292.0 163.0,293.0 173.0,293.0 174.0,292.0 174.0,290.0 171.0,286.0 163.0,286.0" fill="#f1f0ec" />
<polygon points="159.0,276.0 159.0,279.0 165.0,283.0 162.0,288.0 165.0,293.0 173.0,291.0 171.0,286.0 173.0,282.0 187.0,279.0 184.0,274.0 162.0,274.0" fill="#f1f0ec" opacity="0.95" />
<polygon points="181.0,284.0 188.0,288.0 196.0,285.0 195.0,283.0 182.0,283.0" fill="#030c11" />
<polygon points="154.0,216.0 158.0,218.0 164.0,218.0 172.0,215.0 171.0,214.0 155.0,214.0" fill="#0cbac0" />
<polygon points="177.0,220.0 177.0,222.0 186.0,228.0 193.0,228.0 202.0,225.0 200.0,222.0 193.0,222.0 184.0,219.0" fill="#23373b" opacity="0.95" />
<polygon points="173.0,287.0 176.0,293.0 181.0,293.0 182.0,292.0 182.0,290.0 180.0,286.0 174.0,286.0" fill="#86bdbf" />
<polygon points="196.0,276.0 196.0,280.0 199.0,282.0 216.0,281.0 219.0,279.0 219.0,276.0 216.0,274.0 199.0,274.0" fill="#f1f0ec" opacity="0.95" />
<polygon points="200.0,284.0 201.0,285.0 218.0,285.0 219.0,284.0 218.0,283.0 201.0,283.0" fill="#030c11" />
<polygon points="151.0,258.0 150.0,259.0 151.0,269.0 156.0,273.0 157.0,271.0 152.0,263.0 152.0,259.0" fill="#0d7887" />
<polygon points="220.0,286.0 219.0,287.0 219.0,290.0 218.0,291.0 219.0,292.0 225.0,292.0 226.0,291.0 226.0,288.0 224.0,286.0" fill="#0cbac0" />
<polygon points="147.0,271.0 147.0,276.0 151.0,280.0 151.0,286.0 157.0,288.0 160.0,287.0 161.0,283.0 153.0,281.0 152.0,272.0 149.0,270.0" fill="#030c11" opacity="0.95" />
<polygon points="221.0,233.0 222.0,234.0 229.0,234.0 232.0,237.0 233.0,236.0 233.0,233.0 232.0,232.0 222.0,232.0" fill="#0d7887" />
<polygon points="233.0,269.0 229.0,272.0 229.0,280.0 226.0,282.0 226.0,284.0 228.0,285.0 231.0,284.0 231.0,281.0 234.0,279.0 235.0,270.0" fill="#030c11" opacity="0.95" />
<polygon points="184.0,284.0 184.0,286.0 188.0,288.0 194.0,286.0 194.0,284.0 192.0,283.0 186.0,283.0" fill="#030c11" opacity="0.95" />
<polygon points="174.0,287.0 175.0,292.0 177.0,293.0 180.0,293.0 182.0,292.0 181.0,287.0 179.0,286.0 176.0,286.0" fill="#86bdbf" opacity="0.95" />
<polygon points="223.0,274.0 222.0,274.0 221.0,275.0 221.0,277.0 220.0,278.0 220.0,280.0 221.0,281.0 223.0,281.0 225.0,279.0 224.0,278.0 224.0,275.0" fill="#86bdbf" />
<polygon points="219.0,287.0 219.0,291.0 221.0,292.0 224.0,292.0 226.0,291.0 226.0,288.0 223.0,286.0" fill="#0cbac0" opacity="0.95" />
<polygon points="156.0,215.0 156.0,217.0 158.0,218.0 164.0,218.0 166.0,217.0 166.0,215.0 164.0,214.0 158.0,214.0" fill="#0cbac0" opacity="0.95" />
<polygon points="257.0,150.0 254.0,152.0 254.0,156.0 257.0,158.0 260.0,156.0 260.0,152.0" fill="#5f8084" opacity="0.95" />
<polygon points="203.0,237.0 200.0,236.0 198.0,238.0 195.0,237.0 193.0,239.0 192.0,238.0 189.0,239.0 192.0,240.0 194.0,238.0 197.0,239.0 199.0,237.0 200.0,238.0" fill="#0d7887" />
<polygon points="222.0,286.0 219.0,288.0 219.0,290.0 223.0,292.0 226.0,290.0 226.0,288.0" fill="#0cbac0" opacity="0.95" />
<polygon points="178.0,286.0 175.0,288.0 175.0,291.0 178.0,293.0 181.0,291.0 181.0,288.0" fill="#86bdbf" opacity="0.95" />
<polygon points="155.0,239.0 153.0,238.0 151.0,238.0 149.0,239.0 149.0,242.0 151.0,243.0 155.0,241.0" fill="#0d7887" opacity="0.95" />
<polygon points="157.0,282.0 154.0,284.0 154.0,286.0 158.0,288.0 161.0,286.0 161.0,284.0" fill="#030c11" opacity="0.95" />
</svg>