<svg xmlns="http://www.w3.org/2000/svg" width="768" height="768" viewBox="0 0 384 384">
<rect width="384" height="384" fill="#946062"/>
<polygon points="0.0,0.0 3.0,126.0 383.0,126.0 383.0,0.0" fill="#883e3f" />
<polygon points="0.0,0.0 4.0,191.0 127.0,191.0 139.0,128.0 186.0,117.0 245.0,128.0 256.0,191.0 383.0,191.0 383.0,0.0" fill="#883e3f" opacity="0.95" />
<polygon points="0.0,0.0 5.0,191.0 125.0,191.0 140.0,129.0 186.0,117.0 244.0,129.0 257.0,191.0 383.0,191.0 383.0,0.0" fill="#883e3f" opacity="0.95" />
<polygon points="132.0,194.0 2.0,196.0 2.0,254.0 143.0,255.0" fill="#9f7075" />
<polygon points="1.0,197.0 0.0,383.0 176.0,383.0 124.0,324.0 179.0,319.0 150.0,295.0 135.0,198.0" fill="#9f7075" opacity="0.95" />
<polygon points="248.0,197.0 240.0,255.0 383.0,255.0 383.0,195.0" fill="#9f7075" />
<polygon points="0.0,326.0 2.0,383.0 177.0,383.0 125.0,324.0" fill="#9f7075" />
<polygon points="0.0,262.0 2.0,320.0 182.0,319.0 150.0,295.0 144.0,259.0" fill="#9f7075" />
<polygon points="136.0,142.0 129.0,186.0 161.0,216.0 221.0,217.0 253.0,188.0 251.0,148.0 225.0,125.0 173.0,120.0" fill="#9dd9d1" />
<polygon points="199.0,319.0 383.0,320.0 383.0,259.0 239.0,259.0 233.0,296.0" fill="#883e3f" />
<polygon points="2.0,190.0 129.0,191.0 127.0,157.0 145.0,132.0 3.0,131.0" fill="#883e3f" />
<polygon points="127.0,325.0 178.0,383.0 302.0,383.0 248.0,324.0" fill="#883e3f" />
<polygon points="239.0,132.0 256.0,158.0 254.0,191.0 383.0,191.0 383.0,131.0" fill="#883e3f" />
<polygon points="1.0,197.0 0.0,383.0 176.0,383.0 126.0,325.0 178.0,318.0 150.0,295.0 135.0,198.0" fill="#9f7075" opacity="0.95" />
<polygon points="253.0,325.0 303.0,383.0 383.0,383.0 383.0,324.0" fill="#9f7075" />
<polygon points="129.0,328.0 177.0,383.0 301.0,383.0 247.0,322.0 383.0,320.0 383.0,259.0 240.0,259.0 233.0,296.0 202.0,323.0" fill="#883e3f" opacity="0.95" />
<polygon points="136.0,142.0 129.0,186.0 161.0,216.0 221.0,217.0 253.0,188.0 251.0,148.0 217.0,122.0 173.0,120.0" fill="#9dd9d1" opacity="0.95" />
<polygon points="248.0,197.0 241.0,255.0 383.0,255.0 383.0,195.0" fill="#9f7075" opacity="0.95" />
<polygon points="129.0,328.0 177.0,383.0 301.0,383.0 249.0,323.0 383.0,320.0 383.0,259.0 241.0,259.0 233.0,296.0 202.0,323.0" fill="#883e3f" opacity="0.95" />
<polygon points="136.0,142.0 129.0,186.0 161.0,216.0 221.0,217.0 253.0,188.0 251.0,148.0 217.0,122.0 173.0,120.0" fill="#9dd9d1" opacity="0.95" />
<polygon points="248.0,197.0 243.0,255.0 383.0,255.0 383.0,195.0" fill="#9f7075" opacity="0.95" />
<polygon points="254.0,325.0 302.0,383.0 383.0,383.0 383.0,324.0" fill="#9f7075" opacity="0.95" />
<polygon points="238.0,221.0 207.0,241.0 200.0,238.0 199.0,317.0 232.0,296.0" fill="#147e7e" />
<polygon points="146.0,224.0 154.0,296.0 185.0,319.0 182.0,241.0 172.0,244.0" fill="#44aaa4" />
<polygon points="237.0,223.0 200.0,241.0 199.0,316.0 232.0,296.0" fill="#147e7e" opacity="0.95" />
<polygon points="148.0,226.0 154.0,296.0 184.0,319.0 182.0,244.0 169.0,242.0" fill="#44aaa4" opacity="0.95" />
<polygon points="165.0,218.0 185.0,239.0 189.0,319.0 196.0,320.0 200.0,229.0 196.0,222.0" fill="#1c5f66" />
<polygon points="236.0,224.0 200.0,242.0 201.0,316.0 232.0,296.0" fill="#147e7e" opacity="0.95" />
<polygon points="149.0,228.0 154.0,296.0 183.0,318.0 182.0,246.0" fill="#44aaa4" opacity="0.95" />
<polygon points="188.0,136.0 195.0,136.0 202.0,142.0 198.0,152.0 203.0,170.0 196.0,177.0 186.0,177.0 179.0,172.0 184.0,152.0 180.0,142.0" fill="#9dd9d1" />
<polygon points="167.0,219.0 165.0,223.0 185.0,239.0 189.0,319.0 195.0,320.0 200.0,229.0 194.0,222.0" fill="#1c5f66" opacity="0.95" />
<polygon points="237.0,214.0 234.0,211.0 203.0,231.0 203.0,238.0 209.0,239.0 235.0,223.0" fill="#232a2f" />
<polygon points="0.0,320.0 0.0,324.0 125.0,322.0" fill="#e9f0ec" />
<polygon points="169.0,219.0 166.0,223.0 185.0,239.0 189.0,318.0 194.0,320.0 200.0,229.0 193.0,222.0" fill="#1c5f66" opacity="0.95" />
<polygon points="188.0,136.0 195.0,136.0 202.0,142.0 199.0,157.0 203.0,170.0 196.0,177.0 186.0,177.0 179.0,172.0 183.0,155.0 180.0,142.0" fill="#9dd9d1" opacity="0.95" />
<polygon points="142.0,206.0 139.0,217.0 152.0,294.0 143.0,220.0 146.0,209.0" fill="#147e7e" />
<polygon points="197.0,153.0 190.0,155.0 192.0,176.0 198.0,175.0 201.0,172.0" fill="#1c5f66" />
<polygon points="188.0,136.0 195.0,136.0 202.0,142.0 199.0,157.0 203.0,170.0 196.0,177.0 186.0,177.0 179.0,172.0 183.0,155.0 180.0,142.0" fill="#9dd9d1" opacity="0.95" />
<polygon points="237.0,214.0 233.0,212.0 203.0,231.0 203.0,238.0 206.0,240.0 235.0,223.0" fill="#232a2f" opacity="0.95" />
<polygon points="336.0,52.0 338.0,54.0 338.0,62.0 343.0,65.0 338.0,71.0 328.0,63.0" fill="#883e3f" />
<polygon points="150.0,224.0 152.0,228.0 175.0,243.0 180.0,237.0 184.0,239.0 178.0,230.0 168.0,235.0" fill="#147e7e" />
<polygon points="237.0,214.0 233.0,212.0 203.0,231.0 203.0,238.0 206.0,240.0 235.0,223.0" fill="#232a2f" opacity="0.95" />
<polygon points="245.0,203.0 239.0,208.0 241.0,211.0 240.0,238.0" fill="#1c5f66" />
<polygon points="163.0,284.0 167.0,286.0 169.0,285.0 176.0,292.0 176.0,295.0 169.0,300.0 167.0,300.0 164.0,297.0 165.0,295.0 161.0,289.0 161.0,286.0" fill="#44aaa4" />
<polygon points="151.0,220.0 157.0,227.0 166.0,233.0 172.0,233.0 172.0,231.0 152.0,219.0" fill="#44aaa4" />
<polygon points="196.0,153.0 190.0,155.0 191.0,175.0 193.0,176.0 201.0,172.0 198.0,154.0" fill="#1c5f66" opacity="0.95" />
<polygon points="188.0,138.0 185.0,141.0 185.0,144.0 188.0,147.0 194.0,147.0 197.0,144.0 197.0,141.0 194.0,138.0" fill="#232a2f" />
<polygon points="161.0,286.0 164.0,284.0 171.0,287.0 176.0,292.0 176.0,295.0 168.0,300.0 165.0,299.0" fill="#44aaa4" opacity="0.95" />
<polygon points="201.0,142.0 199.0,139.0 198.0,145.0 190.0,149.0 184.0,145.0 183.0,140.0 181.0,148.0 186.0,152.0 193.0,153.0 200.0,149.0" fill="#e9f0ec" />
<polygon points="212.0,223.0 205.0,221.0 203.0,223.0 198.0,223.0 197.0,226.0 202.0,231.0" fill="#147e7e" />
<polygon points="188.0,154.0 187.0,155.0 187.0,166.0 184.0,174.0 186.0,176.0 189.0,176.0 191.0,172.0" fill="#147e7e" />
<polygon points="195.0,153.0 190.0,156.0 191.0,171.0 195.0,176.0 201.0,172.0 198.0,155.0" fill="#1c5f66" opacity="0.95" />
<polygon points="185.0,154.0 183.0,156.0 182.0,164.0 180.0,167.0 180.0,172.0 183.0,174.0 185.0,171.0 186.0,166.0 186.0,155.0" fill="#44aaa4" />
<polygon points="225.0,322.0 226.0,323.0 248.0,323.0 249.0,322.0 248.0,321.0 226.0,321.0" fill="#ebcfaf" />
<polygon points="166.0,285.0 171.0,287.0 176.0,292.0 176.0,295.0 168.0,300.0 164.0,297.0 164.0,294.0 162.0,291.0 162.0,288.0" fill="#44aaa4" opacity="0.95" />
<polygon points="335.0,55.0 332.0,58.0 330.0,62.0 338.0,69.0 339.0,67.0 336.0,64.0 336.0,56.0" fill="#e9f0ec" />
<polygon points="162.0,286.0 163.0,291.0 165.0,294.0 168.0,295.0 171.0,292.0 172.0,293.0 173.0,292.0 170.0,287.0 167.0,288.0 164.0,285.0" fill="#e9f0ec" />
<polygon points="155.0,223.0 155.0,226.0 166.0,233.0 172.0,233.0 171.0,230.0 157.0,222.0" fill="#44aaa4" opacity="0.95" />
<polygon points="167.0,236.0 167.0,238.0 175.0,243.0 178.0,241.0 178.0,237.0 174.0,233.0" fill="#147e7e" opacity="0.95" />
<polygon points="311.0,322.0 312.0,323.0 326.0,323.0 327.0,322.0 326.0,321.0 312.0,321.0" fill="#ebcfaf" />
<polygon points="185.0,141.0 185.0,144.0 186.0,146.0 188.0,147.0 193.0,147.0 197.0,144.0 197.0,141.0 193.0,138.0 189.0,138.0" fill="#232a2f" opacity="0.95" />
<polygon points="181.0,146.0 184.0,151.0 189.0,153.0 196.0,152.0 200.0,149.0 200.0,147.0 198.0,146.0 192.0,149.0 183.0,145.0" fill="#e9f0ec" opacity="0.95" />
<polygon points="259.0,322.0 260.0,323.0 270.0,323.0 271.0,322.0 270.0,321.0 260.0,321.0" fill="#ebcfaf" />
<polygon points="141.0,207.0 139.0,208.0 139.0,217.0 141.0,218.0 140.0,224.0 143.0,231.0 142.0,237.0 144.0,238.0 146.0,234.0 144.0,233.0 145.0,226.0 142.0,218.0 145.0,208.0" fill="#147e7e" opacity="0.95" />
<polygon points="185.0,141.0 185.0,144.0 189.0,147.0 193.0,147.0 197.0,144.0 197.0,141.0 193.0,138.0 189.0,138.0" fill="#232a2f" opacity="0.95" />
<polygon points="209.0,223.0 207.0,222.0 199.0,223.0 197.0,224.0 197.0,226.0 203.0,229.0 207.0,227.0 209.0,225.0" fill="#147e7e" opacity="0.95" />
<polygon points="291.0,322.0 292.0,323.0 302.0,323.0 303.0,322.0 304.0,323.0 305.0,322.0 304.0,321.0 303.0,322.0 302.0,321.0 292.0,321.0" fill="#ebcfaf" />
<polygon points="243.0,205.0 240.0,207.0 240.0,210.0 241.0,211.0 240.0,218.0 242.0,219.0 244.0,218.0 244.0,212.0 245.0,211.0 245.0,206.0" fill="#1c5f66" opacity="0.95" />
<polygon points="13.0,257.0 14.0,258.0 16.0,257.0 17.0,258.0 26.0,258.0 27.0,257.0 32.0,258.0 33.0,257.0 32.0,256.0 27.0,257.0 26.0,256.0 17.0,256.0 16.0,257.0 14.0,256.0" fill="#ebcfaf" />
<polygon points="184.0,160.0 182.0,161.0 182.0,164.0 180.0,167.0 180.0,172.0 182.0,173.0 185.0,171.0 185.0,167.0 186.0,166.0 186.0,161.0" fill="#44aaa4" opacity="0.95" />
<polygon points="169.0,287.0 168.0,288.0 166.0,287.0 163.0,288.0 164.0,293.0 167.0,295.0 169.0,294.0 169.0,292.0 171.0,291.0 171.0,288.0" fill="#e9f0ec" opacity="0.95" />
<polygon points="147.0,215.0 146.0,216.0 146.0,220.0 148.0,223.0 149.0,222.0 149.0,219.0 148.0,218.0 148.0,217.0 149.0,216.0 148.0,215.0" fill="#1c5f66" />
<polygon points="334.0,57.0 332.0,58.0 332.0,59.0 330.0,61.0 330.0,63.0 334.0,65.0 336.0,64.0 336.0,58.0" fill="#e9f0ec" opacity="0.95" />
<polygon points="166.0,287.0 163.0,289.0 163.0,291.0 166.0,293.0 169.0,291.0 169.0,289.0" fill="#e9f0ec" opacity="0.95" />
</svg>