<svg xmlns="http://www.w3.org/2000/svg" width="768" height="768" viewBox="0 0 384 384">
<rect width="384" height="384" fill="#965a59"/>
<polygon points="0.0,0.0 2.0,126.0 135.0,127.0 184.0,97.0 252.0,127.0 383.0,126.0 383.0,0.0" fill="#a14e4d" />
<polygon points="0.0,0.0 0.0,383.0 171.0,383.0 124.0,160.0 184.0,97.0 257.0,128.0 350.0,320.0 239.0,290.0 249.0,330.0 383.0,383.0 383.0,0.0" fill="#a14e4d" opacity="0.95" />
<polygon points="131.0,129.0 0.0,132.0 3.0,320.0 146.0,319.0 150.0,257.0 162.0,255.0 131.0,213.0" fill="#a14e4d" />
<polygon points="0.0,0.0 0.0,383.0 171.0,383.0 124.0,160.0 184.0,97.0 257.0,129.0 348.0,319.0 241.0,294.0 296.0,383.0 383.0,383.0 383.0,0.0" fill="#a14e4d" opacity="0.95" />
<polygon points="255.0,130.0 257.0,188.0 349.0,320.0 383.0,320.0 383.0,130.0" fill="#a14e4d" />
<polygon points="0.0,326.0 0.0,383.0 172.0,383.0 146.0,347.0 145.0,324.0" fill="#a14e4d" />
<polygon points="135.0,205.0 164.0,256.0 230.0,257.0 263.0,320.0 347.0,319.0 258.0,194.0 204.0,231.0" fill="#69292f" />
<polygon points="147.0,295.0 147.0,347.0 156.0,358.0 229.0,357.0 236.0,349.0 236.0,294.0" fill="#313837" />
<polygon points="236.0,287.0 250.0,383.0 254.0,330.0 296.0,383.0 383.0,383.0 383.0,324.0 251.0,324.0 261.0,318.0" fill="#a14e4d" />
<polygon points="135.0,207.0 163.0,255.0 231.0,258.0 262.0,319.0 346.0,319.0 259.0,195.0 204.0,231.0" fill="#69292f" opacity="0.95" />
<polygon points="219.0,111.0 205.0,128.0 238.0,132.0 249.0,158.0 233.0,178.0 132.0,157.0 161.0,213.0 208.0,220.0 246.0,196.0 255.0,156.0" fill="#4ff4f2" />
<polygon points="135.0,209.0 163.0,255.0 230.0,258.0 263.0,319.0 345.0,318.0 259.0,195.0 204.0,231.0" fill="#69292f" opacity="0.95" />
<polygon points="147.0,295.0 147.0,347.0 155.0,357.0 228.0,357.0 236.0,349.0 237.0,295.0" fill="#313837" opacity="0.95" />
<polygon points="214.0,115.0 200.0,111.0 173.0,119.0 157.0,133.0 146.0,155.0 184.0,175.0 198.0,174.0 204.0,167.0 196.0,142.0" fill="#248694" />
<polygon points="239.0,312.0 238.0,347.0 229.0,358.0 158.0,360.0 173.0,383.0 249.0,383.0 248.0,325.0" fill="#69292f" />
<polygon points="216.0,126.0 200.0,135.0 197.0,154.0 205.0,167.0 224.0,172.0 243.0,159.0 245.0,145.0 238.0,133.0" fill="#9eefee" />
<polygon points="255.0,156.0 245.0,136.0 248.0,159.0 232.0,178.0 207.0,168.0 188.0,177.0 142.0,156.0 132.0,170.0 155.0,209.0 202.0,221.0 244.0,199.0" fill="#4ff4f2" opacity="0.95" />
<polygon points="237.0,296.0 148.0,296.0 148.0,349.0 157.0,358.0 230.0,356.0 237.0,347.0" fill="#313837" opacity="0.95" />
<polygon points="254.0,331.0 251.0,383.0 295.0,383.0" fill="#69292f" />
<polygon points="295.0,382.0 240.0,315.0 238.0,347.0 230.0,357.0 159.0,359.0 172.0,383.0" fill="#69292f" opacity="0.95" />
<polygon points="255.0,156.0 247.0,146.0 232.0,177.0 207.0,168.0 188.0,177.0 142.0,156.0 132.0,170.0 155.0,209.0 202.0,221.0 244.0,199.0" fill="#4ff4f2" opacity="0.95" />
<polygon points="213.0,113.0 173.0,119.0 157.0,133.0 147.0,156.0 184.0,175.0 199.0,173.0 203.0,166.0 196.0,142.0" fill="#248694" opacity="0.95" />
<polygon points="295.0,382.0 258.0,336.0 248.0,333.0 241.0,316.0 238.0,347.0 230.0,357.0 160.0,360.0 172.0,383.0" fill="#69292f" opacity="0.95" />
<polygon points="218.0,109.0 185.0,104.0 161.0,112.0 142.0,129.0 132.0,153.0 144.0,155.0 155.0,134.0 176.0,116.0" fill="#313837" />
<polygon points="216.0,126.0 200.0,135.0 197.0,154.0 204.0,166.0 224.0,172.0 243.0,159.0 245.0,145.0 238.0,133.0" fill="#9eefee" opacity="0.95" />
<polygon points="213.0,114.0 200.0,111.0 173.0,119.0 157.0,133.0 147.0,155.0 184.0,175.0 199.0,173.0 203.0,166.0 196.0,142.0" fill="#248694" opacity="0.95" />
<polygon points="217.0,135.0 225.0,135.0 234.0,143.0 233.0,154.0 223.0,162.0 213.0,160.0 207.0,153.0 208.0,143.0" fill="#9eefee" />
<polygon points="216.0,126.0 200.0,135.0 197.0,154.0 204.0,166.0 224.0,172.0 243.0,159.0 245.0,145.0 238.0,133.0" fill="#9eefee" opacity="0.95" />
<polygon points="217.0,136.0 209.0,143.0 208.0,153.0 213.0,159.0 223.0,161.0 232.0,154.0 233.0,143.0 225.0,136.0" fill="#4ff4f2" />
<polygon points="0.0,320.0 0.0,324.0 123.0,322.0" fill="#d4e4e2" />
<polygon points="253.0,196.0 211.0,225.0 159.0,222.0 183.0,230.0 214.0,228.0 239.0,215.0" fill="#313837" />
<polygon points="217.0,108.0 185.0,104.0 161.0,112.0 142.0,129.0 132.0,153.0 145.0,154.0 155.0,134.0 176.0,116.0" fill="#313837" opacity="0.95" />
<polygon points="179.0,102.0 154.0,110.0 131.0,136.0 126.0,170.0 136.0,190.0 129.0,166.0 133.0,143.0 152.0,117.0" fill="#d4e4e2" />
<polygon points="206.0,106.0 185.0,104.0 161.0,112.0 142.0,129.0 132.0,152.0 145.0,154.0 168.0,121.0" fill="#313837" opacity="0.95" />
<polygon points="217.0,135.0 225.0,135.0 234.0,143.0 233.0,154.0 223.0,162.0 213.0,160.0 207.0,153.0 208.0,143.0" fill="#9eefee" opacity="0.95" />
<polygon points="178.0,287.0 187.0,289.0 193.0,295.0 212.0,295.0 215.0,285.0 213.0,283.0 192.0,282.0 186.0,287.0" fill="#476366" />
<polygon points="164.0,258.0 163.0,261.0 168.0,264.0 163.0,268.0 160.0,279.0 166.0,283.0 160.0,286.0 158.0,293.0 176.0,294.0 177.0,290.0 172.0,286.0 181.0,281.0 179.0,268.0 170.0,264.0 171.0,258.0" fill="#d4e4e2" />
<polygon points="240.0,119.0 258.0,153.0 253.0,192.0 261.0,175.0 261.0,153.0 253.0,131.0" fill="#9eefee" />
<polygon points="217.0,136.0 209.0,143.0 208.0,153.0 213.0,159.0 223.0,161.0 232.0,154.0 233.0,143.0 225.0,136.0" fill="#4ff4f2" opacity="0.95" />
<polygon points="179.0,267.0 179.0,275.0 182.0,278.0 181.0,285.0 186.0,286.0 192.0,281.0 203.0,281.0 198.0,276.0 200.0,270.0" fill="#7da1a2" />
<polygon points="217.0,135.0 225.0,135.0 234.0,143.0 233.0,154.0 223.0,162.0 213.0,160.0 207.0,153.0 208.0,143.0" fill="#9eefee" opacity="0.95" />
<polygon points="199.0,276.0 203.0,280.0 213.0,280.0 224.0,278.0 227.0,273.0 221.0,270.0 210.0,270.0 201.0,272.0" fill="#d4e4e2" />
<polygon points="177.0,102.0 157.0,108.0 135.0,128.0 126.0,157.0 130.0,157.0 143.0,126.0" fill="#d4e4e2" opacity="0.95" />
<polygon points="230.0,270.0 227.0,258.0 223.0,266.0 182.0,265.0 192.0,269.0 222.0,268.0" fill="#476366" />
<polygon points="217.0,136.0 209.0,143.0 208.0,153.0 213.0,159.0 223.0,161.0 232.0,154.0 233.0,143.0 225.0,136.0" fill="#4ff4f2" opacity="0.95" />
<polygon points="133.0,270.0 135.0,272.0 135.0,299.0 133.0,301.0 131.0,299.0 131.0,272.0" fill="#a14e4d" />
<polygon points="203.0,102.0 217.0,106.0 235.0,117.0 242.0,117.0 227.0,106.0" fill="#d4e4e2" />
<polygon points="186.0,287.0 186.0,289.0 194.0,295.0 213.0,294.0 215.0,284.0 193.0,282.0" fill="#476366" opacity="0.95" />
<polygon points="165.0,258.0 163.0,261.0 167.0,265.0 161.0,276.0 164.0,284.0 158.0,293.0 175.0,294.0 175.0,286.0 181.0,281.0 177.0,275.0 179.0,268.0 171.0,266.0 171.0,259.0" fill="#d4e4e2" opacity="0.95" />
<polygon points="222.0,110.0 242.0,128.0 253.0,146.0 246.0,129.0" fill="#313837" />
<polygon points="208.0,124.0 210.0,127.0 223.0,125.0 239.0,133.0 242.0,132.0 233.0,121.0 219.0,112.0" fill="#4ff4f2" opacity="0.95" />
<polygon points="249.0,201.0 227.0,218.0 199.0,229.0 227.0,223.0 239.0,215.0" fill="#313837" opacity="0.95" />
<polygon points="235.0,210.0 220.0,218.0 197.0,224.0 200.0,226.0 217.0,222.0" fill="#476366" />
<polygon points="130.0,187.0 136.0,203.0 151.0,217.0 152.0,214.0 140.0,203.0" fill="#313837" />
<polygon points="182.0,266.0 180.0,267.0 182.0,288.0 178.0,293.0 187.0,294.0 189.0,291.0 185.0,287.0 199.0,280.0 199.0,271.0" fill="#7da1a2" opacity="0.95" />
<polygon points="166.0,266.0 163.0,268.0 161.0,276.0 164.0,284.0 158.0,292.0 174.0,294.0 177.0,292.0 175.0,286.0 181.0,281.0 177.0,275.0 179.0,269.0" fill="#d4e4e2" opacity="0.95" />
<polygon points="208.0,264.0 209.0,265.0 223.0,265.0 225.0,263.0 225.0,259.0 224.0,258.0 210.0,258.0 209.0,259.0 209.0,263.0" fill="#7da1a2" />
<polygon points="180.0,269.0 182.0,285.0 186.0,286.0 199.0,279.0 198.0,271.0 186.0,267.0" fill="#7da1a2" opacity="0.95" />
<polygon points="246.0,159.0 245.0,158.0 237.0,167.0 226.0,173.0 233.0,176.0" fill="#476366" />
<polygon points="187.0,287.0 187.0,289.0 194.0,295.0 210.0,295.0 213.0,293.0 215.0,285.0 212.0,283.0 193.0,282.0" fill="#476366" opacity="0.95" />
<polygon points="210.0,121.0 213.0,126.0 223.0,125.0 237.0,132.0 240.0,130.0 233.0,121.0 219.0,112.0" fill="#4ff4f2" opacity="0.95" />
<polygon points="153.0,279.0 149.0,288.0 150.0,294.0 154.0,293.0 155.0,287.0 159.0,282.0" fill="#476366" />
<polygon points="200.0,278.0 203.0,280.0 220.0,279.0 225.0,277.0 227.0,273.0 221.0,270.0 203.0,271.0 200.0,273.0" fill="#d4e4e2" opacity="0.95" />
<polygon points="161.0,266.0 155.0,266.0 153.0,268.0 153.0,278.0 156.0,280.0 158.0,280.0 160.0,278.0 160.0,276.0 163.0,273.0 162.0,272.0 162.0,267.0" fill="#7da1a2" />
<polygon points="190.0,259.0 190.0,262.0 191.0,263.0 201.0,263.0 202.0,264.0 207.0,264.0 208.0,263.0 208.0,260.0 205.0,258.0 191.0,258.0" fill="#248694" />
<polygon points="227.0,276.0 224.0,279.0 213.0,281.0 216.0,285.0 214.0,290.0 215.0,294.0 216.0,290.0 221.0,286.0 230.0,288.0 224.0,283.0 228.0,278.0" fill="#7da1a2" />
<polygon points="217.0,290.0 217.0,293.0 218.0,294.0 228.0,294.0 229.0,293.0 229.0,291.0 226.0,287.0 221.0,287.0" fill="#d4e4e2" />
<polygon points="229.0,278.0 225.0,283.0 231.0,288.0 233.0,294.0 236.0,292.0 233.0,287.0 232.0,281.0" fill="#476366" />
<polygon points="250.0,252.0 254.0,256.0 250.0,260.0 246.0,256.0" fill="#69292f" />
<polygon points="128.0,321.0 130.0,319.0 134.0,318.0 138.0,320.0 139.0,323.0 133.0,326.0 129.0,324.0" fill="#a14e4d" opacity="0.95" />
<polygon points="133.0,253.0 134.0,253.0 137.0,256.0 137.0,257.0 134.0,260.0 133.0,260.0 130.0,257.0 130.0,256.0" fill="#a14e4d" />
<polygon points="209.0,259.0 209.0,264.0 211.0,265.0 222.0,265.0 225.0,263.0 225.0,259.0 223.0,258.0 211.0,258.0" fill="#7da1a2" opacity="0.95" />
<polygon points="160.0,266.0 156.0,266.0 153.0,268.0 153.0,278.0 156.0,280.0 159.0,279.0 162.0,274.0 162.0,267.0" fill="#7da1a2" opacity="0.95" />
<polygon points="187.0,265.0 187.0,267.0 192.0,269.0 205.0,269.0 207.0,268.0 207.0,266.0 201.0,264.0 189.0,264.0" fill="#476366" opacity="0.95" />
<polygon points="178.0,290.0 178.0,293.0 179.0,294.0 189.0,294.0 190.0,293.0 187.0,290.0 185.0,290.0 184.0,289.0 179.0,289.0" fill="#7da1a2" />
<polygon points="172.0,260.0 174.0,262.0 181.0,262.0 182.0,261.0 182.0,259.0 181.0,258.0 174.0,258.0" fill="#9eefee" />
<polygon points="190.0,259.0 190.0,262.0 192.0,263.0 201.0,263.0 202.0,264.0 208.0,263.0 208.0,260.0 205.0,258.0 192.0,258.0" fill="#248694" opacity="0.95" />
<polygon points="159.0,266.0 156.0,266.0 153.0,268.0 153.0,278.0 156.0,280.0 159.0,279.0 162.0,274.0 162.0,268.0" fill="#7da1a2" opacity="0.95" />
<polygon points="153.0,260.0 153.0,262.0 154.0,263.0 156.0,263.0 157.0,262.0 161.0,262.0 162.0,261.0 162.0,259.0 161.0,258.0 156.0,258.0" fill="#9eefee" />
<polygon points="155.0,280.0 151.0,282.0 149.0,288.0 149.0,293.0 151.0,294.0 154.0,293.0 154.0,290.0 157.0,284.0 157.0,281.0" fill="#476366" opacity="0.95" />
<polygon points="247.0,255.0 251.0,253.0 254.0,255.0 254.0,257.0 250.0,259.0 247.0,257.0" fill="#69292f" opacity="0.95" />
<polygon points="153.0,260.0 153.0,262.0 155.0,263.0 162.0,261.0 162.0,259.0 160.0,258.0 156.0,258.0" fill="#9eefee" opacity="0.95" />
<polygon points="199.0,260.0 199.0,262.0 202.0,264.0 205.0,264.0 208.0,262.0 208.0,260.0 205.0,258.0 202.0,258.0" fill="#248694" opacity="0.95" />
</svg>