<svg xmlns="http://www.w3.org/2000/svg" width="768" height="768" viewBox="0 0 384 384">
<rect width="384" height="384" fill="#92685b"/>
<polygon points="132.0,0.0 132.0,61.0 188.0,113.0 252.0,61.0 252.0,0.0" fill="#e5765c" />
<polygon points="383.0,257.0 255.0,257.0 251.0,321.0 191.0,271.0 131.0,322.0 131.0,383.0 254.0,383.0 255.0,320.0 383.0,320.0" fill="#64473c" />
<polygon points="0.0,189.0 121.0,199.0 125.0,164.0 182.0,128.0 250.0,156.0 256.0,128.0 383.0,128.0 383.0,65.0 245.0,63.0 190.0,115.0 132.0,63.0 129.0,127.0 0.0,126.0" fill="#a56d5a" />
<polygon points="383.0,190.0 261.0,191.0 253.0,224.0 196.0,257.0 126.0,218.0 126.0,254.0 4.0,256.0 0.0,317.0 134.0,320.0 136.0,257.0 251.0,320.0 257.0,255.0 383.0,256.0" fill="#a56d5a" />
<polygon points="253.0,132.0 259.0,191.0 383.0,189.0 381.0,128.0" fill="#64473c" />
<polygon points="0.0,325.0 0.0,383.0 130.0,383.0 128.0,325.0" fill="#a56d5a" />
<polygon points="254.0,324.0 255.0,383.0 383.0,383.0 383.0,323.0" fill="#af8976" />
<polygon points="185.0,129.0 127.0,163.0 125.0,191.0 195.0,231.0 257.0,190.0 257.0,165.0 199.0,129.0 190.0,151.0" fill="#77dadb" />
<polygon points="253.0,0.0 257.0,65.0 279.0,65.0 282.0,73.0 383.0,64.0 383.0,0.0" fill="#844442" />
<polygon points="0.0,191.0 0.0,257.0 42.0,248.0 48.0,255.0 128.0,250.0 119.0,194.0" fill="#af8976" />
<polygon points="3.0,8.0 2.0,126.0 130.0,125.0 130.0,63.0 98.0,45.0 116.0,34.0 91.0,41.0 96.0,60.0 40.0,60.0 23.0,44.0 51.0,35.0 19.0,35.0" fill="#64473c" />
<polygon points="383.0,257.0 256.0,257.0 250.0,321.0 192.0,271.0 131.0,322.0 131.0,383.0 254.0,383.0 256.0,320.0 383.0,320.0" fill="#64473c" opacity="0.95" />
<polygon points="0.0,189.0 122.0,194.0 125.0,164.0 182.0,128.0 249.0,155.0 256.0,128.0 383.0,128.0 383.0,65.0 245.0,63.0 189.0,114.0 133.0,63.0 128.0,127.0 0.0,126.0" fill="#a56d5a" opacity="0.95" />
<polygon points="383.0,191.0 262.0,191.0 253.0,224.0 196.0,257.0 128.0,222.0 125.0,254.0 4.0,256.0 0.0,317.0 131.0,320.0 136.0,257.0 250.0,320.0 257.0,255.0 383.0,256.0" fill="#a56d5a" opacity="0.95" />
<polygon points="383.0,191.0 263.0,191.0 196.0,257.0 132.0,227.0 124.0,254.0 0.0,258.0 0.0,383.0 130.0,383.0 134.0,258.0 249.0,320.0 257.0,255.0 383.0,256.0" fill="#a56d5a" opacity="0.95" />
<polygon points="132.0,0.0 132.0,62.0 187.0,112.0 243.0,63.0 252.0,62.0 252.0,0.0" fill="#e5765c" opacity="0.95" />
<polygon points="185.0,129.0 127.0,163.0 125.0,191.0 195.0,231.0 257.0,190.0 257.0,165.0 199.0,129.0 191.0,151.0" fill="#77dadb" opacity="0.95" />
<polygon points="383.0,257.0 256.0,257.0 249.0,321.0 192.0,271.0 131.0,323.0 131.0,383.0 254.0,383.0 257.0,320.0 383.0,320.0" fill="#64473c" opacity="0.95" />
<polygon points="254.0,130.0 252.0,157.0 260.0,191.0 383.0,189.0 380.0,128.0" fill="#64473c" opacity="0.95" />
<polygon points="383.0,65.0 245.0,63.0 189.0,114.0 134.0,64.0 127.0,127.0 0.0,126.0 0.0,189.0 121.0,194.0 125.0,164.0 182.0,128.0 248.0,154.0 257.0,128.0 383.0,128.0" fill="#a56d5a" opacity="0.95" />
<polygon points="0.0,325.0 0.0,383.0 130.0,383.0 127.0,325.0" fill="#a56d5a" opacity="0.95" />
<polygon points="254.0,324.0 255.0,383.0 383.0,383.0 383.0,323.0" fill="#af8976" opacity="0.95" />
<polygon points="132.0,0.0 132.0,61.0 187.0,112.0 252.0,61.0 252.0,0.0" fill="#e5765c" opacity="0.95" />
<polygon points="0.0,191.0 0.0,257.0 43.0,248.0 49.0,255.0 128.0,250.0 117.0,194.0" fill="#af8976" opacity="0.95" />
<polygon points="0.0,0.0 19.0,34.0 52.0,35.0 42.0,59.0 91.0,59.0 104.0,31.0 122.0,39.0 100.0,46.0 131.0,57.0 131.0,0.0" fill="#844442" />
<polygon points="0.0,13.0 1.0,125.0 130.0,125.0 130.0,62.0 101.0,50.0 42.0,61.0 23.0,44.0 50.0,33.0 20.0,35.0" fill="#64473c" opacity="0.95" />
<polygon points="259.0,195.0 196.0,232.0 125.0,193.0 123.0,206.0 141.0,233.0 195.0,256.0 247.0,228.0" fill="#500542" />
<polygon points="253.0,0.0 257.0,65.0 281.0,73.0 324.0,70.0 308.0,58.0 335.0,53.0 341.0,66.0 383.0,63.0 383.0,0.0" fill="#844442" opacity="0.95" />
<polygon points="199.0,129.0 194.0,150.0 180.0,130.0 125.0,167.0 129.0,196.0 188.0,231.0 257.0,190.0 256.0,163.0" fill="#77dadb" opacity="0.95" />
<polygon points="254.0,131.0 252.0,157.0 262.0,190.0 383.0,189.0 379.0,128.0" fill="#64473c" opacity="0.95" />
<polygon points="255.0,325.0 255.0,383.0 383.0,383.0 383.0,323.0" fill="#af8976" opacity="0.95" />
<polygon points="0.0,191.0 0.0,257.0 43.0,248.0 50.0,255.0 128.0,250.0 116.0,194.0" fill="#af8976" opacity="0.95" />
<polygon points="0.0,17.0 0.0,124.0 130.0,124.0 128.0,61.0 101.0,50.0 46.0,65.0 22.0,45.0 50.0,34.0 20.0,35.0" fill="#64473c" opacity="0.95" />
<polygon points="253.0,0.0 257.0,65.0 308.0,72.0 310.0,57.0 334.0,54.0 342.0,65.0 383.0,63.0 383.0,0.0" fill="#844442" opacity="0.95" />
<polygon points="135.0,258.0 133.0,316.0 143.0,318.0 177.0,283.0 178.0,271.0 162.0,262.0 146.0,265.0" fill="#af8976" />
<polygon points="0.0,0.0 22.0,32.0 81.0,37.0 48.0,46.0 47.0,59.0 90.0,59.0 99.0,30.0 131.0,54.0 131.0,0.0" fill="#844442" opacity="0.95" />
<polygon points="259.0,195.0 196.0,232.0 126.0,195.0 123.0,206.0 141.0,233.0 195.0,256.0 247.0,228.0" fill="#500542" opacity="0.95" />
<polygon points="259.0,196.0 196.0,232.0 127.0,196.0 123.0,206.0 141.0,233.0 195.0,256.0 247.0,228.0" fill="#500542" opacity="0.95" />
<polygon points="0.0,0.0 10.0,24.0 52.0,33.0 52.0,55.0 90.0,59.0 89.0,38.0 100.0,30.0 121.0,38.0 115.0,51.0 131.0,53.0 131.0,0.0" fill="#844442" opacity="0.95" />
<polygon points="176.0,269.0 158.0,261.0 146.0,265.0 133.0,260.0 134.0,317.0 145.0,316.0 176.0,284.0" fill="#af8976" opacity="0.95" />
<polygon points="136.0,258.0 133.0,316.0 141.0,318.0 176.0,284.0 176.0,270.0 160.0,262.0 146.0,265.0" fill="#af8976" opacity="0.95" />
<polygon points="36.0,255.0 37.0,260.0 90.0,259.0 90.0,255.0 84.0,250.0 79.0,256.0 48.0,256.0 45.0,250.0" fill="#f6ef55" />
<polygon points="339.0,59.0 339.0,63.0 335.0,67.0 310.0,66.0 308.0,64.0 308.0,57.0 310.0,55.0 314.0,58.0 330.0,58.0 334.0,53.0 336.0,53.0" fill="#844442" />
<polygon points="57.0,31.0 62.0,28.0 76.0,34.0 83.0,43.0 81.0,45.0 77.0,43.0 59.0,45.0 57.0,43.0 63.0,39.0" fill="#844442" />
<polygon points="190.0,129.0 187.0,134.0 186.0,143.0 189.0,149.0 194.0,149.0 197.0,143.0 197.0,139.0 195.0,134.0" fill="#500542" />
<polygon points="337.0,55.0 334.0,54.0 331.0,59.0 313.0,59.0 311.0,57.0 309.0,63.0 336.0,64.0" fill="#faf5f2" />
<polygon points="36.0,255.0 38.0,260.0 90.0,259.0 90.0,255.0 83.0,250.0 78.0,256.0 49.0,256.0 44.0,250.0" fill="#f6ef55" opacity="0.95" />
<polygon points="58.0,31.0 61.0,37.0 63.0,35.0 65.0,37.0 59.0,44.0 65.0,42.0 82.0,43.0 75.0,35.0 62.0,29.0" fill="#64473c" />
<polygon points="190.0,131.0 187.0,134.0 186.0,143.0 188.0,148.0 193.0,149.0 196.0,146.0 197.0,139.0 195.0,134.0" fill="#500542" opacity="0.95" />
<polygon points="55.0,44.0 59.0,38.0 57.0,31.0 61.0,28.0 81.0,37.0 79.0,42.0 72.0,45.0 67.0,43.0 59.0,47.0" fill="#844442" opacity="0.95" />
<polygon points="337.0,55.0 333.0,55.0 333.0,57.0 330.0,59.0 312.0,58.0 309.0,60.0 309.0,63.0 335.0,64.0 337.0,63.0" fill="#faf5f2" opacity="0.95" />
<polygon points="191.0,131.0 187.0,134.0 186.0,143.0 187.0,146.0 192.0,149.0 196.0,146.0 197.0,139.0 195.0,134.0" fill="#500542" opacity="0.95" />
<polygon points="26.0,44.0 28.0,48.0 35.0,47.0 37.0,51.0 41.0,51.0 40.0,49.0 42.0,47.0 40.0,45.0 42.0,43.0 37.0,39.0 35.0,40.0 37.0,42.0 31.0,46.0 28.0,43.0" fill="#844442" />
<polygon points="295.0,56.0 294.0,57.0 294.0,63.0 295.0,64.0 297.0,64.0 298.0,63.0 298.0,59.0 297.0,58.0 297.0,57.0 296.0,56.0" fill="#faf5f2" />
<polygon points="47.0,256.0 43.0,252.0 37.0,255.0 36.0,258.0 39.0,260.0 44.0,260.0 47.0,258.0" fill="#f6ef55" opacity="0.95" />
<polygon points="80.0,256.0 80.0,258.0 83.0,260.0 87.0,260.0 90.0,258.0 90.0,256.0 85.0,253.0 82.0,254.0" fill="#f6ef55" opacity="0.95" />
<polygon points="333.0,58.0 330.0,60.0 330.0,62.0 334.0,64.0 337.0,62.0 337.0,60.0" fill="#faf5f2" opacity="0.95" />
<polygon points="312.0,58.0 309.0,60.0 309.0,62.0 312.0,64.0 315.0,62.0 315.0,60.0" fill="#faf5f2" opacity="0.95" />
<polygon points="296.0,58.0 295.0,59.0 294.0,59.0 294.0,63.0 295.0,63.0 296.0,64.0 297.0,63.0 298.0,63.0 298.0,59.0 297.0,59.0" fill="#faf5f2" opacity="0.95" />
</svg>