<svg xmlns="http://www.w3.org/2000/svg" width="768" height="768" viewBox="0 0 384 384">
<rect width="384" height="384" fill="#906258"/>
<polygon points="0.0,0.0 0.0,383.0 153.0,383.0 153.0,208.0 197.0,125.0 233.0,211.0 231.0,383.0 383.0,383.0 383.0,0.0" fill="#956359" opacity="0.95" />
<polygon points="0.0,0.0 0.0,383.0 153.0,383.0 153.0,208.0 197.0,125.0 233.0,211.0 231.0,383.0 383.0,383.0 383.0,0.0" fill="#956359" opacity="0.95" />
<polygon points="2.0,130.0 0.0,318.0 152.0,320.0 156.0,193.0 183.0,171.0 182.0,131.0" fill="#956359" />
<polygon points="209.0,130.0 208.0,177.0 233.0,211.0 232.0,319.0 383.0,320.0 383.0,130.0" fill="#956359" />
<polygon points="0.0,0.0 2.0,62.0 383.0,62.0 383.0,0.0" fill="#956359" />
<polygon points="0.0,68.0 2.0,126.0 383.0,126.0 383.0,66.0 208.0,66.0 204.0,107.0 178.0,104.0 176.0,66.0" fill="#956359" />
<polygon points="0.0,326.0 0.0,383.0 154.0,383.0 152.0,324.0" fill="#956359" />
<polygon points="232.0,325.0 231.0,383.0 383.0,383.0 383.0,324.0" fill="#956359" />
<polygon points="155.0,221.0 154.0,254.0 186.0,262.0 186.0,293.0 154.0,298.0 154.0,381.0 209.0,383.0 211.0,365.0 230.0,360.0 232.0,223.0" fill="#072225" />
<polygon points="155.0,221.0 154.0,255.0 186.0,262.0 186.0,293.0 154.0,298.0 154.0,381.0 209.0,383.0 211.0,365.0 230.0,361.0 232.0,223.0" fill="#072225" opacity="0.95" />
<polygon points="154.0,210.0 155.0,220.0 232.0,219.0 225.0,192.0 198.0,172.0 184.0,172.0 169.0,183.0" fill="#8cdfc5" />
<polygon points="156.0,221.0 154.0,254.0 186.0,263.0 186.0,292.0 154.0,299.0 154.0,380.0 209.0,383.0 211.0,366.0 230.0,360.0 232.0,223.0" fill="#072225" opacity="0.95" />
<polygon points="182.0,55.0 178.0,59.0 179.0,104.0 205.0,105.0 205.0,57.0" fill="#f31037" />
<polygon points="154.0,210.0 156.0,220.0 232.0,219.0 225.0,192.0 197.0,172.0 185.0,172.0 169.0,183.0" fill="#8cdfc5" opacity="0.95" />
<polygon points="154.0,210.0 157.0,220.0 232.0,218.0 225.0,192.0 196.0,172.0 185.0,172.0 169.0,183.0" fill="#8cdfc5" opacity="0.95" />
<polygon points="163.0,262.0 162.0,292.0 164.0,294.0 183.0,293.0 184.0,263.0" fill="#f0efe3" />
<polygon points="184.0,127.0 183.0,169.0 196.0,170.0 196.0,128.0" fill="#072225" />
<polygon points="182.0,55.0 179.0,57.0 179.0,104.0 202.0,106.0 206.0,104.0 205.0,57.0" fill="#f31037" opacity="0.95" />
<polygon points="181.0,54.0 203.0,54.0 211.0,63.0 207.0,67.0 207.0,104.0 203.0,107.0 178.0,105.0 177.0,67.0 173.0,63.0" fill="#956359" opacity="0.95" />
<polygon points="0.0,320.0 0.0,324.0 151.0,322.0" fill="#f0efe3" />
<polygon points="199.0,127.0 198.0,169.0 202.0,176.0 206.0,176.0 207.0,128.0" fill="#f0efe3" />
<polygon points="181.0,54.0 202.0,54.0 211.0,63.0 207.0,68.0 207.0,104.0 203.0,107.0 182.0,107.0 177.0,102.0 177.0,68.0 173.0,63.0" fill="#956359" opacity="0.95" />
<polygon points="182.0,55.0 179.0,57.0 179.0,104.0 202.0,106.0 206.0,103.0 206.0,60.0 200.0,55.0" fill="#f31037" opacity="0.95" />
<polygon points="162.0,263.0 162.0,292.0 165.0,294.0 184.0,292.0 184.0,263.0" fill="#f0efe3" opacity="0.95" />
<polygon points="229.0,363.0 213.0,366.0 213.0,383.0 230.0,383.0 230.0,364.0" fill="#f0efe3" />
<polygon points="154.0,256.0 154.0,294.0 159.0,295.0 162.0,293.0 162.0,260.0" fill="#8cdfc5" />
<polygon points="185.0,127.0 183.0,128.0 183.0,169.0 195.0,170.0 197.0,169.0 196.0,128.0" fill="#072225" opacity="0.95" />
<polygon points="163.0,263.0 162.0,292.0 165.0,294.0 183.0,292.0 184.0,264.0 181.0,262.0" fill="#f0efe3" opacity="0.95" />
<polygon points="186.0,127.0 183.0,129.0 183.0,168.0 194.0,170.0 197.0,168.0 196.0,129.0" fill="#072225" opacity="0.95" />
<polygon points="200.0,127.0 198.0,128.0 198.0,169.0 200.0,174.0 205.0,176.0 207.0,175.0 207.0,128.0" fill="#f0efe3" opacity="0.95" />
<polygon points="230.0,364.0 228.0,363.0 213.0,366.0 213.0,383.0 230.0,383.0" fill="#f0efe3" opacity="0.95" />
<polygon points="201.0,127.0 198.0,129.0 198.0,169.0 200.0,174.0 204.0,176.0 207.0,174.0 207.0,129.0" fill="#f0efe3" opacity="0.95" />
<polygon points="155.0,257.0 153.0,258.0 154.0,294.0 159.0,295.0 161.0,294.0 161.0,260.0" fill="#8cdfc5" opacity="0.95" />
<polygon points="229.0,365.0 223.0,364.0 216.0,365.0 213.0,367.0 213.0,383.0 230.0,383.0 230.0,366.0" fill="#f0efe3" opacity="0.95" />
<polygon points="156.0,258.0 153.0,260.0 154.0,293.0 158.0,295.0 161.0,293.0 161.0,260.0" fill="#8cdfc5" opacity="0.95" />
</svg>