<svg xmlns="http://www.w3.org/2000/svg" width="768" height="768" viewBox="0 0 384 384">
<rect width="384" height="384" fill="#8f5d4e"/>
<polygon points="0.0,0.0 1.0,317.0 145.0,318.0 96.0,174.0 182.0,32.0 290.0,191.0 233.0,364.0 3.0,325.0 0.0,383.0 383.0,383.0 383.0,325.0 246.0,323.0 383.0,319.0 383.0,0.0" fill="#a25e4b" opacity="0.95" />
<polygon points="0.0,0.0 3.0,126.0 156.0,126.0 135.0,121.0 167.0,105.0 185.0,31.0 209.0,37.0 215.0,108.0 241.0,126.0 383.0,126.0 383.0,0.0" fill="#a25e4b" />
<polygon points="0.0,0.0 0.0,383.0 158.0,370.0 96.0,174.0 185.0,31.0 288.0,161.0 225.0,370.0 383.0,383.0 383.0,0.0" fill="#a25e4b" opacity="0.95" />
<polygon points="213.0,104.0 167.0,116.0 162.0,199.0 146.0,222.0 146.0,355.0 156.0,366.0 221.0,367.0 238.0,353.0 238.0,220.0 222.0,198.0" fill="#032c2a" />
<polygon points="0.0,328.0 0.0,383.0 383.0,383.0 383.0,325.0 240.0,324.0 223.0,368.0 152.0,365.0 143.0,325.0" fill="#a25e4b" />
<polygon points="2.0,260.0 0.0,315.0 5.0,319.0 145.0,318.0 144.0,259.0" fill="#a25e4b" />
<polygon points="0.0,132.0 3.0,255.0 145.0,253.0 118.0,241.0 104.0,195.0 5.0,193.0 102.0,190.0 96.0,174.0 128.0,130.0" fill="#a25e4b" />
<polygon points="239.0,278.0 240.0,319.0 383.0,319.0 383.0,259.0 256.0,259.0 255.0,269.0" fill="#a25e4b" />
<polygon points="175.0,111.0 211.0,114.0 218.0,194.0 231.0,223.0 152.0,222.0 166.0,200.0" fill="#032c2a" />
<polygon points="256.0,251.0 383.0,255.0 383.0,197.0 284.0,195.0 289.0,206.0 273.0,241.0" fill="#a25e4b" />
<polygon points="258.0,131.0 277.0,140.0 287.0,157.0 287.0,190.0 383.0,190.0 383.0,130.0" fill="#a25e4b" />
<polygon points="164.0,197.0 146.0,222.0 147.0,358.0 161.0,367.0 229.0,365.0 238.0,353.0 237.0,216.0 222.0,199.0 230.0,222.0 155.0,223.0" fill="#032c2a" opacity="0.95" />
<polygon points="221.0,130.0 223.0,198.0 239.0,219.0 240.0,254.0 253.0,255.0 272.0,241.0 288.0,203.0 230.0,193.0 282.0,191.0 286.0,157.0 257.0,131.0" fill="#cc8067" />
<polygon points="147.0,225.0 146.0,355.0 159.0,368.0 147.0,383.0 234.0,383.0 223.0,368.0 238.0,353.0 238.0,225.0" fill="#032c2a" opacity="0.95" />
<polygon points="161.0,130.0 131.0,131.0 110.0,147.0 107.0,162.0 97.0,174.0 107.0,191.0 160.0,190.0" fill="#cc8067" />
<polygon points="217.0,110.0 223.0,198.0 239.0,219.0 244.0,277.0 288.0,206.0 278.0,195.0 288.0,173.0 279.0,143.0 235.0,129.0 245.0,118.0" fill="#cc8067" opacity="0.95" />
<polygon points="197.0,111.0 196.0,191.0 218.0,203.0 210.0,114.0" fill="#f4f5ed" />
<polygon points="175.0,113.0 168.0,200.0 153.0,222.0 231.0,222.0 222.0,205.0 195.0,191.0 182.0,196.0 182.0,116.0" fill="#019499" />
<polygon points="161.0,130.0 122.0,135.0 97.0,174.0 111.0,193.0 102.0,208.0 130.0,247.0 144.0,248.0 147.0,214.0 161.0,199.0" fill="#cc8067" opacity="0.95" />
<polygon points="159.0,194.0 106.0,197.0 102.0,208.0 110.0,215.0 121.0,243.0 144.0,248.0 145.0,220.0 161.0,199.0" fill="#cc8067" />
<polygon points="217.0,111.0 223.0,198.0 239.0,219.0 246.0,276.0 288.0,206.0 278.0,194.0 287.0,163.0 277.0,141.0 239.0,129.0 244.0,116.0" fill="#cc8067" opacity="0.95" />
<polygon points="185.0,38.0 183.0,45.0 190.0,49.0 184.0,105.0 210.0,106.0 202.0,50.0 205.0,40.0" fill="#fb0324" />
<polygon points="164.0,108.0 147.0,118.0 156.0,129.0 122.0,135.0 97.0,174.0 111.0,192.0 102.0,208.0 130.0,247.0 144.0,246.0 147.0,214.0 161.0,199.0" fill="#cc8067" opacity="0.95" />
<polygon points="174.0,114.0 167.0,201.0 154.0,220.0 231.0,219.0 222.0,205.0 195.0,192.0 182.0,194.0 182.0,116.0" fill="#019499" opacity="0.95" />
<polygon points="147.0,379.0 147.0,383.0 237.0,382.0 229.0,373.0 153.0,373.0" fill="#032c2a" />
<polygon points="198.0,111.0 196.0,191.0 216.0,202.0 210.0,114.0" fill="#f4f5ed" opacity="0.95" />
<polygon points="186.0,38.0 189.0,52.0 184.0,105.0 208.0,106.0 205.0,40.0" fill="#fb0324" opacity="0.95" />
<polygon points="176.0,113.0 167.0,201.0 155.0,218.0 227.0,219.0 222.0,205.0 182.0,192.0 182.0,116.0" fill="#019499" opacity="0.95" />
<polygon points="187.0,112.0 183.0,113.0 185.0,196.0 188.0,192.0" fill="#f4f5ed" />
<polygon points="190.0,116.0 189.0,190.0 193.0,191.0 195.0,117.0" fill="#03758a" />
<polygon points="182.0,38.0 177.0,45.0 180.0,52.0 171.0,106.0 183.0,104.0 189.0,48.0 182.0,45.0" fill="#200203" />
<polygon points="199.0,112.0 196.0,114.0 196.0,191.0 214.0,201.0 217.0,191.0 210.0,115.0" fill="#f4f5ed" opacity="0.95" />
<polygon points="0.0,320.0 0.0,324.0 144.0,322.0" fill="#f4f5ed" />
<polygon points="188.0,38.0 184.0,104.0 207.0,106.0 210.0,97.0 203.0,51.0 206.0,44.0 200.0,38.0" fill="#fb0324" opacity="0.95" />
<polygon points="147.0,379.0 147.0,383.0 236.0,383.0 236.0,378.0 229.0,373.0 153.0,373.0" fill="#032c2a" opacity="0.95" />
<polygon points="217.0,111.0 218.0,123.0 220.0,125.0 237.0,125.0 245.0,120.0 243.0,115.0 229.0,107.0" fill="#cc8067" />
<polygon points="181.0,39.0 170.0,101.0 172.0,106.0 183.0,104.0 188.0,48.0" fill="#200203" opacity="0.95" />
<polygon points="160.0,277.0 162.0,275.0 184.0,275.0 186.0,278.0 172.0,288.0 184.0,289.0 186.0,293.0 184.0,295.0 162.0,295.0 160.0,290.0 168.0,284.0 162.0,282.0" fill="#032c2a" />
<polygon points="186.0,112.0 183.0,113.0 185.0,195.0 188.0,192.0" fill="#f4f5ed" opacity="0.95" />
<polygon points="193.0,116.0 189.0,117.0 189.0,190.0 191.0,191.0 194.0,190.0 196.0,152.0" fill="#03758a" opacity="0.95" />
<polygon points="253.0,260.0 240.0,261.0 240.0,273.0 244.0,279.0 254.0,269.0 256.0,265.0" fill="#cc8067" />
<polygon points="167.0,109.0 165.0,107.0 157.0,108.0 147.0,118.0 136.0,121.0 154.0,122.0 161.0,125.0 165.0,122.0" fill="#cc8067" />
<polygon points="204.0,107.0 202.0,110.0 212.0,117.0 220.0,195.0 222.0,157.0 215.0,109.0" fill="#032c2a" opacity="0.95" />
<polygon points="185.0,47.0 180.0,49.0 170.0,101.0 173.0,106.0 183.0,104.0 188.0,51.0" fill="#200203" opacity="0.95" />
<polygon points="188.0,107.0 169.0,108.0 161.0,159.0 163.0,191.0 172.0,113.0 188.0,111.0" fill="#032c2a" opacity="0.95" />
<polygon points="162.0,277.0 163.0,281.0 170.0,283.0 162.0,290.0 163.0,294.0 184.0,293.0 183.0,290.0 172.0,290.0 170.0,288.0 182.0,280.0 183.0,276.0" fill="#f4f5ed" />
<polygon points="160.0,277.0 185.0,276.0 186.0,279.0 174.0,288.0 183.0,289.0 186.0,293.0 161.0,294.0 160.0,290.0 167.0,283.0 161.0,281.0" fill="#032c2a" opacity="0.95" />
<polygon points="185.0,119.0 182.0,121.0 182.0,166.0 185.0,168.0 188.0,166.0 188.0,121.0" fill="#f4f5ed" opacity="0.95" />
<polygon points="192.0,116.0 189.0,118.0 189.0,175.0 192.0,177.0 195.0,175.0 196.0,152.0 195.0,118.0" fill="#03758a" opacity="0.95" />
<polygon points="162.0,277.0 162.0,280.0 169.0,283.0 162.0,289.0 162.0,293.0 184.0,293.0 182.0,290.0 173.0,288.0 184.0,277.0" fill="#f4f5ed" opacity="0.95" />
<polygon points="180.0,277.0 168.0,277.0 167.0,280.0 169.0,285.0 164.0,288.0 162.0,292.0 165.0,294.0 169.0,293.0 170.0,288.0 181.0,280.0" fill="#f4f5ed" opacity="0.95" />
<polygon points="210.0,82.0 209.0,83.0 209.0,88.0 210.0,89.0 210.0,96.0 212.0,99.0 213.0,97.0 212.0,96.0 212.0,90.0 211.0,89.0 211.0,83.0" fill="#4d2e2c" />
<polygon points="188.0,112.0 190.0,115.0 193.0,115.0 194.0,114.0 194.0,112.0 193.0,111.0 189.0,111.0" fill="#12504f" />
</svg>