<svg xmlns="http://www.w3.org/2000/svg" width="768" height="768" viewBox="0 0 384 384">
<rect width="384" height="384" fill="#916659"/>
<polygon points="0.0,0.0 2.0,320.0 185.0,319.0 114.0,100.0 275.0,107.0 200.0,320.0 383.0,320.0 383.0,0.0" fill="#9a5d4f" />
<polygon points="0.0,0.0 0.0,383.0 185.0,383.0 120.0,343.0 185.0,330.0 115.0,100.0 275.0,107.0 199.0,251.0 199.0,330.0 262.0,343.0 199.0,383.0 383.0,383.0 383.0,0.0" fill="#9a5d4f" opacity="0.95" />
<polygon points="0.0,0.0 0.0,383.0 185.0,383.0 120.0,342.0 185.0,329.0 115.0,100.0 275.0,107.0 199.0,329.0 262.0,342.0 199.0,383.0 383.0,383.0 383.0,0.0" fill="#9a5d4f" opacity="0.95" />
<polygon points="115.0,133.0 266.0,131.0 268.0,142.0 245.0,199.0 189.0,231.0 135.0,194.0" fill="#020712" />
<polygon points="113.0,128.0 125.0,185.0 186.0,253.0 186.0,331.0 121.0,343.0 184.0,356.0 196.0,383.0 200.0,356.0 261.0,343.0 198.0,331.0 198.0,250.0 255.0,192.0 271.0,129.0" fill="#020712" />
<polygon points="120.0,159.0 139.0,197.0 186.0,229.0 230.0,212.0 263.0,162.0" fill="#77f6e8" />
<polygon points="199.0,325.0 260.0,331.0 262.0,343.0 234.0,345.0 231.0,357.0 200.0,357.0 198.0,383.0 383.0,383.0 383.0,324.0" fill="#9a5d4f" />
<polygon points="0.0,326.0 0.0,383.0 186.0,383.0 184.0,357.0 152.0,357.0 149.0,345.0 120.0,343.0 122.0,331.0 184.0,331.0 184.0,324.0" fill="#9a5d4f" />
<polygon points="117.0,133.0 120.0,157.0 263.0,157.0 265.0,132.0" fill="#40ca88" />
<polygon points="121.0,159.0 139.0,197.0 186.0,229.0 230.0,212.0 263.0,162.0" fill="#77f6e8" opacity="0.95" />
<polygon points="112.0,124.0 272.0,124.0 275.0,112.0 271.0,104.0 111.0,104.0" fill="#2c3640" />
<polygon points="121.0,160.0 139.0,197.0 186.0,229.0 230.0,212.0 263.0,162.0" fill="#77f6e8" opacity="0.95" />
<polygon points="117.0,133.0 121.0,157.0 262.0,157.0 266.0,147.0 264.0,132.0" fill="#40ca88" opacity="0.95" />
<polygon points="109.0,107.0 113.0,124.0 274.0,120.0 270.0,104.0" fill="#2c3640" opacity="0.95" />
<polygon points="117.0,134.0 122.0,157.0 261.0,157.0 266.0,147.0 263.0,132.0" fill="#40ca88" opacity="0.95" />
<polygon points="265.0,163.0 199.0,230.0 134.0,197.0 182.0,237.0 186.0,331.0 121.0,343.0 185.0,357.0 188.0,383.0 199.0,357.0 261.0,343.0 198.0,331.0 198.0,250.0" fill="#020712" opacity="0.95" />
<polygon points="109.0,107.0 113.0,124.0 274.0,120.0 270.0,104.0" fill="#2c3640" opacity="0.95" />
<polygon points="183.0,229.0 186.0,330.0 124.0,333.0 121.0,342.0 184.0,357.0 186.0,380.0 196.0,383.0 200.0,357.0 228.0,356.0 261.0,335.0 198.0,330.0 204.0,231.0" fill="#020712" opacity="0.95" />
<polygon points="0.0,320.0 0.0,324.0 178.0,322.0" fill="#efded5" />
<polygon points="146.0,256.0 148.0,254.0 159.0,254.0 161.0,256.0 159.0,258.0 148.0,258.0" fill="#9a5d4f" />
<polygon points="269.0,142.0 267.0,143.0 267.0,149.0 265.0,156.0 265.0,159.0 267.0,160.0 269.0,159.0 271.0,149.0 271.0,143.0" fill="#020712" opacity="0.95" />
<polygon points="123.0,174.0 121.0,175.0 121.0,177.0 122.0,179.0 124.0,180.0 126.0,179.0 126.0,177.0 125.0,175.0" fill="#020712" opacity="0.95" />
</svg>