<svg xmlns="http://www.w3.org/2000/svg" width="768" height="768" viewBox="0 0 384 384">
<rect width="384" height="384" fill="#975d5e"/>
<polygon points="0.0,0.0 2.0,127.0 130.0,126.0 131.0,0.0" fill="#783d48" />
<polygon points="383.0,64.0 257.0,64.0 255.0,0.0 132.0,0.0 129.0,128.0 0.0,127.0 0.0,258.0 127.0,255.0 151.0,319.0 185.0,270.0 162.0,193.0 130.0,189.0 140.0,139.0 202.0,128.0 242.0,78.0 300.0,125.0 383.0,127.0" fill="#c46a6a" />
<polygon points="130.0,258.0 2.0,258.0 0.0,317.0 129.0,319.0" fill="#783d48" />
<polygon points="0.0,319.0 0.0,383.0 130.0,383.0 129.0,320.0" fill="#c46a6a" />
<polygon points="0.0,0.0 1.0,126.0 130.0,126.0 131.0,0.0" fill="#783d48" opacity="0.95" />
<polygon points="256.0,321.0 256.0,383.0 383.0,383.0 383.0,320.0" fill="#c46a6a" />
<polygon points="383.0,64.0 258.0,64.0 255.0,0.0 132.0,0.0 130.0,127.0 0.0,127.0 0.0,258.0 127.0,255.0 131.0,318.0 0.0,319.0 0.0,383.0 130.0,383.0 130.0,321.0 185.0,294.0 161.0,193.0 130.0,189.0 147.0,132.0 242.0,78.0 300.0,125.0 383.0,127.0" fill="#c46a6a" opacity="0.95" />
<polygon points="220.0,192.0 243.0,227.0 223.0,253.0 252.0,278.0 258.0,253.0 383.0,255.0 383.0,192.0" fill="#c46a6a" />
<polygon points="383.0,256.0 259.0,254.0 240.0,306.0 195.0,303.0 209.0,328.0 195.0,355.0 164.0,355.0 151.0,321.0 131.0,321.0 131.0,383.0 255.0,383.0 257.0,319.0 383.0,319.0" fill="#783d48" />
<polygon points="0.0,0.0 0.0,125.0 131.0,124.0 131.0,0.0" fill="#783d48" opacity="0.95" />
<polygon points="245.0,190.0 383.0,191.0 383.0,128.0 303.0,127.0 278.0,102.0 274.0,122.0 257.0,138.0 264.0,172.0" fill="#783d48" />
<polygon points="383.0,64.0 259.0,64.0 255.0,0.0 132.0,0.0 129.0,127.0 0.0,127.0 0.0,258.0 127.0,255.0 131.0,317.0 0.0,319.0 0.0,383.0 130.0,383.0 130.0,322.0 185.0,292.0 161.0,194.0 130.0,189.0 147.0,132.0 242.0,78.0 300.0,125.0 383.0,127.0" fill="#c46a6a" opacity="0.95" />
<polygon points="256.0,0.0 257.0,63.0 307.0,63.0 313.0,57.0 329.0,63.0 337.0,53.0 347.0,63.0 383.0,63.0 383.0,0.0" fill="#783d48" />
<polygon points="255.0,80.0 223.0,92.0 231.0,132.0 207.0,174.0 176.0,129.0 138.0,146.0 167.0,186.0 164.0,216.0 207.0,251.0 227.0,245.0 201.0,234.0 217.0,186.0 263.0,171.0 255.0,138.0 276.0,101.0" fill="#2b7a63" />
<polygon points="383.0,256.0 256.0,256.0 246.0,300.0 200.0,307.0 208.0,339.0 184.0,359.0 130.0,318.0 127.0,256.0 5.0,257.0 0.0,317.0 130.0,320.0 131.0,383.0 255.0,383.0 256.0,320.0 383.0,319.0" fill="#783d48" opacity="0.95" />
<polygon points="256.0,321.0 256.0,383.0 383.0,383.0 383.0,320.0" fill="#c46a6a" opacity="0.95" />
<polygon points="220.0,192.0 243.0,227.0 226.0,254.0 252.0,278.0 260.0,253.0 383.0,255.0 383.0,192.0" fill="#c46a6a" opacity="0.95" />
<polygon points="249.0,79.0 222.0,94.0 207.0,173.0 173.0,128.0 137.0,150.0 166.0,219.0 213.0,253.0 195.0,297.0 218.0,311.0 249.0,278.0 201.0,231.0 218.0,185.0 260.0,177.0 276.0,114.0" fill="#2b7a63" opacity="0.95" />
<polygon points="383.0,256.0 258.0,255.0 246.0,300.0 203.0,308.0 207.0,342.0 184.0,359.0 130.0,317.0 127.0,256.0 5.0,257.0 0.0,317.0 129.0,320.0 131.0,383.0 255.0,383.0 257.0,320.0 383.0,319.0" fill="#783d48" opacity="0.95" />
<polygon points="255.0,80.0 223.0,92.0 206.0,173.0 176.0,129.0 138.0,146.0 210.0,253.0 154.0,316.0 173.0,357.0 249.0,291.0 201.0,231.0 263.0,171.0" fill="#2b7a63" opacity="0.95" />
<polygon points="256.0,322.0 256.0,383.0 383.0,383.0 383.0,320.0" fill="#c46a6a" opacity="0.95" />
<polygon points="256.0,0.0 258.0,63.0 306.0,63.0 313.0,57.0 328.0,63.0 337.0,53.0 348.0,63.0 383.0,63.0 383.0,0.0" fill="#783d48" opacity="0.95" />
<polygon points="220.0,193.0 243.0,227.0 227.0,254.0 252.0,277.0 259.0,253.0 383.0,255.0 383.0,192.0" fill="#c46a6a" opacity="0.95" />
<polygon points="200.0,259.0 195.0,297.0 218.0,311.0 238.0,306.0 249.0,291.0 243.0,266.0 227.0,256.0" fill="#2b7a63" />
<polygon points="174.0,293.0 157.0,309.0 152.0,337.0 165.0,354.0 187.0,357.0 203.0,346.0 207.0,325.0 191.0,301.0" fill="#2b7a63" />
<polygon points="174.0,293.0 157.0,309.0 152.0,337.0 165.0,354.0 187.0,357.0 203.0,346.0 207.0,325.0 191.0,301.0" fill="#2b7a63" opacity="0.95" />
<polygon points="219.0,110.0 208.0,120.0 198.0,140.0 196.0,153.0 204.0,163.0 210.0,143.0 230.0,132.0" fill="#eba47b" />
<polygon points="180.0,231.0 185.0,253.0 186.0,294.0 195.0,302.0 193.0,244.0 190.0,234.0" fill="#300f32" />
<polygon points="134.0,157.0 132.0,159.0 132.0,189.0 134.0,191.0 162.0,191.0 166.0,186.0 149.0,180.0 138.0,168.0" fill="#b2bcae" />
<polygon points="222.0,200.0 228.0,229.0 205.0,229.0 202.0,234.0 226.0,242.0 227.0,248.0 235.0,240.0 239.0,224.0 234.0,210.0" fill="#36574d" />
<polygon points="183.0,232.0 186.0,294.0 193.0,301.0 194.0,249.0 190.0,234.0" fill="#300f32" opacity="0.95" />
<polygon points="218.0,111.0 208.0,120.0 198.0,140.0 196.0,153.0 203.0,161.0 210.0,143.0 228.0,132.0" fill="#eba47b" opacity="0.95" />
<polygon points="222.0,209.0 217.0,220.0 207.0,229.0 209.0,231.0 224.0,231.0 227.0,229.0 228.0,220.0" fill="#0c302a" />
<polygon points="217.0,112.0 208.0,120.0 198.0,140.0 196.0,153.0 202.0,159.0 210.0,143.0 228.0,131.0" fill="#eba47b" opacity="0.95" />
<polygon points="132.0,159.0 132.0,190.0 161.0,191.0 165.0,188.0 164.0,185.0 149.0,180.0 138.0,168.0 136.0,159.0" fill="#b2bcae" opacity="0.95" />
<polygon points="223.0,201.0 228.0,229.0 204.0,230.0 202.0,234.0 230.0,244.0 237.0,236.0 239.0,224.0 234.0,210.0" fill="#36574d" opacity="0.95" />
<polygon points="196.0,155.0 194.0,169.0 198.0,173.0 207.0,173.0 208.0,172.0 206.0,168.0" fill="#300f32" />
<polygon points="184.0,232.0 181.0,237.0 185.0,253.0 186.0,294.0 191.0,300.0 194.0,298.0 195.0,258.0 191.0,237.0" fill="#300f32" opacity="0.95" />
<polygon points="132.0,166.0 133.0,190.0 161.0,191.0 165.0,188.0 164.0,185.0 149.0,180.0 137.0,165.0" fill="#b2bcae" opacity="0.95" />
<polygon points="335.0,55.0 332.0,58.0 331.0,63.0 335.0,68.0 341.0,68.0 344.0,65.0 344.0,58.0 340.0,55.0" fill="#e6b8bd" />
<polygon points="224.0,202.0 221.0,207.0 229.0,220.0 228.0,229.0 205.0,230.0 202.0,234.0 230.0,244.0 237.0,236.0 239.0,224.0 234.0,210.0" fill="#36574d" opacity="0.95" />
<polygon points="224.0,212.0 220.0,212.0 218.0,220.0 209.0,227.0 208.0,230.0 224.0,231.0 227.0,229.0 228.0,220.0" fill="#0c302a" opacity="0.95" />
<polygon points="195.0,158.0 194.0,169.0 199.0,173.0 207.0,172.0 206.0,168.0 199.0,158.0 197.0,157.0" fill="#300f32" opacity="0.95" />
<polygon points="335.0,55.0 333.0,56.0 331.0,63.0 334.0,67.0 340.0,68.0 344.0,65.0 344.0,58.0 340.0,55.0" fill="#e6b8bd" opacity="0.95" />
<polygon points="225.0,214.0 222.0,213.0 219.0,215.0 218.0,219.0 210.0,227.0 211.0,230.0 224.0,231.0 227.0,229.0 228.0,220.0" fill="#0c302a" opacity="0.95" />
<polygon points="336.0,55.0 332.0,58.0 331.0,63.0 334.0,67.0 340.0,68.0 344.0,65.0 344.0,58.0 340.0,55.0" fill="#e6b8bd" opacity="0.95" />
<polygon points="198.0,159.0 195.0,161.0 194.0,169.0 199.0,173.0 203.0,173.0 206.0,171.0 206.0,168.0 202.0,162.0" fill="#300f32" opacity="0.95" />
</svg>