<svg xmlns="http://www.w3.org/2000/svg" width="768" height="768" viewBox="0 0 384 384">
<rect width="384" height="384" fill="#8e685b"/>
<polygon points="0.0,188.0 128.0,190.0 132.0,127.0 383.0,127.0 383.0,90.0 348.0,58.0 330.0,64.0 336.0,45.0 291.0,0.0 131.0,0.0 131.0,125.0 2.0,127.0" fill="#9d6554" />
<polygon points="0.0,194.0 2.0,255.0 130.0,254.0 129.0,192.0" fill="#bc9a8c" />
<polygon points="0.0,258.0 2.0,319.0 130.0,318.0 129.0,257.0" fill="#9d6554" />
<polygon points="0.0,188.0 127.0,190.0 133.0,127.0 383.0,127.0 383.0,89.0 330.0,63.0 335.0,44.0 292.0,0.0 131.0,0.0 131.0,125.0 3.0,127.0" fill="#9d6554" opacity="0.95" />
<polygon points="256.0,193.0 257.0,255.0 383.0,255.0 383.0,191.0" fill="#9d6554" />
<polygon points="256.0,129.0 257.0,191.0 383.0,190.0 383.0,128.0" fill="#433530" />
<polygon points="0.0,322.0 0.0,383.0 130.0,383.0 129.0,320.0" fill="#bd816f" />
<polygon points="256.0,257.0 257.0,319.0 383.0,319.0 383.0,257.0" fill="#433530" />
<polygon points="256.0,321.0 256.0,383.0 383.0,383.0 383.0,320.0" fill="#bc9a8c" />
<polygon points="131.0,337.0 131.0,383.0 255.0,383.0 254.0,320.0 145.0,320.0" fill="#433530" />
<polygon points="125.0,160.0 141.0,203.0 183.0,227.0 229.0,215.0 257.0,172.0 256.0,159.0" fill="#7af5f2" />
<polygon points="9.0,0.0 91.0,6.0 116.0,52.0 39.0,62.0 6.0,44.0 0.0,124.0 129.0,126.0 130.0,0.0" fill="#433530" />
<polygon points="0.0,188.0 126.0,190.0 134.0,127.0 383.0,127.0 383.0,89.0 332.0,63.0 292.0,0.0 131.0,0.0 131.0,124.0 4.0,127.0" fill="#9d6554" opacity="0.95" />
<polygon points="146.0,318.0 254.0,319.0 255.0,257.0 195.0,256.0" fill="#9d6554" />
<polygon points="292.0,0.0 383.0,89.0 383.0,0.0" fill="#433530" />
<polygon points="383.0,257.0 258.0,256.0 256.0,318.0 143.0,321.0 131.0,383.0 255.0,383.0 256.0,320.0 383.0,319.0" fill="#433530" opacity="0.95" />
<polygon points="131.0,129.0 132.0,157.0 255.0,156.0 254.0,128.0" fill="#753332" />
<polygon points="3.0,2.0 3.0,48.0 72.0,62.0 114.0,50.0 98.0,37.0 91.0,7.0" fill="#9d6554" />
<polygon points="0.0,194.0 3.0,255.0 130.0,254.0 128.0,192.0" fill="#bc9a8c" opacity="0.95" />
<polygon points="383.0,191.0 256.0,192.0 256.0,254.0 194.0,257.0 148.0,318.0 254.0,319.0 258.0,255.0 383.0,255.0" fill="#9d6554" opacity="0.95" />
<polygon points="256.0,129.0 257.0,191.0 383.0,190.0 383.0,128.0" fill="#433530" opacity="0.95" />
<polygon points="0.0,322.0 0.0,383.0 130.0,383.0 128.0,320.0" fill="#bd816f" opacity="0.95" />
<polygon points="256.0,321.0 256.0,383.0 383.0,383.0 383.0,320.0" fill="#bc9a8c" opacity="0.95" />
<polygon points="125.0,160.0 141.0,203.0 183.0,227.0 229.0,215.0 257.0,172.0 255.0,159.0" fill="#7af5f2" opacity="0.95" />
<polygon points="11.0,0.0 92.0,7.0 115.0,53.0 40.0,62.0 5.0,45.0 0.0,124.0 130.0,125.0 130.0,0.0" fill="#433530" opacity="0.95" />
<polygon points="131.0,193.0 132.0,255.0 255.0,254.0 254.0,196.0 229.0,229.0 195.0,237.0 155.0,217.0" fill="#753332" />
<polygon points="383.0,257.0 259.0,256.0 254.0,320.0 144.0,321.0 131.0,383.0 255.0,383.0 257.0,320.0 383.0,319.0" fill="#433530" opacity="0.95" />
<polygon points="192.0,256.0 132.0,257.0 133.0,319.0 146.0,317.0" fill="#ddb799" />
<polygon points="0.0,194.0 4.0,255.0 130.0,253.0 127.0,192.0" fill="#bc9a8c" opacity="0.95" />
<polygon points="0.0,259.0 3.0,319.0 128.0,319.0 133.0,332.0 141.0,324.0 130.0,319.0 128.0,257.0" fill="#9d6554" opacity="0.95" />
<polygon points="383.0,191.0 257.0,192.0 256.0,253.0 194.0,257.0 149.0,317.0 254.0,319.0 259.0,255.0 383.0,255.0" fill="#9d6554" opacity="0.95" />
<polygon points="0.0,322.0 0.0,383.0 130.0,383.0 127.0,320.0" fill="#bd816f" opacity="0.95" />
<polygon points="256.0,322.0 256.0,383.0 383.0,383.0 383.0,320.0" fill="#bc9a8c" opacity="0.95" />
<polygon points="125.0,161.0 141.0,203.0 183.0,227.0 229.0,215.0 257.0,172.0 254.0,159.0" fill="#7af5f2" opacity="0.95" />
<polygon points="17.0,0.0 91.0,7.0 115.0,52.0 33.0,62.0 6.0,46.0 0.0,124.0 129.0,125.0 130.0,0.0" fill="#433530" opacity="0.95" />
<polygon points="131.0,129.0 133.0,157.0 255.0,156.0 253.0,128.0" fill="#753332" opacity="0.95" />
<polygon points="131.0,196.0 133.0,255.0 255.0,254.0 253.0,201.0 229.0,229.0 195.0,237.0" fill="#753332" opacity="0.95" />
<polygon points="131.0,130.0 134.0,157.0 255.0,155.0 252.0,128.0" fill="#753332" opacity="0.95" />
<polygon points="191.0,257.0 132.0,257.0 132.0,318.0 146.0,317.0" fill="#ddb799" opacity="0.95" />
<polygon points="131.0,199.0 134.0,255.0 255.0,253.0 252.0,204.0 224.0,232.0 195.0,237.0" fill="#753332" opacity="0.95" />
<polygon points="189.0,257.0 131.0,259.0 132.0,318.0 146.0,317.0 190.0,261.0" fill="#ddb799" opacity="0.95" />
<polygon points="254.0,189.0 214.0,225.0 174.0,227.0 195.0,236.0 222.0,232.0 245.0,212.0" fill="#28080e" />
<polygon points="253.0,194.0 224.0,220.0 180.0,231.0 195.0,236.0 224.0,231.0 242.0,216.0" fill="#28080e" opacity="0.95" />
<polygon points="250.0,201.0 245.0,200.0 224.0,220.0 187.0,233.0 209.0,236.0 224.0,231.0 242.0,216.0" fill="#28080e" opacity="0.95" />
<polygon points="337.0,47.0 335.0,49.0 336.0,52.0 338.0,54.0 338.0,59.0 340.0,61.0 347.0,56.0 338.0,47.0" fill="#bd816f" />
<polygon points="335.0,53.0 330.0,61.0 331.0,63.0 336.0,63.0 337.0,62.0 337.0,55.0" fill="#f7f2eb" />
<polygon points="217.0,66.0 216.0,67.0 217.0,69.0 222.0,73.0 223.0,72.0 223.0,69.0 225.0,67.0 224.0,66.0" fill="#bd816f" />
<polygon points="338.0,48.0 336.0,49.0 336.0,52.0 338.0,54.0 338.0,60.0 340.0,61.0 345.0,58.0 346.0,55.0" fill="#bd816f" opacity="0.95" />
<polygon points="2.0,21.0 0.0,23.0 0.0,26.0 2.0,28.0 3.0,27.0 3.0,24.0 4.0,23.0" fill="#753332" />
<polygon points="335.0,55.0 333.0,56.0 331.0,59.0 331.0,62.0 333.0,63.0 337.0,62.0 337.0,56.0" fill="#f7f2eb" opacity="0.95" />
<polygon points="341.0,51.0 338.0,53.0 338.0,58.0 341.0,60.0 346.0,57.0 346.0,55.0" fill="#bd816f" opacity="0.95" />
<polygon points="334.0,57.0 331.0,59.0 331.0,61.0 334.0,63.0 337.0,61.0 337.0,59.0" fill="#f7f2eb" opacity="0.95" />
<polygon points="219.0,66.0 218.0,67.0 217.0,67.0 217.0,69.0 220.0,71.0 221.0,70.0 222.0,70.0 222.0,67.0" fill="#bd816f" opacity="0.95" />
</svg>