<svg xmlns="http://www.w3.org/2000/svg" width="768" height="768" viewBox="0 0 384 384">
<rect width="384" height="384" fill="#8e6b5e"/>
<polygon points="4.0,130.0 2.0,319.0 114.0,316.0 91.0,162.0 49.0,129.0" fill="#aa7d6f" />
<polygon points="95.0,32.0 174.0,37.0 99.0,41.0 138.0,121.0 190.0,99.0 342.0,119.0 279.0,0.0 113.0,0.0" fill="#b6705a" />
<polygon points="80.0,146.0 107.0,320.0 149.0,319.0 190.0,266.0 253.0,314.0 249.0,290.0 350.0,280.0 352.0,234.0 311.0,194.0 189.0,242.0 145.0,207.0 142.0,128.0" fill="#b6705a" />
<polygon points="2.0,327.0 0.0,383.0 171.0,383.0 150.0,325.0" fill="#aa7d6f" />
<polygon points="2.0,41.0 3.0,126.0 57.0,126.0 51.0,134.0 91.0,146.0 144.0,124.0 92.0,34.0" fill="#6f4a41" />
<polygon points="1.0,132.0 0.0,383.0 170.0,383.0 151.0,326.0 92.0,323.0 115.0,304.0 89.0,159.0 48.0,129.0" fill="#aa7d6f" opacity="0.95" />
<polygon points="113.0,0.0 101.0,53.0 136.0,120.0 190.0,99.0 342.0,119.0 325.0,59.0 279.0,0.0" fill="#b6705a" opacity="0.95" />
<polygon points="333.0,91.0 339.0,122.0 244.0,115.0 267.0,188.0 239.0,227.0 141.0,191.0 199.0,243.0 300.0,190.0 352.0,232.0 338.0,292.0 249.0,291.0 247.0,320.0 383.0,320.0 383.0,133.0" fill="#6f4a41" />
<polygon points="114.0,0.0 141.0,125.0 83.0,154.0 115.0,318.0 190.0,266.0 253.0,314.0 339.0,290.0 312.0,195.0 199.0,244.0 134.0,169.0 185.0,100.0 342.0,119.0 279.0,0.0" fill="#b6705a" opacity="0.95" />
<polygon points="1.0,132.0 0.0,383.0 170.0,383.0 150.0,326.0 102.0,322.0 115.0,304.0 89.0,159.0 46.0,129.0" fill="#aa7d6f" opacity="0.95" />
<polygon points="250.0,326.0 268.0,347.0 325.0,383.0 383.0,383.0 383.0,325.0" fill="#aa7d6f" />
<polygon points="83.0,146.0 113.0,319.0 150.0,318.0 190.0,266.0 253.0,314.0 250.0,290.0 350.0,281.0 353.0,237.0 312.0,195.0 189.0,242.0 145.0,207.0 142.0,128.0" fill="#b6705a" opacity="0.95" />
<polygon points="0.0,42.0 0.0,124.0 50.0,126.0 90.0,146.0 140.0,125.0 98.0,38.0 42.0,30.0" fill="#6f4a41" opacity="0.95" />
<polygon points="232.0,108.0 179.0,132.0 140.0,182.0 150.0,200.0 200.0,221.0 217.0,194.0 177.0,186.0 211.0,188.0 230.0,152.0 236.0,167.0 260.0,151.0" fill="#60c7c8" />
<polygon points="333.0,91.0 339.0,122.0 245.0,115.0 267.0,188.0 239.0,227.0 143.0,197.0 199.0,243.0 299.0,191.0 349.0,227.0 350.0,282.0 250.0,291.0 247.0,320.0 383.0,320.0 383.0,133.0" fill="#6f4a41" opacity="0.95" />
<polygon points="168.0,294.0 153.0,330.0 162.0,351.0 188.0,368.0 173.0,373.0 176.0,383.0 210.0,383.0 209.0,368.0 225.0,362.0 225.0,383.0 247.0,383.0 237.0,301.0 208.0,284.0" fill="#292728" />
<polygon points="292.0,0.0 317.0,31.0 358.0,56.0 368.0,89.0 338.0,96.0 358.0,125.0 383.0,132.0 383.0,0.0" fill="#292728" />
<polygon points="137.0,122.0 97.0,38.0 0.0,48.0 1.0,124.0 50.0,126.0 91.0,146.0" fill="#6f4a41" opacity="0.95" />
<polygon points="333.0,91.0 339.0,122.0 246.0,116.0 267.0,188.0 239.0,227.0 145.0,202.0 199.0,243.0 299.0,191.0 350.0,229.0 348.0,283.0 250.0,291.0 248.0,320.0 383.0,320.0 383.0,133.0" fill="#6f4a41" opacity="0.95" />
<polygon points="251.0,326.0 268.0,347.0 325.0,383.0 383.0,383.0 383.0,325.0" fill="#aa7d6f" opacity="0.95" />
<polygon points="233.0,109.0 179.0,132.0 140.0,181.0 150.0,200.0 201.0,220.0 212.0,196.0 179.0,187.0 211.0,188.0 230.0,157.0 260.0,150.0" fill="#60c7c8" opacity="0.95" />
<polygon points="245.0,326.0 248.0,383.0 324.0,383.0 276.0,354.0" fill="#6f4a41" />
<polygon points="168.0,294.0 153.0,330.0 162.0,351.0 187.0,368.0 173.0,373.0 176.0,383.0 210.0,383.0 209.0,368.0 225.0,362.0 226.0,383.0 247.0,383.0 237.0,301.0 208.0,284.0" fill="#292728" opacity="0.95" />
<polygon points="251.0,327.0 268.0,347.0 325.0,383.0 383.0,383.0 383.0,325.0" fill="#aa7d6f" opacity="0.95" />
<polygon points="293.0,0.0 317.0,31.0 358.0,56.0 368.0,89.0 338.0,96.0 358.0,125.0 383.0,132.0 383.0,0.0" fill="#292728" opacity="0.95" />
<polygon points="234.0,110.0 179.0,132.0 170.0,157.0 141.0,182.0 150.0,200.0 200.0,220.0 203.0,192.0 229.0,160.0 260.0,149.0" fill="#60c7c8" opacity="0.95" />
<polygon points="112.0,0.0 89.0,0.0 51.0,24.0 6.0,6.0 3.0,32.0 99.0,30.0 112.0,14.0" fill="#aa7d6f" />
<polygon points="260.0,152.0 240.0,159.0 233.0,180.0 209.0,201.0 203.0,220.0 230.0,213.0 250.0,196.0 260.0,176.0" fill="#bee7e8" />
<polygon points="168.0,294.0 153.0,330.0 187.0,369.0 173.0,374.0 177.0,383.0 210.0,383.0 209.0,369.0 225.0,362.0 226.0,383.0 247.0,383.0 237.0,301.0 208.0,284.0" fill="#292728" opacity="0.95" />
<polygon points="230.0,109.0 202.0,101.0 159.0,143.0 137.0,154.0 140.0,179.0 160.0,167.0 179.0,131.0 222.0,120.0" fill="#149fa2" />
<polygon points="200.0,103.0 188.0,101.0 162.0,112.0 145.0,130.0 138.0,152.0 143.0,154.0" fill="#077a81" />
<polygon points="4.0,3.0 36.0,21.0 51.0,23.0 63.0,19.0 87.0,0.0 4.0,0.0" fill="#6f4a41" />
<polygon points="293.0,0.0 317.0,31.0 358.0,56.0 368.0,89.0 338.0,96.0 358.0,125.0 383.0,132.0 383.0,0.0" fill="#292728" opacity="0.95" />
<polygon points="280.0,0.0 292.0,33.0 324.0,58.0 350.0,49.0 340.0,39.0 317.0,32.0 291.0,0.0" fill="#6f4a41" />
<polygon points="245.0,326.0 248.0,383.0 324.0,383.0 276.0,354.0" fill="#6f4a41" opacity="0.95" />
<polygon points="265.0,168.0 251.0,197.0 236.0,211.0 210.0,222.0 185.0,222.0 207.0,233.0 242.0,224.0 263.0,199.0" fill="#292728" />
<polygon points="112.0,0.0 88.0,0.0 51.0,24.0 7.0,7.0 3.0,32.0 99.0,30.0 112.0,14.0" fill="#aa7d6f" opacity="0.95" />
<polygon points="261.0,153.0 240.0,159.0 233.0,180.0 209.0,201.0 203.0,219.0 226.0,215.0 250.0,196.0 260.0,176.0" fill="#bee7e8" opacity="0.95" />
<polygon points="229.0,108.0 201.0,102.0 137.0,155.0 139.0,177.0 160.0,167.0 179.0,131.0 222.0,120.0" fill="#149fa2" opacity="0.95" />
<polygon points="266.0,174.0 236.0,211.0 188.0,225.0 207.0,233.0 239.0,226.0 259.0,207.0" fill="#292728" opacity="0.95" />
<polygon points="112.0,0.0 89.0,0.0 51.0,24.0 7.0,7.0 0.0,29.0 91.0,32.0 107.0,22.0" fill="#aa7d6f" opacity="0.95" />
<polygon points="200.0,102.0 177.0,104.0 157.0,116.0 145.0,130.0 138.0,152.0 142.0,154.0 159.0,142.0" fill="#077a81" opacity="0.95" />
<polygon points="260.0,153.0 240.0,159.0 231.0,183.0 209.0,201.0 204.0,219.0 226.0,215.0 250.0,196.0 260.0,176.0" fill="#bee7e8" opacity="0.95" />
<polygon points="229.0,108.0 202.0,102.0 137.0,157.0 139.0,177.0 160.0,167.0 179.0,131.0 222.0,120.0" fill="#149fa2" opacity="0.95" />
<polygon points="200.0,103.0 188.0,101.0 162.0,112.0 145.0,130.0 138.0,152.0 142.0,154.0" fill="#077a81" opacity="0.95" />
<polygon points="266.0,178.0 260.0,178.0 236.0,211.0 189.0,226.0 207.0,233.0 239.0,226.0 259.0,207.0" fill="#292728" opacity="0.95" />
<polygon points="340.0,51.0 332.0,57.0 331.0,63.0 337.0,72.0 348.0,75.0 351.0,73.0 350.0,67.0 355.0,64.0 355.0,57.0 349.0,51.0" fill="#f1eae5" />
<polygon points="175.0,284.0 194.0,279.0 213.0,283.0 216.0,280.0 206.0,274.0 192.0,273.0 180.0,276.0" fill="#e0cec7" />
<polygon points="232.0,169.0 220.0,184.0 209.0,190.0 184.0,189.0 196.0,194.0 215.0,192.0 229.0,181.0" fill="#077a81" />
<polygon points="340.0,51.0 332.0,57.0 331.0,63.0 337.0,72.0 348.0,75.0 351.0,73.0 350.0,66.0 354.0,64.0 354.0,54.0 349.0,51.0" fill="#f1eae5" opacity="0.95" />
<polygon points="326.0,66.0 323.0,70.0 322.0,76.0 327.0,87.0 329.0,88.0 333.0,83.0 334.0,77.0" fill="#e0cec7" />
<polygon points="352.0,66.0 351.0,68.0 353.0,73.0 350.0,76.0 350.0,79.0 353.0,84.0 357.0,86.0 364.0,81.0 359.0,73.0 360.0,71.0" fill="#60c7c8" />
<polygon points="340.0,51.0 332.0,57.0 331.0,63.0 337.0,72.0 348.0,75.0 351.0,73.0 350.0,67.0 354.0,63.0 354.0,55.0 349.0,51.0" fill="#f1eae5" opacity="0.95" />
<polygon points="215.0,276.0 214.0,277.0 218.0,283.0 216.0,285.0 231.0,294.0 232.0,293.0 229.0,287.0" fill="#ceb1a4" />
<polygon points="179.0,277.0 181.0,282.0 194.0,279.0 216.0,282.0 213.0,277.0 201.0,273.0 186.0,274.0" fill="#e0cec7" opacity="0.95" />
<polygon points="335.0,77.0 334.0,83.0 331.0,87.0 331.0,89.0 334.0,91.0 340.0,91.0 343.0,85.0 343.0,81.0 337.0,79.0" fill="#ceb1a4" />
<polygon points="231.0,174.0 227.0,174.0 220.0,184.0 204.0,191.0 204.0,193.0 208.0,194.0 221.0,189.0 229.0,181.0" fill="#077a81" opacity="0.95" />
<polygon points="177.0,280.0 175.0,279.0 171.0,281.0 162.0,292.0 163.0,293.0 166.0,292.0 174.0,285.0" fill="#f1eae5" />
<polygon points="326.0,68.0 323.0,70.0 322.0,77.0 324.0,78.0 326.0,85.0 329.0,87.0 333.0,83.0 333.0,76.0" fill="#e0cec7" opacity="0.95" />
<polygon points="179.0,278.0 182.0,282.0 194.0,279.0 209.0,282.0 214.0,280.0 213.0,277.0 201.0,273.0 186.0,274.0" fill="#e0cec7" opacity="0.95" />
<polygon points="365.0,84.0 363.0,83.0 355.0,88.0 356.0,90.0 359.0,91.0 366.0,87.0" fill="#bee7e8" />
<polygon points="354.0,67.0 352.0,68.0 353.0,74.0 350.0,76.0 350.0,79.0 353.0,84.0 357.0,86.0 363.0,82.0 363.0,77.0 360.0,75.0 359.0,70.0" fill="#60c7c8" opacity="0.95" />
<polygon points="336.0,78.0 334.0,79.0 334.0,83.0 331.0,89.0 334.0,91.0 339.0,91.0 341.0,90.0 343.0,81.0" fill="#ceb1a4" opacity="0.95" />
<polygon points="217.0,280.0 218.0,286.0 227.0,291.0 229.0,290.0 229.0,287.0 219.0,279.0" fill="#ceb1a4" opacity="0.95" />
<polygon points="356.0,68.0 353.0,70.0 350.0,79.0 353.0,82.0 353.0,84.0 357.0,86.0 363.0,82.0 363.0,78.0 360.0,75.0 359.0,70.0" fill="#60c7c8" opacity="0.95" />
<polygon points="326.0,69.0 323.0,71.0 322.0,76.0 324.0,78.0 326.0,85.0 329.0,87.0 333.0,83.0 333.0,76.0" fill="#e0cec7" opacity="0.95" />
<polygon points="173.0,142.0 175.0,144.0 175.0,145.0 171.0,150.0 169.0,148.0 170.0,147.0 171.0,144.0" fill="#60c7c8" />
<polygon points="339.0,79.0 335.0,80.0 331.0,89.0 334.0,91.0 340.0,90.0 343.0,85.0 343.0,82.0" fill="#ceb1a4" opacity="0.95" />
<polygon points="230.0,153.0 229.0,157.0 232.0,161.0 232.0,168.0 233.0,169.0 232.0,170.0 233.0,171.0 234.0,170.0 233.0,169.0 234.0,168.0 234.0,158.0 232.0,154.0" fill="#149fa2" />
<polygon points="365.0,84.0 363.0,83.0 356.0,87.0 356.0,90.0 359.0,91.0 365.0,88.0" fill="#bee7e8" opacity="0.95" />
<polygon points="333.0,74.0 342.0,79.0 347.0,79.0 348.0,78.0 347.0,76.0 341.0,78.0 334.0,73.0" fill="#292728" />
<polygon points="356.0,57.0 355.0,58.0 355.0,63.0 356.0,64.0 356.0,66.0 358.0,67.0 359.0,66.0 359.0,62.0 358.0,61.0 358.0,59.0" fill="#e0cec7" />
<polygon points="153.0,35.0 156.0,33.0 157.0,34.0 160.0,33.0 163.0,35.0 163.0,37.0 160.0,39.0 159.0,38.0 156.0,39.0 153.0,37.0" fill="#b6705a" opacity="0.95" />
<polygon points="175.0,281.0 173.0,280.0 171.0,281.0 165.0,287.0 165.0,289.0 167.0,290.0 171.0,288.0 174.0,285.0" fill="#f1eae5" opacity="0.95" />
<polygon points="142.0,35.0 146.0,33.0 149.0,35.0 149.0,37.0 145.0,39.0 142.0,37.0" fill="#b6705a" opacity="0.95" />
<polygon points="179.0,185.0 178.0,186.0 183.0,191.0 184.0,190.0 183.0,189.0 183.0,187.0 182.0,186.0" fill="#149fa2" />
<polygon points="221.0,281.0 218.0,283.0 218.0,285.0 222.0,288.0 225.0,286.0 225.0,284.0" fill="#ceb1a4" opacity="0.95" />
</svg>