<svg xmlns="http://www.w3.org/2000/svg" width="768" height="768" viewBox="0 0 384 384">
<rect width="384" height="384" fill="#926554"/>
<polygon points="0.0,0.0 0.0,383.0 172.0,383.0 134.0,88.0 160.0,118.0 169.0,58.0 175.0,133.0 205.0,55.0 215.0,153.0 216.0,53.0 268.0,185.0 241.0,383.0 383.0,383.0 383.0,0.0" fill="#97614e" />
<polygon points="0.0,0.0 0.0,383.0 172.0,383.0 138.0,67.0 172.0,134.0 218.0,75.0 235.0,114.0 238.0,57.0 241.0,383.0 383.0,383.0 383.0,0.0" fill="#97614e" opacity="0.95" />
<polygon points="0.0,0.0 0.0,383.0 172.0,383.0 138.0,67.0 172.0,134.0 235.0,112.0 238.0,57.0 241.0,383.0 383.0,383.0 383.0,0.0" fill="#97614e" opacity="0.95" />
<polygon points="240.0,59.0 230.0,177.0 151.0,175.0 140.0,66.0 132.0,187.0 180.0,230.0 249.0,194.0" fill="#97e6e6" />
<polygon points="255.0,115.0 255.0,217.0 202.0,253.0 209.0,383.0 240.0,383.0 223.0,274.0 266.0,213.0" fill="#603a2a" />
<polygon points="239.0,59.0 230.0,177.0 151.0,175.0 141.0,63.0 132.0,187.0 180.0,229.0 249.0,194.0" fill="#97e6e6" opacity="0.95" />
<polygon points="254.0,183.0 207.0,220.0 201.0,245.0 183.0,231.0 180.0,248.0 173.0,220.0 143.0,210.0 181.0,250.0 175.0,383.0 208.0,383.0 199.0,248.0 249.0,226.0" fill="#170b14" />
<polygon points="239.0,61.0 229.0,177.0 151.0,174.0 140.0,66.0 133.0,191.0 181.0,229.0 249.0,194.0" fill="#97e6e6" opacity="0.95" />
<polygon points="254.0,186.0 200.0,233.0 143.0,211.0 181.0,251.0 175.0,383.0 208.0,383.0 199.0,251.0 249.0,226.0" fill="#170b14" opacity="0.95" />
<polygon points="254.0,115.0 255.0,217.0 202.0,252.0 209.0,383.0 240.0,383.0 223.0,274.0 266.0,213.0" fill="#603a2a" opacity="0.95" />
<polygon points="254.0,191.0 199.0,233.0 144.0,213.0 181.0,251.0 175.0,383.0 208.0,383.0 199.0,252.0 249.0,226.0" fill="#170b14" opacity="0.95" />
<polygon points="255.0,116.0 255.0,217.0 202.0,254.0 209.0,383.0 240.0,383.0 223.0,274.0 266.0,213.0" fill="#603a2a" opacity="0.95" />
<polygon points="167.0,58.0 161.0,173.0 166.0,169.0" fill="#170b14" />
<polygon points="216.0,55.0 217.0,159.0 222.0,171.0 226.0,137.0" fill="#170b14" />
<polygon points="193.0,60.0 191.0,171.0 194.0,175.0" fill="#170b14" />
<polygon points="180.0,57.0 178.0,175.0 182.0,142.0" fill="#170b14" />
<polygon points="136.0,202.0 144.0,236.0 176.0,264.0 178.0,252.0 151.0,232.0 143.0,208.0" fill="#603a2a" />
<polygon points="150.0,119.0 152.0,175.0 156.0,176.0 159.0,169.0 161.0,120.0" fill="#603a2a" />
<polygon points="225.0,114.0 224.0,129.0 227.0,137.0 225.0,170.0 227.0,175.0 231.0,175.0 234.0,117.0" fill="#603a2a" />
<polygon points="218.0,78.0 217.0,159.0 221.0,171.0 224.0,169.0 226.0,137.0" fill="#170b14" opacity="0.95" />
<polygon points="166.0,80.0 160.0,142.0 162.0,173.0 166.0,169.0 168.0,131.0" fill="#170b14" opacity="0.95" />
<polygon points="135.0,204.0 140.0,228.0 150.0,245.0 177.0,263.0 178.0,252.0 151.0,232.0 142.0,207.0" fill="#603a2a" opacity="0.95" />
<polygon points="226.0,114.0 225.0,170.0 226.0,174.0 230.0,175.0 234.0,116.0" fill="#603a2a" opacity="0.95" />
<polygon points="159.0,119.0 149.0,120.0 152.0,175.0 154.0,176.0 157.0,175.0 159.0,169.0 161.0,125.0" fill="#603a2a" opacity="0.95" />
<polygon points="184.0,134.0 183.0,166.0 186.0,167.0 189.0,165.0 189.0,142.0" fill="#f3e3d2" />
<polygon points="199.0,125.0 199.0,148.0 197.0,153.0 198.0,167.0 200.0,168.0 204.0,166.0 204.0,131.0" fill="#f3e3d2" />
<polygon points="194.0,96.0 192.0,97.0 191.0,171.0 194.0,173.0 196.0,172.0 196.0,97.0" fill="#170b14" opacity="0.95" />
<polygon points="136.0,205.0 140.0,228.0 150.0,245.0 177.0,263.0 178.0,252.0 151.0,232.0 142.0,207.0" fill="#603a2a" opacity="0.95" />
<polygon points="203.0,273.0 202.0,277.0 204.0,304.0 207.0,295.0 207.0,279.0" fill="#97614e" />
<polygon points="174.0,145.0 173.0,146.0 172.0,145.0 168.0,149.0 168.0,166.0 167.0,167.0 168.0,169.0 174.0,168.0 174.0,161.0 175.0,160.0 175.0,146.0" fill="#f3e3d2" />
<polygon points="201.0,128.0 198.0,129.0 199.0,148.0 197.0,149.0 198.0,167.0 200.0,168.0 204.0,166.0 204.0,131.0" fill="#f3e3d2" opacity="0.95" />
<polygon points="185.0,137.0 183.0,138.0 183.0,166.0 186.0,167.0 189.0,165.0 189.0,142.0" fill="#f3e3d2" opacity="0.95" />
<polygon points="184.0,123.0 183.0,124.0 183.0,130.0 185.0,132.0 185.0,134.0 189.0,140.0 190.0,139.0 190.0,128.0" fill="#d9beb0" />
<polygon points="173.0,146.0 169.0,147.0 168.0,149.0 168.0,168.0 170.0,169.0 174.0,168.0 175.0,147.0" fill="#f3e3d2" opacity="0.95" />
<polygon points="166.0,89.0 170.0,92.0 170.0,103.0 166.0,106.0 162.0,103.0 162.0,92.0" fill="#97614e" opacity="0.95" />
<polygon points="175.0,171.0 174.0,170.0 168.0,170.0 165.0,174.0 161.0,175.0 166.0,177.0 172.0,177.0 175.0,175.0" fill="#c7e1df" />
<polygon points="206.0,83.0 209.0,85.0 209.0,94.0 206.0,96.0 203.0,94.0 203.0,85.0" fill="#97614e" opacity="0.95" />
<polygon points="186.0,140.0 183.0,142.0 183.0,165.0 186.0,167.0 189.0,165.0 189.0,142.0" fill="#f3e3d2" opacity="0.95" />
<polygon points="172.0,146.0 168.0,149.0 168.0,167.0 171.0,169.0 174.0,167.0 175.0,160.0 175.0,148.0" fill="#f3e3d2" opacity="0.95" />
<polygon points="201.0,147.0 197.0,150.0 198.0,165.0 201.0,167.0 204.0,165.0 204.0,149.0" fill="#f3e3d2" opacity="0.95" />
<polygon points="212.0,134.0 210.0,135.0 210.0,152.0 214.0,153.0 216.0,152.0 216.0,149.0 214.0,146.0 215.0,136.0" fill="#97614e" opacity="0.95" />
<polygon points="212.0,166.0 211.0,167.0 211.0,172.0 212.0,173.0 218.0,173.0 219.0,172.0 217.0,170.0 216.0,167.0 215.0,166.0" fill="#c7e1df" />
<polygon points="188.0,167.0 184.0,168.0 183.0,169.0 183.0,172.0 182.0,173.0 183.0,174.0 189.0,174.0 190.0,173.0 190.0,170.0" fill="#c7e1df" />
<polygon points="185.0,119.0 183.0,121.0 190.0,127.0 191.0,126.0 190.0,121.0 189.0,120.0" fill="#ab9183" />
<polygon points="205.0,278.0 203.0,279.0 203.0,295.0 205.0,296.0 207.0,295.0 207.0,279.0" fill="#97614e" opacity="0.95" />
<polygon points="204.0,169.0 203.0,168.0 201.0,168.0 199.0,169.0 197.0,173.0 198.0,174.0 203.0,174.0 205.0,172.0 204.0,171.0" fill="#c7e1df" />
<polygon points="217.0,66.0 220.0,68.0 220.0,71.0 217.0,73.0 214.0,71.0 214.0,68.0" fill="#97614e" opacity="0.95" />
<polygon points="171.0,139.0 168.0,143.0 170.0,145.0 171.0,145.0 172.0,144.0 173.0,145.0 175.0,143.0 175.0,140.0 174.0,139.0" fill="#d9beb0" />
<polygon points="185.0,124.0 183.0,125.0 183.0,131.0 184.0,131.0 185.0,132.0 185.0,134.0 188.0,136.0 190.0,135.0 190.0,128.0" fill="#d9beb0" opacity="0.95" />
<polygon points="175.0,171.0 173.0,170.0 169.0,170.0 164.0,174.0 164.0,176.0 166.0,177.0 172.0,177.0 175.0,175.0" fill="#c7e1df" opacity="0.95" />
<polygon points="198.0,117.0 197.0,119.0 199.0,121.0 203.0,123.0 204.0,122.0 204.0,118.0 203.0,117.0 202.0,118.0 199.0,118.0" fill="#ab9183" />
<polygon points="212.0,154.0 211.0,155.0 211.0,157.0 212.0,158.0 215.0,158.0 216.0,157.0 216.0,155.0 215.0,154.0" fill="#ab9183" />
<polygon points="213.0,166.0 211.0,167.0 211.0,172.0 215.0,173.0 217.0,172.0 217.0,169.0 216.0,167.0" fill="#c7e1df" opacity="0.95" />
<polygon points="186.0,125.0 183.0,127.0 183.0,130.0 187.0,133.0 190.0,131.0 190.0,128.0" fill="#d9beb0" opacity="0.95" />
<polygon points="187.0,167.0 183.0,169.0 183.0,173.0 185.0,174.0 188.0,174.0 190.0,173.0 190.0,170.0 189.0,168.0" fill="#c7e1df" opacity="0.95" />
<polygon points="175.0,135.0 174.0,134.0 173.0,134.0 172.0,135.0 171.0,135.0 169.0,137.0 170.0,138.0 174.0,138.0 175.0,137.0" fill="#ab9183" />
<polygon points="170.0,170.0 166.0,173.0 166.0,175.0 169.0,177.0 172.0,177.0 175.0,175.0 175.0,172.0 172.0,170.0" fill="#c7e1df" opacity="0.95" />
<polygon points="212.0,161.0 211.0,162.0 211.0,164.0 212.0,165.0 215.0,165.0 216.0,164.0 216.0,163.0 214.0,161.0 213.0,162.0" fill="#f3e3d2" />
<polygon points="200.0,122.0 199.0,123.0 200.0,124.0 201.0,127.0 202.0,128.0 203.0,128.0 204.0,127.0 204.0,125.0" fill="#d9beb0" />
<polygon points="204.0,169.0 202.0,168.0 199.0,169.0 198.0,170.0 198.0,173.0 200.0,174.0 202.0,174.0 204.0,173.0" fill="#c7e1df" opacity="0.95" />
<polygon points="169.0,140.0 169.0,144.0 171.0,145.0 172.0,144.0 173.0,145.0 175.0,144.0 175.0,140.0 173.0,139.0 171.0,139.0" fill="#d9beb0" opacity="0.95" />
<polygon points="213.0,147.0 210.0,149.0 210.0,151.0 213.0,153.0 216.0,151.0 216.0,149.0" fill="#97614e" opacity="0.95" />
<polygon points="186.0,168.0 183.0,170.0 183.0,172.0 187.0,174.0 190.0,172.0 190.0,170.0" fill="#c7e1df" opacity="0.95" />
<polygon points="184.0,120.0 184.0,122.0 186.0,124.0 188.0,125.0 190.0,124.0 190.0,121.0 186.0,119.0" fill="#ab9183" opacity="0.95" />
</svg>