<svg xmlns="http://www.w3.org/2000/svg" width="768" height="768" viewBox="0 0 384 384">
<rect width="384" height="384" fill="#8a6658"/>
<polygon points="0.0,242.0 349.0,32.0 235.0,0.0 0.0,14.0" fill="#825340" />
<polygon points="0.0,241.0 348.0,31.0 240.0,0.0 0.0,14.0" fill="#825340" opacity="0.95" />
<polygon points="383.0,159.0 73.0,297.0 258.0,239.0 202.0,330.0 109.0,362.0 0.0,340.0 0.0,383.0 346.0,383.0 383.0,361.0" fill="#825340" />
<polygon points="276.0,179.0 213.0,114.0 0.0,243.0 0.0,292.0 119.0,259.0 0.0,313.0" fill="#c9d9e0" />
<polygon points="0.0,241.0 348.0,31.0 243.0,0.0 0.0,14.0" fill="#825340" opacity="0.95" />
<polygon points="259.0,241.0 0.0,322.0 0.0,339.0 106.0,361.0 175.0,343.0 245.0,292.0" fill="#a57462" />
<polygon points="383.0,159.0 123.0,280.0 259.0,240.0 205.0,328.0 109.0,362.0 0.0,340.0 0.0,383.0 382.0,362.0" fill="#825340" opacity="0.95" />
<polygon points="276.0,179.0 213.0,114.0 1.0,242.0 0.0,292.0" fill="#c9d9e0" opacity="0.95" />
<polygon points="383.0,159.0 175.0,261.0 260.0,242.0 205.0,328.0 109.0,362.0 0.0,340.0 0.0,383.0 382.0,362.0" fill="#825340" opacity="0.95" />
<polygon points="275.0,178.0 211.0,115.0 1.0,242.0 0.0,292.0 124.0,262.0" fill="#c9d9e0" opacity="0.95" />
<polygon points="259.0,241.0 0.0,322.0 0.0,339.0 106.0,361.0 175.0,343.0 243.0,295.0" fill="#a57462" opacity="0.95" />
<polygon points="259.0,242.0 0.0,322.0 0.0,339.0 106.0,361.0 175.0,343.0 245.0,292.0" fill="#a57462" opacity="0.95" />
<polygon points="383.0,141.0 79.0,293.0 265.0,223.0" fill="#4b2b20" />
<polygon points="266.0,86.0 220.0,111.0 259.0,157.0 269.0,159.0 286.0,140.0 310.0,128.0" fill="#2d5c70" />
<polygon points="338.0,48.0 268.0,83.0 313.0,125.0 356.0,97.0 326.0,65.0" fill="#fd8067" />
<polygon points="383.0,102.0 265.0,161.0 283.0,180.0 383.0,140.0 383.0,117.0 328.0,136.0" fill="#120808" />
<polygon points="236.0,0.0 345.0,27.0 350.0,35.0 341.0,49.0 383.0,27.0 383.0,0.0" fill="#4b2b20" />
<polygon points="266.0,86.0 220.0,111.0 251.0,149.0 268.0,159.0 309.0,127.0" fill="#2d5c70" opacity="0.95" />
<polygon points="383.0,141.0 119.0,279.0 273.0,219.0" fill="#4b2b20" opacity="0.95" />
<polygon points="335.0,49.0 269.0,82.0 314.0,125.0 355.0,98.0 326.0,65.0" fill="#fd8067" opacity="0.95" />
<polygon points="383.0,102.0 338.0,122.0 334.0,136.0 291.0,138.0 269.0,168.0 283.0,180.0 383.0,140.0" fill="#120808" opacity="0.95" />
<polygon points="118.0,259.0 2.0,292.0 0.0,309.0" fill="#829ba7" />
<polygon points="266.0,86.0 221.0,112.0 251.0,149.0 268.0,159.0 308.0,126.0" fill="#2d5c70" opacity="0.95" />
<polygon points="327.0,53.0 269.0,83.0 314.0,125.0 354.0,98.0 327.0,67.0" fill="#fd8067" opacity="0.95" />
<polygon points="383.0,102.0 338.0,122.0 332.0,137.0 291.0,138.0 269.0,168.0 283.0,180.0 383.0,140.0" fill="#120808" opacity="0.95" />
<polygon points="241.0,0.0 344.0,27.0 350.0,35.0 341.0,48.0 383.0,27.0 383.0,0.0" fill="#4b2b20" opacity="0.95" />
<polygon points="383.0,141.0 274.0,183.0 261.0,214.0 148.0,268.0 273.0,219.0" fill="#4b2b20" opacity="0.95" />
<polygon points="344.0,47.0 349.0,47.0 349.0,51.0 371.0,74.0 373.0,84.0 383.0,85.0 383.0,42.0 370.0,33.0" fill="#204356" />
<polygon points="335.0,54.0 330.0,60.0 332.0,65.0 359.0,93.0 365.0,92.0 372.0,84.0 372.0,78.0 346.0,50.0" fill="#c9d9e0" />
<polygon points="244.0,0.0 344.0,27.0 347.0,44.0 383.0,27.0 383.0,0.0" fill="#4b2b20" opacity="0.95" />
<polygon points="219.0,120.0 219.0,133.0 254.0,173.0 259.0,171.0" fill="#829ba7" />
<polygon points="111.0,261.0 2.0,292.0 0.0,309.0" fill="#829ba7" opacity="0.95" />
<polygon points="0.0,13.0 27.0,6.0 85.0,0.0 0.0,0.0" fill="#4b2b20" />
<polygon points="348.0,44.0 350.0,52.0 373.0,77.0 374.0,84.0 383.0,85.0 383.0,42.0 370.0,33.0" fill="#204356" opacity="0.95" />
<polygon points="383.0,362.0 370.0,369.0 365.0,369.0 347.0,383.0 383.0,383.0" fill="#4b2b20" />
<polygon points="95.0,269.0 2.0,292.0 0.0,309.0" fill="#829ba7" opacity="0.95" />
<polygon points="331.0,58.0 332.0,65.0 358.0,92.0 365.0,92.0 372.0,84.0 372.0,78.0 347.0,51.0 342.0,50.0" fill="#c9d9e0" opacity="0.95" />
<polygon points="383.0,89.0 340.0,106.0 314.0,126.0 308.0,123.0 313.0,129.0 330.0,124.0 348.0,108.0 383.0,95.0" fill="#c00604" />
<polygon points="209.0,127.0 182.0,144.0 176.0,141.0 196.0,126.0 199.0,128.0 205.0,123.0" fill="#c9d9e0" />
<polygon points="370.0,33.0 350.0,43.0 350.0,52.0 371.0,74.0 374.0,83.0 383.0,85.0 383.0,42.0" fill="#204356" opacity="0.95" />
<polygon points="383.0,96.0 348.0,109.0 314.0,133.0 329.0,130.0 353.0,111.0 383.0,101.0" fill="#5c0506" />
<polygon points="331.0,58.0 332.0,65.0 358.0,92.0 365.0,92.0 372.0,84.0 372.0,78.0 347.0,51.0 342.0,50.0" fill="#c9d9e0" opacity="0.95" />
<polygon points="219.0,125.0 219.0,133.0 252.0,171.0 258.0,170.0 227.0,129.0" fill="#829ba7" opacity="0.95" />
<polygon points="173.0,145.0 174.0,150.0 167.0,157.0 160.0,154.0 152.0,158.0 149.0,156.0 162.0,145.0 169.0,143.0" fill="#c9d9e0" />
<polygon points="383.0,89.0 340.0,106.0 313.0,128.0 383.0,95.0" fill="#c00604" opacity="0.95" />
<polygon points="0.0,13.0 27.0,6.0 63.0,4.0 70.0,0.0 0.0,0.0" fill="#4b2b20" opacity="0.95" />
<polygon points="221.0,118.0 225.0,126.0 249.0,153.0 251.0,151.0 230.0,124.0 223.0,117.0" fill="#120808" />
<polygon points="383.0,362.0 364.0,370.0 347.0,383.0 383.0,383.0" fill="#4b2b20" opacity="0.95" />
<polygon points="329.0,63.0 329.0,68.0 357.0,96.0 360.0,95.0" fill="#120808" />
<polygon points="383.0,113.0 358.0,120.0 333.0,133.0 383.0,116.0" fill="#c9d9e0" />
<polygon points="220.0,126.0 219.0,133.0 252.0,171.0 256.0,171.0 257.0,168.0 224.0,126.0" fill="#829ba7" opacity="0.95" />
<polygon points="284.0,98.0 283.0,99.0 307.0,122.0 308.0,121.0" fill="#825340" />
<polygon points="383.0,96.0 348.0,109.0 338.0,119.0 383.0,101.0" fill="#5c0506" opacity="0.95" />
<polygon points="222.0,120.0 244.0,149.0 248.0,152.0 250.0,151.0 226.0,120.0" fill="#120808" opacity="0.95" />
<polygon points="383.0,89.0 340.0,106.0 326.0,122.0 333.0,122.0 343.0,111.0 364.0,100.0 383.0,95.0" fill="#c00604" opacity="0.95" />
<polygon points="383.0,114.0 383.0,116.0 380.0,118.0 368.0,121.0 365.0,119.0 366.0,116.0 380.0,112.0" fill="#120808" opacity="0.95" />
<polygon points="381.0,30.0 377.0,32.0 375.0,34.0 379.0,38.0 383.0,40.0 383.0,30.0" fill="#c9d9e0" />
<polygon points="255.0,161.0 255.0,163.0 258.0,166.0 259.0,165.0 266.0,167.0 268.0,166.0 264.0,162.0 262.0,163.0 257.0,160.0" fill="#204356" />
<polygon points="365.0,119.0 364.0,122.0 359.0,124.0 357.0,123.0 354.0,126.0 351.0,124.0 352.0,121.0 356.0,121.0 359.0,118.0 362.0,117.0" fill="#120808" opacity="0.95" />
<polygon points="161.0,148.0 162.0,149.0 161.0,152.0 165.0,156.0 170.0,150.0 171.0,151.0 173.0,150.0 171.0,148.0 169.0,149.0 167.0,147.0 166.0,148.0 162.0,147.0" fill="#829ba7" />
<polygon points="331.0,126.0 327.0,125.0 314.0,131.0 314.0,133.0 319.0,134.0 329.0,130.0" fill="#5c0506" opacity="0.95" />
<polygon points="304.0,147.0 306.0,149.0 304.0,151.0 303.0,151.0 302.0,152.0 300.0,150.0 302.0,148.0 303.0,148.0" fill="#120808" />
<polygon points="295.0,151.0 297.0,153.0 295.0,155.0 294.0,155.0 293.0,156.0 291.0,154.0 293.0,152.0 294.0,152.0" fill="#120808" />
<polygon points="372.0,90.0 373.0,91.0 374.0,90.0 377.0,90.0 378.0,89.0 380.0,89.0 381.0,88.0 380.0,87.0 374.0,87.0 372.0,89.0" fill="#fd8067" />
<polygon points="255.0,161.0 255.0,163.0 258.0,165.0 261.0,164.0 266.0,167.0 268.0,166.0 268.0,164.0 264.0,162.0 262.0,163.0 257.0,160.0" fill="#204356" opacity="0.95" />
<polygon points="168.0,149.0 166.0,148.0 164.0,148.0 162.0,149.0 162.0,153.0 164.0,154.0 168.0,152.0" fill="#829ba7" opacity="0.95" />
<polygon points="330.0,127.0 327.0,125.0 320.0,128.0 319.0,131.0 322.0,133.0 329.0,130.0" fill="#5c0506" opacity="0.95" />
</svg>