<svg xmlns="http://www.w3.org/2000/svg" width="768" height="768" viewBox="0 0 384 384">
<rect width="384" height="384" fill="#896a61"/>
<polygon points="0.0,0.0 0.0,383.0 383.0,383.0 382.0,280.0 156.0,327.0 383.0,207.0 138.0,335.0 204.0,241.0 67.0,266.0 307.0,141.0 199.0,112.0 59.0,214.0 196.0,9.0 293.0,0.0" fill="#8d746a" />
<polygon points="0.0,0.0 0.0,383.0 383.0,383.0 382.0,280.0 157.0,330.0 383.0,207.0 137.0,335.0 203.0,242.0 68.0,267.0 307.0,141.0 199.0,112.0 60.0,216.0 196.0,9.0 293.0,0.0" fill="#8d746a" opacity="0.95" />
<polygon points="0.0,0.0 48.0,243.0 0.0,383.0 383.0,383.0 382.0,280.0 134.0,335.0 202.0,243.0 68.0,267.0 307.0,141.0 199.0,112.0 60.0,216.0 196.0,9.0 293.0,0.0" fill="#8d746a" opacity="0.95" />
<polygon points="264.0,18.0 245.0,41.0 262.0,51.0 273.0,83.0 300.0,96.0 295.0,122.0 315.0,131.0 337.0,124.0 344.0,74.0 326.0,65.0 337.0,49.0" fill="#fb5b63" />
<polygon points="383.0,186.0 127.0,254.0 231.0,232.0 143.0,325.0 246.0,232.0" fill="#140e0c" />
<polygon points="383.0,207.0 253.0,235.0 164.0,314.0 381.0,250.0" fill="#8d746a" opacity="0.95" />
<polygon points="383.0,258.0 158.0,328.0 377.0,275.0" fill="#140e0c" />
<polygon points="195.0,40.0 213.0,107.0 234.0,116.0 233.0,54.0" fill="#c9ac9a" />
<polygon points="219.0,9.0 194.0,38.0 236.0,53.0 255.0,23.0" fill="#efe9e4" />
<polygon points="198.0,9.0 168.0,38.0 170.0,70.0 192.0,99.0 211.0,107.0 192.0,39.0 211.0,15.0" fill="#fb5b63" />
<polygon points="383.0,69.0 351.0,131.0 331.0,138.0 336.0,125.0 307.0,149.0 274.0,201.0 370.0,125.0 383.0,105.0" fill="#140e0c" />
<polygon points="367.0,0.0 333.0,0.0 307.0,34.0 335.0,47.0" fill="#41312a" />
<polygon points="383.0,106.0 295.0,197.0 329.0,171.0 383.0,147.0" fill="#41312a" />
<polygon points="263.0,19.0 246.0,42.0 266.0,57.0 273.0,84.0 300.0,96.0 296.0,123.0 316.0,131.0 338.0,122.0 344.0,74.0 326.0,65.0 336.0,48.0" fill="#fb5b63" opacity="0.95" />
<polygon points="153.0,118.0 140.0,118.0 63.0,217.0 74.0,216.0" fill="#fcc78f" />
<polygon points="383.0,148.0 329.0,172.0 303.0,193.0 383.0,176.0" fill="#8d746a" />
<polygon points="313.0,133.0 188.0,105.0 79.0,219.0 199.0,111.0 258.0,136.0" fill="#41312a" />
<polygon points="182.0,83.0 76.0,222.0 185.0,106.0 200.0,104.0 183.0,96.0" fill="#140e0c" />
<polygon points="383.0,186.0 173.0,235.0 159.0,248.0 228.0,235.0 170.0,298.0 246.0,232.0 381.0,201.0" fill="#140e0c" opacity="0.95" />
<polygon points="263.0,19.0 247.0,42.0 266.0,57.0 273.0,83.0 300.0,97.0 296.0,122.0 315.0,131.0 337.0,122.0 344.0,74.0 326.0,65.0 336.0,49.0" fill="#fb5b63" opacity="0.95" />
<polygon points="383.0,2.0 339.0,47.0 368.0,59.0 367.0,56.0 383.0,41.0" fill="#41312a" />
<polygon points="383.0,258.0 159.0,329.0 377.0,275.0" fill="#140e0c" opacity="0.95" />
<polygon points="383.0,201.0 246.0,233.0 140.0,331.0 247.0,237.0" fill="#41312a" />
<polygon points="197.0,40.0 213.0,107.0 233.0,116.0 232.0,54.0" fill="#c9ac9a" opacity="0.95" />
<polygon points="383.0,70.0 351.0,131.0 307.0,149.0 273.0,199.0 291.0,196.0 370.0,125.0 383.0,105.0" fill="#140e0c" opacity="0.95" />
<polygon points="333.0,0.0 307.0,35.0 367.0,58.0 383.0,41.0 383.0,3.0 343.0,43.0 367.0,0.0" fill="#41312a" opacity="0.95" />
<polygon points="383.0,186.0 178.0,233.0 226.0,235.0 184.0,283.0 256.0,227.0 381.0,201.0" fill="#140e0c" opacity="0.95" />
<polygon points="219.0,10.0 195.0,38.0 234.0,53.0 254.0,22.0" fill="#efe9e4" opacity="0.95" />
<polygon points="369.0,70.0 362.0,78.0 345.0,76.0 339.0,124.0 344.0,134.0 369.0,79.0" fill="#517e57" />
<polygon points="198.0,9.0 168.0,38.0 171.0,76.0 184.0,82.0 190.0,98.0 209.0,106.0 192.0,36.0 211.0,14.0" fill="#fb5b63" opacity="0.95" />
<polygon points="274.0,86.0 271.0,94.0 273.0,112.0 293.0,121.0 298.0,96.0" fill="#c9ac9a" />
<polygon points="305.0,148.0 242.0,207.0 271.0,201.0 287.0,180.0 280.0,177.0" fill="#41312a" />
<polygon points="187.0,274.0 179.0,270.0 126.0,325.0 132.0,328.0 137.0,326.0" fill="#fcc78f" />
<polygon points="150.0,122.0 135.0,124.0 62.0,216.0 74.0,216.0" fill="#fcc78f" opacity="0.95" />
<polygon points="383.0,106.0 294.0,196.0 329.0,171.0 383.0,147.0" fill="#41312a" opacity="0.95" />
<polygon points="238.0,55.0 234.0,63.0 236.0,116.0 244.0,120.0 248.0,118.0 245.0,59.0" fill="#88ab85" />
<polygon points="383.0,148.0 329.0,172.0 304.0,193.0 383.0,176.0" fill="#8d746a" opacity="0.95" />
<polygon points="198.0,41.0 213.0,107.0 232.0,115.0 232.0,54.0" fill="#c9ac9a" opacity="0.95" />
<polygon points="0.0,214.0 0.0,285.0 8.0,287.0 22.0,276.0 13.0,270.0 14.0,261.0 22.0,261.0 15.0,246.0 25.0,246.0 14.0,232.0 22.0,225.0" fill="#c9ac9a" />
<polygon points="383.0,71.0 351.0,131.0 307.0,149.0 275.0,199.0 291.0,196.0 370.0,125.0 383.0,105.0" fill="#140e0c" opacity="0.95" />
<polygon points="254.0,52.0 248.0,70.0 251.0,117.0 262.0,107.0 263.0,83.0 256.0,75.0" fill="#41312a" />
<polygon points="332.0,0.0 302.0,0.0 291.0,15.0 292.0,18.0 297.0,15.0 299.0,17.0 295.0,29.0 305.0,34.0" fill="#140e0c" />
<polygon points="333.0,0.0 308.0,35.0 366.0,58.0 383.0,41.0 383.0,3.0 349.0,37.0 345.0,32.0 367.0,0.0" fill="#41312a" opacity="0.95" />
<polygon points="219.0,10.0 195.0,38.0 233.0,53.0 254.0,23.0" fill="#efe9e4" opacity="0.95" />
<polygon points="224.0,237.0 222.0,235.0 211.0,236.0 181.0,269.0 188.0,273.0" fill="#c9ac9a" />
<polygon points="198.0,9.0 168.0,38.0 171.0,76.0 184.0,82.0 192.0,99.0 208.0,105.0 192.0,36.0 210.0,14.0" fill="#fb5b63" opacity="0.95" />
<polygon points="177.0,83.0 170.0,81.0 144.0,113.0 145.0,121.0 159.0,113.0 179.0,86.0" fill="#f1a136" />
<polygon points="147.0,123.0 135.0,124.0 64.0,217.0 74.0,216.0" fill="#fcc78f" opacity="0.95" />
<polygon points="383.0,148.0 329.0,172.0 307.0,191.0 383.0,176.0" fill="#8d746a" opacity="0.95" />
<polygon points="339.0,50.0 328.0,64.0 346.0,72.0 356.0,57.0" fill="#efe9e4" />
<polygon points="383.0,177.0 235.0,214.0 383.0,185.0" fill="#592315" opacity="0.95" />
<polygon points="273.0,87.0 273.0,113.0 294.0,120.0 298.0,96.0" fill="#c9ac9a" opacity="0.95" />
<polygon points="367.0,74.0 361.0,78.0 345.0,76.0 339.0,124.0 344.0,133.0 369.0,79.0" fill="#517e57" opacity="0.95" />
<polygon points="0.0,214.0 0.0,285.0 7.0,287.0 13.0,282.0 14.0,261.0 22.0,241.0 14.0,240.0 14.0,229.0 22.0,224.0" fill="#c9ac9a" opacity="0.95" />
<polygon points="186.0,273.0 178.0,271.0 126.0,325.0 132.0,328.0 137.0,326.0" fill="#fcc78f" opacity="0.95" />
<polygon points="239.0,56.0 234.0,63.0 236.0,117.0 244.0,120.0 248.0,118.0 245.0,58.0" fill="#88ab85" opacity="0.95" />
<polygon points="357.0,58.0 349.0,71.0 364.0,75.0 371.0,63.0" fill="#57b480" />
<polygon points="258.0,48.0 256.0,51.0 264.0,81.0 271.0,83.0 268.0,63.0" fill="#b03c27" />
<polygon points="365.0,77.0 345.0,76.0 339.0,124.0 344.0,132.0 368.0,81.0" fill="#517e57" opacity="0.95" />
<polygon points="179.0,84.0 171.0,81.0 144.0,113.0 144.0,120.0 159.0,113.0" fill="#f1a136" opacity="0.95" />
<polygon points="335.0,124.0 327.0,121.0 314.0,133.0 305.0,147.0 308.0,148.0 313.0,145.0" fill="#592315" />
<polygon points="0.0,214.0 0.0,285.0 7.0,287.0 13.0,282.0 14.0,261.0 18.0,257.0 14.0,230.0 19.0,224.0" fill="#c9ac9a" opacity="0.95" />
<polygon points="185.0,273.0 178.0,271.0 126.0,325.0 132.0,328.0 137.0,326.0 184.0,278.0" fill="#fcc78f" opacity="0.95" />
<polygon points="240.0,56.0 234.0,63.0 236.0,116.0 244.0,120.0 248.0,117.0 245.0,59.0" fill="#88ab85" opacity="0.95" />
<polygon points="275.0,86.0 271.0,94.0 273.0,112.0 291.0,121.0 295.0,117.0 298.0,97.0" fill="#c9ac9a" opacity="0.95" />
<polygon points="383.0,250.0 307.0,275.0 381.0,256.0" fill="#592315" opacity="0.95" />
<polygon points="265.0,83.0 263.0,86.0 263.0,108.0 271.0,113.0 272.0,108.0 270.0,103.0 270.0,94.0 272.0,85.0" fill="#8d746a" />
<polygon points="340.0,50.0 334.0,55.0 329.0,65.0 345.0,72.0 355.0,60.0 355.0,56.0" fill="#efe9e4" opacity="0.95" />
<polygon points="176.0,83.0 171.0,81.0 144.0,113.0 145.0,119.0 159.0,113.0 177.0,89.0" fill="#f1a136" opacity="0.95" />
<polygon points="237.0,50.0 248.0,56.0 253.0,51.0 255.0,47.0 246.0,45.0 241.0,46.0" fill="#57b480" />
<polygon points="340.0,50.0 334.0,55.0 329.0,65.0 345.0,72.0 355.0,57.0" fill="#efe9e4" opacity="0.95" />
<polygon points="259.0,50.0 257.0,53.0 264.0,81.0 270.0,83.0 272.0,82.0 270.0,69.0" fill="#b03c27" opacity="0.95" />
<polygon points="104.0,255.0 69.0,266.0 75.0,266.0" fill="#efe9e4" />
<polygon points="43.0,237.0 47.0,240.0 46.0,242.0 49.0,245.0 43.0,251.0 43.0,256.0 40.0,258.0 33.0,252.0 34.0,251.0 32.0,249.0 37.0,246.0" fill="#8d746a" />
<polygon points="358.0,58.0 350.0,68.0 350.0,71.0 363.0,75.0 368.0,70.0 370.0,62.0" fill="#57b480" opacity="0.95" />
<polygon points="334.0,124.0 329.0,121.0 326.0,122.0 314.0,133.0 305.0,147.0 310.0,147.0 322.0,138.0" fill="#592315" opacity="0.95" />
<polygon points="168.0,296.0 135.0,330.0 135.0,333.0 141.0,329.0 141.0,326.0 169.0,297.0" fill="#592315" />
<polygon points="266.0,83.0 263.0,86.0 263.0,109.0 270.0,112.0 272.0,111.0 270.0,103.0 272.0,85.0" fill="#8d746a" opacity="0.95" />
<polygon points="359.0,58.0 354.0,62.0 350.0,71.0 363.0,75.0 368.0,70.0 370.0,63.0" fill="#57b480" opacity="0.95" />
<polygon points="271.0,204.0 268.0,202.0 248.0,206.0 243.0,211.0 247.0,213.0 270.0,207.0" fill="#592315" opacity="0.95" />
<polygon points="261.0,54.0 258.0,56.0 264.0,80.0 269.0,83.0 272.0,81.0 270.0,69.0 265.0,57.0" fill="#b03c27" opacity="0.95" />
<polygon points="257.0,60.0 256.0,61.0 258.0,64.0 257.0,75.0 258.0,78.0 262.0,81.0 263.0,79.0" fill="#592315" />
<polygon points="334.0,124.0 329.0,121.0 314.0,134.0 308.0,141.0 308.0,144.0 311.0,146.0 322.0,138.0 334.0,126.0" fill="#592315" opacity="0.95" />
<polygon points="238.0,49.0 239.0,52.0 248.0,55.0 253.0,51.0 254.0,47.0 246.0,45.0" fill="#57b480" opacity="0.95" />
<polygon points="383.0,177.0 361.0,182.0 358.0,186.0 361.0,188.0 368.0,185.0 383.0,185.0" fill="#592315" opacity="0.95" />
<polygon points="238.0,49.0 239.0,52.0 246.0,55.0 250.0,54.0 253.0,51.0 253.0,48.0 249.0,45.0 242.0,46.0" fill="#57b480" opacity="0.95" />
<polygon points="186.0,89.0 185.0,90.0 185.0,95.0 188.0,98.0 189.0,97.0 189.0,96.0 188.0,95.0 188.0,93.0 187.0,92.0 187.0,90.0" fill="#b03c27" />
<polygon points="259.0,70.0 257.0,71.0 257.0,75.0 258.0,76.0 258.0,78.0 260.0,79.0 262.0,78.0 262.0,75.0 261.0,74.0 261.0,71.0" fill="#592315" opacity="0.95" />
</svg>