<svg xmlns="http://www.w3.org/2000/svg" width="768" height="768" viewBox="0 0 384 384">
<rect width="384" height="384" fill="#91665c"/>
<polygon points="0.0,0.0 2.0,127.0 131.0,126.0 131.0,0.0" fill="#4e3332" />
<polygon points="0.0,191.0 0.0,256.0 131.0,252.0 129.0,192.0" fill="#c9a99a" />
<polygon points="383.0,191.0 257.0,192.0 257.0,251.0 383.0,255.0" fill="#c96d56" />
<polygon points="0.0,319.0 0.0,383.0 130.0,383.0 129.0,320.0" fill="#bf876e" />
<polygon points="256.0,0.0 256.0,126.0 381.0,127.0 325.0,69.0 339.0,50.0 301.0,2.0" fill="#a44444" />
<polygon points="256.0,257.0 257.0,319.0 383.0,319.0 383.0,256.0" fill="#4e3332" />
<polygon points="0.0,0.0 1.0,126.0 131.0,126.0 131.0,0.0" fill="#4e3332" opacity="0.95" />
<polygon points="132.0,321.0 132.0,383.0 255.0,383.0 254.0,320.0" fill="#4e3332" />
<polygon points="0.0,258.0 0.0,314.0 8.0,319.0 131.0,317.0 129.0,256.0" fill="#a44444" />
<polygon points="256.0,321.0 256.0,383.0 383.0,383.0 383.0,320.0" fill="#c9a99a" />
<polygon points="256.0,130.0 263.0,154.0 256.0,190.0 383.0,190.0 382.0,128.0" fill="#4e3332" />
<polygon points="252.0,67.0 197.0,67.0 206.0,96.0 173.0,82.0 177.0,67.0 133.0,65.0 130.0,128.0 1.0,128.0 0.0,189.0 129.0,191.0 151.0,118.0 192.0,98.0 245.0,117.0" fill="#bf876e" />
<polygon points="0.0,0.0 0.0,125.0 131.0,125.0 131.0,0.0" fill="#4e3332" opacity="0.95" />
<polygon points="179.0,257.0 187.0,319.0 255.0,318.0 254.0,256.0" fill="#8c6b54" />
<polygon points="132.0,0.0 132.0,63.0 178.0,66.0 170.0,78.0 206.0,95.0 197.0,66.0 251.0,65.0 254.0,129.0 255.0,0.0" fill="#c96d56" />
<polygon points="383.0,256.0 256.0,257.0 255.0,319.0 132.0,321.0 132.0,383.0 255.0,383.0 258.0,319.0 383.0,319.0" fill="#4e3332" opacity="0.95" />
<polygon points="0.0,191.0 0.0,256.0 130.0,255.0 128.0,192.0" fill="#c9a99a" opacity="0.95" />
<polygon points="256.0,0.0 256.0,126.0 380.0,126.0 325.0,69.0 337.0,47.0 300.0,0.0" fill="#a44444" opacity="0.95" />
<polygon points="383.0,191.0 258.0,192.0 257.0,251.0 383.0,255.0" fill="#c96d56" opacity="0.95" />
<polygon points="0.0,319.0 0.0,383.0 130.0,383.0 128.0,320.0" fill="#bf876e" opacity="0.95" />
<polygon points="0.0,258.0 0.0,313.0 9.0,319.0 131.0,317.0 128.0,256.0" fill="#a44444" opacity="0.95" />
<polygon points="256.0,321.0 256.0,383.0 383.0,383.0 383.0,320.0" fill="#c9a99a" opacity="0.95" />
<polygon points="301.0,0.0 339.0,49.0 356.0,63.0 383.0,61.0 383.0,0.0" fill="#4e3332" />
<polygon points="256.0,130.0 263.0,154.0 258.0,190.0 383.0,190.0 382.0,128.0" fill="#4e3332" opacity="0.95" />
<polygon points="259.0,143.0 245.0,165.0 222.0,157.0 203.0,161.0 200.0,174.0 187.0,163.0 139.0,170.0 138.0,178.0 167.0,213.0 213.0,219.0 253.0,191.0" fill="#93ebe6" />
<polygon points="383.0,256.0 257.0,257.0 254.0,319.0 132.0,322.0 132.0,383.0 255.0,383.0 259.0,319.0 383.0,319.0" fill="#4e3332" opacity="0.95" />
<polygon points="198.0,95.0 170.0,80.0 175.0,67.0 134.0,65.0 131.0,127.0 1.0,128.0 0.0,184.0 135.0,182.0 129.0,155.0 147.0,123.0" fill="#bf876e" opacity="0.95" />
<polygon points="256.0,0.0 256.0,125.0 378.0,126.0 325.0,69.0 337.0,47.0 300.0,0.0" fill="#a44444" opacity="0.95" />
<polygon points="383.0,191.0 259.0,192.0 257.0,251.0 383.0,255.0" fill="#c96d56" opacity="0.95" />
<polygon points="0.0,319.0 0.0,383.0 130.0,383.0 127.0,320.0" fill="#bf876e" opacity="0.95" />
<polygon points="132.0,0.0 133.0,64.0 175.0,66.0 171.0,80.0 197.0,91.0 205.0,81.0 199.0,66.0 255.0,65.0 255.0,0.0" fill="#c96d56" opacity="0.95" />
<polygon points="242.0,208.0 205.0,222.0 181.0,220.0 161.0,210.0 163.0,253.0 233.0,254.0" fill="#411b26" />
<polygon points="0.0,258.0 0.0,312.0 10.0,319.0 131.0,317.0 128.0,256.0" fill="#a44444" opacity="0.95" />
<polygon points="256.0,322.0 256.0,383.0 383.0,383.0 383.0,320.0" fill="#c9a99a" opacity="0.95" />
<polygon points="180.0,257.0 186.0,318.0 255.0,318.0 255.0,257.0" fill="#8c6b54" opacity="0.95" />
<polygon points="0.0,191.0 0.0,256.0 128.0,254.0 132.0,317.0 153.0,315.0 158.0,258.0 131.0,253.0 129.0,193.0" fill="#c9a99a" opacity="0.95" />
<polygon points="193.0,90.0 170.0,79.0 172.0,66.0 135.0,66.0 128.0,128.0 1.0,128.0 0.0,184.0 133.0,182.0 143.0,129.0" fill="#bf876e" opacity="0.95" />
<polygon points="261.0,157.0 244.0,165.0 205.0,160.0 201.0,173.0 189.0,163.0 137.0,173.0 162.0,210.0 208.0,220.0 247.0,199.0" fill="#93ebe6" opacity="0.95" />
<polygon points="132.0,0.0 133.0,64.0 172.0,65.0 173.0,81.0 199.0,91.0 205.0,78.0 198.0,67.0 255.0,63.0 255.0,0.0" fill="#c96d56" opacity="0.95" />
<polygon points="180.0,258.0 187.0,318.0 255.0,317.0 254.0,257.0" fill="#8c6b54" opacity="0.95" />
<polygon points="160.0,256.0 156.0,312.0 152.0,318.0 183.0,319.0 179.0,258.0" fill="#bf876e" />
<polygon points="133.0,256.0 132.0,317.0 148.0,319.0 155.0,312.0 159.0,259.0 157.0,256.0" fill="#c9a99a" />
<polygon points="256.0,135.0 220.0,103.0 252.0,135.0 243.0,151.0 194.0,135.0 136.0,169.0 222.0,156.0 245.0,164.0 257.0,156.0" fill="#65bcb4" />
<polygon points="241.0,209.0 205.0,222.0 160.0,212.0 163.0,253.0 234.0,253.0" fill="#411b26" opacity="0.95" />
<polygon points="242.0,133.0 195.0,99.0 203.0,113.0 174.0,119.0 138.0,152.0 154.0,151.0 197.0,125.0" fill="#30706a" />
<polygon points="261.0,159.0 233.0,165.0 215.0,158.0 201.0,173.0 187.0,163.0 141.0,170.0 138.0,178.0 162.0,210.0 208.0,220.0 247.0,199.0" fill="#93ebe6" opacity="0.95" />
<polygon points="254.0,192.0 242.0,206.0 236.0,254.0 255.0,253.0" fill="#752932" />
<polygon points="147.0,198.0 138.0,242.0 132.0,245.0 133.0,254.0 162.0,253.0 159.0,209.0" fill="#752932" />
<polygon points="251.0,135.0 208.0,100.0 240.0,138.0 197.0,126.0 137.0,157.0 166.0,157.0 194.0,134.0 243.0,150.0" fill="#438f86" />
<polygon points="241.0,211.0 205.0,222.0 162.0,213.0 163.0,252.0 233.0,253.0" fill="#411b26" opacity="0.95" />
<polygon points="357.0,65.0 374.0,101.0 383.0,112.0 383.0,65.0" fill="#a44444" />
<polygon points="132.0,256.0 132.0,318.0 148.0,319.0 155.0,312.0 158.0,257.0" fill="#c9a99a" opacity="0.95" />
<polygon points="197.0,68.0 197.0,73.0 206.0,78.0 203.0,87.0 210.0,98.0 240.0,113.0 247.0,109.0 252.0,67.0" fill="#bf876e" opacity="0.95" />
<polygon points="162.0,256.0 158.0,261.0 153.0,318.0 182.0,319.0 185.0,311.0 179.0,258.0" fill="#bf876e" opacity="0.95" />
<polygon points="257.0,149.0 253.0,140.0 241.0,151.0 194.0,135.0 163.0,159.0 137.0,160.0 136.0,169.0 222.0,156.0 244.0,164.0" fill="#65bcb4" opacity="0.95" />
<polygon points="204.0,111.0 193.0,100.0 172.0,105.0 151.0,121.0 156.0,125.0 147.0,126.0 140.0,142.0 150.0,143.0 176.0,117.0" fill="#1c323b" />
<polygon points="242.0,133.0 197.0,99.0 202.0,112.0 174.0,119.0 138.0,152.0 154.0,151.0 197.0,125.0" fill="#30706a" opacity="0.95" />
<polygon points="336.0,54.0 331.0,64.0 349.0,77.0 366.0,102.0 378.0,109.0 364.0,82.0 346.0,59.0" fill="#dad5d0" />
<polygon points="142.0,191.0 132.0,193.0 133.0,242.0 138.0,238.0 145.0,208.0 145.0,197.0" fill="#a44444" />
<polygon points="148.0,200.0 138.0,242.0 132.0,246.0 134.0,254.0 162.0,253.0 159.0,209.0" fill="#752932" opacity="0.95" />
<polygon points="197.0,69.0 206.0,78.0 203.0,87.0 213.0,99.0 223.0,98.0 239.0,112.0 247.0,109.0 251.0,67.0" fill="#bf876e" opacity="0.95" />
<polygon points="253.0,194.0 243.0,204.0 235.0,248.0 237.0,254.0 255.0,253.0" fill="#752932" opacity="0.95" />
<polygon points="242.0,133.0 199.0,99.0 199.0,112.0 174.0,119.0 138.0,151.0 154.0,151.0 197.0,125.0" fill="#30706a" opacity="0.95" />
<polygon points="251.0,135.0 228.0,112.0 239.0,138.0 197.0,126.0 137.0,157.0 163.0,158.0 194.0,134.0 243.0,150.0" fill="#438f86" opacity="0.95" />
<polygon points="257.0,149.0 252.0,141.0 241.0,151.0 194.0,135.0 169.0,156.0 139.0,159.0 136.0,167.0 156.0,172.0 222.0,156.0 244.0,164.0" fill="#65bcb4" opacity="0.95" />
<polygon points="357.0,66.0 374.0,101.0 383.0,110.0 383.0,65.0" fill="#a44444" opacity="0.95" />
<polygon points="149.0,201.0 138.0,242.0 132.0,246.0 135.0,254.0 159.0,254.0 163.0,249.0 159.0,209.0" fill="#752932" opacity="0.95" />
<polygon points="328.0,63.0 328.0,69.0 361.0,100.0 362.0,98.0 348.0,78.0" fill="#19181d" />
<polygon points="252.0,196.0 243.0,204.0 235.0,248.0 238.0,254.0 255.0,252.0 255.0,198.0" fill="#752932" opacity="0.95" />
<polygon points="251.0,135.0 245.0,128.0 237.0,138.0 197.0,126.0 144.0,157.0 163.0,158.0 194.0,134.0 241.0,150.0" fill="#438f86" opacity="0.95" />
<polygon points="202.0,109.0 192.0,100.0 170.0,106.0 161.0,113.0 160.0,124.0 145.0,129.0 141.0,143.0 151.0,142.0 174.0,118.0" fill="#1c323b" opacity="0.95" />
<polygon points="333.0,56.0 331.0,64.0 349.0,77.0 364.0,101.0 372.0,101.0 364.0,82.0 340.0,54.0" fill="#dad5d0" opacity="0.95" />
<polygon points="141.0,191.0 132.0,193.0 132.0,241.0 134.0,242.0 138.0,238.0 145.0,208.0 145.0,197.0" fill="#a44444" opacity="0.95" />
<polygon points="200.0,108.0 191.0,100.0 170.0,106.0 158.0,125.0 145.0,129.0 141.0,142.0 151.0,142.0 163.0,125.0" fill="#1c323b" opacity="0.95" />
<polygon points="335.0,55.0 331.0,64.0 350.0,79.0 365.0,101.0 370.0,101.0 365.0,84.0 346.0,59.0" fill="#dad5d0" opacity="0.95" />
<polygon points="327.0,65.0 328.0,69.0 350.0,91.0 355.0,91.0 347.0,77.0 339.0,73.0 331.0,65.0" fill="#19181d" opacity="0.95" />
<polygon points="253.0,99.0 250.0,101.0 246.0,119.0 253.0,126.0 255.0,125.0 255.0,100.0" fill="#c96d56" opacity="0.95" />
<polygon points="222.0,105.0 224.0,109.0 246.0,124.0 247.0,128.0 251.0,128.0 240.0,114.0 230.0,107.0" fill="#65bcb4" opacity="0.95" />
<polygon points="126.0,186.0 134.0,191.0 139.0,191.0 141.0,188.0 139.0,185.0 138.0,186.0 134.0,183.0 133.0,184.0 129.0,183.0" fill="#c96d56" />
<polygon points="252.0,102.0 249.0,104.0 246.0,119.0 252.0,124.0 255.0,122.0 255.0,104.0" fill="#c96d56" opacity="0.95" />
<polygon points="335.0,74.0 335.0,76.0 348.0,88.0 351.0,86.0 347.0,77.0 338.0,72.0" fill="#19181d" opacity="0.95" />
<polygon points="346.0,55.0 345.0,56.0 354.0,69.0 355.0,68.0" fill="#19181d" />
<polygon points="209.0,101.0 209.0,103.0 219.0,110.0 221.0,109.0 221.0,107.0 219.0,106.0 217.0,102.0 212.0,100.0" fill="#438f86" opacity="0.95" />
<polygon points="95.0,186.0 96.0,187.0 102.0,187.0 103.0,188.0 104.0,187.0 105.0,188.0 106.0,187.0 113.0,187.0 114.0,186.0 110.0,184.0 103.0,184.0 102.0,185.0 96.0,185.0" fill="#c96d56" />
<polygon points="368.0,104.0 367.0,105.0 373.0,111.0 374.0,110.0 374.0,108.0 373.0,107.0 373.0,106.0 371.0,104.0" fill="#19181d" />
<polygon points="157.0,117.0 158.0,118.0 159.0,117.0 160.0,117.0 162.0,119.0 161.0,120.0 161.0,121.0 159.0,123.0 155.0,119.0" fill="#1c323b" />
<polygon points="377.0,110.0 376.0,111.0 376.0,112.0 379.0,115.0 380.0,115.0 383.0,117.0 383.0,115.0 378.0,110.0" fill="#c9a99a" />
<polygon points="215.0,101.0 212.0,103.0 212.0,105.0 215.0,107.0 218.0,105.0 218.0,103.0" fill="#438f86" opacity="0.95" />
</svg>