<svg xmlns="http://www.w3.org/2000/svg" width="768" height="768" viewBox="0 0 384 384">
<rect width="384" height="384" fill="#8c6454"/>
<polygon points="253.0,148.0 206.0,124.0 221.0,137.0 190.0,164.0 164.0,131.0 130.0,179.0 159.0,217.0 207.0,224.0 247.0,193.0" fill="#1ddde9" />
<polygon points="64.0,121.0 31.0,190.0 79.0,195.0 23.0,265.0 105.0,268.0 45.0,292.0 97.0,369.0 151.0,370.0 181.0,300.0 109.0,294.0 176.0,264.0 92.0,178.0 130.0,118.0" fill="#b27156" opacity="0.95" />
<polygon points="143.0,46.0 59.0,80.0 84.0,116.0 30.0,146.0 78.0,196.0 23.0,264.0 66.0,268.0 109.0,373.0 181.0,315.0 110.0,179.0 111.0,112.0 177.0,98.0" fill="#b27156" opacity="0.95" />
<polygon points="317.0,118.0 242.0,120.0 289.0,178.0 218.0,263.0 267.0,268.0 219.0,274.0 270.0,295.0 220.0,318.0 272.0,347.0 221.0,371.0 294.0,368.0 305.0,268.0 383.0,242.0 313.0,211.0" fill="#b27156" opacity="0.95" />
<polygon points="178.0,266.0 154.0,243.0 56.0,261.0 117.0,224.0 47.0,220.0 124.0,217.0 128.0,181.0 0.0,248.0 23.0,267.0" fill="#b27156" />
<polygon points="228.0,56.0 212.0,100.0 279.0,116.0 243.0,121.0 272.0,219.0 219.0,262.0 215.0,366.0 284.0,371.0 307.0,269.0 383.0,218.0 316.0,218.0 342.0,182.0 295.0,176.0 286.0,113.0 332.0,107.0" fill="#b27156" opacity="0.95" />
<polygon points="200.0,0.0 268.0,17.0 273.0,42.0 223.0,57.0 310.0,62.0 310.0,85.0 337.0,90.0 326.0,104.0 383.0,111.0 381.0,85.0 330.0,64.0 315.0,17.0" fill="#824738" />
<polygon points="40.0,84.0 90.0,87.0 73.0,110.0 145.0,112.0 180.0,95.0 170.0,89.0 180.0,70.0 66.0,66.0 56.0,83.0" fill="#b27156" />
<polygon points="253.0,149.0 237.0,149.0 217.0,128.0 220.0,139.0 191.0,164.0 158.0,136.0 130.0,179.0 159.0,217.0 203.0,225.0 247.0,193.0" fill="#1ddde9" opacity="0.95" />
<polygon points="341.0,180.0 266.0,197.0 270.0,216.0 313.0,221.0 314.0,246.0 263.0,249.0 304.0,243.0 305.0,223.0 260.0,221.0 217.0,265.0 348.0,267.0 349.0,247.0 324.0,245.0 345.0,223.0 302.0,194.0" fill="#b27156" />
<polygon points="204.0,0.0 272.0,41.0 199.0,43.0 198.0,87.0 218.0,54.0 249.0,55.0 337.0,110.0 383.0,111.0 309.0,18.0" fill="#824738" opacity="0.95" />
<polygon points="36.0,58.0 112.0,52.0 114.0,15.0 130.0,49.0 184.0,61.0 183.0,43.0 131.0,40.0 163.0,21.0 118.0,16.0 197.0,2.0 92.0,0.0 45.0,35.0 71.0,36.0 76.0,15.0 77.0,40.0" fill="#824738" />
<polygon points="254.0,153.0 224.0,133.0 191.0,164.0 157.0,137.0 129.0,174.0 153.0,213.0 203.0,225.0 243.0,199.0" fill="#1ddde9" opacity="0.95" />
<polygon points="363.0,300.0 304.0,301.0 305.0,320.0 358.0,323.0 316.0,324.0 300.0,372.0 267.0,383.0 333.0,373.0 343.0,345.0 375.0,347.0 359.0,322.0" fill="#824738" />
<polygon points="196.0,0.0 91.0,0.0 55.0,16.0 42.0,67.0 0.0,86.0 53.0,83.0 111.0,35.0 183.0,59.0 182.0,43.0 136.0,42.0 157.0,24.0 139.0,16.0" fill="#824738" opacity="0.95" />
<polygon points="0.0,256.0 0.0,315.0 39.0,370.0 204.0,369.0 211.0,350.0 155.0,367.0 177.0,374.0 95.0,373.0 96.0,340.0 64.0,349.0 77.0,317.0 50.0,324.0 41.0,274.0" fill="#824738" opacity="0.95" />
<polygon points="131.0,118.0 80.0,118.0 80.0,130.0 64.0,121.0 29.0,149.0 71.0,152.0 58.0,157.0 59.0,175.0 98.0,174.0 99.0,156.0 89.0,153.0 126.0,152.0 133.0,133.0 98.0,128.0" fill="#b27156" />
<polygon points="45.0,292.0 59.0,297.0 58.0,320.0 66.0,311.0 126.0,320.0 129.0,298.0 69.0,296.0 112.0,293.0 117.0,279.0 122.0,291.0 162.0,293.0 169.0,275.0 80.0,273.0 77.0,287.0 74.0,273.0 47.0,272.0" fill="#b27156" />
<polygon points="383.0,246.0 296.0,288.0 352.0,294.0 302.0,302.0 315.0,347.0 297.0,373.0 211.0,383.0 301.0,383.0 373.0,346.0 352.0,295.0 383.0,294.0" fill="#824738" opacity="0.95" />
<polygon points="187.0,251.0 181.0,356.0 186.0,362.0 194.0,362.0 200.0,324.0 197.0,253.0" fill="#180915" />
<polygon points="10.0,325.0 32.0,344.0 20.0,350.0 39.0,371.0 57.0,371.0 58.0,380.0 133.0,383.0 132.0,374.0 94.0,374.0 93.0,350.0 61.0,349.0 71.0,342.0 70.0,324.0" fill="#824738" />
<polygon points="280.0,0.0 300.0,13.0 353.0,14.0 352.0,28.0 376.0,40.0 374.0,64.0 354.0,70.0 383.0,84.0 383.0,0.0" fill="#4e2a25" />
<polygon points="204.0,0.0 265.0,28.0 267.0,42.0 228.0,48.0 234.0,60.0 284.0,63.0 338.0,110.0 383.0,111.0 383.0,87.0 334.0,66.0 327.0,33.0 279.0,0.0" fill="#824738" opacity="0.95" />
<polygon points="280.0,0.0 300.0,13.0 323.0,14.0 315.0,22.0 336.0,41.0 340.0,60.0 358.0,63.0 356.0,71.0 383.0,84.0 383.0,0.0" fill="#4e2a25" opacity="0.95" />
<polygon points="295.0,168.0 321.0,176.0 359.0,174.0 360.0,154.0 371.0,152.0 369.0,173.0 383.0,175.0 383.0,145.0 371.0,144.0 367.0,131.0 315.0,131.0 314.0,150.0 332.0,153.0 303.0,158.0" fill="#824738" />
<polygon points="0.0,12.0 9.0,16.0 8.0,30.0 27.0,28.0 42.0,36.0 58.0,21.0 52.0,14.0 69.0,12.0 91.0,0.0 0.0,0.0" fill="#4e2a25" />
<polygon points="75.0,325.0 76.0,339.0 80.0,332.0 106.0,347.0 94.0,350.0 106.0,373.0 152.0,370.0 151.0,356.0 166.0,350.0 156.0,347.0 176.0,343.0 175.0,325.0 140.0,325.0 137.0,344.0 149.0,347.0 123.0,352.0 133.0,344.0 131.0,325.0" fill="#b27156" />
<polygon points="251.0,195.0 229.0,216.0 204.0,229.0 200.0,249.0 239.0,231.0 248.0,218.0" fill="#180915" />
<polygon points="227.0,112.0 202.0,100.0 176.0,101.0 151.0,114.0 137.0,132.0 153.0,133.0 180.0,116.0 223.0,117.0" fill="#002346" />
<polygon points="280.0,0.0 316.0,15.0 316.0,23.0 337.0,41.0 339.0,58.0 358.0,63.0 374.0,83.0 383.0,84.0 383.0,0.0" fill="#4e2a25" opacity="0.95" />
<polygon points="383.0,350.0 372.0,352.0 371.0,375.0 366.0,373.0 368.0,351.0 349.0,350.0 333.0,364.0 337.0,374.0 301.0,381.0 383.0,383.0" fill="#4e2a25" />
<polygon points="315.0,20.0 331.0,39.0 338.0,41.0 336.0,49.0 340.0,61.0 368.0,62.0 368.0,42.0 345.0,39.0 346.0,18.0" fill="#4e2a25" />
<polygon points="147.0,212.0 150.0,232.0 185.0,252.0 182.0,348.0 197.0,345.0 197.0,253.0 184.0,249.0 178.0,227.0" fill="#180915" opacity="0.95" />
<polygon points="239.0,165.0 228.0,197.0 198.0,214.0 165.0,206.0 146.0,182.0 150.0,176.0 171.0,200.0 200.0,205.0 223.0,190.0 232.0,164.0" fill="#1ddde9" />
<polygon points="187.0,32.0 186.0,85.0 178.0,98.0 203.0,99.0 195.0,79.0 195.0,34.0" fill="#ef0b2f" />
<polygon points="161.0,138.0 193.0,163.0 220.0,136.0 210.0,129.0 194.0,158.0 176.0,127.0" fill="#96ebf2" />
<polygon points="147.0,211.0 143.0,217.0 150.0,232.0 169.0,242.0 171.0,249.0 183.0,251.0 184.0,242.0 178.0,228.0" fill="#180915" />
<polygon points="383.0,350.0 349.0,350.0 333.0,364.0 337.0,374.0 302.0,383.0 383.0,383.0" fill="#4e2a25" opacity="0.95" />
<polygon points="249.0,196.0 204.0,229.0 195.0,252.0 177.0,227.0 144.0,215.0 185.0,253.0 185.0,344.0 199.0,342.0 197.0,251.0 239.0,231.0" fill="#180915" opacity="0.95" />
<polygon points="0.0,12.0 7.0,16.0 5.0,28.0 27.0,28.0 41.0,36.0 56.0,22.0 53.0,15.0 90.0,0.0 0.0,0.0" fill="#4e2a25" opacity="0.95" />
<polygon points="180.0,125.0 177.0,127.0 194.0,157.0 201.0,150.0 209.0,129.0 198.0,124.0" fill="#d8f7fa" />
<polygon points="237.0,176.0 214.0,200.0 195.0,207.0 150.0,188.0 167.0,206.0 197.0,213.0 219.0,204.0" fill="#d8f7fa" />
<polygon points="0.0,330.0 5.0,346.0 0.0,383.0 69.0,383.0 36.0,374.0 33.0,360.0 16.0,349.0 27.0,344.0 22.0,332.0 8.0,325.0" fill="#4e2a25" opacity="0.95" />
<polygon points="226.0,111.0 202.0,100.0 176.0,101.0 151.0,114.0 137.0,133.0 150.0,134.0 180.0,116.0 222.0,117.0" fill="#002346" opacity="0.95" />
<polygon points="252.0,196.0 229.0,216.0 206.0,227.0 199.0,248.0 208.0,249.0 237.0,233.0 248.0,218.0" fill="#180915" opacity="0.95" />
<polygon points="0.0,352.0 0.0,369.0 6.0,373.0 0.0,377.0 0.0,383.0 22.0,383.0 21.0,375.0 8.0,375.0 8.0,371.0 38.0,369.0 25.0,353.0 18.0,350.0" fill="#4e2a25" />
<polygon points="57.0,261.0 70.0,251.0 93.0,257.0 93.0,244.0 115.0,243.0 61.0,242.0 56.0,251.0" fill="#b7937f" />
<polygon points="239.0,165.0 228.0,197.0 198.0,214.0 165.0,206.0 146.0,182.0 152.0,178.0 175.0,202.0 200.0,205.0 223.0,190.0 232.0,164.0" fill="#1ddde9" opacity="0.95" />
<polygon points="244.0,129.0 229.0,112.0 223.0,118.0 199.0,117.0 217.0,123.0 232.0,134.0" fill="#026277" />
<polygon points="286.0,129.0 311.0,134.0 366.0,130.0 354.0,128.0 354.0,119.0 383.0,114.0 314.0,114.0 348.0,119.0 347.0,128.0" fill="#b7937f" />
<polygon points="226.0,111.0 202.0,100.0 176.0,101.0 151.0,114.0 138.0,132.0 150.0,134.0 180.0,116.0 222.0,117.0" fill="#002346" opacity="0.95" />
<polygon points="149.0,142.0 173.0,125.0 202.0,122.0 222.0,130.0 237.0,148.0 251.0,147.0 245.0,130.0 232.0,135.0 199.0,118.0 171.0,122.0" fill="#03a5b7" />
<polygon points="148.0,114.0 119.0,111.0 59.0,114.0 129.0,115.0 134.0,119.0" fill="#d0beaf" />
<polygon points="178.0,126.0 192.0,155.0 197.0,155.0 208.0,128.0 198.0,124.0" fill="#d8f7fa" opacity="0.95" />
<polygon points="188.0,33.0 185.0,38.0 187.0,77.0 181.0,97.0 200.0,99.0 195.0,79.0 195.0,35.0" fill="#ef0b2f" opacity="0.95" />
<polygon points="237.0,176.0 214.0,200.0 195.0,207.0 151.0,190.0 167.0,206.0 197.0,213.0 219.0,204.0" fill="#d8f7fa" opacity="0.95" />
<polygon points="239.0,167.0 228.0,197.0 198.0,214.0 165.0,206.0 146.0,182.0 152.0,178.0 175.0,202.0 200.0,205.0 223.0,190.0 233.0,165.0" fill="#1ddde9" opacity="0.95" />
<polygon points="146.0,147.0 140.0,151.0 130.0,151.0 130.0,166.0 139.0,165.0 143.0,162.0" fill="#03a5b7" />
<polygon points="152.0,134.0 142.0,136.0 136.0,133.0 131.0,148.0 135.0,150.0 143.0,149.0 152.0,137.0" fill="#026277" />
<polygon points="162.0,136.0 163.0,141.0 189.0,162.0 195.0,161.0 186.0,147.0 181.0,131.0 174.0,127.0" fill="#96ebf2" opacity="0.95" />
<polygon points="189.0,33.0 185.0,38.0 187.0,77.0 182.0,96.0 198.0,98.0 201.0,94.0 195.0,79.0 195.0,36.0" fill="#ef0b2f" opacity="0.95" />
<polygon points="57.0,247.0 59.0,256.0 70.0,251.0 94.0,254.0 94.0,248.0 88.0,242.0 62.0,242.0" fill="#b7937f" opacity="0.95" />
<polygon points="15.0,115.0 27.0,118.0 46.0,117.0 46.0,128.0 50.0,129.0 50.0,118.0 57.0,113.0 33.0,111.0 30.0,105.0 27.0,113.0" fill="#b7937f" />
<polygon points="278.0,270.0 244.0,269.0 245.0,292.0 235.0,296.0 249.0,295.0 249.0,273.0" fill="#d0beaf" />
<polygon points="184.0,124.0 179.0,129.0 189.0,151.0 195.0,156.0 201.0,150.0 208.0,128.0 198.0,124.0" fill="#d8f7fa" opacity="0.95" />
<polygon points="162.0,136.0 163.0,141.0 189.0,162.0 195.0,161.0 177.0,128.0 170.0,129.0" fill="#96ebf2" opacity="0.95" />
<polygon points="212.0,119.0 232.0,134.0 243.0,130.0 241.0,124.0 229.0,113.0 222.0,118.0" fill="#026277" opacity="0.95" />
<polygon points="236.0,179.0 214.0,200.0 195.0,207.0 177.0,204.0 155.0,188.0 152.0,192.0 173.0,209.0 197.0,213.0 219.0,204.0" fill="#d8f7fa" opacity="0.95" />
<polygon points="198.0,269.0 215.0,274.0 214.0,295.0 219.0,311.0 220.0,298.0 224.0,294.0 240.0,293.0 222.0,292.0 218.0,286.0 218.0,271.0" fill="#b7937f" />
<polygon points="342.0,177.0 342.0,192.0 345.0,195.0 368.0,196.0 370.0,207.0 371.0,193.0 345.0,190.0 347.0,179.0 365.0,178.0" fill="#b7937f" />
<polygon points="192.0,341.0 195.0,345.0 195.0,350.0 194.0,353.0 189.0,357.0 185.0,353.0 185.0,349.0 187.0,343.0 189.0,341.0" fill="#180915" />
<polygon points="244.0,131.0 231.0,136.0 231.0,139.0 239.0,149.0 251.0,147.0 248.0,135.0" fill="#03a5b7" opacity="0.95" />
<polygon points="57.0,248.0 60.0,255.0 70.0,251.0 91.0,255.0 94.0,253.0 94.0,249.0 87.0,242.0 63.0,242.0" fill="#b7937f" opacity="0.95" />
<polygon points="151.0,136.0 135.0,135.0 131.0,148.0 135.0,150.0 144.0,148.0" fill="#026277" opacity="0.95" />
<polygon points="215.0,120.0 216.0,123.0 232.0,134.0 243.0,130.0 241.0,124.0 230.0,114.0" fill="#026277" opacity="0.95" />
<polygon points="183.0,274.0 179.0,277.0 174.0,276.0 173.0,284.0 166.0,292.0 171.0,290.0 178.0,299.0 182.0,292.0 170.0,288.0 183.0,281.0" fill="#b7937f" />
<polygon points="130.0,151.0 129.0,165.0 135.0,166.0 141.0,164.0 144.0,159.0 145.0,151.0" fill="#03a5b7" opacity="0.95" />
<polygon points="211.0,129.0 206.0,135.0 203.0,143.0 202.0,151.0 204.0,152.0 219.0,139.0 219.0,135.0" fill="#96ebf2" opacity="0.95" />
<polygon points="158.0,269.0 171.0,273.0 171.0,285.0 174.0,275.0 172.0,273.0 184.0,271.0 183.0,268.0" fill="#d0beaf" />
<polygon points="23.0,116.0 27.0,118.0 31.0,116.0 34.0,118.0 49.0,118.0 56.0,112.0 32.0,110.0 23.0,114.0" fill="#b7937f" opacity="0.95" />
<polygon points="121.0,112.0 74.0,112.0 72.0,115.0 118.0,116.0" fill="#d0beaf" opacity="0.95" />
<polygon points="244.0,131.0 231.0,137.0 239.0,149.0 246.0,149.0 251.0,146.0 248.0,135.0" fill="#03a5b7" opacity="0.95" />
<polygon points="6.0,270.0 9.0,273.0 11.0,271.0 41.0,270.0 43.0,272.0 43.0,288.0 45.0,288.0 45.0,272.0 43.0,270.0 23.0,268.0" fill="#b7937f" />
<polygon points="149.0,136.0 135.0,135.0 131.0,147.0 135.0,150.0 144.0,148.0 150.0,140.0" fill="#026277" opacity="0.95" />
<polygon points="207.0,120.0 180.0,119.0 167.0,124.0 164.0,128.0 186.0,122.0 205.0,123.0" fill="#03a5b7" opacity="0.95" />
<polygon points="181.0,323.0 178.0,319.0 175.0,321.0 167.0,319.0 164.0,321.0 140.0,322.0 144.0,324.0 172.0,323.0 174.0,321.0 178.0,325.0" fill="#d0beaf" />
<polygon points="212.0,130.0 209.0,131.0 205.0,137.0 202.0,149.0 205.0,151.0 219.0,139.0 219.0,135.0" fill="#96ebf2" opacity="0.95" />
<polygon points="195.0,20.0 191.0,23.0 194.0,26.0 194.0,30.0 195.0,31.0 200.0,26.0" fill="#d0beaf" />
<polygon points="133.0,150.0 129.0,153.0 129.0,164.0 132.0,166.0 139.0,165.0 143.0,162.0 145.0,152.0 142.0,150.0" fill="#03a5b7" opacity="0.95" />
<polygon points="127.0,269.0 128.0,270.0 155.0,270.0 156.0,269.0 155.0,268.0 135.0,268.0 133.0,266.0 131.0,268.0" fill="#d0beaf" />
<polygon points="235.0,115.0 239.0,119.0 241.0,118.0 249.0,118.0 253.0,117.0 255.0,115.0 254.0,114.0 247.0,114.0 246.0,113.0 236.0,114.0" fill="#d0beaf" />
<polygon points="149.0,177.0 147.0,179.0 148.0,184.0 150.0,186.0 154.0,186.0 156.0,188.0 157.0,187.0 154.0,181.0" fill="#96ebf2" />
<polygon points="183.0,235.0 185.0,242.0 188.0,245.0 191.0,245.0 195.0,241.0 196.0,242.0 199.0,238.0 197.0,236.0 192.0,237.0 188.0,241.0 185.0,235.0" fill="#d0beaf" />
<polygon points="235.0,162.0 233.0,164.0 233.0,166.0 232.0,167.0 232.0,171.0 231.0,172.0 231.0,174.0 232.0,175.0 233.0,174.0 237.0,174.0 238.0,173.0 238.0,165.0" fill="#96ebf2" />
<polygon points="181.0,353.0 182.0,359.0 186.0,362.0 194.0,362.0 197.0,360.0 197.0,354.0 195.0,353.0 189.0,357.0 185.0,353.0" fill="#180915" opacity="0.95" />
<polygon points="157.0,66.0 159.0,68.0 163.0,68.0 164.0,69.0 170.0,67.0 171.0,68.0 175.0,66.0 174.0,65.0 158.0,65.0" fill="#d0beaf" />
<polygon points="185.0,233.0 187.0,237.0 189.0,236.0 190.0,237.0 196.0,236.0 200.0,234.0 199.0,232.0 196.0,233.0 187.0,233.0 186.0,232.0" fill="#d8f7fa" />
<polygon points="197.0,244.0 195.0,242.0 191.0,246.0 189.0,245.0 186.0,248.0 188.0,249.0 191.0,247.0 194.0,250.0 196.0,250.0 197.0,249.0" fill="#d8f7fa" />
<polygon points="235.0,163.0 233.0,164.0 233.0,166.0 232.0,167.0 232.0,173.0 234.0,174.0 238.0,173.0 238.0,165.0" fill="#96ebf2" opacity="0.95" />
<polygon points="197.0,356.0 194.0,354.0 189.0,357.0 185.0,355.0 182.0,357.0 182.0,359.0 186.0,362.0 189.0,361.0 194.0,362.0 197.0,360.0" fill="#180915" opacity="0.95" />
<polygon points="200.0,229.0 199.0,228.0 197.0,230.0 196.0,229.0 186.0,229.0 185.0,230.0 186.0,231.0 196.0,231.0 198.0,229.0 199.0,230.0" fill="#180915" />
<polygon points="147.0,179.0 147.0,182.0 149.0,185.0 151.0,186.0 155.0,185.0 155.0,183.0 152.0,179.0 150.0,178.0" fill="#96ebf2" opacity="0.95" />
<polygon points="195.0,243.0 192.0,245.0 192.0,249.0 194.0,250.0 197.0,249.0 197.0,244.0" fill="#d8f7fa" opacity="0.95" />
<polygon points="191.0,26.0 189.0,28.0 189.0,29.0 191.0,31.0 192.0,31.0 193.0,30.0 193.0,27.0 192.0,26.0" fill="#ef0b2f" />
<polygon points="235.0,165.0 232.0,167.0 232.0,172.0 235.0,174.0 238.0,172.0 238.0,167.0" fill="#96ebf2" opacity="0.95" />
<polygon points="186.0,234.0 186.0,236.0 188.0,237.0 189.0,236.0 190.0,237.0 193.0,236.0 193.0,234.0 191.0,233.0 189.0,234.0 188.0,233.0" fill="#d8f7fa" opacity="0.95" />
</svg>