<svg xmlns="http://www.w3.org/2000/svg" width="768" height="768" viewBox="0 0 384 384">
<rect width="384" height="384" fill="#956256"/>
<polygon points="130.0,1.0 132.0,128.0 201.0,128.0 212.0,114.0 226.0,128.0 383.0,128.0 383.0,64.0 329.0,65.0 343.0,54.0 299.0,0.0" fill="#a95a4d" />
<polygon points="22.0,0.0 14.0,24.0 30.0,36.0 5.0,46.0 0.0,125.0 129.0,127.0 129.0,31.0 121.0,36.0 129.0,0.0" fill="#673c38" />
<polygon points="2.0,256.0 2.0,383.0 121.0,383.0 99.0,363.0 108.0,353.0 100.0,323.0 130.0,318.0 130.0,257.0" fill="#a95a4d" />
<polygon points="0.0,194.0 2.0,255.0 130.0,254.0 129.0,192.0" fill="#b47965" />
<polygon points="131.0,257.0 132.0,319.0 255.0,318.0 252.0,256.0" fill="#b47965" />
<polygon points="256.0,257.0 257.0,319.0 383.0,319.0 383.0,257.0" fill="#673c38" />
<polygon points="131.0,322.0 131.0,383.0 255.0,383.0 254.0,320.0" fill="#673c38" />
<polygon points="0.0,189.0 128.0,191.0 131.0,129.0 212.0,114.0 383.0,128.0 383.0,64.0 330.0,65.0 340.0,51.0 299.0,0.0 130.0,0.0 131.0,127.0 3.0,129.0" fill="#a95a4d" opacity="0.95" />
<polygon points="256.0,321.0 256.0,383.0 383.0,383.0 383.0,320.0" fill="#b47965" />
<polygon points="126.0,161.0 139.0,201.0 186.0,228.0 231.0,214.0 257.0,169.0 255.0,159.0" fill="#6df7f6" />
<polygon points="0.0,131.0 2.0,191.0 131.0,189.0 119.0,160.0 130.0,156.0 129.0,129.0" fill="#a95a4d" />
<polygon points="201.0,157.0 266.0,160.0 242.0,204.0 254.0,228.0 257.0,191.0 383.0,189.0 382.0,128.0 224.0,128.0" fill="#673c38" />
<polygon points="0.0,189.0 127.0,191.0 132.0,129.0 212.0,114.0 383.0,128.0 383.0,64.0 330.0,65.0 299.0,0.0 130.0,0.0 131.0,126.0 4.0,129.0" fill="#a95a4d" opacity="0.95" />
<polygon points="257.0,193.0 258.0,240.0 269.0,252.0 292.0,247.0 306.0,255.0 383.0,255.0 383.0,192.0" fill="#b47965" />
<polygon points="0.0,194.0 3.0,255.0 130.0,256.0 131.0,319.0 254.0,319.0 254.0,257.0 131.0,255.0 128.0,192.0" fill="#b47965" opacity="0.95" />
<polygon points="1.0,257.0 0.0,383.0 121.0,383.0 100.0,364.0 108.0,340.0 99.0,322.0 130.0,318.0 130.0,257.0" fill="#a95a4d" opacity="0.95" />
<polygon points="383.0,257.0 258.0,256.0 255.0,319.0 132.0,321.0 131.0,383.0 255.0,383.0 256.0,320.0 383.0,319.0" fill="#673c38" opacity="0.95" />
<polygon points="17.0,11.0 21.0,37.0 0.0,61.0 1.0,126.0 128.0,127.0 133.0,158.0 197.0,157.0 199.0,129.0 130.0,127.0 128.0,0.0 27.0,0.0" fill="#673c38" opacity="0.95" />
<polygon points="256.0,320.0 256.0,383.0 383.0,383.0 383.0,320.0" fill="#b47965" opacity="0.95" />
<polygon points="301.0,0.0 345.0,54.0 341.0,63.0 383.0,63.0 383.0,0.0" fill="#673c38" />
<polygon points="126.0,161.0 139.0,201.0 186.0,228.0 231.0,214.0 257.0,169.0 254.0,159.0" fill="#6df7f6" opacity="0.95" />
<polygon points="0.0,258.0 0.0,383.0 121.0,383.0 100.0,364.0 108.0,353.0 102.0,323.0 130.0,317.0 130.0,258.0" fill="#a95a4d" opacity="0.95" />
<polygon points="0.0,194.0 4.0,255.0 131.0,258.0 131.0,318.0 103.0,324.0 122.0,383.0 133.0,318.0 254.0,319.0 256.0,383.0 383.0,383.0 383.0,320.0 259.0,320.0 253.0,257.0 132.0,255.0 125.0,191.0" fill="#b47965" opacity="0.95" />
<polygon points="383.0,257.0 259.0,256.0 254.0,319.0 132.0,321.0 131.0,383.0 255.0,383.0 257.0,320.0 383.0,319.0" fill="#673c38" opacity="0.95" />
<polygon points="131.0,193.0 132.0,255.0 252.0,251.0 254.0,231.0 241.0,206.0 215.0,225.0 189.0,230.0 156.0,218.0" fill="#7a3432" />
<polygon points="203.0,155.0 260.0,160.0 243.0,203.0 252.0,222.0 258.0,191.0 383.0,189.0 382.0,128.0 225.0,129.0" fill="#673c38" opacity="0.95" />
<polygon points="27.0,0.0 1.0,60.0 0.0,125.0 127.0,127.0 134.0,158.0 195.0,156.0 198.0,129.0 130.0,126.0 122.0,27.0 109.0,25.0 128.0,0.0" fill="#673c38" opacity="0.95" />
<polygon points="258.0,193.0 258.0,240.0 270.0,252.0 292.0,247.0 307.0,255.0 383.0,255.0 383.0,192.0" fill="#b47965" opacity="0.95" />
<polygon points="126.0,162.0 139.0,201.0 186.0,228.0 231.0,214.0 257.0,169.0 254.0,159.0" fill="#6df7f6" opacity="0.95" />
<polygon points="258.0,194.0 258.0,240.0 271.0,252.0 292.0,247.0 307.0,255.0 383.0,255.0 383.0,192.0" fill="#b47965" opacity="0.95" />
<polygon points="131.0,197.0 133.0,255.0 252.0,251.0 254.0,230.0 240.0,208.0 189.0,230.0 161.0,221.0" fill="#7a3432" opacity="0.95" />
<polygon points="131.0,200.0 134.0,255.0 252.0,250.0 254.0,231.0 240.0,209.0 189.0,230.0" fill="#7a3432" opacity="0.95" />
<polygon points="102.0,322.0 109.0,340.0 109.0,354.0 100.0,363.0 118.0,371.0 122.0,383.0 129.0,383.0 129.0,321.0" fill="#b47965" />
<polygon points="18.0,55.0 63.0,61.0 108.0,57.0 69.0,42.0 48.0,50.0 42.0,44.0 32.0,54.0 21.0,46.0" fill="#7a3432" />
<polygon points="219.0,116.0 212.0,115.0 205.0,123.0 194.0,150.0 200.0,156.0 224.0,126.0 224.0,121.0" fill="#f4bb8f" />
<polygon points="17.0,0.0 0.0,0.0 4.0,14.0 2.0,59.0 7.0,42.0 29.0,36.0 16.0,33.0" fill="#7a3432" />
<polygon points="216.0,115.0 209.0,117.0 194.0,150.0 199.0,155.0 224.0,126.0 223.0,119.0" fill="#f4bb8f" opacity="0.95" />
<polygon points="96.0,55.0 69.0,42.0 48.0,50.0 42.0,45.0 31.0,55.0 19.0,52.0 21.0,58.0 63.0,61.0" fill="#7a3432" opacity="0.95" />
<polygon points="16.0,0.0 0.0,0.0 0.0,9.0 4.0,14.0 0.0,24.0 0.0,44.0 3.0,46.0 18.0,37.0 14.0,26.0" fill="#7a3432" opacity="0.95" />
<polygon points="256.0,241.0 256.0,255.0 304.0,254.0 292.0,248.0 283.0,253.0 269.0,253.0" fill="#a95a4d" />
<polygon points="216.0,115.0 209.0,117.0 195.0,148.0 199.0,155.0 224.0,126.0 224.0,121.0" fill="#f4bb8f" opacity="0.95" />
<polygon points="94.0,54.0 68.0,42.0 43.0,48.0 33.0,56.0 19.0,52.0 22.0,58.0 89.0,59.0" fill="#7a3432" opacity="0.95" />
<polygon points="16.0,0.0 0.0,0.0 0.0,11.0 4.0,14.0 4.0,18.0 0.0,21.0 0.0,42.0 4.0,44.0 17.0,37.0 14.0,26.0" fill="#7a3432" opacity="0.95" />
<polygon points="58.0,321.0 60.0,319.0 85.0,319.0 88.0,322.0 86.0,324.0 72.0,325.0 71.0,324.0 61.0,324.0" fill="#a95a4d" />
<polygon points="337.0,54.0 335.0,54.0 330.0,61.0 333.0,65.0 335.0,65.0 342.0,58.0" fill="#f7f9f9" />
<polygon points="113.0,8.0 109.0,10.0 114.0,14.0 113.0,20.0 111.0,22.0 111.0,25.0 114.0,27.0 120.0,22.0 116.0,15.0 116.0,10.0" fill="#7a3432" />
<polygon points="256.0,244.0 256.0,254.0 258.0,255.0 268.0,254.0 268.0,252.0 264.0,246.0 258.0,243.0" fill="#a95a4d" opacity="0.95" />
<polygon points="336.0,54.0 334.0,55.0 331.0,59.0 331.0,63.0 334.0,65.0 341.0,59.0 341.0,57.0" fill="#f7f9f9" opacity="0.95" />
<polygon points="336.0,54.0 334.0,55.0 331.0,59.0 331.0,63.0 334.0,65.0 341.0,59.0 341.0,57.0" fill="#f7f9f9" opacity="0.95" />
</svg>