<svg xmlns="http://www.w3.org/2000/svg" width="768" height="768" viewBox="0 0 384 384">
<rect width="384" height="384" fill="#90635b"/>
<polygon points="0.0,0.0 0.0,383.0 383.0,383.0 383.0,0.0" fill="#925a4f" />
<polygon points="0.0,0.0 0.0,383.0 383.0,383.0 383.0,0.0" fill="#925a4f" opacity="0.95" />
<polygon points="0.0,0.0 0.0,383.0 383.0,383.0 383.0,0.0" fill="#925a4f" opacity="0.95" />
<polygon points="114.0,153.0 152.0,173.0 156.0,158.0 182.0,158.0 181.0,142.0 198.0,139.0 198.0,157.0 226.0,158.0 229.0,176.0 250.0,156.0 271.0,158.0 234.0,210.0 241.0,242.0 142.0,243.0 148.0,210.0" fill="#925a4f" />
<polygon points="116.0,154.0 149.0,219.0 233.0,219.0 269.0,158.0 247.0,159.0 234.0,177.0 226.0,159.0 156.0,159.0 153.0,177.0 135.0,155.0" fill="#5fecfa" />
<polygon points="114.0,153.0 152.0,171.0 197.0,139.0 198.0,157.0 227.0,159.0 230.0,176.0 250.0,156.0 269.0,159.0 234.0,210.0 241.0,241.0 143.0,243.0 148.0,209.0" fill="#925a4f" opacity="0.95" />
<polygon points="141.0,239.0 242.0,240.0 233.0,221.0 148.0,221.0" fill="#054c9d" />
<polygon points="116.0,154.0 150.0,219.0 234.0,218.0 267.0,159.0 251.0,157.0 230.0,177.0 225.0,159.0 157.0,159.0 152.0,173.0 138.0,157.0" fill="#5fecfa" opacity="0.95" />
<polygon points="114.0,154.0 151.0,169.0 196.0,139.0 198.0,156.0 226.0,159.0 231.0,176.0 264.0,156.0 234.0,210.0 242.0,239.0 142.0,242.0 148.0,210.0" fill="#925a4f" opacity="0.95" />
<polygon points="116.0,155.0 151.0,219.0 233.0,218.0 264.0,160.0 247.0,159.0 231.0,177.0 224.0,159.0 158.0,159.0 151.0,171.0 132.0,154.0" fill="#5fecfa" opacity="0.95" />
<polygon points="142.0,236.0 144.0,241.0 241.0,240.0 233.0,221.0 149.0,221.0" fill="#054c9d" opacity="0.95" />
<polygon points="142.0,236.0 145.0,241.0 241.0,239.0 232.0,221.0 149.0,221.0" fill="#054c9d" opacity="0.95" />
<polygon points="60.0,248.0 64.0,249.0 67.0,252.0 67.0,257.0 63.0,261.0 59.0,261.0 55.0,257.0 55.0,252.0" fill="#925a4f" />
<polygon points="40.0,249.0 45.0,249.0 49.0,254.0 48.0,258.0 45.0,261.0 40.0,261.0 36.0,257.0 36.0,253.0" fill="#925a4f" />
<polygon points="313.0,56.0 318.0,56.0 322.0,61.0 321.0,65.0 317.0,68.0 312.0,67.0 309.0,63.0 310.0,59.0" fill="#925a4f" />
<polygon points="337.0,55.0 342.0,60.0 342.0,62.0 338.0,67.0 335.0,68.0 330.0,65.0 329.0,60.0 332.0,56.0" fill="#925a4f" />
<polygon points="183.0,141.0 183.0,144.0 189.0,149.0 194.0,149.0 199.0,143.0 198.0,140.0 184.0,140.0" fill="#053381" />
<polygon points="184.0,152.0 186.0,158.0 196.0,158.0 197.0,157.0 197.0,152.0 194.0,150.0 187.0,150.0" fill="#054c9d" />
<polygon points="58.0,250.0 56.0,253.0 56.0,257.0 60.0,260.0 64.0,259.0 66.0,257.0 66.0,252.0 64.0,250.0" fill="#e5e981" />
<polygon points="40.0,250.0 37.0,253.0 37.0,257.0 41.0,260.0 44.0,260.0 47.0,258.0 47.0,252.0 45.0,250.0" fill="#e5e981" />
<polygon points="312.0,58.0 310.0,62.0 313.0,66.0 319.0,66.0 321.0,62.0 320.0,59.0 317.0,57.0" fill="#e5e981" />
<polygon points="334.0,56.0 330.0,60.0 330.0,62.0 333.0,66.0 338.0,66.0 340.0,64.0 341.0,61.0 338.0,57.0" fill="#f8beca" />
<polygon points="183.0,141.0 183.0,144.0 190.0,149.0 195.0,148.0 199.0,143.0 199.0,141.0 197.0,140.0 185.0,140.0" fill="#053381" opacity="0.95" />
<polygon points="184.0,152.0 185.0,157.0 187.0,158.0 195.0,158.0 197.0,157.0 197.0,152.0 194.0,150.0 187.0,150.0" fill="#054c9d" opacity="0.95" />
<polygon points="41.0,250.0 37.0,253.0 37.0,257.0 41.0,260.0 44.0,260.0 47.0,258.0 47.0,252.0 44.0,250.0" fill="#e5e981" opacity="0.95" />
<polygon points="59.0,250.0 57.0,251.0 56.0,253.0 56.0,257.0 58.0,259.0 62.0,260.0 66.0,257.0 66.0,252.0 63.0,250.0" fill="#e5e981" opacity="0.95" />
<polygon points="335.0,56.0 330.0,60.0 330.0,62.0 332.0,65.0 337.0,66.0 340.0,64.0 340.0,59.0" fill="#f8beca" opacity="0.95" />
<polygon points="311.0,59.0 311.0,64.0 314.0,66.0 318.0,66.0 320.0,65.0 320.0,59.0 319.0,58.0 314.0,57.0" fill="#e5e981" opacity="0.95" />
<polygon points="183.0,142.0 183.0,144.0 190.0,149.0 193.0,149.0 198.0,145.0 198.0,142.0 195.0,140.0 186.0,140.0" fill="#053381" opacity="0.95" />
<polygon points="41.0,250.0 37.0,253.0 37.0,257.0 41.0,260.0 44.0,260.0 47.0,258.0 47.0,252.0 44.0,250.0" fill="#e5e981" opacity="0.95" />
<polygon points="60.0,250.0 56.0,253.0 56.0,257.0 58.0,259.0 62.0,260.0 66.0,257.0 66.0,252.0 63.0,250.0" fill="#e5e981" opacity="0.95" />
<polygon points="184.0,152.0 185.0,156.0 188.0,158.0 194.0,158.0 197.0,156.0 197.0,152.0 194.0,150.0 187.0,150.0" fill="#054c9d" opacity="0.95" />
<polygon points="335.0,56.0 330.0,60.0 330.0,62.0 332.0,65.0 337.0,66.0 340.0,64.0 340.0,59.0" fill="#f8beca" opacity="0.95" />
<polygon points="314.0,57.0 311.0,59.0 311.0,64.0 314.0,66.0 317.0,66.0 320.0,64.0 320.0,59.0 317.0,57.0" fill="#e5e981" opacity="0.95" />
</svg>