<svg xmlns="http://www.w3.org/2000/svg" width="768" height="768" viewBox="0 0 384 384">
<rect width="384" height="384" fill="#8d6a61"/>
<polygon points="0.0,0.0 0.0,383.0 383.0,383.0 383.0,173.0 141.0,115.0 92.0,61.0 131.0,0.0" fill="#82695f" />
<polygon points="0.0,0.0 0.0,383.0 383.0,383.0 383.0,173.0 141.0,115.0 93.0,62.0 131.0,0.0" fill="#82695f" opacity="0.95" />
<polygon points="0.0,0.0 0.0,383.0 383.0,383.0 383.0,173.0 141.0,115.0 94.0,62.0 131.0,0.0" fill="#82695f" opacity="0.95" />
<polygon points="110.0,77.0 145.0,116.0 383.0,172.0 383.0,142.0" fill="#4c443e" />
<polygon points="132.0,49.0 329.0,95.0 328.0,71.0 269.0,76.0 291.0,35.0 271.0,24.0 263.0,72.0 229.0,63.0 277.0,3.0 141.0,0.0" fill="#c63e3e" />
<polygon points="114.0,82.0 145.0,116.0 383.0,172.0 383.0,142.0" fill="#4c443e" opacity="0.95" />
<polygon points="95.0,59.0 362.0,116.0 367.0,72.0 341.0,50.0 335.0,111.0" fill="#cdcb9d" />
<polygon points="133.0,49.0 329.0,95.0 328.0,71.0 269.0,76.0 291.0,35.0 271.0,24.0 265.0,70.0 229.0,64.0 261.0,0.0 143.0,0.0" fill="#c63e3e" opacity="0.95" />
<polygon points="116.0,85.0 148.0,117.0 383.0,172.0 383.0,142.0" fill="#4c443e" opacity="0.95" />
<polygon points="108.0,70.0 383.0,141.0 383.0,118.0 296.0,119.0" fill="#2c2623" />
<polygon points="279.0,0.0 371.0,74.0 366.0,121.0 383.0,117.0 383.0,58.0 318.0,0.0" fill="#080404" />
<polygon points="96.0,57.0 290.0,114.0 362.0,116.0 367.0,72.0 341.0,51.0 335.0,111.0" fill="#cdcb9d" opacity="0.95" />
<polygon points="280.0,2.0 272.0,22.0 292.0,35.0 280.0,42.0 282.0,67.0 269.0,69.0 299.0,82.0 316.0,34.0" fill="#b00b1e" />
<polygon points="110.0,39.0 334.0,100.0 333.0,67.0 324.0,99.0 118.0,46.0 140.0,0.0" fill="#e1735f" />
<polygon points="128.0,22.0 237.0,28.0 194.0,55.0 329.0,95.0 269.0,75.0 273.0,25.0 265.0,71.0 229.0,63.0 261.0,0.0" fill="#c63e3e" opacity="0.95" />
<polygon points="336.0,0.0 351.0,18.0 383.0,38.0 383.0,0.0" fill="#4c443e" />
<polygon points="109.0,70.0 383.0,141.0 383.0,118.0 296.0,119.0" fill="#2c2623" opacity="0.95" />
<polygon points="96.0,57.0 290.0,114.0 362.0,116.0 367.0,72.0 345.0,53.0 335.0,111.0" fill="#cdcb9d" opacity="0.95" />
<polygon points="280.0,0.0 371.0,74.0 366.0,121.0 383.0,117.0 383.0,58.0 318.0,0.0" fill="#080404" opacity="0.95" />
<polygon points="319.0,0.0 338.0,22.0 383.0,57.0 383.0,39.0 351.0,19.0 335.0,0.0" fill="#2c2623" />
<polygon points="281.0,3.0 272.0,22.0 292.0,35.0 281.0,40.0 283.0,63.0 271.0,71.0 298.0,82.0 316.0,33.0" fill="#b00b1e" opacity="0.95" />
<polygon points="281.0,0.0 371.0,74.0 366.0,120.0 383.0,117.0 383.0,58.0 318.0,0.0" fill="#080404" opacity="0.95" />
<polygon points="336.0,0.0 351.0,18.0 383.0,38.0 383.0,0.0" fill="#4c443e" opacity="0.95" />
<polygon points="233.0,106.0 383.0,141.0 383.0,118.0 334.0,124.0" fill="#2c2623" opacity="0.95" />
<polygon points="281.0,3.0 273.0,23.0 292.0,35.0 281.0,41.0 283.0,63.0 273.0,74.0 298.0,82.0 308.0,70.0 311.0,87.0 322.0,72.0 307.0,67.0 315.0,33.0" fill="#b00b1e" opacity="0.95" />
<polygon points="336.0,0.0 351.0,18.0 383.0,38.0 383.0,0.0" fill="#4c443e" opacity="0.95" />
<polygon points="319.0,0.0 338.0,22.0 383.0,57.0 383.0,39.0 351.0,19.0 335.0,0.0" fill="#2c2623" opacity="0.95" />
<polygon points="143.0,37.0 158.0,21.0 170.0,40.0 188.0,35.0 201.0,48.0 186.0,56.0 157.0,36.0 150.0,43.0" fill="#c63e3e" opacity="0.95" />
<polygon points="256.0,13.0 245.0,41.0 254.0,46.0 251.0,54.0 262.0,71.0 263.0,60.0 253.0,52.0 265.0,40.0 261.0,33.0 268.0,30.0 268.0,21.0 264.0,25.0" fill="#b00b1e" />
<polygon points="326.0,37.0 320.0,45.0 322.0,64.0 311.0,70.0 314.0,79.0 307.0,85.0 310.0,89.0 335.0,48.0" fill="#b00b1e" />
<polygon points="110.0,72.0 128.0,85.0 206.0,99.0" fill="#2c2623" opacity="0.95" />
<polygon points="199.0,46.0 186.0,56.0 179.0,44.0 169.0,47.0 164.0,43.0 167.0,34.0 172.0,41.0 176.0,38.0 180.0,41.0 190.0,33.0 192.0,42.0" fill="#c63e3e" />
<polygon points="319.0,0.0 338.0,22.0 383.0,57.0 383.0,39.0 351.0,19.0 335.0,0.0" fill="#2c2623" opacity="0.95" />
<polygon points="186.0,65.0 264.0,88.0 241.0,72.0 229.0,74.0 198.0,60.0" fill="#e1735f" opacity="0.95" />
<polygon points="161.0,65.0 182.0,75.0 225.0,82.0" fill="#eeb9a4" />
<polygon points="97.0,62.0 140.0,77.0 146.0,76.0" fill="#929b56" />
<polygon points="211.0,16.0 205.0,22.0 207.0,24.0 202.0,29.0 197.0,31.0 191.0,30.0 188.0,27.0 193.0,19.0 201.0,19.0 204.0,14.0 209.0,14.0" fill="#c63e3e" />
<polygon points="132.0,45.0 135.0,49.0 140.0,46.0 160.0,54.0 166.0,52.0 182.0,62.0 188.0,60.0 178.0,46.0 156.0,41.0" fill="#c63e3e" opacity="0.95" />
<polygon points="253.0,20.0 247.0,27.0 246.0,35.0 255.0,46.0 265.0,40.0 261.0,31.0 266.0,26.0 260.0,27.0" fill="#b00b1e" opacity="0.95" />
<polygon points="209.0,16.0 202.0,29.0 191.0,32.0 178.0,30.0 180.0,25.0 187.0,26.0 195.0,18.0 200.0,19.0 205.0,14.0" fill="#c63e3e" opacity="0.95" />
<polygon points="155.0,80.0 189.0,89.0 176.0,83.0" fill="#929b56" />
<polygon points="326.0,38.0 320.0,44.0 322.0,66.0 312.0,69.0 316.0,78.0 334.0,49.0 333.0,43.0" fill="#b00b1e" opacity="0.95" />
<polygon points="317.0,48.0 313.0,52.0 313.0,57.0 315.0,60.0 310.0,65.0 310.0,68.0 318.0,68.0 321.0,64.0 321.0,52.0" fill="#c63e3e" />
<polygon points="143.0,40.0 146.0,36.0 149.0,37.0 145.0,32.0 149.0,28.0 155.0,28.0 163.0,35.0 160.0,38.0 155.0,35.0 151.0,38.0 153.0,40.0 148.0,43.0" fill="#c63e3e" />
<polygon points="337.0,74.0 338.0,103.0 332.0,107.0 313.0,106.0 328.0,110.0 339.0,108.0" fill="#eeb9a4" />
<polygon points="243.0,44.0 240.0,50.0 247.0,55.0 250.0,50.0 251.0,45.0 250.0,44.0" fill="#080404" />
<polygon points="129.0,29.0 126.0,33.0 125.0,41.0 128.0,43.0 131.0,43.0 135.0,34.0 133.0,30.0" fill="#780b17" />
<polygon points="104.0,45.0 116.0,53.0 142.0,62.0 148.0,61.0 121.0,51.0 113.0,51.0" fill="#eeb9a4" />
<polygon points="133.0,51.0 136.0,55.0 163.0,62.0 177.0,61.0 173.0,56.0 160.0,55.0 142.0,48.0" fill="#e1735f" opacity="0.95" />
<polygon points="253.0,20.0 247.0,27.0 246.0,35.0 255.0,46.0 263.0,37.0 259.0,34.0 260.0,28.0" fill="#b00b1e" opacity="0.95" />
<polygon points="270.0,111.0 297.0,118.0 306.0,118.0" fill="#929b56" />
<polygon points="336.0,53.0 331.0,61.0 331.0,63.0 334.0,66.0 336.0,66.0 338.0,64.0 340.0,56.0" fill="#fcfcfc" />
<polygon points="190.0,34.0 188.0,36.0 188.0,40.0 183.0,44.0 183.0,52.0 186.0,55.0 191.0,44.0 189.0,38.0 191.0,35.0" fill="#b00b1e" />
<polygon points="171.0,0.0 164.0,0.0 161.0,3.0 160.0,2.0 156.0,7.0 160.0,15.0 163.0,11.0 162.0,10.0 163.0,7.0 166.0,4.0 169.0,4.0" fill="#e1735f" />
<polygon points="277.0,97.0 288.0,102.0 297.0,102.0 303.0,105.0 310.0,104.0 299.0,100.0" fill="#eeb9a4" />
<polygon points="365.0,92.0 363.0,94.0 364.0,110.0 362.0,119.0 360.0,121.0 361.0,122.0 365.0,121.0" fill="#929b56" />
<polygon points="326.0,38.0 318.0,46.0 322.0,50.0 322.0,61.0 325.0,63.0 329.0,60.0 334.0,49.0 333.0,43.0" fill="#b00b1e" opacity="0.95" />
<polygon points="128.0,10.0 119.0,20.0 113.0,31.0 114.0,32.0 120.0,26.0 129.0,11.0" fill="#e8947e" />
<polygon points="193.0,0.0 197.0,5.0 196.0,7.0 199.0,11.0 203.0,8.0 204.0,5.0 201.0,2.0 200.0,3.0 198.0,0.0" fill="#e1735f" />
<polygon points="140.0,0.0 134.0,0.0 126.0,16.0 126.0,21.0 122.0,23.0 120.0,29.0 124.0,29.0 126.0,22.0 133.0,17.0" fill="#e1735f" opacity="0.95" />
<polygon points="217.0,12.0 212.0,19.0 212.0,24.0 213.0,25.0 218.0,25.0 219.0,24.0 218.0,22.0 219.0,19.0 218.0,16.0 219.0,15.0" fill="#e1735f" />
<polygon points="223.0,21.0 222.0,24.0 223.0,26.0 227.0,26.0 233.0,30.0 237.0,29.0 233.0,24.0 232.0,25.0 229.0,24.0 225.0,19.0" fill="#e1735f" />
<polygon points="249.0,90.0 261.0,95.0 265.0,94.0 271.0,97.0 274.0,96.0" fill="#eeb9a4" />
<polygon points="261.0,41.0 257.0,46.0 257.0,48.0 255.0,51.0 256.0,54.0 258.0,53.0 260.0,47.0 263.0,44.0" fill="#780b17" />
<polygon points="261.0,0.0 262.0,3.0 265.0,6.0 267.0,5.0 270.0,9.0 278.0,0.0 276.0,0.0 269.0,5.0 264.0,1.0 265.0,0.0" fill="#e1735f" />
<polygon points="249.0,44.0 242.0,45.0 240.0,51.0 246.0,54.0 248.0,53.0 251.0,47.0 251.0,45.0" fill="#080404" opacity="0.95" />
<polygon points="132.0,30.0 129.0,30.0 126.0,33.0 125.0,39.0 126.0,42.0 128.0,43.0 132.0,42.0 134.0,37.0 134.0,31.0" fill="#780b17" opacity="0.95" />
<polygon points="337.0,54.0 334.0,55.0 331.0,61.0 332.0,65.0 334.0,66.0 338.0,64.0 340.0,56.0" fill="#fcfcfc" opacity="0.95" />
<polygon points="310.0,96.0 311.0,100.0 320.0,104.0 327.0,105.0 334.0,100.0 334.0,97.0 331.0,95.0 325.0,99.0 314.0,93.0" fill="#e1735f" opacity="0.95" />
<polygon points="235.0,82.0 236.0,83.0 241.0,83.0 246.0,87.0 247.0,86.0 240.0,79.0" fill="#e8947e" />
<polygon points="335.0,87.0 334.0,88.0 335.0,89.0 335.0,100.0 330.0,105.0 331.0,106.0 335.0,105.0 337.0,103.0 337.0,90.0" fill="#e8947e" />
<polygon points="192.0,71.0 193.0,72.0 197.0,72.0 203.0,75.0 205.0,74.0 198.0,70.0 193.0,70.0" fill="#e8947e" />
<polygon points="232.0,85.0 233.0,86.0 241.0,87.0 242.0,88.0 244.0,88.0 245.0,87.0 241.0,84.0 233.0,84.0" fill="#eeb9a4" />
<polygon points="210.0,76.0 214.0,78.0 218.0,77.0 230.0,83.0 232.0,82.0 229.0,82.0 222.0,77.0" fill="#e8947e" />
<polygon points="110.0,36.0 106.0,42.0 108.0,46.0 112.0,49.0 113.0,48.0 109.0,43.0 109.0,39.0 111.0,37.0" fill="#e8947e" />
<polygon points="131.0,30.0 126.0,33.0 125.0,37.0 126.0,41.0 129.0,43.0 132.0,41.0 134.0,37.0 134.0,32.0" fill="#780b17" opacity="0.95" />
<polygon points="337.0,54.0 333.0,57.0 331.0,61.0 331.0,63.0 335.0,66.0 338.0,64.0 340.0,56.0" fill="#fcfcfc" opacity="0.95" />
<polygon points="247.0,44.0 245.0,44.0 241.0,47.0 241.0,51.0 246.0,54.0 248.0,53.0 250.0,50.0 250.0,46.0" fill="#080404" opacity="0.95" />
<polygon points="199.0,20.0 197.0,23.0 199.0,25.0 202.0,25.0 203.0,24.0 203.0,23.0 201.0,21.0 200.0,21.0" fill="#080404" />
<polygon points="174.0,65.0 179.0,69.0 180.0,68.0 182.0,70.0 186.0,70.0 187.0,71.0 189.0,70.0 182.0,67.0 180.0,68.0 175.0,64.0" fill="#e8947e" />
<polygon points="320.0,33.0 319.0,33.0 317.0,35.0 317.0,37.0 318.0,38.0 319.0,38.0 322.0,36.0" fill="#e8947e" />
<polygon points="294.0,98.0 295.0,99.0 299.0,99.0 302.0,101.0 303.0,100.0 299.0,97.0 295.0,97.0" fill="#e8947e" />
<polygon points="121.0,50.0 123.0,52.0 125.0,51.0 128.0,54.0 131.0,55.0 133.0,54.0 127.0,51.0 126.0,52.0 122.0,49.0" fill="#e8947e" />
<polygon points="339.0,106.0 337.0,105.0 331.0,107.0 331.0,109.0 335.0,110.0 339.0,108.0" fill="#eeb9a4" opacity="0.95" />
<polygon points="254.0,107.0 258.0,109.0 260.0,108.0 262.0,110.0 264.0,109.0 266.0,111.0 268.0,110.0 267.0,109.0 265.0,110.0 263.0,108.0 261.0,109.0 256.0,106.0" fill="#929b56" />
<polygon points="179.0,71.0 179.0,73.0 183.0,75.0 185.0,74.0 185.0,72.0 181.0,70.0" fill="#eeb9a4" opacity="0.95" />
</svg>