<svg xmlns="http://www.w3.org/2000/svg" width="768" height="768" viewBox="0 0 384 384">
<rect width="384" height="384" fill="#8d6754"/>
<polygon points="319.0,145.0 216.0,118.0 114.0,188.0 188.0,228.0" fill="#6cc9e0" />
<polygon points="0.0,18.0 0.0,99.0 31.0,104.0 1.0,120.0 57.0,125.0 69.0,153.0 44.0,176.0 104.0,170.0 130.0,213.0 119.0,172.0 245.0,99.0 182.0,90.0 181.0,0.0" fill="#884020" />
<polygon points="383.0,161.0 300.0,178.0 216.0,232.0 169.0,229.0 247.0,265.0 185.0,291.0 199.0,331.0 383.0,244.0" fill="#884020" />
<polygon points="11.0,132.0 0.0,240.0 67.0,205.0 129.0,236.0 82.0,283.0 131.0,257.0 62.0,310.0 0.0,287.0 47.0,329.0 0.0,383.0 117.0,383.0 246.0,265.0 104.0,171.0 45.0,178.0 57.0,126.0" fill="#a96f59" />
<polygon points="383.0,245.0 119.0,383.0 169.0,383.0 383.0,279.0" fill="#351d13" />
<polygon points="0.0,18.0 0.0,99.0 29.0,104.0 0.0,120.0 58.0,126.0 45.0,177.0 102.0,170.0 130.0,213.0 119.0,172.0 244.0,100.0 182.0,91.0 181.0,0.0" fill="#884020" opacity="0.95" />
<polygon points="126.0,233.0 61.0,207.0 0.0,241.0 0.0,268.0 60.0,292.0 121.0,249.0" fill="#f1e1b8" />
<polygon points="318.0,144.0 216.0,118.0 114.0,188.0 187.0,227.0" fill="#6cc9e0" opacity="0.95" />
<polygon points="383.0,161.0 300.0,178.0 216.0,232.0 169.0,229.0 238.0,266.0 185.0,291.0 199.0,329.0 383.0,244.0" fill="#884020" opacity="0.95" />
<polygon points="0.0,18.0 0.0,99.0 28.0,103.0 0.0,119.0 59.0,128.0 54.0,180.0 101.0,170.0 110.0,195.0 244.0,99.0 182.0,90.0 181.0,0.0" fill="#884020" opacity="0.95" />
<polygon points="368.0,302.0 196.0,383.0 265.0,383.0 363.0,342.0" fill="#a96f59" />
<polygon points="2.0,136.0 0.0,240.0 67.0,205.0 129.0,236.0 83.0,280.0 131.0,257.0 62.0,310.0 0.0,287.0 46.0,328.0 0.0,383.0 190.0,337.0 184.0,291.0 237.0,266.0 102.0,171.0 45.0,178.0 58.0,127.0" fill="#a96f59" opacity="0.95" />
<polygon points="316.0,144.0 216.0,118.0 114.0,188.0 187.0,227.0" fill="#6cc9e0" opacity="0.95" />
<polygon points="383.0,161.0 300.0,178.0 216.0,232.0 170.0,229.0 229.0,269.0 185.0,291.0 199.0,329.0 383.0,244.0" fill="#884020" opacity="0.95" />
<polygon points="383.0,280.0 170.0,383.0 365.0,300.0 365.0,342.0 266.0,383.0 383.0,383.0" fill="#6d4c3c" />
<polygon points="292.0,0.0 295.0,29.0 354.0,54.0 363.0,78.0 383.0,88.0 383.0,0.0" fill="#292326" />
<polygon points="383.0,245.0 120.0,383.0 169.0,383.0 383.0,279.0" fill="#351d13" opacity="0.95" />
<polygon points="2.0,136.0 0.0,240.0 67.0,205.0 128.0,234.0 102.0,269.0 130.0,259.0 62.0,310.0 0.0,287.0 46.0,328.0 0.0,383.0 118.0,383.0 190.0,337.0 184.0,291.0 228.0,269.0 101.0,171.0 45.0,178.0 57.0,127.0" fill="#a96f59" opacity="0.95" />
<polygon points="126.0,233.0 61.0,207.0 0.0,241.0 0.0,268.0 60.0,292.0 121.0,249.0" fill="#f1e1b8" opacity="0.95" />
<polygon points="383.0,104.0 358.0,141.0 198.0,231.0 300.0,177.0 383.0,160.0" fill="#351d13" />
<polygon points="363.0,305.0 196.0,383.0 265.0,383.0 363.0,342.0" fill="#a96f59" opacity="0.95" />
<polygon points="383.0,245.0 120.0,383.0 169.0,383.0 383.0,279.0" fill="#351d13" opacity="0.95" />
<polygon points="246.0,13.0 217.0,13.0 194.0,20.0 195.0,73.0 225.0,66.0 227.0,54.0 245.0,38.0" fill="#eac4ba" />
<polygon points="126.0,233.0 61.0,207.0 0.0,241.0 0.0,268.0 60.0,292.0 121.0,249.0" fill="#f1e1b8" opacity="0.95" />
<polygon points="383.0,280.0 170.0,383.0 361.0,302.0 365.0,342.0 266.0,383.0 383.0,383.0" fill="#6d4c3c" opacity="0.95" />
<polygon points="292.0,0.0 295.0,29.0 354.0,54.0 363.0,78.0 383.0,88.0 383.0,0.0" fill="#292326" opacity="0.95" />
<polygon points="314.0,40.0 280.0,106.0 294.0,42.0 271.0,68.0 248.0,41.0 224.0,77.0 186.0,91.0 262.0,82.0 280.0,112.0" fill="#a96f59" />
<polygon points="367.0,315.0 352.0,306.0 196.0,383.0 265.0,383.0 365.0,341.0" fill="#a96f59" opacity="0.95" />
<polygon points="190.0,44.0 186.0,84.0 224.0,76.0 248.0,40.0 271.0,67.0 294.0,41.0 280.0,105.0 307.0,40.0 250.0,14.0 226.0,66.0 199.0,74.0" fill="#dda795" />
<polygon points="383.0,280.0 170.0,383.0 361.0,302.0 365.0,342.0 266.0,383.0 383.0,383.0" fill="#6d4c3c" opacity="0.95" />
<polygon points="292.0,0.0 295.0,29.0 354.0,54.0 363.0,78.0 383.0,88.0 383.0,0.0" fill="#292326" opacity="0.95" />
<polygon points="383.0,104.0 358.0,141.0 204.0,231.0 300.0,177.0 383.0,160.0" fill="#351d13" opacity="0.95" />
<polygon points="0.0,356.0 12.0,345.0 46.0,329.0 31.0,318.0 0.0,314.0" fill="#dda795" />
<polygon points="247.0,14.0 217.0,13.0 194.0,20.0 194.0,72.0 225.0,66.0 227.0,54.0 245.0,38.0" fill="#eac4ba" opacity="0.95" />
<polygon points="181.0,30.0 192.0,16.0 212.0,10.0 253.0,10.0 273.0,16.0 276.0,0.0 182.0,0.0" fill="#a96f59" />
<polygon points="372.0,109.0 322.0,142.0 231.0,111.0 219.0,116.0 318.0,150.0" fill="#1e99b0" />
<polygon points="0.0,17.0 74.0,0.0 0.0,0.0" fill="#6d4c3c" />
<polygon points="383.0,104.0 358.0,141.0 330.0,146.0 207.0,230.0 300.0,177.0 383.0,160.0" fill="#351d13" opacity="0.95" />
<polygon points="357.0,59.0 332.0,117.0 321.0,120.0 344.0,58.0 307.0,125.0 337.0,120.0 362.0,74.0" fill="#a96f59" />
<polygon points="251.0,14.0 246.0,39.0 263.0,45.0 270.0,66.0 296.0,44.0 279.0,105.0 306.0,39.0" fill="#dda795" opacity="0.95" />
<polygon points="295.0,44.0 272.0,68.0 248.0,41.0 224.0,77.0 186.0,91.0 262.0,82.0 265.0,107.0 280.0,112.0 287.0,102.0 276.0,105.0" fill="#a96f59" opacity="0.95" />
<polygon points="247.0,14.0 217.0,13.0 194.0,20.0 195.0,72.0 225.0,66.0 227.0,54.0 245.0,38.0" fill="#eac4ba" opacity="0.95" />
<polygon points="129.0,253.0 53.0,304.0 74.0,300.0 119.0,267.0" fill="#351d13" />
<polygon points="0.0,269.0 1.0,277.0 53.0,300.0 52.0,294.0" fill="#dda795" />
<polygon points="252.0,15.0 246.0,39.0 263.0,45.0 270.0,66.0 296.0,47.0 279.0,105.0 306.0,39.0" fill="#dda795" opacity="0.95" />
<polygon points="128.0,261.0 61.0,307.0 0.0,286.0 62.0,309.0" fill="#6d4c3c" />
<polygon points="227.0,82.0 246.0,101.0 265.0,108.0 263.0,103.0 268.0,88.0 262.0,83.0 242.0,86.0 235.0,80.0" fill="#6d4c3c" />
<polygon points="237.0,105.0 321.0,137.0 332.0,132.0 262.0,113.0 245.0,101.0" fill="#124859" />
<polygon points="0.0,356.0 9.0,352.0 12.0,345.0 45.0,331.0 43.0,325.0 31.0,318.0 0.0,314.0" fill="#dda795" opacity="0.95" />
<polygon points="338.0,53.0 313.0,93.0 308.0,115.0 338.0,61.0" fill="#eac4ba" />
<polygon points="353.0,88.0 351.0,95.0 354.0,98.0 363.0,100.0 371.0,106.0 378.0,102.0 383.0,103.0 383.0,92.0 367.0,82.0 360.0,81.0" fill="#884020" />
<polygon points="0.0,17.0 73.0,0.0 0.0,0.0" fill="#6d4c3c" opacity="0.95" />
<polygon points="277.0,0.0 278.0,13.0 275.0,16.0 276.0,18.0 291.0,27.0 291.0,0.0" fill="#6d4c3c" />
<polygon points="321.0,46.0 314.0,49.0 302.0,84.0 317.0,63.0" fill="#eac4ba" />
<polygon points="349.0,64.0 330.0,96.0 324.0,119.0 330.0,115.0" fill="#eac4ba" />
<polygon points="220.0,115.0 316.0,141.0 231.0,111.0" fill="#1e99b0" opacity="0.95" />
<polygon points="0.0,356.0 12.0,345.0 44.0,331.0 43.0,325.0 31.0,318.0 0.0,314.0" fill="#dda795" opacity="0.95" />
<polygon points="123.0,200.0 172.0,226.0 183.0,227.0" fill="#351d13" />
<polygon points="317.0,41.0 314.0,46.0 323.0,51.0 307.0,81.0 298.0,86.0 291.0,110.0 295.0,114.0 326.0,48.0" fill="#dda795" />
<polygon points="29.0,103.0 21.0,103.0 18.0,98.0 0.0,100.0 0.0,136.0 10.0,132.0 0.0,116.0 8.0,110.0 26.0,107.0" fill="#6d4c3c" />
<polygon points="355.0,56.0 334.0,50.0 339.0,61.0 306.0,118.0 315.0,115.0 345.0,57.0 352.0,65.0" fill="#dda795" />
<polygon points="127.0,257.0 59.0,304.0 74.0,300.0" fill="#351d13" opacity="0.95" />
<polygon points="372.0,109.0 324.0,140.0 319.0,148.0 325.0,148.0 368.0,119.0" fill="#1e99b0" opacity="0.95" />
<polygon points="135.0,215.0 161.0,232.0 165.0,232.0 171.0,226.0 155.0,217.0 151.0,220.0 148.0,217.0 150.0,215.0 143.0,211.0" fill="#6d4c3c" />
<polygon points="353.0,88.0 353.0,97.0 372.0,106.0 379.0,102.0 383.0,103.0 383.0,92.0 367.0,82.0 360.0,81.0" fill="#884020" opacity="0.95" />
<polygon points="185.0,82.0 224.0,76.0 238.0,49.0 228.0,54.0 222.0,70.0 197.0,75.0 196.0,50.0 190.0,45.0" fill="#dda795" opacity="0.95" />
<polygon points="269.0,184.0 200.0,226.0 210.0,225.0" fill="#167688" opacity="0.95" />
<polygon points="369.0,105.0 360.0,101.0 359.0,109.0 333.0,132.0 363.0,113.0" fill="#167688" />
<polygon points="357.0,100.0 351.0,101.0 344.0,117.0 335.0,129.0 358.0,109.0" fill="#124859" />
<polygon points="372.0,111.0 367.0,110.0 323.0,144.0 327.0,146.0 368.0,119.0" fill="#1e99b0" opacity="0.95" />
<polygon points="335.0,59.0 313.0,93.0 309.0,115.0 337.0,63.0" fill="#eac4ba" opacity="0.95" />
<polygon points="223.0,114.0 226.0,119.0 291.0,133.0 231.0,111.0" fill="#1e99b0" opacity="0.95" />
<polygon points="353.0,88.0 353.0,97.0 372.0,106.0 379.0,102.0 383.0,103.0 383.0,92.0 367.0,82.0 360.0,81.0" fill="#884020" opacity="0.95" />
<polygon points="366.0,130.0 357.0,131.0 350.0,138.0 348.0,136.0 342.0,143.0 346.0,145.0 358.0,140.0" fill="#292326" />
<polygon points="320.0,46.0 314.0,49.0 302.0,78.0 304.0,82.0 317.0,63.0 322.0,51.0" fill="#eac4ba" opacity="0.95" />
<polygon points="238.0,104.0 252.0,114.0 284.0,122.0 256.0,110.0 245.0,101.0" fill="#124859" opacity="0.95" />
<polygon points="336.0,79.0 325.0,96.0 324.0,106.0" fill="#884020" />
<polygon points="0.0,278.0 1.0,281.0 34.0,295.0" fill="#351d13" />
<polygon points="340.0,79.0 325.0,108.0 325.0,118.0 329.0,117.0 342.0,82.0" fill="#eac4ba" opacity="0.95" />
<polygon points="232.0,108.0 232.0,111.0 276.0,124.0 236.0,106.0" fill="#167688" opacity="0.95" />
<polygon points="319.0,46.0 314.0,49.0 304.0,73.0 307.0,77.0 321.0,54.0 322.0,48.0" fill="#eac4ba" opacity="0.95" />
<polygon points="252.0,105.0 262.0,112.0 276.0,115.0 271.0,114.0 259.0,106.0" fill="#292326" />
<polygon points="289.0,123.0 321.0,137.0 328.0,135.0 326.0,132.0 316.0,132.0" fill="#124859" opacity="0.95" />
<polygon points="358.0,101.0 351.0,101.0 345.0,116.0 350.0,116.0 358.0,109.0" fill="#124859" opacity="0.95" />
<polygon points="368.0,104.0 359.0,102.0 359.0,109.0 346.0,119.0 344.0,123.0 350.0,122.0 363.0,113.0" fill="#167688" opacity="0.95" />
<polygon points="365.0,131.0 359.0,131.0 352.0,137.0 347.0,138.0 344.0,144.0 346.0,145.0 359.0,139.0" fill="#292326" opacity="0.95" />
<polygon points="199.0,223.0 198.0,222.0 196.0,223.0 192.0,223.0 190.0,226.0 190.0,228.0 191.0,229.0 198.0,229.0 199.0,228.0" fill="#1e99b0" />
<polygon points="239.0,104.0 239.0,107.0 245.0,111.0 255.0,115.0 258.0,113.0 257.0,110.0 245.0,101.0" fill="#124859" opacity="0.95" />
<polygon points="355.0,100.0 351.0,102.0 347.0,109.0 346.0,114.0 349.0,116.0 358.0,109.0 358.0,102.0" fill="#124859" opacity="0.95" />
<polygon points="363.0,133.0 360.0,131.0 352.0,137.0 347.0,138.0 346.0,142.0 349.0,144.0 359.0,139.0 363.0,135.0" fill="#292326" opacity="0.95" />
<polygon points="364.0,102.0 362.0,102.0 359.0,104.0 358.0,112.0 361.0,114.0 367.0,108.0 367.0,104.0" fill="#167688" opacity="0.95" />
<polygon points="199.0,223.0 197.0,222.0 196.0,223.0 193.0,223.0 191.0,224.0 190.0,228.0 192.0,229.0 197.0,229.0 199.0,228.0" fill="#1e99b0" opacity="0.95" />
<polygon points="256.0,107.0 256.0,109.0 260.0,111.0 262.0,110.0 262.0,108.0 259.0,106.0" fill="#292326" opacity="0.95" />
<polygon points="236.0,106.0 233.0,108.0 233.0,110.0 237.0,113.0 240.0,111.0 240.0,109.0" fill="#167688" opacity="0.95" />
<polygon points="191.0,225.0 191.0,227.0 194.0,229.0 196.0,229.0 199.0,227.0 199.0,225.0 196.0,223.0 194.0,223.0" fill="#1e99b0" opacity="0.95" />
</svg>