<svg xmlns="http://www.w3.org/2000/svg" width="768" height="768" viewBox="0 0 384 384">
<rect width="384" height="384" fill="#8e6a58"/>
<polygon points="383.0,142.0 204.0,256.0 215.0,298.0 195.0,383.0 383.0,383.0" fill="#8a523b" />
<polygon points="0.0,0.0 0.0,155.0 81.0,166.0 132.0,130.0 120.0,169.0 236.0,97.0 176.0,78.0 158.0,98.0 197.0,0.0" fill="#8a523b" />
<polygon points="383.0,142.0 204.0,256.0 215.0,298.0 195.0,383.0 383.0,383.0" fill="#8a523b" opacity="0.95" />
<polygon points="176.0,268.0 163.0,254.0 53.0,323.0 22.0,315.0 0.0,284.0 0.0,383.0 144.0,383.0" fill="#b77157" />
<polygon points="0.0,0.0 0.0,155.0 80.0,165.0 131.0,130.0 120.0,168.0 236.0,97.0 160.0,94.0 197.0,0.0" fill="#8a523b" opacity="0.95" />
<polygon points="383.0,142.0 204.0,256.0 215.0,298.0 195.0,383.0 383.0,383.0" fill="#8a523b" opacity="0.95" />
<polygon points="383.0,0.0 300.0,0.0 370.0,76.0 352.0,127.0 37.0,311.0 162.0,249.0 194.0,383.0 203.0,256.0 383.0,141.0" fill="#361e16" />
<polygon points="159.0,98.0 176.0,77.0 238.0,92.0 272.0,74.0 281.0,87.0 285.0,66.0 323.0,58.0 321.0,29.0 298.0,0.0 198.0,0.0" fill="#b77157" />
<polygon points="233.0,154.0 1.0,263.0 0.0,280.0" fill="#d3e0e1" />
<polygon points="0.0,0.0 0.0,155.0 80.0,165.0 129.0,133.0 130.0,160.0 236.0,97.0 160.0,91.0 197.0,0.0" fill="#8a523b" opacity="0.95" />
<polygon points="260.0,129.0 207.0,128.0 126.0,173.0 143.0,196.0 234.0,154.0 150.0,211.0 165.0,225.0 260.0,159.0" fill="#7ec5c9" />
<polygon points="175.0,267.0 163.0,254.0 53.0,323.0 22.0,315.0 0.0,285.0 0.0,383.0 144.0,383.0" fill="#b77157" opacity="0.95" />
<polygon points="133.0,187.0 119.0,170.0 0.0,236.0 0.0,263.0" fill="#dbccb7" />
<polygon points="383.0,0.0 301.0,0.0 370.0,76.0 352.0,127.0 38.0,312.0 161.0,249.0 194.0,383.0 203.0,256.0 383.0,141.0" fill="#361e16" opacity="0.95" />
<polygon points="161.0,234.0 147.0,214.0 4.0,288.0 21.0,309.0" fill="#dbccb7" />
<polygon points="161.0,94.0 176.0,78.0 238.0,92.0 319.0,55.0 321.0,29.0 299.0,0.0 198.0,0.0" fill="#b77157" opacity="0.95" />
<polygon points="173.0,265.0 163.0,254.0 53.0,323.0 22.0,315.0 0.0,286.0 0.0,383.0 144.0,383.0" fill="#b77157" opacity="0.95" />
<polygon points="133.0,134.0 81.0,167.0 44.0,169.0 6.0,151.0 0.0,228.0 77.0,176.0 115.0,171.0" fill="#b77157" />
<polygon points="383.0,0.0 301.0,0.0 370.0,76.0 352.0,127.0 39.0,312.0 161.0,249.0 194.0,383.0 203.0,256.0 383.0,141.0" fill="#361e16" opacity="0.95" />
<polygon points="230.0,155.0 1.0,263.0 0.0,281.0" fill="#d3e0e1" opacity="0.95" />
<polygon points="161.0,91.0 177.0,78.0 238.0,92.0 318.0,56.0 321.0,29.0 299.0,0.0 198.0,0.0" fill="#b77157" opacity="0.95" />
<polygon points="178.0,270.0 145.0,383.0 169.0,383.0 192.0,296.0" fill="#8a523b" />
<polygon points="277.0,78.0 317.0,131.0 355.0,122.0 342.0,81.0 359.0,101.0 369.0,96.0 359.0,97.0 319.0,57.0" fill="#db9a8a" />
<polygon points="260.0,129.0 207.0,128.0 126.0,173.0 144.0,195.0 231.0,155.0 151.0,210.0 165.0,225.0 260.0,159.0" fill="#7ec5c9" opacity="0.95" />
<polygon points="277.0,85.0 123.0,168.0 263.0,132.0 165.0,236.0 309.0,145.0 293.0,104.0 304.0,132.0 275.0,144.0 254.0,101.0 290.0,102.0" fill="#59acb0" />
<polygon points="133.0,187.0 119.0,170.0 1.0,235.0 0.0,263.0" fill="#dbccb7" opacity="0.95" />
<polygon points="228.0,157.0 1.0,263.0 0.0,281.0" fill="#d3e0e1" opacity="0.95" />
<polygon points="160.0,232.0 148.0,214.0 6.0,291.0 21.0,309.0" fill="#dbccb7" opacity="0.95" />
<polygon points="260.0,129.0 207.0,128.0 126.0,173.0 144.0,195.0 229.0,157.0 151.0,210.0 165.0,225.0 260.0,159.0" fill="#7ec5c9" opacity="0.95" />
<polygon points="277.0,78.0 315.0,130.0 354.0,124.0 342.0,85.0 320.0,58.0" fill="#db9a8a" opacity="0.95" />
<polygon points="132.0,133.0 80.0,166.0 47.0,169.0 5.0,152.0 0.0,228.0 77.0,176.0 115.0,171.0" fill="#b77157" opacity="0.95" />
<polygon points="99.0,176.0 73.0,179.0 0.0,231.0" fill="#8a523b" />
<polygon points="276.0,91.0 255.0,101.0 281.0,147.0 290.0,134.0 303.0,131.0 291.0,104.0" fill="#7ec5c9" />
<polygon points="133.0,187.0 119.0,170.0 1.0,235.0 0.0,263.0" fill="#dbccb7" opacity="0.95" />
<polygon points="277.0,85.0 125.0,166.0 233.0,120.0 263.0,132.0 164.0,235.0 309.0,145.0 275.0,144.0 255.0,100.0" fill="#59acb0" opacity="0.95" />
<polygon points="160.0,232.0 148.0,214.0 7.0,292.0 21.0,309.0" fill="#dbccb7" opacity="0.95" />
<polygon points="179.0,273.0 145.0,383.0 169.0,383.0 192.0,296.0" fill="#8a523b" opacity="0.95" />
<polygon points="277.0,78.0 315.0,130.0 355.0,122.0 342.0,85.0 320.0,58.0" fill="#db9a8a" opacity="0.95" />
<polygon points="166.0,253.0 53.0,315.0 36.0,311.0 86.0,281.0 27.0,315.0 61.0,320.0" fill="#8a523b" />
<polygon points="132.0,136.0 81.0,166.0 47.0,169.0 5.0,152.0 0.0,228.0 77.0,176.0 113.0,172.0" fill="#b77157" opacity="0.95" />
<polygon points="277.0,85.0 133.0,160.0 233.0,120.0 264.0,134.0 164.0,234.0 310.0,143.0 275.0,144.0 255.0,101.0" fill="#59acb0" opacity="0.95" />
<polygon points="312.0,144.0 220.0,214.0 166.0,238.0 223.0,216.0" fill="#4f888d" />
<polygon points="336.0,54.0 331.0,61.0 341.0,77.0 359.0,96.0 366.0,96.0 368.0,82.0 360.0,62.0 347.0,52.0" fill="#dbccb7" />
<polygon points="276.0,91.0 256.0,103.0 280.0,147.0 284.0,138.0 302.0,127.0 291.0,104.0" fill="#7ec5c9" opacity="0.95" />
<polygon points="276.0,91.0 256.0,103.0 279.0,146.0 302.0,127.0 291.0,104.0" fill="#7ec5c9" opacity="0.95" />
<polygon points="334.0,56.0 332.0,63.0 341.0,77.0 358.0,95.0 367.0,95.0 368.0,82.0 360.0,62.0 347.0,52.0" fill="#dbccb7" opacity="0.95" />
<polygon points="249.0,103.0 237.0,99.0 177.0,132.0" fill="#4f888d" />
<polygon points="311.0,147.0 278.0,161.0 233.0,205.0 186.0,232.0 238.0,206.0" fill="#4f888d" opacity="0.95" />
<polygon points="334.0,56.0 332.0,63.0 341.0,77.0 358.0,95.0 367.0,95.0 368.0,82.0 360.0,62.0 347.0,52.0" fill="#dbccb7" opacity="0.95" />
<polygon points="348.0,127.0 343.0,126.0 323.0,132.0 311.0,129.0 316.0,137.0 324.0,138.0" fill="#b77157" />
<polygon points="286.0,168.0 284.0,166.0 280.0,168.0 271.0,179.0 252.0,196.0 261.0,191.0" fill="#3e6062" />
<polygon points="273.0,81.0 268.0,79.0 242.0,92.0 251.0,91.0" fill="#4f888d" />
<polygon points="287.0,160.0 278.0,161.0 250.0,192.0 255.0,193.0" fill="#4f888d" opacity="0.95" />
<polygon points="313.0,150.0 289.0,164.0 291.0,165.0 312.0,153.0" fill="#3e6062" />
<polygon points="248.0,102.0 237.0,100.0 223.0,108.0 223.0,110.0 225.0,111.0 234.0,107.0 248.0,105.0" fill="#4f888d" opacity="0.95" />
<polygon points="59.0,291.0 52.0,292.0 34.0,301.0 33.0,304.0 35.0,305.0 59.0,293.0" fill="#db9a8a" opacity="0.95" />
<polygon points="98.0,270.0 96.0,269.0 81.0,277.0 81.0,279.0 83.0,280.0 94.0,275.0 98.0,272.0" fill="#db9a8a" opacity="0.95" />
<polygon points="308.0,149.0 305.0,147.0 290.0,155.0 289.0,159.0 295.0,159.0 307.0,152.0" fill="#4f888d" opacity="0.95" />
<polygon points="146.0,244.0 144.0,243.0 132.0,249.0 132.0,251.0 134.0,252.0 146.0,246.0" fill="#db9a8a" opacity="0.95" />
<polygon points="368.0,76.0 367.0,78.0 369.0,82.0 369.0,91.0 370.0,92.0 371.0,91.0 371.0,83.0" fill="#db9a8a" />
<polygon points="265.0,82.0 263.0,81.0 249.0,88.0 249.0,90.0 251.0,91.0 265.0,84.0" fill="#4f888d" opacity="0.95" />
<polygon points="28.0,308.0 26.0,307.0 20.0,310.0 20.0,312.0 23.0,314.0 28.0,310.0" fill="#db9a8a" opacity="0.95" />
<polygon points="233.0,103.0 233.0,105.0 236.0,107.0 241.0,106.0 244.0,104.0 244.0,102.0 241.0,100.0 237.0,100.0" fill="#4f888d" opacity="0.95" />
<polygon points="358.0,98.0 358.0,100.0 361.0,102.0 363.0,102.0 367.0,100.0 367.0,98.0 365.0,97.0 360.0,97.0" fill="#db9a8a" opacity="0.95" />
<polygon points="109.0,264.0 107.0,263.0 103.0,265.0 103.0,267.0 105.0,268.0 109.0,266.0" fill="#db9a8a" opacity="0.95" />
<polygon points="282.0,167.0 279.0,169.0 279.0,171.0 280.0,171.0 281.0,172.0 284.0,170.0 284.0,168.0 283.0,168.0" fill="#3e6062" opacity="0.95" />
<polygon points="178.0,234.0 176.0,233.0 175.0,234.0 173.0,234.0 171.0,235.0 171.0,237.0 173.0,238.0 174.0,237.0 176.0,237.0 178.0,236.0" fill="#4f888d" opacity="0.95" />
</svg>