<svg xmlns="http://www.w3.org/2000/svg" width="768" height="768" viewBox="0 0 384 384">
<rect width="384" height="384" fill="#9b6258"/>
<polygon points="129.0,0.0 0.0,123.0 0.0,266.0 152.0,383.0 105.0,96.0 223.0,41.0 276.0,104.0 248.0,383.0 366.0,286.0 383.0,132.0 286.0,15.0" fill="#a86356" />
<polygon points="128.0,0.0 0.0,123.0 0.0,263.0 152.0,383.0 108.0,137.0 166.0,173.0 166.0,84.0 182.0,176.0 184.0,81.0 220.0,173.0 268.0,86.0 249.0,383.0 366.0,286.0 383.0,131.0 280.0,12.0" fill="#a86356" opacity="0.95" />
<polygon points="128.0,0.0 0.0,123.0 0.0,262.0 152.0,383.0 108.0,137.0 140.0,95.0 192.0,178.0 206.0,108.0 219.0,173.0 267.0,84.0 251.0,383.0 366.0,286.0 383.0,129.0 280.0,12.0" fill="#a86356" opacity="0.95" />
<polygon points="2.0,117.0 51.0,47.0 128.0,0.0 0.0,0.0" fill="#824744" />
<polygon points="3.0,268.0 0.0,383.0 132.0,383.0 57.0,339.0" fill="#824744" />
<polygon points="256.0,0.0 343.0,59.0 383.0,131.0 383.0,0.0" fill="#824744" />
<polygon points="231.0,281.0 170.0,282.0 178.0,293.0 158.0,296.0 153.0,383.0 242.0,383.0 233.0,291.0 216.0,292.0" fill="#142e3c" />
<polygon points="383.0,251.0 357.0,303.0 321.0,343.0 249.0,383.0 383.0,383.0" fill="#824744" />
<polygon points="207.0,41.0 154.0,57.0 158.0,93.0 146.0,75.0 161.0,174.0 161.0,108.0 175.0,177.0 181.0,125.0 190.0,178.0 205.0,158.0 212.0,173.0 220.0,107.0 216.0,172.0 231.0,148.0 236.0,65.0" fill="#a86356" />
<polygon points="208.0,38.0 269.0,85.0 228.0,186.0 242.0,119.0 190.0,195.0 125.0,83.0 159.0,185.0 107.0,117.0 188.0,223.0 274.0,118.0" fill="#b4cac8" />
<polygon points="158.0,296.0 153.0,383.0 242.0,383.0 233.0,294.0 217.0,293.0 215.0,282.0 179.0,282.0 177.0,294.0" fill="#142e3c" opacity="0.95" />
<polygon points="3.0,114.0 51.0,47.0 127.0,0.0 0.0,0.0" fill="#824744" opacity="0.95" />
<polygon points="257.0,0.0 343.0,59.0 383.0,130.0 383.0,0.0" fill="#824744" opacity="0.95" />
<polygon points="0.0,271.0 0.0,383.0 131.0,383.0 65.0,346.0 7.0,269.0" fill="#824744" opacity="0.95" />
<polygon points="383.0,251.0 357.0,303.0 321.0,343.0 250.0,383.0 383.0,383.0" fill="#824744" opacity="0.95" />
<polygon points="159.0,296.0 153.0,383.0 242.0,383.0 233.0,296.0 218.0,293.0 213.0,282.0 181.0,282.0 176.0,294.0" fill="#142e3c" opacity="0.95" />
<polygon points="0.0,272.0 0.0,383.0 130.0,383.0 65.0,346.0 8.0,271.0" fill="#824744" opacity="0.95" />
<polygon points="383.0,253.0 357.0,303.0 321.0,343.0 252.0,383.0 383.0,383.0" fill="#824744" opacity="0.95" />
<polygon points="117.0,147.0 141.0,204.0 176.0,215.0 245.0,203.0 267.0,151.0 228.0,186.0 189.0,195.0 179.0,178.0 173.0,192.0" fill="#b4cac8" opacity="0.95" />
<polygon points="266.0,151.0 200.0,195.0 165.0,191.0 119.0,156.0 142.0,205.0 207.0,215.0 246.0,201.0" fill="#b4cac8" opacity="0.95" />
<polygon points="112.0,94.0 111.0,121.0 130.0,157.0" fill="#a86356" />
<polygon points="254.0,84.0 237.0,145.0 236.0,167.0 241.0,165.0 251.0,136.0 258.0,89.0" fill="#a86356" />
<polygon points="116.0,85.0 137.0,160.0 140.0,146.0 146.0,167.0 139.0,118.0 137.0,145.0 126.0,91.0" fill="#a86356" />
<polygon points="240.0,209.0 197.0,217.0 204.0,272.0 225.0,272.0 225.0,253.0 212.0,258.0 209.0,252.0 226.0,248.0 230.0,215.0" fill="#142e3c" opacity="0.95" />
<polygon points="179.0,215.0 182.0,272.0 190.0,273.0 190.0,238.0 184.0,216.0" fill="#142e3c" />
<polygon points="270.0,136.0 245.0,207.0 236.0,209.0 232.0,238.0 273.0,145.0" fill="#142e3c" />
<polygon points="162.0,71.0 167.0,81.0 172.0,149.0 168.0,159.0 164.0,156.0 154.0,79.0" fill="#a86356" opacity="0.95" />
<polygon points="212.0,215.0 207.0,217.0 204.0,231.0 205.0,273.0 209.0,272.0" fill="#142e3c" />
<polygon points="171.0,214.0 173.0,258.0 182.0,259.0 181.0,263.0 174.0,263.0 174.0,272.0 188.0,273.0 187.0,225.0 184.0,216.0" fill="#142e3c" opacity="0.95" />
<polygon points="253.0,69.0 241.0,69.0 242.0,110.0 248.0,85.0 253.0,79.0 266.0,89.0 264.0,77.0" fill="#a86356" />
<polygon points="194.0,233.0 192.0,272.0 185.0,275.0 185.0,280.0 229.0,281.0 227.0,263.0 224.0,274.0 203.0,272.0 202.0,247.0 201.0,272.0 195.0,272.0" fill="#b4cac8" />
<polygon points="230.0,210.0 226.0,212.0 223.0,229.0 222.0,273.0 225.0,272.0" fill="#142e3c" />
<polygon points="170.0,214.0 174.0,272.0 177.0,273.0 177.0,235.0 174.0,215.0" fill="#142e3c" />
<polygon points="198.0,63.0 202.0,67.0 202.0,87.0 198.0,87.0 198.0,69.0 187.0,69.0 187.0,118.0 180.0,121.0 178.0,110.0 183.0,109.0 183.0,67.0" fill="#a86356" />
<polygon points="230.0,265.0 226.0,265.0 223.0,274.0 185.0,275.0 185.0,280.0 219.0,281.0 222.0,285.0 218.0,292.0 228.0,293.0 225.0,282.0 229.0,280.0" fill="#b4cac8" opacity="0.95" />
<polygon points="148.0,213.0 164.0,251.0 160.0,235.0" fill="#f3f7f5" />
<polygon points="185.0,276.0 188.0,281.0 216.0,281.0 220.0,284.0 219.0,292.0 229.0,291.0 225.0,285.0 229.0,279.0 226.0,273.0 192.0,273.0" fill="#b4cac8" opacity="0.95" />
<polygon points="184.0,276.0 170.0,273.0 162.0,275.0 162.0,280.0 166.0,282.0 162.0,286.0 162.0,292.0 175.0,292.0 171.0,283.0 184.0,279.0" fill="#f3f7f5" opacity="0.95" />
<polygon points="162.0,286.0 162.0,292.0 163.0,293.0 174.0,293.0 175.0,292.0 174.0,287.0 171.0,285.0 163.0,285.0" fill="#f3f7f5" />
<polygon points="162.0,271.0 164.0,273.0 162.0,275.0 163.0,281.0 180.0,281.0 184.0,279.0 184.0,276.0 180.0,273.0 178.0,275.0 174.0,275.0 170.0,273.0 165.0,274.0 163.0,272.0 164.0,271.0" fill="#f3f7f5" />
<polygon points="218.0,287.0 218.0,292.0 219.0,293.0 229.0,293.0 230.0,292.0 230.0,290.0 228.0,286.0 219.0,286.0" fill="#b4cac8" />
<polygon points="184.0,276.0 170.0,273.0 163.0,275.0 162.0,279.0 166.0,284.0 162.0,287.0 162.0,291.0 165.0,293.0 174.0,292.0 173.0,284.0 182.0,280.0" fill="#f3f7f5" opacity="0.95" />
<polygon points="190.0,39.0 177.0,40.0 159.0,49.0 161.0,50.0 181.0,40.0" fill="#b4cac8" />
<polygon points="169.0,256.0 168.0,257.0 167.0,265.0 168.0,266.0 168.0,270.0 171.0,273.0 172.0,272.0 172.0,257.0" fill="#b4cac8" />
<polygon points="156.0,51.0 149.0,59.0 146.0,65.0 147.0,66.0 150.0,60.0 157.0,52.0" fill="#f3f7f5" />
<polygon points="170.0,257.0 168.0,258.0 168.0,262.0 167.0,263.0 168.0,270.0 170.0,271.0 172.0,270.0 172.0,258.0" fill="#b4cac8" opacity="0.95" />
<polygon points="163.0,69.0 164.0,70.0 168.0,67.0 169.0,68.0 175.0,68.0 176.0,69.0 177.0,68.0 175.0,66.0 169.0,66.0 167.0,68.0 165.0,67.0" fill="#dec8bd" />
</svg>