<svg xmlns="http://www.w3.org/2000/svg" width="768" height="768" viewBox="0 0 384 384">
<rect width="384" height="384" fill="#906c5d"/>
<polygon points="0.0,0.0 0.0,383.0 174.0,383.0 176.0,247.0 126.0,174.0 156.0,37.0 228.0,39.0 261.0,112.0 238.0,383.0 383.0,383.0 383.0,0.0" fill="#926552" />
<polygon points="0.0,0.0 0.0,383.0 174.0,383.0 176.0,247.0 126.0,174.0 157.0,37.0 228.0,39.0 261.0,112.0 238.0,383.0 383.0,383.0 383.0,0.0" fill="#926552" opacity="0.95" />
<polygon points="0.0,0.0 0.0,383.0 174.0,383.0 176.0,248.0 126.0,174.0 157.0,37.0 228.0,39.0 261.0,112.0 238.0,383.0 383.0,383.0 383.0,0.0" fill="#926552" opacity="0.95" />
<polygon points="142.0,65.0 129.0,183.0 173.0,220.0 177.0,263.0 183.0,233.0 201.0,264.0 205.0,220.0 252.0,185.0 242.0,71.0 225.0,104.0 150.0,99.0" fill="#75d6da" />
<polygon points="143.0,65.0 129.0,183.0 200.0,242.0 205.0,220.0 252.0,185.0 242.0,71.0 225.0,104.0 173.0,108.0 150.0,99.0" fill="#75d6da" opacity="0.95" />
<polygon points="149.0,44.0 146.0,88.0 155.0,102.0 201.0,107.0 222.0,104.0 232.0,96.0 235.0,53.0 225.0,38.0 156.0,38.0" fill="#fe3a42" />
<polygon points="142.0,69.0 129.0,183.0 199.0,241.0 252.0,185.0 243.0,75.0 221.0,106.0 150.0,99.0" fill="#75d6da" opacity="0.95" />
<polygon points="248.0,85.0 257.0,198.0 243.0,228.0 203.0,249.0 208.0,383.0 237.0,383.0 221.0,264.0 266.0,207.0" fill="#53362e" />
<polygon points="182.0,265.0 175.0,383.0 199.0,383.0 199.0,266.0" fill="#0f0915" />
<polygon points="149.0,44.0 146.0,88.0 155.0,102.0 201.0,107.0 232.0,96.0 235.0,53.0 228.0,40.0 157.0,38.0" fill="#fe3a42" opacity="0.95" />
<polygon points="249.0,87.0 254.0,211.0 203.0,248.0 208.0,383.0 237.0,383.0 221.0,264.0 266.0,207.0" fill="#53362e" opacity="0.95" />
<polygon points="149.0,44.0 146.0,88.0 155.0,102.0 201.0,107.0 232.0,96.0 235.0,53.0 228.0,40.0 157.0,38.0" fill="#fe3a42" opacity="0.95" />
<polygon points="183.0,265.0 175.0,383.0 199.0,383.0 199.0,266.0" fill="#0f0915" opacity="0.95" />
<polygon points="254.0,181.0 240.0,206.0 207.0,219.0 204.0,247.0 247.0,223.0 256.0,198.0" fill="#0f0915" />
<polygon points="251.0,91.0 254.0,211.0 203.0,249.0 208.0,383.0 237.0,383.0 221.0,264.0 266.0,207.0" fill="#53362e" opacity="0.95" />
<polygon points="184.0,265.0 175.0,383.0 199.0,383.0 199.0,267.0" fill="#0f0915" opacity="0.95" />
<polygon points="256.0,190.0 234.0,210.0 207.0,219.0 203.0,245.0 247.0,223.0" fill="#0f0915" opacity="0.95" />
<polygon points="183.0,235.0 181.0,240.0 181.0,262.0 198.0,264.0 199.0,243.0" fill="#12bcc4" />
<polygon points="141.0,204.0 141.0,214.0 147.0,227.0 161.0,239.0 176.0,245.0 175.0,231.0 162.0,224.0" fill="#53362e" />
<polygon points="201.0,265.0 202.0,381.0 204.0,269.0" fill="#6f635b" />
<polygon points="255.0,192.0 234.0,210.0 206.0,221.0 204.0,245.0 247.0,223.0" fill="#0f0915" opacity="0.95" />
<polygon points="140.0,207.0 147.0,227.0 161.0,239.0 177.0,244.0 175.0,230.0 162.0,224.0 156.0,214.0" fill="#53362e" opacity="0.95" />
<polygon points="184.0,235.0 181.0,240.0 181.0,262.0 197.0,264.0 199.0,263.0 199.0,243.0" fill="#12bcc4" opacity="0.95" />
<polygon points="142.0,209.0 147.0,227.0 161.0,239.0 176.0,244.0 175.0,231.0 162.0,224.0 154.0,213.0" fill="#53362e" opacity="0.95" />
<polygon points="185.0,236.0 181.0,240.0 181.0,261.0 188.0,264.0 196.0,264.0 199.0,262.0 199.0,243.0" fill="#12bcc4" opacity="0.95" />
<polygon points="313.0,52.0 319.0,63.0 317.0,66.0 316.0,65.0 309.0,66.0 307.0,64.0" fill="#926552" />
<polygon points="337.0,52.0 343.0,52.0 345.0,54.0 336.0,60.0 337.0,64.0 342.0,68.0 340.0,70.0 337.0,70.0 331.0,64.0 331.0,58.0" fill="#926552" />
<polygon points="179.0,265.0 177.0,266.0 176.0,271.0 178.0,300.0 180.0,283.0" fill="#938980" />
<polygon points="157.0,216.0 158.0,219.0 165.0,225.0 171.0,228.0 174.0,227.0 170.0,219.0 158.0,215.0" fill="#0f0915" />
<polygon points="206.0,355.0 205.0,356.0 204.0,383.0 207.0,383.0 208.0,380.0 207.0,356.0" fill="#0f0915" />
<polygon points="202.0,268.0 200.0,269.0 199.0,274.0 199.0,289.0 200.0,293.0 202.0,294.0 204.0,293.0 203.0,285.0 204.0,269.0" fill="#6f635b" opacity="0.95" />
<polygon points="313.0,55.0 316.0,57.0 318.0,61.0 318.0,63.0 315.0,65.0 312.0,65.0 309.0,63.0 309.0,59.0" fill="#926552" opacity="0.95" />
<polygon points="206.0,274.0 204.0,282.0 205.0,286.0 204.0,299.0 205.0,300.0 207.0,295.0 207.0,275.0" fill="#926552" />
<polygon points="158.0,217.0 158.0,219.0 162.0,223.0 171.0,228.0 173.0,227.0 173.0,223.0 170.0,219.0 161.0,216.0" fill="#0f0915" opacity="0.95" />
<polygon points="338.0,53.0 333.0,56.0 332.0,63.0 336.0,68.0 340.0,69.0 341.0,68.0 335.0,63.0 335.0,57.0 339.0,54.0" fill="#edecea" />
<polygon points="341.0,53.0 342.0,54.0 341.0,57.0 335.0,60.0 332.0,58.0 332.0,56.0 337.0,52.0" fill="#926552" opacity="0.95" />
<polygon points="313.0,56.0 317.0,59.0 317.0,62.0 313.0,65.0 309.0,62.0 309.0,59.0" fill="#926552" opacity="0.95" />
<polygon points="160.0,219.0 160.0,221.0 169.0,227.0 173.0,225.0 172.0,221.0 168.0,218.0 163.0,217.0" fill="#0f0915" opacity="0.95" />
<polygon points="178.0,270.0 176.0,271.0 176.0,280.0 178.0,281.0 180.0,280.0 180.0,271.0" fill="#938980" opacity="0.95" />
</svg>