<svg xmlns="http://www.w3.org/2000/svg" width="768" height="768" viewBox="0 0 384 384">
<rect width="384" height="384" fill="#91685a"/>
<polygon points="0.0,21.0 0.0,137.0 199.0,101.0 257.0,135.0 285.0,205.0 213.0,238.0 229.0,378.0 383.0,372.0 383.0,36.0 269.0,0.0" fill="#8e5545" />
<polygon points="161.0,107.0 70.0,108.0 0.0,138.0 0.0,383.0 170.0,383.0 178.0,256.0 123.0,224.0 127.0,154.0" fill="#ae7e68" />
<polygon points="0.0,21.0 0.0,137.0 199.0,101.0 257.0,135.0 285.0,205.0 213.0,238.0 234.0,383.0 383.0,372.0 383.0,36.0 271.0,0.0" fill="#8e5545" opacity="0.95" />
<polygon points="0.0,21.0 0.0,137.0 199.0,101.0 257.0,135.0 285.0,205.0 213.0,238.0 234.0,383.0 383.0,372.0 383.0,36.0 274.0,0.0" fill="#8e5545" opacity="0.95" />
<polygon points="161.0,108.0 75.0,109.0 0.0,138.0 0.0,383.0 170.0,383.0 178.0,256.0 123.0,224.0 127.0,154.0" fill="#ae7e68" opacity="0.95" />
<polygon points="159.0,108.0 75.0,109.0 0.0,138.0 0.0,383.0 170.0,380.0 178.0,257.0 123.0,224.0 127.0,154.0" fill="#ae7e68" opacity="0.95" />
<polygon points="336.0,228.0 347.0,249.0 342.0,270.0 293.0,323.0 247.0,332.0 225.0,282.0 225.0,250.0 305.0,219.0" fill="#8e5545" />
<polygon points="336.0,229.0 305.0,220.0 226.0,250.0 226.0,282.0 246.0,329.0 265.0,335.0 293.0,322.0 341.0,270.0" fill="#ae7e68" />
<polygon points="336.0,228.0 342.0,270.0 293.0,323.0 247.0,332.0 225.0,282.0 225.0,250.0 305.0,219.0" fill="#8e5545" opacity="0.95" />
<polygon points="336.0,229.0 305.0,220.0 226.0,250.0 244.0,327.0 265.0,335.0 297.0,319.0 341.0,270.0" fill="#ae7e68" opacity="0.95" />
<polygon points="183.0,231.0 175.0,383.0 202.0,383.0 198.0,232.0" fill="#000331" />
<polygon points="209.0,126.0 198.0,133.0 193.0,164.0 176.0,180.0 180.0,199.0 194.0,213.0 225.0,201.0 241.0,178.0" fill="#b3e7e7" />
<polygon points="336.0,229.0 305.0,220.0 226.0,250.0 244.0,327.0 265.0,335.0 304.0,311.0 346.0,258.0" fill="#ae7e68" opacity="0.95" />
<polygon points="336.0,228.0 347.0,249.0 342.0,270.0 293.0,323.0 247.0,332.0 225.0,282.0 225.0,250.0 305.0,219.0" fill="#8e5545" opacity="0.95" />
<polygon points="184.0,231.0 175.0,383.0 202.0,383.0 198.0,232.0" fill="#000331" opacity="0.95" />
<polygon points="270.0,0.0 336.0,12.0 383.0,35.0 383.0,0.0" fill="#532f2d" />
<polygon points="211.0,240.0 207.0,250.0 201.0,248.0 208.0,268.0 203.0,312.0 208.0,383.0 234.0,383.0 223.0,364.0" fill="#532f2d" />
<polygon points="209.0,126.0 198.0,133.0 193.0,164.0 177.0,176.0 178.0,195.0 194.0,213.0 225.0,201.0 241.0,178.0" fill="#b3e7e7" opacity="0.95" />
<polygon points="265.0,199.0 254.0,191.0 233.0,210.0 207.0,220.0 202.0,246.0 207.0,249.0 213.0,235.0 257.0,224.0 267.0,209.0" fill="#1d0810" />
<polygon points="197.0,107.0 188.0,106.0 162.0,116.0 141.0,137.0 157.0,146.0 166.0,146.0" fill="#03272f" />
<polygon points="129.0,161.0 136.0,194.0 180.0,215.0 180.0,229.0 202.0,229.0 201.0,221.0 192.0,222.0 176.0,204.0 167.0,179.0" fill="#10c4e1" />
<polygon points="185.0,231.0 175.0,383.0 202.0,383.0 198.0,233.0" fill="#000331" opacity="0.95" />
<polygon points="259.0,152.0 232.0,159.0 242.0,178.0 220.0,205.0 190.0,212.0 174.0,174.0 174.0,199.0 192.0,221.0 227.0,212.0 256.0,184.0" fill="#58cad4" />
<polygon points="209.0,126.0 198.0,133.0 193.0,164.0 177.0,176.0 178.0,195.0 194.0,213.0 225.0,201.0 241.0,178.0" fill="#b3e7e7" opacity="0.95" />
<polygon points="0.0,20.0 25.0,10.0 103.0,0.0 0.0,0.0" fill="#532f2d" />
<polygon points="146.0,210.0 142.0,219.0 146.0,230.0 179.0,239.0 173.0,220.0" fill="#1d0810" />
<polygon points="211.0,246.0 201.0,249.0 208.0,268.0 203.0,311.0 208.0,383.0 233.0,383.0 223.0,364.0" fill="#532f2d" opacity="0.95" />
<polygon points="205.0,108.0 199.0,106.0 166.0,147.0 139.0,136.0 135.0,144.0 171.0,159.0" fill="#124c55" />
<polygon points="272.0,0.0 335.0,12.0 383.0,35.0 383.0,0.0" fill="#532f2d" opacity="0.95" />
<polygon points="204.0,249.0 208.0,383.0 233.0,383.0 223.0,364.0 214.0,251.0" fill="#532f2d" opacity="0.95" />
<polygon points="135.0,201.0 124.0,215.0 127.0,231.0 146.0,246.0 177.0,254.0 177.0,243.0 136.0,228.0 134.0,215.0 141.0,204.0" fill="#8e5545" />
<polygon points="254.0,139.0 210.0,108.0 171.0,160.0 133.0,149.0 174.0,165.0 204.0,112.0 233.0,142.0" fill="#2b6e75" />
<polygon points="265.0,199.0 255.0,192.0 228.0,213.0 206.0,221.0 202.0,246.0 208.0,248.0 216.0,234.0 257.0,224.0 267.0,209.0" fill="#1d0810" opacity="0.95" />
<polygon points="129.0,161.0 135.0,193.0 180.0,215.0 179.0,228.0 202.0,229.0 203.0,222.0 190.0,221.0 176.0,204.0 168.0,180.0" fill="#10c4e1" opacity="0.95" />
<polygon points="280.0,191.0 260.0,182.0 256.0,191.0 266.0,199.0 268.0,209.0 257.0,225.0 243.0,233.0 278.0,215.0 284.0,205.0" fill="#532f2d" />
<polygon points="275.0,0.0 335.0,12.0 383.0,35.0 383.0,0.0" fill="#532f2d" opacity="0.95" />
<polygon points="196.0,107.0 175.0,110.0 170.0,118.0 162.0,116.0 141.0,137.0 160.0,147.0 167.0,145.0" fill="#03272f" opacity="0.95" />
<polygon points="129.0,162.0 135.0,192.0 178.0,214.0 180.0,228.0 203.0,226.0 176.0,204.0 167.0,180.0" fill="#10c4e1" opacity="0.95" />
<polygon points="259.0,152.0 233.0,158.0 242.0,172.0 237.0,190.0 212.0,209.0 189.0,213.0 191.0,220.0 241.0,203.0 256.0,184.0" fill="#58cad4" opacity="0.95" />
<polygon points="212.0,117.0 199.0,122.0 177.0,175.0 192.0,164.0 204.0,125.0 213.0,128.0 228.0,156.0 236.0,154.0" fill="#87bbb7" />
<polygon points="265.0,199.0 255.0,192.0 228.0,213.0 208.0,220.0 202.0,246.0 208.0,247.0 216.0,234.0 257.0,224.0 267.0,209.0" fill="#1d0810" opacity="0.95" />
<polygon points="146.0,210.0 142.0,219.0 146.0,230.0 179.0,238.0 175.0,221.0" fill="#1d0810" opacity="0.95" />
<polygon points="137.0,195.0 154.0,210.0 175.0,219.0 181.0,218.0 146.0,196.0" fill="#0b9ab8" />
<polygon points="0.0,20.0 25.0,10.0 99.0,0.0 0.0,0.0" fill="#532f2d" opacity="0.95" />
<polygon points="204.0,107.0 167.0,146.0 140.0,138.0 136.0,145.0 171.0,159.0" fill="#124c55" opacity="0.95" />
<polygon points="213.0,109.0 224.0,118.0 234.0,132.0 246.0,136.0 251.0,134.0 232.0,115.0" fill="#124c55" />
<polygon points="131.0,151.0 131.0,159.0 157.0,175.0 167.0,178.0 174.0,173.0 162.0,170.0" fill="#0b9ab8" />
<polygon points="258.0,152.0 232.0,159.0 242.0,172.0 232.0,196.0 190.0,218.0 211.0,218.0 241.0,203.0 256.0,184.0" fill="#58cad4" opacity="0.95" />
<polygon points="195.0,108.0 176.0,110.0 159.0,125.0 149.0,125.0 141.0,137.0 160.0,147.0 167.0,145.0" fill="#03272f" opacity="0.95" />
<polygon points="134.0,202.0 124.0,215.0 127.0,231.0 146.0,246.0 178.0,253.0 177.0,243.0 136.0,228.0 134.0,215.0 140.0,203.0" fill="#8e5545" opacity="0.95" />
<polygon points="198.0,120.0 212.0,116.0 227.0,146.0 236.0,153.0 255.0,143.0 230.0,141.0 213.0,114.0 204.0,113.0" fill="#539597" />
<polygon points="263.0,182.0 257.0,192.0 266.0,199.0 268.0,209.0 256.0,225.0 258.0,228.0 277.0,216.0 284.0,205.0 281.0,192.0" fill="#532f2d" opacity="0.95" />
<polygon points="315.0,51.0 319.0,51.0 325.0,57.0 328.0,63.0 328.0,69.0 326.0,71.0 323.0,66.0 311.0,65.0 309.0,67.0 307.0,65.0 309.0,58.0" fill="#8e5545" />
<polygon points="145.0,212.0 142.0,223.0 146.0,230.0 175.0,239.0 179.0,237.0 174.0,221.0 150.0,210.0" fill="#1d0810" opacity="0.95" />
<polygon points="194.0,119.0 189.0,118.0 163.0,148.0 140.0,139.0 136.0,145.0 169.0,160.0 180.0,151.0" fill="#124c55" opacity="0.95" />
<polygon points="134.0,202.0 124.0,215.0 127.0,231.0 146.0,246.0 177.0,253.0 177.0,243.0 136.0,228.0 134.0,215.0 140.0,203.0" fill="#8e5545" opacity="0.95" />
<polygon points="219.0,111.0 234.0,132.0 250.0,135.0 239.0,120.0 224.0,111.0" fill="#124c55" opacity="0.95" />
<polygon points="228.0,110.0 256.0,140.0 260.0,177.0 263.0,160.0 259.0,143.0 249.0,126.0" fill="#b3e7e7" />
<polygon points="138.0,195.0 154.0,210.0 175.0,219.0 180.0,218.0 146.0,196.0" fill="#0b9ab8" opacity="0.95" />
<polygon points="131.0,152.0 130.0,158.0 157.0,175.0 167.0,178.0 173.0,174.0" fill="#0b9ab8" opacity="0.95" />
<polygon points="195.0,127.0 184.0,156.0 168.0,170.0 174.0,172.0 184.0,163.0" fill="#539597" />
<polygon points="203.0,118.0 197.0,128.0 211.0,126.0 223.0,151.0 234.0,156.0 216.0,121.0 208.0,116.0" fill="#87bbb7" opacity="0.95" />
<polygon points="133.0,148.0 163.0,168.0 174.0,165.0 183.0,156.0 181.0,152.0 165.0,162.0" fill="#2b6e75" opacity="0.95" />
<polygon points="130.0,155.0 163.0,178.0 171.0,175.0 135.0,152.0" fill="#0b9ab8" opacity="0.95" />
<polygon points="257.0,146.0 255.0,144.0 239.0,153.0 237.0,156.0 244.0,157.0 257.0,149.0" fill="#0b9ab8" />
<polygon points="139.0,196.0 154.0,210.0 172.0,218.0 175.0,216.0 146.0,196.0" fill="#0b9ab8" opacity="0.95" />
<polygon points="224.0,125.0 230.0,140.0 242.0,144.0 253.0,141.0 253.0,137.0 236.0,134.0 228.0,125.0" fill="#2b6e75" opacity="0.95" />
<polygon points="221.0,113.0 234.0,132.0 246.0,136.0 249.0,134.0 247.0,128.0 239.0,120.0 224.0,111.0" fill="#124c55" opacity="0.95" />
<polygon points="173.0,175.0 169.0,178.0 172.0,195.0 182.0,208.0 184.0,205.0 177.0,195.0 176.0,176.0" fill="#58cad4" opacity="0.95" />
<polygon points="223.0,136.0 227.0,146.0 237.0,153.0 250.0,147.0 248.0,144.0 236.0,144.0 227.0,136.0" fill="#539597" opacity="0.95" />
<polygon points="141.0,152.0 163.0,168.0 181.0,159.0 178.0,155.0 165.0,162.0 144.0,150.0" fill="#2b6e75" opacity="0.95" />
<polygon points="192.0,152.0 188.0,152.0 185.0,163.0 175.0,172.0 175.0,174.0 179.0,174.0 192.0,164.0" fill="#87bbb7" opacity="0.95" />
<polygon points="226.0,131.0 229.0,139.0 236.0,143.0 246.0,144.0 253.0,140.0 250.0,136.0 242.0,136.0 229.0,129.0" fill="#2b6e75" opacity="0.95" />
<polygon points="257.0,146.0 254.0,145.0 237.0,154.0 237.0,156.0 243.0,157.0 257.0,150.0" fill="#0b9ab8" opacity="0.95" />
<polygon points="199.0,122.0 200.0,125.0 209.0,125.0 216.0,131.0 219.0,129.0 216.0,121.0 211.0,117.0 205.0,117.0" fill="#87bbb7" opacity="0.95" />
<polygon points="226.0,142.0 227.0,146.0 237.0,153.0 245.0,149.0 245.0,147.0 241.0,144.0 236.0,144.0 229.0,140.0" fill="#539597" opacity="0.95" />
<polygon points="203.0,270.0 202.0,271.0 202.0,283.0 203.0,284.0 204.0,283.0 204.0,271.0" fill="#ae7e68" />
<polygon points="257.0,147.0 254.0,145.0 241.0,152.0 240.0,155.0 243.0,157.0 255.0,151.0" fill="#0b9ab8" opacity="0.95" />
<polygon points="184.0,161.0 182.0,160.0 179.0,161.0 174.0,166.0 171.0,167.0 170.0,170.0 172.0,171.0 176.0,170.0 184.0,163.0" fill="#539597" opacity="0.95" />
<polygon points="175.0,344.0 174.0,345.0 174.0,352.0 175.0,353.0 176.0,352.0 176.0,345.0" fill="#58cad4" />
<polygon points="223.0,149.0 223.0,151.0 228.0,156.0 232.0,157.0 235.0,155.0 235.0,153.0 226.0,147.0" fill="#87bbb7" opacity="0.95" />
<polygon points="173.0,175.0 169.0,178.0 170.0,184.0 173.0,186.0 176.0,184.0 176.0,177.0" fill="#58cad4" opacity="0.95" />
<polygon points="189.0,158.0 186.0,160.0 184.0,164.0 184.0,166.0 187.0,168.0 192.0,164.0 192.0,160.0" fill="#87bbb7" opacity="0.95" />
</svg>