<svg xmlns="http://www.w3.org/2000/svg" width="768" height="768" viewBox="0 0 384 384">
<rect width="384" height="384" fill="#996158"/>
<polygon points="0.0,0.0 0.0,383.0 383.0,383.0 383.0,4.0" fill="#a7584b" />
<polygon points="0.0,0.0 0.0,383.0 383.0,383.0 383.0,4.0" fill="#a7584b" opacity="0.95" />
<polygon points="0.0,0.0 0.0,383.0 383.0,383.0 383.0,4.0" fill="#a7584b" opacity="0.95" />
<polygon points="162.0,37.0 225.0,39.0 264.0,83.0 274.0,347.0 260.0,361.0 175.0,361.0 157.0,342.0 138.0,62.0" fill="#a7584b" />
<polygon points="160.0,39.0 140.0,58.0 153.0,295.0 217.0,308.0 244.0,61.0 221.0,39.0" fill="#64beca" />
<polygon points="162.0,37.0 225.0,39.0 264.0,83.0 274.0,347.0 260.0,361.0 175.0,361.0 157.0,342.0 138.0,62.0" fill="#a7584b" opacity="0.95" />
<polygon points="160.0,39.0 140.0,58.0 153.0,295.0 217.0,308.0 244.0,61.0 221.0,39.0" fill="#64beca" opacity="0.95" />
<polygon points="162.0,37.0 225.0,39.0 264.0,83.0 274.0,347.0 260.0,361.0 175.0,361.0 157.0,342.0 138.0,62.0" fill="#a7584b" opacity="0.95" />
<polygon points="248.0,65.0 229.0,295.0 215.0,310.0 155.0,307.0 175.0,360.0 256.0,361.0 273.0,347.0 264.0,87.0" fill="#573b38" />
<polygon points="149.0,56.0 165.0,43.0 221.0,45.0 237.0,65.0 236.0,95.0 213.0,113.0 164.0,112.0 147.0,96.0" fill="#64beca" />
<polygon points="221.0,39.0 237.0,92.0 213.0,113.0 157.0,108.0 164.0,41.0 140.0,58.0 164.0,308.0 227.0,298.0 245.0,68.0" fill="#64beca" opacity="0.95" />
<polygon points="248.0,65.0 229.0,295.0 215.0,310.0 155.0,307.0 175.0,360.0 256.0,361.0 273.0,347.0 264.0,87.0" fill="#573b38" opacity="0.95" />
<polygon points="249.0,66.0 228.0,299.0 155.0,309.0 175.0,360.0 256.0,361.0 273.0,347.0 264.0,87.0" fill="#573b38" opacity="0.95" />
<polygon points="149.0,56.0 165.0,43.0 218.0,44.0 236.0,62.0 236.0,95.0 213.0,113.0 164.0,112.0 147.0,96.0" fill="#64beca" opacity="0.95" />
<polygon points="195.0,56.0 185.0,67.0 185.0,104.0 219.0,110.0 235.0,94.0 235.0,64.0" fill="#a7584b" />
<polygon points="182.0,51.0 156.0,50.0 148.0,62.0 148.0,95.0 163.0,110.0 168.0,108.0 171.0,74.0" fill="#a7584b" />
<polygon points="195.0,56.0 185.0,67.0 185.0,104.0 219.0,110.0 235.0,94.0 235.0,63.0" fill="#a7584b" opacity="0.95" />
<polygon points="159.0,47.0 184.0,52.0 167.0,110.0 215.0,111.0 184.0,104.0 184.0,67.0 195.0,55.0 229.0,61.0 231.0,55.0 210.0,44.0" fill="#573b38" />
<polygon points="195.0,56.0 185.0,67.0 185.0,103.0 219.0,110.0 235.0,94.0 235.0,64.0" fill="#a7584b" opacity="0.95" />
<polygon points="161.0,46.0 182.0,52.0 169.0,110.0 211.0,110.0 184.0,104.0 184.0,67.0 195.0,55.0 229.0,61.0 231.0,55.0 210.0,44.0" fill="#573b38" opacity="0.95" />
<polygon points="164.0,272.0 170.0,274.0 183.0,273.0 185.0,275.0 176.0,293.0 163.0,293.0 161.0,291.0 161.0,275.0" fill="#64beca" />
<polygon points="224.0,48.0 176.0,46.0 182.0,54.0 172.0,74.0 170.0,110.0 187.0,109.0 183.0,72.0 189.0,59.0 197.0,55.0 229.0,61.0" fill="#573b38" opacity="0.95" />
<polygon points="162.0,273.0 182.0,273.0 185.0,275.0 177.0,292.0 164.0,293.0 161.0,291.0" fill="#64beca" opacity="0.95" />
<polygon points="163.0,273.0 179.0,273.0 184.0,277.0 176.0,292.0 165.0,293.0 161.0,290.0 161.0,275.0" fill="#64beca" opacity="0.95" />
<polygon points="184.0,275.0 181.0,274.0 178.0,277.0 176.0,275.0 163.0,275.0 162.0,280.0 163.0,281.0 181.0,281.0 183.0,279.0" fill="#f3fbfb" />
<polygon points="151.0,122.0 153.0,122.0 157.0,126.0 157.0,129.0 154.0,132.0 150.0,132.0 147.0,129.0 148.0,125.0" fill="#64beca" />
<polygon points="231.0,137.0 234.0,138.0 237.0,142.0 236.0,145.0 234.0,147.0 230.0,147.0 227.0,144.0 227.0,141.0" fill="#64beca" />
<polygon points="184.0,275.0 162.0,276.0 162.0,280.0 166.0,282.0 162.0,291.0 177.0,291.0 168.0,283.0 180.0,281.0" fill="#f3fbfb" opacity="0.95" />
<polygon points="162.0,287.0 162.0,291.0 163.0,292.0 176.0,292.0 178.0,289.0 177.0,286.0 175.0,286.0 173.0,288.0 171.0,286.0 163.0,286.0" fill="#f3fbfb" />
<polygon points="175.0,275.0 165.0,275.0 162.0,277.0 166.0,282.0 166.0,285.0 162.0,288.0 163.0,291.0 169.0,292.0 172.0,290.0 170.0,284.0 178.0,279.0" fill="#f3fbfb" opacity="0.95" />
<polygon points="150.0,139.0 149.0,140.0 149.0,144.0 150.0,145.0 154.0,145.0 155.0,144.0 156.0,141.0 154.0,139.0" fill="#020608" />
<polygon points="151.0,124.0 149.0,126.0 149.0,130.0 150.0,131.0 153.0,131.0 155.0,129.0 155.0,125.0 154.0,124.0" fill="#020608" />
<polygon points="230.0,139.0 229.0,140.0 229.0,144.0 231.0,146.0 233.0,146.0 235.0,144.0 235.0,141.0 233.0,139.0" fill="#020608" />
<polygon points="230.0,124.0 229.0,125.0 229.0,129.0 231.0,131.0 233.0,131.0 235.0,129.0 235.0,126.0 233.0,124.0" fill="#020608" />
<polygon points="148.0,228.0 147.0,229.0 147.0,240.0 148.0,241.0 149.0,240.0 149.0,229.0" fill="#2f7179" />
<polygon points="189.0,167.0 188.0,168.0 188.0,171.0 190.0,173.0 191.0,173.0 193.0,171.0 193.0,169.0 191.0,167.0" fill="#020608" />
<polygon points="179.0,179.0 178.0,180.0 178.0,183.0 180.0,185.0 181.0,185.0 183.0,183.0 183.0,181.0 181.0,179.0" fill="#020608" />
<polygon points="179.0,167.0 178.0,168.0 178.0,171.0 180.0,173.0 181.0,173.0 183.0,171.0 183.0,169.0 181.0,167.0" fill="#020608" />
<polygon points="200.0,155.0 198.0,157.0 198.0,158.0 200.0,160.0 203.0,160.0 204.0,159.0 204.0,157.0 202.0,155.0" fill="#020608" />
<polygon points="152.0,176.0 151.0,177.0 151.0,180.0 152.0,181.0 155.0,181.0 156.0,180.0 156.0,177.0 155.0,176.0" fill="#020608" />
<polygon points="151.0,153.0 150.0,154.0 150.0,157.0 151.0,158.0 154.0,158.0 155.0,157.0 155.0,154.0 154.0,153.0" fill="#020608" />
<polygon points="162.0,284.0 163.0,285.0 169.0,285.0 170.0,284.0 172.0,285.0 173.0,284.0 172.0,283.0 171.0,284.0 169.0,283.0 163.0,283.0" fill="#478d98" />
</svg>