<svg xmlns="http://www.w3.org/2000/svg" width="768" height="768" viewBox="0 0 384 384">
<rect width="384" height="384" fill="#935d59"/>
<polygon points="2.0,0.0 2.0,383.0 191.0,383.0 124.0,149.0 188.0,90.0 246.0,119.0 247.0,63.0 312.0,128.0 254.0,133.0 348.0,321.0 213.0,279.0 302.0,383.0 383.0,383.0 383.0,91.0 293.0,0.0" fill="#9b524d" />
<polygon points="0.0,0.0 0.0,383.0 190.0,383.0 124.0,149.0 176.0,93.0 247.0,116.0 250.0,63.0 347.0,315.0 215.0,281.0 301.0,383.0 383.0,383.0 383.0,90.0 293.0,0.0" fill="#9b524d" opacity="0.95" />
<polygon points="0.0,0.0 0.0,383.0 190.0,383.0 124.0,149.0 176.0,93.0 246.0,115.0 251.0,63.0 347.0,315.0 215.0,281.0 301.0,383.0 383.0,383.0 383.0,90.0 293.0,0.0" fill="#9b524d" opacity="0.95" />
<polygon points="191.0,93.0 150.0,108.0 125.0,152.0 139.0,202.0 187.0,229.0 232.0,213.0 258.0,172.0 246.0,121.0" fill="#80f6f5" />
<polygon points="261.0,149.0 250.0,201.0 203.0,231.0 207.0,269.0 245.0,298.0 249.0,241.0 264.0,319.0 344.0,319.0 342.0,276.0" fill="#6f3833" />
<polygon points="191.0,93.0 150.0,108.0 125.0,152.0 139.0,202.0 187.0,229.0 232.0,213.0 258.0,172.0 246.0,121.0" fill="#80f6f5" opacity="0.95" />
<polygon points="191.0,231.0 186.0,274.0 145.0,318.0 148.0,335.0 192.0,383.0 301.0,383.0 252.0,329.0 247.0,375.0 248.0,325.0 198.0,277.0" fill="#6f3833" />
<polygon points="262.0,151.0 250.0,202.0 203.0,231.0 207.0,269.0 266.0,320.0 341.0,320.0 342.0,276.0" fill="#6f3833" opacity="0.95" />
<polygon points="294.0,0.0 383.0,90.0 383.0,0.0" fill="#6f3833" />
<polygon points="134.0,154.0 153.0,118.0 193.0,102.0 227.0,115.0 242.0,132.0 250.0,157.0 136.0,159.0" fill="#80f6f5" />
<polygon points="136.0,151.0 137.0,157.0 248.0,156.0 234.0,123.0 199.0,104.0 161.0,113.0" fill="#2f5444" />
<polygon points="191.0,93.0 150.0,108.0 125.0,152.0 139.0,202.0 187.0,229.0 232.0,213.0 258.0,172.0 246.0,121.0" fill="#80f6f5" opacity="0.95" />
<polygon points="263.0,153.0 250.0,202.0 203.0,231.0 207.0,269.0 266.0,320.0 341.0,320.0 342.0,276.0" fill="#6f3833" opacity="0.95" />
<polygon points="189.0,249.0 183.0,280.0 146.0,317.0 148.0,335.0 191.0,383.0 300.0,383.0 247.0,331.0 244.0,315.0 200.0,280.0" fill="#6f3833" opacity="0.95" />
<polygon points="134.0,154.0 153.0,118.0 190.0,102.0 227.0,115.0 249.0,150.0 246.0,159.0" fill="#80f6f5" opacity="0.95" />
<polygon points="251.0,67.0 249.0,124.0 252.0,127.0 308.0,127.0" fill="#6f3833" />
<polygon points="147.0,316.0 148.0,335.0 191.0,383.0 300.0,383.0 247.0,331.0 244.0,315.0 200.0,280.0 191.0,260.0" fill="#6f3833" opacity="0.95" />
<polygon points="294.0,0.0 383.0,89.0 383.0,0.0" fill="#6f3833" opacity="0.95" />
<polygon points="136.0,151.0 138.0,157.0 248.0,156.0 234.0,123.0 199.0,104.0 161.0,113.0" fill="#2f5444" opacity="0.95" />
<polygon points="134.0,154.0 153.0,118.0 190.0,102.0 227.0,115.0 249.0,150.0 245.0,159.0" fill="#80f6f5" opacity="0.95" />
<polygon points="294.0,0.0 383.0,89.0 383.0,0.0" fill="#6f3833" opacity="0.95" />
<polygon points="136.0,151.0 139.0,157.0 248.0,155.0 234.0,123.0 199.0,104.0 161.0,113.0" fill="#2f5444" opacity="0.95" />
<polygon points="195.0,230.0 197.0,272.0 215.0,294.0 224.0,298.0 204.0,264.0 202.0,231.0" fill="#a9aea9" />
<polygon points="181.0,230.0 183.0,258.0 175.0,283.0 185.0,273.0 191.0,242.0 200.0,278.0 219.0,294.0 204.0,264.0 202.0,231.0" fill="#a9aea9" opacity="0.95" />
<polygon points="180.0,230.0 183.0,243.0 180.0,272.0 165.0,297.0 185.0,273.0 188.0,231.0" fill="#a9aea9" />
<polygon points="182.0,230.0 182.0,242.0 194.0,244.0 200.0,278.0 218.0,293.0 219.0,287.0 204.0,264.0 201.0,232.0" fill="#a9aea9" opacity="0.95" />
<polygon points="181.0,242.0 179.0,243.0 178.0,260.0 174.0,273.0 176.0,275.0 179.0,272.0 182.0,258.0" fill="#f0dcd5" />
<polygon points="175.0,275.0 172.0,277.0 170.0,282.0 161.0,292.0 161.0,295.0 170.0,287.0 176.0,277.0" fill="#fefcf8" />
<polygon points="134.0,318.0 137.0,321.0 133.0,325.0 130.0,322.0 130.0,321.0 133.0,318.0" fill="#9b524d" />
<polygon points="130.0,64.0 133.0,61.0 134.0,61.0 137.0,64.0 135.0,66.0 132.0,66.0" fill="#9b524d" />
<polygon points="133.0,253.0 134.0,253.0 137.0,256.0 137.0,257.0 134.0,260.0 133.0,260.0 130.0,257.0 130.0,256.0" fill="#9b524d" />
<polygon points="130.0,255.0 134.0,253.0 137.0,255.0 137.0,258.0 133.0,260.0 130.0,258.0" fill="#9b524d" opacity="0.95" />
<polygon points="180.0,252.0 178.0,253.0 178.0,260.0 175.0,272.0 177.0,273.0 179.0,272.0 182.0,258.0 182.0,253.0" fill="#f0dcd5" opacity="0.95" />
<polygon points="130.0,320.0 134.0,318.0 137.0,320.0 137.0,322.0 133.0,324.0 130.0,322.0" fill="#9b524d" opacity="0.95" />
<polygon points="249.0,242.0 248.0,243.0 249.0,244.0 248.0,245.0 248.0,255.0 247.0,256.0 250.0,258.0 251.0,256.0 250.0,255.0 250.0,245.0 249.0,244.0 250.0,243.0" fill="#9b524d" />
<polygon points="221.0,289.0 220.0,290.0 220.0,292.0 223.0,295.0 224.0,295.0 225.0,294.0 225.0,293.0" fill="#f0dcd5" />
</svg>