<svg xmlns="http://www.w3.org/2000/svg" width="768" height="768" viewBox="0 0 384 384">
<rect width="384" height="384" fill="#81665d"/>
<polygon points="105.0,163.0 0.0,258.0 0.0,283.0 134.0,378.0 174.0,282.0 170.0,237.0 179.0,267.0 185.0,241.0 203.0,251.0" fill="#e3d1c7" />
<polygon points="194.0,0.0 364.0,84.0 187.0,251.0 142.0,378.0 72.0,383.0 383.0,383.0 383.0,332.0 202.0,326.0 383.0,316.0 383.0,249.0 230.0,269.0 383.0,214.0 316.0,191.0 383.0,169.0 383.0,0.0" fill="#42291e" />
<polygon points="105.0,164.0 0.0,257.0 0.0,284.0 130.0,377.0 182.0,243.0 201.0,246.0" fill="#e3d1c7" opacity="0.95" />
<polygon points="215.0,6.0 0.0,0.0 100.0,37.0 0.0,39.0 0.0,109.0 85.0,119.0 53.0,138.0 78.0,181.0 16.0,197.0 54.0,213.0 143.0,113.0 64.0,87.0 155.0,84.0 175.0,54.0 140.0,39.0" fill="#82533d" />
<polygon points="195.0,0.0 364.0,84.0 139.0,378.0 72.0,383.0 383.0,383.0 383.0,332.0 203.0,327.0 383.0,316.0 383.0,249.0 233.0,269.0 383.0,214.0 316.0,192.0 383.0,169.0 383.0,0.0" fill="#42291e" opacity="0.95" />
<polygon points="105.0,164.0 0.0,257.0 0.0,284.0 127.0,376.0 174.0,282.0 170.0,237.0 201.0,247.0" fill="#e3d1c7" opacity="0.95" />
<polygon points="199.0,0.0 364.0,84.0 138.0,377.0 73.0,383.0 383.0,383.0 383.0,332.0 204.0,327.0 383.0,316.0 383.0,249.0 233.0,259.0 383.0,214.0 316.0,192.0 383.0,169.0 383.0,0.0" fill="#42291e" opacity="0.95" />
<polygon points="383.0,215.0 293.0,213.0 264.0,225.0 231.0,269.0 298.0,251.0 331.0,263.0 383.0,248.0" fill="#82533d" />
<polygon points="216.0,7.0 0.0,0.0 63.0,35.0 0.0,39.0 0.0,109.0 86.0,119.0 54.0,137.0 71.0,183.0 16.0,197.0 55.0,212.0 142.0,115.0 68.0,87.0 156.0,83.0 172.0,53.0 136.0,39.0" fill="#82533d" opacity="0.95" />
<polygon points="241.0,82.0 182.0,122.0 186.0,152.0 169.0,123.0 138.0,154.0 134.0,189.0 174.0,219.0 166.0,141.0 201.0,242.0 261.0,158.0 195.0,213.0" fill="#76c7d4" />
<polygon points="0.0,110.0 0.0,218.0 36.0,224.0 52.0,214.0 15.0,195.0 77.0,181.0 52.0,176.0 61.0,166.0 52.0,137.0 84.0,120.0" fill="#b28269" />
<polygon points="209.0,6.0 0.0,0.0 57.0,34.0 0.0,39.0 0.0,109.0 86.0,120.0 54.0,137.0 64.0,183.0 16.0,197.0 55.0,212.0 142.0,115.0 66.0,88.0 155.0,83.0 169.0,54.0 139.0,40.0" fill="#82533d" opacity="0.95" />
<polygon points="97.0,179.0 117.0,195.0 117.0,239.0 137.0,280.0 127.0,312.0 95.0,279.0" fill="#e3d1c7" />
<polygon points="0.0,338.0 9.0,349.0 0.0,355.0 0.0,383.0 65.0,383.0 92.0,370.0 119.0,374.0 55.0,331.0" fill="#82533d" />
<polygon points="383.0,317.0 203.0,326.0 259.0,330.0 284.0,352.0 367.0,340.0 361.0,331.0 383.0,329.0" fill="#82533d" />
<polygon points="244.0,72.0 214.0,99.0 243.0,83.0 241.0,134.0 196.0,213.0 262.0,158.0 204.0,242.0 285.0,141.0 262.0,85.0 255.0,118.0" fill="#36a6b4" />
<polygon points="1.0,271.0 19.0,280.0 18.0,260.0 33.0,254.0 44.0,298.0 79.0,281.0 95.0,331.0 98.0,311.0 112.0,356.0" fill="#e3d1c7" />
<polygon points="383.0,215.0 293.0,213.0 246.0,242.0 234.0,269.0 298.0,251.0 331.0,263.0 383.0,248.0" fill="#82533d" opacity="0.95" />
<polygon points="240.0,83.0 184.0,119.0 188.0,150.0 169.0,123.0 135.0,168.0 172.0,218.0 176.0,185.0 199.0,240.0 261.0,158.0 195.0,213.0 240.0,134.0" fill="#76c7d4" opacity="0.95" />
<polygon points="154.0,86.0 134.0,74.0 64.0,88.0 75.0,92.0 63.0,97.0 89.0,107.0 143.0,110.0" fill="#42291e" />
<polygon points="0.0,110.0 0.0,218.0 36.0,224.0 51.0,213.0 15.0,195.0 70.0,183.0 52.0,176.0 51.0,137.0 81.0,119.0" fill="#b28269" opacity="0.95" />
<polygon points="97.0,179.0 117.0,195.0 118.0,242.0 137.0,280.0 122.0,313.0 96.0,282.0" fill="#e3d1c7" opacity="0.95" />
<polygon points="0.0,338.0 9.0,349.0 0.0,355.0 0.0,383.0 71.0,383.0 94.0,369.0 116.0,374.0 56.0,332.0" fill="#82533d" opacity="0.95" />
<polygon points="383.0,215.0 293.0,213.0 246.0,242.0 236.0,267.0 279.0,276.0 290.0,271.0 275.0,263.0 298.0,251.0 321.0,262.0 383.0,248.0" fill="#82533d" opacity="0.95" />
<polygon points="383.0,317.0 204.0,327.0 257.0,330.0 274.0,350.0 362.0,343.0 363.0,332.0 383.0,329.0" fill="#82533d" opacity="0.95" />
<polygon points="298.0,24.0 284.0,64.0 327.0,105.0 333.0,94.0 309.0,63.0 305.0,32.0" fill="#e83545" />
<polygon points="244.0,72.0 216.0,97.0 243.0,84.0 241.0,134.0 196.0,213.0 262.0,158.0 208.0,222.0 285.0,141.0" fill="#36a6b4" opacity="0.95" />
<polygon points="0.0,110.0 0.0,218.0 36.0,224.0 51.0,213.0 15.0,195.0 63.0,183.0 52.0,176.0 51.0,137.0 79.0,116.0" fill="#b28269" opacity="0.95" />
<polygon points="239.0,83.0 182.0,122.0 187.0,151.0 162.0,127.0 165.0,175.0 153.0,147.0 142.0,191.0 172.0,218.0 174.0,184.0 197.0,239.0 197.0,195.0 240.0,134.0" fill="#76c7d4" opacity="0.95" />
<polygon points="19.0,260.0 38.0,260.0 43.0,297.0 84.0,286.0 81.0,308.0 90.0,323.0 100.0,314.0 109.0,355.0 12.0,285.0" fill="#e3d1c7" opacity="0.95" />
<polygon points="252.0,58.0 248.0,64.0 319.0,132.0 321.0,118.0 312.0,104.0" fill="#fcadb8" />
<polygon points="264.0,89.0 265.0,120.0 242.0,94.0 241.0,134.0 198.0,195.0 196.0,213.0 210.0,221.0 243.0,201.0 285.0,141.0" fill="#36a6b4" opacity="0.95" />
<polygon points="217.0,13.0 194.0,30.0 221.0,69.0 189.0,40.0 180.0,56.0 194.0,57.0 221.0,83.0 226.0,57.0 245.0,36.0 234.0,38.0" fill="#fd8694" />
<polygon points="98.0,179.0 117.0,195.0 118.0,242.0 137.0,280.0 122.0,313.0 96.0,281.0 98.0,212.0 76.0,248.0 55.0,242.0 94.0,202.0" fill="#e3d1c7" opacity="0.95" />
<polygon points="153.0,85.0 127.0,75.0 74.0,86.0 70.0,97.0 89.0,107.0 142.0,110.0" fill="#42291e" opacity="0.95" />
<polygon points="285.0,18.0 254.0,61.0 294.0,85.0 322.0,118.0 277.0,60.0" fill="#fd8694" />
<polygon points="289.0,16.0 278.0,60.0 325.0,120.0 360.0,88.0 341.0,89.0 311.0,48.0 334.0,94.0 327.0,106.0 286.0,69.0 302.0,21.0" fill="#fb6371" />
<polygon points="88.0,202.0 93.0,207.0 78.0,246.0 74.0,250.0 55.0,246.0 55.0,239.0" fill="#e3d1c7" />
<polygon points="271.0,93.0 286.0,141.0 244.0,201.0 208.0,224.0 207.0,245.0 216.0,218.0 232.0,221.0 270.0,180.0 270.0,164.0 285.0,166.0 310.0,140.0" fill="#137887" />
<polygon points="98.0,253.0 96.0,279.0 119.0,311.0 127.0,311.0 136.0,280.0 116.0,261.0 118.0,297.0 103.0,277.0" fill="#caa38c" />
<polygon points="20.0,260.0 38.0,260.0 44.0,297.0 73.0,281.0 84.0,286.0 81.0,308.0 89.0,322.0 100.0,314.0 107.0,354.0 67.0,330.0 62.0,311.0 49.0,317.0 13.0,286.0" fill="#e3d1c7" opacity="0.95" />
<polygon points="0.0,11.0 2.0,39.0 19.0,35.0 51.0,38.0 57.0,34.0 40.0,32.0 40.0,25.0 24.0,16.0" fill="#b28269" />
<polygon points="21.0,258.0 17.0,284.0 25.0,286.0 34.0,268.0 38.0,299.0 63.0,310.0 76.0,331.0 70.0,310.0 81.0,310.0 85.0,289.0 73.0,282.0 44.0,299.0 37.0,260.0" fill="#caa38c" />
<polygon points="152.0,86.0 127.0,75.0 79.0,85.0 71.0,97.0 89.0,107.0 141.0,110.0" fill="#42291e" opacity="0.95" />
<polygon points="88.0,203.0 74.0,223.0 62.0,231.0 55.0,245.0 74.0,249.0 91.0,215.0 92.0,207.0" fill="#caa38c" />
<polygon points="144.0,113.0 107.0,161.0 118.0,174.0 113.0,158.0 120.0,158.0 128.0,179.0 136.0,137.0 146.0,124.0" fill="#fcadb8" />
<polygon points="298.0,24.0 284.0,64.0 326.0,105.0 333.0,94.0 309.0,63.0 305.0,32.0" fill="#e83545" opacity="0.95" />
<polygon points="266.0,85.0 287.0,124.0 303.0,124.0 311.0,140.0 285.0,167.0 271.0,164.0 271.0,180.0 235.0,218.0 315.0,144.0 308.0,125.0" fill="#14505c" />
<polygon points="0.0,319.0 0.0,329.0 51.0,328.0 40.0,319.0" fill="#caa38c" />
<polygon points="245.0,39.0 227.0,57.0 221.0,84.0 194.0,58.0 179.0,60.0 196.0,66.0 190.0,78.0 201.0,106.0 208.0,92.0 214.0,97.0 226.0,84.0" fill="#fb6371" />
<polygon points="176.0,235.0 169.0,242.0 175.0,282.0 160.0,296.0 135.0,355.0 184.0,265.0 176.0,265.0 176.0,245.0 170.0,248.0" fill="#caa38c" />
<polygon points="217.0,13.0 195.0,32.0 221.0,68.0 190.0,42.0 181.0,55.0 221.0,82.0 241.0,39.0 206.0,33.0 227.0,31.0" fill="#fd8694" opacity="0.95" />
<polygon points="298.0,24.0 284.0,64.0 326.0,105.0 333.0,94.0 309.0,63.0 305.0,32.0" fill="#e83545" opacity="0.95" />
<polygon points="285.0,18.0 254.0,61.0 295.0,86.0 276.0,56.0" fill="#fd8694" opacity="0.95" />
<polygon points="249.0,62.0 276.0,93.0 310.0,117.0 313.0,127.0 321.0,127.0 320.0,115.0 294.0,86.0" fill="#fcadb8" opacity="0.95" />
<polygon points="354.0,87.0 347.0,100.0 326.0,120.0 323.0,135.0 358.0,92.0" fill="#e83545" />
<polygon points="85.0,289.0 73.0,282.0 41.0,301.0 69.0,316.0 72.0,308.0 80.0,308.0 79.0,299.0" fill="#caa38c" opacity="0.95" />
<polygon points="0.0,11.0 3.0,39.0 53.0,35.0 40.0,32.0 40.0,25.0 23.0,16.0" fill="#b28269" opacity="0.95" />
<polygon points="194.0,32.0 189.0,39.0 201.0,54.0 219.0,70.0 221.0,67.0 219.0,61.0" fill="#fcadb8" />
<polygon points="246.0,276.0 252.0,269.0 267.0,267.0 288.0,268.0 295.0,272.0 291.0,275.0 248.0,278.0" fill="#42291e" />
<polygon points="116.0,262.0 119.0,293.0 112.0,298.0 122.0,312.0 130.0,307.0 135.0,279.0" fill="#caa38c" opacity="0.95" />
<polygon points="172.0,88.0 162.0,105.0 162.0,121.0 146.0,134.0 145.0,150.0 168.0,122.0 169.0,107.0 174.0,101.0" fill="#36a6b4" />
<polygon points="255.0,77.0 249.0,85.0 249.0,95.0 254.0,114.0 262.0,123.0 264.0,109.0 259.0,89.0 260.0,83.0" fill="#137887" />
<polygon points="168.0,183.0 168.0,197.0 178.0,223.0 182.0,214.0 174.0,184.0" fill="#36a6b4" />
<polygon points="162.0,138.0 156.0,145.0 155.0,154.0 160.0,173.0 165.0,181.0 167.0,154.0 165.0,141.0" fill="#36a6b4" />
<polygon points="303.0,125.0 292.0,129.0 281.0,121.0 286.0,141.0 268.0,156.0 267.0,163.0 283.0,167.0 305.0,148.0 310.0,138.0" fill="#137887" opacity="0.95" />
<polygon points="143.0,122.0 133.0,127.0 108.0,159.0 113.0,169.0 113.0,158.0 122.0,159.0 129.0,177.0" fill="#fcadb8" opacity="0.95" />
<polygon points="215.0,14.0 195.0,32.0 221.0,66.0 190.0,42.0 182.0,53.0 221.0,82.0 239.0,40.0 217.0,35.0 225.0,26.0" fill="#fd8694" opacity="0.95" />
<polygon points="89.0,204.0 84.0,205.0 74.0,223.0 62.0,231.0 55.0,243.0 68.0,248.0 77.0,246.0 91.0,215.0" fill="#caa38c" opacity="0.95" />
<polygon points="312.0,51.0 310.0,63.0 334.0,94.0 328.0,105.0 318.0,103.0 326.0,118.0 352.0,86.0 340.0,88.0 328.0,58.0" fill="#fb6371" opacity="0.95" />
<polygon points="330.0,44.0 329.0,48.0 334.0,65.0 350.0,75.0 351.0,69.0 348.0,59.0 339.0,48.0 332.0,43.0" fill="#fcadb8" />
<polygon points="171.0,62.0 158.0,80.0 146.0,111.0 153.0,109.0 159.0,98.0 165.0,72.0 170.0,74.0 175.0,69.0" fill="#fcadb8" />
<polygon points="141.0,42.0 151.0,44.0 159.0,51.0 175.0,53.0 180.0,51.0 184.0,43.0 147.0,39.0" fill="#42291e" />
<polygon points="172.0,89.0 162.0,121.0 144.0,139.0 147.0,147.0 157.0,142.0 164.0,178.0 165.0,141.0 155.0,138.0 171.0,123.0 181.0,148.0 189.0,147.0 182.0,119.0 168.0,119.0" fill="#36a6b4" opacity="0.95" />
<polygon points="96.0,310.0 92.0,314.0 97.0,330.0 94.0,332.0 86.0,321.0 85.0,325.0 98.0,346.0 102.0,343.0 108.0,354.0 107.0,337.0" fill="#caa38c" />
<polygon points="249.0,63.0 307.0,114.0 315.0,128.0 321.0,127.0 320.0,115.0 294.0,86.0" fill="#fcadb8" opacity="0.95" />
<polygon points="305.0,127.0 284.0,126.0 286.0,141.0 267.0,161.0 283.0,167.0 310.0,140.0" fill="#137887" opacity="0.95" />
<polygon points="0.0,11.0 1.0,38.0 39.0,33.0 38.0,24.0 23.0,16.0" fill="#b28269" opacity="0.95" />
<polygon points="192.0,88.0 186.0,93.0 188.0,104.0 183.0,108.0 184.0,112.0 201.0,103.0 201.0,96.0" fill="#fd8694" />
<polygon points="178.0,117.0 171.0,122.0 172.0,132.0 181.0,148.0 186.0,151.0 189.0,147.0 189.0,140.0 181.0,128.0 183.0,119.0" fill="#36a6b4" />
<polygon points="0.0,308.0 0.0,318.0 38.0,318.0 31.0,313.0 29.0,315.0" fill="#b28269" />
<polygon points="259.0,152.0 263.0,159.0 239.0,191.0 216.0,213.0 209.0,213.0 211.0,201.0 231.0,181.0 226.0,171.0" fill="#36a6b4" opacity="0.95" />
<polygon points="0.0,219.0 0.0,231.0 14.0,230.0 16.0,228.0 30.0,231.0 35.0,226.0 33.0,223.0 22.0,223.0" fill="#caa38c" />
<polygon points="247.0,40.0 232.0,67.0 229.0,81.0 241.0,67.0 240.0,62.0 248.0,44.0" fill="#e83545" />
<polygon points="309.0,37.0 340.0,76.0 338.0,85.0 353.0,83.0 350.0,55.0 342.0,50.0 353.0,70.0 348.0,76.0 332.0,63.0 328.0,45.0 334.0,42.0 321.0,33.0 316.0,50.0" fill="#fd8694" />
<polygon points="228.0,220.0 223.0,219.0 220.0,216.0 218.0,217.0 218.0,222.0 210.0,228.0 210.0,243.0 230.0,223.0" fill="#14505c" />
<polygon points="259.0,153.0 215.0,197.0 210.0,210.0 238.0,191.0 260.0,160.0" fill="#76c7d4" opacity="0.95" />
<polygon points="115.0,241.0 111.0,248.0 113.0,269.0 104.0,277.0 117.0,294.0 112.0,265.0 116.0,260.0 125.0,267.0 119.0,260.0" fill="#b28269" />
<polygon points="283.0,20.0 254.0,61.0 285.0,79.0 288.0,75.0 276.0,56.0 286.0,24.0" fill="#fd8694" opacity="0.95" />
<polygon points="224.0,13.0 221.0,17.0 228.0,30.0 234.0,37.0 241.0,37.0 243.0,35.0 238.0,26.0" fill="#fcadb8" />
<polygon points="296.0,272.0 300.0,269.0 311.0,267.0 327.0,267.0 330.0,270.0 325.0,274.0 309.0,277.0 300.0,276.0" fill="#42291e" />
<polygon points="275.0,96.0 290.0,127.0 304.0,123.0 279.0,96.0" fill="#14505c" opacity="0.95" />
<polygon points="312.0,52.0 310.0,63.0 334.0,94.0 328.0,105.0 320.0,106.0 327.0,117.0 352.0,88.0 340.0,88.0 328.0,58.0" fill="#fb6371" opacity="0.95" />
<polygon points="182.0,57.0 196.0,66.0 191.0,78.0 195.0,80.0 193.0,88.0 201.0,95.0 209.0,92.0 215.0,95.0 224.0,84.0 217.0,82.0 197.0,60.0" fill="#fb6371" opacity="0.95" />
<polygon points="246.0,276.0 252.0,269.0 282.0,267.0 294.0,271.0 291.0,275.0 249.0,278.0" fill="#42291e" opacity="0.95" />
<polygon points="182.0,61.0 180.0,63.0 186.0,75.0 185.0,83.0 187.0,89.0 194.0,83.0 189.0,77.0 194.0,71.0 195.0,66.0 191.0,62.0" fill="#e83545" />
<polygon points="255.0,80.0 249.0,85.0 249.0,95.0 254.0,114.0 262.0,122.0 264.0,109.0 259.0,82.0" fill="#137887" opacity="0.95" />
<polygon points="162.0,137.0 166.0,141.0 168.0,154.0 167.0,177.0 164.0,179.0 159.0,173.0 154.0,154.0 156.0,141.0" fill="#76c7d4" opacity="0.95" />
<polygon points="205.0,31.0 208.0,28.0 216.0,31.0 222.0,30.0 233.0,42.0 230.0,44.0 221.0,38.0 209.0,36.0" fill="#fd8694" />
<polygon points="32.0,268.0 25.0,288.0 27.0,289.0 31.0,285.0 36.0,294.0 35.0,281.0 38.0,278.0" fill="#b28269" />
<polygon points="293.0,18.0 289.0,19.0 279.0,41.0 277.0,56.0 281.0,63.0 293.0,28.0 299.0,23.0" fill="#fb6371" opacity="0.95" />
<polygon points="357.0,91.0 352.0,91.0 347.0,100.0 332.0,112.0 322.0,133.0 326.0,133.0 345.0,112.0" fill="#e83545" opacity="0.95" />
<polygon points="73.0,308.0 71.0,310.0 72.0,316.0 78.0,326.0 77.0,331.0 79.0,332.0 83.0,327.0 88.0,332.0 81.0,313.0" fill="#b28269" />
<polygon points="197.0,66.0 192.0,74.0 195.0,81.0 193.0,87.0 203.0,95.0 209.0,92.0 217.0,94.0 223.0,85.0 201.0,66.0" fill="#fb6371" opacity="0.95" />
<polygon points="330.0,44.0 329.0,48.0 334.0,65.0 346.0,74.0 351.0,74.0 349.0,62.0 344.0,53.0 334.0,44.0" fill="#fcadb8" opacity="0.95" />
<polygon points="156.0,125.0 144.0,143.0 156.0,146.0 156.0,159.0 163.0,175.0 167.0,154.0 165.0,141.0 155.0,137.0 161.0,129.0" fill="#36a6b4" opacity="0.95" />
<polygon points="255.0,80.0 249.0,85.0 249.0,95.0 254.0,114.0 261.0,122.0 264.0,120.0 264.0,109.0 259.0,82.0" fill="#137887" opacity="0.95" />
<polygon points="206.0,31.0 209.0,35.0 218.0,36.0 230.0,43.0 232.0,42.0 222.0,31.0 216.0,32.0 211.0,29.0" fill="#fb6371" />
<polygon points="192.0,88.0 187.0,91.0 186.0,100.0 188.0,104.0 183.0,108.0 185.0,112.0 201.0,103.0 200.0,94.0" fill="#fd8694" opacity="0.95" />
<polygon points="281.0,99.0 278.0,103.0 287.0,124.0 293.0,128.0 301.0,121.0 301.0,118.0" fill="#14505c" opacity="0.95" />
<polygon points="228.0,220.0 220.0,217.0 218.0,218.0 217.0,224.0 210.0,228.0 209.0,240.0 213.0,240.0 229.0,224.0" fill="#14505c" opacity="0.95" />
<polygon points="302.0,155.0 293.0,158.0 283.0,168.0 271.0,164.0 272.0,179.0 278.0,178.0" fill="#14505c" opacity="0.95" />
<polygon points="177.0,57.0 172.0,56.0 164.0,61.0 158.0,61.0 156.0,63.0 164.0,67.0 171.0,61.0 173.0,63.0" fill="#e83545" />
<polygon points="183.0,61.0 181.0,64.0 186.0,75.0 185.0,83.0 188.0,87.0 194.0,83.0 190.0,76.0 195.0,66.0 188.0,61.0" fill="#e83545" opacity="0.95" />
<polygon points="175.0,84.0 173.0,86.0 175.0,90.0 175.0,101.0 170.0,107.0 169.0,121.0 173.0,119.0 173.0,112.0 178.0,104.0 178.0,90.0" fill="#137887" />
<polygon points="293.0,18.0 288.0,21.0 279.0,41.0 277.0,56.0 281.0,60.0 287.0,52.0 293.0,28.0 298.0,23.0" fill="#fb6371" opacity="0.95" />
<polygon points="179.0,78.0 175.0,82.0 179.0,90.0 180.0,103.0 175.0,109.0 175.0,118.0 179.0,114.0 179.0,104.0 181.0,102.0" fill="#14505c" />
<polygon points="354.0,95.0 350.0,95.0 346.0,102.0 332.0,112.0 324.0,124.0 324.0,131.0 328.0,131.0 355.0,98.0" fill="#e83545" opacity="0.95" />
<polygon points="271.0,172.0 266.0,172.0 266.0,174.0 248.0,190.0 247.0,195.0 251.0,195.0 268.0,182.0 271.0,178.0" fill="#137887" opacity="0.95" />
<polygon points="228.0,220.0 222.0,218.0 219.0,219.0 218.0,222.0 210.0,228.0 210.0,237.0 213.0,239.0 229.0,224.0" fill="#14505c" opacity="0.95" />
<polygon points="161.0,107.0 159.0,108.0 160.0,109.0 154.0,118.0 156.0,121.0 155.0,122.0 156.0,124.0 158.0,124.0 162.0,119.0 161.0,110.0 162.0,108.0" fill="#76c7d4" />
<polygon points="235.0,164.0 227.0,171.0 226.0,173.0 227.0,177.0 233.0,171.0 236.0,165.0" fill="#137887" />
<polygon points="352.0,55.0 351.0,56.0 354.0,62.0 355.0,75.0 356.0,76.0 358.0,74.0 361.0,76.0 362.0,73.0 358.0,70.0 358.0,62.0" fill="#fb6371" />
<polygon points="271.0,175.0 268.0,173.0 252.0,186.0 248.0,192.0 251.0,194.0 258.0,190.0 270.0,180.0" fill="#137887" opacity="0.95" />
<polygon points="274.0,164.0 271.0,166.0 272.0,177.0 276.0,179.0 284.0,172.0 284.0,170.0" fill="#14505c" opacity="0.95" />
<polygon points="312.0,134.0 310.0,135.0 311.0,140.0 306.0,147.0 306.0,149.0 308.0,150.0 311.0,149.0 315.0,144.0 315.0,138.0 314.0,135.0" fill="#14505c" opacity="0.95" />
<polygon points="160.0,114.0 157.0,115.0 157.0,117.0 155.0,118.0 156.0,122.0 158.0,123.0 160.0,122.0 162.0,119.0 162.0,115.0" fill="#76c7d4" opacity="0.95" />
</svg>