<svg xmlns="http://www.w3.org/2000/svg" width="768" height="768" viewBox="0 0 384 384">
<rect width="384" height="384" fill="#936658"/>
<polygon points="334.0,55.0 77.0,25.0 30.0,89.0 117.0,138.0 2.0,137.0 0.0,210.0 154.0,97.0 334.0,114.0 266.0,102.0" fill="#955443" />
<polygon points="162.0,107.0 127.0,143.0 135.0,196.0 184.0,220.0 247.0,200.0 263.0,165.0 252.0,128.0 214.0,103.0" fill="#c5f1fe" />
<polygon points="108.0,161.0 0.0,267.0 102.0,309.0 25.0,357.0 114.0,377.0 152.0,308.0 102.0,269.0 280.0,270.0 31.0,266.0 138.0,227.0" fill="#c27f64" />
<polygon points="334.0,54.0 78.0,25.0 29.0,82.0 87.0,129.0 0.0,139.0 0.0,210.0 73.0,203.0 9.0,180.0 155.0,97.0 331.0,114.0 268.0,96.0" fill="#955443" opacity="0.95" />
<polygon points="0.0,215.0 113.0,377.0 152.0,308.0 100.0,268.0 279.0,274.0 207.0,233.0 35.0,264.0 96.0,201.0" fill="#c27f64" opacity="0.95" />
<polygon points="162.0,107.0 127.0,143.0 135.0,196.0 184.0,220.0 247.0,200.0 262.0,172.0 252.0,128.0 214.0,103.0" fill="#c5f1fe" opacity="0.95" />
<polygon points="334.0,55.0 79.0,26.0 29.0,82.0 94.0,90.0 47.0,111.0 90.0,127.0 0.0,139.0 0.0,202.0 72.0,203.0 9.0,181.0 93.0,173.0 156.0,97.0 284.0,115.0" fill="#955443" opacity="0.95" />
<polygon points="0.0,12.0 6.0,25.0 132.0,25.0 198.0,7.0 299.0,24.0 254.0,0.0" fill="#713d31" />
<polygon points="162.0,107.0 127.0,143.0 135.0,196.0 184.0,220.0 247.0,200.0 262.0,172.0 252.0,128.0 214.0,103.0" fill="#c5f1fe" opacity="0.95" />
<polygon points="255.0,0.0 363.0,64.0 344.0,81.0 366.0,88.0 353.0,105.0 366.0,128.0 331.0,147.0 383.0,150.0 383.0,117.0 367.0,115.0 383.0,113.0 383.0,0.0" fill="#512c24" />
<polygon points="254.0,130.0 260.0,191.0 311.0,184.0 286.0,216.0 367.0,219.0 325.0,193.0 362.0,182.0 353.0,207.0 371.0,179.0 313.0,176.0 332.0,164.0 303.0,132.0" fill="#955443" />
<polygon points="300.0,383.0 240.0,361.0 213.0,374.0 150.0,362.0 101.0,383.0" fill="#393835" />
<polygon points="108.0,300.0 111.0,306.0 282.0,305.0 271.0,296.0" fill="#393835" />
<polygon points="255.0,0.0 288.0,10.0 300.0,36.0 336.0,35.0 361.0,63.0 345.0,79.0 359.0,88.0 357.0,128.0 332.0,148.0 383.0,150.0 383.0,0.0" fill="#512c24" opacity="0.95" />
<polygon points="306.0,144.0 335.0,166.0 313.0,175.0 373.0,180.0 346.0,214.0 383.0,217.0 383.0,151.0 333.0,150.0 342.0,129.0" fill="#713d31" />
<polygon points="0.0,11.0 117.0,22.0 121.0,38.0 157.0,37.0 143.0,12.0 297.0,25.0 253.0,0.0" fill="#713d31" opacity="0.95" />
<polygon points="246.0,204.0 200.0,222.0 170.0,219.0 144.0,206.0 144.0,240.0 199.0,231.0 245.0,241.0" fill="#01011c" />
<polygon points="284.0,42.0 334.0,50.0 338.0,63.0 289.0,96.0 354.0,114.0 353.0,92.0 364.0,89.0 343.0,79.0 363.0,73.0 336.0,37.0" fill="#713d31" />
<polygon points="113.0,53.0 141.0,48.0 162.0,57.0 200.0,55.0 207.0,64.0 225.0,64.0 227.0,74.0 230.0,64.0 249.0,62.0 259.0,72.0 248.0,81.0 140.0,79.0 138.0,66.0 114.0,66.0" fill="#955443" />
<polygon points="154.0,308.0 155.0,334.0 167.0,333.0 159.0,328.0 167.0,321.0 176.0,332.0 206.0,334.0 205.0,346.0 180.0,346.0 157.0,361.0 162.0,368.0 220.0,366.0 239.0,354.0 241.0,308.0 203.0,307.0 200.0,316.0" fill="#713d31" />
<polygon points="254.0,0.0 288.0,11.0 301.0,36.0 335.0,35.0 361.0,64.0 355.0,127.0 334.0,147.0 383.0,150.0 383.0,0.0" fill="#512c24" opacity="0.95" />
<polygon points="1.0,214.0 31.0,232.0 0.0,246.0 12.0,280.0 79.0,281.0 101.0,309.0 75.0,358.0 114.0,377.0 152.0,356.0 151.0,308.0 32.0,261.0 94.0,200.0 53.0,206.0 51.0,232.0" fill="#c27f64" opacity="0.95" />
<polygon points="247.0,220.0 247.0,241.0 258.0,244.0 248.0,267.0 324.0,269.0 314.0,285.0 358.0,282.0 342.0,270.0 351.0,258.0 330.0,258.0 329.0,245.0 307.0,246.0 301.0,231.0 268.0,231.0 275.0,243.0 262.0,245.0 264.0,220.0" fill="#955443" />
<polygon points="110.0,265.0 146.0,274.0 143.0,287.0 124.0,287.0 128.0,295.0 246.0,295.0 279.0,274.0 249.0,268.0 242.0,242.0 207.0,233.0 159.0,237.0 144.0,256.0" fill="#c27f64" opacity="0.95" />
<polygon points="0.0,11.0 6.0,25.0 117.0,22.0 121.0,38.0 157.0,36.0 144.0,12.0 294.0,24.0 253.0,0.0" fill="#713d31" opacity="0.95" />
<polygon points="255.0,130.0 266.0,179.0 247.0,203.0 308.0,182.0 285.0,215.0 313.0,217.0 328.0,182.0 351.0,178.0 285.0,172.0 329.0,164.0" fill="#955443" opacity="0.95" />
<polygon points="245.0,315.0 299.0,320.0 305.0,308.0 308.0,321.0 290.0,332.0 307.0,333.0 319.0,361.0 332.0,347.0 322.0,320.0 383.0,323.0 383.0,309.0 316.0,310.0 307.0,302.0 327.0,293.0" fill="#955443" />
<polygon points="383.0,271.0 351.0,276.0 372.0,284.0 367.0,302.0 363.0,285.0 281.0,285.0 272.0,294.0 340.0,293.0 312.0,305.0 383.0,308.0" fill="#713d31" />
<polygon points="117.0,54.0 118.0,63.0 173.0,64.0 149.0,73.0 223.0,74.0 220.0,66.0 204.0,67.0 200.0,56.0" fill="#cc693d" />
<polygon points="240.0,323.0 242.0,334.0 267.0,335.0 264.0,348.0 242.0,349.0 248.0,364.0 281.0,373.0 266.0,366.0 317.0,358.0 318.0,349.0 295.0,349.0 282.0,335.0 297.0,323.0" fill="#c27f64" />
<polygon points="0.0,73.0 31.0,75.0 46.0,68.0 37.0,63.0 68.0,56.0 10.0,52.0 8.0,39.0 0.0,45.0" fill="#512c24" />
<polygon points="247.0,220.0 257.0,254.0 247.0,266.0 326.0,269.0 324.0,284.0 357.0,283.0 343.0,271.0 351.0,258.0 305.0,245.0 300.0,231.0 263.0,234.0 264.0,220.0" fill="#955443" opacity="0.95" />
<polygon points="102.0,382.0 299.0,383.0 242.0,362.0 213.0,374.0 151.0,362.0" fill="#393835" opacity="0.95" />
<polygon points="0.0,272.0 7.0,290.0 0.0,305.0 8.0,310.0 55.0,306.0 59.0,320.0 99.0,319.0 97.0,309.0 62.0,307.0 80.0,294.0 79.0,285.0 63.0,294.0 58.0,284.0 20.0,294.0" fill="#955443" />
<polygon points="0.0,80.0 12.0,90.0 0.0,101.0 2.0,113.0 28.0,114.0 19.0,105.0 29.0,98.0 40.0,102.0 34.0,110.0 93.0,99.0 92.0,91.0 29.0,91.0 22.0,78.0" fill="#713d31" />
<polygon points="154.0,308.0 154.0,332.0 173.0,321.0 177.0,332.0 206.0,334.0 205.0,345.0 183.0,345.0 160.0,365.0 208.0,368.0 239.0,354.0 242.0,309.0 212.0,307.0 204.0,317.0" fill="#713d31" opacity="0.95" />
<polygon points="246.0,205.0 200.0,222.0 145.0,207.0 144.0,240.0 199.0,231.0 244.0,241.0" fill="#01011c" opacity="0.95" />
<polygon points="108.0,300.0 111.0,306.0 282.0,305.0 271.0,296.0" fill="#393835" opacity="0.95" />
<polygon points="287.0,169.0 368.0,178.0 372.0,192.0 344.0,212.0 383.0,217.0 383.0,151.0 335.0,151.0 333.0,130.0 306.0,144.0 332.0,167.0" fill="#713d31" opacity="0.95" />
<polygon points="0.0,0.0 2.0,9.0 11.0,10.0 31.0,3.0 35.0,10.0 112.0,8.0 112.0,0.0" fill="#512c24" />
<polygon points="132.0,251.0 103.0,247.0 98.0,257.0 34.0,257.0 33.0,261.0 107.0,265.0" fill="#cc693d" />
<polygon points="104.0,382.0 296.0,383.0 242.0,362.0 213.0,374.0 151.0,362.0" fill="#393835" opacity="0.95" />
<polygon points="246.0,207.0 200.0,222.0 146.0,208.0 144.0,238.0 199.0,231.0 243.0,241.0" fill="#01011c" opacity="0.95" />
<polygon points="108.0,300.0 111.0,306.0 282.0,304.0 271.0,296.0" fill="#393835" opacity="0.95" />
<polygon points="154.0,361.0 176.0,356.0 179.0,344.0 203.0,344.0 205.0,334.0 174.0,333.0 174.0,322.0 161.0,324.0 160.0,328.0 168.0,333.0 154.0,336.0" fill="#512c24" />
<polygon points="117.0,54.0 119.0,63.0 151.0,64.0 150.0,73.0 223.0,74.0 220.0,66.0 203.0,66.0 199.0,56.0" fill="#cc693d" opacity="0.95" />
<polygon points="240.0,323.0 241.0,333.0 262.0,333.0 267.0,355.0 242.0,349.0 255.0,367.0 279.0,373.0 274.0,361.0 316.0,359.0 317.0,349.0 283.0,338.0 293.0,323.0" fill="#c27f64" opacity="0.95" />
<polygon points="0.0,73.0 31.0,75.0 44.0,69.0 39.0,61.0 68.0,55.0 14.0,51.0 9.0,39.0 0.0,44.0" fill="#512c24" opacity="0.95" />
<polygon points="96.0,246.0 57.0,246.0 55.0,253.0 95.0,254.0" fill="#cca28e" />
<polygon points="247.0,208.0 269.0,229.0 302.0,230.0 307.0,245.0 329.0,243.0 324.0,221.0 284.0,217.0 294.0,202.0 264.0,194.0 264.0,204.0 280.0,207.0 276.0,218.0" fill="#c27f64" opacity="0.95" />
<polygon points="307.0,219.0 307.0,245.0 328.0,244.0 329.0,234.0 344.0,232.0 355.0,239.0 349.0,224.0 344.0,232.0 332.0,231.0 323.0,220.0" fill="#c27f64" />
<polygon points="247.0,208.0 248.0,217.0 265.0,217.0 268.0,229.0 305.0,229.0 303.0,220.0 286.0,218.0 281.0,207.0 300.0,205.0 300.0,192.0 292.0,193.0 301.0,197.0 298.0,202.0 264.0,195.0 266.0,205.0 279.0,207.0 276.0,218.0" fill="#c27f64" />
<polygon points="277.0,279.0 278.0,281.0 315.0,282.0 321.0,281.0 323.0,275.0 318.0,271.0 281.0,271.0" fill="#cc693d" />
<polygon points="0.0,0.0 1.0,7.0 11.0,10.0 29.0,5.0 36.0,10.0 112.0,9.0 112.0,0.0" fill="#512c24" opacity="0.95" />
<polygon points="117.0,55.0 120.0,63.0 149.0,63.0 157.0,74.0 223.0,74.0 222.0,67.0 206.0,67.0 198.0,56.0" fill="#cc693d" opacity="0.95" />
<polygon points="327.0,237.0 331.0,242.0 329.0,244.0 333.0,246.0 333.0,255.0 371.0,254.0 368.0,247.0 348.0,245.0 346.0,243.0 350.0,238.0 347.0,234.0" fill="#cc693d" />
<polygon points="240.0,324.0 272.0,348.0 267.0,356.0 242.0,350.0 255.0,367.0 267.0,361.0 272.0,373.0 282.0,358.0 316.0,358.0 316.0,349.0 282.0,337.0 291.0,323.0" fill="#c27f64" opacity="0.95" />
<polygon points="131.0,250.0 103.0,247.0 97.0,257.0 35.0,257.0 33.0,262.0 107.0,265.0" fill="#cc693d" opacity="0.95" />
<polygon points="154.0,359.0 177.0,355.0 181.0,344.0 202.0,344.0 205.0,334.0 177.0,333.0 175.0,323.0 163.0,323.0 160.0,328.0 167.0,334.0 154.0,335.0" fill="#512c24" opacity="0.95" />
<polygon points="12.0,186.0 14.0,189.0 43.0,190.0 48.0,187.0 48.0,184.0 46.0,181.0 19.0,180.0 15.0,181.0" fill="#cc693d" />
<polygon points="330.0,365.0 342.0,372.0 349.0,368.0 355.0,372.0 381.0,372.0 378.0,378.0 383.0,383.0 383.0,364.0 371.0,367.0 365.0,360.0 366.0,350.0 345.0,351.0 344.0,356.0 355.0,361.0 350.0,366.0 346.0,362.0" fill="#512c24" />
<polygon points="56.0,187.0 59.0,190.0 85.0,190.0 89.0,187.0 89.0,182.0 71.0,181.0 68.0,183.0 58.0,184.0" fill="#cc693d" />
<polygon points="119.0,217.0 116.0,243.0 141.0,242.0 142.0,230.0 139.0,227.0 127.0,230.0 128.0,237.0 122.0,236.0 124.0,231.0 119.0,226.0" fill="#cca28e" />
<polygon points="328.0,236.0 332.0,242.0 331.0,253.0 334.0,255.0 371.0,254.0 365.0,246.0 349.0,244.0 350.0,238.0 344.0,233.0" fill="#cc693d" opacity="0.95" />
<polygon points="99.0,218.0 98.0,217.0 90.0,218.0 82.0,225.0 81.0,228.0 96.0,230.0 98.0,229.0" fill="#cca28e" />
<polygon points="96.0,246.0 56.0,247.0 55.0,253.0 94.0,254.0 96.0,253.0" fill="#cca28e" opacity="0.95" />
<polygon points="142.0,229.0 126.0,232.0 120.0,229.0 118.0,230.0 118.0,240.0 126.0,243.0 130.0,241.0 139.0,243.0 142.0,241.0" fill="#cca28e" opacity="0.95" />
<polygon points="53.0,218.0 51.0,217.0 46.0,223.0 40.0,223.0 36.0,227.0 50.0,228.0 53.0,231.0" fill="#cca28e" />
<polygon points="96.0,247.0 93.0,245.0 59.0,246.0 56.0,248.0 56.0,252.0 59.0,254.0 93.0,254.0 96.0,252.0" fill="#cca28e" opacity="0.95" />
<polygon points="135.0,246.0 135.0,250.0 139.0,253.0 144.0,253.0 145.0,252.0 145.0,244.0 144.0,243.0 141.0,243.0" fill="#393835" />
<polygon points="99.0,218.0 97.0,217.0 90.0,218.0 82.0,225.0 82.0,228.0 96.0,230.0 98.0,229.0" fill="#cca28e" opacity="0.95" />
<polygon points="114.0,321.0 113.0,322.0 117.0,326.0 117.0,330.0 113.0,334.0 116.0,336.0 124.0,333.0 121.0,329.0 122.0,322.0" fill="#cca28e" />
<polygon points="246.0,242.0 245.0,243.0 245.0,252.0 246.0,253.0 251.0,253.0 254.0,251.0 254.0,246.0 252.0,244.0 249.0,244.0" fill="#393835" />
<polygon points="117.0,283.0 116.0,284.0 117.0,285.0 117.0,289.0 115.0,293.0 117.0,295.0 122.0,295.0 124.0,293.0 123.0,292.0 123.0,287.0 125.0,284.0 124.0,283.0" fill="#cca28e" />
<polygon points="145.0,244.0 141.0,243.0 135.0,246.0 135.0,250.0 139.0,253.0 145.0,252.0" fill="#393835" opacity="0.95" />
<polygon points="245.0,244.0 245.0,252.0 251.0,253.0 254.0,251.0 254.0,246.0 248.0,243.0" fill="#393835" opacity="0.95" />
<polygon points="143.0,363.0 144.0,364.0 145.0,364.0 150.0,361.0 149.0,360.0 144.0,360.0 143.0,361.0" fill="#e0dad5" />
</svg>