<svg xmlns="http://www.w3.org/2000/svg" width="768" height="768" viewBox="0 0 384 384">
<rect width="384" height="384" fill="#936c60"/>
<polygon points="161.0,109.0 74.0,115.0 0.0,172.0 0.0,383.0 152.0,383.0 131.0,178.0" fill="#ae7b6a" />
<polygon points="227.0,102.0 252.0,179.0 234.0,291.0 248.0,345.0 230.0,383.0 381.0,383.0 383.0,177.0 309.0,114.0" fill="#ae7b6a" />
<polygon points="0.0,0.0 4.0,169.0 74.0,114.0 153.0,113.0 163.0,66.0 201.0,55.0 223.0,104.0 309.0,113.0 383.0,176.0 383.0,0.0" fill="#7b5045" />
<polygon points="162.0,110.0 75.0,115.0 0.0,172.0 0.0,383.0 152.0,383.0 131.0,178.0" fill="#ae7b6a" opacity="0.95" />
<polygon points="227.0,102.0 252.0,179.0 231.0,383.0 383.0,383.0 383.0,177.0 309.0,114.0" fill="#ae7b6a" opacity="0.95" />
<polygon points="0.0,0.0 3.0,168.0 75.0,114.0 155.0,112.0 163.0,66.0 201.0,55.0 222.0,102.0 309.0,113.0 383.0,176.0 383.0,0.0" fill="#7b5045" opacity="0.95" />
<polygon points="161.0,110.0 75.0,115.0 0.0,172.0 0.0,383.0 152.0,383.0 131.0,178.0" fill="#ae7b6a" opacity="0.95" />
<polygon points="227.0,102.0 252.0,179.0 231.0,383.0 383.0,383.0 383.0,176.0 309.0,114.0" fill="#ae7b6a" opacity="0.95" />
<polygon points="0.0,0.0 4.0,168.0 75.0,114.0 153.0,113.0 163.0,66.0 201.0,55.0 223.0,101.0 309.0,113.0 383.0,175.0 383.0,0.0" fill="#7b5045" opacity="0.95" />
<polygon points="148.0,222.0 159.0,298.0 185.0,309.0 220.0,303.0 228.0,292.0 236.0,224.0 181.0,231.0" fill="#3e636d" />
<polygon points="234.0,148.0 223.0,163.0 191.0,170.0 163.0,189.0 168.0,205.0 192.0,214.0 239.0,208.0 251.0,181.0" fill="#9ff3f3" />
<polygon points="151.0,298.0 151.0,338.0 165.0,356.0 199.0,362.0 230.0,346.0 232.0,298.0 204.0,311.0 177.0,310.0" fill="#20252a" />
<polygon points="147.0,224.0 159.0,298.0 185.0,309.0 220.0,303.0 228.0,292.0 236.0,224.0 205.0,231.0" fill="#3e636d" opacity="0.95" />
<polygon points="162.0,70.0 159.0,90.0 169.0,99.0 203.0,102.0 218.0,98.0 226.0,89.0 221.0,68.0 206.0,57.0 178.0,57.0" fill="#f10c19" />
<polygon points="149.0,297.0 137.0,346.0 153.0,383.0 229.0,383.0 247.0,345.0 236.0,298.0 231.0,346.0 183.0,363.0 153.0,346.0" fill="#7b5045" />
<polygon points="148.0,224.0 159.0,298.0 185.0,309.0 220.0,303.0 228.0,292.0 236.0,225.0 181.0,231.0" fill="#3e636d" opacity="0.95" />
<polygon points="151.0,300.0 151.0,338.0 165.0,356.0 199.0,362.0 230.0,346.0 233.0,300.0 204.0,311.0" fill="#20252a" opacity="0.95" />
<polygon points="249.0,173.0 233.0,150.0 223.0,163.0 190.0,171.0 161.0,195.0 184.0,213.0 232.0,212.0 249.0,196.0" fill="#9ff3f3" opacity="0.95" />
<polygon points="135.0,170.0 134.0,195.0 154.0,214.0 184.0,220.0 227.0,214.0 171.0,209.0 159.0,193.0 189.0,171.0 161.0,164.0 150.0,148.0" fill="#6de1ec" />
<polygon points="151.0,301.0 151.0,338.0 165.0,356.0 199.0,362.0 230.0,346.0 232.0,300.0 204.0,311.0" fill="#20252a" opacity="0.95" />
<polygon points="249.0,173.0 234.0,151.0 217.0,166.0 191.0,171.0 161.0,195.0 184.0,213.0 232.0,212.0 249.0,196.0" fill="#9ff3f3" opacity="0.95" />
<polygon points="162.0,70.0 159.0,90.0 169.0,99.0 203.0,102.0 221.0,96.0 226.0,89.0 221.0,68.0 206.0,57.0 178.0,57.0" fill="#f10c19" opacity="0.95" />
<polygon points="146.0,309.0 137.0,346.0 153.0,383.0 230.0,383.0 247.0,345.0 238.0,311.0 223.0,354.0 183.0,363.0 153.0,346.0" fill="#7b5045" opacity="0.95" />
<polygon points="148.0,151.0 133.0,176.0 137.0,201.0 168.0,218.0 212.0,218.0 167.0,205.0 160.0,190.0 186.0,170.0 163.0,165.0" fill="#6de1ec" opacity="0.95" />
<polygon points="162.0,70.0 159.0,90.0 169.0,99.0 203.0,102.0 221.0,96.0 226.0,89.0 221.0,68.0 206.0,57.0 178.0,57.0" fill="#f10c19" opacity="0.95" />
<polygon points="144.0,316.0 137.0,346.0 153.0,383.0 230.0,383.0 247.0,345.0 239.0,316.0 231.0,346.0 199.0,363.0 159.0,353.0" fill="#7b5045" opacity="0.95" />
<polygon points="147.0,153.0 133.0,176.0 137.0,201.0 160.0,216.0 193.0,219.0 160.0,195.0 186.0,171.0" fill="#6de1ec" opacity="0.95" />
<polygon points="209.0,102.0 195.0,105.0 197.0,133.0 210.0,134.0" fill="#929ca8" />
<polygon points="164.0,98.0 165.0,127.0 155.0,135.0 152.0,147.0 159.0,161.0 175.0,167.0 165.0,149.0 166.0,136.0 175.0,131.0 174.0,102.0" fill="#20252a" />
<polygon points="141.0,217.0 151.0,292.0 156.0,296.0 146.0,221.0" fill="#164b59" />
<polygon points="220.0,98.0 216.0,100.0 220.0,149.0 212.0,165.0 227.0,158.0 231.0,143.0 221.0,127.0" fill="#20252a" />
<polygon points="242.0,218.0 236.0,223.0 229.0,295.0 233.0,292.0" fill="#164b59" />
<polygon points="165.0,98.0 164.0,127.0 152.0,144.0 155.0,157.0 171.0,166.0 165.0,139.0 175.0,131.0 173.0,101.0" fill="#20252a" opacity="0.95" />
<polygon points="191.0,139.0 189.0,151.0 182.0,167.0 200.0,168.0 192.0,150.0 196.0,140.0" fill="#20252a" />
<polygon points="196.0,105.0 196.0,131.0 201.0,134.0 210.0,133.0 209.0,104.0" fill="#929ca8" opacity="0.95" />
<polygon points="213.0,138.0 205.0,138.0 202.0,136.0 197.0,137.0 198.0,141.0 196.0,150.0 199.0,158.0 215.0,143.0" fill="#e9e1dc" />
<polygon points="212.0,222.0 209.0,220.0 202.0,222.0 200.0,227.0 196.0,221.0 179.0,221.0 177.0,224.0 184.0,230.0 204.0,230.0" fill="#0f2c3a" />
<polygon points="143.0,219.0 144.0,248.0 154.0,294.0 154.0,273.0" fill="#164b59" opacity="0.95" />
<polygon points="219.0,98.0 216.0,132.0 220.0,149.0 215.0,165.0 225.0,160.0 230.0,151.0 230.0,139.0 221.0,128.0" fill="#20252a" opacity="0.95" />
<polygon points="166.0,98.0 164.0,126.0 152.0,144.0 155.0,157.0 168.0,165.0 171.0,161.0 165.0,139.0 175.0,130.0 173.0,102.0" fill="#20252a" opacity="0.95" />
<polygon points="185.0,105.0 183.0,105.0 181.0,108.0 181.0,135.0 183.0,138.0 187.0,135.0 187.0,115.0" fill="#929ca8" />
<polygon points="240.0,219.0 230.0,276.0 231.0,293.0 242.0,227.0" fill="#164b59" opacity="0.95" />
<polygon points="140.0,208.0 140.0,214.0 146.0,220.0 161.0,226.0 167.0,224.0 166.0,218.0 151.0,213.0 147.0,219.0 144.0,209.0" fill="#0f2c3a" />
<polygon points="206.0,103.0 196.0,106.0 196.0,131.0 201.0,134.0 209.0,131.0 209.0,105.0" fill="#929ca8" opacity="0.95" />
<polygon points="186.0,153.0 179.0,147.0 182.0,142.0 187.0,141.0 186.0,137.0 183.0,139.0 170.0,138.0 167.0,141.0 171.0,150.0 183.0,154.0" fill="#c4bfbf" />
<polygon points="175.0,102.0 176.0,131.0 169.0,134.0 178.0,136.0 179.0,105.0" fill="#0f2c3a" />
<polygon points="213.0,101.0 211.0,103.0 211.0,129.0 214.0,133.0 216.0,125.0 215.0,102.0" fill="#0f2c3a" />
<polygon points="244.0,207.0 242.0,207.0 237.0,217.0 233.0,213.0 225.0,216.0 225.0,222.0 228.0,224.0 241.0,218.0" fill="#0f2c3a" />
<polygon points="214.0,139.0 205.0,138.0 202.0,136.0 198.0,137.0 196.0,145.0 197.0,154.0 200.0,156.0 215.0,143.0" fill="#e9e1dc" opacity="0.95" />
<polygon points="194.0,139.0 189.0,141.0 189.0,151.0 184.0,164.0 186.0,168.0 199.0,167.0 196.0,155.0 193.0,152.0 196.0,142.0" fill="#20252a" opacity="0.95" />
<polygon points="149.0,216.0 148.0,221.0 161.0,226.0 167.0,225.0 167.0,219.0 153.0,214.0" fill="#0f2c3a" opacity="0.95" />
<polygon points="184.0,105.0 181.0,108.0 181.0,135.0 184.0,137.0 187.0,135.0 186.0,106.0" fill="#929ca8" opacity="0.95" />
<polygon points="211.0,221.0 208.0,220.0 199.0,227.0 194.0,221.0 179.0,221.0 177.0,224.0 185.0,230.0 195.0,228.0 203.0,230.0 211.0,225.0" fill="#0f2c3a" opacity="0.95" />
<polygon points="216.0,136.0 213.0,137.0 216.0,140.0 216.0,143.0 200.0,158.0 200.0,161.0 218.0,146.0 218.0,139.0" fill="#c4bfbf" />
<polygon points="214.0,139.0 205.0,138.0 202.0,136.0 199.0,137.0 196.0,145.0 197.0,154.0 200.0,156.0 215.0,143.0" fill="#e9e1dc" opacity="0.95" />
<polygon points="168.0,139.0 167.0,144.0 171.0,150.0 179.0,153.0 182.0,152.0 179.0,145.0 187.0,141.0 187.0,139.0" fill="#c4bfbf" opacity="0.95" />
<polygon points="218.0,149.0 217.0,148.0 200.0,162.0 202.0,163.0 206.0,161.0" fill="#929ca8" />
<polygon points="193.0,115.0 189.0,118.0 189.0,130.0 191.0,132.0 192.0,131.0 193.0,124.0 194.0,123.0 194.0,116.0" fill="#164b59" />
<polygon points="238.0,217.0 232.0,213.0 224.0,217.0 225.0,223.0 228.0,224.0 237.0,220.0" fill="#0f2c3a" opacity="0.95" />
<polygon points="149.0,216.0 150.0,222.0 161.0,226.0 166.0,225.0 168.0,222.0 167.0,219.0 153.0,214.0" fill="#0f2c3a" opacity="0.95" />
<polygon points="213.0,102.0 211.0,103.0 211.0,129.0 213.0,130.0 215.0,129.0 216.0,125.0 215.0,103.0" fill="#0f2c3a" opacity="0.95" />
<polygon points="184.0,113.0 181.0,115.0 181.0,135.0 184.0,137.0 187.0,135.0 187.0,115.0" fill="#929ca8" opacity="0.95" />
<polygon points="168.0,153.0 172.0,157.0 179.0,160.0 183.0,160.0 185.0,158.0 175.0,156.0 169.0,152.0" fill="#3e636d" />
<polygon points="182.0,143.0 180.0,145.0 180.0,147.0 183.0,150.0 186.0,150.0 187.0,149.0 187.0,144.0 186.0,143.0" fill="#e9e1dc" />
<polygon points="169.0,139.0 167.0,141.0 167.0,144.0 170.0,149.0 175.0,152.0 179.0,151.0 179.0,145.0 181.0,141.0 176.0,138.0" fill="#c4bfbf" opacity="0.95" />
<polygon points="167.0,148.0 171.0,153.0 175.0,155.0 180.0,156.0 183.0,155.0 175.0,153.0 171.0,151.0 168.0,147.0" fill="#929ca8" />
<polygon points="192.0,116.0 189.0,118.0 189.0,128.0 191.0,129.0 193.0,128.0 193.0,124.0 194.0,123.0 194.0,117.0" fill="#164b59" opacity="0.95" />
<polygon points="183.0,143.0 180.0,145.0 180.0,147.0 181.0,149.0 185.0,150.0 187.0,149.0 187.0,144.0" fill="#e9e1dc" opacity="0.95" />
<polygon points="214.0,157.0 213.0,156.0 211.0,157.0 206.0,162.0 204.0,163.0 205.0,164.0 207.0,162.0 210.0,161.0" fill="#3e636d" />
<polygon points="194.0,128.0 193.0,129.0 193.0,132.0 192.0,133.0 192.0,134.0 194.0,136.0 195.0,135.0 195.0,129.0" fill="#3e636d" />
<polygon points="183.0,143.0 180.0,145.0 180.0,147.0 184.0,150.0 187.0,148.0 187.0,145.0" fill="#e9e1dc" opacity="0.95" />
</svg>