<svg xmlns="http://www.w3.org/2000/svg" width="768" height="768" viewBox="0 0 384 384">
<rect width="384" height="384" fill="#8e6b5c"/>
<polygon points="0.0,0.0 2.0,126.0 131.0,123.0 131.0,0.0" fill="#5b3a39" />
<polygon points="132.0,0.0 132.0,128.0 165.0,100.0 197.0,93.0 254.0,127.0 257.0,0.0" fill="#b38370" />
<polygon points="258.0,0.0 257.0,124.0 383.0,128.0 383.0,86.0 352.0,65.0 292.0,0.0" fill="#8f5f53" />
<polygon points="145.0,322.0 8.0,328.0 0.0,383.0 149.0,383.0" fill="#937269" />
<polygon points="2.0,128.0 0.0,253.0 78.0,239.0 130.0,256.0 140.0,321.0 136.0,282.0 165.0,257.0 132.0,252.0 113.0,186.0 130.0,131.0" fill="#b38370" />
<polygon points="257.0,132.0 256.0,191.0 383.0,190.0 383.0,129.0" fill="#5b3a39" />
<polygon points="0.0,0.0 1.0,125.0 130.0,125.0 130.0,0.0" fill="#5b3a39" opacity="0.95" />
<polygon points="202.0,94.0 195.0,162.0 126.0,163.0 141.0,204.0 180.0,226.0 229.0,215.0 256.0,174.0 251.0,129.0" fill="#8dd2d6" />
<polygon points="255.0,326.0 255.0,383.0 383.0,383.0 383.0,322.0 289.0,323.0 262.0,340.0" fill="#937269" />
<polygon points="0.0,0.0 0.0,124.0 131.0,123.0 130.0,0.0" fill="#5b3a39" opacity="0.95" />
<polygon points="255.0,253.0 273.0,256.0 300.0,240.0 342.0,255.0 380.0,253.0 381.0,195.0 271.0,192.0" fill="#b38370" />
<polygon points="132.0,0.0 132.0,127.0 165.0,100.0 197.0,93.0 255.0,126.0 257.0,0.0" fill="#b38370" opacity="0.95" />
<polygon points="258.0,0.0 257.0,124.0 383.0,128.0 383.0,86.0 350.0,64.0 293.0,0.0" fill="#8f5f53" opacity="0.95" />
<polygon points="178.0,259.0 193.0,286.0 201.0,322.0 254.0,319.0 252.0,255.0" fill="#937269" />
<polygon points="1.0,130.0 0.0,254.0 78.0,239.0 129.0,256.0 141.0,320.0 136.0,282.0 159.0,256.0 132.0,252.0 115.0,187.0 129.0,131.0" fill="#b38370" opacity="0.95" />
<polygon points="257.0,132.0 256.0,191.0 383.0,190.0 383.0,129.0" fill="#5b3a39" opacity="0.95" />
<polygon points="132.0,0.0 132.0,125.0 167.0,99.0 203.0,93.0 255.0,126.0 257.0,0.0" fill="#b38370" opacity="0.95" />
<polygon points="202.0,94.0 196.0,161.0 126.0,163.0 141.0,204.0 180.0,226.0 229.0,215.0 256.0,174.0 251.0,128.0" fill="#8dd2d6" opacity="0.95" />
<polygon points="145.0,323.0 7.0,329.0 0.0,336.0 0.0,383.0 149.0,383.0" fill="#937269" opacity="0.95" />
<polygon points="258.0,0.0 257.0,124.0 383.0,128.0 383.0,86.0 350.0,64.0 293.0,0.0" fill="#8f5f53" opacity="0.95" />
<polygon points="1.0,131.0 0.0,254.0 78.0,239.0 130.0,257.0 135.0,281.0 158.0,259.0 132.0,252.0 115.0,187.0 128.0,131.0" fill="#b38370" opacity="0.95" />
<polygon points="202.0,323.0 206.0,341.0 200.0,380.0 254.0,383.0 254.0,324.0" fill="#8f5f53" />
<polygon points="255.0,339.0 255.0,383.0 383.0,383.0 383.0,322.0 290.0,323.0" fill="#937269" opacity="0.95" />
<polygon points="268.0,194.0 258.0,255.0 300.0,240.0 343.0,255.0 383.0,249.0 376.0,194.0" fill="#b38370" opacity="0.95" />
<polygon points="257.0,132.0 257.0,191.0 383.0,190.0 383.0,129.0" fill="#5b3a39" opacity="0.95" />
<polygon points="383.0,257.0 335.0,258.0 335.0,298.0 317.0,318.0 281.0,302.0 272.0,269.0 257.0,257.0 256.0,319.0 383.0,320.0" fill="#5b3a39" />
<polygon points="127.0,151.0 128.0,160.0 195.0,161.0 196.0,129.0 136.0,128.0" fill="#9a170e" />
<polygon points="202.0,94.0 195.0,161.0 126.0,164.0 141.0,204.0 180.0,226.0 229.0,215.0 256.0,174.0 251.0,129.0" fill="#8dd2d6" opacity="0.95" />
<polygon points="144.0,324.0 7.0,329.0 0.0,335.0 0.0,383.0 149.0,383.0" fill="#937269" opacity="0.95" />
<polygon points="130.0,275.0 117.0,259.0 101.0,296.0 72.0,309.0 58.0,299.0 59.0,284.0 38.0,274.0 2.0,318.0 130.0,320.0" fill="#5b3a39" />
<polygon points="311.0,0.0 346.0,27.0 369.0,59.0 383.0,61.0 383.0,0.0" fill="#1f1111" />
<polygon points="255.0,341.0 255.0,383.0 383.0,383.0 383.0,322.0 290.0,323.0" fill="#937269" opacity="0.95" />
<polygon points="179.0,258.0 201.0,321.0 254.0,319.0 254.0,263.0 249.0,256.0" fill="#937269" opacity="0.95" />
<polygon points="256.0,242.0 261.0,256.0 300.0,240.0 344.0,255.0 377.0,253.0 382.0,199.0 369.0,192.0 272.0,192.0" fill="#b38370" opacity="0.95" />
<polygon points="33.0,256.0 0.0,259.0 2.0,314.0 21.0,298.0 35.0,275.0 46.0,274.0" fill="#8f5f53" />
<polygon points="179.0,259.0 202.0,321.0 254.0,318.0 254.0,265.0 248.0,256.0" fill="#937269" opacity="0.95" />
<polygon points="196.0,96.0 186.0,95.0 165.0,101.0 150.0,111.0 140.0,125.0 195.0,127.0" fill="#937269" />
<polygon points="185.0,298.0 176.0,308.0 178.0,329.0 164.0,335.0 153.0,317.0 149.0,342.0 181.0,383.0 202.0,383.0 197.0,373.0 205.0,338.0 202.0,326.0 189.0,321.0" fill="#5b3a39" />
<polygon points="203.0,324.0 206.0,341.0 199.0,368.0 202.0,383.0 254.0,383.0 254.0,324.0" fill="#8f5f53" opacity="0.95" />
<polygon points="127.0,151.0 129.0,160.0 194.0,161.0 196.0,129.0 137.0,128.0" fill="#9a170e" opacity="0.95" />
<polygon points="333.0,301.0 336.0,274.0 331.0,267.0 318.0,284.0 302.0,289.0 283.0,284.0 271.0,273.0 282.0,302.0 300.0,316.0 320.0,316.0" fill="#1f1111" />
<polygon points="130.0,275.0 120.0,262.0 109.0,266.0 101.0,296.0 72.0,309.0 58.0,299.0 58.0,283.0 39.0,274.0 0.0,318.0 129.0,320.0" fill="#5b3a39" opacity="0.95" />
<polygon points="311.0,0.0 346.0,27.0 368.0,58.0 383.0,61.0 383.0,0.0" fill="#1f1111" opacity="0.95" />
<polygon points="132.0,206.0 135.0,254.0 185.0,255.0 175.0,253.0 149.0,233.0" fill="#8f5f53" />
<polygon points="265.0,195.0 256.0,193.0 252.0,223.0 240.0,236.0 196.0,254.0 253.0,254.0" fill="#8f5f53" />
<polygon points="204.0,324.0 206.0,341.0 199.0,368.0 202.0,383.0 254.0,383.0 254.0,325.0" fill="#8f5f53" opacity="0.95" />
<polygon points="323.0,256.0 310.0,246.0 295.0,247.0 282.0,257.0 281.0,266.0 287.0,274.0 305.0,276.0 316.0,273.0 324.0,266.0" fill="#e2b722" />
<polygon points="109.0,269.0 106.0,267.0 86.0,286.0 58.0,286.0 59.0,299.0 72.0,308.0 91.0,304.0 104.0,290.0" fill="#1f1111" />
<polygon points="252.0,193.0 217.0,223.0 198.0,228.0 166.0,225.0 191.0,238.0 221.0,234.0 240.0,219.0" fill="#1f1111" />
<polygon points="127.0,151.0 130.0,160.0 193.0,160.0 196.0,158.0 196.0,130.0 137.0,128.0" fill="#9a170e" opacity="0.95" />
<polygon points="311.0,0.0 346.0,27.0 368.0,58.0 383.0,61.0 383.0,0.0" fill="#1f1111" opacity="0.95" />
<polygon points="35.0,258.0 0.0,259.0 1.0,305.0 19.0,300.0 32.0,278.0 43.0,271.0" fill="#8f5f53" opacity="0.95" />
<polygon points="333.0,301.0 332.0,268.0 318.0,284.0 302.0,289.0 271.0,274.0 282.0,302.0 300.0,316.0 317.0,317.0" fill="#1f1111" opacity="0.95" />
<polygon points="111.0,263.0 80.0,274.0 48.0,274.0 59.0,283.0 83.0,285.0 94.0,280.0" fill="#8b5818" />
<polygon points="99.0,254.0 76.0,240.0 34.0,254.0 69.0,261.0 80.0,256.0 61.0,253.0 70.0,245.0 85.0,249.0 85.0,257.0" fill="#f9e519" />
<polygon points="322.0,254.0 310.0,246.0 296.0,247.0 282.0,257.0 281.0,266.0 292.0,276.0 316.0,273.0 324.0,266.0" fill="#e2b722" opacity="0.95" />
<polygon points="251.0,198.0 217.0,223.0 168.0,227.0 191.0,238.0 221.0,234.0 240.0,219.0" fill="#1f1111" opacity="0.95" />
<polygon points="109.0,269.0 86.0,286.0 57.0,287.0 59.0,299.0 72.0,308.0 91.0,304.0 104.0,290.0" fill="#1f1111" opacity="0.95" />
<polygon points="334.0,298.0 332.0,269.0 309.0,288.0 292.0,288.0 272.0,278.0 282.0,302.0 300.0,316.0 323.0,314.0" fill="#1f1111" opacity="0.95" />
<polygon points="188.0,288.0 181.0,295.0 165.0,298.0 151.0,309.0 148.0,318.0 171.0,312.0 183.0,299.0" fill="#8b5818" />
<polygon points="187.0,279.0 167.0,293.0 144.0,294.0 138.0,290.0 143.0,308.0 149.0,312.0 165.0,297.0 181.0,294.0" fill="#c2890a" />
<polygon points="171.0,254.0 149.0,265.0 141.0,277.0 148.0,283.0 164.0,283.0 154.0,279.0 156.0,268.0 163.0,266.0 171.0,272.0 169.0,282.0 181.0,274.0" fill="#f9e519" />
<polygon points="103.0,262.0 76.0,267.0 42.0,264.0 46.0,271.0 60.0,275.0 84.0,272.0" fill="#c2890a" />
<polygon points="322.0,254.0 310.0,246.0 296.0,247.0 282.0,257.0 283.0,271.0 292.0,276.0 316.0,272.0 324.0,266.0" fill="#e2b722" opacity="0.95" />
<polygon points="107.0,260.0 100.0,255.0 69.0,262.0 48.0,257.0 41.0,259.0 45.0,264.0 56.0,266.0" fill="#e2b722" />
<polygon points="186.0,274.0 181.0,266.0 182.0,274.0 161.0,286.0 145.0,283.0 140.0,277.0 137.0,288.0 144.0,293.0 167.0,292.0 183.0,281.0" fill="#e2b722" />
<polygon points="255.0,322.0 258.0,326.0 260.0,339.0 267.0,337.0 270.0,330.0 275.0,326.0 289.0,322.0" fill="#b38370" />
<polygon points="107.0,264.0 84.0,273.0 53.0,275.0 51.0,278.0 63.0,284.0 83.0,285.0 94.0,280.0" fill="#8b5818" opacity="0.95" />
<polygon points="98.0,253.0 85.0,242.0 67.0,240.0 35.0,255.0 69.0,261.0 77.0,256.0 61.0,251.0 71.0,245.0 85.0,249.0 88.0,257.0" fill="#f9e519" opacity="0.95" />
<polygon points="188.0,282.0 167.0,293.0 139.0,291.0 137.0,295.0 148.0,311.0 163.0,298.0 182.0,293.0" fill="#c2890a" opacity="0.95" />
<polygon points="184.0,295.0 178.0,294.0 163.0,299.0 151.0,309.0 150.0,316.0 171.0,312.0" fill="#8b5818" opacity="0.95" />
<polygon points="186.0,274.0 161.0,286.0 140.0,279.0 137.0,288.0 144.0,293.0 167.0,292.0 183.0,281.0" fill="#e2b722" opacity="0.95" />
<polygon points="174.0,255.0 149.0,265.0 141.0,275.0 143.0,281.0 155.0,283.0 154.0,270.0 161.0,266.0 171.0,272.0 170.0,280.0 180.0,276.0" fill="#f9e519" opacity="0.95" />
<polygon points="102.0,257.0 69.0,262.0 48.0,257.0 42.0,260.0 56.0,266.0 93.0,264.0" fill="#e2b722" opacity="0.95" />
<polygon points="100.0,263.0 76.0,267.0 46.0,265.0 44.0,269.0 57.0,275.0 80.0,273.0" fill="#c2890a" opacity="0.95" />
<polygon points="39.0,253.0 69.0,261.0 72.0,257.0 63.0,251.0 72.0,244.0 90.0,257.0 98.0,255.0 92.0,246.0 76.0,240.0" fill="#f9e519" opacity="0.95" />
<polygon points="155.0,270.0 154.0,277.0 158.0,280.0 161.0,278.0 163.0,280.0 165.0,278.0 170.0,277.0 170.0,272.0 163.0,267.0" fill="#f7ef66" />
<polygon points="101.0,269.0 97.0,267.0 80.0,274.0 56.0,275.0 53.0,279.0 63.0,284.0 83.0,285.0 94.0,280.0" fill="#8b5818" opacity="0.95" />
<polygon points="183.0,297.0 178.0,294.0 165.0,298.0 151.0,309.0 151.0,314.0 159.0,316.0 171.0,312.0" fill="#8b5818" opacity="0.95" />
<polygon points="297.0,242.0 286.0,246.0 269.0,260.0 278.0,271.0 289.0,277.0 279.0,268.0 278.0,258.0 285.0,249.0" fill="#f7ef66" />
<polygon points="184.0,278.0 181.0,276.0 161.0,286.0 140.0,280.0 137.0,288.0 144.0,293.0 167.0,292.0" fill="#e2b722" opacity="0.95" />
<polygon points="187.0,283.0 182.0,282.0 166.0,295.0 141.0,292.0 138.0,298.0 148.0,310.0 167.0,294.0 182.0,293.0" fill="#c2890a" opacity="0.95" />
<polygon points="181.0,269.0 170.0,259.0 159.0,260.0 149.0,265.0 141.0,277.0 151.0,283.0 154.0,271.0 161.0,266.0 175.0,278.0 181.0,274.0" fill="#f9e519" opacity="0.95" />
<polygon points="315.0,243.0 327.0,259.0 322.0,270.0 307.0,278.0 322.0,273.0 330.0,259.0 326.0,249.0" fill="#f7ef66" />
<polygon points="44.0,267.0 46.0,271.0 57.0,275.0 80.0,273.0 90.0,269.0 87.0,265.0 76.0,267.0 47.0,265.0" fill="#c2890a" opacity="0.95" />
<polygon points="62.0,251.0 64.0,255.0 78.0,253.0 84.0,255.0 86.0,253.0 85.0,250.0 82.0,254.0 79.0,254.0 74.0,246.0 70.0,246.0" fill="#f7ef66" />
<polygon points="155.0,271.0 155.0,278.0 158.0,280.0 161.0,278.0 164.0,279.0 170.0,277.0 169.0,272.0 162.0,267.0" fill="#f7ef66" opacity="0.95" />
<polygon points="70.0,264.0 73.0,266.0 93.0,264.0 96.0,262.0 96.0,260.0 93.0,258.0 79.0,258.0 71.0,261.0" fill="#e2b722" opacity="0.95" />
<polygon points="298.0,262.0 300.0,260.0 304.0,260.0 306.0,262.0 303.0,265.0 301.0,265.0" fill="#e2b722" />
<polygon points="311.0,244.0 311.0,246.0 323.0,254.0 324.0,261.0 326.0,259.0 323.0,251.0" fill="#e9debc" />
<polygon points="334.0,54.0 332.0,56.0 331.0,62.0 332.0,63.0 337.0,63.0 338.0,62.0 338.0,58.0 337.0,57.0 337.0,55.0 336.0,54.0" fill="#e9debc" />
<polygon points="279.0,278.0 282.0,281.0 290.0,281.0 292.0,283.0 309.0,283.0 313.0,281.0 291.0,282.0" fill="#8b5818" />
<polygon points="169.0,272.0 161.0,267.0 155.0,271.0 155.0,278.0 158.0,280.0 161.0,278.0 164.0,279.0 169.0,276.0" fill="#f7ef66" opacity="0.95" />
<polygon points="75.0,247.0 73.0,246.0 69.0,247.0 63.0,251.0 62.0,254.0 70.0,255.0 76.0,253.0" fill="#f7ef66" opacity="0.95" />
<polygon points="290.0,247.0 285.0,250.0 279.0,258.0 280.0,264.0 282.0,262.0 281.0,257.0 286.0,251.0 291.0,248.0" fill="#e9debc" />
<polygon points="335.0,54.0 332.0,56.0 332.0,58.0 331.0,59.0 331.0,62.0 333.0,63.0 338.0,62.0 337.0,55.0" fill="#e9debc" opacity="0.95" />
<polygon points="276.0,255.0 270.0,259.0 270.0,261.0 274.0,265.0 274.0,266.0 276.0,267.0 278.0,266.0 278.0,256.0" fill="#f7ef66" opacity="0.95" />
<polygon points="328.0,251.0 328.0,252.0 331.0,255.0 331.0,257.0 332.0,258.0 335.0,255.0 337.0,255.0 339.0,253.0 338.0,252.0 332.0,252.0 329.0,250.0" fill="#f9e519" />
<polygon points="75.0,248.0 71.0,246.0 64.0,251.0 64.0,253.0 67.0,255.0 69.0,254.0 70.0,255.0 75.0,252.0" fill="#f7ef66" opacity="0.95" />
<polygon points="297.0,245.0 298.0,246.0 302.0,246.0 303.0,247.0 304.0,246.0 306.0,246.0 308.0,244.0 307.0,243.0 304.0,243.0 303.0,244.0 302.0,243.0 300.0,243.0" fill="#e9debc" />
<polygon points="335.0,56.0 331.0,59.0 331.0,61.0 334.0,63.0 338.0,61.0 338.0,58.0" fill="#e9debc" opacity="0.95" />
<polygon points="76.0,249.0 76.0,250.0 78.0,252.0 80.0,252.0 81.0,253.0 82.0,253.0 83.0,252.0 83.0,250.0 82.0,249.0 78.0,249.0 77.0,248.0" fill="#e9debc" />
<polygon points="265.0,261.0 266.0,263.0 268.0,263.0 272.0,266.0 273.0,265.0 269.0,261.0 267.0,260.0" fill="#f9e519" />
<polygon points="275.0,256.0 271.0,259.0 271.0,262.0 275.0,265.0 278.0,263.0 278.0,258.0" fill="#f7ef66" opacity="0.95" />
<polygon points="102.0,256.0 107.0,259.0 108.0,259.0 110.0,257.0 109.0,256.0 105.0,256.0 104.0,255.0 103.0,255.0" fill="#f9e519" />
</svg>