<svg xmlns="http://www.w3.org/2000/svg" width="768" height="768" viewBox="0 0 384 384">
<rect width="384" height="384" fill="#906f64"/>
<polygon points="150.0,47.0 75.0,70.0 22.0,133.0 9.0,248.0 43.0,318.0 146.0,318.0 88.0,245.0 118.0,173.0 150.0,164.0" fill="#a87a66" />
<polygon points="238.0,40.0 236.0,153.0 300.0,224.0 299.0,258.0 239.0,318.0 341.0,318.0 376.0,244.0 371.0,155.0 320.0,79.0" fill="#a87a66" />
<polygon points="0.0,24.0 0.0,319.0 42.0,318.0 8.0,248.0 31.0,114.0 180.0,35.0 352.0,113.0 378.0,232.0 343.0,318.0 383.0,319.0 371.0,13.0" fill="#745143" />
<polygon points="149.0,47.0 75.0,70.0 22.0,133.0 9.0,248.0 46.0,319.0 146.0,318.0 88.0,245.0 118.0,173.0 149.0,166.0" fill="#a87a66" opacity="0.95" />
<polygon points="238.0,40.0 235.0,148.0 300.0,231.0 239.0,318.0 338.0,319.0 376.0,244.0 371.0,155.0 320.0,79.0" fill="#a87a66" opacity="0.95" />
<polygon points="0.0,24.0 0.0,319.0 40.0,318.0 7.0,227.0 31.0,114.0 180.0,35.0 352.0,113.0 378.0,232.0 344.0,318.0 383.0,319.0 371.0,13.0" fill="#745143" opacity="0.95" />
<polygon points="149.0,47.0 75.0,70.0 22.0,133.0 9.0,248.0 46.0,319.0 146.0,317.0 88.0,245.0 118.0,173.0 149.0,166.0" fill="#a87a66" opacity="0.95" />
<polygon points="238.0,40.0 235.0,148.0 300.0,231.0 239.0,317.0 338.0,319.0 376.0,244.0 371.0,155.0 320.0,79.0" fill="#a87a66" opacity="0.95" />
<polygon points="235.0,155.0 242.0,298.0 298.0,258.0 299.0,224.0 280.0,207.0 272.0,183.0" fill="#b39286" />
<polygon points="0.0,24.0 0.0,319.0 38.0,317.0 7.0,227.0 31.0,114.0 180.0,35.0 352.0,113.0 378.0,232.0 346.0,317.0 383.0,319.0 371.0,13.0" fill="#745143" opacity="0.95" />
<polygon points="149.0,167.0 132.0,184.0 125.0,169.0 89.0,245.0 143.0,299.0" fill="#b39286" />
<polygon points="157.0,156.0 152.0,215.0 189.0,229.0 152.0,229.0 152.0,295.0 186.0,309.0 191.0,161.0" fill="#357387" />
<polygon points="0.0,325.0 0.0,345.0 72.0,370.0 127.0,368.0 146.0,344.0 144.0,332.0 79.0,339.0" fill="#b39286" />
<polygon points="383.0,321.0 300.0,338.0 240.0,333.0 239.0,351.0 276.0,371.0 338.0,365.0 383.0,346.0" fill="#b39286" />
<polygon points="237.0,155.0 241.0,298.0 297.0,259.0 298.0,223.0 268.0,178.0" fill="#b39286" opacity="0.95" />
<polygon points="168.0,45.0 165.0,49.0 171.0,57.0 174.0,101.0 184.0,106.0 218.0,101.0 225.0,91.0 228.0,51.0 214.0,45.0" fill="#f80217" />
<polygon points="158.0,307.0 157.0,362.0 167.0,366.0 196.0,367.0 197.0,312.0" fill="#0a0b0b" />
<polygon points="125.0,169.0 89.0,247.0 144.0,298.0 150.0,173.0 132.0,184.0" fill="#b39286" opacity="0.95" />
<polygon points="0.0,321.0 79.0,338.0 145.0,330.0 142.0,320.0" fill="#d8bdb6" />
<polygon points="158.0,156.0 151.0,212.0 179.0,229.0 152.0,229.0 152.0,295.0 185.0,309.0 191.0,161.0" fill="#357387" opacity="0.95" />
<polygon points="237.0,155.0 241.0,295.0 297.0,259.0 298.0,233.0 272.0,183.0" fill="#b39286" opacity="0.95" />
<polygon points="383.0,347.0 300.0,373.0 255.0,368.0 240.0,353.0 240.0,383.0 383.0,383.0" fill="#a87a66" />
<polygon points="239.0,331.0 300.0,337.0 374.0,322.0 240.0,320.0" fill="#d8bdb6" />
<polygon points="0.0,383.0 144.0,383.0 146.0,350.0 133.0,367.0 90.0,373.0 38.0,365.0 0.0,346.0" fill="#a87a66" />
<polygon points="215.0,231.0 198.0,234.0 199.0,309.0 218.0,306.0 218.0,233.0" fill="#8fd9ea" />
<polygon points="166.0,46.0 177.0,104.0 210.0,105.0 223.0,96.0 227.0,49.0" fill="#f80217" opacity="0.95" />
<polygon points="123.0,170.0 89.0,247.0 143.0,297.0 150.0,179.0 131.0,184.0" fill="#b39286" opacity="0.95" />
<polygon points="215.0,158.0 198.0,161.0 198.0,220.0 201.0,224.0 218.0,220.0" fill="#8fd9ea" />
<polygon points="0.0,325.0 0.0,345.0 72.0,370.0 131.0,366.0 146.0,344.0 144.0,332.0 79.0,339.0" fill="#b39286" opacity="0.95" />
<polygon points="383.0,321.0 300.0,338.0 241.0,333.0 239.0,351.0 276.0,371.0 338.0,365.0 383.0,346.0" fill="#b39286" opacity="0.95" />
<polygon points="159.0,156.0 151.0,212.0 165.0,226.0 151.0,235.0 152.0,295.0 159.0,305.0 184.0,309.0 191.0,162.0" fill="#357387" opacity="0.95" />
<polygon points="239.0,370.0 235.0,361.0 208.0,368.0 173.0,368.0 149.0,362.0 145.0,383.0 239.0,383.0" fill="#745143" />
<polygon points="157.0,308.0 157.0,363.0 176.0,367.0 197.0,366.0 197.0,312.0" fill="#0a0b0b" opacity="0.95" />
<polygon points="229.0,229.0 218.0,232.0 220.0,306.0 228.0,304.0 231.0,299.0 232.0,233.0" fill="#15b8d3" />
<polygon points="167.0,46.0 172.0,96.0 177.0,104.0 210.0,105.0 223.0,96.0 226.0,49.0 214.0,45.0" fill="#f80217" opacity="0.95" />
<polygon points="6.0,322.0 79.0,338.0 145.0,330.0 142.0,320.0" fill="#d8bdb6" opacity="0.95" />
<polygon points="383.0,347.0 300.0,373.0 255.0,368.0 241.0,353.0 240.0,383.0 383.0,383.0" fill="#a87a66" opacity="0.95" />
<polygon points="152.0,151.0 147.0,295.0 154.0,303.0" fill="#215060" />
<polygon points="226.0,157.0 217.0,159.0 220.0,219.0 228.0,217.0 232.0,209.0" fill="#15b8d3" />
<polygon points="230.0,304.0 218.0,309.0 220.0,365.0 232.0,361.0" fill="#0a0b0b" />
<polygon points="0.0,346.0 0.0,383.0 144.0,383.0 144.0,350.0 127.0,369.0 90.0,373.0 38.0,365.0" fill="#a87a66" opacity="0.95" />
<polygon points="215.0,231.0 198.0,234.0 200.0,309.0 218.0,306.0 218.0,233.0" fill="#8fd9ea" opacity="0.95" />
<polygon points="157.0,308.0 157.0,362.0 176.0,367.0 196.0,366.0 197.0,313.0" fill="#0a0b0b" opacity="0.95" />
<polygon points="164.0,45.0 155.0,51.0 158.0,95.0 175.0,105.0 171.0,96.0 170.0,57.0" fill="#b10207" />
<polygon points="239.0,331.0 300.0,337.0 370.0,322.0 249.0,320.0 239.0,322.0" fill="#d8bdb6" opacity="0.95" />
<polygon points="214.0,158.0 198.0,160.0 198.0,220.0 202.0,224.0 218.0,220.0" fill="#8fd9ea" opacity="0.95" />
<polygon points="179.0,128.0 179.0,154.0 177.0,157.0 187.0,159.0 195.0,158.0 196.0,129.0" fill="#272522" />
<polygon points="15.0,323.0 79.0,338.0 145.0,330.0 142.0,320.0" fill="#d8bdb6" opacity="0.95" />
<polygon points="145.0,370.0 145.0,383.0 239.0,383.0 234.0,362.0 208.0,368.0 173.0,368.0 150.0,362.0" fill="#745143" opacity="0.95" />
<polygon points="214.0,320.0 209.0,324.0 203.0,320.0 200.0,325.0 199.0,361.0 202.0,363.0 216.0,359.0" fill="#745143" />
<polygon points="164.0,126.0 162.0,128.0 162.0,153.0 176.0,157.0 178.0,154.0 177.0,129.0" fill="#745143" />
<polygon points="148.0,298.0 147.0,358.0 155.0,363.0 155.0,309.0 157.0,306.0" fill="#272522" />
<polygon points="215.0,231.0 198.0,234.0 198.0,307.0 201.0,309.0 218.0,305.0 218.0,233.0" fill="#8fd9ea" opacity="0.95" />
<polygon points="234.0,362.0 212.0,364.0 216.0,328.0 204.0,322.0 202.0,365.0 150.0,363.0 145.0,383.0 239.0,383.0" fill="#745143" opacity="0.95" />
<polygon points="228.0,229.0 219.0,231.0 221.0,306.0 230.0,302.0 232.0,233.0" fill="#15b8d3" opacity="0.95" />
<polygon points="239.0,330.0 272.0,338.0 300.0,337.0 358.0,323.0 240.0,322.0" fill="#d8bdb6" opacity="0.95" />
<polygon points="237.0,297.0 232.0,303.0 233.0,361.0 238.0,357.0" fill="#272522" />
<polygon points="207.0,128.0 197.0,129.0 197.0,157.0 202.0,159.0 208.0,156.0" fill="#f0dfe9" />
<polygon points="201.0,159.0 198.0,161.0 198.0,220.0 209.0,224.0 217.0,220.0 219.0,215.0 216.0,161.0" fill="#8fd9ea" opacity="0.95" />
<polygon points="195.0,232.0 191.0,234.0 189.0,309.0 194.0,308.0" fill="#1c91ad" />
<polygon points="0.0,21.0 4.0,23.0 13.0,12.0 31.0,0.0 0.0,0.0" fill="#272522" />
<polygon points="353.0,0.0 371.0,12.0 383.0,23.0 383.0,0.0" fill="#272522" />
<polygon points="161.0,46.0 155.0,51.0 158.0,95.0 171.0,103.0 170.0,57.0" fill="#b10207" opacity="0.95" />
<polygon points="229.0,305.0 219.0,309.0 221.0,365.0 231.0,362.0" fill="#0a0b0b" opacity="0.95" />
<polygon points="193.0,160.0 184.0,214.0 187.0,223.0 198.0,228.0 192.0,216.0 196.0,167.0" fill="#1c91ad" />
<polygon points="159.0,44.0 192.0,42.0 226.0,46.0 219.0,40.0 197.0,36.0 171.0,38.0" fill="#f0dfe9" />
<polygon points="224.0,124.0 218.0,127.0 219.0,154.0 223.0,154.0 227.0,151.0 227.0,126.0" fill="#745143" />
<polygon points="228.0,229.0 219.0,232.0 219.0,304.0 222.0,306.0 230.0,302.0 232.0,289.0 232.0,233.0" fill="#15b8d3" opacity="0.95" />
<polygon points="222.0,157.0 217.0,159.0 219.0,218.0 224.0,219.0 230.0,215.0 232.0,203.0 227.0,176.0 228.0,159.0" fill="#15b8d3" opacity="0.95" />
<polygon points="180.0,128.0 178.0,129.0 178.0,157.0 192.0,159.0 196.0,157.0 196.0,129.0" fill="#272522" opacity="0.95" />
<polygon points="228.0,155.0 233.0,209.0 226.0,219.0 233.0,221.0 236.0,205.0 232.0,156.0" fill="#1c91ad" />
<polygon points="153.0,118.0 160.0,123.0 173.0,126.0 176.0,120.0 189.0,117.0 169.0,115.0 161.0,111.0" fill="#357387" />
<polygon points="213.0,322.0 208.0,324.0 203.0,321.0 200.0,325.0 199.0,359.0 202.0,363.0 216.0,359.0 216.0,328.0" fill="#745143" opacity="0.95" />
<polygon points="161.0,46.0 155.0,51.0 159.0,97.0 169.0,103.0 172.0,101.0 170.0,57.0" fill="#b10207" opacity="0.95" />
<polygon points="196.0,237.0 194.0,296.0 196.0,309.0" fill="#15b8d3" />
<polygon points="163.0,103.0 163.0,106.0 173.0,113.0 195.0,113.0 195.0,107.0 180.0,107.0 165.0,102.0" fill="#0a0b0b" />
<polygon points="196.0,173.0 193.0,216.0 200.0,226.0 197.0,220.0" fill="#15b8d3" />
<polygon points="228.0,305.0 219.0,310.0 220.0,362.0 223.0,364.0 232.0,359.0 231.0,307.0" fill="#0a0b0b" opacity="0.95" />
<polygon points="149.0,300.0 147.0,301.0 147.0,358.0 154.0,363.0 156.0,362.0 155.0,309.0 157.0,305.0" fill="#272522" opacity="0.95" />
<polygon points="233.0,226.0 229.0,228.0 233.0,233.0 232.0,301.0 235.0,298.0 236.0,229.0" fill="#1c91ad" />
<polygon points="222.0,157.0 217.0,160.0 217.0,191.0 220.0,217.0 224.0,219.0 230.0,215.0 232.0,203.0 227.0,176.0 228.0,159.0" fill="#15b8d3" opacity="0.95" />
<polygon points="151.0,121.0 150.0,122.0 150.0,147.0 154.0,151.0 156.0,124.0" fill="#0a0b0b" />
<polygon points="181.0,128.0 178.0,130.0 179.0,156.0 192.0,159.0 196.0,156.0 196.0,130.0 193.0,128.0" fill="#272522" opacity="0.95" />
<polygon points="206.0,128.0 197.0,129.0 197.0,154.0 198.0,157.0 202.0,159.0 208.0,156.0 208.0,129.0" fill="#f0dfe9" opacity="0.95" />
<polygon points="0.0,21.0 5.0,21.0 13.0,12.0 30.0,0.0 0.0,0.0" fill="#272522" opacity="0.95" />
<polygon points="216.0,121.0 213.0,117.0 209.0,117.0 197.0,120.0 196.0,125.0 198.0,127.0 210.0,127.0 215.0,125.0" fill="#8fd9ea" />
<polygon points="209.0,116.0 197.0,115.0 192.0,118.0 176.0,121.0 175.0,125.0 191.0,127.0 196.0,119.0" fill="#1c91ad" />
<polygon points="193.0,233.0 190.0,241.0 190.0,309.0 194.0,308.0" fill="#1c91ad" opacity="0.95" />
<polygon points="218.0,311.0 216.0,309.0 211.0,309.0 209.0,311.0 202.0,310.0 198.0,313.0 199.0,325.0 203.0,319.0 208.0,323.0 214.0,319.0 217.0,328.0" fill="#272522" />
<polygon points="162.0,41.0 164.0,44.0 192.0,42.0 224.0,45.0 219.0,40.0 197.0,36.0" fill="#f0dfe9" opacity="0.95" />
<polygon points="233.0,121.0 229.0,125.0 229.0,150.0 230.0,151.0 234.0,147.0 234.0,122.0" fill="#0a0b0b" />
<polygon points="205.0,128.0 200.0,128.0 197.0,130.0 197.0,154.0 202.0,159.0 208.0,156.0 208.0,130.0" fill="#f0dfe9" opacity="0.95" />
<polygon points="209.0,108.0 197.0,109.0 197.0,114.0 201.0,118.0 196.0,121.0 196.0,126.0 210.0,127.0 216.0,124.0 215.0,119.0 209.0,115.0" fill="#8fd9ea" opacity="0.95" />
<polygon points="192.0,179.0 185.0,218.0 187.0,223.0 195.0,228.0 197.0,224.0 192.0,216.0 194.0,186.0" fill="#1c91ad" opacity="0.95" />
<polygon points="160.0,223.0 162.0,225.0 161.0,227.0 164.0,229.0 188.0,229.0 167.0,225.0 161.0,222.0" fill="#215060" />
<polygon points="163.0,103.0 163.0,107.0 173.0,113.0 195.0,113.0 195.0,108.0 180.0,107.0 165.0,102.0" fill="#0a0b0b" opacity="0.95" />
<polygon points="154.0,117.0 156.0,121.0 171.0,126.0 174.0,125.0 175.0,121.0 182.0,118.0 180.0,115.0 169.0,115.0 162.0,112.0" fill="#357387" opacity="0.95" />
<polygon points="153.0,153.0 151.0,154.0 152.0,181.0 147.0,200.0 149.0,203.0 155.0,178.0 155.0,154.0" fill="#215060" opacity="0.95" />
<polygon points="209.0,108.0 208.0,107.0 199.0,108.0 197.0,110.0 197.0,114.0 198.0,115.0 208.0,114.0 209.0,113.0" fill="#8fd9ea" />
<polygon points="206.0,107.0 197.0,110.0 200.0,118.0 196.0,121.0 196.0,125.0 199.0,127.0 210.0,127.0 216.0,124.0 215.0,119.0 209.0,115.0 209.0,109.0" fill="#8fd9ea" opacity="0.95" />
<polygon points="210.0,228.0 211.0,229.0 223.0,228.0 228.0,225.0 229.0,226.0 231.0,224.0 230.0,223.0 229.0,224.0 227.0,222.0 219.0,222.0" fill="#215060" />
<polygon points="214.0,115.0 215.0,117.0 224.0,116.0 228.0,121.0 230.0,119.0 221.0,110.0" fill="#1c91ad" />
<polygon points="154.0,117.0 156.0,121.0 171.0,126.0 178.0,119.0 175.0,115.0 169.0,115.0 162.0,112.0" fill="#357387" opacity="0.95" />
<polygon points="199.0,116.0 197.0,115.0 192.0,118.0 179.0,120.0 175.0,122.0 175.0,125.0 190.0,127.0" fill="#1c91ad" opacity="0.95" />
<polygon points="149.0,267.0 147.0,268.0 147.0,296.0 149.0,297.0 151.0,296.0 151.0,268.0" fill="#215060" opacity="0.95" />
<polygon points="223.0,107.0 222.0,110.0 232.0,117.0 233.0,116.0 232.0,113.0 228.0,109.0" fill="#f0dfe9" />
<polygon points="216.0,118.0 216.0,120.0 218.0,124.0 221.0,124.0 226.0,121.0 224.0,117.0 217.0,117.0" fill="#15b8d3" />
<polygon points="185.0,38.0 186.0,41.0 193.0,43.0 208.0,43.0 211.0,41.0 211.0,39.0 208.0,37.0 188.0,36.0" fill="#f0dfe9" opacity="0.95" />
<polygon points="149.0,212.0 147.0,213.0 147.0,234.0 149.0,235.0 151.0,234.0 152.0,223.0 154.0,222.0 151.0,213.0" fill="#215060" opacity="0.95" />
<polygon points="160.0,107.0 157.0,108.0 152.0,113.0 151.0,115.0 152.0,117.0 153.0,117.0 161.0,110.0 161.0,108.0" fill="#f0dfe9" />
<polygon points="228.0,223.0 220.0,222.0 212.0,226.0 212.0,228.0 214.0,229.0 223.0,228.0 227.0,226.0" fill="#215060" opacity="0.95" />
<polygon points="189.0,205.0 186.0,207.0 185.0,218.0 187.0,223.0 193.0,227.0 196.0,225.0 196.0,223.0 193.0,220.0 192.0,207.0" fill="#1c91ad" opacity="0.95" />
<polygon points="195.0,199.0 193.0,200.0 193.0,216.0 195.0,217.0 197.0,216.0 197.0,200.0" fill="#15b8d3" opacity="0.95" />
<polygon points="162.0,225.0 162.0,228.0 164.0,229.0 172.0,229.0 173.0,230.0 178.0,229.0 178.0,227.0 176.0,226.0 167.0,225.0 166.0,224.0" fill="#215060" opacity="0.95" />
<polygon points="215.0,105.0 213.0,105.0 210.0,107.0 210.0,111.0 211.0,112.0 212.0,111.0 213.0,111.0 216.0,108.0 216.0,106.0" fill="#357387" />
<polygon points="222.0,108.0 222.0,110.0 228.0,114.0 230.0,113.0 230.0,111.0 228.0,109.0 224.0,107.0" fill="#f0dfe9" opacity="0.95" />
<polygon points="218.0,106.0 217.0,107.0 218.0,108.0 211.0,113.0 212.0,114.0 217.0,112.0 219.0,110.0 218.0,109.0 219.0,107.0" fill="#215060" />
<polygon points="217.0,224.0 217.0,226.0 220.0,228.0 223.0,228.0 226.0,226.0 226.0,224.0 223.0,222.0 220.0,222.0" fill="#215060" opacity="0.95" />
<polygon points="216.0,106.0 214.0,105.0 211.0,106.0 210.0,107.0 210.0,110.0 212.0,111.0 216.0,109.0" fill="#357387" opacity="0.95" />
<polygon points="161.0,108.0 160.0,108.0 159.0,107.0 158.0,108.0 157.0,108.0 155.0,110.0 155.0,112.0 156.0,112.0 157.0,113.0 158.0,112.0 159.0,112.0 161.0,110.0" fill="#f0dfe9" opacity="0.95" />
</svg>