<svg xmlns="http://www.w3.org/2000/svg" width="768" height="768" viewBox="0 0 384 384">
<rect width="384" height="384" fill="#8c6d60"/>
<polygon points="383.0,187.0 314.0,182.0 47.0,312.0 0.0,270.0 0.0,383.0 383.0,383.0" fill="#8f5c47" />
<polygon points="0.0,239.0 244.0,89.0 271.0,106.0 265.0,81.0 183.0,83.0 191.0,22.0 298.0,0.0 0.0,0.0" fill="#8f5c47" />
<polygon points="383.0,187.0 314.0,182.0 47.0,312.0 0.0,270.0 0.0,383.0 383.0,383.0" fill="#8f5c47" opacity="0.95" />
<polygon points="383.0,187.0 314.0,182.0 47.0,312.0 0.0,270.0 0.0,383.0 383.0,383.0" fill="#8f5c47" opacity="0.95" />
<polygon points="0.0,239.0 238.0,92.0 268.0,97.0 184.0,84.0 191.0,22.0 297.0,0.0 0.0,0.0" fill="#8f5c47" opacity="0.95" />
<polygon points="169.0,220.0 115.0,179.0 0.0,240.0 0.0,265.0 44.0,292.0" fill="#d3c7c7" />
<polygon points="0.0,239.0 267.0,96.0 185.0,84.0 191.0,22.0 297.0,0.0 0.0,0.0" fill="#8f5c47" opacity="0.95" />
<polygon points="383.0,0.0 278.0,21.0 365.0,75.0 294.0,125.0 311.0,152.0 40.0,304.0 383.0,137.0" fill="#3c2b28" />
<polygon points="306.0,149.0 289.0,156.0 294.0,141.0 274.0,129.0 242.0,136.0 232.0,105.0 163.0,172.0 147.0,159.0 117.0,179.0 169.0,219.0 189.0,216.0 179.0,230.0 241.0,204.0" fill="#70bbc9" />
<polygon points="177.0,230.0 115.0,179.0 0.0,240.0 0.0,265.0 44.0,292.0" fill="#d3c7c7" opacity="0.95" />
<polygon points="383.0,0.0 279.0,20.0 367.0,83.0 296.0,125.0 311.0,152.0 42.0,306.0 383.0,136.0" fill="#3c2b28" opacity="0.95" />
<polygon points="304.0,149.0 274.0,129.0 242.0,136.0 232.0,105.0 164.0,171.0 145.0,160.0 118.0,180.0 185.0,216.0 179.0,230.0 241.0,204.0" fill="#70bbc9" opacity="0.95" />
<polygon points="176.0,229.0 115.0,179.0 0.0,240.0 0.0,264.0 44.0,292.0" fill="#d3c7c7" opacity="0.95" />
<polygon points="383.0,0.0 299.0,0.0 280.0,21.0 350.0,53.0 366.0,98.0 91.0,285.0 383.0,136.0" fill="#3c2b28" opacity="0.95" />
<polygon points="383.0,138.0 53.0,307.0 0.0,269.0 51.0,310.0 314.0,181.0 383.0,186.0" fill="#5d3c32" />
<polygon points="295.0,143.0 274.0,129.0 242.0,136.0 230.0,106.0 164.0,171.0 145.0,160.0 118.0,180.0 179.0,217.0 179.0,230.0 241.0,204.0" fill="#70bbc9" opacity="0.95" />
<polygon points="266.0,23.0 243.0,13.0 196.0,18.0 190.0,57.0 197.0,70.0 213.0,67.0 218.0,50.0" fill="#d3c7c7" />
<polygon points="383.0,138.0 330.0,156.0 254.0,208.0 325.0,178.0 383.0,186.0" fill="#5d3c32" opacity="0.95" />
<polygon points="198.0,131.0 149.0,157.0 150.0,165.0 163.0,171.0 192.0,145.0" fill="#448c9a" />
<polygon points="265.0,22.0 243.0,13.0 195.0,19.0 190.0,58.0 197.0,70.0 213.0,67.0 218.0,50.0" fill="#d3c7c7" opacity="0.95" />
<polygon points="226.0,106.0 235.0,106.0 244.0,136.0 274.0,128.0 297.0,147.0 308.0,140.0 269.0,107.0 252.0,122.0 247.0,92.0" fill="#448c9a" />
<polygon points="297.0,35.0 273.0,23.0 231.0,44.0 261.0,36.0 271.0,50.0" fill="#e6b49d" />
<polygon points="305.0,37.0 279.0,58.0 290.0,82.0 284.0,101.0 294.0,100.0 294.0,79.0 305.0,71.0 313.0,49.0" fill="#8f5c47" />
<polygon points="249.0,72.0 236.0,60.0 230.0,46.0 217.0,52.0 216.0,65.0 198.0,72.0 189.0,61.0 198.0,77.0 223.0,79.0" fill="#bea7a1" />
<polygon points="178.0,234.0 168.0,226.0 44.0,293.0 10.0,272.0 43.0,301.0" fill="#bea7a1" />
<polygon points="383.0,138.0 330.0,156.0 289.0,188.0 325.0,178.0 383.0,186.0" fill="#5d3c32" opacity="0.95" />
<polygon points="339.0,51.0 329.0,64.0 343.0,74.0 357.0,91.0 364.0,82.0 360.0,66.0 352.0,56.0" fill="#d3c7c7" />
<polygon points="233.0,45.0 262.0,44.0 268.0,86.0 283.0,81.0 279.0,103.0 289.0,82.0 278.0,58.0 302.0,37.0 271.0,51.0 261.0,37.0" fill="#d98f72" />
<polygon points="264.0,22.0 243.0,13.0 195.0,19.0 192.0,61.0 200.0,71.0 213.0,67.0 218.0,50.0" fill="#d3c7c7" opacity="0.95" />
<polygon points="178.0,237.0 144.0,243.0 46.0,298.0" fill="#a98a7e" />
<polygon points="266.0,79.0 249.0,55.0 239.0,51.0 237.0,60.0 250.0,69.0 246.0,76.0 195.0,79.0" fill="#a98a7e" />
<polygon points="232.0,101.0 242.0,135.0 274.0,128.0 298.0,145.0 307.0,141.0 269.0,107.0 251.0,121.0 248.0,93.0" fill="#448c9a" opacity="0.95" />
<polygon points="274.0,107.0 290.0,123.0 313.0,127.0 294.0,112.0 291.0,100.0" fill="#5d3c32" />
<polygon points="194.0,134.0 149.0,157.0 150.0,165.0 164.0,170.0 182.0,157.0 194.0,142.0" fill="#448c9a" opacity="0.95" />
<polygon points="324.0,59.0 312.0,78.0 305.0,72.0 296.0,77.0 296.0,101.0 305.0,96.0 315.0,105.0 306.0,86.0 322.0,77.0" fill="#d98f72" />
<polygon points="329.0,65.0 333.0,79.0 327.0,86.0 343.0,80.0 349.0,91.0 342.0,100.0 333.0,95.0 321.0,119.0 305.0,115.0 312.0,122.0 334.0,121.0 353.0,97.0 349.0,81.0" fill="#d98f72" />
<polygon points="305.0,38.0 280.0,57.0 290.0,82.0 286.0,98.0 292.0,100.0 294.0,79.0 304.0,72.0 313.0,49.0" fill="#8f5c47" opacity="0.95" />
<polygon points="237.0,48.0 248.0,52.0 255.0,61.0 262.0,63.0 264.0,57.0 260.0,43.0" fill="#8f5c47" />
<polygon points="296.0,34.0 273.0,24.0 231.0,43.0 261.0,36.0 271.0,50.0 291.0,42.0" fill="#e6b49d" opacity="0.95" />
<polygon points="232.0,101.0 242.0,135.0 274.0,128.0 299.0,145.0 306.0,141.0 269.0,107.0 252.0,120.0 247.0,93.0" fill="#448c9a" opacity="0.95" />
<polygon points="337.0,52.0 330.0,65.0 356.0,89.0 360.0,89.0 364.0,78.0 359.0,64.0 349.0,54.0" fill="#d3c7c7" opacity="0.95" />
<polygon points="299.0,35.0 275.0,50.0 263.0,49.0 267.0,84.0 281.0,78.0 285.0,95.0 289.0,82.0 279.0,57.0 301.0,43.0" fill="#d98f72" opacity="0.95" />
<polygon points="298.0,99.0 295.0,107.0 297.0,113.0 310.0,114.0 318.0,118.0 323.0,116.0 305.0,97.0" fill="#e6b49d" />
<polygon points="264.0,49.0 267.0,82.0 279.0,78.0 297.0,96.0 311.0,97.0 313.0,78.0 290.0,80.0 279.0,60.0 302.0,39.0" fill="#d98f72" opacity="0.95" />
<polygon points="249.0,69.0 236.0,60.0 236.0,51.0 230.0,47.0 217.0,52.0 213.0,68.0 196.0,75.0 218.0,79.0 241.0,77.0 249.0,73.0" fill="#bea7a1" opacity="0.95" />
<polygon points="314.0,145.0 286.0,163.0 250.0,197.0" fill="#448c9a" />
<polygon points="318.0,49.0 313.0,51.0 306.0,71.0 310.0,77.0 316.0,73.0 321.0,65.0 323.0,53.0" fill="#e6b49d" />
<polygon points="306.0,39.0 280.0,57.0 292.0,80.0 303.0,72.0 313.0,47.0" fill="#8f5c47" opacity="0.95" />
<polygon points="194.0,136.0 190.0,134.0 152.0,155.0 150.0,165.0 159.0,171.0 164.0,170.0 192.0,145.0" fill="#448c9a" opacity="0.95" />
<polygon points="250.0,93.0 251.0,101.0 249.0,106.0 251.0,120.0 253.0,121.0 264.0,114.0 263.0,109.0 266.0,105.0" fill="#32616e" />
<polygon points="280.0,78.0 278.0,78.0 270.0,88.0 269.0,97.0 270.0,101.0 273.0,103.0 277.0,102.0 282.0,96.0 283.0,85.0" fill="#e6b49d" />
<polygon points="337.0,52.0 330.0,64.0 355.0,88.0 360.0,88.0 364.0,78.0 359.0,64.0 349.0,54.0" fill="#d3c7c7" opacity="0.95" />
<polygon points="253.0,33.0 262.0,37.0 271.0,50.0 296.0,38.0 291.0,29.0 281.0,24.0" fill="#e6b49d" opacity="0.95" />
<polygon points="249.0,69.0 236.0,60.0 236.0,52.0 230.0,47.0 218.0,51.0 216.0,65.0 202.0,74.0 208.0,78.0 241.0,77.0" fill="#bea7a1" opacity="0.95" />
<polygon points="226.0,214.0 179.0,231.0 202.0,227.0" fill="#448c9a" />
<polygon points="237.0,52.0 237.0,60.0 247.0,66.0 250.0,73.0 230.0,81.0 265.0,79.0 260.0,67.0 247.0,53.0" fill="#a98a7e" opacity="0.95" />
<polygon points="338.0,81.0 335.0,89.0 335.0,95.0 338.0,99.0 342.0,99.0 348.0,91.0 348.0,88.0 343.0,81.0" fill="#e6b49d" />
<polygon points="324.0,71.0 318.0,70.0 311.0,78.0 305.0,73.0 297.0,76.0 296.0,97.0 305.0,96.0 314.0,103.0 307.0,85.0 322.0,77.0" fill="#d98f72" opacity="0.95" />
<polygon points="275.0,106.0 275.0,110.0 290.0,123.0 310.0,126.0 303.0,117.0 294.0,112.0 292.0,101.0 288.0,100.0" fill="#5d3c32" opacity="0.95" />
<polygon points="318.0,49.0 313.0,52.0 307.0,69.0 307.0,73.0 311.0,77.0 321.0,65.0 322.0,52.0" fill="#e6b49d" opacity="0.95" />
<polygon points="298.0,99.0 295.0,107.0 297.0,113.0 303.0,112.0 318.0,118.0 322.0,117.0 310.0,105.0 307.0,98.0" fill="#e6b49d" opacity="0.95" />
<polygon points="252.0,95.0 250.0,96.0 251.0,101.0 249.0,106.0 251.0,120.0 253.0,121.0 264.0,114.0 265.0,105.0" fill="#32616e" opacity="0.95" />
<polygon points="330.0,70.0 327.0,69.0 325.0,71.0 321.0,81.0 323.0,85.0 329.0,84.0 332.0,79.0 332.0,73.0" fill="#e6b49d" />
<polygon points="238.0,53.0 237.0,60.0 250.0,69.0 241.0,80.0 262.0,80.0 264.0,75.0 260.0,67.0 247.0,53.0" fill="#a98a7e" opacity="0.95" />
<polygon points="352.0,92.0 341.0,100.0 330.0,98.0 325.0,106.0 333.0,109.0 328.0,120.0 336.0,119.0 339.0,107.0 353.0,97.0" fill="#d98f72" opacity="0.95" />
<polygon points="275.0,107.0 275.0,110.0 290.0,123.0 305.0,126.0 308.0,124.0 303.0,117.0 294.0,112.0 291.0,101.0" fill="#5d3c32" opacity="0.95" />
<polygon points="320.0,85.0 315.0,93.0 319.0,103.0 323.0,107.0 325.0,105.0 321.0,102.0 320.0,96.0 323.0,93.0 332.0,94.0" fill="#5d3c32" />
<polygon points="150.0,243.0 140.0,245.0 113.0,263.0 135.0,255.0" fill="#a98a7e" opacity="0.95" />
<polygon points="86.0,289.0 83.0,287.0 58.0,296.0 44.0,305.0 53.0,306.0" fill="#3c2b28" opacity="0.95" />
<polygon points="254.0,96.0 251.0,98.0 249.0,106.0 251.0,118.0 256.0,120.0 264.0,114.0 265.0,105.0" fill="#32616e" opacity="0.95" />
<polygon points="23.0,279.0 36.0,292.0 40.0,300.0 45.0,299.0 46.0,294.0 38.0,286.0 25.0,278.0" fill="#bea7a1" opacity="0.95" />
<polygon points="17.0,283.0 20.0,290.0 33.0,305.0 40.0,310.0 42.0,309.0 37.0,300.0 21.0,283.0" fill="#5d3c32" opacity="0.95" />
<polygon points="332.0,106.0 334.0,108.0 332.0,114.0 328.0,118.0 326.0,118.0 324.0,116.0 327.0,110.0" fill="#d98f72" />
<polygon points="169.0,228.0 169.0,232.0 171.0,234.0 173.0,234.0 178.0,231.0 173.0,226.0 171.0,226.0" fill="#d3c7c7" />
<polygon points="353.0,95.0 349.0,93.0 340.0,100.0 333.0,96.0 327.0,105.0 337.0,108.0 346.0,104.0" fill="#d98f72" opacity="0.95" />
<polygon points="327.0,94.0 323.0,94.0 321.0,96.0 321.0,99.0 323.0,103.0 325.0,103.0 329.0,98.0 329.0,96.0" fill="#3c2b28" />
<polygon points="334.0,69.0 332.0,70.0 333.0,79.0 331.0,82.0 331.0,85.0 333.0,86.0 339.0,80.0 346.0,80.0 345.0,77.0 337.0,73.0" fill="#d98f72" opacity="0.95" />
<polygon points="328.0,46.0 327.0,47.0 330.0,52.0 330.0,56.0 331.0,57.0 334.0,53.0 334.0,50.0" fill="#5d3c32" />
<polygon points="320.0,86.0 318.0,87.0 316.0,90.0 316.0,96.0 318.0,97.0 325.0,92.0 325.0,90.0" fill="#5d3c32" opacity="0.95" />
<polygon points="206.0,223.0 204.0,222.0 188.0,228.0 188.0,230.0 190.0,231.0 206.0,225.0" fill="#448c9a" opacity="0.95" />
<polygon points="24.0,282.0 23.0,283.0 29.0,289.0 30.0,289.0 34.0,294.0 35.0,292.0 26.0,283.0" fill="#a98a7e" />
<polygon points="278.0,113.0 277.0,114.0 282.0,119.0 282.0,120.0 287.0,123.0 288.0,122.0" fill="#32616e" />
<polygon points="160.0,233.0 160.0,235.0 166.0,238.0 170.0,237.0 170.0,234.0 168.0,233.0 168.0,230.0 166.0,229.0" fill="#bea7a1" opacity="0.95" />
<polygon points="364.0,84.0 361.0,89.0 357.0,92.0 358.0,94.0 365.0,88.0 365.0,85.0" fill="#bea7a1" />
<polygon points="155.0,239.0 155.0,241.0 159.0,243.0 166.0,241.0 166.0,239.0 161.0,236.0" fill="#a98a7e" opacity="0.95" />
<polygon points="189.0,233.0 188.0,232.0 186.0,233.0 180.0,233.0 179.0,235.0 181.0,236.0 182.0,235.0 185.0,235.0" fill="#32616e" />
<polygon points="326.0,94.0 324.0,94.0 321.0,96.0 322.0,102.0 324.0,103.0 326.0,102.0 329.0,98.0 329.0,96.0" fill="#3c2b28" opacity="0.95" />
<polygon points="39.0,290.0 36.0,292.0 36.0,295.0 37.0,297.0 42.0,301.0 45.0,299.0 45.0,294.0" fill="#bea7a1" opacity="0.95" />
<polygon points="271.0,23.0 266.0,20.0 265.0,21.0 267.0,23.0 264.0,26.0 265.0,27.0 269.0,26.0 271.0,24.0" fill="#bea7a1" />
<polygon points="178.0,220.0 177.0,219.0 176.0,220.0 173.0,220.0 170.0,223.0 171.0,224.0 172.0,224.0 174.0,222.0 175.0,222.0" fill="#32616e" />
<polygon points="197.0,78.0 197.0,80.0 199.0,81.0 203.0,81.0 204.0,82.0 209.0,81.0 209.0,79.0 205.0,77.0 199.0,77.0" fill="#a98a7e" opacity="0.95" />
<polygon points="145.0,246.0 142.0,244.0 136.0,248.0 136.0,250.0 139.0,252.0 145.0,248.0" fill="#a98a7e" opacity="0.95" />
<polygon points="161.0,236.0 158.0,237.0 156.0,239.0 156.0,241.0 159.0,243.0 162.0,242.0 164.0,240.0 164.0,238.0" fill="#a98a7e" opacity="0.95" />
<polygon points="100.0,268.0 98.0,267.0 96.0,268.0 92.0,272.0 91.0,272.0 91.0,274.0 93.0,275.0 96.0,274.0 100.0,270.0" fill="#bea7a1" opacity="0.95" />
<polygon points="326.0,94.0 324.0,94.0 321.0,96.0 321.0,99.0 324.0,101.0 327.0,100.0 329.0,98.0 329.0,96.0" fill="#3c2b28" opacity="0.95" />
</svg>