<svg xmlns="http://www.w3.org/2000/svg" width="768" height="768" viewBox="0 0 384 384">
<rect width="384" height="384" fill="#907462"/>
<polygon points="0.0,0.0 0.0,153.0 9.0,107.0 182.0,108.0 198.0,0.0" fill="#78503a" />
<polygon points="142.0,121.0 43.0,224.0 41.0,358.0 3.0,383.0 152.0,383.0 164.0,223.0 124.0,302.0 45.0,293.0 111.0,233.0 140.0,240.0" fill="#bfa089" />
<polygon points="126.0,164.0 144.0,209.0 200.0,227.0 250.0,195.0 267.0,140.0 133.0,132.0" fill="#8fb7c0" />
<polygon points="277.0,149.0 262.0,210.0 199.0,241.0 217.0,383.0 290.0,383.0 258.0,359.0 251.0,312.0 328.0,332.0 332.0,226.0 295.0,202.0" fill="#78503a" />
<polygon points="199.0,0.0 180.0,133.0 247.0,138.0 239.0,7.0" fill="#d7bfb2" />
<polygon points="0.0,0.0 0.0,148.0 9.0,108.0 182.0,107.0 198.0,0.0" fill="#78503a" opacity="0.95" />
<polygon points="180.0,109.0 163.0,129.0 152.0,107.0 89.0,104.0 27.0,124.0 0.0,181.0 0.0,383.0 40.0,358.0 42.0,224.0 133.0,119.0 178.0,133.0" fill="#a17b63" />
<polygon points="372.0,169.0 338.0,178.0 356.0,383.0 372.0,383.0" fill="#bfa089" />
<polygon points="0.0,0.0 0.0,144.0 9.0,109.0 23.0,102.0 182.0,106.0 198.0,0.0" fill="#78503a" opacity="0.95" />
<polygon points="129.0,136.0 43.0,224.0 41.0,358.0 3.0,383.0 152.0,383.0 166.0,224.0 124.0,302.0 47.0,294.0 110.0,234.0 140.0,241.0" fill="#bfa089" opacity="0.95" />
<polygon points="269.0,141.0 267.0,186.0 241.0,220.0 168.0,226.0 154.0,383.0 216.0,383.0 198.0,241.0 267.0,202.0" fill="#3f2920" />
<polygon points="294.0,213.0 277.0,290.0 243.0,300.0 224.0,296.0 211.0,250.0" fill="#78503a" />
<polygon points="126.0,164.0 144.0,209.0 200.0,227.0 250.0,195.0 267.0,140.0 134.0,132.0" fill="#8fb7c0" opacity="0.95" />
<polygon points="294.0,214.0 212.0,250.0 224.0,295.0 243.0,299.0 277.0,287.0" fill="#a17b63" />
<polygon points="128.0,137.0 43.0,224.0 41.0,358.0 1.0,383.0 152.0,383.0 166.0,225.0 152.0,219.0 142.0,239.0 127.0,221.0" fill="#bfa089" opacity="0.95" />
<polygon points="279.0,157.0 262.0,210.0 199.0,241.0 217.0,383.0 287.0,383.0 256.0,360.0 248.0,314.0 333.0,317.0 330.0,221.0 295.0,202.0" fill="#78503a" opacity="0.95" />
<polygon points="337.0,251.0 328.0,333.0 302.0,315.0 250.0,314.0 260.0,360.0 286.0,381.0 355.0,383.0" fill="#a17b63" />
<polygon points="181.0,110.0 163.0,129.0 136.0,106.0 28.0,122.0 0.0,178.0 0.0,383.0 40.0,358.0 42.0,224.0 132.0,120.0 177.0,133.0" fill="#a17b63" opacity="0.95" />
<polygon points="199.0,0.0 180.0,133.0 246.0,138.0 239.0,7.0" fill="#d7bfb2" opacity="0.95" />
<polygon points="152.0,108.0 75.0,105.0 27.0,124.0 0.0,177.0 0.0,383.0 40.0,358.0 42.0,224.0" fill="#a17b63" opacity="0.95" />
<polygon points="126.0,164.0 144.0,209.0 200.0,227.0 250.0,195.0 267.0,141.0 135.0,132.0" fill="#8fb7c0" opacity="0.95" />
<polygon points="281.0,168.0 253.0,219.0 199.0,241.0 217.0,383.0 286.0,383.0 256.0,360.0 248.0,314.0 333.0,317.0 330.0,221.0" fill="#78503a" opacity="0.95" />
<polygon points="266.0,45.0 268.0,135.0 296.0,202.0 336.0,235.0 337.0,178.0 374.0,167.0 375.0,115.0 344.0,112.0 331.0,75.0 326.0,112.0 350.0,124.0 304.0,136.0 294.0,112.0 280.0,136.0 290.0,48.0" fill="#a17b63" />
<polygon points="199.0,0.0 180.0,132.0 245.0,138.0 239.0,7.0" fill="#d7bfb2" opacity="0.95" />
<polygon points="308.0,0.0 237.0,0.0 247.0,78.0 263.0,83.0 264.0,138.0 265.0,39.0 278.0,23.0 293.0,32.0 286.0,112.0 312.0,54.0" fill="#78503a" />
<polygon points="346.0,0.0 347.0,49.0 360.0,63.0 371.0,111.0 382.0,113.0 383.0,0.0" fill="#15161a" />
<polygon points="270.0,142.0 267.0,186.0 241.0,220.0 168.0,226.0 154.0,383.0 216.0,383.0 198.0,241.0 267.0,202.0" fill="#3f2920" opacity="0.95" />
<polygon points="295.0,214.0 277.0,289.0 243.0,300.0 224.0,296.0 211.0,250.0" fill="#78503a" opacity="0.95" />
<polygon points="371.0,170.0 339.0,177.0 337.0,245.0 356.0,383.0 372.0,383.0" fill="#bfa089" opacity="0.95" />
<polygon points="171.0,225.0 154.0,383.0 216.0,383.0 198.0,241.0 213.0,231.0" fill="#3f2920" opacity="0.95" />
<polygon points="295.0,215.0 212.0,250.0 224.0,295.0 243.0,299.0 277.0,287.0" fill="#a17b63" opacity="0.95" />
<polygon points="130.0,193.0 142.0,240.0 107.0,237.0 82.0,284.0 47.0,294.0 125.0,300.0 113.0,285.0 150.0,223.0" fill="#a17b63" />
<polygon points="379.0,138.0 371.0,315.0 383.0,311.0" fill="#3f2920" />
<polygon points="338.0,258.0 329.0,329.0 302.0,315.0 250.0,315.0 261.0,360.0 289.0,383.0 355.0,383.0" fill="#a17b63" opacity="0.95" />
<polygon points="267.0,48.0 268.0,135.0 336.0,233.0 338.0,177.0 374.0,167.0 375.0,115.0 343.0,111.0 332.0,78.0 327.0,112.0 350.0,124.0 305.0,136.0 296.0,114.0 278.0,135.0 288.0,48.0" fill="#a17b63" opacity="0.95" />
<polygon points="370.0,170.0 339.0,177.0 337.0,245.0 356.0,383.0 372.0,383.0" fill="#bfa089" opacity="0.95" />
<polygon points="238.0,0.0 247.0,79.0 266.0,82.0 270.0,29.0 292.0,29.0 281.0,67.0 286.0,111.0 311.0,55.0 308.0,0.0" fill="#78503a" opacity="0.95" />
<polygon points="309.0,0.0 311.0,32.0 329.0,36.0 339.0,50.0 345.0,50.0 345.0,0.0" fill="#3f2920" />
<polygon points="346.0,0.0 348.0,50.0 360.0,63.0 371.0,111.0 382.0,113.0 383.0,0.0" fill="#15161a" opacity="0.95" />
<polygon points="36.0,109.0 10.0,108.0 0.0,180.0 26.0,124.0 39.0,113.0" fill="#bfa089" />
<polygon points="249.0,82.0 249.0,137.0 261.0,138.0 262.0,83.0" fill="#3f2920" />
<polygon points="346.0,0.0 348.0,49.0 360.0,63.0 371.0,111.0 382.0,113.0 383.0,0.0" fill="#15161a" opacity="0.95" />
<polygon points="269.0,149.0 248.0,199.0 207.0,228.0 234.0,224.0 255.0,205.0 267.0,183.0" fill="#15161a" />
<polygon points="145.0,242.0 116.0,285.0 123.0,302.0 54.0,294.0 85.0,280.0 110.0,234.0" fill="#bfa089" opacity="0.95" />
<polygon points="295.0,110.0 304.0,116.0 304.0,135.0 333.0,132.0 350.0,122.0 344.0,116.0 308.0,115.0 305.0,95.0" fill="#bfa089" />
<polygon points="378.0,176.0 373.0,186.0 372.0,314.0 383.0,311.0 383.0,179.0" fill="#3f2920" opacity="0.95" />
<polygon points="309.0,0.0 311.0,32.0 329.0,36.0 340.0,50.0 347.0,48.0 345.0,0.0" fill="#3f2920" opacity="0.95" />
<polygon points="380.0,178.0 373.0,187.0 373.0,313.0 383.0,311.0" fill="#3f2920" opacity="0.95" />
<polygon points="309.0,0.0 311.0,32.0 325.0,34.0 339.0,49.0 345.0,48.0 345.0,0.0" fill="#3f2920" opacity="0.95" />
<polygon points="274.0,115.0 280.0,135.0 295.0,112.0 304.0,116.0 305.0,135.0 350.0,122.0 307.0,114.0 305.0,97.0 294.0,113.0" fill="#bfa089" opacity="0.95" />
<polygon points="270.0,157.0 248.0,199.0 209.0,228.0 227.0,227.0 255.0,205.0 267.0,183.0" fill="#15161a" opacity="0.95" />
<polygon points="288.0,26.0 279.0,24.0 270.0,31.0 269.0,34.0 275.0,46.0 278.0,46.0 284.0,35.0 291.0,31.0" fill="#d7bfb2" />
<polygon points="268.0,169.0 248.0,199.0 214.0,228.0 237.0,222.0 255.0,205.0 266.0,186.0" fill="#15161a" opacity="0.95" />
<polygon points="316.0,52.0 314.0,54.0 316.0,56.0 308.0,64.0 307.0,77.0 310.0,81.0 322.0,64.0 319.0,58.0 323.0,54.0" fill="#d7bfb2" />
<polygon points="346.0,51.0 340.0,51.0 332.0,58.0 331.0,71.0 333.0,73.0 337.0,73.0 340.0,70.0 344.0,57.0 347.0,53.0" fill="#d7bfb2" />
<polygon points="19.0,105.0 23.0,107.0 53.0,110.0 58.0,109.0 57.0,105.0 30.0,103.0" fill="#15161a" />
<polygon points="289.0,27.0 279.0,24.0 270.0,31.0 274.0,45.0 277.0,46.0 281.0,43.0 284.0,35.0 291.0,31.0" fill="#d7bfb2" opacity="0.95" />
<polygon points="346.0,52.0 340.0,51.0 333.0,56.0 331.0,62.0 332.0,72.0 336.0,73.0 340.0,70.0" fill="#d7bfb2" opacity="0.95" />
<polygon points="320.0,52.0 315.0,53.0 315.0,57.0 308.0,64.0 307.0,77.0 310.0,81.0 322.0,64.0 320.0,59.0 322.0,53.0" fill="#d7bfb2" opacity="0.95" />
<polygon points="23.0,104.0 25.0,107.0 53.0,110.0 58.0,109.0 58.0,106.0 56.0,105.0" fill="#15161a" opacity="0.95" />
<polygon points="289.0,27.0 279.0,24.0 270.0,31.0 274.0,45.0 277.0,46.0 281.0,43.0 284.0,35.0 290.0,31.0" fill="#d7bfb2" opacity="0.95" />
</svg>