<svg xmlns="http://www.w3.org/2000/svg" width="768" height="768" viewBox="0 0 384 384">
<rect width="384" height="384" fill="#8e756e"/>
<polygon points="181.0,43.0 0.0,144.0 0.0,383.0 151.0,383.0 167.0,302.0 139.0,291.0" fill="#a8846f" />
<polygon points="183.0,46.0 0.0,144.0 0.0,383.0 151.0,383.0 166.0,303.0 139.0,291.0" fill="#a8846f" opacity="0.95" />
<polygon points="0.0,143.0 88.0,80.0 173.0,50.0 196.0,5.0 232.0,13.0 240.0,0.0 0.0,0.0" fill="#75533d" />
<polygon points="181.0,47.0 0.0,144.0 0.0,383.0 151.0,383.0 165.0,304.0 139.0,291.0" fill="#a8846f" opacity="0.95" />
<polygon points="247.0,101.0 232.0,135.0 184.0,107.0 182.0,226.0 217.0,220.0 220.0,126.0 264.0,266.0 162.0,257.0 166.0,113.0 144.0,293.0 310.0,242.0" fill="#8d99a6" />
<polygon points="276.0,111.0 265.0,162.0 307.0,196.0 316.0,232.0 270.0,274.0 374.0,286.0 326.0,123.0" fill="#787d87" />
<polygon points="366.0,304.0 349.0,323.0 297.0,330.0 268.0,311.0 237.0,383.0 383.0,383.0" fill="#a8846f" />
<polygon points="0.0,143.0 89.0,80.0 173.0,50.0 194.0,7.0 232.0,13.0 240.0,0.0 0.0,0.0" fill="#75533d" opacity="0.95" />
<polygon points="371.0,292.0 263.0,277.0 148.0,295.0 319.0,315.0" fill="#282526" />
<polygon points="249.0,102.0 231.0,131.0 184.0,107.0 186.0,229.0 243.0,207.0 263.0,260.0 165.0,256.0 160.0,159.0 143.0,292.0 310.0,242.0" fill="#8d99a6" opacity="0.95" />
<polygon points="328.0,122.0 336.0,184.0 369.0,243.0 372.0,122.0" fill="#8d99a6" />
<polygon points="239.0,12.0 206.0,14.0 202.0,105.0 223.0,106.0 248.0,99.0" fill="#ddd9e3" />
<polygon points="0.0,143.0 87.0,81.0 173.0,50.0 195.0,7.0 232.0,13.0 240.0,0.0 0.0,0.0" fill="#75533d" opacity="0.95" />
<polygon points="170.0,300.0 153.0,383.0 234.0,383.0 252.0,336.0 247.0,312.0 268.0,309.0 215.0,305.0 215.0,315.0 191.0,318.0 189.0,303.0" fill="#432819" />
<polygon points="248.0,103.0 230.0,130.0 184.0,108.0 182.0,226.0 237.0,204.0 262.0,254.0 166.0,255.0 160.0,169.0 144.0,292.0 313.0,240.0 359.0,278.0" fill="#8d99a6" opacity="0.95" />
<polygon points="296.0,36.0 309.0,116.0 340.0,121.0 328.0,34.0" fill="#d80333" />
<polygon points="366.0,304.0 348.0,323.0 297.0,330.0 267.0,312.0 237.0,383.0 383.0,383.0" fill="#a8846f" opacity="0.95" />
<polygon points="274.0,112.0 266.0,164.0 307.0,196.0 316.0,232.0 272.0,275.0 368.0,288.0 372.0,259.0 335.0,184.0 326.0,122.0" fill="#787d87" opacity="0.95" />
<polygon points="370.0,292.0 263.0,277.0 151.0,296.0 321.0,314.0" fill="#282526" opacity="0.95" />
<polygon points="275.0,112.0 267.0,166.0 307.0,196.0 316.0,239.0 274.0,274.0 373.0,284.0 326.0,123.0" fill="#787d87" opacity="0.95" />
<polygon points="170.0,114.0 163.0,257.0 242.0,239.0 262.0,267.0 236.0,203.0 220.0,234.0 181.0,226.0 171.0,240.0" fill="#787d87" />
<polygon points="208.0,13.0 201.0,104.0 246.0,101.0 241.0,15.0" fill="#ddd9e3" opacity="0.95" />
<polygon points="169.0,301.0 153.0,383.0 235.0,383.0 252.0,336.0 249.0,307.0 219.0,306.0 204.0,319.0 189.0,317.0 189.0,304.0" fill="#432819" opacity="0.95" />
<polygon points="270.0,25.0 285.0,109.0 306.0,116.0 289.0,28.0" fill="#ebbbaf" />
<polygon points="366.0,306.0 345.0,323.0 297.0,330.0 267.0,313.0 237.0,383.0 383.0,383.0" fill="#a8846f" opacity="0.95" />
<polygon points="329.0,122.0 335.0,181.0 368.0,241.0 372.0,122.0" fill="#8d99a6" opacity="0.95" />
<polygon points="292.0,0.0 297.0,28.0 363.0,37.0 347.0,47.0 383.0,42.0 383.0,0.0 315.0,0.0 328.0,6.0 299.0,5.0 310.0,0.0" fill="#282526" />
<polygon points="370.0,293.0 263.0,277.0 155.0,296.0 321.0,314.0" fill="#282526" opacity="0.95" />
<polygon points="295.0,38.0 309.0,116.0 341.0,120.0 328.0,34.0" fill="#d80333" opacity="0.95" />
<polygon points="238.0,13.0 206.0,16.0 204.0,105.0 248.0,99.0" fill="#ddd9e3" opacity="0.95" />
<polygon points="170.0,301.0 153.0,383.0 235.0,383.0 252.0,336.0 248.0,308.0 220.0,306.0 207.0,319.0 192.0,318.0 187.0,304.0" fill="#432819" opacity="0.95" />
<polygon points="330.0,122.0 335.0,181.0 367.0,240.0 372.0,123.0" fill="#8d99a6" opacity="0.95" />
<polygon points="200.0,8.0 191.0,43.0 186.0,105.0 200.0,101.0 205.0,17.0" fill="#e14caf" />
<polygon points="249.0,38.0 253.0,100.0 274.0,111.0" fill="#096e47" />
<polygon points="191.0,28.0 167.0,109.0 181.0,116.0" fill="#160f12" />
<polygon points="167.0,126.0 165.0,255.0 242.0,239.0 262.0,260.0 237.0,205.0 220.0,234.0 171.0,240.0" fill="#787d87" opacity="0.95" />
<polygon points="292.0,0.0 298.0,28.0 350.0,36.0 347.0,47.0 383.0,42.0 383.0,0.0 317.0,0.0 325.0,4.0 317.0,9.0" fill="#282526" opacity="0.95" />
<polygon points="298.0,37.0 294.0,44.0 309.0,116.0 338.0,121.0 328.0,36.0" fill="#d80333" opacity="0.95" />
<polygon points="272.0,25.0 285.0,109.0 306.0,116.0 288.0,27.0" fill="#ebbbaf" opacity="0.95" />
<polygon points="374.0,177.0 371.0,246.0 379.0,292.0 367.0,299.0 374.0,317.0 383.0,309.0 383.0,240.0 376.0,232.0 383.0,229.0 383.0,192.0" fill="#160f12" />
<polygon points="292.0,0.0 298.0,28.0 329.0,28.0 352.0,37.0 356.0,47.0 383.0,42.0 383.0,0.0 320.0,0.0 317.0,9.0" fill="#282526" opacity="0.95" />
<polygon points="316.0,240.0 325.0,238.0 327.0,248.0 333.0,251.0 339.0,239.0 365.0,280.0 352.0,280.0 333.0,269.0 317.0,251.0" fill="#787d87" />
<polygon points="364.0,301.0 317.0,317.0 273.0,313.0 288.0,328.0 327.0,318.0 338.0,325.0 349.0,322.0 348.0,315.0" fill="#ebbbaf" />
<polygon points="383.0,43.0 358.0,48.0 370.0,97.0 383.0,92.0 383.0,82.0 379.0,79.0 382.0,76.0 378.0,73.0 383.0,68.0 380.0,64.0" fill="#160f12" />
<polygon points="200.0,8.0 188.0,65.0 187.0,105.0 200.0,101.0 205.0,17.0" fill="#e14caf" opacity="0.95" />
<polygon points="273.0,25.0 285.0,109.0 304.0,116.0 307.0,108.0 288.0,27.0" fill="#ebbbaf" opacity="0.95" />
<polygon points="317.0,240.0 317.0,249.0 333.0,268.0 362.0,280.0 339.0,240.0 333.0,252.0 326.0,248.0 325.0,239.0" fill="#8d99a6" />
<polygon points="263.0,23.0 263.0,48.0 271.0,62.0 279.0,109.0 269.0,29.0" fill="#ee605f" />
<polygon points="261.0,250.0 237.0,205.0 212.0,238.0 183.0,228.0 164.0,236.0 166.0,254.0 189.0,260.0 241.0,239.0 256.0,255.0" fill="#787d87" opacity="0.95" />
<polygon points="346.0,51.0 354.0,77.0 366.0,96.0 358.0,51.0" fill="#ddd9e3" />
<polygon points="189.0,37.0 167.0,109.0 182.0,114.0" fill="#160f12" opacity="0.95" />
<polygon points="251.0,0.0 248.0,24.0 259.0,20.0 267.0,23.0 269.0,21.0 270.0,1.0" fill="#75533d" />
<polygon points="350.0,80.0 349.0,98.0 354.0,112.0 359.0,119.0 370.0,120.0 372.0,113.0 369.0,100.0 359.0,90.0 356.0,82.0" fill="#096e47" />
<polygon points="201.0,9.0 191.0,43.0 188.0,105.0 200.0,101.0 205.0,17.0" fill="#e14caf" opacity="0.95" />
<polygon points="374.0,133.0 374.0,174.0 378.0,185.0 383.0,190.0 383.0,150.0 379.0,137.0" fill="#432819" />
<polygon points="383.0,310.0 374.0,318.0 369.0,316.0 383.0,359.0" fill="#432819" />
<polygon points="252.0,58.0 253.0,100.0 273.0,110.0 275.0,106.0 265.0,76.0 256.0,69.0" fill="#096e47" opacity="0.95" />
<polygon points="336.0,70.0 342.0,118.0 355.0,119.0 348.0,108.0 342.0,80.0" fill="#ebbbaf" />
<polygon points="375.0,181.0 372.0,256.0 378.0,293.0 367.0,298.0 373.0,316.0 383.0,309.0 383.0,240.0 376.0,232.0 383.0,229.0 383.0,191.0" fill="#160f12" opacity="0.95" />
<polygon points="234.0,104.0 222.0,108.0 220.0,121.0 228.0,127.0 232.0,134.0" fill="#787d87" />
<polygon points="316.0,240.0 326.0,239.0 331.0,250.0 341.0,241.0 361.0,279.0 352.0,280.0 333.0,269.0 317.0,251.0" fill="#787d87" opacity="0.95" />
<polygon points="244.0,30.0 251.0,100.0 249.0,49.0" fill="#485757" />
<polygon points="173.0,115.0 171.0,162.0 177.0,177.0 180.0,172.0 180.0,159.0 176.0,151.0 178.0,117.0" fill="#485757" />
<polygon points="383.0,43.0 359.0,48.0 371.0,97.0 383.0,92.0 380.0,80.0 383.0,76.0 378.0,73.0 383.0,66.0 380.0,64.0" fill="#160f12" opacity="0.95" />
<polygon points="361.0,302.0 317.0,317.0 282.0,312.0 276.0,318.0 288.0,327.0 328.0,318.0 348.0,322.0" fill="#ebbbaf" opacity="0.95" />
<polygon points="254.0,102.0 265.0,115.0 265.0,133.0 260.0,139.0 265.0,156.0 271.0,162.0 269.0,113.0 265.0,107.0" fill="#485757" />
<polygon points="265.0,310.0 250.0,310.0 248.0,312.0 251.0,318.0 253.0,340.0 266.0,313.0" fill="#75533d" />
<polygon points="292.0,30.0 298.0,36.0 327.0,32.0 339.0,49.0 347.0,48.0 342.0,45.0 364.0,39.0 339.0,36.0 330.0,29.0 294.0,26.0" fill="#160f12" />
<polygon points="317.0,240.0 318.0,251.0 333.0,268.0 360.0,279.0 341.0,242.0 336.0,242.0 332.0,252.0 326.0,248.0 326.0,240.0" fill="#8d99a6" opacity="0.95" />
<polygon points="383.0,43.0 359.0,49.0 368.0,94.0 372.0,97.0 383.0,92.0 383.0,77.0 378.0,73.0 383.0,66.0" fill="#160f12" opacity="0.95" />
<polygon points="376.0,185.0 372.0,256.0 378.0,292.0 367.0,299.0 373.0,316.0 383.0,309.0 383.0,240.0 377.0,233.0 383.0,229.0 383.0,190.0" fill="#160f12" opacity="0.95" />
<polygon points="283.0,0.0 284.0,24.0 289.0,25.0 291.0,27.0 293.0,22.0 292.0,3.0 291.0,0.0" fill="#d80333" />
<polygon points="371.0,98.0 370.0,102.0 373.0,113.0 379.0,118.0 380.0,123.0 383.0,125.0 383.0,93.0" fill="#432819" />
<polygon points="351.0,81.0 349.0,98.0 357.0,118.0 369.0,120.0 372.0,118.0 369.0,100.0 359.0,90.0 356.0,82.0" fill="#096e47" opacity="0.95" />
<polygon points="265.0,53.0 265.0,72.0 272.0,88.0 271.0,67.0" fill="#d80333" />
<polygon points="188.0,308.0 188.0,312.0 192.0,317.0 201.0,316.0 204.0,318.0 209.0,317.0 216.0,310.0 214.0,307.0 206.0,305.0 192.0,305.0" fill="#160f12" />
<polygon points="315.0,240.0 324.0,239.0 331.0,250.0 341.0,241.0 360.0,278.0 355.0,281.0 333.0,269.0 317.0,251.0" fill="#787d87" opacity="0.95" />
<polygon points="264.0,25.0 263.0,48.0 271.0,62.0 274.0,98.0 279.0,108.0 269.0,29.0" fill="#ee605f" opacity="0.95" />
<polygon points="226.0,33.0 228.0,35.0 229.0,71.0 227.0,73.0 224.0,69.0 223.0,62.0 224.0,35.0" fill="#ddd9e3" />
<polygon points="241.0,0.0 240.0,11.0 246.0,19.0 249.0,13.0 250.0,0.0" fill="#ebbbaf" />
<polygon points="251.0,0.0 248.0,23.0 251.0,24.0 259.0,20.0 265.0,23.0 268.0,22.0 269.0,0.0" fill="#75533d" opacity="0.95" />
<polygon points="348.0,51.0 346.0,55.0 354.0,77.0 364.0,93.0 366.0,89.0 358.0,51.0" fill="#ddd9e3" opacity="0.95" />
<polygon points="296.0,244.0 276.0,261.0 273.0,259.0 278.0,247.0 281.0,244.0 287.0,242.0 294.0,242.0" fill="#8d99a6" />
<polygon points="358.0,304.0 317.0,317.0 282.0,312.0 276.0,318.0 288.0,327.0 316.0,325.0 328.0,318.0 345.0,322.0" fill="#ebbbaf" opacity="0.95" />
<polygon points="256.0,108.0 255.0,110.0 260.0,136.0 262.0,137.0 264.0,133.0 264.0,115.0 259.0,108.0" fill="#282526" />
<polygon points="383.0,310.0 370.0,318.0 374.0,336.0 383.0,357.0" fill="#432819" opacity="0.95" />
<polygon points="180.0,116.0 177.0,122.0 177.0,151.0 179.0,157.0 181.0,139.0" fill="#282526" />
<polygon points="352.0,81.0 349.0,83.0 349.0,98.0 358.0,118.0 369.0,120.0 372.0,118.0 369.0,100.0" fill="#096e47" opacity="0.95" />
<polygon points="270.0,232.0 276.0,229.0 297.0,229.0 303.0,230.0 305.0,232.0 303.0,234.0 283.0,235.0 272.0,234.0" fill="#8d99a6" />
<polygon points="295.0,244.0 287.0,243.0 281.0,245.0 274.0,259.0 276.0,260.0" fill="#ddd9e3" />
<polygon points="375.0,134.0 373.0,135.0 374.0,174.0 378.0,185.0 383.0,190.0 383.0,146.0 380.0,144.0 379.0,136.0" fill="#432819" opacity="0.95" />
<polygon points="278.0,0.0 270.0,0.0 269.0,22.0 271.0,24.0 273.0,24.0 276.0,19.0 275.0,13.0" fill="#a8846f" />
<polygon points="251.0,0.0 248.0,22.0 251.0,24.0 259.0,20.0 267.0,22.0 269.0,0.0" fill="#75533d" opacity="0.95" />
<polygon points="264.0,310.0 249.0,311.0 251.0,328.0 255.0,334.0 266.0,313.0" fill="#75533d" opacity="0.95" />
<polygon points="376.0,135.0 373.0,137.0 374.0,174.0 378.0,185.0 383.0,189.0 383.0,141.0" fill="#432819" opacity="0.95" />
<polygon points="349.0,51.0 346.0,55.0 362.0,90.0 365.0,84.0 358.0,52.0" fill="#ddd9e3" opacity="0.95" />
<polygon points="339.0,78.0 337.0,85.0 342.0,118.0 353.0,119.0 355.0,116.0 348.0,108.0 342.0,80.0" fill="#ebbbaf" opacity="0.95" />
<polygon points="335.0,53.0 331.0,55.0 332.0,61.0 340.0,75.0 341.0,71.0 338.0,54.0" fill="#ddd9e3" />
<polygon points="375.0,115.0 373.0,121.0 373.0,131.0 380.0,137.0 383.0,149.0 383.0,126.0 379.0,123.0 378.0,118.0" fill="#75533d" />
<polygon points="265.0,108.0 263.0,109.0 265.0,133.0 261.0,143.0 265.0,156.0 270.0,161.0 272.0,160.0 270.0,121.0" fill="#485757" opacity="0.95" />
<polygon points="253.0,65.0 250.0,67.0 253.0,100.0 263.0,106.0 266.0,104.0 265.0,98.0 271.0,92.0 261.0,85.0" fill="#096e47" opacity="0.95" />
<polygon points="178.0,217.0 175.0,217.0 171.0,222.0 171.0,227.0 174.0,230.0 172.0,240.0 174.0,242.0 177.0,239.0 178.0,229.0 180.0,226.0" fill="#485757" />
<polygon points="175.0,115.0 172.0,118.0 171.0,162.0 177.0,174.0 180.0,172.0 180.0,159.0 176.0,151.0 177.0,116.0" fill="#485757" opacity="0.95" />
<polygon points="283.0,0.0 284.0,24.0 290.0,26.0 293.0,22.0 292.0,3.0 291.0,0.0" fill="#d80333" opacity="0.95" />
<polygon points="370.0,99.0 373.0,113.0 379.0,118.0 380.0,123.0 383.0,125.0 383.0,93.0" fill="#432819" opacity="0.95" />
<polygon points="280.0,0.0 277.0,10.0 277.0,21.0 276.0,22.0 277.0,24.0 283.0,20.0 283.0,9.0 282.0,3.0" fill="#282526" />
<polygon points="223.0,214.0 222.0,227.0 205.0,239.0 224.0,229.0 227.0,223.0" fill="#485757" />
<polygon points="265.0,26.0 262.0,28.0 263.0,48.0 271.0,58.0 274.0,56.0 269.0,29.0" fill="#ee605f" opacity="0.95" />
<polygon points="283.0,0.0 284.0,23.0 289.0,25.0 293.0,22.0 292.0,3.0 291.0,0.0" fill="#d80333" opacity="0.95" />
<polygon points="280.0,82.0 279.0,86.0 282.0,107.0 279.0,110.0 284.0,112.0 284.0,97.0" fill="#a8846f" />
<polygon points="223.0,220.0 221.0,217.0 218.0,225.0 209.0,232.0 205.0,233.0 200.0,229.0 197.0,231.0 203.0,236.0 212.0,234.0 221.0,227.0" fill="#282526" />
<polygon points="262.0,310.0 252.0,310.0 249.0,312.0 251.0,328.0 255.0,332.0 259.0,329.0 265.0,315.0 265.0,312.0" fill="#75533d" opacity="0.95" />
<polygon points="342.0,90.0 339.0,92.0 342.0,118.0 349.0,120.0 354.0,115.0 348.0,108.0 347.0,97.0" fill="#ebbbaf" opacity="0.95" />
<polygon points="266.0,56.0 264.0,57.0 265.0,72.0 269.0,82.0 271.0,83.0 273.0,82.0 271.0,67.0 268.0,57.0" fill="#d80333" opacity="0.95" />
<polygon points="267.0,132.0 261.0,139.0 261.0,143.0 265.0,156.0 269.0,160.0 272.0,158.0 272.0,147.0 270.0,134.0" fill="#485757" opacity="0.95" />
<polygon points="243.0,16.0 242.0,17.0 242.0,25.0 247.0,33.0 248.0,32.0" fill="#096e47" />
<polygon points="278.0,0.0 271.0,0.0 270.0,2.0 269.0,19.0 270.0,23.0 272.0,24.0 276.0,19.0 275.0,13.0" fill="#a8846f" opacity="0.95" />
<polygon points="177.0,217.0 171.0,222.0 171.0,228.0 174.0,230.0 172.0,240.0 174.0,241.0 177.0,239.0 178.0,229.0 180.0,226.0 180.0,221.0" fill="#485757" opacity="0.95" />
<polygon points="293.0,244.0 287.0,243.0 281.0,245.0 278.0,249.0 276.0,256.0 280.0,256.0 292.0,247.0" fill="#ddd9e3" opacity="0.95" />
<polygon points="174.0,150.0 171.0,152.0 171.0,162.0 174.0,171.0 177.0,173.0 180.0,171.0 180.0,159.0 177.0,156.0 177.0,152.0" fill="#485757" opacity="0.95" />
<polygon points="278.0,0.0 271.0,0.0 270.0,2.0 269.0,19.0 272.0,21.0 276.0,19.0 275.0,13.0" fill="#a8846f" opacity="0.95" />
<polygon points="267.0,60.0 264.0,62.0 264.0,66.0 265.0,67.0 265.0,72.0 268.0,74.0 271.0,72.0 271.0,67.0 270.0,66.0 270.0,62.0" fill="#d80333" opacity="0.95" />
<polygon points="277.0,94.0 274.0,96.0 274.0,98.0 277.0,100.0 280.0,98.0 280.0,96.0" fill="#ee605f" opacity="0.95" />
</svg>