<svg xmlns="http://www.w3.org/2000/svg" width="768" height="768" viewBox="0 0 384 384">
<rect width="384" height="384" fill="#8e655b"/>
<polygon points="172.0,64.0 86.0,71.0 0.0,128.0 0.0,383.0 120.0,383.0 51.0,316.0 27.0,230.0 127.0,135.0 180.0,120.0" fill="#8d604d" />
<polygon points="373.0,228.0 336.0,239.0 308.0,298.0 148.0,383.0 383.0,383.0" fill="#8d604d" />
<polygon points="195.0,115.0 122.0,168.0 192.0,238.0 263.0,186.0" fill="#79e0ec" />
<polygon points="0.0,122.0 127.0,58.0 175.0,66.0 177.0,114.0 194.0,5.0 250.0,14.0 249.0,0.0 2.0,8.0" fill="#67402f" />
<polygon points="364.0,99.0 323.0,227.0 156.0,366.0 185.0,281.0 122.0,335.0 127.0,383.0 308.0,297.0 348.0,228.0 383.0,247.0" fill="#67402f" />
<polygon points="357.0,60.0 318.0,184.0 199.0,275.0 194.0,336.0 322.0,227.0 370.0,80.0" fill="#8d604d" />
<polygon points="371.0,225.0 336.0,239.0 308.0,298.0 148.0,383.0 383.0,383.0" fill="#8d604d" opacity="0.95" />
<polygon points="172.0,64.0 97.0,67.0 0.0,128.0 0.0,383.0 120.0,383.0 51.0,316.0 27.0,229.0 127.0,135.0 140.0,152.0 144.0,127.0 179.0,122.0" fill="#8d604d" opacity="0.95" />
<polygon points="254.0,18.0 243.0,68.0 328.0,137.0 346.0,77.0 329.0,65.0 331.0,48.0" fill="#f82b4b" />
<polygon points="195.0,116.0 123.0,167.0 193.0,238.0 262.0,187.0" fill="#79e0ec" opacity="0.95" />
<polygon points="91.0,183.0 29.0,229.0 49.0,301.0 72.0,277.0 84.0,289.0 77.0,272.0 126.0,227.0" fill="#dcbca6" />
<polygon points="147.0,247.0 79.0,302.0 90.0,351.0 122.0,383.0 118.0,331.0 185.0,278.0" fill="#dcbca6" />
<polygon points="172.0,64.0 97.0,67.0 0.0,128.0 0.0,383.0 120.0,383.0 51.0,316.0 27.0,230.0 127.0,135.0 140.0,152.0 180.0,120.0" fill="#8d604d" opacity="0.95" />
<polygon points="0.0,11.0 4.0,124.0 65.0,79.0 127.0,58.0 172.0,63.0 181.0,89.0 200.0,0.0 23.0,0.0" fill="#67402f" opacity="0.95" />
<polygon points="373.0,228.0 336.0,239.0 308.0,298.0 151.0,383.0 383.0,383.0" fill="#8d604d" opacity="0.95" />
<polygon points="249.0,1.0 254.0,15.0 354.0,54.0 370.0,74.0 355.0,146.0 383.0,123.0 383.0,0.0" fill="#361e1d" />
<polygon points="244.0,71.0 210.0,97.0 250.0,126.0 282.0,173.0 320.0,142.0" fill="#657b7d" />
<polygon points="197.0,4.0 188.0,62.0 230.0,79.0 241.0,71.0 250.0,21.0" fill="#f1edeb" />
<polygon points="357.0,60.0 318.0,184.0 199.0,275.0 193.0,335.0 322.0,227.0 370.0,80.0" fill="#8d604d" opacity="0.95" />
<polygon points="195.0,116.0 124.0,166.0 193.0,238.0 262.0,186.0" fill="#79e0ec" opacity="0.95" />
<polygon points="383.0,124.0 349.0,141.0 323.0,227.0 185.0,346.0 184.0,283.0 127.0,328.0 127.0,383.0 308.0,297.0 348.0,228.0 383.0,244.0" fill="#67402f" opacity="0.95" />
<polygon points="0.0,12.0 4.0,124.0 65.0,79.0 127.0,58.0 170.0,62.0 182.0,83.0 199.0,0.0 23.0,0.0" fill="#67402f" opacity="0.95" />
<polygon points="90.0,184.0 30.0,236.0 45.0,297.0 72.0,279.0 87.0,290.0 92.0,353.0 125.0,383.0 118.0,330.0 184.0,277.0 143.0,247.0 88.0,288.0 77.0,272.0 126.0,227.0" fill="#dcbca6" opacity="0.95" />
<polygon points="383.0,124.0 346.0,151.0 323.0,227.0 200.0,334.0 183.0,284.0 127.0,328.0 127.0,383.0 308.0,297.0 348.0,228.0 383.0,243.0" fill="#67402f" opacity="0.95" />
<polygon points="357.0,60.0 318.0,184.0 199.0,275.0 194.0,334.0 322.0,227.0 370.0,80.0" fill="#8d604d" opacity="0.95" />
<polygon points="251.0,24.0 243.0,67.0 329.0,135.0 346.0,77.0 329.0,66.0 332.0,53.0 280.0,26.0" fill="#f82b4b" opacity="0.95" />
<polygon points="249.0,0.0 252.0,14.0 354.0,54.0 370.0,74.0 354.0,142.0 383.0,123.0 383.0,0.0" fill="#361e1d" opacity="0.95" />
<polygon points="196.0,107.0 260.0,178.0 276.0,172.0 211.0,102.0" fill="#67402f" />
<polygon points="244.0,71.0 211.0,97.0 250.0,126.0 284.0,171.0 319.0,140.0" fill="#657b7d" opacity="0.95" />
<polygon points="90.0,184.0 31.0,237.0 45.0,297.0 72.0,279.0 88.0,291.0 92.0,353.0 123.0,383.0 118.0,330.0 184.0,277.0 143.0,247.0 89.0,288.0 77.0,272.0 126.0,227.0" fill="#dcbca6" opacity="0.95" />
<polygon points="286.0,172.0 251.0,197.0 235.0,242.0 286.0,202.0" fill="#701920" />
<polygon points="252.0,24.0 244.0,65.0 329.0,135.0 346.0,77.0 329.0,65.0 331.0,53.0" fill="#f82b4b" opacity="0.95" />
<polygon points="228.0,81.0 188.0,64.0 181.0,114.0" fill="#f82b4b" />
<polygon points="198.0,4.0 188.0,62.0 230.0,79.0 241.0,71.0 250.0,20.0" fill="#f1edeb" opacity="0.95" />
<polygon points="145.0,238.0 132.0,226.0 78.0,274.0 91.0,283.0" fill="#f3b07f" />
<polygon points="249.0,0.0 254.0,15.0 354.0,54.0 372.0,77.0 355.0,138.0 383.0,123.0 383.0,0.0" fill="#361e1d" opacity="0.95" />
<polygon points="244.0,71.0 213.0,97.0 250.0,126.0 284.0,171.0 319.0,140.0" fill="#657b7d" opacity="0.95" />
<polygon points="199.0,4.0 188.0,61.0 230.0,79.0 241.0,71.0 250.0,21.0" fill="#f1edeb" opacity="0.95" />
<polygon points="322.0,142.0 287.0,170.0 287.0,197.0 314.0,179.0 325.0,147.0" fill="#361e1d" />
<polygon points="249.0,198.0 201.0,234.0 204.0,238.0 212.0,231.0 216.0,240.0 204.0,269.0 235.0,244.0" fill="#361e1d" />
<polygon points="139.0,131.0 127.0,136.0 93.0,177.0 72.0,185.0 93.0,181.0 107.0,187.0 118.0,179.0 120.0,168.0 136.0,153.0" fill="#f82b4b" />
<polygon points="210.0,98.0 279.0,176.0 276.0,160.0 249.0,126.0 219.0,100.0" fill="#546163" />
<polygon points="140.0,223.0 188.0,280.0 188.0,336.0 156.0,365.0 191.0,339.0 195.0,271.0" fill="#361e1d" />
<polygon points="72.0,279.0 53.0,300.0 50.0,312.0 76.0,338.0 76.0,327.0 70.0,314.0 83.0,291.0" fill="#f82b4b" />
<polygon points="196.0,106.0 218.0,136.0 259.0,177.0 275.0,173.0 214.0,105.0" fill="#67402f" opacity="0.95" />
<polygon points="287.0,174.0 251.0,197.0 234.0,241.0 285.0,203.0" fill="#701920" opacity="0.95" />
<polygon points="227.0,80.0 187.0,66.0 181.0,113.0" fill="#f82b4b" opacity="0.95" />
<polygon points="144.0,237.0 129.0,228.0 78.0,275.0 92.0,282.0" fill="#f3b07f" opacity="0.95" />
<polygon points="132.0,185.0 128.0,199.0 135.0,211.0 194.0,250.0 195.0,242.0 189.0,245.0 138.0,198.0" fill="#b3102c" />
<polygon points="285.0,175.0 251.0,197.0 235.0,241.0 285.0,203.0" fill="#701920" opacity="0.95" />
<polygon points="324.0,144.0 288.0,169.0 285.0,195.0 314.0,179.0" fill="#361e1d" opacity="0.95" />
<polygon points="196.0,107.0 259.0,177.0 274.0,172.0 214.0,105.0 201.0,103.0" fill="#67402f" opacity="0.95" />
<polygon points="128.0,204.0 126.0,216.0 134.0,224.0 143.0,223.0 196.0,266.0 196.0,252.0 212.0,232.0 197.0,237.0 193.0,251.0" fill="#701920" />
<polygon points="123.0,175.0 111.0,186.0 102.0,191.0 113.0,204.0 130.0,188.0 130.0,183.0" fill="#8d604d" />
<polygon points="245.0,70.0 287.0,113.0 313.0,133.0 254.0,71.0" fill="#546163" />
<polygon points="226.0,80.0 188.0,66.0 181.0,112.0 189.0,111.0" fill="#f82b4b" opacity="0.95" />
<polygon points="144.0,237.0 129.0,228.0 78.0,274.0 86.0,282.0 92.0,282.0" fill="#f3b07f" opacity="0.95" />
<polygon points="248.0,201.0 202.0,233.0 204.0,237.0 211.0,231.0 216.0,240.0 206.0,265.0 234.0,245.0" fill="#361e1d" opacity="0.95" />
<polygon points="212.0,100.0 279.0,170.0 249.0,126.0 220.0,101.0" fill="#546163" opacity="0.95" />
<polygon points="139.0,131.0 122.0,140.0 94.0,176.0 80.0,178.0 73.0,186.0 93.0,181.0 107.0,187.0 118.0,179.0 120.0,168.0 136.0,153.0" fill="#f82b4b" opacity="0.95" />
<polygon points="141.0,223.0 187.0,279.0 189.0,336.0 175.0,352.0 191.0,339.0 195.0,270.0" fill="#361e1d" opacity="0.95" />
<polygon points="72.0,280.0 53.0,300.0 50.0,312.0 75.0,336.0 76.0,327.0 70.0,314.0 82.0,290.0" fill="#f82b4b" opacity="0.95" />
<polygon points="323.0,145.0 288.0,169.0 286.0,195.0 314.0,179.0" fill="#361e1d" opacity="0.95" />
<polygon points="335.0,52.0 330.0,65.0 347.0,73.0 351.0,60.0" fill="#f1edeb" />
<polygon points="130.0,189.0 129.0,201.0 144.0,220.0 195.0,249.0 195.0,243.0 186.0,243.0" fill="#b3102c" opacity="0.95" />
<polygon points="151.0,229.0 163.0,245.0 196.0,266.0 196.0,252.0" fill="#701920" opacity="0.95" />
<polygon points="200.0,3.0 249.0,19.0 253.0,17.0" fill="#dcbca6" />
<polygon points="215.0,101.0 250.0,144.0 276.0,166.0 272.0,154.0 249.0,126.0 220.0,101.0" fill="#546163" opacity="0.95" />
<polygon points="145.0,128.0 149.0,132.0 162.0,137.0 172.0,130.0 155.0,126.0" fill="#b3102c" />
<polygon points="127.0,194.0 114.0,204.0 125.0,215.0 128.0,200.0" fill="#67402f" />
<polygon points="130.0,191.0 129.0,201.0 135.0,211.0 154.0,228.0 178.0,240.0 179.0,237.0 138.0,198.0 136.0,192.0" fill="#b3102c" opacity="0.95" />
<polygon points="246.0,69.0 287.0,113.0 297.0,118.0 254.0,71.0" fill="#546163" opacity="0.95" />
<polygon points="333.0,54.0 330.0,66.0 345.0,73.0 348.0,72.0 351.0,59.0 337.0,53.0" fill="#f1edeb" opacity="0.95" />
<polygon points="138.0,247.0 147.0,246.0 161.0,254.0 162.0,253.0 149.0,239.0" fill="#b8927b" />
<polygon points="155.0,234.0 163.0,245.0 177.0,252.0 191.0,265.0 196.0,264.0 194.0,251.0 159.0,232.0" fill="#701920" opacity="0.95" />
<polygon points="86.0,186.0 82.0,185.0 75.0,188.0 72.0,187.0 70.0,196.0 71.0,197.0" fill="#b3102c" />
<polygon points="78.0,325.0 77.0,326.0 78.0,334.0 85.0,344.0 86.0,342.0 83.0,327.0 81.0,325.0" fill="#0f6082" />
<polygon points="334.0,54.0 331.0,66.0 345.0,73.0 347.0,72.0 350.0,60.0 337.0,53.0" fill="#f1edeb" opacity="0.95" />
<polygon points="335.0,49.0 336.0,52.0 352.0,59.0 355.0,57.0 336.0,48.0" fill="#dcbca6" />
<polygon points="147.0,128.0 149.0,132.0 162.0,137.0 170.0,132.0 170.0,130.0 161.0,127.0 151.0,126.0" fill="#b3102c" opacity="0.95" />
<polygon points="308.0,125.0 307.0,126.0 325.0,144.0 327.0,142.0" fill="#701920" />
<polygon points="127.0,208.0 127.0,217.0 132.0,222.0 139.0,223.0 142.0,221.0 139.0,215.0 130.0,207.0" fill="#701920" opacity="0.95" />
<polygon points="148.0,128.0 149.0,132.0 162.0,137.0 169.0,132.0 168.0,129.0 151.0,126.0" fill="#b3102c" opacity="0.95" />
<polygon points="213.0,237.0 210.0,238.0 203.0,245.0 201.0,245.0 197.0,253.0 198.0,254.0 209.0,242.0 214.0,240.0" fill="#b3102c" />
<polygon points="143.0,243.0 143.0,245.0 156.0,251.0 158.0,250.0 158.0,248.0 148.0,239.0" fill="#b8927b" opacity="0.95" />
<polygon points="128.0,208.0 127.0,217.0 134.0,223.0 141.0,222.0 142.0,219.0 132.0,208.0 130.0,207.0" fill="#701920" opacity="0.95" />
<polygon points="128.0,176.0 127.0,177.0 128.0,179.0 139.0,188.0 140.0,187.0 129.0,176.0" fill="#546163" />
<polygon points="191.0,115.0 190.0,113.0 188.0,112.0 182.0,117.0 185.0,119.0 187.0,119.0 189.0,118.0" fill="#b3102c" />
<polygon points="79.0,325.0 77.0,326.0 78.0,334.0 81.0,339.0 83.0,340.0 85.0,339.0 83.0,326.0" fill="#0f6082" opacity="0.95" />
<polygon points="336.0,50.0 336.0,52.0 352.0,59.0 354.0,58.0 354.0,56.0 338.0,49.0" fill="#dcbca6" opacity="0.95" />
<polygon points="82.0,187.0 80.0,186.0 75.0,188.0 73.0,187.0 71.0,188.0 70.0,195.0 72.0,196.0 81.0,190.0" fill="#b3102c" opacity="0.95" />
<polygon points="127.0,219.0 126.0,220.0 126.0,223.0 127.0,224.0 127.0,227.0 126.0,228.0 127.0,229.0 132.0,225.0 132.0,224.0" fill="#b8927b" />
<polygon points="201.0,102.0 205.0,104.0 208.0,104.0 209.0,103.0 209.0,101.0 206.0,99.0 205.0,99.0" fill="#701920" />
<polygon points="144.0,242.0 144.0,244.0 146.0,246.0 152.0,249.0 155.0,247.0 155.0,245.0 148.0,239.0" fill="#b8927b" opacity="0.95" />
<polygon points="316.0,183.0 314.0,182.0 305.0,190.0 302.0,191.0 302.0,193.0 304.0,194.0 306.0,193.0 308.0,190.0 313.0,188.0 316.0,185.0" fill="#b8927b" opacity="0.95" />
<polygon points="279.0,98.0 276.0,100.0 276.0,102.0 282.0,107.0 285.0,105.0 285.0,103.0" fill="#546163" opacity="0.95" />
<polygon points="86.0,294.0 85.0,295.0 85.0,298.0 82.0,301.0 84.0,303.0 87.0,299.0 86.0,298.0 87.0,297.0 87.0,295.0" fill="#b8927b" />
<polygon points="80.0,325.0 77.0,327.0 77.0,329.0 78.0,330.0 78.0,334.0 81.0,336.0 84.0,334.0 84.0,330.0 83.0,327.0" fill="#0f6082" opacity="0.95" />
<polygon points="242.0,14.0 242.0,16.0 244.0,17.0 246.0,17.0 249.0,19.0 251.0,18.0 251.0,16.0 247.0,14.0 245.0,14.0 244.0,13.0" fill="#dcbca6" opacity="0.95" />
<polygon points="215.0,6.0 215.0,8.0 217.0,9.0 219.0,8.0 224.0,11.0 226.0,10.0 226.0,8.0 224.0,7.0 222.0,8.0 217.0,5.0" fill="#dcbca6" opacity="0.95" />
</svg>