<svg xmlns="http://www.w3.org/2000/svg" width="768" height="768" viewBox="0 0 384 384">
<rect width="384" height="384" fill="#856353"/>
<polygon points="0.0,0.0 0.0,381.0 174.0,383.0 131.0,333.0 136.0,91.0 189.0,143.0 249.0,93.0 353.0,353.0 252.0,326.0 301.0,383.0 383.0,364.0 383.0,0.0" fill="#8a5845" />
<polygon points="0.0,0.0 0.0,381.0 174.0,383.0 137.0,91.0 189.0,143.0 249.0,93.0 352.0,353.0 252.0,327.0 301.0,383.0 383.0,365.0 383.0,0.0" fill="#8a5845" opacity="0.95" />
<polygon points="0.0,0.0 0.0,381.0 174.0,383.0 131.0,332.0 137.0,91.0 189.0,143.0 249.0,93.0 352.0,352.0 252.0,326.0 301.0,383.0 383.0,365.0 383.0,0.0" fill="#8a5845" opacity="0.95" />
<polygon points="191.0,243.0 186.0,282.0 135.0,333.0 175.0,383.0 300.0,383.0 245.0,330.0" fill="#623d2f" />
<polygon points="240.0,120.0 207.0,164.0 249.0,140.0 265.0,193.0 209.0,216.0 255.0,312.0 349.0,357.0 332.0,267.0 288.0,222.0 328.0,235.0 334.0,216.0" fill="#623d2f" />
<polygon points="240.0,120.0 207.0,162.0 250.0,141.0 264.0,194.0 209.0,216.0 253.0,310.0 349.0,357.0 332.0,267.0 288.0,222.0 334.0,216.0" fill="#623d2f" opacity="0.95" />
<polygon points="189.0,247.0 186.0,282.0 136.0,331.0 175.0,383.0 300.0,383.0 245.0,330.0" fill="#623d2f" opacity="0.95" />
<polygon points="246.0,142.0 192.0,176.0 196.0,197.0 208.0,201.0 210.0,209.0 242.0,205.0 263.0,193.0" fill="#7ddfe8" />
<polygon points="240.0,120.0 207.0,160.0 249.0,141.0 264.0,194.0 209.0,216.0 255.0,312.0 348.0,357.0 332.0,267.0 289.0,222.0 334.0,216.0" fill="#623d2f" opacity="0.95" />
<polygon points="184.0,211.0 202.0,265.0 243.0,317.0 248.0,284.0 220.0,238.0" fill="#7ddfe8" />
<polygon points="189.0,249.0 186.0,282.0 136.0,331.0 175.0,383.0 300.0,383.0 245.0,330.0" fill="#623d2f" opacity="0.95" />
<polygon points="143.0,145.0 126.0,198.0 170.0,210.0 176.0,205.0 172.0,188.0 179.0,172.0" fill="#7ddfe8" />
<polygon points="247.0,143.0 193.0,174.0 196.0,197.0 210.0,209.0 232.0,208.0 262.0,194.0" fill="#7ddfe8" opacity="0.95" />
<polygon points="176.0,270.0 158.0,267.0 147.0,279.0 146.0,268.0 132.0,290.0 133.0,333.0" fill="#c3f4f1" />
<polygon points="120.0,197.0 158.0,245.0 174.0,211.0 150.0,209.0" fill="#623d2f" />
<polygon points="184.0,212.0 206.0,272.0 244.0,316.0 248.0,284.0 220.0,238.0" fill="#7ddfe8" opacity="0.95" />
<polygon points="143.0,146.0 126.0,198.0 170.0,210.0 175.0,206.0 178.0,170.0" fill="#7ddfe8" opacity="0.95" />
<polygon points="247.0,143.0 193.0,175.0 196.0,197.0 210.0,209.0 232.0,208.0 262.0,194.0" fill="#7ddfe8" opacity="0.95" />
<polygon points="233.0,97.0 200.0,135.0 196.0,151.0 205.0,166.0 213.0,139.0 241.0,118.0" fill="#c3f4f1" />
<polygon points="125.0,119.0 127.0,129.0 138.0,141.0 174.0,162.0 171.0,145.0 158.0,127.0 138.0,117.0" fill="#623d2f" />
<polygon points="185.0,212.0 202.0,265.0 244.0,316.0 248.0,284.0 220.0,238.0" fill="#7ddfe8" opacity="0.95" />
<polygon points="144.0,146.0 126.0,198.0 170.0,210.0 175.0,206.0 173.0,182.0 178.0,170.0" fill="#7ddfe8" opacity="0.95" />
<polygon points="186.0,252.0 161.0,244.0 148.0,266.0 147.0,275.0 158.0,266.0 177.0,270.0" fill="#7ddfe8" />
<polygon points="171.0,222.0 161.0,243.0 186.0,250.0 191.0,240.0 189.0,235.0" fill="#34a3b9" />
<polygon points="177.0,271.0 159.0,267.0 137.0,282.0 132.0,290.0 132.0,330.0 140.0,325.0" fill="#c3f4f1" opacity="0.95" />
<polygon points="121.0,199.0 150.0,237.0 160.0,242.0 173.0,211.0 154.0,210.0" fill="#623d2f" opacity="0.95" />
<polygon points="177.0,128.0 173.0,149.0 179.0,170.0 189.0,149.0" fill="#34a3b9" />
<polygon points="180.0,174.0 177.0,180.0 177.0,202.0 199.0,203.0 191.0,185.0 192.0,177.0 189.0,174.0" fill="#c3f4f1" />
<polygon points="232.0,98.0 200.0,135.0 196.0,151.0 203.0,162.0 213.0,139.0 240.0,119.0" fill="#c3f4f1" opacity="0.95" />
<polygon points="125.0,119.0 127.0,129.0 138.0,141.0 174.0,161.0 171.0,145.0 158.0,127.0 138.0,117.0" fill="#623d2f" opacity="0.95" />
<polygon points="174.0,270.0 159.0,267.0 135.0,285.0 133.0,328.0 140.0,325.0 176.0,275.0" fill="#c3f4f1" opacity="0.95" />
<polygon points="205.0,167.0 196.0,153.0 191.0,152.0 180.0,171.0 201.0,172.0" fill="#156696" />
<polygon points="140.0,143.0 117.0,194.0 122.0,197.0" fill="#c3f4f1" />
<polygon points="182.0,205.0 208.0,230.0 218.0,234.0 204.0,208.0 208.0,203.0 204.0,207.0 201.0,204.0" fill="#34a3b9" />
<polygon points="144.0,94.0 132.0,114.0 149.0,120.0 147.0,101.0 149.0,96.0" fill="#c3f4f1" />
<polygon points="231.0,99.0 200.0,135.0 196.0,151.0 202.0,160.0 213.0,139.0 239.0,119.0" fill="#c3f4f1" opacity="0.95" />
<polygon points="170.0,223.0 162.0,243.0 188.0,248.0 189.0,234.0 178.0,225.0" fill="#34a3b9" opacity="0.95" />
<polygon points="179.0,271.0 163.0,297.0 168.0,296.0 185.0,282.0 186.0,279.0" fill="#8a5845" />
<polygon points="176.0,211.0 171.0,220.0 186.0,231.0 182.0,212.0" fill="#156696" />
<polygon points="179.0,175.0 177.0,180.0 177.0,202.0 197.0,202.0 192.0,187.0 192.0,177.0 188.0,174.0" fill="#c3f4f1" opacity="0.95" />
<polygon points="178.0,131.0 174.0,153.0 176.0,166.0 180.0,168.0 189.0,149.0" fill="#34a3b9" opacity="0.95" />
<polygon points="182.0,205.0 183.0,209.0 191.0,211.0 208.0,230.0 216.0,232.0 202.0,205.0" fill="#34a3b9" opacity="0.95" />
<polygon points="170.0,224.0 162.0,242.0 187.0,248.0 190.0,242.0 189.0,235.0 178.0,225.0" fill="#34a3b9" opacity="0.95" />
<polygon points="196.0,153.0 192.0,152.0 189.0,154.0 182.0,171.0 200.0,172.0 204.0,169.0" fill="#156696" opacity="0.95" />
<polygon points="182.0,206.0 183.0,209.0 191.0,211.0 208.0,230.0 212.0,232.0 215.0,230.0 202.0,205.0" fill="#34a3b9" opacity="0.95" />
<polygon points="244.0,92.0 253.0,115.0 256.0,116.0 249.0,96.0" fill="#34a3b9" />
<polygon points="179.0,133.0 176.0,135.0 174.0,147.0 176.0,166.0 179.0,168.0 189.0,153.0 188.0,146.0" fill="#34a3b9" opacity="0.95" />
<polygon points="192.0,152.0 186.0,159.0 182.0,170.0 185.0,172.0 200.0,172.0 204.0,169.0 204.0,166.0 197.0,155.0" fill="#156696" opacity="0.95" />
<polygon points="182.0,274.0 177.0,274.0 165.0,292.0 165.0,295.0 169.0,295.0 185.0,282.0 185.0,278.0" fill="#8a5845" opacity="0.95" />
<polygon points="177.0,211.0 175.0,212.0 172.0,221.0 184.0,229.0 186.0,226.0 182.0,212.0" fill="#156696" opacity="0.95" />
<polygon points="180.0,273.0 176.0,276.0 167.0,290.0 168.0,293.0 172.0,293.0 185.0,282.0 185.0,278.0" fill="#8a5845" opacity="0.95" />
<polygon points="178.0,211.0 174.0,214.0 172.0,221.0 182.0,227.0 185.0,225.0 182.0,213.0" fill="#156696" opacity="0.95" />
<polygon points="178.0,204.0 176.0,207.0 176.0,209.0 177.0,210.0 180.0,210.0 181.0,209.0 181.0,205.0 180.0,204.0" fill="#264c60" />
<polygon points="179.0,204.0 177.0,205.0 176.0,207.0 176.0,209.0 178.0,210.0 181.0,209.0 181.0,205.0" fill="#264c60" opacity="0.95" />
</svg>