<svg xmlns="http://www.w3.org/2000/svg" width="768" height="768" viewBox="0 0 384 384">
<rect width="384" height="384" fill="#8b6b5f"/>
<polygon points="383.0,122.0 187.0,245.0 194.0,289.0 91.0,357.0 119.0,348.0 96.0,383.0 383.0,383.0" fill="#6e5042" />
<polygon points="383.0,122.0 222.0,241.0 185.0,246.0 194.0,289.0 115.0,343.0 96.0,383.0 383.0,383.0" fill="#6e5042" opacity="0.95" />
<polygon points="147.0,200.0 121.0,212.0 81.0,194.0 0.0,255.0 93.0,357.0 184.0,279.0 162.0,247.0 173.0,227.0" fill="#d7b49b" />
<polygon points="250.0,77.0 231.0,80.0 126.0,166.0 127.0,180.0 185.0,227.0 209.0,226.0 312.0,146.0 311.0,130.0" fill="#84bcc8" />
<polygon points="11.0,0.0 0.0,254.0 81.0,193.0 134.0,208.0 126.0,164.0 186.0,116.0 157.0,111.0 151.0,133.0 73.0,57.0 53.0,66.0 58.0,36.0 42.0,46.0" fill="#8e6d5c" />
<polygon points="12.0,0.0 59.0,36.0 53.0,65.0 73.0,56.0 151.0,132.0 202.0,102.0 167.0,51.0 219.0,11.0 326.0,34.0 383.0,76.0 383.0,0.0" fill="#6e5042" />
<polygon points="383.0,122.0 222.0,241.0 187.0,245.0 194.0,289.0 120.0,339.0 96.0,383.0 383.0,383.0" fill="#6e5042" opacity="0.95" />
<polygon points="168.0,51.0 204.0,102.0 251.0,76.0 315.0,137.0 366.0,99.0 372.0,78.0 357.0,62.0 330.0,70.0 342.0,48.0 326.0,35.0 220.0,12.0" fill="#e45c54" />
<polygon points="147.0,201.0 121.0,212.0 84.0,193.0 0.0,255.0 94.0,357.0 184.0,279.0 162.0,247.0 172.0,226.0" fill="#d7b49b" opacity="0.95" />
<polygon points="250.0,77.0 231.0,80.0 126.0,166.0 127.0,180.0 185.0,227.0 209.0,226.0 312.0,146.0 311.0,130.0" fill="#84bcc8" opacity="0.95" />
<polygon points="0.0,273.0 0.0,383.0 102.0,378.0 118.0,348.0 94.0,363.0" fill="#8e6d5c" />
<polygon points="11.0,0.0 0.0,254.0 84.0,192.0 134.0,208.0 124.0,168.0 176.0,124.0 157.0,112.0 152.0,133.0 75.0,60.0 52.0,65.0 58.0,36.0" fill="#8e6d5c" opacity="0.95" />
<polygon points="12.0,0.0 59.0,36.0 52.0,64.0 152.0,132.0 201.0,103.0 167.0,51.0 219.0,11.0 383.0,76.0 383.0,0.0" fill="#6e5042" opacity="0.95" />
<polygon points="147.0,201.0 121.0,212.0 84.0,193.0 0.0,255.0 94.0,357.0 184.0,279.0 162.0,247.0 172.0,226.0" fill="#d7b49b" opacity="0.95" />
<polygon points="250.0,77.0 231.0,80.0 126.0,166.0 127.0,180.0 185.0,227.0 209.0,226.0 312.0,146.0 311.0,130.0" fill="#84bcc8" opacity="0.95" />
<polygon points="11.0,0.0 0.0,254.0 84.0,192.0 134.0,208.0 124.0,168.0 171.0,128.0 157.0,112.0 150.0,132.0 73.0,59.0 53.0,65.0 58.0,37.0" fill="#8e6d5c" opacity="0.95" />
<polygon points="168.0,51.0 201.0,100.0 251.0,76.0 316.0,136.0 366.0,99.0 372.0,78.0 356.0,62.0 330.0,70.0 341.0,47.0 326.0,35.0 220.0,12.0" fill="#e45c54" opacity="0.95" />
<polygon points="12.0,0.0 59.0,37.0 53.0,64.0 152.0,132.0 201.0,103.0 167.0,51.0 219.0,11.0 326.0,34.0 383.0,76.0 383.0,0.0" fill="#6e5042" opacity="0.95" />
<polygon points="0.0,273.0 0.0,383.0 103.0,377.0 117.0,350.0 93.0,362.0" fill="#8e6d5c" opacity="0.95" />
<polygon points="168.0,51.0 201.0,100.0 251.0,76.0 317.0,136.0 366.0,99.0 372.0,78.0 356.0,62.0 330.0,70.0 341.0,47.0 326.0,35.0 220.0,12.0" fill="#e45c54" opacity="0.95" />
<polygon points="375.0,82.0 208.0,228.0 158.0,205.0 175.0,228.0 167.0,252.0 314.0,166.0 374.0,106.0" fill="#0d0908" />
<polygon points="383.0,77.0 356.0,59.0 375.0,106.0 172.0,256.0 323.0,173.0 383.0,121.0" fill="#32241f" />
<polygon points="0.0,273.0 0.0,383.0 95.0,383.0 116.0,362.0 115.0,350.0 93.0,362.0" fill="#8e6d5c" opacity="0.95" />
<polygon points="376.0,84.0 208.0,228.0 170.0,219.0 167.0,252.0 314.0,166.0" fill="#0d0908" opacity="0.95" />
<polygon points="376.0,87.0 208.0,228.0 173.0,222.0 167.0,252.0 314.0,166.0" fill="#0d0908" opacity="0.95" />
<polygon points="383.0,77.0 361.0,62.0 375.0,106.0 174.0,254.0 328.0,169.0 383.0,121.0" fill="#32241f" opacity="0.95" />
<polygon points="372.0,66.0 375.0,106.0 210.0,243.0 383.0,121.0" fill="#32241f" opacity="0.95" />
<polygon points="116.0,262.0 114.0,276.0 87.0,295.0 60.0,300.0 46.0,292.0 77.0,290.0 101.0,275.0 113.0,258.0" fill="#d7b49b" />
<polygon points="263.0,108.0 271.0,114.0 271.0,123.0 259.0,130.0 250.0,128.0 246.0,122.0 247.0,116.0 253.0,110.0" fill="#84bcc8" />
<polygon points="148.0,210.0 151.0,210.0 161.0,223.0 151.0,234.0 146.0,233.0 136.0,224.0 141.0,216.0" fill="#d7b49b" />
<polygon points="5.0,277.0 67.0,339.0 87.0,352.0" fill="#6e5042" />
<polygon points="343.0,49.0 331.0,59.0 332.0,64.0 340.0,70.0 355.0,58.0" fill="#eee5da" />
<polygon points="116.0,264.0 114.0,276.0 87.0,295.0 71.0,300.0 50.0,296.0 77.0,290.0 111.0,263.0" fill="#d7b49b" opacity="0.95" />
<polygon points="263.0,108.0 271.0,114.0 271.0,123.0 259.0,130.0 250.0,128.0 246.0,122.0 247.0,116.0 253.0,110.0" fill="#84bcc8" opacity="0.95" />
<polygon points="148.0,210.0 152.0,211.0 160.0,220.0 160.0,224.0 150.0,234.0 137.0,226.0 138.0,220.0" fill="#d7b49b" opacity="0.95" />
<polygon points="248.0,118.0 248.0,123.0 251.0,127.0 260.0,123.0 268.0,124.0 271.0,119.0 269.0,113.0 264.0,110.0 256.0,110.0 252.0,112.0" fill="#0d0908" />
<polygon points="116.0,267.0 114.0,276.0 91.0,293.0 71.0,300.0 63.0,297.0 92.0,282.0 110.0,265.0" fill="#d7b49b" opacity="0.95" />
<polygon points="263.0,108.0 271.0,114.0 271.0,123.0 259.0,130.0 250.0,128.0 246.0,122.0 247.0,116.0 253.0,110.0" fill="#84bcc8" opacity="0.95" />
<polygon points="111.0,268.0 85.0,288.0 64.0,295.0 76.0,295.0 93.0,287.0 107.0,276.0" fill="#0d0908" />
<polygon points="151.0,209.0 160.0,220.0 160.0,224.0 152.0,233.0 148.0,234.0 137.0,226.0 137.0,222.0 146.0,211.0" fill="#d7b49b" opacity="0.95" />
<polygon points="149.0,214.0 146.0,215.0 140.0,223.0 140.0,226.0 147.0,232.0 153.0,219.0 152.0,216.0" fill="#0d0908" />
<polygon points="343.0,49.0 331.0,59.0 332.0,64.0 339.0,69.0 354.0,59.0 350.0,53.0" fill="#eee5da" opacity="0.95" />
<polygon points="188.0,272.0 186.0,273.0 188.0,286.0 183.0,292.0 177.0,295.0 177.0,297.0 187.0,294.0 193.0,289.0 194.0,280.0" fill="#32241f" />
<polygon points="248.0,118.0 248.0,123.0 252.0,127.0 260.0,123.0 270.0,122.0 270.0,115.0 264.0,110.0 256.0,110.0 252.0,112.0" fill="#0d0908" opacity="0.95" />
<polygon points="186.0,280.0 181.0,287.0 169.0,298.0 170.0,299.0 186.0,288.0" fill="#0d0908" />
<polygon points="248.0,118.0 248.0,123.0 252.0,127.0 270.0,121.0 269.0,113.0 264.0,110.0 256.0,110.0 252.0,112.0" fill="#0d0908" opacity="0.95" />
<polygon points="129.0,183.0 127.0,185.0 128.0,194.0 132.0,198.0 141.0,202.0 143.0,200.0 135.0,196.0 131.0,192.0" fill="#6e5042" />
<polygon points="354.0,57.0 343.0,49.0 332.0,57.0 331.0,62.0 334.0,64.0 340.0,61.0 347.0,64.0 353.0,60.0" fill="#eee5da" opacity="0.95" />
<polygon points="149.0,214.0 146.0,215.0 140.0,223.0 140.0,226.0 145.0,230.0 149.0,229.0 152.0,222.0 152.0,216.0" fill="#0d0908" opacity="0.95" />
<polygon points="188.0,273.0 186.0,274.0 188.0,286.0 182.0,292.0 184.0,295.0 190.0,292.0 194.0,286.0 193.0,277.0" fill="#32241f" opacity="0.95" />
<polygon points="132.0,186.0 131.0,187.0 132.0,192.0 135.0,195.0 140.0,197.0 141.0,196.0 136.0,191.0 136.0,189.0" fill="#32241f" />
<polygon points="152.0,224.0 149.0,230.0 149.0,232.0 150.0,233.0 151.0,233.0 155.0,228.0" fill="#32241f" />
<polygon points="255.0,127.0 256.0,128.0 262.0,128.0 267.0,125.0 266.0,124.0 260.0,124.0 259.0,125.0 257.0,125.0" fill="#32241f" />
<polygon points="190.0,275.0 187.0,277.0 188.0,281.0 187.0,289.0 190.0,291.0 193.0,289.0 194.0,286.0 193.0,277.0" fill="#32241f" opacity="0.95" />
<polygon points="193.0,239.0 186.0,236.0 182.0,239.0 181.0,244.0 184.0,246.0 192.0,242.0" fill="#32241f" opacity="0.95" />
<polygon points="65.0,335.0 65.0,337.0 74.0,344.0 76.0,343.0 76.0,340.0 72.0,338.0 67.0,334.0" fill="#6e5042" opacity="0.95" />
<polygon points="156.0,220.0 154.0,222.0 154.0,225.0 156.0,227.0 158.0,225.0 158.0,224.0 157.0,223.0 158.0,222.0" fill="#6e5042" />
</svg>