<svg xmlns="http://www.w3.org/2000/svg" width="768" height="768" viewBox="0 0 384 384">
<rect width="384" height="384" fill="#946455"/>
<polygon points="357.0,102.0 204.0,61.0 29.0,99.0 0.0,270.0 170.0,383.0 124.0,165.0 147.0,110.0 222.0,106.0 268.0,203.0 207.0,271.0 216.0,383.0 284.0,370.0 383.0,269.0" fill="#b56c54" />
<polygon points="357.0,102.0 204.0,61.0 29.0,99.0 0.0,271.0 170.0,383.0 124.0,165.0 147.0,110.0 222.0,106.0 268.0,203.0 207.0,271.0 216.0,383.0 284.0,370.0 383.0,269.0" fill="#b56c54" opacity="0.95" />
<polygon points="0.0,40.0 0.0,130.0 71.0,82.0 201.0,59.0 355.0,100.0 383.0,132.0 383.0,50.0 334.0,9.0 105.0,0.0" fill="#925143" />
<polygon points="357.0,102.0 204.0,61.0 29.0,99.0 0.0,271.0 170.0,383.0 124.0,165.0 147.0,110.0 222.0,106.0 268.0,203.0 207.0,271.0 216.0,383.0 284.0,370.0 383.0,270.0" fill="#b56c54" opacity="0.95" />
<polygon points="0.0,40.0 0.0,130.0 29.0,98.0 201.0,59.0 355.0,100.0 383.0,132.0 383.0,50.0 334.0,9.0 104.0,0.0" fill="#925143" opacity="0.95" />
<polygon points="263.0,153.0 251.0,134.0 202.0,140.0 195.0,163.0 130.0,164.0 126.0,177.0 182.0,230.0 201.0,230.0 252.0,193.0" fill="#4cebee" />
<polygon points="0.0,39.0 0.0,130.0 29.0,98.0 201.0,59.0 355.0,100.0 383.0,132.0 383.0,50.0 334.0,9.0 100.0,0.0" fill="#925143" opacity="0.95" />
<polygon points="0.0,271.0 0.0,360.0 24.0,383.0 132.0,383.0 53.0,342.0" fill="#925143" />
<polygon points="383.0,270.0 333.0,338.0 255.0,383.0 355.0,383.0 383.0,356.0" fill="#925143" />
<polygon points="263.0,153.0 249.0,134.0 215.0,135.0 194.0,163.0 131.0,164.0 126.0,177.0 181.0,229.0 200.0,230.0 252.0,193.0" fill="#4cebee" opacity="0.95" />
<polygon points="130.0,189.0 147.0,227.0 176.0,242.0 183.0,236.0 177.0,383.0 206.0,383.0 198.0,234.0 182.0,234.0" fill="#111127" />
<polygon points="263.0,153.0 249.0,134.0 202.0,140.0 194.0,163.0 131.0,164.0 126.0,177.0 181.0,229.0 200.0,230.0 252.0,193.0" fill="#4cebee" opacity="0.95" />
<polygon points="0.0,272.0 0.0,360.0 24.0,383.0 131.0,383.0 53.0,342.0" fill="#925143" opacity="0.95" />
<polygon points="383.0,270.0 333.0,338.0 255.0,383.0 356.0,383.0 383.0,357.0" fill="#925143" opacity="0.95" />
<polygon points="140.0,122.0 196.0,127.0 199.0,148.0 215.0,134.0 251.0,133.0 263.0,150.0 242.0,118.0 214.0,105.0 162.0,106.0" fill="#79e5e7" />
<polygon points="259.0,189.0 200.0,235.0 128.0,194.0 147.0,227.0 182.0,241.0 177.0,383.0 203.0,383.0 198.0,238.0 243.0,225.0" fill="#111127" opacity="0.95" />
<polygon points="0.0,272.0 0.0,361.0 24.0,383.0 130.0,383.0 53.0,342.0" fill="#925143" opacity="0.95" />
<polygon points="291.0,0.0 346.0,14.0 366.0,27.0 383.0,49.0 383.0,0.0" fill="#4e2f33" />
<polygon points="383.0,271.0 333.0,338.0 256.0,383.0 356.0,383.0 383.0,357.0" fill="#925143" opacity="0.95" />
<polygon points="141.0,130.0 141.0,146.0 144.0,149.0 184.0,149.0 196.0,152.0 195.0,129.0" fill="#111127" />
<polygon points="0.0,39.0 14.0,24.0 42.0,9.0 104.0,0.0 0.0,0.0" fill="#4e2f33" />
<polygon points="258.0,187.0 238.0,208.0 208.0,221.0 202.0,234.0 206.0,243.0 233.0,232.0 250.0,218.0 260.0,199.0" fill="#111127" />
<polygon points="258.0,189.0 199.0,235.0 128.0,195.0 182.0,242.0 181.0,294.0 161.0,297.0 159.0,320.0 181.0,337.0 177.0,383.0 202.0,383.0 198.0,242.0 243.0,225.0" fill="#111127" opacity="0.95" />
<polygon points="140.0,122.0 142.0,127.0 195.0,127.0 200.0,140.0 254.0,133.0 236.0,114.0 202.0,103.0 158.0,107.0" fill="#79e5e7" opacity="0.95" />
<polygon points="140.0,148.0 144.0,162.0 196.0,161.0 196.0,156.0 190.0,151.0 157.0,151.0" fill="#4e2f33" />
<polygon points="265.0,177.0 257.0,219.0 240.0,237.0 205.0,255.0 206.0,271.0 259.0,229.0 267.0,203.0" fill="#925143" />
<polygon points="140.0,122.0 143.0,127.0 194.0,127.0 201.0,138.0 253.0,132.0 236.0,114.0 202.0,103.0 158.0,107.0" fill="#79e5e7" opacity="0.95" />
<polygon points="141.0,130.0 141.0,146.0 145.0,149.0 196.0,151.0 194.0,129.0" fill="#111127" opacity="0.95" />
<polygon points="292.0,0.0 346.0,14.0 363.0,24.0 383.0,49.0 383.0,0.0" fill="#4e2f33" opacity="0.95" />
<polygon points="0.0,39.0 14.0,24.0 42.0,9.0 103.0,0.0 0.0,0.0" fill="#4e2f33" opacity="0.95" />
<polygon points="383.0,357.0 356.0,383.0 383.0,383.0" fill="#4e2f33" />
<polygon points="127.0,197.0 136.0,226.0 176.0,252.0 175.0,242.0 136.0,217.0" fill="#4e2f33" />
<polygon points="165.0,294.0 161.0,297.0 160.0,304.0 168.0,314.0 160.0,318.0 159.0,328.0 163.0,336.0 173.0,338.0 175.0,295.0" fill="#111127" />
<polygon points="263.0,196.0 243.0,226.0 207.0,243.0 205.0,251.0 244.0,233.0 256.0,219.0" fill="#4e2f33" />
<polygon points="211.0,283.0 206.0,284.0 207.0,341.0 216.0,335.0 218.0,327.0 217.0,313.0 208.0,306.0 217.0,297.0 217.0,289.0" fill="#111127" />
<polygon points="0.0,38.0 42.0,9.0 99.0,0.0 0.0,0.0" fill="#4e2f33" opacity="0.95" />
<polygon points="293.0,0.0 346.0,14.0 366.0,27.0 383.0,49.0 383.0,0.0" fill="#4e2f33" opacity="0.95" />
<polygon points="180.0,239.0 177.0,275.0 178.0,327.0" fill="#7a9087" />
<polygon points="141.0,131.0 141.0,146.0 145.0,149.0 184.0,149.0 193.0,152.0 196.0,150.0 196.0,131.0 193.0,129.0" fill="#111127" opacity="0.95" />
<polygon points="165.0,294.0 161.0,297.0 160.0,304.0 167.0,314.0 160.0,318.0 159.0,328.0 162.0,335.0 172.0,338.0 175.0,332.0 175.0,295.0" fill="#111127" opacity="0.95" />
<polygon points="202.0,273.0 200.0,274.0 200.0,346.0 202.0,347.0 204.0,346.0 204.0,274.0" fill="#7a9087" opacity="0.95" />
<polygon points="177.0,333.0 176.0,334.0 176.0,345.0 177.0,346.0 177.0,352.0 178.0,353.0 179.0,352.0 179.0,335.0" fill="#405057" />
</svg>