<svg xmlns="http://www.w3.org/2000/svg" width="768" height="768" viewBox="0 0 384 384">
<rect width="384" height="384" fill="#8c5951"/>
<polygon points="0.0,67.0 0.0,306.0 153.0,319.0 129.0,65.0 182.0,22.0 242.0,37.0 278.0,230.0 220.0,259.0 247.0,318.0 383.0,301.0 383.0,72.0 336.0,20.0 135.0,0.0" fill="#9f4f46" />
<polygon points="38.0,26.0 25.0,338.0 172.0,383.0 129.0,64.0 203.0,22.0 283.0,191.0 220.0,259.0 252.0,377.0 352.0,343.0 345.0,29.0" fill="#9f4f46" opacity="0.95" />
<polygon points="38.0,26.0 25.0,338.0 172.0,383.0 129.0,64.0 203.0,22.0 283.0,191.0 220.0,260.0 252.0,376.0 352.0,343.0 344.0,29.0" fill="#9f4f46" opacity="0.95" />
<polygon points="151.0,66.0 168.0,156.0 230.0,157.0 234.0,67.0" fill="#9f4f46" />
<polygon points="133.0,68.0 133.0,192.0 177.0,227.0 218.0,221.0 255.0,178.0 244.0,69.0 233.0,159.0 146.0,159.0" fill="#4ffef6" />
<polygon points="217.0,263.0 182.0,258.0 162.0,272.0 154.0,294.0 155.0,351.0 230.0,349.0 231.0,294.0" fill="#144629" />
<polygon points="252.0,378.0 312.0,367.0 352.0,343.0 360.0,329.0 253.0,325.0" fill="#9f4f46" />
<polygon points="151.0,67.0 168.0,156.0 230.0,156.0 234.0,67.0" fill="#9f4f46" opacity="0.95" />
<polygon points="19.0,330.0 48.0,357.0 113.0,374.0 133.0,369.0 135.0,383.0 172.0,383.0 153.0,353.0 152.0,325.0" fill="#9f4f46" />
<polygon points="132.0,69.0 133.0,192.0 177.0,227.0 218.0,221.0 255.0,178.0 244.0,69.0 232.0,159.0 141.0,157.0" fill="#4ffef6" opacity="0.95" />
<polygon points="217.0,263.0 182.0,258.0 162.0,272.0 154.0,294.0 154.0,350.0 230.0,349.0 231.0,294.0" fill="#144629" opacity="0.95" />
<polygon points="153.0,67.0 168.0,155.0 229.0,156.0 234.0,68.0" fill="#9f4f46" opacity="0.95" />
<polygon points="0.0,325.0 0.0,383.0 131.0,383.0 128.0,371.0 113.0,375.0 46.0,358.0 18.0,325.0" fill="#6c312f" />
<polygon points="383.0,325.0 362.0,325.0 351.0,345.0 310.0,369.0 263.0,375.0 253.0,383.0 383.0,383.0" fill="#6c312f" />
<polygon points="0.0,61.0 16.0,63.0 11.0,54.0 44.0,34.0 34.0,30.0 42.0,21.0 131.0,0.0 0.0,0.0" fill="#6c312f" />
<polygon points="274.0,0.0 336.0,19.0 347.0,30.0 338.0,34.0 366.0,56.0 362.0,62.0 383.0,71.0 383.0,0.0" fill="#6c312f" />
<polygon points="133.0,69.0 133.0,192.0 177.0,227.0 218.0,221.0 255.0,178.0 244.0,70.0 233.0,158.0 146.0,159.0" fill="#4ffef6" opacity="0.95" />
<polygon points="253.0,67.0 256.0,180.0 232.0,213.0 195.0,232.0 209.0,242.0 244.0,234.0 250.0,216.0 255.0,229.0 270.0,205.0" fill="#361b1f" />
<polygon points="222.0,286.0 220.0,293.0 162.0,291.0 164.0,283.0 184.0,266.0 206.0,267.0 218.0,276.0" fill="#144629" />
<polygon points="383.0,306.0 350.0,346.0 310.0,369.0 251.0,381.0 246.0,362.0 169.0,377.0 383.0,383.0" fill="#6c312f" opacity="0.95" />
<polygon points="258.0,74.0 271.0,205.0 255.0,230.0 209.0,243.0 218.0,263.0 247.0,251.0 250.0,235.0 261.0,247.0 279.0,224.0" fill="#6c312f" />
<polygon points="234.0,298.0 232.0,350.0 156.0,353.0 167.0,371.0 242.0,366.0 248.0,341.0 235.0,322.0" fill="#361b1f" />
<polygon points="275.0,0.0 337.0,20.0 365.0,62.0 383.0,71.0 383.0,0.0" fill="#6c312f" opacity="0.95" />
<polygon points="0.0,310.0 0.0,383.0 131.0,383.0 127.0,372.0 42.0,356.0 20.0,333.0 18.0,317.0" fill="#6c312f" opacity="0.95" />
<polygon points="253.0,69.0 257.0,176.0 232.0,213.0 198.0,231.0 210.0,241.0 256.0,228.0 270.0,205.0" fill="#361b1f" opacity="0.95" />
<polygon points="0.0,61.0 14.0,62.0 13.0,51.0 34.0,41.0 42.0,21.0 131.0,0.0 0.0,0.0" fill="#6c312f" opacity="0.95" />
<polygon points="217.0,263.0 182.0,258.0 162.0,272.0 161.0,286.0 184.0,266.0 204.0,266.0 222.0,290.0 155.0,293.0 155.0,350.0 230.0,349.0 231.0,294.0" fill="#144629" opacity="0.95" />
<polygon points="149.0,69.0 149.0,156.0 160.0,157.0" fill="#361b1f" />
<polygon points="383.0,306.0 365.0,315.0 350.0,346.0 310.0,369.0 253.0,380.0 246.0,364.0 169.0,377.0 383.0,383.0" fill="#6c312f" opacity="0.95" />
<polygon points="254.0,74.0 256.0,180.0 232.0,213.0 199.0,231.0 210.0,241.0 257.0,227.0 270.0,205.0" fill="#361b1f" opacity="0.95" />
<polygon points="222.0,286.0 221.0,292.0 212.0,294.0 162.0,291.0 164.0,283.0 184.0,266.0 206.0,267.0 218.0,276.0" fill="#144629" opacity="0.95" />
<polygon points="149.0,62.0 160.0,63.0 184.0,53.0 211.0,54.0 236.0,62.0 218.0,46.0 195.0,42.0 166.0,46.0" fill="#361b1f" />
<polygon points="237.0,304.0 231.0,352.0 158.0,353.0 165.0,370.0 242.0,366.0 248.0,341.0 236.0,323.0" fill="#361b1f" opacity="0.95" />
<polygon points="147.0,212.0 176.0,245.0 182.0,236.0 184.0,240.0 188.0,237.0 186.0,231.0" fill="#361b1f" />
<polygon points="239.0,314.0 233.0,314.0 230.0,352.0 160.0,353.0 157.0,358.0 170.0,372.0 240.0,367.0 248.0,341.0 237.0,323.0" fill="#361b1f" opacity="0.95" />
<polygon points="150.0,60.0 159.0,63.0 179.0,54.0 205.0,53.0 235.0,62.0 224.0,49.0 195.0,42.0 166.0,46.0" fill="#361b1f" opacity="0.95" />
<polygon points="202.0,39.0 203.0,42.0 225.0,48.0 238.0,60.0 225.0,38.0" fill="#f8f6f4" />
<polygon points="195.0,236.0 190.0,247.0 198.0,253.0 198.0,256.0 200.0,255.0 203.0,257.0 206.0,250.0 205.0,243.0 201.0,237.0" fill="#f8f6f4" />
<polygon points="207.0,33.0 223.0,35.0 231.0,43.0 236.0,54.0 243.0,54.0 239.0,43.0 226.0,30.0 221.0,28.0 218.0,32.0" fill="#6d6966" />
<polygon points="219.0,30.0 208.0,25.0 197.0,29.0 180.0,29.0 174.0,26.0 164.0,30.0" fill="#979896" />
<polygon points="237.0,38.0 244.0,51.0 244.0,54.0 238.0,58.0 241.0,63.0 247.0,63.0 249.0,59.0 248.0,51.0 244.0,44.0" fill="#454443" />
<polygon points="218.0,32.0 231.0,43.0 236.0,54.0 243.0,54.0 239.0,43.0 226.0,30.0" fill="#6d6966" opacity="0.95" />
<polygon points="196.0,238.0 198.0,238.0 202.0,242.0 203.0,250.0 201.0,252.0 197.0,248.0 198.0,246.0 194.0,240.0" fill="#f8f6f4" />
<polygon points="202.0,39.0 204.0,42.0 219.0,45.0 229.0,51.0 232.0,50.0 230.0,44.0 224.0,38.0" fill="#f8f6f4" opacity="0.95" />
<polygon points="166.0,45.0 162.0,44.0 149.0,50.0 143.0,49.0 140.0,54.0 140.0,59.0 150.0,50.0" fill="#979896" />
<polygon points="160.0,42.0 153.0,38.0 146.0,45.0 146.0,47.0 147.0,48.0 152.0,47.0 159.0,44.0" fill="#eeddd5" />
<polygon points="172.0,258.0 168.0,258.0 162.0,263.0 161.0,265.0 161.0,269.0 162.0,270.0 173.0,260.0" fill="#f8f6f4" />
<polygon points="156.0,31.0 145.0,40.0 139.0,49.0 140.0,51.0 152.0,37.0 158.0,34.0" fill="#454443" />
<polygon points="180.0,271.0 170.0,279.0 168.0,291.0 169.0,292.0 173.0,291.0 173.0,280.0 181.0,272.0" fill="#f8f6f4" />
<polygon points="128.0,321.0 134.0,318.0 139.0,321.0 139.0,324.0 133.0,327.0 128.0,324.0" fill="#9f4f46" opacity="0.95" />
<polygon points="179.0,27.0 180.0,28.0 197.0,28.0 200.0,26.0 199.0,25.0 181.0,25.0" fill="#eeddd5" />
<polygon points="252.0,33.0 255.0,36.0 252.0,39.0 253.0,40.0 251.0,42.0 247.0,37.0 251.0,33.0" fill="#9f4f46" />
<polygon points="221.0,30.0 220.0,33.0 230.0,41.0 235.0,53.0 242.0,54.0 239.0,43.0 226.0,30.0" fill="#6d6966" opacity="0.95" />
<polygon points="156.0,39.0 160.0,41.0 164.0,41.0 165.0,40.0 171.0,40.0 176.0,38.0 175.0,37.0 157.0,37.0" fill="#f8f6f4" />
<polygon points="211.0,40.0 212.0,43.0 228.0,50.0 231.0,48.0 228.0,41.0 224.0,38.0 214.0,38.0" fill="#f8f6f4" opacity="0.95" />
<polygon points="192.0,34.0 191.0,33.0 184.0,33.0 183.0,34.0 181.0,33.0 180.0,34.0 168.0,34.0 167.0,35.0 168.0,36.0 189.0,36.0" fill="#454443" />
<polygon points="198.0,28.0 198.0,30.0 200.0,31.0 215.0,31.0 217.0,30.0 217.0,28.0 208.0,25.0" fill="#979896" opacity="0.95" />
<polygon points="135.0,323.0 136.0,324.0 150.0,324.0 151.0,323.0 150.0,322.0 136.0,322.0" fill="#eeddd5" />
<polygon points="216.0,280.0 215.0,281.0 216.0,282.0 216.0,290.0 218.0,292.0 220.0,292.0 221.0,291.0 220.0,289.0 220.0,286.0" fill="#f8f6f4" />
<polygon points="246.0,50.0 244.0,51.0 244.0,54.0 239.0,57.0 239.0,60.0 242.0,63.0 248.0,62.0 249.0,59.0 249.0,54.0 248.0,51.0" fill="#454443" opacity="0.95" />
<polygon points="159.0,42.0 153.0,39.0 146.0,45.0 146.0,47.0 148.0,48.0 159.0,44.0" fill="#eeddd5" opacity="0.95" />
<polygon points="198.0,267.0 203.0,272.0 204.0,272.0 206.0,270.0 207.0,271.0 208.0,270.0 204.0,267.0 201.0,267.0 200.0,266.0" fill="#454443" />
<polygon points="172.0,259.0 170.0,258.0 166.0,259.0 162.0,263.0 161.0,267.0 163.0,268.0 172.0,261.0" fill="#f8f6f4" opacity="0.95" />
<polygon points="155.0,51.0 154.0,50.0 150.0,51.0 143.0,58.0 144.0,59.0 152.0,52.0 153.0,53.0" fill="#6d6966" />
<polygon points="158.0,32.0 159.0,33.0 164.0,33.0 165.0,32.0 162.0,29.0 161.0,29.0" fill="#6d6966" />
<polygon points="182.0,273.0 181.0,274.0 180.0,274.0 176.0,278.0 176.0,279.0 175.0,280.0 176.0,281.0 183.0,274.0" fill="#454443" />
<polygon points="246.0,54.0 239.0,58.0 239.0,60.0 243.0,63.0 247.0,62.0 249.0,59.0 249.0,56.0" fill="#454443" opacity="0.95" />
<polygon points="198.0,35.0 199.0,36.0 207.0,36.0 208.0,35.0 207.0,34.0 199.0,34.0" fill="#454443" />
<polygon points="192.0,40.0 193.0,41.0 200.0,41.0 201.0,40.0 200.0,39.0 193.0,39.0" fill="#eeddd5" />
<polygon points="179.0,40.0 178.0,39.0 177.0,40.0 172.0,40.0 169.0,42.0 170.0,43.0 173.0,43.0 174.0,42.0 177.0,42.0" fill="#eeddd5" />
<polygon points="154.0,39.0 151.0,40.0 148.0,43.0 148.0,45.0 151.0,47.0 157.0,44.0 157.0,41.0" fill="#eeddd5" opacity="0.95" />
<polygon points="178.0,28.0 174.0,26.0 173.0,27.0 170.0,27.0 168.0,28.0 168.0,30.0 170.0,31.0 176.0,31.0 178.0,30.0" fill="#979896" opacity="0.95" />
<polygon points="147.0,51.0 145.0,50.0 142.0,51.0 140.0,54.0 140.0,56.0 142.0,57.0 144.0,56.0 147.0,53.0" fill="#979896" opacity="0.95" />
<polygon points="203.0,27.0 203.0,29.0 206.0,31.0 208.0,31.0 211.0,29.0 211.0,27.0 208.0,25.0 206.0,25.0" fill="#979896" opacity="0.95" />
</svg>