<svg xmlns="http://www.w3.org/2000/svg" width="768" height="768" viewBox="0 0 384 384">
<rect width="384" height="384" fill="#856e64"/>
<polygon points="0.0,25.0 15.0,244.0 260.0,63.0 256.0,193.0 370.0,192.0 269.0,213.0 374.0,221.0 263.0,308.0 379.0,322.0 344.0,10.0" fill="#8d5c4e" />
<polygon points="0.0,25.0 16.0,244.0 277.0,76.0 273.0,218.0 374.0,222.0 263.0,383.0 379.0,383.0 345.0,11.0" fill="#8d5c4e" opacity="0.95" />
<polygon points="141.0,136.0 150.0,275.0 140.0,289.0 151.0,296.0 140.0,304.0 150.0,315.0 140.0,383.0 238.0,383.0 232.0,316.0 198.0,310.0 234.0,308.0 248.0,277.0 248.0,139.0" fill="#3f8993" />
<polygon points="0.0,25.0 17.0,244.0 116.0,242.0 24.0,177.0 278.0,76.0 273.0,217.0 373.0,222.0 263.0,288.0 319.0,348.0 263.0,383.0 379.0,383.0 360.0,64.0 282.0,36.0 344.0,11.0" fill="#8d5c4e" opacity="0.95" />
<polygon points="142.0,136.0 140.0,288.0 151.0,296.0 140.0,303.0 140.0,383.0 238.0,383.0 226.0,310.0 248.0,278.0 248.0,139.0" fill="#3f8993" opacity="0.95" />
<polygon points="2.0,274.0 0.0,383.0 131.0,383.0 41.0,360.0 130.0,339.0 23.0,335.0 130.0,318.0 99.0,297.0 130.0,275.0" fill="#8d5c4e" />
<polygon points="266.0,175.0 264.0,284.0 353.0,273.0 371.0,220.0 267.0,212.0 366.0,195.0 366.0,179.0 288.0,194.0" fill="#c1856a" />
<polygon points="143.0,136.0 140.0,265.0 150.0,275.0 140.0,287.0 151.0,296.0 140.0,304.0 150.0,314.0 140.0,383.0 238.0,383.0 229.0,311.0 248.0,276.0 248.0,140.0" fill="#3f8993" opacity="0.95" />
<polygon points="0.0,276.0 0.0,383.0 131.0,383.0 75.0,359.0 99.0,341.0 131.0,357.0 128.0,275.0" fill="#8d5c4e" opacity="0.95" />
<polygon points="0.0,275.0 0.0,383.0 131.0,383.0 54.0,360.0 129.0,359.0 129.0,325.0 30.0,335.0 131.0,316.0 131.0,276.0" fill="#8d5c4e" opacity="0.95" />
<polygon points="265.0,176.0 264.0,284.0 353.0,272.0 371.0,221.0 342.0,232.0 274.0,220.0 305.0,194.0" fill="#c1856a" opacity="0.95" />
<polygon points="263.0,376.0 379.0,383.0 383.0,343.0 366.0,324.0 302.0,326.0 312.0,341.0 271.0,344.0 313.0,343.0 323.0,360.0 299.0,363.0 305.0,377.0" fill="#8d5c4e" />
<polygon points="291.0,0.0 344.0,9.0 353.0,23.0 321.0,32.0 353.0,37.0 337.0,45.0 362.0,63.0 355.0,84.0 373.0,88.0 377.0,177.0 383.0,0.0" fill="#453635" />
<polygon points="131.0,208.0 56.0,209.0 55.0,222.0 115.0,222.0 114.0,246.0 15.0,245.0 2.0,229.0 0.0,291.0 3.0,272.0 41.0,272.0 43.0,287.0 62.0,272.0 130.0,274.0 108.0,252.0 131.0,249.0" fill="#c1856a" />
<polygon points="291.0,0.0 347.0,11.0 297.0,32.0 341.0,36.0 371.0,85.0 383.0,342.0 383.0,0.0" fill="#453635" opacity="0.95" />
<polygon points="251.0,128.0 249.0,383.0 255.0,383.0" fill="#ded9d3" />
<polygon points="129.0,105.0 131.0,116.0 253.0,122.0 257.0,139.0 262.0,138.0 262.0,104.0 170.0,100.0" fill="#453635" />
<polygon points="267.0,176.0 263.0,282.0 352.0,272.0 371.0,221.0 342.0,232.0 274.0,220.0 271.0,209.0 305.0,195.0" fill="#c1856a" opacity="0.95" />
<polygon points="131.0,136.0 100.0,142.0 100.0,193.0 96.0,178.0 17.0,178.0 39.0,183.0 27.0,195.0 68.0,195.0 75.0,183.0 101.0,200.0 66.0,210.0 105.0,209.0 104.0,196.0 131.0,194.0" fill="#c1856a" />
<polygon points="291.0,0.0 347.0,12.0 297.0,32.0 337.0,36.0 371.0,85.0 383.0,334.0 383.0,0.0" fill="#453635" opacity="0.95" />
<polygon points="260.0,191.0 257.0,383.0 263.0,372.0" fill="#453635" />
<polygon points="133.0,126.0 132.0,383.0 139.0,383.0 139.0,318.0 147.0,317.0 139.0,313.0 139.0,272.0 147.0,269.0 139.0,268.0" fill="#ded9d3" />
<polygon points="131.0,208.0 116.0,208.0 113.0,246.0 16.0,245.0 3.0,235.0 0.0,270.0 40.0,272.0 45.0,285.0 63.0,272.0 129.0,274.0 110.0,252.0 131.0,249.0" fill="#c1856a" opacity="0.95" />
<polygon points="304.0,309.0 264.0,320.0 264.0,349.0 303.0,353.0 264.0,360.0 265.0,374.0 320.0,360.0 313.0,344.0 270.0,344.0 316.0,335.0 298.0,330.0 315.0,323.0" fill="#c1856a" />
<polygon points="0.0,237.0 0.0,270.0 41.0,272.0 47.0,285.0 59.0,284.0 63.0,272.0 131.0,272.0 106.0,246.0" fill="#c1856a" opacity="0.95" />
<polygon points="131.0,137.0 101.0,142.0 99.0,179.0 29.0,175.0 39.0,187.0 27.0,194.0 67.0,195.0 75.0,185.0 81.0,197.0 131.0,194.0" fill="#c1856a" opacity="0.95" />
<polygon points="131.0,320.0 54.0,321.0 40.0,332.0 130.0,338.0 130.0,331.0 116.0,336.0 112.0,326.0" fill="#c1856a" />
<polygon points="129.0,105.0 132.0,116.0 253.0,122.0 257.0,139.0 262.0,138.0 261.0,104.0 170.0,100.0" fill="#453635" opacity="0.95" />
<polygon points="247.0,279.0 241.0,282.0 238.0,305.0 230.0,313.0 234.0,319.0 234.0,367.0 239.0,383.0 248.0,383.0" fill="#2d707c" />
<polygon points="377.0,180.0 373.0,203.0 383.0,221.0 369.0,262.0 370.0,308.0 381.0,322.0 370.0,329.0 383.0,342.0 383.0,181.0" fill="#453635" />
<polygon points="0.0,24.0 17.0,21.0 24.0,9.0 76.0,8.0 79.0,0.0 0.0,0.0" fill="#453635" />
<polygon points="252.0,128.0 249.0,383.0 255.0,383.0" fill="#ded9d3" opacity="0.95" />
<polygon points="135.0,126.0 132.0,383.0 139.0,383.0" fill="#ded9d3" opacity="0.95" />
<polygon points="130.0,105.0 133.0,116.0 238.0,120.0 263.0,127.0 260.0,104.0 170.0,100.0" fill="#453635" opacity="0.95" />
<polygon points="262.0,154.0 276.0,149.0 270.0,140.0 273.0,133.0 284.0,140.0 283.0,151.0 311.0,148.0 315.0,153.0 308.0,157.0 310.0,162.0 334.0,165.0 265.0,167.0" fill="#8d5c4e" />
<polygon points="134.0,126.0 139.0,383.0 139.0,319.0 147.0,317.0 139.0,295.0 148.0,291.0 139.0,289.0 147.0,268.0 139.0,267.0" fill="#ded9d3" opacity="0.95" />
<polygon points="140.0,130.0 249.0,131.0 248.0,128.0" fill="#35545a" />
<polygon points="252.0,153.0 249.0,383.0 255.0,383.0" fill="#ded9d3" opacity="0.95" />
<polygon points="260.0,193.0 257.0,383.0 262.0,383.0" fill="#453635" opacity="0.95" />
<polygon points="245.0,279.0 240.0,284.0 238.0,306.0 231.0,312.0 234.0,367.0 239.0,383.0 248.0,383.0" fill="#2d707c" opacity="0.95" />
<polygon points="370.0,192.0 367.0,196.0 350.0,198.0 312.0,196.0 310.0,179.0 342.0,175.0 347.0,178.0 348.0,186.0 350.0,178.0 362.0,177.0" fill="#8d5c4e" opacity="0.95" />
<polygon points="161.0,287.0 163.0,285.0 185.0,286.0 187.0,288.0 187.0,297.0 184.0,300.0 163.0,299.0 161.0,297.0" fill="#3f8993" />
<polygon points="263.0,154.0 276.0,149.0 271.0,140.0 274.0,135.0 284.0,139.0 285.0,152.0 312.0,150.0 308.0,159.0 313.0,165.0 267.0,167.0" fill="#8d5c4e" opacity="0.95" />
<polygon points="245.0,279.0 240.0,284.0 238.0,305.0 232.0,312.0 234.0,367.0 239.0,383.0 248.0,383.0 248.0,281.0" fill="#2d707c" opacity="0.95" />
<polygon points="235.0,240.0 238.0,244.0 239.0,276.0 237.0,278.0 233.0,273.0 233.0,242.0" fill="#3f8993" />
<polygon points="198.0,150.0 200.0,148.0 235.0,148.0 237.0,150.0 237.0,156.0 235.0,158.0 231.0,153.0 201.0,153.0" fill="#3f8993" />
<polygon points="164.0,129.0 166.0,132.0 249.0,131.0 247.0,128.0" fill="#35545a" opacity="0.95" />
<polygon points="161.0,287.0 164.0,285.0 184.0,286.0 187.0,288.0 187.0,298.0 184.0,300.0 164.0,299.0 161.0,297.0" fill="#3f8993" opacity="0.95" />
<polygon points="152.0,150.0 154.0,148.0 184.0,148.0 186.0,150.0 186.0,154.0 184.0,156.0 181.0,153.0 157.0,153.0" fill="#3f8993" />
<polygon points="152.0,310.0 154.0,308.0 184.0,308.0 186.0,310.0 186.0,315.0 184.0,317.0 180.0,313.0 154.0,313.0" fill="#3f8993" />
<polygon points="235.0,241.0 234.0,273.0 237.0,277.0 238.0,258.0 237.0,244.0" fill="#2d707c" />
<polygon points="162.0,288.0 163.0,293.0 175.0,293.0 176.0,294.0 185.0,294.0 186.0,293.0 186.0,288.0 185.0,287.0 163.0,287.0" fill="#f9bc1f" />
<polygon points="166.0,277.0 169.0,276.0 173.0,279.0 170.0,283.0 173.0,285.0 183.0,286.0 187.0,289.0 185.0,299.0 165.0,299.0 161.0,296.0 161.0,287.0 167.0,283.0 164.0,281.0" fill="#3f8993" opacity="0.95" />
<polygon points="200.0,150.0 201.0,151.0 233.0,151.0 234.0,150.0 233.0,149.0 201.0,149.0" fill="#35545a" />
<polygon points="155.0,150.0 156.0,151.0 183.0,151.0 184.0,150.0 183.0,149.0 156.0,149.0" fill="#35545a" />
<polygon points="162.0,296.0 163.0,298.0 184.0,298.0 185.0,297.0 184.0,295.0 163.0,295.0" fill="#35545a" />
<polygon points="162.0,288.0 162.0,292.0 164.0,293.0 175.0,293.0 176.0,294.0 186.0,293.0 186.0,288.0 184.0,287.0 164.0,287.0" fill="#f9bc1f" opacity="0.95" />
<polygon points="235.0,209.0 234.0,210.0 235.0,218.0 234.0,238.0 235.0,239.0 236.0,238.0 236.0,220.0 235.0,219.0 236.0,210.0" fill="#2d707c" />
<polygon points="162.0,289.0 162.0,291.0 165.0,293.0 183.0,294.0 186.0,292.0 186.0,289.0 183.0,287.0 165.0,287.0" fill="#f9bc1f" opacity="0.95" />
<polygon points="144.0,289.0 143.0,290.0 142.0,293.0 144.0,295.0 146.0,295.0 148.0,293.0 148.0,291.0 146.0,289.0" fill="#ded9d3" />
<polygon points="140.0,298.0 141.0,299.0 146.0,299.0 149.0,296.0 148.0,295.0 145.0,297.0 141.0,294.0 140.0,295.0" fill="#35545a" />
<polygon points="140.0,273.0 140.0,275.0 141.0,276.0 146.0,276.0 147.0,275.0 146.0,274.0 143.0,274.0 141.0,272.0" fill="#35545a" />
<polygon points="140.0,320.0 141.0,321.0 146.0,321.0 149.0,318.0 148.0,317.0 146.0,319.0 143.0,319.0 141.0,317.0 140.0,318.0" fill="#35545a" />
<polygon points="236.0,257.0 235.0,258.0 234.0,258.0 234.0,265.0 235.0,265.0 236.0,266.0 237.0,265.0 238.0,265.0 238.0,258.0 237.0,258.0" fill="#2d707c" opacity="0.95" />
<polygon points="239.0,134.0 239.0,136.0 240.0,136.0 241.0,137.0 243.0,137.0 244.0,136.0 245.0,136.0 245.0,134.0 244.0,134.0 243.0,133.0 241.0,133.0 240.0,134.0" fill="#2d707c" opacity="0.95" />
</svg>