<svg xmlns="http://www.w3.org/2000/svg" version="1.0" viewBox="0 0 1152 1152"><g fill="#808040" stroke-width="0"><path d="M192.5 192c-.3 0-.5.2-.5.5s.2.5.5.5.5-.2.5-.5-.2-.5-.5-.5m0 3c-.3 0-.5.2-.5.5s.2.5.5.5.5-.2.5-.5-.2-.5-.5-.5m0 8c-.3 0-.5.2-.5.5s.2.5.5.5.5-.2.5-.5-.2-.5-.5-.5m.1 2.3c-.3-.4-.6.2-.5 1.3l.1 1.9.5-1.3c.3-.7.2-1.6-.1-1.9m.1 4-.7-.6v2.6l.7-.6.6-.7zm0 3.9-.5-1.7v7l.5-1.8c.2-.9.2-2.5 0-3.5m0 6.1-.7-.6v2.6l.7-.6.6-.7zm0 3-.7-.6v2.6l.7-.6.6-.7zm-.2 2.7c-.3 0-.5.2-.5.5s.2.5.5.5.5-.2.5-.5-.2-.5-.5-.5m0 5c-.3 0-.5.2-.5.5s.2.5.5.5.5-.2.5-.5-.2-.5-.5-.5m0 6c-.3 0-.5.2-.5.5s.2.5.5.5.5-.2.5-.5-.2-.5-.5-.5m0 3c-.3 0-.5.2-.5.5s.2.5.5.5.5-.2.5-.5-.2-.5-.5-.5m0 13c-.3 0-.5.2-.5.5s.2.5.5.5.5-.2.5-.5-.2-.5-.5-.5m.2 7.7-.4-2.2v10l.4-2.8c.2-1.5.2-3.7 0-5m0 12.6-.7-.6v2.6l.7-.6.6-.7zm0 13.4c-.1-6.2-.3-.9-.3 11.8 0 12.6.2 17.7.3 11.2.2-6.5.2-16.8 0-23m0 36.5-.5-1.7v7l.5-1.8c.2-.9.2-2.5 0-3.5m-.2 9.8c-.3 0-.5.2-.5.5s.2.5.5.5.5-.2.5-.5-.2-.5-.5-.5m.1 5.3c-.3-.4-.6.2-.5 1.3l.1 1.9.5-1.3c.3-.7.2-1.6-.1-1.9m.1 8.9-.3-5.7v23l.3-5.8c.2-3.1.2-8.3 0-11.5m0 21.5-.4-4.2v17l.4-4.3c.2-2.3.2-6.1 0-8.5m0 14.5-.5-1.7v7l.5-1.8c.2-.9.2-2.5 0-3.5m0 10-.4-3.7v16l.4-4.3c.2-2.3.2-5.9 0-8m0 13.5c-.3-.6-.5.1-.5 1.8v3l.5-1.8c.2-.9.2-2.3 0-3m0 5.6-.7-.6v2.6l.7-.6.6-.7zm-.2 3.7c-.3 0-.5.2-.5.5s.2.5.5.5.5-.2.5-.5-.2-.5-.5-.5m0 3c-.3 0-.5.2-.5.5s.2.5.5.5.5-.2.5-.5-.2-.5-.5-.5m.2 5.3-.7-.6v2.6l.7-.6.6-.7zm0 5-.7-.6v2.6l.7-.6.6-.7zm0 3.4c-.3-.6-.5.1-.5 1.8v3l.5-1.8c.2-.9.2-2.3 0-3m0 10c-.2-2.9-.3-.3-.3 5.8v11l.3-5.8c.2-3.2.2-8.1 0-11m0 18.6-.7-.6v2.6l.7-.6.6-.7zm0 3-.7-.6v2.6l.7-.6.6-.7zm-.2 3.7c-.3 0-.5.2-.5.5s.2.5.5.5.5-.2.5-.5-.2-.5-.5-.5m0 3c-.3 0-.5.2-.5.5s.2.5.5.5.5-.2.5-.5-.2-.5-.5-.5m0 7c-.3 0-.5.2-.5.5s.2.5.5.5.5-.2.5-.5-.2-.5-.5-.5m0 2c-.3 0-.5.2-.5.5s.2.5.5.5.5-.2.5-.5-.2-.5-.5-.5m0 8c-.3 0-.5.2-.5.5s.2.5.5.5.5-.2.5-.5-.2-.5-.5-.5m.5 3h-1.3l.6.7.7.6.7-.6.6-.7zm-.5 3c-.3 0-.5.2-.5.5s.2.5.5.5.5-.2.5-.5-.2-.5-.5-.5m1.2 28.7c-.3-.6-.5.1-.5 1.8v3l.5-1.8c.2-.9.2-2.3 0-3m0 9.6-.7-.6v2.6l.7-.6.6-.7zm2.3 1.7h-1.3l.6.7.7.6.7-.6.6-.7zm-2.3 1.3-.7-.6v2.6l.7-.6.6-.7zm-1.2 10.7c-.3 0-.5.2-.5.5s.2.5.5.5.5-.2.5-.5-.2-.5-.5-.5m.5 4-.9-1.5.2 2.3c0 1.2.5 2.2.9 2.2s.8-.3.8-.8c0-.4-.5-1.4-1-2.2m.5 12c-.3 0-.5.2-.5.5s.2.5.5.5.5-.2.5-.5-.2-.5-.5-.5m.2 8.3-.7-.6v2.6l.7-.6.6-.7zm0 3-.7-.6v2.6l.7-.6.6-.7zm-.2 2.7c-.3 0-.5.2-.5.5s.2.5.5.5.5-.2.5-.5-.2-.5-.5-.5m23 0c-.3 0-.5.2-.5.5s.2.5.5.5.5-.2.5-.5-.2-.5-.5-.5m-23 3c-.3 0-.5.2-.5.5s.2.5.5.5.5-.2.5-.5-.2-.5-.5-.5m2 1c-.3 0-.5.2-.5.5s.2.5.5.5.5-.2.5-.5-.2-.5-.5-.5m-1 3.6-1.5-.5v.8c0 .5.7 1.1 1.5 1.5l1.5.5v-.8c0-.5-.7-1.1-1.5-1.5m-.9 2.4c-.3 0-.8.4-1.1 1l-.6 1h1c.6 0 1.1-.5 1.1-1 0-.6-.2-1-.4-1m.6 3.6c-.4-.3-.9.4-.9 1.5-.1 1 0 1.9.2 1.9.1 0 .5-.7.8-1.5.4-.8.3-1.6-.1-1.9m11.3 4.4c-.3 0-.5.2-.5.5s.2.5.5.5.5-.2.5-.5-.2-.5-.5-.5m-11.5 1c-.5 0-1 .5-1 1.1v1l1-.6c.6-.3 1-.8 1-1.1 0-.2-.4-.4-1-.4m14.5 0c-.3 0-.5.2-.5.5s.2.5.5.5.5-.2.5-.5-.2-.5-.5-.5m-6 1c-.3 0-.5.2-.5.5s.2.5.5.5.5-.2.5-.5-.2-.5-.5-.5m-6 1c-.3 0-.5.2-.5.5s.2.5.5.5.5-.2.5-.5-.2-.5-.5-.5m-2.8 1.3-.7-.6v2.6l.7-.6.6-.7zm62.8 1.7c-.3 0-.5.2-.5.5s.2.5.5.5.5-.2.5-.5-.2-.5-.5-.5m-63.1 2.1c-.2-.2-.4 2.2-.4 5.4v5.8l.7-.7c.4-.3.6-2.8.4-5.3-.1-2.6-.4-4.9-.7-5.2m4.1 5.9c-.3 0-.5.2-.5.5s.2.5.5.5.5-.2.5-.5-.2-.5-.5-.5m-2 5c-.3 0-.5.2-.5.5s.2.5.5.5.5-.2.5-.5-.2-.5-.5-.5m-1.1 2.2-1.4-1.3v18.2l.8-.5.8-.5-.3-4.1-.3-4.1.9.6 1 .5.7-1.1.7-1.2-1.2.7-1.1.7-.7-1.7-.6-1.7 1-1.6 1-1.6zm6.1-1.2c-.3 0-.5.2-.5.5s.2.5.5.5.5-.2.5-.5-.2-.5-.5-.5m5 2c-.3 0-.5.2-.5.5s.2.5.5.5.5-.2.5-.5-.2-.5-.5-.5m23 0c-.3 0-.5.2-.5.5s.2.5.5.5.5-.2.5-.5-.2-.5-.5-.5m-20 2c-.3 0-.5.2-.5.5s.2.5.5.5.5-.2.5-.5-.2-.5-.5-.5m4 1c-.3 0-.5.2-.5.5s.2.5.5.5.5-.2.5-.5-.2-.5-.5-.5m11 0c-.3 0-.5.2-.5.5s.2.5.5.5.5-.2.5-.5-.2-.5-.5-.5m41 0c-.3 0-.5.2-.5.5s.2.5.5.5.5-.2.5-.5-.2-.5-.5-.5m-62 2c-.3 0-.5.2-.5.5s.2.5.5.5.5-.2.5-.5-.2-.5-.5-.5m4 3c-.3 0-.5.2-.5.5s.2.5.5.5.5-.2.5-.5-.2-.5-.5-.5m1.9 1c-.3 0-.2.4.1 1 .3.5.8 1 1.1 1s.2-.5-.1-1c-.3-.6-.8-1-1.1-1m6.1 0c-.3 0-.5.2-.5.5s.2.5.5.5.5-.2.5-.5-.2-.5-.5-.5m-10 1c-.3 0-.5.2-.5.5s.2.5.5.5.5-.2.5-.5-.2-.5-.5-.5"/><path d="M197.8 626c-.2 0-1 .5-1.8 1l-1.5 1h1.2c.6 0 1.5-.5 1.8-1 .3-.6.5-1 .3-1m18.7 0c-.3 0-.5.2-.5.5s.2.5.5.5.5-.2.5-.5-.2-.5-.5-.5m-12 3c-.3 0-.5.2-.5.5s.2.5.5.5.5-.2.5-.5-.2-.5-.5-.5m2 0c-.3 0-.5.2-.5.5s.2.5.5.5.5-.2.5-.5-.2-.5-.5-.5m-8.5 1h-1.3l.6.7.7.6.7-.6.6-.7zm33.5 1c-.3 0-.5.2-.5.5s.2.5.5.5.5-.2.5-.5-.2-.5-.5-.5m-38 1c-.3 0-.5.2-.5.5s.2.5.5.5.5-.2.5-.5-.2-.5-.5-.5m0 2c-.3 0-.5.2-.5.5s.2.5.5.5.5-.2.5-.5-.2-.5-.5-.5m3 0c-.3 0-.5.2-.5.5s.2.5.5.5.5-.2.5-.5-.2-.5-.5-.5m-3.1 2c-.1 0-.6.6-1 1.2l-.7 1.3.8-.7.8-.8 1.6 1.3 1.6 1.2-1.4-1.8c-.7-.9-1.5-1.7-1.7-1.7m.1 3c-.1 0-.5.9-.8 2l-.5 2h2.6l-.5-2c-.3-1.1-.7-2-.8-2m19 0c-.3 0-.5.2-.5.5s.2.5.5.5.5-.2.5-.5-.2-.5-.5-.5m58 0c-.3 0-.5.2-.5.5s.2.5.5.5.5-.2.5-.5-.2-.5-.5-.5m-74 1c-.3 0-.5.2-.5.5s.2.5.5.5.5-.2.5-.5-.2-.5-.5-.5m10 3c-.3 0-.5.2-.5.5s.2.5.5.5.5-.2.5-.5-.2-.5-.5-.5m-14 1c-.3 0-.5.2-.5.5s.2.5.5.5.5-.2.5-.5-.2-.5-.5-.5m3.5 0h-1.3l.6.7.7.6.7-.6.6-.7zm-2.5 2c-.2 0-.7.4-1 1l-.6 1h3.2l-.6-1c-.3-.6-.8-1-1-1m81 0c-.3 0-.5.2-.5.5s.2.5.5.5.5-.2.5-.5-.2-.5-.5-.5m-68 1c-.3 0-.5.2-.5.5s.2.5.5.5.5-.2.5-.5-.2-.5-.5-.5m-12.8 2.3-.7-.6v2.6l.7-.6.6-.7zm.2 3.1-.9-.5v2.5c0 1.4.2 2.6.4 2.6s.6-.9.9-2l.5-2zm2.6 1.6c-.3 0-.5.2-.5.5s.2.5.5.5.5-.2.5-.5-.2-.5-.5-.5m-3 6c-.3 0-.5.2-.5.5s.2.5.5.5.5-.2.5-.5-.2-.5-.5-.5m11 0c-.3 0-.5.2-.5.5s.2.5.5.5.5-.2.5-.5-.2-.5-.5-.5m2 2c-.3 0-.5.2-.5.5s.2.5.5.5.5-.2.5-.5-.2-.5-.5-.5m-13.1 2c-.2 0-.4.7-.4 1.5s.4 1.5 1 1.5h.9l-.5-1.5c-.4-.8-.8-1.5-1-1.5m3.1 0c-.3 0-.5.2-.5.5s.2.5.5.5.5-.2.5-.5-.2-.5-.5-.5m7 0c-.3 0-.5.2-.5.5s.2.5.5.5.5-.2.5-.5-.2-.5-.5-.5m12 0c-.3 0-.5.2-.5.5s.2.5.5.5.5-.2.5-.5-.2-.5-.5-.5m-16 4c-.3 0-.5.2-.5.5s.2.5.5.5.5-.2.5-.5-.2-.5-.5-.5m-6 2c-.3 0-.5.2-.5.5s.2.5.5.5.5-.2.5-.5-.2-.5-.5-.5m.2 4.2-.4-2.7-.2 5.5c-.1 3-.2 9.7-.2 14.9 0 5.1.3 9.6.6 9.9s.6-2.4.6-5.9c.1-3.5.1-7.2 0-8.1l-.2-1.6 1.8-.5 1.8-.5-1.7-.1c-1 0-1.8-.5-1.8-1s.6-1.2 1.3-1.4l1.2-.5-1.2-.1-1.3-.1v-3.9l1.8-1.1 1.7-1.2-1.7.6-1.7.5z"/><path d="M197.5 682c-.3 0-.5.2-.5.5s.2.5.5.5.5-.2.5-.5-.2-.5-.5-.5m-1.5 10h-1.3l.6.7.7.6.7-.6.6-.7zm12.5 1c-.3 0-.5.2-.5.5s.2.5.5.5.5-.2.5-.5-.2-.5-.5-.5m0 2c-.3 0-.5.2-.5.5s.2.5.5.5.5-.2.5-.5-.2-.5-.5-.5m-15 8c-.3 0-.5.2-.5.5s.2.5.5.5.5-.2.5-.5-.2-.5-.5-.5m.4 6-.6-4.5-.2 3c-.1 1.6-.2 7.2-.2 12.3 0 5.2.2 9.6.4 9.9.3.3.7-3.3.9-7.9.2-4.5 0-10.3-.3-12.8m-.4 22c-.3 0-.5.2-.5.5s.2.5.5.5.5-.2.5-.5-.2-.5-.5-.5m0 2c-.3 0-.5.2-.5.5s.2.5.5.5.5-.2.5-.5-.2-.5-.5-.5m-1 4c-.3 0-.5.2-.5.5s.2.5.5.5.5-.2.5-.5-.2-.5-.5-.5m.4 3.5c-.3-.3-.7 1.8-.8 4.7-.1 2.8.1 5 .3 4.7.3-.2.6-2.3.7-4.7.2-2.3 0-4.4-.2-4.7m-.1 10.5c-.4 0-.6 1.4-.4 3 .2 1.7.6 3.3.8 3.5.3.3.4-1.1.4-3-.1-1.9-.4-3.5-.8-3.5m-.1 9.3-.7-.6v2.6l.7-.6.6-.7zm.8 2.7c-.3 0-.5.2-.5.5s.2.5.5.5.5-.2.5-.5-.2-.5-.5-.5m-.8 2.3-.7-.6v2.6l.7-.6.6-.7zm.3 3.7c-.6 0-1 .7-1 1.5s.2 1.5.4 1.5.6-.7 1-1.5l.5-1.5zm0 4h-1.3l.6.7.7.6.7-.6.6-.7zm-.4 2.3c-.3-.4-.6.2-.5 1.3l.1 1.9.5-1.3c.3-.7.2-1.6-.1-1.9m-.1 3.7c-.3 0-.5.2-.5.5s.2.5.5.5.5-.2.5-.5-.2-.5-.5-.5m0 2c-.3 0-.5.2-.5.5s.2.5.5.5.5-.2.5-.5-.2-.5-.5-.5m0 8c-.3 0-.5.2-.5.5s.2.5.5.5.5-.2.5-.5-.2-.5-.5-.5m.2 2.3-.7-.6v2.6l.7-.6.6-.7zm0 5-.7-.6v2.6l.7-.6.6-.7zm-.2 2.7c-.3 0-.5.2-.5.5s.2.5.5.5.5-.2.5-.5-.2-.5-.5-.5m.1 2.3c-.3-.4-.6.2-.5 1.3l.1 1.9.5-1.3c.3-.7.2-1.6-.1-1.9m.1 5.4-.5-1.2v5l.5-1.3c.2-.6.2-1.8 0-2.5m0 7-.4-2.2v9l.4-2.3c.2-1.2.2-3.2 0-4.5m0 7.6-.7-.6v2.6l.7-.6.6-.7zm0 3.1-.7-.7v1.4c0 .8.5 2.1 1 2.9l1 1.5-.3-2.2c-.2-1.2-.6-2.6-1-2.9m.9 6.9c-.3-.4-.6.2-.5 1.3l.1 1.9.5-1.3c.3-.7.2-1.6-.1-1.9m0 3.7c-.3 0-.8.5-1.2 1.2l-.7 1.1 1.1-.7c.7-.4 1.2-.9 1.2-1.2 0-.2-.2-.4-.4-.4m0 3c-.3 0-.8.5-1.2 1.2l-.7 1.1 1.1-.7c.7-.4 1.2-.9 1.2-1.2 0-.2-.2-.4-.4-.4m-.9 14.7c-.1-5.1-.3-.7-.3 9.8 0 10.4.2 14.6.3 9.2.2-5.4.2-13.9 0-19m0 33.5-.3-4.7v19l.3-4.8c.2-2.6.2-6.8 0-9.5m0 17.5-.4-3.2v13l.4-3.3c.2-1.7.2-4.7 0-6.5m-.2 10.3c-.3 0-.5.2-.5.5s.2.5.5.5.5-.2.5-.5-.2-.5-.5-.5m0 3c-.3 0-.5.2-.5.5s.2.5.5.5.5-.2.5-.5-.2-.5-.5-.5m.2 11.8c-.1-5.7-.3-1.3-.3 9.7s.2 15.6.3 10.3c.2-5.3.2-14.3 0-20m.3 30.2h-1.3l.6.7.7.6.7-.6.6-.7z"/></g><g fill="#804040" stroke-width="0"><path d="M576.4 192.2c-210.7-.1-383.3 0-383.5.3-.3.2-.4 34.1-.3 75.2.1 41.2.4 128.7.5 194.6l.2 119.9 1.4.5c.7.3 1.3.9 1.3 1.4v.8l-1.3-.5-1.4-.5.2 2c.1 1.1.4 2.4.8 2.7.3.4.1 1.6-.4 2.7l-1.1 2 1.2.7 1.2.7-.9.6-1 .6.3 3.3c.1 1.8.3 5.1.5 7.4.1 2.2-.1 4.5-.4 5.1l-.7 1.2 1.3 1.3 1.4 1.3-1 1.6-1 1.6.6 1.7.7 1.7 1.1-.7 1.2-.7-.7 1.2-.7 1.1-1-.5-.9-.6.3 4.1c.2 2.3 0 4.3-.3 4.5-.4.2-.6 1.5-.6 2.8.1 1.4.8 3.3 1.6 4.3l1.5 1.9-1.7-1.4c-1-.7-1.8-1.1-1.8-.8s.4 1.7.9 3.1l1 2.5-1.2.4-1.2.4 1.3 2.2 1.2 2.1h-1.7l.3 2.2c.1 1.3.3 2.5.4 2.8s.1.9 0 1.5c-.1.5-.4 2.7-.6 4.8l-.4 3.9 1 1.9 1.1 1.9h-2.2l.5 2.7c.2 1.6.5 3.8.5 5l.1 2.2 1.8-.5 1.7-.6-1.7 1.2-1.8 1.1v1.9c0 1 .6 2.1 1.3 2.3l1.2.5-1.2.1c-.7.1-1.3.5-1.3 1s.8 1.2 1.8 1.4l1.7.5-1.6.1-1.7.1-.2 7.7c-.1 4.3-.2 8.7-.2 9.8-.1 1.1 0 4 0 6.5.1 2.5-.1 32.8-.3 67.5-.3 34.6-.5 89.5-.5 121.9v59l.8.8.8.8 382.5-.2 382.4-.3v-767zm3.2 257 9.1-.2 11.6 2 11.6 2 8.7 3.1c4.8 1.7 11.5 4.3 14.8 5.9 3.4 1.5 10.2 5.5 15.1 8.8 5 3.4 11.1 8 13.6 10.4s7.8 8.1 11.7 12.7l7.2 8.3 4.9 9.9c2.8 5.4 5.5 11.6 6.2 13.9.7 2.2 1.6 4 2.1 4 .4 0 .7.3.6.7-.1.5.4 3.1 1.1 5.9s1.3 6.5 1.3 8.3c.1 1.7.4 3.3.7 3.5s.6 5.1.6 10.9c-.1 5.8.2 10.4.5 10.2.4-.2.6 2.1.6 5l-.1 5.5h-.8c-.4 0-.2.6.5 1.4s1.6 1.2 2 1 1 .1 1.4.7l.7 1.2-1.1-.7-1.2-.7v1c0 .5.8 1.4 1.7 2l1.7.9-1.3 1.6-1.3 1.6h2.4l-2.3 2.1c-1.3 1.1-1.8 1.8-1.1 1.4l1.2-.6.7 1.7.7 1.8-1.2.4c-.7.2-1.2 1.1-1.2 1.9v1.5l1.5-1.2 1.5-1.3-.4 2.4-.3 2.4-1.7-.3c-.9-.2-1.6-.1-1.6.2 0 .2.7 1.2 1.6 2l1.5 1.6-.6 1c-.4.6-1.1.8-1.6.5l-.9-.6v1c0 .6.8 1.1 1.8 1.1l1.7.1-1.9 1.4-2 1.5h2.6l-1 1.3-1.1 1.3.9 1.4c.5.8.6 1.8.4 2.2-.3.4-1.1.8-1.7.8h-1.2l1.3-.9 1.4-.8-1.5-.6-1.5-.6.3 1.7c.1.9 0 2.1-.4 2.7-.3.5-.6 1.6-.7 2.2-.1.7.3 1.3.9 1.3h1.2l-1.3.8c-.7.5-1.6 2.3-2.1 4l-1 3.2h1.9l-1.2 1.9-1.2 2-1.1-.7-1-.6 1.4 1.7c.7.9 1.1 1.8.7 1.8-.3.1-1 .2-1.5.3-.5 0-1.3.5-1.8 1l-.8.9 1.2-.7 1.2-.6.5.9.6 1-1.9.6c-1.1.3-2.2 1.2-2.5 2l-.5 1.5h.9c.6 0 1-.5 1-1.2 0-.6.3-.9.6-.5.3.3.1 1.4-.4 2.4-.6 1-1.4 1.8-1.9 1.8-.4 0-.8 1.2-.8 2.6l.1 2.6-1.8-.5-1.7-.4-1.3 1.3c-.7.8-1.4 2.2-1.6 3.1l-.3 1.8h1.3l1.3.1-2.5 1.3c-1.4.8-2.7 1.3-3 1.1s-.6.5-.6 1.6v1.9l1.4-.5 1.3-.5-.7 1.1-.6 1.1-2.3-.6-2.2-.6-1.1 2.5c-.6 1.4-1.6 2.5-2.2 2.5-.5 0-1 .5-1 1.1v1.1l1.6-.6 1.5-.6-.6 1c-.3.6-1.2 1-2 1-.7 0-1.5-.5-1.7-1l-.3-1-1.4 2.1-1.3 2.2 1.6-.6 1.5-.6-.5 1.4-.6 1.4-2.6-1.6c-1.5-.9-2.4-1.3-2-.9l.7.8-1.4 1.4c-.7.8-2.1 1.4-3 1.4h-1.6l.6 1 .6 1-1.5.1c-.9.1-2.2.2-2.8.3l-1.3.2.3 1.2.2 1.2-2.7 1.1-2.6 1-1-1.3-.9-1.3.5 2.2.5 2.2-1.6-.6-1.5-.6.7 1.1.7 1.2h-2c-1.1 0-2.3.5-2.6 1-.4.6-2.2 1.7-4.2 2.5-1.9.8-4 1.5-4.5 1.5h-1l.6-1.8.6-1.7-1.4 1.9-1.5 1.8-1-.7-1.1-.6-1.6.9-1.7.9 1.2.7 1.1.7v-1c0-.6.5-1.1 1-1.1.6 0 1 .6 1 1.4v1.4l-3.1-.5-3.1-.5.7 1.1c.3.6.4 1.1.1 1.1-.2 0-1.2.3-2 .6l-1.6.6.6-1.6c.3-.9.3-1.6-.1-1.6-.3 0-1.3.7-2.1 1.5l-1.5 1.5h1c.6 0 1.1.5 1.1 1v1.1l-1.8-1c-1-.5-2.5-.9-3.3-.8-.8.2-2 .6-2.7 1l-1.2.8.6 1.1.7 1.1-1.1-.7-1.2-.7 1.1-2 1.1-2.1-2.4 1.2c-1.3.7-3.4 2.2-4.7 3.4-1.3 1.1-2.1 1.5-1.7.8l.7-1.2h-.9c-.5 0-1.4 1-2.1 2.2l-1.2 2.3.5-1.7.5-1.6-1.4-.6-1.4-.5.5 1.3.5 1.3-1.5.6-1.5.6.6-1.5.5-1.4h-.7c-.4 0-1.4.8-2.1 1.7l-1.4 1.8 1-3 1.1-3-2.4 2.7c-1.3 1.6-2.8 2.8-3.2 2.8s-.5-.6-.2-1.3l.5-1.4h-1.4c-.7 0-1.1.4-.8.8.2.4 0 1-.6 1.4l-1 .6v-3.6l-1.8 2.3-1.8 2.3v-4l1.1.6 1 .6-.8-.8c-.4-.5-1.4-1-2.3-1.1l-1.5-.2-.5 1.2-.5 1.3-2-.2c-1.1-.1-2.5-.8-3-1.6l-.9-1.4v4l-.8-1c-.4-.6-1.8-1.2-3-1.2l-2.4-.2.6 1.4.5 1.4-1.4-.6-1.5-.5.7-1.1.6-1-1.1.7-1.1.6-.6-1c-.3-.5-1.2-1-1.8-1h-1.2l1.5 1c.8.5 1.3 1 1 1.1-.3 0-1.5.2-2.7.3l-2.2.3.6-1 .6-1-2.1.5-2.2.6 1.1-2.1 1.1-2.2-1.3 1.2c-.7.7-1.7 1.3-2.2 1.3h-.8l.7-1.3c.4-.6-.3-.3-1.5.7l-2.2 2 .7-1.7.6-1.7h-1.1c-.6 0-1.1.6-1.1 1.2l-.1 1.3-1-1.7-1-1.7-1.5.6-1.5.6.6 1.6.6 1.6-2.3-2.1-2.3-2.1-1.4.5-1.4.5.7-1.1.6-1-1.5-.6-1.4-.5-.7 1.1-.7 1.1 1.3-.8 1.3-.8-.7 1.1-.7 1.1-1.4-.6c-.8-.3-1.5-1-1.5-1.6s-.3-.8-.6-.4c-.4.3-1.3-.1-2.1-.9l-1.6-1.5-1.3.5c-.8.3-1.4.2-1.4-.2s-.9-1.3-2-2-2-.9-1.9-.5c.1.5.1 1.2 0 1.8-.1.5-.7-.1-1.4-1.4-.6-1.4-1.8-2.6-2.6-2.9l-1.4-.5.7 1.2c.4.6.5 1.1.2 1.1-.2 0-1.2.3-2.1.7l-1.7.6 1.2-2.2c.6-1.3.9-2.5.6-2.9-.3-.3-.6 0-.6.6v1.2l-2.4-1.1-2.4-1.1.2-1.2c.2-.6.1-.8-.1-.4-.3.5-1.1.8-1.8.8-.8 0-1.8-.6-2.2-1.3-.4-.8-2.9-2.6-5.4-4l-4.6-2.7-.8.8-.8.7.7-1.3.7-1.2h-1c-.6 0-1.1-.7-1.1-1.5V673h-3.2l1.3 1.7 1.4 1.8-1.7-1.3-1.7-1.3.6-1.7.7-1.7-1.9 1.5-1.9 1.5.9-1.4.8-1.4-1.6.6-1.6.6-.6-1-.6-.9-1.1.6-1 .6 1.2-2.2 1.2-2.2-2.2 1.2-2.2 1.2.6-1.1.7-1.1-.7-1.1-.6-1.1-1 1.3-.9 1.4.6-2.3.6-2.2-1.6-.6-1.6-.7.5-1.3.5-1.4-1.1.3-1.2.2-.4-1.9c-.2-1.1-1.9-3.4-3.8-5.1-1.9-1.8-3.4-3.6-3.4-4s.7-.1 1.7.6l1.6 1.4-1.4-2.3c-.8-1.2-1.7-2.2-2.2-2.2h-.8l.6-1 .7-1.1-1.2-1.4c-.7-.8-.9-1.5-.5-1.5s0-1.1-.9-2.5l-1.7-2.6.6-.9.6-1h-2.8l.2-3 .2-3h-2.6l.4-2 .4-1.9-2.7-2.1-2.7-2 1.8.6 1.7.6v-1.1c0-.6-.3-1.1-.7-1.1-.5 0-.9-1-1-2.3-.2-1.2-.5-3.6-.7-5.2-.2-1.7-.5-3.2-.7-3.5-.1-.3-.3-1-.4-1.5l-.5-1.5c-.1-.3-.3-1.4-.6-2.5-.2-1.1-.5-3-.6-4.3-.1-1.2-.6-2.2-1.1-2.2-.4 0-.6-.4-.2-.9.3-.5 0-3.1-.6-5.8l-1.1-4.8.1-17.8.1-17.9 2-9.6 2-9.7 4.5-11c2.5-6.1 6.2-13.5 8.2-16.5s7.3-9.2 11.9-13.7c4.5-4.4 11.3-10.4 15.1-13.3l6.8-5.2 12-5.8c6.6-3.2 15.4-7 19.6-8.3 4.2-1.4 12.1-3.2 17.5-4.1s11.7-1.7 13.9-1.9 8.1-.4 13.1-.5M196 533h1.3l-.6.7-.7.6-.7-.6-.6-.7zm507.5 24c.3 0 .5.2.5.5s-.2.5-.5.5-.5-.2-.5-.5.2-.5.5-.5m1.1 13c.2 0 0 .9-.6 2s-1.3 2-1.6 2c-.2 0 0-.9.6-2s1.3-2 1.6-2m1.9 3c.3 0 .5.2.5.5s-.2.5-.5.5-.5-.2-.5-.5.2-.5.5-.5m-490 2c.3 0 .5.2.5.5s-.2.5-.5.5-.5-.2-.5-.5.2-.5.5-.5m487 3c.3 0 .5.2.5.5s-.2.5-.5.5-.5-.2-.5-.5.2-.5.5-.5m-508 1c.3 0 .5.2.5.5s-.2.5-.5.5-.5-.2-.5-.5.2-.5.5-.5m510 1c.3 0 .5.2.5.5s-.2.5-.5.5-.5-.2-.5-.5.2-.5.5-.5m2 4c.3 0 .5.2.5.5s-.2.5-.5.5-.5-.2-.5-.5.2-.5.5-.5m2 1c.3 0 .5.2.5.5s-.2.5-.5.5-.5-.2-.5-.5.2-.5.5-.5m1 4c.3 0 .5.2.5.5s-.2.5-.5.5-.5-.2-.5-.5.2-.5.5-.5m-4 3c.3 0 .5.2.5.5s-.2.5-.5.5-.5-.2-.5-.5.2-.5.5-.5m3 0c.3 0 .5.2.5.5s-.2.5-.5.5-.5-.2-.5-.5.2-.5.5-.5m-504 1c.3 0 .5.2.5.5s-.2.5-.5.5-.5-.2-.5-.5.2-.5.5-.5m3 1c.3 0 .5.2.5.5s-.2.5-.5.5-.5-.2-.5-.5.2-.5.5-.5m-6 1c.3 0 .5.2.5.5s-.2.5-.5.5-.5-.2-.5-.5.2-.5.5-.5m503.9 0c.2 0 .7.7 1 1.6l.6 1.5-1-.6c-.6-.3-1-1-1-1.6 0-.5.2-.9.4-.9m3.1 0c.3 0 .5.2.5.5s-.2.5-.5.5-.5-.2-.5-.5.2-.5.5-.5m-513 1c.3 0 .5.2.5.5s-.2.5-.5.5-.5-.2-.5-.5.2-.5.5-.5m60 3c.3 0 .5.2.5.5s-.2.5-.5.5-.5-.2-.5-.5.2-.5.5-.5m450.9 3c.3 0 .8.4 1.1 1 .3.5.4 1 .1 1s-.8-.5-1.1-1c-.3-.6-.4-1-.1-1m-509.9 5c.3 0 .5.2.5.5s-.2.5-.5.5-.5-.2-.5-.5.2-.5.5-.5m510.1 2c.2 0 .4.2.4.4 0 .3-.5.8-1.2 1.2l-1.1.7.7-1.1c.4-.7.9-1.2 1.2-1.2m-512.1 3c.3 0 .5.2.5.5s-.2.5-.5.5-.5-.2-.5-.5.2-.5.5-.5m5 1c.3 0 .5.2.5.5s-.2.5-.5.5-.5-.2-.5-.5.2-.5.5-.5m256 1c.3 0 .5.2.5.5s-.2.5-.5.5-.5-.2-.5-.5.2-.5.5-.5m-251 1c.3 0 .5.2.5.5s-.2.5-.5.5-.5-.2-.5-.5.2-.5.5-.5m23 0c.3 0 .5.2.5.5s-.2.5-.5.5-.5-.2-.5-.5.2-.5.5-.5m230 1c.3 0 .5.2.5.5s-.2.5-.5.5-.5-.2-.5-.5.2-.5.5-.5m-250 1c.3 0 .5.2.5.5s-.2.5-.5.5-.5-.2-.5-.5.2-.5.5-.5m4 1c.3 0 .5.2.5.5s-.2.5-.5.5-.5-.2-.5-.5.2-.5.5-.5m11 0c.3 0 .5.2.5.5s-.2.5-.5.5-.5-.2-.5-.5.2-.5.5-.5m41 0c.3 0 .5.2.5.5s-.2.5-.5.5-.5-.2-.5-.5.2-.5.5-.5m-62 2c.3 0 .5.2.5.5s-.2.5-.5.5-.5-.2-.5-.5.2-.5.5-.5m499.1 0c.2 0 .4.4.4 1 0 .5-.5 1-1.1 1h-1l.6-1c.3-.6.8-1 1.1-1m2.9 1c.3 0 .5.2.5.5s-.2.5-.5.5-.5-.2-.5-.5.2-.5.5-.5m-498 2c.3 0 .5.2.5.5s-.2.5-.5.5-.5-.2-.5-.5.2-.5.5-.5m1.9 1c.3 0 .8.4 1.1 1 .3.5.4 1 .1 1s-.8-.5-1.1-1c-.3-.6-.4-1-.1-1m6.1 0c.3 0 .5.2.5.5s-.2.5-.5.5-.5-.2-.5-.5.2-.5.5-.5m-10 1c.3 0 .5.2.5.5s-.2.5-.5.5-.5-.2-.5-.5.2-.5.5-.5m-6.7 1c.2 0 0 .4-.3 1-.3.5-1.2 1-1.8 1h-1.2l1.5-1c.8-.5 1.6-1 1.8-1m18.7 0c.3 0 .5.2.5.5s-.2.5-.5.5-.5-.2-.5-.5.2-.5.5-.5m488 0c.3 0 .5.2.5.5s-.2.5-.5.5-.5-.2-.5-.5.2-.5.5-.5m-500 3c.3 0 .5.2.5.5s-.2.5-.5.5-.5-.2-.5-.5.2-.5.5-.5m2 0c.3 0 .5.2.5.5s-.2.5-.5.5-.5-.2-.5-.5.2-.5.5-.5m493.2.3.6.7-.6.7-.7.6v-2.6zM198 630h1.3l-.6.7-.7.6-.7-.6-.6-.7zm33.5 1c.3 0 .5.2.5.5s-.2.5-.5.5-.5-.2-.5-.5.2-.5.5-.5m470 0c.3 0 .5.2.5.5s-.2.5-.5.5-.5-.2-.5-.5.2-.5.5-.5m-505 3c.3 0 .5.2.5.5s-.2.5-.5.5-.5-.2-.5-.5.2-.5.5-.5m502 2c.3 0 .5.2.5.5s-.2.5-.5.5-.5-.2-.5-.5.2-.5.5-.5m-231.8 2.3.6.7-.6.7-.7.6v-2.6zm-254.2.7c.3 0 .5.2.5.5s-.2.5-.5.5-.5-.2-.5-.5.2-.5.5-.5m58 0c.3 0 .5.2.5.5s-.2.5-.5.5-.5-.2-.5-.5.2-.5.5-.5m427 0c.3 0 .5.2.5.5s-.2.5-.5.5-.5-.2-.5-.5.2-.5.5-.5m-501 1c.3 0 .5.2.5.5s-.2.5-.5.5-.5-.2-.5-.5.2-.5.5-.5m10 3c.3 0 .5.2.5.5s-.2.5-.5.5-.5-.2-.5-.5.2-.5.5-.5m-10.5 1h1.3l-.6.7-.7.6-.7-.6-.6-.7zm499.5 0c.3 0 .5.2.5.5s-.2.5-.5.5-.5-.2-.5-.5.2-.5.5-.5m-421 2c.3 0 .5.2.5.5s-.2.5-.5.5-.5-.2-.5-.5.2-.5.5-.5m-68 1c.3 0 .5.2.5.5s-.2.5-.5.5-.5-.2-.5-.5.2-.5.5-.5m-10 7c.3 0 .5.2.5.5s-.2.5-.5.5-.5-.2-.5-.5.2-.5.5-.5m492 2c.3 0 .5.2.5.5s-.2.5-.5.5-.5-.2-.5-.5.2-.5.5-.5m-484 4c.3 0 .5.2.5.5s-.2.5-.5.5-.5-.2-.5-.5.2-.5.5-.5m483 1c.3 0 .5.2.5.5s-.2.5-.5.5-.5-.2-.5-.5.2-.5.5-.5m-481 1c.3 0 .5.2.5.5s-.2.5-.5.5-.5-.2-.5-.5.2-.5.5-.5m-10 2c.3 0 .5.2.5.5s-.2.5-.5.5-.5-.2-.5-.5.2-.5.5-.5m7 0c.3 0 .5.2.5.5s-.2.5-.5.5-.5-.2-.5-.5.2-.5.5-.5m12 0c.3 0 .5.2.5.5s-.2.5-.5.5-.5-.2-.5-.5.2-.5.5-.5m461.9 2c.3 0 .8.4 1.1 1 .3.5.4 1 .1 1s-.8-.5-1.1-1c-.3-.6-.4-1-.1-1m-477.9 2c.3 0 .5.2.5.5s-.2.5-.5.5-.5-.2-.5-.5.2-.5.5-.5m467 9c.3 0 .5.2.5.5s-.2.5-.5.5-.5-.2-.5-.5.2-.5.5-.5m-469 5c.3 0 .5.2.5.5s-.2.5-.5.5-.5-.2-.5-.5.2-.5.5-.5m457 3c.3 0 .5.2.5.5s-.2.5-.5.5-.5-.2-.5-.5.2-.5.5-.5m-144 1c.3 0 .5.2.5.5s-.2.5-.5.5-.5-.2-.5-.5.2-.5.5-.5m138 2c.3 0 .5.2.5.5s-.2.5-.5.5-.5-.2-.5-.5.2-.5.5-.5m1 2c.3 0 .5.2.5.5s-.2.5-.5.5-.5-.2-.5-.5.2-.5.5-.5m-6 1c.3 0 .5.2.5.5s-.2.5-.5.5-.5-.2-.5-.5.2-.5.5-.5M196 692h1.3l-.6.7-.7.6-.7-.6-.6-.7zm12.5 1c.3 0 .5.2.5.5s-.2.5-.5.5-.5-.2-.5-.5.2-.5.5-.5m426 0c.3 0 .5.2.5.5s-.2.5-.5.5-.5-.2-.5-.5.2-.5.5-.5m6 0c.3 0 .5.2.5.5s-.2.5-.5.5-.5-.2-.5-.5.2-.5.5-.5m-432 2c.3 0 .5.2.5.5s-.2.5-.5.5-.5-.2-.5-.5.2-.5.5-.5m321 0c.3 0 .5.2.5.5s-.2.5-.5.5-.5-.2-.5-.5.2-.5.5-.5m2 1c.3 0 .5.2.5.5s-.2.5-.5.5-.5-.2-.5-.5.2-.5.5-.5m11 3c.3 0 .5.2.5.5s-.2.5-.5.5-.5-.2-.5-.5.2-.5.5-.5m67 1c.3 0 .5.2.5.5s-.2.5-.5.5-.5-.2-.5-.5.2-.5.5-.5m9 0c.3 0 .5.2.5.5s-.2.5-.5.5-.5-.2-.5-.5.2-.5.5-.5m-70 1c.3 0 .5.2.5.5s-.2.5-.5.5-.5-.2-.5-.5.2-.5.5-.5m34.2.3.6.7-.6.7-.7.6v-2.6zm28.7.7c.3 0 .8.4 1.1 1 .3.5.4 1 .1 1s-.8-.5-1.1-1c-.3-.6-.4-1-.1-1m-45.9 1c.3 0 .5.2.5.5s-.2.5-.5.5-.5-.2-.5-.5.2-.5.5-.5m16.5 1h1.3l-.6.7-.7.6-.7-.6-.6-.7zm11.5 2c.3 0 .5.2.5.5s-.2.5-.5.5-.5-.2-.5-.5.2-.5.5-.5m339 244c.3 0 .5.2.5.5s-.2.5-.5.5-.5-.2-.5-.5.2-.5.5-.5m21 1c.3 0 .5.2.5.5s-.2.5-.5.5-.5-.2-.5-.5.2-.5.5-.5"/><path d="M703.5 587c-.3 0-.5.2-.5.5s.2.5.5.5.5-.2.5-.5-.2-.5-.5-.5m-1 3c-.3 0-.5.2-.5.5s.2.5.5.5.5-.2.5-.5-.2-.5-.5-.5m-6 38c-.3 0-.5.2-.5.5s.2.5.5.5.5-.2.5-.5-.2-.5-.5-.5m-7.6 20.4-1.2-.7.7 1.1.6 1-1.2.5-1.3.5 1.2.1c.6.1 1.4-.3 1.8-.8l.5-1zM478.5 657c-.3 0-.5.2-.5.5s.2.5.5.5.5-.2.5-.5-.2-.5-.5-.5m196 10c-.3 0-.5.2-.5.5s.2.5.5.5.5-.2.5-.5-.2-.5-.5-.5m-186 2c-.3 0-.5.2-.5.5s.2.5.5.5.5-.2.5-.5-.2-.5-.5-.5m179.5 2h-1.3l.6.7.7.6.7-.6.6-.7zm-167.5 5c-.3 0-.5.2-.5.5s.2.5.5.5.5-.2.5-.5-.2-.5-.5-.5m4 2c-.3 0-.5.2-.5.5s.2.5.5.5.5-.2.5-.5-.2-.5-.5-.5m6 3c-.3 0-.5.2-.5.5s.2.5.5.5.5-.2.5-.5-.2-.5-.5-.5m143 0c-.3 0-.5.2-.5.5s.2.5.5.5.5-.2.5-.5-.2-.5-.5-.5m-6 1c-.3 0-.5.2-.5.5s.2.5.5.5.5-.2.5-.5-.2-.5-.5-.5m-5 6c-.3 0-.5.2-.5.5s.2.5.5.5.5-.2.5-.5-.2-.5-.5-.5m-4 1c-.3 0-.5.2-.5.5s.2.5.5.5.5-.2.5-.5-.2-.5-.5-.5m-102 5c-.3 0-.5.2-.5.5s.2.5.5.5.5-.2.5-.5-.2-.5-.5-.5m6 0c-.3 0-.5.2-.5.5s.2.5.5.5.5-.2.5-.5-.2-.5-.5-.5m77 0c-.3 0-.5.2-.5.5s.2.5.5.5.5-.2.5-.5-.2-.5-.5-.5m-73 1c-.3 0-.5.2-.5.5s.2.5.5.5.5-.2.5-.5-.2-.5-.5-.5m54.5 3h-1.3l.6.7.7.6.7-.6.6-.7zm5.5 0c-.3 0-.5.2-.5.5s.2.5.5.5.5-.2.5-.5-.2-.5-.5-.5m-46 1c-.3 0-.5.2-.5.5s.2.5.5.5.5-.2.5-.5-.2-.5-.5-.5m19.2.3-.7-.6v2.6l.7-.6.6-.7zm6.8-.3c-.3 0-.5.2-.5.5s.2.5.5.5.5-.2.5-.5-.2-.5-.5-.5m-9 2c-.3 0-.5.2-.5.5s.2.5.5.5.5-.2.5-.5-.2-.5-.5-.5m-384-112c-.3 0-.5.2-.5.5s.2.5.5.5.5-.2.5-.5-.2-.5-.5-.5"/></g><g fill="#404040" stroke-width="0"><path d="M959.5 192c-.3 0-.5.2-.5.5s.2.5.5.5.5-.2.5-.5-.2-.5-.5-.5m-379 257.4h-11l5.8.3c3.2.2 8.1.2 11 0s.3-.3-5.8-.3m-19 .8h-3l1.8.5c.9.2 2.3.2 3 0 .6-.3-.1-.5-1.8-.5m33.5 0h-3.5l1.8.5c.9.2 2.5.2 3.5 0l1.7-.5zm-41.6.9-1.9.1 1.3.5c.7.3 1.6.2 1.9-.1.4-.3-.2-.6-1.3-.5m48 0-1.9.1 1.3.5c.7.3 1.6.2 1.9-.1.4-.3-.2-.6-1.3-.5m-53.4.9h-1.3l.6.7.7.6.7-.6.6-.7zm59 .2h-2.5l1.3.5c.6.2 1.8.2 2.5 0l1.2-.5zm-63.6.9-1.9.1 1.3.5c.7.3 1.6.2 1.9-.1.4-.3-.2-.6-1.3-.5m67.6.1c-.8 0 .1.6 2 1.3s4.2 1.3 5 1.3-.1-.6-2-1.3-4.2-1.3-5-1.3m-71 .8h-1.3l.6.7.7.6.7-.6.6-.7zm-3 1.1c-.8 0-2.2.4-3 .9s-1 .9-.5.9c.6 0 1.9-.4 3-.9l2-.9zm84 .9h-1.3l.6.7.7.6.7-.6.6-.7zm-90 1h-1.3l.6.7.7.6.7-.6.6-.7zm92.5 0h-1l1.5 1c.8.5 2 1 2.5 1h1l-1.5-1c-.8-.5-1.9-1-2.5-1m-95 1.1c-.5 0-3.2 1.1-6 2.4-2.7 1.3-4.5 2.3-4 2.4.6 0 3.3-1.1 6-2.4 2.8-1.3 4.6-2.3 4-2.4m100.5.9h-1.3l.6.7.7.6.7-.6.6-.7zm2.5 1c-.3 0-.5.2-.5.5s.2.5.5.5.5-.2.5-.5-.2-.5-.5-.5m2.4 1c-.5 0-.9.2-.9.4s.7.7 1.6 1l1.5.6-.6-1c-.3-.6-1-1-1.6-1m-117.1 2c-.2 0-3.6 1.8-7.7 4-4 2.2-9.9 6-13 8.4s-8.7 7.4-12.6 11.1l-7 6.7 9-7.9c5-4.3 11-9.2 13.5-10.9s7.5-4.7 11.3-6.8c3.7-2 6.7-3.9 6.7-4.1 0-.3-.1-.5-.2-.5m121.2 0h-1.3l.6.7.7.6.7-.6.6-.7zm2.4 1c-.3 0-.2.4.1 1 .3.5.8 1 1.1 1s.2-.5-.1-1c-.3-.6-.8-1-1.1-1m3.1 2c-.3 0-.5.2-.5.5s.2.5.5.5.5-.2.5-.5-.2-.5-.5-.5m1.9 1c-.3 0-.2.4.1 1 .3.5.8 1 1.1 1s.2-.5-.1-1c-.3-.6-.8-1-1.1-1m3 2c-.3 0-.2.4.1 1 .3.5.8 1 1.1 1s.2-.5-.1-1c-.3-.6-.8-1-1.1-1m3 2c-.3 0-.2.4.1 1 .3.5.8 1 1.1 1s.2-.5-.1-1c-.3-.6-.8-1-1.1-1m-86.9 2c-.3 0-.5.2-.5.5s.2.5.5.5.5-.2.5-.5-.2-.5-.5-.5m89.9 0c-.2 0-.4.2-.4.4s.8 1 1.8 1.7l1.7 1.4-1.4-1.8c-.7-.9-1.5-1.7-1.7-1.7m-90.9 3c-.3 0-.5.2-.5.5s.2.5.5.5.5-.2.5-.5-.2-.5-.5-.5m98.7 3.6-4.7-3.8 4.3 4.2c2.4 2.3 4.5 4 4.7 3.8.3-.2-1.7-2.1-4.3-4.2m-98.7 2.4c-.3 0-.5.2-.5.5s.2.5.5.5.5-.2.5-.5-.2-.5-.5-.5m1 3c-.3 0-.5.2-.5.5s.2.5.5.5.5-.2.5-.5-.2-.5-.5-.5m104 0c-.3 0-.5.2-.5.5s.2.5.5.5.5-.2.5-.5-.2-.5-.5-.5m.6 2c-.3 0 1 1.6 2.9 3.5s3.6 3.5 3.9 3.5-1-1.6-2.9-3.5-3.6-3.5-3.9-3.5m-193.6 7c-.3 0-.5.2-.5.5s.2.5.5.5.5-.2.5-.5-.2-.5-.5-.5m203.8 4.2-3.4-3.7 3.6 4.9c2 2.7 4.5 6.6 5.6 8.8 1.1 2.1 2.2 3.8 2.5 3.8s-.7-2.3-2.2-5c-1.5-2.8-4.3-6.8-6.1-8.8M473.6 497c-.2 0-1 .8-1.7 1.7l-1.4 1.8 1.8-1.4c.9-.7 1.7-1.5 1.7-1.7s-.2-.4-.4-.4m-3 4c-.3 0-.8.5-1.2 1.2l-.7 1.1 1.1-.7c.7-.4 1.2-.9 1.2-1.2 0-.2-.2-.4-.4-.4m-2.1 3c-.2 0-1.4 1.8-2.5 4.1-1.2 2.3-2 4.3-1.8 4.5.3.2 1.4-1.7 2.6-4.1 1.2-2.5 2-4.5 1.7-4.5m221 11c-.8-1.4-1.4-2.1-1.4-1.5 0 .5.6 2.1 1.4 3.5s1.4 2 1.4 1.5c0-.6-.6-2.1-1.4-3.5m-226-1c-.3 0-.5.2-.5.5s.2.5.5.5.5-.2.5-.5-.2-.5-.5-.5m-.8 2.4c-.2-.3-.7.2-1.1 1.1-.3.9-.6 2-.6 2.3 0 .4.5-.1 1.1-1.1s.9-2.1.6-2.3m229.2 4.1c-.5-.5-.2 1.2.7 3.8.9 2.7 1.8 4.6 2 4.4s-.1-1.9-.7-3.8c-.7-1.9-1.6-3.8-2-4.4m-231.2.8-.7-.6v2.6l.7-.6.6-.7zm-1.2 2.7c-.3 0-.5.2-.5.5s.2.5.5.5.5-.2.5-.5-.2-.5-.5-.5m-1 2c-.3 0-.5.2-.5.5s.2.5.5.5.5-.2.5-.5-.2-.5-.5-.5m-.8 2.3-.7-.6v2.6l.7-.6.6-.7zM696 530h-1.3l.6.7.7.6.7-.6.6-.7zm-239.4 1.3c-.3-.4-.6.2-.5 1.3l.1 1.9.5-1.3c.3-.7.2-1.6-.1-1.9m240.4 2.2-.9-2v1.5c0 .8.4 2.2.9 3s.9 1 .9.5c0-.6-.4-1.9-.9-3m-156.5.5c-.3 0-.5.2-.5.5s.2.5.5.5.5-.2.5-.5-.2-.5-.5-.5m-84.9 3.3c-.3-.4-.6.2-.5 1.3l.1 1.9.5-1.3c.3-.7.2-1.6-.1-1.9m243 2c-.3-.4-.6.2-.5 1.3l.1 1.9.5-1.3c.3-.7.2-1.6-.1-1.9m-146.1.7c-.3 0-.5.2-.5.5s.2.5.5.5.5-.2.5-.5-.2-.5-.5-.5m-97.9 2.3c-.2-.2-.6 1.1-1 2.8-.3 1.7-.5 4.8-.5 6.8l.2 3.6.8-6.5c.4-3.5.7-6.6.5-6.7m244.9 2.7c-.3 0-.5.2-.5.5s.2.5.5.5.5-.2.5-.5-.2-.5-.5-.5m.7 3.6c-.4-.3-.9.4-.9 1.5-.1 1 0 1.9.2 1.9.1 0 .5-.7.8-1.5.4-.8.3-1.6-.1-1.9M555.5 552c-.3 0-.5.2-.5.5s.2.5.5.5.5-.2.5-.5-.2-.5-.5-.5m145 3c-.3 0-.5.2-.5.5s.2.5.5.5.5-.2.5-.5-.2-.5-.5-.5m-247 1c-.3 0-.5.2-.5.5s.2.5.5.5.5-.2.5-.5-.2-.5-.5-.5m90 0c-.3 0-.5.2-.5.5s.2.5.5.5.5-.2.5-.5-.2-.5-.5-.5m157 1c-.3 0-.5.2-.5.5s.2.5.5.5.5-.2.5-.5-.2-.5-.5-.5m3 0c-.3 0-.5.2-.5.5s.2.5.5.5.5-.2.5-.5-.2-.5-.5-.5m-155 1c-.3 0-.5.2-.5.5s.2.5.5.5.5-.2.5-.5-.2-.5-.5-.5m-96 3c-.3 0-.5.2-.5.5s.2.5.5.5.5-.2.5-.5-.2-.5-.5-.5m248 0c-.3 0-.5.2-.5.5s.2.5.5.5.5-.2.5-.5-.2-.5-.5-.5m0 3c-.3 0-.5.2-.5.5s.2.5.5.5.5-.2.5-.5-.2-.5-.5-.5m.3 3.5c-.2-.3-.6 1.2-.7 3.2-.1 2.1-.3 4.9-.4 6.2l-.2 2.4 1.3.5 1.4.4-1.1-2.1-1.2-2.1h2l-.6-1.7-.6-1.6 1.1.7 1.1.7 1.1-2.3 1.1-2.3-1.5 1.9c-.9 1.1-1.6 1.8-1.7 1.5 0-.2-.2-1.4-.3-2.6-.2-1.3-.5-2.5-.8-2.8m-247.1 2.8-.7-.6v2.6l.7-.6.6-.7zm-.2 2.7c-.3 0-.5.2-.5.5s.2.5.5.5.5-.2.5-.5-.2-.5-.5-.5m253 0c-.3 0-.5.2-.5.5s.2.5.5.5.5-.2.5-.5-.2-.5-.5-.5M453 575c-.4 0-.5 2.2-.3 4.9.1 2.7.7 7 1.3 9.6.6 2.5.8 5.1.5 5.6-.4.5-.2.9.2.9.5 0 1 1 1.1 2.2.1 1.3.4 3.2.6 4.3.3 1.1.5 2.2.6 2.5l.5 1.5c.1.5.3 1.2.4 1.5.2.3.5 1.8.7 3.5.2 1.6.5 4 .7 5.2.1 1.3.5 2.3 1 2.3.4 0 .7.5.7 1.1v1.1l-1.7-.6-1.8-.6 2.7 2 2.7 2.1-.4 1.9-.4 2h2.6l-.2 3-.2 3h2.8l-.6 1-.6.9 1.7 2.6c.9 1.4 1.3 2.5.9 2.5s-.2.7.5 1.5l1.2 1.4-.7 1.1-.6 1h.8c.5 0 1.4 1 2.2 2.2l1.4 2.3-1.6-1.4c-1-.7-1.7-1-1.7-.6s1.5 2.2 3.4 4c1.9 1.7 3.6 4 3.8 5.1l.4 1.9 1.2-.2 1.1-.3-.5 1.4-.5 1.3 1.6.7 1.6.6-.6 2.2-.6 2.3.9-1.4 1-1.3.6 1.1.7 1.1-.7 1.1-.6 1.1 2.2-1.2 2.2-1.2-1.2 2.2-1.2 2.2 1-.6 1.1-.6.6.9.6 1 1.6-.6 1.6-.6-.8 1.4-.9 1.4 1.9-1.5 1.9-1.5-.7 1.7-.6 1.7 1.7 1.3 1.7 1.3-1.4-1.8-1.3-1.7h3.2v1.5c0 .8.5 1.5 1.1 1.5h1l-.7 1.2-.7 1.3.8-.7.8-.8 4.6 2.7c2.5 1.4 5 3.2 5.4 4 .4.7 1.4 1.3 2.2 1.3.7 0 1.5-.3 1.8-.8.2-.4.3-.2.1.4l-.2 1.2 2.4 1.1 2.4 1.1v-1.2c0-.6.3-.9.6-.6.3.4 0 1.6-.6 2.9l-1.2 2.2 1.7-.6c.9-.4 1.9-.7 2.1-.7.3 0 .2-.5-.2-1.1l-.7-1.2 1.4.5c.8.3 2 1.5 2.6 2.9.7 1.3 1.3 1.9 1.4 1.4.1-.6.1-1.3 0-1.8-.1-.4.8-.2 1.9.5s2 1.6 2 2 .6.5 1.4.2l1.3-.5 1.6 1.5c.8.8 1.7 1.2 2.1.9.3-.4.6-.2.6.4s.7 1.3 1.5 1.6l1.4.6.7-1.1.7-1.1-1.3.8-1.3.8.7-1.1.7-1.1 1.4.5 1.5.6-.6 1-.7 1.1 1.4-.5 1.4-.5 2.3 2.1 2.3 2.1-.6-1.6-.6-1.6 1.5-.6 1.5-.6 1 1.7 1 1.7.1-1.3c0-.6.5-1.2 1.1-1.2h1.1l-.6 1.7-.7 1.7 2.2-2c1.2-1 1.9-1.3 1.5-.7l-.7 1.3h.8c.5 0 1.5-.6 2.2-1.3l1.3-1.2-1.1 2.2-1.1 2.1 2.2-.6 2.1-.5-.6 1-.6 1 2.2-.3c1.2-.1 2.4-.3 2.7-.3.3-.1-.2-.6-1-1.1l-1.5-1h1.2c.6 0 1.5.5 1.8 1l.6 1 1.1-.6 1.1-.7-.6 1-.7 1.1 1.5.5 1.4.6-.5-1.4-.6-1.4 2.4.2c1.2 0 2.6.6 3 1.2l.8 1v-4l.9 1.4c.5.8 1.9 1.5 3 1.6l2 .2.5-1.3.5-1.2 1.5.2c.9.1 1.9.6 2.3 1.1l.8.8-1-.6-1.1-.6v4l1.8-2.3 1.8-2.3v3.6l1-.6c.6-.4.8-1 .6-1.4-.3-.4.1-.8.8-.8h1.4l-.5 1.4c-.3.7-.2 1.3.2 1.3s1.9-1.2 3.2-2.8l2.4-2.7-1.1 3-1 3 1.4-1.8c.7-.9 1.7-1.7 2.1-1.7h.7l-.5 1.4-.6 1.5 1.5-.6 1.5-.6-.5-1.3-.5-1.3 1.4.5 1.4.6-.5 1.6-.5 1.7 1.2-2.3c.7-1.2 1.6-2.2 2.1-2.2h.9l-.7 1.2c-.4.7.4.3 1.7-.8 1.3-1.2 3.4-2.7 4.7-3.4l2.4-1.2-1.1 2.1-1.1 2 1.2.7 1.1.7-.7-1.1-.6-1.1 1.2-.8c.7-.4 1.9-.8 2.7-1 .8-.1 2.3.3 3.3.8l1.8 1V698c0-.5-.5-1-1.1-1h-1l1.5-1.5c.8-.8 1.8-1.5 2.1-1.5.4 0 .4.7.1 1.6l-.6 1.6 1.6-.6c.8-.3 1.8-.6 2-.6.3 0 .2-.5-.1-1.1l-.7-1.1 3.1.5 3.1.5v-1.4c0-.8-.4-1.4-1-1.4-.5 0-1 .5-1 1.1v1l-1.1-.7-1.2-.7 1.7-.9 1.6-.9 1.1.6 1 .7 1.5-1.8 1.4-1.9-.6 1.7-.6 1.8h1c.5 0 2.6-.7 4.5-1.5 2-.8 3.8-1.9 4.2-2.5.3-.5 1.5-1 2.6-1h2l-.7-1.2-.7-1.1 1.5.6 1.6.6-.5-2.2-.5-2.2.9 1.3 1 1.3 2.6-1 2.7-1.1-.2-1.2-.3-1.2 1.3-.2c.6-.1 1.9-.2 2.8-.3l1.5-.1-.6-1-.6-1h1.6c.9 0 2.3-.6 3-1.4l1.4-1.4-.7-.8c-.4-.4.5 0 2 .9l2.6 1.6.6-1.4.5-1.4-1.5.6-1.6.6 1.3-2.2 1.4-2.1.3 1c.2.5 1 1 1.7 1 .8 0 1.7-.4 2-1l.6-1-1.5.6-1.6.6v-1.1c0-.6.5-1.1 1-1.1.6 0 1.6-1.1 2.2-2.5l1.1-2.5 2.2.6 2.3.6.6-1.1.7-1.1-1.3.5-1.4.5v-1.9c0-1.1.3-1.8.6-1.6s1.6-.3 3-1.1l2.5-1.3-1.3-.1h-1.3l.3-1.8c.2-.9.9-2.3 1.6-3.1l1.3-1.3 1.7.4 1.8.5-.1-2.8V647l.8.3c.5.1 1.3-.6 1.9-1.6.5-1 .7-2.1.4-2.4-.3-.4-.6-.1-.6.5 0 .7-.4 1.2-1 1.2h-.9l.5-1.5c.3-.8 1.4-1.7 2.5-2l1.9-.6-.6-1-.5-.9-1.2.6-1.2.7.8-.9c.5-.5 1.3-1 1.8-1 .5-.1 1.2-.2 1.5-.3.4 0 0-.9-.7-1.8l-1.4-1.7 1 .6 1.1.7 1.2-2 1.2-1.9h-1.9l1-3.2c.5-1.7 1.4-3.5 2.1-4l1.3-.8h-1.2c-.6 0-1-.6-.9-1.3.1-.6.4-1.7.7-2.2.4-.6.5-1.8.4-2.7l-.3-1.7 1.5.6 1.5.6-1.4.8-1.3.9h1.2c.6 0 1.4-.4 1.7-.8.2-.4.1-1.4-.4-2.2l-.9-1.4 1.1-1.3 1-1.3h-2.6l2-1.5 1.9-1.4-1.7-.1c-1 0-1.8-.5-1.8-1.1v-1l.9.6c.5.3 1.2.1 1.6-.5l.6-1-1.5-1.6c-.9-.8-1.6-1.8-1.6-2 0-.3.7-.4 1.6-.2l1.7.3.3-2.4.4-2.4-1.5 1.3-1.5 1.2v-1.5c0-.8.5-1.7 1.2-1.9l1.2-.4-.7-1.8-.7-1.7-1.2.6c-.7.4-.2-.3 1.1-1.4l2.3-2.1h-2.4l1.3-1.6 1.3-1.6-1.7-.9c-.9-.6-1.7-1.5-1.7-2v-1l1.2.7 1.1.7-.7-1.2c-.4-.6-1.1-.9-1.6-.6-.4.3-1-.1-1.3-.7l-.4-1.3-.8.7c-.5.5-.9 3.2-1 6.1s-.5 5.8-.9 6.5l-.7 1.2h.9c.6 0 1.3.7 1.6 1.6l.6 1.6-1.4-.5-1.4-.5.3 3.4.2 3.5-.9.5-.9.6.5 1.4.5 1.4h-1.8l.5 1.3.5 1.3-1.6 3c-.8 1.6-1.5 3.5-1.5 4.3s-.7 1.9-1.6 2.6l-1.7 1.2-.4 3.4c-.3 1.9-.5 3.8-.5 4.4 0 .5.3 1.9.8 2.9l.7 1.9-1.1-.7-1.1-.6-.6 1-.6 1-1.1-.6-1.1-.7.6 1.7.7 1.8-1.6-.6-1.7-.6 1.3 1.5c.7.8 1.6 1.3 1.9 1 .4-.2.8.2.8.9s-.6 1.3-1.3 1.3h-1.3l.6-1 .6-1-1.1.7c-.7.4-1.2 1.4-1.2 2.2s-.6 1.7-1.4 2l-1.5.6.5 1.3.5 1.2-1.8.7-1.7.7 1.4.9 1.5 1H677v2.1l1-.6 1-.6-.6 1.4-.5 1.4-2.4-.2-2.4-.3.6 1.4.5 1.5-2.1 1.8c-1.1 1-1.8 2.1-1.4 2.5.3.3.1.6-.5.6s-3.6 2.5-6.7 5.5L658 672h-4.2l-1.9 2.2-1.8 2.3-.1-1.3c0-.6.5-1.2 1.2-1.2.6 0 .9-.3.5-.6-.3-.3-1.3-.2-2.2.3-.9.6-1.6 1.4-1.6 1.9.1.5-.5.9-1.1.9l-1.3.1.3 1.2c.1.7-.5 1.5-1.3 1.8l-1.5.6.6.9.5.9h-3.2l.5-.8.5-.9h-2.8l.6 1 .6 1-1.6-.6-1.7-.6v3l-1.1-.6-1-.7-2 1.8-1.9 1.7V684h-3.1l.5.9.6.9-3.1 1.1c-1.7.6-3.5.9-3.9.6-.5-.3-2-.1-3.5.5l-2.6 1 .5.9.6.9-1.6.6c-.9.3-1.8.6-2 .6-.3 0-.3-1 0-2.3l.6-2.2-1.1 2.2c-.7 1.3-1.6 2.3-2.1 2.3-.4 0-.8-.5-.8-1 0-.6-.5-1-1.1-1h-1l.6 1.2c.4.7 0 .5-.8-.5l-1.5-1.8-.4 1.3-.4 1.2h-5c-2.7-.1-4.1.1-3.1.3.9.3 1.7.9 1.7 1.3v.9l-3.1-.6-3.1-.6-.9 1.4-.9 1.4v-3.7l-1.2.5c-.7.2-1.2.9-1.1 1.4l.2 1-3.4-1.1c-1.8-.6-3.1-1.4-2.9-1.8l.5-.8-1.6.6-1.6.6 1 1.2 1 1.2H580c-1 0-1.7-.3-1.4-.7.2-.4-.3-1-1.2-1.3s-1.8-.6-2-.6c-.3 0-.2 1 .1 2.2l.7 2.3-1.6-2-1.5-2-.1 1.2v1.2l-1.3-.5c-.8-.3-2.5 0-3.9.5l-2.6 1-.6-1.4-.5-1.4 1.7.6 1.7.6-1.2-1.3-1.2-1.3-1.3 1.1-1.4 1.1-1.4-.9-1.4-.9-1.8 1-1.8 1 .2-1.3.3-1.3-1.2.2c-.7.2-1.3-.2-1.3-.8v-1.1l-1.6.6-1.7.6 1.4-1.7 1.4-1.7-1.5.9c-.8.5-2.7.8-4.2.7l-2.8-.2v1c0 .5-.4 1-1 1h-.9l.5-1.5.6-1.5-1.8.7-1.7.6.8-1.4.9-1.4-1.7 1.4-1.7 1.3v-2l-1.7.2c-1 0-2.2.5-2.6 1.1l-.8 1 .7-2.5.7-2.5-1.8 1.5-1.9 1.5.8-1.3.7-1.2h-1c-.6 0-1.4 0-1.8-.1-.5-.1-1.6-.5-2.5-1l-1.8-1v3.5l-2-2.2c-1.1-1.2-2-2.6-2-3.2 0-.5-.5-1-1.1-1h-1l.6 1c.3.5.4 1 .2 1-.3 0-2.1-.7-4.1-1.5L513 679v-2.5l-.9 1.4-.9 1.3-.9-1.7-1-1.8H504l.5-.7c.3-.5.2-1.5-.1-2.4s-1.1-1.6-1.6-1.6h-1l1.2 1.5 1.3 1.5-2.4-.8c-1.3-.5-2.4-1.3-2.3-1.8 0-.5-.5-1.4-1.1-1.9-.6-.6-2-1.5-3-2.2-1.1-.6-1.9-1.6-1.7-2.3l.2-1.1-1 .6-1 .6-1.7-1.1-1.8-1.2 1.7.6 1.7.5-.6-1.4c-.3-.8-.9-1.3-1.3-1-.4.2-1.8-.5-3.1-1.8-1.3-1.2-3-3.3-3.7-4.7l-1.3-2.5.6 1.9.5 1.9-1.5-1.3c-.8-.7-1.5-1.9-1.5-2.6 0-.8-.4-1.4-1-1.4-.5 0-1.9-1.9-3-4.2s-2-4.8-2-5.5-.6-1.4-1.2-1.4c-.7-.1-1.7-.1-2.2 0l-.9.2 1.2-1.5 1.2-1.5-1.1-2c-.6-1.2-1.6-2.1-2.3-2.1h-1.2l1.5-1 1.5-1H468v-3.1l-1.2.7-1.1.7.6-1.6.6-1.7h-1c-.5 0-.9-.6-.8-1.3.1-.6-.4-2.7-1.2-4.5-.7-1.7-1.7-3.2-2.2-3.2-.4 0-.6-.4-.3-.9.4-.5.1-2.2-.5-3.8-.6-1.5-1.3-3.7-1.6-4.8s-.6-3.2-.8-4.6c-.2-1.5-.6-4.1-1-5.8-.4-1.8-.9-4.2-1.1-5.4s-.9-5.5-1.6-9.5c-.6-3.9-1.5-7.2-1.8-7.2m250.5 12c.3 0 .5.2.5.5s-.2.5-.5.5-.5-.2-.5-.5.2-.5.5-.5m-1 3c.3 0 .5.2.5.5s-.2.5-.5.5-.5-.2-.5-.5.2-.5.5-.5m-5.8 23.3.6.7-.6.7-.7.6v-2.6zm-4.3 8.8c1.1-.1 1.7.2 1.3.5-.3.3-1.2.4-1.9.1l-1.3-.5zm4.1 5.9c.3 0 .5.2.5.5s-.2.5-.5.5-.5-.2-.5-.5.2-.5.5-.5m-224 13c.3 0 .5.2.5.5s-.2.5-.5.5-.5-.2-.5-.5.2-.5.5-.5m210 7c.3 0 .5.2.5.5s-.2.5-.5.5-.5-.2-.5-.5.2-.5.5-.5m6.4.4 1.1.7-.5 1c-.4.5-1.2.9-1.8.8l-1.2-.1 1.3-.5 1.2-.5-.6-1-.7-1.1zm-13.4 6.6c.3 0 .5.2.5.5s-.2.5-.5.5-.5-.2-.5-.5.2-.5.5-.5m-197 2c.3 0 .5.2.5.5s-.2.5-.5.5-.5-.2-.5-.5.2-.5.5-.5m191.5 7h1.3l-.6.7-.7.6-.7-.6-.6-.7zm-180.5 1c.3 0 .5.2.5.5s-.2.5-.5.5-.5-.2-.5-.5.2-.5.5-.5m175 1c.3 0 .5.2.5.5s-.2.5-.5.5-.5-.2-.5-.5.2-.5.5-.5m10 1c.3 0 .5.2.5.5s-.2.5-.5.5-.5-.2-.5-.5.2-.5.5-.5m-186 2c.3 0 .5.2.5.5s-.2.5-.5.5-.5-.2-.5-.5.2-.5.5-.5m176 0c.3 0 .5.2.5.5s-.2.5-.5.5-.5-.2-.5-.5.2-.5.5-.5m3.5 2h1.3l-.6.7-.7.6-.7-.6-.6-.7zm-12 2h1.3l-.6.7-.7.6-.7-.6-.6-.7zm-155.5 3c.3 0 .5.2.5.5s-.2.5-.5.5-.5-.2-.5-.5.2-.5.5-.5m149 1c.3 0 .5.2.5.5s-.2.5-.5.5-.5-.2-.5-.5.2-.5.5-.5m-145 1c.3 0 .5.2.5.5s-.2.5-.5.5-.5-.2-.5-.5.2-.5.5-.5m4 0c.3 0 .5.2.5.5s-.2.5-.5.5-.5-.2-.5-.5.2-.5.5-.5m139 1c.3 0 .5.2.5.5s-.2.5-.5.5-.5-.2-.5-.5.2-.5.5-.5m-137 2c.3 0 .5.2.5.5s-.2.5-.5.5-.5-.2-.5-.5.2-.5.5-.5m3 0c.3 0 .5.2.5.5s-.2.5-.5.5-.5-.2-.5-.5.2-.5.5-.5m140 0c.3 0 .5.2.5.5s-.2.5-.5.5-.5-.2-.5-.5.2-.5.5-.5m-6 1c.3 0 .5.2.5.5s-.2.5-.5.5-.5-.2-.5-.5.2-.5.5-.5m-127 1c.3 0 .5.2.5.5s-.2.5-.5.5-.5-.2-.5-.5.2-.5.5-.5m114 1c.3 0 .5.2.5.5s-.2.5-.5.5-.5-.2-.5-.5.2-.5.5-.5m-112 1c.3 0 .5.2.5.5s-.2.5-.5.5-.5-.2-.5-.5.2-.5.5-.5m120 3c.3 0 .5.2.5.5s-.2.5-.5.5-.5-.2-.5-.5.2-.5.5-.5m-4 1c.3 0 .5.2.5.5s-.2.5-.5.5-.5-.2-.5-.5.2-.5.5-.5m-97.8 1.3.6.7-.6.7-.7.6v-2.6zm65.8.7c.1 0 .2.6.2 1.3v1.4H604l1.1-1.4c.6-.7 1.2-1.3 1.4-1.3m-54 1c.3 0 .5.2.5.5s-.2.5-.5.5-.5-.2-.5-.5.2-.5.5-.5m50 1c.3 0 .5.2.5.5s-.2.5-.5.5-.5-.2-.5-.5.2-.5.5-.5m8.5 0h1.3l-.6.7-.7.6-.7-.6-.6-.7zm-74.5 1c.3 0 .5.2.5.5s-.2.5-.5.5-.5-.2-.5-.5.2-.5.5-.5m6 0c.3 0 .5.2.5.5s-.2.5-.5.5-.5-.2-.5-.5.2-.5.5-.5m41 0c.3 0 .5.2.5.5s-.2.5-.5.5-.5-.2-.5-.5.2-.5.5-.5m12 0c.3 0 .5.2.5.5s-.2.5-.5.5-.5-.2-.5-.5.2-.5.5-.5m24 0c.3 0 .5.2.5.5s-.2.5-.5.5-.5-.2-.5-.5.2-.5.5-.5m-73 1c.3 0 .5.2.5.5s-.2.5-.5.5-.5-.2-.5-.5.2-.5.5-.5m44 1c.3 0 .5.2.5.5s-.2.5-.5.5-.5-.2-.5-.5.2-.5.5-.5m10.5 2h1.3l-.6.7-.7.6-.7-.6-.6-.7zm5.5 0c.3 0 .5.2.5.5s-.2.5-.5.5-.5-.2-.5-.5.2-.5.5-.5m-46 1c.3 0 .5.2.5.5s-.2.5-.5.5-.5-.2-.5-.5.2-.5.5-.5m19.2.3.6.7-.6.7-.7.6v-2.6zm6.8-.3c.3 0 .5.2.5.5s-.2.5-.5.5-.5-.2-.5-.5.2-.5.5-.5m-9 2c.3 0 .5.2.5.5s-.2.5-.5.5-.5-.2-.5-.5.2-.5.5-.5m126-123c-.3 0-.5.2-.5.5s.2.5.5.5.5-.2.5-.5-.2-.5-.5-.5m2 2c-.3 0-.5.2-.5.5s.2.5.5.5.5-.2.5-.5-.2-.5-.5-.5m2 4c-.3 0-.5.2-.5.5s.2.5.5.5.5-.2.5-.5-.2-.5-.5-.5m2 1c-.3 0-.5.2-.5.5s.2.5.5.5.5-.2.5-.5-.2-.5-.5-.5m1 4c-.3 0-.5.2-.5.5s.2.5.5.5.5-.2.5-.5-.2-.5-.5-.5"/><path d="M706.5 592c-.3 0-.5.2-.5.5s.2.5.5.5.5-.2.5-.5-.2-.5-.5-.5m3 0c-.3 0-.5.2-.5.5s.2.5.5.5.5-.2.5-.5-.2-.5-.5-.5m-3.1 3c-.2 0-.4.4-.4.9 0 .6.4 1.3 1 1.6l1 .6-.6-1.5c-.3-.9-.8-1.6-1-1.6m3.1 0c-.3 0-.5.2-.5.5s.2.5.5.5.5-.2.5-.5-.2-.5-.5-.5m-2.1 7c-.3 0-.2.4.1 1 .3.5.8 1 1.1 1s.2-.5-.1-1c-.3-.6-.8-1-1.1-1m-11.9 4c-.3 0-.5.2-.5.5s.2.5.5.5.5-.2.5-.5-.2-.5-.5-.5m12.1 3c-.3 0-.8.5-1.2 1.2l-.7 1.1 1.1-.7c.7-.4 1.2-.9 1.2-1.2 0-.2-.2-.4-.4-.4m-251.1 5c-.3 0-.5.2-.5.5s.2.5.5.5.5-.2.5-.5-.2-.5-.5-.5m2 2c-.3 0-.5.2-.5.5s.2.5.5.5.5-.2.5-.5-.2-.5-.5-.5m27.8 1.7-1.5-.9 1.1 2c.6 1.1 2.9 3.5 5.2 5.3 2.4 1.8 4.8 3.4 5.6 3.5.7.1-1-1.9-3.8-4.4-2.9-2.6-5.8-5.1-6.6-5.5m215.3 2.3c-.3 0-.8.4-1.1 1l-.6 1h1c.6 0 1.1-.5 1.1-1 0-.6-.2-1-.4-1m2.9 1c-.3 0-.5.2-.5.5s.2.5.5.5.5-.2.5-.5-.2-.5-.5-.5m0 5c-.3 0-.5.2-.5.5s.2.5.5.5.5-.2.5-.5-.2-.5-.5-.5m-206 3c-.3 0-.5.2-.5.5s.2.5.5.5.5-.2.5-.5-.2-.5-.5-.5m189.7.8-1.2-1.2v4.8l1.2-1.2 1.2-1.2zm11.5-.5-.7-.6v2.6l.7-.6.6-.7zM501.5 631c-.3 0-.5.2-.5.5s.2.5.5.5.5-.2.5-.5-.2-.5-.5-.5m200 0c-.3 0-.5.2-.5.5s.2.5.5.5.5-.2.5-.5-.2-.5-.5-.5m-192 4c-.3 0-.5.2-.5.5s.2.5.5.5.5-.2.5-.5-.2-.5-.5-.5m189 1c-.3 0-.5.2-.5.5s.2.5.5.5.5-.2.5-.5-.2-.5-.5-.5m-186 1c-.3 0-.5.2-.5.5s.2.5.5.5.5-.2.5-.5-.2-.5-.5-.5m-45.8 1.3-.7-.6v2.6l.7-.6.6-.7zm230.8.7c-.3 0-.5.2-.5.5s.2.5.5.5.5-.2.5-.5-.2-.5-.5-.5m-2 5c-.3 0-.5.2-.5.5s.2.5.5.5.5-.2.5-.5-.2-.5-.5-.5m-24 11c-.3 0-.5.2-.5.5s.2.5.5.5.5-.2.5-.5-.2-.5-.5-.5m17 1c-.3 0-.5.2-.5.5s.2.5.5.5.5-.2.5-.5-.2-.5-.5-.5m-1 5c-.3 0-.5.2-.5.5s.2.5.5.5.5-.2.5-.5-.2-.5-.5-.5m-10.1 5c-.3 0-.2.4.1 1 .3.5.8 1 1.1 1s.2-.5-.1-1c-.3-.6-.8-1-1.1-1m-162.9 11c-.3 0-.5.2-.5.5s.2.5.5.5.5-.2.5-.5-.2-.5-.5-.5m152 0c-.3 0-.5.2-.5.5s.2.5.5.5.5-.2.5-.5-.2-.5-.5-.5m-46 8c-.3 0-.5.2-.5.5s.2.5.5.5.5-.2.5-.5-.2-.5-.5-.5m6 0c-.3 0-.5.2-.5.5s.2.5.5.5.5-.2.5-.5-.2-.5-.5-.5m28 0c-.3 0-.5.2-.5.5s.2.5.5.5.5-.2.5-.5-.2-.5-.5-.5m-144 1c-.3 0-.5.2-.5.5s.2.5.5.5.5-.2.5-.5-.2-.5-.5-.5m99 2c-.3 0-.5.2-.5.5s.2.5.5.5.5-.2.5-.5-.2-.5-.5-.5m39 0c-.3 0-.5.2-.5.5s.2.5.5.5.5-.2.5-.5-.2-.5-.5-.5m1 2c-.3 0-.5.2-.5.5s.2.5.5.5.5-.2.5-.5-.2-.5-.5-.5m-82 1c-.3 0-.5.2-.5.5s.2.5.5.5.5-.2.5-.5-.2-.5-.5-.5m17 0c-.3 0-.5.2-.5.5s.2.5.5.5.5-.2.5-.5-.2-.5-.5-.5m59 0c-.3 0-.5.2-.5.5s.2.5.5.5.5-.2.5-.5-.2-.5-.5-.5m-74 1c-.3 0-.5.2-.5.5s.2.5.5.5.5-.2.5-.5-.2-.5-.5-.5m65 1c-.3 0-.5.2-.5.5s.2.5.5.5.5-.2.5-.5-.2-.5-.5-.5m6 0c-.3 0-.5.2-.5.5s.2.5.5.5.5-.2.5-.5-.2-.5-.5-.5m-111 2c-.3 0-.5.2-.5.5s.2.5.5.5.5-.2.5-.5-.2-.5-.5-.5m2 1c-.3 0-.5.2-.5.5s.2.5.5.5.5-.2.5-.5-.2-.5-.5-.5m11 3c-.3 0-.5.2-.5.5s.2.5.5.5.5-.2.5-.5-.2-.5-.5-.5m67 1c-.3 0-.5.2-.5.5s.2.5.5.5.5-.2.5-.5-.2-.5-.5-.5m9 0c-.3 0-.5.2-.5.5s.2.5.5.5.5-.2.5-.5-.2-.5-.5-.5m-70 1c-.3 0-.5.2-.5.5s.2.5.5.5.5-.2.5-.5-.2-.5-.5-.5m34.2.3-.7-.6v2.6l.7-.6.6-.7zm28.7.7c-.3 0-.2.4.1 1 .3.5.8 1 1.1 1s.2-.5-.1-1c-.3-.6-.8-1-1.1-1m-45.9 1c-.3 0-.5.2-.5.5s.2.5.5.5.5-.2.5-.5-.2-.5-.5-.5m16.5 1h-1.3l.6.7.7.6.7-.6.6-.7zm11.5 2c-.3 0-.5.2-.5.5s.2.5.5.5.5-.2.5-.5-.2-.5-.5-.5m366 232c-.3 0-.5.2-.5.5s.2.5.5.5.5-.2.5-.5-.2-.5-.5-.5m-27 12c-.3 0-.5.2-.5.5s.2.5.5.5.5-.2.5-.5-.2-.5-.5-.5m27 0c-.3 0-.5.2-.5.5s.2.5.5.5.5-.2.5-.5-.2-.5-.5-.5m-6 1c-.3 0-.5.2-.5.5s.2.5.5.5.5-.2.5-.5-.2-.5-.5-.5m6 8c-.3 0-.5.2-.5.5s.2.5.5.5.5-.2.5-.5-.2-.5-.5-.5"/></g><path fill="gray" d="M192.5 320c-.3 0-.5.2-.5.5s.2.5.5.5.5-.2.5-.5-.2-.5-.5-.5m0 43c-.3 0-.5.2-.5.5s.2.5.5.5.5-.2.5-.5-.2-.5-.5-.5m0 17c-.3 0-.5.2-.5.5s.2.5.5.5.5-.2.5-.5-.2-.5-.5-.5m.2 7.3-.7-.6v2.6l.7-.6.6-.7zm-.2 16.7c-.3 0-.5.2-.5.5s.2.5.5.5.5-.2.5-.5-.2-.5-.5-.5m0 6c-.3 0-.5.2-.5.5s.2.5.5.5.5-.2.5-.5-.2-.5-.5-.5m.2 3.3-.7-.6v2.6l.7-.6.6-.7zm0 3-.7-.6v2.6l.7-.6.6-.7zm0 3.4-.5-1.2v5l.5-1.3c.2-.6.2-1.8 0-2.5m-.1 5.6c-.3-.4-.6.2-.5 1.3l.1 1.9.5-1.3c.3-.7.2-1.6-.1-1.9m-.1 4.7c-.3 0-.5.2-.5.5s.2.5.5.5.5-.2.5-.5-.2-.5-.5-.5m0 6c-.3 0-.5.2-.5.5s.2.5.5.5.5-.2.5-.5-.2-.5-.5-.5m.2 22.3-.7-.6v2.6l.7-.6.6-.7zm-.2 3.7c-.3 0-.5.2-.5.5s.2.5.5.5.5-.2.5-.5-.2-.5-.5-.5m.2 3.3-.7-.6v2.6l.7-.6.6-.7zm0 3-.7-.6v2.6l.7-.6.6-.7zm0 3.9-.5-1.7v7l.5-1.8c.2-.9.2-2.5 0-3.5m-.2 5.8c-.3 0-.5.2-.5.5s.2.5.5.5.5-.2.5-.5-.2-.5-.5-.5m.2 3.2-.5-1.7.1 4v4l.4-2.3c.2-1.2.2-3 0-4m0 7.1-.7-.6v2.6l.7-.6.6-.7zm0 3-.7-.6v2.6l.7-.6.6-.7zm0 14.9c-.1-7-.3-1-.3 13.3s.2 20 .3 12.7c.2-7.3.2-19 0-26M551.5 542c-.3 0-.5.2-.5.5s.2.5.5.5.5-.2.5-.5-.2-.5-.5-.5m-358.8 4.3-.7-.6v2.6l.7-.6.6-.7zm-.2 3.7c-.3 0-.5.2-.5.5s.2.5.5.5.5-.2.5-.5-.2-.5-.5-.5m.2 10.2c-.1-4.8-.3-.8-.3 8.8s.2 13.6.3 8.7c.2-4.8.2-12.6 0-17.5m0 31.1-.3-4.8v9l-.1 9 .4-4.2c.2-2.3.2-6.4 0-9m0 21.4c-.1-4.5-.3-.8-.3 8.3s.2 12.8.3 8.2c.2-4.5.2-11.9 0-16.5m0 26-.5-1.2v5l.5-1.3c.2-.6.2-1.8 0-2.5m-.2 4.3c-.3 0-.5.2-.5.5s.2.5.5.5.5-.2.5-.5-.2-.5-.5-.5m.2 2.3-.7-.6v2.6l.7-.6.6-.7zm0 10.9c-.1-4.8-.3-.8-.3 8.8s.2 13.6.3 8.7c.2-4.8.2-12.6 0-17.5m0 29.5-.4-3.2v13l.4-3.3c.2-1.7.2-4.7 0-6.5m0 13.5-.4-3.7v15l.4-3.8c.2-2 .2-5.4 0-7.5m0 15.5-.4-4.2v17l.4-4.3c.2-2.3.2-6.1 0-8.5m0 15-.4-2.2v10l.4-2.8c.2-1.5.2-3.7 0-5m0 8.6-.7-.6v2.6l.7-.6.6-.7zm-.2 3.7c-.3 0-.5.2-.5.5s.2.5.5.5.5-.2.5-.5-.2-.5-.5-.5m0 8c-.3 0-.5.2-.5.5s.2.5.5.5.5-.2.5-.5-.2-.5-.5-.5m0 3c-.3 0-.5.2-.5.5s.2.5.5.5.5-.2.5-.5-.2-.5-.5-.5m.2 3.7-.5-1.2v5l.5-1.3c.2-.6.2-1.8 0-2.5m-.1 5.6c-.3-.4-.6.2-.5 1.3l.1 1.9.5-1.3c.3-.7.2-1.6-.1-1.9m.1 5-.7-.6v2.6l.7-.6.6-.7zm-.2 4.7c-.3 0-.5.2-.5.5s.2.5.5.5.5-.2.5-.5-.2-.5-.5-.5m0 2c-.3 0-.5.2-.5.5s.2.5.5.5.5-.2.5-.5-.2-.5-.5-.5m0 4c-.3 0-.5.2-.5.5s.2.5.5.5.5-.2.5-.5-.2-.5-.5-.5m0 2c-.3 0-.5.2-.5.5s.2.5.5.5.5-.2.5-.5-.2-.5-.5-.5m.2 3.2-.5-1.7.1 4v4l.4-2.3c.2-1.2.2-3 0-4m-.2 6.8c-.3 0-.5.2-.5.5s.2.5.5.5.5-.2.5-.5-.2-.5-.5-.5m.1 3.3c-.3-.4-.6.2-.5 1.3l.1 1.9.5-1.3c.3-.7.2-1.6-.1-1.9m-.1 4.7c-.3 0-.5.2-.5.5s.2.5.5.5.5-.2.5-.5-.2-.5-.5-.5m0 2c-.3 0-.5.2-.5.5s.2.5.5.5.5-.2.5-.5-.2-.5-.5-.5m.2 4.3-.7-.6v2.6l.7-.6.6-.7zm0 6-.7-.6v2.6l.7-.6.6-.7zm-.2 9.7c-.3 0-.5.2-.5.5s.2.5.5.5.5-.2.5-.5-.2-.5-.5-.5m0 3c-.3 0-.5.2-.5.5s.2.5.5.5.5-.2.5-.5-.2-.5-.5-.5m.2 5.7-.4-2.2v10l.4-2.8c.2-1.5.2-3.7 0-5m0 8.6-.7-.6v2.6l.7-.6.6-.7zm0 3.4-.5-1.2v5l.5-1.3c.2-.6.2-1.8 0-2.5m-.2 72.3c-.3 0-.5.2-.5.5s.2.5.5.5.5-.2.5-.5-.2-.5-.5-.5m.2 2.3-.7-.6v2.6l.7-.6.6-.7zm-.2 2.7c-.3 0-.5.2-.5.5s.2.5.5.5.5-.2.5-.5-.2-.5-.5-.5m0 40c-.3 0-.5.2-.5.5s.2.5.5.5.5-.2.5-.5-.2-.5-.5-.5"/><g fill="#004040" stroke-width="0"><path d="M566.5 450.2h-3l1.8.5c.9.2 2.3.2 3 0 .6-.3-.1-.5-1.8-.5m24.5-.2h-1.3l.6.7.7.6.7-.6.6-.7zm-35 1h-1.3l.6.7.7.6.7-.6.6-.7zm43.5 0c-.3 0-.5.2-.5.5s.2.5.5.5.5-.2.5-.5-.2-.5-.5-.5m-49.1 1.1-1.9.1 1.3.5c.7.3 1.6.2 1.9-.1.4-.3-.2-.6-1.3-.5m54.1-.1c-.3 0-.5.2-.5.5s.2.5.5.5.5-.2.5-.5-.2-.5-.5-.5m-58.5 1h-1.3l.6.7.7.6.7-.6.6-.7zm63.5 0c-.3 0-.5.2-.5.5s.2.5.5.5.5-.2.5-.5-.2-.5-.5-.5m-68 1c-.3 0-.5.2-.5.5s.2.5.5.5.5-.2.5-.5-.2-.5-.5-.5m71 0c-.3 0-.5.2-.5.5s.2.5.5.5.5-.2.5-.5-.2-.5-.5-.5m-74 1c-.3 0-.5.2-.5.5s.2.5.5.5.5-.2.5-.5-.2-.5-.5-.5m-3 1c-.3 0-.5.2-.5.5s.2.5.5.5.5-.2.5-.5-.2-.5-.5-.5m84 0c-.3 0-.5.2-.5.5s.2.5.5.5.5-.2.5-.5-.2-.5-.5-.5m-87 1c-.3 0-.5.2-.5.5s.2.5.5.5.5-.2.5-.5-.2-.5-.5-.5m90 0c-.3 0-.5.2-.5.5s.2.5.5.5.5-.2.5-.5-.2-.5-.5-.5m-93 1c-.3 0-.5.2-.5.5s.2.5.5.5.5-.2.5-.5-.2-.5-.5-.5m-2 1c-.3 0-.5.2-.5.5s.2.5.5.5.5-.2.5-.5-.2-.5-.5-.5m-2 1c-.3 0-.5.2-.5.5s.2.5.5.5.5-.2.5-.5-.2-.5-.5-.5m105 0c-.3 0-.5.2-.5.5s.2.5.5.5.5-.2.5-.5-.2-.5-.5-.5m-108 1c-.3 0-.5.2-.5.5s.2.5.5.5.5-.2.5-.5-.2-.5-.5-.5m110 0c-.3 0-.5.2-.5.5s.2.5.5.5.5-.2.5-.5-.2-.5-.5-.5m-112 1c-.3 0-.5.2-.5.5s.2.5.5.5.5-.2.5-.5-.2-.5-.5-.5m114 0c-.3 0-.5.2-.5.5s.2.5.5.5.5-.2.5-.5-.2-.5-.5-.5m-116.4 1c-.6 0-1.3.4-1.6 1l-.6 1 1.5-.6c.9-.3 1.6-.8 1.6-1s-.4-.4-.9-.4m120.8 1c-.5 0-.9.2-.9.4s.7.7 1.6 1l1.5.6-.6-1c-.3-.6-1-1-1.6-1m-124.4 1c-.3 0-.5.2-.5.5s.2.5.5.5.5-.2.5-.5-.2-.5-.5-.5m-2 1c-.3 0-.5.2-.5.5s.2.5.5.5.5-.2.5-.5-.2-.5-.5-.5m131.5 1c-1.1-.6-2-.8-2-.6 0 .3.9 1 2 1.6s2 .8 2 .6c0-.3-.9-1-2-1.6m-72.5 0c-.3 0-.5.2-.5.5s.2.5.5.5.5-.2.5-.5-.2-.5-.5-.5m6 0c-.3 0-.5.2-.5.5s.2.5.5.5.5-.2.5-.5-.2-.5-.5-.5m5 2c-.3 0-.5.2-.5.5s.2.5.5.5.5-.2.5-.5-.2-.5-.5-.5m64.9 0c-.3 0-.2.4.1 1 .3.5.8 1 1.1 1s.2-.5-.1-1c-.3-.6-.8-1-1.1-1m-141.9 1c-.3 0-.5.2-.5.5s.2.5.5.5.5-.2.5-.5-.2-.5-.5-.5m-2 1c-.3 0-.5.2-.5.5s.2.5.5.5.5-.2.5-.5-.2-.5-.5-.5m149.5 2c-1.6-1.2-3-1.9-3-1.6 0 .2 1.4 1.4 3 2.6 1.7 1.2 3 1.9 3 1.6 0-.2-1.3-1.4-3-2.6m-67.5-1c-.3 0-.5.2-.5.5s.2.5.5.5.5-.2.5-.5-.2-.5-.5-.5m-84.9 1c-.3 0-.8.5-1.2 1.2l-.7 1.1 1.1-.7c.7-.4 1.2-.9 1.2-1.2 0-.2-.2-.4-.4-.4m85.9 1c-.3 0-.5.2-.5.5s.2.5.5.5.5-.2.5-.5-.2-.5-.5-.5m-88.9 1c-.2 0-1 .8-1.7 1.7l-1.4 1.8 1.8-1.4c.9-.7 1.7-1.5 1.7-1.7s-.2-.4-.4-.4m162.9 4-4-3.5 3.9 4.2c2.2 2.4 4.2 4 4.5 3.8.2-.3.2-.6 0-.8-.2-.1-2.2-1.8-4.4-3.7m-73-2c-.3 0-.5.2-.5.5s.2.5.5.5.5-.2.5-.5-.2-.5-.5-.5m-93.7 1c-.2 0-4 3.5-8.4 7.8-4.5 4.2-8.7 8.6-9.5 9.7s3-2.3 8.4-7.5c5.3-5.2 9.7-9.6 9.7-9.8 0-.1-.1-.2-.2-.2m93.9 3.3-.7-.6v2.6l.7-.6.6-.7zm79.1 3.2-.8-.9v1c0 .5 2.3 3.2 5.2 5.9l5.2 5-4.3-5c-2.4-2.8-4.8-5.4-5.3-6m-80.3.5c-.3 0-.5.2-.5.5s.2.5.5.5.5-.2.5-.5-.2-.5-.5-.5m-21.1 2c-.3 0-.2.4.1 1 .3.5.8 1 1.1 1s.2-.5-.1-1c-.3-.6-.8-1-1.1-1m19.3 1c-.2 0-1.2 1-2.3 2.2l-1.9 2.3 2.3-1.9c1.2-1.1 2.2-2.1 2.2-2.3 0-.1-.2-.3-.3-.3m-15.2 3c-.3 0-.5.2-.5.5s.2.5.5.5.5-.2.5-.5-.2-.5-.5-.5m2 1c-.3 0-.5.2-.5.5s.2.5.5.5.5-.2.5-.5-.2-.5-.5-.5m7 0c-.3 0-.5.2-.5.5s.2.5.5.5.5-.2.5-.5-.2-.5-.5-.5m98.4 4.4c-.6-.3.8 2.1 3 5.4 2.3 3.3 5.9 9.7 8.1 14.3s4 7.8 4 7.1-1.8-4.9-4-9.3-5.4-10-7-12.4c-1.7-2.4-3.5-4.7-4.1-5.1M473.5 498c-.3 0-.5.2-.5.5s.2.5.5.5.5-.2.5-.5-.2-.5-.5-.5m-.8 2c-.2 0-1.1.8-2 1.7-.8 1-3.6 6.4-6.1 11.9-2.5 5.6-4.6 11-4.5 12v1.9l1.3-4c.8-2.2 2.8-7.2 4.6-11 1.8-3.9 4.1-8.2 5.2-9.8 1.1-1.5 1.8-2.7 1.5-2.7M693 526.5l-.9-2v1.5c0 .8.4 2.2.9 3s.9 1 .9.5c0-.6-.4-1.9-.9-3m-233.4 1.8c-.3-.4-.6.2-.5 1.3l.1 1.9.5-1.3c.3-.7.2-1.6-.1-1.9m235.4 4.6-1-2.4.6 4c.4 2.2 1.1 6 1.5 8.5l.8 4.5-.4-6.1c-.2-3.3-.9-7.1-1.5-8.5m-236.4-.6c-.3-.4-.6.2-.5 1.3l.1 1.9.5-1.3c.3-.7.2-1.6-.1-1.9M591 532h-1.3l.6.7.7.6.7-.6.6-.7zm-50.5 1c-.3 0-.5.2-.5.5s.2.5.5.5.5-.2.5-.5-.2-.5-.5-.5m15.5 0h-1.3l.6.7.7.6.7-.6.6-.7zm52.5 0c-.3 0-.5.2-.5.5s.2.5.5.5.5-.2.5-.5-.2-.5-.5-.5m-50 1c-.3 0-.5.2-.5.5s.2.5.5.5.5-.2.5-.5-.2-.5-.5-.5m-100.8 2.7c-.3-.6-.5.1-.5 1.8v3l.5-1.8c.2-.9.2-2.3 0-3m103-.4-.7-.6v2.6l.7-.6.6-.7zm-10.3 1.7c-.8 0-1.4.2-1.4.4s.9.6 2 .9l2 .5-.6-.9c-.3-.5-1.2-.9-2-.9m49.1 0c-.3 0-.5.2-.5.5s.2.5.5.5.5-.2.5-.5-.2-.5-.5-.5m2.9.1-1.9.1 1.3.5c.7.3 1.6.2 1.9-.1.4-.3-.2-.6-1.3-.5m-41.7 1.2-.7-.6v2.6l.7-.6.6-.7zm47.8-.3c-.3 0-.5.2-.5.5s.2.5.5.5.5-.2.5-.5-.2-.5-.5-.5m-60.9 1.3c-.3-.4-.6.2-.5 1.3l.1 1.9.5-1.3c.3-.7.2-1.6-.1-1.9m4.9.7c-.3 0-.5.2-.5.5s.2.5.5.5.5-.2.5-.5-.2-.5-.5-.5m-95.8 2.2-.5-1.7v7l.5-1.8c.2-.9.2-2.5 0-3.5m102.8-1.2c-.3 0-.5.2-.5.5s.2.5.5.5.5-.2.5-.5-.2-.5-.5-.5m-17.8 2.2-.5-1.7.1 4v4l.4-2.3c.2-1.2.2-3 0-4m9.8-1.2c-.3 0-.5.2-.5.5s.2.5.5.5.5-.2.5-.5-.2-.5-.5-.5m57 3c-.3 0-.5.2-.5.5s.2.5.5.5.5-.2.5-.5-.2-.5-.5-.5m-49.1 1c-.2 0-.4.2-.4.4s.8 1 1.8 1.7l1.7 1.4-1.4-1.8c-.7-.9-1.5-1.7-1.7-1.7m137.3 3.7-.4-3.2v13l.4-3.3c.2-1.7.2-4.7 0-6.5m-144.2-.7c-.3 0-.5.2-.5.5s.2.5.5.5.5-.2.5-.5-.2-.5-.5-.5m-3.5 1h-1.3l.6.7.7.6.7-.6.6-.7zm5.5 0c-.3 0-.5.2-.5.5s.2.5.5.5.5-.2.5-.5-.2-.5-.5-.5m8 0c-.3 0-.5.2-.5.5s.2.5.5.5.5-.2.5-.5-.2-.5-.5-.5m40 .3h-7l3.2.4c1.8.2 5 .2 7 0l3.8-.4zM456 554l-.9-1.5.4 3.5c.3 1.9.9 6.9 1.4 11s1.4 8.6 2 10l1.2 2.5-.6-2.5c-.4-1.4-1.1-6.8-1.7-12-.5-5.2-1.4-10.2-1.8-11m107.6.3c-.3-.4-.6.2-.5 1.3l.1 1.9.5-1.3c.3-.7.2-1.6-.1-1.9M553 558h-1.3l.6.7.7.6.7-.6.6-.7zm54 1.2h-2.5l1.3.5c.6.2 1.8.2 2.5 0l1.2-.5zm-45.5 1.8c-.3 0-.5.2-.5.5s.2.5.5.5.5-.2.5-.5-.2-.5-.5-.5m134.2.7-.5-1.2v5l.5-1.3c.2-.6.2-1.8 0-2.5M592 565.2h-3.5l1.8.5c.9.2 2.5.2 3.5 0l1.7-.5zm12.5.1h-5l2.8.4c1.5.2 3.7.2 5 0l2.2-.4zm90.2 1.4-.5-1.2v5l.5-1.3c.2-.6.2-1.8 0-2.5m-1 4.6-.7-.6v2.6l.7-.6.6-.7zm-1 3-.7-.6v2.6l.7-.6.6-.7zm-.8 3.2c-.2-.2-2.1 3.2-4.1 7.6-2 4.3-3.4 7.9-3.2 7.9.3 0 2.1-3.4 4.1-7.5 1.9-4.2 3.4-7.7 3.2-8M461 581l-1-1.5v1c0 .5.5 1.7 1 2.5l1 1.5v-1c0-.6-.5-1.7-1-2.5m1.4 4.1c-.2-.2-.4-.1-.4.3s.7 2 1.5 3.6c.9 1.7 1.8 3 2.1 3 .2 0-.3-1.5-1.2-3.3-.9-1.7-1.8-3.4-2-3.6m4 7.9c-.2 0 0 .9.6 2s1.3 2 1.6 2c.2 0 0-.9-.6-2s-1.3-2-1.6-2m217.2 1c-.3 0-1 .9-1.6 2s-.8 2-.6 2c.3 0 1-.9 1.6-2s.8-2 .6-2m-213.1 5.5c-.8-1.1-.2.3 1.5 3.1l3 5.1 5.2 4.7c2.9 2.6 8.2 7.2 11.7 10.2s9 7 12.2 9c3.3 1.9 5.9 3.7 5.9 3.9 0 .3-.8.2-1.7-.2-1-.3-1.6-.4-1.3-.1s1.6 1.1 2.9 1.8l2.3 1.2-.7-1.4-.6-1.3 1.3 1.7c.8.9 3.8 2.6 6.6 3.7 2.9 1.2 5.2 1.9 5.2 1.6s-2.2-1.7-5-3.3c-2.7-1.6-4.7-3.1-4.4-3.4s-2-1.8-5-3.2c-3.1-1.5-9.5-5.6-14.3-9.2-4.9-3.6-9.6-7.6-10.6-9-1-1.3-2.5-2.4-3.3-2.4H480v-3.1l-1 .6-.9.6-3-4.3c-1.7-2.4-3.7-5.2-4.6-6.3m210.1-.5c-.3 0-.8.5-1.2 1.2l-.7 1.1 1.1-.7c.7-.4 1.2-.9 1.2-1.2 0-.2-.2-.4-.4-.4m-2 3c-.3 0-.8.5-1.2 1.2l-.7 1.1 1.1-.7c.7-.4 1.2-.9 1.2-1.2 0-.2-.2-.4-.4-.4"/><path d="M676.6 605c-.3 0-.7.4-1.1.9-.3.6-4.9 4.5-10.3 8.9-5.3 4.3-12.8 9.6-16.7 11.8-3.8 2.1-8.3 4.7-10 5.6-1.6 1-4.7 2.6-6.7 3.5-2.1 1-3.8 2.1-3.8 2.4 0 .4-4.4 2-9.7 3.7-5.4 1.6-12.3 3.5-15.3 4-3 .6-8.2 1.5-11.6 2.1-3.3.6-10 1.1-15 1.1h-8.9l-11-1.6c-6-.9-15-2.7-20-4.1-4.9-1.3-11.4-3.5-14.4-4.9-2.9-1.3-5.6-2.4-6-2.4-.3.1 1 1 2.9 2 1.9 1.1 8.2 3.5 14 5.4s14.1 4.2 18.5 5.2l8 1.8 17-.1 17-.1 11.5-3c6.3-1.6 15.6-4.5 20.6-6.4s13.6-6 19.2-9.1l10.1-5.8 10.5-9.4c5.8-5.2 10.7-9.9 11.1-10.5.3-.5.4-1 .1-1m-180.1 23c-.3 0-.5.2-.5.5s.2.5.5.5.5-.2.5-.5-.2-.5-.5-.5m2.9 2c-.3 0-.2.4.1 1 .3.5.8 1 1.1 1s.2-.5-.1-1c-.3-.6-.8-1-1.1-1m3 2c-.3 0-.2.4.1 1 .3.5.8 1 1.1 1s.2-.5-.1-1c-.3-.6-.8-1-1.1-1m3.1 2c-.3 0-.5.2-.5.5s.2.5.5.5.5-.2.5-.5-.2-.5-.5-.5"/></g><path fill="#004080" d="M571.5 450.2h-3l1.8.5c.9.2 2.3.2 3 0 .6-.3-.1-.5-1.8-.5m17.5-.2h-1.3l.6.7.7.6.7-.6.6-.7zm-30.6 1.1-1.9.1 1.3.5c.7.3 1.6.2 1.9-.1.4-.3-.2-.6-1.3-.5m39.6-.1h-1.3l.6.7.7.6.7-.6.6-.7zm-45 1h-1.3l.6.7.7.6.7-.6.6-.7zm50.5 0c-.3 0-.5.2-.5.5s.2.5.5.5.5-.2.5-.5-.2-.5-.5-.5m-56 1c-.3 0-.5.2-.5.5s.2.5.5.5.5-.2.5-.5-.2-.5-.5-.5m61 0c-.3 0-.5.2-.5.5s.2.5.5.5.5-.2.5-.5-.2-.5-.5-.5m-65.5 1h-1.3l.6.7.7.6.7-.6.6-.7zm-3.5 1c-.3 0-.5.2-.5.5s.2.5.5.5.5-.2.5-.5-.2-.5-.5-.5m76 0c-.3 0-.5.2-.5.5s.2.5.5.5.5-.2.5-.5-.2-.5-.5-.5m-79 1c-.3 0-.5.2-.5.5s.2.5.5.5.5-.2.5-.5-.2-.5-.5-.5m-3 1c-.3 0-.5.2-.5.5s.2.5.5.5.5-.2.5-.5-.2-.5-.5-.5m-3 1c-.3 0-.5.2-.5.5s.2.5.5.5.5-.2.5-.5-.2-.5-.5-.5m94 0c-.3 0-.5.2-.5.5s.2.5.5.5.5-.2.5-.5-.2-.5-.5-.5m-96 1c-.3 0-.5.2-.5.5s.2.5.5.5.5-.2.5-.5-.2-.5-.5-.5m99 0c-.3 0-.5.2-.5.5s.2.5.5.5.5-.2.5-.5-.2-.5-.5-.5m-104 2c-.3 0-.5.2-.5.5s.2.5.5.5.5-.2.5-.5-.2-.5-.5-.5m108 0c-.3 0-.5.2-.5.5s.2.5.5.5.5-.2.5-.5-.2-.5-.5-.5m5 2c-.3 0-.5.2-.5.5s.2.5.5.5.5-.2.5-.5-.2-.5-.5-.5m5 3c-.3 0-.5.2-.5.5s.2.5.5.5.5-.2.5-.5-.2-.5-.5-.5m-63 1c-.3 0-.5.2-.5.5s.2.5.5.5.5-.2.5-.5-.2-.5-.5-.5m-69 1c-.3 0-.5.2-.5.5s.2.5.5.5.5-.2.5-.5-.2-.5-.5-.5m-2 1c-.3 0-.5.2-.5.5s.2.5.5.5.5-.2.5-.5-.2-.5-.5-.5m139 0c-.3 0-.5.2-.5.5s.2.5.5.5.5-.2.5-.5-.2-.5-.5-.5m-144 3c-.3 0-.5.2-.5.5s.2.5.5.5.5-.2.5-.5-.2-.5-.5-.5m153.9 4c-.3 0-.2.4.1 1 .3.5.8 1 1.1 1s.2-.5-.1-1c-.3-.6-.8-1-1.1-1m-161.9 2c-.3 0-.5.2-.5.5s.2.5.5.5.5-.2.5-.5-.2-.5-.5-.5m171 6c-.3 0-.5.2-.5.5s.2.5.5.5.5-.2.5-.5-.2-.5-.5-.5m-180 2c-.3 0-.5.2-.5.5s.2.5.5.5.5-.2.5-.5-.2-.5-.5-.5m-2.9 3c-.3 0-.8.5-1.2 1.2l-.7 1.1 1.1-.7c.7-.4 1.2-.9 1.2-1.2 0-.2-.2-.4-.4-.4m186.9 0c-.3 0-.5.2-.5.5s.2.5.5.5.5-.2.5-.5-.2-.5-.5-.5m-90 3c-.3 0-.5.2-.5.5s.2.5.5.5.5-.2.5-.5-.2-.5-.5-.5m94.9 2c-.3 0-.2.4.1 1 .3.5.8 1 1.1 1s.2-.5-.1-1c-.3-.6-.8-1-1.1-1m-198.8 3c-.2 0-1 .8-1.7 1.7l-1.4 1.8 1.8-1.4c.9-.7 1.7-1.5 1.7-1.7s-.2-.4-.4-.4m201.9 1c-.3 0-.5.2-.5.5s.2.5.5.5.5-.2.5-.5-.2-.5-.5-.5m1.9 3c-.3 0-.2.4.1 1 .3.5.8 1 1.1 1s.2-.5-.1-1c-.3-.6-.8-1-1.1-1m2.1 3c-.3 0-.5.2-.5.5s.2.5.5.5.5-.2.5-.5-.2-.5-.5-.5m2 3c-.3 0-.5.2-.5.5s.2.5.5.5.5-.2.5-.5-.2-.5-.5-.5m1 2c-.3 0-.5.2-.5.5s.2.5.5.5.5-.2.5-.5-.2-.5-.5-.5m2 4c-.3 0-.5.2-.5.5s.2.5.5.5.5-.2.5-.5-.2-.5-.5-.5m1 2c-.3 0-.5.2-.5.5s.2.5.5.5.5-.2.5-.5-.2-.5-.5-.5m-223 1c-.3 0-.5.2-.5.5s.2.5.5.5.5-.2.5-.5-.2-.5-.5-.5m224 1c-.3 0-.5.2-.5.5s.2.5.5.5.5-.2.5-.5-.2-.5-.5-.5m-225 1c-.3 0-.5.2-.5.5s.2.5.5.5.5-.2.5-.5-.2-.5-.5-.5m226.2 1.3-.7-.6v2.6l.7-.6.6-.7zm-227.2.7c-.3 0-.5.2-.5.5s.2.5.5.5.5-.2.5-.5-.2-.5-.5-.5m228.5 3-1-1.5v1c0 .5.5 1.7 1 2.5l1 1.5v-1c0-.6-.5-1.7-1-2.5m-229.5 0c-.3 0-.5.2-.5.5s.2.5.5.5.5-.2.5-.5-.2-.5-.5-.5m-1 4c-.3 0-.5.2-.5.5s.2.5.5.5.5-.2.5-.5-.2-.5-.5-.5m232 1c-.3 0-.5.2-.5.5s.2.5.5.5.5-.2.5-.5-.2-.5-.5-.5m1.1 2.3c-.3-.4-.6.2-.5 1.3l.1 1.9.5-1.3c.3-.7.2-1.6-.1-1.9m-234.1.7c-.3 0-.5.2-.5.5s.2.5.5.5.5-.2.5-.5-.2-.5-.5-.5m-.9 4.3c-.3-.4-.6.2-.5 1.3l.1 1.9.5-1.3c.3-.7.2-1.6-.1-1.9m236.1 0-.7-.6v2.6l.7-.6.6-.7zm1 4.4c-.3-.6-.5.1-.5 1.8v3l.5-1.8c.2-.9.2-2.3 0-3m-238 1.6-.7-.6v2.6l.7-.6.6-.7zm102.8-.3c-.3 0-.5.2-.5.5s.2.5.5.5.5-.2.5-.5-.2-.5-.5-.5m136 6c-.3 0-.5.2-.5.5s.2.5.5.5.5-.2.5-.5-.2-.5-.5-.5m-239.8 2.2-.5-1.7.1 4v4l.4-2.3c.2-1.2.2-3 0-4m238.8 4.8c-.3 0-.5.2-.5.5s.2.5.5.5.5-.2.5-.5-.2-.5-.5-.5m.2 2.7c-.3-.6-.5.1-.5 1.8v3l.5-1.8c.2-.9.2-2.3 0-3m-132.2.3c-.3 0-.5.2-.5.5s.2.5.5.5.5-.2.5-.5-.2-.5-.5-.5m33 2c-.3 0-.5.2-.5.5s.2.5.5.5.5-.2.5-.5-.2-.5-.5-.5m7.5 0h-1.3l.6.7.7.6.7-.6.6-.7zm-41.5 1c-.3 0-.5.2-.5.5s.2.5.5.5.5-.2.5-.5-.2-.5-.5-.5m-105 1c-.3 0-.5.2-.5.5s.2.5.5.5.5-.2.5-.5-.2-.5-.5-.5m237.2 1.7-.5-1.2v5l.5-1.3c.2-.6.2-1.8 0-2.5m-134.1.3c-.3 0-.8.5-1.2 1.2l-.7 1.1 1.1-.7c.7-.4 1.2-.9 1.2-1.2 0-.2-.2-.4-.4-.4m36.9 2.2h-3l1.8.5c.9.2 2.3.2 3 0 .6-.3-.1-.5-1.8-.5m96.2 3.1c-.3-.2-.8.8-1.1 2.3-.4 1.4-.5 2.8-.3 3.1.3.2.8-.8 1.1-2.3.4-1.4.5-2.8.3-3.1m-235.1 2c-.3-.4-.6.2-.5 1.3l.1 1.9.5-1.3c.3-.7.2-1.6-.1-1.9m1.1 4-.7-.6v2.6l.7-.6.6-.7zm232 1-.7-.6v2.6l.7-.6.6-.7zM461 579l-1-1.5v1c0 .5.5 1.7 1 2.5l1 1.5v-1c0-.6-.5-1.7-1-2.5m229.5-1c-.3 0-.5.2-.5.5s.2.5.5.5.5-.2.5-.5-.2-.5-.5-.5m-.8 2.4c-.2-.3-.7.2-1.1 1.1-.3.9-.6 2-.6 2.3 0 .4.5-.1 1.1-1.1s.9-2.1.6-2.3M463 584l-1-1.5v1c0 .5.5 1.7 1 2.5l1 1.5v-1c0-.6-.5-1.7-1-2.5m224.5 1c-.3 0-.5.2-.5.5s.2.5.5.5.5-.2.5-.5-.2-.5-.5-.5m-1 2c-.3 0-.5.2-.5.5s.2.5.5.5.5-.2.5-.5-.2-.5-.5-.5m-222 1c-.3 0-.5.2-.5.5s.2.5.5.5.5-.2.5-.5-.2-.5-.5-.5m221.1 1c-.3 0-1.2 1.3-2.1 3-.9 1.6-1.3 3-1.1 3 .3 0 1.2-1.4 2.1-3 .9-1.7 1.3-3 1.1-3m-220.2 1c-.2 0 0 .9.6 2s1.3 2 1.6 2c.2 0 0-.9-.6-2s-1.3-2-1.6-2m3.5 5h-1l1 1.7c.6 1 2.8 4.3 4.9 7.3l3.8 5.5 1.2-.3 1.2-.2v3h1.4c.8 0 2.1.8 2.8 1.9.7 1 2.9 3.1 4.8 4.7l3.5 2.8-8-8.5c-4.4-4.7-9.5-10.7-11.3-13.2-1.8-2.6-3.7-4.7-4.3-4.7m212.7 1c-.3 0-1 .9-1.6 2s-.8 2-.6 2c.3 0 1-.9 1.6-2s.8-2 .6-2m-2.8 5c-.2 0-2.4 2-4.8 4.5s-4.8 4.5-5.3 4.5-4.3 2.8-8.6 6.2l-7.6 6.1-9.5 4.5c-5.2 2.5-11.3 5.6-13.4 7-2.2 1.3-7.8 3.8-12.5 5.4s-13.4 3.8-19.3 4.8c-5.8 1.1-15.4 2.2-21.3 2.6l-10.6.7-7.2-1.2c-4-.7-11.8-2.1-17.3-3.1-5.6-1.1-12.5-2.8-15.5-3.9-2.9-1.1-5.5-1.9-5.7-1.7s2.2 1.4 5.4 2.6c3.2 1.1 8.9 2.9 12.8 3.9s12.1 2.6 18.1 3.5l11 1.6h8.9c5 0 11.7-.5 15-1.1 3.4-.6 8.6-1.5 11.6-2.1 3-.5 9.9-2.4 15.3-4 5.3-1.7 9.7-3.3 9.7-3.7 0-.3 1.7-1.4 3.8-2.4 2-.9 5.1-2.5 6.7-3.5 1.7-.9 6.2-3.5 10-5.6 3.9-2.2 11.4-7.5 16.7-11.8 5.4-4.4 10.7-9.2 11.8-10.9 1.2-1.6 2-2.9 1.8-2.9m-185.4 20c-.2 0-.4.2-.4.4s.8 1 1.8 1.7l1.7 1.4-1.4-1.8c-.7-.9-1.5-1.7-1.7-1.7m5 4c-.3 0-.2.4.1 1 .3.5.8 1 1.1 1s.2-.5-.1-1c-.3-.6-.8-1-1.1-1m3 2c-.3 0-.2.4.1 1 .3.5.8 1 1.1 1s.2-.5-.1-1c-.3-.6-.8-1-1.1-1m-.9 2c-.3 0-.5.2-.5.5s.2.5.5.5.5-.2.5-.5-.2-.5-.5-.5m3.9 0c-.3 0-.2.4.1 1 .3.5.8 1 1.1 1s.2-.5-.1-1c-.3-.6-.8-1-1.1-1m1.2 3c-.3 0-.8.5-1.2 1.2l-.7 1.1 1.1-.7c.7-.4 1.2-.9 1.2-1.2 0-.2-.2-.4-.4-.4m3.9 0c-.3 0-.5.2-.5.5s.2.5.5.5.5-.2.5-.5-.2-.5-.5-.5m2.5 1h-1.3l.6.7.7.6.7-.6.6-.7zm3.3 1.6-1.8-.7 1.2 1.2c.7.7 1.5 1 1.8.7s-.2-.9-1.2-1.2m-3.8 1.4c-.3 0-.5.2-.5.5s.2.5.5.5.5-.2.5-.5-.2-.5-.5-.5m7 0c-.3 0-.5.2-.5.5s.2.5.5.5.5-.2.5-.5-.2-.5-.5-.5"/><g fill="teal" stroke-width="0"><path d="M581 450.3h-7.5l3.8.4c2 .2 5.4.2 7.5 0l3.7-.4zm-17.5 1h-4l2.3.4c1.2.2 3 .2 4 0l1.7-.5zm30 0h-4l2.3.4c1.2.2 3 .2 4 0l1.7-.5zm-39 .7c-.3 0-.5.2-.5.5s.2.5.5.5.5-.2.5-.5-.2-.5-.5-.5m46.9.1-1.9.1 1.3.5c.7.3 1.6.2 1.9-.1.4-.3-.2-.6-1.3-.5m-51.4 1.1h-2.5l1.3.5c.6.2 1.8.2 2.5 0l1.2-.5zm56.4-.1-1.9.1 1.3.5c.7.3 1.6.2 1.9-.1.4-.3-.2-.6-1.3-.5m-61.4.9h-1.3l.6.7.7.6.7-.6.6-.7zm66 0h-1.3l.6.7.7.6.7-.6.6-.7zm-69.6 1.1-1.9.1 1.3.5c.7.3 1.6.2 1.9-.1.4-.3-.2-.6-1.3-.5m72.6-.1h-1.3l.6.7.7.6.7-.6.6-.7zm-76 1h-1.3l.6.7.7.6.7-.6.6-.7zm79 .1c-.8 0 .1.7 2 1.4s4 1.3 4.5 1.3c.6 0-.3-.6-2-1.3-1.6-.8-3.7-1.4-4.5-1.4m-82 .9h-1.3l.6.7.7.6.7-.6.6-.7zm-3 1h-1.3l.6.7.7.6.7-.6.6-.7zm-2.5 1c-.3 0-.5.2-.5.5s.2.5.5.5.5-.2.5-.5-.2-.5-.5-.5m96.5 0h-1.3l.6.7.7.6.7-.6.6-.7zm-99 1h-1.3l.6.7.7.6.7-.6.6-.7zm101.5 0c-.3 0-.5.2-.5.5 0 .2 3.1 2 6.9 3.9 3.7 1.9 8.9 5 11.5 7 2.5 1.9 6 4.3 7.6 5.3 1.7.9 3 2.1 3 2.5s.6.8 1.3.8c.8 0 2.6 1.3 4 3 1.5 1.6 2.7 3.3 2.7 3.7 0 .5 1.4 2.1 3 3.6 1.7 1.6 3 3.3 3 3.8 0 .6.4.8.8.5l.8-.5 3.5 5.2c1.9 2.9 4.2 6.8 5.1 8.7 1 1.9 1.7 4 1.8 4.6 0 .7 1.3 3.6 2.8 6.5 1.6 3 3.3 7.4 4 9.9.6 2.5 1.4 5.8 1.7 7.5.3 1.6.8 5.9 1.2 9.3l.5 6.4-1.2 8.1c-.7 4.5-2.4 11.6-3.7 15.7-1.4 4.1-3.6 9.6-5.1 12.2-1.4 2.7-2.9 4.8-3.4 4.8-.4 0-.8.7-.8 1.5v1.6l-7.2 7c-4 3.9-8.8 7.9-10.8 8.9-1.9 1-5.1 3.3-7 4.9-1.9 1.7-3.8 3.1-4.3 3.1-.4 0-5.6 2.1-11.5 4.6-5.9 2.6-13.6 5.5-17.2 6.6-3.6 1-9 2.5-12 3.3-3 .9-10.2 2.2-16 3l-10.5 1.5-18.5.1-18.5.1-5-1.1c-2.7-.5-7.6-1.6-10.7-2.4s-9.8-2.9-14.8-4.6c-5-1.8-10-4-11.1-4.9-1.2-.9-5.3-4.8-9.2-8.6-4-3.8-8.3-7.6-9.6-8.4-1.3-.9-5.8-5.9-10-11.2l-7.7-9.7-3.7-8.4-3.6-8.5-1.2-11.3-1.2-11.2 1.1-5.7c.6-3.1 1.4-8 1.8-10.7.3-2.8.4-4.8.1-4.5s-1.2 4.4-2.1 9.1-1.6 11.4-1.6 15c0 3.5.5 9.6 1 13.5s1.6 9.3 2.6 12c.9 2.7 2.7 7.3 4.1 10.3 1.4 2.9 3.6 6.3 5 7.4 1.3 1.2 3.9 4.4 5.8 7.2 1.8 2.8 6.9 8.5 11.2 12.6 4.4 4.2 10.7 9.5 14.1 11.7 3.3 2.3 10 5.9 14.9 8 4.8 2.2 11.1 4.6 13.8 5.5 2.8.8 8.8 2.2 13.5 3s11.7 2.1 15.7 2.8l7.2 1.2 10.6-.7c5.9-.4 15.5-1.5 21.3-2.6 5.9-1 14.6-3.2 19.3-4.8s10.3-4.1 12.5-5.4c2.1-1.4 8.2-4.5 13.4-7l9.5-4.5 7.6-6.1c4.3-3.4 8.1-6.2 8.6-6.2s2.9-2.1 5.5-4.8c2.5-2.6 6.4-7.9 8.6-11.7 2.2-3.9 5.1-9.7 6.4-13 1.4-3.3 3-8 3.6-10.5.7-2.5 1.6-7 2.1-10s.8-8.9.6-13c-.1-4.1-1-10.2-1.9-13.6-.9-3.3-3-9.6-4.7-14l-3.2-7.9-6.2-9.5-6.3-9.5-8.9-8.5c-4.8-4.7-11.5-10.2-14.7-12.4-3.2-2.1-9.1-5.6-13.2-7.7-4.1-2.2-7.6-3.9-7.9-3.9m-104 1c-.3 0-.5.2-.5.5s.2.5.5.5.5-.2.5-.5-.2-.5-.5-.5m-2.5 1h-1.3l.6.7.7.6.7-.6.6-.7zm-2.5 1c-.3 0-.5.2-.5.5s.2.5.5.5.5-.2.5-.5-.2-.5-.5-.5m-1.7 1c-.2 0-1 .5-1.8 1l-1.5 1h1.2c.6 0 1.5-.5 1.8-1 .3-.6.5-1 .3-1m-4.1 2c-.2 0-1.2.7-2.3 1.6l-1.9 1.5 2.3-1.1c1.2-.6 2.2-1.3 2.2-1.5 0-.3-.1-.5-.3-.5m56.8 1c-.3 0-.5.2-.5.5s.2.5.5.5.5-.2.5-.5-.2-.5-.5-.5m9 0c-.3 0-.5.2-.5.5s.2.5.5.5.5-.2.5-.5-.2-.5-.5-.5m2 1c-.3 0-.5.2-.5.5s.2.5.5.5.5-.2.5-.5-.2-.5-.5-.5m-73 1c-.3 0-.5.2-.5.5s.2.5.5.5.5-.2.5-.5-.2-.5-.5-.5m-1.5 1c-.3 0-2.9 1.6-5.8 3.5-2.9 2-8.5 6.6-12.4 10.3s-9.9 10-13.4 14l-6.2 7.3-3.4 8.1c-1.8 4.5-3.4 8.7-3.6 9.2-.1.6.9-.9 2.3-3.4s3.5-6 4.6-7.9l2-3.4-.5-1.4-.6-1.4 1 .6.9.6 1.1-2.2c.7-1.1 2.1-3.3 3.3-4.7 1.2-1.5 5.4-5.9 9.2-9.7 3.9-3.9 9.4-9 12.2-11.5s6.1-5.3 7.4-6.2 2.2-1.7 1.9-1.8m59.5 0c-.3 0-.5.2-.5.5s.2.5.5.5.5-.2.5-.5-.2-.5-.5-.5m20 3c-.3 0-.5.2-.5.5s.2.5.5.5.5-.2.5-.5-.2-.5-.5-.5"/><path d="M587.5 483c-.3 0-.5.2-.5.5s.2.5.5.5.5-.2.5-.5-.2-.5-.5-.5m-.9 3c-.3 0-.8.5-1.2 1.2l-.7 1.1 1.1-.7c.7-.4 1.2-.9 1.2-1.2 0-.2-.2-.4-.4-.4m-3 4c-.3 0-.8.5-1.2 1.2l-.7 1.1 1.1-.7c.7-.4 1.2-.9 1.2-1.2 0-.2-.2-.4-.4-.4m-13.1 2c-.3 0-.5.2-.5.5s.2.5.5.5.5-.2.5-.5-.2-.5-.5-.5m10 0c-.3 0-.5.2-.5.5s.2.5.5.5.5-.2.5-.5-.2-.5-.5-.5m-118.9 32.3c-.3-.4-.6.2-.5 1.3l.1 1.9.5-1.3c.3-.7.2-1.6-.1-1.9M546 532h-1.3l.6.7.7.6.7-.6.6-.7zm54 .3h-8.5l4.3.4c2.3.2 6.1.2 8.5 0l4.2-.4zm-11.5.7c-.3 0-.5.2-.5.5s.2.5.5.5.5-.2.5-.5-.2-.5-.5-.5m21.2 1.2-.5-1.7.1 4v4l.4-2.3c.2-1.2.2-3 0-4m-69.1 1.1c-.3-.4-.6.2-.5 1.3l.1 1.9.5-1.3c.3-.7.2-1.6-.1-1.9m19.9-.3c-.3 0-.5.2-.5.5s.2.5.5.5.5-.2.5-.5-.2-.5-.5-.5m28.2.3-.7-.6v2.6l.7-.6.6-.7zm7.8 3.7c-.3 0-.5.2-.5.5s.2.5.5.5.5-.2.5-.5-.2-.5-.5-.5m2.5 0h-1.3l.6.7.7.6.7-.6.6-.7zm8.5 0c-.3 0-.5.2-.5.5s.2.5.5.5.5-.2.5-.5-.2-.5-.5-.5m-57.8 1.3-.7-.6v2.6l.7-.6.6-.7zm10.9 1.7c-.3 0-.8.5-1.2 1.2l-.7 1.1 1.1-.7c.7-.4 1.2-.9 1.2-1.2 0-.2-.2-.4-.4-.4m38.4 3h-1.3l.6.7.7.6.7-.6.6-.7zm7 .2h-3.5l1.8.5c.9.2 2.5.2 3.5 0l1.7-.5zm3.7 2.1-.7-.6v2.6l.7-.6.6-.7zm-47.2 2.7c-.3 0-.5.2-.5.5s.2.5.5.5.5-.2.5-.5-.2-.5-.5-.5m-12.7 2.4c-.3-.2-.8-.1-1.1.3-.4.3-.7 1.3-.7 2.2l.1 1.6 1-1.8c.6-1 .9-2 .7-2.3m2.8.6h-1.5l.2 2 .1 2h2.6v-4zm10.9 0c-.3 0-.5.2-.5.5s.2.5.5.5.5-.2.5-.5-.2-.5-.5-.5m-22.2 3c-.2 0-.6.6-.9 1.4s-.4 2.3-.2 3.3l.4 1.8.5-3.3c.3-1.7.4-3.2.2-3.2m55.2 1c-.3 0-.5.2-.5.5s.2.5.5.5.5-.2.5-.5-.2-.5-.5-.5m-32.8 1.3-.7-.6v2.6l.7-.6.6-.7zm36.3.9h-3.5l1.8.5c.9.2 2.5.2 3.5 0l1.7-.5zm-37.4 1.8c-.3 0-.8.5-1.2 1.2l-.7 1.1 1.1-.7c.7-.4 1.2-.9 1.2-1.2 0-.2-.2-.4-.4-.4m-13.3 4-9.2-.5.8.8.8.8 8.4-.3 8.4-.3z"/></g><g fill="#0080BF" stroke-width="0"><path d="M582.5 451.5c-8.2-.2-17.9 0-21.5.4-3.6.5-8.9 1.3-11.8 1.9-2.9.7-9.5 2.6-14.5 4.2-5.1 1.7-12.4 4.7-16.2 6.6-3.9 1.8-9.8 5.1-13 7.3-3.3 2.2-7.3 5.4-9 7.2-1.6 1.8-2.3 2.9-1.5 2.4s4-2.8 7-5.1 7.6-5.4 10.1-6.8c2.5-1.3 9-4.3 14.5-6.5 5.4-2.2 12.6-4.6 15.9-5.4s8.7-2.1 12-2.8l6-1.4 15 .1c8.3 0 16.9.1 19.3.2 2.3.2 5.5.8 7 1.4s3.3 1 4 .9 4.5.7 8.5 1.8 10.6 3.6 14.7 5.6 8.9 4.4 10.5 5.4c1.7 1 5 3.2 7.5 5 2.5 1.7 6.1 4.2 8 5.5s5.4 4.5 7.8 7.2 5.4 6.1 6.8 7.6c1.3 1.5 2.4 3.1 2.4 3.6s1.4 2.6 3 4.8c1.7 2.1 3.8 5.4 4.7 7.3.8 2 3.1 6.9 4.9 10.8 1.9 4 3.4 7.9 3.4 8.6s.7 4 1.6 7.2l1.5 6v16.4l-1.6 6.8c-.8 3.7-1.9 7.7-2.4 8.8-.4 1.1-2.8 6-5.2 11l-4.4 9-6.4 6.7-6.4 6.8-9.4 6.2c-5.1 3.3-9.2 6.3-9 6.5s1.5-.1 2.8-.6 3.8-2.1 5.4-3.6c1.7-1.4 4.6-3.5 6.5-4.5 2-1 6.8-5 10.8-8.9l7.2-7v-1.6c0-.8.4-1.5.8-1.5.5 0 2-2.1 3.4-4.8 1.5-2.6 3.7-8.1 5.1-12.2 1.3-4.1 3-11.2 3.7-15.7l1.2-8.1-.5-6.4c-.4-3.4-.9-7.7-1.2-9.3-.3-1.7-1.1-5-1.7-7.5-.7-2.5-2.4-6.9-4-9.9-1.5-2.9-2.8-5.8-2.8-6.5-.1-.6-.8-2.7-1.8-4.6-.9-1.9-3.2-5.8-5.1-8.7l-3.5-5.2-.8.5c-.4.3-.8.1-.8-.5 0-.5-1.3-2.2-3-3.8-1.6-1.5-3-3.1-3-3.6 0-.4-1.2-2.1-2.7-3.7-1.4-1.7-3.2-3-4-3-.7 0-1.3-.4-1.3-.8s-1.3-1.6-3-2.5c-1.6-1-5-3.4-7.5-5.2-2.5-1.9-8-5.3-12.3-7.5-4.2-2.2-11.1-5.1-15.2-6.5s-10.6-3.3-14.5-4.1l-7-1.5z"/><path d="M588.5 480c-.3 0-.5.2-.5.5s.2.5.5.5.5-.2.5-.5-.2-.5-.5-.5m-96.1 3c-.6 0-4 3-7.5 6.8-3.5 3.7-7.4 7.9-8.6 9.4-1.2 1.4-2.6 3.6-3.3 4.7l-1.1 2.2-.9-.6-1-.6.6 1.4.5 1.4-2 3.4c-1.1 1.9-3.1 5.4-4.5 7.9l-2.4 4.6-1 5.9c-.6 3.3-1.6 9.2-2.3 13l-1.1 7 1.2 11 1.1 11 3.7 8.4 3.6 8.4 7.7 9.7c4.2 5.3 8.7 10.3 10 11.2 1.3.8 5.6 4.6 9.6 8.4 3.9 3.8 8 7.7 9.2 8.6 1.1.9 6.1 3.1 11.1 4.9 5 1.7 11.7 3.8 14.8 4.6s8 1.8 10.7 2.3c2.8.5 7.5 1.1 10.6 1.3 3.1.3 6.2.1 6.9-.3l1.1-.7-7.3-.6c-4-.4-12.2-2-18.3-3.6-6-1.6-13.4-3.8-16.3-4.9-3-1.2-8.6-4-12.5-6.4l-7.1-4.3-7.5-6.9c-4.2-3.9-9.5-9.5-11.8-12.6-2.3-3-5.1-6.6-6.1-8s-4-6.7-6.6-11.8l-4.7-9.3.6-.9c.3-.5.1-1.9-.5-3l-1.1-2.1v-9.7c0-5.3.5-13.1 1-17.2l1-7.5 2.2-5c1.2-2.8 3.2-6.4 4.5-8 1.2-1.7 3.7-5.9 5.5-9.5s5.4-9.3 8.1-12.7c2.7-3.5 6.4-7.4 8.1-8.8 1.8-1.4 2.7-2.5 2.1-2.5m92.1 6c-.3 0-.5.2-.5.5s.2.5.5.5.5-.2.5-.5-.2-.5-.5-.5M562 539.2l-.8-2.7-.1 3.2c-.1 1.7-.4 3.8-.7 4.7l-.6 1.6h1c.5 0 1.2-.9 1.5-2s.1-3.3-.3-4.8m38.5-.2c-.3 0-.5.2-.5.5s.2.5.5.5.5-.2.5-.5-.2-.5-.5-.5m4.9.1-1.9.1 1.3.5c.7.3 1.6.2 1.9-.1.4-.3-.2-.6-1.3-.5m4.1.9c-.3 0-.5.2-.5.5s.2.5.5.5.5-.2.5-.5-.2-.5-.5-.5m-13 5c-.3 0-.5.2-.5.5s.2.5.5.5.5-.2.5-.5-.2-.5-.5-.5m4.9.1-1.9.1 1.3.5c.7.3 1.6.2 1.9-.1.4-.3-.2-.6-1.3-.5m8.1.9c-.3 0-.5.2-.5.5s.2.5.5.5.5-.2.5-.5-.2-.5-.5-.5m0 3c-.3 0-.5.2-.5.5s.2.5.5.5.5-.2.5-.5-.2-.5-.5-.5m-46 3c-.3 0-.5.2-.5.5s.2.5.5.5.5-.2.5-.5-.2-.5-.5-.5m33 0c-.3 0-.5.2-.5.5s.2.5.5.5.5-.2.5-.5-.2-.5-.5-.5m.1 2.3c-.3-.4-.6.2-.5 1.3l.1 1.9.5-1.3c.3-.7.2-1.6-.1-1.9m-31.4 2.1-.9-1.6-.6 3.8-.6 3.9-2.8 1.8-2.8 1.9 1.8-.6c1-.3 2.2-.6 2.7-.6.4 0 1.5-1.6 2.4-3.5l1.7-3.5zm31.3 1.6c-.3 0-.5.2-.5.5s.2.5.5.5.5-.2.5-.5-.2-.5-.5-.5m13.1 1.3c-.3-.4-.6.2-.5 1.3l.1 1.9.5-1.3c.3-.7.2-1.6-.1-1.9m34.9 61.8c-.5 0-2.6.8-4.5 1.9s-3 1.9-2.5 1.9c.6 0 2.6-.8 4.5-1.9s3.1-1.9 2.5-1.9m-9 3.9c-.5 0-1.7.5-2.5 1l-1.5 1h1c.6 0 1.7-.5 2.5-1l1.5-1zm-5 2c-.3 0-.5.2-.5.5s.2.5.5.5.5-.2.5-.5-.2-.5-.5-.5m-2 1c-.3 0-.5.2-.5.5s.2.5.5.5.5-.2.5-.5-.2-.5-.5-.5m-2.5 1.1c-.8 0-2.2.4-3 .9s-1 .9-.5.9c.6 0 1.9-.4 3-.9l2-.9zm-8 1.9h-1.3l.6.7.7.6.7-.6.6-.7zm-2.5 1c-.3 0-.5.2-.5.5s.2.5.5.5.5-.2.5-.5-.2-.5-.5-.5m-3.5 1h-1.3l.6.7.7.6.7-.6.6-.7zm-3 1h-1.3l.6.7.7.6.7-.6.6-.7zm-9.6 2.1-1.9.1 1.3.5c.7.3 1.6.2 1.9-.1.4-.3-.2-.6-1.3-.5m-7.4.9h-1.3l.6.7.7.6.7-.6.6-.7zm-30.6 1h-1.5l.6 1c.4.6 1.1.8 1.6.5.5-.4.9-.8.9-1.1 0-.2-.7-.4-1.6-.4m12.1 0c-.3 0-.5.2-.5.5s.2.5.5.5.5-.2.5-.5-.2-.5-.5-.5m10.9.1-1.9.1 1.3.5c.7.3 1.6.2 1.9-.1.4-.3-.2-.6-1.3-.5"/></g><g fill="#00BFBF" stroke-width="0"><path d="M579 453.6c-7.4-.2-14.8-.2-16.5 0-1.6.2-5.5.9-8.5 1.5s-8.2 1.8-11.5 2.6-8.9 2.6-12.5 4-9.7 4-13.6 5.8c-3.9 1.9-10.4 5.9-14.5 8.9-4.1 3.1-9.1 7.1-11.2 8.8-2.1 1.8-6 5.9-8.6 9.3-2.6 3.3-6.2 8.9-8 12.5s-4.3 7.8-5.5 9.5c-1.3 1.6-3.3 5.2-4.5 8l-2.2 5-1 7.5c-.5 4.1-1 11.9-1 17.2v9.7l1.1 2.1c.6 1.1.8 2.5.5 3l-.6.9 4.7 9.3c2.6 5.1 5.6 10.4 6.6 11.8s3.8 5 6.1 8c2.3 3.1 7.6 8.7 11.8 12.6l7.5 6.9 7.1 4.3c3.9 2.4 9.5 5.2 12.5 6.4 2.9 1.1 9.5 3.1 14.6 4.4 5.1 1.4 11.6 2.9 14.4 3.4 2.8.6 11.3 1.3 18.9 1.6l13.8.5 12.3-1.6 12.3-1.6 8-2.5c4.4-1.3 9.6-2.9 11.5-3.5 1.9-.5 7.8-2.9 13-5.2l9.5-4.1 9.7-6.4 9.6-6.3 6.4-6.7 6.3-6.7 4.4-9c2.4-5 4.8-9.9 5.2-11 .5-1.1 1.6-5.1 2.4-8.8l1.6-6.8v-16.4l-1.5-6c-.9-3.2-1.6-6.5-1.6-7.2s-1.5-4.6-3.4-8.6c-1.8-3.9-4.1-8.8-4.9-10.8-.9-1.9-3-5.2-4.7-7.3-1.6-2.2-3-4.3-3-4.8s-1.1-2.1-2.4-3.6c-1.4-1.5-4.4-4.9-6.8-7.6s-5.9-5.9-7.8-7.2-5.5-3.8-8-5.5c-2.5-1.8-5.8-4-7.5-5-1.6-1-6.4-3.4-10.5-5.4s-10.7-4.5-14.7-5.6-7.8-1.9-8.5-1.8-2.6-.3-4.2-1c-1.6-.6-4.3-1.2-6-1.2s-9.2-.1-16.6-.3m-4.8 11.4c.9 0 2.9.5 4.5 1.1 1.5.5 4 2.2 5.6 3.7l2.7 2.6.7 3.9c.3 2.1 1.2 4.5 2 5.3l1.4 1.4-2.3 2.9c-1.3 1.5-3.7 3.8-5.4 5l-3 2.1h-11.6l-3.5-3.8-3.5-3.7.4-6.2.4-6.2 1.9-2.2c1.1-1.2 3.4-3 5-4 1.7-1.1 3.8-1.9 4.7-1.9m-32.5 66.4c1 .3 4.3.6 7.3.6 3 .1 6.7.4 8.2.6l2.6.5 1.3 3.2 1.3 3.1-.1 3.8-.2 3.7 1 .6c.5.4.9 2 .9 3.6 0 1.7.5 3.9 1 5l1.1 1.9-1.7 3.5-1.6 3.4-3.2.5c-1.7.3-6.6.7-10.9.8l-7.8.3-.4-2c-.2-1.1-.6-3.2-.8-4.7l-.4-2.7 1.5-.6 1.4-.5-.7-1.8c-.3-.9-.9-6.6-1.1-12.5l-.5-10.9zm57.4.6 10.4.5.3 4.3.3 4.4-1-.7c-.6-.3-3.5-.7-6.5-.9l-5.4-.3.5 1.4.5 1.3-1.2 1.5-1.2 1.5.8.1c.5 0 3.4 0 6.5-.1l5.7-.1.7 1.1c.4.6.4 2.2.1 3.6l-.6 2.4h-11.9l-.7 1.2-.7 1.1 1.3-.8 1.2-.8-.7 3.2-.7 3.1h13.4l-.6 2.2c-.3 1.3-.6 2.8-.6 3.5v1.2l-10.9.3-10.8.3.2-1.5c.1-.8.5-2.2.9-3.1l.7-1.6-.7-2.9c-.3-1.6-.7-7.4-.7-12.9-.1-5.5.1-10.7.4-11.5l.6-1.5zm2.7 9.5c.7.3 1.9.5 2.4.5h1.1l-.7.7c-.4.4-1.8.9-3.1 1l-2.5.4v-.9c0-.5.3-1.2.7-1.6.4-.3 1.3-.4 2.1-.1m-1.9 14.5c.6 0 1.3.4 1.6 1l.6 1h-1.5c-.9 0-1.6-.5-1.6-1 0-.6.4-1 .9-1"/><path d="m596.7 541.3-.7-.6v2.6l.7-.6.6-.7z"/></g><path fill="#40BFBF" d="M574.3 465c-1 0-2.7.6-3.8 1.2s-3.2 2.2-4.7 3.6c-1.6 1.4-2.8 2.9-2.8 3.3s1.5-.8 3.4-2.7l3.4-3.4h4.7c2.5 0 5.5.5 6.6 1 1 .6 1.9.8 1.9.5s-1.6-1.3-3.5-2.1c-1.9-.7-4.2-1.4-5.2-1.4m11.1 6c-.3 0-.2.4.1 1 .3.5.8 1 1.1 1s.2-.5-.1-1c-.3-.6-.8-1-1.1-1m-22.7 4.3-.7-.6v2.6l.7-.6.6-.7zm.3 7.9-.8-2.7-.1 2.5v2.5l3 3.5 3.1 3.5-2.2-3.3c-1.2-1.8-2.6-4.5-3-6m26.6-1.5-1.4-.6-.5 2.2c-.2 1.2-.8 3.1-1.3 4.2l-.8 2 2.7-3.1c1.5-1.8 2.7-3.4 2.7-3.7s-.6-.7-1.4-1M569.5 492c-.3 0-.5.2-.5.5s.2.5.5.5.5-.2.5-.5-.2-.5-.5-.5M541 531h-1.3l.6.7.7.6.7-.6.6-.7zm48.6 0c-.3 0-.8.5-1.2 1.2l-.7 1.1 1.1-.7c.7-.4 1.2-.9 1.2-1.2 0-.2-.2-.4-.4-.4m-34.6 1.2h-2.5l1.3.5c.6.2 1.8.2 2.5 0l1.2-.5zm4 .8h-1.3l.6.7.7.6.7-.6.6-.7zm-9 6h-1.3l.6.7.7.6.7-.6.6-.7zm-1 3h-1.3l.6.7.7.6.7-.6.6-.7zm53.2 0H599v2.1l2.5-.4c1.3-.1 2.7-.6 3.1-1l.7-.7zm-5.7 1c-.3 0-.5.2-.5.5s.2.5.5.5.5-.2.5-.5-.2-.5-.5-.5m-36.8 2.3-.7-.6v2.6l.7-.6.6-.7zm2.8 1.7c-.8-.7-1.5-1-1.5-.7 0 .2.7 1.8 1.5 3.3l1.5 2.9v-2.1c0-1.2-.7-2.7-1.5-3.4m26.2 1.7-.4-2.2v10l.4-2.8c.2-1.5.2-3.7 0-5m-48 1.6-.7-.6v2.6l.7-.6.6-.7zm.8 2.7c-.3 0-.5.2-.5.5s.2.5.5.5.5-.2.5-.5-.2-.5-.5-.5m58.4 3c-.5 0-.9.4-.9 1 0 .5.7 1 1.6 1h1.5l-.6-1c-.3-.6-1-1-1.6-1m-60.4 1c-.3 0-.5.2-.5.5s.2.5.5.5.5-.2.5-.5-.2-.5-.5-.5m49 0c-.3 0-.5.2-.5.5s.2.5.5.5.5-.2.5-.5-.2-.5-.5-.5m.2 5.7-.5-1.2v5l.5-1.3c.2-.6.2-1.8 0-2.5"/><g stroke-width="0"><path d="m576.3 467.5-3.8-.5-2.1.9c-1.2.5-3.2 2.4-4.5 4.3l-2.4 3.3.1 4.1.1 4.2 2.2 3.5 2.1 3.5 3.1 1.2 3.1 1.3 3.5-.9 3.6-.9 2.9-3.7 3-3.6.1-3.4c0-1.9-.5-4.9-1.2-6.6s-2.4-3.8-3.6-4.6c-1.3-.9-4.1-1.8-6.2-2.1M476.5 494c-.3 0-.5.2-.5.5s.2.5.5.5.5-.2.5-.5-.2-.5-.5-.5m-2 3c-.3 0-.5.2-.5.5s.2.5.5.5.5-.2.5-.5-.2-.5-.5-.5m-2 2c-.3 0-.5.2-.5.5s.2.5.5.5.5-.2.5-.5-.2-.5-.5-.5m-7 12c-.3 0-.5.2-.5.5s.2.5.5.5.5-.2.5-.5-.2-.5-.5-.5m-1 2c-.3 0-.5.2-.5.5s.2.5.5.5.5-.2.5-.5-.2-.5-.5-.5m-1 2c-.3 0-.5.2-.5.5s.2.5.5.5.5-.2.5-.5-.2-.5-.5-.5m-3.9 10.2c-.3-.2-.9 1.3-1.5 3.4-.6 2.2-1.2 5.9-1.5 8.4s-.3 3.6 0 2.5 1.2-4.7 2-7.9 1.2-6.1 1-6.4m236.1 7.1-.7-.6v2.6l.7-.6.6-.7zm-147.3.7c-3.3 0-6.3.3-6.7.6-.3.3-.3 4.3 0 8.8.3 4.4.9 8.5 1.4 9 .5.6.9 2 .9 3.3v2.3h-3v8h7.9c4.4 0 8.7-.3 9.6-.6.8-.4 2.2-1.9 3-3.5.8-1.5 1.5-4.2 1.5-5.9v-3.2l-3-3c-1.6-1.6-3-3.2-3-3.4 0-.3.7-1.2 1.6-2.1l1.5-1.6-.3-3.1-.3-3.1-2.5-1.2-2.5-1.3zm2.2 5c.7 0 1.6.5 1.9 1 .3.6.3 1.9 0 3l-.6 2h-4l-.5-1.5-.6-1.5 1.2-1.5c.7-.8 1.8-1.5 2.6-1.5m1.2 12.1c.2 0 1.2.4 2.3.9l1.9 1.1v2.2c0 1.3-.5 2.8-1.2 3.5s-2.5 1.2-4 1.2H548v-7.9l1.8-.4c.9-.3 1.8-.5 2-.6m46.9-16.9-9.8-.3.3 16.1.2 16H609v-5h-13v-9h13.1l-.3-2.3-.3-2.2-6.3.4-6.3.3.3-4.3.3-4.4h12.6l-.3-2.5-.3-2.5zm97.9 3.1c-.3-.4-.6.2-.5 1.3l.1 1.9.5-1.3c.3-.7.2-1.6-.1-1.9m1.1 4.4c-.3-.6-.5.1-.5 1.8v3l.5-1.8c.2-.9.2-2.3 0-3"/><path d="M455.5 542c-.1 0-.5 1.4-.9 3.1-.3 1.7-.6 8.6-.6 15.3 0 6.6.5 15 1 18.6.6 3.6 1.7 9 2.6 12 .8 3 3.2 10 5.1 15.5 2 5.5 5.7 13.8 8.1 18.5 2.5 4.7 5.3 9.6 6.4 10.9 1 1.3 1.5 2.7 1.2 3.2s-.1.9.4.9 1.9 2 3.2 4.5 2.7 4.5 3.2 4.5 2.7 1.8 4.9 4.1c2.1 2.2 3.9 3.8 3.9 3.4s1.4.5 3.1 1.9 3.4 2.6 3.9 2.6c.4 0 3.7 1.8 7.1 4 3.5 2.2 7.3 4.4 8.4 4.9s2.3.9 2.8 1c.4 0 2.2.8 4 1.8 1.7.9 3.8 1.6 4.5 1.4.8-.1 1.9.3 2.7.9.7.6 2.1 1.3 3.1 1.5 1.1.2 4.5 1.1 7.7 2s8 1.7 10.6 1.8c2.7.1 4.8.4 4.6.7s1.8.6 4.3.7c2.6.1 6.4.3 8.5.5l3.9.3.4-.7.5-.8 2.1 1.1 2.1 1.1.6-.9.6-.9 7.8.1c4.3 0 8.1-.3 8.3-.7.3-.4 1-.5 1.7-.2.7.2 3.5-.1 6.2-.6 2.8-.6 6.4-1.2 8.1-1.4s3.6-.6 4.2-1c.7-.4 2.2-.9 3.4-1.1 1.2-.3 2.4-.8 2.7-1.3s2.6-1.2 5.1-1.6c2.4-.4 5-1.2 5.7-1.8.8-.6 1.6-.8 2-.5.3.4 2-.2 3.7-1.2 1.7-1.1 3.3-2 3.6-2 .3-.1 2-.6 3.8-1.3 1.7-.7 3.2-1.6 3.2-2s.5-.8 1.1-.8c.5 0 2.9-1.5 5.2-3.3 2.3-1.7 4.5-3.6 4.8-4s1-.7 1.6-.5c.5.2 3-1.8 5.4-4.4 2.4-2.5 5.1-5.6 5.9-6.9.8-1.2 2.4-3.4 3.5-4.8s2.6-3.5 3.2-4.6c.7-1.1 1.9-3.5 2.7-5.3l1.5-3.2h2.6l-1.5-1-1.5-1h2.2l3-8.8c1.7-4.8 3.6-10.7 4.4-13.2.7-2.5 1.4-5 1.5-5.5.2-.6 1-4.2 1.9-8l1.6-7 .6-17 .6-17-.7.6c-.4.3-1.3 4.8-2.1 10s-2.5 12.5-3.8 16.4c-1.3 3.8-3.7 9.5-5.2 12.5s-4.3 8-6.2 11-6.5 8.6-10.1 12.4c-3.7 3.7-9.9 9.4-13.9 12.6l-7.2 5.8-12.3 6.1-12.3 6-10.2 3c-5.7 1.7-13.6 3.7-17.7 4.6l-7.5 1.5h-26.9l-11.1-1.9c-6.1-1.1-11.5-2.2-12-2.6-.6-.3-2.6-.6-4.5-.7l-3.5-.1.4-.8.5-.7-1.9.5-2 .5-5.5-2.1c-3.1-1.1-8.7-3.6-12.6-5.5-3.8-1.9-9.1-4.9-11.7-6.7s-9.6-8-15.4-13.8l-10.6-10.6-5.6-10c-3.1-5.6-6.8-13.2-8.1-17-1.3-3.9-2.7-9.7-3.2-13-.4-3.3-.8-10.2-.7-15.3.1-5 0-9.2-.2-9.2m2 41c.3 0 .5.2.5.5s-.2.5-.5.5-.5-.2-.5-.5.2-.5.5-.5m1.2 2.7c.2.7.2 1.9 0 2.5l-.5 1.3v-5zm1 4.6.6.7-.6.7-.7.6v-2.6zM663.5 654c.3 0 .5.2.5.5s-.2.5-.5.5-.5-.2-.5-.5.2-.5.5-.5m-137 19c.3 0 .5.2.5.5s-.2.5-.5.5-.5-.2-.5-.5.2-.5.5-.5"/><path d="M633.5 672c-.3 0-.5.2-.5.5s.2.5.5.5.5-.2.5-.5-.2-.5-.5-.5"/></g><path fill="#408080" d="M568.6 468c-.3 0-.8.5-1.2 1.2l-.7 1.1 1.1-.7c.7-.4 1.2-.9 1.2-1.2 0-.2-.2-.4-.4-.4m14.8 1c-.3 0-.2.4.1 1 .3.5.8 1 1.1 1s.2-.5-.1-1c-.3-.6-.8-1-1.1-1m-17.9 2c-.3 0-.5.2-.5.5s.2.5.5.5.5-.2.5-.5-.2-.5-.5-.5m-2 3c-.3 0-.5.2-.5.5s.2.5.5.5.5-.2.5-.5-.2-.5-.5-.5m24 1c-.3 0-.5.2-.5.5s.2.5.5.5.5-.2.5-.5-.2-.5-.5-.5m-24.9 3.3c-.3-.4-.6.2-.5 1.3l.1 1.9.5-1.3c.3-.7.2-1.6-.1-1.9m.9 5.7c-.3 0-.5.2-.5.5s.2.5.5.5.5-.2.5-.5-.2-.5-.5-.5m24 0c-.3 0-.5.2-.5.5s.2.5.5.5.5-.2.5-.5-.2-.5-.5-.5m-23 2c-.3 0-.5.2-.5.5s.2.5.5.5.5-.2.5-.5-.2-.5-.5-.5m2.9 4c-.3 0-.2.4.1 1 .3.5.8 1 1.1 1s.2-.5-.1-1c-.3-.6-.8-1-1.1-1m-26.9 42c-.3 0-.5.2-.5.5s.2.5.5.5.5-.2.5-.5-.2-.5-.5-.5m2.9.1-1.9.1 1.3.5c.7.3 1.6.2 1.9-.1.4-.3-.2-.6-1.3-.5m5.6.1h-2.5l1.3.5c.6.2 1.8.2 2.5 0l1.2-.5zm8.5.8c-.3 0-.5.2-.5.5s.2.5.5.5.5-.2.5-.5-.2-.5-.5-.5m2 1c-.3 0-.5.2-.5.5s.2.5.5.5.5-.2.5-.5-.2-.5-.5-.5m29 0c-.3 0-.5.2-.5.5s.2.5.5.5.5-.2.5-.5-.2-.5-.5-.5m.1 3.3c-.3-.4-.6.2-.5 1.3l.1 1.9.5-1.3c.3-.7.2-1.6-.1-1.9m-40.1 1.7c-.3 0-.5.2-.5.5s.2.5.5.5.5-.2.5-.5-.2-.5-.5-.5m2.2 1.3-.7-.6v2.6l.7-.6.6-.7zm-2.2.7c-.3 0-.5.2-.5.5s.2.5.5.5.5-.2.5-.5-.2-.5-.5-.5m.9 2.1-1.9.1 1.3.5c.7.3 1.6.2 1.9-.1.4-.3-.2-.6-1.3-.5m9 .9c-.2 0-.5.4-.9.9-.3.5-.2 1.2.3 1.5l.9.5v-1.4c0-.8-.2-1.5-.3-1.5m-16.9 7c-.3 0-.5.2-.5.5s.2.5.5.5.5-.2.5-.5-.2-.5-.5-.5m10.4 0c-1.1 0-1.9.4-1.9 1v1h4v2.1l1-.6 1.1-.7-1.2-1.4c-.6-.8-2-1.4-3-1.4m-3.4 5c-.3 0-.5.2-.5.5s.2.5.5.5.5-.2.5-.5-.2-.5-.5-.5m7.3.1c-.2 0-1.2.4-2.3.9l-2 .9h1.7c.9.1 2-.4 2.3-.9.3-.6.5-1 .3-.9M550 558h-1.3l.6.7.7.6.7-.6.6-.7zm-9.3 4.3-.7-.6v2.6l.7-.6.6-.7zM501 630c-1.1-.6-2-.8-2-.6 0 .3.9 1 2 1.6s2 .8 2 .6c0-.3-.9-1-2-1.6m3.5 2c-.3 0-.5.2-.5.5s.2.5.5.5.5-.2.5-.5-.2-.5-.5-.5"/><path fill="#40BF80" d="M564.5 472c-.3 0-.5.2-.5.5s.2.5.5.5.5-.2.5-.5-.2-.5-.5-.5m-2 5c-.3 0-.5.2-.5.5s.2.5.5.5.5-.2.5-.5-.2-.5-.5-.5m4 12c-.3 0-.5.2-.5.5s.2.5.5.5.5-.2.5-.5-.2-.5-.5-.5m-15 43c-.3 0-.5.2-.5.5s.2.5.5.5.5-.2.5-.5-.2-.5-.5-.5m37.2 9.2-.5-1.7.1 4v4l.4-2.3c.2-1.2.2-3 0-4m-46.5 11.6-1.1-1.1.6 2.4.7 2.3.4-1.3c.2-.7-.1-1.8-.6-2.3m13.7 1.7c-.3-.3-.9-.2-1.2.2-.4.3-.7 1.1-.7 1.7v1l1.2-1.2c.6-.6.9-1.4.7-1.7m-5.9 2.7h-2.5l1.3.5c.6.2 1.8.2 2.5 0l1.2-.5z"/><path fill="#004000" d="M565.5 472c-.3 0-.5.2-.5.5s.2.5.5.5.5-.2.5-.5-.2-.5-.5-.5m22 6c-.3 0-.5.2-.5.5s.2.5.5.5.5-.2.5-.5-.2-.5-.5-.5m-112 17c-.3 0-.5.2-.5.5s.2.5.5.5.5-.2.5-.5-.2-.5-.5-.5m217 29c-.3 0-.5.2-.5.5s.2.5.5.5.5-.2.5-.5-.2-.5-.5-.5m1 3c-.3 0-.5.2-.5.5s.2.5.5.5.5-.2.5-.5-.2-.5-.5-.5m1 3c-.3 0-.5.2-.5.5s.2.5.5.5.5-.2.5-.5-.2-.5-.5-.5m-135 5c-.3 0-.5.2-.5.5s.2.5.5.5.5-.2.5-.5-.2-.5-.5-.5m-17.9 5.3c-.3-.4-.6.2-.5 1.3l.1 1.9.5-1.3c.3-.7.2-1.6-.1-1.9m-86.1 7.7c-.3 0-.5.2-.5.5s.2.5.5.5.5-.2.5-.5-.2-.5-.5-.5m.1 2.3c-.3-.4-.6.2-.5 1.3l.1 1.9.5-1.3c.3-.7.2-1.6-.1-1.9m86.8.7c-.3 0-.2.4.1 1 .3.5.8 1 1.1 1s.2-.5-.1-1c-.3-.6-.8-1-1.1-1m-86.9 4c-.3 0-.5.2-.5.5s.2.5.5.5.5-.2.5-.5-.2-.5-.5-.5m0 4c-.3 0-.5.2-.5.5s.2.5.5.5.5-.2.5-.5-.2-.5-.5-.5m1.2 3.3-.7-.6v2.6l.7-.6.6-.7zm-.2 2.7c-.3 0-.5.2-.5.5s.2.5.5.5.5-.2.5-.5-.2-.5-.5-.5"/><path fill="#408040" d="M563.5 475c-.3 0-.5.2-.5.5s.2.5.5.5.5-.2.5-.5-.2-.5-.5-.5m0 8c-.3 0-.5.2-.5.5s.2.5.5.5.5-.2.5-.5-.2-.5-.5-.5m-22 49c-.3 0-.5.2-.5.5s.2.5.5.5.5-.2.5-.5-.2-.5-.5-.5m48 0c-.3 0-.5.2-.5.5s.2.5.5.5.5-.2.5-.5-.2-.5-.5-.5m-48 18c-.3 0-.5.2-.5.5s.2.5.5.5.5-.2.5-.5-.2-.5-.5-.5m1 2c-.3 0-.5.2-.5.5s.2.5.5.5.5-.2.5-.5-.2-.5-.5-.5m1.2 2.3-.7-.6v2.6l.7-.6.6-.7z"/><path fill="#008040" d="M587.5 476c-.3 0-.5.2-.5.5s.2.5.5.5.5-.2.5-.5-.2-.5-.5-.5m-39 76c-.3 0-.5.2-.5.5s.2.5.5.5.5-.2.5-.5-.2-.5-.5-.5m-6 4c-.3 0-.5.2-.5.5s.2.5.5.5.5-.2.5-.5-.2-.5-.5-.5m9 2c-.3 0-.5.2-.5.5s.2.5.5.5.5-.2.5-.5-.2-.5-.5-.5"/><g fill="#400000" stroke-width="0"><path d="M563.5 481c-.3 0-.5.2-.5.5s.2.5.5.5.5-.2.5-.5-.2-.5-.5-.5m-106 49c-.3 0-.5.2-.5.5s.2.5.5.5.5-.2.5-.5-.2-.5-.5-.5m84 3c-.3 0-.5.2-.5.5s.2.5.5.5.5-.2.5-.5-.2-.5-.5-.5m-84.8 1.3-.7-.6v2.6l.7-.6.6-.7zm239.8.7c-.3 0-.5.2-.5.5s.2.5.5.5.5-.2.5-.5-.2-.5-.5-.5m-155 3c-.3 0-.5.2-.5.5s.2.5.5.5.5-.2.5-.5-.2-.5-.5-.5m156.2.3-.7-.6v2.6l.7-.6.6-.7zm-242 2-.7-.6v2.6l.7-.6.6-.7zm243 3-.7-.6v2.6l.7-.6.6-.7zm-.1 3c-.3-.4-.6.2-.5 1.3l.1 1.9.5-1.3c.3-.7.2-1.6-.1-1.9m.9 7.7c-.3 0-.5.2-.5.5s.2.5.5.5.5-.2.5-.5-.2-.5-.5-.5m.2 4.7-.4-2.2v9l.4-2.3c.2-1.2.2-3.2 0-4.5m-246 2-.4-3.2v13l.4-3.3c.2-1.7.2-4.7 0-6.5m246 6.6-.7-.6v2.6l.7-.6.6-.7zm-.2 3.7c-.3 0-.5.2-.5.5s.2.5.5.5.5-.2.5-.5-.2-.5-.5-.5m-245.1 4.1c-.2-.2-.4 1.1-.3 3 0 1.9.4 4.3.9 5.4l.9 2-.6-5c-.3-2.8-.7-5.2-.9-5.4m244-.1c-.2 0-.4 1.3-.4 3 0 1.6.4 3 .8 3h.9l-.5-3c-.2-1.7-.6-3-.8-3m.4 7c-.4 0-1 1-1.2 2.2-.3 1.3-1.1 4.8-1.7 7.8-.7 3-1.4 5.7-1.4 6-.1.3-.7 2.5-1.4 5-.8 2.5-2.7 8.4-4.4 13.2l-3 8.8h-2.2l1.5 1 1.5 1h-2.6l-1.5 3.2c-.8 1.8-2 4.2-2.7 5.3-.6 1.1-2.1 3.2-3.2 4.6s-2.7 3.6-3.5 4.8c-.8 1.3-3.5 4.4-5.9 6.9-2.4 2.6-4.9 4.6-5.4 4.4-.6-.2-1.3.1-1.6.5s-2.5 2.3-4.8 4c-2.3 1.8-4.7 3.3-5.2 3.3-.6 0-1.1.4-1.1.8s-1.4 1.3-3 1.9c-1.7.6-3.2 1.1-3.3 1s-1.8.8-3.8 2.1c-2 1.2-3.9 1.9-4.2 1.5-.4-.3-1.2-.1-2 .5-.7.6-3.3 1.4-5.7 1.8-2.5.4-4.8 1.1-5.1 1.6s-1.5 1-2.7 1.3c-1.2.2-2.7.7-3.4 1.1-.6.4-2.5.8-4.2 1s-5.3.8-8.1 1.4c-2.7.5-5.5.8-6.2.6-.7-.3-1.4-.2-1.7.2-.2.4-4 .7-8.3.7l-7.8-.1-.6.9-.6.9-2.1-1.1-2.1-1.1-.5.8-.4.7-3.9-.3c-2.1-.2-5.9-.4-8.5-.5-2.5-.1-4.5-.4-4.3-.7s-1.9-.6-4.6-.7c-2.6-.1-7.4-.9-10.6-1.8s-6.6-1.8-7.7-2c-1-.2-2.4-.9-3.1-1.5-.8-.6-1.9-1-2.7-.9-.7.2-2.8-.5-4.5-1.4-1.8-1-3.6-1.8-4-1.8-.5-.1-1.7-.5-2.8-1s-4.9-2.7-8.4-4.9c-3.4-2.2-6.7-4-7.1-4-.5 0-2.2-1.2-3.9-2.6s-3.1-2.3-3.1-1.9-1.8-1.2-3.9-3.4c-2.2-2.3-4.4-4.1-4.9-4.1s-1.9-2-3.2-4.5-2.7-4.5-3.2-4.5-.7-.4-.4-.9-.2-1.9-1.2-3.2-3.8-5.9-6.1-10.3c-2.3-4.3-5.6-11.5-7.3-16-1.7-4.4-3.6-9.9-4.4-12.1l-1.3-4 .1 5.2c.1 2.9.4 5.3.7 5.3.4 0 .7.8.8 1.9.1 1 .9 3.6 1.9 5.7.9 2.1 1.8 4.3 1.9 4.9 0 .5.6 2.3 1.3 3.8.6 1.5 1.5 3.9 1.8 5.2l.6 2.5h2.9l-.5.9c-.3.4.1 1.6.8 2.7l1.4 1.8-.5 1.3-.5 1.3h2.3l-.6.9c-.3.5-.1 1.2.5 1.6.5.3 1 1.5 1 2.6 0 1 .9 2.8 2 3.9s2 2.8 2 3.8v1.9l2.3 1.2c1.2.6 3.1 2.5 4.2 4.1 1 1.6 2.3 2.6 2.7 2.4l.8-.5v1.5c0 .9.5 1.6 1 1.6.6 0 1.9.9 3 2s2.1 2.3 2.3 2.7c.1.5.5.7 1 .5.4-.1.7.2.7.8s.3 1 .8.9c.4-.1 1.7.2 3 .6l2.2.7-1.1 1.4-1.1 1.4h1c.6 0 1.4-.5 1.7-1.1l.7-1 2.5 2.8c1.4 1.5 2.2 2.1 1.8 1.3l-.6-1.5 1.5 1.9 1.6 2v-2.6l1.3 1.1 1.4 1.1.6-.7.7-.6.1 1.4c.1.8.1 1.8 0 2.4l-.1 1 3.3.2c1.7.1 4 .3 4.9.5 1 .2 2.1.8 2.5 1.3l.8.8-1.5-.8-1.5-.8 1 1.1c.6.6 2.6 1.3 4.5 1.7s5 .9 6.8 1.2l3.2.5v1.9l2-.6 2-.6v.9c0 .6.7 1.3 1.6 1.6l1.5.6-.6-1-.6-1h2c1.1 0 2.2.4 2.5.9l.6.9 1.9-.5 1.9-.5.7 1.2.7 1.1 1.4-1.2 1.5-1.2-.3 1.4-.3 1.4 2.3-.1 2.2-.1v1.4c0 .7.3 1.3.7 1.3.3 0 1.5-.7 2.5-1.7l1.8-1.6v1.3c0 .7.3 1 .6.7.4-.3 1.4-.2 2.3.3l1.7.9 1.4-.9 1.3-.8 2.5.9 2.4.9 1.2-.8c.6-.4 2.6-.9 4.3-1.1l3.3-.3-.6 1.9-.6 1.8.9-1.3c.6-.7 2.3-1.5 3.9-1.7s3.7-.4 4.7-.4l1.8-.1-.7-1.3-.8-1.2 1.6 1.2c.8.7 1.7 1.1 1.9.9s1.7-.6 3.2-1l2.9-.7-.8 1.2-.7 1.2 2.4-1.6c1.3-.9 2.7-1.7 3.2-1.7.4 0 .6.4.3.8l-.5.9h2.7l-.4-1.2-.4-1.1h4v1c0 .5.6.2 1.3-.9l1.4-1.8 1.1.7 1.2.7v-1.9l2.6.3 2.7.3 2.8-1.7c1.6-.9 2.9-2 2.9-2.5v-.8l1.6 1.2 1.5 1.3.6-2.2.6-2.3.8 1.3.7 1.3 1.5-1.2 1.4-1.2.6.7.7.6v-3.2l1.5.5 1.5.6v-.9c0-.5 2-2 4.5-3.2s4.5-2.7 4.5-3.2v-1l2 .6 2 .6v-3.6l.9 1.3.8 1.4 2.1-2.6c1.1-1.4 2.5-2.6 3-2.6.6 0 1.4-.9 1.7-2l.6-2 1 .5.9.6V659l1.3.2 1.2.3-.3-1.3c-.1-.6.1-1.1.5-1.1.5.1 1.4.1 2.2 0l1.3-.1-.6-2.8-.7-2.7.9 1.3.9 1.3 2.4-3.5c1.3-2 3-3.6 3.8-3.6h1.3l-.6-1.5-.5-1.5h2.1l-1.2-1.5-1.3-1.5 1.7.6 1.8.7-.4-1.9-.3-1.9 1.4.3 1.4.3-1.1-1.4-1.2-1.4 1.3-1.2 1.4-1.1.6.7.7.6v-1.1c0-.7-.4-1.2-.9-1.2h-.9l.5-2c.3-1.1.9-1.8 1.3-1.5s1.1-.2 1.4-1.1.4-2 0-2.5l-.5-.9h2.2l-.6-.9-.5-1 2-3.3c1.1-1.8 2-4.3 2-5.6v-2.3l.9.5.9.6-.2-3.5-.1-3.5h1.6l-.6-1-.7-1.1 1.2-1.4 1.2-1.4-.7-1.1-.7-1.1 1-1.2 1-1.2-.4-4.3-.3-4.2h.8c.4 0 .7-1.4.7-3 0-1.7-.3-3-.8-3m-27.3 73c.3 0 .5.2.5.5s-.2.5-.5.5-.5-.2-.5-.5.2-.5.5-.5m-38 17c.3 0 .5.2.5.5s-.2.5-.5.5-.5-.2-.5-.5.2-.5.5-.5m-63 18c.3 0 .5.2.5.5s-.2.5-.5.5-.5-.2-.5-.5.2-.5.5-.5m-8 1c.3 0 .5.2.5.5s-.2.5-.5.5-.5-.2-.5-.5.2-.5.5-.5m-105-108c-.3 0-.5.2-.5.5s.2.5.5.5.5-.2.5-.5-.2-.5-.5-.5m1.2 2.7-.5-1.2v5l.5-1.3c.2-.6.2-1.8 0-2.5M457 589c-.5-.8-.9-1.1-.9-.5 0 .5.4 1.9.9 3l.9 2V592c0-.8-.4-2.2-.9-3m2.7 1.3-.7-.6v2.6l.7-.6.6-.7z"/><path d="M691.5 622c-.3 0-.5.2-.5.5s.2.5.5.5.5-.2.5-.5-.2-.5-.5-.5m2 0c-.3 0-.5.2-.5.5s.2.5.5.5.5-.2.5-.5-.2-.5-.5-.5m-7.5 14h-1.3l.6.7.7.6.7-.6.6-.7zm-204.5 18c-.3 0-.5.2-.5.5s.2.5.5.5.5-.2.5-.5-.2-.5-.5-.5m182 0c-.3 0-.5.2-.5.5s.2.5.5.5.5-.2.5-.5-.2-.5-.5-.5m-160 19c-.3 0-.5.2-.5.5s.2.5.5.5.5-.2.5-.5-.2-.5-.5-.5m23 0c-.3 0-.5.2-.5.5s.2.5.5.5.5-.2.5-.5-.2-.5-.5-.5m25 17c-.3 0-.5.2-.5.5s.2.5.5.5.5-.2.5-.5-.2-.5-.5-.5m6 2c-.3 0-.5.2-.5.5s.2.5.5.5.5-.2.5-.5-.2-.5-.5-.5"/></g><g fill="#000040" stroke-width="0"><path d="M585.5 486c-.3 0-.5.2-.5.5s.2.5.5.5.5-.2.5-.5-.2-.5-.5-.5m-127 45c-.3 0-.5.2-.5.5s.2.5.5.5.5-.2.5-.5-.2-.5-.5-.5m102 7c-.3 0-.5.2-.5.5s.2.5.5.5.5-.2.5-.5-.2-.5-.5-.5m37.5 0h-1.3l.6.7.7.6.7-.6.6-.7zm2.5 0c-.3 0-.5.2-.5.5s.2.5.5.5.5-.2.5-.5-.2-.5-.5-.5m4.9.1-1.9.1 1.3.5c.7.3 1.6.2 1.9-.1.4-.3-.2-.6-1.3-.5M456.5 541c-.3 0-.5.2-.5.5s.2.5.5.5.5-.2.5-.5-.2-.5-.5-.5m101 3c-.3 0-.5.2-.5.5s.2.5.5.5.5-.2.5-.5-.2-.5-.5-.5m140.2 2.2-.5-1.7.1 4v4l.4-2.3c.2-1.2.2-3 0-4m-140.2-.2c-.3 0-.5.2-.5.5s.2.5.5.5.5-.2.5-.5-.2-.5-.5-.5m43 .3h-5l2.8.4c1.5.2 3.7.2 5 0l2.2-.4zm-49 3.7c-.3 0-.5.2-.5.5s.2.5.5.5.5-.2.5-.5-.2-.5-.5-.5m38 4c-.3 0-.5.2-.5.5s.2.5.5.5.5-.2.5-.5-.2-.5-.5-.5m.2 2.7-.5-1.2v5l.5-1.3c.2-.6.2-1.8 0-2.5m-27.2 2.3c-.3 0-.5.2-.5.5s.2.5.5.5.5-.2.5-.5-.2-.5-.5-.5m-4 5c-.3 0-.5.2-.5.5s.2.5.5.5.5-.2.5-.5-.2-.5-.5-.5m137 1c-.3 0-.5.2-.5.5s.2.5.5.5.5-.2.5-.5-.2-.5-.5-.5m-237 11c-.3 0-.5.2-.5.5s.2.5.5.5.5-.2.5-.5-.2-.5-.5-.5m3 8c-.3 0-.5.2-.5.5s.2.5.5.5.5-.2.5-.5-.2-.5-.5-.5m4 8c-.3 0-.5.2-.5.5s.2.5.5.5.5-.2.5-.5-.2-.5-.5-.5m219 1c-.3 0-.5.2-.5.5s.2.5.5.5.5-.2.5-.5-.2-.5-.5-.5m-216 4c-.3 0-.5.2-.5.5s.2.5.5.5.5-.2.5-.5-.2-.5-.5-.5m213 1c-.3 0-.5.2-.5.5s.2.5.5.5.5-.2.5-.5-.2-.5-.5-.5m-212.1 1c-.3 0-.2.4.1 1 .3.5.8 1 1.1 1s.2-.5-.1-1c-.3-.6-.8-1-1.1-1m210.1 2c-.3 0-.5.2-.5.5s.2.5.5.5.5-.2.5-.5-.2-.5-.5-.5m-208 1c-.3 0-.5.2-.5.5s.2.5.5.5.5-.2.5-.5-.2-.5-.5-.5m.9 2c-.3 0-.2.4.1 1 .3.5.8 1 1.1 1s.2-.5-.1-1c-.3-.6-.8-1-1.1-1m205.1 0c-.3 0-.5.2-.5.5s.2.5.5.5.5-.2.5-.5-.2-.5-.5-.5m-202.2 4q-.3 0-.3.3c0 .2 1.5 1.6 3.3 3.3l3.2 2.9-2.9-3.3c-1.7-1.7-3.1-3.2-3.3-3.2m6.9 7c-.3 0 .3.9 1.3 2s2 2 2.3 2-.3-.9-1.3-2-2-2-2.3-2m183.5 1c-.2 0-1.6 1.5-3.3 3.2l-2.9 3.3 3.3-2.9c1.7-1.7 3.2-3.1 3.2-3.3q0-.3-.3-.3m-174.2 8c-.3 0-.5.2-.5.5s.2.5.5.5.5-.2.5-.5-.2-.5-.5-.5m165.1 0c-.3 0-.8.5-1.2 1.2l-.7 1.1 1.1-.7c.7-.4 1.2-.9 1.2-1.2 0-.2-.2-.4-.4-.4m-3.9 3c-.2 0-1.2.7-2.3 1.6l-1.9 1.5 2.3-1.1c1.2-.6 2.2-1.3 2.2-1.5 0-.3-.1-.5-.3-.5m-155.2 2c-.3 0-.5.2-.5.5s.2.5.5.5.5-.2.5-.5-.2-.5-.5-.5m150 1c-.3 0-.5.2-.5.5s.2.5.5.5.5-.2.5-.5-.2-.5-.5-.5m-1.8 1c-.2 0-1.2.7-2.3 1.6l-1.9 1.5 2.3-1.1c1.2-.6 2.2-1.3 2.2-1.5 0-.3-.1-.5-.3-.5m-5.2 3c-.3 0-.5.2-.5.5s.2.5.5.5.5-.2.5-.5-.2-.5-.5-.5m-2 1c-.3 0-.5.2-.5.5s.2.5.5.5.5-.2.5-.5-.2-.5-.5-.5m-130 1c-.3 0-.5.2-.5.5s.2.5.5.5.5-.2.5-.5-.2-.5-.5-.5m5.8 0c-.4 0 1.3 1.2 3.9 2.7l4.7 2.6-.5.9q-.45.75.3.6c.4-.1 1.7.3 2.9.9 1.1.7 4.7 1.4 8 1.7l5.9.5-8-2.8c-4.4-1.5-9.9-3.8-12.2-4.9-2.3-1.2-4.6-2.2-5-2.2m18.2 8c.3 0 .5.2.5.5s-.2.5-.5.5-.5-.2-.5-.5.2-.5.5-.5m104-8c-.3 0-.5.2-.5.5s.2.5.5.5.5-.2.5-.5-.2-.5-.5-.5m-2 1c-.3 0-.5.2-.5.5s.2.5.5.5.5-.2.5-.5-.2-.5-.5-.5m-2 1c-.3 0-.5.2-.5.5s.2.5.5.5.5-.2.5-.5-.2-.5-.5-.5m-2.5 1h-1.3l.6.7.7.6.7-.6.6-.7zm-112.5 1c-.3 0-.5.2-.5.5s.2.5.5.5.5-.2.5-.5-.2-.5-.5-.5m110 0c-.3 0-.5.2-.5.5s.2.5.5.5.5-.2.5-.5-.2-.5-.5-.5"/><path d="M519.5 641c-.3 0-.5.2-.5.5s.2.5.5.5.5-.2.5-.5-.2-.5-.5-.5m105.5 0h-1.3l.6.7.7.6.7-.6.6-.7zm-3 1h-1.3l.6.7.7.6.7-.6.6-.7zm-3 1h-1.3l.6.7.7.6.7-.6.6-.7zm-3 1h-1.3l.6.7.7.6.7-.6.6-.7zm-3.5 1c-.3 0-.5.2-.5.5s.2.5.5.5.5-.2.5-.5-.2-.5-.5-.5m-71.5 1.2-1.5-.1 2 .9c1.1.5 2.9.8 4 .8h2l-2.5-.8c-1.4-.4-3.2-.8-4-.8m68-.2h-1.3l.6.7.7.6.7-.6.6-.7zm-4 1h-1.3l.6.7.7.6.7-.6.6-.7zm-55 1h-1.3l.6.7.7.6.7-.6.6-.7zm51 0h-1.3l.6.7.7.6.7-.6.6-.7zm-45.6 1.1-1.9.1 1.3.5c.7.3 1.6.2 1.9-.1.4-.3-.2-.6-1.3-.5m41 0-1.9.1 1.3.5c.7.3 1.6.2 1.9-.1.4-.3-.2-.6-1.3-.5m-34 1-1.9.1 1.3.5c.7.3 1.6.2 1.9-.1.4-.3-.2-.6-1.3-.5m25.1.2h-5l2.8.4c1.5.2 3.7.2 5 0l2.2-.4z"/></g><path fill="#4080BF" d="M585.5 488c-.3 0-.5.2-.5.5s.2.5.5.5.5-.2.5-.5-.2-.5-.5-.5m-37 52c-.3 0-.5.2-.5.5s.2.5.5.5.5-.2.5-.5-.2-.5-.5-.5m48 0c-.3 0-.5.2-.5.5s.2.5.5.5.5-.2.5-.5-.2-.5-.5-.5m-35.9 3c-.3 0-.8.5-1.2 1.2l-.7 1.1 1.1-.7c.7-.4 1.2-.9 1.2-1.2 0-.2-.2-.4-.4-.4m-.3 3.1q-.3-.3-.3.6c0 .6.8 1.7 1.8 2.4l1.7 1.4-1.5-2c-.8-1.1-1.6-2.2-1.7-2.4m2.2 15.9c-.3 0-.5.2-.5.5s.2.5.5.5.5-.2.5-.5-.2-.5-.5-.5"/><g fill="#404000" stroke-width="0"><path d="M474.5 496c-.3 0-.5.2-.5.5s.2.5.5.5.5-.2.5-.5-.2-.5-.5-.5m-3 4c-.3 0-.5.2-.5.5s.2.5.5.5.5-.2.5-.5-.2-.5-.5-.5m223 29c-.3 0-.5.2-.5.5s.2.5.5.5.5-.2.5-.5-.2-.5-.5-.5m1 2c-.3 0-.5.2-.5.5s.2.5.5.5.5-.2.5-.5-.2-.5-.5-.5m2 6c-.3 0-.5.2-.5.5s.2.5.5.5.5-.2.5-.5-.2-.5-.5-.5m1 5c-.3 0-.5.2-.5.5s.2.5.5.5.5-.2.5-.5-.2-.5-.5-.5m0 3c-.3 0-.5.2-.5.5s.2.5.5.5.5-.2.5-.5-.2-.5-.5-.5m1 4c-.3 0-.5.2-.5.5s.2.5.5.5.5-.2.5-.5-.2-.5-.5-.5m.2 3.3-.7-.6v2.6l.7-.6.6-.7zm-156.2.7c-.3 0-.5.2-.5.5s.2.5.5.5.5-.2.5-.5-.2-.5-.5-.5m-90 2c-.3 0-.5.2-.5.5s.2.5.5.5.5-.2.5-.5-.2-.5-.5-.5m246.2.3-.7-.6v2.6l.7-.6.6-.7zM453.5 557c-.3 0-.5.2-.5.5s.2.5.5.5.5-.2.5-.5-.2-.5-.5-.5m246.2 8.3-.7-.6v2.6l.7-.6.6-.7zm0 4-.7-.6v2.6l.7-.6.6-.7zM453.5 572c-.3 0-.5.2-.5.5s.2.5.5.5.5-.2.5-.5-.2-.5-.5-.5m245.9 0c-.2 0-.4.9-.4 1.9 0 1.1.4 2.2.9 2.5l.8.5-.5-2.4c-.2-1.4-.6-2.5-.8-2.5m-245.9 2c-.3 0-.5.2-.5.5s.2.5.5.5.5-.2.5-.5-.2-.5-.5-.5m246 5c-.3 0-.5.2-.5.5s.2.5.5.5.5-.2.5-.5-.2-.5-.5-.5m-.5 2h-1.3l.6.7.7.6.7-.6.6-.7zm-243.4 4.3c-.3-.4-.6.2-.5 1.3l.1 1.9.5-1.3c.3-.7.2-1.6-.1-1.9m243.6 4.1-.9-1.7v5.4l.9-.9 1-1zm-242 3.4-1-1 .6 2.9.6 2.8.4-1.9c.2-1 0-2.2-.6-2.8m242.7 3.1-.9-1.4v1.7c0 .9-.6 1.8-1.2 2.1-.7.2-1.1.7-.8 1s1.3 0 2.2-.7l1.7-1.2zm-1.3 5.1c-.1 0-.7.5-1.4 1.2s-1.2 1.6-1.2 2.1.5.7 1.2.5c.6-.2 1.2-1.2 1.4-2.1.1-.9.1-1.7 0-1.7M459 604h-1.3l.6.7.7.6.7-.6.6-.7zm.5 2c-.3 0-.5.2-.5.5s.2.5.5.5.5-.2.5-.5-.2-.5-.5-.5m236.9 0c-.2 0-.4.4-.4 1 0 .5.5 1 1.1 1h1l-.6-1c-.3-.6-.8-1-1.1-1m-236.3 2.7-1.2-1.2.7 1.8c.3 1 .9 1.5 1.2 1.2s0-1.1-.7-1.8m236.8 1.4-.5-1.3-1.3 2.5-1.3 2.5.5 1.4.5 1.3.1-2.2c.1-1.2.6-2.3 1.3-2.5l1.1-.4zm-234.4 3.6-1.3-1.8.2 2.5c0 1.5.4 2.6.8 2.6s.9-.3 1.2-.8c.2-.4-.2-1.5-.9-2.5"/><path d="m696.7 613.3-.7-.6v2.6l.7-.6.6-.7zm-3.1 3.7c-.2 0-.6.7-1 1.5l-.5 1.5h.9c.6 0 1-.7 1-1.5s-.2-1.5-.4-1.5m-229.7 1.4c-.5-.3-.9-.1-.9.3 0 .5.7 1.8 1.5 2.9l1.4 1.9-.6-2.3c-.3-1.2-.9-2.5-1.4-2.8m228.6 3.6c-.3 0-.5.2-.5.5s.2.5.5.5.5-.2.5-.5-.2-.5-.5-.5m-2 1c-.3 0-.5.2-.5.5s.2.5.5.5.5-.2.5-.5-.2-.5-.5-.5m-225.1 1c-.2 0-.4.4-.4 1 0 .5.5 1 1.1 1h1l-.6-1c-.3-.6-.8-1-1.1-1m224.1 1c-.3 0-.5.2-.5.5s.2.5.5.5.5-.2.5-.5-.2-.5-.5-.5m-222.8 2.3-.7-.6v2.6l.7-.6.6-.7zm2.1.7c-.4 0-.8.7-.8 1.5s.4 1.5.8 1.5c.5 0 .9-.7.9-1.5s-.4-1.5-.9-1.5m221.3 3.2-.8-1.4-.7 1.7c-.3.9-.6 1.8-.6 1.9 0 .2.7.3 1.5.3s1.5-.3 1.5-.6-.4-1.2-.9-1.9m-220.9.8h-1.7l1.5 1c.8.5 1.9 1 2.3 1h.8l-.6-1c-.3-.6-1.4-1-2.3-1m217.3 0c-.3 0-.5.2-.5.5s.2.5.5.5.5-.2.5-.5-.2-.5-.5-.5m-1 3c-.3 0-.5.2-.5.5s.2.5.5.5.5-.2.5-.5-.2-.5-.5-.5m-213 1c-.3 0-.5.2-.5.5s.2.5.5.5.5-.2.5-.5-.2-.5-.5-.5m-.5 2c-.5 0-1.1.4-1.4.8l-.5.8 2 .1 1.9.2-.5-1c-.4-.5-1-.9-1.5-.9m212.8.8-.4-1.2-.8 1.2-.7 1.2.8.1c.4 0 1.5.2 2.4.4l1.6.3V638l-1.3 1.1-1.2 1zM472.5 641c-.3 0-.5.2-.5.5s.2.5.5.5.5-.2.5-.5-.2-.5-.5-.5m211 1c-.3 0-.5.2-.5.5s.2.5.5.5.5-.2.5-.5-.2-.5-.5-.5m-207 3.4-1.5-1.9 1.1 3.2c.6 1.8 1.3 3.3 1.5 3.3s.4-.6.4-1.3-.7-2.2-1.5-3.3m203 1.6c-.3 0-.5.2-.5.5s.2.5.5.5.5-.2.5-.5-.2-.5-.5-.5m3 1c-.3 0-.5.2-.5.5s.2.5.5.5.5-.2.5-.5-.2-.5-.5-.5m-3.1 1.1-1.9.1 1.3.5c.7.3 1.6.2 1.9-.1.4-.3-.2-.6-1.3-.5m-2 2.2c-.8 0-1.4.4-1.4.8s.4 1 .9 1.3l.9.6.5-1.3.5-1.4zm-197 .7c-.2 0-.4.4-.4 1 0 .5.5 1 1.1 1h1l-.6-1c-.3-.6-.8-1-1.1-1m2.1 3c-.3 0-.5.2-.5.5s.2.5.5.5.5-.2.5-.5-.2-.5-.5-.5m193 0c-.3 0-.5.2-.5.5s.2.5.5.5.5-.2.5-.5-.2-.5-.5-.5m-191.1 1c-.2 0-.4.4-.4 1 0 .5.5 1 1.1 1h1l-.6-1c-.3-.6-.8-1-1.1-1m186 1c-.3 0-.2.4.1 1 .3.5.8 1 1.1 1s.2-.5-.1-1c-.3-.6-.8-1-1.1-1m-182.8 1.3c-.3-.4-.6.2-.5 1.3l.1 1.9.5-1.3c.3-.7.2-1.6-.1-1.9m181.9 1.3-1.5-.5v.9c0 .6.7 1 1.5 1s1.5-.2 1.5-.4-.7-.6-1.5-1m-180 1.4c-.3 0-.5.2-.5.5s.2.5.5.5.5-.2.5-.5-.2-.5-.5-.5m177.7.6-1-.6-.6 1.6c-.4.9-.5 1.9-.3 2.1s1-.3 1.6-1.1l1.2-1.4zM489.5 663h-1l1.5 1c.8.5 2 1 2.5 1h1l-1.5-1c-.8-.5-1.9-1-2.5-1m180.5 1h-1.3l.6.7.7.6.7-.6.6-.7zm-180.5 1c-.3 0-.5.2-.5.5s.2.5.5.5.5-.2.5-.5-.2-.5-.5-.5m173.7 0c-.4 0-1.5 1.2-2.5 2.5-1 1.4-1.4 2.5-1 2.5.5 0 1.5-.9 2.3-1.9l1.4-2 .9.6 1 .6-.7-1.1c-.4-.7-1-1.2-1.4-1.2m-167.5 1.3-.7-.6v2.6l.7-.6.6-.7zm3.8 2.1-2.3-1.1.5 1.3c.3.8.9 1.4 1.4 1.4s.8.5.7 1.2l-.3 1.2 1.8.2 1.7.2-1.5-.5-1.6-.5 1-1.1.9-1.2zm158.5.6-1-1.5v3.6l-1.9-.6-1.9-.6-.7 2.1-.7 2.1-1.3-.5-1.4-.5.6 1.6.6 1.6 1.8-2.1 1.7-2.2h2.6c1.4 0 2.6-.3 2.6-.8 0-.4-.5-1.4-1-2.2m6.5 0c-.3 0-.5.2-.5.5s.2.5.5.5.5-.2.5-.5-.2-.5-.5-.5m-161 1c-.3 0-.5.2-.5.5s.2.5.5.5.5-.2.5-.5-.2-.5-.5-.5m1.4 2c-.3 0-.5.8-.5 1.9v1.8h2.3c1.3 0 2.3-.3 2.3-.8 0-.4-.5-1.1-1.2-1.5l-1.1-.7.7 1.4.7 1.4-1.4-1.8c-.8-.9-1.6-1.7-1.8-1.7"/><path d="M656 673h-1.3l.6.7.7.6.7-.6.6-.7zm-144.7 1.9-1.3-1.1v2c0 1.2.5 2.4 1 2.7l1 .6v-2.6l1 1.5 1 1.5v-4.8l-.7.6-.6.7zm136.4.1c-.8 0-2.3.7-3.1 1.6l-1.6 1.5-1.1-.7-1.2-.7.6 2.2.5 2.2-1.2-1-1.3-1.1-.6.7c-.4.3-.7.9-.7 1.3s1.4.7 3 .8l3 .1-.5-.9c-.3-.4.2-1.1 1-1.4s1.4-1.1 1.3-1.8l-.3-1.2 1.2-.1c.6 0 1.5-.3 1.9-.8l.7-.7zm-8.2 5c.3 0 .5.2.5.5s-.2.5-.5.5-.5-.2-.5-.5.2-.5.5-.5m10-3c-.3 0-.5.2-.5.5s.2.5.5.5.5-.2.5-.5-.2-.5-.5-.5m-141 1c-.3 0-.5.2-.5.5s.2.5.5.5.5-.2.5-.5-.2-.5-.5-.5m8.7 1.2-2.7-.1 2.5 1.4c1.4.8 2.8 1.4 3.2 1.5.4 0 .5-.6.2-1.3l-.4-1.3zm118.9 1-.8-1.4-.6 2.3-.6 2.2-1.3-1-1.3-1.1-1.1 1.2-1.1 1.2 1.3 1.2 1.3 1.2.6-1 .6-1 1.1.6 1.1.7-.8-1.3-.8-1.3 1.6.6 1.7.6v-1.2c0-.7-.4-1.8-.9-2.5m11.4-1.2c-.3 0-.5.2-.5.5s.2.5.5.5.5-.2.5-.5-.2-.5-.5-.5m-123.4 1.6-1-.6-.6 1-.6 1 2 2.2 2.1 2.2v-1.7c0-.9-.5-1.7-1.1-1.7h-1l.6-.9c.3-.5.1-1.2-.4-1.5m-.6.4c.3 0 .5.2.5.5s-.2.5-.5.5-.5-.2-.5-.5.2-.5.5-.5m-10 0c-.3 0-.5.2-.5.5s.2.5.5.5.5-.2.5-.5-.2-.5-.5-.5m7 2c-.3 0-.5.2-.5.5s.2.5.5.5.5-.2.5-.5-.2-.5-.5-.5m7 0c-.3 0-.5.2-.5.5s.2.5.5.5.5-.2.5-.5-.2-.5-.5-.5m2.2.3-.7-.6v2.6l.7-.6.6-.7zm1.8.7c-.3 0-.5.2-.5.5s.2.5.5.5.5-.2.5-.5-.2-.5-.5-.5m96.7.6-1.2-.7v2h-2.7c-1.6 0-3.9.1-5.2.3l-2.4.3-.5 1.3-.4 1.2 2.7-1c1.5-.6 3.1-.8 3.5-.5.5.3 2.4 0 4.2-.8l3.2-1.3zm-105.7.4c-.3 0-.5.2-.5.5s.2.5.5.5.5-.2.5-.5-.2-.5-.5-.5m11.1 0c-.3 0-.8.5-1.2 1.2l-.7 1.1 1.1-.7c.7-.4 1.2-.9 1.2-1.2 0-.2-.2-.4-.4-.4m3 0c-.8 0-1.7.7-2 1.6-.4.9-.4 1.9-.1 2.2s.5 0 .5-.6v-1.1l1.5.5 1.5.6V685zm4.6 1c-.5 0-1.2.3-1.5.7-.4.3-.7.9-.7 1.3 0 .3 1 .6 2.3.7l2.2.1-1.3-.5-1.2-.5.6-.9c.3-.5.1-.9-.4-.9"/><path d="M545.8 687h-2.1l.6.7.7.6-1.1 1.4-1.1 1.3h1.1c.6 0 1.1-.5 1.1-1.1v-1l4.1.4c2.3.2 4.4.8 4.8 1.3.3.5 1.3 1.1 2.1 1.2.8.2 2.3.5 3.3.7l1.7.4v-2.6l-2.2.1-2.3.1.3-1.5.3-1.5-1.2 1.2-1.2 1.2-1.9-1c-1-.5-2.3-.7-2.8-.4s-1.1.1-1.5-.5c-.3-.5-1.6-1-2.7-1m66.3.6-.9-.6-.6 1.6c-.3.9-.6 2-.6 2.5s.5.9 1.1.9h1.1l-.6-1.6-.6-1.5 1 .6 1 .6v-1c0-.5-.4-1.2-.9-1.5m3.4 1.1-1.3-1.7-.5 2.2c-.4 1.2-.4 2.4-.2 2.6s1 0 1.8-.5l1.5-.8zm-7.1-.7c-.3 0-.7.7-1 1.5l-.6 1.6-1.2-1-1.1-.9-2.7.5c-1.6.3-2.8.9-2.8 1.4v.8l-4.4-.4-4.4-.5.5 2.1.6 2.1.7-1.3.8-1.2 3 .6 3 .6.6-1.6.6-1.5 2 .5 2 .5v-1.9l1 .6 1.1.7-1 1.2-1.1 1.3h2.9l-.2-1.1c-.1-.6.3-1 .8-.9l1.1.2.1-2c.1-1 0-1.9-.3-1.9"/><path d="M596.4 689c-.3 0-.2.4.1 1 .3.5.8 1 1.1 1s.2-.5-.1-1c-.3-.6-.8-1-1.1-1m-55.7 1.3-.7-.6v2.6l.7-.6.6-.7zm25.2.4-.6-.9-.7 1.1c-.4.6-1.1.9-1.5.7-.4-.3-.8.1-.8.9v1.4l.9-.5c.4-.3 1.1.2 1.4 1l.6 1.5 2.6-1c1.4-.5 3.1-.8 3.9-.5l1.3.5v-1.2l.1-1.2 1.4 1.9c.8 1.1 1.5 1.6 1.5 1.2s-.5-1.6-1-2.7l-1.1-1.9-1.9 1-1.9 1-1.8-.7c-1-.4-2.1-1.1-2.4-1.6m-1 1.3c.5 0 1.3.4 1.6 1l.6 1h-1c-.5 0-1.3-.5-1.6-1l-.6-1z"/><path d="M570.5 690c-.3 0-.5.2-.5.5s.2.5.5.5.5-.2.5-.5-.2-.5-.5-.5m10.2 1c-.3 0-1.1.8-1.6 1.8l-.9 1.8h3.7l-.9-1.2-1-1.1.7-.6c.3-.4.3-.7 0-.7m4.5.5c-1.2-.1-2.5.2-2.8.7l-.6 1 2.3-.4 2.4-.3 1.1 1.4 1.1 1.4v-1.7c0-.9-.3-1.7-.6-1.7-.3-.1-1.6-.3-2.9-.4m-32.7.5c-.3 0-.5.2-.5.5s.2.5.5.5.5-.2.5-.5-.2-.5-.5-.5m4 1c-.3 0-.5.2-.5.5s.2.5.5.5.5-.2.5-.5-.2-.5-.5-.5m46 0c-.3 0-.5.2-.5.5s.2.5.5.5.5-.2.5-.5-.2-.5-.5-.5m8.5 0h-1.3l.6.7.7.6.7-.6.6-.7zm-27.5 1c-.3 0-.5.2-.5.5s.2.5.5.5.5-.2.5-.5-.2-.5-.5-.5m12 0c-.3 0-.5.2-.5.5s.2.5.5.5.5-.2.5-.5-.2-.5-.5-.5m-5 2c-.3 0-.5.2-.5.5s.2.5.5.5.5-.2.5-.5-.2-.5-.5-.5"/></g><path fill="#00BF80" d="M608.5 532c-.3 0-.5.2-.5.5s.2.5.5.5.5-.2.5-.5-.2-.5-.5-.5m-67.8 6.7-.5-1.2v5l.5-1.3c.2-.6.2-1.8 0-2.5M551 554l-.9-1.4-.7 1.7c-.3 1-.4 2.1 0 2.4.3.4 1.1.2 1.6-.3l.9-.9z"/><path fill="#00BFFF" d="m587.7 538.2-.5-1.7v7l.5-1.8c.2-.9.2-2.5 0-3.5m9.8 1.8c-.3 0-.5.2-.5.5s.2.5.5.5.5-.2.5-.5-.2-.5-.5-.5m3.5 1h-1.3l.6.7.7.6.7-.6.6-.7zm-3.5 1c-.3 0-.5.2-.5.5s.2.5.5.5.5-.2.5-.5-.2-.5-.5-.5m-10 4c-.3 0-.5.2-.5.5s.2.5.5.5.5-.2.5-.5-.2-.5-.5-.5m.1 2.3c-.3-.4-.6.2-.5 1.3l.1 1.9.5-1.3c.3-.7.2-1.6-.1-1.9m-.1 4.7c-.3 0-.5.2-.5.5s.2.5.5.5.5-.2.5-.5-.2-.5-.5-.5m10.1.3c-.3-.4-.6.2-.5 1.3l.1 1.9.5-1.3c.3-.7.2-1.6-.1-1.9m-9.9 10-.7-.6v2.6l.7-.6.6-.7zM542 566h-1.3l.6.7.7.6.7-.6.6-.7zm45.5 0c-.3 0-.5.2-.5.5s.2.5.5.5.5-.2.5-.5-.2-.5-.5-.5"/><path fill="#80BFBF" d="m551.8 539.9-.4-1.3-.7 2.3-.6 2.4 1.1-1.1c.5-.5.8-1.6.6-2.3m6.7 5.1c-.3 0-.5.2-.5.5s.2.5.5.5.5-.2.5-.5-.2-.5-.5-.5"/><path fill="#0FF" d="M597.5 541c-.3 0-.5.2-.5.5s.2.5.5.5.5-.2.5-.5-.2-.5-.5-.5"/><path fill="#BF8080" d="M192.5 604c-.3 0-.5.2-.5.5s.2.5.5.5.5-.2.5-.5-.2-.5-.5-.5"/><path fill="#404080" d="m497.3 627.6-1.8-.7 1.2 1.2c.7.7 1.5 1 1.8.7s-.2-.9-1.2-1.2m6.4 3.7-.7-.6v2.6l.7-.6.6-.7zm2 1.7h-.8l.6 1c.3.5 1.4 1 2.3 1h1.7l-1.5-1c-.8-.5-1.9-1-2.3-1"/><path fill="#400040" d="M689.5 628c-.3 0-.5.2-.5.5s.2.5.5.5.5-.2.5-.5-.2-.5-.5-.5m-8.1 13c-.3 0-.2.4.1 1 .3.5.8 1 1.1 1s.2-.5-.1-1c-.3-.6-.8-1-1.1-1m-7.9 11c-.3 0-.5.2-.5.5s.2.5.5.5.5-.2.5-.5-.2-.5-.5-.5"/></svg>